<?xml version="1.0" encoding="UTF-8" standalone="no"?>
<!-- Created with Inkscape (http://www.inkscape.org/) -->

<svg
   xmlns:dc="http://purl.org/dc/elements/1.1/"
   xmlns:cc="http://creativecommons.org/ns#"
   xmlns:rdf="http://www.w3.org/1999/02/22-rdf-syntax-ns#"
   xmlns:svg="http://www.w3.org/2000/svg"
   xmlns="http://www.w3.org/2000/svg"
   xmlns:sodipodi="http://sodipodi.sourceforge.net/DTD/sodipodi-0.dtd"
   xmlns:inkscape="http://www.inkscape.org/namespaces/inkscape"
   width="176.4539mm"
   height="246.30457mm"
   viewBox="0 0 625.23036 872.73271"
   id="svg2"
   version="1.1"
   inkscape:version="0.91 r13725"
   sodipodi:docname="2.svg">
  <defs
     id="defs4" />
  <sodipodi:namedview
     id="base"
     pagecolor="#ffffff"
     bordercolor="#666666"
     borderopacity="1.0"
     inkscape:pageopacity="0.0"
     inkscape:pageshadow="2"
     inkscape:zoom="0.35"
     inkscape:cx="496.64891"
     inkscape:cy="130.40643"
     inkscape:document-units="px"
     inkscape:current-layer="layer1"
     showgrid="false"
     fit-margin-top="0"
     fit-margin-left="0"
     fit-margin-right="0"
     fit-margin-bottom="0"
     inkscape:window-width="784"
     inkscape:window-height="822"
     inkscape:window-x="800"
     inkscape:window-y="0"
     inkscape:window-maximized="0" />
  <metadata
     id="metadata7">
    <rdf:RDF>
      <cc:Work
         rdf:about="">
        <dc:format>image/svg+xml</dc:format>
        <dc:type
           rdf:resource="http://purl.org/dc/dcmitype/StillImage" />
        <dc:title></dc:title>
      </cc:Work>
    </rdf:RDF>
  </metadata>
  <g
     inkscape:label="Calque 1"
     inkscape:groupmode="layer"
     id="layer1"
     transform="translate(463.0775,209.96396)">
    <g
       id="g3608"
       transform="translate(-1790.4639,176.89199)">
      <path
         style="fill:#fdfdfd"
         d="m 1327.5,49.50507 0,-436.25 312.5,0 312.5,0 0,436.25 0,436.25 -312.5,0 -312.5,0 0,-436.25 z"
         id="path3624"
         inkscape:connector-curvature="0" />
      <path
         style="fill:#e6e6e6"
         d="m 1333.6252,484.19681 c -1.8959,-0.75393 -3.8487,-2.94868 -4.6875,-5.26827 -2.0668,-5.71559 -2.07,-853.12232 0,-858.8378 0.9685,-2.67839 2.7229,-4.43273 5.4013,-5.40125 5.6984,-2.06059 605.6302,-2.06059 611.3286,0 2.6784,0.96852 4.4328,2.72286 5.4013,5.40125 2.0638,5.70731 2.0638,853.12135 0,858.82865 -0.9685,2.67839 -2.7229,4.43274 -5.4013,5.40125 -5.3415,1.93154 -607.1766,1.80977 -612.0391,-0.12387 z m 611.4709,-5.84559 3.6539,-3.65384 0,-425.19231 0,-425.19231 -3.6539,-3.65384 -3.6538,-3.65385 -301.4423,0 -301.4423,0 -3.6539,3.65385 -3.6538,3.65384 0,425.19231 0,425.19231 3.6538,3.65384 3.6539,3.65385 301.4423,0 301.4423,0 3.6539,-3.65385 z m -576.9683,-34.56069 c -2.061,-1.07721 -4.7904,-2.90266 -6.0655,-4.05656 -6.1617,-5.57626 -5.8123,17.88101 -5.8123,-390.2289 0,-336.43552 0.2208,-381.8011 1.8737,-384.99746 1.0305,-1.99282 3.9399,-5.19926 6.4652,-7.12542 l 4.5915,-3.50212 270.8196,0 270.8196,0 4.5915,3.50212 c 2.5254,1.92616 5.4347,5.1326 6.4652,7.12542 1.6529,3.19636 1.8737,48.56194 1.8737,384.99746 0,336.43552 -0.2208,381.8011 -1.8737,384.99746 -1.0305,1.99281 -3.9398,5.19926 -6.4651,7.12543 l -4.5914,3.50211 -269.4724,0.30951 c -242.6017,0.27867 -269.8461,0.11423 -273.2196,-1.64905 z M 1911.25,432.00507 c 2.489,-2.48904 2.5,-4.16666 2.5,-382.5 0,-378.33333 -0.011,-380.01096 -2.5,-382.5 -2.4845,-2.4845 -4.1667,-2.5 -271.25,-2.5 -267.0833,0 -268.7655,0.0155 -271.25,2.5 -2.489,2.48904 -2.5,4.16667 -2.5,382.5 0,378.33334 0.011,380.01096 2.5,382.5 2.4845,2.4845 4.1667,2.5 271.25,2.5 267.0833,0 268.7655,-0.0155 271.25,-2.5 z M 1627.5,405.16308 c -8.4396,-2.73787 -11.0763,-4.45692 -13.9379,-9.08705 -2.1173,-3.42586 -2.4802,-5.53772 -1.9467,-11.32841 0.3606,-3.91465 1.0183,-8.24255 1.4615,-9.61755 0.7531,-2.3367 0.3256,-2.47304 -6.5456,-2.08731 -6.409,0.35979 -7.842,-1.3e-4 -11.1787,-2.80785 -14.0309,-11.80618 -9.1048,-42.14303 8.0773,-49.74349 8.6558,-3.82889 16.7835,-1.55422 26.8085,7.50276 l 5.0891,4.59769 -0.9413,-4.3559 c -1.2468,-5.7697 -4.7464,-12.54174 -8.0032,-15.48714 -6.015,-5.43981 -0.5426,-9.5952 12.367,-9.39072 13.9663,0.22121 20.0528,5.3653 12.7428,10.76979 -3.4136,2.52377 -4.6655,5.53798 -7.1253,17.15559 l -0.7735,3.65344 5.216,-4.7124 c 12.0688,-10.90342 25.3535,-11.14164 34.2124,-0.61345 8.1387,9.67233 9.982,24.64924 4.3887,35.65951 -3.8374,7.55373 -11.7079,12.26558 -18.7187,11.20624 l -4.4326,-0.66979 0.4796,7.78652 c 0.4047,6.57043 0.023,8.46978 -2.4442,12.16151 -5.9015,8.83061 -22.6313,13.35406 -34.7952,9.40801 z m 220.0907,-18.95158 c -3.5595,-4.52525 -3.2484,-8.74104 0.9554,-12.94484 l 3.5461,-3.5461 -2.9211,-1.33095 c -3.4,-1.54916 -4.0266,-6.94286 -0.9439,-8.1258 1.0875,-0.41731 6.4433,-0.75874 11.9018,-0.75874 9.2896,0 10.0129,0.19381 11.3049,3.02934 1.7621,3.86754 0.4409,11.01776 -2.5333,13.70935 -1.2652,1.14505 -4.7699,2.56689 -7.788,3.15965 l -5.4876,1.07775 7.1637,0.13695 c 6.5023,0.12425 7.2344,0.4189 7.9302,3.19091 1.2331,4.91323 -0.2377,5.69605 -10.7019,5.69605 -9.1367,0 -10.0196,-0.23404 -12.4263,-3.29357 z m 2.7654,-40.9864 c -3.7735,-1.70199 -4.5922,-3.16298 -5.6265,-10.04022 -0.2136,-1.42043 -1.6746,-2.7452 -3.4862,-3.16102 -1.8928,-0.43449 -3.9946,-2.42108 -5.3478,-5.0548 -5.3135,-10.34139 3.5534,-23.73784 13.2673,-20.04463 3.2115,1.221 3.3338,1.12773 2.5607,-1.95272 -0.5353,-2.13276 -0.2219,-3.60864 0.9197,-4.33166 2.601,-1.64723 9.0786,-1.35452 11.6511,0.52648 1.8558,1.35699 2.0141,2.14364 0.8639,4.29282 -2.0222,3.77843 -1.7927,4.13 1.8035,2.76273 9.397,-3.57276 17.8727,7.29687 14.2497,18.27463 -1.059,3.20877 -2.6536,4.98849 -5.5565,6.2014 -2.9361,1.22676 -4.2802,2.74567 -4.8206,5.4473 -1.387,6.93534 -12.3758,10.73431 -20.4783,7.07969 z m -434.6505,-547.38149 c -1.8558,-1.35699 -2.0141,-2.14364 -0.8639,-4.29281 2.0222,-3.77844 1.7927,-4.13 -1.8034,-2.76274 -13.429,5.10566 -21.8021,-18.9988 -8.5264,-24.54573 2.5466,-1.06406 4.2381,-2.65088 4.2381,-3.9759 0,-6.05836 8.8685,-11.22087 16.7393,-9.74428 6.0123,1.12791 8.4919,3.48403 9.3733,8.90663 0.6223,3.82867 1.4401,4.99429 3.8999,5.5589 1.8866,0.43303 3.9906,2.42345 5.3419,5.0534 5.3135,10.34139 -3.5534,23.73784 -13.2673,20.04463 -3.2115,-1.221 -3.3338,-1.12773 -2.5607,1.95272 0.5353,2.13277 0.222,3.60864 -0.9197,4.33167 -2.601,1.64722 -9.0786,1.35451 -11.6511,-0.52649 z m 214.8103,-4.51701 c -2.1225,-0.50743 -4.5131,-1.32679 -5.3125,-1.82083 -2.1031,-1.29976 -1.7849,-5.70197 0.4749,-6.5691 2.7965,-1.07315 6.4431,-8.9027 7.4918,-16.08594 l 0.9082,-6.22066 -4.7447,4.83715 c -2.6095,2.66044 -6.6028,5.61356 -8.874,6.5625 -6.0625,2.53308 -15.3297,2.17629 -20.1729,-0.77666 -5.3384,-3.25484 -11.0556,-12.39949 -12.8974,-20.62934 -3.6435,-16.28097 9.1825,-33.7418 22.7867,-31.02095 l 3.634,0.7268 -0.8012,-6.81666 c -1.312,-11.16317 4.7019,-19.11751 17.2774,-22.85202 8.1389,-2.41702 10.9433,-2.39166 20.1153,0.18189 15.0502,4.22286 20.3089,15.56198 14.1043,30.41229 -0.6491,1.5535 0.5948,1.875 7.2547,1.875 6.8513,0 8.5305,0.46138 11.3729,3.125 1.8342,1.71875 4.194,5.09375 5.244,7.5 2.2856,5.23787 2.5527,20.28091 0.4549,25.625 -4.7044,11.98448 -14.5127,19.05662 -24.3777,17.57728 -5.7274,-0.85888 -16.1597,-6.96335 -18.6127,-10.89122 -4.1701,-6.67747 -2.975,2.40619 1.4551,11.0594 1.4769,2.88501 3.584,5.74835 4.6823,6.36298 3.4072,1.90677 1.7329,7.00059 -2.6043,7.92312 -5.078,1.08012 -14.1566,1.03918 -18.8591,-0.085 z m -221.4729,-55.2785 c -2.4437,-2.44372 -1.855,-10.30918 1.0477,-13.99946 2.0012,-2.54402 3.6912,-3.29357 7.4263,-3.29357 7.8416,0 7.0607,-2.3337 -0.9199,-2.74909 -7.1077,-0.36995 -7.2221,-0.43532 -7.2221,-4.12591 l 0,-3.75 9.8602,-0.36819 c 8.7494,-0.32671 10.1927,-0.0557 12.8125,2.40539 6.4318,6.04241 1.1625,17.09075 -8.3661,17.54155 -2.9834,0.14114 -2.1942,0.4292 2.5684,0.9375 6.6425,0.70894 6.875,0.86057 6.875,4.48375 l 0,3.75 -11.2695,0.35553 c -7.6963,0.24281 -11.7587,-0.13372 -12.8125,-1.1875 z"
         id="path3622"
         inkscape:connector-curvature="0" />
      <path
         style="fill:#d8d8d8"
         d="m 1333.8876,484.01068 c -6.7121,-3.72024 -6.2956,24.78369 -6.3433,-434.134297 -0.034,-328.088243 0.3003,-427.259973 1.4491,-429.781243 3.3332,-7.31567 -18.2831,-6.84007 310.8857,-6.84007 231.8704,0 303.2686,0.34869 305.7808,1.49336 7.3554,3.35134 6.8401,-29.40324 6.8401,434.75664 0,464.15987 0.5153,431.4053 -6.8401,434.75664 -5.0745,2.31212 -607.5939,2.0649 -611.7723,-0.25103 z m 604.2374,-0.75561 c -0.4249,-0.6875 0.4112,-1.25 1.8581,-1.25 3.3941,0 8.7669,-5.37284 8.7669,-8.76695 0,-1.44682 0.5625,-2.28295 1.25,-1.85805 0.8324,0.51445 1.25,-140.42828 1.25,-421.875 0,-281.44672 -0.4176,-422.38945 -1.25,-421.875 -0.6875,0.4249 -1.25,-0.41122 -1.25,-1.85805 0,-3.39411 -5.3728,-8.76695 -8.7669,-8.76695 -1.4469,0 -2.283,-0.5625 -1.8581,-1.25 0.5142,-0.832 -99.1783,-1.25 -298.125,-1.25 -198.9467,0 -298.6392,0.418 -298.125,1.25 0.4249,0.6875 -0.4112,1.25 -1.858,1.25 -3.3942,0 -8.767,5.37284 -8.767,8.76695 0,1.44683 -0.5625,2.28295 -1.25,1.85805 -0.8324,-0.51445 -1.25,140.42827 -1.25,421.875 0,281.44672 0.4176,422.38945 1.25,421.875 0.6875,-0.4249 1.25,0.41123 1.25,1.85805 0,3.39411 5.3728,8.76695 8.767,8.76695 1.4468,0 2.2829,0.5625 1.858,1.25 -0.5142,0.832 99.1783,1.25 298.125,1.25 198.9467,0 298.6392,-0.418 298.125,-1.25 z m -571.9997,-41.4171 c -2.4749,-1.43533 -5.428,-4.18108 -6.5625,-6.10166 -1.905,-3.22477 -2.0628,-32.77894 -2.0628,-386.23124 0,-354.35788 0.1539,-382.99974 2.0749,-386.25182 1.1412,-1.9319 4.1709,-4.69056 6.7327,-6.13036 l 4.6578,-2.61782 269.0346,0 269.0346,0 4.6578,2.61782 c 2.5618,1.4398 5.5915,4.19846 6.7327,6.13036 1.921,3.25208 2.0749,31.89394 2.0749,386.25182 0,354.35788 -0.1539,382.99974 -2.0749,386.25181 -1.1412,1.9319 -4.1709,4.69056 -6.7327,6.13036 l -4.6578,2.61783 -269.2048,-0.0287 -269.2048,-0.0287 -4.4997,-2.60968 z m 545.8505,-9.13431 c 2.6735,-3.65636 2.6735,-762.74093 0,-766.39718 -1.7469,-2.38892 -5.9485,-2.42641 -271.9758,-2.42641 -266.0273,0 -270.2289,0.0375 -271.9758,2.42641 -1.5231,2.08299 -1.7742,56.31862 -1.7742,383.19859 0,302.71322 0.3203,381.18391 1.5625,382.78064 0.8594,1.10465 2.6875,2.2745 4.0625,2.59965 1.375,0.32516 123.061,0.51323 270.4133,0.41795 263.6585,-0.17049 267.9415,-0.21178 269.6875,-2.59965 z m -286.2785,-28.81374 c -7.3468,-2.61718 -11.1329,-5.93828 -12.9723,-11.37924 -1.6066,-4.75208 -0.9402,-12.25505 1.6293,-18.34601 0.8485,-2.01128 0.3166,-2.14464 -5.7724,-1.4474 -5.7355,0.65678 -7.3405,0.34161 -11.0819,-2.1761 -14.6035,-9.82722 -12.1702,-38.65221 4.1003,-48.57279 8.2681,-5.04126 20.4347,-1.80677 29.0424,7.72089 2.5034,2.77096 4.8261,4.76362 5.1616,4.42814 1.9628,-1.96281 -6.7914,-22.11234 -9.607,-22.11234 -2.0148,0 -1.3285,-5.93219 0.7799,-6.74126 3.2912,-1.26295 18.636,-0.85069 22.8363,0.61355 4.7349,1.65061 5.0268,4.28529 0.8395,7.57898 -3.3095,2.60329 -6.903,12.58296 -6.903,19.1708 l 0,3.91833 6.1749,-5.95179 c 10.1875,-9.81948 20.8441,-10.9771 29.6749,-3.22355 10.1418,8.90463 13.1914,24.21227 7.3312,36.79933 -4.1397,8.89154 -9.0808,11.94822 -17.9717,11.11765 -5.6125,-0.52433 -6.5502,-0.3218 -5.9348,1.2819 6.1465,16.01732 -5.4236,29.28774 -25.3985,29.1312 -3.8506,-0.0301 -9.2185,-0.84481 -11.9287,-1.81029 z m 223.317,-17.22849 c -5.7857,-6.1586 -1.5388,-15.90636 6.93,-15.90636 2.1495,0 4.2558,-0.5625 4.6807,-1.25 0.4759,-0.76998 -1.639,-1.25 -5.5073,-1.25 -4.7728,0 -6.5693,-0.54108 -7.4865,-2.25485 -2.3343,-4.36178 0.062,-5.36955 11.8495,-4.98434 l 11.1443,0.36419 0.3916,5.46025 c 0.5191,7.23817 -3.1072,11.41475 -9.9107,11.41475 -2.5896,0 -5.056,0.5625 -5.4809,1.25 -0.4736,0.76626 1.5538,1.25741 5.2387,1.26914 7.3617,0.0235 9.4822,1.23931 8.9332,5.12222 -0.3932,2.78105 -1.0193,3.00822 -9.2201,3.34557 -7.8745,0.32393 -9.0883,0.053 -11.5625,-2.58057 z m -1.0771,-44.10553 c -2.3807,-2.38064 -3.0611,-4.13966 -2.6597,-6.875 0.4331,-2.95101 0.078,-3.67583 -1.8008,-3.67583 -4.1104,0 -8.4772,-5.60829 -8.472,-10.88069 0.01,-9.83071 7.3648,-16.13212 15.3234,-13.12809 3.215,1.21353 3.5361,1.12685 2.7657,-0.74666 -2.0468,-4.97782 -1.3796,-5.85925 4.7315,-6.25107 4.5749,-0.29333 6.1301,0.0872 6.7284,1.64652 0.4281,1.11541 0.1411,2.66523 -0.6377,3.44401 -0.7788,0.77879 -1.416,2.16702 -1.416,3.08495 0,1.26273 0.5885,1.35402 2.4178,0.375 4.3124,-2.30792 8.8563,-1.46215 12.6784,2.35988 4.9305,4.93054 5.21,13.65359 0.5856,18.27796 -1.6875,1.6875 -4.2187,3.06819 -5.625,3.06819 -1.9935,0 -2.5568,0.80622 -2.5568,3.65927 0,8.50708 -15.2881,12.4163 -22.0628,5.64155 z m -432.4909,-546.19084 c -0.4281,-1.11542 -0.1411,-2.66523 0.6377,-3.44401 0.7788,-0.77879 1.416,-2.16702 1.416,-3.08496 0,-1.26272 -0.5885,-1.35401 -2.4178,-0.375 -4.3124,2.30793 -8.8563,1.46215 -12.6784,-2.35987 -4.9305,-4.93054 -5.21,-13.65359 -0.5856,-18.27796 1.6875,-1.6875 4.2187,-3.06819 5.625,-3.06819 1.9935,0 2.5568,-0.80623 2.5568,-3.65928 0,-8.50707 15.2881,-12.4163 22.0628,-5.64155 2.3806,2.38064 3.0611,4.13965 2.6597,6.875 -0.4331,2.951 -0.078,3.67583 1.8008,3.67583 4.1104,0 8.4772,5.60829 8.472,10.88069 -0.01,9.83071 -7.3648,16.13212 -15.3234,13.12809 -3.215,-1.21353 -3.5361,-1.12685 -2.7657,0.74666 2.0468,4.97782 1.3796,5.85925 -4.7314,6.25107 -4.575,0.29333 -6.1302,-0.0873 -6.7285,-1.64652 z m 212.4941,-4.35163 c -4.4634,-1.80086 -4.6687,-3.75476 -0.7927,-7.5442 3.7307,-3.64753 5.6935,-8.67785 7.2725,-18.63894 l 0.8797,-5.54977 -6.0874,6.24161 c -10.9354,11.21229 -23.1573,12.11659 -32.4793,2.40314 -9.4873,-9.88579 -11.6738,-22.9043 -5.7957,-34.50726 4.6399,-9.15869 10.2111,-12.87208 17.9749,-11.98073 l 5.7874,0.66445 -0.6381,-7.94925 c -0.5361,-6.67855 -0.2048,-8.65026 2.0723,-12.33464 8.356,-13.52032 38.3884,-14.11796 47.2574,-0.94042 3.3818,5.0248 3.7803,13.00214 0.9836,19.69545 -1.0312,2.46813 -1.875,4.65472 -1.875,4.8591 0,0.20437 2.0775,-0.20204 4.6166,-0.90313 6.1823,-1.70702 13.0123,0.40798 17.1334,5.30564 9.5588,11.35998 6.412,34.89792 -5.8534,43.78292 -9.1103,6.59946 -22.0582,3.94787 -31.4421,-6.43897 -4.0813,-4.51748 -4.4545,-4.68711 -4.4545,-2.02464 0,5.24885 3.7935,14.17525 7.5561,17.78007 4.3026,4.12207 4.6374,6.22832 1.2761,8.02723 -2.8922,1.54784 -19.5926,1.58522 -23.3918,0.0524 z M 1408.75,-267.9042 c 0,-5.16513 0.5316,-6.57744 3.2936,-8.75 2.0417,-1.60604 5.1299,-2.59073 8.125,-2.59073 2.6573,0 4.8314,-0.5625 4.8314,-1.25 0,-0.6875 -3.074,-1.25 -6.831,-1.25 -5.4698,0 -7.0884,-0.48088 -8.1225,-2.41319 -2.1541,-4.02496 1.4483,-6.33681 9.8742,-6.33681 9.2844,0 13.8293,3.11083 13.8293,9.46573 0,5.5001 -3.6801,9.27805 -9.0625,9.30341 -2.2344,0.0105 -4.9062,0.56441 -5.9375,1.23086 -1.3335,0.86177 0.1566,1.21725 5.1594,1.23086 7.3932,0.0201 10.7703,2.04334 9.3947,5.62822 -0.5775,1.50488 -3.158,1.89092 -12.6399,1.89092 l -11.9142,0 0,-6.15927 z"
         id="path3620"
         inkscape:connector-curvature="0" />
      <path
         style="fill:#a6a6a6"
         d="m 1334.7032,483.79833 c -7.802,-4.23332 -7.2032,31.86901 -7.2032,-434.29326 0,-377.55168 0.2122,-425.53447 1.8962,-428.79092 4.1664,-8.05695 -20.7295,-7.45908 310.6038,-7.45908 331.3333,0 306.4374,-0.59787 310.6038,7.45908 1.684,3.25645 1.8962,51.23924 1.8962,428.79092 0,377.55167 -0.2122,425.53448 -1.8962,428.79091 -4.1671,8.05846 20.7716,7.46407 -310.8542,7.40904 -264.3514,-0.0439 -302.0474,-0.27947 -305.0464,-1.90669 z m 608.2226,-1.32502 c 2.495,-1.18975 5.1027,-3.79748 6.2924,-6.29242 1.8633,-3.90731 2.0318,-39.29136 2.0318,-426.67582 0,-387.38446 -0.1685,-422.76852 -2.0318,-426.67583 -4.3198,-9.05876 22.9679,-8.32417 -309.2182,-8.32417 -332.1861,0 -304.8984,-0.73459 -309.2182,8.32417 -1.8633,3.90731 -2.0318,39.29137 -2.0318,426.67583 0,387.60577 0.1676,422.76674 2.0344,426.68127 4.2276,8.86544 -22.5868,8.15018 308.8607,8.23879 273.5715,0.0731 299.3827,-0.093 303.2807,-1.95182 z m -575.41,-40.81189 c -3.1714,-1.67707 -6.3289,-4.61769 -7.6966,-7.168 -2.2444,-4.18484 -2.3192,-16.60522 -2.3192,-384.98835 0,-368.38312 0.075,-380.80352 2.3192,-384.98835 1.3677,-2.55031 4.5252,-5.49092 7.6966,-7.16799 l 5.3774,-2.84366 267.1068,0 267.1068,0 5.3774,2.84366 c 3.1714,1.67707 6.3289,4.61768 7.6966,7.16799 2.2444,4.18483 2.3192,16.60523 2.3192,384.98835 0,368.38313 -0.075,380.80351 -2.3192,384.98835 -1.3677,2.55031 -4.5252,5.49093 -7.6966,7.168 l -5.3774,2.84365 -267.1068,0 -267.1068,0 -5.3774,-2.84365 z m 544.9355,-8.64205 2.5487,-2.7357 0,-380.621237 0,-380.621233 -2.7179,-2.89307 -2.7179,-2.89306 -269.389,0 -269.3891,0 -2.893,2.71789 -2.8931,2.7179 0,380.796397 0,380.796413 2.5487,2.7357 2.5487,2.7357 269.9026,0 269.9026,0 2.5487,-2.7357 z M 1629.375,404.05296 c -8.5044,-2.1546 -11.5816,-4.00684 -14.4372,-8.69016 -2.8611,-4.6923 -3.0623,-11.94454 -0.5267,-18.98273 2.3644,-6.56302 2.2984,-7.20889 -0.5789,-5.66897 -4.2871,2.29438 -13.1697,1.5499 -16.9457,-1.42028 -8.2279,-6.47214 -10.6575,-22.44475 -5.1974,-34.16985 8.419,-18.07906 25.3138,-19.62977 39.4087,-3.61717 l 5.1522,5.85325 0,-4.36447 c 0,-6.26056 -2.2211,-12.05742 -7.0425,-18.38015 -4.8195,-6.32017 -5.0381,-7.1949 -2.02,-8.08147 6.3319,-1.86004 12.0154,-2.10911 18.3097,-0.80242 7.8432,1.62824 8.6598,3.25594 3.9806,7.93506 -3.3897,3.38972 -5.3841,9.41717 -6.4826,19.59147 l -0.7423,6.875 5.2575,-5.98044 c 11.458,-13.03351 23.9045,-14.432 33.9858,-3.81866 8.0427,8.46717 10.036,22.88825 4.6496,33.63954 -4.9,9.78058 -11.5823,12.91816 -21.6164,10.14965 -3.1595,-0.87175 -3.4795,-0.71905 -2.6387,1.25891 0.5263,1.23805 1.2193,5.37165 1.54,9.18577 0.5235,6.22447 0.2218,7.36424 -2.9449,11.12775 -6.5229,7.75197 -19.62,11.27155 -31.1108,8.36037 z m 220.0306,-17.49595 c -3.3077,-2.4186 -3.0015,-8.84927 0.604,-12.68711 2.1297,-2.26706 4.2277,-3.11483 7.7083,-3.11483 2.6302,0 4.7821,-0.5625 4.7821,-1.25 0,-0.6875 -2.287,-1.25 -5.0822,-1.25 -5.7782,0 -9.9178,-1.78862 -9.9178,-4.28524 0,-2.47438 2.8922,-3.21476 12.5583,-3.21476 7.4061,0 8.7954,0.3582 9.9809,2.57331 1.7462,3.26266 0.5137,9.03886 -2.513,11.778 -1.2827,1.1608 -4.6258,2.4182 -7.4292,2.79421 -7.9342,1.06419 -6.7162,4.10448 1.6443,4.10448 5.0091,0 6.9372,0.51075 7.504,1.9878 0.4196,1.0933 0.4465,2.49955 0.06,3.125 -1.1237,1.81824 -17.2683,1.36321 -19.8997,-0.56086 z m 1.8444,-42.92963 c -3.8263,-1.96547 -4.4232,-2.91356 -4.7594,-7.55981 -0.332,-4.58973 -0.7734,-5.3125 -3.2437,-5.3125 -6.9381,0 -10.0613,-11.53494 -4.9755,-18.37634 3.1202,-4.19737 9.2337,-5.22685 13.6921,-2.30563 2.7014,1.77004 3.0365,1.77763 3.0365,0.0689 0,-1.05642 -0.7031,-3.0553 -1.5625,-4.44195 -1.2879,-2.07806 -1.2329,-2.73081 0.3125,-3.7139 2.3707,-1.50802 6.3395,-1.53151 8.6789,-0.0514 1.4711,0.93075 1.5288,1.74531 0.3125,4.41467 -0.8203,1.80034 -1.4914,4.12251 -1.4914,5.1604 0,1.6651 0.3268,1.65819 2.7781,-0.0589 10.0446,-7.03548 21.5193,5.75072 14.8,16.49162 -1.772,2.83259 -3.493,4.0625 -5.6847,4.0625 -2.5005,0 -3.1434,0.62489 -3.1434,3.0553 0,7.98454 -10.5234,12.79278 -18.75,8.56701 z m -433.6789,-546.55194 c -1.4711,-0.93075 -1.5288,-1.74531 -0.3125,-4.41467 0.8203,-1.80034 1.4914,-4.12251 1.4914,-5.1604 0,-1.6651 -0.3268,-1.65819 -2.7781,0.0589 -10.0446,7.03542 -21.5193,-5.75078 -14.8,-16.49168 1.772,-2.83259 3.493,-4.0625 5.6847,-4.0625 2.5005,0 3.1434,-0.62489 3.1434,-3.0553 0,-1.68041 1.3575,-4.63354 3.0168,-6.5625 2.4515,-2.85006 4.0427,-3.5072 8.4924,-3.5072 8.1086,0 12.2408,3.17452 12.2408,9.40381 0,4.38165 0.3476,4.97119 2.9313,4.97119 7.0043,0 10.1619,11.49609 5.0473,18.37634 -3.1202,4.19737 -9.2337,5.22685 -13.6921,2.30563 -2.7014,-1.77005 -3.0365,-1.77763 -3.0365,-0.0688 0,1.05642 0.7031,3.0553 1.5625,4.44195 1.2879,2.07806 1.233,2.73081 -0.3125,3.7139 -2.3707,1.50803 -6.3395,1.53151 -8.6789,0.0514 z m 214.7115,-4.67473 c -2.5258,-0.29437 -5.2834,-1.36789 -6.128,-2.38562 -1.2558,-1.51312 -0.9184,-2.49477 1.8511,-5.38548 3.9085,-4.07957 7.0052,-13.24808 6.9698,-20.6357 l -0.024,-5.11384 -4.4938,5.3602 c -14.4243,17.20521 -34.4232,12.29815 -41.0678,-10.07668 -2.9455,-9.91836 0.4182,-21.11899 8.3454,-27.78926 3.7522,-3.15733 4.681,-3.3719 11.7421,-2.71253 l 7.6675,0.716 -1.8924,-5.26251 c -6.2824,-17.47058 13.1301,-30.95288 35.6286,-24.7447 14.2075,3.92037 18.0559,15.13324 10.9531,31.91399 -0.8633,2.03957 -0.6528,2.24601 1.3868,1.3602 9.4588,-4.10813 18.8942,-1.05701 23.0075,7.43997 5.1467,10.63152 2.1057,30.18099 -5.7841,37.18515 -9.9274,8.81292 -23.2908,6.39571 -34.0519,-6.15939 -4.7891,-5.58745 -5.1264,-5.76947 -5.134,-2.76982 -0.015,5.83841 3.7918,16.13414 7.5456,20.40952 3.7098,4.22518 4.5035,6.36323 2.7589,7.43117 -1.5886,0.97238 -14.4302,1.78451 -19.2799,1.21933 z m -221.9868,-55.59987 c -0.8502,-0.85017 -1.5458,-3.30397 -1.5458,-5.45288 0,-5.29417 4.4375,-9.34289 10.24,-9.34289 4.7306,0 9.039,-3.1904 5.8383,-4.32327 -0.9368,-0.33157 -4.5158,-0.7601 -7.9533,-0.95229 -5.3002,-0.29634 -6.25,-0.72937 -6.25,-2.84944 0,-2.22172 0.9578,-2.54157 8.6046,-2.87342 7.4689,-0.32414 8.995,-0.007 11.5625,2.40539 6.232,5.8547 2.1232,13.62615 -7.8071,14.76643 -8.1815,0.93947 -7.2546,3.05235 1.6787,3.8266 6.1696,0.53472 7.2113,0.98613 7.2113,3.125 0,2.26221 -0.9528,2.53408 -10.0167,2.85827 -6.7194,0.24034 -10.5256,-0.15056 -11.5625,-1.1875 z"
         id="path3618"
         inkscape:connector-curvature="0" />
      <path
         style="fill:#5c5c5c"
         d="m 1336.6819,484.79843 c -0.7938,-0.5051 135.6994,-0.91836 303.3181,-0.91836 167.6187,0 304.1119,0.41326 303.3181,0.91836 -0.7937,0.5051 -137.2868,0.91835 -303.3181,0.91835 -166.0312,0 -302.5244,-0.41325 -303.3181,-0.91835 z m -8.394,-9.35586 c -1.0472,-3.90756 -0.8116,-849.81015 0.2375,-852.45337 0.4673,-1.17748 0.8496,190.77564 0.8496,426.562495 0,235.786865 -0.075,428.703375 -0.1667,428.703375 -0.092,0 -0.5059,-1.26563 -0.9204,-2.8125 z M 1950.625,49.50507 c 0,-235.7612 0.3823,-427.69335 0.8496,-426.51587 0.4674,1.17748 0.8497,193.10962 0.8497,426.51587 0,233.40625 -0.3823,425.33839 -0.8497,426.51588 -0.4673,1.17747 -0.8496,-190.75468 -0.8496,-426.51588 z m -583.2497,391.0829 c -2.4749,-1.43533 -5.428,-4.18108 -6.5625,-6.10166 -1.9049,-3.2247 -2.0628,-32.69062 -2.0628,-384.98124 0,-359.24203 0.126,-381.70253 2.1602,-385.14619 1.1881,-2.0113 4.4594,-4.76997 7.2697,-6.13036 5.0422,-2.44091 8.6186,-2.47345 271.8201,-2.47345 263.2016,0 266.7779,0.0326 271.8202,2.47345 2.8102,1.36039 6.0815,4.11906 7.2696,6.13036 2.0342,3.44366 2.1602,25.90416 2.1602,385.14619 0,353.19324 -0.1539,381.7498 -2.0749,385.00181 -1.1412,1.9319 -4.1709,4.69056 -6.7327,6.13036 l -4.6578,2.61783 -267.9548,-0.0287 -267.9548,-0.0287 -4.4997,-2.60968 z m 545.2987,-5.97244 2.951,-2.38954 0.3433,-379.797958 c 0.1888,-208.888872 0.034,-381.077892 -0.3443,-382.642262 -0.3782,-1.56436 -1.7983,-3.95498 -3.1558,-5.3125 -2.4424,-2.44237 -5.2942,-2.4682 -272.4682,-2.4682 -267.174,0 -270.0258,0.0258 -272.4682,2.46821 -1.3575,1.35751 -2.7776,3.74813 -3.1558,5.3125 -0.3782,1.56436 -0.5331,173.75338 -0.3443,382.642252 l 0.3433,379.797958 2.951,2.38954 c 2.8851,2.33622 8.9698,2.38954 272.674,2.38954 263.7043,0 269.7889,-0.0534 272.674,-2.38954 z m -283.0271,-31.47494 c -11.274,-2.65472 -15.907,-7.79848 -15.8847,-17.63594 0.01,-3.05352 1.3317,-8.20867 3.0675,-11.93708 3.2585,-6.99891 3.0679,-7.4872 -1.8297,-4.6875 -4.6909,2.68159 -14.0388,2.36585 -17.8113,-0.6016 -6.5111,-5.12159 -9.1808,-18.70934 -5.8562,-29.80574 2.1808,-7.27904 8.9882,-14.87107 14.7174,-16.41377 8.572,-2.3082 18.8317,2.49901 25.7933,12.08558 2.08,2.86428 4.2037,5.24214 4.7193,5.28415 1.3601,0.11075 1.1364,-8.53221 -0.3603,-13.92117 -0.7061,-2.5424 -3.2134,-7.48991 -5.5718,-10.99446 -5.1615,-7.66992 -4.5958,-8.17218 9.0721,-8.05552 10.8065,0.0922 13.289,1.65768 9.3232,5.87907 -3.4911,3.71607 -6.1812,11.47097 -7.247,20.89083 -1.0092,8.9202 0.9172,10.08964 5.3484,3.24686 1.5136,-2.33742 4.8449,-5.84608 7.4027,-7.79703 3.9886,-3.04227 5.7893,-3.5472 12.6501,-3.5472 7.7704,0 8.1381,0.1486 12.8386,5.1878 12.0045,12.86938 10.435,35.60134 -2.9091,42.13471 -4.8389,2.36914 -5.4433,2.32784 -16.8906,-1.15411 l -2.9062,-0.88399 2.5937,4.83929 c 1.6063,2.99705 2.5937,7.1542 2.5937,10.92029 0,5.21385 -0.5887,6.66971 -4.1283,10.20932 -2.5115,2.51147 -6.7616,4.91033 -10.8519,6.125 -7.3755,2.1903 -10.7493,2.30964 -17.8729,0.63222 z m 219.8372,-18.85903 c -2.5865,-3.69279 -2.5038,-5.02859 0.5515,-8.91278 1.8747,-2.38328 3.9081,-3.32317 7.8017,-3.60607 3.8343,-0.2786 5.379,-0.97742 5.6811,-2.57014 0.3483,-1.83634 -0.5529,-2.19058 -5.6142,-2.20664 -3.3161,-0.01 -6.8044,-0.51014 -7.7518,-1.11025 -3.5984,-2.27918 0.1689,-3.87061 9.1626,-3.87061 7.2065,0 9.3298,0.42296 9.9263,1.97724 2.4589,6.40786 -1.493,11.86317 -9.3538,12.91215 -4.434,0.59168 -5.5125,1.22475 -5.5125,3.23561 0,2.12121 1.0417,2.5947 6.875,3.125 9.528,0.86619 8.62,3.04807 -1.4534,3.49212 -7.458,0.32877 -8.5357,0.0711 -10.3125,-2.46563 z m 1.4534,-41.67377 c -2.9372,-1.65131 -3.4375,-2.73387 -3.4375,-7.43844 0,-5.29549 -0.1549,-5.52086 -4.0538,-5.89758 -5.5706,-0.53826 -8.0867,-5.61514 -6.0884,-12.28488 0.772,-2.57688 2.2748,-5.40823 3.3396,-6.29187 2.8901,-2.3986 8.9514,-1.94098 12.1253,0.91545 4.5725,4.11521 6.8312,4.30413 11.7282,0.98094 5.5204,-3.74625 6.6996,-3.80404 10.8591,-0.53218 7.0569,5.55098 5.1831,17.53422 -2.9234,18.69584 -3.9999,0.57317 -4.3301,0.94075 -3.9816,4.4327 0.2555,2.56046 -0.4292,4.54001 -2.0905,6.04343 -3.3992,3.07622 -11.217,3.77157 -15.477,1.37659 z m 4.7991,-34.50455 c -2.2868,-4.58402 -1.6938,-6.09817 2.3884,-6.09817 3.9635,0 4.5907,1.35334 2.8115,6.06683 -1.8594,4.92609 -2.7554,4.93149 -5.1999,0.0314 z m -437.4984,-512.165 c -0.7942,-1.28513 1.9405,-8.93317 3.1943,-8.93317 1.3482,0 4.8713,7.65169 4.0987,8.90183 -0.8707,1.40872 -6.427,1.43261 -7.293,0.0314 z M 1631.25,-208.896 c -5.0055,-0.89798 -5.7875,-2.55448 -2.6053,-5.51907 1.5844,-1.47615 3.7016,-4.64838 4.7048,-7.04941 2.2111,-5.29186 3.7741,-21.53045 2.0724,-21.53045 -0.6548,0 -2.9557,2.50416 -5.1131,5.56481 -4.9379,7.00545 -11.926,10.68519 -20.2919,10.68519 -5.7849,0 -6.7915,-0.45956 -11.6368,-5.3125 -3.853,-3.85905 -5.9348,-7.39959 -7.6093,-12.94099 -2.1675,-7.17285 -2.1841,-8.04512 -0.2772,-14.60436 3.8716,-13.31802 11.9346,-18.89499 22.1661,-15.33184 7.512,2.61608 7.5219,2.60912 4.8066,-3.37281 -5.9419,-13.09046 -0.8586,-22.40976 14.5186,-26.61685 6.3047,-1.72494 8.7756,-1.84002 14.4066,-0.67102 17.319,3.5954 22.0779,13.27209 14.7446,29.98104 -1.3291,3.02812 -2.1806,5.74147 -1.8924,6.02967 0.2882,0.2882 2.2358,-0.36123 4.3281,-1.44317 5.8566,-3.02856 13.0616,-2.53499 17.4988,1.19874 7.4411,6.26124 9.076,21.45355 3.5966,33.42206 -3.5287,7.7076 -8.8712,12.14212 -15.6632,13.00094 -6.5884,0.83309 -17.1211,-4.80724 -22.5747,-12.08891 -5.9993,-8.01016 -6.9676,-7.90123 -5.9601,0.67057 0.9879,8.4061 4.2643,16.43004 8.0993,19.83567 1.4748,1.30967 2.6815,3.06748 2.6815,3.90625 0,2.59898 -10.9982,3.80133 -20,2.18643 z m -200.8096,-1.60222 c -1.4765,-0.58934 -3.078,-1.70814 -3.5589,-2.48622 -0.4809,-0.77808 -2.2231,-1.92749 -3.8716,-2.55424 -2.3542,-0.89508 -3.9745,-0.47629 -7.553,1.9521 -5.5286,3.75181 -6.7064,3.81006 -10.8668,0.53749 -7.057,-5.55098 -5.1832,-17.53422 2.9233,-18.69584 3.9999,-0.57317 4.3301,-0.94075 3.9816,-4.4327 -0.7218,-7.23346 9.1876,-11.61411 17.0615,-7.54235 3.5204,1.82048 3.9435,2.63076 3.9435,7.55295 0,5.30431 0.154,5.52858 4.0538,5.9054 5.5706,0.53826 8.0867,5.61514 6.0884,12.28488 -2.0352,6.79292 -6.7222,9.66563 -12.2018,7.47853 z m -19.5591,-53.28208 c -1.7615,-1.7615 -0.8466,-8.85856 1.4046,-10.89589 1.2573,-1.13781 4.3109,-2.06874 6.7857,-2.06874 2.5499,0 5.4111,-0.91126 6.6027,-2.10291 1.9706,-1.97054 1.9612,-2.20658 -0.1496,-3.75 -1.2389,-0.9059 -5.0044,-1.64709 -8.3678,-1.64709 -4.334,0 -5.965,-0.45513 -5.5994,-1.5625 0.8638,-2.61602 15.7361,-2.76177 18.5865,-0.18215 5.5139,4.98999 0.8995,12.99465 -7.4909,12.99465 -5.4501,0 -8.5126,2.39051 -6.1234,4.77974 0.8087,0.80864 4.4984,1.47026 8.1995,1.47026 4.8257,0 6.5829,0.44198 6.2121,1.5625 -0.5644,1.70583 -18.5025,2.95964 -20.06,1.40213 z m -73.6472,-121.93927 c 2.799,-1.11081 602.7329,-1.11081 605.5318,0 1.1775,0.4673 -135.0672,0.84964 -302.7659,0.84964 -167.6987,0 -303.9433,-0.38234 -302.7659,-0.84964 z"
         id="path3616"
         inkscape:connector-curvature="0" />
      <path
         style="fill:#2d2d2d"
         d="m 1489.6875,484.81762 c 82.6719,-0.17745 217.9531,-0.17745 300.625,0 82.6719,0.17744 15.0313,0.32262 -150.3125,0.32262 -165.3437,0 -232.9844,-0.14518 -150.3125,-0.32262 z M 1328.1177,49.50507 c 0,-233.40625 0.1439,-328.89062 0.3198,-212.1875 0.1758,116.703125 0.1758,307.67187 0,424.375 -0.1759,116.70312 -0.3198,21.21875 -0.3198,-212.1875 z m 623.75,0 c 0,-233.40625 0.1439,-328.89062 0.3198,-212.1875 0.1758,116.703125 0.1758,307.67187 0,424.375 -0.1759,116.70312 -0.3198,21.21875 -0.3198,-212.1875 z M 1367.9584,439.6075 c -2.1541,-1.31353 -4.826,-3.68659 -5.9375,-5.27347 C 1360.1704,431.6921 1360,399.2337 1360,49.395508 l 0,-382.053288 2.6104,-3.31855 c 5.9351,-7.5453 -14.8813,-7.0186 277.3896,-7.0186 292.2708,0 271.4545,-0.5267 277.3896,7.0186 l 2.6104,3.31855 0,382.16285 0,382.16285 -2.6104,3.31855 c -5.9353,7.54555 14.9066,7.01903 -277.64,7.01392 -261.4915,-0.005 -267.9679,-0.0616 -271.7912,-2.39289 z m 542.5253,-2.54873 c 1.7306,-0.65796 4.0173,-2.88003 5.0814,-4.93793 1.734,-3.35319 1.9349,-43.07317 1.9349,-382.61577 0,-339.5426 -0.2009,-379.26257 -1.9349,-382.61578 -1.0641,-2.05789 -3.3508,-4.27996 -5.0814,-4.93792 -4.2799,-1.62722 -536.6875,-1.62722 -540.9675,0 -1.7305,0.65796 -4.0172,2.88003 -5.0813,4.93792 -1.734,3.35321 -1.9349,43.07318 -1.9349,382.61578 0,340.01184 0.199,379.25905 1.9405,382.62656 1.0672,2.06384 3.1766,4.25025 4.6875,4.8587 3.8361,1.54488 537.295,1.61231 541.3557,0.0685 z m -284.1391,-36.15008 c -3.7292,-1.32933 -7.7948,-3.73583 -9.0347,-5.3478 -3.3395,-4.3416 -2.9811,-13.93662 0.8261,-22.11472 3.4605,-7.4336 3.093,-9.94721 -1.0306,-7.04851 -5.0738,3.56672 -11.5788,4.61098 -16.3375,2.62268 -5.3633,-2.24093 -7.7671,-5.80699 -9.5648,-14.18958 -2.56,-11.93683 4.0594,-27.2238 13.4953,-31.16639 8.6774,-3.62562 20.3493,1.54974 27.3486,12.12643 1.854,2.80154 4.233,4.94911 5.3366,4.81751 1.0953,-0.1306 3.0805,0.23061 4.4116,0.80269 1.7711,0.76116 2.7769,0.42568 3.75,-1.2508 5.3999,-9.30277 13.32,-14.40513 22.3603,-14.40513 6.7537,0 12.0032,3.80579 16.1656,11.71974 5.8013,11.02995 2.2791,29.32866 -6.5213,33.8795 -4.9219,2.5452 -7.8031,2.39904 -15.1686,-0.76954 -3.414,-1.46865 -6.5135,-2.36402 -6.8879,-1.98969 -0.3743,0.37433 0.8181,2.94522 2.6498,5.71308 4.2114,6.36393 4.6675,15.01048 1.0474,19.85914 -5.9776,8.00639 -20.7764,11.04375 -32.8459,6.74139 z m 225.1835,-15.8495 c -5.91,-4.13957 -1.865,-11.80412 6.2298,-11.80412 4.8099,0 7.9531,-2.59415 6.7962,-5.60909 -0.5267,-1.37252 -2.6211,-1.89091 -7.6399,-1.89091 -3.9696,0 -6.9142,-0.55566 -6.9142,-1.30476 0,-0.82014 3.366,-1.16835 9.0625,-0.9375 8.8009,0.35666 9.0737,0.4643 9.4507,3.72904 0.5279,4.57071 -3.5883,8.51322 -8.8882,8.51322 -4.537,0 -7.125,1.85836 -7.125,5.11626 0,2.68292 2.4992,3.63374 9.551,3.63374 3.4127,0 5.2951,0.48776 4.824,1.25 -1.2174,1.96981 -12.2556,1.46931 -15.3469,-0.69588 z m -0.137,-43.15647 c -2.7557,-1.10258 -2.9261,-1.6814 -2.2288,-7.56874 l 0.755,-6.37486 -3.7347,0.74694 c -7.2326,1.44651 -10.9281,-6.23273 -6.8213,-14.17448 3.1124,-6.01878 9.56,-6.09236 14.8949,-0.16996 3.0645,3.40186 4.6232,3.32855 10.2377,-0.48155 5.7421,-3.89667 7.34,-3.90479 11.1879,-0.0567 6.4314,6.43136 2.4332,17.7423 -5.6968,16.11631 l -3.8171,-0.76342 0.7995,5.00009 c 0.6894,4.31135 0.3985,5.28101 -2.1121,7.03946 -3.2059,2.24554 -8.8493,2.5335 -13.4642,0.68702 z m -213.6157,-14.00155 c -0.8507,-3.5866 -3.2344,-9.2385 -5.2973,-12.55976 -2.0628,-3.32127 -3.3884,-6.62474 -2.9457,-7.34105 0.8358,-1.35239 18.5954,-0.78412 20.0201,0.6406 0.4172,0.41718 -0.6759,2.46326 -2.4291,4.54683 -1.8102,2.1513 -3.8541,6.90044 -4.73,10.99029 -2.2403,10.46093 -2.8949,10.98863 -4.618,3.72309 z m 218.8607,-20.74019 c -1.6957,-2.71775 -0.9893,-3.90591 2.3222,-3.90591 2.6842,0 2.8944,1.19856 0.7292,4.15724 -1.4608,1.99603 -1.6594,1.97967 -3.0514,-0.25133 z M 1418.75,-204.95211 c 0,-0.38894 0.6072,-1.84165 1.3492,-3.22822 1.295,-2.41975 1.4161,-2.42956 3.0142,-0.2441 0.9157,1.25231 1.4003,2.70501 1.077,3.22821 -0.6763,1.0943 -5.4404,1.30806 -5.4404,0.24411 z m 212.1875,-5.15448 c -2.7647,-0.72249 -2.7406,-1.10064 0.3465,-5.43607 1.3937,-1.95724 3.5293,-7.608 4.7459,-12.5572 l 2.2119,-8.99853 2.1882,7.98922 c 1.2035,4.39409 3.8426,10.32216 5.8647,13.17353 3.0911,4.35891 3.364,5.30421 1.7137,5.9375 -2.2004,0.84436 -13.7045,0.77128 -17.0709,-0.1085 z m -200.3125,-1.57004 c -1.375,-0.56277 -3.5716,-2.21461 -4.8812,-3.67076 -3.0636,-3.4062 -4.6219,-3.33353 -10.2377,0.47746 -5.7421,3.89668 -7.34,3.90479 -11.1879,0.0568 -6.4314,-6.43136 -2.4332,-17.7423 5.6968,-16.11631 l 3.8171,0.76342 -0.7995,-5.00008 c -0.6894,-4.31135 -0.3985,-5.28102 2.1121,-7.03947 3.3327,-2.33432 8.1797,-2.61457 13.069,-0.75563 3.2151,1.22237 3.3405,1.58796 2.6228,7.64797 l -0.7538,6.36424 3.7347,-0.74694 c 7.2039,-1.44076 10.9295,6.2301 6.8538,14.11159 -2.4827,4.801 -5.2416,5.87416 -10.0462,3.9077 z m 229.4124,-13.89222 c -5.2569,-2.21177 -11.241,-7.4022 -14.517,-12.59173 -2.4274,-3.84539 -3.6865,-4.79141 -5.5778,-4.19115 -1.3821,0.43867 -2.4426,0.19598 -2.4426,-0.55896 0,-2.99288 -3.9149,-1.03143 -6.8779,3.44595 -8.9213,13.481 -24.361,16.04745 -33.0991,5.50189 -4.8273,-5.82582 -8.0655,-16.37331 -6.913,-22.51684 1.319,-7.03096 5.3498,-13.87489 9.7529,-16.5596 5.0781,-3.09626 7.1145,-3.07259 14.6527,0.17025 3.3572,1.44424 6.674,2.42862 7.3705,2.1875 0.6966,-0.24111 -0.3991,-2.91366 -2.4348,-5.93899 -12.7587,-18.96098 10.3568,-35.89912 34.4482,-25.24233 10.0138,4.42957 11.8029,14.14471 5.0566,27.45796 -1.7017,3.35802 -2.7762,6.42324 -2.3878,6.81161 0.3884,0.38837 2.7454,-0.38687 5.2379,-1.72276 2.4925,-1.33588 6.8056,-2.42888 9.5847,-2.42888 9.894,0 14.823,6.83625 14.8709,20.625 0.053,15.16856 -7.1146,25.43207 -18.4385,26.404 -2.859,0.24539 -6.5877,-0.13842 -8.2859,-0.85293 z M 1411.25,-268.46687 c 0,-5.32071 2.4691,-7.38963 9.8294,-8.23634 5.1709,-0.59485 5.7956,-1.00358 5.7956,-3.79172 0,-2.865 -0.52,-3.15724 -6.25,-3.51249 -9.6194,-0.5964 -10.0105,-2.73751 -0.5,-2.73751 8.6384,0 11.125,1.26985 11.125,5.68126 0,3.84757 -3.8828,6.81874 -8.9109,6.81874 -4.7947,0 -7.3391,1.82016 -7.3391,5.25 0,1.89098 1.0852,2.25 6.8012,2.25 3.7407,0 7.1489,0.5625 7.5738,1.25 0.489,0.79122 -2.6954,1.25 -8.6762,1.25 l -9.4488,0 0,-4.22194 z m 78.4375,-117.96551 c 82.6719,-0.17745 217.9531,-0.17745 300.625,0 82.6719,0.17744 15.0313,0.32262 -150.3125,0.32262 -165.3437,0 -232.9844,-0.14518 -150.3125,-0.32262 z"
         id="path3614"
         inkscape:connector-curvature="0" />
      <path
         style="fill:#171717"
         d="m 1490.3125,484.81762 c 82.3281,-0.17747 217.0469,-0.17747 299.375,0 82.3281,0.17746 14.9688,0.32266 -149.6875,0.32266 -164.6562,0 -232.0156,-0.1452 -149.6875,-0.32266 z M 1328.1177,49.50507 c 0,-233.40625 0.1439,-328.89062 0.3198,-212.1875 0.1758,116.703125 0.1758,307.67187 0,424.375 -0.1759,116.70312 -0.3198,21.21875 -0.3198,-212.1875 z m 623.75,0 c 0,-233.40625 0.1439,-328.89062 0.3198,-212.1875 0.1758,116.703125 0.1758,307.67187 0,424.375 -0.1759,116.70312 -0.3198,21.21875 -0.3198,-212.1875 z m -584.5969,389.10279 c -1.8447,-1.14439 -4.0947,-3.46458 -5,-5.15598 -2.4567,-4.5905 -2.4423,-763.3301 0.015,-767.92093 0.9132,-1.70642 3.25,-4.04158 5.1928,-5.18923 3.2697,-1.93146 23.5383,-2.08665 272.5217,-2.08665 248.9834,0 269.252,0.15519 272.5217,2.08665 1.9428,1.14765 4.2796,3.48281 5.1929,5.18923 2.4698,4.61499 2.4698,763.33324 0,767.94824 -0.9133,1.70642 -3.2501,4.04158 -5.1929,5.18923 -3.2702,1.93175 -23.5148,2.08417 -272.7146,2.05339 -248.888,-0.0308 -269.435,-0.19013 -272.5363,-2.11395 z m 547.161,-3.42098 3.0682,-3.06817 0,-382.61364 0,-382.61364 -3.0682,-3.06818 -3.0682,-3.06818 -271.3636,0 -271.3636,0 -3.0682,3.06818 -3.0682,3.06818 0,382.61364 0,382.61364 3.0682,3.06817 3.0682,3.06819 271.3636,0 271.3636,0 3.0682,-3.06819 z m -287.0048,-34.3671 c -12.6852,-3.8492 -15.8524,-14.99213 -8.0469,-28.31108 5.053,-8.6224 3.8047,-9.9951 -5.0051,-5.50363 -7.0773,3.60824 -12.5505,3.26678 -16.8698,-1.05248 -12.6195,-12.61947 -3.7149,-42.69752 12.6405,-42.69752 8.3137,0 16.1056,5.22784 23.6043,15.83681 1.0567,1.49505 3.8962,3.00244 6.5065,3.45409 4.2036,0.72733 4.8041,0.46774 6.4987,-2.8092 4.2867,-8.28965 16.5596,-15.30315 23.6602,-13.521 4.7527,1.19285 10.9164,6.9578 13.485,12.61259 4.5579,10.03416 1.8172,26.15575 -5.2933,31.13609 -3.8871,2.72262 -10.5224,2.53461 -17.1811,-0.48683 -8.8693,-4.02457 -9.9661,-2.80817 -4.2385,4.70105 4.405,5.77525 4.8733,15.95136 0.9375,20.3717 -5.6508,6.34653 -20.47,9.37301 -30.698,6.26941 z m 223.8801,-16.87091 c -2.2357,-2.69389 -1.0909,-7.02576 2.4429,-9.24349 l 3.125,-1.96118 -2.8125,3.1485 c -3.3611,3.76266 -3.4428,4.59411 -0.7438,7.57645 1.1378,1.25726 1.488,2.28592 0.7781,2.28592 -0.7099,0 -1.9652,-0.81279 -2.7897,-1.8062 z m 12.6169,-11.86239 c 2.6145,-2.14277 2.7629,-2.72685 1.3019,-5.12172 -1.7548,-2.87632 -1.2673,-4.50088 0.9409,-3.13609 1.8048,1.11541 1.6921,7.31755 -0.1668,9.1764 -0.825,0.825 -2.2936,1.5 -3.2635,1.5 -1.1088,0 -0.6679,-0.89786 1.1875,-2.41859 z m -13.2432,-31.76101 c -1.7375,-1.27052 -2.0906,-2.56441 -1.4495,-5.3125 1.7031,-7.30153 1.6609,-7.4089 -2.7446,-6.98029 -5.4573,0.53095 -7.7367,-1.57634 -7.7367,-7.15254 0,-9.94822 6.6899,-12.95502 14.184,-6.37507 5.1877,4.55483 6.2989,4.61771 11.044,0.625 2.0426,-1.71875 5.045,-3.125 6.672,-3.125 5.5739,0 8.813,8.99654 5.4807,15.22286 -1.1511,2.15091 -2.1496,2.43373 -6.2676,1.77524 l -4.8983,-0.78326 0.8013,5.0108 c 0.5208,3.25716 0.2547,5.66939 -0.7605,6.89258 -1.9629,2.36517 -11.1886,2.49538 -14.3248,0.20218 z m -213.1205,-16.11202 c -0.8585,-2.86537 -2.9107,-7.19628 -4.5606,-9.62424 -1.6498,-2.42796 -2.9997,-4.8464 -2.9997,-5.3743 0,-1.10736 16.717,-1.32621 17.81,-0.23318 0.3997,0.39968 -0.6393,2.73955 -2.3088,5.19974 -1.6696,2.46017 -3.3829,6.64565 -3.8076,9.30104 -1.0634,6.65035 -2.2946,6.86807 -4.1333,0.73094 z m 219.3147,-18.45838 c -0.4249,-0.6875 0.1044,-1.25 1.1762,-1.25 1.0719,0 1.9488,0.5625 1.9488,1.25 0,0.6875 -0.5293,1.25 -1.1762,1.25 -0.647,0 -1.5239,-0.5625 -1.9488,-1.25 z m -436.875,-512.5 c 0,-0.6875 0.5293,-1.25 1.1762,-1.25 0.647,0 1.5239,0.5625 1.9488,1.25 0.4249,0.6875 -0.1044,1.25 -1.1762,1.25 -1.0719,0 -1.9488,-0.5625 -1.9488,-1.25 z m 210,-4.72186 c 0,-0.53454 0.9204,-2.28598 2.0454,-3.8921 1.125,-1.60613 2.9778,-6.06118 4.1175,-9.90011 l 2.072,-6.97989 2.7524,7.54854 c 1.5137,4.15168 3.8796,8.56876 5.2575,9.81571 1.3779,1.24695 2.5052,2.7425 2.5052,3.32345 0,0.58094 -4.2187,1.05626 -9.375,1.05626 -5.1562,0 -9.375,-0.43734 -9.375,-0.97186 z m -202.934,-4.02814 c -5.1877,-4.55482 -6.2989,-4.61771 -11.044,-0.625 -2.0426,1.71875 -5.045,3.125 -6.672,3.125 -5.5739,0 -8.813,-8.99654 -5.4807,-15.22286 1.1511,-2.15092 2.1496,-2.43373 6.2676,-1.77524 l 4.8983,0.78326 -0.8013,-5.0108 c -1.0532,-6.58671 0.8304,-8.77436 7.5552,-8.77436 7.1278,0 10.0753,2.29509 8.9796,6.9921 -1.7031,7.30152 -1.6609,7.4089 2.7446,6.98029 5.4573,-0.53095 7.7367,1.57633 7.7367,7.15253 0,9.94823 -6.6899,12.95503 -14.184,6.37508 z m 231.059,-12.07704 c -5.2265,-2.75533 -9.1575,-6.48811 -12.7301,-12.08827 -1.9015,-2.98049 -3.7189,-4.53597 -4.8104,-4.11709 -0.965,0.37026 -2.0869,0.13529 -2.4932,-0.52219 -1.5776,-2.55256 -4.2883,-0.94277 -8.6607,5.14331 -10.8999,15.17179 -26.7114,14.60216 -34.7431,-1.25166 -5.6792,-11.21026 -3.6662,-24.54271 4.699,-31.12281 4.3561,-3.42647 9.0991,-3.43523 17.0115,-0.0314 4.2009,1.80722 6.6486,2.27055 7.4995,1.41964 0.8509,-0.85091 0.6999,-1.82851 -0.4629,-2.99533 -6.339,-6.36121 -8.2081,-16.4753 -4.1806,-22.62209 6.6182,-10.10055 33.111,-11.03246 40.664,-1.4304 3.6985,4.70191 3.433,13.24668 -0.6672,21.47478 -4.5671,9.16492 -3.4854,11.07254 4.0166,7.08368 7.1966,-3.82647 11.5983,-3.93678 16.0905,-0.40324 7.5037,5.90244 9.231,20.33908 3.8231,31.95452 -4.936,10.602 -15.4288,14.58391 -25.056,9.50857 z m -246.0417,-37.50629 c -1.6194,-1.61946 -0.804,-6.30573 1.4526,-8.34793 3.1896,-2.8865 4.8272,-2.59429 2.1347,0.38089 -1.5084,1.66679 -1.9622,3.4644 -1.4199,5.625 0.7531,3.00068 -0.334,4.1754 -2.1674,2.34204 z m 14.4792,-11.76679 c 2.6946,-1.56945 2.8366,-5.30506 0.2823,-7.42495 -1.0479,-0.86965 -1.6138,-1.87258 -1.2577,-2.22873 0.9481,-0.94805 5.6629,3.61721 5.6629,5.48325 0,2.0187 -3.4621,5.53259 -5.4018,5.48254 -0.8103,-0.0209 -0.4888,-0.61136 0.7143,-1.31211 z m 63.75,-109.58733 c 82.3281,-0.17747 217.0469,-0.17747 299.375,0 82.3281,0.17746 14.9688,0.32267 -149.6875,0.32267 -164.6562,0 -232.0156,-0.14521 -149.6875,-0.32267 z"
         id="path3612"
         inkscape:connector-curvature="0" />
      <path
         style="fill:#010101"
         d="m 1505.9375,439.81763 c 73.7344,-0.1781 194.3906,-0.1781 268.125,0 73.7344,0.1781 13.4063,0.32382 -134.0625,0.32382 -147.4687,0 -207.7969,-0.14572 -134.0625,-0.32382 z m 122.8483,-39.67719 c -13.0814,-3.15985 -16.085,-12.4257 -8.7427,-26.9707 2.0862,-4.13271 3.4592,-8.05417 3.0512,-8.71435 -1.1879,-1.92206 -4.3262,-1.39597 -7.7532,1.29968 -4.5932,3.61297 -14.0201,3.44502 -17.5399,-0.3125 -7.4504,-7.95338 -7.1332,-25.59741 0.626,-34.81865 7.8576,-9.33824 18.0316,-8.89925 27.8206,1.20039 3.095,3.19317 6.1897,6.80406 6.8772,8.02421 1.1465,2.03469 4.3861,3.34382 9.4982,3.83827 1.0991,0.10625 3.9353,-2.33154 6.3027,-5.41746 8.1626,-10.63964 17.7936,-14.08182 25.9384,-9.2706 11.482,6.78258 14.3329,28.12041 5.1329,38.41701 -4.3893,4.91247 -10.4974,5.19243 -19.0787,0.87445 -4.6665,-2.34812 -6.2846,-2.66901 -7.4719,-1.48176 -1.1872,1.18726 -1.1792,1.98173 0.037,3.66854 5.3054,7.35815 6.5075,10.10309 6.5117,14.86969 0.01,7.15585 -4.4373,12.27465 -12.816,14.76285 -7.4937,2.22537 -9.2961,2.22841 -18.3934,0.0309 z m 223.8911,-59.47448 c -3.0548,-1.22339 -3.0206,-0.89214 -1.216,-11.78589 0.367,-2.21558 -0.1807,-2.45593 -4.8143,-2.11256 -4.2755,0.31682 -5.4867,-0.0953 -6.6457,-2.26082 -2.9655,-5.54103 2.2504,-14.66442 7.3301,-12.82143 1.1242,0.40788 3.8917,2.3342 6.15,4.2807 5.0092,4.31758 6.5272,4.39706 10.1584,0.53185 4.1705,-4.43935 7.3809,-4.83604 10.8734,-1.34357 3.3342,3.33414 3.8432,7.7024 1.3024,11.17709 -1.3688,1.87193 -2.6583,2.14843 -6.875,1.47414 -5.7767,-0.92373 -6.4141,0.14581 -3.6726,6.16262 1.3483,2.9594 1.1936,3.59295 -1.3885,5.68382 -3.1522,2.55246 -6.5848,2.8632 -11.2022,1.01405 z m -214.4657,-17.05688 c -0.4904,-2.21153 -2.2967,-6.09147 -4.014,-8.62208 -2.4572,-3.62093 -2.7709,-4.824 -1.4723,-5.64738 1.9607,-1.2432 5.5868,-1.35971 10.6709,-0.34289 l 3.7084,0.74168 -2.8416,5.82082 c -1.5628,3.20146 -3.3631,7.22709 -4.0007,8.94584 l -1.1591,3.125 -0.8916,-4.02099 z m -4.7737,-534.96567 c -2.6594,-0.69498 -2.7718,0.15905 0.9427,-7.16269 1.7159,-3.38214 3.1456,-7.31964 3.1772,-8.75 0.034,-1.52568 1.5201,0.55886 3.5963,5.04309 1.9464,4.20406 4.2306,8.07125 5.0761,8.59375 3.6961,2.28437 -6.0944,4.0262 -12.7923,2.27585 z m -200.9375,-1.3388 c -1.0312,-0.367 -3.7227,-2.27204 -5.981,-4.23341 -5.0034,-4.34554 -6.5225,-4.42911 -10.1584,-0.55887 -4.1705,4.43935 -7.3809,4.83604 -10.8734,1.34356 -3.3342,-3.33413 -3.8432,-7.7024 -1.3024,-11.17708 1.3808,-1.88838 2.6489,-2.14993 7.0282,-1.44964 5.8094,0.92895 5.7987,0.95468 3.1449,-7.55545 -1.3099,-4.20036 4.3572,-7.4275 10.4149,-5.93077 4.2633,1.05338 4.5889,1.45927 4.4213,5.51212 -0.099,2.40625 -0.3807,5.5 -0.625,6.875 -0.3951,2.22432 0.1405,2.45638 4.8573,2.10439 4.6142,-0.34433 5.4837,0.005 6.7075,2.69021 2.5873,5.67859 -2.6407,14.15695 -7.6339,12.37994 z m 227.5,-14.73284 c -5.1499,-2.30081 -10.4644,-7.13951 -13.851,-12.61105 -1.3343,-2.15565 -3.6855,-4.19269 -5.225,-4.52676 -1.5394,-0.33407 -3.7081,-0.99229 -4.8193,-1.4627 -1.4784,-0.62592 -3.2438,0.84779 -6.5822,5.49464 -5.9144,8.23233 -10.971,11.27853 -18.7321,11.2845 -5.38,0.004 -6.6337,-0.54456 -10.8279,-4.73877 -9.6528,-9.6527 -10.6066,-25.165 -2.1403,-34.80755 3.0811,-3.50914 4.5462,-4.19901 8.918,-4.19901 2.8772,0 7.4378,1.125 10.1348,2.5 2.697,1.375 5.6284,2.5 6.5143,2.5 2.1383,0 2.0793,-5.80271 -0.067,-6.62648 -2.2725,-0.87205 -5.8219,-8.60679 -5.8219,-12.68701 0,-12.22303 15.8808,-19.26458 32.7779,-14.53368 3.1872,0.89236 7.0671,2.9766 8.6219,4.63165 3.9551,4.20997 3.7014,12.88209 -0.6266,21.42301 -1.8003,3.55267 -3.2732,7.32185 -3.2732,8.37596 0,2.64622 3.6434,2.3846 8.125,-0.58345 5.0739,-3.36033 13.0416,-3.30311 16.7159,0.12004 3.9956,3.72246 5.1591,7.60078 5.1591,17.19648 0,18.00721 -11.9207,29.09358 -25,23.25018 z m -154.0625,-114.00414 c 73.7344,-0.1781 194.3906,-0.1781 268.125,0 73.7344,0.1781 13.4063,0.32382 -134.0625,0.32382 -147.4687,0 -207.7969,-0.14572 -134.0625,-0.32382 z"
         id="path3610"
         inkscape:connector-curvature="0" />
    </g>
  </g>
</svg>
