<?xml version="1.0" encoding="UTF-8" standalone="no"?>
<!-- Created with Inkscape (http://www.inkscape.org/) -->

<svg
   xmlns:dc="http://purl.org/dc/elements/1.1/"
   xmlns:cc="http://creativecommons.org/ns#"
   xmlns:rdf="http://www.w3.org/1999/02/22-rdf-syntax-ns#"
   xmlns:svg="http://www.w3.org/2000/svg"
   xmlns="http://www.w3.org/2000/svg"
   xmlns:sodipodi="http://sodipodi.sourceforge.net/DTD/sodipodi-0.dtd"
   xmlns:inkscape="http://www.inkscape.org/namespaces/inkscape"
   width="176.4539mm"
   height="246.30457mm"
   viewBox="0 0 625.23037 872.73271"
   id="svg2"
   version="1.1"
   inkscape:version="0.91 r13725"
   sodipodi:docname="3.svg">
  <defs
     id="defs4" />
  <sodipodi:namedview
     id="base"
     pagecolor="#ffffff"
     bordercolor="#666666"
     borderopacity="1.0"
     inkscape:pageopacity="0.0"
     inkscape:pageshadow="2"
     inkscape:zoom="0.35"
     inkscape:cx="451.16051"
     inkscape:cy="466.53044"
     inkscape:document-units="px"
     inkscape:current-layer="layer1"
     showgrid="false"
     fit-margin-top="0"
     fit-margin-left="0"
     fit-margin-right="0"
     fit-margin-bottom="0"
     inkscape:window-width="784"
     inkscape:window-height="822"
     inkscape:window-x="800"
     inkscape:window-y="0"
     inkscape:window-maximized="0" />
  <metadata
     id="metadata7">
    <rdf:RDF>
      <cc:Work
         rdf:about="">
        <dc:format>image/svg+xml</dc:format>
        <dc:type
           rdf:resource="http://purl.org/dc/dcmitype/StillImage" />
        <dc:title></dc:title>
      </cc:Work>
    </rdf:RDF>
  </metadata>
  <g
     inkscape:label="Calque 1"
     inkscape:groupmode="layer"
     id="layer1"
     transform="translate(417.5891,-126.1601)">
    <g
       style="display:inline"
       id="g3554"
       transform="translate(-1773.5469,-458.41247)">
      <path
         style="fill:#fdfdfd"
         d="m 1356.0714,1020.9336 0,-436.25001 312.5,0 312.5,0 0,436.25001 0,436.25 -312.5,0 -312.5,0 0,-436.25 z"
         id="path3570"
         inkscape:connector-curvature="0" />
      <path
         style="fill:#e6e6e6"
         d="m 1362.1966,1455.6253 c -1.8959,-0.7539 -3.8487,-2.9486 -4.6875,-5.2682 -2.0668,-5.7156 -2.07,-853.12236 0,-858.83784 0.9685,-2.67839 2.7229,-4.43273 5.4013,-5.40125 5.6984,-2.06059 605.6302,-2.06059 611.3286,0 2.6784,0.96852 4.4328,2.72286 5.4013,5.40125 2.0638,5.70731 2.0638,853.12134 0,858.82864 -0.9685,2.6784 -2.7229,4.4328 -5.4013,5.4013 -5.3415,1.9315 -607.1766,1.8097 -612.0391,-0.1239 z m 611.471,-5.8456 3.6538,-3.6538 0,-425.1923 0,-425.19232 -3.6538,-3.65384 -3.6539,-3.65385 -301.4423,0 -301.4423,0 -3.6539,3.65385 -3.6538,3.65384 0,425.19232 0,425.1923 3.6538,3.6538 3.6539,3.6539 301.4423,0 301.4423,0 3.6539,-3.6539 z m -576.9684,-34.5606 c -2.061,-1.0773 -4.7904,-2.9027 -6.0655,-4.0566 -6.1617,-5.5763 -5.8123,17.881 -5.8123,-390.2289 0,-336.43553 0.2208,-381.80111 1.8737,-384.99747 1.0305,-1.99282 3.9399,-5.19926 6.4652,-7.12542 l 4.5915,-3.50212 270.8196,0 270.8196,0 4.5915,3.50212 c 2.5254,1.92616 5.4347,5.1326 6.4652,7.12542 1.6529,3.19636 1.8737,48.56194 1.8737,384.99747 0,336.4355 -0.2208,381.8011 -1.8737,384.9975 -1.0305,1.9928 -3.9398,5.1992 -6.4651,7.1254 l -4.5914,3.5021 -269.4724,0.3095 c -242.6017,0.2787 -269.8461,0.1142 -273.2196,-1.649 z m 543.1222,-11.7855 c 2.489,-2.489 2.5,-4.1667 2.5,-382.5 0,-378.33334 -0.011,-380.01098 -2.5,-382.50001 -2.4845,-2.4845 -4.1667,-2.5 -271.25,-2.5 -267.0833,0 -268.7655,0.0155 -271.25,2.5 -2.489,2.48903 -2.5,4.16667 -2.5,382.50001 0,378.3333 0.011,380.011 2.5,382.5 2.4845,2.4845 4.1667,2.5 271.25,2.5 267.0833,0 268.7655,-0.015 271.25,-2.5 z m -283.75,-26.842 c -8.4396,-2.7379 -11.0763,-4.4569 -13.9379,-9.087 -2.1173,-3.4259 -2.4802,-5.5378 -1.9467,-11.3285 0.3606,-3.9146 1.0183,-8.2425 1.4615,-9.6175 0.7531,-2.3367 0.3256,-2.473 -6.5456,-2.0873 -6.409,0.3598 -7.842,-10e-5 -11.1787,-2.8079 -14.0309,-11.8061 -9.1048,-42.143 8.0773,-49.7435 8.6558,-3.8288 16.7835,-1.5542 26.8085,7.5028 l 5.0891,4.5977 -0.9413,-4.3559 c -1.2468,-5.7697 -4.7464,-12.5417 -8.0032,-15.4871 -6.015,-5.4399 -0.5426,-9.5952 12.367,-9.3908 13.9663,0.2212 20.0528,5.3653 12.7428,10.7698 -3.4136,2.5238 -4.6655,5.538 -7.1253,17.1556 l -0.7735,3.6535 5.216,-4.7124 c 12.0688,-10.9035 25.3535,-11.1417 34.2124,-0.6135 8.1387,9.6723 9.982,24.6492 4.3887,35.6595 -3.8374,7.5537 -11.7079,12.2656 -18.7187,11.2063 l -4.4326,-0.6698 0.4796,7.7865 c 0.4047,6.5704 0.023,8.4698 -2.4442,12.1615 -5.9015,8.8306 -22.6313,13.3541 -34.7952,9.408 z m 221.3819,-18.0261 c -1.9235,-1.9235 -2.3806,-4.2825 -2.4349,-12.565 -0.089,-13.5978 1.2689,-15.0669 13.928,-15.0669 9.397,0 12.125,1.1713 12.125,5.206 0,3.0411 -3.7304,4.7573 -10.8553,4.994 -4.9813,0.1656 -5.265,0.2855 -1.6447,0.695 3.9373,0.4454 7.5,3.0602 7.5,5.5046 0,0.507 -0.8839,1.8058 -1.9643,2.8861 -1.7857,1.7857 -1.6761,1.9643 1.206,1.9643 3.5092,0 6.1974,3.6513 4.9951,6.7844 -1.1993,3.1254 -19.652,2.8004 -22.8549,-0.4025 z m 1.4742,-41.9119 c -3.7735,-1.702 -4.5922,-3.163 -5.6265,-10.0402 -0.2136,-1.4204 -1.6746,-2.7452 -3.4862,-3.161 -1.8928,-0.4345 -3.9946,-2.4211 -5.3478,-5.0548 -5.3135,-10.3414 3.5534,-23.7379 13.2673,-20.0446 3.2115,1.221 3.3338,1.1277 2.5607,-1.9528 -0.5353,-2.1327 -0.2219,-3.6086 0.9197,-4.3316 2.601,-1.6473 9.0786,-1.3545 11.6511,0.5265 1.8558,1.3569 2.0141,2.1436 0.8639,4.2928 -2.0222,3.7784 -1.7927,4.13 1.8035,2.7627 9.397,-3.5728 17.8727,7.2969 14.2497,18.2746 -1.059,3.2088 -2.6536,4.9885 -5.5565,6.2014 -2.9361,1.2268 -4.2802,2.7457 -4.8206,5.4473 -1.387,6.9354 -12.3758,10.7343 -20.4783,7.0797 z m -222.5436,-247.1185 c -5.1503,-1.4871 -5.3077,-4.664 -0.4706,-9.5011 2.3401,-2.3401 4.0826,-5.88 5,-10.1577 2.1296,-9.9299 1.8146,-10.7426 -2.3328,-6.019 -5.4105,6.1622 -15.0883,10.0357 -22.3524,8.9464 -7.6709,-1.1503 -14.9867,-8.432 -18.833,-18.7451 -3.291,-8.8245 -2.9642,-13.692 1.5869,-23.6328 4.1777,-9.1253 9.0688,-12.30802 17.9127,-11.65594 6.352,0.46837 6.4312,0.43088 5.3125,-2.51178 -3.4841,-9.16383 0.532,-18.67777 10.1626,-24.07449 4.7442,-2.65855 7.1626,-3.12154 16.2016,-3.10181 13.9144,0.0304 21.1319,3.2364 24.9249,11.0716 3.0294,6.25795 3.0786,7.04423 0.954,15.23481 l -1.621,6.24941 6.984,-0.039 c 4.721,-0.027 8.1194,0.7035 10.488,2.2534 8.6703,5.6737 11.4143,24.3646 5.4799,37.3269 -7.9589,17.3846 -24.8761,19.4661 -40.1102,4.9352 l -4.7754,-4.555 0.8793,3.75 c 1.468,6.2612 3.7501,11.0512 7.2321,15.1805 4.1692,4.9441 4.2011,7.6693 0.108,9.2254 -3.9613,1.5061 -17.2572,1.4012 -22.7311,-0.1794 z M 1444.277,769.27213 c -1.8558,-1.35699 -2.0141,-2.14364 -0.8639,-4.29281 2.0222,-3.77844 1.7927,-4.13001 -1.8034,-2.76274 -13.429,5.10566 -21.8021,-18.9988 -8.5264,-24.54573 2.5466,-1.06406 4.2381,-2.65089 4.2381,-3.9759 0,-6.05836 8.8685,-11.22087 16.7393,-9.74429 6.0123,1.12792 8.4919,3.48404 9.3733,8.90664 0.6223,3.82866 1.4401,4.99429 3.8999,5.5589 1.8866,0.43303 3.9906,2.42345 5.3419,5.0534 5.3135,10.34139 -3.5534,23.73784 -13.2673,20.04463 -3.2115,-1.221 -3.3338,-1.12773 -2.5607,1.95272 0.5353,2.13277 0.222,3.60864 -0.9197,4.33167 -2.601,1.64722 -9.0786,1.35451 -11.6511,-0.52649 z m 214.8103,-4.51702 c -2.1225,-0.50742 -4.5131,-1.32678 -5.3125,-1.82082 -2.1031,-1.29976 -1.7849,-5.70198 0.4749,-6.5691 2.7965,-1.07315 6.4431,-8.9027 7.4918,-16.08594 l 0.9082,-6.22066 -4.7447,4.83715 c -2.6095,2.66044 -6.6028,5.61356 -8.874,6.5625 -6.0625,2.53307 -15.3297,2.17629 -20.1729,-0.77666 -5.3384,-3.25484 -11.0556,-12.39949 -12.8974,-20.62934 -3.6435,-16.28097 9.1825,-33.7418 22.7867,-31.02095 l 3.634,0.72679 -0.8012,-6.81665 c -1.312,-11.16317 4.7019,-19.11751 17.2774,-22.85202 8.1389,-2.41702 10.9433,-2.39166 20.1153,0.18189 15.0502,4.22286 20.3089,15.56198 14.1043,30.41229 -0.6491,1.5535 0.5948,1.875 7.2547,1.875 6.8513,0 8.5305,0.46138 11.3729,3.125 1.8342,1.71875 4.194,5.09375 5.244,7.5 2.2856,5.23787 2.5527,20.28091 0.4549,25.625 -4.7044,11.98447 -14.5127,19.05663 -24.3777,17.57727 -5.7274,-0.85887 -16.1597,-6.96335 -18.6127,-10.89121 -4.1701,-6.67747 -2.975,2.40619 1.4551,11.0594 1.477,2.88502 3.584,5.74835 4.6823,6.36298 3.4072,1.90677 1.7329,7.00059 -2.6043,7.92312 -5.078,1.08011 -14.1566,1.03918 -18.8591,-0.085 z m -221.7161,-55.63647 c -0.8284,-0.99822 -1.3135,-2.82635 -1.078,-4.0625 0.3485,-1.82857 1.8891,-2.3171 8.2646,-2.62064 8.0375,-0.38267 9.9303,-2.75191 2.1986,-2.75191 -4.6535,0 -6.4339,-2.51496 -4.4305,-6.25838 1.786,-3.33717 1.5973,-3.74162 -1.7458,-3.74162 -3.5288,0 -5.0236,-2.95227 -3.2102,-6.34055 1.0923,-2.04102 2.6829,-2.40945 10.4026,-2.40945 7.9668,0 9.4626,0.37201 11.8915,2.95749 1.937,2.06182 2.7512,4.4278 2.6885,7.8125 -0.049,2.67025 0.2635,6.64976 0.6955,8.84334 0.6357,3.22828 0.1757,4.59799 -2.4138,7.1875 -2.8576,2.85758 -4.1899,3.19917 -12.4779,3.19917 -6.5864,0 -9.7159,-0.52664 -10.7851,-1.81495 z"
         id="path3568"
         inkscape:connector-curvature="0" />
      <path
         style="fill:#d7d7d7"
         d="m 1362.459,1455.4392 c -6.7121,-3.7202 -6.2956,24.7837 -6.3433,-434.1343 -0.034,-328.08824 0.3003,-427.25997 1.4491,-429.78124 3.3332,-7.31567 -18.2831,-6.84007 310.8857,-6.84007 231.8704,0 303.2686,0.34869 305.7808,1.49336 7.3554,3.35134 6.8401,-29.40324 6.8401,434.75665 0,464.1599 0.5153,431.4053 -6.8401,434.7566 -5.0745,2.3122 -607.5939,2.0649 -611.7723,-0.251 z m 604.8624,-0.7556 c 0,-0.6875 0.9481,-1.25 2.1069,-1.25 2.8688,0 7.8931,-4.9128 7.8931,-7.7179 0,-1.2552 0.5625,-2.2821 1.25,-2.2821 0.8309,0 1.25,-141.6667 1.25,-422.5 0,-280.83335 -0.4191,-422.50001 -1.25,-422.50001 -0.6875,0 -1.25,-1.08417 -1.25,-2.40927 0,-2.58071 -5.4739,-7.59073 -8.2936,-7.59073 -0.9385,0 -1.7064,-0.5625 -1.7064,-1.25 0,-0.82985 -100.4167,-1.25 -298.75,-1.25 -198.3333,0 -298.75,0.42015 -298.75,1.25 0,0.6875 -0.7679,1.25 -1.7064,1.25 -2.8197,0 -8.2936,5.01002 -8.2936,7.59073 0,1.3251 -0.5625,2.40927 -1.25,2.40927 -0.8309,0 -1.25,141.66666 -1.25,422.50001 0,280.8333 0.4191,422.5 1.25,422.5 0.6875,0 1.25,0.9481 1.25,2.1069 0,2.8688 4.9128,7.8931 7.7179,7.8931 1.2552,0 2.2821,0.5625 2.2821,1.25 0,0.8298 100.4167,1.25 298.75,1.25 198.3333,0 298.75,-0.4202 298.75,-1.25 z m -572.6247,-41.4171 c -2.4749,-1.4353 -5.428,-4.1811 -6.5625,-6.1017 -1.905,-3.2247 -2.0628,-32.7789 -2.0628,-386.2312 0,-354.35789 0.1539,-382.99975 2.0749,-386.25182 1.1412,-1.93191 4.1709,-4.69057 6.7327,-6.13037 l 4.6578,-2.61782 269.0346,0 269.0346,0 4.6578,2.61782 c 2.5618,1.4398 5.5915,4.19846 6.7327,6.13037 1.921,3.25207 2.0749,31.89393 2.0749,386.25182 0,354.3579 -0.1539,382.9997 -2.0749,386.2518 -1.1412,1.9319 -4.1709,4.6906 -6.7327,6.1304 l -4.6578,2.6178 -269.2048,-0.029 -269.2048,-0.029 -4.4997,-2.6097 z m 545.5577,-8.4235 c 1.9144,-1.5889 2.067,-29.8748 2.067,-383.1986 0,-327.49386 -0.2511,-381.82638 -1.7742,-383.9094 -1.7469,-2.38893 -5.9485,-2.42641 -271.9758,-2.42641 -266.1326,0 -270.2283,0.0366 -271.9778,2.42917 -1.5274,2.08892 -1.7322,55.92165 -1.4617,384.33814 l 0.3145,381.9089 3.125,1.5857 c 4.8186,2.445 538.7244,1.728 541.683,-0.7275 z m -284.1911,-28.8273 c -15.11,-4.5963 -18.6158,-12.8627 -13.0939,-30.8747 0.7808,-2.5469 0.5972,-2.6088 -4.0531,-1.3676 -2.679,0.7151 -6.3405,0.9313 -8.1366,0.4805 -11.6553,-2.9253 -17.7172,-19.2501 -12.7048,-34.2141 7.0948,-21.1804 26.3013,-25.3458 41.1392,-8.922 2.5034,2.771 4.8261,4.7636 5.1616,4.4281 1.7835,-1.7834 -5.0925,-18.9281 -8.8379,-22.0365 -2.5341,-2.1031 -2.5282,-5.8428 0.011,-6.8171 3.2912,-1.2629 18.636,-0.8507 22.8363,0.6136 4.7349,1.6506 5.0268,4.2853 0.8395,7.579 -3.3099,2.6033 -6.9034,12.5829 -6.9034,19.1708 l 0,3.9183 6.1749,-5.9518 c 10.1875,-9.8195 20.8441,-10.9771 29.6749,-3.2235 10.1418,8.9046 13.1914,24.2122 7.3312,36.7993 -4.1397,8.8915 -9.0808,11.9482 -17.9717,11.1176 -5.6125,-0.5243 -6.5502,-0.3218 -5.9348,1.2819 6.1522,16.0324 -5.5095,29.3839 -25.3985,29.0787 -3.8506,-0.059 -8.4109,-0.5364 -10.1341,-1.0605 z m 222.8434,-17.2171 c -2.0189,-1.7589 -2.7284,-4.2976 -3.3032,-11.8199 -1.0437,-13.6591 0.2459,-15.0387 13.5929,-14.5422 9.7341,0.3622 10,0.4552 10,3.4971 0,2.908 -0.4774,3.1517 -6.875,3.5091 -7.3587,0.4111 -12.0243,2.7409 -5.4889,2.7409 2.0686,0 4.853,0.8108 6.1875,1.8018 3.3527,2.4896 1.0408,6.0732 -4.578,7.0961 -4.0035,0.7289 -3.9206,0.7824 1.453,0.9375 7.1969,0.2079 11.1419,2.8012 9.1709,6.0289 -2.042,3.344 -16.5617,3.8846 -20.1592,0.7507 z m 0.059,-42.8737 c -3.598,-1.4497 -5.7917,-5.7373 -4.8517,-9.4827 0.615,-2.4504 0.2764,-3.0086 -1.8255,-3.0086 -4.3244,0 -8.7176,-5.4867 -8.7123,-10.8807 0.01,-9.8307 7.3648,-16.1321 15.3234,-13.1281 3.215,1.2135 3.5361,1.1269 2.7657,-0.7466 -2.0109,-4.8906 -1.3508,-5.8601 4.2635,-6.2623 6.8283,-0.489 8.7011,1.0794 6.4072,5.3656 -1.8511,3.4589 -0.8403,5.7279 1.5063,3.3813 2.7048,-2.7048 8.4617,-1.689 12.3254,2.1746 4.9305,4.9306 5.21,13.6536 0.5856,18.278 -1.6875,1.6875 -4.2187,3.0682 -5.625,3.0682 -1.9935,0 -2.5568,0.8062 -2.5568,3.6593 0,7.0784 -10.6416,11.1937 -19.6058,7.582 z M 1655.134,1068.3946 c -3.4795,-1.3985 -3.6386,-4.431 -0.3254,-6.2041 1.3679,-0.7321 3.2842,-2.8726 4.2585,-4.7567 1.8805,-3.6365 4.8717,-17.7996 3.9532,-18.7181 -0.2996,-0.2996 -2.4026,1.5715 -4.6735,4.1579 -6.9783,7.9478 -19.2063,11.6089 -26.42,7.91 -8.7664,-4.4951 -15.8681,-16.9158 -15.8431,-27.7094 0.015,-6.5174 4.7839,-17.0655 9.333,-20.6438 4.2623,-3.35279 10.2925,-4.54792 14.6287,-2.89932 l 3.3228,1.26332 -0.6864,-9.07616 c -0.6686,-8.83961 -0.583,-9.19406 3.2849,-13.59928 5.6904,-6.48101 12.7232,-8.81946 24.7046,-8.21442 11.4678,0.57909 18.375,3.44871 21.7931,9.054 2.8412,4.65916 3.0497,12.89766 0.4821,19.04285 -1.0312,2.46811 -1.875,4.58611 -1.875,4.70661 0,0.1205 3.6475,-0.013 8.1056,-0.2971 7.8467,-0.4996 8.2419,-0.3798 12.3712,3.7495 13.3383,13.3383 6.3341,43.6709 -11.1707,48.3759 -8.1682,2.1955 -17.0836,-1.3311 -24.7125,-9.7754 -4.2439,-4.6975 -4.5936,-4.8583 -4.5936,-2.1131 0,4.8491 3.5809,13.5763 7.6548,18.6559 5.5467,6.9161 3.7578,8.4017 -9.9953,8.3007 -5.9315,-0.044 -12.0501,-0.588 -13.597,-1.2098 z M 1444.1622,768.37826 c -0.4871,-0.78818 -0.1622,-2.78482 0.722,-4.43698 1.7898,-3.34427 0.7168,-5.53733 -1.5836,-3.23685 -2.7048,2.70475 -8.4617,1.689 -12.3254,-2.17469 -4.9305,-4.93054 -5.21,-13.65359 -0.5856,-18.27796 1.6875,-1.6875 4.2187,-3.06819 5.625,-3.06819 1.9935,0 2.5568,-0.80623 2.5568,-3.65928 0,-5.92506 5.2675,-9.21833 13.6452,-8.53102 8.1087,0.66524 12.0077,4.23834 10.8641,9.95609 -0.5785,2.89256 -0.2679,3.48421 1.8288,3.48421 4.2752,0 8.6625,5.51404 8.6572,10.88069 -0.01,9.83071 -7.3648,16.13212 -15.3234,13.12808 -3.215,-1.21352 -3.5361,-1.12685 -2.7657,0.74667 2.0382,4.95702 1.3727,5.85961 -4.6055,6.24592 -3.4227,0.22118 -6.1894,-0.21452 -6.7099,-1.05669 z m 212.3496,-4.93631 c -4.4634,-1.80086 -4.6687,-3.75476 -0.7927,-7.5442 3.7902,-3.70565 5.8199,-8.99606 7.1799,-18.71416 l 0.7872,-5.625 -4.0738,4.86842 c -4.432,5.29652 -14.6093,10.72493 -20.1436,10.74437 -12.0131,0.0422 -23.3974,-14.24399 -23.3974,-29.36132 0,-7.01512 5.6705,-17.94224 11.25,-21.67879 3.5645,-2.3871 5.4569,-2.80566 10.2149,-2.25925 l 5.8399,0.67067 -0.6908,-6.6934 c -0.906,-8.77835 0.029,-12.03105 4.798,-16.69375 7.983,-7.80491 22.5495,-9.84429 34.7919,-4.87105 11.4858,4.6659 15.5906,14.94288 10.6711,26.7169 -1.0312,2.46813 -1.875,4.64027 -1.875,4.82698 0,0.18671 2.3235,-0.18259 5.1634,-0.82066 13.8118,-3.1033 23.5819,8.77905 21.9708,26.72052 -1.3471,15.00091 -10.6015,25.95536 -21.9271,25.95536 -7.4132,0 -15.3558,-3.94098 -20.8288,-10.33489 -4.1414,-4.83831 -4.3783,-4.94587 -4.3783,-1.98779 0,5.44946 3.7301,14.33588 7.5562,18.00147 4.3025,4.12207 4.6373,6.22832 1.276,8.02723 -2.8922,1.54784 -19.5926,1.58522 -23.3918,0.0524 z m -218.7384,-55.63336 c -1.6112,-4.19884 0.4827,-5.625 8.2588,-5.625 8.1536,0 10.4411,-2.10225 2.9783,-2.73704 -5.8475,-0.4974 -8.4477,-4.06761 -4.8877,-6.71117 1.3345,-0.99099 3.8658,-1.89348 5.625,-2.00554 1.7592,-0.11206 0.1621,-0.53393 -3.5493,-0.9375 -12.9316,-1.40616 -11.3188,-8.85875 1.9171,-8.85875 5.0681,0 7.3365,0.66239 9.9414,2.90303 2.9989,2.57957 3.4228,3.92838 3.8046,12.10568 0.5885,12.60213 -0.5326,13.74129 -13.5232,13.74129 -7.5984,0 -10.0097,-0.42794 -10.565,-1.875 z"
         id="path3566"
         inkscape:connector-curvature="0" />
      <path
         style="fill:#a6a6a6"
         d="m 1363.2746,1455.2269 c -7.802,-4.2334 -7.2032,31.869 -7.2032,-434.2933 0,-377.55169 0.2122,-425.53448 1.8962,-428.79093 4.1664,-8.05695 -20.7295,-7.45908 310.6038,-7.45908 331.3333,0 306.4374,-0.59787 310.6038,7.45908 1.684,3.25645 1.8962,51.23924 1.8962,428.79093 0,377.5517 -0.2122,425.5345 -1.8962,428.7909 -4.1671,8.0585 20.7716,7.4641 -310.8542,7.409 -264.3514,-0.044 -302.0474,-0.2794 -305.0464,-1.9066 z m 608.4488,-1.2649 c 8.8441,-4.1968 8.098,35.6975 8.098,-433.0284 0,-382.39073 -0.1882,-423.14382 -1.9716,-426.90201 -4.1703,-8.78829 22.1934,-8.098 -309.2784,-8.098 -331.4718,0 -305.1081,-0.69029 -309.2784,8.098 -1.7834,3.75819 -1.9716,44.51128 -1.9716,426.90201 0,381.6755 0.1908,423.1492 1.9637,426.8854 4.1507,8.7469 -22.3139,8.0546 309.0974,8.0861 269.9061,0.026 299.5927,-0.1645 303.3409,-1.9431 z m -575.6362,-40.8721 c -3.1714,-1.677 -6.3289,-4.6176 -7.6966,-7.168 -2.2444,-4.1848 -2.3192,-16.6052 -2.3192,-384.9883 0,-368.38313 0.075,-380.80352 2.3192,-384.98836 1.3677,-2.55032 4.5252,-5.49092 7.6966,-7.16799 l 5.3774,-2.84366 267.1068,0 267.1068,0 5.3774,2.84366 c 3.1714,1.67707 6.3289,4.61767 7.6966,7.16799 2.2444,4.18484 2.3192,16.60523 2.3192,384.98836 0,368.3831 -0.075,380.8035 -2.3192,384.9883 -1.3677,2.5504 -4.5252,5.491 -7.6966,7.168 l -5.3774,2.8437 -267.1068,0 -267.1068,0 -5.3774,-2.8437 z m 544.9842,-8.4063 c 2.4891,-2.4891 2.5,-4.1667 2.5,-383.5143 l 0,-381.01431 -2.5487,-2.7357 -2.5487,-2.7357 -269.9026,0 -269.9026,0 -2.5487,2.7357 -2.5487,2.7357 0,381.01431 c 0,379.3476 0.011,381.0252 2.5,383.5143 2.4846,2.4846 4.1667,2.5 272.5,2.5 268.3333,0 270.0154,-0.015 272.5,-2.5 z m -282.5,-29.1986 c -8.9346,-2.0059 -12.0975,-3.8314 -15.0622,-8.6937 -2.8611,-4.6923 -3.0623,-11.9445 -0.5267,-18.9827 2.3644,-6.563 2.2984,-7.2089 -0.5789,-5.669 -1.3298,0.7117 -4.9429,1.294 -8.0291,1.294 -19.0208,0 -23.4431,-32.393 -6.4582,-47.3059 8.7174,-7.654 21.4225,-4.9313 31.7529,6.8046 l 5.1522,5.8533 0,-4.3283 c 0,-6.2861 -3.2536,-14.7703 -7.5281,-19.6306 -2.0471,-2.3275 -3.7219,-4.7074 -3.7219,-5.2887 0,-2.543 14.0168,-3.739 22.8125,-1.9464 5.4805,1.1169 5.9471,3.2187 1.6653,7.5005 -3.3897,3.3897 -5.3841,9.4172 -6.4826,19.5915 l -0.7423,6.875 5.2575,-5.9804 c 11.458,-13.0336 23.9045,-14.432 33.9858,-3.8187 7.9124,8.33 9.9139,23.1505 4.5663,33.8124 -4.7375,9.4456 -11.686,12.6623 -21.5331,9.9684 -3.1578,-0.8639 -3.4791,-0.7096 -2.6387,1.2673 0.5263,1.238 1.2193,5.3716 1.54,9.1858 0.5235,6.2244 0.2218,7.3642 -2.9449,11.1277 -6.4947,7.7185 -18.5854,11.0356 -30.4858,8.3639 z m 219.9585,-17.7264 c -1.0103,-1.2174 -1.8263,-5.9587 -2.0434,-11.8737 -0.3285,-8.9469 -0.11,-10.0232 2.3898,-11.7742 3.8526,-2.6984 17.5466,-2.641 19.8074,0.083 2.4948,3.0061 -1.67,5.4898 -9.2054,5.4898 -7.1602,0 -7.7492,2.7353 -0.8075,3.75 3.2339,0.4727 4.2756,1.234 4.2756,3.125 0,1.8666 -1.0417,2.6583 -4.1117,3.125 -6.5174,0.9907 -5.2791,3.0667 2.2367,3.75 5.8333,0.5303 6.875,1.0038 6.875,3.125 0,2.2309 -0.9544,2.5391 -8.8673,2.8633 -6.9665,0.2854 -9.2278,-0.071 -10.5492,-1.6633 z m 1.2915,-42.7027 c -3.8263,-1.9655 -4.4232,-2.9136 -4.7594,-7.5598 -0.332,-4.5897 -0.7734,-5.3125 -3.2437,-5.3125 -6.9118,0 -9.9666,-11.6602 -4.8563,-18.5361 3.0002,-4.0368 9.1928,-5.0158 13.5729,-2.1459 2.7014,1.7701 3.0365,1.7777 3.0365,0.069 0,-1.0564 -0.7031,-3.0553 -1.5625,-4.442 -1.2879,-2.078 -1.2329,-2.7308 0.3125,-3.7139 2.3707,-1.508 6.3395,-1.5315 8.6789,-0.051 1.4711,0.9307 1.5288,1.7453 0.3125,4.4146 -0.8203,1.8004 -1.4914,4.1226 -1.4914,5.1604 0,1.6651 0.3268,1.6582 2.7781,-0.059 1.528,-1.0703 4.5809,-1.9459 6.7843,-1.9459 4.569,0 8.5019,4.0322 9.8298,10.0783 1.1316,5.152 -2.7486,11.663 -7.2658,12.1922 -2.611,0.3059 -3.3764,1.0693 -3.3764,3.3678 0,7.9068 -10.5662,12.6878 -18.75,8.484 z m -218.125,-245.9867 c -0.6875,-0.2293 -2.7969,-0.7581 -4.6875,-1.1751 -4.2375,-0.9346 -4.3498,-2.7033 -0.4038,-6.3604 3.4391,-3.1872 6.9663,-13.719 6.9663,-20.8004 l 0,-4.7466 -6.5625,6.7364 c -13.764,14.1287 -29.6023,11.2873 -37.4752,-6.723 -7.2666,-16.6234 2.7784,-37.65829 17.1627,-35.94 2.75,0.3285 6.082,1.0384 7.4045,1.5774 2.0279,0.8266 2.2457,0.6035 1.3906,-1.4244 -4.5681,-10.8333 -3.8831,-16.36061 2.8636,-23.10727 3.5522,-3.55229 6.3001,-4.96998 11.877,-6.12774 12.8216,-2.66176 26.6755,0.94732 31.4176,8.18464 2.7915,4.26032 2.8715,13.32807 0.1745,19.78274 -1.1196,2.67963 -1.8876,5.00563 -1.7067,5.16903 0.1809,0.1635 3.2069,-0.2998 6.7244,-1.0295 5.5615,-1.1537 6.9299,-1.0137 10.4943,1.0735 6.9261,4.0556 9.2243,8.3161 9.7788,18.1286 0.6695,11.8501 -1.5336,19.0614 -7.8269,25.619 -9.6384,10.043 -20.3451,8.8928 -32.4696,-3.4882 l -7.378,-7.5341 0.8071,5.8882 c 0.986,7.1941 4.6364,15.7242 8.2944,19.3822 3.4463,3.4463 2.6012,5.7025 -2.5194,6.7267 -4.1232,0.8246 -12.1043,0.9295 -14.3262,0.1883 z M 1446.1425,768.50396 c -1.4711,-0.93075 -1.5288,-1.74531 -0.3125,-4.41467 0.8203,-1.80034 1.4914,-4.12251 1.4914,-5.1604 0,-1.6651 -0.3268,-1.65819 -2.7781,0.0589 -1.528,1.07023 -4.5809,1.94588 -6.7843,1.94588 -4.569,0 -8.5019,-4.03225 -9.8298,-10.07829 -1.1316,-5.15205 2.7486,-11.66306 7.2658,-12.19224 2.611,-0.30591 3.3764,-1.06937 3.3764,-3.36785 0,-1.63474 1.3575,-4.55051 3.0168,-6.47947 2.4515,-2.85006 4.0427,-3.5072 8.4924,-3.5072 8.1086,0 12.2408,3.17452 12.2408,9.40381 0,4.38165 0.3476,4.97119 2.9313,4.97119 6.978,0 10.0676,11.62089 4.9281,18.53609 -3.0002,4.03677 -9.1928,5.01582 -13.5729,2.14588 -2.7014,-1.77005 -3.0365,-1.77763 -3.0365,-0.0688 0,1.05642 0.7031,3.0553 1.5625,4.44195 1.2879,2.07806 1.233,2.73081 -0.3125,3.7139 -2.3707,1.50802 -6.3395,1.53151 -8.6789,0.0514 z m 214.7115,-4.67223 c -2.5258,-0.29574 -5.2834,-1.37039 -6.128,-2.38812 -1.2558,-1.51312 -0.9184,-2.49477 1.8511,-5.38548 3.9084,-4.07957 7.0052,-13.24808 6.9698,-20.6357 l -0.024,-5.11384 -4.4938,5.3602 c -10.1571,12.11531 -24.5621,13.73554 -33.8337,3.8055 -10.784,-11.54988 -10.4912,-31.4408 0.6062,-41.1845 4.2519,-3.73316 4.8501,-3.89023 12.2018,-3.20371 l 7.7307,0.7219 -1.6513,-4.62469 c -2.2152,-6.20425 -2.1522,-9.67227 0.2682,-14.77291 2.6379,-5.55895 7.257,-8.74703 15.9562,-11.01288 11.974,-3.11884 26.3527,0.79827 31.442,8.56555 2.6148,3.99065 2.6167,13.90049 0,20.15383 -2.2553,5.39759 -1.9166,6.31582 1.6295,4.41798 3.7791,-2.0225 11.2054,-1.63078 15.3355,0.80892 8.6714,5.12237 11.5411,23.40918 5.6437,35.96481 -3.4025,7.244 -5.923,9.76359 -12.5277,12.5232 -8.2279,3.43788 -18.4614,-0.48211 -26.8702,-10.29276 -4.7891,-5.58745 -5.1264,-5.76947 -5.134,-2.76982 -0.015,5.91084 3.8112,16.15626 7.6781,20.56037 4.2199,4.80618 4.0337,8.0961 -0.4594,8.11777 -1.5685,0.007 -4.8205,0.21813 -7.2267,0.46791 -2.4063,0.2498 -6.4416,0.2122 -8.9674,-0.0835 z m -222.3266,-56.07612 c -2.3628,-2.84701 -0.2453,-4.12773 7.544,-4.56292 5.1071,-0.28533 6.875,-0.86626 6.875,-2.2591 0,-1.19048 -1.5972,-2.10317 -4.375,-2.5 -3.3333,-0.47619 -4.375,-1.22024 -4.375,-3.125 0,-1.86664 1.0417,-2.65834 4.1117,-3.125 6.5174,-0.99069 5.2792,-3.06674 -2.2367,-3.75 -5.8333,-0.5303 -6.875,-1.00379 -6.875,-3.125 0,-2.21482 0.9561,-2.54202 8.3817,-2.86834 10.9069,-0.47932 13.3999,1.61556 13.3987,11.25897 -4e-4,3.63515 0.046,7.73437 0.1036,9.10937 0.057,1.375 -1.1085,3.48437 -2.5908,4.6875 -3.5889,2.9129 -17.6088,3.09518 -19.9622,0.25952 z"
         id="path3564"
         inkscape:connector-curvature="0" />
      <path
         style="fill:#6f6f6f"
         d="m 1365.2533,1456.227 c -0.7938,-0.5051 135.6994,-0.9184 303.3181,-0.9184 167.6187,0 304.1119,0.4133 303.3181,0.9184 -0.7937,0.5051 -137.2869,0.9183 -303.3181,0.9183 -166.0312,0 -302.5244,-0.4132 -303.3181,-0.9183 z m -8.4232,-8.5206 c -1.0958,-2.8558 -0.899,-852.11723 0.1979,-853.84095 0.5051,-0.79372 0.9184,191.44065 0.9184,427.18755 0,235.7468 -0.08,428.6306 -0.1788,428.6306 -0.098,0 -0.5202,-0.8898 -0.9375,-1.9772 z m 622.3663,-426.7728 c 0,-235.68121 0.4133,-427.86187 0.9184,-427.06815 1.2008,1.88698 1.2008,852.24935 0,854.13625 -0.5051,0.7938 -0.9184,-191.3869 -0.9184,-427.0681 z m -583.4148,391.1765 c -2.5657,-1.3546 -5.5188,-4.1143 -6.5625,-6.1327 -1.6848,-3.2579 -1.8977,-46.4642 -1.8977,-385.0438 0,-338.85142 0.2119,-381.78399 1.9008,-385.04982 1.0454,-2.02162 4.1167,-4.80618 6.8252,-6.18793 4.887,-2.49319 6.9558,-2.51226 272.524,-2.51226 265.5682,0 267.637,0.0191 272.524,2.51226 2.7085,1.38175 5.7798,4.16631 6.8252,6.18793 1.6889,3.26583 1.9008,46.1984 1.9008,385.04982 0,338.8514 -0.2119,381.784 -1.9008,385.0498 -1.0454,2.0216 -4.1167,4.8062 -6.8252,6.1879 -4.8881,2.4938 -6.9001,2.5119 -272.7867,2.457 -264.0537,-0.055 -267.9286,-0.09 -272.5271,-2.5182 z m 543.2182,-5.0643 c 1.6752,-0.7634 3.6705,-2.7586 4.4338,-4.4339 1.9801,-4.3459 1.9801,-759.01069 0,-763.35665 -0.7633,-1.67529 -2.7586,-3.67051 -4.4338,-4.43382 -4.3395,-1.97718 -536.5173,-1.97718 -540.8567,0 -1.6753,0.76331 -3.6705,2.75853 -4.4339,4.43382 -1.9844,4.35535 -1.9797,759.01165 0,763.36715 0.7659,1.681 2.594,3.6382 4.0625,4.3492 3.9071,1.8919 537.0735,1.9649 541.2232,0.074 z m -284.1647,-33.5621 c -9.3617,-3.2313 -12.5213,-7.1364 -12.4862,-15.4323 0.016,-3.7439 1.0742,-8.7998 2.5,-11.9418 3.2685,-7.2033 3.1269,-8.0785 -0.965,-5.9631 -11.7116,6.0546 -22.4111,0.3881 -25.27,-13.3831 -1.3278,-6.3963 -1.2044,-8.1714 1.0941,-15.7389 1.994,-6.5646 3.7129,-9.5433 7.4616,-12.9301 9.7892,-8.8439 19.0354,-7.4009 31.042,4.8444 l 7.8598,8.0161 0,-4.9973 c 0,-6.3529 -3.7649,-16.3203 -8.1191,-21.4949 -3.1815,-3.7811 -3.2465,-4.1031 -1.1385,-5.6445 3.9674,-2.901 21.3341,-1.6928 22.5867,1.5715 0.3378,0.8803 -0.5768,2.7916 -2.0324,4.2472 -3.29,3.29 -4.512,6.4544 -6.3,16.315 -2.1539,11.8782 -0.951,12.9046 5.9194,5.0508 6.597,-7.5414 11.5236,-10.0691 19.6253,-10.0691 4.5253,0 6.4977,0.7692 10.1138,3.9441 11.9643,10.5049 13.795,29.8339 3.8267,40.4034 -5.1783,5.4906 -9.5132,6.5194 -17.1625,4.0733 -6.5705,-2.1012 -6.8898,-1.8858 -4.1944,2.8292 0.9825,1.7187 1.8064,6.0585 1.8307,9.644 0.058,8.5856 -4.7261,14.4485 -14.0502,17.2175 -8.3141,2.469 -13.7624,2.3309 -22.1418,-0.5614 z m 226.2363,-15.4265 c -2.6893,-1.3678 -3.1663,-2.5417 -3.4214,-8.419 -0.163,-3.7563 -0.3624,-8.1074 -0.4431,-9.6692 -0.2763,-5.3515 2.2175,-6.6693 11.8722,-6.2737 6.8872,0.2822 8.8673,0.782 8.8673,2.2383 0,1.4079 -1.8065,1.9689 -7.2514,2.2518 -5.1432,0.2672 -7.4675,0.9399 -7.9946,2.3136 -0.9222,2.4031 1.6566,4.1402 6.1835,4.1655 2.0957,0.011 3.4375,0.6988 3.4375,1.7604 0,1.9276 -2.6321,3.2587 -6.4439,3.2587 -1.696,0 -2.3569,0.6972 -2.0735,2.1875 0.3214,1.6906 1.9037,2.2733 6.9666,2.5653 4.4559,0.257 6.5508,0.9138 6.5508,2.0538 0,3.4099 -10.6144,4.4335 -16.25,1.567 z m -1.25,-43.7343 c -2.5722,-1.2955 -3.1928,-2.6298 -3.5085,-7.5433 -0.3371,-5.2473 -0.6748,-5.8769 -2.7917,-5.2051 -3.2284,1.0247 -8.6998,-4.4916 -8.6998,-8.7712 0,-4.2784 3.1432,-10.207 6.3102,-11.9019 2.9245,-1.5652 6.791,-0.6186 11.0459,2.7041 3.5584,2.7789 7.3414,2.9862 10.0455,0.5505 1.0854,-0.9777 3.5061,-2.1601 5.3794,-2.6276 4.9422,-1.2334 10.969,4.9428 10.969,11.2409 0,5.1627 -4.4847,10.6643 -8.6932,10.6643 -1.9935,0 -2.5568,0.8062 -2.5568,3.6593 0,7.0872 -9.7695,11.1234 -17.5,7.23 z m 4.6922,-34.2255 c -1.1433,-2.5223 -1.7898,-5.0536 -1.4367,-5.625 0.8589,-1.3897 6.417,-1.33 7.2874,0.078 0.6012,0.9727 -2.4944,10.1328 -3.4242,10.1328 -0.1913,0 -1.2832,-2.0638 -2.4265,-4.5861 z m -226.8797,-212.9528 c -3.2673,-1.3133 -3.6452,-3.124 -0.8737,-4.1875 1.0663,-0.4092 3.0548,-3.2671 4.4189,-6.3509 2.7025,-6.1093 4.7494,-21.9226 2.8378,-21.9226 -0.6414,0 -3.3354,2.5952 -5.9869,5.7672 -5.1401,6.1493 -12.7712,10.4104 -18.7238,10.4553 -6.4674,0.049 -13.9288,-5.462 -17.6255,-13.0177 -1.8294,-3.7392 -3.6089,-8.9431 -3.9544,-11.5642 -0.8642,-6.5558 3.6109,-18.0902 8.6703,-22.3474 3.443,-2.8971 4.722,-3.2288 10.2421,-2.656 3.4692,0.36 7.542,1.04 9.0505,1.5112 l 2.7428,0.8567 -2.4303,-4.76686 c -1.3367,-2.62176 -2.4303,-7.24535 -2.4303,-10.27461 0,-13.74903 19.7833,-21.79871 38.0233,-15.47143 8.234,2.85631 11.3791,7.23119 11.2617,15.66528 -0.057,4.11198 -1.1134,8.44648 -2.8997,11.90112 -1.5454,2.9885 -2.5756,5.6678 -2.2894,5.9539 0.2861,0.2862 2.5573,-0.3308 5.047,-1.3711 12.2879,-5.1342 21.5274,0.7487 23.9346,15.2397 1.1112,6.689 -1.1656,17.767 -4.7424,23.0745 -9.0807,13.4749 -23.7234,12.8914 -36.0629,-1.4372 -2.9685,-3.4469 -5.8191,-6.2675 -6.3347,-6.2678 -3.138,0 1.0213,16.444 6.048,23.9136 2.3433,3.4821 3.9469,6.8384 3.5637,7.4584 -0.8958,1.4495 -17.7947,1.3225 -21.4867,-0.1616 z M 1446.7785,767.31638 c -0.3798,-0.61447 0.2083,-3.26845 1.3069,-5.89774 l 1.9975,-4.78054 2.341,4.81284 c 1.2875,2.64706 2.0392,5.30105 1.6705,5.89775 -0.8807,1.42501 -6.4304,1.4005 -7.3159,-0.0323 z m 212.4179,-4.77413 c -4.5876,-1.10346 -4.9854,-2.70973 -1.5573,-6.28795 3.5836,-3.74046 7.1823,-15.30637 7.1823,-23.08333 0,-5.90853 -1.5099,-6.00954 -5.0165,-0.33562 -5.5995,9.0602 -16.5573,14.18789 -25.2123,11.79811 -6.1275,-1.69187 -12.9163,-9.48918 -15.3256,-17.60226 -2.4257,-8.1681 -2.4214,-9.58561 0.052,-16.99142 3.9944,-11.96057 11.8864,-16.7115 22.4415,-13.50969 3.4023,1.03204 6.338,1.88253 6.5238,1.88997 0.1859,0.007 -0.7985,-2.21406 -2.1875,-4.93667 -5.3016,-10.3921 -2.1123,-20.07935 8.29,-25.17957 11.7947,-5.78295 30.6253,-2.71998 36.2667,5.89913 3.1636,4.83342 2.8846,14.61383 -0.6096,21.36834 -1.4974,2.89449 -2.7225,5.53766 -2.7225,5.87372 0,0.33606 1.9507,-0.20403 4.3349,-1.2002 14.6088,-6.10398 24.9485,2.20932 24.9544,20.06378 0.01,18.9829 -12.2477,31.37944 -26.7295,27.0406 -5.2818,-1.58246 -15.7595,-10.21251 -16.9489,-13.96012 -1.0932,-3.44434 -4.3609,-3.11267 -4.3609,0.44265 0,5.49415 3.9626,16.48852 7.6017,21.09107 4.3863,5.54761 4.515,6.73695 0.8358,7.72294 -3.2048,0.85886 -14.0741,0.79572 -17.8125,-0.1035 z m -199.375,-1.26901 c -1.0312,-0.39214 -3.2165,-1.75398 -4.8561,-3.02631 -3.5635,-2.76537 -7.3463,-2.96709 -10.0455,-0.53573 -1.0854,0.97769 -3.5061,2.16011 -5.3794,2.62761 -4.9422,1.23337 -10.969,-4.94279 -10.969,-11.24088 0,-5.16278 4.4847,-10.66434 8.6932,-10.66434 1.9935,0 2.5568,-0.80623 2.5568,-3.65928 0,-5.52245 5.3559,-9.25419 12.1868,-8.49125 7.2913,0.81437 9.0632,2.62529 9.0632,9.26282 0,4.97178 0.2608,5.47342 2.4792,4.76931 3.3004,-1.0475 8.7708,4.40911 8.7708,8.74866 0,4.21115 -3.1276,10.19865 -6.1808,11.83269 -2.6199,1.40216 -3.4866,1.45382 -6.3192,0.3767 z m -20.7114,-54.2294 c -1.3712,-2.21871 2.0726,-3.57047 9.1489,-3.59111 5.0514,-0.0147 6.5625,-0.4599 6.5625,-1.93337 0,-1.96887 -0.6686,-2.33872 -6.5625,-3.63018 -4.8195,-1.05604 -4.4068,-4.20349 0.6148,-4.68889 2.6688,-0.25797 4.1937,-1.13852 4.4666,-2.5792 0.3386,-1.78719 -0.4987,-2.1875 -4.575,-2.1875 -6.1953,0 -8.9439,-1.00145 -8.9439,-3.25874 0,-1.29697 1.9346,-1.74126 7.5822,-1.74126 10.454,0 12.5449,1.33277 12.3635,7.88082 -0.08,2.8843 0.2502,6.81077 0.7336,8.72548 1.5055,5.96326 -1.9834,8.3937 -12.0493,8.3937 -4.8753,0 -8.8477,-0.591 -9.3414,-1.38975 z m -73.3045,-121.33489 c 2.799,-1.11081 602.7329,-1.11081 605.5318,0 1.1775,0.4673 -135.0672,0.84964 -302.7659,0.84964 -167.6987,0 -303.9433,-0.38234 -302.7659,-0.84964 z"
         id="path3562"
         inkscape:connector-curvature="0" />
      <path
         style="fill:#555555"
         d="m 1517.6339,1456.2461 c 83.0156,-0.1774 218.8594,-0.1774 301.875,0 83.0156,0.1775 15.0938,0.3226 -150.9375,0.3226 -166.0312,0 -233.9531,-0.1451 -150.9375,-0.3226 z m -160.9447,-435.3125 c 0,-234.09376 0.1438,-329.85939 0.3197,-212.81251 0.1758,117.04687 0.1758,308.57811 0,425.62501 -0.1759,117.0469 -0.3197,21.2812 -0.3197,-212.8125 z m 623.75,0 c 0,-234.09376 0.1438,-329.85939 0.3197,-212.81251 0.1758,117.04687 0.1758,308.57811 0,425.62501 -0.1759,117.0469 -0.3197,21.2812 -0.3197,-212.8125 z m -585.7454,389.6442 c -2.4269,-1.6317 -4.8869,-4.7125 -5.7393,-7.1875 -2.1659,-6.2884 -2.1659,-758.62505 0,-764.91343 0.8524,-2.47502 3.3124,-5.55578 5.7393,-7.1875 l 4.2473,-2.85578 269.6303,0 269.6303,0 4.2474,2.85578 c 2.4268,1.63172 4.8868,4.71248 5.7393,7.1875 2.1658,6.28838 2.1658,758.62503 0,764.91343 -0.8525,2.475 -3.3125,5.5558 -5.7393,7.1875 l -4.2474,2.8558 -269.6303,0 -269.6303,0 -4.2473,-2.8558 z m 547.2345,-4.8621 2.8931,-2.7179 0,-381.889 0,-381.88908 -2.7179,-2.89307 -2.7179,-2.89306 -270.639,0 -270.6391,0 -2.893,2.71789 -2.8931,2.71789 0,381.88903 0,381.8891 2.7179,2.893 2.7179,2.8931 270.639,0 270.6391,0 2.893,-2.7179 z m -287.6279,-32.8227 c -2.6927,-0.9945 -6.349,-3.2625 -8.125,-5.04 -2.7457,-2.7482 -3.2173,-4.3029 -3.151,-10.3882 0.052,-4.8005 0.9781,-8.8886 2.8125,-12.4189 3.8292,-7.3696 3.4546,-8.2805 -2.2157,-5.3877 -14.0798,7.183 -24.4409,-1.0302 -24.4101,-19.3496 0.028,-16.6281 9.0907,-27.8195 21.558,-26.6216 7.2699,0.6986 15.042,5.5578 19.7459,12.3456 1.868,2.6956 4.2361,4.901 5.2624,4.901 4.2332,0 -1.429,-20.7257 -7.398,-27.0794 -1.4135,-1.5045 -2.1965,-3.3397 -1.7402,-4.0781 1.0857,-1.7567 17.5955,-1.7444 20.8841,0.015 2.529,1.3535 2.5283,1.3667 -0.2199,3.9271 -4.11,3.829 -6.3787,10.3553 -7.1514,20.5725 -0.8198,10.8402 0.3718,11.5806 5.8418,3.6302 5.2084,-7.5701 11.4751,-11.2243 19.3812,-11.3013 8.1422,-0.079 13.1276,3.3656 17.4638,12.0674 5.7148,11.4681 3.4714,26.6938 -4.9039,33.2818 -4.2056,3.3081 -11.2612,3.5571 -17.4304,0.6153 -5.5874,-2.6645 -6.6524,-1.6108 -3.1543,3.1206 1.5119,2.045 3.0367,6.2706 3.3883,9.3903 0.8069,7.1592 -2.6853,13.3397 -9.3743,16.5903 -6.1137,2.9711 -20.5447,3.6148 -27.0638,1.2072 z m 225.6087,-16.2287 c -0.8574,-1.0331 -1.7522,-5.8509 -1.9885,-10.7062 -0.3951,-8.1164 -0.1938,-8.9825 2.4968,-10.7455 3.5183,-2.3052 15.8028,-2.0029 16.5974,0.4085 0.3698,1.1221 -1.409,1.5625 -6.3112,1.5625 -7.7247,0 -11.1454,2.2955 -8.3822,5.625 0.8559,1.0312 3.1415,1.875 5.0793,1.875 1.9377,0 3.8733,0.5665 4.3012,1.2588 0.8057,1.3037 -0.067,1.7461 -6.026,3.0565 -2.4426,0.537 -3.3962,1.4302 -3.1142,2.9169 0.3067,1.617 2.0908,2.2962 7.2705,2.7678 9.2045,0.8381 8.7326,3.0349 -0.75,3.492 -5.5944,0.2696 -8.0277,-0.1313 -9.1731,-1.5113 z m -1.9175,-44.4307 c -1.6675,-1.8426 -2.0114,-3.5471 -1.387,-6.875 0.7993,-4.2608 0.6921,-4.425 -2.8873,-4.425 -2.0445,0 -4.6013,-0.8839 -5.6816,-1.9643 -2.8295,-2.8295 -2.4918,-10.778 0.6264,-14.7421 3.4216,-4.3498 7.9877,-4.2053 14.1358,0.4474 5.0425,3.816 7.1862,3.7065 10.7169,-0.5478 2.3453,-2.8259 8.2757,-2.4085 11.2579,0.7925 3.3441,3.5895 3.4943,12.2711 0.2628,15.1956 -1.2573,1.1378 -3.7714,2.0687 -5.587,2.0687 -2.9949,0 -3.2851,0.422 -3.1299,4.5513 0.2181,5.8016 -2.562,7.9487 -10.2924,7.9487 -4.1903,0 -6.4375,-0.6852 -8.0346,-2.45 z m 7.0798,-33.1254 c -1.9949,-4.3785 -1.978,-4.4246 1.625,-4.4246 3.4458,0 4.0091,2.0631 1.5,5.4945 -1.5124,2.0683 -1.7288,1.9942 -3.125,-1.0699 z m -228.4322,-213.2671 c -0.4563,-0.7384 0.3352,-2.5826 1.759,-4.0981 3.5618,-3.7914 6.1968,-11.8266 6.6598,-20.3085 0.4852,-8.8889 -1.2801,-9.808 -6.0483,-3.1491 -11.0264,15.3989 -28.5108,15.3034 -36.4885,-0.1993 -5.8224,-11.3142 -4.8742,-23.1654 2.528,-31.596 4.9173,-5.6005 9.8848,-6.4535 18.5061,-3.1776 3.7082,1.409 6.9241,2.3797 7.1466,2.1573 0.2225,-0.2225 -0.7081,-1.819 -2.0679,-3.5477 -2.9099,-3.69939 -5.1016,-12.3842 -4.1219,-16.33361 2.1809,-8.79186 10.3732,-13.40904 23.7721,-13.39793 11.1943,0.009 16.9597,1.77375 20.8319,6.3755 4.2902,5.09864 4.3051,13.07757 0.042,22.23674 -1.7267,3.7093 -2.8289,7.0547 -2.4494,7.4343 0.3796,0.3795 2.3065,-0.2647 4.2821,-1.4317 2.0782,-1.2277 6.2042,-2.1218 9.791,-2.1218 5.0236,0 6.8211,0.6219 9.4785,3.2793 7.6154,7.6154 7.8773,25.4428 0.5332,36.2997 -2.9311,4.333 -11.1055,9.171 -15.4958,9.171 -5.3505,0 -15.682,-6.5313 -20.1341,-12.7283 -2.4209,-3.3697 -5.035,-5.9054 -5.8091,-5.635 -3.5488,1.2398 1.724,21.9693 6.7436,26.512 4.9088,4.4424 3.2377,5.6013 -8.0774,5.6013 -6.1706,0 -10.8957,-0.5574 -11.381,-1.3425 z M 1447.3214,765.85141 c 0,-0.7327 0.6328,-2.5146 1.4063,-3.95977 1.4041,-2.6237 1.4087,-2.62311 3.0807,0.39467 2.3588,4.25754 2.1809,4.89728 -1.362,4.89728 -1.7187,0 -3.125,-0.59948 -3.125,-1.33218 z m 210.0328,-4.87112 c -1.5589,-0.98583 -1.4028,-1.63283 1.0148,-4.2062 3.2679,-3.47859 5.8437,-11.15852 7.0912,-21.14305 0.8762,-7.01307 -0.4651,-10.08284 -3.0204,-6.91241 -6.7593,8.38661 -9.9426,11.46218 -14.0127,13.5386 -11.6747,5.956 -23.0001,0.29284 -28.0526,-14.02744 -2.6067,-7.38805 -2.2039,-14.50787 1.2389,-21.90238 4.6114,-9.90425 11.5422,-12.54055 21.9846,-8.36234 2.7924,1.11731 5.3579,1.7507 5.7011,1.40753 0.3431,-0.34316 -0.5747,-2.65534 -2.0396,-5.13816 -3.5109,-5.95058 -3.6794,-14.7672 -0.3688,-19.29885 7.8883,-10.79784 31.4156,-12.01715 41.2927,-2.14 3.552,3.55204 4.1363,4.99647 4.1258,10.2005 -0.01,3.82896 -1.1689,8.54718 -3.1517,12.80667 -1.7267,3.70929 -2.9299,6.95367 -2.6739,7.20971 0.2561,0.25605 2.9399,-0.65709 5.9642,-2.02921 6.6726,-3.02743 10.0656,-3.16099 15.0339,-0.59177 7.4043,3.82892 10.7708,18.59735 7.0614,30.97809 -0.8406,2.80556 -3.8379,7.51145 -6.6607,10.45752 -4.6402,4.84279 -5.7043,5.35649 -11.0953,5.35649 -3.2796,0 -7.8537,-0.89725 -10.1647,-1.99388 -4.2109,-1.99824 -13.4498,-11.07764 -14.5107,-14.26023 -0.3355,-1.00664 -1.4148,-1.36965 -2.656,-0.89335 -1.5816,0.60691 -1.9257,1.80335 -1.413,4.91239 1.6007,9.70612 3.7111,15.43751 7.5231,20.4315 2.2362,2.92964 3.7336,5.65895 3.3274,6.06511 -1.1998,1.19984 -19.5323,0.8042 -21.539,-0.46484 z m -203.0093,-3.7877 c -5.0425,-3.81602 -7.1862,-3.70646 -10.7169,0.54775 -2.3453,2.82598 -8.2757,2.40852 -11.2579,-0.79245 -3.3441,-3.58949 -3.4942,-12.27113 -0.2628,-15.19556 1.2573,-1.13782 3.7714,-2.06874 5.587,-2.06874 2.9949,0 3.2851,-0.422 3.1299,-4.55133 -0.2181,-5.80162 2.562,-7.94867 10.2924,-7.94867 7.6055,0 10.6127,2.9763 9.4217,9.32501 -0.7994,4.26078 -0.6922,4.42499 2.8872,4.42499 2.0445,0 4.6013,0.88392 5.6816,1.96429 2.8295,2.8295 2.4918,10.778 -0.6264,14.74213 -3.4216,4.34982 -7.9877,4.20529 -14.1358,-0.44742 z m -13.6902,-49.59233 c -2.0641,-2.06417 -0.343,-2.91667 5.8886,-2.91667 4.4502,0 7.2479,-0.6337 8.2781,-1.875 2.1907,-2.63967 -0.3285,-5.37312 -5.4056,-5.86524 -5.0931,-0.49368 -4.6731,-2.69775 0.6689,-3.50976 3.07,-0.46666 4.1117,-1.25836 4.1117,-3.125 0,-2.12121 -1.0417,-2.5947 -6.875,-3.125 -8.6354,-0.78504 -8.4452,-3.00459 0.2991,-3.49059 9.5641,-0.53155 11.2316,1.13299 11.7113,11.6906 0.5103,11.22872 -0.9894,13.04999 -10.7458,13.04999 -3.9039,0 -7.4729,-0.375 -7.9313,-0.83333 z m 76.9792,-122.60412 c 83.0156,-0.17742 218.8594,-0.17742 301.875,0 83.0156,0.17742 15.0938,0.32258 -150.9375,0.32258 -166.0312,0 -233.9531,-0.14516 -150.9375,-0.32258 z"
         id="path3560"
         inkscape:connector-curvature="0" />
      <path
         style="fill:#2d2d2d"
         d="m 1518.2589,1456.2461 c 82.6719,-0.1774 217.9531,-0.1774 300.625,0 82.6719,0.1775 15.0313,0.3227 -150.3125,0.3227 -165.3437,0 -232.9844,-0.1452 -150.3125,-0.3227 z m -161.5698,-435.3125 c 0,-233.40626 0.1439,-328.89064 0.3198,-212.18751 0.1758,116.70312 0.1758,307.67191 0,424.37501 -0.1759,116.7031 -0.3198,21.2187 -0.3198,-212.1875 z m 623.7501,0 c 0,-233.40626 0.1438,-328.89064 0.3197,-212.18751 0.1758,116.70312 0.1758,307.67191 0,424.37501 -0.1759,116.7031 -0.3197,21.2187 -0.3197,-212.1875 z m -583.9094,390.1024 c -2.1541,-1.3135 -4.826,-3.6866 -5.9375,-5.2734 -1.8505,-2.642 -2.0209,-35.1004 -2.0209,-384.9386 l 0,-382.05326 2.6104,-3.31855 c 5.9351,-7.5453 -14.8812,-7.0186 277.3896,-7.0186 292.2709,0 271.4545,-0.5267 277.3896,7.0186 l 2.6104,3.31855 0,382.16286 0,382.1628 -2.6104,3.3186 c -5.9353,7.5455 14.9066,7.019 -277.64,7.0139 -261.4915,0 -267.9679,-0.062 -271.7912,-2.3929 z m 546.0694,-4.8246 2.8472,-2.8473 0,-382.4305 0,-382.43057 -2.8472,-2.84722 -2.8472,-2.84722 -271.1806,0 -271.1806,0 -2.8472,2.84719 -2.8472,2.8472 -0.2974,380.90282 c -0.2373,303.9514 0.02,381.5291 1.2746,384.0032 0.8646,1.7052 2.9672,3.8084 4.6724,4.6737 2.4688,1.2529 58.0365,1.5125 272.7532,1.2747 l 269.6529,-0.2988 2.8471,-2.8472 z m -287.6832,-33.8742 c -3.7292,-1.3293 -7.7948,-3.7358 -9.0347,-5.3478 -3.3924,-4.4105 -3.0278,-14.217 0.8099,-21.7815 2.9028,-5.7216 3.8898,-9.2743 2.5767,-9.2743 -0.3045,0 -2.4139,1.0798 -4.6875,2.3995 -7.2607,4.2143 -14.9446,3.8572 -19.7181,-0.9163 -10.4533,-10.4533 -5.17,-36.6207 8.5614,-42.403 8.4225,-3.5467 20.3294,1.8313 27.268,12.3163 1.8035,2.7252 4.1657,4.8376 5.2633,4.7067 1.0953,-0.1306 3.0757,0.2288 4.401,0.7987 1.8362,0.7895 2.8774,0.3269 4.375,-1.9438 6.5138,-9.8759 12.593,-13.7081 21.7459,-13.7081 6.7537,0 12.0032,3.8058 16.1656,11.7197 5.8013,11.03 2.2791,29.3287 -6.5213,33.8795 -4.9219,2.5452 -7.8031,2.3991 -15.1686,-0.7695 -3.414,-1.4687 -6.555,-2.3226 -6.9799,-1.8976 -0.425,0.4249 0.7171,2.9224 2.538,5.5499 3.9017,5.6302 4.564,15.4224 1.3531,20.0066 -5.346,7.6325 -21.2233,10.8444 -32.9478,6.665 z m 227.4054,-15.555 c -2.5211,-1.3025 -3.073,-2.4463 -2.8557,-5.9191 0.1481,-2.3675 -0.2251,-5.7957 -0.8293,-7.6183 -0.7836,-2.3635 -0.5717,-4.0662 0.739,-5.9375 1.553,-2.2172 3.1243,-2.6237 10.1419,-2.6237 9.9931,0 9.2533,2.1707 -0.9342,2.7409 -5.6231,0.3147 -6.9464,0.8209 -7.3234,2.8015 -0.5598,2.9406 2.9189,5.7076 7.1756,5.7076 3.892,0 2.0554,2.1143 -2.3511,2.7066 -3.4892,0.4691 -4.9995,4.491 -2.3233,6.187 0.927,0.5874 4.1093,1.0767 7.0718,1.0873 3.2684,0.011 5.0825,0.5106 4.6137,1.2691 -1.0948,1.7715 -9.4115,1.5172 -13.125,-0.4014 z m -2.3314,-43.6884 c -2.684,-1.2898 -2.8895,-1.9857 -2.2301,-7.553 0.7253,-6.1237 0.7216,-6.1315 -2.6553,-5.4859 -4.7943,0.9165 -7.5519,-0.9924 -8.465,-5.8596 -0.9262,-4.937 1.9197,-11.4427 5.503,-12.58 3.0484,-0.9675 7.6846,0.844 10.685,4.1748 2.4039,2.6686 8.2438,3.6785 8.2438,1.4256 0,-0.6699 1.7655,-2.1309 3.9233,-3.2467 7.2308,-3.7392 13.4558,2.429 11.7308,11.6239 -0.8915,4.7522 -3.6854,6.6203 -8.5192,5.6963 -3.4131,-0.6524 -3.4518,-0.5895 -2.6657,4.3268 0.6874,4.2988 0.395,5.2709 -2.1139,7.0282 -3.3291,2.3318 -9.1166,2.5255 -13.4367,0.4496 z m -213.2609,-13.0505 c -0.9629,-5.1328 -4.8824,-13.5226 -7.9411,-16.9985 -1.7309,-1.9669 -1.7528,-2.4153 -0.1669,-3.4184 2.4605,-1.5563 12.7338,-1.4984 16.9259,0.095 l 3.3883,1.2882 -2.6397,2.8099 c -2.9542,3.1446 -6.4742,12.1549 -6.4742,16.5721 0,4.8241 -2.1677,4.5797 -3.0923,-0.3487 z m 218.4784,-21.4538 c -1.6957,-2.7177 -0.9893,-3.9059 2.3222,-3.9059 2.6842,0 2.8944,1.1986 0.7292,4.1572 -1.4608,1.9961 -1.6594,1.9797 -3.0514,-0.2513 z m -226.4704,-212.5271 c -1.3841,-0.8768 -1.1663,-1.8173 1.1447,-4.9432 1.5697,-2.1231 3.8118,-7.6741 4.9823,-12.3355 1.9479,-7.7569 2.2025,-8.1573 3.0045,-4.7251 1.7457,7.4711 4.7585,14.5465 7.6652,18.0009 1.6323,1.9399 2.6086,3.8865 2.1694,4.3256 -1.1946,1.1946 -16.9954,0.9258 -18.9661,-0.3227 z m 27.9593,-15.9558 c -5.2265,-2.7554 -9.1575,-6.4882 -12.7301,-12.0883 -2.0956,-3.2848 -3.6698,-4.5548 -5.0089,-4.041 -1.0741,0.4122 -2.7898,0.055 -3.8127,-0.7941 -1.5283,-1.2684 -2.2703,-0.9938 -4.1629,1.5409 -6.6005,8.84 -8.2812,10.4742 -12.9544,12.5968 -6.8068,3.0917 -11.97,2.9465 -17.0539,-0.4796 -5.7154,-3.8516 -9.4634,-9.7485 -11.2391,-17.6832 -1.2727,-5.6869 -1.166,-7.5705 0.7563,-13.3599 4.2616,-12.834 12.9967,-16.71935 25.1665,-11.1938 2.866,1.3013 5.5135,2.0632 5.8835,1.6933 0.3699,-0.37 -0.85,-2.6688 -2.7109,-5.1086 -2.7958,-3.66554 -3.3834,-5.71884 -3.3834,-11.82325 0,-6.73802 0.3528,-7.70254 4.0136,-10.97344 5.1795,-4.62796 12.8159,-6.64011 22.3326,-5.88453 19.2911,1.53162 25.0112,12.19652 16.0385,29.90332 -1.7478,3.449 -2.8881,6.5607 -2.534,6.9148 0.3541,0.3541 3.2431,-0.6145 6.4199,-2.1524 7.3863,-3.5756 14.9557,-2.8708 18.9422,1.7638 6.2592,7.2767 6.3567,24.2527 0.1967,34.2199 -5.1909,8.399 -15.6842,11.4173 -24.1595,6.9493 z m -239.375,-283.63019 c 0,-0.38895 0.6072,-1.84164 1.3492,-3.22822 1.295,-2.41975 1.4161,-2.42956 3.0142,-0.2441 0.9157,1.25231 1.4003,2.70501 1.077,3.22821 -0.6763,1.0943 -5.4404,1.30806 -5.4404,0.24411 z m 212.1875,-5.15448 c -2.7831,-0.7273 -2.7747,-0.79044 0.8482,-6.35264 1.6697,-2.56339 3.7373,-8.30676 4.5947,-12.76305 l 1.5589,-8.10236 2.7626,9.04721 c 1.5194,4.97597 4.2197,10.9576 6.0007,13.29252 2.731,3.58063 2.9331,4.3623 1.2905,4.99264 -2.1883,0.8397 -13.7002,0.76254 -17.0556,-0.11437 z m -200.3125,-1.57004 c -1.375,-0.56277 -3.5716,-2.21461 -4.8812,-3.67076 -2.4029,-2.67154 -8.2438,-3.68448 -8.2438,-1.42964 0,0.66985 -1.7655,2.13086 -3.9233,3.2467 -7.2308,3.73922 -13.4558,-2.429 -11.7308,-11.6239 0.8915,-4.75219 3.6854,-6.62035 8.5192,-5.69633 3.4131,0.65247 3.4519,0.58955 2.6657,-4.32677 -0.6874,-4.2988 -0.395,-5.27095 2.1139,-7.02823 3.4529,-2.41854 8.4645,-2.61946 13.0641,-0.52373 3.1129,1.41834 3.28,1.9087 2.6015,7.63757 -0.7239,6.11218 -0.7197,6.12091 2.6565,5.47551 4.7943,-0.91648 7.5519,0.99242 8.465,5.85962 1.1715,6.24438 -3.2924,13.62629 -7.9715,13.18242 -0.4594,-0.0436 -1.9603,-0.53969 -3.3353,-1.10246 z m 226.0078,-16.31519 c -3.863,-2.21547 -8.0787,-6.02917 -10.4094,-9.41676 -3.0196,-4.38894 -4.4677,-5.51859 -6.3202,-4.93061 -1.3463,0.4273 -2.4032,0.17596 -2.4032,-0.5715 0,-3.07405 -3.8636,-0.95978 -7.5005,4.1045 -7.8653,10.95235 -20.648,14.427 -29.1679,7.92859 -16.3371,-12.46092 -11.5248,-44.29594 6.624,-43.82006 2.4873,0.0652 6.3651,1.07149 8.6173,2.23615 6.8122,3.52273 8.1199,2.1229 3.8851,-4.15902 -12.8772,-19.10241 10.2787,-35.79935 34.7717,-25.07271 9.5998,4.20422 11.4452,15.24707 4.5689,27.34147 -3.839,6.75231 -2.5329,8.77933 3.347,5.19463 5.0464,-3.07654 13.168,-3.37933 17.0834,-0.63691 4.6208,3.2365 6.9591,9.21754 7.0564,18.04912 0.1331,12.07167 -4.6433,21.85549 -12.4867,25.57744 -5.933,2.81538 -10.3761,2.35656 -17.6659,-1.82433 z m -244.1328,-37.44073 c 0,-0.65319 3.2344,-1.35632 7.1875,-1.5625 6.7334,-0.35119 7.1875,-0.57233 7.1875,-3.49988 0,-2.54807 -0.6923,-3.20045 -3.75,-3.53368 -4.9323,-0.53753 -7.2097,-2.71632 -2.8393,-2.71632 3.9087,0 7.3927,-3.08065 6.4025,-5.66117 -0.4864,-1.26753 -2.583,-1.83883 -6.7482,-1.83883 -3.3233,0 -6.3901,-0.5625 -6.815,-1.25 -0.4819,-0.77972 2.0193,-1.25 6.6482,-1.25 8.6584,0 10.9372,1.76036 9.7785,7.55385 -0.4237,2.11866 -0.1088,4.83954 0.7122,6.15428 1.1268,1.80425 1.1282,3.11084 0.01,5.57425 -1.3569,2.97803 -2.0731,3.21762 -9.6179,3.21762 -4.4835,0 -8.1518,-0.53443 -8.1518,-1.18762 z m 77.1875,-120.99983 c 82.6719,-0.17745 217.9531,-0.17745 300.625,0 82.6719,0.17744 15.0313,0.32262 -150.3125,0.32262 -165.3437,0 -232.9844,-0.14518 -150.3125,-0.32262 z"
         id="path3558"
         inkscape:connector-curvature="0" />
      <path
         style="fill:#090909"
         d="m 1518.8839,1456.2461 c 82.3281,-0.1774 217.0469,-0.1774 299.375,0 82.3281,0.1775 14.9688,0.3227 -149.6875,0.3227 -164.6562,0 -232.0156,-0.1452 -149.6875,-0.3227 z m -162.1948,-435.3125 c 0,-232.71876 0.1439,-327.92189 0.3198,-211.56251 0.1758,116.35937 0.1758,306.76561 0,423.12501 -0.1759,116.3594 -0.3198,21.1562 -0.3198,-211.5625 z m 623.75,0 c 0,-232.71876 0.1439,-327.92189 0.3198,-211.56251 0.1758,116.35937 0.1758,306.76561 0,423.12501 -0.1759,116.3594 -0.3198,21.1562 -0.3198,-211.5625 z m -581.8677,390 c -1.2137,-0.7843 94.0201,-1.2117 270,-1.2117 175.9799,0 271.2137,0.4274 270,1.2117 -1.1957,0.7727 -99.0201,1.2117 -270,1.2117 -170.9799,0 -268.8043,-0.439 -270,-1.2117 z m -6.1593,-4.5436 -2.5907,-3.2936 0,-382.2617 0,-382.2617 3.2472,-3.50721 3.2472,-3.5072 -2.6222,3.60607 -2.6222,3.60608 0,382.16286 0,382.1628 2.5907,3.2936 c 1.4249,1.8115 2.3095,3.2936 1.9658,3.2936 -0.3438,0 -1.7909,-1.4821 -3.2158,-3.2936 z m 551.0371,0.3125 2.6222,-3.6061 0,-382.1628 0,-382.16286 -2.6222,-3.60608 -2.6221,-3.60607 3.2471,3.5072 3.2472,3.50721 0,382.3606 0,382.3606 -3.2472,3.5072 -3.2471,3.5072 2.6221,-3.6061 z m -287.2283,-34.6349 c -6.5937,-2.0129 -9.9025,-4.723 -11.4347,-9.3657 -1.7166,-5.2014 -0.7639,-10.3038 3.5379,-18.9484 4.1467,-8.3327 2.6332,-10.9416 -3.7189,-6.4111 -6.1348,4.3755 -15.211,4.1744 -19.1669,-0.4247 -8.9501,-10.405 -5.6505,-32.5427 5.9342,-39.814 8.294,-5.2059 21.1947,-0.301 28.7341,10.9249 2.6549,3.9531 4.5084,5.3225 8.1208,6.0002 4.0548,0.7607 4.9295,0.4871 6.5409,-2.046 6.8461,-10.7623 17.3688,-16.2915 25.7442,-13.5274 8.9912,2.9674 15.3299,15.5477 13.9032,27.5936 -1.759,14.8526 -11.8008,21.0884 -23.9693,14.8846 -2.697,-1.375 -5.6284,-2.5 -6.5143,-2.5 -2.576,0 -1.8677,3.7086 1.4646,7.6688 6.7096,7.974 4.8535,18.8081 -4.1139,24.0129 -4.8851,2.8353 -18.6555,3.908 -25.0619,1.9523 z m 224.0684,-17.9678 c -0.3871,-1.0085 -0.4625,-2.5554 -0.1677,-3.4375 0.2949,-0.882 0.8324,-0.057 1.1946,1.8338 0.7072,3.6915 0.1238,4.6025 -1.0269,1.6037 z m 0.7821,-7.502 c 0,-1.1151 0.7333,-1.5544 1.8678,-1.119 1.0273,0.3942 1.5566,1.2203 1.1763,1.8358 -1.0908,1.7649 -3.0441,1.305 -3.0441,-0.7168 z m -2.4013,-5.8237 c -0.054,-1.1189 0.8857,-2.8064 2.0888,-3.75 1.9009,-1.4907 2.0048,-1.4698 0.7928,0.1595 -0.767,1.0312 -1.707,2.7187 -2.0888,3.75 -0.5806,1.5684 -0.7103,1.5424 -0.7928,-0.1595 z m 0.5252,-29.3952 c -1.2328,-1.2328 -1.7724,-3.1079 -1.3491,-4.6875 0.3881,-1.448 1.0735,-3.9618 1.523,-5.586 0.7872,-2.8442 0.6295,-2.9215 -4.2709,-2.0936 -4.3246,0.7307 -5.2901,0.4827 -6.4326,-1.6521 -3.3668,-6.2908 0.2118,-15.1761 6.1122,-15.1761 1.3511,0 4.3785,1.6875 6.7275,3.75 5.2019,4.5673 7.7682,4.7061 11.5505,0.625 5.6301,-6.0751 13.0155,-2.4215 13.0155,6.4388 0,5.6836 -2.9274,8.2038 -8.3481,7.1869 l -4.3524,-0.8166 0.8505,5.6719 c 0.7372,4.9158 0.5115,5.8534 -1.6925,7.033 -3.7794,2.0226 -10.9925,1.6474 -13.3336,-0.6937 z m -212.375,-14.5996 c -0.4287,-2.2849 -2.46,-6.8044 -4.5141,-10.0434 -2.0542,-3.239 -3.7348,-6.1508 -3.7348,-6.4707 0,-0.8573 14.4658,-0.7081 16.7617,0.1729 1.7208,0.6603 1.6527,1.1528 -0.5452,3.9469 -1.3811,1.7559 -3.3848,6.1977 -4.4525,9.8706 -1.0678,3.6729 -2.1201,6.678 -2.3386,6.678 -0.2184,0 -0.7479,-1.8694 -1.1765,-4.1543 z m 218.6261,-19.5957 c -0.4249,-0.6875 0.1376,-1.25 1.25,-1.25 1.1124,0 1.6749,0.5625 1.25,1.25 -0.4249,0.6875 -0.9874,1.25 -1.25,1.25 -0.2626,0 -0.8251,-0.5625 -1.25,-1.25 z m -226.875,-212.0891 c 0,-0.4615 0.891,-1.8235 1.9799,-3.0268 1.0889,-1.2033 2.9765,-5.4088 4.1946,-9.3456 l 2.2147,-7.1579 2.038,5.9815 c 1.121,3.2898 3.4808,7.8729 5.2441,10.1847 l 3.2059,4.2032 -9.4386,0 c -5.1912,0 -9.4386,-0.3776 -9.4386,-0.8391 z m 32.1606,-14.6 c -6.0807,-1.852 -12.6618,-7.1745 -16.6157,-13.4378 -1.723,-2.7294 -3.8161,-4.8537 -4.6513,-4.7207 -0.8352,0.1331 -2.5906,-0.2219 -3.9008,-0.7887 -1.7426,-0.7539 -2.9172,-0.3369 -4.375,1.5531 -1.096,1.421 -3.496,4.5237 -5.3332,6.8949 -6.7578,8.722 -18.8945,11.1294 -25.9935,5.1561 -6.0313,-5.0751 -9.2709,-12.384 -9.3489,-21.0928 -0.1584,-17.6776 10.8654,-25.62052 25.3221,-18.2453 6.6291,3.3819 10.4017,1.7779 6.1221,-2.6029 -6.9249,-7.08851 -8.0609,-17.0008 -2.681,-23.39434 8.3373,-9.90838 36.155,-8.23 40.5781,2.44829 2.1169,5.11087 0.7071,14.06087 -3.2891,20.87995 -4.2792,7.3019 -2.601,9.4336 4.3506,5.5266 6.689,-3.7594 14.349,-3.657 18.25,0.244 6.4066,6.4067 7.2355,22.2879 1.6821,32.2279 -4.9371,8.8367 -11.6149,11.941 -20.1165,9.3517 z M 1449.209,764.6632 c 0.4318,-0.69871 1.3088,-0.94677 1.9488,-0.55122 1.7338,1.07153 1.4105,1.82161 -0.7852,1.82161 -1.0718,0 -1.5954,-0.57168 -1.1636,-1.27039 z m 210.2996,-4.45912 c -0.4013,-0.40124 0.4091,-2.65935 1.8007,-5.01804 1.3917,-2.3587 3.2388,-6.95229 4.1048,-10.20799 1.5626,-5.87511 1.5814,-5.89136 2.5097,-2.16946 0.5145,2.0625 2.5582,6.6946 4.5415,10.29356 1.9834,3.59896 3.6061,6.83334 3.6061,7.1875 0,0.89425 -15.6639,0.81332 -16.5628,-0.0856 z m -203.8712,-4.27049 c -5.2019,-4.56726 -7.7682,-4.70614 -11.5505,-0.625 -5.6301,6.07505 -13.0155,2.42147 -13.0155,-6.43885 0,-5.6836 2.9274,-8.20375 8.3481,-7.18681 l 4.3524,0.81651 -0.8505,-5.6719 c -0.7372,-4.91575 -0.5115,-5.85334 1.6925,-7.03292 6.7257,-3.59947 16.2042,-0.11825 14.6698,5.38782 -2.5724,9.23081 -2.7962,8.61177 2.7731,7.67085 4.3114,-0.7284 5.2786,-0.47919 6.4203,1.65417 3.3668,6.29084 -0.2118,15.17613 -6.1122,15.17613 -1.3511,0 -4.3785,-1.6875 -6.7275,-3.75 z m 230.6623,-12.67326 c -2.9681,-1.4692 -6.9056,-4.61865 -8.75,-6.99878 -6.3825,-8.23665 -7.1213,-8.88117 -11.106,-9.68892 -3.7156,-0.7532 -4.3247,-0.36303 -8.4944,5.44085 -7.6304,10.62087 -18.7186,14.1424 -26.9865,8.57065 -8.9375,-6.02297 -12.9877,-18.99185 -9.443,-30.23685 3.7214,-11.80572 12.0244,-15.82033 22.3657,-10.81418 9.5726,4.634 12.668,2.77489 6.3535,-3.81595 -2.5514,-2.66316 -3.4659,-5.08936 -3.9025,-10.3534 -0.5384,-6.49254 -0.3323,-7.11298 3.7036,-11.14881 6.8621,-6.86215 17.3987,-8.71778 29.3494,-5.1688 8.7929,2.61121 11.0569,5.52003 11.0569,14.20619 0,5.32426 -0.8668,8.70542 -3.5312,13.77502 -4.3739,8.32193 -3.1317,10.52412 3.5923,6.36849 6.3757,-3.94043 14.3672,-4.02107 18.45,-0.18618 6.6112,6.20983 7.5893,22.71447 1.9417,32.76317 -5.4472,9.69184 -14.3899,12.3411 -24.5995,7.2875 z m -228.7809,-42.32674 c 0,-1.71875 0.2837,-2.42188 0.6305,-1.5625 0.3467,0.85937 0.3467,2.26562 0,3.125 -0.3468,0.85937 -0.6305,0.15625 -0.6305,-1.5625 z m -3.7837,-4.89883 c -1.2567,-0.77668 -1.1446,-1.18696 0.4963,-1.81662 1.5434,-0.59226 1.9681,-1.84516 1.5624,-4.60915 -0.4704,-3.20492 -0.2918,-3.53052 1.1471,-2.09165 1.4206,1.4206 1.4307,2.35444 0.061,5.61242 -1.1337,2.69628 -2.1467,3.59714 -3.2666,2.905 z m -55.1637,-65.10117 c 2.5667,-1.65871 537.4333,-1.65871 540,0 1.2137,0.78432 -94.0201,1.21172 -270,1.21172 -175.9799,0 -271.2137,-0.4274 -270,-1.21172 z m 120.3125,-45.93745 c 82.3281,-0.17747 217.0469,-0.17747 299.375,0 82.3281,0.17746 14.9688,0.32267 -149.6875,0.32267 -164.6562,0 -232.0156,-0.14521 -149.6875,-0.32267 z"
         id="path3556"
         inkscape:connector-curvature="0" />
    </g>
  </g>
</svg>
