<?xml version="1.0" encoding="UTF-8" standalone="no"?>
<!-- Created with Inkscape (http://www.inkscape.org/) -->

<svg
   xmlns:dc="http://purl.org/dc/elements/1.1/"
   xmlns:cc="http://creativecommons.org/ns#"
   xmlns:rdf="http://www.w3.org/1999/02/22-rdf-syntax-ns#"
   xmlns:svg="http://www.w3.org/2000/svg"
   xmlns="http://www.w3.org/2000/svg"
   xmlns:sodipodi="http://sodipodi.sourceforge.net/DTD/sodipodi-0.dtd"
   xmlns:inkscape="http://www.inkscape.org/namespaces/inkscape"
   width="176.45316mm"
   height="246.30457mm"
   viewBox="0 0 625.22772 872.73271"
   id="svg2"
   version="1.1"
   inkscape:version="0.91 r13725"
   sodipodi:docname="4.svg">
  <defs
     id="defs4" />
  <sodipodi:namedview
     id="base"
     pagecolor="#ffffff"
     bordercolor="#666666"
     borderopacity="1.0"
     inkscape:pageopacity="0.0"
     inkscape:pageshadow="2"
     inkscape:zoom="0.35"
     inkscape:cx="552.83108"
     inkscape:cy="264.44981"
     inkscape:document-units="px"
     inkscape:current-layer="layer1"
     showgrid="false"
     fit-margin-top="0"
     fit-margin-left="0"
     fit-margin-right="0"
     fit-margin-bottom="0"
     inkscape:window-width="784"
     inkscape:window-height="822"
     inkscape:window-x="800"
     inkscape:window-y="0"
     inkscape:window-maximized="0" />
  <metadata
     id="metadata7">
    <rdf:RDF>
      <cc:Work
         rdf:about="">
        <dc:format>image/svg+xml</dc:format>
        <dc:type
           rdf:resource="http://purl.org/dc/dcmitype/StillImage" />
        <dc:title></dc:title>
      </cc:Work>
    </rdf:RDF>
  </metadata>
  <g
     inkscape:label="Calque 1"
     inkscape:groupmode="layer"
     id="layer1"
     transform="translate(519.25967,75.920553)">
    <g
       style="display:inline"
       id="g3536"
       transform="translate(-1138.0743,-680.49312)">
      <path
         style="fill:#fdfdfd"
         d="m 618.92859,1040.9336 0,-436.25001 312.5,0 312.50001,0 0,436.25001 0,436.25 -312.50001,0 -312.5,0 0,-436.25 z"
         id="path3552"
         inkscape:connector-curvature="0" />
      <path
         style="fill:#e6e6e6"
         d="m 625.05382,1475.6253 c -1.89593,-0.7539 -3.84873,-2.9486 -4.6875,-5.2682 -2.06679,-5.7156 -2.07005,-853.12236 -0.003,-858.83784 0.96852,-2.67839 2.72286,-4.43273 5.40125,-5.40125 5.69847,-2.06059 605.63023,-2.06059 611.32863,0 2.6784,0.96852 4.4328,2.72286 5.4013,5.40125 2.0638,5.70731 2.0638,853.12134 0,858.82864 -0.9685,2.6784 -2.7229,4.4328 -5.4013,5.4013 -5.3415,1.9315 -607.17664,1.8097 -612.03907,-0.1239 z m 611.47088,-5.8456 3.6539,-3.6538 0,-425.1923 0,-425.19232 -3.6539,-3.65384 -3.6538,-3.65385 -301.44231,0 -301.44231,0 -3.65384,3.65385 -3.65385,3.65384 0,425.19232 0,425.1923 3.65385,3.6538 3.65384,3.6539 301.44231,0 301.44231,0 3.6538,-3.6539 z m -576.96832,-34.5606 c -2.06097,-1.0773 -4.79043,-2.9027 -6.06548,-4.0566 -6.1617,-5.5763 -5.81231,17.881 -5.81231,-390.2289 0,-336.43553 0.22078,-381.80111 1.87369,-384.99747 1.03052,-1.99282 3.93986,-5.19926 6.46519,-7.12542 l 4.59151,-3.50212 270.81961,0 270.81961,0 4.5915,3.50212 c 2.5253,1.92616 5.4347,5.1326 6.4652,7.12542 1.6529,3.19636 1.8737,48.56194 1.8737,384.99747 0,336.4355 -0.2208,381.8011 -1.8737,384.9975 -1.0305,1.9928 -3.9398,5.1992 -6.4651,7.1254 l -4.5914,3.5021 -269.47243,0.3095 c -242.60164,0.2787 -269.84604,0.1142 -273.21959,-1.649 z m 543.12222,-11.7855 c 2.489,-2.489 2.5,-4.1667 2.5,-382.5 0,-378.33334 -0.011,-380.01098 -2.5,-382.50001 -2.4845,-2.4845 -4.1667,-2.5 -271.25001,-2.5 -267.08333,0 -268.7655,0.0155 -271.25,2.5 -2.48904,2.48903 -2.5,4.16667 -2.5,382.50001 0,378.3333 0.011,380.011 2.5,382.5 2.4845,2.4845 4.16667,2.5 271.25,2.5 267.08331,0 268.76551,-0.015 271.25001,-2.5 z m -405.62501,-25.78 c -18.77604,-4.7534 -24.16989,-14.5734 -17.50614,-31.8716 0.52833,-1.3714 -0.83834,-1.6386 -6.69175,-1.308 -6.74498,0.381 -7.7259,0.09 -11.81507,-3.5 -5.42464,-4.7629 -7.57798,-10.7454 -7.43828,-20.6654 0.2713,-19.2642 13.38916,-33.2625 27.5877,-29.4392 5.54814,1.4939 15.93365,8.0652 16.9556,10.7284 0.38746,1.0097 1.23929,1.8358 1.89295,1.8358 2.7989,0 -3.00054,-14.4203 -7.47649,-18.5902 -1.55019,-1.4443 -2.42293,-3.5709 -2.17415,-5.2979 0.52868,-3.6698 7.36547,-5.3524 17.66076,-4.3462 12.15973,1.1883 15.15187,4.5219 9.09614,10.1342 -2.94401,2.7284 -6.96627,13.4567 -6.96627,18.5807 0,2.1865 0.63119,1.922 4.6875,-1.9642 7.10081,-6.8031 12.10021,-8.885 19.80179,-8.2464 8.4896,0.704 14.29797,5.0487 18.42736,13.7837 4.53416,9.5912 5.15096,14.604 2.79439,22.7103 -3.59943,12.3816 -12.59824,19.4022 -22.4905,17.5464 l -4.43516,-0.832 1.38513,3.9734 c 1.71473,4.9189 0.80908,12.3911 -2.0263,16.7184 -4.30325,6.5676 -22.24563,12.3342 -31.26921,10.0498 z m 246.87501,-1.062 c -8.4396,-2.7379 -11.0763,-4.4569 -13.9379,-9.087 -2.1173,-3.4259 -2.4802,-5.5378 -1.9467,-11.3285 0.3606,-3.9146 1.0183,-8.2425 1.4615,-9.6175 0.7531,-2.3367 0.3255,-2.473 -6.5456,-2.0873 -6.409,0.3598 -7.842,-10e-5 -11.1787,-2.8079 -14.0309,-11.8061 -9.1048,-42.143 8.0773,-49.7435 8.6558,-3.8288 16.7835,-1.5542 26.8085,7.5028 l 5.0891,4.5977 -0.9413,-4.3559 c -1.2468,-5.7697 -4.7464,-12.5417 -8.0032,-15.4871 -6.015,-5.4399 -0.5426,-9.5952 12.367,-9.3908 13.9663,0.2212 20.0528,5.3653 12.7428,10.7698 -3.4136,2.5238 -4.6655,5.538 -7.1253,17.1556 l -0.7735,3.6535 5.216,-4.7124 c 12.0688,-10.9035 25.3535,-11.1417 34.2124,-0.6135 8.1387,9.6723 9.9819,24.6492 4.3886,35.6595 -3.8373,7.5537 -11.7079,12.2656 -18.7186,11.2063 l -4.4326,-0.6698 0.4796,7.7865 c 0.4047,6.5704 0.023,8.4698 -2.4442,12.1615 -5.9015,8.8306 -22.6313,13.3541 -34.7952,9.408 z m 95.8333,-16.4913 c -0.4583,-0.4584 -0.8333,-3.5719 -0.8333,-6.919 0,-3.3724 -0.8576,-7.3944 -1.9235,-9.0212 -1.7485,-2.6686 -1.72,-3.3478 0.3125,-7.4684 2.8422,-5.7618 7.3754,-7.2555 10.4598,-3.4465 1.6465,2.0333 3.5531,2.6884 7.8248,2.6884 4.9232,0 9.5764,2.2091 9.5764,4.5465 0,2.0178 -3.6593,6.9762 -9.7905,13.266 -5.5679,5.7119 -7.8055,7.1875 -10.8995,7.1875 -2.1414,0 -4.2683,-0.375 -4.7267,-0.8333 z m 2.0228,-43.4467 c -3.7735,-1.702 -4.5922,-3.163 -5.6265,-10.0402 -0.2136,-1.4204 -1.6746,-2.7452 -3.4862,-3.161 -1.8928,-0.4345 -3.9946,-2.4211 -5.3478,-5.0548 -5.3135,-10.3414 3.5534,-23.7379 13.2673,-20.0446 3.2115,1.221 3.3338,1.1277 2.5607,-1.9528 -0.5353,-2.1327 -0.222,-3.6086 0.9197,-4.3316 2.601,-1.6473 9.0786,-1.3545 11.651,0.5265 1.8559,1.3569 2.0142,2.1436 0.864,4.2928 -2.0222,3.7784 -1.7927,4.13 1.8034,2.7627 9.3971,-3.5728 17.8728,7.2969 14.2498,18.2746 -1.059,3.2088 -2.6536,4.9885 -5.5565,6.2014 -2.9361,1.2268 -4.2802,2.7457 -4.8206,5.4473 -1.387,6.9354 -12.3758,10.7343 -20.4783,7.0797 z M 707.13424,789.27213 c -1.85581,-1.35699 -2.01412,-2.14364 -0.86392,-4.29281 2.02216,-3.77844 1.79267,-4.13001 -1.80348,-2.76274 -13.42894,5.10566 -21.80205,-18.9988 -8.52639,-24.54573 2.54666,-1.06406 4.23814,-2.65089 4.23814,-3.9759 0,-6.05836 8.86846,-11.22087 16.73931,-9.74429 6.0123,1.12792 8.49187,3.48404 9.37329,8.90664 0.62233,3.82866 1.44009,4.99429 3.89992,5.5589 1.88654,0.43303 3.9906,2.42345 5.3419,5.0534 5.31352,10.34139 -3.55344,23.73784 -13.26732,20.04463 -3.21148,-1.221 -3.3338,-1.12773 -2.56066,1.95272 0.53529,2.13277 0.22192,3.60864 -0.91976,4.33167 -2.60098,1.64722 -9.07861,1.35451 -11.65103,-0.52649 z m 88.56024,-4.51702 c -7.90322,-1.88938 -8.85527,-4.72483 -3.18772,-9.49376 3.32232,-2.79553 4.72723,-6.26652 7.06419,-17.45276 l 0.78343,-3.75 -4.77539,4.54978 c -6.46994,6.16423 -11.67849,8.57522 -18.5254,8.57522 -6.94088,0 -11.4939,-2.18725 -16.55713,-7.95394 -10.44353,-11.89452 -9.35165,-32.77421 2.22323,-42.51382 3.91831,-3.29705 6.0945,-3.85892 13.14756,-3.39459 l 3.81365,0.25107 -0.44401,-7.88186 c -0.35708,-6.33843 0.0652,-8.69387 2.15666,-12.02854 3.00098,-4.78494 13.7105,-10.24523 21.90634,-11.16902 7.5422,-0.85011 18.62921,2.72048 24.14889,7.7772 4.37934,4.01203 4.60441,4.6059 4.59676,12.12855 -0.005,4.35047 -0.45355,9.32242 -0.99805,11.04877 -0.97086,3.07819 -0.87915,3.13001 4.74777,2.68248 10.92578,-0.86896 16.23013,3.49717 19.999,16.46162 1.78778,6.14973 1.87324,8.19633 0.57304,13.72238 -3.60911,15.33921 -12.52055,24.68171 -23.45759,24.59225 -5.03831,-0.0413 -14.00225,-4.53051 -19.42512,-9.72844 l -4.81899,-4.61911 0.90704,4.375 c 1.19231,5.75094 3.91884,11.10206 7.73911,15.18891 3.94792,4.22339 3.34475,7.67426 -1.52342,8.71607 -5.06901,1.08477 -15.38643,1.04192 -20.09385,-0.0835 z m 251.25002,0 c -2.1225,-0.50742 -4.5132,-1.32678 -5.3125,-1.82082 -2.1031,-1.29976 -1.7849,-5.70198 0.4748,-6.5691 2.7966,-1.07315 6.4432,-8.9027 7.4919,-16.08594 l 0.9082,-6.22066 -4.7447,4.83715 c -2.6095,2.66044 -6.6028,5.61356 -8.874,6.5625 -6.0625,2.53307 -15.3297,2.17629 -20.173,-0.77666 -5.3383,-3.25484 -11.0555,-12.39949 -12.8973,-20.62934 -3.6435,-16.28097 9.1825,-33.7418 22.7867,-31.02095 l 3.634,0.72679 -0.8012,-6.81665 c -1.312,-11.16317 4.7019,-19.11751 17.2773,-22.85202 8.139,-2.41702 10.9434,-2.39166 20.1154,0.18189 15.0502,4.22286 20.3089,15.56198 14.1043,30.41229 -0.6491,1.5535 0.5948,1.875 7.2547,1.875 6.8513,0 8.5304,0.46138 11.3729,3.125 1.8342,1.71875 4.194,5.09375 5.244,7.5 2.2856,5.23787 2.5527,20.28091 0.4549,25.625 -4.7044,11.98447 -14.5127,19.05663 -24.3777,17.57727 -5.7274,-0.85887 -16.1597,-6.96335 -18.6127,-10.89121 -4.1701,-6.67747 -2.975,2.40619 1.455,11.0594 1.477,2.88502 3.5841,5.74835 4.6824,6.36298 3.4072,1.90677 1.7329,7.00059 -2.6043,7.92312 -5.078,1.08011 -14.1566,1.03918 -18.8591,-0.085 z m -332.056,-56.32152 c -1.17034,-1.87401 -2.91503,-2.5 -6.96777,-2.5 -12.75192,0 -13.27162,-4.60508 -1.85434,-16.43133 7.63069,-7.90402 8.78719,-8.65464 12.8125,-8.31596 l 4.4247,0.37229 0.37178,7.08364 c 0.22426,4.27294 1.09224,7.68157 2.1875,8.59056 2.34905,1.94954 2.321,5.47534 -0.0593,7.4508 -1.03125,0.85586 -1.875,2.2708 -1.875,3.14432 0,3.62335 -6.86815,4.08352 -9.04009,0.60568 z"
         id="path3550"
         inkscape:connector-curvature="0" />
      <path
         style="fill:#d6d6d6"
         d="m 625.31618,1475.4392 c -6.71212,-3.7202 -6.29564,24.7837 -6.3433,-434.1343 -0.0341,-328.08824 0.3003,-427.25997 1.44907,-429.78124 3.33324,-7.31567 -18.2831,-6.84007 310.88575,-6.84007 231.8704,0 303.2686,0.34869 305.7808,1.49336 7.3554,3.35134 6.8401,-29.40324 6.8401,434.75665 0,464.1599 0.5153,431.4053 -6.8401,434.7566 -5.0745,2.3122 -607.59391,2.0649 -611.77232,-0.251 z m 604.86242,-0.7556 c 0,-0.6875 0.9481,-1.25 2.1069,-1.25 2.8688,0 7.8931,-4.9128 7.8931,-7.7179 0,-1.2552 0.5625,-2.2821 1.25,-2.2821 0.8309,0 1.25,-141.6667 1.25,-422.5 0,-280.83335 -0.4191,-422.50001 -1.25,-422.50001 -0.6875,0 -1.25,-1.08417 -1.25,-2.40927 0,-2.58071 -5.4739,-7.59073 -8.2936,-7.59073 -0.9385,0 -1.7064,-0.5625 -1.7064,-1.25 0,-0.82985 -100.4167,-1.25 -298.75001,-1.25 -198.33333,0 -298.75,0.42015 -298.75,1.25 0,0.6875 -0.76789,1.25 -1.70643,1.25 -2.81966,0 -8.29357,5.01002 -8.29357,7.59073 0,1.3251 -0.5625,2.40927 -1.25,2.40927 -0.83087,0 -1.25,141.66666 -1.25,422.50001 0,280.8333 0.41913,422.5 1.25,422.5 0.6875,0 1.25,0.9481 1.25,2.1069 0,2.8688 4.91276,7.8931 7.71789,7.8931 1.25516,0 2.28211,0.5625 2.28211,1.25 0,0.8298 100.41667,1.25 298.75,1.25 198.33331,0 298.75001,-0.4202 298.75001,-1.25 z m -572.62475,-41.4171 c -2.47486,-1.4353 -5.42798,-4.1811 -6.5625,-6.1017 -1.90492,-3.2247 -2.06276,-32.7789 -2.06276,-386.2312 0,-354.35789 0.15386,-382.99975 2.07491,-386.25182 1.1412,-1.93191 4.17091,-4.69057 6.73269,-6.13037 l 4.65779,-2.61782 269.03461,0 269.03461,0 4.6578,2.61782 c 2.5618,1.4398 5.5915,4.19846 6.7327,6.13037 1.921,3.25207 2.0749,31.89393 2.0749,386.25182 0,354.3579 -0.1539,382.9997 -2.0749,386.2518 -1.1412,1.9319 -4.1709,4.6906 -6.7327,6.1304 l -4.6578,2.6178 -269.2048,-0.029 -269.20481,-0.029 -4.49974,-2.6097 z m 545.55765,-8.4235 c 1.9145,-1.5889 2.0671,-29.8748 2.0671,-383.1986 0,-327.49386 -0.2511,-381.82638 -1.7742,-383.9094 -1.7469,-2.38893 -5.9485,-2.42641 -271.97581,-2.42641 -266.1326,0 -270.22828,0.0366 -271.97778,2.42917 -1.52746,2.08892 -1.7322,55.92165 -1.46174,384.33814 l 0.31452,381.9089 3.125,1.5857 c 4.81855,2.445 538.72441,1.728 541.68291,-0.7275 z m -411.47186,-29.5161 c -12.31035,-3.8415 -16.84725,-14.2023 -12.05,-27.5183 0.99071,-2.75 1.80977,-5.1267 1.82012,-5.2816 0.01,-0.1548 -1.42403,0.267 -3.18755,0.9375 -8.01401,3.047 -16.17231,-0.07 -20.65139,-7.8887 -2.49927,-4.363 -3.01723,-6.9839 -3.01723,-15.2672 0,-8.7355 0.46624,-10.8417 3.68709,-16.6561 4.23477,-7.6447 11.56132,-12.7189 18.3648,-12.7189 5.95922,0 16.55905,5.5439 21.07507,11.0226 l 3.74804,4.547 -0.0125,-3.7223 c -0.0151,-4.6284 -4.98076,-15.4194 -8.56063,-18.6035 -6.32918,-5.6296 -1.42416,-8.6566 13.04998,-8.0536 7.83036,0.3263 10.97755,0.9779 12.61009,2.6108 2.06736,2.0678 1.98372,2.3785 -1.6826,6.25 -4.02927,4.2548 -5.90857,8.9922 -7.31857,18.449 l -0.83867,5.625 5.15724,-5.2964 c 9.27274,-9.5229 17.67013,-12.0713 26.66547,-8.0923 6.14156,2.7167 10.71075,8.0636 13.86639,16.2265 4.23359,10.9512 1.43236,23.4286 -6.96256,31.0129 -4.90069,4.4275 -5.33712,4.5659 -12.38139,3.9272 -6.79726,-0.6164 -7.2167,-0.5034 -6.07209,1.6353 2.07183,3.8712 1.4328,13.9882 -1.1512,18.2257 -3.60195,5.907 -13.84784,10.5056 -23.17717,10.4025 -4.16189,-0.046 -10.00335,-0.8439 -12.98103,-1.7731 z m 252.28086,0.6888 c -15.11,-4.5963 -18.6158,-12.8627 -13.0939,-30.8747 0.7808,-2.5469 0.5972,-2.6088 -4.0531,-1.3676 -2.679,0.7151 -6.3405,0.9313 -8.1366,0.4805 -11.6553,-2.9253 -17.7173,-19.2501 -12.7048,-34.2141 7.0948,-21.1804 26.3013,-25.3458 41.1392,-8.922 2.5034,2.771 4.8261,4.7636 5.1616,4.4281 1.7835,-1.7834 -5.0925,-18.9281 -8.8379,-22.0365 -2.5342,-2.1031 -2.5282,-5.8428 0.011,-6.8171 3.2912,-1.2629 18.636,-0.8507 22.8362,0.6136 4.735,1.6506 5.0269,4.2853 0.8396,7.579 -3.3099,2.6033 -6.9034,12.5829 -6.9034,19.1708 l 0,3.9183 6.1749,-5.9518 c 10.1875,-9.8195 20.8441,-10.9771 29.6749,-3.2235 10.1418,8.9046 13.1914,24.2122 7.3312,36.7993 -4.1397,8.8915 -9.0808,11.9482 -17.9717,11.1176 -5.6126,-0.5243 -6.5502,-0.3218 -5.9348,1.2819 6.1522,16.0324 -5.5095,29.3839 -25.3985,29.0787 -3.8506,-0.059 -8.4109,-0.5364 -10.1341,-1.0605 z m 96.3021,-17.4999 c -0.7117,-1.3298 -1.294,-4.7125 -1.294,-7.517 0,-2.8045 -0.6727,-6.1763 -1.4949,-7.4929 -1.2147,-1.945 -1.0443,-3.2306 0.9092,-6.858 2.7302,-5.0697 7.1576,-6.0341 9.3025,-2.0264 1.0176,1.9015 2.8839,2.5204 8.4815,2.8125 6.444,0.3364 7.219,0.6733 7.591,3.3008 0.3157,2.2293 -1.6423,4.9829 -8.222,11.5625 -9.0003,9.0003 -12.9286,10.5997 -15.2733,6.2185 z m 1.6002,-42.5909 c -3.598,-1.4497 -5.7917,-5.7373 -4.8517,-9.4827 0.615,-2.4504 0.2764,-3.0086 -1.8255,-3.0086 -4.3244,0 -8.7176,-5.4867 -8.7123,-10.8807 0.01,-9.8307 7.3648,-16.1321 15.3234,-13.1281 3.215,1.2135 3.5361,1.1269 2.7657,-0.7466 -2.0109,-4.8906 -1.3508,-5.8601 4.2635,-6.2623 6.8282,-0.489 8.7011,1.0794 6.4072,5.3656 -1.8511,3.4589 -0.8403,5.7279 1.5063,3.3813 2.7048,-2.7048 8.4617,-1.689 12.3253,2.1746 4.9306,4.9306 5.2101,13.6536 0.5857,18.278 -1.6875,1.6875 -4.2187,3.0682 -5.625,3.0682 -1.9935,0 -2.5568,0.8062 -2.5568,3.6593 0,7.0784 -10.6416,11.1937 -19.6058,7.582 z M 707.0194,788.37826 c -0.48713,-0.78818 -0.16224,-2.78482 0.72197,-4.43698 1.7898,-3.34427 0.71685,-5.53733 -1.58361,-3.23685 -2.70476,2.70475 -8.46164,1.689 -12.32532,-2.17469 -4.93055,-4.93054 -5.21005,-13.65359 -0.58567,-18.27796 1.6875,-1.6875 4.21875,-3.06819 5.625,-3.06819 1.99349,0 2.55682,-0.80623 2.55682,-3.65928 0,-5.92506 5.26752,-9.21833 13.64516,-8.53102 8.10875,0.66524 12.00773,4.23834 10.86418,9.95609 -0.57851,2.89256 -0.26798,3.48421 1.82873,3.48421 4.27528,0 8.66254,5.51404 8.65726,10.88069 -0.01,9.83071 -7.36485,16.13212 -15.32344,13.12808 -3.21499,-1.21352 -3.53605,-1.12685 -2.7657,0.74667 2.03824,4.95702 1.3727,5.85961 -4.60545,6.24592 -3.42277,0.22118 -6.18944,-0.21452 -6.70993,-1.05669 z m 85.97169,-4.98362 c -3.68758,-1.48223 -3.57073,-4.62984 0.28447,-7.66233 3.32009,-2.61158 6.90303,-12.58856 6.90303,-19.22202 l 0,-3.96956 -5.9375,5.93111 c -10.97315,10.96134 -21.87815,11.4482 -31.5861,1.41016 -9.48345,-9.8059 -11.5154,-23.33896 -5.2889,-35.22483 4.43295,-8.46212 9.80928,-11.64555 18.13431,-10.73768 l 5.94682,0.64852 -0.94682,-3.37971 c -1.72192,-6.14655 -1.00505,-13.7384 1.64236,-17.39291 1.38925,-1.91774 5.59377,-5.04548 9.34338,-6.95053 5.85701,-2.97577 8.05014,-3.41221 15.56745,-3.09803 12.42585,0.51935 20.09599,4.42305 23.40975,11.91434 2.48575,5.61946 2.30357,9.57901 -0.91149,19.81095 -0.80596,2.565 -0.63052,2.6163 4.74255,1.38677 4.67675,-1.07019 6.36255,-0.89441 10.41934,1.08647 13.08471,6.38908 15.31635,30.77834 3.996,43.67152 -10.00575,11.3959 -22.34209,10.80802 -35.22066,-1.67843 l -6.06453,-5.87986 0.88794,4.375 c 1.31319,6.47032 5.51158,15.76794 8.23169,18.2296 2.89659,2.62137 3.09886,6.22876 0.40717,7.26166 -2.99415,1.14896 -20.76081,0.7558 -23.96026,-0.53021 z m 251.37791,0.0472 c -4.4634,-1.80086 -4.6687,-3.75476 -0.7927,-7.5442 3.7902,-3.70565 5.8199,-8.99606 7.1799,-18.71416 l 0.7872,-5.625 -4.0738,4.86842 c -4.432,5.29652 -14.6093,10.72493 -20.1437,10.74437 -12.013,0.0422 -23.3973,-14.24393 -23.3973,-29.36126 0,-7.01512 5.6705,-17.94224 11.25,-21.67879 3.5645,-2.3871 5.4569,-2.80566 10.2149,-2.25925 l 5.8399,0.67067 -0.6908,-6.6934 c -0.906,-8.77835 0.029,-12.03105 4.798,-16.69375 7.983,-7.80491 22.5495,-9.84429 34.7919,-4.87105 11.4858,4.6659 15.5906,14.94288 10.6711,26.7169 -1.0313,2.46813 -1.875,4.64027 -1.875,4.82698 0,0.18671 2.3235,-0.18259 5.1634,-0.82066 13.8118,-3.1033 23.5819,8.77905 21.9707,26.72052 -1.3471,15.00091 -10.6014,25.95536 -21.927,25.95536 -7.4132,0 -15.3558,-3.94098 -20.8288,-10.33489 -4.1414,-4.83831 -4.3783,-4.94587 -4.3783,-1.98779 0,5.44946 3.7301,14.33588 7.5561,18.00147 4.3025,4.12207 4.6374,6.22832 1.2761,8.02723 -2.8922,1.54784 -19.5926,1.58522 -23.3918,0.0524 z M 715.2118,727.24565 c -1.01765,-1.9015 -2.88392,-2.52036 -8.48148,-2.8125 -6.63968,-0.34653 -7.20444,-0.61227 -7.54708,-3.55113 -0.29395,-2.5213 1.42149,-4.90645 8.31596,-11.5625 4.77747,-4.61226 9.54458,-8.38593 10.59357,-8.38593 3.53554,0 5.83582,3.73718 5.83582,9.48125 0,3.05397 0.67272,6.62986 1.49492,7.94642 1.2147,1.94504 1.04425,3.2306 -0.90925,6.85804 -2.73018,5.06964 -7.15759,6.03407 -9.30246,2.02635 z"
         id="path3548"
         inkscape:connector-curvature="0" />
      <path
         style="fill:#a6a6a6"
         d="m 626.1318,1475.2269 c -7.80201,-4.2334 -7.20321,31.869 -7.20321,-434.2933 0,-377.55169 0.21218,-425.53448 1.89616,-428.79093 4.16641,-8.05695 -20.72942,-7.45908 310.60384,-7.45908 331.33331,0 306.43741,-0.59787 310.60381,7.45908 1.684,3.25645 1.8962,51.23924 1.8962,428.79093 0,377.5517 -0.2122,425.5345 -1.8962,428.7909 -4.1672,8.0585 20.7715,7.4641 -310.85423,7.409 -264.35142,-0.044 -302.04743,-0.2794 -305.04637,-1.9066 z m 608.4488,-1.2649 c 8.8441,-4.1968 8.098,35.6975 8.098,-433.0284 0,-382.39073 -0.1882,-423.14382 -1.9716,-426.90201 -4.1703,-8.78829 22.1934,-8.098 -309.27841,-8.098 -331.47178,0 -305.10809,-0.69029 -309.27841,8.098 -1.78338,3.75819 -1.97159,44.51128 -1.97159,426.90201 0,381.6755 0.19078,423.1492 1.96373,426.8854 4.15068,8.7469 -22.31391,8.0546 309.09736,8.0861 269.90612,0.026 299.59272,-0.1645 303.34092,-1.9431 z m -575.63624,-40.8721 c -3.17139,-1.677 -6.32885,-4.6176 -7.6966,-7.168 -2.24435,-4.1848 -2.31917,-16.6052 -2.31917,-384.9883 0,-368.38313 0.0748,-380.80352 2.31917,-384.98836 1.36775,-2.55032 4.52521,-5.49092 7.6966,-7.16799 l 5.37744,-2.84366 267.10679,0 267.10681,0 5.3774,2.84366 c 3.1714,1.67707 6.3289,4.61767 7.6966,7.16799 2.2444,4.18484 2.3192,16.60523 2.3192,384.98836 0,368.3831 -0.075,380.8035 -2.3192,384.9883 -1.3677,2.5504 -4.5252,5.491 -7.6966,7.168 l -5.3774,2.8437 -267.10681,0 -267.10679,0 -5.37744,-2.8437 z m 544.98424,-8.4063 c 2.4891,-2.4891 2.5,-4.1667 2.5,-383.5143 l 0,-381.01431 -2.5487,-2.7357 -2.5487,-2.7357 -269.90261,0 -269.90261,0 -2.5487,2.7357 -2.54869,2.7357 0,381.01431 c 0,379.3476 0.0109,381.0252 2.5,383.5143 2.48457,2.4846 4.16667,2.5 272.5,2.5 268.33331,0 270.01541,-0.015 272.50001,-2.5 z m -407.3082,-28.829 c -6.70125,-1.3343 -12.28516,-4.5125 -15.49491,-8.819 -3.01071,-4.0395 -3.1983,-13.7856 -0.39451,-20.496 2.47496,-5.9234 2.52182,-5.7624 -1.25877,-4.3251 -1.7635,0.6705 -5.16643,1.2191 -7.56207,1.2191 -10.89159,0 -16.65681,-8.0045 -16.7041,-23.1921 -0.0878,-28.185 25.06354,-37.8524 42.95636,-16.5111 4.25632,5.0766 4.46841,5.1766 4.49173,2.1176 0.0448,-5.8708 -3.78313,-16.143 -7.66164,-20.5604 -2.10584,-2.3984 -3.53755,-5.1197 -3.18159,-6.0473 1.37991,-3.596 22.51398,-3.4104 26.15406,0.2297 0.94705,0.947 0.22213,2.6031 -2.49329,5.6958 -4.15493,4.7322 -7.06898,14.7564 -6.34603,21.8302 l 0.42795,4.1874 3.90409,-5.5617 c 6.54232,-9.3201 19.3202,-13.5525 27.72049,-9.1819 4.91982,2.5598 8.51836,6.8362 11.58359,13.7657 3.76629,8.5143 3.53578,16.5407 -0.72516,25.2497 -2.82911,5.7825 -4.38827,7.4353 -8.89459,9.4286 -4.50366,1.9922 -6.28806,2.1883 -10.15128,1.1154 -2.57793,-0.7159 -5.0319,-1.3048 -5.45329,-1.3086 -0.42139,0 0.0646,2.5164 1.0799,5.6005 3.35714,10.1974 -0.18518,18.3086 -10.00611,22.9121 -6.56161,3.0756 -14.84463,4.0743 -21.99083,2.6514 z m 249.8082,-0.3696 c -8.9346,-2.0059 -12.0975,-3.8314 -15.0622,-8.6937 -2.8611,-4.6923 -3.0624,-11.9445 -0.5268,-18.9827 2.3645,-6.563 2.2985,-7.2089 -0.5788,-5.669 -1.3298,0.7117 -4.9429,1.294 -8.0291,1.294 -19.0208,0 -23.44309,-32.393 -6.4583,-47.3059 8.7175,-7.654 21.4226,-4.9313 31.753,6.8046 l 5.1522,5.8533 0,-4.3283 c 0,-6.2861 -3.2536,-14.7703 -7.5281,-19.6306 -2.0471,-2.3275 -3.7219,-4.7074 -3.7219,-5.2887 0,-2.543 14.0168,-3.739 22.8125,-1.9464 5.4805,1.1169 5.9471,3.2187 1.6653,7.5005 -3.3897,3.3897 -5.3841,9.4172 -6.4826,19.5915 l -0.7423,6.875 5.2575,-5.9804 c 11.458,-13.0336 23.9045,-14.432 33.9858,-3.8187 7.9124,8.33 9.9139,23.1505 4.5663,33.8124 -4.7375,9.4456 -11.686,12.6623 -21.5331,9.9684 -3.1578,-0.8639 -3.4791,-0.7096 -2.6387,1.2673 0.5263,1.238 1.2193,5.3716 1.54,9.1858 0.5235,6.2244 0.2218,7.3642 -2.945,11.1277 -6.4946,7.7185 -18.5853,11.0356 -30.4857,8.3639 z m 94.5833,-16.6347 c -0.4583,-0.4584 -0.8333,-3.5598 -0.8333,-6.892 0,-3.3322 -0.6462,-7.0934 -1.436,-8.3581 -1.1036,-1.7671 -1.035,-3.2055 0.2962,-6.213 2.2354,-5.05 4.9383,-6.0415 7.5792,-2.7801 1.3458,1.6619 3.5682,2.5826 6.261,2.5936 12.3632,0.05 12.8725,3.8845 1.9535,14.7065 -7.1796,7.1157 -11.485,9.2787 -13.8206,6.9431 z m 10.1302,-12.6823 c 0.2722,-0.8164 -0.3958,-1.4844 -1.4843,-1.4844 -1.0886,0 -1.9792,0.8906 -1.9792,1.9792 0,2.2074 2.6909,1.8229 3.4635,-0.4948 z m -8.4635,-31.1121 c -3.8263,-1.9655 -4.4232,-2.9136 -4.7594,-7.5598 -0.3321,-4.5897 -0.7734,-5.3125 -3.2437,-5.3125 -6.9118,0 -9.9666,-11.6602 -4.8563,-18.5361 3.0002,-4.0368 9.1928,-5.0158 13.5729,-2.1459 2.7014,1.7701 3.0365,1.7777 3.0365,0.069 0,-1.0564 -0.7031,-3.0553 -1.5625,-4.442 -1.2879,-2.078 -1.233,-2.7308 0.3125,-3.7139 2.3707,-1.508 6.3395,-1.5315 8.6789,-0.051 1.4711,0.9307 1.5288,1.7453 0.3125,4.4146 -0.8203,1.8004 -1.4914,4.1226 -1.4914,5.1604 0,1.6651 0.3268,1.6582 2.7781,-0.059 1.528,-1.0703 4.5809,-1.9459 6.7843,-1.9459 4.569,0 8.5019,4.0322 9.8298,10.0783 1.1316,5.152 -2.7486,11.663 -7.2658,12.1922 -2.611,0.3059 -3.3764,1.0693 -3.3764,3.3678 0,7.9068 -10.5662,12.6878 -18.75,8.484 z M 708.99966,788.50396 c -1.47108,-0.93075 -1.52874,-1.74531 -0.3125,-4.41467 0.82029,-1.80034 1.49143,-4.12251 1.49143,-5.1604 0,-1.6651 -0.32676,-1.65819 -2.77813,0.0589 -1.52798,1.07023 -4.5809,1.94588 -6.78428,1.94588 -4.56903,0 -8.50185,-4.03225 -9.82979,-10.07829 -1.13158,-5.15205 2.74859,-11.66306 7.26582,-12.19224 2.61098,-0.30591 3.37638,-1.06937 3.37638,-3.36785 0,-1.63474 1.35755,-4.55051 3.01677,-6.47947 2.45153,-2.85006 4.04273,-3.5072 8.49247,-3.5072 8.10855,0 12.24076,3.17452 12.24076,9.40381 0,4.38165 0.34762,4.97119 2.93126,4.97119 6.97804,0 10.06762,11.62089 4.9281,18.53609 -3.0002,4.03677 -9.19276,5.01582 -13.57283,2.14588 -2.70144,-1.77005 -3.03653,-1.77763 -3.03653,-0.0688 0,1.05642 0.70312,3.0553 1.5625,4.44195 1.28788,2.07806 1.23295,2.73081 -0.3125,3.7139 -2.37067,1.50802 -6.33952,1.53151 -8.67893,0.0514 z m 91.17893,-4.6289 c -7.52366,-1.24317 -8.75,-1.81521 -8.75,-4.08155 0,-1.28834 0.87244,-2.67723 1.93876,-3.08642 2.77743,-1.0658 6.4534,-10.20716 7.4739,-18.586 0.97896,-8.03784 -0.0854,-8.99511 -3.78766,-3.4068 -4.13274,6.23796 -11.15834,10.32919 -18.83021,10.9654 -5.8,0.48097 -7.55545,0.0827 -11.68687,-2.65131 -10.71505,-7.09088 -14.93288,-25.1706 -8.81862,-37.80097 3.96256,-8.18558 8.68384,-10.85693 17.86464,-10.10805 6.42973,0.52447 7.17631,0.3514 6.39931,-1.48351 -0.48378,-1.1425 -1.11874,-4.88976 -1.41101,-8.32726 -0.89503,-10.52663 5.65931,-17.7849 18.5581,-20.55119 10.94881,-2.3481 25.65574,2.17124 29.94256,9.20115 2.84115,4.65915 3.04972,12.89766 0.4821,19.04284 -2.6017,6.22675 -2.40914,6.73835 1.96264,5.21434 5.00035,-1.74313 13.17549,-0.59941 16.43592,2.29943 4.20115,3.73521 7.16917,11.68997 7.19899,19.29441 0.0497,12.68937 -5.49429,23.08823 -14.67997,27.53494 -5.11254,2.47494 -6.25531,2.6001 -11.33501,1.24149 -6.6185,-1.77017 -14.16805,-7.00772 -18.43217,-12.78741 l -3.0254,-4.1007 0,4.46069 c 0,6.24155 3.16372,14.54538 7.69362,20.19346 2.11447,2.6364 3.35778,5.24416 2.76293,5.79504 -1.33751,1.23862 -13.71159,2.4294 -17.95655,1.72798 z m 248.53261,-0.0434 c -2.5258,-0.29574 -5.2834,-1.37039 -6.128,-2.38811 -1.2558,-1.51313 -0.9184,-2.49478 1.8511,-5.38549 3.9084,-4.07956 7.0052,-13.24807 6.9698,-20.6357 l -0.024,-5.11384 -4.4938,5.3602 c -10.1571,12.11531 -24.5621,13.73554 -33.8337,3.8055 -10.784,-11.54987 -10.4912,-31.4408 0.6062,-41.18449 4.2518,-3.73317 4.85,-3.89023 12.2018,-3.20372 l 7.7307,0.72191 -1.6513,-4.6247 c -2.2152,-6.20425 -2.1522,-9.67227 0.2682,-14.7729 2.6379,-5.55895 7.257,-8.74704 15.9562,-11.01289 11.974,-3.11883 26.3527,0.79827 31.442,8.56556 2.6148,3.99064 2.6167,13.90048 0,20.15382 -2.2553,5.39759 -1.9166,6.31582 1.6295,4.41799 3.7791,-2.02251 11.2054,-1.63079 15.3354,0.80892 8.6715,5.12237 11.5412,23.40918 5.6438,35.9648 -3.4025,7.244 -5.923,9.76359 -12.5277,12.5232 -8.2279,3.43788 -18.4614,-0.48211 -26.8702,-10.29276 -4.7891,-5.58745 -5.1264,-5.76946 -5.134,-2.76981 -0.015,5.91083 3.8112,16.15625 7.6781,20.56036 4.2199,4.80619 4.0337,8.0961 -0.4594,8.11777 -1.5685,0.007 -4.8205,0.21813 -7.2267,0.46792 -2.4063,0.2498 -6.4416,0.2122 -8.9674,-0.0835 z m -332.5727,-56.6481 c -1.17034,-1.87401 -2.91503,-2.5 -6.96777,-2.5 -5.7404,0 -10.24214,-1.72099 -10.24214,-3.91552 0,-0.73016 3.77367,-5.2364 8.38593,-10.01387 6.65605,-6.89447 9.0412,-8.60991 11.5625,-8.31596 2.91538,0.3399 3.20848,0.93442 3.56472,7.23051 0.22875,4.04303 1.20661,7.76456 2.38123,9.0625 1.82557,2.01723 1.81921,2.39448 -0.0757,4.48827 -1.1378,1.25725 -2.06873,2.88457 -2.06873,3.61626 0,1.12139 -2.7078,2.84781 -4.46664,2.84781 -0.2817,0 -1.21475,-1.125 -2.07345,-2.5 z m -0.95991,-12.02806 c 0,-1.66098 -0.33937,-1.7464 -1.875,-0.47194 -1.03125,0.85586 -1.875,1.76849 -1.875,2.02806 0,0.25957 0.84375,0.47194 1.875,0.47194 1.03125,0 1.875,-0.91263 1.875,-2.02806 z"
         id="path3546"
         inkscape:connector-curvature="0" />
      <path
         style="fill:#6f6f6f"
         d="m 628.11045,1476.227 c -0.79372,-0.5051 135.69944,-0.9184 303.31814,-0.9184 167.61871,0 304.11191,0.4133 303.31811,0.9184 -0.7937,0.5051 -137.2869,0.9183 -303.31811,0.9183 -166.03125,0 -302.52441,-0.4132 -303.31814,-0.9183 z m -8.42312,-8.5206 c -1.09585,-2.8558 -0.89901,-852.11723 0.1979,-853.84095 0.5051,-0.79372 0.91836,191.44065 0.91836,427.18755 0,235.7468 -0.0804,428.6306 -0.17876,428.6306 -0.0983,0 -0.5202,-0.8898 -0.9375,-1.9772 z m 622.36627,-426.7728 c 0,-235.68121 0.4133,-427.86187 0.9184,-427.06815 1.2008,1.88698 1.2008,852.24935 0,854.13625 -0.5051,0.7938 -0.9184,-191.3869 -0.9184,-427.0681 z m -583.41484,391.1765 c -2.56565,-1.3546 -5.51878,-4.1143 -6.5625,-6.1327 -1.68473,-3.2579 -1.89767,-46.4642 -1.89767,-385.0438 0,-338.85142 0.21193,-381.78399 1.90076,-385.04982 1.04542,-2.02162 4.11676,-4.80618 6.8252,-6.18793 4.88706,-2.49319 6.95581,-2.51226 272.52404,-2.51226 265.56821,0 267.63701,0.0191 272.52401,2.51226 2.7085,1.38175 5.7798,4.16631 6.8252,6.18793 1.6889,3.26583 1.9008,46.1984 1.9008,385.04982 0,338.8514 -0.2119,381.784 -1.9008,385.0498 -1.0454,2.0216 -4.1167,4.8062 -6.8252,6.1879 -4.8881,2.4938 -6.9001,2.5119 -272.78671,2.457 -264.05375,-0.055 -267.92863,-0.09 -272.52713,-2.5182 z m 543.21814,-5.0643 c 1.6753,-0.7634 3.6705,-2.7586 4.4339,-4.4339 1.9801,-4.3459 1.9801,-759.01069 0,-763.35665 -0.7634,-1.67529 -2.7586,-3.67051 -4.4339,-4.43382 -4.3394,-1.97718 -536.51722,-1.97718 -540.85665,0 -1.67529,0.76331 -3.67051,2.75853 -4.43382,4.43382 -1.98443,4.35535 -1.97972,759.01165 0.005,763.36715 0.76593,1.681 2.59406,3.6382 4.0625,4.3492 3.90711,1.8919 537.07347,1.9649 541.22317,0.074 z m -409.21657,-33.0321 c -3.1148,-0.9602 -7.33355,-3.4906 -9.375,-5.623 -3.25383,-3.3988 -3.70213,-4.7534 -3.63378,-10.9796 0.0521,-4.7449 0.98568,-8.8494 2.8125,-12.3652 3.53803,-6.809 3.47476,-7.0593 -1.17651,-4.654 -5.06495,2.6192 -13.85785,2.7221 -17.69623,0.2071 -6.91168,-4.5288 -10.15037,-21.8753 -6.00544,-32.1654 4.3696,-10.8479 13.29812,-17.3377 21.68758,-15.7638 6.2501,1.1725 15.33615,7.4274 19.14073,13.1765 1.83671,2.7754 3.89963,4.7001 4.58426,4.277 3.08254,-1.9051 -2.87768,-21.6102 -7.91544,-26.1693 -3.58782,-3.247 -2.88947,-5.3124 2.11358,-6.251 5.58787,-1.0482 17.9087,0.1373 19.66352,1.8921 0.90718,0.9072 0.48974,2.1736 -1.36841,4.1515 -3.96551,4.2211 -6.56129,11.3744 -7.4046,20.4053 -0.86989,9.3154 0.48872,10.3275 4.7052,3.5051 3.98721,-6.4515 12.79586,-11.7234 19.5881,-11.7234 10.12084,0 16.94504,6.028 21.01647,18.5644 1.83999,5.6656 1.94889,7.6582 0.71148,13.0189 -3.07581,13.3252 -10.84826,19.8976 -20.68829,17.4942 -2.80305,-0.6846 -6.08016,-1.6608 -7.28246,-2.1693 -2.00454,-0.8478 -1.98088,-0.4725 0.28505,4.5211 5.34145,11.7714 1.77387,20.9287 -10.02018,25.7198 -7.77571,3.1587 -15.52917,3.4628 -23.74213,0.931 z m 250.05197,-0.53 c -9.3617,-3.2313 -12.5213,-7.1364 -12.4863,-15.4323 0.016,-3.7439 1.0743,-8.7998 2.5,-11.9418 3.2686,-7.2033 3.127,-8.0785 -0.9649,-5.9631 -11.7116,6.0546 -22.4111,0.3881 -25.27,-13.3831 -1.3279,-6.3963 -1.2045,-8.1714 1.0941,-15.7389 1.9939,-6.5646 3.7129,-9.5433 7.4616,-12.9301 9.7892,-8.8439 19.0354,-7.4009 31.042,4.8444 l 7.8598,8.0161 0,-4.9973 c 0,-6.3529 -3.7649,-16.3203 -8.1191,-21.4949 -3.1815,-3.7811 -3.2465,-4.1031 -1.1386,-5.6445 3.9675,-2.901 21.3342,-1.6928 22.5868,1.5715 0.3378,0.8803 -0.5768,2.7916 -2.0324,4.2472 -3.29,3.29 -4.512,6.4544 -6.3,16.315 -2.154,11.8782 -0.951,12.9046 5.9194,5.0508 6.597,-7.5414 11.5236,-10.0691 19.6253,-10.0691 4.5253,0 6.4977,0.7692 10.1137,3.9441 11.9644,10.5049 13.7951,29.8339 3.8268,40.4034 -5.1783,5.4906 -9.5132,6.5194 -17.1625,4.0733 -6.5705,-2.1012 -6.8898,-1.8858 -4.1944,2.8292 0.9825,1.7187 1.8063,6.0585 1.8307,9.644 0.058,8.5856 -4.7261,14.4485 -14.0502,17.2175 -8.3141,2.469 -13.7624,2.3309 -22.1418,-0.5614 z m 100.2988,-14.6982 c -0.9505,-0.3408 -1.5625,-2.8738 -1.5625,-6.4672 0,-3.2488 -0.7756,-6.9675 -1.7234,-8.2638 -1.4785,-2.022 -1.4341,-2.9399 0.3125,-6.4582 2.3333,-4.7003 4.4863,-5.2588 6.4109,-1.6627 1.0552,1.9716 2.6173,2.5 7.3909,2.5 10.0448,0 10.4121,2.3074 1.8041,11.332 -7.8469,8.2267 -10.1863,9.897 -12.6325,9.0199 z m 8.1875,-10.6019 c 2.4947,-2.4947 1.7785,-4.9634 -1.3125,-4.5244 -1.8075,0.2567 -2.9552,1.4044 -3.2119,3.2119 -0.439,3.091 2.0297,3.8072 4.5244,1.3125 z m -8.5,-33.8607 c -2.5722,-1.2955 -3.1928,-2.6298 -3.5085,-7.5433 -0.3371,-5.2473 -0.6748,-5.8769 -2.7917,-5.2051 -3.2284,1.0247 -8.6998,-4.4916 -8.6998,-8.7712 0,-4.2784 3.1432,-10.207 6.3101,-11.9019 2.9246,-1.5652 6.7911,-0.6186 11.046,2.7041 3.5584,2.7789 7.3414,2.9862 10.0455,0.5505 1.0854,-0.9777 3.5061,-2.1601 5.3794,-2.6276 4.9422,-1.2334 10.969,4.9428 10.969,11.2409 0,5.1627 -4.4847,10.6643 -8.6932,10.6643 -1.9935,0 -2.5568,0.8062 -2.5568,3.6593 0,7.0872 -9.7695,11.1234 -17.5,7.23 z m 4.6921,-34.2255 c -1.1432,-2.5223 -1.7897,-5.0536 -1.4366,-5.625 0.8589,-1.3897 6.417,-1.33 7.2874,0.078 0.6012,0.9727 -2.4944,10.1328 -3.4242,10.1328 -0.1913,0 -1.2833,-2.0638 -2.4266,-4.5861 z M 709.63566,787.31638 c -0.37976,-0.61447 0.20837,-3.26845 1.30697,-5.89774 l 1.99743,-4.78054 2.341,4.81284 c 1.28755,2.64706 2.03927,5.30105 1.67049,5.89775 -0.8807,1.42501 -6.43036,1.4005 -7.31589,-0.0323 z m 85.85543,-5.10764 c -3.45299,-1.46664 -3.53533,-2.73354 -0.36413,-5.60342 4.3008,-3.89218 9.43943,-25.60747 6.49087,-27.42977 -0.69204,-0.42771 -3.02165,1.67781 -5.17689,4.67893 -13.86348,19.30455 -37.43066,12.51355 -40.75551,-11.7439 -1.49865,-10.93385 4.15547,-22.88017 12.29532,-25.97822 4.05506,-1.54337 5.38344,-1.51941 10.57826,0.1908 3.26748,1.07569 6.13505,1.76162 6.37239,1.52428 0.23734,-0.23734 -0.4537,-2.14336 -1.53564,-4.23561 -3.14956,-6.09057 -2.5803,-15.50777 1.2097,-20.01193 4.68013,-5.56201 15.66303,-9.35851 24.22433,-8.3737 9.48882,1.09149 17.01093,4.6947 19.38505,9.28577 2.7152,5.25062 2.47548,14.26814 -0.53625,20.17162 -3.44826,6.75915 -3.20289,7.92767 1.18792,5.6571 2.02837,-1.04891 6.20396,-1.9071 9.27909,-1.9071 8.07738,0 12.40471,4.03098 15.12813,14.09209 1.93823,7.16045 1.95892,8.49942 0.23331,15.10748 -1.04138,3.98788 -3.19101,9.1444 -4.77696,11.45895 -3.45813,5.0468 -10.66705,9.35183 -15.59668,9.31403 -7.232,-0.0555 -17.23049,-6.38956 -22.30064,-14.12759 -2.92314,-4.46129 -4.40567,-4.21936 -4.3972,0.71754 0.0113,6.45703 2.23766,12.8068 6.94213,19.79761 2.4021,3.5695 4.03337,6.82409 3.62505,7.2324 -1.28599,1.28599 -18.56851,1.43273 -21.51165,0.18264 z m 251.56251,0.33351 c -4.5876,-1.10346 -4.9854,-2.70974 -1.5573,-6.28795 3.5836,-3.74046 7.1823,-15.30637 7.1823,-23.08333 0,-5.90853 -1.5099,-6.00954 -5.0165,-0.33562 -5.5996,9.0602 -16.5573,14.18789 -25.2123,11.79811 -6.1275,-1.69187 -12.9163,-9.48918 -15.3257,-17.60226 -2.4256,-8.1681 -2.4213,-9.58561 0.052,-16.99142 3.9945,-11.96057 11.8865,-16.7115 22.4416,-13.50969 3.4023,1.03204 6.338,1.88253 6.5238,1.88997 0.1859,0.007 -0.7985,-2.21406 -2.1875,-4.93667 -5.3016,-10.3921 -2.1123,-20.07935 8.29,-25.17957 11.7947,-5.78295 30.6253,-2.71998 36.2667,5.89913 3.1636,4.83342 2.8845,14.61383 -0.6096,21.36834 -1.4974,2.89449 -2.7225,5.53766 -2.7225,5.87372 0,0.33606 1.9507,-0.20403 4.3348,-1.2002 14.6089,-6.10398 24.9486,2.20932 24.9545,20.06378 0.01,18.9829 -12.2477,31.37944 -26.7295,27.0406 -5.2818,-1.58246 -15.7595,-10.21251 -16.9489,-13.96012 -1.0932,-3.44434 -4.3609,-3.11267 -4.3609,0.44265 0,5.49415 3.9626,16.48852 7.6017,21.09107 4.3863,5.54761 4.515,6.73695 0.8358,7.72294 -3.2048,0.85886 -14.0741,0.79572 -17.8125,-0.1035 z m -324.37501,-1.26901 c -1.03125,-0.39214 -3.21648,-1.75398 -4.85607,-3.02631 -3.56357,-2.76537 -7.34631,-2.96709 -10.0455,-0.53573 -1.08539,0.97769 -3.50615,2.16011 -5.37947,2.62761 -4.9422,1.23337 -10.96896,-4.94279 -10.96896,-11.24088 0,-5.16278 4.48468,-10.66434 8.69318,-10.66434 1.99349,0 2.55682,-0.80623 2.55682,-3.65928 0,-5.52245 5.35589,-9.25419 12.18682,-8.49125 7.29129,0.81437 9.06318,2.62529 9.06318,9.26282 0,4.97178 0.26076,5.47342 2.47919,4.76931 3.30038,-1.0475 8.77081,4.40911 8.77081,8.74866 0,4.21115 -3.12755,10.19865 -6.18076,11.83269 -2.61997,1.40216 -3.48662,1.45382 -6.31924,0.3767 z m -6.25,-55.33965 c -1.08882,-2.03447 -2.61728,-2.5 -8.20821,-2.5 -10.06778,0 -10.14777,-2.18287 -0.43895,-11.97876 5.14331,-5.18944 8.95561,-8.02124 10.79855,-8.02124 2.59758,0 2.84861,0.56964 2.84861,6.46407 0,4.26074 0.70515,7.24326 2.06874,8.75 1.92497,2.12708 1.92497,2.44478 0,4.57186 -1.13781,1.25725 -2.06874,2.94475 -2.06874,3.75 0,2.39787 -3.55666,1.66098 -5,-1.03593 z m -0.22556,-10.9375 c 0.4746,-3.34176 -0.62585,-3.56069 -3.73851,-0.74377 -3.09537,2.80128 -2.87735,4.43914 0.52657,3.95571 1.80745,-0.2567 2.95524,-1.40449 3.21194,-3.21194 z M 628.66272,605.70895 c 2.79892,-1.11081 602.73278,-1.11081 605.53178,0 1.1774,0.4673 -135.0672,0.84964 -302.76591,0.84964 -167.6987,0 -303.94335,-0.38234 -302.76587,-0.84964 z"
         id="path3544"
         inkscape:connector-curvature="0" />
      <path
         style="fill:#555555"
         d="m 780.49109,1476.2461 c 83.01562,-0.1774 218.85937,-0.1774 301.87501,0 83.0156,0.1775 15.0937,0.3226 -150.93751,0.3226 -166.03125,0 -233.95313,-0.1451 -150.9375,-0.3226 z M 619.54636,1040.9336 c 0,-234.09376 0.14387,-329.85939 0.31971,-212.81251 0.17584,117.04687 0.17584,308.57811 0,425.62501 -0.17584,117.0469 -0.31971,21.2812 -0.31971,-212.8125 z m 623.75004,0 c 0,-234.09376 0.1438,-329.85939 0.3197,-212.81251 0.1758,117.04687 0.1758,308.57811 0,425.62501 -0.1759,117.0469 -0.3197,21.2812 -0.3197,-212.8125 z m -585.74546,389.6442 c -2.42682,-1.6317 -4.88684,-4.7125 -5.7393,-7.1875 -2.16587,-6.2884 -2.16587,-758.62505 0,-764.91343 0.85246,-2.47502 3.31248,-5.55578 5.7393,-7.1875 l 4.24736,-2.85578 269.63029,0 269.63031,0 4.2473,2.85578 c 2.4269,1.63172 4.8869,4.71248 5.7393,7.1875 2.1659,6.28838 2.1659,758.62503 0,764.91343 -0.8524,2.475 -3.3124,5.5558 -5.7393,7.1875 l -4.2473,2.8558 -269.63031,0 -269.63029,0 -4.24736,-2.8558 z m 547.23456,-4.8621 2.8931,-2.7179 0,-381.889 0,-381.88908 -2.7179,-2.89307 -2.7179,-2.89306 -270.63903,0 -270.63905,0 -2.89307,2.71789 -2.89306,2.71789 0,381.88903 0,381.8891 2.71789,2.893 2.71789,2.8931 270.63904,0 270.63909,0 2.893,-2.7179 z M 793.92859,1393.808 c -6.54625,-2.3678 -10.33975,-4.9056 -11.93006,-7.9809 -2.72975,-5.2787 -2.212,-13.3738 1.34393,-21.0127 1.7267,-3.7093 2.94847,-6.9351 2.71503,-7.1686 -0.23344,-0.2334 -2.61437,0.6921 -5.29097,2.0567 -9.42048,4.8028 -17.07749,2.5883 -21.52543,-6.2255 -8.24678,-16.3414 2.06552,-40.0434 17.42215,-40.0434 2.67573,0 6.99029,1.0843 9.58791,2.4095 4.63865,2.3664 13.06886,10.6398 14.15173,13.8884 0.32297,0.9689 1.4151,1.3201 2.64143,0.8496 1.58693,-0.609 1.9231,-1.7929 1.39494,-4.9124 -1.44849,-8.5554 -4.57185,-16.7677 -8.04365,-21.1494 -1.97817,-2.4967 -3.24875,-4.8873 -2.82351,-5.3125 1.18724,-1.1873 19.50297,-0.8797 21.46099,0.3604 1.40143,0.8876 1.12691,1.8916 -1.44728,5.2934 -3.72784,4.9262 -5.66115,11.532 -6.16741,21.073 -0.4501,8.4826 1.14279,8.8579 6.45749,1.5211 6.08703,-8.4029 15.54172,-12.9243 23.07315,-11.034 8.03318,2.0162 16.94257,15.1397 16.96735,24.9929 0.0185,7.3575 -2.55044,14.4084 -6.94879,19.072 -3.2613,3.458 -4.87669,4.198 -9.16425,4.198 -2.86278,0 -7.22443,-0.8438 -9.69255,-1.875 -6.36878,-2.6611 -7.11448,-2.3585 -4.13138,1.6764 1.44413,1.9533 3.14508,5.8631 3.77989,8.6884 2.81773,12.5408 -7.19984,21.5299 -23.83071,21.3841 -4.46875,-0.039 -8.96875,-0.3765 -10,-0.7495 z m 248.22901,-0.915 c -2.6927,-0.9945 -6.349,-3.2625 -8.125,-5.04 -2.7457,-2.7482 -3.2173,-4.3029 -3.151,-10.3882 0.052,-4.8005 0.9781,-8.8886 2.8125,-12.4189 3.8292,-7.3696 3.4546,-8.2805 -2.2157,-5.3877 -14.0798,7.183 -24.4409,-1.0302 -24.4101,-19.3496 0.028,-16.6281 9.0907,-27.8195 21.5579,-26.6216 7.27,0.6986 15.0421,5.5578 19.746,12.3456 1.868,2.6956 4.2361,4.901 5.2624,4.901 4.2332,0 -1.429,-20.7257 -7.398,-27.0794 -1.4135,-1.5045 -2.1965,-3.3397 -1.7402,-4.0781 1.0857,-1.7567 17.5955,-1.7444 20.8841,0.015 2.529,1.3535 2.5282,1.3667 -0.2199,3.9271 -4.11,3.829 -6.3787,10.3553 -7.1514,20.5725 -0.8199,10.8402 0.3717,11.5806 5.8418,3.6302 5.2083,-7.5701 11.4751,-11.2243 19.3812,-11.3013 8.1422,-0.079 13.1275,3.3656 17.4638,12.0674 5.7148,11.4681 3.4714,26.6938 -4.9039,33.2818 -4.2056,3.3081 -11.2612,3.5571 -17.4304,0.6153 -5.5874,-2.6645 -6.6524,-1.6108 -3.1543,3.1206 1.5119,2.045 3.0367,6.2706 3.3883,9.3903 0.8069,7.1592 -2.6853,13.3397 -9.3743,16.5903 -6.1137,2.9711 -20.5447,3.6148 -27.0638,1.2072 z m 100.1043,-15.2927 c -0.4583,-0.4584 -0.8333,-3.7209 -0.8333,-7.25 0,-3.5292 -0.5626,-6.9793 -1.2503,-7.667 -1.5529,-1.5529 1.1751,-7.9757 3.3938,-7.99 0.8352,0 2.1206,1.1153 2.8565,2.4903 1.0874,2.0318 2.6173,2.5 8.169,2.5 4.6387,0 6.8266,0.5015 6.8174,1.5625 -0.01,0.8594 -3.2782,5.0781 -7.2683,9.375 -6.7347,7.2525 -9.8072,9.0568 -11.8848,6.9792 z m 8.7736,-9.3846 c 3.8547,-3.6213 3.6467,-4.7821 -0.8569,-4.7821 -3.3333,0 -3.75,0.4167 -3.75,3.75 0,4.466 0.7685,4.6381 4.6069,1.0321 z m -10.1867,-35.9821 c -1.6675,-1.8426 -2.0114,-3.5471 -1.3871,-6.875 0.7994,-4.2608 0.6922,-4.425 -2.8872,-4.425 -2.0445,0 -4.6013,-0.8839 -5.6816,-1.9643 -2.8295,-2.8295 -2.4918,-10.778 0.6264,-14.7421 3.4216,-4.3498 7.9876,-4.2053 14.1358,0.4474 5.0425,3.816 7.1862,3.7065 10.7169,-0.5478 2.3453,-2.8259 8.2757,-2.4085 11.2579,0.7925 3.3441,3.5895 3.4942,12.2711 0.2628,15.1956 -1.2573,1.1378 -3.7714,2.0687 -5.587,2.0687 -2.9949,0 -3.2851,0.422 -3.1299,4.5513 0.2181,5.8016 -2.562,7.9487 -10.2924,7.9487 -4.1903,0 -6.4375,-0.6852 -8.0346,-2.45 z m 7.0798,-33.1254 c -1.9949,-4.3785 -1.978,-4.4246 1.625,-4.4246 3.4458,0 4.0091,2.0631 1.5,5.4945 -1.5124,2.0683 -1.7288,1.9942 -3.125,-1.0699 z M 710.17859,785.85141 c 0,-0.7327 0.63281,-2.5146 1.40625,-3.95977 1.40416,-2.6237 1.40874,-2.62311 3.08071,0.39467 2.35883,4.25754 2.18092,4.89728 -1.36196,4.89728 -1.71875,0 -3.125,-0.59948 -3.125,-1.33218 z m 84.00334,-4.73479 c -1.27854,-0.81104 -1.16944,-1.40209 0.51563,-2.79337 1.17553,-0.97056 3.20513,-4.17315 4.51023,-7.11686 2.76609,-6.23903 4.46737,-22.00934 2.50519,-23.22204 -0.71421,-0.44141 -3.26368,1.93271 -5.66547,5.27583 -4.91462,6.8408 -12.86911,11.42341 -19.82872,11.42341 -14.32504,0 -24.57002,-22.47999 -17.41979,-38.22325 4.4388,-9.77327 12.23792,-12.81309 22.19739,-8.65175 6.61591,2.7643 6.90998,2.43566 3.52204,-3.93617 -4.66634,-8.77618 -4.20161,-14.62117 1.62585,-20.44863 7.51742,-7.51743 19.70449,-9.50799 32.13039,-5.24799 11.91449,4.08469 14.78571,14.18644 8.00128,28.15085 -1.55038,3.19115 -2.53379,6.08718 -2.18535,6.43562 0.34844,0.34843 2.84515,-0.51845 5.54825,-1.92641 10.08699,-5.254 19.89282,-0.32789 23.11317,11.61128 2.99787,11.11439 -1.79345,26.37987 -10.01989,31.92395 -9.1044,6.13577 -23.28939,1.70246 -30.78269,-9.62068 -1.84419,-2.78675 -4.19454,-5.06682 -5.223,-5.06682 -4.19174,0 1.76236,21.95205 7.31774,26.9796 4.79426,4.33875 3.08946,5.52171 -7.92809,5.50126 -5.67187,-0.01 -11.04225,-0.48206 -11.93416,-1.04783 z m 251.02937,-0.13633 c -1.5588,-0.98583 -1.4027,-1.63283 1.0148,-4.2062 3.268,-3.47859 5.8438,-11.15852 7.0913,-21.14305 0.8762,-7.01307 -0.4651,-10.08284 -3.0204,-6.91241 -6.7594,8.38661 -9.9427,11.46218 -14.0128,13.5386 -11.6747,5.956 -23,0.29284 -28.0525,-14.02744 -2.6067,-7.38805 -2.2039,-14.50787 1.2389,-21.90238 4.6114,-9.90425 11.5422,-12.54055 21.9846,-8.36234 2.7924,1.11731 5.3579,1.7507 5.701,1.40753 0.3432,-0.34316 -0.5746,-2.65534 -2.0395,-5.13816 -3.5109,-5.95058 -3.6794,-14.7672 -0.3688,-19.29885 7.8883,-10.79784 31.4155,-12.01715 41.2927,-2.14 3.552,3.55204 4.1363,4.99647 4.1258,10.2005 -0.01,3.82896 -1.1689,8.54718 -3.1517,12.80667 -1.7267,3.70929 -2.9299,6.95367 -2.6739,7.20971 0.2561,0.25605 2.9399,-0.65709 5.9642,-2.02921 6.6726,-3.02743 10.0656,-3.16099 15.0339,-0.59177 7.4043,3.82892 10.7707,18.59735 7.0614,30.97809 -0.8406,2.80556 -3.8379,7.51145 -6.6607,10.45752 -4.6402,4.84279 -5.7043,5.35649 -11.0953,5.35649 -3.2796,0 -7.8537,-0.89725 -10.1647,-1.99388 -4.211,-1.99824 -13.4498,-11.07764 -14.5107,-14.26023 -0.3356,-1.00664 -1.4148,-1.36965 -2.656,-0.89335 -1.5816,0.60691 -1.9257,1.80335 -1.413,4.91239 1.6007,9.70612 3.711,15.43751 7.523,20.4315 2.2363,2.92964 3.7336,5.65895 3.3275,6.06511 -1.1999,1.19984 -19.5323,0.8042 -21.5391,-0.46484 z m -328.00918,-3.7877 c -5.0425,-3.81602 -7.18621,-3.70646 -10.71689,0.54775 -2.34535,2.82598 -8.27578,2.40852 -11.25795,-0.79245 -3.34411,-3.58949 -3.49424,-12.27113 -0.26276,-15.19556 1.25725,-1.13782 3.77138,-2.06874 5.58693,-2.06874 2.99494,0 3.28515,-0.422 3.12991,-4.55133 -0.21811,-5.80162 2.56202,-7.94867 10.29241,-7.94867 7.60554,0 10.61269,2.9763 9.42167,9.32501 -0.79933,4.26078 -0.69218,4.42499 2.88722,4.42499 2.04455,0 4.60129,0.88392 5.68164,1.96429 2.82951,2.8295 2.49175,10.778 -0.62644,14.74213 -3.42156,4.34982 -7.98763,4.20529 -14.13574,-0.44742 z m -0.77353,-52.509 c -1.08739,-2.0318 -2.61728,-2.5 -8.16898,-2.5 -4.71378,0 -6.83102,-0.49548 -6.83102,-1.59861 0,-0.87924 3.60956,-5.17608 8.02124,-9.54855 9.73992,-9.65334 11.97876,-9.60981 11.97876,0.23293 0,3.66533 0.56262,7.22684 1.25026,7.91449 1.55298,1.55298 -1.17511,7.97574 -3.39378,7.98999 -0.83519,0.005 -2.1206,-1.11525 -2.85648,-2.49025 z m -0.2333,-9.6875 c 0.46707,-4.8442 -0.82863,-5.12939 -4.67977,-1.03004 -3.21277,3.41984 -2.4468,6.05228 1.59352,5.47652 2.02603,-0.28871 2.79173,-1.39189 3.08625,-4.44648 z m 64.2958,-109.99995 c 83.01562,-0.17742 218.85937,-0.17742 301.87501,0 83.0156,0.17742 15.0937,0.32258 -150.93751,0.32258 -166.03125,0 -233.95313,-0.14516 -150.9375,-0.32258 z"
         id="path3542"
         inkscape:connector-curvature="0" />
      <path
         style="fill:#2e2e2e"
         d="m 781.11609,1476.2461 c 82.67187,-0.1774 217.95312,-0.1774 300.62501,0 82.6719,0.1775 15.0312,0.3227 -150.31251,0.3227 -165.34375,0 -232.98438,-0.1452 -150.3125,-0.3227 z M 619.54634,1040.9336 c 0,-233.40626 0.14388,-328.89064 0.31973,-212.18751 0.17585,116.70312 0.17585,307.67191 0,424.37501 -0.17585,116.7031 -0.31973,21.2187 -0.31973,-212.1875 z m 623.74996,0 c 0,-233.40626 0.1439,-328.89064 0.3198,-212.18751 0.1758,116.70312 0.1758,307.67191 0,424.37501 -0.1759,116.7031 -0.3198,21.2187 -0.3198,-212.1875 z M 659.38698,1431.036 c -2.15413,-1.3135 -4.82601,-3.6866 -5.9375,-5.2734 -1.85049,-2.642 -2.02089,-35.1004 -2.02089,-384.9386 l 0,-382.05326 2.61037,-3.31855 c 5.93514,-7.5453 -14.88122,-7.0186 277.38963,-7.0186 292.27081,0 271.45451,-0.5267 277.38961,7.0186 l 2.6104,3.31855 0,382.16286 0,382.1628 -2.6104,3.3186 c -5.9353,7.5455 14.9066,7.019 -277.64003,7.0139 -261.49144,0 -267.96791,-0.062 -271.79119,-2.3929 z m 546.06942,-4.8246 2.8472,-2.8473 0,-382.4305 0,-382.43057 -2.8472,-2.84722 -2.8473,-2.84722 -271.18051,0 -271.18056,0 -2.84722,2.84719 -2.84722,2.8472 -0.29742,380.90282 c -0.23733,303.9514 0.0202,381.5291 1.27464,384.0032 0.86463,1.7052 2.96721,3.8084 4.67241,4.6737 2.46874,1.2529 58.03648,1.5125 272.75321,1.2747 l 269.65287,-0.2988 2.8471,-2.8472 z m -412.11004,-33.2897 c -13.2947,-3.7237 -16.49112,-14.2645 -8.74401,-28.8348 3.85043,-7.2416 2.97759,-9.0688 -2.66597,-5.5809 -5.6347,3.4825 -14.53125,3.6988 -18.13115,0.441 -4.80635,-4.3497 -6.60824,-9.4352 -6.60399,-18.6384 0.005,-10.0182 2.8728,-16.9612 9.20934,-22.293 9.27941,-7.8081 21.76912,-4.1418 31.64691,9.2899 2.64505,3.5967 4.408,4.8985 6.05171,4.4687 1.27566,-0.3336 2.31939,-0.097 2.31939,0.5264 0,0.6232 1.125,1.133 2.5,1.133 1.375,0 2.5,-0.5609 2.5,-1.2464 0,-1.997 8.86406,-11.2484 12.65649,-13.2095 4.93862,-2.5539 13.46755,-2.2426 18.23711,0.6655 4.18386,2.551 9.3902,11.3719 10.93883,18.5331 1.28585,5.9461 -1.53238,16.0786 -5.8351,20.9791 -4.95264,5.6407 -9.80307,6.4076 -18.92971,2.9929 -8.12535,-3.0401 -10.00238,-2.548 -6.11415,1.6027 5.49277,5.8637 6.82703,14.8309 3.13633,21.0788 -4.50265,7.6224 -19.96405,11.5112 -32.17203,8.0919 z m 249.42684,-0.5845 c -3.7292,-1.3293 -7.7948,-3.7358 -9.0347,-5.3478 -3.3924,-4.4105 -3.0278,-14.217 0.8099,-21.7815 2.9028,-5.7216 3.8898,-9.2743 2.5766,-9.2743 -0.3044,0 -2.4138,1.0798 -4.6875,2.3995 -7.2606,4.2143 -14.9445,3.8572 -19.718,-0.9163 -10.4533,-10.4533 -5.17,-36.6207 8.5614,-42.403 8.4225,-3.5467 20.3294,1.8313 27.268,12.3163 1.8035,2.7252 4.1657,4.8376 5.2633,4.7067 1.0953,-0.1306 3.0757,0.2288 4.401,0.7987 1.8362,0.7895 2.8774,0.3269 4.375,-1.9438 6.5138,-9.8759 12.593,-13.7081 21.7459,-13.7081 6.7537,0 12.0032,3.8058 16.1656,11.7197 5.8013,11.03 2.2791,29.3287 -6.5213,33.8795 -4.9219,2.5452 -7.8031,2.3991 -15.1686,-0.7695 -3.414,-1.4687 -6.555,-2.3226 -6.9799,-1.8976 -0.425,0.4249 0.7171,2.9224 2.538,5.5499 3.9017,5.6302 4.564,15.4224 1.3531,20.0066 -5.346,7.6325 -21.2234,10.8444 -32.9478,6.665 z m 99.9054,-21.1536 c 0,-3.3 -0.6437,-6.6437 -1.4305,-7.4305 -1.0739,-1.0739 -1.0361,-2.3824 0.1517,-5.25 1.8326,-4.4244 3.2806,-4.8583 4.4038,-1.3195 0.6652,2.0958 1.8913,2.5 7.5842,2.5 8.945,0 8.9845,2.2939 0.189,10.9802 -8.5442,8.4381 -10.8982,8.5503 -10.8982,0.5198 z m 8.6902,-2.0614 c 3.1818,-3.3869 2.7206,-6.9386 -0.901,-6.9386 -3.0541,0 -5.2892,2.3946 -5.2892,5.6667 0,5.1226 2.1564,5.5657 6.1902,1.2719 z m -8.5216,-36.0284 c -2.684,-1.2898 -2.8895,-1.9857 -2.2301,-7.553 0.7253,-6.1237 0.7215,-6.1315 -2.6553,-5.4859 -4.7943,0.9165 -7.5519,-0.9924 -8.465,-5.8596 -0.9262,-4.937 1.9197,-11.4427 5.503,-12.58 3.0483,-0.9675 7.6846,0.844 10.685,4.1748 2.4039,2.6686 8.2438,3.6785 8.2438,1.4256 0,-0.6699 1.7655,-2.1309 3.9233,-3.2467 7.2308,-3.7392 13.4558,2.429 11.7308,11.6239 -0.8915,4.7522 -3.6854,6.6203 -8.5192,5.6963 -3.4131,-0.6524 -3.4519,-0.5895 -2.6657,4.3268 0.6874,4.2988 0.395,5.2709 -2.1139,7.0282 -3.3291,2.3318 -9.1166,2.5255 -13.4367,0.4496 z m -339.3618,-14.796 c -1.21436,-4.4072 -3.92541,-10.1515 -6.04662,-12.8119 -4.60764,-5.7788 -3.57601,-7.013 5.86481,-7.0161 7.9951,0 11.875,1.0542 11.875,3.2346 0,0.951 -0.42719,1.7292 -0.94931,1.7292 -1.82364,0 -4.22388,5.2844 -6.37489,14.0351 l -2.16765,8.8184 -2.20134,-7.9893 z m 251.1009,1.7455 c -0.9629,-5.1328 -4.8824,-13.5226 -7.9411,-16.9985 -1.7309,-1.9669 -1.7528,-2.4153 -0.1669,-3.4184 2.4605,-1.5563 12.7337,-1.4984 16.9259,0.095 l 3.3883,1.2882 -2.6397,2.8099 c -2.9542,3.1446 -6.4742,12.1549 -6.4742,16.5721 0,4.8241 -2.1677,4.5797 -3.0923,-0.3487 z m 93.4784,-21.4538 c -1.6957,-2.7177 -0.9893,-3.9059 2.3222,-3.9059 2.6842,0 2.8944,1.1986 0.7292,4.1572 -1.4608,1.9961 -1.6594,1.9797 -3.0514,-0.2513 z M 710.17859,786.47641 c 0,-0.38895 0.60715,-1.84164 1.34922,-3.22822 1.29501,-2.41975 1.41612,-2.42956 3.01416,-0.2441 0.91571,1.25231 1.40036,2.70501 1.077,3.22821 -0.67631,1.0943 -5.44038,1.30806 -5.44038,0.24411 z m 86.5625,-5.17498 c -3.4487,-0.66425 -3.5442,-1.81819 -0.38695,-4.67547 2.64925,-2.39753 6.32445,-11.96625 6.32445,-16.46627 0,-1.55571 0.5625,-3.1762 1.25,-3.6011 0.6875,-0.4249 1.25,0.0847 1.25,1.13255 0,3.67061 4.03561,13.9054 7.07274,17.9373 1.68613,2.23842 2.72011,4.62905 2.29771,5.3125 -0.74891,1.21177 -12.18614,1.44329 -17.80795,0.36049 z m 250.62501,0.0205 c -2.7831,-0.7273 -2.7747,-0.79044 0.8482,-6.35264 1.6697,-2.56339 3.7372,-8.30676 4.5947,-12.76305 l 1.5589,-8.10236 2.7626,9.04721 c 1.5194,4.97597 4.2197,10.9576 6.0006,13.29252 2.7311,3.58063 2.9332,4.3623 1.2906,4.99264 -2.1883,0.8397 -13.7002,0.76254 -17.0556,-0.11437 z m -325.31251,-1.57004 c -1.375,-0.56277 -3.57156,-2.21461 -4.88124,-3.67076 -2.40282,-2.67154 -8.24376,-3.68448 -8.24376,-1.42964 0,0.66985 -1.76547,2.13086 -3.92327,3.2467 -7.23085,3.73922 -13.45584,-2.429 -11.73087,-11.6239 0.89152,-4.75219 3.68548,-6.62035 8.51922,-5.69633 3.41311,0.65247 3.45187,0.58955 2.66572,-4.32677 -0.68741,-4.2988 -0.39502,-5.27095 2.11386,-7.02823 3.45296,-2.41854 8.46455,-2.61946 13.06418,-0.52373 3.11289,1.41834 3.27991,1.9087 2.60141,7.63757 -0.72389,6.11218 -0.71965,6.12091 2.65655,5.47551 4.79427,-0.91648 7.55194,0.99242 8.46503,5.85962 1.17146,6.24438 -3.29246,13.62629 -7.97156,13.18242 -0.4594,-0.0436 -1.96027,-0.53969 -3.33527,-1.10246 z m 103.65285,-14.34134 c -5.18108,-2.25602 -12.7296,-9.02435 -15.03358,-13.47976 -1.09526,-2.118 -2.76189,-3.52359 -3.99865,-3.37234 -1.16633,0.14265 -3.20971,-0.20871 -4.54082,-0.78079 -1.79506,-0.77147 -2.76369,-0.41876 -3.75,1.36552 -3.04465,5.50787 -11.54929,12.83486 -16.42023,14.14646 -20.27788,5.46027 -33.99813,-25.42944 -18.70643,-42.11558 3.44857,-3.76305 5.03515,-4.55865 9.09077,-4.55865 2.70219,0 7.26286,1.05961 10.13483,2.35468 2.87196,1.29507 5.54727,2.02916 5.94512,1.6313 0.39787,-0.39786 -0.73287,-2.86645 -2.51273,-5.48576 -2.44853,-3.60332 -3.23613,-6.33281 -3.23613,-11.21501 0,-8.33375 4.11296,-13.11433 13.74337,-15.97426 8.20069,-2.43534 10.03705,-2.4499 18.75663,-0.14871 13.67628,3.60933 17.22207,13.23152 10.44264,28.33811 -1.81905,4.05337 -2.97364,7.7035 -2.56575,8.11139 0.40788,0.40788 2.66572,-0.44755 5.0174,-1.90098 4.618,-2.85407 13.12095,-3.52516 17.17495,-1.35553 3.04711,1.63077 5.74842,6.83102 7.41771,14.27975 1.00818,4.49865 0.88545,7.42769 -0.53989,12.88591 -3.965,15.18363 -14.86017,22.30746 -26.41921,17.27425 z m 247.35496,-1.97385 c -3.863,-2.21547 -8.0787,-6.02917 -10.4094,-9.41676 -3.0197,-4.38894 -4.4677,-5.51859 -6.3203,-4.93061 -1.3463,0.4273 -2.4031,0.17596 -2.4031,-0.5715 0,-3.07405 -3.8636,-0.95978 -7.5005,4.1045 -7.8654,10.95235 -20.648,14.427 -29.1679,7.92859 -16.3371,-12.46092 -11.5248,-44.29594 6.6239,-43.82006 2.4874,0.0652 6.3652,1.07149 8.6174,2.23615 6.8122,3.52273 8.1199,2.1229 3.8851,-4.15902 -12.8772,-19.10241 10.2787,-35.79935 34.7717,-25.07271 9.5998,4.20422 11.4452,15.24707 4.5689,27.34147 -3.839,6.75231 -2.5329,8.77933 3.347,5.19463 5.0464,-3.07654 13.168,-3.37933 17.0834,-0.63691 4.6208,3.2365 6.9591,9.21754 7.0564,18.04912 0.1331,12.07167 -4.6433,21.85549 -12.4867,25.57744 -5.933,2.81538 -10.3761,2.35656 -17.6659,-1.82433 z M 717.05359,724.68359 c -0.66378,-2.0914 -1.89129,-2.5 -7.51046,-2.5 -3.69435,0 -7.06725,-0.56672 -7.49534,-1.25938 -1.09184,-1.76664 13.00822,-16.24062 15.82108,-16.24062 1.90904,0 2.30972,0.99005 2.30972,5.70718 0,3.13894 0.56509,6.76305 1.25575,8.05356 0.86554,1.61728 0.80319,3.33965 -0.20065,5.54283 -1.75053,3.842 -3.10985,4.06848 -4.1801,0.69643 z m 0.0939,-8.05396 c 1.55543,-6.19733 -2.70817,-7.70372 -6.8611,-2.42412 -3.10645,3.9492 -2.42485,5.47808 2.4422,5.47808 2.83076,0 3.82484,-0.68702 4.4189,-3.05396 z m 63.96864,-111.63349 c 82.67187,-0.17745 217.95312,-0.17745 300.62497,0 82.6719,0.17744 15.0312,0.32262 -150.31247,0.32262 -165.34375,0 -232.98438,-0.14518 -150.3125,-0.32262 z"
         id="path3540"
         inkscape:connector-curvature="0" />
      <path
         style="fill:#080808"
         d="m 781.74109,1476.2461 c 82.32812,-0.1774 217.04687,-0.1774 299.37501,0 82.3281,0.1775 14.9687,0.3227 -149.68751,0.3227 -164.65625,0 -232.01563,-0.1452 -149.6875,-0.3227 z M 619.54632,1040.9336 c 0,-232.71876 0.14388,-327.92189 0.31975,-211.56251 0.17586,116.35937 0.17586,306.76561 0,423.12501 -0.17587,116.3594 -0.31975,21.1562 -0.31975,-211.5625 z m 623.74998,0 c 0,-232.71876 0.1439,-327.92189 0.3198,-211.56251 0.1758,116.35937 0.1758,306.76561 0,423.12501 -0.1759,116.3594 -0.3198,21.1562 -0.3198,-211.5625 z m -581.86771,390 c -1.21366,-0.7843 94.02009,-1.2117 270,-1.2117 175.97991,0 271.21361,0.4274 270.00001,1.2117 -1.1957,0.7727 -99.0201,1.2117 -270.00001,1.2117 -170.97991,0 -268.80434,-0.439 -270,-1.2117 z m -6.15928,-4.5436 -2.59072,-3.2936 0,-382.2617 0,-382.2617 3.24717,-3.50721 3.24718,-3.5072 -2.62218,3.60607 -2.62217,3.60608 0,382.16286 0,382.1628 2.59072,3.2936 c 1.4249,1.8115 2.30948,3.2936 1.96573,3.2936 -0.34375,0 -1.79083,-1.4821 -3.21573,-3.2936 z m 551.03709,0.3125 2.6222,-3.6061 0,-382.1628 0,-382.16286 -2.6222,-3.60608 -2.6222,-3.60607 3.2472,3.5072 3.2472,3.50721 0,382.3606 0,382.3606 -3.2472,3.5072 -3.2472,3.5072 2.6222,-3.6061 z m -413.86119,-35.2457 c -11.59962,-3.5694 -13.98354,-12.3725 -7.22139,-26.6665 2.20487,-4.6607 3.32926,-8.4822 2.68518,-9.1263 -0.64407,-0.6441 -3.61935,0.2272 -7.10541,2.0808 -7.58684,4.0339 -11.9339,4.0296 -16.74253,-0.016 -9.25788,-7.79 -8.25407,-28.3556 1.86266,-38.1611 3.85282,-3.7343 5.19307,-4.2586 10.88679,-4.2586 5.2638,0 7.558,0.7467 12.11808,3.9443 3.09375,2.1693 6.98868,6.1912 8.65538,8.9375 2.49488,4.111 3.91672,5.1351 8.04613,5.7954 3.88508,0.6213 5.26835,0.3507 6.13629,-1.2002 5.22046,-9.3284 16.66546,-16.4424 24.18361,-15.032 8.07031,1.514 16.74374,14.1392 16.72161,24.3402 -0.0232,10.7445 -7.5861,21.3622 -15.18052,21.3124 -2.30313,-0.015 -6.63955,-1.1401 -9.6365,-2.5 -2.99696,-1.3599 -6.23134,-2.4726 -7.1875,-2.4726 -2.33859,0 -2.20661,3.0554 0.21892,5.0684 3.3706,2.7974 5.54258,8.3417 5.54258,14.1484 0,4.4954 -0.70634,6.2972 -3.60479,9.1957 -6.40371,6.4037 -18.55714,8.2483 -30.37859,4.6107 z m 251.63289,0.6108 c -6.5937,-2.0129 -9.9025,-4.723 -11.4347,-9.3657 -1.7166,-5.2014 -0.764,-10.3038 3.5379,-18.9484 4.1466,-8.3327 2.6332,-10.9416 -3.7189,-6.4111 -6.1348,4.3755 -15.211,4.1744 -19.167,-0.4247 -8.95,-10.405 -5.6504,-32.5427 5.9343,-39.814 8.294,-5.2059 21.1947,-0.301 28.7341,10.9249 2.6549,3.9531 4.5084,5.3225 8.1208,6.0002 4.0548,0.7607 4.9295,0.4871 6.5409,-2.046 6.8461,-10.7623 17.3688,-16.2915 25.7442,-13.5274 8.9912,2.9674 15.3299,15.5477 13.9032,27.5936 -1.759,14.8526 -11.8008,21.0884 -23.9693,14.8846 -2.697,-1.375 -5.6284,-2.5 -6.5143,-2.5 -2.576,0 -1.8677,3.7086 1.4646,7.6688 6.7096,7.974 4.8535,18.8081 -4.114,24.0129 -4.885,2.8353 -18.6554,3.908 -25.0618,1.9523 z m 99.2804,-16.4465 c -0.9097,-2.891 -1.6043,-15.0377 -0.9935,-17.3734 0.8211,-3.1399 1.9106,-2.8939 3.6335,0.8206 0.7947,1.7134 0.9353,3.1153 0.3125,3.1153 -2.0268,0 -1.3096,10.0105 0.7745,10.8102 1.4705,0.5643 1.5785,1.1275 0.4719,2.4608 -1.7843,2.15 -3.5527,2.2201 -4.1989,0.1665 z m 11.3681,-12.8125 c -0.5183,-1.3506 0.1325,-1.875 2.327,-1.875 2.1945,0 2.8453,0.5244 2.327,1.875 -0.3957,1.0312 -1.4429,1.875 -2.327,1.875 -0.8841,0 -1.9313,-0.8438 -2.327,-1.875 z m -12.6741,-31.4297 c -1.2328,-1.2328 -1.7725,-3.1079 -1.3491,-4.6875 0.3881,-1.448 1.0735,-3.9618 1.523,-5.586 0.7872,-2.8442 0.6295,-2.9215 -4.271,-2.0936 -4.3245,0.7307 -5.2901,0.4827 -6.4325,-1.6521 -3.3668,-6.2908 0.2118,-15.1761 6.1122,-15.1761 1.3511,0 4.3785,1.6875 6.7275,3.75 5.2018,4.5673 7.7682,4.7061 11.5505,0.625 5.6301,-6.0751 13.0155,-2.4215 13.0155,6.4388 0,5.6836 -2.9274,8.2038 -8.3482,7.1869 l -4.3524,-0.8166 0.8506,5.6719 c 0.7372,4.9158 0.5115,5.8534 -1.6925,7.033 -3.7794,2.0226 -10.9926,1.6474 -13.3336,-0.6937 z m -337.94417,-14.9613 c -0.78857,-2.8276 -2.8391,-7.2119 -4.55674,-9.743 -1.71765,-2.5311 -3.123,-5.1395 -3.123,-5.7965 0,-1.3252 15.35432,-1.6735 16.6501,-0.3777 0.44922,0.4492 -0.36778,2.7334 -1.81555,5.0759 -1.44778,2.3426 -3.32729,6.8969 -4.17669,10.1207 l -1.54437,5.8616 -1.43375,-5.141 z m 250.56917,0.3617 c -0.4287,-2.2849 -2.46,-6.8044 -4.5141,-10.0434 -2.0542,-3.239 -3.7348,-6.1508 -3.7348,-6.4707 0,-0.8573 14.4658,-0.7081 16.7616,0.1729 1.7208,0.6603 1.6528,1.1528 -0.5451,3.9469 -1.3811,1.7559 -3.3848,6.1977 -4.4525,9.8706 -1.0678,3.6729 -2.1201,6.678 -2.3386,6.678 -0.2184,0 -0.7479,-1.8694 -1.1765,-4.1543 z m 93.6261,-19.5957 c -0.4249,-0.6875 0.1376,-1.25 1.25,-1.25 1.1124,0 1.6749,0.5625 1.25,1.25 -0.4249,0.6875 -0.9874,1.25 -1.25,1.25 -0.2626,0 -0.8251,-0.5625 -1.25,-1.25 z M 712.06619,784.6632 c 0.43183,-0.69871 1.30878,-0.94677 1.94877,-0.55122 1.73381,1.07153 1.41052,1.82161 -0.78514,1.82161 -1.07182,0 -1.59546,-0.57168 -1.16363,-1.27039 z m 83.84065,-4.81255 c -0.36811,-0.59562 0.35509,-2.01 1.60711,-3.14307 1.9719,-1.78454 2.89882,-4.02144 6.00973,-14.50318 0.30267,-1.0198 1.88094,1.41974 3.50725,5.4212 1.62631,4.00146 3.8436,8.25514 4.9273,9.45261 1.0837,1.19748 1.97036,2.55482 1.97036,3.0163 0,1.24952 -17.243,1.01619 -18.02175,-0.24386 z m 251.45886,0.35343 c -0.4012,-0.40124 0.4092,-2.65935 1.8008,-5.01804 1.3917,-2.3587 3.2388,-6.95229 4.1047,-10.20799 1.5627,-5.87511 1.5815,-5.89136 2.5098,-2.16946 0.5145,2.0625 2.5582,6.6946 4.5415,10.29356 1.9834,3.59896 3.6061,6.83334 3.6061,7.1875 0,0.89425 -15.664,0.81331 -16.5629,-0.0856 z m -328.87113,-4.27049 c -5.20183,-4.56726 -7.76819,-4.70614 -11.55046,-0.625 -5.63016,6.07505 -13.01552,2.42147 -13.01552,-6.43885 0,-5.6836 2.92739,-8.20375 8.34815,-7.18681 l 4.3524,0.81651 -0.85056,-5.6719 c -0.73716,-4.91575 -0.51152,-5.85334 1.69255,-7.03292 6.72567,-3.59947 16.20413,-0.11825 14.66975,5.38782 -2.57235,9.23081 -2.79614,8.61177 2.77314,7.67085 4.31132,-0.7284 5.27857,-0.47919 6.42031,1.65417 3.36676,6.29084 -0.21183,15.17613 -6.11225,15.17613 -1.35107,0 -4.37846,-1.6875 -6.72751,-3.75 z M 823.804,763.44489 c -4.04732,-2.13918 -8.20159,-6.29059 -13.62541,-13.61608 -1.03125,-1.39282 -3.84375,-2.86592 -6.25,-3.27356 -4.10121,-0.69477 -4.64879,-0.36585 -8.75,5.25609 -9.12564,12.50941 -21.60732,14.82671 -30.20645,5.60799 -9.65656,-10.35234 -9.73405,-28.13894 -0.15921,-36.54576 4.94442,-4.34126 8.82898,-4.61596 16.43966,-1.16253 9.47572,4.29972 10.99614,3.1341 5.83405,-4.47266 -8.61638,-12.69694 -3.59704,-23.75937 12.29249,-27.09224 8.9593,-1.87923 19.42262,0.34182 24.96951,5.30028 3.46827,3.10035 3.9441,4.29859 3.8668,9.73742 -0.0597,4.20616 -1.2367,8.4721 -3.65721,13.25617 -4.37045,8.63804 -3.18332,11.23614 3.34136,7.31265 6.20361,-3.73042 10.4366,-4.35014 15.43846,-2.26023 11.55469,4.82786 11.92763,28.3982 0.62809,39.69772 -4.0744,4.0744 -5.51348,4.73565 -10.20299,4.68819 -3.00276,-0.0304 -7.48437,-1.12544 -9.95915,-2.43345 z m 250.3529,-0.18456 c -2.9681,-1.4692 -6.9056,-4.61865 -8.75,-6.99878 -6.3825,-8.23665 -7.1213,-8.88117 -11.106,-9.68892 -3.7156,-0.7532 -4.3248,-0.36303 -8.4944,5.44085 -7.6304,10.62087 -18.7186,14.1424 -26.9865,8.57065 -8.9375,-6.02297 -12.9877,-18.99185 -9.443,-30.23685 3.7214,-11.80572 12.0244,-15.82033 22.3657,-10.81418 9.5726,4.634 12.668,2.77489 6.3535,-3.81595 -2.5514,-2.66316 -3.4659,-5.08936 -3.9025,-10.3534 -0.5384,-6.49254 -0.3323,-7.11298 3.7035,-11.14881 6.8622,-6.86215 17.3988,-8.71778 29.3495,-5.1688 8.7929,2.61121 11.0569,5.52003 11.0569,14.20619 0,5.32426 -0.8668,8.70542 -3.5312,13.77502 -4.3739,8.32193 -3.1317,10.52412 3.5923,6.36849 6.3757,-3.94043 14.3672,-4.02107 18.45,-0.18618 6.6112,6.20983 7.5893,22.71447 1.9416,32.76317 -5.4471,9.69184 -14.3898,12.3411 -24.5994,7.2875 z M 717.51072,723.74609 c -0.0923,-1.20313 -0.0384,-4.61727 0.11995,-7.58699 0.21131,-3.96413 -0.30239,-5.83106 -1.93241,-7.02296 -2.09831,-1.53432 -2.07475,-1.70132 0.42919,-3.04139 3.3846,-1.81138 3.7382,-1.12003 4.07312,7.96384 0.37413,10.14685 0.18901,11.875 -1.27198,11.875 -0.6875,0 -1.32554,-0.98438 -1.41787,-2.1875 z m -14.51963,-4.375 c 0.28646,-0.85938 1.27083,-1.5625 2.1875,-1.5625 0.91667,0 1.90104,0.70312 2.1875,1.5625 0.30983,0.92949 -0.57639,1.5625 -2.1875,1.5625 -1.61111,0 -2.49733,-0.63301 -2.1875,-1.5625 z m -41.5625,-68.4375 c 2.56667,-1.65871 537.43331,-1.65871 540.00001,0 1.2136,0.78432 -94.0201,1.21172 -270.00001,1.21172 -175.97991,0 -271.21366,-0.4274 -270,-1.21172 z m 120.3125,-45.93745 c 82.32812,-0.17747 217.04687,-0.17747 299.37501,0 82.3281,0.17746 14.9687,0.32267 -149.68751,0.32267 -164.65625,0 -232.01563,-0.14521 -149.6875,-0.32267 z"
         id="path3538"
         inkscape:connector-curvature="0" />
    </g>
  </g>
</svg>
