<?xml version="1.0" encoding="UTF-8" standalone="no"?>
<!-- Created with Inkscape (http://www.inkscape.org/) -->

<svg
   xmlns:dc="http://purl.org/dc/elements/1.1/"
   xmlns:cc="http://creativecommons.org/ns#"
   xmlns:rdf="http://www.w3.org/1999/02/22-rdf-syntax-ns#"
   xmlns:svg="http://www.w3.org/2000/svg"
   xmlns="http://www.w3.org/2000/svg"
   xmlns:sodipodi="http://sodipodi.sourceforge.net/DTD/sodipodi-0.dtd"
   xmlns:inkscape="http://www.inkscape.org/namespaces/inkscape"
   width="176.45633mm"
   height="246.30643mm"
   viewBox="0 0 625.23896 872.73931"
   id="svg2"
   version="1.1"
   inkscape:version="0.91 r13725"
   sodipodi:docname="5.svg">
  <defs
     id="defs4" />
  <sodipodi:namedview
     id="base"
     pagecolor="#ffffff"
     bordercolor="#666666"
     borderopacity="1.0"
     inkscape:pageopacity="0.0"
     inkscape:pageshadow="2"
     inkscape:zoom="0.35"
     inkscape:cx="655.46226"
     inkscape:cy="191.18294"
     inkscape:document-units="px"
     inkscape:current-layer="layer1"
     showgrid="false"
     fit-margin-top="0"
     fit-margin-left="0"
     fit-margin-right="0"
     fit-margin-bottom="0"
     inkscape:window-width="784"
     inkscape:window-height="822"
     inkscape:window-x="800"
     inkscape:window-y="0"
     inkscape:window-maximized="0" />
  <metadata
     id="metadata7">
    <rdf:RDF>
      <cc:Work
         rdf:about="">
        <dc:format>image/svg+xml</dc:format>
        <dc:type
           rdf:resource="http://purl.org/dc/dcmitype/StillImage" />
        <dc:title></dc:title>
      </cc:Work>
    </rdf:RDF>
  </metadata>
  <g
     inkscape:label="Calque 1"
     inkscape:groupmode="layer"
     id="layer1"
     transform="translate(621.89085,149.19407)">
    <g
       style="display:inline"
       id="g3572"
       transform="translate(-1237.8428,231.95424)">
      <path
         style="fill:#fdfdfd"
         d="m 616.07141,55.21933 0,-436.25 312.5,0 312.49999,0 0,436.25 0,436.25 -312.49999,0 -312.5,0 0,-436.25 z"
         id="path3588"
         inkscape:connector-curvature="0" />
      <path
         style="fill:#e6e6e6"
         d="m 622.19664,489.91107 c -1.89593,-0.75393 -3.84873,-2.94868 -4.6875,-5.26827 -2.06679,-5.71559 -2.07005,-853.12232 -0.003,-858.8378 0.96852,-2.67839 2.72286,-4.43273 5.40125,-5.40125 5.69847,-2.06059 605.63021,-2.06059 611.32861,0 2.6784,0.96852 4.4328,2.72286 5.4013,5.40125 2.0638,5.70731 2.0638,853.12135 0,858.82865 -0.9685,2.67839 -2.7229,4.43274 -5.4013,5.40125 -5.3415,1.93154 -607.17662,1.80977 -612.03905,-0.12387 z m 611.47096,-5.84559 3.6538,-3.65384 0,-425.19231 0,-425.19231 -3.6538,-3.65384 -3.6539,-3.65385 -301.44229,0 -301.44231,0 -3.65384,3.65385 -3.65385,3.65384 0,425.19231 0,425.19231 3.65385,3.65384 3.65384,3.65385 301.44231,0 301.44229,0 3.6539,-3.65385 z M 656.6992,449.50479 c -2.06097,-1.07721 -4.79043,-2.90266 -6.06548,-4.05656 -6.1617,-5.57626 -5.81231,17.88101 -5.81231,-390.2289 0,-336.43552 0.22078,-381.8011 1.87369,-384.99746 1.03052,-1.99282 3.93986,-5.19926 6.46519,-7.12542 l 4.59151,-3.50212 270.81961,0 270.81959,0 4.5915,3.50212 c 2.5254,1.92616 5.4347,5.1326 6.4652,7.12542 1.6529,3.19636 1.8737,48.56194 1.8737,384.99746 0,336.43552 -0.2208,381.8011 -1.8737,384.99746 -1.0305,1.99281 -3.9398,5.19927 -6.4651,7.12543 l -4.5914,3.50211 -269.47241,0.30951 c -242.60164,0.27867 -269.84604,0.11423 -273.21959,-1.64905 z m 543.1222,-11.78546 c 2.489,-2.48904 2.5,-4.16666 2.5,-382.5 0,-378.33333 -0.011,-380.01097 -2.5,-382.5 -2.4845,-2.4845 -4.1667,-2.5 -271.24999,-2.5 -267.08333,0 -268.7655,0.0155 -271.25,2.5 -2.48904,2.48904 -2.5,4.16667 -2.5,382.5 0,378.33334 0.011,380.01096 2.5,382.5 2.4845,2.4845 4.16667,2.5 271.25,2.5 267.08329,0 268.76549,-0.0155 271.24999,-2.5 z m -405.62499,-25.78 c -18.77604,-4.75336 -24.16989,-14.57337 -17.50614,-31.87156 0.52833,-1.37147 -0.83833,-1.6386 -6.69175,-1.30802 -6.74498,0.38094 -7.7259,0.0904 -11.81507,-3.49998 -5.42464,-4.76289 -7.57798,-10.74541 -7.43828,-20.66544 0.2713,-19.26424 13.38916,-33.2625 27.5877,-29.43924 5.54814,1.49396 15.93365,8.06524 16.9556,10.7284 0.38746,1.00972 1.23929,1.83584 1.89295,1.83584 2.7989,0 -3.00054,-14.42025 -7.47649,-18.59022 -1.55019,-1.44424 -2.42293,-3.57087 -2.17414,-5.29785 0.52867,-3.66987 7.36546,-5.35238 17.66075,-4.34625 12.15973,1.18832 15.15187,4.52195 9.09614,10.13421 -2.94401,2.72841 -6.96627,13.45674 -6.96627,18.58067 0,2.18656 0.63119,1.92208 4.6875,-1.96415 7.10081,-6.80307 12.10021,-8.88505 19.80179,-8.24639 8.4896,0.70403 14.29797,5.0487 18.42736,13.78368 4.53416,9.59121 5.15096,14.604 2.79439,22.71032 -3.59943,12.38162 -12.59824,19.40223 -22.4905,17.54643 l -4.43516,-0.83204 1.38513,3.97343 c 1.71473,4.91885 0.80908,12.39108 -2.0263,16.71841 -4.30325,6.56759 -22.24563,12.33416 -31.26921,10.04975 z m 246.87499,-1.06199 c -8.4396,-2.73787 -11.0763,-4.45692 -13.9379,-9.08705 -2.1173,-3.42586 -2.4802,-5.53772 -1.9467,-11.32841 0.3606,-3.91465 1.0183,-8.24255 1.4615,-9.61755 0.7531,-2.3367 0.3256,-2.47304 -6.5456,-2.08731 -6.409,0.35979 -7.842,-1.3e-4 -11.1787,-2.80785 -14.03088,-11.80618 -9.10479,-42.14303 8.0773,-49.74349 8.6558,-3.82889 16.7835,-1.55422 26.8085,7.50276 l 5.0891,4.59769 -0.9413,-4.3559 c -1.2468,-5.7697 -4.7464,-12.54174 -8.0032,-15.48714 -6.015,-5.43981 -0.5426,-9.5952 12.367,-9.39072 13.9663,0.22121 20.0528,5.3653 12.7428,10.76979 -3.4136,2.52377 -4.6655,5.53798 -7.1253,17.15559 l -0.7735,3.65344 5.216,-4.7124 c 12.0688,-10.90342 25.3535,-11.14164 34.2124,-0.61345 8.1387,9.67233 9.982,24.64924 4.3887,35.65951 -3.8374,7.55373 -11.7079,12.26558 -18.7187,11.20624 l -4.4326,-0.66979 0.4796,7.78652 c 0.4047,6.57043 0.023,8.46978 -2.4442,12.16151 -5.9015,8.83061 -22.6313,13.35406 -34.7952,9.40801 z m 95.8333,-16.49135 c -1.5068,-1.50685 -0.8696,-6.73117 0.904,-7.41178 1.3278,-0.50951 1.0331,-1.37087 -1.25,-3.65396 -4.0926,-4.09261 -4.056,-10.89585 0.081,-15.03273 2.6599,-2.65998 4.2066,-3.06819 11.625,-3.06819 8.7986,0 11.5568,1.23539 11.5568,5.17622 0,3.03393 -2.0659,4.05434 -10,4.93935 l -6.875,0.76688 6.4732,0.18377 c 8.115,0.23039 10.4018,2.32904 10.4018,9.54583 0,9.18958 -0.2493,9.38795 -11.8004,9.38795 -5.6556,0 -10.6579,-0.375 -11.1163,-0.83334 z m 2.0228,-43.44663 c -3.7735,-1.70199 -4.5922,-3.16298 -5.6265,-10.04022 -0.2136,-1.42043 -1.6746,-2.7452 -3.4862,-3.16102 -1.8928,-0.43449 -3.9946,-2.42108 -5.3478,-5.0548 -5.3135,-10.34139 3.5534,-23.73784 13.2673,-20.04463 3.2115,1.221 3.3338,1.12773 2.5607,-1.95272 -0.5353,-2.13276 -0.2219,-3.60864 0.9197,-4.33166 2.601,-1.64723 9.0786,-1.35452 11.6511,0.52648 1.8558,1.35699 2.0141,2.14364 0.8639,4.29282 -2.0222,3.77843 -1.7927,4.13 1.8035,2.76273 9.397,-3.57276 17.8727,7.29687 14.2497,18.27463 -1.059,3.20877 -2.6536,4.98849 -5.5565,6.2014 -2.9361,1.22676 -4.2802,2.74567 -4.8206,5.4473 -1.387,6.93534 -12.3758,10.73431 -20.4783,7.07969 z M 916.38391,103.82085 c -5.15033,-1.4871 -5.30769,-4.66402 -0.47061,-9.501107 2.34014,-2.340138 4.08261,-5.880026 5,-10.157676 2.12959,-9.929899 1.81459,-10.742674 -2.33279,-6.019075 -5.41055,6.162275 -15.08835,10.035763 -22.35244,8.94645 -7.67088,-1.150325 -14.98668,-8.432025 -18.83292,-18.745112 -3.29108,-8.824513 -2.96425,-13.69195 1.58682,-23.6328 4.1777,-9.1253 9.06884,-12.308013 17.91269,-11.655925 6.35201,0.468362 6.43129,0.430875 5.3125,-2.511788 -3.48409,-9.163825 0.53206,-18.677762 10.16263,-24.074487 4.74422,-2.65855 7.16257,-3.1215375 16.20162,-3.1018125 13.91435,0.030375 21.13191,3.2364 24.92486,11.0715995 3.02943,6.25795 3.07867,7.044238 0.95407,15.234813 l -1.62108,6.249412 6.98403,-0.0395 c 4.72103,-0.02675 8.11941,0.703463 10.488,2.253425 8.67027,5.673663 11.4143,24.364613 5.47996,37.326913 -7.95894,17.3846 -24.8761,19.466075 -40.11024,4.935137 l -4.77539,-4.554975 0.87927,3.75 c 1.46806,6.261225 3.75007,11.051238 7.2321,15.18045 4.16922,4.944113 4.20113,7.669298 0.108,9.225488 -3.96125,1.50606 -17.25722,1.40112 -22.73113,-0.17941 z M 704.27706,-196.44213 c -1.85581,-1.35699 -2.01412,-2.14364 -0.86392,-4.29281 2.02216,-3.77844 1.79267,-4.13 -1.80348,-2.76274 -13.42894,5.10566 -21.80205,-18.9988 -8.52639,-24.54573 2.54666,-1.06406 4.23814,-2.65088 4.23814,-3.9759 0,-6.05836 8.86846,-11.22087 16.73931,-9.74428 6.0123,1.12791 8.49187,3.48403 9.37329,8.90663 0.62233,3.82867 1.44009,4.99429 3.89992,5.5589 1.88654,0.43303 3.9906,2.42345 5.3419,5.0534 5.31352,10.34139 -3.55344,23.73784 -13.26732,20.04463 -3.21148,-1.221 -3.3338,-1.12773 -2.56066,1.95272 0.53529,2.13277 0.22192,3.60864 -0.91976,4.33167 -2.60098,1.64722 -9.07861,1.35451 -11.65103,-0.52649 z m 88.56024,-4.51701 c -7.90322,-1.88939 -8.85527,-4.72484 -3.18772,-9.49377 3.32232,-2.79553 4.72723,-6.26652 7.06419,-17.45276 l 0.78343,-3.75 -4.77539,4.54978 c -6.46994,6.16423 -11.67849,8.57522 -18.5254,8.57522 -6.94088,0 -11.4939,-2.18725 -16.55713,-7.95394 -10.44353,-11.89452 -9.35164,-32.77421 2.22323,-42.51382 3.91831,-3.29705 6.0945,-3.85892 13.14756,-3.39459 l 3.81365,0.25107 -0.44401,-7.88186 c -0.35707,-6.33843 0.0652,-8.69387 2.15666,-12.02854 3.00098,-4.78494 13.7105,-10.24523 21.90634,-11.16901 7.5422,-0.85012 18.62921,2.72047 24.14889,7.77719 4.37934,4.01203 4.60441,4.6059 4.59676,12.12855 -0.005,4.35047 -0.45355,9.32242 -0.99805,11.04877 -0.97086,3.07819 -0.87915,3.13001 4.74777,2.68248 10.92578,-0.86896 16.23013,3.49717 19.99901,16.46163 1.78777,6.14972 1.87323,8.19632 0.57303,13.72237 -3.60911,15.33921 -12.52055,24.68171 -23.45758,24.59225 -5.03832,-0.0412 -14.00225,-4.53051 -19.42513,-9.72844 l -4.81899,-4.61911 0.90704,4.375 c 1.19231,5.75094 3.91884,11.10206 7.73911,15.18891 3.94792,4.22339 3.34475,7.67427 -1.52342,8.71607 -5.06901,1.08477 -15.38643,1.04192 -20.09385,-0.0835 z m 251.25,0 c -2.1225,-0.50743 -4.5131,-1.32679 -5.3125,-1.82083 -2.1031,-1.29976 -1.7849,-5.70197 0.4749,-6.5691 2.7965,-1.07315 6.4431,-8.9027 7.4918,-16.08594 l 0.9082,-6.22066 -4.7447,4.83715 c -2.6095,2.66044 -6.6028,5.61356 -8.874,6.5625 -6.0625,2.53308 -15.3297,2.17629 -20.1729,-0.77666 -5.3384,-3.25484 -11.0556,-12.39949 -12.8974,-20.62934 -3.6435,-16.28097 9.1825,-33.7418 22.7867,-31.02095 l 3.634,0.7268 -0.8012,-6.81666 c -1.312,-11.16317 4.7019,-19.11751 17.2774,-22.85202 8.1389,-2.41702 10.9433,-2.39166 20.1153,0.18189 15.0502,4.22286 20.3089,15.56198 14.1043,30.41229 -0.6491,1.5535 0.5948,1.875 7.2547,1.875 6.8513,0 8.5305,0.46138 11.3729,3.125 1.8342,1.71875 4.194,5.09375 5.244,7.5 2.2856,5.23788 2.5527,20.28091 0.4549,25.625 -4.7044,11.98448 -14.5127,19.05663 -24.3777,17.57728 -5.7274,-0.85888 -16.1597,-6.96335 -18.6127,-10.89122 -4.1701,-6.67747 -2.975,2.40619 1.4551,11.0594 1.477,2.88502 3.584,5.74835 4.6823,6.36298 3.4072,1.90677 1.7329,7.00059 -2.6043,7.92312 -5.078,1.08012 -14.1565,1.03918 -18.8591,-0.085 z m -345.31276,-54.91953 c -0.91952,-0.58285 -1.48202,-2.40236 -1.25,-4.04336 0.37826,-2.67521 1.13256,-3.02335 7.29687,-3.36774 9.35375,-0.5226 11.27592,-2.7409 2.375,-2.7409 -3.78125,0 -7.55,-0.675 -8.375,-1.5 -1.56201,-1.56201 -2.0606,-11.83464 -0.74126,-15.27277 0.60812,-1.58474 2.83257,-1.97723 11.20602,-1.97723 9.0496,0 10.62039,0.32347 11.74126,2.41782 1.67864,3.13657 1.65882,3.28877 -0.74092,5.68851 -1.87987,1.87987 -1.83226,2.2237 0.625,4.51298 1.83231,1.70706 2.6599,3.99038 2.6599,7.33866 0,7.24932 -4.14777,10.04768 -14.85607,10.02289 -4.54791,-0.01 -9.02127,-0.49602 -9.9408,-1.07886 z"
         id="path3586"
         inkscape:connector-curvature="0" />
      <path
         style="fill:#d6d6d6"
         d="m 622.459,489.72494 c -6.71212,-3.72024 -6.29564,24.78369 -6.3433,-434.134297 -0.0341,-328.088243 0.3003,-427.259973 1.44907,-429.781243 3.33324,-7.31567 -18.2831,-6.84007 310.88575,-6.84007 231.87038,0 303.26858,0.34869 305.78078,1.49336 7.3554,3.35134 6.8401,-29.40324 6.8401,434.75664 0,464.15988 0.5153,431.4053 -6.8401,434.75664 -5.0745,2.31212 -607.59389,2.0649 -611.7723,-0.25103 z m 604.8624,-0.75561 c 0,-0.6875 0.9481,-1.25 2.1069,-1.25 2.8688,0 7.8931,-4.91276 7.8931,-7.71789 0,-1.25516 0.5625,-2.28211 1.25,-2.28211 0.8309,0 1.25,-141.66666 1.25,-422.5 0,-280.83334 -0.4191,-422.5 -1.25,-422.5 -0.6875,0 -1.25,-1.08417 -1.25,-2.40927 0,-2.58071 -5.4739,-7.59073 -8.2936,-7.59073 -0.9385,0 -1.7064,-0.5625 -1.7064,-1.25 0,-0.82985 -100.4167,-1.25 -298.74999,-1.25 -198.33333,0 -298.75,0.42015 -298.75,1.25 0,0.6875 -0.76789,1.25 -1.70643,1.25 -2.81966,0 -8.29357,5.01002 -8.29357,7.59073 0,1.3251 -0.5625,2.40927 -1.25,2.40927 -0.83087,0 -1.25,141.66666 -1.25,422.5 0,280.83334 0.41913,422.5 1.25,422.5 0.6875,0 1.25,0.94813 1.25,2.10694 0,2.8688 4.91276,7.89306 7.71789,7.89306 1.25516,0 2.28211,0.5625 2.28211,1.25 0,0.82985 100.41667,1.25 298.75,1.25 198.33329,0 298.74999,-0.42015 298.74999,-1.25 z m -572.62473,-41.4171 c -2.47486,-1.43533 -5.42798,-4.18108 -6.5625,-6.10166 -1.90492,-3.22477 -2.06276,-32.77894 -2.06276,-386.23124 0,-354.35788 0.15386,-382.99974 2.07491,-386.25181 1.1412,-1.9319 4.17091,-4.69057 6.73269,-6.13037 l 4.65779,-2.61782 269.03461,0 269.03459,0 4.6578,2.61782 c 2.5618,1.4398 5.5915,4.19847 6.7327,6.13037 1.921,3.25207 2.0749,31.89393 2.0749,386.25181 0,354.35788 -0.1539,382.99974 -2.0749,386.25181 -1.1412,1.9319 -4.1709,4.69056 -6.7327,6.13036 l -4.6578,2.61783 -269.20478,-0.0287 -269.20481,-0.0287 -4.49974,-2.60968 z m 545.55773,-8.42345 c 1.9144,-1.58893 2.067,-29.87484 2.067,-383.1986 0,-327.49389 -0.2511,-381.82642 -1.7742,-383.90944 -1.7469,-2.38892 -5.9485,-2.42641 -271.97579,-2.42641 -266.1326,0 -270.22828,0.0366 -271.97778,2.42917 -1.52746,2.08892 -1.7322,55.92166 -1.46174,384.338093 l 0.31452,381.908907 3.125,1.58569 c 4.81855,2.44504 538.72439,1.72805 541.68299,-0.72741 z M 788.78246,409.61263 c -12.31035,-3.84152 -16.84725,-14.20233 -12.05,-27.5183 0.99071,-2.75 1.80977,-5.1267 1.82013,-5.28156 0.01,-0.15486 -1.42404,0.26701 -3.18755,0.9375 -8.01402,3.04692 -16.17232,-0.0695 -20.6514,-7.88871 -2.49927,-4.36302 -3.01723,-6.98391 -3.01723,-15.26723 0,-8.7355 0.46624,-10.84166 3.68709,-16.65607 4.23477,-7.64477 11.56132,-12.71893 18.3648,-12.71893 5.95922,0 16.55905,5.54388 21.07507,11.02259 l 3.74804,4.54702 -0.0125,-3.72231 c -0.0151,-4.62842 -4.98076,-15.4194 -8.56063,-18.60354 -6.32918,-5.62956 -1.42416,-8.6566 13.04998,-8.05352 7.83036,0.32625 10.97755,0.97784 12.61009,2.61076 2.06736,2.06784 1.98372,2.37849 -1.6826,6.25 -4.02927,4.25476 -5.90857,8.9922 -7.31856,18.449 l -0.83868,5.625 5.15724,-5.2964 c 9.27274,-9.52294 17.67014,-12.07133 26.66547,-8.09225 6.14156,2.7167 10.71075,8.06356 13.86639,16.22645 4.23359,10.95125 1.43236,23.4286 -6.96256,31.0129 -4.90069,4.42749 -5.33712,4.56593 -12.38139,3.92716 -6.79726,-0.61635 -7.2167,-0.50338 -6.07209,1.63535 2.07183,3.87123 1.4328,13.98815 -1.1512,18.22573 -3.60195,5.90695 -13.84784,10.50554 -23.17717,10.40244 -4.16189,-0.046 -10.00335,-0.84388 -12.98103,-1.77308 z m 252.28084,0.68878 c -15.11,-4.59627 -18.6158,-12.86265 -13.0939,-30.87472 0.7808,-2.54682 0.5972,-2.60876 -4.0531,-1.36751 -2.679,0.71506 -6.3405,0.9313 -8.1366,0.4805 -11.6553,-2.9253 -17.71724,-19.25019 -12.7048,-34.21416 7.0948,-21.18035 26.3013,-25.34574 41.1392,-8.92199 2.5034,2.77096 4.8261,4.76362 5.1616,4.42814 1.7835,-1.78348 -5.0925,-18.9281 -8.8379,-22.03652 -2.5341,-2.10312 -2.5282,-5.84277 0.011,-6.81708 3.2912,-1.26295 18.636,-0.85069 22.8363,0.61355 4.7349,1.65061 5.0268,4.28528 0.8395,7.57898 -3.3099,2.60329 -6.9034,12.58296 -6.9034,19.1708 l 0,3.91833 6.1749,-5.95179 c 10.1875,-9.81948 20.8441,-10.9771 29.6749,-3.22355 10.1418,8.90463 13.1914,24.21227 7.3312,36.79933 -4.1397,8.89154 -9.0808,11.94822 -17.9717,11.11765 -5.6125,-0.52433 -6.5502,-0.3218 -5.9348,1.2819 6.1522,16.03239 -5.5095,29.38385 -25.3985,29.07862 -3.8506,-0.0591 -8.4109,-0.53631 -10.1341,-1.06048 z m 96.5081,-16.58208 c -2.5455,-2.54546 -1.6774,-4.79358 2.5625,-6.63641 3.1294,-1.36018 3.461,-1.77698 1.4437,-1.81467 -4.0058,-0.0748 -6.7562,-3.99971 -6.7562,-9.64111 0,-7.65121 2.6628,-9.35526 13.9123,-8.90311 8.8948,0.35752 9.2127,0.47814 9.2127,3.4953 0,2.92755 -0.4541,3.14869 -7.1875,3.49987 -5.1494,0.26858 -7.1875,0.87121 -7.1875,2.12513 0,1.25392 2.0381,1.85655 7.1875,2.12513 l 7.1875,0.37487 0.3813,6.66398 c 0.2197,3.83882 -0.2426,7.41583 -1.0905,8.4375 -1.8627,2.24437 -17.4778,2.46156 -19.6658,0.27352 z m 1.3942,-43.50873 c -3.598,-1.44967 -5.7917,-5.73731 -4.8517,-9.48269 0.615,-2.45042 0.2764,-3.00858 -1.8255,-3.00858 -4.3244,0 -8.7176,-5.48669 -8.7123,-10.88069 0.01,-9.83071 7.3648,-16.13212 15.3234,-13.12809 3.215,1.21353 3.5361,1.12685 2.7657,-0.74666 -2.0109,-4.89059 -1.3508,-5.8601 4.2635,-6.26224 6.8283,-0.48906 8.7011,1.07934 6.4072,5.36554 -1.8511,3.45893 -0.8403,5.72796 1.5063,3.3813 2.7048,-2.70475 8.4617,-1.689 12.3254,2.17469 4.9305,4.93054 5.21,13.65359 0.5856,18.27796 -1.6875,1.6875 -4.2187,3.06819 -5.625,3.06819 -1.9935,0 -2.5568,0.80623 -2.5568,3.65927 0,7.07841 -10.6416,11.19376 -19.6058,7.582 z M 915.13391,102.68038 c -3.4795,-1.39859 -3.63856,-4.431 -0.32544,-6.204125 1.36789,-0.732075 3.28423,-2.872587 4.25854,-4.7567 1.8805,-3.636488 4.87166,-17.799625 3.95315,-18.718137 -0.29954,-0.299551 -2.4026,1.5715 -4.67346,4.157874 -6.97834,7.947875 -19.20631,11.6089 -26.41997,7.91005 -8.76646,-4.495075 -15.86815,-16.915812 -15.84311,-27.7094 0.0151,-6.517375 4.78388,-17.065512 9.33298,-20.643837 4.26234,-3.35275 10.29252,-4.547888 14.62866,-2.899288 l 3.32284,1.263338 -0.68643,-9.076175 c -0.66853,-8.839613 -0.58292,-9.194063 3.2849,-13.599275 5.6904,-6.4810125 12.72324,-8.8194625 24.70467,-8.214425 11.46777,0.5790875 18.37497,3.4487125 21.79307,9.054 2.84115,4.659162 3.04973,12.897662 0.4821,19.04285 -1.03125,2.468137 -1.875,4.5861 -1.875,4.7066 0,0.1205 3.64753,-0.01313 8.10561,-0.29705 7.84664,-0.499625 8.2419,-0.379838 12.37116,3.749425 13.33832,13.338313 6.33409,43.670888 -11.17071,48.37595 -8.16819,2.1955 -17.0836,-1.331125 -24.7125,-9.7754 -4.24389,-4.697475 -4.59356,-4.858338 -4.59356,-2.113087 0,4.849112 3.58089,13.576262 7.6548,18.6559 5.54674,6.916052 3.7578,8.401672 -9.99535,8.300622 -5.93145,-0.0436 -12.05007,-0.58795 -13.59695,-1.20971 z M 704.16222,-197.33599 c -0.48713,-0.78819 -0.16224,-2.78483 0.72197,-4.43699 1.7898,-3.34426 0.71685,-5.53733 -1.58361,-3.23685 -2.70476,2.70475 -8.46164,1.689 -12.32532,-2.17469 -4.93055,-4.93054 -5.21005,-13.65359 -0.58567,-18.27796 1.6875,-1.6875 4.21875,-3.06819 5.625,-3.06819 1.99349,0 2.55682,-0.80622 2.55682,-3.65927 0,-5.92507 5.26752,-9.21834 13.64516,-8.53103 8.10875,0.66524 12.00773,4.23834 10.86418,9.95609 -0.57851,2.89256 -0.26798,3.48421 1.82873,3.48421 4.27528,0 8.66254,5.51404 8.65726,10.88069 -0.01,9.83071 -7.36484,16.13212 -15.32344,13.12809 -3.21499,-1.21353 -3.53605,-1.12685 -2.7657,0.74666 2.03824,4.95702 1.3727,5.85961 -4.60545,6.24592 -3.42277,0.22118 -6.18944,-0.21452 -6.70993,-1.05668 z m 85.97169,-4.98363 c -3.68758,-1.48222 -3.57073,-4.62984 0.28447,-7.66232 3.32009,-2.61159 6.90303,-12.58857 6.90303,-19.22203 l 0,-3.96956 -5.9375,5.93111 c -10.97315,10.96134 -21.87815,11.4482 -31.5861,1.41016 -9.48345,-9.8059 -11.5154,-23.33896 -5.2889,-35.22483 4.43295,-8.46212 9.80928,-11.64555 18.13431,-10.73768 l 5.94682,0.64852 -0.94682,-3.37971 c -1.72192,-6.14654 -1.00505,-13.7384 1.64236,-17.39291 1.38926,-1.91774 5.59377,-5.04548 9.34338,-6.95053 5.85701,-2.97577 8.05014,-3.41221 15.56745,-3.09802 12.42585,0.51934 20.09599,4.42304 23.40975,11.91434 2.48575,5.61946 2.30357,9.579 -0.91149,19.81094 -0.80596,2.565 -0.63052,2.6163 4.74255,1.38677 4.67675,-1.07019 6.36255,-0.8944 10.41934,1.08647 13.08471,6.38908 15.31635,30.77834 3.996,43.67152 -10.00575,11.3959 -22.34209,10.80802 -35.22066,-1.67843 l -6.06453,-5.87986 0.88794,4.375 c 1.31319,6.47033 5.51158,15.76794 8.23169,18.2296 2.89659,2.62138 3.09886,6.22876 0.40717,7.26166 -2.99415,1.14897 -20.76081,0.7558 -23.96026,-0.53021 z m 251.37789,0.0472 c -4.4634,-1.80086 -4.6687,-3.75476 -0.7927,-7.5442 3.7902,-3.70565 5.8199,-8.99606 7.1799,-18.71416 l 0.7872,-5.625 -4.0738,4.86842 c -4.432,5.29652 -14.6093,10.72493 -20.1436,10.74437 -12.0131,0.0422 -23.3974,-14.24393 -23.3974,-29.36125 0,-7.01513 5.6705,-17.94225 11.25,-21.6788 3.5645,-2.3871 5.4569,-2.80566 10.2149,-2.25925 l 5.8399,0.67067 -0.6908,-6.6934 c -0.906,-8.77835 0.029,-12.03105 4.798,-16.69375 7.983,-7.80491 22.5495,-9.84428 34.7919,-4.87105 11.4858,4.66591 15.5906,14.94288 10.6711,26.7169 -1.0312,2.46813 -1.875,4.64027 -1.875,4.82698 0,0.18671 2.3235,-0.18259 5.1634,-0.82066 13.8118,-3.1033 23.5819,8.77905 21.9708,26.72052 -1.3471,15.00091 -10.6015,25.95536 -21.9271,25.95536 -7.4132,0 -15.3558,-3.94097 -20.8288,-10.33489 -4.1414,-4.83831 -4.3783,-4.94587 -4.3783,-1.98778 0,5.44945 3.7301,14.33587 7.5562,18.00146 4.3025,4.12207 4.6373,6.22832 1.276,8.02723 -2.8922,1.54784 -19.5926,1.58522 -23.3918,0.0524 z m -342.71092,-57.1958 c 0.37505,-3.25948 0.77203,-3.45704 7.66558,-3.81484 9.31212,-0.48334 8.98711,-3.12357 -0.49211,-3.99766 l -6.77794,-0.625 -0.38075,-7.38405 c -0.26096,-5.0612 0.13226,-7.70942 1.25,-8.41836 2.77462,-1.75981 16.55722,-1.23648 19.20434,0.7292 3.90669,2.901 0.91967,6.17227 -6.45049,7.06433 l -6.1231,0.74112 5.17402,0.19638 c 9.62785,0.36543 14.574,8.70678 9.20795,15.52861 -2.52849,3.21445 -3.28284,3.41777 -12.68072,3.41777 l -9.99231,0 0.39553,-3.4375 z"
         id="path3584"
         inkscape:connector-curvature="0" />
      <path
         style="fill:#a5a5a5"
         d="m 624.19641,489.94978 c -3.28607,-1.8974 -4.91863,-3.57495 -6.67758,-6.86156 -2.08917,-3.90365 -2.08917,-851.83413 0,-855.73777 1.82681,-3.41343 3.52027,-5.10689 6.9337,-6.9337 3.89912,-2.08675 604.33867,-2.08675 608.23777,0 3.4134,1.82681 5.1069,3.52027 6.9337,6.9337 2.0892,3.90364 2.0892,851.83412 0,855.73777 -1.8268,3.41341 -3.5203,5.10688 -6.9337,6.93369 -3.8922,2.08302 -604.88482,2.01178 -608.49389,-0.0721 z m 607.52699,-1.70204 c 8.8441,-4.19678 8.098,35.69751 8.098,-433.02841 0,-382.39072 -0.1882,-423.14381 -1.9716,-426.902 -4.1703,-8.78829 22.1934,-8.098 -309.27839,-8.098 -331.47178,0 -305.10809,-0.69029 -309.27841,8.098 -1.78338,3.75819 -1.97159,44.51128 -1.97159,426.902 0,381.67551 0.19078,423.14922 1.96373,426.88544 4.15068,8.7469 -22.31391,8.05457 309.09736,8.0861 269.9061,0.0256 299.5927,-0.16449 303.3409,-1.94313 z M 656.08718,447.37568 c -3.17139,-1.67707 -6.32885,-4.61769 -7.6966,-7.168 -2.24435,-4.18484 -2.31917,-16.60522 -2.31917,-384.98835 0,-368.38312 0.0748,-380.80351 2.31917,-384.98835 1.36775,-2.55031 4.52521,-5.49092 7.6966,-7.16799 l 5.37744,-2.84366 267.10679,0 267.10679,0 5.3774,2.84366 c 3.1714,1.67707 6.3289,4.61768 7.6966,7.16799 2.2444,4.18484 2.3192,16.60523 2.3192,384.98835 0,368.38313 -0.075,380.80351 -2.3192,384.98835 -1.3677,2.55031 -4.5252,5.49093 -7.6966,7.168 l -5.3774,2.84365 -267.10679,0 -267.10679,0 -5.37744,-2.84365 z m 544.98422,-8.40635 c 2.4891,-2.48907 2.5,-4.16666 2.5,-383.75 0,-379.58333 -0.011,-381.26093 -2.5,-383.75 -2.4846,-2.48457 -4.1667,-2.5 -272.49999,-2.5 -268.33333,0 -270.01543,0.0154 -272.5,2.5 -2.48907,2.48907 -2.5,4.16667 -2.5,383.75 0,379.58334 0.0109,381.26093 2.5,383.75 2.48457,2.48456 4.16667,2.5 272.5,2.5 268.33329,0 270.01539,-0.0154 272.49999,-2.5 z M 794.70011,410.18384 c -7.25976,-1.20346 -12.68033,-3.98952 -16.01833,-8.23311 -3.18419,-4.04805 -3.54111,-14.19851 -0.73537,-20.9136 2.45114,-5.8664 2.42248,-5.96407 -1.33137,-4.53686 -1.76351,0.67048 -5.16644,1.21906 -7.56208,1.21906 -10.89159,0 -16.65681,-8.00446 -16.7041,-23.19208 -0.0864,-27.7555 24.7293,-37.69702 42.46116,-17.01052 4.68823,5.46942 4.99574,5.63026 5.00331,2.61697 0.0149,-5.91083 -3.81117,-16.15625 -7.67802,-20.56036 -2.10584,-2.3984 -3.53755,-5.1197 -3.18159,-6.04731 1.37991,-3.596 22.51398,-3.41041 26.15407,0.22967 0.94705,0.94705 0.22212,2.60312 -2.4933,5.6958 -4.15493,4.7322 -7.06898,14.75648 -6.34603,21.83024 l 0.42795,4.18743 3.90409,-5.56173 c 6.54232,-9.32011 19.3202,-13.55255 27.72049,-9.18187 7.90854,4.11481 14.28888,15.69882 14.28888,25.94261 0,9.38647 -5.19849,18.92946 -12.14305,22.29127 -4.67265,2.26199 -6.22705,2.46565 -10.26352,1.34477 -2.61629,-0.72653 -5.10165,-1.32409 -5.52304,-1.32792 -0.42139,-0.004 0.0646,2.51639 1.0799,5.6005 3.35805,10.20022 -0.19001,18.32057 -10.00611,22.90078 -6.55087,3.05664 -13.52929,3.95364 -21.05394,2.70626 z m 248.73959,-0.40487 c -13.154,-2.88213 -18.1761,-8.87175 -16.9992,-20.27415 0.3692,-3.57732 1.619,-8.33698 2.7774,-10.57705 2.0219,-3.9099 2.0136,-4.03138 -0.2077,-3.03585 -1.2726,0.57035 -5.1687,1.26121 -8.6579,1.53524 -5.4256,0.42608 -6.9058,0.0256 -10.2227,-2.76535 -11.44375,-9.62925 -9.9688,-33.04887 2.7867,-44.24833 8.551,-7.50789 21.6197,-4.70729 31.7529,6.80458 l 5.1522,5.85325 0,-4.32832 c 0,-6.30812 -3.2582,-14.77545 -7.574,-19.68312 -3.2202,-3.66176 -3.5148,-4.53748 -2.0269,-6.02539 1.9939,-1.99385 14.0073,-2.66091 21.1634,-1.17511 3.3742,0.70057 4.6875,1.62032 4.6875,3.28286 0,1.2703 -0.8724,2.64441 -1.9388,3.0536 -2.967,1.13855 -6.539,10.48323 -7.4629,19.5235 l -0.8303,8.125 5.2499,-5.98044 c 11.4407,-13.03248 23.8966,-14.43235 33.9783,-3.81866 10.5984,11.15773 9.6773,33.82864 -1.7101,42.09209 -3.4531,2.50579 -10.6295,3.17299 -15.9535,1.48321 -2.5583,-0.81195 -2.8265,-0.62272 -1.9729,1.39205 0.5433,1.28246 1.2503,5.4524 1.571,9.26653 0.5235,6.22446 0.2218,7.36423 -2.9449,11.12775 -6.5058,7.73162 -18.5321,11.02012 -30.6175,8.37211 z m 94.3779,-17.56965 c -1.2185,-3.17525 0.6709,-4.48999 6.4526,-4.48999 3.0532,0 5.5512,-0.5625 5.5512,-1.25 0,-0.6875 -1.9943,-1.25 -4.4318,-1.25 -5.3791,0 -10.5682,-4.60326 -10.5682,-9.375 0,-1.78125 1.3807,-4.61931 3.0682,-6.30681 2.5669,-2.5669 4.2778,-3.06819 10.4719,-3.06819 4.9572,0 7.903,0.6015 8.9145,1.82025 2.3785,2.86592 0.6281,4.07186 -6.8051,4.68827 -3.7931,0.31455 -7.3182,0.99357 -7.8336,1.50891 -1.765,1.76505 3.9096,4.48257 9.3604,4.48257 l 5.4485,0 -0.3749,7.1875 -0.3749,7.1875 -9.0806,0.36762 c -7.1491,0.28944 -9.2332,-0.0301 -9.7982,-1.50263 z m 2.0038,-42.88557 c -3.8298,-1.95162 -4.4229,-2.89138 -4.7594,-7.54192 -0.332,-4.58973 -0.7734,-5.3125 -3.2437,-5.3125 -6.9118,0 -9.9666,-11.66016 -4.8563,-18.53609 3.0335,-4.08157 9.193,-5.01569 13.6813,-2.07482 4.0759,2.6706 4.4673,2.09561 2.0171,-2.96339 -1.7171,-3.54552 -1.7512,-4.30674 -0.2356,-5.26603 2.2811,-1.44388 6.2766,-1.43458 8.5755,0.02 1.4711,0.93075 1.5288,1.74532 0.3125,4.41468 -0.8203,1.80034 -1.4914,4.12251 -1.4914,5.1604 0,1.6651 0.3268,1.65819 2.7781,-0.0589 3.7525,-2.62834 10.1139,-2.46587 12.6376,0.32278 1.1292,1.24778 2.674,4.04974 3.4328,6.22661 1.9504,5.59475 -1.731,13.208 -6.661,13.77526 -2.6753,0.30783 -3.4375,1.05453 -3.4375,3.3678 0,7.73943 -10.6974,12.56956 -18.75,8.46609 z M 921.69641,103.43129 c -0.6875,-0.27131 -2.79687,-0.83445 -4.6875,-1.25143 -4.23751,-0.9346 -4.34979,-2.703367 -0.40377,-6.360417 3.49807,-3.2419 6.96627,-13.752551 6.96627,-21.1118 l 0,-5.057925 -3.80046,4.610624 c -14.20043,17.227588 -33.99884,14.50655 -40.67388,-5.5901 -4.18202,-12.5909 -0.73312,-26.008925 8.22434,-31.996987 4.42045,-2.955063 10.68306,-3.234988 16.77951,-0.750013 2.02793,0.826613 2.24571,0.603525 1.3906,-1.4244 -4.56808,-10.8333 -3.88312,-16.360612 2.86354,-23.107275 3.55229,-3.552287 6.3001,-4.9699745 11.87701,-6.127737 12.65081,-2.6263 26.67406,0.94505 31.2734,7.964512 2.6119,3.986275 2.70039,14.302825 0.17453,20.348063 -1.04028,2.489725 -1.7434,4.660475 -1.5625,4.823875 0.1809,0.163413 3.20686,-0.299888 6.72436,-1.02955 5.56151,-1.153675 6.92991,-1.0137 10.49434,1.073475 6.92612,4.055637 9.2243,8.316175 9.77876,18.128662 0.66959,11.850088 -1.53355,19.0614 -7.82689,25.61895 -9.5784,9.980525 -20.35547,8.8813 -32.27916,-3.292375 -7.13681,-7.286425 -7.1875,-7.31215 -7.1875,-3.64755 0,5.0223 4.09127,15.41505 8.17724,20.772025 2.29157,3.004425 2.95427,4.813903 2.08233,5.685833 -1.27633,1.27634 -16.01531,2.6565 -18.38457,1.72154 z M 706.14248,-197.21029 c -1.47108,-0.93075 -1.52874,-1.74532 -0.3125,-4.41468 0.82029,-1.80034 1.49143,-4.12251 1.49143,-5.1604 0,-1.6651 -0.32676,-1.65819 -2.77813,0.0589 -3.75249,2.62833 -10.11382,2.46586 -12.63752,-0.32279 -1.12921,-1.24778 -2.674,-4.04974 -3.43286,-6.22661 -1.95034,-5.59475 1.73104,-13.208 6.66101,-13.77525 2.67534,-0.30784 3.4375,-1.05454 3.4375,-3.3678 0,-1.63475 1.30917,-4.49428 2.90928,-6.3545 2.30812,-2.68335 4.06285,-3.40807 8.49191,-3.50722 8.19408,-0.18347 12.34881,2.93839 12.34881,9.2788 0,4.38165 0.34762,4.97119 2.93126,4.97119 4.37533,0 7.40965,4.12494 7.40965,10.07286 0,9.92393 -8.5712,15.51229 -16.16283,10.53805 -4.07586,-2.6706 -4.46724,-2.09561 -2.0171,2.96339 1.71715,3.54553 1.75122,4.30674 0.23567,5.26603 -2.28115,1.44388 -6.27663,1.43458 -8.57558,-0.02 z m 91.17893,-4.6289 c -7.52366,-1.24318 -8.75,-1.81522 -8.75,-4.08155 0,-1.28835 0.87244,-2.67724 1.93876,-3.08643 2.98304,-1.1447 6.54624,-10.51331 7.42543,-19.5235 0.73966,-7.58015 0.65923,-7.95735 -1.1992,-5.625 -8.63099,10.8319 -14.41324,14.375 -23.45968,14.375 -16.08316,0 -26.72595,-23.54015 -18.40967,-40.71927 3.95632,-8.17267 8.68117,-10.84354 17.8583,-10.09496 6.42973,0.52447 7.17631,0.3514 6.39931,-1.48351 -0.48377,-1.1425 -1.13752,-4.88976 -1.45276,-8.32726 -0.46728,-5.09531 -0.0323,-7.0458 2.35492,-10.55742 7.28581,-10.71793 24.7326,-13.7096 39.38978,-6.75431 8.85796,4.20338 11.67297,15.39204 6.65463,26.44981 l -2.44526,5.38807 2.78522,-1.01307 c 5.45892,-1.98559 15.46209,-1.17969 18.45623,1.48692 7.67309,6.83373 9.76595,22.48281 4.51485,33.7591 -3.37812,7.25424 -10.20748,13.76019 -15.71368,14.96955 -7.43472,1.63294 -19.53344,-4.59516 -25.27014,-13.0084 l -2.95204,-4.32934 -0.41589,3.578 c -0.65041,5.59572 2.31758,14.24957 6.98365,20.36245 2.34538,3.0726 3.79585,6.01904 3.22328,6.54764 -1.30703,1.20663 -13.73936,2.3776 -17.91604,1.68747 z m 248.53259,-0.0434 c -2.5258,-0.29574 -5.2834,-1.37039 -6.128,-2.38811 -1.2558,-1.51313 -0.9184,-2.49478 1.8511,-5.38549 3.9085,-4.07956 7.0052,-13.24807 6.9698,-20.6357 l -0.024,-5.11384 -4.4938,5.3602 c -10.1571,12.11532 -24.5621,13.73554 -33.8337,3.8055 -10.784,-11.54987 -10.49123,-31.4408 0.6062,-41.18449 4.252,-3.73328 4.8499,-3.89025 12.2029,-3.20362 l 7.7317,0.72201 -1.8146,-5.2498 c -3.243,-9.38243 -0.01,-17.83521 8.4839,-22.16746 7.9763,-4.06918 14.7276,-5.01862 23.2291,-3.26667 13.1136,2.70239 18.2102,7.80173 18.1301,18.13984 -0.026,3.38373 -0.9314,8.26748 -2.0116,10.85279 -1.0802,2.5853 -1.7534,4.91117 -1.496,5.1686 0.2574,0.25743 1.9889,-0.11019 3.8478,-0.81692 8.6422,-3.28578 16.7514,-0.10175 20.7435,8.14487 5.0977,10.53037 2.0173,30.11633 -5.8326,37.08498 -9.9274,8.81292 -23.2908,6.39571 -34.0519,-6.15939 -4.7891,-5.58745 -5.1264,-5.76946 -5.134,-2.76981 -0.015,5.91084 3.8112,16.15625 7.6781,20.56036 4.2199,4.80619 4.0337,8.0961 -0.4594,8.11778 -1.5685,0.007 -4.8205,0.21812 -7.2267,0.46791 -2.4063,0.2498 -6.4416,0.2122 -8.9674,-0.0835 z m -345.90224,-55.29108 c -3.78474,-2.39649 -0.42431,-4.96981 6.99325,-5.35523 5.44489,-0.28292 7.2514,-0.8439 7.2514,-2.25179 0,-1.3628 -1.69868,-1.98221 -6.21826,-2.26745 -7.89792,-0.49847 -9.41126,-1.82006 -9.3876,-8.19811 0.0293,-7.90037 0.80958,-8.4529 11.341,-8.03079 8.30774,0.33299 9.26486,0.62962 9.26486,2.87135 0,2.02396 -0.95208,2.56783 -5,2.85624 -2.75,0.19593 -5.82799,0.64807 -6.83997,1.00474 -3.04272,1.07242 1.05356,2.97248 6.45659,2.99488 5.28818,0.0219 8.50838,3.41175 8.50838,8.95655 0,5.33556 -5.14554,8.56653 -13.60607,8.54345 -3.86041,-0.0105 -7.80402,-0.51626 -8.76358,-1.12384 z"
         id="path3582"
         inkscape:connector-curvature="0" />
      <path
         style="fill:#6f6f6f"
         d="m 625.25327,490.51269 c -0.79372,-0.5051 135.69944,-0.91836 303.31814,-0.91836 167.61869,0 304.11189,0.41326 303.31809,0.91836 -0.7937,0.5051 -137.2868,0.91835 -303.31809,0.91835 -166.03125,0 -302.52441,-0.41325 -303.31814,-0.91835 z m -8.42312,-8.5206 c -1.09585,-2.85572 -0.89901,-852.11718 0.1979,-853.8409 0.5051,-0.79372 0.91836,191.44065 0.91836,427.187502 0,235.746848 -0.0804,428.630638 -0.17876,428.630638 -0.0983,0 -0.5202,-0.88975 -0.9375,-1.97724 z M 1239.1964,55.21933 c 0,-235.6812 0.4133,-427.86186 0.9184,-427.06814 1.2008,1.88698 1.2008,852.2493 0,854.13628 -0.5051,0.79372 -0.9184,-191.38694 -0.9184,-427.06814 z M 655.78158,446.39586 c -2.56565,-1.35464 -5.51878,-4.11435 -6.5625,-6.13268 -1.68473,-3.25791 -1.89767,-46.46429 -1.89767,-385.04385 0,-338.85141 0.21193,-381.78398 1.90076,-385.04981 1.04542,-2.02161 4.11676,-4.80618 6.8252,-6.18793 4.88706,-2.49319 6.95581,-2.51226 272.52404,-2.51226 265.56819,0 267.63699,0.0191 272.52399,2.51226 2.7085,1.38175 5.7798,4.16632 6.8252,6.18793 1.6889,3.26583 1.9008,46.1984 1.9008,385.04981 0,338.85141 -0.2119,381.78399 -1.9008,385.04981 -1.0454,2.02162 -4.1167,4.80618 -6.8252,6.18793 -4.8881,2.49374 -6.9001,2.51185 -272.78669,2.45701 -264.05375,-0.0545 -267.92863,-0.0903 -272.52713,-2.51823 z m 543.21822,-5.06437 c 1.6752,-0.76331 3.6705,-2.75853 4.4338,-4.43381 1.9801,-4.34596 1.9801,-759.01073 0,-763.35669 -0.7633,-1.67529 -2.7586,-3.67051 -4.4338,-4.43382 -4.3395,-1.97718 -536.5173,-1.97718 -540.85673,0 -1.67529,0.76331 -3.67051,2.75853 -4.43382,4.43382 -1.98443,4.35535 -1.97972,759.01167 0.005,763.36714 0.76593,1.68104 2.59406,3.63818 4.0625,4.34921 3.90711,1.89185 537.07355,1.9649 541.22325,0.0741 z M 789.78315,408.29941 c -3.1148,-0.96019 -7.33355,-3.49053 -9.375,-5.62297 -3.25383,-3.39884 -3.70213,-4.75337 -3.63378,-10.97964 0.0521,-4.74485 0.98568,-8.8494 2.8125,-12.36517 3.53803,-6.80904 3.47477,-7.05929 -1.17651,-4.65403 -5.06495,2.61919 -13.85785,2.72209 -17.69623,0.2071 -6.91168,-4.52872 -10.15037,-21.87523 -6.00544,-32.16537 4.3696,-10.84788 13.29812,-17.33765 21.68758,-15.76378 6.2501,1.17253 15.33615,7.42735 19.14073,13.17645 1.83671,2.77548 3.89964,4.70013 4.58426,4.277 3.08254,-1.9051 -2.87768,-21.61016 -7.91544,-26.16927 -3.58782,-3.24695 -2.88947,-5.31236 2.11358,-6.25095 5.58787,-1.04829 17.9087,0.13724 19.66352,1.89206 0.90718,0.90718 0.48974,2.17358 -1.36841,4.15149 -3.96551,4.2211 -6.56129,11.3744 -7.4046,20.40526 -0.86989,9.31541 0.48872,10.32751 4.7052,3.50514 3.98721,-6.45146 12.79586,-11.7234 19.5881,-11.7234 10.12084,0 16.94504,6.028 21.01647,18.56441 1.83999,5.66557 1.94889,7.65818 0.71148,13.01894 -3.07581,13.32515 -10.84826,19.89759 -20.68829,17.49416 -2.80305,-0.68465 -6.08016,-1.66085 -7.28246,-2.16932 -2.00454,-0.84776 -1.98088,-0.47244 0.28505,4.52115 5.34145,11.77141 1.77387,20.92865 -10.02018,25.71976 -7.77571,3.15873 -15.52917,3.46276 -23.74213,0.93098 z m 250.05195,-0.52997 c -9.3617,-3.23128 -12.5213,-7.13645 -12.4862,-15.43231 0.016,-3.7439 1.0742,-8.79979 2.5,-11.9418 3.2685,-7.20325 3.1269,-8.07849 -0.965,-5.9631 -11.7116,6.05457 -22.4111,0.38807 -25.27,-13.3831 -1.3278,-6.39629 -1.2044,-8.17136 1.0941,-15.73893 1.994,-6.56457 3.7129,-9.5433 7.4616,-12.93003 9.7892,-8.8439 19.0354,-7.40094 31.042,4.8444 l 7.8598,8.01603 0,-4.99722 c 0,-6.3529 -3.7649,-16.32033 -8.1191,-21.49498 -3.1815,-3.78105 -3.2465,-4.1031 -1.1385,-5.64445 3.9674,-2.90106 21.3341,-1.69277 22.5867,1.57147 0.3378,0.88033 -0.5768,2.79157 -2.0324,4.24717 -3.29,3.29005 -4.512,6.45448 -6.3,16.31505 -2.1539,11.87819 -0.951,12.90464 5.9194,5.05079 6.597,-7.54144 11.5236,-10.0691 19.6253,-10.0691 4.5253,0 6.4977,0.76919 10.1138,3.94415 11.9643,10.50486 13.795,29.83384 3.8267,40.40335 -5.1783,5.49057 -9.5132,6.5194 -17.1625,4.07326 -6.5705,-2.10115 -6.8897,-1.88577 -4.1944,2.82924 0.9825,1.71875 1.8064,6.05855 1.8307,9.644 0.058,8.58557 -4.7261,14.44854 -14.0502,17.21751 -8.3141,2.46901 -13.7624,2.33088 -22.1418,-0.5614 z m 100.2988,-14.62796 c -0.8594,-0.34676 -1.5625,-1.39654 -1.5625,-2.33283 0,-1.14351 1.9455,-1.82741 5.9263,-2.08333 4.4653,-0.28708 6.0286,-0.92023 6.3416,-2.56849 0.3449,-1.81595 -0.5227,-2.1875 -5.1075,-2.1875 -6.5194,0 -9.6604,-2.71241 -9.6604,-8.34219 0,-6.05467 3.3792,-8.09755 12.6685,-7.6587 6.0721,0.28687 7.9565,0.81998 7.9565,2.25089 0,1.3913 -1.7665,1.97502 -6.8477,2.26271 -6.8972,0.39053 -9.0876,1.72409 -7.9029,4.81144 0.4113,1.07171 2.7578,1.67585 6.5093,1.67585 7.0967,0 8.8663,1.53806 8.8663,7.70602 0,3.37338 -0.6847,5.07244 -2.4178,6 -2.458,1.31547 -11.9244,1.61422 -14.7697,0.46613 z m -0.3125,-44.53288 c -2.5722,-1.29548 -3.1928,-2.62977 -3.5085,-7.54327 -0.3371,-5.24728 -0.6748,-5.87694 -2.7917,-5.20506 -3.2284,1.02465 -8.6998,-4.49165 -8.6998,-8.7712 0,-4.27845 3.1432,-10.20704 6.3102,-11.90193 2.9246,-1.5652 6.791,-0.61865 11.0459,2.70414 3.5584,2.7789 7.3414,2.98619 10.0455,0.55044 1.0854,-0.97769 3.5061,-2.16011 5.3794,-2.62761 4.9422,-1.23337 10.969,4.9428 10.969,11.24088 0,5.16278 -4.4847,10.66434 -8.6932,10.66434 -1.9935,0 -2.5568,0.80623 -2.5568,3.65927 0,7.0872 -9.7695,11.12341 -17.5,7.23 z m 4.6922,-34.22542 c -1.1433,-2.52238 -1.7898,-5.05363 -1.4367,-5.625 0.8589,-1.38979 6.417,-1.33003 7.2874,0.0784 0.6012,0.97268 -2.4944,10.13279 -3.4242,10.13279 -0.1913,0 -1.2832,-2.06376 -2.4265,-4.58615 z M 917.63391,101.43038 c -3.26735,-1.31331 -3.64516,-3.12405 -0.87374,-4.18755 1.06632,-0.409188 3.05485,-3.267087 4.41896,-6.350887 2.70243,-6.109288 4.74936,-21.922613 2.83774,-21.922613 -0.64133,0 -3.3354,2.595225 -5.98682,5.767175 -5.14018,6.149313 -12.77123,10.410475 -18.72381,10.455375 -6.46744,0.04875 -13.92888,-5.46205 -17.62554,-13.017762 -1.82943,-3.7392 -3.60893,-8.943076 -3.95444,-11.564163 -0.8642,-6.5558 3.6109,-18.0902 8.6703,-22.347413 3.44303,-2.897099 4.72209,-3.228799 10.2421,-2.656025 3.46926,0.359988 7.542,1.040038 9.05054,1.511226 l 2.74277,0.8567 -2.43027,-4.766863 c -1.33667,-2.621763 -2.43029,-7.24535 -2.43029,-10.274612 0,-13.7490255 19.7833,-21.798713 38.02329,-15.4714255 8.23402,2.8563125 11.3791,7.2311875 11.26166,15.6652755 -0.0572,4.111987 -1.11335,8.446487 -2.8997,11.901149 -1.54531,2.988488 -2.57553,5.66775 -2.28938,5.953901 0.28616,0.28615 2.55733,-0.33085 5.04705,-1.371125 12.28792,-5.134226 21.52734,0.748724 23.9346,15.239649 1.11119,6.689 -1.16561,17.767013 -4.74238,23.074588 -9.08071,13.474875 -23.72348,12.891312 -36.06296,-1.437238 -2.96846,-3.44695 -5.81905,-6.267462 -6.33468,-6.267799 -3.13804,-0.0025 1.02134,16.444 6.04798,23.913562 2.34327,3.482088 3.94696,6.838385 3.56373,7.458455 -0.89585,1.44951 -17.79467,1.32243 -21.48671,-0.16158 z M 706.77848,-198.39788 c -0.37976,-0.61446 0.20837,-3.26845 1.30697,-5.89774 l 1.99743,-4.78054 2.341,4.81284 c 1.28755,2.64706 2.03928,5.30105 1.6705,5.89775 -0.88071,1.42501 -6.43037,1.4005 -7.3159,-0.0323 z m 85.85543,-5.10764 c -3.45299,-1.46664 -3.53533,-2.73354 -0.36413,-5.60342 4.3008,-3.89218 9.43943,-25.60747 6.49087,-27.42977 -0.69204,-0.42771 -3.02165,1.67781 -5.17689,4.67893 -13.86348,19.30455 -37.43066,12.51355 -40.75551,-11.7439 -1.49865,-10.93385 4.15547,-22.88017 12.29532,-25.97822 4.05506,-1.54337 5.38344,-1.51941 10.57826,0.1908 3.26748,1.07569 6.13505,1.76162 6.37239,1.52428 0.23734,-0.23734 -0.4537,-2.14336 -1.53564,-4.23561 -3.14956,-6.09057 -2.5803,-15.50777 1.2097,-20.01193 4.68013,-5.56201 15.66303,-9.35851 24.22433,-8.3737 9.48882,1.0915 17.01093,4.6947 19.38505,9.28577 2.7152,5.25062 2.47548,14.26814 -0.53625,20.17162 -3.44826,6.75915 -3.20289,7.92768 1.18792,5.6571 2.02837,-1.0489 6.20396,-1.9071 9.27909,-1.9071 8.07738,0 12.40471,4.03098 15.12813,14.09209 1.93823,7.16045 1.95892,8.49942 0.23331,15.10749 -1.04138,3.98787 -3.19101,9.1444 -4.77696,11.45895 -3.45813,5.0468 -10.66705,9.35182 -15.59668,9.31402 -7.232,-0.0555 -17.23049,-6.38956 -22.30063,-14.12759 -2.92315,-4.46128 -4.40568,-4.21936 -4.3972,0.71754 0.0113,6.45703 2.23765,12.8068 6.94212,19.79761 2.4021,3.5695 4.03338,6.82409 3.62505,7.2324 -1.28599,1.28599 -18.56851,1.43273 -21.51165,0.18264 z m 251.56249,0.33351 c -4.5876,-1.10346 -4.9854,-2.70973 -1.5573,-6.28795 3.5836,-3.74046 7.1823,-15.30637 7.1823,-23.08333 0,-5.90853 -1.5099,-6.00954 -5.0165,-0.33562 -5.5995,9.0602 -16.5573,14.18789 -25.2123,11.79812 -6.1275,-1.69188 -12.9163,-9.48919 -15.3256,-17.60227 -2.4257,-8.1681 -2.4214,-9.58561 0.052,-16.99142 3.9944,-11.96057 11.8864,-16.7115 22.4415,-13.50968 3.4023,1.03203 6.338,1.88252 6.5238,1.88996 0.1859,0.007 -0.7985,-2.21406 -2.1875,-4.93667 -5.3016,-10.3921 -2.1123,-20.07935 8.29,-25.17957 11.7947,-5.78295 30.6253,-2.71998 36.2667,5.89913 3.1636,4.83342 2.8846,14.61383 -0.6096,21.36834 -1.4974,2.89449 -2.7225,5.53766 -2.7225,5.87372 0,0.33606 1.9507,-0.20403 4.3349,-1.2002 14.6088,-6.10398 24.9485,2.20932 24.9544,20.06378 0.01,18.9829 -12.2477,31.37944 -26.7295,27.0406 -5.2818,-1.58246 -15.7595,-10.21251 -16.9489,-13.96012 -1.0932,-3.44434 -4.3609,-3.11267 -4.3609,0.44265 0,5.49415 3.9626,16.48852 7.6017,21.09107 4.3863,5.54761 4.515,6.73695 0.8358,7.72294 -3.2048,0.85886 -14.0741,0.79572 -17.8125,-0.1035 z m -324.37499,-1.26901 c -1.03125,-0.39214 -3.21648,-1.75397 -4.85607,-3.02631 -3.56357,-2.76536 -7.34631,-2.96709 -10.0455,-0.53573 -1.08539,0.97769 -3.50615,2.16011 -5.37947,2.62761 -4.9422,1.23337 -10.96896,-4.94279 -10.96896,-11.24088 0,-5.16278 4.48468,-10.66434 8.69318,-10.66434 1.99349,0 2.55682,-0.80622 2.55682,-3.65927 0,-5.52245 5.35589,-9.2542 12.18682,-8.49125 7.29129,0.81436 9.06318,2.62528 9.06318,9.26281 0,4.97179 0.26076,5.47342 2.47919,4.76931 3.30038,-1.0475 8.77081,4.40911 8.77081,8.74866 0,4.21115 -3.12755,10.19865 -6.18076,11.83269 -2.61997,1.40216 -3.48662,1.45383 -6.31924,0.3767 z m -20,-54.58091 c 0,-2.30064 2.76472,-3.25874 9.40346,-3.25874 10.33589,0 8.23615,-5.88928 -2.31773,-6.5007 l -6.46073,-0.3743 -0.37783,-6.5625 -0.37782,-6.5625 9.44032,0 c 7.23582,0 9.44033,0.40662 9.44033,1.74126 0,2.18109 -2.72071,3.25874 -8.22723,3.25874 -2.96468,0 -4.27277,0.57402 -4.27277,1.875 0,1.33576 1.35798,1.875 4.72187,1.875 6.57785,0 10.27813,2.88089 10.27813,8.00215 0,6.27837 -3.08297,8.24785 -12.91093,8.24785 -6.29452,0 -8.33907,-0.42692 -8.33907,-1.74126 z m -74.01587,-120.98338 c 2.79892,-1.11081 602.73286,-1.11081 605.53176,0 1.1775,0.4673 -135.0672,0.84964 -302.76589,0.84964 -167.6987,0 -303.94335,-0.38234 -302.76587,-0.84964 z"
         id="path3580"
         inkscape:connector-curvature="0" />
      <path
         style="fill:#545454"
         d="m 777.63391,490.53188 c 83.01563,-0.17742 218.85938,-0.17742 301.87499,0 83.0156,0.17742 15.0938,0.32259 -150.93749,0.32259 -166.03125,0 -233.95312,-0.14517 -150.9375,-0.32259 z M 616.68918,55.21933 c 0,-234.09375 0.14387,-329.85937 0.31971,-212.8125 0.17584,117.046875 0.17584,308.57813 0,425.625 -0.17584,117.04688 -0.31971,21.28125 -0.31971,-212.8125 z m 623.75002,0 c 0,-234.09375 0.1438,-329.85937 0.3197,-212.8125 0.1758,117.046875 0.1758,308.57813 0,425.625 -0.1759,117.04688 -0.3197,21.28125 -0.3197,-212.8125 z M 654.69376,444.86354 c -2.42682,-1.63171 -4.88684,-4.71247 -5.7393,-7.1875 -2.16587,-6.28837 -2.16587,-758.62505 0,-764.91343 0.85246,-2.47502 3.31248,-5.55578 5.7393,-7.1875 l 4.24736,-2.85578 269.63029,0 269.63029,0 4.2474,2.85578 c 2.4268,1.63172 4.8868,4.71248 5.7393,7.1875 2.1658,6.28838 2.1658,758.62506 0,764.91343 -0.8525,2.47503 -3.3125,5.55579 -5.7393,7.1875 l -4.2474,2.85579 -269.63029,0 -269.63029,0 -4.24736,-2.85579 z m 547.23454,-4.8621 2.8931,-2.7179 0,-381.889035 0,-381.889045 -2.7179,-2.89307 -2.7179,-2.89306 -270.63901,0 -270.63905,0 -2.89307,2.71789 -2.89306,2.7179 0,381.889035 0,381.889055 2.71789,2.89306 2.7179,2.89306 270.63903,0 270.63907,0 2.893,-2.71789 z M 791.07141,408.09375 c -6.54625,-2.36782 -10.33975,-4.90557 -11.93006,-7.98091 -2.81393,-5.44154 -2.25485,-13.52991 1.44897,-20.9625 1.7979,-3.60792 3.02515,-6.80361 2.72724,-7.10153 -0.29793,-0.29793 -2.75331,0.61151 -5.45641,2.02097 -5.79132,3.01971 -14.28125,2.67594 -18.04554,-0.7307 -4.28283,-3.8759 -6.65195,-12.30409 -5.94261,-21.14091 1.53746,-19.15359 15.2063,-29.37217 29.52097,-22.06937 4.63865,2.36647 13.06887,10.63982 14.15173,13.8884 0.32297,0.96892 1.4151,1.32018 2.64143,0.84959 1.58693,-0.60896 1.9231,-1.79285 1.39494,-4.91239 -1.34509,-7.94459 -4.51537,-16.65031 -7.49778,-20.58917 -1.65708,-2.1885 -3.01288,-4.57913 -3.01288,-5.3125 0,-1.62755 18.5725,-1.80336 21.10449,-0.19979 1.39595,0.8841 1.07805,1.9494 -1.64845,5.52404 -5.28525,6.92931 -8.86329,28.34235 -4.7359,28.34235 0.57674,0 2.8343,-2.53339 5.01681,-5.62974 6.09771,-8.65088 15.62043,-13.30651 23.28349,-11.3832 8.03319,2.0162 16.94257,15.13973 16.96735,24.99292 0.0185,7.35757 -2.55044,14.40845 -6.94879,19.07205 -3.2613,3.458 -4.87669,4.19797 -9.16425,4.19797 -2.86277,0 -7.22443,-0.84375 -9.69255,-1.875 -6.36878,-2.66105 -7.11448,-2.35846 -4.13137,1.67641 1.44412,1.95328 3.14507,5.86308 3.77988,8.68844 2.81773,12.54076 -7.19984,21.52981 -23.83071,21.38401 -4.46875,-0.0391 -8.96875,-0.37642 -10,-0.74943 z m 248.22899,-0.91501 c -2.6927,-0.99448 -6.349,-3.26121 -8.125,-5.03718 -4.392,-4.39209 -4.4762,-13.83737 -0.2045,-22.95759 1.6634,-3.55155 2.7501,-6.73175 2.4147,-7.0671 -0.3353,-0.33536 -2.7997,0.50676 -5.4763,1.87136 -12.4709,6.35802 -22.0259,-0.0573 -23.9213,-16.06083 -1.4486,-12.23138 6.4216,-27.48942 15.3329,-29.72601 8.7858,-2.20509 19.6838,2.98964 26.6645,12.7101 4.9939,6.95391 6.9024,6.15499 5.7685,-2.41482 -0.9825,-7.4252 -4.688,-16.43262 -8.3745,-20.35674 -1.4135,-1.50454 -2.1965,-3.33968 -1.7402,-4.07806 1.0857,-1.75674 17.5955,-1.74448 20.8841,0.0155 2.529,1.35347 2.5283,1.36671 -0.2199,3.92702 -4.11,3.82905 -6.3787,10.35538 -7.1514,20.57259 -0.815,10.77585 0.3064,11.51061 5.8448,3.82984 5.7277,-7.94314 11.557,-11.42252 19.2651,-11.49882 8.2648,-0.0817 13.2182,3.31833 17.5769,12.06528 5.7148,11.4681 3.4714,26.69376 -4.9039,33.28179 -4.2056,3.30807 -11.2612,3.55711 -17.4304,0.61522 -5.5874,-2.66444 -6.6524,-1.61077 -3.1543,3.12066 1.5119,2.04498 3.0367,6.27063 3.3883,9.3903 0.807,7.15922 -2.6853,13.33968 -9.3743,16.5903 -6.1137,2.97107 -20.5447,3.61475 -27.0638,1.20718 z m 99.9257,-15.66142 c -0.998,-1.61475 0.9555,-2.35236 7.4599,-2.81675 3.5835,-0.25585 5.1064,-0.97269 5.4042,-2.54374 0.3404,-1.79636 -0.5061,-2.1875 -4.734,-2.1875 -3.7996,0 -5.9523,-0.80384 -8.2166,-3.06819 -3.8844,-3.88437 -3.8693,-6.24432 0.065,-10.17867 2.6722,-2.6722 4.0831,-3.07766 9.5892,-2.75568 8.8072,0.51503 9.4818,3.24698 0.9253,3.74689 -11.9366,0.69739 -11.6393,8.50565 0.3238,8.50565 l 6.1654,0 -0.3809,5.9375 -0.381,5.9375 -7.7036,0.36933 c -4.4501,0.21333 -8.0471,-0.18634 -8.5168,-0.94634 z m -1.2345,-44.998 c -1.6675,-1.84258 -2.0114,-3.54709 -1.387,-6.875 0.7949,-4.23748 0.677,-4.42499 -2.7828,-4.42499 -1.9871,0 -4.5439,-1.02866 -5.6817,-2.28593 -2.8802,-3.18262 -2.6179,-10.42872 0.522,-14.42049 3.2456,-4.12612 7.7556,-4.26317 12.9163,-0.39251 6.1836,4.63781 6.4133,4.66828 10.7993,1.43241 2.2987,-1.69592 5.4545,-3.08348 7.0129,-3.08348 4.4564,0 7.9308,4.67304 7.9308,10.66696 0,6.02265 -2.806,9.33304 -7.9109,9.33304 -2.9695,0 -3.3391,0.47435 -3.3391,4.28571 0,5.96423 -2.7106,8.21429 -9.8955,8.21429 -4.339,0 -6.572,-0.66847 -8.1843,-2.45001 z m 7.0798,-33.12543 c -1.9949,-4.37846 -1.978,-4.42456 1.625,-4.42456 3.4458,0 4.0091,2.06315 1.5,5.49446 -1.5124,2.06839 -1.7288,1.99429 -3.125,-1.0699 z M 916.63922,100.12679 c -0.45635,-0.738385 0.33519,-2.582535 1.75898,-4.098085 3.56181,-3.791375 6.19681,-11.826525 6.65982,-20.30845 0.48523,-8.888912 -1.28014,-9.808062 -6.04831,-3.149075 -11.02642,15.3989 -28.5108,15.303388 -36.48855,-0.199325 -5.82235,-11.314238 -4.87411,-23.1654 2.52806,-31.596013 4.93082,-5.615887 9.88168,-6.45485 18.58061,-3.148587 3.74912,1.42495 6.98092,2.5911 7.18177,2.59145 0.20086,3.37e-4 -1.11553,-2.526025 -2.92529,-5.614163 -6.43951,-10.9882 -3.53121,-21.926575 6.94427,-26.118037 5.7238,-2.2902125 19.47883,-2.6662 26.47298,-0.7236375 10.77691,2.9931995 13.98502,14.1549125 7.85397,27.3256375 -1.7267,3.709287 -2.8289,7.054725 -2.44932,7.434287 0.37956,0.379563 2.30648,-0.264687 4.28202,-1.431675 2.06482,-1.219712 6.20053,-2.121787 9.72768,-2.121787 5.10149,0 6.70611,0.595312 9.51925,3.5316 11.15894,11.647412 5.93096,37.377288 -8.84936,43.552912 -7.99853,3.341988 -19.95124,-1.844712 -26.63366,-11.557287 -2.14337,-3.115275 -4.55193,-5.435675 -5.35238,-5.156463 -3.59365,1.253575 1.6282,21.941788 6.69585,26.52795 4.90882,4.442428 3.23766,5.601288 -8.07742,5.601288 -6.17063,0 -10.89572,-0.55739 -11.38097,-1.34254 z M 707.32141,-199.86284 c 0,-0.73271 0.63281,-2.51461 1.40625,-3.95978 1.40416,-2.6237 1.40874,-2.62311 3.08071,0.39468 2.35883,4.25753 2.18092,4.89727 -1.36196,4.89727 -1.71875,0 -3.125,-0.59947 -3.125,-1.33217 z m 84.00334,-4.7348 c -1.27854,-0.81104 -1.16944,-1.40209 0.51563,-2.79337 1.17553,-0.97056 3.20513,-4.17315 4.51023,-7.11686 2.76609,-6.23902 4.46738,-22.00934 2.50519,-23.22204 -0.71421,-0.44141 -3.26368,1.93272 -5.66547,5.27583 -4.91462,6.8408 -12.86911,11.42341 -19.82872,11.42341 -14.32504,0 -24.57002,-22.47999 -17.41979,-38.22325 4.63449,-10.20413 12.73828,-12.97579 23.56709,-8.06041 5.96923,2.70953 6.62026,1.70128 2.5,-3.87168 -2.11364,-2.85885 -2.8125,-5.51028 -2.8125,-10.67043 0,-6.30587 0.37299,-7.20814 4.56948,-11.05393 7.6227,-6.9857 19.64653,-8.74381 31.6516,-4.62809 11.9145,4.08469 14.78571,14.18644 8.00128,28.15085 -1.55038,3.19115 -2.53378,6.08718 -2.18535,6.43562 0.34844,0.34844 2.84515,-0.51845 5.54825,-1.92641 10.08699,-5.254 19.89282,-0.32788 23.11317,11.61128 2.99787,11.11439 -1.79345,26.37988 -10.01989,31.92395 -9.1044,6.13577 -23.28939,1.70246 -30.78269,-9.62067 -3.71569,-5.61479 -6.77085,-6.60948 -6.77085,-2.20445 0,6.09245 4.03365,17.97646 7.62354,22.46058 2.06859,2.58388 3.41633,5.25575 2.995,5.9375 -0.92013,1.48878 -19.30885,1.63559 -21.6152,0.17257 z m 251.02945,-0.13633 c -1.5589,-0.98582 -1.4028,-1.63282 1.0148,-4.2062 3.2679,-3.47859 5.8437,-11.15852 7.0912,-21.14305 0.8762,-7.01307 -0.4651,-10.08284 -3.0204,-6.91241 -6.7593,8.38661 -9.9426,11.46219 -14.0127,13.5386 -8.2936,4.23104 -15.3034,3.00056 -22.0152,-3.8644 -7.9371,-8.11823 -9.8856,-21.13926 -4.7985,-32.06542 4.5348,-9.73972 11.7602,-12.59916 21.5258,-8.51882 7.0118,2.9297 8.4551,2.48097 5.3834,-1.67368 -3.4763,-4.70193 -4.9883,-11.83692 -3.5853,-16.9182 3.9136,-14.17421 31.4211,-18.24617 43.263,-6.40427 3.5342,3.5342 4.1194,4.9846 4.1089,10.18365 -0.01,3.82896 -1.1689,8.54718 -3.1517,12.80667 -1.7267,3.70929 -2.9299,6.95367 -2.6739,7.20971 0.2561,0.25605 2.9399,-0.65709 5.9642,-2.02921 6.6726,-3.02743 10.0656,-3.16098 15.0339,-0.59177 7.4043,3.82892 10.7708,18.59735 7.0614,30.97809 -0.8406,2.80556 -3.8379,7.51145 -6.6607,10.45752 -4.6402,4.84279 -5.7043,5.35649 -11.0953,5.35649 -3.2796,0 -7.8537,-0.89725 -10.1647,-1.99387 -4.2109,-1.99825 -13.4498,-11.07765 -14.5107,-14.26024 -0.3407,-1.02221 -1.4121,-1.37068 -2.6976,-0.8774 -1.7454,0.66977 -1.9811,1.78807 -1.2988,6.16239 1.2133,7.7787 3.8245,14.60783 7.3556,19.23738 1.7053,2.23571 3.1005,4.66496 3.1005,5.39834 0,1.66912 -18.6032,1.7832 -21.2172,0.1301 z m -326.28279,-2.61006 c -6.10446,-4.89874 -6.8982,-5.0223 -11.31755,-1.7618 -2.29248,1.69134 -5.44321,3.07516 -7.00161,3.07516 -4.45646,0 -7.93084,-4.67304 -7.93084,-10.66696 0,-6.02265 2.80597,-9.33304 7.91093,-9.33304 2.9695,0 3.33907,-0.47435 3.33907,-4.28571 0,-5.96423 2.71059,-8.21429 9.89555,-8.21429 7.76431,0 10.77112,2.92944 9.5713,9.32501 -0.79496,4.23748 -0.67704,4.42499 2.78277,4.42499 4.7338,0 7.75038,3.49999 7.75038,8.99235 0,9.32739 -8.16894,13.92613 -15,8.44429 z M 701.90474,-258.114 c -2.00241,-2.00242 -0.36978,-2.81609 6.35417,-3.16679 6.73337,-0.35119 7.1875,-0.57233 7.1875,-3.49988 0,-2.86194 -0.52344,-3.15804 -6.21826,-3.51745 -7.55529,-0.47684 -9.41255,-1.85147 -9.3876,-6.94811 0.0314,-6.40569 1.21986,-7.20472 10.09468,-6.78674 9.32189,0.43903 10.22877,2.58604 1.47935,3.5023 -4.9265,0.51592 -5.96817,1.06134 -5.96817,3.125 0,2.07027 0.96651,2.56868 5.62274,2.89953 14.80586,1.05205 12.51772,15.22547 -2.45798,15.22547 -3.2302,0 -6.24809,-0.375 -6.70643,-0.83333 z m 75.72917,-122.60412 c 83.01563,-0.17742 218.85938,-0.17742 301.87499,0 83.0156,0.17742 15.0938,0.32258 -150.93749,0.32258 -166.03125,0 -233.95312,-0.14516 -150.9375,-0.32258 z"
         id="path3578"
         inkscape:connector-curvature="0" />
      <path
         style="fill:#2e2e2e"
         d="m 778.25891,490.53188 c 82.67188,-0.17745 217.95313,-0.17745 300.62499,0 82.6719,0.17744 15.0313,0.32263 -150.31249,0.32263 -165.34375,0 -232.98437,-0.14519 -150.3125,-0.32263 z M 616.68916,55.21933 c 0,-233.40625 0.14388,-328.89062 0.31973,-212.1875 0.17585,116.703125 0.17585,307.67188 0,424.375 -0.17585,116.70313 -0.31973,21.21875 -0.31973,-212.1875 z m 623.75004,0 c 0,-233.40625 0.1438,-328.89062 0.3197,-212.1875 0.1758,116.703125 0.1758,307.67188 0,424.375 -0.1759,116.70313 -0.3197,21.21875 -0.3197,-212.1875 z M 656.5298,445.32176 c -2.15413,-1.31353 -4.82601,-3.68659 -5.9375,-5.27347 -1.85049,-2.64193 -2.02089,-35.10033 -2.02089,-384.938522 l 0,-382.053288 2.61037,-3.31855 c 5.93514,-7.5453 -14.88122,-7.0186 277.38963,-7.0186 292.27089,0 271.45449,-0.5267 277.38959,7.0186 l 2.6104,3.31855 0,382.16285 0,382.16285 -2.6104,3.31855 c -5.9353,7.54555 14.9066,7.01903 -277.64001,7.01392 -261.49144,-0.005 -267.96791,-0.0616 -271.79119,-2.39289 z m 546.0694,-4.82465 2.8472,-2.84723 0,-382.43055 0,-382.43056 -2.8472,-2.84722 -2.8472,-2.84722 -271.18059,0 -271.18056,0 -2.84722,2.84719 -2.84722,2.8472 -0.29742,380.902798 c -0.23733,303.951462 0.0202,381.529162 1.27464,384.003172 0.86463,1.7052 2.96721,3.8084 4.67241,4.67376 2.46874,1.25284 58.03648,1.51253 272.75321,1.27464 l 269.65285,-0.29876 2.8471,-2.84722 z M 790.48919,407.20742 c -13.29471,-3.72373 -16.49113,-14.26445 -8.74402,-28.83478 3.85043,-7.24164 2.97759,-9.06879 -2.66597,-5.58087 -5.6347,3.48243 -14.53125,3.69878 -18.13115,0.44092 -4.80635,-4.3497 -6.60824,-9.43513 -6.60399,-18.63836 0.005,-10.01819 2.8728,-16.96119 9.20934,-22.29303 9.27941,-7.80811 21.76912,-4.14176 31.64691,9.28995 2.64505,3.59672 4.408,4.89851 6.05171,4.46865 1.27567,-0.33358 2.31939,-0.0967 2.31939,0.52646 0,0.62313 1.125,1.13297 2.5,1.13297 1.375,0 2.5,-0.56088 2.5,-1.2464 0,-1.997 8.86406,-11.24839 12.65649,-13.20952 4.93862,-2.55387 13.46755,-2.24262 18.23711,0.66552 4.18386,2.55103 9.3902,11.37186 10.93883,18.53307 1.28585,5.94613 -1.53238,16.07859 -5.8351,20.97914 -4.95264,5.64074 -9.80307,6.40761 -18.9297,2.9929 -8.12536,-3.04008 -10.00239,-2.54805 -6.11415,1.60271 5.49276,5.86364 6.82702,14.83093 3.13632,21.07877 -4.50265,7.62238 -19.96405,11.51123 -32.17202,8.0919 z m 249.42681,-0.58447 c -3.7292,-1.32933 -7.7948,-3.73583 -9.0347,-5.3478 -3.3924,-4.41048 -3.0278,-14.21702 0.8099,-21.78147 2.9028,-5.72168 3.8898,-9.27435 2.5767,-9.27435 -0.3045,0 -2.4139,1.07976 -4.6875,2.39947 -7.2607,4.21434 -14.9446,3.85728 -19.7181,-0.91628 -10.45331,-10.45332 -5.17,-36.62066 8.5614,-42.40298 8.4225,-3.54674 20.3294,1.83132 27.268,12.31628 1.8035,2.72526 4.1657,4.83763 5.2633,4.70675 1.0953,-0.1306 3.0757,0.22879 4.401,0.79862 1.8362,0.78952 2.8774,0.32693 4.375,-1.94373 6.5138,-9.87591 12.593,-13.70813 21.7459,-13.70813 6.7537,0 12.0032,3.80579 16.1656,11.71974 5.8013,11.02995 2.2791,29.32866 -6.5213,33.8795 -4.9219,2.5452 -7.8031,2.39904 -15.1686,-0.76954 -3.414,-1.46865 -6.555,-2.3226 -6.9799,-1.89764 -0.425,0.42497 0.7171,2.92245 2.538,5.54999 3.9017,5.63014 4.564,15.42239 1.3531,20.00655 -5.346,7.63254 -21.2233,10.84436 -32.9478,6.66503 z m 100.5304,-15.15362 c -0.4657,-0.75351 1.2073,-1.25 4.2119,-1.25 5.8961,0 9.8378,-3.00461 7.5532,-5.75744 -0.7954,-0.95841 -3.5872,-1.74256 -6.2039,-1.74256 -5.4371,0 -8.6862,-2.57163 -8.6862,-6.875 0,-4.98169 3.1431,-6.875 11.4131,-6.875 4.6713,0 7.1941,0.46983 6.7119,1.25 -0.4249,0.6875 -3.532,1.25 -6.9048,1.25 -4.7013,0 -6.4229,0.54309 -7.3778,2.32732 -2.0341,3.80076 0.9274,6.26389 8.0326,6.68088 l 6.25,0.3668 0.399,4.87276 c 0.25,3.05326 -0.2167,5.2632 -1.25,5.91836 -2.3188,1.47033 -13.2167,1.34237 -14.149,-0.16612 z m -0.4564,-44.08982 c -2.684,-1.28973 -2.8895,-1.98563 -2.2301,-7.55298 0.7253,-6.12374 0.7216,-6.13145 -2.6553,-5.48592 -4.7943,0.91648 -7.5519,-0.99242 -8.465,-5.85962 -0.9262,-4.93693 1.9197,-11.44261 5.503,-12.57991 3.0484,-0.96751 7.6846,0.84393 10.685,4.1748 2.4039,2.66855 8.2438,3.67843 8.2438,1.42555 0,-0.66985 1.7655,-2.13086 3.9233,-3.2467 7.2308,-3.73922 13.4558,2.429 11.7308,11.6239 -0.8915,4.75219 -3.6854,6.62035 -8.5192,5.69633 -3.4131,-0.65247 -3.4518,-0.58955 -2.6657,4.32677 0.6874,4.2988 0.395,5.27095 -2.1139,7.02823 -3.3291,2.33182 -9.1166,2.52545 -13.4367,0.44955 z M 800.62822,332.58357 c -1.21436,-4.4072 -3.92541,-10.15153 -6.04662,-12.81193 -4.60764,-5.77884 -3.57601,-7.01297 5.86481,-7.0161 7.9951,-0.002 11.875,1.05418 11.875,3.23458 0,0.95106 -0.42719,1.72921 -0.94931,1.72921 -1.82364,0 -4.22388,5.28444 -6.37489,14.03511 l -2.16765,8.81835 -2.20134,-7.98922 z m 251.10088,1.74546 c -0.9629,-5.13281 -4.8824,-13.52264 -7.9411,-16.99851 -1.7309,-1.9669 -1.7528,-2.41524 -0.1669,-3.41836 2.4605,-1.55634 12.7338,-1.49843 16.9259,0.0954 l 3.3883,1.28824 -2.6397,2.80985 c -2.9541,3.14461 -6.4742,12.15489 -6.4742,16.5721 0,4.82412 -2.1677,4.5797 -3.0923,-0.34869 z m 93.4784,-21.45379 c -1.6957,-2.71775 -0.9893,-3.90591 2.3222,-3.90591 2.6842,0 2.8944,1.19856 0.7292,4.15724 -1.4608,1.99603 -1.6594,1.97967 -3.0514,-0.25133 z M 918.73708,100.34817 c -1.3841,-0.87684 -1.16628,-1.817377 1.14473,-4.943203 1.56974,-2.123174 3.81177,-7.67415 4.9823,-12.335487 1.94789,-7.756913 2.2025,-8.15735 3.00446,-4.72515 1.7457,7.47115 4.75858,14.546538 7.66523,18.000887 1.63234,1.939938 2.60859,3.886473 2.16942,4.325643 -1.1946,1.19459 -16.99545,0.92577 -18.96614,-0.32269 z m 27.95933,-15.955878 c -5.22649,-2.755337 -9.15746,-6.488112 -12.73015,-12.088274 -2.09554,-3.284763 -3.66977,-4.554788 -5.00888,-4.040938 -1.07406,0.412162 -2.78977,0.05475 -3.81267,-0.794137 -1.52835,-1.268426 -2.27032,-0.993776 -4.16291,1.540924 -6.60054,8.83995 -8.2812,10.474213 -12.95443,12.596788 -6.8068,3.09165 -11.96998,2.94645 -17.05386,-0.479575 -5.71545,-3.851638 -9.46339,-9.748525 -11.2391,-17.68325 -1.27267,-5.6869 -1.16604,-7.570538 0.75633,-13.3599 4.26153,-12.834038 12.99667,-16.719338 25.16648,-11.193788 2.86594,1.30125 5.51349,2.063213 5.88344,1.693275 0.36995,-0.36995 -0.84991,-2.6688 -2.71081,-5.108562 -2.79585,-3.66555 -3.38344,-5.71885 -3.38344,-11.823263 0,-6.738025 0.35276,-7.702537 4.01355,-10.973437 5.17959,-4.6279625 12.81599,-6.6401125 22.33261,-5.8845375 19.29114,1.531625 25.01122,12.1965245 16.0385,29.9033125 -1.74776,3.449037 -2.88804,6.5607 -2.53395,6.914787 0.35409,0.354088 3.24305,-0.614475 6.4199,-2.152362 7.38632,-3.575663 14.95568,-2.87085 18.94219,1.76375 6.25915,7.2767 6.35673,24.252775 0.1967,34.219912 -5.19086,8.399 -15.68422,11.417325 -24.1595,6.949275 z m -239.375,-283.630132 c 0,-0.38895 0.60715,-1.84165 1.34922,-3.22823 1.29501,-2.41975 1.41612,-2.42956 3.01416,-0.2441 0.91571,1.25231 1.40036,2.70501 1.077,3.22821 -0.67631,1.0943 -5.44038,1.30806 -5.44038,0.24412 z m 86.5625,-5.17499 c -3.4487,-0.66425 -3.5442,-1.81819 -0.38695,-4.67547 2.64925,-2.39753 6.32445,-11.96625 6.32445,-16.46627 0,-1.55571 0.5625,-3.1762 1.25,-3.6011 0.6875,-0.4249 1.25,0.0847 1.25,1.13255 0,3.67061 4.03561,13.9054 7.07274,17.9373 1.68613,2.23843 2.72011,4.62905 2.29771,5.3125 -0.74891,1.21178 -12.18614,1.44329 -17.80795,0.36049 z m 250.62499,0.0205 c -2.7831,-0.7273 -2.7747,-0.79044 0.8482,-6.35264 1.6697,-2.56339 3.7373,-8.30676 4.5947,-12.76305 l 1.5589,-8.10236 2.7626,9.04721 c 1.5194,4.97598 4.2197,10.9576 6.0007,13.29253 2.731,3.58062 2.9331,4.3623 1.2905,4.99263 -2.1883,0.8397 -13.7002,0.76254 -17.0556,-0.11437 z m -325.31249,-1.57004 c -1.375,-0.56277 -3.57155,-2.21461 -4.88124,-3.67076 -2.40282,-2.67154 -8.24376,-3.68448 -8.24376,-1.42964 0,0.66985 -1.76547,2.13086 -3.92327,3.2467 -7.23085,3.73923 -13.45584,-2.429 -11.73087,-11.6239 0.89152,-4.75219 3.68548,-6.62035 8.51922,-5.69632 3.41311,0.65246 3.45187,0.58955 2.66572,-4.32678 -0.68741,-4.2988 -0.39502,-5.27095 2.11386,-7.02822 3.45296,-2.41855 8.46455,-2.61947 13.06418,-0.52374 3.11289,1.41834 3.27991,1.9087 2.60141,7.63757 -0.72389,6.11218 -0.71965,6.12092 2.65655,5.47552 4.79428,-0.91649 7.55194,0.99241 8.46503,5.85961 1.17146,6.24439 -3.29246,13.62629 -7.97156,13.18242 -0.4594,-0.0436 -1.96027,-0.53968 -3.33527,-1.10246 z m 103.65285,-14.34134 c -5.18108,-2.25602 -12.7296,-9.02435 -15.03357,-13.47976 -1.09527,-2.118 -2.7619,-3.52359 -3.99865,-3.37234 -1.16634,0.14265 -3.20972,-0.20871 -4.54083,-0.78078 -1.79506,-0.77148 -2.76369,-0.41877 -3.75,1.36551 -3.04465,5.50787 -11.54929,12.83486 -16.42022,14.14646 -20.27789,5.46028 -33.99814,-25.42944 -18.70644,-42.11558 3.44857,-3.76305 5.03515,-4.55865 9.09077,-4.55865 2.70219,0 7.26287,1.05961 10.13483,2.35468 2.87196,1.29507 5.54727,2.02916 5.94512,1.6313 0.39787,-0.39786 -0.73287,-2.86645 -2.51273,-5.48576 -2.44853,-3.60332 -3.23613,-6.33281 -3.23613,-11.21501 0,-8.33374 4.11296,-13.11433 13.74338,-15.97426 8.20068,-2.43534 10.03704,-2.4499 18.75662,-0.14871 13.67628,3.60933 17.22208,13.23152 10.44264,28.33811 -1.81905,4.05338 -2.97364,7.7035 -2.56575,8.11139 0.40788,0.40788 2.66572,-0.44755 5.0174,-1.90097 4.618,-2.85408 13.12095,-3.52517 17.17495,-1.35553 3.04711,1.63076 5.74842,6.83101 7.41771,14.27974 1.00818,4.49865 0.88545,7.42769 -0.53989,12.88591 -3.965,15.18363 -14.86017,22.30747 -26.41921,17.27425 z m 247.35494,-1.97385 c -3.863,-2.21547 -8.0787,-6.02917 -10.4094,-9.41676 -3.0196,-4.38894 -4.4677,-5.51859 -6.3202,-4.93061 -1.3463,0.4273 -2.4032,0.17596 -2.4032,-0.5715 0,-3.07405 -3.8636,-0.95978 -7.5005,4.1045 -7.8653,10.95235 -20.648,14.427 -29.1679,7.92859 -16.33709,-12.46092 -11.5248,-44.29594 6.624,-43.82006 2.4873,0.0652 6.3651,1.07149 8.6173,2.23615 6.8122,3.52273 8.1199,2.1229 3.8851,-4.15902 -12.8772,-19.10241 10.2787,-35.79934 34.7717,-25.07271 9.5998,4.20422 11.4452,15.24707 4.5689,27.34147 -3.839,6.75231 -2.5329,8.77933 3.347,5.19463 5.0464,-3.07654 13.1681,-3.37933 17.0834,-0.63691 4.6208,3.2365 6.9591,9.21755 7.0564,18.04912 0.1331,12.07168 -4.6433,21.85549 -12.4867,25.57744 -5.933,2.81539 -10.3761,2.35656 -17.6659,-1.82433 z m -368.50779,-37.50311 c 0.4249,-0.6875 3.43935,-1.25 6.69877,-1.25 5.39439,0 8.92623,-1.54735 8.92623,-3.91071 0,-2.72091 -4.41655,-4.83929 -10.08929,-4.83929 l -6.16071,0 0,-5.625 0,-5.625 8.19877,0 c 5.14754,0 7.91126,0.4652 7.42623,1.25 -0.4249,0.6875 -3.21041,1.25 -6.19003,1.25 -5.33482,0 -7.16092,1.42151 -6.02167,4.6875 0.32103,0.92031 2.73447,1.5625 5.87213,1.5625 3.57332,0 6.00817,0.75257 7.39584,2.28593 2.41986,2.67391 2.71354,7.81926 0.56873,9.96407 -1.84415,1.84415 -17.75814,2.08346 -16.625,0.25 z m 76.5625,-120.93745 c 82.67188,-0.17745 217.95313,-0.17745 300.62499,0 82.6719,0.17744 15.0313,0.32262 -150.31249,0.32262 -165.34375,0 -232.98437,-0.14518 -150.3125,-0.32262 z"
         id="path3576"
         inkscape:connector-curvature="0" />
      <path
         style="fill:#070707"
         d="m 778.88391,490.53188 c 82.32813,-0.17747 217.04688,-0.17747 299.37499,0 82.3281,0.17746 14.9688,0.32266 -149.68749,0.32266 -164.65625,0 -232.01562,-0.1452 -149.6875,-0.32266 z M 616.68914,55.21933 c 0,-232.71875 0.14388,-327.92187 0.31975,-211.5625 0.17586,116.359375 0.17586,306.76563 0,423.125 -0.17587,116.35938 -0.31975,21.15625 -0.31975,-211.5625 z m 623.74996,0 c 0,-232.71875 0.1439,-327.92187 0.3198,-211.5625 0.1758,116.359375 0.1758,306.76563 0,423.125 -0.1759,116.35938 -0.3198,21.15625 -0.3198,-211.5625 z m -581.86769,390 c -1.21366,-0.78433 94.02009,-1.21171 270,-1.21171 175.97989,0 271.21369,0.42738 269.99999,1.21171 -1.1957,0.7727 -99.0201,1.21171 -269.99999,1.21171 -170.97991,0 -268.80434,-0.43901 -270,-1.21171 z m -5.74377,-4.0625 -2.38123,-2.8125 2.8125,2.38124 c 2.64306,2.23777 3.38155,3.24376 2.38123,3.24376 -0.23719,0 -1.50282,-1.26562 -2.8125,-2.8125 z m 550.11876,0.3125 c 1.2444,-1.375 2.5437,-2.5 2.8875,-2.5 0.3437,0 -0.3931,1.125 -1.6375,2.5 -1.2444,1.375 -2.5437,2.5 -2.8875,2.5 -0.3437,0 0.3931,-1.125 1.6375,-2.5 z m -552.50801,-386.25 c 0,-210.71875 0.14422,-296.92187 0.32049,-191.5625 0.17627,105.359375 0.17627,277.76563 0,383.125 -0.17627,105.35938 -0.32049,19.15625 -0.32049,-191.5625 z m 556.25001,0 c 0,-210.71875 0.1442,-296.92187 0.3205,-191.5625 0.1762,105.359375 0.1762,277.76563 0,383.125 -0.1763,105.35938 -0.3205,19.15625 -0.3205,-191.5625 z M 789.58803,405.74251 c -11.66817,-3.59043 -14.09999,-12.7035 -7.11827,-26.67517 4.86329,-9.7323 3.7636,-11.44305 -4.52335,-7.03683 -7.58684,4.03396 -11.9339,4.02967 -16.74252,-0.0165 -9.14839,-7.69786 -8.18067,-28.42671 1.77769,-38.07873 3.94394,-3.82263 5.25393,-4.34091 10.97176,-4.34091 5.26379,0 7.558,0.74672 12.11807,3.94423 3.09375,2.16933 6.98868,6.19124 8.65538,8.93758 2.50651,4.13012 3.91111,5.13542 8.125,5.81519 4.06571,0.65586 5.34707,0.38968 6.34462,-1.31799 5.68234,-9.72741 16.29534,-16.35999 23.89641,-14.93401 8.1012,1.51976 16.72859,14.11898 16.72859,24.42997 0,5.80889 -3.8553,14.86636 -7.70756,18.10784 -4.53954,3.81976 -9.64875,4.00326 -17.11644,0.61471 -2.99696,-1.3599 -6.23134,-2.47255 -7.1875,-2.47255 -2.33859,0 -2.20661,3.05539 0.21892,5.0684 3.37061,2.79735 5.54258,8.34169 5.54258,14.14837 0,4.52189 -0.70367,6.2946 -3.68018,9.27111 -6.19649,6.19648 -18.78292,8.08022 -30.3032,4.5353 z m 251.63287,0.53611 c -6.5175,-1.87442 -9.8919,-4.61619 -11.4347,-9.291 -1.6912,-5.12423 -0.747,-10.11513 3.5846,-18.94881 4.0619,-8.28354 2.575,-10.93046 -3.6501,-6.49781 -2.8382,2.02102 -5.879,2.90504 -10.2029,2.9662 -5.2066,0.0736 -6.6112,-0.43755 -9.0779,-3.30372 -8.952,-10.40161 -5.6529,-32.5422 5.9326,-39.81409 8.294,-5.2059 21.1947,-0.30092 28.7341,10.92496 2.6549,3.95304 4.5084,5.32253 8.1208,6.00023 4.0548,0.76067 4.9295,0.48705 6.5409,-2.04608 6.8461,-10.76228 17.3688,-16.29148 25.7442,-13.52734 8.9912,2.96736 15.3299,15.5477 13.9032,27.59362 -1.7793,15.02354 -11.4766,20.93217 -24.2253,14.76064 -2.9811,-1.44314 -6.3165,-2.27998 -7.4119,-1.85964 -1.8173,0.69736 -1.8143,1.00916 0.034,3.56141 1.1142,1.53843 2.9164,4.04134 4.0048,5.56201 5.897,8.23902 1.9832,19.14852 -8.2805,23.08175 -6.1554,2.35883 -15.7719,2.71979 -22.3162,0.83767 z m 111.1005,-15.91175 c 0,-0.6875 0.5625,-1.59764 1.25,-2.02254 0.6875,-0.4249 1.25,-0.21004 1.25,0.47746 0,0.6875 -0.5625,1.59764 -1.25,2.02254 -0.6875,0.4249 -1.25,0.21004 -1.25,-0.47746 z m 0.7287,-6.22978 c -0.5385,-0.87125 -0.6415,-1.92166 -0.2289,-2.33426 1.1187,-1.1187 2.3385,0.52662 1.7343,2.33931 -0.4234,1.27021 -0.7179,1.26923 -1.5054,-0.005 z m -14.235,-8.29276 c 0.025,-2.0625 0.3056,-2.75492 0.6225,-1.53871 0.317,1.21621 0.2961,2.90371 -0.046,3.75 -0.3424,0.84629 -0.6017,-0.14879 -0.5763,-2.21129 z m 0.3802,-30.1797 c -1.2328,-1.23276 -1.7724,-3.10788 -1.3491,-4.6875 0.3881,-1.44804 1.0735,-3.96175 1.523,-5.58603 0.7886,-2.84931 0.6358,-2.92253 -4.3436,-2.08127 -4.6966,0.79349 -5.2896,0.58979 -6.5897,-2.26363 -1.8835,-4.13396 -0.4014,-11.70156 2.6071,-13.31168 3.7745,-2.02004 5.9091,-1.51307 10.4624,2.48481 5.2019,4.56726 7.7682,4.70614 11.5505,0.625 5.6301,-6.07505 13.0155,-2.42148 13.0155,6.43885 0,5.6836 -2.9274,8.20375 -8.3481,7.18681 l -4.3524,-0.81651 0.8505,5.6719 c 0.7372,4.91575 0.5115,5.85334 -1.6925,7.03292 -3.7794,2.02267 -10.9925,1.6474 -13.3336,-0.69367 z M 801.25115,330.7033 c -0.78857,-2.82756 -2.8391,-7.21191 -4.55674,-9.74301 -1.71765,-2.53108 -3.123,-5.1395 -3.123,-5.79647 0,-1.27014 15.3274,-1.70043 16.56285,-0.46498 0.40122,0.40124 -0.40912,2.65935 -1.80079,5.01804 -1.39166,2.3587 -3.23191,6.95229 -4.08943,10.20799 l -1.55914,5.91946 -1.43375,-5.14103 z m 250.56915,0.36173 c -0.4287,-2.28486 -2.46,-6.8044 -4.5141,-10.04341 -2.0542,-3.23902 -3.7348,-6.15083 -3.7348,-6.4707 0,-0.85733 14.4658,-0.70813 16.7617,0.17289 1.7208,0.66032 1.6527,1.1528 -0.5452,3.94697 -1.3811,1.75589 -3.3848,6.19763 -4.4525,9.87053 -1.0678,3.67291 -2.1201,6.67802 -2.3386,6.67802 -0.2184,0 -0.7479,-1.86944 -1.1765,-4.1543 z m 93.6261,-19.5957 c -0.4249,-0.6875 0.1376,-1.25 1.25,-1.25 1.1124,0 1.6749,0.5625 1.25,1.25 -0.4249,0.6875 -0.9874,1.25 -1.25,1.25 -0.2626,0 -0.8251,-0.5625 -1.25,-1.25 z M 918.57141,99.380255 c 0,-0.461487 0.89095,-1.823563 1.9799,-3.026838 1.08894,-1.203262 2.98141,-5.42465 4.20548,-9.38085 l 2.22558,-7.193087 1.5502,4.907425 c 0.8526,2.699087 2.89764,7.004737 4.54452,9.568125 1.64687,2.563387 2.99432,4.954012 2.99432,5.3125 0,0.358487 -3.9375,0.6518 -8.75,0.6518 -4.8125,0 -8.75,-0.377588 -8.75,-0.839075 z m 32.5,-14.410537 C 945.13396,83.32448 939.4186,78.776117 934.73537,71.96928 c -2.39239,-3.477213 -4.56863,-5.420263 -5.61924,-5.017113 -0.94306,0.361888 -2.04712,0.12 -2.45346,-0.537425 -1.57012,-2.540512 -4.27925,-0.955299 -8.56691,5.012813 -13.58229,18.905563 -35.06486,12.581075 -37.87553,-11.150588 -1.02594,-8.662525 3.94081,-19.387 10.18731,-21.99695 4.8831,-2.040287 8.64062,-1.5327 16.01925,2.163963 6.1258,3.069012 9.60002,1.217337 5.53097,-2.947863 -4.2064,-4.305799 -5.88635,-8.197574 -5.88635,-13.636349 0,-11.275188 9.04276,-16.931738 25.39049,-15.8826005 15.15151,0.9723625 20.766,6.2838255 19.14482,18.1115625 -0.43747,3.19175 -2.2559,8.295338 -4.04096,11.3413 -4.27918,7.301863 -2.601,9.43365 4.35065,5.526613 6.68897,-3.759413 14.34895,-3.657 18.24995,0.244 8.74116,8.741162 6.3694,31.978862 -4.00415,39.231137 -4.64246,3.2456 -8.82095,3.9982 -14.0908,2.537938 z M 709.20901,-201.05106 c 0.43183,-0.69871 1.30878,-0.94677 1.94877,-0.55122 1.73381,1.07154 1.41052,1.82161 -0.78514,1.82161 -1.07182,0 -1.59546,-0.57167 -1.16363,-1.27039 z m 84.3624,-5.45156 c 0,-0.94706 0.84116,-2.42004 1.86925,-3.27327 1.02809,-0.85324 2.49858,-3.87524 3.26776,-6.71557 0.76918,-2.84031 1.64823,-5.9986 1.95345,-7.0184 0.30599,-1.02237 1.88146,1.40965 3.51188,5.4212 1.62631,4.00147 3.8436,8.25514 4.9273,9.45262 1.0837,1.19747 1.97036,2.55481 1.97036,3.0163 0,0.46148 -3.9375,0.83907 -8.75,0.83907 -6.59878,0 -8.75,-0.42335 -8.75,-1.72195 z m 250.93719,0.99244 c -0.4013,-0.40124 0.4091,-2.65935 1.8007,-5.01804 1.3917,-2.3587 3.2388,-6.95229 4.1048,-10.20799 1.5626,-5.87511 1.5814,-5.89136 2.5097,-2.16946 0.5145,2.0625 2.5582,6.6946 4.5415,10.29356 1.9834,3.59897 3.6061,6.83334 3.6061,7.1875 0,0.89425 -15.6639,0.81332 -16.5628,-0.0856 z m -328.87121,-4.27049 c -5.20183,-4.56726 -7.76819,-4.70614 -11.55045,-0.625 -5.63017,6.07505 -13.01553,2.42148 -13.01553,-6.43885 0,-5.6836 2.92739,-8.20375 8.34815,-7.18681 l 4.3524,0.81651 -0.85056,-5.6719 c -0.73716,-4.91575 -0.51152,-5.85334 1.69255,-7.03292 6.72567,-3.59947 16.20413,-0.11825 14.66975,5.38782 -2.57463,9.23899 -2.80701,8.61361 2.8458,7.65858 4.68272,-0.79114 5.27801,-0.58609 6.57737,2.26569 1.88356,4.13397 0.40145,11.70157 -2.60708,13.31169 -3.77447,2.02004 -5.90907,1.51307 -10.4624,-2.48481 z m 105.30943,-12.4887 c -4.04732,-2.13917 -8.20159,-6.29059 -13.62541,-13.61607 -1.03125,-1.39283 -3.84976,-2.87639 -6.26337,-3.29682 -4.11498,-0.71678 -4.63924,-0.4085 -8.41508,4.94833 -6.64036,9.42076 -16.55135,13.81822 -24.09814,10.69225 -14.57282,-6.03626 -18.5266,-30.81773 -6.58907,-41.29901 4.98859,-4.38004 8.42204,-4.5956 16.67162,-1.04672 3.37943,1.45379 7.04837,2.29638 8.15318,1.87242 1.72337,-0.66132 1.55404,-1.31124 -1.19189,-4.57459 -3.99699,-4.75015 -6.36459,-12.39094 -5.23459,-16.89321 1.79098,-7.13581 12.1757,-13.04788 22.91899,-13.04788 6.15235,0 15.931,3.55665 19.12174,6.95489 4.30446,4.58436 4.04465,12.93624 -0.69375,22.30153 -4.37045,8.63804 -3.18331,11.23614 3.34136,7.31265 6.20361,-3.73042 10.4366,-4.35014 15.43846,-2.26023 11.55469,4.82786 11.92763,28.3982 0.62809,39.69772 -4.0744,4.0744 -5.51347,4.73565 -10.20299,4.68819 -3.00276,-0.0304 -7.48437,-1.12544 -9.95915,-2.43345 z m 250.35288,-0.18456 c -2.9681,-1.4692 -6.9056,-4.61865 -8.75,-6.99878 -1.8443,-2.38011 -4.197,-5.3678 -5.2283,-6.63928 -1.0312,-1.27149 -3.8437,-2.63875 -6.25,-3.03837 -4.1461,-0.68857 -4.5826,-0.40581 -8.3431,5.40433 -6.9716,10.77165 -19.1919,14.26776 -27.8776,7.97552 -3.9191,-2.83915 -8.7909,-12.34341 -9.6641,-18.85332 -0.8204,-6.11626 2.4304,-16.34445 6.3714,-20.0468 4.3503,-4.08687 10.5662,-4.63762 17.04,-1.50981 9.665,4.66963 12.9644,2.7635 6.641,-3.83667 -2.5205,-2.63091 -3.4666,-5.09773 -3.8836,-10.12615 -0.4825,-5.81778 -0.1347,-7.14307 2.7854,-10.61339 4.5638,-5.42369 14.2305,-8.41943 23.4509,-7.26742 17.691,2.21035 22.5581,11.47314 14.7268,28.02717 -4.8981,10.35374 -3.6076,12.94045 3.7442,7.505 5.2027,-3.84651 13.8177,-3.86225 17.8948,-0.0327 6.5174,6.12167 7.5481,20.87337 2.2265,31.86626 -5.0156,10.36103 -14.3108,13.41816 -24.8843,8.1844 z m -354.17541,-42.65832 c -0.48907,-4.14495 -0.33565,-4.48691 1.28562,-2.86564 1.39831,1.39832 1.53184,2.52997 0.55533,4.70659 -1.198,2.67033 -1.32346,2.54487 -1.84095,-1.84095 z M 702.32141,-276.239 c 0,-2.86459 0.36528,-4.84305 0.81174,-4.3966 1.1481,1.1481 1.25884,9.60658 0.12576,9.60568 -0.51562,-4.1e-4 -0.9375,-2.3445 -0.9375,-5.20908 z m -49.375,-54.79167 c 1.24436,-1.375 2.54372,-2.5 2.88747,-2.5 0.34375,0 -0.39311,1.125 -1.63747,2.5 -1.24436,1.375 -2.54372,2.5 -2.88747,2.5 -0.34375,0 0.39311,-1.125 1.63747,-2.5 z m 549.88119,-0.3125 -2.3812,-2.8125 2.8125,2.38124 c 1.5469,1.30967 2.8125,2.5753 2.8125,2.8125 0,1.00031 -1.006,0.26182 -3.2438,-2.38124 z m -544.25619,-3.4375 c 2.56667,-1.65871 537.43329,-1.65871 539.99999,0 1.2137,0.78432 -94.0201,1.21172 -269.99999,1.21172 -175.97991,0 -271.21366,-0.4274 -270,-1.21172 z m 120.3125,-45.93745 c 82.32813,-0.17747 217.04688,-0.17747 299.37499,0 82.3281,0.17746 14.9688,0.32267 -149.68749,0.32267 -164.65625,0 -232.01562,-0.14521 -149.6875,-0.32267 z"
         id="path3574"
         inkscape:connector-curvature="0" />
    </g>
  </g>
</svg>
