<?xml version="1.0" encoding="UTF-8" standalone="no"?>
<!-- Created with Inkscape (http://www.inkscape.org/) -->

<svg
   xmlns:dc="http://purl.org/dc/elements/1.1/"
   xmlns:cc="http://creativecommons.org/ns#"
   xmlns:rdf="http://www.w3.org/1999/02/22-rdf-syntax-ns#"
   xmlns:svg="http://www.w3.org/2000/svg"
   xmlns="http://www.w3.org/2000/svg"
   xmlns:sodipodi="http://sodipodi.sourceforge.net/DTD/sodipodi-0.dtd"
   xmlns:inkscape="http://www.inkscape.org/namespaces/inkscape"
   width="176.45631mm"
   height="246.30641mm"
   viewBox="0 0 625.23891 872.73925"
   id="svg2"
   version="1.1"
   inkscape:version="0.91 r13725"
   sodipodi:docname="6.svg">
  <defs
     id="defs4" />
  <sodipodi:namedview
     id="base"
     pagecolor="#ffffff"
     bordercolor="#666666"
     borderopacity="1.0"
     inkscape:pageopacity="0.0"
     inkscape:pageshadow="2"
     inkscape:zoom="0.35"
     inkscape:cx="454.50294"
     inkscape:cy="296.65489"
     inkscape:document-units="px"
     inkscape:current-layer="layer1"
     showgrid="false"
     fit-margin-top="0"
     fit-margin-left="0"
     fit-margin-right="0"
     fit-margin-bottom="0"
     inkscape:window-width="784"
     inkscape:window-height="822"
     inkscape:window-x="800"
     inkscape:window-y="0"
     inkscape:window-maximized="0" />
  <metadata
     id="metadata7">
    <rdf:RDF>
      <cc:Work
         rdf:about="">
        <dc:format>image/svg+xml</dc:format>
        <dc:type
           rdf:resource="http://purl.org/dc/dcmitype/StillImage" />
        <dc:title></dc:title>
      </cc:Work>
    </rdf:RDF>
  </metadata>
  <g
     inkscape:label="Calque 1"
     inkscape:groupmode="layer"
     id="layer1"
     transform="translate(420.93153,43.722033)">
    <g
       style="display:inline"
       id="g3518"
       transform="translate(-322.59776,-625.43087)">
      <path
         style="fill:#fdfdfd"
         d="m -98.214317,1018.0765 0,-436.25002 312.499997,0 312.5,0 0,436.25002 0,436.25 -312.5,0 -312.499997,0 0,-436.25 z"
         id="path3534"
         inkscape:connector-curvature="0" />
      <path
         style="fill:#e6e6e6"
         d="m -92.089089,1452.7682 c -1.895927,-0.7539 -3.848725,-2.9487 -4.6875,-5.2682 -2.066789,-5.7156 -2.07005,-853.12237 -0.0033,-858.83785 0.968517,-2.67839 2.72286,-4.43273 5.401247,-5.40125 5.698468,-2.06059 605.630192,-2.06059 611.328652,0 2.6784,0.96852 4.43274,2.72286 5.40125,5.40125 2.0638,5.70731 2.0638,853.12135 0,858.82865 -0.96851,2.6784 -2.72285,4.4327 -5.40125,5.4013 -5.34154,1.9315 -607.176661,1.8097 -612.039094,-0.1239 z m 611.470919,-5.8456 3.65385,-3.6538 0,-425.1923 0,-425.19233 -3.65385,-3.65384 -3.65383,-3.65385 -301.44232,0 -301.442305,0 -3.653846,3.65385 -3.653846,3.65384 0,425.19233 0,425.1923 3.653846,3.6538 3.653846,3.6539 301.442305,0 301.44232,0 3.65383,-3.6539 z m -576.968361,-34.5607 c -2.060967,-1.0772 -4.79043,-2.9026 -6.065473,-4.0565 -6.1617,-5.5763 -5.812313,17.881 -5.812313,-390.2289 0,-336.43554 0.220783,-381.80112 1.873686,-384.99748 1.030527,-1.99282 3.939865,-5.19926 6.465197,-7.12542 l 4.591512,-3.50212 270.819602,0 270.8196,0 4.59152,3.50212 c 2.52533,1.92616 5.43467,5.1326 6.4652,7.12542 1.6529,3.19636 1.87368,48.56194 1.87368,384.99748 0,336.4355 -0.22078,381.8011 -1.87368,384.9974 -1.03053,1.9929 -3.93983,5.1993 -6.46513,7.1255 l -4.59142,3.5021 -269.47239,0.3095 c -242.601638,0.2787 -269.846034,0.1142 -273.219591,-1.6491 z m 543.122211,-11.7854 c 2.48904,-2.4891 2.5,-4.1667 2.5,-382.5 0,-378.33335 -0.0113,-380.01099 -2.5,-382.50002 -2.4845,-2.4845 -4.16666,-2.5 -271.25,-2.5 -267.083331,0 -268.765501,0.0155 -271.249997,2.5 -2.489035,2.48903 -2.5,4.16667 -2.5,382.50002 0,378.3333 0.011,380.0109 2.5,382.5 2.484496,2.4845 4.166666,2.5 271.249997,2.5 267.08334,0 268.7655,-0.015 271.25,-2.5 z m -405.624997,-25.78 c -18.776037,-4.7534 -24.169887,-14.5734 -17.506137,-31.8716 0.528325,-1.3714 -0.838338,-1.6386 -6.69175,-1.308 -6.744988,0.3809 -7.7259,0.09 -11.815075,-3.5 -5.424638,-4.7629 -7.577975,-10.7454 -7.438275,-20.6654 0.2713,-19.2643 13.389162,-33.2625 27.587699,-29.4393 5.548138,1.494 15.93365,8.0653 16.955601,10.7284 0.387462,1.0098 1.239287,1.8359 1.89295,1.8359 2.7989,0 -3.000538,-14.4203 -7.476488,-18.5902 -1.5502,-1.4443 -2.422937,-3.5709 -2.17415,-5.2979 0.528675,-3.6699 7.365463,-5.3524 17.66075,-4.3462 12.159742,1.1883 15.151872,4.5219 9.096152,10.1342 -2.944015,2.7284 -6.966277,13.4567 -6.966277,18.5806 0,2.1866 0.631188,1.9221 4.6875,-1.9641 7.100817,-6.8031 12.100217,-8.8851 19.801787,-8.2464 8.4896,0.704 14.29798,5.0487 18.42736,13.7837 4.53417,9.5912 5.15097,14.604 2.79439,22.7103 -3.59942,12.3816 -12.59824,19.4022 -22.4905,17.5464 l -4.43516,-0.832 1.38514,3.9734 c 1.71472,4.9189 0.80907,12.3911 -2.0263,16.7184 -4.30325,6.5676 -22.245642,12.3342 -31.269217,10.0498 z m 246.874997,-1.062 c -8.43962,-2.7379 -11.07632,-4.4569 -13.93791,-9.0871 -2.11729,-3.4258 -2.4802,-5.5377 -1.94671,-11.3284 0.36065,-3.9146 1.01834,-8.2425 1.46151,-9.6175 0.75314,-2.3367 0.32556,-2.4731 -6.54559,-2.0873 -6.40903,0.3598 -7.84196,-2e-4 -11.17873,-2.8079 -14.03085,-11.8062 -9.10477,-42.143 8.07733,-49.7435 8.65583,-3.8289 16.78353,-1.5542 26.80854,7.5028 l 5.08909,4.5977 -0.94131,-4.3559 c -1.24683,-5.7697 -4.74638,-12.5418 -8.0032,-15.4872 -6.01499,-5.4398 -0.5426,-9.5952 12.36698,-9.3907 13.96628,0.2212 20.05278,5.3653 12.74283,10.7698 -3.4136,2.5238 -4.6655,5.538 -7.1253,17.1556 l -0.77355,3.6534 5.21606,-4.7124 c 12.06879,-10.9034 25.35346,-11.1416 34.21235,-0.6134 8.13873,9.6723 9.98196,24.6492 4.38866,35.6595 -3.83733,7.5537 -11.7079,12.2656 -18.71863,11.2062 l -4.43259,-0.6697 0.4796,7.7865 c 0.40469,6.5704 0.023,8.4698 -2.44423,12.1615 -5.9015,8.8306 -22.6313,13.354 -34.7952,9.408 z m 94.48038,-17.7091 c -0.4329,-1.1282 0.0418,-3.3161 1.05467,-4.8621 1.66648,-2.5433 1.60969,-3.0209 -0.59665,-5.0176 -3.58828,-3.2473 -3.33525,-11.7909 0.45467,-15.3513 2.30642,-2.1668 4.41311,-2.7179 10.3893,-2.7179 11.0407,0 12.96763,2.2038 12.96763,14.8308 0,8.558 -0.34936,10.0616 -2.89306,12.4513 -2.40787,2.2621 -4.37699,2.7179 -11.74126,2.7179 -7.04965,0 -9.0082,-0.4169 -9.6353,-2.0511 z m 13.64462,-17.9489 c -0.4249,-0.6875 -1.5499,-1.25 -2.5,-1.25 -0.9501,0 -2.0751,0.5625 -2.5,1.25 -0.43988,0.7117 0.63662,1.25 2.5,1.25 1.86339,0 2.93989,-0.5383 2.5,-1.25 z m -10.26893,-24.28 c -3.77347,-1.702 -4.59219,-3.163 -5.62647,-10.0402 -0.21361,-1.4204 -1.67463,-2.7452 -3.48616,-3.161 -1.89286,-0.4345 -3.99462,-2.4211 -5.34786,-5.0548 -5.31351,-10.3414 3.55345,-23.7379 13.26732,-20.0447 3.21148,1.221 3.3338,1.1278 2.56067,-1.9527 -0.5353,-2.1327 -0.22192,-3.6086 0.91975,-4.3316 2.60098,-1.6473 9.07862,-1.3546 11.65103,0.5264 1.85582,1.357 2.01413,2.1437 0.86392,4.2929 -2.02215,3.7784 -1.79267,4.13 1.80348,2.7627 9.39709,-3.5728 17.87275,7.2969 14.24975,18.2746 -1.05898,3.2088 -2.65363,4.9885 -5.55652,6.2014 -2.93608,1.2268 -4.28021,2.7457 -4.82054,5.4473 -1.38707,6.9354 -12.3758,10.7343 -20.47837,7.0797 z M 77.410683,1067.4154 c -2.75,-0.9907 -5.140625,-1.8097 -5.3125,-1.8201 -0.171875,-0.01 -0.3125,-1.124 -0.3125,-2.4748 0,-1.3509 1.177912,-3.0865 2.617575,-3.8569 1.439675,-0.7705 3.621213,-3.7434 4.847875,-6.6065 2.2445,-5.2388 4.166775,-14.5806 3.000262,-14.5806 -0.344912,0 -2.010175,1.6437 -3.700587,3.6526 -6.178275,7.3425 -17.962338,10.7002 -26.37125,7.5141 -13.411437,-5.0814 -20.205563,-26.6878 -13.043937,-41.4817 3.9244,-8.10674 9.074662,-11.57651 17.068287,-11.49901 l 6.293225,0.061 -0.423587,-7.56101 c -0.68575,-12.24057 5.2153,-18.9409 19.4961,-22.1368 12.346962,-2.76313 28.033034,2.35349 32.257084,10.52189 1.98805,3.84447 1.93683,15.16416 -0.09,19.89768 -0.78136,1.82478 -0.002,2.07288 6.05948,1.93094 8.58964,-0.20111 12.62964,2.39151 16.85115,10.81391 7.78645,15.5348 -0.75211,39.1601 -15.59505,43.1497 -7.49454,2.0145 -16.51984,-0.9713 -23.683015,-7.8348 -3.070962,-2.9425 -5.583562,-4.6734 -5.583562,-3.8464 0,3.4789 4.113262,12.7722 7.549575,17.0571 2.035242,2.5378 3.700422,5.4645 3.700422,6.5037 0,4.1844 -16.559385,5.862 -25.624997,2.596 z m 251.259937,0.2153 c -6.14775,-1.8526 -7.08021,-5.0199 -2.67921,-9.1008 3.08731,-2.8627 7.04427,-13.2176 7.04427,-18.434 0,-2.1729 -0.65648,-1.8871 -4.6875,2.0409 -15.45896,15.0637 -33.94483,9.3866 -41.02112,-12.5977 -1.83138,-5.6896 -1.92564,-7.6403 -0.64565,-13.3599 2.91446,-13.0232 10.17197,-20.01467 20.67234,-19.91448 l 6.6281,0.0633 -1.25092,-3.58838 c -0.688,-1.9736 -0.95795,-5.7726 -0.59987,-8.4422 1.48782,-11.09264 11.58879,-17.96396 26.52962,-18.04717 20.70354,-0.11525 31.36412,10.813 26.43144,27.09525 l -1.78557,5.89397 6.76961,-0.17811 c 10.44359,-0.27478 16.95491,5.65472 19.1653,17.45272 2.19057,11.6921 -1.70799,24.7019 -9.43543,31.4867 -9.82681,8.6281 -20.92177,7.2298 -32.7933,-4.1327 l -5.39793,-5.1665 0.87681,3.75 c 1.53917,6.5828 4.33542,12.4047 7.59,15.8026 4.2748,4.463 3.64274,8.9019 -1.42093,9.979 -6.01283,1.2789 -14.60606,1.02 -19.99006,-0.6024 z M -10.008669,766.41502 c -1.855808,-1.35699 -2.014117,-2.14364 -0.863913,-4.29282 2.0221588,-3.77843 1.7926675,-4.12999 -1.803482,-2.76273 -13.42894,5.10566 -21.802053,-18.9988 -8.526389,-24.54573 2.546656,-1.06406 4.238136,-2.65089 4.238136,-3.9759 0,-6.05836 8.8684588,-11.22087 16.7393075,-9.74429 6.012305,1.12792 8.4918725,3.48404 9.3732913,8.90664 0.6223325,3.82866 1.4400922,4.99429 3.8999262,5.5589 1.886536,0.43303 3.990596,2.42345 5.341894,5.0534 5.313521,10.34139 -3.553441,23.73784 -13.2673202,20.04463 -3.21148,-1.221 -3.3338,-1.12773 -2.5606575,1.95272 0.53529,2.13276 0.221915,3.60864 -0.9197575,4.33166 -2.6009813,1.64723 -9.0786163,1.35452 -11.6510358,-0.52648 z m 88.56024,-4.51702 c -7.903213,-1.88938 -8.855263,-4.72483 -3.187713,-9.49376 3.322313,-2.79554 4.727225,-6.26652 7.064187,-17.45276 l 0.783426,-3.75 -4.775388,4.54977 c -6.469937,6.16424 -11.678487,8.57523 -18.5254,8.57523 -6.940875,0 -11.4939,-2.18725 -16.557125,-7.95394 -10.443537,-11.89452 -9.35165,-32.77421 2.223225,-42.51382 3.918312,-3.29705 6.0945,-3.85892 13.147563,-3.39459 l 3.81365,0.25107 -0.444013,-7.88186 c -0.357075,-6.33843 0.06525,-8.69387 2.156663,-12.02854 3.000975,-4.78494 13.7105,-10.24523 21.906337,-11.16902 7.5422,-0.85011 18.629217,2.72048 24.148887,7.7772 4.37934,4.01203 4.60441,4.6059 4.59676,12.12854 -0.005,4.35048 -0.45355,9.32243 -0.99805,11.04878 -0.97086,3.07819 -0.87915,3.13001 4.74778,2.68248 10.92577,-0.86896 16.23012,3.49717 19.999,16.46162 1.78777,6.14973 1.87324,8.19633 0.57304,13.72238 -3.60912,15.33921 -12.52055,24.68171 -23.45759,24.59225 -5.03831,-0.0412 -14.00225,-4.53051 -19.425127,-9.72844 l -4.818987,-4.61911 0.907037,4.375 c 1.192313,5.75094 3.918838,11.10206 7.739117,15.18891 3.94791,4.22339 3.34475,7.67426 -1.523429,8.71606 -5.069013,1.08478 -15.386425,1.04193 -20.09385,-0.0835 z m 251.249999,0 c -2.12251,-0.50742 -4.51314,-1.32678 -5.3125,-1.82082 -2.10306,-1.29976 -1.78485,-5.70198 0.47486,-6.5691 2.79659,-1.07315 6.44312,-8.9027 7.49183,-16.08594 l 0.90819,-6.22066 -4.74464,4.83715 c -2.60956,2.66044 -6.60285,5.61356 -8.87399,6.5625 -6.06251,2.53307 -15.32971,2.17629 -20.17299,-0.77666 -5.33838,-3.25484 -11.05557,-12.39949 -12.89733,-20.62934 -3.64353,-16.28097 9.18245,-33.7418 22.78667,-31.02095 l 3.63399,0.72679 -0.80116,-6.81665 c -1.31202,-11.16317 4.7019,-19.11751 17.27733,-22.85202 8.13899,-2.41702 10.94333,-2.39166 20.11539,0.18189 15.05016,4.22286 20.30888,15.56198 14.10423,30.41229 -0.64908,1.5535 0.59487,1.875 7.25471,1.875 6.85136,0 8.53047,0.46138 11.37296,3.125 1.83418,1.71875 4.19395,5.09375 5.24395,7.5 2.28563,5.23787 2.55269,20.28091 0.45491,25.625 -4.70437,11.98447 -14.51266,19.05662 -24.37772,17.57727 -5.72736,-0.85887 -16.15966,-6.96335 -18.61266,-10.89121 -4.17015,-6.67747 -2.97505,2.40619 1.45503,11.0594 1.477,2.88501 3.58407,5.74835 4.68234,6.36298 3.40721,1.90677 1.7329,7.00058 -2.60429,7.92312 -5.07796,1.08012 -14.15655,1.03918 -18.85911,-0.085 z M -14.588977,705.72689 c -2.416247,-1.95656 -2.983412,-3.79711 -3.390584,-11.00304 -0.448272,-7.93331 -0.209078,-8.98607 2.874258,-12.65041 3.224546,-3.83216 3.744212,-3.99696 12.6032885,-3.99696 8.9579525,0 9.265505,0.10135 10.0732062,3.31949 0.5903313,2.35206 0.2363651,3.75586 -1.2145499,4.81679 -1.872675,1.36934 -1.83501,1.68978 0.4406762,3.74925 3.637796,3.29216 3.413926,11.80916 -0.4046987,15.39658 -3.9111813,3.67436 -16.6232153,3.8975 -20.9815963,0.3683 z m 13.87466,-7.65041 c 0,-0.6875 -1.7206975,-1.25 -3.8237712,-1.25 -2.2308763,0 -3.5019475,0.52072 -3.0512288,1.25 0.4248988,0.6875 2.145595,1.25 3.8237712,1.25 1.6781763,0 3.0512288,-0.5625 3.0512288,-1.25 z"
         id="path3532"
         inkscape:connector-curvature="0" />
      <path
         style="fill:#d5d5d5"
         d="m -91.826728,1452.5821 c -6.712115,-3.7202 -6.295634,24.7837 -6.343295,-434.1343 -0.03407,-328.08825 0.300297,-427.25998 1.449063,-429.78125 3.333243,-7.31567 -18.2831,-6.84007 310.88576,-6.84007 231.87037,0 303.26855,0.34869 305.78081,1.49336 7.3554,3.35134 6.84007,-29.40324 6.84007,434.75666 0,464.1599 0.51533,431.4053 -6.84007,434.7566 -5.07455,2.3121 -607.593926,2.0649 -611.772338,-0.251 z m 604.862408,-0.7556 c 0,-0.6875 0.94813,-1.25 2.10694,-1.25 2.8688,0 7.89306,-4.9128 7.89306,-7.7179 0,-1.2552 0.5625,-2.2821 1.25,-2.2821 0.83087,0 1.25,-141.6667 1.25,-422.5 0,-280.83336 -0.41913,-422.50002 -1.25,-422.50002 -0.6875,0 -1.25,-0.94812 -1.25,-2.10694 0,-2.86879 -4.91276,-7.89306 -7.71788,-7.89306 -1.25517,0 -2.28212,-0.5625 -2.28212,-1.25 0,-0.82985 -100.41666,-1.25 -298.75,-1.25 -198.333331,0 -298.749997,0.42015 -298.749997,1.25 0,0.6875 -0.948121,1.25 -2.106936,1.25 -2.868797,0 -7.893064,4.91276 -7.893064,7.71789 0,1.25516 -0.5625,2.28211 -1.25,2.28211 -0.830868,0 -1.25,141.66666 -1.25,422.50002 0,280.8333 0.419132,422.5 1.25,422.5 0.6875,0 1.25,0.9481 1.25,2.1069 0,2.8688 4.912763,7.8931 7.717893,7.8931 1.255158,0 2.282107,0.5625 2.282107,1.25 0,0.8298 100.416666,1.25 298.749997,1.25 198.33334,0 298.75,-0.4202 298.75,-1.25 z m -572.624737,-41.4171 c -2.474857,-1.4353 -5.427982,-4.1811 -6.5625,-6.1017 -1.904931,-3.2248 -2.06276,-32.8078 -2.06276,-386.6407 l 0,-383.14871 3.273895,-3.8908 c 6.876953,-8.17279 -16.115765,-7.55101 279.226102,-7.55101 295.34188,0 272.34915,-0.62178 279.2261,7.55101 l 3.2739,3.8908 0,383.14871 c 0,354.7394 -0.15385,383.4092 -2.07491,386.6613 -1.1412,1.9319 -4.17091,4.6906 -6.73269,6.1304 l -4.65778,2.6178 -269.2048,-0.029 -269.204817,-0.029 -4.49974,-2.6097 z m 546.017657,-8.9401 c 2.13302,-2.133 2.23208,-19.1488 2.23208,-383.3928 0,-364.24764 -0.0991,-381.25978 -2.23213,-383.39288 -2.12908,-2.12907 -14.69524,-2.23214 -272.14287,-2.23214 -257.445877,0 -270.013795,0.10307 -272.142854,2.2321 -2.131598,2.13157 -2.246584,19.26724 -2.552747,380.41912 -0.176331,208.0029 0.140249,379.9672 0.703512,382.1429 0.584642,2.2583 2.331435,4.6205 4.070603,5.5047 2.400194,1.2202 59.984539,1.4854 271.439406,1.25 255.76536,-0.2848 268.49793,-0.4038 270.625,-2.531 z M 74.496733,1372.5446 c -12.3568,-4.0268 -16.840875,-14.2949 -12.05,-27.5931 0.990713,-2.75 1.809775,-5.088 1.820125,-5.1955 0.01,-0.1075 -1.885663,0.389 -4.213387,1.1034 -12.791938,3.9259 -23.350901,-7.0093 -23.205951,-24.0329 0.127988,-15.0321 10.947488,-28.75 22.675425,-28.75 5.905725,0 16.516575,5.5656 21.0147,11.0226 3.489288,4.2331 3.748038,4.3432 3.748038,1.5947 0,-5.4841 -2.879175,-12.6103 -7.0757,-17.513 -4.881813,-5.7033 -5.106612,-7.0174 -1.528025,-8.9326 4.190387,-2.2426 23.0134,-1.0489 25.690952,1.6293 2.06736,2.0678 1.98372,2.3785 -1.682602,6.25 -4.037237,4.2632 -5.9251,9.0324 -7.302913,18.449 l -0.823049,5.625 5.336937,-5.3974 c 9.060677,-9.1634 17.288837,-11.8679 25.574087,-8.4062 6.86191,2.8671 9.17445,5.2789 13.23546,13.8036 5.781,12.1351 3.99385,24.8468 -4.67343,33.2414 -4.07194,3.9438 -4.98382,4.2569 -12.33798,4.2363 -7.09392,-0.02 -7.8196,0.2047 -6.8024,2.1053 1.76991,3.3071 1.34185,13.2732 -0.7433,17.3054 -1.03507,2.0017 -4.46954,5.1558 -7.63214,7.0092 -7.009135,4.1076 -20.449572,5.2401 -29.024847,2.4455 z m 248.882647,-0.859 c -10.77853,-4.1432 -14.62042,-12.5764 -11.04021,-24.2341 2.5279,-8.2312 2.64368,-7.9638 -2.81651,-6.5064 -9.46431,2.5262 -17.7273,-2.703 -20.84141,-13.1893 -2.42875,-8.1785 -2.38807,-12.2722 0.2037,-20.4942 6.63136,-21.0371 26.29762,-25.3228 41.08626,-8.9535 2.47985,2.7449 4.78331,4.7162 5.1188,4.3807 1.78347,-1.7835 -5.09255,-18.9281 -8.83796,-22.0365 -2.53412,-2.1031 -2.52815,-5.8428 0.0113,-6.8171 3.2912,-1.2629 18.63595,-0.8507 22.83623,0.6136 4.73497,1.6506 5.02682,4.2853 0.83955,7.579 -3.3447,2.6306 -6.9034,12.6015 -6.9034,19.341 l 0,4.0886 5.94172,-5.9417 c 10.36831,-10.3683 22.68665,-11.3177 31.14972,-2.4009 5.66024,5.9638 8.15765,11.7284 8.85734,20.4449 0.51885,6.4639 0.0986,8.8596 -2.58031,14.7112 -4.2916,9.3741 -9.08842,12.435 -18.15913,11.5876 -5.61259,-0.5243 -6.5502,-0.3218 -5.9348,1.2819 6.14755,16.0203 -5.4405,29.3066 -25.39856,29.1209 -3.85534,-0.036 -9.93559,-1.1931 -13.53228,-2.5757 z m 99.9063,-15.1091 c -3.54568,-3.5457 -1.28567,-6.0572 6.625,-7.3622 l 5,-0.8249 -5.11876,-0.1565 c -5.87294,-0.1795 -8.83345,-2.73 -10.01262,-8.6259 -0.65542,-3.277 -0.15438,-4.5621 3.014,-7.7304 3.0056,-3.0056 4.8785,-3.8001 8.95831,-3.8001 5.79937,0 11.83996,2.6382 13.0076,5.681 0.42706,1.1129 0.77647,5.4623 0.77647,9.6653 0,6.5901 -0.4623,8.1244 -3.35886,11.1478 -2.89895,3.0258 -4.31957,3.5059 -10.375,3.5059 -3.85887,0 -7.69114,-0.675 -8.51614,-1.5 z m 13.18809,-17.5625 c -0.61286,-1.8407 -4.05129,-2.6994 -6.71534,-1.6771 -2.95987,1.1358 -0.71611,3.2396 3.45519,3.2396 2.46845,0 3.59985,-0.5423 3.26015,-1.5625 z m -11.79387,-25.9462 c -3.59802,-1.4497 -5.79173,-5.7374 -4.85169,-9.4827 0.61501,-2.4505 0.27634,-3.0086 -1.82553,-3.0086 -4.32436,0 -8.71763,-5.4867 -8.71232,-10.8807 0.01,-9.8307 7.36484,-16.1321 15.32344,-13.1281 3.21498,1.2135 3.53605,1.1269 2.76568,-0.7467 -2.01091,-4.8905 -1.35083,-5.8601 4.26353,-6.2622 6.82822,-0.4891 8.7011,1.0793 6.4072,5.3655 -2.03341,3.7995 -1.1261,5.085 2.29624,3.2535 4.19063,-2.2428 7.68821,-1.5447 11.53538,2.3025 4.93055,4.9306 5.21005,13.6536 0.58567,18.278 -1.6875,1.6875 -4.21875,3.0682 -5.625,3.0682 -1.99349,0 -2.55682,0.8062 -2.55682,3.6593 0,7.0784 -10.6416,11.1937 -19.60578,7.582 z M 76.473183,1066.6236 c -4.301087,-1.5709 -4.464775,-5.0865 -0.362,-7.7747 3.407787,-2.2329 6.9245,-12.0901 6.9245,-19.4091 l 0,-4.4329 -3.870912,4.6961 c -7.005326,8.4986 -17.813838,12.2922 -25.670038,9.0097 -10.858425,-4.5369 -15.98275,-13.1247 -16.043,-26.8862 -0.07237,-16.5196 7.502437,-25.72095 20.326488,-24.69146 4.983775,0.40009 6.467737,0.14089 6.010787,-1.04989 -6.108663,-15.91891 5.1749,-29.27297 24.716337,-29.2517 21.916435,0.0239 31.305365,12.32609 23.934085,31.36064 -0.6601,1.70455 0.39868,1.97561 7.32384,1.87501 7.31546,-0.10626 8.46213,0.233 11.90054,3.5217 2.09277,2.0017 4.72949,6.4226 5.85935,9.8243 5.43657,16.368 -4.93358,37.3678 -19.41198,39.3098 -6.65462,0.8926 -17.13037,-4.1778 -23.320097,-11.2871 l -4.558988,-5.2363 0.842425,5 c 1.0522,6.245 6.650663,18.0843 8.97298,18.9754 2.54526,0.9768 2.1203,5.1071 -0.679642,6.6056 -3.032738,1.6231 -18.3059,1.5171 -22.894675,-0.1589 z m 250.624997,-0.4107 c -4.97286,-2.1614 -5.02857,-2.9931 -0.49173,-7.3397 1.96391,-1.8815 4.16676,-5.5024 4.89521,-8.0464 1.8427,-6.4351 3.15231,-15.2503 2.26565,-15.2503 -0.40598,0 -2.80378,2.2864 -5.32844,5.0809 -5.91876,6.5514 -10.67922,8.9433 -18.01967,9.054 -8.58978,0.1296 -14.79905,-4.3549 -19.75099,-14.2646 -6.38874,-12.785 -4.45901,-25.6707 5.14355,-34.346 4.90069,-4.42751 5.33711,-4.56595 12.38139,-3.92718 6.79726,0.61635 7.2167,0.50338 6.07208,-1.63535 -2.13295,-3.98545 -1.42938,-13.9937 1.29824,-18.4675 7.4009,-12.13889 34.98239,-13.82378 45.55998,-2.78315 4.40375,4.59652 5.47897,12.59785 2.76376,20.56657 l -1.9512,5.72651 6.48734,-0.70748 c 8.2243,-0.89685 14.06147,2.05668 17.67422,8.94278 3.67646,7.0076 3.59333,22.88 -0.15655,29.8855 -9.13597,17.0677 -24.98652,18.8257 -39.05291,4.3312 l -5.10243,-5.2577 0.0125,3.5883 c 0.0154,4.5158 5.02545,15.325 8.56063,18.4694 5.86591,5.2175 1.89226,8.267 -10.67816,8.1949 -4.68583,-0.027 -10.3478,-0.8436 -12.58218,-1.8147 z M -10.123511,765.52115 c -0.487122,-0.78818 -0.162233,-2.78482 0.7219753,-4.43698 1.9622787,-3.66655 1.0068012,-4.91808 -2.3735463,-3.10897 -4.190633,2.24277 -7.688208,1.54462 -11.535389,-2.30257 -4.930541,-4.93054 -5.210045,-13.65359 -0.585665,-18.27796 1.6875,-1.6875 4.21875,-3.06819 5.625,-3.06819 1.993489,0 2.556819,-0.80623 2.556819,-3.65928 0,-5.92506 5.267516,-9.21833 13.6451613,-8.53102 8.1087462,0.66524 12.0077324,4.23834 10.86418,9.95609 -0.5785126,2.89256 -0.2679788,3.48421 1.8287277,3.48421 4.275279,0 8.662544,5.51404 8.657259,10.88069 -0.0096,9.83071 -7.364843,16.13212 -15.323438,13.12808 -3.21499375,-1.21352 -3.53604875,-1.12685 -2.7656962,0.74667 2.0382324,4.95702 1.3726987,5.85961 -4.6054525,6.24592 -3.4227663,0.22118 -6.1894463,-0.21452 -6.7099353,-1.05669 z m 86.915756,-4.81158 c -4.277237,-1.19014 -4.623475,-4.71638 -0.761362,-7.75432 3.423263,-2.69273 7.0048,-12.56182 7.0048,-19.30207 l 0,-3.96956 -5.9375,5.93111 c -10.015163,10.00439 -20.937762,11.22644 -29.9123,3.34669 -10.419225,-9.14819 -13.374588,-24.9216 -6.9627,-37.16136 4.43295,-8.46212 9.809275,-11.64555 18.134313,-10.73768 l 5.946812,0.64852 -0.946812,-3.37971 c -4.528938,-16.16638 5.948849,-27.12971 25.928187,-27.12971 12.919567,0 20.526827,3.67235 24.034747,11.60258 2.48575,5.61946 2.30358,9.579 -0.91148,19.81095 -0.80597,2.565 -0.63053,2.6163 4.74255,1.38677 4.67675,-1.07019 6.36255,-0.89441 10.41933,1.08647 13.08472,6.38908 15.31635,30.77834 3.996,43.67152 -9.96851,11.3535 -21.61868,10.8827 -34.754697,-1.4045 -3.45205,-3.22899 -6.27645,-5.33352 -6.27645,-4.67672 0,3.98115 4.505,15.47055 7.6017,19.38713 4.091977,5.17535 4.594117,7.88039 1.671063,9.00206 -2.610013,1.00156 -19.048863,0.74574 -23.016201,-0.35817 z M 327.2261,760.58482 c -4.4576,-1.79854 -4.87587,-3.94714 -1.32027,-6.78228 3.62964,-2.89417 6.30289,-9.41996 7.68797,-18.76742 l 0.9137,-6.16634 -5.50197,5.66111 c -13.64341,14.03804 -29.81746,12.124 -38.39493,-4.54366 -4.70179,-9.13648 -4.86545,-18.35844 -0.47753,-26.90847 4.93646,-9.6189 10.21935,-12.96711 18.89328,-11.97424 6.2725,0.71799 6.54807,0.63096 5.3125,-1.67772 -0.71674,-1.33922 -1.30317,-5.28283 -1.30317,-8.76354 0,-5.49237 0.58558,-6.97675 4.43178,-11.23402 7.98655,-8.84016 22.49804,-11.29163 35.5221,-6.00086 11.51309,4.67697 15.18895,13.79595 10.67257,26.47625 -0.9701,2.72368 -1.61691,5.09906 -1.43735,5.27862 0.17957,0.17956 2.43257,-0.25505 5.00669,-0.9658 17.10716,-4.72352 28.15684,19.13223 18.29641,39.50115 -7.7877,16.08722 -26.89971,17.33554 -39.52833,2.58184 -4.01714,-4.69314 -4.21387,-4.77696 -4.21387,-1.79564 0,5.2344 3.67267,14.28578 7.56597,18.64657 4.33933,4.86036 4.47712,5.6637 1.26621,7.38213 -2.89218,1.54784 -19.59261,1.58522 -23.39176,0.0524 z M -13.670743,705.48575 c -3.02354,-2.37831 -3.293574,-3.34281 -3.293574,-11.76388 0,-8.70869 0.194729,-9.33701 3.845906,-12.40927 3.063097,-2.57743 5.1621427,-3.23222 10.3125003,-3.21698 7.8132174,0.0231 9.944985,1.18619 9.3884587,5.12222 -0.3708262,2.62267 -1.2536275,3.07241 -7.296865,3.71739 -6.5456825,0.69861 -6.6178062,0.74352 -1.5056812,0.9375 10.4347112,0.39596 15.2965872,10.55983 8.1981525,17.13844 -4.4181013,4.09456 -14.7302075,4.34362 -19.6488973,0.47458 z m 14.206426,-7.38546 c 0,-1.54994 -5.6667312,-3.03183 -7.4289562,-1.94272 -2.6687038,1.64935 -1.2042675,3.16891 3.0539562,3.16891 2.40625,0 4.375,-0.55178 4.375,-1.22619 z"
         id="path3530"
         inkscape:connector-curvature="0" />
      <path
         style="fill:#a5a5a5"
         d="m -90.089317,1452.8069 c -3.286074,-1.8974 -4.918635,-3.5749 -6.67758,-6.8615 -2.089168,-3.9037 -2.089168,-851.83416 0,-855.7378 1.826809,-3.41343 3.520274,-5.10689 6.933698,-6.9337 3.899127,-2.08675 604.338629,-2.08675 608.237769,0 3.41341,1.82681 5.10689,3.52027 6.93369,6.9337 2.08917,3.90364 2.08917,851.8341 0,855.7378 -1.8268,3.4134 -3.52028,5.1069 -6.93369,6.9337 -3.89216,2.083 -604.884817,2.0117 -608.493887,-0.072 z m 607.526997,-1.702 c 8.84407,-4.1968 8.098,35.6975 8.098,-433.0284 0,-382.39074 -0.18821,-423.14383 -1.97158,-426.90202 -4.17033,-8.78829 22.19337,-8.098 -309.27842,-8.098 -331.47178,0 -305.108085,-0.69029 -309.278406,8.098 -1.783378,3.75819 -1.971591,44.51128 -1.971591,426.90202 0,381.6755 0.190785,423.1492 1.963731,426.8854 4.150676,8.7469 -22.313904,8.0546 309.097356,8.0861 269.90611,0.026 299.5927,-0.1645 303.34091,-1.9431 z m -575.636222,-40.8721 c -3.17139,-1.677 -6.328855,-4.6177 -7.696605,-7.168 -2.24435,-4.1848 -2.31917,-16.6052 -2.31917,-384.9883 0,-368.38314 0.07482,-380.80354 2.31917,-384.98837 1.36775,-2.55032 4.525215,-5.49092 7.696605,-7.16799 l 5.377434,-2.84366 267.106788,0 267.10679,0 5.37744,2.84366 c 3.17139,1.67707 6.32885,4.61767 7.6966,7.16799 2.24435,4.18483 2.31917,16.60523 2.31917,384.98837 0,368.3831 -0.0749,380.8035 -2.31917,384.9883 -1.36775,2.5503 -4.52521,5.491 -7.6966,7.168 l -5.37744,2.8437 -267.10679,0 -267.106788,0 -5.377434,-2.8437 z m 544.984222,-8.4063 c 2.48908,-2.4891 2.5,-4.1667 2.5,-383.75 0,-379.58335 -0.0113,-381.26095 -2.5,-383.75002 -2.48456,-2.48457 -4.16666,-2.5 -272.5,-2.5 -268.333331,0 -270.01543,0.0154 -272.499997,2.5 -2.489071,2.48907 -2.5,4.16667 -2.5,383.75002 0,379.5833 0.01087,381.2609 2.5,383.75 2.484568,2.4845 4.166666,2.5 272.499997,2.5 268.33334,0 270.01544,-0.015 272.5,-2.5 z M 80.414383,1373.041 c -7.259762,-1.2035 -12.680325,-3.9895 -16.018325,-8.2331 -3.1842,-4.0481 -3.541112,-14.1985 -0.735375,-20.9136 2.451138,-5.8664 2.422475,-5.9641 -1.331375,-4.5369 -1.7635,0.6705 -5.166438,1.2191 -7.562075,1.2191 -10.891587,0 -16.656812,-8.0045 -16.7041,-23.1921 -0.08638,-27.7555 24.7293,-37.697 42.461162,-17.0105 4.688225,5.4694 4.995738,5.6302 5.003313,2.617 0.01488,-5.9109 -3.811175,-16.1563 -7.678025,-20.5604 -2.105838,-2.3984 -3.53755,-5.1197 -3.181588,-6.0473 1.379913,-3.596 22.513975,-3.4104 26.154065,0.2297 0.94705,0.947 0.22212,2.6031 -2.493302,5.6958 -4.154925,4.7322 -7.068975,14.7564 -6.346025,21.8302 l 0.42795,4.1874 3.904088,-5.5617 c 6.542329,-9.3201 19.320199,-13.5526 27.720489,-9.1819 7.90855,4.1148 14.28889,15.6988 14.28889,25.9426 0,9.3865 -5.19849,18.9295 -12.14305,22.2913 -4.67265,2.262 -6.22705,2.4657 -10.26353,1.3448 -2.61629,-0.7266 -5.10165,-1.3241 -5.52304,-1.3279 -0.42138,0 0.0646,2.5163 1.0799,5.6005 3.35805,10.2002 -0.19001,18.3205 -10.00611,22.9007 -6.550862,3.0567 -13.529287,3.9537 -21.053937,2.7063 z m 248.739567,-0.4049 c -13.15394,-2.8821 -18.17605,-8.8717 -16.99922,-20.2741 0.3692,-3.5773 1.61907,-8.337 2.77744,-10.5771 2.0219,-3.9099 2.01359,-4.0314 -0.20766,-3.0358 -1.2726,0.5703 -5.16869,1.2612 -8.65798,1.5352 -5.42556,0.4261 -6.90573,0.026 -10.22268,-2.7653 -11.44373,-9.6293 -9.9688,-33.0489 2.78668,-44.2484 8.55102,-7.5079 21.61978,-4.7073 31.75292,6.8046 l 5.15223,5.8533 0,-4.3284 c 0,-6.3081 -3.25821,-14.7754 -7.57403,-19.6831 -3.22018,-3.6617 -3.51474,-4.5375 -2.02683,-6.0254 1.99385,-1.9938 14.00725,-2.6609 21.16336,-1.1751 3.37422,0.7006 4.6875,1.6203 4.6875,3.2829 0,1.2703 -0.87243,2.6444 -1.93876,3.0536 -2.96702,1.1385 -6.53907,10.4832 -7.46294,19.5235 l -0.83033,8.125 5.24997,-5.9805 c 11.44069,-13.0324 23.89659,-14.4323 33.97825,-3.8186 10.59841,11.1577 9.67735,33.8286 -1.7101,42.0921 -3.4531,2.5058 -10.62954,3.173 -15.95352,1.4832 -2.55827,-0.812 -2.82645,-0.6227 -1.97288,1.392 0.54333,1.2825 1.2503,5.4524 1.57105,9.2666 0.52345,6.2244 0.2218,7.3642 -2.94499,11.1277 -6.50573,7.7316 -18.53202,11.0201 -30.61748,8.3721 z m 94.35673,-17.6248 c -1.19363,-3.1106 0.71743,-4.4348 6.4,-4.4348 3.0126,0 5.8251,-0.5625 6.25,-1.25 0.4649,-0.7522 -1.18082,-1.25 -4.13265,-1.25 -6.79828,0 -11.49235,-3.8464 -11.49235,-9.4171 0,-6.2587 3.89764,-9.3329 11.83258,-9.3329 10.1123,0 11.91742,1.9988 11.91742,13.1959 0,12.2255 -1.82215,14.3041 -12.53922,14.3041 -5.43794,0 -7.73338,-0.5059 -8.23578,-1.8152 z m 12.65,-16.3269 c 0,-1.9229 -0.84191,-2.4829 -3.73287,-2.4829 -4.25168,0 -6.04986,3.7628 -2.27599,4.7626 3.96269,1.0499 6.00886,0.2736 6.00886,-2.2797 z m -10.625,-26.5035 c -3.82985,-1.9516 -4.4229,-2.8914 -4.75937,-7.5419 -0.33208,-4.5897 -0.7734,-5.3125 -3.24376,-5.3125 -6.91174,0 -9.96655,-11.6602 -4.85623,-18.5361 3.0335,-4.0816 9.19298,-5.0157 13.68129,-2.0748 4.07586,2.6706 4.46724,2.0956 2.01709,-2.9634 -1.71715,-3.5455 -1.75122,-4.3068 -0.23567,-5.266 2.28115,-1.4439 6.27664,-1.4346 8.57558,0.02 1.47109,0.9307 1.52875,1.7453 0.3125,4.4146 -0.82029,1.8004 -1.49143,4.1225 -1.49143,5.1604 0,1.6651 0.32677,1.6582 2.77814,-0.059 3.75249,-2.6284 10.11381,-2.4659 12.63751,0.3227 1.12922,1.2478 2.674,4.0498 3.43287,6.2267 1.95033,5.5947 -1.73104,13.208 -6.66102,13.7752 -2.67533,0.3078 -3.4375,1.0545 -3.4375,3.3678 0,7.7394 -10.69736,12.5696 -18.75,8.4661 z M 81.743221,1066.9593 c -8.247713,-1.6832 -9.152738,-3.324 -4.435376,-8.0413 3.389725,-3.3898 5.384163,-9.4172 6.48265,-19.5915 l 0.742275,-6.875 -5.365712,6.107 c -8.4235,9.5873 -19.181238,13.1577 -27.13095,9.0046 -12.815125,-6.695 -18.21385,-25.366 -11.312925,-39.125 4.818562,-9.60712 11.5582,-12.72871 21.5377,-9.97555 3.356437,0.92598 3.535437,0.79843 2.643837,-1.88392 -0.526,-1.58244 -1.208075,-5.73201 -1.515725,-9.2213 -0.490337,-5.56118 -0.1275,-6.8574 2.939863,-10.50276 5.130875,-6.09769 13.119637,-9.24625 23.136325,-9.11858 19.801427,0.25238 28.818887,11.19355 22.945497,27.84049 -2.44715,6.93602 -2.36816,7.85192 0.54283,6.29402 4.2871,-2.29443 13.16966,-1.5499 16.94564,1.4202 9.51256,7.4826 10.88963,26.621 2.78122,38.6531 -9.34545,13.8677 -25.73894,12.9661 -38.15645,-2.0985 l -3.988237,-4.8384 0.0275,4.9723 c 0.03163,5.7258 3.532612,14.1501 8.171862,19.6636 2.630835,3.1265 2.912655,4.0937 1.566765,5.3767 -2.091502,1.9939 -12.806002,3.1138 -18.55854,1.9398 z m 249.666399,-0.036 c -7.39337,-1.5162 -8.08726,-3.045 -3.66701,-8.0794 4.18502,-4.7665 7.05836,-14.7356 6.34602,-22.0178 l -0.42795,-4.375 -2.80705,4.5137 c -7.20536,11.5862 -22.3942,15.5449 -31.88073,8.3092 -5.9826,-4.5632 -11.22568,-15.3936 -11.22568,-23.1884 0,-7.8389 4.53725,-18.3044 9.45344,-21.805 3.96756,-2.82516 10.15285,-3.49825 16.00937,-1.74216 l 3.29935,0.98931 -1.87925,-5.70831 c -4.79572,-14.56723 5.4339,-25.87522 23.58279,-26.0688 10.351,-0.11037 17.9493,2.41032 22.34019,7.41127 3.22965,3.67836 3.72661,5.21375 3.68827,11.39517 -0.0244,3.9292 -0.84817,8.55025 -1.8307,10.269 -2.64315,4.62372 -2.42687,6.63332 0.54283,5.04402 1.3298,-0.7117 5.03984,-1.294 8.24454,-1.294 11.1866,0 16.83763,7.8971 16.83763,23.5298 0,15.7431 -9.05416,27.7202 -20.95531,27.7202 -7.68025,0 -13.21556,-2.7322 -20.32677,-10.033 -5.63467,-5.7849 -6.21792,-6.1013 -6.21792,-3.374 0,5.5348 3.56939,14.9529 7.53923,19.8928 4.27814,5.3236 4.1615,8.5064 -0.3125,8.5279 -1.56845,0.01 -4.82048,0.2487 -7.22673,0.5358 -2.40625,0.2871 -6.51297,0.084 -9.12606,-0.4523 z M -8.143247,765.64685 c -1.4710813,-0.93075 -1.5287412,-1.74531 -0.3125,-4.41467 0.8202863,-1.80034 1.49143,-4.12251 1.49143,-5.1604 0,-1.6651 -0.3267612,-1.65819 -2.7781325,0.0589 -3.7524915,2.62834 -10.1138175,2.46587 -12.6375145,-0.32278 -1.129214,-1.24778 -2.674,-4.04974 -3.432859,-6.22662 -1.950341,-5.59475 1.731036,-13.208 6.661006,-13.77525 2.675335,-0.30783 3.4375,-1.05453 3.4375,-3.3678 0,-1.63475 1.309175,-4.49427 2.909279,-6.3545 2.30812,-2.68335 4.0628472,-3.40806 8.4919123,-3.50721 8.194075,-0.18347 12.3488087,2.93839 12.3488087,9.2788 0,4.38165 0.3476213,4.97119 2.931265,4.97119 4.375323,0 7.409644,4.12494 7.409644,10.07286 0,9.92393 -8.5712027,15.51229 -16.1628315,10.53805 -4.0758612,-2.6706 -4.46724,-2.09561 -2.01709375,2.96339 1.71714875,3.54552 1.75121375,4.30674 0.2356625,5.26602 -2.28114255,1.44389 -6.27662755,1.43459 -8.57557625,-0.02 z m 91.17893,-4.62889 c -7.523662,-1.24318 -8.75,-1.81522 -8.75,-4.08156 0,-1.28835 0.872437,-2.67723 1.938763,-3.08642 2.983037,-1.1447 6.546237,-10.51331 7.425424,-19.5235 0.739663,-7.58015 0.659238,-7.95735 -1.1992,-5.625 -8.630987,10.8319 -14.413237,14.375 -23.459675,14.375 -16.083162,0 -26.72595,-23.54015 -18.409675,-40.71927 3.956325,-8.17267 8.681175,-10.84354 17.8583,-10.09496 6.429738,0.52447 7.176313,0.3514 6.399313,-1.48351 -0.483775,-1.1425 -1.137525,-4.88976 -1.452762,-8.32726 -0.467275,-5.09531 -0.03225,-7.0458 2.354925,-10.55742 7.285812,-10.71793 24.7326,-13.7096 39.389774,-6.75431 8.85796,4.20338 11.67298,15.39204 6.65464,26.44981 l -2.44526,5.38807 2.78521,-1.01307 c 5.45892,-1.98559 15.4621,-1.17969 18.45624,1.48692 7.67308,6.83373 9.76595,22.48281 4.51485,33.7591 -3.37813,7.25424 -10.20749,13.76019 -15.71369,14.96955 -7.43471,1.63294 -19.533439,-4.59516 -25.270139,-13.0084 l -2.952038,-4.32934 -0.415887,3.578 c -0.650413,5.59571 2.317575,14.24956 6.98365,20.36245 2.345374,3.0726 3.795854,6.01904 3.223274,6.54764 -1.307024,1.20662 -13.739362,2.3776 -17.916037,1.68747 z m 248.532637,-0.0434 c -2.5258,-0.29574 -5.28342,-1.37039 -6.12806,-2.38811 -1.25578,-1.51313 -0.91836,-2.49478 1.85111,-5.38549 3.90846,-4.07956 7.00519,-13.24808 6.96985,-20.6357 l -0.0245,-5.11384 -4.49382,5.3602 c -10.15712,12.11531 -24.56209,13.73554 -33.83369,3.8055 -10.78404,-11.54987 -10.49126,-31.4408 0.60619,-41.18449 4.25197,-3.73329 4.84986,-3.89025 12.20283,-3.20362 l 7.73179,0.72201 -1.8146,-5.2498 c -3.24307,-9.38243 -0.007,-17.83521 8.48385,-22.16746 7.97626,-4.06919 14.72764,-5.01862 23.22914,-3.26667 13.11359,2.70239 18.21019,7.80173 18.13011,18.13984 -0.0263,3.38372 -0.93146,8.26748 -2.01167,10.85278 -1.08022,2.58531 -1.7534,4.91118 -1.49597,5.16861 0.25743,0.25743 1.98893,-0.11019 3.84778,-0.81693 8.64226,-3.28578 16.75141,-0.10175 20.74354,8.14488 5.09766,10.53036 2.01723,30.11633 -5.83263,37.08498 -9.92735,8.81292 -23.2908,6.39571 -34.0519,-6.15939 -4.78905,-5.58745 -5.12641,-5.76946 -5.13395,-2.76981 -0.0149,5.91083 3.81118,16.15625 7.67803,20.56036 4.2199,4.80619 4.03372,8.0961 -0.45938,8.11777 -1.56845,0.008 -4.82047,0.21813 -7.22672,0.46792 -2.40625,0.2498 -6.44157,0.2122 -8.96737,-0.0835 z M -13.645582,704.54055 c -1.517944,-1.6773 -2.068735,-4.6596 -2.068735,-11.2013 0,-11.79365 2.09468,-14.01277 13.2269663,-14.01277 5.9363225,0 7.9344912,0.46628 8.5183537,1.9878 1.25453,3.26925 -0.3168962,4.2622 -6.74532,4.2622 -6.1732887,0 -9.1322125,1.60619 -5.5155862,2.99402 1.08353,0.41579 3.8056187,0.75598 6.0490862,0.75598 5.2295475,0 8.2165,3.30451 8.2165,9.09005 0,6.10264 -3.4525837,8.40995 -12.5843987,8.40995 -5.2212513,0 -7.5599883,-0.5877 -9.0968663,-2.28593 z m 13.95018375,-6.77657 c 0.32892625,-1.73635 -0.463855,-2.1875 -3.84392995,-2.1875 -4.892355,0 -6.03792,0.75124 -5.0543025,3.3145 1.0116625,2.63635 8.36166495,1.70544 8.89823245,-1.127 z"
         id="path3528"
         inkscape:connector-curvature="0" />
      <path
         style="fill:#6f6f6f"
         d="m -89.032453,1453.3698 c -0.793724,-0.5051 135.699436,-0.9183 303.318133,-0.9183 167.6187,0 304.11187,0.4132 303.31814,0.9183 -0.79372,0.5051 -137.28689,0.9184 -303.31814,0.9184 -166.031247,0 -302.524408,-0.4133 -303.318133,-0.9184 z m -8.423128,-8.5206 c -1.095848,-2.8557 -0.899004,-852.11714 0.197905,-853.84086 0.505097,-0.79372 0.918359,191.44065 0.918359,427.18746 0,235.7469 -0.08044,428.6307 -0.178764,428.6307 -0.09832,0 -0.520195,-0.8898 -0.9375,-1.9773 z M 524.91068,1018.0765 c 0,-235.68122 0.41327,-427.86188 0.91837,-427.06816 1.2008,1.88698 1.2008,852.24926 0,854.13626 -0.5051,0.7937 -0.91837,-191.3869 -0.91837,-427.0681 z M -58.504144,1409.253 c -2.565654,-1.3546 -5.518779,-4.1143 -6.5625,-6.1327 -1.684732,-3.2579 -1.897673,-46.4643 -1.897673,-385.0438 0,-338.85143 0.211933,-381.784 1.900759,-385.04983 1.045416,-2.02162 4.116757,-4.80618 6.825202,-6.18793 4.887063,-2.49319 6.955804,-2.51226 272.524036,-2.51226 265.56824,0 267.63698,0.0191 272.52404,2.51226 2.70845,1.38175 5.77979,4.16631 6.8252,6.18793 1.68883,3.26583 1.90076,46.1984 1.90076,385.04983 0,338.8514 -0.21193,381.784 -1.90076,385.0498 -1.04541,2.0216 -4.11675,4.8062 -6.8252,6.1879 -4.88812,2.4938 -6.90015,2.5119 -272.78674,2.457 -264.053744,-0.054 -267.928623,-0.09 -272.527124,-2.5182 z m 543.218174,-5.0644 c 1.67528,-0.7633 3.6705,-2.7585 4.43382,-4.4338 1.98015,-4.3459 1.98015,-759.0107 0,-763.35666 -0.76332,-1.67529 -2.75854,-3.67051 -4.43382,-4.43382 -4.33945,-1.97718 -536.517253,-1.97718 -540.856691,0 -1.675287,0.76331 -3.670505,2.75853 -4.433816,4.43382 -1.98443,4.35535 -1.979721,759.01166 0.0047,763.36716 0.765931,1.681 2.594056,3.6382 4.0625,4.3492 3.907109,1.8918 537.073497,1.9649 541.223247,0.074 z m -409.216609,-33.032 c -3.1148,-0.9602 -7.33355,-3.4906 -9.375,-5.623 -3.253825,-3.3988 -3.702125,-4.7534 -3.633775,-10.9796 0.05212,-4.7449 0.985675,-8.8494 2.8125,-12.3652 3.538025,-6.8091 3.474762,-7.0593 -1.176513,-4.654 -5.06495,2.6191 -13.85785,2.722 -17.696225,0.2071 -6.911687,-4.5288 -10.150375,-21.8753 -6.00545,-32.1654 4.3696,-10.8479 13.298125,-17.3377 21.687587,-15.7638 6.2501,1.1725 15.336151,7.4274 19.140725,13.1765 1.836713,2.7754 3.899638,4.7001 4.584263,4.277 3.082537,-1.9051 -2.877675,-21.6102 -7.915438,-26.1693 -3.587825,-3.247 -2.889475,-5.3124 2.113575,-6.251 5.587875,-1.0483 17.9087,0.1373 19.663525,1.8921 0.907175,0.9072 0.489735,2.1736 -1.368412,4.1515 -3.965513,4.2211 -6.561288,11.3744 -7.4046,20.4052 -0.869888,9.3155 0.488725,10.3276 4.7052,3.5052 3.987212,-6.4515 12.795867,-11.7234 19.588097,-11.7234 10.12084,0 16.94504,6.028 21.01648,18.5644 1.83999,5.6656 1.94889,7.6582 0.71147,13.0189 -3.07581,13.3252 -10.84826,19.8976 -20.68828,17.4942 -2.80305,-0.6847 -6.08017,-1.6609 -7.28247,-2.1693 -2.00453,-0.8478 -1.98087,-0.4725 0.28505,4.5211 5.34145,11.7714 1.77388,20.9287 -10.020172,25.7198 -7.775713,3.1587 -15.529175,3.4627 -23.742138,0.931 z m 250.051939,-0.53 c -9.36165,-3.2313 -12.5213,-7.1365 -12.48623,-15.4323 0.0159,-3.7439 1.07428,-8.7998 2.5,-11.9418 3.26855,-7.2033 3.12693,-8.0785 -0.96495,-5.9631 -11.71158,6.0546 -22.4111,0.3881 -25.26998,-13.3831 -1.32787,-6.3963 -1.20447,-8.1714 1.09411,-15.7389 1.99392,-6.5646 3.71287,-9.5433 7.46159,-12.9301 9.78915,-8.8439 19.0354,-7.4009 31.04202,4.8444 l 7.85976,8.0161 0,-4.9973 c 0,-6.3529 -3.7649,-16.3203 -8.11908,-21.4949 -3.18154,-3.7811 -3.2465,-4.1031 -1.13857,-5.6445 3.96743,-2.9011 21.33413,-1.6928 22.58674,1.5715 0.33781,0.8803 -0.57675,2.7915 -2.03235,4.2471 -3.29005,3.2901 -4.512,6.4545 -6.30006,16.3151 -2.15393,11.8782 -0.95096,12.9046 5.9194,5.0508 6.59706,-7.5415 11.52362,-10.0691 19.62529,-10.0691 4.52532,0 6.4977,0.7692 10.11378,3.9441 11.96437,10.5049 13.79509,29.8339 3.82675,40.4034 -5.17827,5.4906 -9.51321,6.5194 -17.1625,4.0732 -6.57046,-2.1011 -6.88975,-1.8857 -4.1944,2.8293 0.98253,1.7187 1.80635,6.0585 1.8307,9.644 0.0584,8.5856 -4.7261,14.4485 -14.05022,17.2175 -8.31406,2.469 -13.76236,2.3309 -22.1418,-0.5614 z m 100.29882,-14.5608 c -0.85937,-0.3837 -1.5625,-1.4945 -1.5625,-2.4685 0,-1.2581 1.58439,-1.7708 5.47195,-1.7708 5.14375,0 9.28448,-2.3269 7.43388,-4.1775 -0.45238,-0.4524 -3.17281,-0.8225 -6.04543,-0.8225 -6.23858,0 -9.3604,-2.8171 -9.3604,-8.4467 0,-5.8692 2.7726,-7.8033 11.18623,-7.8033 9.40574,0 10.68877,1.5181 10.68877,12.6475 0,10.3981 -1.65713,12.5257 -10.21916,13.1204 -3.31696,0.2305 -6.73396,0.105 -7.59334,-0.2786 z m 11.96194,-17.0518 c -0.30985,-2.1817 -1.3463,-2.903 -4.62089,-3.2161 -4.74773,-0.4538 -7.10448,1.149 -5.98376,4.0696 0.51345,1.338 2.37673,1.959 5.87793,1.959 4.60103,0 5.08525,-0.2881 4.72672,-2.8125 z m -12.27444,-27.5482 c -2.57223,-1.2955 -3.19283,-2.6298 -3.50851,-7.5433 -0.33711,-5.2473 -0.67482,-5.877 -2.79169,-5.2051 -3.2284,1.0247 -8.6998,-4.4916 -8.6998,-8.7712 0,-4.2784 3.14322,-10.207 6.31015,-11.9019 2.9246,-1.5652 6.79109,-0.6187 11.04593,2.7041 3.55839,2.7789 7.34144,2.9862 10.0455,0.5505 1.08539,-0.9777 3.50614,-2.1601 5.37946,-2.6276 4.9422,-1.2334 10.96896,4.9428 10.96896,11.2408 0,5.1628 -4.48467,10.6644 -8.69318,10.6644 -1.99349,0 -2.55682,0.8062 -2.55682,3.6593 0,7.0872 -9.76948,11.1234 -17.5,7.23 z m 4.69215,-34.2255 c -1.14328,-2.5223 -1.78978,-5.0536 -1.43665,-5.625 0.85894,-1.3898 6.417,-1.33 7.28743,0.078 0.60116,0.9727 -2.49441,10.1328 -3.42426,10.1328 -0.19129,0 -1.28322,-2.0638 -2.42652,-4.5862 z M 79.521746,1065.9972 c -4.19265,-0.892 -4.571138,-3.4106 -1.078813,-7.1789 3.203875,-3.457 5.113375,-9.4073 6.555925,-20.4293 1.020488,-7.7971 -1.066375,-8.8458 -5.088175,-2.557 -1.375,2.1501 -4.661587,5.644 -7.303525,7.7643 -4.232175,3.3966 -5.746387,3.8552 -12.730425,3.8552 -7.097312,0 -8.339912,-0.3925 -11.87345,-3.75 -12.684325,-12.0526 -12.67735,-34.1882 0.0135,-42.8125 4.8373,-3.28732 9.205825,-3.54697 15.491263,-0.92075 4.9417,2.06475 5.351512,1.57945 2.65265,-3.14177 -0.982525,-1.71875 -1.80635,-6.05855 -1.8307,-9.644 -0.03762,-5.53891 0.537187,-7.18129 3.82335,-10.92401 8.852112,-10.082 31.286187,-10.77815 40.798334,-1.266 3.60518,3.60517 4.08079,4.86811 4.05657,10.77151 -0.0162,3.95874 -1.04542,8.93115 -2.52222,12.18612 -1.37212,3.0242 -2.32217,5.6712 -2.11123,5.8821 0.21093,0.211 2.87502,-0.4748 5.9202,-1.524 7.4429,-2.56427 12.67858,-1.3964 17.29097,3.8568 14.58955,16.6166 -0.3543,49.7938 -19.98672,44.3731 -6.34525,-1.7521 -12.263929,-6.0519 -16.656742,-12.1011 -2.08,-2.8643 -4.203687,-5.2421 -4.719312,-5.2841 -1.838176,-0.1498 -0.896225,10.0054 1.517187,16.357 1.350075,3.5531 3.990125,8.0628 5.866763,10.0216 2.647804,2.7637 3.077154,3.8964 1.916825,5.0567 -1.547713,1.5477 -14.922138,2.4899 -20.002213,1.409 z m 249.451434,-0.6236 c -3.96456,-1.448 -4.26823,-2.5552 -1.35935,-4.9566 1.14298,-0.9435 3.13152,-4.0914 4.41897,-6.9952 2.64711,-5.9705 4.56123,-21.5953 2.64553,-21.5953 -0.67036,0 -3.00003,2.4802 -5.17706,5.5117 -6.70916,9.3423 -19.11526,13.3107 -27.71305,8.8646 -7.68519,-3.9742 -14.79717,-18.7047 -13.34655,-27.6438 1.14733,-7.0702 5.85465,-15.5252 10.07715,-18.1 4.65465,-2.83831 8.71609,-2.99518 15.50764,-0.59898 l 5.0551,1.78358 -2.37049,-5.22108 c -4.77286,-10.51234 -1.88722,-19.76897 7.68509,-24.6524 15.86412,-8.09328 37.6832,-1.40419 39.48319,12.10438 0.58763,4.4101 -0.36077,7.96425 -5.24102,19.6408 -0.9115,2.1809 -0.7566,2.205 2.69584,0.4197 14.86726,-7.6882 26.00706,0.7875 26.00706,19.7875 0,7.5163 -0.56036,9.7896 -3.84715,15.6073 -4.75695,8.42 -12.33057,13.0924 -19.2084,11.8505 -6.77516,-1.2235 -14.82442,-6.5316 -19.0978,-12.5943 -2.1359,-3.0302 -4.41013,-5.5095 -5.05386,-5.5095 -3.54622,0 3.16654,22.5898 8.01725,26.9796 5.05815,4.5775 1.88406,6.8032 -9.49059,6.6546 -3.4375,-0.045 -7.79687,-0.6466 -9.6875,-1.3371 z M -7.507247,764.45927 c -0.37976,-0.61447 0.208375,-3.26845 1.306965,-5.89774 l 1.9974363,-4.78054 2.3410012,4.81284 c 1.28755,2.64706 2.0392725,5.30105 1.6704925,5.89775 -0.880705,1.42501 -6.43037,1.4005 -7.315895,-0.0322 z m 85.85543,-5.10764 c -3.452988,-1.46664 -3.535325,-2.73354 -0.364125,-5.60343 4.3008,-3.89217 9.439425,-25.60746 6.490862,-27.42976 -0.692037,-0.42771 -3.021649,1.67781 -5.176887,4.67893 -13.863475,19.30455 -37.430663,12.51355 -40.755513,-11.7439 -1.49865,-10.93385 4.155475,-22.88017 12.295325,-25.97822 4.055063,-1.54337 5.383438,-1.51941 10.578263,0.1908 3.267475,1.07569 6.13505,1.76162 6.372387,1.52428 0.237338,-0.23734 -0.453699,-2.14336 -1.535637,-4.23561 -3.149563,-6.09057 -2.5803,-15.50777 1.2097,-20.01193 4.680125,-5.56201 15.663025,-9.35851 24.224325,-8.3737 9.488827,1.09149 17.010927,4.6947 19.385047,9.28577 2.7152,5.25062 2.47548,14.26814 -0.53625,20.17162 -3.44826,6.75915 -3.20288,7.92767 1.18793,5.6571 2.02836,-1.04891 6.20395,-1.9071 9.27909,-1.9071 8.07737,0 12.40471,4.03098 15.12812,14.09209 1.93824,7.16045 1.95893,8.49942 0.23331,15.10748 -1.04137,3.98788 -3.19101,9.1444 -4.77696,11.45895 -3.45812,5.0468 -10.66705,9.35183 -15.59667,9.31403 -7.232,-0.0555 -17.230492,-6.38956 -22.300642,-14.12759 -2.92315,-4.46129 -4.405675,-4.21936 -4.3972,0.71754 0.01125,6.45702 2.23765,12.8068 6.942125,19.79761 2.4021,3.5695 4.033377,6.82409 3.62505,7.2324 -1.285988,1.28599 -18.568513,1.43273 -21.51165,0.18264 z m 251.562497,0.33351 c -4.5876,-1.10346 -4.98541,-2.70974 -1.55726,-6.28795 3.58359,-3.74046 7.18226,-15.30637 7.18226,-23.08334 0,-5.90852 -1.50986,-6.00953 -5.01653,-0.33561 -5.59952,9.0602 -16.55725,14.18789 -25.2123,11.79811 -6.12748,-1.69187 -12.91629,-9.48918 -15.32562,-17.60226 -2.42566,-8.1681 -2.42132,-9.58561 0.052,-16.99142 3.99444,-11.96057 11.88644,-16.7115 22.44159,-13.50969 3.40224,1.03204 6.33795,1.88253 6.52379,1.88997 0.18585,0.008 -0.79853,-2.21406 -2.1875,-4.93667 -5.30165,-10.3921 -2.11229,-20.07935 8.28996,-25.17957 11.79473,-5.78295 30.62531,-2.71998 36.26671,5.89913 3.16358,4.83342 2.88455,14.61383 -0.60962,21.36834 -1.49738,2.89449 -2.72248,5.53766 -2.72248,5.87372 0,0.33606 1.95069,-0.20403 4.33485,-1.2002 14.60888,-6.10398 24.94859,2.20932 24.95443,20.06378 0.006,18.9829 -12.2477,31.37944 -26.72948,27.0406 -5.28177,-1.58246 -15.75948,-10.21251 -16.94893,-13.96013 -1.09319,-3.44433 -4.36087,-3.11266 -4.36087,0.44265 0,5.49415 3.96263,16.48853 7.6017,21.09108 4.38633,5.54761 4.51504,6.73695 0.8358,7.72294 -3.20482,0.85886 -14.07413,0.79572 -17.8125,-0.1035 z M 5.535683,758.41613 c -1.03125,-0.39214 -3.2164825,-1.75398 -4.85607375,-3.02631 -3.56356625,-2.76537 -7.34630625,-2.96709 -10.04550005,-0.53573 -1.0853852,0.97769 -3.5061432,2.16011 -5.3794662,2.62761 -4.9422,1.23337 -10.96896,-4.9428 -10.96896,-11.24088 0,-5.16278 4.484675,-10.66434 8.693181,-10.66434 1.993489,0 2.556819,-0.80623 2.556819,-3.65928 0,-5.52245 5.35589,-9.2542 12.1868163,-8.49125 7.2912887,0.81437 9.0631837,2.62529 9.0631837,9.26282 0,4.97178 0.2607575,5.47342 2.4791887,4.76931 3.3003853,-1.0475 8.7708113,4.40911 8.7708113,8.74866 0,4.21115 -3.127553,10.19865 -6.180761,11.83269 -2.6199665,1.40216 -3.4866165,1.45382 -6.319239,0.3767 z m -15.855785,-52.78156 c -3.944966,-1.68599 -5.394215,-5.20577 -5.394215,-13.10091 0,-9.78791 2.381137,-11.95718 13.125,-11.95718 6.3424325,0 8.125,0.40614 8.125,1.85118 0,1.93285 -2.6947612,2.86788 -9.903735,3.43639 -6.685506,0.52723 -6.44298,3.46243 0.2860887,3.46243 7.1987513,0 11.2843125,3.11902 11.2843125,8.61473 0,2.20238 -0.879525,4.88384 -1.9545012,5.95882 -2.3304163,2.33041 -11.7246163,3.37709 -15.56795,1.73454 z M 1.0346055,698.9784 c 1.7881375,-2.88878 -0.90500125,-4.80613 -6.1136863,-4.35257 -4.0879925,0.35597 -5.9276992,4.18104 -2.9457275,6.12468 2.5774863,1.67999 7.5211663,0.71296 9.0594138,-1.77211 z M -88.480186,582.85184 c 2.79892,-1.11081 602.732816,-1.11081 605.531746,0 1.17747,0.4673 -135.06718,0.84964 -302.76588,0.84964 -167.698697,0 -303.943344,-0.38234 -302.765866,-0.84964 z"
         id="path3526"
         inkscape:connector-curvature="0" />
      <path
         style="fill:#545454"
         d="m 63.348183,1453.389 c 83.015627,-0.1774 218.859377,-0.1774 301.874997,0 83.01563,0.1775 15.09375,0.3226 -150.9375,0.3226 -166.031247,0 -233.953122,-0.1451 -150.937497,-0.3226 z M -97.596548,1018.0765 c 0,-234.09377 0.143868,-329.8594 0.319707,-212.81252 0.175839,117.04687 0.175839,308.57812 0,425.62502 -0.175839,117.0469 -0.319707,21.2812 -0.319707,-212.8125 z m 623.750008,0 c 0,-234.09377 0.14386,-329.8594 0.3197,-212.81252 0.17584,117.04687 0.17584,308.57812 0,425.62502 -0.17584,117.0469 -0.3197,21.2812 -0.3197,-212.8125 z m -585.745423,389.6442 c -2.426821,-1.6317 -4.886844,-4.7125 -5.739302,-7.1875 -2.165867,-6.2884 -2.165867,-758.62506 0,-764.91344 0.852458,-2.47502 3.312481,-5.55578 5.739302,-7.1875 l 4.247354,-2.85578 269.630289,0 269.63029,0 4.24736,2.85578 c 2.42682,1.63172 4.88684,4.71248 5.7393,7.1875 2.16587,6.28838 2.16587,758.62504 0,764.91344 -0.85246,2.475 -3.31248,5.5558 -5.7393,7.1875 l -4.24736,2.8558 -269.63029,0 -269.630289,0 -4.247354,-2.8558 z m 547.234583,-4.8621 2.89306,-2.7179 0,-381.889 0,-381.88909 -2.71788,-2.89307 -2.7179,-2.89306 -270.63904,0 -270.63905,0 -2.893063,2.71789 -2.893064,2.71789 0,381.88904 0,381.8891 2.717893,2.893 2.717892,2.8931 270.639042,0 270.63905,0 2.89306,-2.7179 z M 76.785683,1370.9509 c -6.54625,-2.3678 -10.33975,-4.9056 -11.930062,-7.9809 -2.813925,-5.4415 -2.25485,-13.5299 1.448975,-20.9625 1.7979,-3.6079 3.02515,-6.8036 2.727237,-7.1015 -0.297925,-0.298 -2.753312,0.6115 -5.456412,2.0209 -5.791313,3.0197 -14.28125,2.676 -18.045538,-0.7307 -4.282825,-3.8759 -6.65195,-12.3041 -5.942612,-21.1409 1.537462,-19.1536 15.2063,-29.3721 29.520975,-22.0693 4.638649,2.3664 13.068862,10.6398 14.151725,13.8884 0.322974,0.9689 1.4151,1.3201 2.641437,0.8495 1.586925,-0.6089 1.9231,-1.7928 1.394937,-4.9123 -1.345087,-7.9446 -4.515375,-16.6504 -7.497787,-20.5892 -1.657075,-2.1885 -3.012875,-4.5791 -3.012875,-5.3125 0,-1.6276 18.5725,-1.8034 21.104487,-0.1998 1.39595,0.8841 1.07805,1.9494 -1.64845,5.524 -5.285249,6.9293 -8.863287,28.3424 -4.7359,28.3424 0.576738,0 2.8343,-2.5334 5.016813,-5.6298 6.097717,-8.6508 15.620427,-13.3065 23.283487,-11.3832 8.03319,2.0162 16.94258,15.1398 16.96735,24.993 0.0185,7.3575 -2.55044,14.4084 -6.94879,19.072 -3.2613,3.458 -4.87668,4.198 -9.16425,4.198 -2.86277,0 -7.22442,-0.8438 -9.69255,-1.875 -6.36877,-2.6611 -7.11447,-2.3585 -4.13137,1.6764 1.44412,1.9533 3.14507,5.8631 3.77989,8.6884 2.81772,12.5408 -7.19984,21.5298 -23.830717,21.384 -4.46875,-0.039 -8.96875,-0.3764 -10,-0.7494 z m 248.229037,-0.915 c -2.69277,-0.9945 -6.34902,-3.2612 -8.125,-5.0372 -4.39209,-4.3921 -4.47625,-13.8374 -0.20456,-22.9576 1.66345,-3.5515 2.75009,-6.7317 2.41472,-7.0671 -0.33535,-0.3353 -2.79967,0.5068 -5.47627,1.8714 -12.47089,6.358 -22.0259,-0.057 -23.92129,-16.0608 -1.44862,-12.2314 6.42155,-27.4895 15.33285,-29.7261 8.78579,-2.205 19.68381,2.9897 26.66451,12.7101 4.99393,6.954 6.90237,6.155 5.76848,-2.4148 -0.98245,-7.4252 -4.68798,-16.4326 -8.37449,-20.3567 -1.41345,-1.5046 -2.19652,-3.3397 -1.74017,-4.0781 1.08572,-1.7567 17.59552,-1.7445 20.88408,0.015 2.529,1.3535 2.52825,1.3667 -0.21992,3.927 -4.11,3.8291 -6.37866,10.3554 -7.15139,20.5726 -0.81497,10.7759 0.30636,11.5106 5.84481,3.8299 5.72765,-7.9432 11.55698,-11.4225 19.26507,-11.4988 8.2648,-0.082 13.21818,3.3183 17.57697,12.0652 5.7148,11.4681 3.47135,26.6938 -4.90397,33.2818 -4.20554,3.3081 -11.26115,3.5571 -17.43037,0.6152 -5.58736,-2.6644 -6.65238,-1.6107 -3.15428,3.1207 1.51192,2.045 3.03665,6.2706 3.38828,9.3903 0.80695,7.1592 -2.68531,13.3397 -9.3743,16.5903 -6.11373,2.9711 -20.54468,3.6148 -27.06376,1.2072 z m 99.8905,-15.7182 c -0.96352,-1.5591 1.0477,-2.2997 7.49506,-2.76 3.58352,-0.2558 5.10643,-0.9727 5.40417,-2.5437 0.33793,-1.7832 -0.49529,-2.1875 -4.50854,-2.1875 -9.498,0 -14.7482,-8.012 -9.01023,-13.75 3.08109,-3.0811 11.92602,-3.388 15.97187,-0.5541 2.40691,1.6858 2.77813,3.0797 2.77813,10.4312 0,10.602 -1.75501,12.6229 -10.96215,12.6229 -3.51467,0 -6.74041,-0.5665 -7.16831,-1.2588 z m 13.21743,-13.221 c 2.66906,-3.216 -0.1185,-6.1452 -5.8482,-6.1452 -4.1754,0 -4.92347,0.4223 -5.28563,2.9836 -0.23202,1.641 0.33048,3.4605 1.25,4.0434 2.72518,1.7273 8.11769,1.2463 9.88383,-0.8818 z m -14.41673,-31.7202 c -1.66751,-1.8426 -2.01141,-3.5471 -1.38709,-6.875 0.79495,-4.2375 0.67704,-4.425 -2.78277,-4.425 -1.9871,0 -4.54384,-1.0287 -5.68164,-2.2859 -2.88024,-3.1827 -2.61794,-10.4288 0.52199,-14.4205 3.2456,-4.1262 7.75555,-4.2632 12.91629,-0.3925 6.18357,4.6378 6.4133,4.6682 10.79927,1.4324 2.29868,-1.696 5.45446,-3.0835 7.01286,-3.0835 4.45647,0 7.93085,4.673 7.93085,10.6669 0,6.0227 -2.80597,9.3331 -7.91092,9.3331 -2.9695,0 -3.33908,0.4743 -3.33908,4.2857 0,5.9642 -2.71058,8.2143 -9.89555,8.2143 -4.33891,0 -6.57195,-0.6685 -8.18421,-2.45 z m 7.07979,-33.1255 c -1.99496,-4.3784 -1.97803,-4.4245 1.62497,-4.4245 3.44582,0 4.00907,2.0631 1.50003,5.4944 -1.51244,2.0684 -1.72886,1.9943 -3.125,-1.0699 z M 77.672921,1064.1982 c -2.071151,-1.2052 -1.9641,-1.6139 1.437787,-5.4884 2.209187,-2.5161 4.223987,-6.7435 5.050262,-10.5963 1.573013,-7.3347 1.827388,-17.5373 0.437213,-17.5364 -0.515625,3e-4 -3.417487,2.8803 -6.448575,6.4 -5.6413,6.5506 -13.302812,11.0391 -18.863925,11.0514 -10.105137,0.022 -20.0237,-12.9056 -19.97255,-26.0323 0.06887,-17.6774 11.2289,-26.71777 25.58,-20.7215 2.564525,1.0715 4.93275,1.6783 5.262725,1.3483 0.329988,-0.33 -0.653675,-2.2956 -2.185887,-4.36807 -3.903588,-5.27989 -4.56945,-14.61763 -1.40145,-19.6535 7.015587,-11.15203 33.200775,-12.5363 42.841329,-2.2648 4.02995,4.29372 4.0821,14.98385 0.11037,22.62755 -3.82927,7.36952 -3.45466,8.28052 2.21566,5.38772 14.09387,-7.19017 24.47815,1.0529 24.37592,19.3496 -0.11,19.6734 -14.64665,32.0632 -28.79342,24.5409 -6.30026,-3.3501 -7.808984,-4.6545 -12.849272,-11.1094 -2.2841,-2.9251 -4.728937,-4.9624 -5.432962,-4.5273 -3.2692,2.0205 2.384975,21.6355 7.94155,27.5502 1.41345,1.5045 2.196525,3.3397 1.740175,4.078 -1.065363,1.7238 -18.071,1.695 -21.04495,-0.036 z m 251.300259,0.5166 c -2.42775,-0.6344 -2.86767,-2.3204 -0.91963,-3.5244 4.6278,-2.8601 10.62976,-26.7798 7.47986,-29.8095 -1.12615,-1.0832 -1.97545,-0.6725 -3.50643,1.6956 -3.95805,6.1223 -11.54093,12.417 -16.59866,13.7789 -9.85041,2.6524 -17.98942,-1.9475 -23.18405,-13.1028 -4.90191,-10.5268 -3.32156,-22.4625 4.00241,-30.2281 3.2613,-3.458 4.87669,-4.19802 9.16425,-4.19802 2.86278,0 7.22443,0.84372 9.69255,1.87502 6.60932,2.7615 7.05144,2.3793 3.48388,-3.01162 -4.22871,-6.39 -4.6972,-14.78019 -1.10074,-19.71293 6.1706,-8.46331 21.60651,-11.61985 34.8147,-7.11936 10.90675,3.7163 13.90308,14.86924 7.46545,27.78788 -1.7979,3.60793 -2.98634,6.84243 -2.64097,7.18783 0.34536,0.3453 2.5195,-0.5253 4.83141,-1.9348 5.49199,-3.3482 13.47094,-3.3747 17.68665,-0.059 11.07501,8.7116 8.6058,34.8495 -4.10818,43.4871 -8.68967,5.9035 -22.03081,1.3084 -30.31233,-10.4407 -2.1554,-3.0579 -4.31295,-5.5598 -4.79455,-5.5598 -4.61627,0 0.79507,21.6333 7.24997,28.9837 1.0185,1.1598 1.48226,2.7067 1.03059,3.4375 -0.79864,1.2922 -15.2683,1.6347 -19.73618,0.4671 z M -6.964317,762.9943 c 0,-0.7327 0.6328125,-2.5146 1.40625,-3.95977 1.40416,-2.6237 1.4087388,-2.62311 3.0807062,0.39467 2.3588363,4.25754 2.1809213,4.89728 -1.3619562,4.89728 -1.71875,0 -3.125,-0.59948 -3.125,-1.33218 z m 84.003338,-4.7348 c -1.278538,-0.81103 -1.169438,-1.40208 0.515637,-2.79336 1.175525,-0.97056 3.205125,-4.17315 4.510225,-7.11686 2.766088,-6.23903 4.467375,-22.00934 2.505188,-23.22204 -0.714213,-0.44141 -3.263675,1.93271 -5.665463,5.27583 -4.914625,6.8408 -12.869112,11.42341 -19.828725,11.42341 -14.325037,0 -24.570025,-22.47999 -17.419787,-38.22325 4.634487,-10.20413 12.738275,-12.97579 23.567087,-8.06041 5.969225,2.70953 6.620263,1.70128 2.5,-3.87168 -2.113637,-2.85885 -2.8125,-5.51028 -2.8125,-10.67044 0,-6.30586 0.372988,-7.20813 4.569475,-11.05393 7.6227,-6.98569 19.646538,-8.74381 31.651602,-4.62808 11.9145,4.08468 14.78571,14.18644 8.00129,28.15085 -1.55039,3.19115 -2.53379,6.08718 -2.18535,6.43562 0.34843,0.34843 2.84515,-0.51845 5.54825,-1.92641 10.08698,-5.254 19.89281,-0.32789 23.11316,11.61128 2.99787,11.11439 -1.79345,26.37987 -10.01989,31.92395 -9.1044,6.13577 -23.28939,1.70246 -30.782687,-9.62068 -3.715688,-5.61478 -6.77085,-6.60947 -6.77085,-2.20445 0,6.09245 4.03365,17.97647 7.623538,22.46059 2.068587,2.58388 3.416337,5.25575 2.994999,5.9375 -0.920125,1.48878 -19.30885,1.63559 -21.6152,0.17256 z m 251.029409,-0.13632 c -1.55886,-0.98583 -1.40276,-1.63283 1.0148,-4.2062 3.26797,-3.47859 5.84377,-11.15853 7.09125,-21.14305 0.87623,-7.01308 -0.46511,-10.08284 -3.02038,-6.91241 -6.75937,8.38661 -9.94267,11.46219 -14.01277,13.5386 -8.29351,4.23104 -15.3034,3.00056 -22.01517,-3.8644 -7.93708,-8.11823 -9.88561,-21.13927 -4.79845,-32.06542 4.53477,-9.73972 11.76015,-12.59916 21.52577,-8.51882 7.01175,2.92969 8.45507,2.48097 5.38339,-1.67369 -3.47627,-4.70192 -4.98834,-11.83691 -3.58534,-16.91819 3.91369,-14.17421 31.4211,-18.24617 43.263,-6.40427 3.5342,3.5342 4.11942,4.9846 4.10894,10.18365 -0.007,3.82896 -1.16885,8.54718 -3.15166,12.80667 -1.7267,3.70929 -2.92996,6.95366 -2.67391,7.20971 0.25605,0.25605 2.93992,-0.6571 5.96416,-2.02921 6.67265,-3.02743 10.06562,-3.16099 15.03392,-0.59177 7.40432,3.82891 10.77075,18.59735 7.06139,30.97809 -0.84056,2.80556 -3.83789,7.51145 -6.66072,10.45752 -4.6402,4.84279 -5.70428,5.35649 -11.09528,5.35649 -3.27957,0 -7.85367,-0.89725 -10.16466,-1.99388 -4.21098,-1.99825 -13.44986,-11.07765 -14.51073,-14.26023 -0.34073,-1.02222 -1.41211,-1.37068 -2.69758,-0.8774 -1.7454,0.66977 -1.9811,1.78807 -1.29882,6.16238 1.2133,7.7787 3.8245,14.60784 7.35563,19.23739 1.70526,2.23571 3.10047,4.66496 3.10047,5.39834 0,1.66912 -18.6032,1.7832 -21.21725,0.1301 z M 1.785683,755.51312 c -6.1044587,-4.89874 -6.8981975,-5.0223 -11.3175512,-1.7618 -2.2924808,1.69133 -5.4432038,3.07516 -7.0016048,3.07516 -4.456459,0 -7.930844,-4.67304 -7.930844,-10.66696 0,-6.02265 2.805973,-9.33304 7.910926,-9.33304 2.969502,0 3.339074,-0.47435 3.339074,-4.28571 0,-5.96423 2.710593,-8.21429 9.8955513,-8.21429 7.7643125,0 10.7711175,2.92944 9.5713,9.32501 -0.7949575,4.23748 -0.6770388,4.42499 2.7827725,4.42499 4.7337912,0 7.7503762,3.49999 7.7503762,8.99235 0,9.32739 -8.1689412,13.92612 -15,8.44429 z m -14.181265,-52.22257 c -1.486082,-1.6421 -2.068735,-4.61463 -2.068735,-10.55412 0,-7.12709 0.383413,-8.53674 2.778133,-10.21407 3.7778458,-2.64611 15.971867,-2.70022 15.971867,-0.0709 0,1.41039 -1.5107712,1.875 -6.0969438,1.875 -3.5338799,0 -6.6742649,0.69563 -7.4702587,1.65474 -2.1465235,2.5864 0.803625,4.59526 6.7484675,4.59526 8.3214838,0 12.60951,7.88442 7.0328088,12.93126 -3.2678338,2.95735 -14.1490075,2.81748 -16.8953388,-0.21719 z m 14.049775,-3.18064 c 2.7181988,-3.27522 0.2607163,-5.78343 -5.6664775,-5.78343 -5.9908875,0 -8.2101265,2.3017 -5.4388212,5.64092 1.937875,2.33499 9.2082687,2.4283 11.1052987,0.14251 z m 61.69399,-117.97088 c 83.015627,-0.17742 218.859377,-0.17742 301.874997,0 83.01563,0.17742 15.09375,0.32258 -150.9375,0.32258 -166.031247,0 -233.953122,-0.14516 -150.937497,-0.32258 z"
         id="path3524"
         inkscape:connector-curvature="0" />
      <path
         style="fill:#2e2e2e"
         d="m 63.973183,1453.389 c 82.671877,-0.1774 217.953127,-0.1774 300.624997,0 82.67188,0.1775 15.03125,0.3227 -150.3125,0.3227 -165.343747,0 -232.984372,-0.1452 -150.312497,-0.3227 z M -97.596569,1018.0765 c 0,-233.40627 0.143878,-328.89065 0.319728,-212.18752 0.17585,116.70312 0.17585,307.67192 0,424.37502 -0.17585,116.7031 -0.319728,21.2187 -0.319728,-212.1875 z m 623.749999,0 c 0,-233.40627 0.14388,-328.89065 0.31973,-212.18752 0.17585,116.70312 0.17585,307.67192 0,424.37502 -0.17585,116.7031 -0.31973,21.2187 -0.31973,-212.1875 z m -583.909354,390.1024 c -2.154134,-1.3135 -4.826009,-3.6866 -5.9375,-5.2735 -1.850489,-2.6419 -2.020893,-35.1003 -2.020893,-384.9385 l 0,-382.05327 2.61037,-3.31855 c 5.935135,-7.5453 -14.88122,-7.0186 277.389627,-7.0186 292.27085,0 271.4545,-0.5267 277.38963,7.0186 l 2.61037,3.31855 0,382.16287 0,382.1628 -2.61037,3.3186 c -5.93533,7.5455 14.90661,7.019 -277.64005,7.0139 -261.491436,0 -267.967906,-0.062 -271.791184,-2.3929 z m 546.069444,-4.8246 2.84716,-2.8473 0,-382.4305 0,-382.43058 -2.84722,-2.84722 -2.84723,-2.84722 -271.18055,0 -271.180552,0 -2.847222,2.84719 -2.847223,2.8472 -0.297417,380.90283 c -0.237333,303.9514 0.02017,381.5291 1.274635,384.0031 0.864628,1.7052 2.967216,3.8084 4.672417,4.6738 2.46873,1.2528 58.0364763,1.5125 272.753202,1.2746 l 269.65283,-0.2987 2.84717,-2.8472 z M 76.203458,1370.0646 c -13.2947,-3.7238 -16.491125,-14.2645 -8.744012,-28.8348 3.850425,-7.2416 2.977587,-9.0688 -2.665975,-5.5809 -5.6347,3.4825 -14.53125,3.6988 -18.13115,0.4409 -4.80635,-4.3497 -6.608238,-9.4351 -6.603988,-18.6383 0.005,-10.0182 2.8728,-16.9612 9.209338,-22.293 9.279412,-7.8082 21.769125,-4.1418 31.646912,9.2899 2.64505,3.5967 4.408,4.8985 6.051713,4.4687 1.275662,-0.3336 2.319387,-0.097 2.319387,0.5264 0,0.6231 1.125,1.133 2.5,1.133 1.375,0 2.5,-0.5609 2.5,-1.2464 0,-1.997 8.864067,-11.2484 12.656487,-13.2095 4.93863,-2.5539 13.46755,-2.2427 18.23711,0.6655 4.18387,2.551 9.3902,11.3718 10.93883,18.5331 1.28585,5.9461 -1.53238,16.0785 -5.8351,20.9791 -4.95264,5.6407 -9.80306,6.4076 -18.9297,2.9929 -8.12535,-3.0401 -10.00239,-2.5481 -6.11415,1.6027 5.49276,5.8636 6.82702,14.8309 3.13632,21.0788 -4.50265,7.6224 -19.964047,11.5112 -32.172022,8.0919 z m 249.426852,-0.5845 c -3.7292,-1.3293 -7.79481,-3.7358 -9.0347,-5.3478 -3.39246,-4.4105 -3.02785,-14.217 0.80984,-21.7815 2.9028,-5.7216 3.88983,-9.2743 2.57668,-9.2743 -0.30445,0 -2.41382,1.0797 -4.6875,2.3995 -7.26067,4.2143 -14.94451,3.8572 -19.71807,-0.9163 -10.4533,-10.4533 -5.16996,-36.6207 8.5614,-42.403 8.4225,-3.5467 20.32942,1.8313 27.26804,12.3163 1.80348,2.7252 4.16565,4.8376 5.2633,4.7067 1.09526,-0.1306 3.07572,0.2288 4.40102,0.7986 1.83616,0.7896 2.87736,0.327 4.375,-1.9437 6.51373,-9.8759 12.59298,-13.7081 21.74586,-13.7081 6.75367,0 12.00318,3.8058 16.16558,11.7197 5.8013,11.03 2.27909,29.3287 -6.52126,33.8795 -4.92188,2.5452 -7.8031,2.3991 -15.16863,-0.7695 -3.414,-1.4687 -6.55496,-2.3226 -6.97991,-1.8977 -0.42496,0.425 0.71715,2.9225 2.53804,5.55 3.90168,5.6302 4.56396,15.4224 1.35308,20.0066 -5.34603,7.6325 -21.22335,10.8443 -32.94777,6.665 z m 100.6195,-15.0094 c -0.57333,-0.9277 0.65452,-1.3942 3.66927,-1.3942 5.28152,0 9.3666,-1.869 9.3666,-4.2853 0,-2.18 -2.76875,-3.2147 -8.60223,-3.2147 -5.66312,0 -7.64777,-1.7841 -7.64777,-6.875 0,-5.4337 2.01175,-6.875 9.59619,-6.875 5.66794,0 6.8862,0.4426 8.65708,3.1453 2.51355,3.8362 1.84888,14.7882 -1.07492,17.712 -2.39986,2.3999 -12.76561,3.7263 -13.96422,1.7869 z m 12.41087,-15.7692 c 0,-3.5771 -0.26895,-3.7674 -5.83288,-4.1267 -5.00357,-0.3232 -5.9513,0 -6.66578,2.2474 -1.30996,4.1274 1.52864,6.4333 7.39058,6.0037 4.75912,-0.3488 5.10808,-0.6306 5.10808,-4.1244 z m -12.95638,-28.4648 c -2.684,-1.2898 -2.88948,-1.9857 -2.2301,-7.553 0.72526,-6.1238 0.72153,-6.1315 -2.65532,-5.4859 -4.79427,0.9164 -7.55193,-0.9925 -8.46503,-5.8597 -0.92618,-4.9369 1.9197,-11.4426 5.50302,-12.5799 3.04836,-0.9675 7.68459,0.844 10.68505,4.1748 2.40385,2.6686 8.24376,3.6785 8.24376,1.4256 0,-0.6699 1.76548,-2.1309 3.92327,-3.2467 7.23086,-3.7392 13.45585,2.429 11.73087,11.6239 -0.89151,4.7522 -3.68547,6.6203 -8.51921,5.6963 -3.41311,-0.6525 -3.45188,-0.5895 -2.66573,4.3268 0.68742,4.2988 0.39502,5.2709 -2.11386,7.0282 -3.32912,2.3318 -9.11667,2.5255 -13.43672,0.4496 z m -339.361804,-14.796 c -1.214363,-4.4072 -3.925413,-10.1515 -6.046625,-12.8119 -4.607638,-5.7788 -3.576013,-7.013 5.864812,-7.0161 7.9951,0 11.875,1.0542 11.875,3.2346 0,0.951 -0.427187,1.7292 -0.949312,1.7292 -1.823638,0 -4.223875,5.2844 -6.374888,14.0351 l -2.16765,8.8183 -2.201337,-7.9892 z m 251.100884,1.7455 c -0.96292,-5.1328 -4.88236,-13.5227 -7.94113,-16.9985 -1.73087,-1.9669 -1.75275,-2.4153 -0.16687,-3.4184 2.46053,-1.5563 12.73375,-1.4984 16.92589,0.095 l 3.38834,1.2882 -2.63971,2.8099 c -2.95417,3.1446 -6.47422,12.1549 -6.47422,16.5721 0,4.8241 -2.16772,4.5797 -3.0923,-0.3487 z m 93.47838,-21.4538 c -1.69569,-2.7178 -0.98926,-3.9059 2.32226,-3.9059 2.68418,0 2.8944,1.1985 0.72916,4.1572 -1.46077,1.9961 -1.65943,1.9797 -3.05142,-0.2513 z m -351.434165,-211.4858 -2.923087,-1.1714 3.093375,-3.6762 c 1.70135,-2.022 3.768987,-6.6623 4.594725,-10.3119 2.71975,-12.0205 2.764163,-12.0661 4.617975,-4.7371 0.953162,3.7683 3.4367,9.6113 5.518975,12.9845 2.93685,4.7575 3.419837,6.3652 2.153537,7.1684 -2.177787,1.3812 -13.3897,1.2128 -17.0555,-0.2563 z m 251.360585,0.5115 c -3.47245,-0.7476 -3.56981,-2.5894 -0.31978,-6.0489 1.371,-1.4593 3.52026,-6.8336 4.77615,-11.9427 l 2.28342,-9.2894 1.5394,6.1135 c 1.82978,7.2667 4.50318,12.8245 8.01779,16.6685 1.41187,1.5441 2.17799,3.1966 1.70247,3.6721 -1.05972,1.0597 -14.12885,1.6601 -17.99945,0.8269 z m -220.62753,-15.9506 c -6.35559,-2.2877 -12.628342,-7.2558 -15.952717,-12.6347 -1.737525,-2.8114 -3.556675,-4.3214 -4.926462,-4.0894 -1.19445,0.2024 -3.037838,-0.3509 -4.096413,-1.2294 -1.64175,-1.3625 -2.584025,-0.6796 -6.409937,4.6458 -10.797738,15.0296 -27.402213,15.0428 -35.789675,0.028 -6.231688,-11.1554 -2.903188,-29.5984 6.190425,-34.3009 4.848862,-2.50746 8.28595,-2.36263 14.873812,0.6267 2.996963,1.3599 5.950088,2.4725 6.5625,2.4725 2.007413,0 1.16995,-2.697 -2.0115,-6.47793 -4.50175,-5.35003 -4.449225,-15.50648 0.10825,-20.92267 8.251225,-9.80602 32.780017,-9.59676 40.801497,0.34808 3.35224,4.15601 2.879,13.97982 -1.05361,21.87154 -1.7979,3.60788 -2.92864,6.90008 -2.51274,7.31598 0.41589,0.4159 3.07193,-0.2881 5.90232,-1.5644 14.02113,-6.32263 23.9491,1.2157 24.01796,18.237 0.0195,4.8156 -0.94086,9.049 -3.14488,13.8632 -4.95523,10.8237 -13.24402,15.1631 -22.55878,11.8103 z m 249.69003,-0.064 c -4.49668,-1.6352 -15.66577,-11.6393 -16.97976,-15.2087 -0.28614,-0.7773 -2.77024,-1.7444 -5.52024,-2.1493 -4.74557,-0.6986 -5.19082,-0.4732 -8.75,4.4285 -5.32176,7.3291 -9.52242,10.0236 -16.70195,10.7135 -8.49228,0.816 -13.95731,-2.5822 -18.21793,-11.3281 -4.48598,-9.2085 -5.01133,-13.3197 -2.71249,-21.2275 1.40266,-4.8249 3.3209,-8.0396 6.42221,-10.7626 5.31193,-4.66395 9.52796,-4.94475 18.20398,-1.2124 7.05682,3.0357 9.02918,2.3738 5.17771,-1.7377 -5.35939,-5.72131 -6.77246,-14.45262 -3.39576,-20.98243 5.73768,-11.09548 32.51218,-13.01925 41.90711,-3.01106 4.35266,4.63678 4.17287,14.15903 -0.43501,23.04053 -1.85632,3.57796 -3.04883,7.03336 -2.65002,7.67866 0.40152,0.6497 2.70145,-0.048 5.1537,-1.5638 2.6201,-1.6193 6.62963,-2.7845 9.81839,-2.8533 21.54133,-0.4646 19.14475,43.7022 -2.56994,47.3619 -2.0625,0.3476 -6,-0.1862 -8.75,-1.1862 z M -6.964317,763.6193 c 0,-0.38895 0.60715,-1.84165 1.3492213,-3.22822 1.2950125,-2.41975 1.4161137,-2.42956 3.0141549,-0.2441 0.9157138,1.25231 1.4003675,2.70501 1.0770075,3.22821 -0.6763162,1.0943 -5.4403837,1.30806 -5.4403837,0.24411 z m 86.5625,-5.17498 c -3.4487,-0.66425 -3.5442,-1.81819 -0.38695,-4.67547 2.64925,-2.39753 6.32445,-11.96625 6.32445,-16.46627 0,-1.55571 0.5625,-3.1762 1.25,-3.6011 0.6875,-0.4249 1.25,0.0848 1.25,1.13255 0,3.67061 4.035612,13.9054 7.072737,17.9373 1.686138,2.23842 2.720113,4.62905 2.297713,5.3125 -0.748913,1.21178 -12.186138,1.44329 -17.80795,0.36049 z m 250.624997,0.0205 c -2.78311,-0.7273 -2.77468,-0.79044 0.84822,-6.35264 1.66965,-2.56339 3.73723,-8.30676 4.59466,-12.76305 l 1.55894,-8.10236 2.7626,9.04721 c 1.51942,4.97597 4.21971,10.9576 6.00063,13.29252 2.73108,3.58063 2.93314,4.3623 1.29052,4.99264 -2.18823,0.8397 -13.70017,0.76254 -17.05557,-0.11437 z M 4.910683,756.89478 c -1.375,-0.56278 -3.571555,-2.21461 -4.881235,-3.67076 -2.402825,-2.67154 -8.243765,-3.68448 -8.243765,-1.42964 0,0.66985 -1.7654687,2.13086 -3.923265,3.2467 -7.230857,3.73922 -13.455845,-2.429 -11.730872,-11.6239 0.891516,-4.75219 3.685478,-6.62035 8.519216,-5.69632 3.413111,0.65246 3.451871,0.58954 2.665719,-4.32678 -0.687406,-4.2988 -0.395014,-5.27095 2.113858,-7.02823 3.4529602,-2.41855 8.464559,-2.61946 13.0641803,-0.52373 3.112895,1.41833 3.2799175,1.9087 2.6014162,7.63757 -0.7238963,6.11218 -0.719655,6.12091 2.6565425,5.47551 4.79428,-0.91648 7.551946,0.99242 8.46504,5.85962 1.171454,6.24439 -3.292466,13.62628 -7.9715688,13.18242 C 7.786553,757.95367 6.285683,757.45755 4.910683,756.89478 Z M 108.56353,742.55344 c -5.18107,-2.25602 -12.729597,-9.02435 -15.033572,-13.47976 -1.095262,-2.118 -2.7619,-3.52359 -3.99865,-3.37234 -1.166337,0.14265 -3.209712,-0.20871 -4.540825,-0.78079 -1.795062,-0.77147 -2.763687,-0.41876 -3.75,1.36552 -3.04465,5.50787 -11.549287,12.83486 -16.420225,14.14646 -20.277887,5.46027 -33.998137,-25.42944 -18.706437,-42.11558 3.448575,-3.76305 5.03515,-4.55865 9.090775,-4.55865 2.702187,0 7.262862,1.0596 10.134825,2.35468 2.871962,1.29507 5.547275,2.02916 5.945125,1.6313 0.397862,-0.39786 -0.732875,-2.86645 -2.512738,-5.48576 -2.448525,-3.60332 -3.236125,-6.33281 -3.236125,-11.21501 0,-8.33375 4.112962,-13.11434 13.743375,-15.97426 8.200688,-2.43534 10.03705,-2.4499 18.756625,-0.14871 13.676277,3.60933 17.222077,13.23152 10.442637,28.33811 -1.81905,4.05337 -2.97364,7.7035 -2.56575,8.11139 0.40789,0.40788 2.66573,-0.44755 5.0174,-1.90098 4.618,-2.85407 13.12095,-3.52516 17.17495,-1.35553 3.04711,1.63077 5.74843,6.83102 7.41771,14.27975 1.00818,4.49865 0.88545,7.42769 -0.53988,12.88591 -3.965,15.18363 -14.86018,22.30746 -26.41922,17.27425 z m 247.35492,-1.97385 c -3.86294,-2.21547 -8.07864,-6.02917 -10.40935,-9.41676 -3.01967,-4.38894 -4.46772,-5.51859 -6.32027,-4.93061 -1.3463,0.4273 -2.40315,0.17596 -2.40315,-0.5715 0,-3.07405 -3.86358,-0.95978 -7.50046,4.1045 -7.86539,10.95235 -20.64807,14.427 -29.16795,7.92858 -16.33709,-12.46091 -11.52481,-44.29593 6.62396,-43.82005 2.48734,0.0652 6.36515,1.07149 8.61735,2.23615 6.81222,3.52273 8.11987,2.1229 3.88513,-4.15902 -12.87719,-19.10241 10.2787,-35.79935 34.77169,-25.07271 9.59982,4.20422 11.44516,15.24707 4.56892,27.34147 -3.839,6.75231 -2.53296,8.77933 3.34698,5.19463 5.0464,-3.07654 13.16803,-3.37933 17.0834,-0.63691 4.62075,3.2365 6.95907,9.21755 7.05642,18.04912 0.13306,12.07167 -4.64334,21.85549 -12.48675,25.57744 -5.933,2.81538 -10.37605,2.35656 -17.66592,-1.82433 z M -9.464317,704.77209 c -3.588649,-1.4033 -5,-4.71738 -5,-11.74079 0,-9.30302 2.021642,-11.20482 11.9109262,-11.20482 8.9032963,0 7.8844451,2.16895 -1.2859262,2.73751 -5.2875025,0.32782 -6.25,0.77249 -6.25,2.88749 0,2.09725 1.0522688,2.60581 6.5318062,3.15681 6.9430563,0.69816 8.3424176,1.53304 9.60664,5.73147 1.2228838,4.06115 -2.7666,8.05232 -8.6512212,8.65487 -2.7429738,0.28087 -5.830975,0.18072 -6.862225,-0.22254 z M 0.61785925,701.7825 c 2.84454005,-1.52235 3.16515875,-5.27968 0.63005875,-7.38362 -0.98327125,-0.81604 -3.9363963,-1.30679 -6.5625,-1.09056 -3.9778975,0.32755 -4.846699,0.90299 -5.205947,3.44812 -0.729014,5.16477 5.5690345,8.00669 11.13838825,5.02606 z M 63.973183,582.13903 c 82.671877,-0.17745 217.953127,-0.17745 300.624997,0 82.67188,0.17744 15.03125,0.32262 -150.3125,0.32262 -165.343747,0 -232.984372,-0.14518 -150.312497,-0.32262 z"
         id="path3522"
         inkscape:connector-curvature="0" />
      <path
         style="fill:#060606"
         d="m 64.598183,1453.389 c 82.328127,-0.1774 217.046877,-0.1774 299.374997,0 82.32813,0.1775 14.96875,0.3227 -149.6875,0.3227 -164.656247,0 -232.015622,-0.1452 -149.687497,-0.3227 z M -97.59659,1018.0765 c 0,-232.71877 0.143887,-327.9219 0.319749,-211.56252 0.175862,116.35937 0.175862,306.76562 0,423.12502 -0.175862,116.3594 -0.319749,21.1562 -0.319749,-211.5625 z m 623.75,0 c 0,-232.71877 0.14389,-327.9219 0.31975,-211.56252 0.17586,116.35937 0.17586,306.76562 0,423.12502 -0.17586,116.3594 -0.31975,21.1562 -0.31975,-211.5625 z m -581.867727,390 c -1.213655,-0.7843 94.020087,-1.2117 269.999997,-1.2117 175.97992,0 271.21365,0.4274 270,1.2117 -1.19566,0.7727 -99.02008,1.2117 -270,1.2117 -170.97991,0 -268.804333,-0.439 -269.999997,-1.2117 z m -5.743765,-4.0625 -2.381235,-2.8125 2.8125,2.3812 c 2.643056,2.2378 3.381551,3.2438 2.381235,3.2438 -0.237196,0 -1.502821,-1.2656 -2.8125,-2.8125 z m 550.118762,0.3125 c 1.24437,-1.375 2.54373,-2.5 2.88748,-2.5 0.34375,0 -0.39311,1.125 -1.63748,2.5 -1.24436,1.375 -2.54372,2.5 -2.88747,2.5 -0.34375,0 0.39311,-1.125 1.63747,-2.5 z m -552.508017,-386.25 c 0,-210.71877 0.144221,-296.9219 0.320491,-191.56252 0.176269,105.35937 0.176269,277.76562 0,383.12502 -0.17627,105.3594 -0.320491,19.1562 -0.320491,-191.5625 z m 556.249997,0 c 0,-210.71877 0.14422,-296.9219 0.3205,-191.56252 0.17626,105.35937 0.17626,277.76562 0,383.12502 -0.17628,105.3594 -0.3205,19.1562 -0.3205,-191.5625 z M 75.302308,1368.5997 c -11.668175,-3.5905 -14.1,-12.7035 -7.118275,-26.6752 4.863288,-9.7323 3.7636,-11.4431 -4.52335,-7.0368 -7.586837,4.0339 -11.9339,4.0296 -16.742525,-0.016 -9.148387,-7.6979 -8.180662,-28.4268 1.7777,-38.0788 3.943938,-3.8226 5.253925,-4.3409 10.97175,-4.3409 5.2638,0 7.558,0.7467 12.118075,3.9442 3.09375,2.1694 6.988675,6.1913 8.655375,8.9376 2.506512,4.1301 3.911112,5.1354 8.125,5.8152 4.065712,0.6559 5.347075,0.3897 6.344625,-1.318 5.682337,-9.7274 16.295337,-16.36 23.896417,-14.934 8.1012,1.5198 16.72858,14.119 16.72858,24.43 0,5.8089 -3.8553,14.8663 -7.70756,18.1078 -4.53954,3.8198 -9.64875,4.0033 -17.11644,0.6147 -2.99696,-1.3599 -6.23133,-2.4725 -7.1875,-2.4725 -2.33858,0 -2.20661,3.0554 0.21893,5.0684 3.3706,2.7973 5.54257,8.3417 5.54257,14.1484 0,4.5218 -0.70367,6.2946 -3.68017,9.2711 -6.196502,6.1964 -18.782927,8.0802 -30.303202,4.5353 z m 251.632902,0.5361 c -6.51754,-1.8744 -9.89191,-4.6162 -11.43474,-9.291 -1.69115,-5.1243 -0.747,-10.1152 3.58464,-18.9488 4.06186,-8.2836 2.57499,-10.9305 -3.65009,-6.4978 -2.83825,2.021 -5.87906,2.905 -10.20294,2.9662 -5.20656,0.074 -6.61121,-0.4376 -9.07793,-3.3038 -8.95202,-10.4016 -5.65289,-32.5422 5.93261,-39.8141 8.294,-5.2059 21.19475,-0.3009 28.73415,10.925 2.65489,3.953 4.50837,5.3225 8.12079,6.0002 4.05477,0.7607 4.9295,0.4871 6.54086,-2.046 6.84611,-10.7623 17.36885,-16.2915 25.74424,-13.5274 8.9912,2.9674 15.32988,15.5477 13.90322,27.5936 -1.77932,15.0236 -11.47662,20.9322 -24.2253,14.7607 -2.98114,-1.4432 -6.31651,-2.28 -7.41191,-1.8597 -1.81729,0.6974 -1.81429,1.0092 0.0342,3.5614 1.11424,1.5385 2.91641,4.0414 4.00482,5.5621 5.89698,8.239 1.98322,19.1485 -8.28055,23.0817 -6.15535,2.3588 -15.77181,2.7198 -22.31611,0.8377 z m 112.54166,-22.4677 c -1.41171,-2.2605 -1.36317,-2.9553 0.32433,-4.6428 1.81265,-1.8127 1.98448,-1.5825 1.98448,2.6583 0,2.5536 -0.14593,4.6429 -0.32431,4.6429 -0.17837,0 -1.0714,-1.1963 -1.9845,-2.6584 z m -15.95444,-6.8224 c -0.51642,-2.0576 -0.1731,-3.8686 0.9455,-4.9872 1.50849,-1.5085 1.68925,-1.0525 1.28077,3.2308 -0.5537,5.8061 -1.10139,6.2382 -2.22627,1.7564 z m 15.88874,-4.6386 c -1.58115,-2.6329 -1.55451,-2.6595 0.59791,-0.5979 1.23904,1.1868 1.98373,2.4268 1.65488,2.7557 -0.32885,0.3288 -1.3426,-0.6422 -2.25279,-2.1578 z m -14.50161,-26.6853 c -1.23276,-1.2328 -1.77243,-3.1079 -1.34905,-4.6875 0.3881,-1.4481 1.07345,-3.9618 1.52299,-5.586 0.78861,-2.8494 0.6358,-2.9226 -4.34363,-2.0813 -4.69657,0.7935 -5.28955,0.5898 -6.58965,-2.2636 -1.88355,-4.134 -0.40145,-11.7016 2.60708,-13.3117 3.77447,-2.0201 5.90907,-1.5131 10.46241,2.4848 5.20182,4.5672 7.76819,4.7061 11.55045,0.625 5.63016,-6.0751 13.01552,-2.4215 13.01552,6.4388 0,5.6836 -2.92738,8.2038 -8.34815,7.1868 l -4.3524,-0.8165 0.85057,5.6719 c 0.73716,4.9158 0.51151,5.8534 -1.69255,7.033 -3.77939,2.0226 -10.99252,1.6474 -13.33359,-0.6937 z M 86.96542,1293.5605 c -0.788562,-2.8276 -2.839099,-7.212 -4.556737,-9.7431 -1.71765,-2.531 -3.123,-5.1395 -3.123,-5.7964 0,-1.2702 15.3274,-1.7005 16.56285,-0.465 0.401225,0.4012 -0.409125,2.6593 -1.800787,5.018 -1.391663,2.3587 -3.231913,6.9523 -4.089438,10.208 l -1.559137,5.9195 -1.43375,-5.141 z m 250.56914,0.3617 c -0.42864,-2.2849 -2.46,-6.8044 -4.51411,-10.0434 -2.05413,-3.239 -3.73477,-6.1509 -3.73477,-6.4707 0,-0.8574 14.46579,-0.7082 16.76165,0.1729 1.7208,0.6603 1.65279,1.1528 -0.54511,3.9469 -1.38117,1.7559 -3.38484,6.1977 -4.45257,9.8706 -1.06775,3.6729 -2.12009,6.678 -2.33855,6.678 -0.21845,0 -0.74789,-1.8695 -1.17654,-4.1543 z m 93.62612,-19.5957 c -0.4249,-0.6875 0.1376,-1.25 1.25,-1.25 1.1124,0 1.6749,0.5625 1.25,1.25 -0.4249,0.6875 -0.9874,1.25 -1.25,1.25 -0.2626,0 -0.8251,-0.5625 -1.25,-1.25 z M 79.59122,1063.4963 c -1.146574,-0.4623 -0.887937,-1.4992 0.95985,-3.8483 1.391113,-1.7685 3.4244,-6.2945 4.518426,-10.0578 l 1.989112,-6.8423 2.074512,6.1279 c 1.140975,3.3704 3.329575,7.8905 4.863538,10.0448 1.533962,2.1542 2.789025,4.2518 2.789025,4.6613 0,0.8923 -14.953725,0.8179 -17.194463,-0.086 z m 251.22581,-0.01 c -1.19157,-0.4792 -0.91746,-1.735 1.08639,-4.9773 1.47401,-2.385 3.34354,-6.9373 4.1545,-10.1162 l 1.47446,-5.7799 2.76792,7.5913 c 1.52235,4.1752 3.60435,8.2854 4.62665,9.1338 3.98988,3.3113 2.15907,4.9907 -5.32877,4.8879 -3.95312,-0.054 -7.90465,-0.3871 -8.78115,-0.7396 z m -223.80302,-16.8356 c -2.96816,-1.4692 -6.90566,-4.6186 -8.750002,-6.9988 -1.844325,-2.3801 -4.197075,-5.3678 -5.228325,-6.6392 -1.03125,-1.2715 -3.942737,-2.6764 -6.469963,-3.122 -4.334324,-0.7643 -4.773537,-0.5273 -7.743375,4.1772 -8.324425,13.1867 -23.431,15.926 -31.80475,5.7672 -8.556737,-10.3808 -8.599387,-26.9513 -0.09125,-35.4595 4.658538,-4.65848 9.8142,-4.96601 18.757313,-1.1188 8.171825,3.5154 9.968837,1.8808 4.918575,-4.47411 -10.25825,-12.90832 -3.219875,-26.22977 14.717863,-27.85631 9.798362,-0.88848 20.649534,2.23916 23.645774,6.81542 3.22174,4.92068 2.65394,13.39275 -1.43397,21.39622 -4.70968,9.22078 -3.73603,11.04068 3.7712,7.04908 13.91993,-7.40131 23.32531,-0.6352 23.51805,16.9186 0.0705,6.4163 -0.59305,9.4836 -3.10954,14.375 -5.7729,11.2211 -14.21866,14.357 -24.69758,9.17 z m 251.64667,0.3412 c -4.46325,-2.0327 -11.5584,-8.7615 -15,-14.2255 -0.6875,-1.0914 -3.60382,-2.3557 -6.48072,-2.8095 -4.87804,-0.7694 -5.35836,-0.5782 -7.12365,2.8355 -2.78943,5.3941 -10.02463,11.2343 -15.86661,12.8074 -4.51057,1.2146 -5.8278,1.0326 -10.92737,-1.5099 -13.49962,-6.7304 -16.74191,-28.5007 -5.86465,-39.3779 4.95719,-4.95721 10.62803,-5.46932 18.138,-1.638 2.69523,1.375 5.76657,2.5 6.8252,2.5 2.49514,0 2.47592,-2.9865 -0.0326,-5.0684 -3.3706,-2.79737 -5.54258,-8.34171 -5.54258,-14.1484 0,-4.49541 0.70634,-6.29725 3.60479,-9.1957 8.66723,-8.66722 29.3354,-8.83965 37.85921,-0.31583 4.94358,4.94357 4.82402,12.00145 -0.37968,22.41498 -4.77172,9.54905 -3.43583,11.54675 4.58003,6.84915 7.35708,-4.3115 12.37653,-3.9949 17.4735,1.102 5.10332,5.1033 6.68144,13.1932 4.55737,23.3622 -1.63194,7.8128 -4.2379,11.8916 -10.1825,15.9375 -4.97759,3.3877 -8.98392,3.5108 -15.63772,0.4804 z M -5.0767157,761.80609 c 0.43183,-0.69871 1.3087762,-0.94677 1.9487712,-0.55122 1.733805,1.07153 1.4105137,1.82161 -0.7851437,1.82161 -1.0718238,0 -1.5954563,-0.57167 -1.1636275,-1.27039 z m 84.3623987,-5.45156 c 0,-0.94706 0.841163,-2.42004 1.86925,-3.27328 1.028087,-0.85323 2.498575,-3.87523 3.267762,-6.71556 0.769175,-2.84031 1.648225,-5.9986 1.95345,-7.0184 0.305988,-1.02237 1.881463,1.40965 3.511875,5.4212 1.626313,4.00146 3.8436,8.25514 4.9273,9.45261 1.0837,1.19748 1.970363,2.55482 1.970363,3.0163 0,0.46149 -3.9375,0.83908 -8.75,0.83908 -6.598775,0 -8.75,-0.42335 -8.75,-1.72195 z m 250.937147,0.99244 c -0.40122,-0.40124 0.40913,-2.65935 1.80079,-5.01804 1.39166,-2.3587 3.23878,-6.95229 4.10471,-10.20799 1.56262,-5.87511 1.58142,-5.89136 2.50979,-2.16946 0.51446,2.0625 2.55813,6.6946 4.54148,10.29356 1.98335,3.59896 3.60608,6.83334 3.60608,7.1875 0,0.89425 -15.66395,0.81331 -16.56285,-0.0856 z M 1.3516593,753.07648 c -5.2018301,-4.56726 -7.7681838,-4.70614 -11.5504513,-0.625 -5.630164,6.07505 -13.015525,2.42147 -13.015525,-6.43885 0,-5.6836 2.927391,-8.20375 8.348149,-7.18681 l 4.352399,0.81651 -0.850554,-5.6719 c -0.737164,-4.91575 -0.511523,-5.85334 1.6925485,-7.03293 6.7256638,-3.59946 16.204125,-0.11825 14.6697463,5.38783 -2.5746263,9.23899 -2.8070063,8.61361 2.8458037,7.65857 4.6827225,-0.79113 5.2780085,-0.58608 6.5773665,2.2657 1.88356,4.13397 0.401455,11.70157 -2.607074,13.31169 -3.7744725,2.02004 -5.909075,1.51306 -10.4624088,-2.48481 z M 106.6611,740.58778 c -4.04733,-2.13918 -8.201592,-6.29059 -13.625417,-13.61608 -1.03125,-1.39282 -3.849762,-2.87638 -6.263375,-3.29681 -4.114975,-0.71679 -4.639237,-0.4085 -8.415075,4.94833 -6.640362,9.42076 -16.55135,13.81822 -24.098137,10.69225 -14.572825,-6.03627 -18.5266,-30.81773 -6.589075,-41.29901 4.988587,-4.38004 8.422037,-4.5956 16.671625,-1.04672 3.379425,1.45379 7.048362,2.29638 8.153175,1.87242 1.723375,-0.66132 1.554037,-1.31124 -1.191888,-4.57459 -3.996987,-4.75015 -6.364587,-12.39094 -5.234587,-16.89322 1.790975,-7.1358 12.175699,-13.04787 22.918987,-13.04787 6.15235,0 15.930997,3.55665 19.121737,6.95489 4.30446,4.58436 4.04465,12.93624 -0.69375,22.30152 -4.37045,8.63805 -3.18331,11.23614 3.34136,7.31266 6.20362,-3.73042 10.4366,-4.35014 15.43847,-2.26023 11.55468,4.82786 11.92762,28.3982 0.62808,39.69772 -4.0744,4.0744 -5.51347,4.73565 -10.20298,4.68819 -3.00277,-0.0304 -7.48438,-1.12544 -9.95915,-2.43345 z m 250.35291,-0.18456 c -2.96816,-1.4692 -6.90566,-4.61865 -8.75,-6.99878 -1.84433,-2.38011 -4.19708,-5.3678 -5.22833,-6.63929 -1.03125,-1.27148 -3.84375,-2.63875 -6.25,-3.03836 -4.1461,-0.68857 -4.58261,-0.40581 -8.34307,5.40433 -6.97166,10.77165 -19.19193,14.26776 -27.87761,7.97552 -3.91913,-2.83915 -8.79097,-12.34341 -9.66413,-18.85332 -0.82036,-6.11627 2.43043,-16.34445 6.37139,-20.0468 4.35029,-4.08688 10.56617,-4.63763 17.04001,-1.50981 9.66501,4.66963 12.96441,2.7635 6.64105,-3.83667 -2.52057,-2.63091 -3.46667,-5.09773 -3.88366,-10.12615 -0.48246,-5.81778 -0.13464,-7.14307 2.78544,-10.61339 4.56373,-5.4237 14.23051,-8.41943 23.45085,-7.26743 17.69106,2.21036 22.55817,11.47315 14.72683,28.02718 -4.89811,10.35374 -3.60761,12.94044 3.74423,7.50499 5.20267,-3.8465 13.81767,-3.86224 17.89477,-0.0327 6.51738,6.12167 7.54809,20.87337 2.22653,31.86626 -5.01568,10.36102 -14.31079,13.41816 -24.8843,8.1844 z M 2.8627668,701.53021 c 1.0551325,-1.34598 1.3970375,-3.48401 0.8995299,-5.625 -0.5947524,-2.55947 -0.4740224,-2.96824 0.4662738,-1.57873 1.90377,2.81327 1.5673963,5.73976 -0.8803875,7.65944 -1.9789912,1.55204 -2.02526,1.5086 -0.4854162,-0.45571 z m -15.5034828,-1.03689 c -0.453166,-0.73324 -0.555853,-1.60125 -0.228193,-1.92891 0.32766,-0.32767 0.928832,0.27226 1.335938,1.33316 0.84523,2.20263 0.124813,2.59007 -1.107745,0.59575 z m -0.573601,-8.89987 c 0,-3.79983 0.694635,-6.28494 2.075819,-7.42641 1.9000623,-1.57031 1.9275223,-1.47743 0.324317,1.09694 -1.334848,2.14345 -1.417342,3.34758 -0.346783,5.06181 1.071282,1.7154 0.9943,2.8106 -0.324317,4.61392 -1.56479,2.13997 -1.729036,1.8221 -1.729036,-3.34626 z m -48.125,-59.76697 c 1.244358,-1.375 2.543719,-2.5 2.887469,-2.5 0.34375,0 -0.393111,1.125 -1.637469,2.5 -1.244357,1.375 -2.543719,2.5 -2.887469,2.5 -0.34375,0 0.393112,-1.125 1.637469,-2.5 z m 549.881237,-0.3125 -2.38124,-2.8125 2.8125,2.38123 c 1.54688,1.30968 2.8125,2.57531 2.8125,2.8125 0,1.00032 -1.00598,0.26183 -3.24376,-2.38123 z m -544.256237,-3.4375 c 2.566669,-1.65871 537.433327,-1.65871 539.999997,0 1.21365,0.78432 -94.02008,1.21172 -270,1.21172 -175.97991,0 -271.213652,-0.4274 -269.999997,-1.21172 z m 120.3125,-45.93745 c 82.328127,-0.17747 217.046877,-0.17747 299.374997,0 82.32813,0.17746 14.96875,0.32267 -149.6875,0.32267 -164.656247,0 -232.015622,-0.14521 -149.687497,-0.32267 z"
         id="path3520"
         inkscape:connector-curvature="0" />
    </g>
  </g>
</svg>
