<?xml version="1.0" encoding="UTF-8" standalone="no"?>
<!-- Created with Inkscape (http://www.inkscape.org/) -->

<svg
   xmlns:dc="http://purl.org/dc/elements/1.1/"
   xmlns:cc="http://creativecommons.org/ns#"
   xmlns:rdf="http://www.w3.org/1999/02/22-rdf-syntax-ns#"
   xmlns:svg="http://www.w3.org/2000/svg"
   xmlns="http://www.w3.org/2000/svg"
   xmlns:sodipodi="http://sodipodi.sourceforge.net/DTD/sodipodi-0.dtd"
   xmlns:inkscape="http://www.inkscape.org/namespaces/inkscape"
   width="176.45631mm"
   height="246.30641mm"
   viewBox="0 0 625.23891 872.73925"
   id="svg2"
   version="1.1"
   inkscape:version="0.91 r13725"
   sodipodi:docname="7.svg">
  <defs
     id="defs4" />
  <sodipodi:namedview
     id="base"
     pagecolor="#ffffff"
     bordercolor="#666666"
     borderopacity="1.0"
     inkscape:pageopacity="0.0"
     inkscape:pageshadow="2"
     inkscape:zoom="0.35"
     inkscape:cx="567.59777"
     inkscape:cy="231.71383"
     inkscape:document-units="px"
     inkscape:current-layer="layer1"
     showgrid="false"
     fit-margin-top="0"
     fit-margin-left="0"
     fit-margin-right="0"
     fit-margin-bottom="0"
     inkscape:window-width="784"
     inkscape:window-height="822"
     inkscape:window-x="800"
     inkscape:window-y="0"
     inkscape:window-maximized="0" />
  <metadata
     id="metadata7">
    <rdf:RDF>
      <cc:Work
         rdf:about="">
        <dc:format>image/svg+xml</dc:format>
        <dc:type
           rdf:resource="http://purl.org/dc/dcmitype/StillImage" />
        <dc:title></dc:title>
      </cc:Work>
    </rdf:RDF>
  </metadata>
  <g
     inkscape:label="Calque 1"
     inkscape:groupmode="layer"
     id="layer1"
     transform="translate(534.02636,108.66307)">
    <g
       style="display:inline"
       id="g3500"
       transform="translate(285.02169,-687.51479)">
      <path
         style="fill:#fdfdfd"
         d="m -818.92859,1015.2194 0,-436.25004 312.5,0 312.5,0 0,436.25004 0,436.25 -312.5,0 -312.5,0 0,-436.25 z"
         id="path3516"
         inkscape:connector-curvature="0" />
      <path
         style="fill:#e6e6e6"
         d="m -812.80336,1449.9111 c -1.89593,-0.7539 -3.84873,-2.9487 -4.6875,-5.2683 -2.06679,-5.7156 -2.07005,-853.12229 -0.003,-858.83777 0.96852,-2.67839 2.72286,-4.43273 5.40125,-5.40125 5.69847,-2.06059 605.63019,-2.06059 611.32866,0 2.67838,0.96852 4.43273,2.72286 5.40125,5.40125 2.06378,5.70731 2.06378,853.12137 0,858.82867 -0.96852,2.6784 -2.72287,4.4327 -5.40125,5.4012 -5.34155,1.9316 -607.17667,1.8098 -612.0391,-0.1238 z m 611.47092,-5.8456 3.65385,-3.6538 0,-425.1923 0,-425.19235 -3.65385,-3.65384 -3.65384,-3.65385 -301.44231,0 -301.44231,0 -3.65384,3.65385 -3.65385,3.65384 0,425.19235 0,425.1923 3.65385,3.6538 3.65384,3.6539 301.44231,0 301.44231,0 3.65384,-3.6539 z m -576.96836,-34.5607 c -2.06097,-1.0772 -4.79043,-2.9026 -6.06548,-4.0565 -6.1617,-5.5763 -5.81231,17.881 -5.81231,-390.2289 0,-336.43556 0.22078,-381.80114 1.87369,-384.9975 1.03052,-1.99282 3.93986,-5.19926 6.46519,-7.12542 l 4.59152,-3.50212 270.8196,0 270.8196,0 4.59151,3.50212 c 2.52534,1.92616 5.43468,5.1326 6.4652,7.12542 1.6529,3.19636 1.87369,48.56194 1.87369,384.9975 0,336.4355 -0.22079,381.8011 -1.87369,384.9974 -1.03052,1.9928 -3.93982,5.1993 -6.46512,7.1254 l -4.59143,3.5022 -269.47238,0.3095 c -242.60164,0.2786 -269.84604,0.1142 -273.21959,-1.6491 z m 543.12221,-11.7854 c 2.48904,-2.4891 2.5,-4.1667 2.5,-382.5 0,-378.33337 -0.0112,-380.01101 -2.5,-382.50004 -2.4845,-2.4845 -4.16666,-2.5 -271.25,-2.5 -267.08333,0 -268.7655,0.0155 -271.25,2.5 -2.48904,2.48904 -2.5,4.16667 -2.5,382.50004 0,378.3333 0.011,380.0109 2.5,382.5 2.4845,2.4845 4.16667,2.5 271.25,2.5 267.08334,0 268.7655,-0.015 271.25,-2.5 z m -405.625,-25.78 c -18.77604,-4.7534 -24.16989,-14.5734 -17.50614,-31.8716 0.52833,-1.3715 -0.83833,-1.6386 -6.69175,-1.308 -6.74498,0.3809 -7.7259,0.09 -11.81507,-3.5 -5.42464,-4.7629 -7.57798,-10.7454 -7.43828,-20.6654 0.2713,-19.2643 13.38916,-33.2625 27.5877,-29.4393 5.54814,1.494 15.93365,8.0653 16.9556,10.7284 0.38746,1.0097 1.23929,1.8359 1.89295,1.8359 2.7989,0 -3.00053,-14.4203 -7.47649,-18.5903 -1.55019,-1.4442 -2.42293,-3.5708 -2.17414,-5.2978 0.52867,-3.6699 7.36546,-5.3524 17.66075,-4.3463 12.15973,1.1884 15.15187,4.522 9.09615,10.1342 -2.94402,2.7285 -6.96628,13.4568 -6.96628,18.5807 0,2.1866 0.63119,1.9221 4.6875,-1.9641 7.10081,-6.8031 12.10021,-8.8851 19.80179,-8.2464 8.4896,0.704 14.29797,5.0487 18.42736,13.7837 4.53416,9.5912 5.15096,14.604 2.79439,22.7103 -3.59943,12.3816 -12.59824,19.4022 -22.4905,17.5464 l -4.43516,-0.832 1.38513,3.9734 c 1.71473,4.9188 0.80908,12.3911 -2.0263,16.7184 -4.30325,6.5676 -22.24563,12.3342 -31.26921,10.0498 z m 246.875,-1.062 c -8.43963,-2.7379 -11.07632,-4.457 -13.93791,-9.0871 -2.11729,-3.4258 -2.4802,-5.5377 -1.94671,-11.3284 0.36065,-3.9146 1.01833,-8.2425 1.46151,-9.6175 0.75314,-2.3367 0.32556,-2.4731 -6.54559,-2.0874 -6.40904,0.3598 -7.84196,-10e-5 -11.17874,-2.8078 -14.03085,-11.8062 -9.10476,-42.143 8.07734,-49.7435 8.65583,-3.8289 16.78353,-1.5542 26.80854,7.5028 l 5.08909,4.5977 -0.94132,-4.3559 c -1.24682,-5.7697 -4.74637,-12.5418 -8.0032,-15.4872 -6.01498,-5.4398 -0.5426,-9.5952 12.36699,-9.3907 13.96628,0.2212 20.05278,5.3653 12.74283,10.7698 -3.4136,2.5238 -4.6655,5.538 -7.1253,17.1556 l -0.77355,3.6534 5.21606,-4.7124 c 12.06879,-10.9034 25.35346,-11.1416 34.21235,-0.6134 8.13872,9.6723 9.98196,24.6492 4.38866,35.6595 -3.83734,7.5537 -11.7079,12.2656 -18.71864,11.2062 l -4.43258,-0.6698 0.4796,7.7865 c 0.40468,6.5705 0.023,8.4698 -2.44423,12.1616 -5.9015,8.8306 -22.6313,13.354 -34.7952,9.408 z m 94.62691,-16.4478 c -2.11035,-2.1103 -0.41141,-8.0759 5.11489,-17.9602 4.78505,-8.5586 6.56344,-10.6981 9.1438,-11.0007 1.76186,-0.2067 3.91501,0.4817 4.78479,1.5297 1.3122,1.5811 0.81522,3.2755 -2.9195,9.9538 -2.47549,4.4266 -4.50089,8.348 -4.50089,8.7143 0,0.3662 2.67188,0.8373 5.9375,1.0469 5.67923,0.3644 5.9375,0.5441 5.9375,4.131 l 0,3.75 -11.31059,0.356 c -6.22083,0.1959 -11.70521,-0.038 -12.1875,-0.5208 z m 3.22915,-43.4902 c -3.77346,-1.702 -4.59218,-3.163 -5.62646,-10.0402 -0.21361,-1.4205 -1.67464,-2.7452 -3.48616,-3.1611 -1.89286,-0.4344 -3.99463,-2.421 -5.34786,-5.0548 -5.31352,-10.3413 3.55345,-23.7378 13.26732,-20.0446 3.21148,1.221 3.3338,1.1277 2.56066,-1.9527 -0.5353,-2.1328 -0.22191,-3.6086 0.91975,-4.3317 2.60099,-1.6472 9.07863,-1.3545 11.65104,0.5265 1.85581,1.357 2.01413,2.1437 0.86391,4.2928 -2.02215,3.7785 -1.79266,4.13 1.80349,2.7628 9.39709,-3.5728 17.87275,7.2968 14.24975,18.2746 -1.05899,3.2088 -2.65364,4.9885 -5.55652,6.2014 -2.93608,1.2268 -4.28022,2.7457 -4.82054,5.4473 -1.38708,6.9353 -12.3758,10.7343 -20.47838,7.0797 z m -347.23106,-246.3811 c -2.75,-0.9907 -5.14062,-1.8098 -5.3125,-1.8201 -0.17187,-0.01 -0.3125,-1.1241 -0.3125,-2.4749 0,-1.3508 1.17791,-3.0864 2.61758,-3.8569 1.43967,-0.7705 3.62121,-3.7434 4.84787,-6.6064 2.2445,-5.2388 4.16678,-14.5806 3.00026,-14.5806 -0.34491,0 -2.01017,1.6436 -3.70058,3.6526 -6.17828,7.3424 -17.96234,10.7001 -26.37125,7.5141 -13.41144,-5.0815 -20.20557,-26.6878 -13.04394,-41.4817 3.9244,-8.10676 9.07466,-11.57653 17.06829,-11.49903 l 6.29322,0.061 -0.42359,-7.56101 c -0.68575,-12.24057 5.2153,-18.9409 19.4961,-22.1368 12.34697,-2.76312 28.03304,2.35349 32.25709,10.52189 1.98805,3.84447 1.93683,15.16416 -0.09,19.89769 -0.78136,1.82477 -0.003,2.07287 6.05948,1.93093 8.58963,-0.20111 12.62963,2.39147 16.85115,10.81383 7.78645,15.5349 -0.75212,39.1602 -15.59505,43.1498 -7.49454,2.0145 -16.51984,-0.9713 -23.68302,-7.8348 -3.07096,-2.9425 -5.58356,-4.6734 -5.58356,-3.8464 0,3.4789 4.11326,12.7722 7.54958,17.057 2.03523,2.5379 3.70042,5.4645 3.70042,6.5038 0,4.1844 -16.55939,5.862 -25.625,2.596 z m 251.25994,0.2152 c -6.14775,-1.8525 -7.08022,-5.0199 -2.67922,-9.1007 3.08732,-2.8627 7.04428,-13.2176 7.04428,-18.434 0,-2.1729 -0.65649,-1.8871 -4.6875,2.0408 -15.45896,15.0637 -33.94484,9.3867 -41.02112,-12.5976 -1.83138,-5.6897 -1.92564,-7.6403 -0.64565,-13.3599 2.91446,-13.0232 10.17197,-20.01469 20.67233,-19.9145 l 6.6281,0.0633 -1.25091,-3.58838 c -0.688,-1.9736 -0.95795,-5.7726 -0.59987,-8.4422 1.48782,-11.09264 11.58878,-17.96396 26.52962,-18.04717 20.70354,-0.11525 31.36411,10.813 26.43144,27.09525 l -1.78558,5.89397 6.76962,-0.17811 c 10.44358,-0.27478 16.95491,5.65474 19.1653,17.45274 2.19057,11.6921 -1.70799,24.7019 -9.43543,31.4867 -9.82681,8.628 -20.92177,7.2298 -32.7933,-4.1327 l -5.39794,-5.1665 0.87682,3.75 c 1.53917,6.5828 4.33542,12.4047 7.59,15.8026 4.2748,4.463 3.64273,8.9019 -1.42093,9.9789 -6.01284,1.279 -14.60606,1.02 -19.99006,-0.6024 z m -125,-174.99996 c -6.14775,-1.85255 -7.08022,-5.01989 -2.67921,-9.10073 3.08731,-2.86272 7.04427,-13.2176 7.04427,-18.43401 0,-2.17293 -0.65649,-1.8871 -4.6875,2.04085 -15.45896,15.0637 -33.94484,9.38665 -41.02112,-12.59769 -1.83138,-5.68962 -1.92564,-7.6403 -0.64566,-13.3599 2.91447,-13.0232 10.17198,-20.01465 20.67234,-19.91446 l 6.6281,0.0633 -1.25091,-3.58838 c -0.688,-1.9736 -0.95795,-5.7726 -0.59987,-8.4422 1.48782,-11.09263 11.58878,-17.96396 26.52962,-18.04717 20.70354,-0.11525 31.36411,10.813 26.43144,27.09525 l -1.78558,5.89397 6.76962,-0.17811 c 10.44358,-0.27477 16.95491,5.65469 19.1653,17.45266 2.19057,11.69214 -1.70799,24.70193 -9.43543,31.4867 -9.82681,8.62807 -20.92177,7.22985 -32.7933,-4.13268 l -5.39794,-5.16652 0.87682,3.75 c 1.53917,6.58285 4.33542,12.4047 7.58999,15.8026 4.27481,4.46303 3.64274,8.9019 -1.42092,9.97897 -6.01284,1.27896 -14.60606,1.02001 -19.99006,-0.60239 z M -730.72294,763.5579 c -1.85581,-1.35699 -2.01412,-2.14364 -0.86392,-4.29282 2.02216,-3.77843 1.79267,-4.12999 -1.80348,-2.76273 -13.42894,5.10566 -21.80205,-18.9988 -8.52639,-24.54573 2.54666,-1.06406 4.23814,-2.65088 4.23814,-3.9759 0,-6.05836 8.86846,-11.22087 16.73931,-9.74428 6.0123,1.12791 8.49187,3.48403 9.37329,8.90663 0.62233,3.82867 1.44009,4.99429 3.89993,5.5589 1.88653,0.43303 3.99059,2.42345 5.34189,5.0534 5.31352,10.34139 -3.55344,23.73784 -13.26732,20.04463 -3.21148,-1.221 -3.3338,-1.12773 -2.56066,1.95272 0.53529,2.13277 0.22192,3.60864 -0.91976,4.33167 -2.60098,1.64722 -9.07861,1.35451 -11.65103,-0.52649 z m 88.56024,-4.51701 c -7.90322,-1.88939 -8.85526,-4.72484 -3.18771,-9.49377 3.32231,-2.79554 4.72722,-6.26652 7.06418,-17.45276 l 0.78343,-3.75 -4.77539,4.54977 c -6.46994,6.16424 -11.67849,8.57523 -18.5254,8.57523 -6.94087,0 -11.4939,-2.18725 -16.55713,-7.95394 -10.44353,-11.89452 -9.35164,-32.77421 2.22323,-42.51382 3.91831,-3.29705 6.0945,-3.85892 13.14756,-3.39459 l 3.81365,0.25107 -0.44401,-7.88186 c -0.35707,-6.33843 0.0652,-8.69387 2.15666,-12.02854 3.00098,-4.78494 13.7105,-10.24523 21.90634,-11.16901 7.5422,-0.85012 18.62921,2.72047 24.14889,7.77719 4.37934,4.01203 4.60441,4.6059 4.59676,12.12855 -0.005,4.35047 -0.45355,9.32242 -0.99805,11.04877 -0.97086,3.07819 -0.87915,3.13001 4.74778,2.68248 10.92577,-0.86896 16.23012,3.49717 19.999,16.46163 1.78777,6.14972 1.87323,8.19632 0.57303,13.72237 -3.60911,15.33921 -12.52055,24.68171 -23.45758,24.59225 -5.03832,-0.0412 -14.00225,-4.53051 -19.42513,-9.72844 l -4.81899,-4.61911 0.90704,4.375 c 1.19231,5.75094 3.91884,11.10206 7.73911,15.18891 3.94792,4.22339 3.34475,7.67426 -1.52342,8.71606 -5.06901,1.08478 -15.38643,1.04193 -20.09385,-0.0835 z m 251.25,0 c -2.12251,-0.50743 -4.51314,-1.32679 -5.3125,-1.82083 -2.10306,-1.29976 -1.78485,-5.70197 0.47486,-6.5691 2.79659,-1.07315 6.44311,-8.9027 7.49183,-16.08594 l 0.90818,-6.22066 -4.74463,4.83715 c -2.60957,2.66044 -6.60285,5.61356 -8.87399,6.5625 -6.06252,2.53308 -15.32972,2.17629 -20.17299,-0.77666 -5.33839,-3.25484 -11.05558,-12.39949 -12.89734,-20.62934 -3.64352,-16.28097 9.18245,-33.7418 22.78668,-31.02095 l 3.63398,0.72679 -0.80116,-6.81665 c -1.31201,-11.16317 4.7019,-19.11751 17.27734,-22.85202 8.13899,-2.41702 10.94332,-2.39166 20.11539,0.18189 15.05016,4.22286 20.30887,15.56198 14.10422,30.41229 -0.64907,1.5535 0.59488,1.875 7.25471,1.875 6.85137,0 8.53048,0.46138 11.37297,3.125 1.83417,1.71875 4.19395,5.09375 5.24395,7.5 2.28562,5.23788 2.55268,20.28091 0.45491,25.625 -4.70438,11.98448 -14.51266,19.05662 -24.37773,17.57728 -5.72736,-0.85888 -16.15966,-6.96335 -18.61266,-10.89122 -4.17015,-6.67747 -2.97505,2.40619 1.45504,11.0594 1.477,2.88501 3.58406,5.74835 4.68234,6.36298 3.40721,1.90677 1.7329,7.00059 -2.60429,7.92312 -5.07796,1.08012 -14.15655,1.03918 -18.85911,-0.085 z m -341.68627,-55.6006 c -1.3122,-1.5811 -0.81523,-3.27549 2.91949,-9.9538 2.47549,-4.42659 4.50089,-8.37882 4.50089,-8.78274 0,-0.40391 -2.75232,-0.73439 -6.11626,-0.73439 -6.68233,0 -8.66608,-1.98541 -6.33528,-6.34055 1.12555,-2.10311 2.70865,-2.40945 12.45154,-2.40945 10.00123,0 11.30576,0.26854 12.54402,2.58225 1.45748,2.72332 0.11219,6.00919 -8.41056,20.54275 -3.93457,6.70949 -8.53188,8.73718 -11.55384,5.09593 z"
         id="path3514"
         inkscape:connector-curvature="0" />
      <path
         style="fill:#d5d5d5"
         d="m -812.541,1449.725 c -6.71212,-3.7203 -6.29564,24.7837 -6.3433,-434.1343 -0.0341,-328.08827 0.3003,-427.26 1.44907,-429.78127 3.33324,-7.31567 -18.2831,-6.84007 310.88575,-6.84007 231.87038,0 303.26855,0.34869 305.78082,1.49336 7.35539,3.35134 6.84007,-29.40324 6.84007,434.75668 0,464.1598 0.51532,431.4053 -6.84007,434.7566 -5.07455,2.3121 -607.59393,2.0649 -611.77234,-0.251 z m 604.86241,-0.7556 c 0,-0.6875 0.94813,-1.25 2.10694,-1.25 2.8688,0 7.89306,-4.9128 7.89306,-7.7179 0,-1.2552 0.5625,-2.2821 1.25,-2.2821 0.83086,0 1.25,-141.6667 1.25,-422.5 0,-280.83338 -0.41914,-422.50004 -1.25,-422.50004 -0.6875,0 -1.25,-0.94812 -1.25,-2.10694 0,-2.86879 -4.91276,-7.89306 -7.71789,-7.89306 -1.25516,0 -2.28211,-0.5625 -2.28211,-1.25 0,-0.82985 -100.41666,-1.25 -298.75,-1.25 -198.33333,0 -298.75,0.42015 -298.75,1.25 0,0.6875 -0.94812,1.25 -2.10694,1.25 -2.86879,0 -7.89306,4.91276 -7.89306,7.71789 0,1.25516 -0.5625,2.28211 -1.25,2.28211 -0.83087,0 -1.25,141.66666 -1.25,422.50004 0,280.8333 0.41913,422.5 1.25,422.5 0.6875,0 1.25,0.9481 1.25,2.1069 0,2.8688 4.91276,7.8931 7.71789,7.8931 1.25516,0 2.28211,0.5625 2.28211,1.25 0,0.8298 100.41667,1.25 298.75,1.25 198.33334,0 298.75,-0.4202 298.75,-1.25 z m -572.62474,-41.4171 c -2.47486,-1.4354 -5.42798,-4.1811 -6.5625,-6.1017 -1.90493,-3.2248 -2.06276,-32.8079 -2.06276,-386.6407 l 0,-383.14873 3.2739,-3.8908 c 6.87695,-8.17279 -16.11577,-7.55101 279.2261,-7.55101 295.34188,0 272.34915,-0.62178 279.2261,7.55101 l 3.2739,3.8908 0,383.14873 c 0,354.7394 -0.15385,383.4092 -2.07491,386.6613 -1.1412,1.9319 -4.17091,4.6905 -6.73269,6.1303 l -4.65779,2.6179 -269.2048,-0.029 -269.20481,-0.029 -4.49974,-2.6096 z m 546.01765,-8.9401 c 2.13303,-2.1331 2.23209,-19.1488 2.23209,-383.3928 0,-364.24766 -0.099,-381.2598 -2.23214,-383.3929 -2.12907,-2.12907 -14.69523,-2.23214 -272.14286,-2.23214 -257.44588,0 -270.0138,0.10308 -272.14286,2.23211 -2.13159,2.13156 -2.24658,19.26723 -2.55274,380.41913 -0.17633,208.0029 0.14025,379.9672 0.70351,382.1429 0.58464,2.2583 2.33143,4.6205 4.0706,5.5046 2.4002,1.2202 59.98454,1.4854 271.4394,1.25 255.76537,-0.2847 268.49794,-0.4038 270.625,-2.5309 z m -411.93186,-28.9247 c -12.3568,-4.0269 -16.84087,-14.2949 -12.05,-27.5931 0.99071,-2.75 1.80978,-5.088 1.82013,-5.1955 0.01,-0.1075 -1.88567,0.389 -4.21339,1.1034 -12.79194,3.9259 -23.3509,-7.0093 -23.20595,-24.0329 0.12798,-15.0321 10.94749,-28.75 22.67542,-28.75 5.90573,0 16.51658,5.5655 21.0147,11.0225 3.48929,4.2332 3.74804,4.3433 3.74804,1.5948 0,-5.4841 -2.87918,-12.6103 -7.0757,-17.513 -4.88181,-5.7033 -5.10661,-7.0174 -1.52802,-8.9326 4.19038,-2.2427 23.0134,-1.0489 25.69095,1.6293 2.06736,2.0678 1.98372,2.3784 -1.6826,6.25 -4.03724,4.2631 -5.92511,9.0324 -7.30292,18.449 l -0.82305,5.625 5.33694,-5.3974 c 9.06068,-9.1634 17.28884,-11.868 25.57409,-8.4062 6.86191,2.8671 9.17445,5.2789 13.23546,13.8036 5.781,12.1351 3.99385,24.8468 -4.67344,33.2414 -4.07194,3.9438 -4.98381,4.2569 -12.33797,4.2363 -7.09393,-0.02 -7.8196,0.2046 -6.8024,2.1053 1.76991,3.3071 1.34185,13.2732 -0.7433,17.3054 -1.03508,2.0016 -4.46954,5.1558 -7.63214,7.0092 -7.00914,4.1076 -20.44957,5.24 -29.02485,2.4455 z m 248.88265,-0.859 c -10.77854,-4.1432 -14.62043,-12.5764 -11.04021,-24.2341 2.5279,-8.2312 2.64367,-7.9638 -2.81652,-6.5064 -9.46431,2.5262 -17.7273,-2.703 -20.84141,-13.1893 -2.42875,-8.1785 -2.38806,-12.2722 0.2037,-20.4942 6.63136,-21.0371 26.29763,-25.3228 41.08626,-8.9536 2.47985,2.7449 4.78332,4.7163 5.1188,4.3808 1.78348,-1.7835 -5.09255,-18.9281 -8.83796,-22.0365 -2.53411,-2.1031 -2.52815,-5.8428 0.0112,-6.8171 3.2912,-1.263 18.63595,-0.8507 22.83624,0.6135 4.73496,1.6507 5.02681,4.2853 0.83955,7.579 -3.3447,2.6307 -6.9034,12.6015 -6.9034,19.3411 l 0,4.0886 5.94171,-5.9417 c 10.36832,-10.3683 22.68665,-11.3178 31.14973,-2.4009 5.66024,5.9637 8.15765,11.7284 8.85734,20.4449 0.51885,6.4639 0.0986,8.8595 -2.58032,14.7112 -4.2916,9.3741 -9.08841,12.435 -18.15912,11.5876 -5.61259,-0.5243 -6.5502,-0.3218 -5.9348,1.2819 6.14755,16.0202 -5.4405,29.3066 -25.39856,29.1209 -3.85534,-0.036 -9.93559,-1.1932 -13.53228,-2.5757 z m 98.49546,-15.3767 c -1.92906,-2.3244 -1.3382,-4.1799 5.24765,-16.4793 4.42813,-8.2697 5.85015,-9.9427 8.73339,-10.2744 5.25601,-0.6046 5.32089,2.2689 0.25913,11.4776 l -4.55875,8.2937 4.8758,0 c 6.3823,0 10.2642,2.7273 8.34687,5.8642 -1.88996,3.0923 -20.51131,4.0013 -22.90409,1.1182 z m 2.80505,-43.2412 c -3.59801,-1.4496 -5.79172,-5.7373 -4.85169,-9.4827 0.61502,-2.4504 0.27634,-3.0085 -1.82552,-3.0085 -4.32436,0 -8.71764,-5.4867 -8.71232,-10.8807 0.01,-9.8307 7.36483,-16.1322 15.32343,-13.1281 3.21499,1.2135 3.53605,1.1268 2.76569,-0.7467 -2.01091,-4.8906 -1.35084,-5.8601 4.26353,-6.2622 6.82822,-0.4891 8.7011,1.0793 6.4072,5.3655 -2.03342,3.7995 -1.1261,5.085 2.29623,3.2534 4.19064,-2.2427 7.68822,-1.5446 11.53539,2.3026 4.93055,4.9305 5.21005,13.6536 0.58566,18.278 -1.6875,1.6875 -4.21875,3.0682 -5.625,3.0682 -1.99348,0 -2.55681,0.8062 -2.55681,3.6592 0,7.0784 -10.6416,11.1938 -19.60579,7.582 z m -348.20671,-246.4441 c -4.30109,-1.5709 -4.46478,-5.0865 -0.362,-7.7748 3.40779,-2.2328 6.9245,-12.09 6.9245,-19.409 l 0,-4.433 -3.87091,4.6961 c -7.00533,8.4987 -17.81384,12.2923 -25.67004,9.0098 -10.85842,-4.537 -15.98275,-13.1247 -16.043,-26.8862 -0.0724,-16.5196 7.50244,-25.72096 20.32649,-24.69148 4.98377,0.40009 6.46774,0.14089 6.01079,-1.04988 -6.10867,-15.91892 5.1749,-29.27298 24.71633,-29.2517 21.91644,0.0239 31.30536,12.32608 23.93409,31.36063 -0.6601,1.70455 0.39867,1.97562 7.32384,1.875 7.31546,-0.10625 8.46212,0.23305 11.90053,3.52173 2.09278,2.0017 4.72949,6.4226 5.85935,9.8243 5.43658,16.368 -4.93357,37.3678 -19.41197,39.3098 -6.65463,0.8925 -17.13038,-4.1778 -23.3201,-11.2871 l -4.55899,-5.2363 0.84243,5 c 1.0522,6.245 6.65066,18.0843 8.97297,18.9754 2.54526,0.9767 2.1203,5.1071 -0.67963,6.6056 -3.03274,1.6231 -18.30591,1.5171 -22.89468,-0.1589 z m 250.625,-0.4107 c -4.97286,-2.1614 -5.02857,-2.9932 -0.49174,-7.3397 1.96392,-1.8816 4.16677,-5.5024 4.89522,-8.0464 1.8427,-6.4352 3.15231,-15.2503 2.26565,-15.2503 -0.40598,0 -2.80378,2.2864 -5.32844,5.0809 -5.91876,6.5513 -10.67923,8.9432 -18.01968,9.054 -8.58977,0.1296 -14.79905,-4.3549 -19.75098,-14.2646 -6.38874,-12.785 -4.45902,-25.6707 5.14355,-34.34604 4.90068,-4.42749 5.33711,-4.56593 12.38138,-3.92716 6.79727,0.61635 7.2167,0.50338 6.07209,-1.63535 -2.13295,-3.98545 -1.42939,-13.9937 1.29824,-18.4675 7.4009,-12.13889 34.98239,-13.82378 45.55997,-2.78315 4.40375,4.59652 5.47898,12.59785 2.76377,20.56657 l -1.9512,5.72646 6.48733,-0.70743 c 8.2243,-0.89685 14.06148,2.05665 17.67423,8.9428 3.67646,7.0076 3.59332,22.88 -0.15655,29.8855 -9.13598,17.0677 -24.98653,18.8256 -39.05291,4.3312 l -5.10243,-5.2577 0.0125,3.5882 c 0.0154,4.5159 5.02545,15.3251 8.56063,18.4695 5.86591,5.2175 1.89226,8.267 -10.67817,8.1948 -4.68582,-0.027 -10.3478,-0.8435 -12.58217,-1.8146 z m -125,-175.00003 c -4.97286,-2.16141 -5.02858,-2.99312 -0.49174,-7.33969 1.96392,-1.88154 4.16677,-5.50241 4.89521,-8.04636 1.84271,-6.43519 3.15232,-15.25036 2.26566,-15.25036 -0.40598,0 -2.80378,2.28641 -5.32844,5.08093 -5.91876,6.55136 -10.67923,8.94326 -18.01968,9.054 -8.58977,0.12957 -14.79905,-4.3549 -19.75098,-14.26462 -6.38874,-12.78498 -4.45902,-25.67068 5.14355,-34.34601 4.90068,-4.42749 5.33711,-4.56592 12.38138,-3.92716 6.79727,0.61635 7.2167,0.50339 6.07209,-1.63535 -2.13295,-3.98545 -1.42939,-13.9937 1.29824,-18.4675 7.4009,-12.13889 34.98238,-13.82378 45.55997,-2.78315 4.40375,4.59652 5.47898,12.59785 2.76376,20.56657 l -1.9512,5.72647 6.48734,-0.70744 c 8.2243,-0.89685 14.06148,2.05665 17.67423,8.9428 3.67646,7.0076 3.59332,22.87999 -0.15655,29.88546 -9.13598,17.06775 -24.98653,18.82569 -39.05292,4.33124 l -5.10242,-5.25769 0.0125,3.58823 c 0.0154,4.51586 5.02545,15.32506 8.56063,18.46946 5.86591,5.21748 1.89226,8.26702 -10.67817,8.19483 -4.68582,-0.0269 -10.3478,-0.84351 -12.58217,-1.81466 z M -730.83778,762.66403 c -0.48713,-0.78818 -0.16224,-2.78482 0.72197,-4.43698 1.96228,-3.66655 1.0068,-4.91808 -2.37354,-3.10896 -4.19064,2.24276 -7.68821,1.54461 -11.53539,-2.30258 -4.93054,-4.93054 -5.21005,-13.65359 -0.58567,-18.27796 1.6875,-1.6875 4.21875,-3.06819 5.625,-3.06819 1.99349,0 2.55682,-0.80623 2.55682,-3.65927 0,-5.92507 5.26752,-9.21834 13.64516,-8.53103 8.10875,0.66524 12.00773,4.23834 10.86418,9.95609 -0.57851,2.89256 -0.26798,3.48421 1.82873,3.48421 4.27528,0 8.66254,5.51404 8.65726,10.88069 -0.01,9.83071 -7.36484,16.13212 -15.32344,13.12809 -3.21499,-1.21353 -3.53605,-1.12685 -2.7657,0.74666 2.03824,4.95702 1.3727,5.85961 -4.60545,6.24592 -3.42276,0.22118 -6.18944,-0.21452 -6.70993,-1.05669 z m 86.91575,-4.81158 c -4.27723,-1.19014 -4.62347,-4.71638 -0.76136,-7.75431 3.42326,-2.69274 7.0048,-12.56183 7.0048,-19.30208 l 0,-3.96956 -5.9375,5.93111 c -10.01516,10.00439 -20.93776,11.22644 -29.9123,3.34669 -10.41923,-9.14819 -13.37459,-24.9216 -6.9627,-37.16136 4.43295,-8.46212 9.80928,-11.64555 18.13431,-10.73768 l 5.94682,0.64852 -0.94682,-3.37971 c -4.52893,-16.16638 5.94885,-27.12971 25.92819,-27.12971 12.91956,0 20.52683,3.67235 24.03475,11.60259 2.48575,5.61946 2.30357,9.579 -0.91149,19.81094 -0.80596,2.565 -0.63052,2.6163 4.74255,1.38677 4.67675,-1.07019 6.36255,-0.8944 10.41934,1.08647 13.08471,6.38908 15.31635,30.77834 3.996,43.67152 -9.96851,11.3535 -21.61869,10.8827 -34.7547,-1.4045 -3.45205,-3.22899 -6.27645,-5.33351 -6.27645,-4.67671 0,3.98115 4.505,15.47055 7.6017,19.38712 4.09198,5.17535 4.59411,7.88039 1.67106,9.00206 -2.61001,1.00157 -19.04886,0.74574 -23.0162,-0.35817 z m 250.43385,-0.12475 c -4.4576,-1.79854 -4.87586,-3.94714 -1.32026,-6.78228 3.62964,-2.89417 6.30289,-9.41996 7.68796,-18.76742 l 0.9137,-6.16634 -5.50196,5.66111 c -13.64341,14.03804 -29.81746,12.124 -38.39494,-4.54366 -4.70179,-9.13647 -4.86545,-18.35844 -0.47752,-26.90847 4.93646,-9.6189 10.21935,-12.9671 18.89327,-11.97424 6.2725,0.71799 6.54808,0.63096 5.3125,-1.67772 -0.71674,-1.33922 -1.30316,-5.28282 -1.30316,-8.76354 0,-5.49237 0.58558,-6.97675 4.43177,-11.23402 7.98655,-8.84016 22.49804,-11.29163 35.52211,-6.00086 11.51308,4.67697 15.18895,13.79595 10.67257,26.47625 -0.9701,2.72368 -1.61691,5.09906 -1.43735,5.27862 0.17956,0.17956 2.43256,-0.25505 5.00669,-0.9658 17.10716,-4.72352 28.15684,19.13223 18.29641,39.50116 -7.7877,16.08721 -26.89971,17.33553 -39.52834,2.58183 -4.01713,-4.69314 -4.21386,-4.77696 -4.21386,-1.79563 0,5.23439 3.67266,14.28577 7.56596,18.64656 4.33934,4.86036 4.47713,5.6637 1.26622,7.38213 -2.89218,1.54784 -19.59262,1.58522 -23.39177,0.0524 z m -338.67703,-55.47347 c -0.39732,-1.03541 1.29337,-5.32197 3.75711,-9.52569 2.46373,-4.20371 4.47951,-7.86341 4.47951,-8.13266 0,-0.26925 -2.61426,-0.66099 -5.80946,-0.87053 -7.06569,-0.46337 -10.09236,-3.76864 -6.13913,-6.7042 2.85537,-2.12032 17.11659,-2.46882 20.78077,-0.50781 3.57917,1.91552 3.02228,4.47443 -3.5269,16.20602 -4.96435,8.8927 -6.49293,10.6896 -9.37545,11.02121 -2.19559,0.25259 -3.70591,-0.2862 -4.16645,-1.48634 z"
         id="path3512"
         inkscape:connector-curvature="0" />
      <path
         style="fill:#a5a5a5"
         d="m -810.80359,1449.9498 c -3.28607,-1.8974 -4.91863,-3.5749 -6.67758,-6.8616 -2.08917,-3.9036 -2.08917,-851.83408 0,-855.73772 1.82681,-3.41343 3.52027,-5.10689 6.9337,-6.9337 3.89912,-2.08675 604.33863,-2.08675 608.23777,0 3.41341,1.82681 5.10689,3.52027 6.93368,6.9337 2.08918,3.90364 2.08918,851.83412 0,855.73772 -1.82679,3.4135 -3.52027,5.1069 -6.93368,6.9337 -3.89216,2.0831 -604.88482,2.0118 -608.49389,-0.072 z m 607.527,-1.702 c 8.84406,-4.1968 8.098,35.6975 8.098,-433.0284 0,-382.39076 -0.18821,-423.14385 -1.97159,-426.90204 -4.17032,-8.78829 22.19338,-8.098 -309.27841,-8.098 -331.47178,0 -305.10809,-0.69029 -309.27841,8.098 -1.78338,3.75819 -1.97159,44.51128 -1.97159,426.90204 0,381.6755 0.19078,423.1492 1.96373,426.8854 4.15068,8.7469 -22.31391,8.0546 309.09736,8.0861 269.90611,0.026 299.5927,-0.1645 303.34091,-1.9431 z m -575.63623,-40.8721 c -3.17138,-1.6771 -6.32885,-4.6177 -7.6966,-7.168 -2.24435,-4.1848 -2.31917,-16.6052 -2.31917,-384.9883 0,-368.38316 0.0748,-380.80355 2.31917,-384.98839 1.36775,-2.55031 4.52522,-5.49092 7.6966,-7.16799 l 5.37744,-2.84366 267.10679,0 267.10679,0 5.37743,2.84366 c 3.17139,1.67707 6.32886,4.61768 7.69661,7.16799 2.24434,4.18484 2.31917,16.60523 2.31917,384.98839 0,368.3831 -0.0749,380.8035 -2.31917,384.9883 -1.36775,2.5503 -4.52522,5.4909 -7.69661,7.168 l -5.37743,2.8437 -267.10679,0 -267.10679,0 -5.37744,-2.8437 z m 544.98423,-8.4063 c 2.48907,-2.4891 2.5,-4.1667 2.5,-383.75 0,-379.58337 -0.0112,-381.26097 -2.5,-383.75004 -2.48456,-2.48457 -4.16666,-2.5 -272.5,-2.5 -268.33333,0 -270.01543,0.0154 -272.5,2.5 -2.48907,2.48907 -2.5,4.16667 -2.5,383.75004 0,379.5833 0.0109,381.2609 2.5,383.75 2.48457,2.4845 4.16667,2.5 272.5,2.5 268.33334,0 270.01544,-0.015 272.5,-2.5 z m -406.3713,-28.7855 c -7.25976,-1.2035 -12.68033,-3.9896 -16.01832,-8.2331 -3.1842,-4.0481 -3.54112,-14.1986 -0.73538,-20.9136 2.45114,-5.8664 2.42248,-5.9641 -1.33137,-4.5369 -1.7635,0.6705 -5.16644,1.2191 -7.56208,1.2191 -10.89159,0 -16.65681,-8.0045 -16.7041,-23.1921 -0.0864,-27.7555 24.7293,-37.697 42.46116,-17.0105 4.68823,5.4694 4.99574,5.6302 5.00331,2.6169 0.0149,-5.9108 -3.81117,-16.1562 -7.67802,-20.5603 -2.10584,-2.3984 -3.53755,-5.1197 -3.18159,-6.0473 1.37991,-3.596 22.51398,-3.4105 26.15407,0.2296 0.94705,0.9471 0.22212,2.6031 -2.4933,5.6958 -4.15493,4.7322 -7.06898,14.7565 -6.34603,21.8303 l 0.42795,4.1874 3.90409,-5.5617 c 6.54232,-9.3201 19.3202,-13.5526 27.72049,-9.1819 7.90854,4.1148 14.28888,15.6988 14.28888,25.9426 0,9.3865 -5.19848,18.9295 -12.14305,22.2913 -4.67265,2.262 -6.22705,2.4656 -10.26352,1.3447 -2.61629,-0.7265 -5.10165,-1.324 -5.52304,-1.3279 -0.42139,0 0.0646,2.5164 1.0799,5.6005 3.35805,10.2002 -0.19001,18.3206 -10.00611,22.9008 -6.55087,3.0566 -13.52929,3.9536 -21.05394,2.7063 z m 248.73956,-0.4049 c -13.15393,-2.8821 -18.17605,-8.8718 -16.99921,-20.2742 0.3692,-3.5773 1.61906,-8.3369 2.77744,-10.577 2.0219,-3.9099 2.01358,-4.0314 -0.20767,-3.0359 -1.2726,0.5704 -5.16868,1.2613 -8.65797,1.5353 -5.42556,0.4261 -6.90574,0.026 -10.22269,-2.7654 -11.44372,-9.6292 -9.9688,-33.0488 2.78669,-44.2483 8.55101,-7.5079 21.61977,-4.7073 31.75291,6.8046 l 5.15224,5.8532 0,-4.3283 c 0,-6.3081 -3.25821,-14.7754 -7.57404,-19.6831 -3.22017,-3.6618 -3.51474,-4.5375 -2.02682,-6.0254 1.99385,-1.9938 14.00725,-2.6609 21.16336,-1.1751 3.37421,0.7006 4.6875,1.6203 4.6875,3.2829 0,1.2703 -0.87244,2.6444 -1.93876,3.0536 -2.96703,1.1385 -6.53908,10.4832 -7.46294,19.5235 l -0.83034,8.125 5.24998,-5.9805 c 11.44068,-13.0325 23.89658,-14.4323 33.97825,-3.8186 10.59841,11.1577 9.67735,33.8286 -1.7101,42.092 -3.4531,2.5058 -10.62954,3.173 -15.95353,1.4833 -2.55826,-0.812 -2.82645,-0.6228 -1.97287,1.392 0.54332,1.2825 1.2503,5.4524 1.57105,9.2665 0.52345,6.2245 0.2218,7.3643 -2.94499,11.1278 -6.50574,7.7316 -18.53203,11.0201 -30.61749,8.3721 z m 93.00538,-17.8889 c -0.53445,-1.3928 1.16682,-5.9992 4.70721,-12.7452 5.96009,-11.3568 8.8114,-14.2833 11.397,-11.6977 1.22886,1.2289 0.72227,3.2184 -2.4656,9.6831 -2.20674,4.475 -4.01225,8.6574 -4.01225,9.2942 0,0.6368 2.67187,1.3293 5.9375,1.5389 4.97718,0.3193 5.9375,0.7853 5.9375,2.881 0,2.269 -0.95446,2.5335 -10.33221,2.8633 -8.88033,0.3123 -10.44981,0.057 -11.16915,-1.8176 z m 3.37636,-42.5663 c -3.82985,-1.9516 -4.4229,-2.8914 -4.75937,-7.5419 -0.33208,-4.5898 -0.7734,-5.3125 -3.24377,-5.3125 -6.91173,0 -9.96655,-11.6602 -4.85622,-18.5361 3.0335,-4.0816 9.19297,-5.0157 13.68128,-2.0749 4.07587,2.6706 4.46724,2.0957 2.01709,-2.9633 -1.71715,-3.5456 -1.75121,-4.3068 -0.23566,-5.2661 2.28115,-1.4439 6.27664,-1.4346 8.57557,0.02 1.47109,0.9308 1.52876,1.7453 0.3125,4.4147 -0.82028,1.8003 -1.49142,4.1225 -1.49142,5.1604 0,1.6651 0.32676,1.6582 2.77814,-0.059 3.75248,-2.6283 10.11381,-2.4658 12.63751,0.3228 1.12921,1.2478 2.674,4.0498 3.43286,6.2266 1.95034,5.5948 -1.73104,13.208 -6.66101,13.7753 -2.67534,0.3078 -3.4375,1.0545 -3.4375,3.3678 0,7.7394 -10.69736,12.5695 -18.75,8.4661 z m -343.79246,-245.2216 c -8.24772,-1.6832 -9.15274,-3.324 -4.43538,-8.0414 3.38973,-3.3897 5.38416,-9.4171 6.48265,-19.5914 l 0.74228,-6.875 -5.36572,6.107 c -8.4235,9.5873 -19.18123,13.1577 -27.13095,9.0046 -12.81512,-6.695 -18.21385,-25.3661 -11.31292,-39.125 4.81856,-9.60714 11.5582,-12.72873 21.5377,-9.97557 3.35644,0.92598 3.53544,0.79843 2.64384,-1.88392 -0.526,-1.58244 -1.20808,-5.73201 -1.51573,-9.2213 -0.49033,-5.56118 -0.1275,-6.8574 2.93987,-10.50276 5.13087,-6.09769 13.11963,-9.24625 23.13632,-9.11858 19.80142,0.25238 28.81889,11.19355 22.9455,27.84049 -2.44715,6.93597 -2.36816,7.85184 0.54283,6.29397 4.2871,-2.29438 13.16966,-1.5499 16.94563,1.42027 9.51257,7.4826 10.88964,26.621 2.78123,38.653 -9.34545,13.8678 -25.73894,12.9662 -38.15645,-2.0984 l -3.98824,-4.8385 0.0275,4.9724 c 0.0316,5.7258 3.53261,14.1501 8.17186,19.6635 2.63084,3.1266 2.91265,4.0937 1.56677,5.3768 -2.0915,1.9939 -12.80601,3.1138 -18.55854,1.9398 z m 249.6664,-0.036 c -7.39338,-1.5162 -8.08726,-3.045 -3.66701,-8.0794 4.18502,-4.7665 7.05836,-14.7357 6.34602,-22.0178 l -0.42795,-4.375 -2.80705,4.5137 c -7.20536,11.5862 -22.3942,15.5449 -31.88074,8.3091 -5.9826,-4.5631 -11.22567,-15.3935 -11.22567,-23.1883 0,-7.8389 4.53725,-18.3044 9.45344,-21.80503 3.96756,-2.82515 10.15285,-3.49823 16.00937,-1.74215 l 3.29935,0.98932 -1.87925,-5.70832 c -4.79572,-14.56723 5.4339,-25.87522 23.58279,-26.0688 10.351,-0.11037 17.9493,2.41032 22.34019,7.41127 3.22965,3.67836 3.72661,5.21375 3.68827,11.39517 -0.0244,3.9292 -0.84817,8.55025 -1.8307,10.269 -2.64315,4.6237 -2.42687,6.63334 0.54283,5.04398 1.3298,-0.71169 5.03983,-1.29398 8.24453,-1.29398 11.1866,0 16.83764,7.89704 16.83764,23.52984 0,15.7431 -9.05416,27.7202 -20.95531,27.7202 -7.68025,0 -13.21556,-2.7322 -20.32678,-10.033 -5.63466,-5.7849 -6.21791,-6.1014 -6.21791,-3.374 0,5.5348 3.56939,14.9529 7.53923,19.8928 4.27813,5.3236 4.1615,8.5063 -0.3125,8.5279 -1.56845,0.01 -4.82048,0.2487 -7.22673,0.5358 -2.40625,0.2871 -6.51297,0.084 -9.12606,-0.4523 z m -125,-175.00001 c -7.39338,-1.51623 -8.08726,-3.04503 -3.66701,-8.0794 4.18502,-4.76649 7.05836,-14.73564 6.34602,-22.01783 l -0.42795,-4.375 -2.80705,4.51373 c -7.20536,11.58617 -22.3942,15.54488 -31.88074,8.30916 -5.9826,-4.56315 -11.22567,-15.39354 -11.22567,-23.18836 0,-7.8389 4.53725,-18.30438 9.45344,-21.80502 3.96756,-2.82515 10.15285,-3.49823 16.00937,-1.74215 l 3.29935,0.98932 -1.87925,-5.70832 c -4.79572,-14.56723 5.4339,-25.87522 23.58279,-26.0688 10.351,-0.11037 17.9493,2.41032 22.34019,7.41127 3.22965,3.67836 3.72661,5.21375 3.68827,11.39517 -0.0244,3.9292 -0.84817,8.55025 -1.8307,10.269 -2.64315,4.6237 -2.42687,6.63331 0.54283,5.04398 1.3298,-0.71169 5.03983,-1.29398 8.24453,-1.29398 11.1866,0 16.83764,7.89708 16.83764,23.52986 0,15.7431 -9.05416,27.72014 -20.95531,27.72014 -7.68025,0 -13.21556,-2.73214 -20.32678,-10.03294 -5.63466,-5.7849 -6.21791,-6.10138 -6.21791,-3.37405 0,5.53479 3.56939,14.9529 7.53923,19.89284 4.27813,5.32355 4.1615,8.50633 -0.3125,8.52791 -1.56845,0.008 -4.82048,0.24866 -7.22673,0.53578 -2.40625,0.28711 -6.51297,0.0836 -9.12606,-0.45231 z M -728.85752,762.78974 c -1.47108,-0.93075 -1.52874,-1.74532 -0.3125,-4.41468 0.82029,-1.80034 1.49143,-4.12251 1.49143,-5.1604 0,-1.6651 -0.32676,-1.65819 -2.77813,0.0589 -3.75249,2.62833 -10.11382,2.46586 -12.63752,-0.32279 -1.12921,-1.24778 -2.674,-4.04974 -3.43286,-6.22661 -1.95034,-5.59475 1.73104,-13.208 6.66101,-13.77525 2.67534,-0.30784 3.4375,-1.05454 3.4375,-3.3678 0,-1.63475 1.30918,-4.49428 2.90928,-6.3545 2.30812,-2.68335 4.06285,-3.40807 8.49191,-3.50722 8.19408,-0.18347 12.34881,2.93839 12.34881,9.2788 0,4.38165 0.34762,4.97119 2.93126,4.97119 4.37533,0 7.40965,4.12494 7.40965,10.07286 0,9.92393 -8.5712,15.51229 -16.16283,10.53805 -4.07586,-2.6706 -4.46724,-2.09561 -2.0171,2.96339 1.71715,3.54553 1.75122,4.30674 0.23567,5.26603 -2.28115,1.44388 -6.27663,1.43458 -8.57558,-0.02 z m 91.17893,-4.6289 c -7.52366,-1.24318 -8.75,-1.81522 -8.75,-4.08155 0,-1.28835 0.87244,-2.67724 1.93876,-3.08643 2.98304,-1.1447 6.54624,-10.51331 7.42543,-19.5235 0.73966,-7.58015 0.65924,-7.95735 -1.1992,-5.625 -8.63099,10.8319 -14.41324,14.375 -23.45968,14.375 -16.08316,0 -26.72595,-23.54015 -18.40967,-40.71927 3.95632,-8.17267 8.68117,-10.84354 17.8583,-10.09496 6.42973,0.52447 7.17631,0.3514 6.39931,-1.48351 -0.48377,-1.14249 -1.13752,-4.88976 -1.45276,-8.32726 -0.46728,-5.09531 -0.0323,-7.0458 2.35492,-10.55742 7.28582,-10.71793 24.7326,-13.7096 39.38978,-6.75431 8.85796,4.20338 11.67297,15.39204 6.65464,26.44981 l -2.44527,5.38807 2.78522,-1.01307 c 5.45892,-1.98559 15.4621,-1.17969 18.45623,1.48692 7.67309,6.83373 9.76595,22.48281 4.51485,33.7591 -3.37812,7.25424 -10.20748,13.76019 -15.71368,14.96955 -7.43472,1.63294 -19.53344,-4.59516 -25.27014,-13.0084 l -2.95204,-4.32934 -0.41589,3.578 c -0.65041,5.59572 2.31758,14.24957 6.98365,20.36245 2.34538,3.0726 3.79585,6.01904 3.22328,6.54764 -1.30703,1.20662 -13.73936,2.3776 -17.91604,1.68748 z m 248.53264,-0.0434 c -2.5258,-0.29574 -5.28343,-1.37039 -6.12807,-2.38811 -1.25577,-1.51313 -0.91836,-2.49478 1.85112,-5.38549 3.90846,-4.07956 7.00518,-13.24807 6.96985,-20.6357 l -0.0245,-5.11384 -4.49383,5.3602 c -10.15711,12.11531 -24.56209,13.73554 -33.83369,3.8055 -10.78403,-11.54987 -10.49126,-31.4408 0.60619,-41.18449 4.25198,-3.73328 4.84986,-3.89025 12.20284,-3.20362 l 7.73179,0.72201 -1.8146,-5.2498 c -3.24308,-9.38243 -0.007,-17.83521 8.48385,-22.16746 7.97626,-4.06918 14.72763,-5.01862 23.22913,-3.26667 13.11359,2.70239 18.21019,7.80173 18.13012,18.13984 -0.0263,3.38373 -0.93147,8.26748 -2.01168,10.85279 -1.08021,2.5853 -1.7534,4.91117 -1.49596,5.1686 0.25742,0.25743 1.98892,-0.11019 3.84777,-0.81692 8.64227,-3.28578 16.75142,-0.10175 20.74354,8.14487 5.09766,10.53037 2.01724,30.11633 -5.83262,37.08498 -9.92735,8.81292 -23.2908,6.39571 -34.0519,-6.15939 -4.78905,-5.58745 -5.12642,-5.76946 -5.13395,-2.76981 -0.0149,5.91084 3.81117,16.15625 7.67802,20.56036 4.2199,4.80619 4.03373,8.0961 -0.45937,8.11778 -1.56845,0.008 -4.82048,0.21812 -7.22673,0.46791 -2.40625,0.2498 -6.44156,0.2122 -8.96736,-0.0835 z m -341.82279,-56.00272 c -0.39142,-1.02004 1.31296,-5.53799 3.78751,-10.03989 4.88197,-8.88165 4.82911,-9.0221 -3.62236,-9.62425 -4.04792,-0.28841 -5,-0.83228 -5,-2.85624 0,-2.30392 0.83333,-2.5 10.625,-2.5 10.02437,0 10.6473,0.15688 11.01955,2.77518 0.37563,2.64216 -6.82779,17.27139 -10.78961,21.91232 -2.28348,2.6749 -5.0624,2.82856 -6.02009,0.33288 z"
         id="path3510"
         inkscape:connector-curvature="0" />
      <path
         style="fill:#6f6f6f"
         d="m -809.74673,1450.5127 c -0.79372,-0.5051 135.69944,-0.9183 303.31814,-0.9183 167.6187,0 304.11186,0.4132 303.31814,0.9183 -0.79373,0.5051 -137.28689,0.9184 -303.31814,0.9184 -166.03125,0 -302.52441,-0.4133 -303.31814,-0.9184 z m -8.42312,-8.5206 c -1.09585,-2.8557 -0.89901,-852.11716 0.1979,-853.84088 0.5051,-0.79372 0.91836,191.44065 0.91836,427.18748 0,235.7469 -0.0804,428.6307 -0.17876,428.6307 -0.0983,0 -0.5202,-0.8898 -0.9375,-1.9773 z m 622.36626,-426.7727 c 0,-235.68124 0.41326,-427.8619 0.91836,-427.06818 1.2008,1.88698 1.2008,852.24928 0,854.13628 -0.5051,0.7937 -0.91836,-191.3869 -0.91836,-427.0681 z m -583.41483,391.1765 c -2.56565,-1.3547 -5.51878,-4.1144 -6.5625,-6.1327 -1.68473,-3.2579 -1.89767,-46.4643 -1.89767,-385.0438 0,-338.85145 0.21193,-381.78402 1.90076,-385.04985 1.04542,-2.02161 4.11676,-4.80618 6.8252,-6.18793 4.88706,-2.49319 6.95581,-2.51226 272.52404,-2.51226 265.56824,0 267.63698,0.0191 272.52404,2.51226 2.70845,1.38175 5.77978,4.16632 6.8252,6.18793 1.68882,3.26583 1.90076,46.1984 1.90076,385.04985 0,338.8514 -0.21194,381.7839 -1.90076,385.0498 -1.04541,2.0216 -4.11675,4.8061 -6.8252,6.1879 -4.88813,2.4937 -6.90015,2.5118 -272.78674,2.457 -264.05375,-0.054 -267.92863,-0.09 -272.52713,-2.5182 z m 543.21818,-5.0644 c 1.67527,-0.7633 3.6705,-2.7585 4.43381,-4.4338 1.98015,-4.346 1.98015,-759.01072 0,-763.35668 -0.76331,-1.67529 -2.75854,-3.67051 -4.43381,-4.43382 -4.33945,-1.97718 -536.51726,-1.97718 -540.85669,0 -1.67529,0.76331 -3.67051,2.75853 -4.43382,4.43382 -1.98443,4.35535 -1.97972,759.01168 0.005,763.36718 0.76593,1.681 2.59406,3.6381 4.0625,4.3492 3.90711,1.8918 537.0735,1.9649 541.22325,0.074 z m -409.21661,-33.0321 c -3.1148,-0.9602 -7.33355,-3.4905 -9.375,-5.6229 -3.25383,-3.3989 -3.70213,-4.7534 -3.63378,-10.9797 0.0521,-4.7448 0.98568,-8.8494 2.8125,-12.3651 3.53803,-6.8091 3.47477,-7.0593 -1.17651,-4.6541 -5.06495,2.6192 -13.85785,2.7221 -17.69623,0.2071 -6.91168,-4.5287 -10.15037,-21.8752 -6.00544,-32.1653 4.3696,-10.8479 13.29812,-17.3377 21.68758,-15.7638 6.2501,1.1725 15.33615,7.4273 19.14073,13.1764 1.83671,2.7755 3.89964,4.7002 4.58426,4.277 3.08254,-1.9051 -2.87768,-21.6101 -7.91544,-26.1692 -3.58782,-3.247 -2.88947,-5.3124 2.11358,-6.251 5.58787,-1.0483 17.9087,0.1372 19.66352,1.8921 0.90718,0.9071 0.48974,2.1735 -1.36841,4.1515 -3.96551,4.2211 -6.56129,11.3744 -7.4046,20.4052 -0.86989,9.3154 0.48872,10.3275 4.7052,3.5052 3.98721,-6.4515 12.79586,-11.7234 19.5881,-11.7234 10.12084,0 16.94504,6.028 21.01647,18.5644 1.83999,5.6655 1.94889,7.6581 0.71148,13.0189 -3.07581,13.3252 -10.84826,19.8976 -20.68829,17.4942 -2.80305,-0.6847 -6.08016,-1.6609 -7.28246,-2.1694 -2.00454,-0.8477 -1.98088,-0.4724 0.28505,4.5212 5.34145,11.7714 1.77387,20.9286 -10.02018,25.7198 -7.77571,3.1587 -15.52917,3.4627 -23.74213,0.9309 z m 250.05194,-0.5299 c -9.36165,-3.2313 -12.5213,-7.1365 -12.48623,-15.4323 0.0159,-3.7439 1.07428,-8.7998 2.5,-11.9418 3.26855,-7.2033 3.12692,-8.0785 -0.96495,-5.9631 -11.71159,6.0545 -22.4111,0.388 -25.26999,-13.3831 -1.32786,-6.3963 -1.20446,-8.1714 1.09412,-15.739 1.99392,-6.5645 3.71287,-9.5433 7.46158,-12.93 9.78915,-8.8439 19.0354,-7.4009 31.04203,4.8444 l 7.85976,8.016 0,-4.9972 c 0,-6.3529 -3.7649,-16.3203 -8.11909,-21.495 -3.18153,-3.781 -3.2465,-4.1031 -1.13856,-5.6444 3.96743,-2.9011 21.33413,-1.6928 22.58674,1.5714 0.33781,0.8804 -0.57675,2.7916 -2.03235,4.2472 -3.29005,3.2901 -4.512,6.4545 -6.30006,16.3151 -2.15393,11.8782 -0.95097,12.9046 5.9194,5.0508 6.59706,-7.5415 11.52362,-10.0691 19.62528,-10.0691 4.52533,0 6.4977,0.7691 10.11379,3.9441 11.96436,10.5049 13.79509,29.8338 3.82675,40.4034 -5.17828,5.4905 -9.51321,6.5194 -17.1625,4.0732 -6.57046,-2.1011 -6.88975,-1.8858 -4.1944,2.8293 0.98252,1.7187 1.80635,6.0585 1.8307,9.644 0.0584,8.5855 -4.7261,14.4485 -14.05023,17.2175 -8.31406,2.469 -13.76236,2.3308 -22.1418,-0.5614 z m 99.04882,-14.628 c -0.85937,-0.3468 -1.52515,-1.8492 -1.4795,-3.3388 0.12275,-4.0062 10.26598,-21.3709 12.76436,-21.8521 3.20769,-0.6177 2.66819,2.6431 -1.72526,10.4279 -4.85546,8.6034 -4.2524,10.5909 3.21368,10.5909 4.00818,0 5.66422,0.509 5.66422,1.7412 0,0.9577 -0.88975,2.0827 -1.97724,2.5 -2.3257,0.8925 -14.20081,0.8426 -16.46026,-0.069 z m 0.9375,-44.5329 c -2.57224,-1.2955 -3.19284,-2.6297 -3.50851,-7.5432 -0.33712,-5.2473 -0.67483,-5.877 -2.79169,-5.2051 -3.2284,1.0246 -8.6998,-4.4917 -8.6998,-8.7712 0,-4.2785 3.14321,-10.207 6.31015,-11.9019 2.9246,-1.5652 6.79109,-0.6187 11.04593,2.7041 3.55838,2.7789 7.34143,2.9862 10.0455,0.5504 1.08538,-0.9776 3.50613,-2.1601 5.37946,-2.6276 4.9422,-1.2333 10.96896,4.9428 10.96896,11.2409 0,5.1628 -4.48468,10.6644 -8.69319,10.6644 -1.99348,0 -2.55681,0.8062 -2.55681,3.6592 0,7.0872 -9.76949,11.1234 -17.5,7.23 z m 4.69215,-34.2254 c -1.14329,-2.5224 -1.78979,-5.0536 -1.43665,-5.625 0.85894,-1.3898 6.417,-1.33 7.28742,0.078 0.60117,0.9727 -2.49441,10.1328 -3.42426,10.1328 -0.19128,0 -1.28321,-2.0638 -2.42651,-4.5862 z m -350.70609,-211.2431 c -4.19265,-0.892 -4.57113,-3.4106 -1.07881,-7.1789 3.20388,-3.457 5.11338,-9.4074 6.55593,-20.4293 1.02048,-7.7971 -1.06638,-8.8459 -5.08818,-2.557 -1.375,2.15 -4.66159,5.644 -7.30352,7.7643 -4.23218,3.3966 -5.74639,3.8552 -12.73043,3.8552 -7.09731,0 -8.33991,-0.3925 -11.87345,-3.75 -12.68432,-12.0526 -12.67735,-34.1882 0.0135,-42.81254 4.8373,-3.2873 9.20583,-3.54695 15.49126,-0.92072 4.9417,2.06477 5.35152,1.5794 2.65265,-3.14178 -0.98252,-1.71875 -1.80635,-6.05855 -1.8307,-9.644 -0.0376,-5.53891 0.53719,-7.18129 3.82335,-10.92401 8.85212,-10.082 31.28619,-10.77815 40.79834,-1.266 3.60518,3.60517 4.08079,4.86811 4.05656,10.77151 -0.0162,3.95874 -1.04541,8.93115 -2.52221,12.18612 -1.37212,3.02424 -2.32217,5.67122 -2.11124,5.88212 0.21094,0.211 2.87503,-0.4749 5.9202,-1.524 7.4429,-2.56429 12.67859,-1.39647 17.29098,3.8568 14.58955,16.6165 -0.3543,49.7938 -19.98673,44.373 -6.34525,-1.752 -12.26392,-6.0519 -16.65673,-12.101 -2.08,-2.8643 -4.20369,-5.2422 -4.71932,-5.2842 -1.83817,-0.1497 -0.89622,10.0055 1.51719,16.3571 1.35008,3.5531 3.99013,8.0628 5.86676,10.0216 2.6478,2.7637 3.07715,3.8964 1.91683,5.0567 -1.54772,1.5477 -14.92214,2.4898 -20.00221,1.409 z m 249.45144,-0.6236 c -3.96456,-1.448 -4.26824,-2.5552 -1.35935,-4.9566 1.14297,-0.9435 3.13151,-4.0914 4.41896,-6.9952 2.64712,-5.9705 4.56124,-21.5953 2.64554,-21.5953 -0.67036,0 -3.00004,2.4802 -5.17706,5.5117 -6.70916,9.3423 -19.11527,13.3107 -27.71305,8.8646 -7.68519,-3.9742 -14.79718,-18.7047 -13.34655,-27.6438 1.14732,-7.0702 5.85465,-15.5252 10.07715,-18.10001 4.65465,-2.83832 8.71608,-2.99519 15.50764,-0.59899 l 5.0551,1.78355 -2.37049,-5.22105 c -4.77286,-10.51234 -1.88723,-19.76897 7.68509,-24.6524 15.86412,-8.09328 37.6832,-1.40419 39.48318,12.10438 0.58764,4.4101 -0.36076,7.96425 -5.24101,19.64082 -0.9115,2.1809 -0.7566,2.205 2.69584,0.4196 14.86726,-7.68812 26.00706,0.7876 26.00706,19.7876 0,7.5163 -0.56036,9.7896 -3.84715,15.6073 -4.75695,8.4199 -12.33057,13.0924 -19.2084,11.8504 -6.77516,-1.2234 -14.82442,-6.5316 -19.0978,-12.5942 -2.1359,-3.0303 -4.41014,-5.5095 -5.05386,-5.5095 -3.54623,0 3.16654,22.5897 8.01725,26.9796 5.05815,4.5775 1.88406,6.8031 -9.49059,6.6546 -3.4375,-0.045 -7.79687,-0.6466 -9.6875,-1.3371 z m -125,-174.99999 c -3.96456,-1.44799 -4.26824,-2.55525 -1.35935,-4.9566 1.14298,-0.94355 3.13151,-4.0914 4.41896,-6.99521 2.64712,-5.97049 4.56124,-21.59534 2.64554,-21.59534 -0.67036,0 -3.00004,2.48026 -5.17706,5.5117 -6.70916,9.34235 -19.11526,13.3107 -27.71305,8.86461 -4.94394,-2.55661 -9.35615,-8.70136 -11.92245,-16.60401 -2.4681,-7.60026 -1.96098,-12.88045 2.02856,-21.12174 4.56716,-9.43448 12.45466,-12.49678 21.95915,-8.52556 2.46814,1.03125 4.67256,1.875 4.89874,1.875 0.22617,0 -0.67391,-2.39062 -2.0002,-5.3125 -4.81424,-10.60599 -1.96033,-19.84402 7.64413,-24.74386 15.86413,-8.09328 37.68321,-1.40419 39.48319,12.10439 0.58764,4.4101 -0.36076,7.96425 -5.24101,19.64079 -0.9115,2.18088 -0.7566,2.20499 2.69584,0.41967 14.86726,-7.68816 26.00706,0.78757 26.00706,19.78751 0,7.51631 -0.56036,9.78963 -3.84715,15.60734 -4.75695,8.41994 -12.33057,13.09241 -19.2084,11.85045 -6.77516,-1.22343 -14.82442,-6.53161 -19.0978,-12.59429 -2.1359,-3.03023 -4.41014,-5.5095 -5.05386,-5.5095 -3.54623,0 3.16654,22.58978 8.01725,26.9796 5.05815,4.57756 1.88406,6.80319 -9.49059,6.65465 -3.4375,-0.0449 -7.79687,-0.64659 -9.6875,-1.3371 z M -728.22152,761.60215 c -0.37976,-0.61446 0.20838,-3.26845 1.30697,-5.89774 l 1.99743,-4.78054 2.341,4.81284 c 1.28755,2.64706 2.03928,5.30105 1.6705,5.89775 -0.88071,1.42501 -6.43037,1.4005 -7.3159,-0.0322 z m 85.85543,-5.10764 c -3.45299,-1.46664 -3.53533,-2.73354 -0.36413,-5.60343 4.3008,-3.89217 9.43943,-25.60746 6.49087,-27.42976 -0.69204,-0.42771 -3.02165,1.67781 -5.17689,4.67893 -13.86347,19.30455 -37.43066,12.51355 -40.75551,-11.7439 -1.49865,-10.93385 4.15547,-22.88017 12.29532,-25.97822 4.05506,-1.54337 5.38344,-1.51941 10.57826,0.1908 3.26748,1.07569 6.13505,1.76162 6.37239,1.52428 0.23734,-0.23734 -0.4537,-2.14336 -1.53563,-4.23561 -3.14957,-6.09057 -2.58031,-15.50777 1.2097,-20.01193 4.68012,-5.56201 15.66302,-9.35851 24.22432,-8.3737 9.48882,1.0915 17.01093,4.69471 19.38505,9.28577 2.7152,5.25062 2.47548,14.26814 -0.53625,20.17162 -3.44826,6.75915 -3.20289,7.92768 1.18792,5.6571 2.02837,-1.0489 6.20396,-1.9071 9.27909,-1.9071 8.07738,0 12.40471,4.03098 15.12813,14.09209 1.93824,7.16045 1.95892,8.49942 0.23331,15.10749 -1.04138,3.98787 -3.19101,9.1444 -4.77696,11.45895 -3.45813,5.0468 -10.66705,9.35182 -15.59668,9.31402 -7.232,-0.0555 -17.23049,-6.38956 -22.30063,-14.12759 -2.92315,-4.46128 -4.40568,-4.21936 -4.3972,0.71754 0.0113,6.45702 2.23765,12.8068 6.94212,19.79761 2.4021,3.5695 4.03338,6.82409 3.62505,7.2324 -1.28599,1.28599 -18.56851,1.43273 -21.51165,0.18264 z m 251.5625,0.33351 c -4.5876,-1.10346 -4.98541,-2.70973 -1.55726,-6.28795 3.58359,-3.74046 7.18226,-15.30637 7.18226,-23.08333 0,-5.90853 -1.50986,-6.00954 -5.01654,-0.33562 -5.59951,9.0602 -16.55725,14.18789 -25.2123,11.79812 -6.12747,-1.69188 -12.91629,-9.48919 -15.32561,-17.60227 -2.42566,-8.1681 -2.42132,-9.58561 0.052,-16.99142 3.99444,-11.96057 11.88644,-16.7115 22.44159,-13.50968 3.40223,1.03203 6.33795,1.88252 6.52378,1.88996 0.18585,0.008 -0.79852,-2.21406 -2.1875,-4.93667 -5.30165,-10.3921 -2.11228,-20.07935 8.28997,-25.17957 11.79472,-5.78295 30.62531,-2.71998 36.26671,5.89913 3.16357,4.83342 2.88455,14.61383 -0.60963,21.36834 -1.49737,2.89449 -2.72247,5.53766 -2.72247,5.87372 0,0.33606 1.95069,-0.20403 4.33485,-1.2002 14.60887,-6.10398 24.94859,2.20932 24.95443,20.06378 0.006,18.9829 -12.2477,31.37944 -26.72948,27.0406 -5.28177,-1.58246 -15.75949,-10.21251 -16.94894,-13.96012 -1.09318,-3.44434 -4.36086,-3.11267 -4.36086,0.44264 0,5.49415 3.96263,16.48853 7.6017,21.09108 4.38633,5.54761 4.51504,6.73695 0.8358,7.72294 -3.20482,0.85886 -14.07414,0.79572 -17.8125,-0.1035 z m -324.375,-1.26901 c -1.03125,-0.39214 -3.21648,-1.75397 -4.85607,-3.02631 -3.56357,-2.76537 -7.34631,-2.96709 -10.0455,-0.53573 -1.08539,0.97769 -3.50615,2.16012 -5.37947,2.62762 -4.9422,1.23336 -10.96896,-4.94281 -10.96896,-11.24089 0,-5.16278 4.48468,-10.66434 8.69318,-10.66434 1.99349,0 2.55682,-0.80623 2.55682,-3.65927 0,-5.52245 5.35589,-9.25421 12.18682,-8.49125 7.29129,0.81436 9.06318,2.62528 9.06318,9.26281 0,4.97179 0.26076,5.47342 2.47919,4.76931 3.30038,-1.0475 8.77081,4.40911 8.77081,8.74866 0,4.21115 -3.12755,10.19865 -6.18076,11.83269 -2.61997,1.40216 -3.48662,1.45383 -6.31924,0.3767 z m -15,-54.64193 c 0,-1.09207 1.6875,-4.97568 3.75,-8.63023 4.78238,-8.4739 4.72262,-9.56749 -0.52277,-9.56749 -5.50652,0 -8.22723,-1.07765 -8.22723,-3.25874 0,-1.34216 2.27508,-1.74126 9.92623,-1.74126 5.543,0 10.2821,0.57581 10.73212,1.30397 1.19059,1.9264 -10.89173,22.97006 -13.47085,23.46205 -1.34039,0.2557 -2.1875,-0.35163 -2.1875,-1.5683 z m -79.01587,-120.92236 c 2.79892,-1.11081 602.73282,-1.11081 605.53174,0 1.17748,0.4673 -135.06717,0.84964 -302.76587,0.84964 -167.6987,0 -303.94335,-0.38234 -302.76587,-0.84964 z"
         id="path3508"
         inkscape:connector-curvature="0" />
      <path
         style="fill:#545454"
         d="m -657.36609,1450.5319 c 83.01563,-0.1774 218.85938,-0.1774 301.875,0 83.01563,0.1774 15.09375,0.3226 -150.9375,0.3226 -166.03125,0 -233.95312,-0.1452 -150.9375,-0.3226 z m -160.94473,-435.3125 c 0,-234.09379 0.14387,-329.85941 0.31971,-212.81254 0.17584,117.04688 0.17584,308.57814 0,425.62504 -0.17584,117.0468 -0.31971,21.2812 -0.31971,-212.8125 z m 623.75,0 c 0,-234.09379 0.14387,-329.85941 0.3197,-212.81254 0.17584,117.04688 0.17584,308.57814 0,425.62504 -0.17583,117.0468 -0.3197,21.2812 -0.3197,-212.8125 z m -585.74542,389.6442 c -2.42682,-1.6317 -4.88684,-4.7125 -5.7393,-7.1875 -2.16587,-6.2884 -2.16587,-758.62508 0,-764.91345 0.85246,-2.47503 3.31248,-5.55579 5.7393,-7.1875 l 4.24736,-2.85579 269.63029,0 269.63029,0 4.24736,2.85579 c 2.42681,1.63171 4.88684,4.71247 5.7393,7.1875 2.16586,6.28837 2.16586,758.62505 0,764.91345 -0.85246,2.475 -3.31249,5.5558 -5.7393,7.1875 l -4.24736,2.8558 -269.63029,0 -269.63029,0 -4.24736,-2.8558 z m 547.23459,-4.8621 2.89306,-2.7179 0,-381.8891 0,-381.88901 -2.71789,-2.89307 -2.7179,-2.89306 -270.63903,0 -270.63905,0 -2.89307,2.71789 -2.89306,2.7179 0,381.88905 0,381.889 2.71789,2.8931 2.7179,2.8931 270.63904,0 270.63904,0 2.89307,-2.7179 z m -410.85694,-31.9077 c -6.54625,-2.3678 -10.33975,-4.9056 -11.93006,-7.9809 -2.81393,-5.4416 -2.25485,-13.5299 1.44897,-20.9625 1.7979,-3.608 3.02515,-6.8036 2.72724,-7.1016 -0.29792,-0.2979 -2.75331,0.6115 -5.45641,2.021 -5.79131,3.0197 -14.28125,2.6759 -18.04554,-0.7307 -4.28282,-3.8759 -6.65195,-12.3041 -5.94261,-21.1409 1.53746,-19.1536 15.2063,-29.3722 29.52097,-22.0694 4.63865,2.3665 13.06887,10.6398 14.15173,13.8884 0.32297,0.9689 1.4151,1.3202 2.64144,0.8496 1.58692,-0.6089 1.9231,-1.7928 1.39493,-4.9124 -1.34508,-7.9446 -4.51537,-16.6503 -7.49778,-20.5891 -1.65708,-2.1885 -3.01288,-4.5792 -3.01288,-5.3125 0,-1.6276 18.5725,-1.8034 21.10449,-0.1998 1.39595,0.8841 1.07805,1.9494 -1.64845,5.524 -5.28525,6.9293 -8.86329,28.3424 -4.7359,28.3424 0.57674,0 2.8343,-2.5334 5.01681,-5.6298 6.09771,-8.6509 15.62043,-13.3065 23.28349,-11.3832 8.03319,2.0162 16.94257,15.1397 16.96735,24.9929 0.0185,7.3576 -2.55044,14.4085 -6.94879,19.0721 -3.2613,3.458 -4.87669,4.198 -9.16425,4.198 -2.86277,0 -7.22443,-0.8438 -9.69255,-1.875 -6.36878,-2.6611 -7.11447,-2.3585 -4.13137,1.6764 1.44412,1.9532 3.14507,5.863 3.77988,8.6884 2.81773,12.5408 -7.19984,21.5298 -23.83071,21.384 -4.46875,-0.039 -8.96875,-0.3764 -10,-0.7494 z m 248.22904,-0.915 c -2.69278,-0.9945 -6.34903,-3.2612 -8.125,-5.0372 -4.39209,-4.3921 -4.47625,-13.8374 -0.20457,-22.9576 1.66345,-3.5516 2.75009,-6.7318 2.41473,-7.0671 -0.33535,-0.3354 -2.79968,0.5068 -5.47628,1.8714 -12.47088,6.358 -22.0259,-0.057 -23.92128,-16.0609 -1.44863,-12.2314 6.42155,-27.4894 15.33285,-29.726 8.78579,-2.2051 19.68381,2.9897 26.66451,12.7101 4.99393,6.9539 6.90236,6.155 5.76847,-2.4148 -0.98244,-7.4252 -4.68797,-16.4326 -8.37448,-20.3567 -1.41345,-1.5046 -2.19653,-3.3397 -1.74018,-4.0781 1.08573,-1.7567 17.59553,-1.7445 20.88409,0.015 2.529,1.3535 2.52825,1.3667 -0.21992,3.927 -4.11001,3.8291 -6.37867,10.3554 -7.15139,20.5726 -0.81498,10.7759 0.30636,11.5106 5.84481,3.8298 5.72765,-7.9431 11.55698,-11.4225 19.26506,-11.4988 8.2648,-0.082 13.21819,3.3184 17.57698,12.0653 5.7148,11.4681 3.47135,26.6938 -4.90398,33.2818 -4.20553,3.3081 -11.26115,3.5571 -17.43036,0.6152 -5.58736,-2.6644 -6.65239,-1.6108 -3.15429,3.1207 1.51193,2.045 3.03665,6.2706 3.38829,9.3903 0.80695,7.1592 -2.68531,13.3397 -9.3743,16.5903 -6.11374,2.971 -20.54469,3.6147 -27.06376,1.2072 z m 98.57126,-16.0784 c -0.81649,-2.1277 9.10022,-20.8254 11.54221,-21.7625 3.32445,-1.2757 3.02057,0.5897 -1.40887,8.6481 -2.4385,4.4363 -4.43364,8.693 -4.43364,9.4593 0,0.7996 2.79664,1.5544 6.5625,1.7712 9.7142,0.5593 7.95916,2.8213 -2.51808,3.2455 -6.8372,0.2768 -9.24451,-0.06 -9.74412,-1.3616 z m 0.11987,-44.5811 c -1.66751,-1.8425 -2.01141,-3.547 -1.38708,-6.875 0.79501,-4.2374 0.6771,-4.4249 -2.78271,-4.4249 -1.9871,0 -4.54384,-1.0287 -5.68164,-2.286 -2.88024,-3.1826 -2.61794,-10.4287 0.52199,-14.4205 3.2456,-4.1261 7.75555,-4.2631 12.91628,-0.3925 6.18358,4.6378 6.4133,4.6683 10.79928,1.4324 2.29867,-1.6959 5.45446,-3.0834 7.01286,-3.0834 4.45646,0 7.93085,4.673 7.93085,10.6669 0,6.0227 -2.80597,9.3331 -7.91092,9.3331 -2.96951,0 -3.33908,0.4743 -3.33908,4.2857 0,5.9642 -2.71059,8.2143 -9.89555,8.2143 -4.33891,0 -6.57195,-0.6685 -8.18421,-2.4501 z m 7.07979,-33.1254 c -1.9949,-4.3784 -1.97796,-4.4245 1.62504,-4.4245 3.44581,0 4.00906,2.0631 1.50003,5.4944 -1.51244,2.0684 -1.72887,1.9943 -3.125,-1.0699 z m -353.11272,-212.0528 c -2.07115,-1.2053 -1.9641,-1.6139 1.43779,-5.4884 2.20918,-2.5162 4.22398,-6.7435 5.05026,-10.5963 1.57301,-7.3348 1.82739,-17.5373 0.43721,-17.5364 -0.51562,3e-4 -3.41749,2.8803 -6.44857,6.4 -5.6413,6.5506 -13.30282,11.0391 -18.86393,11.0513 -10.10514,0.022 -20.0237,-12.9055 -19.97255,-26.0322 0.0689,-17.6774 11.2289,-26.71779 25.58,-20.72152 2.56453,1.07153 4.93275,1.67822 5.26273,1.34827 0.32998,-0.32998 -0.65368,-2.2956 -2.18589,-4.36804 -3.90359,-5.27989 -4.56945,-14.61762 -1.40145,-19.6535 7.01559,-11.15203 33.20077,-12.5363 42.84132,-2.2648 4.02995,4.29372 4.0821,14.98385 0.11038,22.62755 -3.82928,7.36954 -3.45467,8.28044 2.21566,5.38774 14.09386,-7.19019 24.47815,1.0529 24.37591,19.3496 -0.11,19.6734 -14.64665,32.0632 -28.79341,24.5409 -6.30026,-3.3501 -7.80899,-4.6545 -12.84927,-11.1094 -2.2841,-2.9251 -4.72894,-4.9624 -5.43297,-4.5273 -3.2692,2.0205 2.38498,21.6354 7.94155,27.5502 1.41345,1.5045 2.19653,3.3396 1.74018,4.078 -1.06536,1.7238 -18.071,1.6949 -21.04495,-0.036 z m 251.30026,0.5166 c -2.42775,-0.6344 -2.86767,-2.3204 -0.91964,-3.5244 4.6278,-2.8601 10.62977,-26.7798 7.47987,-29.8095 -1.12615,-1.0832 -1.97545,-0.6725 -3.50643,1.6956 -3.95805,6.1222 -11.54094,12.417 -16.59866,13.7789 -9.85041,2.6524 -17.98943,-1.9475 -23.18405,-13.1029 -4.90191,-10.5268 -3.32156,-22.4624 4.00241,-30.2281 3.2613,-3.45796 4.87669,-4.19794 9.16425,-4.19794 2.86277,0 7.22443,0.84375 9.69255,1.875 6.60931,2.76154 7.05144,2.37934 3.48387,-3.0116 -4.22871,-6.39 -4.6972,-14.78019 -1.10073,-19.71292 6.1706,-8.46332 21.60651,-11.61985 34.8147,-7.11937 10.90675,3.7163 13.90307,14.86924 7.46545,27.78788 -1.7979,3.60792 -2.98634,6.84245 -2.64098,7.18775 0.34537,0.3454 2.5195,-0.5252 4.83142,-1.9347 5.49198,-3.34825 13.47093,-3.37468 17.68665,-0.059 11.07501,8.7116 8.6058,34.8495 -4.10818,43.4871 -8.68967,5.9035 -22.03081,1.3083 -30.31234,-10.4408 -2.1554,-3.0578 -4.31295,-5.5597 -4.79455,-5.5597 -4.61626,0 0.79508,21.6332 7.24998,28.9837 1.0185,1.1598 1.48226,2.7067 1.03059,3.4375 -0.79864,1.2922 -15.2683,1.6347 -19.73618,0.4671 z m -125,-175 c -2.42775,-0.63443 -2.86767,-2.32043 -0.91964,-3.52438 4.6278,-2.86013 10.62976,-26.7798 7.47987,-29.80953 -1.12616,-1.0832 -1.97545,-0.67252 -3.50643,1.69557 -3.95805,6.12229 -11.54094,12.41701 -16.59866,13.77891 -9.85041,2.65244 -17.98943,-1.94745 -23.18405,-13.10282 -4.90191,-10.52681 -3.32156,-22.46245 4.00241,-30.22811 3.2613,-3.45801 4.87669,-4.19798 9.16425,-4.19798 2.86278,0 7.22442,0.84375 9.69255,1.875 6.60931,2.76155 7.05144,2.37935 3.48388,-3.0116 -4.22872,-6.39 -4.6972,-14.78019 -1.10074,-19.71292 6.1706,-8.46332 21.60651,-11.61985 34.8147,-7.11937 10.90675,3.7163 13.90307,14.86924 7.46545,27.78788 -1.7979,3.60792 -2.98634,6.84242 -2.64098,7.18778 0.34537,0.34538 2.5195,-0.52526 4.83142,-1.93473 5.49198,-3.34825 13.47093,-3.37468 17.68665,-0.0586 11.07501,8.71161 8.6058,34.8495 -4.10818,43.48709 -8.68967,5.90356 -22.03081,1.30837 -30.31234,-10.44071 -2.1554,-3.05788 -4.31295,-5.55979 -4.79455,-5.55979 -4.61626,0 0.79508,21.63328 7.24998,28.98374 1.0185,1.1598 1.48226,2.70667 1.03059,3.4375 -0.79864,1.29222 -15.2683,1.63469 -19.73618,0.4671 z m -210.9375,-126.72051 c 0,-0.7327 0.63281,-2.5146 1.40625,-3.95978 1.40416,-2.6237 1.40874,-2.62311 3.08071,0.39468 2.35883,4.25753 2.18092,4.89727 -1.36196,4.89727 -1.71875,0 -3.125,-0.59947 -3.125,-1.33217 z m 84.00334,-4.7348 c -1.27854,-0.81104 -1.16944,-1.40209 0.51563,-2.79337 1.17553,-0.97056 3.20513,-4.17315 4.51023,-7.11686 2.76609,-6.23902 4.46738,-22.00934 2.50519,-23.22204 -0.71421,-0.44141 -3.26368,1.93272 -5.66546,5.27583 -4.91463,6.8408 -12.86912,11.42341 -19.82873,11.42341 -14.32504,0 -24.57002,-22.47999 -17.41979,-38.22325 4.63449,-10.20413 12.73828,-12.97579 23.56709,-8.06041 5.96923,2.70953 6.62026,1.70128 2.5,-3.87168 -2.11364,-2.85885 -2.8125,-5.51028 -2.8125,-10.67043 0,-6.30587 0.37299,-7.20814 4.56948,-11.05393 7.6227,-6.9857 19.64653,-8.74381 31.6516,-4.62809 11.9145,4.08469 14.78571,14.18644 8.00128,28.15085 -1.55038,3.19115 -2.53378,6.08718 -2.18535,6.43562 0.34844,0.34843 2.84515,-0.51845 5.54825,-1.92641 10.08699,-5.254 19.89282,-0.32788 23.11317,11.61128 2.99787,11.11439 -1.79345,26.37988 -10.01989,31.92395 -9.1044,6.13578 -23.28939,1.70246 -30.78269,-9.62067 -3.71569,-5.61479 -6.77085,-6.60948 -6.77085,-2.20445 0,6.09245 4.03365,17.97646 7.62354,22.46058 2.06859,2.58388 3.41633,5.25575 2.995,5.9375 -0.92013,1.48878 -19.30885,1.63559 -21.6152,0.17257 z m 251.02941,-0.13633 c -1.55886,-0.98582 -1.40276,-1.63282 1.0148,-4.2062 3.26796,-3.47859 5.84376,-11.15852 7.09125,-21.14305 0.87623,-7.01307 -0.46511,-10.08284 -3.02039,-6.91241 -6.75936,8.38661 -9.94266,11.46219 -14.01276,13.5386 -8.29351,4.23104 -15.3034,3.00056 -22.01518,-3.8644 -7.93707,-8.11823 -9.88561,-21.13926 -4.79844,-32.06542 4.53477,-9.73972 11.76015,-12.59916 21.52577,-8.51882 7.01175,2.9297 8.45506,2.48097 5.38339,-1.67368 -3.47628,-4.70193 -4.98834,-11.83692 -3.58534,-16.9182 3.91369,-14.17421 31.4211,-18.24617 43.263,-6.40427 3.5342,3.5342 4.11941,4.9846 4.10894,10.18365 -0.007,3.82896 -1.16885,8.54718 -3.15166,12.80667 -1.7267,3.70929 -2.92997,6.95367 -2.67392,7.20971 0.25605,0.25605 2.93993,-0.65709 5.96416,-2.02921 6.67265,-3.02743 10.06563,-3.16098 15.03393,-0.59177 7.40431,3.82892 10.77075,18.59735 7.06139,30.97809 -0.84057,2.80556 -3.83789,7.51145 -6.66073,10.45752 -4.6402,4.84279 -5.70427,5.35649 -11.09527,5.35649 -3.27958,0 -7.85368,-0.89725 -10.16466,-1.99387 -4.21098,-1.99825 -13.44987,-11.07766 -14.51073,-14.26024 -0.34074,-1.02222 -1.41211,-1.37068 -2.69759,-0.8774 -1.7454,0.66977 -1.9811,1.78807 -1.29881,6.16238 1.2133,7.77871 3.8245,14.60784 7.35563,19.23739 1.70526,2.23572 3.10047,4.66497 3.10047,5.39834 0,1.66912 -18.6032,1.7832 -21.21725,0.1301 z M -718.92859,752.656 c -6.10446,-4.89874 -6.8982,-5.0223 -11.31755,-1.7618 -2.29248,1.69134 -5.4432,3.07516 -7.00161,3.07516 -4.45645,0 -7.93084,-4.67304 -7.93084,-10.66696 0,-6.02265 2.80597,-9.33304 7.91093,-9.33304 2.9695,0 3.33907,-0.47435 3.33907,-4.28571 0,-5.96423 2.71059,-8.21429 9.89555,-8.21429 7.76431,0 10.77112,2.92944 9.5713,9.32501 -0.79496,4.23748 -0.67704,4.42499 2.78277,4.42499 4.7338,0 7.75038,3.49999 7.75038,8.99235 0,9.32739 -8.16894,13.92612 -15,8.44429 z m -11.25,-51.5999 c 0,-0.32812 1.96875,-4.07965 4.375,-8.33674 2.40625,-4.25709 4.375,-8.50048 4.375,-9.42976 0,-1.14452 -2.02157,-1.81148 -6.2664,-2.06741 -9.64449,-0.58151 -8.10692,-2.82729 2.22198,-3.24546 7.25129,-0.29356 9.22912,0.0195 9.81797,1.554 0.98896,2.57718 -9.59792,21.17335 -12.35652,21.70461 -1.19187,0.22953 -2.16703,0.14887 -2.16703,-0.17924 z m 72.8125,-121.77419 c 83.01563,-0.17742 218.85938,-0.17742 301.875,0 83.01563,0.17742 15.09375,0.32258 -150.9375,0.32258 -166.03125,0 -233.95312,-0.14516 -150.9375,-0.32258 z"
         id="path3506"
         inkscape:connector-curvature="0" />
      <path
         style="fill:#2e2e2e"
         d="m -656.74109,1450.5319 c 82.67188,-0.1774 217.95313,-0.1774 300.625,0 82.67188,0.1774 15.03125,0.3226 -150.3125,0.3226 -165.34375,0 -232.98437,-0.1452 -150.3125,-0.3226 z m -161.56975,-435.3125 c 0,-233.40629 0.14388,-328.89066 0.31973,-212.18754 0.17585,116.70313 0.17585,307.67184 0,424.37504 -0.17585,116.7031 -0.31973,21.2187 -0.31973,-212.1875 z m 623.75,0 c 0,-233.40629 0.14388,-328.89066 0.31972,-212.18754 0.17585,116.70313 0.17585,307.67184 0,424.37504 -0.17584,116.7031 -0.31972,21.2187 -0.31972,-212.1875 z m -583.90936,390.1024 c -2.15413,-1.3135 -4.82601,-3.6866 -5.9375,-5.2735 -1.85049,-2.6419 -2.02089,-35.1003 -2.02089,-384.9385 l 0,-382.05329 2.61037,-3.31855 c 5.93514,-7.5453 -14.88122,-7.0186 277.38963,-7.0186 292.27085,0 271.4545,-0.5267 277.38963,7.0186 l 2.61037,3.31855 0,382.16289 0,382.1628 -2.61037,3.3186 c -5.93533,7.5455 14.90661,7.019 -277.64005,7.0139 -261.49144,0 -267.96791,-0.062 -271.79119,-2.3929 z m 546.06945,-4.8247 2.84716,-2.8472 0,-382.4305 0,-382.43059 -2.84722,-2.84723 -2.84723,-2.84722 -271.18055,0 -271.18055,0 -2.84723,2.84719 -2.84722,2.8472 -0.29742,380.90275 c -0.23733,303.9515 0.0202,381.5292 1.27464,384.0032 0.86463,1.7052 2.96721,3.8084 4.67242,4.6738 2.46873,1.2528 58.03647,1.5125 272.7532,1.2746 l 269.65282,-0.2987 2.84718,-2.8473 z m -412.11006,-33.2897 c -13.29471,-3.7237 -16.49113,-14.2644 -8.74402,-28.8347 3.85043,-7.2417 2.97759,-9.0688 -2.66597,-5.5809 -5.6347,3.4824 -14.53125,3.6988 -18.13115,0.4409 -4.80635,-4.3497 -6.60824,-9.4351 -6.60399,-18.6383 0.005,-10.0182 2.8728,-16.9612 9.20934,-22.2931 9.27941,-7.8081 21.76912,-4.1417 31.64691,9.29 2.64505,3.5967 4.408,4.8985 6.05171,4.4686 1.27567,-0.3336 2.31939,-0.097 2.31939,0.5265 0,0.6231 1.125,1.133 2.5,1.133 1.375,0 2.5,-0.5609 2.5,-1.2464 0,-1.997 8.86406,-11.2484 12.65649,-13.2096 4.93862,-2.5538 13.46755,-2.2426 18.23711,0.6656 4.18386,2.551 9.3902,11.3718 10.93883,18.533 1.28585,5.9462 -1.53238,16.0786 -5.8351,20.9792 -4.95264,5.6407 -9.80307,6.4076 -18.9297,2.9929 -8.12535,-3.0401 -10.00239,-2.5481 -6.11415,1.6027 5.49276,5.8636 6.82702,14.8309 3.13632,21.0787 -4.50265,7.6224 -19.96405,11.5113 -32.17202,8.0919 z m 249.42684,-0.5844 c -3.7292,-1.3294 -7.79481,-3.7359 -9.03469,-5.3478 -3.39247,-4.4105 -3.02786,-14.217 0.80983,-21.7815 2.9028,-5.7217 3.88984,-9.2743 2.57669,-9.2743 -0.30445,0 -2.41382,1.0797 -4.6875,2.3994 -7.26067,4.2144 -14.94451,3.8573 -19.71807,-0.9163 -10.4533,-10.4533 -5.16997,-36.6206 8.5614,-42.4029 8.4225,-3.5468 20.32942,1.8313 27.26803,12.3162 1.80349,2.7253 4.16565,4.8377 5.2633,4.7068 1.09527,-0.1306 3.07573,0.2288 4.40103,0.7986 1.83616,0.7895 2.87736,0.3269 4.375,-1.9437 6.51372,-9.8759 12.59297,-13.7081 21.74586,-13.7081 6.75366,0 12.00318,3.8057 16.16558,11.7197 5.8013,11.0299 2.27908,29.3287 -6.52127,33.8795 -4.92187,2.5452 -7.8031,2.399 -15.16862,-0.7695 -3.414,-1.4687 -6.55496,-2.3226 -6.97992,-1.8977 -0.42496,0.425 0.71715,2.9225 2.53804,5.55 3.90169,5.6301 4.56397,15.4224 1.35309,20.0066 -5.34604,7.6325 -21.22335,10.8443 -32.94778,6.665 z m 99.09851,-15.8018 c -0.40063,-1.0441 1.37932,-5.9659 3.95543,-10.9375 5.21471,-10.0639 6.4331,-11.7493 7.62887,-10.5536 0.45051,0.4505 -1.20898,4.6785 -3.68773,9.3956 -5.2129,9.9202 -4.68459,11.4937 3.85908,11.4937 3.3142,0 5.14612,0.4896 4.67622,1.25 -0.4249,0.6875 -4.132,1.25 -8.238,1.25 -5.52341,0 -7.65495,-0.4938 -8.19387,-1.8982 z m 0.97548,-43.4417 c -2.684,-1.2897 -2.88947,-1.9856 -2.2301,-7.5529 0.72527,-6.1238 0.72154,-6.1315 -2.65531,-5.486 -4.79428,0.9165 -7.55194,-0.9924 -8.46504,-5.8596 -0.92617,-4.9369 1.9197,-11.4426 5.50303,-12.5799 3.04836,-0.9675 7.68458,0.8439 10.68505,4.1748 2.40385,2.6686 8.24376,3.6784 8.24376,1.4256 0,-0.6699 1.76547,-2.1309 3.92326,-3.2467 7.23087,-3.7393 13.45585,2.429 11.73088,11.6239 -0.89152,4.7521 -3.68548,6.6203 -8.51921,5.6963 -3.41312,-0.6525 -3.45188,-0.5896 -2.66573,4.3268 0.68741,4.2988 0.39501,5.2709 -2.11386,7.0282 -3.32913,2.3318 -9.11668,2.5254 -13.43673,0.4495 z m -339.3618,-14.7959 c -1.21436,-4.4072 -3.92541,-10.1515 -6.04662,-12.8119 -4.60764,-5.7789 -3.57601,-7.013 5.86481,-7.0161 7.9951,0 11.875,1.0541 11.875,3.2345 0,0.9511 -0.42719,1.7293 -0.94931,1.7293 -1.82364,0 -4.22388,5.2844 -6.37489,14.0351 l -2.16765,8.8183 -2.20134,-7.9892 z m 251.10089,1.7455 c -0.96292,-5.1329 -4.88236,-13.5227 -7.94114,-16.9986 -1.73086,-1.9669 -1.75275,-2.4152 -0.16686,-3.4183 2.46053,-1.5564 12.73375,-1.4984 16.92589,0.095 l 3.38834,1.2882 -2.63972,2.8098 c -2.95416,3.1447 -6.47421,12.1549 -6.47421,16.5721 0,4.8242 -2.16772,4.5797 -3.0923,-0.3486 z m 93.47838,-21.4538 c -1.69569,-2.7178 -0.98927,-3.9059 2.32226,-3.9059 2.68417,0 2.8944,1.1985 0.72916,4.1572 -1.46077,1.996 -1.65944,1.9797 -3.05142,-0.2513 z m -351.43417,-211.4858 -2.92308,-1.1714 3.09337,-3.6763 c 1.70135,-2.0219 3.76899,-6.6623 4.59472,-10.3118 2.71975,-12.0206 2.76417,-12.0661 4.61798,-4.7371 0.95316,3.7683 3.4367,9.6113 5.51898,12.9845 2.93684,4.7575 3.41983,6.3652 2.15353,7.1683 -2.17779,1.3813 -13.3897,1.2128 -17.0555,-0.2562 z m 251.36059,0.5114 c -3.47245,-0.7475 -3.56981,-2.5893 -0.31979,-6.0488 1.371,-1.4593 3.52027,-6.8336 4.77615,-11.9427 l 2.28343,-9.2894 1.5394,6.1135 c 1.82977,7.2667 4.50317,12.8245 8.01778,16.6684 1.41188,1.5442 2.17799,3.1967 1.70248,3.6722 -1.05973,1.0597 -14.12885,1.6601 -17.99945,0.8268 z m -220.62754,-15.9505 c -6.35558,-2.2877 -12.62833,-7.2558 -15.95271,-12.6348 -1.73752,-2.8113 -3.55667,-4.3214 -4.92646,-4.0893 -1.19445,0.2023 -3.03784,-0.3509 -4.09641,-1.2294 -1.64175,-1.3626 -2.58403,-0.6796 -6.40994,4.6458 -10.79774,15.0296 -27.40221,15.0428 -35.78968,0.028 -6.23169,-11.1553 -2.90318,-29.5983 6.19043,-34.30083 4.84886,-2.50745 8.28595,-2.36262 14.87381,0.62669 2.99696,1.35994 5.95009,2.47254 6.5625,2.47254 2.00741,0 1.16995,-2.69702 -2.0115,-6.47795 -4.50175,-5.35003 -4.44922,-15.50648 0.10825,-20.92267 8.25123,-9.80602 32.78001,-9.59676 40.8015,0.34808 3.35224,4.15601 2.879,13.97982 -1.05361,21.87154 -1.7979,3.60792 -2.92864,6.9001 -2.51274,7.316 0.41589,0.4159 3.07193,-0.2881 5.90231,-1.5644 14.02114,-6.32265 23.9491,1.2157 24.01797,18.237 0.0195,4.8156 -0.94087,9.049 -3.14488,13.8632 -4.95524,10.8236 -13.24402,15.1631 -22.55879,11.8102 z m 249.69004,-0.064 c -4.49669,-1.6352 -15.66577,-11.6393 -16.97976,-15.2087 -0.28614,-0.7773 -2.77024,-1.7445 -5.52024,-2.1493 -4.74558,-0.6986 -5.19082,-0.4733 -8.75,4.4284 -5.32176,7.3292 -9.52242,10.0237 -16.70195,10.7136 -8.49229,0.816 -13.95731,-2.5822 -18.21794,-11.3281 -4.48597,-9.2085 -5.01132,-13.3198 -2.71248,-21.2275 1.40266,-4.825 3.3209,-8.0397 6.42221,-10.7626 5.31192,-4.66396 9.52796,-4.94476 18.20397,-1.21244 7.05683,3.03574 9.02919,2.37384 5.17772,-1.73772 -5.35939,-5.72127 -6.77247,-14.45258 -3.39577,-20.98239 5.73769,-11.09548 32.51219,-13.01925 41.90712,-3.01106 4.35266,4.63678 4.17287,14.15903 -0.43502,23.04053 -1.85631,3.57798 -3.04882,7.03338 -2.65001,7.67868 0.40151,0.6496 2.70145,-0.048 5.1537,-1.5638 2.6201,-1.6193 6.62963,-2.78451 9.81839,-2.85329 21.54132,-0.46462 19.14475,43.70219 -2.56994,47.36189 -2.0625,0.3476 -6,-0.1862 -8.75,-1.1862 z m -154.0625,-158.98536 c -3.47245,-0.74753 -3.56981,-2.58932 -0.31979,-6.04883 1.371,-1.45935 3.52027,-6.83359 4.77615,-11.94274 l 2.28343,-9.28937 1.5394,6.1135 c 1.82977,7.26671 4.50317,12.8245 8.01779,16.66844 1.41187,1.54416 2.17798,3.19662 1.70247,3.67213 -1.05972,1.05973 -14.12885,1.6601 -17.99945,0.82687 z m 29.0625,-16.01465 c -4.49669,-1.63519 -15.66577,-11.63932 -16.97976,-15.20873 -0.28614,-0.77726 -2.77024,-1.74443 -5.52024,-2.14926 -4.74557,-0.6986 -5.19082,-0.47325 -8.75,4.42843 -5.32176,7.32913 -9.52242,10.02367 -16.70195,10.71353 -8.49229,0.816 -13.95731,-2.5822 -18.21794,-11.32809 -4.48597,-9.20845 -5.01132,-13.31972 -2.71248,-21.22745 1.40266,-4.82498 3.3209,-8.03967 6.42221,-10.76266 5.31192,-4.66392 9.52796,-4.94472 18.20397,-1.2124 7.05683,3.03576 9.02919,2.3738 5.17772,-1.73772 -5.35939,-5.72127 -6.77247,-14.45258 -3.39577,-20.98239 5.73769,-11.09548 32.51219,-13.01925 41.90711,-3.01106 4.35267,4.63678 4.17288,14.15903 -0.43501,23.04053 -1.85631,3.57798 -3.04882,7.03338 -2.65001,7.67865 0.40151,0.64967 2.70145,-0.0482 5.1537,-1.56377 2.6201,-1.61931 6.62963,-2.78451 9.81839,-2.85329 21.54132,-0.46462 19.14475,43.70221 -2.56994,47.36189 -2.0625,0.3476 -6,-0.1862 -8.75,-1.18621 z m -241.875,-110.1241 c 0,-0.38895 0.60715,-1.84166 1.34922,-3.22823 1.29501,-2.41975 1.41612,-2.42956 3.01416,-0.2441 0.91571,1.25231 1.40036,2.70501 1.077,3.22821 -0.67631,1.0943 -5.44038,1.30807 -5.44038,0.24412 z m 86.5625,-5.17499 c -3.4487,-0.66425 -3.5442,-1.81819 -0.38695,-4.67546 2.64925,-2.39754 6.32445,-11.96626 6.32445,-16.46628 0,-1.55571 0.5625,-3.1762 1.25,-3.6011 0.6875,-0.4249 1.25,0.0847 1.25,1.13255 0,3.67061 4.03561,13.9054 7.07274,17.9373 1.68614,2.23843 2.72011,4.62905 2.29771,5.3125 -0.74891,1.21178 -12.18614,1.44329 -17.80795,0.36049 z m 250.625,0.0205 c -2.78311,-0.7273 -2.77469,-0.79044 0.84821,-6.35264 1.66965,-2.56339 3.73724,-8.30676 4.59466,-12.76305 l 1.55894,-8.10236 2.7626,9.04721 c 1.51943,4.97598 4.21971,10.9576 6.00064,13.29253 2.73107,3.58062 2.93314,4.3623 1.29051,4.99263 -2.18822,0.8397 -13.70016,0.76254 -17.05556,-0.11437 z m -325.3125,-1.57004 c -1.375,-0.56277 -3.57155,-2.21461 -4.88124,-3.67076 -2.40282,-2.67154 -8.24376,-3.68448 -8.24376,-1.42964 0,0.66985 -1.76547,2.13086 -3.92326,3.2467 -7.23086,3.73923 -13.45585,-2.429 -11.73088,-11.6239 0.89152,-4.75219 3.68548,-6.62035 8.51922,-5.69632 3.41311,0.65246 3.45187,0.58955 2.66572,-4.32678 -0.68741,-4.2988 -0.39502,-5.27095 2.11386,-7.02822 3.45296,-2.41855 8.46455,-2.61947 13.06418,-0.52374 3.11289,1.41834 3.27991,1.9087 2.60141,7.63757 -0.72389,6.11218 -0.71965,6.12092 2.65655,5.47552 4.79428,-0.91649 7.55194,0.99241 8.46504,5.85961 1.17145,6.24439 -3.29247,13.62629 -7.97157,13.18242 -0.4594,-0.0436 -1.96027,-0.53968 -3.33527,-1.10246 z m 103.65285,-14.34134 c -5.18107,-2.25602 -12.7296,-9.02435 -15.03357,-13.47976 -1.09527,-2.118 -2.7619,-3.52359 -3.99865,-3.37234 -1.16634,0.14265 -3.20972,-0.20871 -4.54083,-0.78078 -1.79506,-0.77148 -2.76369,-0.41877 -3.75,1.36551 -3.04465,5.50787 -11.54929,12.83486 -16.42022,14.14646 -20.27789,5.46028 -33.99814,-25.42944 -18.70644,-42.11558 3.44857,-3.76305 5.03515,-4.55865 9.09077,-4.55865 2.70219,0 7.26287,1.05961 10.13483,2.35468 2.87196,1.29507 5.54727,2.02916 5.94512,1.6313 0.39787,-0.39786 -0.73287,-2.86645 -2.51273,-5.48576 -2.44853,-3.60332 -3.23613,-6.33281 -3.23613,-11.21501 0,-8.33374 4.11296,-13.11433 13.74338,-15.97426 8.20068,-2.43534 10.03704,-2.4499 18.75662,-0.14871 13.67628,3.60933 17.22208,13.23152 10.44264,28.33811 -1.81905,4.05338 -2.97364,7.7035 -2.56575,8.11139 0.40788,0.40788 2.66572,-0.44755 5.0174,-1.90097 4.618,-2.85408 13.12095,-3.52517 17.17495,-1.35553 3.04711,1.63076 5.74842,6.83101 7.41771,14.27974 1.00818,4.49865 0.88545,7.42769 -0.53989,12.88591 -3.965,15.18363 -14.86017,22.30747 -26.41921,17.27425 z m 247.35491,-1.97385 c -3.86294,-2.21547 -8.07864,-6.02917 -10.40935,-9.41676 -3.01966,-4.38894 -4.46771,-5.51859 -6.32026,-4.93061 -1.3463,0.4273 -2.40315,0.17596 -2.40315,-0.5715 0,-3.07405 -3.86359,-0.95978 -7.50046,4.1045 -7.86539,10.95235 -20.64808,14.427 -29.16795,7.92858 -16.33709,-12.46091 -11.52482,-44.29593 6.62396,-43.82005 2.48734,0.0652 6.36515,1.07149 8.61735,2.23615 6.81221,3.52273 8.11986,2.1229 3.88512,-4.15902 -12.87718,-19.10241 10.27871,-35.79934 34.77169,-25.07271 9.59983,4.20422 11.44516,15.24707 4.56893,27.34147 -3.839,6.75231 -2.53296,8.77933 3.34697,5.19463 5.0464,-3.07654 13.16804,-3.37933 17.0834,-0.63691 4.62075,3.2365 6.95908,9.21755 7.05643,18.04912 0.13306,12.07168 -4.64334,21.85549 -12.48675,25.57744 -5.933,2.81539 -10.37605,2.35656 -17.66593,-1.82433 z m -364.13276,-37.38303 c 0,-0.62145 1.96866,-4.61282 4.37479,-8.8697 2.40613,-4.25689 4.06043,-8.24843 3.67623,-8.87009 -0.38421,-0.62166 -3.16342,-1.13029 -6.17602,-1.13029 -3.0126,0 -5.8251,-0.5625 -6.25,-1.25 -0.48693,-0.78786 2.46243,-1.25 7.97746,-1.25 4.8125,0 9.02656,0.44749 9.36458,0.99442 0.80811,1.30754 -10.26555,21.50558 -11.79052,21.50558 -0.64709,0 -1.17652,-0.50846 -1.17652,-1.12992 z m 72.1875,-121.05753 c 82.67188,-0.17745 217.95313,-0.17745 300.625,0 82.67188,0.17744 15.03125,0.32262 -150.3125,0.32262 -165.34375,0 -232.98437,-0.14518 -150.3125,-0.32262 z"
         id="path3504"
         inkscape:connector-curvature="0" />
      <path
         style="fill:#060606"
         d="m -656.11609,1450.5319 c 82.32813,-0.1775 217.04688,-0.1775 299.375,0 82.32813,0.1775 14.96875,0.3227 -149.6875,0.3227 -164.65625,0 -232.01562,-0.1452 -149.6875,-0.3227 z m -162.19477,-435.3125 c 0,-232.71879 0.14388,-327.92191 0.31975,-211.56254 0.17586,116.35938 0.17586,306.76564 0,423.12504 -0.17587,116.3593 -0.31975,21.1562 -0.31975,-211.5625 z m 623.74999,0 c 0,-232.71879 0.14389,-327.92191 0.31975,-211.56254 0.17587,116.35938 0.17587,306.76564 0,423.12504 -0.17586,116.3593 -0.31975,21.1562 -0.31975,-211.5625 z m -581.86772,390 c -1.21365,-0.7844 94.02009,-1.2118 270,-1.2118 175.97991,0 271.21365,0.4274 270,1.2118 -1.19566,0.7727 -99.02009,1.2117 -270,1.2117 -170.97991,0 -268.80434,-0.439 -270,-1.2117 z m -5.74377,-4.0625 -2.38123,-2.8125 2.8125,2.3812 c 2.64306,2.2378 3.38155,3.2438 2.38123,3.2438 -0.23719,0 -1.50282,-1.2657 -2.8125,-2.8125 z m 550.11877,0.3125 c 1.24436,-1.375 2.54373,-2.5 2.88748,-2.5 0.34375,0 -0.39312,1.125 -1.63748,2.5 -1.24436,1.375 -2.54372,2.5 -2.88747,2.5 -0.34375,0 0.39311,-1.125 1.63747,-2.5 z m -552.50802,-386.25 c 0,-210.71879 0.14422,-296.92191 0.32049,-191.56254 0.17627,105.35938 0.17627,277.76564 0,383.12504 -0.17627,105.3593 -0.32049,19.1562 -0.32049,-191.5625 z m 556.25,0 c 0,-210.71879 0.14422,-296.92191 0.32049,-191.56254 0.17627,105.35938 0.17627,277.76564 0,383.12504 -0.17627,105.3593 -0.32049,19.1562 -0.32049,-191.5625 z m -417.10035,350.5231 c -11.66818,-3.5904 -14.1,-12.7035 -7.11828,-26.6751 4.86329,-9.7323 3.7636,-11.4431 -4.52335,-7.0369 -7.58684,4.034 -11.9339,4.0297 -16.74252,-0.017 -9.14839,-7.6978 -8.18067,-28.4267 1.7777,-38.0787 3.94393,-3.8226 5.25392,-4.3409 10.97175,-4.3409 5.26379,0 7.558,0.7467 12.11807,3.9442 3.09375,2.1693 6.98868,6.1913 8.65538,8.9376 2.50651,4.1301 3.91111,5.1354 8.125,5.8152 4.06571,0.6558 5.34707,0.3897 6.34462,-1.318 5.68234,-9.7274 16.29534,-16.36 23.89641,-14.934 8.1012,1.5197 16.72859,14.119 16.72859,24.43 0,5.8088 -3.8553,14.8663 -7.70756,18.1078 -4.53954,3.8198 -9.64875,4.0033 -17.11644,0.6147 -2.99696,-1.3599 -6.23134,-2.4725 -7.1875,-2.4725 -2.33859,0 -2.20661,3.0553 0.21892,5.0684 3.37061,2.7973 5.54258,8.3416 5.54258,14.1483 0,4.5219 -0.70367,6.2946 -3.68018,9.2711 -6.19649,6.1965 -18.78292,8.0803 -30.30319,4.5353 z m 251.6329,0.5361 c -6.51754,-1.8744 -9.89192,-4.6161 -11.43474,-9.291 -1.69115,-5.1242 -0.747,-10.1151 3.58464,-18.9488 4.06186,-8.2835 2.57498,-10.9304 -3.65009,-6.4978 -2.83825,2.021 -5.87907,2.9051 -10.20294,2.9662 -5.20656,0.074 -6.61121,-0.4375 -9.07794,-3.3037 -8.95201,-10.4016 -5.65289,-32.5422 5.93261,-39.8141 8.294,-5.2059 21.19475,-0.3009 28.73415,10.925 2.65489,3.953 4.50838,5.3225 8.12079,6.0002 4.05478,0.7607 4.9295,0.4871 6.54086,-2.0461 6.84612,-10.7623 17.36885,-16.2915 25.74424,-13.5273 8.9912,2.9673 15.32989,15.5477 13.90323,27.5936 -1.77933,15.0235 -11.47663,20.9322 -24.2253,14.7606 -2.98114,-1.4431 -6.31652,-2.2799 -7.41192,-1.8596 -1.81728,0.6974 -1.81428,1.0092 0.0342,3.5614 1.11424,1.5384 2.91642,4.0414 4.00483,5.562 5.89697,8.239 1.98321,19.1485 -8.28055,23.0818 -6.15535,2.3588 -15.77181,2.7198 -22.31611,0.8376 z m 98.08928,-15.8751 c -0.3623,-0.5862 0.0417,-2.0238 0.89784,-3.1946 1.39894,-1.9131 1.58334,-1.8052 1.82095,1.0659 0.2545,3.075 -1.35509,4.3352 -2.71879,2.1287 z m 8.71655,-18.0506 c 0.46941,-1.2327 1.16836,-1.9265 1.55323,-1.5416 0.38486,0.3848 8e-4,1.3935 -0.85348,2.2414 -1.23452,1.2253 -1.3781,1.0817 -0.69975,-0.6998 z m -8.83148,-26.6882 c -1.23277,-1.2328 -1.77243,-3.1079 -1.34906,-4.6875 0.3881,-1.4481 1.07345,-3.9618 1.52299,-5.5861 0.78861,-2.8493 0.6358,-2.9225 -4.34362,-2.0812 -4.69658,0.7934 -5.28955,0.5897 -6.58965,-2.2637 -1.88355,-4.1339 -0.40145,-11.7015 2.60707,-13.3117 3.77448,-2.02 5.90908,-1.513 10.46242,2.4849 5.20182,4.5672 7.76818,4.7061 11.55045,0.625 5.63016,-6.0751 13.01552,-2.4215 13.01552,6.4388 0,5.6836 -2.92739,8.2038 -8.34815,7.1868 l -4.3524,-0.8165 0.85056,5.6719 c 0.73716,4.9158 0.51152,5.8533 -1.69255,7.0329 -3.77938,2.0227 -10.99251,1.6474 -13.33358,-0.6936 z m -337.94414,-14.9614 c -0.78856,-2.8275 -2.8391,-7.2119 -4.55674,-9.743 -1.71765,-2.5311 -3.123,-5.1395 -3.123,-5.7965 0,-1.2701 15.3274,-1.7004 16.56285,-0.4649 0.40123,0.4012 -0.40912,2.6593 -1.80079,5.018 -1.39166,2.3587 -3.23191,6.9523 -4.08943,10.208 l -1.55914,5.9195 -1.43375,-5.1411 z m 250.56914,0.3618 c -0.42864,-2.2849 -2.46,-6.8044 -4.51412,-10.0435 -2.05412,-3.239 -3.73476,-6.1508 -3.73476,-6.4707 0,-0.8573 14.46579,-0.7081 16.76165,0.1729 1.7208,0.6604 1.65279,1.1528 -0.54511,3.947 -1.38118,1.7559 -3.38484,6.1976 -4.45258,9.8705 -1.06775,3.6729 -2.12008,6.6781 -2.33855,6.6781 -0.21845,0 -0.74788,-1.8695 -1.17653,-4.1543 z m 93.62612,-19.5957 c -0.4249,-0.6875 0.1376,-1.25 1.25,-1.25 1.1124,0 1.6749,0.5625 1.25,1.25 -0.4249,0.6875 -0.9874,1.25 -1.25,1.25 -0.2626,0 -0.8251,-0.5625 -1.25,-1.25 z m -351.56946,-210.8302 c -1.14658,-0.4623 -0.88794,-1.4992 0.95985,-3.8483 1.39111,-1.7685 3.4244,-6.2945 4.51842,-10.0578 l 1.98912,-6.8423 2.07451,6.1279 c 1.14097,3.3704 3.32957,7.8905 4.86353,10.0448 1.53397,2.1542 2.78903,4.2518 2.78903,4.6613 0,0.8923 -14.95373,0.8178 -17.19446,-0.086 z m 251.22581,-0.01 c -1.19157,-0.4792 -0.91746,-1.735 1.08639,-4.9773 1.47401,-2.385 3.34353,-6.9373 4.1545,-10.1163 l 1.47446,-5.7798 2.76791,7.5912 c 1.52235,4.1752 3.60435,8.2855 4.62665,9.1339 3.98989,3.3113 2.15908,4.9906 -5.32876,4.8878 -3.95312,-0.054 -7.90465,-0.387 -8.78115,-0.7395 z m -223.80302,-16.8356 c -2.96817,-1.4692 -6.90567,-4.6187 -8.75,-6.9988 -1.84433,-2.3801 -4.19708,-5.3678 -5.22833,-6.6393 -1.03125,-1.2715 -3.94274,-2.6763 -6.46996,-3.122 -4.33433,-0.7642 -4.77354,-0.5273 -7.74338,4.1773 -8.32442,13.1867 -23.431,15.926 -31.80475,5.7672 -8.55674,-10.3808 -8.59938,-26.9514 -0.0912,-35.4595 4.65854,-4.6585 9.8142,-4.96603 18.75732,-1.1188 8.17182,3.5154 9.96883,1.8808 4.91857,-4.47413 -10.25825,-12.90832 -3.21987,-26.22977 14.71786,-27.85631 9.79837,-0.88847 20.64954,2.23916 23.64578,6.81543 3.22174,4.92067 2.65393,13.39275 -1.43398,21.39621 -4.70967,9.2208 -3.73602,11.0407 3.7712,7.0491 13.91994,-7.40133 23.32532,-0.6352 23.51805,16.9186 0.0705,6.4163 -0.59305,9.4836 -3.10953,14.375 -5.77291,11.2211 -14.21867,14.3569 -24.69758,9.17 z m 251.64667,0.3412 c -4.46325,-2.0327 -11.5584,-8.7615 -15,-14.2255 -0.6875,-1.0915 -3.60383,-2.3558 -6.48072,-2.8095 -4.87804,-0.7694 -5.35837,-0.5782 -7.12365,2.8354 -2.78943,5.3942 -10.02463,11.2344 -15.86662,12.8075 -4.51056,1.2146 -5.8278,1.0326 -10.92736,-1.5099 -13.49962,-6.7304 -16.74191,-28.5007 -5.86465,-39.3779 4.95719,-4.95723 10.62803,-5.46934 18.138,-1.638 2.69523,1.375 5.76656,2.5 6.8252,2.5 2.49514,0 2.47591,-2.98654 -0.0326,-5.06844 -3.3706,-2.79735 -5.54258,-8.34169 -5.54258,-14.14837 0,-4.49542 0.70634,-6.29725 3.60479,-9.19571 8.66722,-8.66722 29.3354,-8.83964 37.85921,-0.31583 4.94358,4.94357 4.82401,12.00145 -0.37969,22.41498 -4.77171,9.54907 -3.43582,11.54677 4.58004,6.84917 7.35708,-4.31152 12.37653,-3.99497 17.4735,1.102 5.10331,5.1033 6.68144,13.1932 4.55736,23.3622 -1.63193,7.8128 -4.2379,11.8916 -10.1825,15.9375 -4.97758,3.3877 -8.98391,3.5108 -15.63771,0.4804 z M -514.89724,885.63112 c -1.19158,-0.47917 -0.91746,-1.73496 1.08639,-4.97726 1.47401,-2.38501 3.34354,-6.93734 4.1545,-10.11627 l 1.47446,-5.77988 2.76791,7.59126 c 1.52235,4.1752 3.60435,8.28545 4.62665,9.13389 3.98989,3.3113 2.15908,4.99063 -5.32876,4.88781 -3.95312,-0.0543 -7.90465,-0.38707 -8.78115,-0.73955 z m 27.84365,-16.49383 c -4.46325,-2.03272 -11.5584,-8.76152 -15,-14.22547 -0.6875,-1.09148 -3.60383,-2.35578 -6.48072,-2.80955 -4.87804,-0.7694 -5.35837,-0.57821 -7.12365,2.83548 -2.78943,5.39415 -10.02463,11.23437 -15.86662,12.80746 -4.51056,1.21456 -5.8278,1.03255 -10.92736,-1.5099 -13.49962,-6.73042 -16.74191,-28.50069 -5.86465,-39.37795 4.95719,-4.95719 10.62803,-5.4693 18.138,-1.638 2.69522,1.375 5.76656,2.5 6.8252,2.5 2.49514,0 2.47591,-2.9865 -0.0326,-5.0684 -3.37059,-2.79735 -5.54257,-8.34169 -5.54257,-14.14837 0,-4.49542 0.70634,-6.29725 3.60479,-9.19571 8.66722,-8.66722 29.3354,-8.83964 37.85921,-0.31583 4.94358,4.94357 4.82401,12.00145 -0.37969,22.41499 -4.77171,9.54905 -3.43582,11.54678 4.58004,6.84917 7.35708,-4.31152 12.37653,-3.99497 17.4735,1.102 5.10331,5.10331 6.68144,13.19317 4.55736,23.36215 -1.63193,7.81284 -4.2379,11.89164 -10.1825,15.9375 -4.97758,3.38771 -8.98391,3.5108 -15.63771,0.48043 z m -238.7374,-110.18832 c 0.43183,-0.69871 1.30878,-0.94677 1.94877,-0.55122 1.73381,1.07154 1.41052,1.82161 -0.78514,1.82161 -1.07182,0 -1.59546,-0.57167 -1.16363,-1.27039 z m 84.3624,-5.45156 c 0,-0.94706 0.84116,-2.42004 1.86925,-3.27327 1.02809,-0.85324 2.49858,-3.87524 3.26776,-6.71557 0.76918,-2.84031 1.64823,-5.9986 1.95345,-7.0184 0.30599,-1.02237 1.88146,1.40965 3.51188,5.4212 1.62631,4.00147 3.8436,8.25514 4.9273,9.45262 1.0837,1.19747 1.97036,2.55481 1.97036,3.0163 0,0.46148 -3.9375,0.83907 -8.75,0.83907 -6.59878,0 -8.75,-0.42335 -8.75,-1.72195 z m 250.93715,0.99244 c -0.40122,-0.40124 0.40913,-2.65935 1.80079,-5.01804 1.39166,-2.3587 3.23877,-6.95229 4.10471,-10.20799 1.56261,-5.87511 1.58141,-5.89136 2.50979,-2.16946 0.51446,2.0625 2.55812,6.6946 4.54147,10.29356 1.98335,3.59897 3.60609,6.83334 3.60609,7.1875 0,0.89425 -15.66395,0.81331 -16.56285,-0.0856 z m -328.87117,-4.27049 c -5.20183,-4.56726 -7.76819,-4.70614 -11.55045,-0.625 -5.63017,6.07505 -13.01553,2.42148 -13.01553,-6.43885 0,-5.6836 2.92739,-8.20375 8.34815,-7.18681 l 4.3524,0.81651 -0.85056,-5.6719 c -0.73716,-4.91575 -0.51152,-5.85334 1.69255,-7.03293 6.72567,-3.59946 16.20413,-0.11825 14.66975,5.38783 -2.57463,9.23899 -2.80701,8.61361 2.8458,7.65858 4.68273,-0.79114 5.27801,-0.58609 6.57737,2.2657 1.88356,4.13396 0.40145,11.70156 -2.60708,13.31168 -3.77447,2.02004 -5.90907,1.51307 -10.4624,-2.48481 z m 105.30943,-12.4887 c -4.04732,-2.13917 -8.20159,-6.29059 -13.62541,-13.61607 -1.03125,-1.39283 -3.84976,-2.87639 -6.26337,-3.29682 -4.11498,-0.71678 -4.63924,-0.4085 -8.41508,4.94833 -6.64036,9.42076 -16.55135,13.81822 -24.09814,10.69225 -14.57282,-6.03626 -18.5266,-30.81773 -6.58907,-41.29901 4.98859,-4.38003 8.42204,-4.5956 16.67162,-1.04672 3.37943,1.45379 7.04837,2.29638 8.15318,1.87242 1.72337,-0.66132 1.55404,-1.31124 -1.19189,-4.57459 -3.99699,-4.75015 -6.36459,-12.39094 -5.23459,-16.89321 1.79098,-7.13581 12.1757,-13.04788 22.91899,-13.04788 6.15235,0 15.931,3.55665 19.12174,6.95489 4.30446,4.58436 4.04465,12.93625 -0.69375,22.30152 -4.37045,8.63805 -3.18331,11.23615 3.34136,7.31266 6.20361,-3.73042 10.4366,-4.35014 15.43846,-2.26023 11.55469,4.82786 11.92763,28.3982 0.62809,39.69772 -4.0744,4.0744 -5.51347,4.73565 -10.20299,4.68819 -3.00276,-0.0304 -7.48437,-1.12544 -9.95915,-2.43345 z m 250.35292,-0.18456 c -2.96817,-1.4692 -6.90567,-4.61865 -8.75,-6.99878 -1.84433,-2.38011 -4.19708,-5.3678 -5.22833,-6.63928 -1.03125,-1.27149 -3.84375,-2.63875 -6.25,-3.03837 -4.1461,-0.68857 -4.58261,-0.40581 -8.34307,5.40433 -6.97167,10.77165 -19.19193,14.26776 -27.87762,7.97552 -3.91912,-2.83915 -8.79096,-12.34341 -9.66412,-18.85332 -0.82037,-6.11626 2.43042,-16.34445 6.37138,-20.0468 4.35029,-4.08687 10.56618,-4.63763 17.04002,-1.50981 9.66501,4.66963 12.96441,2.7635 6.64105,-3.83667 -2.52058,-2.63091 -3.46668,-5.09773 -3.88367,-10.12615 -0.48246,-5.81778 -0.13463,-7.14307 2.78544,-10.61339 4.56374,-5.42369 14.23051,-8.41943 23.45085,-7.26742 17.69106,2.21035 22.55818,11.47314 14.72684,28.02717 -4.89811,10.35374 -3.60761,12.94044 3.74422,7.505 5.20268,-3.84651 13.81768,-3.86225 17.89478,-0.0327 6.51737,6.12167 7.54809,20.87337 2.22652,31.86626 -5.01567,10.36103 -14.31078,13.41816 -24.8843,8.1844 z m -363.97833,-38.50297 c 0,-0.64693 0.55606,-1.51989 1.23568,-1.93992 0.70858,-0.43792 0.91814,0.0638 0.49127,1.17623 -0.83099,2.16552 -1.72695,2.56173 -1.72695,0.76369 z m 6.05108,-11.01127 c 1.29354,-2.57812 2.11903,-5.33908 1.83442,-6.13545 -0.63923,-1.78867 1.67651,-3.397 2.64195,-1.83489 0.65585,1.06119 -5.10199,12.65784 -6.28472,12.65784 -0.29895,0 0.51481,-2.10937 1.80835,-4.6875 z m -60.42608,-59.0625 c 1.24436,-1.375 2.54372,-2.5 2.88747,-2.5 0.34375,0 -0.39311,1.125 -1.63747,2.5 -1.24436,1.375 -2.54372,2.5 -2.88747,2.5 -0.34375,0 0.39311,-1.125 1.63747,-2.5 z m 549.88124,-0.3125 -2.38124,-2.8125 2.8125,2.38124 c 1.54688,1.30967 2.8125,2.5753 2.8125,2.8125 0,1.00031 -1.00599,0.26182 -3.24376,-2.38124 z m -544.25624,-3.4375 c 2.56667,-1.65871 537.43332,-1.65871 540,0 1.21365,0.78432 -94.02009,1.21172 -270,1.21172 -175.97991,0 -271.21365,-0.4274 -270,-1.21172 z m 120.3125,-45.93745 c 82.32813,-0.17747 217.04688,-0.17747 299.375,0 82.32813,0.17746 14.96875,0.32267 -149.6875,0.32267 -164.65625,0 -232.01562,-0.14521 -149.6875,-0.32267 z"
         id="path3502"
         inkscape:connector-curvature="0" />
    </g>
  </g>
</svg>
