<?xml version="1.0" encoding="UTF-8" standalone="no"?>
<!-- Created with Inkscape (http://www.inkscape.org/) -->

<svg
   xmlns:dc="http://purl.org/dc/elements/1.1/"
   xmlns:cc="http://creativecommons.org/ns#"
   xmlns:rdf="http://www.w3.org/1999/02/22-rdf-syntax-ns#"
   xmlns:svg="http://www.w3.org/2000/svg"
   xmlns="http://www.w3.org/2000/svg"
   xmlns:sodipodi="http://sodipodi.sourceforge.net/DTD/sodipodi-0.dtd"
   xmlns:inkscape="http://www.inkscape.org/namespaces/inkscape"
   width="176.45389mm"
   height="246.30457mm"
   viewBox="0 0 625.23031 872.73271"
   id="svg2"
   version="1.1"
   inkscape:version="0.91 r13725"
   sodipodi:docname="As.svg">
  <defs
     id="defs4" />
  <sodipodi:namedview
     id="base"
     pagecolor="#ffffff"
     bordercolor="#666666"
     borderopacity="1.0"
     inkscape:pageopacity="0.0"
     inkscape:pageshadow="2"
     inkscape:zoom="0.35"
     inkscape:cx="494.97831"
     inkscape:cy="186.77277"
     inkscape:document-units="px"
     inkscape:current-layer="layer1"
     showgrid="false"
     fit-margin-top="0"
     fit-margin-left="0"
     fit-margin-right="0"
     fit-margin-bottom="0"
     inkscape:window-width="784"
     inkscape:window-height="822"
     inkscape:window-x="800"
     inkscape:window-y="0"
     inkscape:window-maximized="0" />
  <metadata
     id="metadata7">
    <rdf:RDF>
      <cc:Work
         rdf:about="">
        <dc:format>image/svg+xml</dc:format>
        <dc:type
           rdf:resource="http://purl.org/dc/dcmitype/StillImage" />
        <dc:title></dc:title>
      </cc:Work>
    </rdf:RDF>
  </metadata>
  <g
     inkscape:label="Calque 1"
     inkscape:groupmode="layer"
     id="layer1"
     transform="translate(461.4069,153.59759)">
    <g
       style="display:inline"
       id="g3482"
       transform="translate(1056.9211,-738.17022)">
      <path
         style="fill:#fdfdfd"
         d="m -1518.2144,1020.9336 0,-436.24995 312.5,0 312.5,0 0,436.24995 0,436.2501 -312.5,0 -312.5,0 0,-436.2501 z"
         id="path3498"
         inkscape:connector-curvature="0" />
      <path
         style="fill:#e6e6e6"
         d="m -1512.0892,1455.6254 c -1.8959,-0.7539 -3.8487,-2.9487 -4.6875,-5.2683 -2.0668,-5.7156 -2.07,-853.1223 0,-858.83778 0.9685,-2.67839 2.7229,-4.43273 5.4013,-5.40125 5.6984,-2.06059 605.63016,-2.06059 611.32863,0 2.67838,0.96852 4.43273,2.72286 5.40125,5.40125 2.06378,5.70731 2.06378,853.12138 0,858.82868 -0.96852,2.6784 -2.72287,4.4327 -5.40125,5.4012 -5.34155,1.9316 -607.17663,1.8098 -612.03913,-0.1239 z m 611.47095,-5.8456 3.65385,-3.6538 0,-425.1924 0,-425.19226 -3.65385,-3.65384 -3.65384,-3.65385 -301.44231,0 -301.4423,0 -3.6539,3.65385 -3.6538,3.65384 0,425.19226 0,425.1924 3.6538,3.6538 3.6539,3.6539 301.4423,0 301.44231,0 3.65384,-3.6539 z m -576.96835,-34.5607 c -2.061,-1.0772 -4.7904,-2.9027 -6.0655,-4.0565 -6.1617,-5.5763 -5.8123,17.881 -5.8123,-390.229 0,-336.43547 0.2208,-381.80105 1.8737,-384.99741 1.0305,-1.99282 3.9399,-5.19926 6.4652,-7.12542 l 4.5915,-3.50212 270.8196,0 270.8196,0 4.59151,3.50212 c 2.52534,1.92616 5.43468,5.1326 6.4652,7.12542 1.6529,3.19636 1.87369,48.56194 1.87369,384.99741 0,336.4356 -0.22079,381.8012 -1.87369,384.9975 -1.03052,1.9928 -3.93982,5.1993 -6.46512,7.1254 l -4.59143,3.5022 -269.47236,0.3095 c -242.6017,0.2786 -269.8461,0.1142 -273.2196,-1.6491 z m 543.1222,-11.7854 c 2.48904,-2.4891 2.5,-4.1667 2.5,-382.5001 0,-378.33328 -0.0113,-380.01092 -2.5,-382.49995 -2.4845,-2.4845 -4.16666,-2.5 -271.25,-2.5 -267.0833,0 -268.7655,0.0155 -271.25,2.5 -2.489,2.48903 -2.5,4.16667 -2.5,382.49995 0,378.3334 0.011,380.011 2.5,382.5001 2.4845,2.4845 4.1667,2.5 271.25,2.5 267.08334,0 268.7655,-0.015 271.25,-2.5 z m -57.86893,-43.3713 c -0.32911,-0.552 -2.9434,-6.5333 -5.80955,-13.2916 -4.21702,-9.9436 -4.92012,-12.6384 -3.68582,-14.1257 2.20895,-2.6616 7.75346,-1.624 9.22321,1.7261 0.94394,2.1515 2.26961,2.8125 5.64109,2.8125 3.37147,0 4.69715,-0.661 5.64109,-2.8125 1.4704,-3.3516 7.01461,-4.3873 9.22543,-1.7234 1.23808,1.4918 0.48597,4.287 -3.96903,14.7507 l -5.49658,12.9102 -5.08572,0.3787 c -2.79715,0.2083 -5.355,-0.073 -5.68412,-0.625 z m -3.02501,-43.4087 c -3.77346,-1.702 -4.59219,-3.163 -5.62646,-10.0402 -0.2136,-1.4205 -1.6746,-2.7452 -3.4862,-3.1611 -1.8928,-0.4344 -3.9946,-2.421 -5.3478,-5.0548 -5.3135,-10.3413 3.5534,-23.7378 13.2673,-20.0446 3.21147,1.221 3.3338,1.1277 2.56066,-1.9527 -0.5353,-2.1328 -0.22191,-3.6087 0.91975,-4.3317 2.60099,-1.6472 9.07863,-1.3545 11.65104,0.5265 1.85581,1.357 2.01412,2.1437 0.86391,4.2928 -2.02215,3.7785 -1.79266,4.13 1.80349,2.7628 9.39709,-3.5728 17.87275,7.2968 14.24975,18.2746 -1.05899,3.2088 -2.65364,4.9885 -5.55653,6.2014 -2.93607,1.2268 -4.28021,2.7457 -4.82053,5.4473 -1.38708,6.9353 -12.3758,10.7343 -20.47838,7.0797 z m -222.54356,-247.1185 c -5.1503,-1.4871 -5.3077,-4.664 -0.4706,-9.5011 2.3401,-2.3402 4.0826,-5.8801 5,-10.1577 2.1296,-9.9299 1.8146,-10.7427 -2.3328,-6.0191 -5.4106,6.1623 -15.0884,10.0358 -22.3524,8.9465 -7.6709,-1.1504 -14.9867,-8.4321 -18.833,-18.7451 -3.291,-8.8246 -2.9642,-13.692 1.5869,-23.6329 4.1777,-9.1253 9.0688,-12.30796 17.9126,-11.65588 6.3521,0.46837 6.4313,0.43088 5.3125,-2.51178 -3.484,-9.16383 0.5321,-18.67777 10.1627,-24.07449 4.7442,-2.65855 7.1625,-3.12154 16.2016,-3.10181 13.9143,0.0304 21.1319,3.2364 24.9249,11.0716 3.0294,6.25795 3.0786,7.04423 0.954,15.23481 l -1.621,6.24945 6.984,-0.039 c 4.721,-0.027 8.1194,0.7034 10.488,2.2534 8.6702,5.6736 11.4143,24.3646 5.4799,37.3269 -7.9589,17.3846 -24.8761,19.4661 -40.1102,4.9351 l -4.7754,-4.5549 0.8793,3.75 c 1.468,6.2612 3.75,11.0512 7.2321,15.1804 4.1692,4.9441 4.2011,7.6693 0.108,9.2255 -3.9613,1.5061 -17.2572,1.4011 -22.7312,-0.1794 z m -212.1069,-300.26301 c -1.8558,-1.35699 -2.0141,-2.14364 -0.8639,-4.29282 2.0222,-3.77843 1.7927,-4.13 -1.8034,-2.76273 -13.429,5.10566 -21.8021,-18.9988 -8.5264,-24.54573 2.5466,-1.06406 4.2381,-2.65089 4.2381,-3.9759 0,-6.05836 8.8685,-11.22087 16.7393,-9.74429 6.0123,1.12792 8.4919,3.48404 9.3733,8.90664 0.6223,3.82866 1.4401,4.99429 3.8999,5.5589 1.8866,0.43303 3.9906,2.42345 5.3419,5.0534 5.3135,10.34139 -3.5534,23.73784 -13.2673,20.04463 -3.2115,-1.221 -3.3338,-1.12773 -2.5607,1.95272 0.5353,2.13276 0.222,3.60864 -0.9197,4.33166 -2.601,1.64723 -9.0786,1.35452 -11.6511,-0.52648 z m -9.1431,-59.16639 c -2.5684,-1.03638 -1.7275,-4.19246 4.4419,-16.67215 5.7445,-11.6199 5.9646,-11.875 10.2456,-11.875 4.281,0 4.5011,0.2551 10.2456,11.875 3.2288,6.53125 5.9006,12.82147 5.9375,13.97826 0.1437,4.51659 -9.1335,4.26033 -10.5784,-0.2922 -0.5937,-1.87071 -1.914,-2.43606 -5.6889,-2.43606 -2.7037,0 -4.9158,0.52232 -4.9158,1.16071 0,3.47638 -5.5656,5.92464 -9.6875,4.26144 z"
         id="path3496"
         inkscape:connector-curvature="0" />
      <path
         style="fill:#d9d9d9"
         d="m -1511.8268,1455.4393 c -6.7121,-3.7203 -6.2956,24.7836 -6.3433,-434.1343 -0.034,-328.08828 0.3003,-427.26001 1.4491,-429.78128 3.3332,-7.31567 -18.2831,-6.84007 310.8857,-6.84007 231.87039,0 303.26856,0.34869 305.78082,1.49336 7.3554,3.35134 6.84008,-29.40324 6.84008,434.75659 0,464.1599 0.51532,431.4053 -6.84008,434.7567 -5.07455,2.3121 -607.59392,2.0649 -611.77232,-0.251 z m 604.2374,-0.7556 c -0.4249,-0.6875 0.41123,-1.25 1.85805,-1.25 3.39411,0 8.76695,-5.3729 8.76695,-8.767 0,-1.4468 0.5625,-2.2829 1.25,-1.858 0.83239,0.5144 1.25,-140.4283 1.25,-421.8751 0,-281.44668 -0.41761,-422.3894 -1.25,-421.87495 -0.6875,0.4249 -1.25,-0.41122 -1.25,-1.85805 0,-3.39411 -5.37284,-8.76695 -8.76695,-8.76695 -1.44682,0 -2.28295,-0.5625 -1.85805,-1.25 0.5142,-0.832 -99.1783,-1.25 -298.125,-1.25 -198.9467,0 -298.6392,0.418 -298.125,1.25 0.4249,0.6875 -0.4112,1.25 -1.858,1.25 -3.3942,0 -8.767,5.37284 -8.767,8.76695 0,1.44683 -0.5625,2.28295 -1.25,1.85805 -0.8324,-0.51445 -1.25,140.42827 -1.25,421.87495 0,281.4468 0.4176,422.3895 1.25,421.8751 0.6875,-0.4249 1.25,0.4112 1.25,1.858 0,3.3941 5.3728,8.767 8.767,8.767 1.4468,0 2.2829,0.5625 1.858,1.25 -0.5142,0.832 99.1783,1.25 298.125,1.25 198.9467,0 298.6392,-0.418 298.125,-1.25 z m -571.9997,-41.4172 c -2.4749,-1.4353 -5.428,-4.181 -6.5625,-6.1016 -1.905,-3.2248 -2.0628,-32.779 -2.0628,-386.2313 0,-354.35783 0.1539,-382.99969 2.0749,-386.25177 1.1412,-1.9319 4.1709,-4.69056 6.7327,-6.13036 l 4.6578,-2.61782 269.0346,0 269.03461,0 4.65779,2.61782 c 2.56177,1.4398 5.59149,4.19846 6.73269,6.13036 1.92105,3.25208 2.07491,31.89394 2.07491,386.25177 0,354.3579 -0.15386,382.9998 -2.07491,386.2519 -1.1412,1.9319 -4.17092,4.6905 -6.73269,6.1303 l -4.65779,2.6179 -269.20481,-0.029 -269.2048,-0.029 -4.4997,-2.6097 z m 545.85052,-9.1343 c 2.67352,-3.6563 2.67345,-762.74089 -6e-5,-766.39714 -1.74682,-2.38893 -5.94846,-2.42641 -271.97576,-2.42641 -266.0273,0 -270.2289,0.0375 -271.9758,2.42641 -1.5231,2.08299 -1.7742,56.31862 -1.7742,383.19854 0,302.7133 0.3203,381.184 1.5625,382.7807 0.8594,1.1046 2.6875,2.2745 4.0625,2.5996 1.375,0.3252 123.061,0.5133 270.4133,0.418 263.65852,-0.1705 267.94151,-0.2118 269.68752,-2.5997 z m -57.86286,-44.761 c -1.9199,-2.5143 -10.36296,-23.0593 -10.36296,-25.2168 0,-3.3571 6.86481,-2.5014 9.26005,1.1543 1.41917,2.1659 3.18077,3.125 5.73995,3.125 2.55917,0 4.32077,-0.9591 5.73995,-3.125 2.39524,-3.6557 9.26005,-4.5114 9.26005,-1.1543 0,2.1575 -8.44306,22.7025 -10.36296,25.2168 -0.65624,0.8593 -2.7429,1.5625 -4.63704,1.5625 -1.89414,0 -3.9808,-0.7032 -4.63704,-1.5625 z m -6.17577,-45.3867 c -2.38069,-2.3807 -3.06109,-4.1397 -2.65969,-6.875 0.4331,-2.951 0.078,-3.6758 -1.8008,-3.6758 -4.1104,0 -8.4772,-5.6083 -8.472,-10.8807 0.01,-9.8308 7.3648,-16.1322 15.32341,-13.1281 3.21499,1.2135 3.53605,1.1268 2.76569,-0.7467 -2.04677,-4.9778 -1.37962,-5.8592 4.73145,-6.2511 4.57495,-0.2933 6.13012,0.087 6.72848,1.6466 0.42802,1.1154 0.14103,2.6652 -0.63775,3.444 -0.77879,0.7788 -1.41598,2.167 -1.41598,3.0849 0,1.2627 0.58854,1.354 2.41783,0.375 4.3124,-2.3079 8.85631,-1.4621 12.67832,2.3599 4.93055,4.9305 5.21005,13.6536 0.58566,18.278 -1.6875,1.6875 -4.21875,3.0682 -5.625,3.0682 -1.99348,0 -2.55681,0.8062 -2.55681,3.6592 0,8.5071 -15.28806,12.4163 -22.06281,5.6416 z m -221.37469,-245.5898 c -3.4795,-1.3986 -3.6386,-4.431 -0.3254,-6.2041 1.3678,-0.7321 3.2842,-2.8726 4.2585,-4.7567 1.8805,-3.6365 4.8717,-17.7997 3.9531,-18.7182 -0.2995,-0.2995 -2.3541,1.5164 -4.5658,4.0353 -13.2594,15.1017 -31.6934,11.7516 -39.8025,-7.2335 -3.6271,-8.4916 -3.3525,-16.3756 0.8571,-24.6084 4.655,-9.1039 8.7344,-11.8925 17.1071,-11.69395 l 6.5993,0.15651 -0.5994,-8.37691 c -0.573,-8.00796 -0.4249,-8.57558 3.3613,-12.88786 5.8101,-6.6173 12.7785,-8.85829 25.4731,-8.19199 11.7697,0.61775 18.3073,3.60235 21.5264,9.82735 2.3698,4.58274 2.3566,12.54651 -0.03,18.2592 -1.0312,2.46815 -1.875,4.58605 -1.875,4.70655 0,0.1205 3.6476,-0.013 8.1057,-0.297 7.8466,-0.4996 8.2419,-0.3798 12.3711,3.7494 7.2616,7.2616 9.0847,20.4198 4.5196,32.621 -7.1656,19.1517 -25.982,21.9416 -40.3941,5.9892 -4.2504,-4.7046 -4.6023,-4.8669 -4.6023,-2.1227 0,4.8491 3.5809,13.5763 7.6548,18.6559 5.5467,6.916 3.7578,8.4017 -9.9954,8.3006 -5.9314,-0.044 -12.05,-0.5879 -13.5969,-1.2097 z m -211.1162,-300.60106 c -0.4281,-1.11542 -0.1411,-2.66523 0.6377,-3.44402 0.7788,-0.77878 1.416,-2.16701 1.416,-3.08495 0,-1.26272 -0.5885,-1.35401 -2.4178,-0.375 -4.3124,2.30793 -8.8563,1.46215 -12.6784,-2.35987 -4.9305,-4.93054 -5.21,-13.65359 -0.5856,-18.27796 1.6875,-1.6875 4.2187,-3.06819 5.625,-3.06819 1.9935,0 2.5568,-0.80623 2.5568,-3.65928 0,-8.50707 15.2881,-12.4163 22.0628,-5.64155 2.3806,2.38064 3.0611,4.13965 2.6597,6.875 -0.4331,2.951 -0.078,3.67583 1.8008,3.67583 4.1104,0 8.4772,5.60829 8.472,10.88069 -0.01,9.83071 -7.3648,16.13212 -15.3234,13.12808 -3.215,-1.21352 -3.5361,-1.12685 -2.7657,0.74667 2.0468,4.97782 1.3796,5.85925 -4.7315,6.25107 -4.5749,0.29333 -6.1301,-0.0873 -6.7284,-1.64652 z m -9.2151,-60.29749 c -0.035,-4.11441 10.2691,-25.22346 12.6875,-25.99105 4.7832,-1.51813 6.9683,0.68322 12.1814,12.27173 6.2588,13.91328 6.4522,15.90682 1.5437,15.90682 -2.4673,0 -4.253,-0.98695 -5.6539,-3.125 -1.4191,-2.16593 -3.1807,-3.125 -5.7399,-3.125 -2.5592,0 -4.3208,0.95907 -5.7399,3.125 -2.4989,3.8137 -9.2483,4.49564 -9.2789,0.9375 z"
         id="path3494"
         inkscape:connector-curvature="0" />
      <path
         style="fill:#a7a7a7"
         d="m -1511.0112,1455.2269 c -7.802,-4.2333 -7.2032,31.869 -7.2032,-434.2933 0,-377.55163 0.2122,-425.53442 1.8962,-428.79087 4.1664,-8.05695 -20.7295,-7.45908 310.6038,-7.45908 331.33326,0 306.43743,-0.59787 310.60384,7.45908 1.68397,3.25645 1.89616,51.23924 1.89616,428.79087 0,377.5517 -0.21219,425.5345 -1.89616,428.791 -4.16719,8.0584 20.77151,7.464 -310.85424,7.409 -264.3514,-0.044 -302.0474,-0.2795 -305.0464,-1.9067 z m 608.22262,-1.325 c 2.49494,-1.1898 5.10267,-3.7975 6.29242,-6.2924 1.86327,-3.9073 2.03176,-39.2914 2.03176,-426.6759 0,-387.38441 -0.16849,-422.76847 -2.03176,-426.67578 -4.31982,-9.05876 22.96789,-8.32417 -309.21824,-8.32417 -332.1861,0 -304.8984,-0.73459 -309.2182,8.32417 -1.8633,3.90731 -2.0318,39.29137 -2.0318,426.67578 0,387.6058 0.1676,422.7668 2.0344,426.6813 4.2276,8.8655 -22.5868,8.1502 308.8607,8.2388 273.57149,0.073 299.38269,-0.093 303.28072,-1.9518 z m -575.47342,-40.7807 c -3.6299,-1.8305 -6.3406,-4.3402 -7.763,-7.1875 -2.0663,-4.1365 -2.1856,-25.1336 -2.1875,-385.0196 0,-368.3661 0.073,-380.78394 2.3173,-384.9688 1.3677,-2.55032 4.5252,-5.49092 7.6966,-7.16799 l 5.3774,-2.84366 267.1068,0 267.10679,0 5.37743,2.84366 c 3.17139,1.67707 6.32885,4.61767 7.6966,7.16799 2.24437,4.18486 2.31912,16.6027 2.31724,384.9688 -0.001,359.886 -0.12112,380.8831 -2.1875,385.0196 -1.4224,2.8473 -4.13307,5.357 -7.76292,7.1875 l -5.57737,2.8125 -266.97027,0 -266.9703,0 -5.5773,-2.8125 z m 544.65454,-8.6554 2.89306,-2.7179 0,-380.6391 0,-380.63902 -2.71789,-2.89307 -2.7179,-2.89306 -269.38901,0 -269.3891,0 -2.893,2.71789 -2.8931,2.71789 0,380.63907 0,380.639 2.7179,2.8931 2.7179,2.8931 269.389,0 269.38907,0 2.89307,-2.7179 z m -61.63343,-54.4028 c -5.69371,-12.4941 -6.47331,-16.3241 -3.55104,-17.4455 1.56023,-0.5987 3.02379,0.1442 4.88685,2.4807 1.95114,2.447 3.79997,3.3355 6.94068,3.3355 3.14071,0 4.98954,-0.8885 6.94067,-3.3355 1.86307,-2.3365 3.32663,-3.0794 4.88685,-2.4807 2.92232,1.1214 2.1427,4.9514 -3.55103,17.4455 -4.09947,8.9957 -4.63709,9.6207 -8.27649,9.6207 -3.6394,0 -4.17703,-0.625 -8.27649,-9.6207 z m 9.52649,-2.8793 c 0,-0.6875 -0.5625,-1.25 -1.25,-1.25 -0.6875,0 -1.25,0.5625 -1.25,1.25 0,0.6875 0.5625,1.25 1.25,1.25 0.6875,0 1.25,-0.5625 1.25,-1.25 z m -8.75,-32.1277 c -3.82633,-1.9655 -4.4232,-2.9136 -4.75938,-7.5598 -0.33207,-4.5898 -0.7734,-5.3125 -3.24372,-5.3125 -6.4259,0 -9.816,-9.009 -6.1084,-16.2327 3.1416,-6.121 7.117,-7.862 12.66196,-5.5451 5.23995,2.1893 6.16971,1.5512 3.90503,-2.6804 -1.46957,-2.7459 -1.45493,-3.3689 0.10225,-4.354 2.32247,-1.4692 6.30607,-1.473 8.62116,-0.01 1.47109,0.9307 1.52875,1.7453 0.3125,4.4146 -2.67176,5.8639 -1.99205,6.8915 2.90655,4.394 5.17995,-2.6409 8.07311,-2.1357 12.05724,2.1052 5.87807,6.2574 2.66339,19.1571 -4.77393,19.1571 -2.27551,0 -2.93126,0.6835 -2.93126,3.0553 0,7.9845 -10.52344,12.7927 -18.75,8.567 z m -222.1875,-246.7708 c -4.8515,-1.4008 -5.0929,-2.985 -1.0288,-6.7514 3.4391,-3.1873 6.9663,-13.719 6.9663,-20.8005 l 0,-4.7465 -6.5625,6.7363 c -10.7421,11.0268 -21.876,12.0798 -31.0217,2.934 -18.4228,-18.4228 -5.3111,-53.1906 16.8778,-44.7544 3.7882,1.4403 3.7409,1.6155 1.2027,-4.45919 -4.5265,-10.83342 1.4847,-21.3356 14.3531,-25.07656 12.2428,-3.55906 28.5179,0.25509 33.4939,7.84945 2.6811,4.09195 2.6413,13.1966 -0.086,19.72167 -1.1218,2.68373 -1.8601,5.05903 -1.6405,5.27863 0.2196,0.2195 2.5549,-0.196 5.1897,-0.9235 6.4717,-1.787 12.0898,-0.5268 16.0204,3.5935 4.4962,4.7131 5.9235,9.1268 5.9235,18.3168 0,9.1253 -1.6131,14.6966 -5.9424,20.5241 -9.3764,12.621 -23.0791,11.6968 -35.8403,-2.4174 l -6.1043,-6.7515 0.8317,6.25 c 0.9313,6.9985 6.4026,19.2029 9.0671,20.2254 2.8142,1.0799 1.9939,4.1142 -1.4682,5.4305 -3.9408,1.4983 -14.7527,1.4024 -20.2311,-0.1794 z m -211.4914,-299.78118 c -1.4711,-0.93075 -1.5288,-1.74531 -0.3125,-4.41467 2.6717,-5.86389 1.992,-6.89144 -2.9066,-4.39399 -5.1799,2.64089 -8.0731,2.13575 -12.0572,-2.10515 -5.8781,-6.2569 -2.6634,-19.15656 4.7739,-19.15656 2.2756,0 2.9313,-0.6835 2.9313,-3.0553 0,-1.68041 1.3575,-4.63354 3.0168,-6.5625 2.4515,-2.85006 4.0427,-3.5072 8.4924,-3.5072 8.1086,0 12.2408,3.17452 12.2408,9.40381 0,4.38165 0.3476,4.97119 2.9313,4.97119 6.4936,0 9.9084,8.96885 6.1802,16.23261 -3.1416,6.12101 -7.117,7.86201 -12.662,5.54518 -5.2399,-2.18939 -6.1697,-1.55122 -3.905,2.68038 1.4696,2.74589 1.4549,3.36892 -0.1023,4.35398 -2.3224,1.46917 -6.306,1.47297 -8.6211,0.009 z m -9.8476,-60.42603 c -0.9806,-1.1816 0.068,-4.73052 3.9685,-13.4375 4.9769,-11.10818 5.5472,-11.85589 9.3247,-12.22504 3.9304,-0.38409 4.1377,-0.14501 8.9511,10.32307 5.9934,13.0344 6.2704,14.35632 3.3856,16.15433 -1.8888,1.17722 -2.7392,0.83656 -5.0469,-2.0217 -3.7848,-4.6877 -10.8452,-4.84739 -13.8166,-0.3125 -2.2524,3.43771 -4.7153,3.99072 -6.7664,1.51934 z m 14.7765,-13.39434 c 0,-0.6875 -0.5625,-1.25 -1.25,-1.25 -0.6875,0 -1.25,0.5625 -1.25,1.25 0,0.6875 0.5625,1.25 1.25,1.25 0.6875,0 1.25,-0.5625 1.25,-1.25 z"
         id="path3492"
         inkscape:connector-curvature="0" />
      <path
         style="fill:#6f6f6f"
         d="m -1509.0325,1456.227 c -0.7938,-0.5051 135.6994,-0.9183 303.3181,-0.9183 167.6187,0 304.11186,0.4132 303.31814,0.9183 -0.79373,0.5051 -137.28694,0.9184 -303.31814,0.9184 -166.0313,0 -302.5244,-0.4133 -303.3181,-0.9184 z m -8.4232,-8.5206 c -1.0958,-2.8557 -0.899,-852.11717 0.1979,-853.84089 0.5051,-0.79372 0.9184,191.44065 0.9184,427.18749 0,235.7469 -0.08,428.6307 -0.1788,428.6307 -0.098,0 -0.5202,-0.8898 -0.9375,-1.9773 z m 622.3663,-426.7728 c 0,-235.68115 0.41326,-427.86181 0.91836,-427.06809 1.2008,1.88698 1.2008,852.24929 0,854.13629 -0.5051,0.7937 -0.91836,-191.3869 -0.91836,-427.0682 z m -583.4148,391.1766 c -2.5657,-1.3547 -5.5188,-4.1144 -6.5625,-6.1327 -1.6848,-3.2579 -1.8977,-46.4643 -1.8977,-385.0439 0,-338.85136 0.2119,-381.78393 1.9008,-385.04976 1.0454,-2.02162 4.1167,-4.80618 6.8252,-6.18793 4.887,-2.49319 6.9558,-2.51226 272.524,-2.51226 265.56824,0 267.63697,0.0191 272.52404,2.51226 2.70845,1.38175 5.77978,4.16631 6.8252,6.18793 1.68882,3.26583 1.90076,46.1984 1.90076,385.04976 0,338.8515 -0.21194,381.784 -1.90076,385.0499 -1.04541,2.0216 -4.11675,4.8061 -6.8252,6.1879 -4.88813,2.4937 -6.90015,2.5118 -272.78674,2.457 -264.0537,-0.054 -267.9286,-0.09 -272.5271,-2.5182 z m 543.21815,-5.0644 c 1.67527,-0.7633 3.6705,-2.7585 4.43381,-4.4338 1.98015,-4.346 1.98015,-759.01073 0,-763.35669 -0.76331,-1.67529 -2.75854,-3.67051 -4.43381,-4.43382 -4.33945,-1.97718 -536.51725,-1.97718 -540.85665,0 -1.6753,0.76331 -3.6705,2.75853 -4.4339,4.43382 -1.9844,4.35535 -1.9797,759.01169 0,763.36719 0.7659,1.681 2.594,3.6381 4.0625,4.3492 3.9071,1.8918 537.07349,1.9649 541.22324,0.074 z m -54.04362,-48.5024 c -2.04603,-1.2956 -11.44373,-22.753 -10.57841,-24.1531 1.17535,-1.9018 3.94869,-0.8917 5.95373,2.1684 1.61264,2.4611 3.09745,3.125 6.98995,3.125 3.8925,0 5.37731,-0.6639 6.98995,-3.125 2.00504,-3.0601 4.77838,-4.0702 5.95373,-2.1684 0.86535,1.4001 -8.53238,22.8575 -10.5784,24.1531 -0.95715,0.6061 -2.02153,1.102 -2.36528,1.102 -0.34375,0 -1.40812,-0.4959 -2.36527,-1.102 z m 4.14751,-9.6938 c 1.02527,-2.6718 -1.26322,-5.185 -3.07321,-3.375 -1.35913,1.3592 -0.38957,5.4591 1.29097,5.4591 0.54039,0 1.3424,-0.9379 1.78224,-2.0841 z m -9.28224,-34.5267 c -2.54798,-1.2832 -3.19434,-2.6401 -3.50054,-7.3481 -0.32287,-4.9644 -0.70741,-5.6874 -2.74196,-5.1553 -3.2115,0.8398 -8.7575,-4.8699 -8.7575,-9.0161 0,-4.2785 3.1432,-10.207 6.3101,-11.9019 2.9246,-1.5652 6.79114,-0.6187 11.04597,2.7041 3.55839,2.7789 7.34144,2.9862 10.0455,0.5504 1.08539,-0.9776 3.50614,-2.1601 5.37947,-2.6276 4.9422,-1.2333 10.96896,4.9428 10.96896,11.2409 0,5.1628 -4.48468,10.6644 -8.69319,10.6644 -1.99348,0 -2.55681,0.8062 -2.55681,3.6592 0,7.0872 -9.76949,11.1234 -17.5,7.23 z m 4.5858,-34.1001 c -1.16998,-2.4535 -1.80346,-4.9847 -1.40774,-5.625 0.86964,-1.4071 6.43269,-1.5552 7.27416,-0.1937 0.70574,1.1419 -1.98462,10.2796 -3.02657,10.2796 -0.39194,0 -1.66988,-2.0074 -2.83985,-4.4609 z m -226.7733,-213.0781 c -3.1696,-1.274 -3.6629,-3.1172 -1.0978,-4.1016 2.9799,-1.1435 6.8941,-11.1687 7.7783,-19.9219 0.5007,-4.9577 0.3747,-8.4375 -0.3057,-8.4375 -0.6368,0 -3.3272,2.5952 -5.9787,5.7671 -5.1401,6.1493 -12.7712,10.4105 -18.7238,10.4554 -6.4674,0.049 -13.9289,-5.462 -17.6255,-13.0178 -1.8294,-3.7392 -3.6089,-8.943 -3.9545,-11.5641 -0.8642,-6.5558 3.6109,-18.0902 8.6703,-22.3474 3.4431,-2.8971 4.7221,-3.2288 10.2421,-2.6561 3.4693,0.36 7.542,1.0401 9.0506,1.5113 l 2.7428,0.8567 -2.4303,-4.7669 c -1.3367,-2.62176 -2.4303,-7.24535 -2.4303,-10.27461 0,-13.74903 19.7833,-21.79872 38.0233,-15.47143 8.2361,2.85704 11.38,7.23148 11.2586,15.66528 -0.054,3.76081 -1.1885,8.82066 -2.7106,12.09026 -1.4396,3.0925 -2.4685,5.7718 -2.2863,5.9539 0.1821,0.1821 2.3682,-0.52 4.8579,-1.5602 12.2879,-5.1343 21.5274,0.7487 23.9346,15.2396 1.1112,6.689 -1.1656,17.767 -4.7424,23.0746 -9.0807,13.4749 -23.7234,12.8913 -36.0629,-1.4372 -2.9685,-3.447 -5.8915,-6.2675 -6.4957,-6.2678 -1.6601,-10e-4 0.3276,12.4215 2.9298,18.3108 1.2604,2.8526 3.5168,6.4117 5.0143,7.9092 4.6143,4.6142 2.5219,6.2895 -7.7439,6.2001 -5.0059,-0.044 -10.3673,-0.5879 -11.9142,-1.2097 z m -210.7647,-299.68149 c -0.7058,-1.14191 1.9846,-10.27956 3.0265,-10.27956 1.2556,0 4.9944,8.87764 4.2476,10.08585 -0.8696,1.4071 -6.4326,1.55525 -7.2741,0.19371 z m 12.9522,-6.18991 c -1.0313,-0.39214 -3.2165,-1.75398 -4.8561,-3.02631 -3.5635,-2.76537 -7.3463,-2.96709 -10.0455,-0.53573 -1.0854,0.97769 -3.5061,2.16011 -5.3794,2.62761 -4.9422,1.23337 -10.969,-4.9428 -10.969,-11.24088 0,-5.16278 4.4847,-10.66434 8.6932,-10.66434 1.9935,0 2.5568,-0.80623 2.5568,-3.65928 0,-5.52245 5.3559,-9.2542 12.1868,-8.49125 7.2288,0.80739 9.0632,2.64145 9.0632,9.06157 0,4.68768 0.3027,5.27575 2.4295,4.71958 3.2753,-0.85652 8.8205,4.80124 8.8205,8.99964 0,4.21115 -3.1276,10.19865 -6.1808,11.83269 -2.6199,1.40216 -3.4866,1.45382 -6.3192,0.3767 z m -23.0407,-53.9533 c -0.3786,-0.61251 1.6456,-6.23751 4.4981,-12.5 4.6613,-10.23341 5.5263,-11.38635 8.5426,-11.38635 3.0163,0 3.8813,1.15294 8.5426,11.38635 2.8525,6.26249 4.8767,11.88749 4.4981,12.5 -1.2656,2.04791 -3.9828,1.14468 -6.0508,-2.01135 -1.6126,-2.46118 -3.0974,-3.125 -6.9899,-3.125 -3.8925,0 -5.3773,0.66382 -6.9899,3.125 -2.068,3.15603 -4.7852,4.05926 -6.0508,2.01135 z m 15.3027,-12.32385 c -0.2317,-1.20313 -1.2496,-2.1875 -2.262,-2.1875 -1.0124,0 -2.0303,0.98437 -2.262,2.1875 -0.2956,1.53481 0.3793,2.1875 2.262,2.1875 1.8827,0 2.5576,-0.65269 2.262,-2.1875 z m -86.2779,-109.28714 c 2.799,-1.11081 602.73285,-1.11081 605.53177,0 1.17748,0.4673 -135.06717,0.84964 -302.76587,0.84964 -167.6987,0 -303.9433,-0.38234 -302.7659,-0.84964 z"
         id="path3490"
         inkscape:connector-curvature="0" />
      <path
         style="fill:#575757"
         d="m -1356.6519,1456.2462 c 83.0156,-0.1774 218.8594,-0.1774 301.875,0 83.01562,0.1774 15.0937,0.3226 -150.9375,0.3226 -166.0313,0 -233.9531,-0.1452 -150.9375,-0.3226 z m -160.9447,-435.3126 c 0,-234.0937 0.1438,-329.85933 0.3197,-212.81245 0.1758,117.04687 0.1758,308.57815 0,425.62505 -0.1759,117.0468 -0.3197,21.2812 -0.3197,-212.8126 z m 623.74997,0 c 0,-234.0937 0.14387,-329.85933 0.3197,-212.81245 0.17584,117.04687 0.17584,308.57815 0,425.62505 -0.17583,117.0468 -0.3197,21.2812 -0.3197,-212.8126 z m -585.74537,389.6443 c -2.4269,-1.6318 -4.8869,-4.7125 -5.7393,-7.1875 -2.1659,-6.2884 -2.1659,-758.62509 0,-764.91347 0.8524,-2.47502 3.3124,-5.55578 5.7393,-7.1875 l 4.2473,-2.85578 269.6303,0 269.63029,0 4.24736,2.85578 c 2.42681,1.63172 4.88684,4.71248 5.7393,7.1875 2.16586,6.28838 2.16586,758.62507 0,764.91347 -0.85246,2.475 -3.31249,5.5557 -5.7393,7.1875 l -4.24736,2.8558 -269.63029,0 -269.6303,0 -4.2473,-2.8558 z m 547.23454,-4.8621 2.89306,-2.7179 0,-381.8891 0,-381.88902 -2.71789,-2.89307 -2.7179,-2.89306 -270.63901,0 -270.6391,0 -2.893,2.71789 -2.8931,2.71789 0,381.88907 0,381.889 2.7179,2.8931 2.7179,2.8931 270.639,0 270.63907,0 2.89307,-2.7179 z m -61.33275,-56.2538 c -2.2915,-5.0343 -4.551,-10.3716 -5.02113,-11.8606 -1.35496,-4.2916 1.29584,-4.5622 4.23648,-0.4324 2.189,3.0741 3.56658,3.7647 7.51046,3.7647 3.96656,0 5.31926,-0.6875 7.56857,-3.8464 1.78617,-2.5084 3.16435,-3.4207 3.96221,-2.6229 0.79784,0.7979 -0.46282,5.0706 -3.62434,12.2838 -3.81057,8.694 -5.44875,11.1467 -7.65682,11.4638 -2.40158,0.3448 -3.41343,-0.9245 -6.97543,-8.75 z m 9.00025,-2.0638 c 0.30022,-2.0403 -0.2431,-2.7145 -2.1875,-2.7145 -1.67522,0 -2.58694,0.8076 -2.58694,2.2916 0,4.7521 4.0842,5.1138 4.77444,0.4229 z m -11.6042,-35.1646 c -1.66752,-1.8425 -2.01142,-3.547 -1.38709,-6.875 0.79932,-4.2607 0.69219,-4.4249 -2.88725,-4.4249 -2.0445,0 -4.6013,-0.884 -5.6816,-1.9643 -2.8295,-2.8295 -2.4918,-10.778 0.6264,-14.7422 3.4216,-4.3498 7.98765,-4.2053 14.13576,0.4475 5.04252,3.816 7.18621,3.7064 10.7169,-0.5478 2.34535,-2.826 8.27578,-2.4085 11.25794,0.7925 3.34412,3.5894 3.49425,12.2711 0.26277,15.1955 -1.25726,1.1378 -3.77137,2.0688 -5.58693,2.0688 -2.99494,0 -3.28515,0.422 -3.12992,4.5513 0.21812,5.8016 -2.56201,7.9487 -10.2924,7.9487 -4.1903,0 -6.43748,-0.6853 -8.03458,-2.4501 z m 7.14226,-32.5118 c -2.32379,-3.7243 -1.91631,-5.0381 1.5625,-5.0381 3.41676,0 4.01206,2.06 1.5625,5.4072 -1.45569,1.9891 -1.66931,1.9639 -3.125,-0.3691 z m -228.4947,-213.8807 c -0.4563,-0.7384 0.3352,-2.5825 1.759,-4.0981 3.5618,-3.7913 6.1968,-11.8265 6.6598,-20.3084 0.4852,-8.8889 -1.2801,-9.8081 -6.0483,-3.1491 -10.6928,14.933 -27.5812,15.3595 -36.0489,0.9104 -6.3364,-10.8121 -5.4894,-24.075 2.0884,-32.7057 4.9173,-5.6006 9.8848,-6.4535 18.5061,-3.1777 3.7081,1.409 6.9241,2.3798 7.1466,2.1573 0.2225,-0.2225 -0.6656,-1.7649 -1.9734,-3.4275 -7.8946,-10.03638 -4.9625,-23.41429 6.1021,-27.84148 6.2645,-2.50658 22.2478,-2.67452 27.9461,-0.29365 9.8145,4.10075 12.2375,14.31423 6.3808,26.89563 -1.7267,3.7093 -2.8289,7.0547 -2.4493,7.4343 0.3796,0.3796 2.3567,-0.2943 4.3936,-1.4976 4.6097,-2.723 12.5018,-3.13 16.7375,-0.8632 6.8362,3.6586 10.3064,18.4663 7.0162,29.9385 -3.0519,10.6413 -13.2802,18.6951 -21.7295,17.11 -6.257,-1.1738 -15.3147,-7.5147 -18.9418,-13.2604 -1.786,-2.8293 -3.9202,-4.9098 -4.7426,-4.6233 -3.631,1.2651 1.5485,21.9191 6.656,26.5413 4.9088,4.4424 3.2377,5.6013 -8.0774,5.6013 -6.1707,0 -10.8957,-0.5574 -11.381,-1.3426 z m -209.3178,-299.98963 c 0,-0.7327 0.6071,-2.46665 1.3492,-3.85322 1.2998,-2.42858 1.4129,-2.43703 3.0853,-0.23033 2.6302,3.4706 2.1598,5.41573 -1.3095,5.41573 -1.7188,0 -3.125,-0.59948 -3.125,-1.33218 z m 7.0235,-8.65882 c -5.0425,-3.81603 -7.1862,-3.70646 -10.7169,0.54775 -2.3453,2.82597 -8.2757,2.40852 -11.2579,-0.79245 -3.3441,-3.58949 -3.4943,-12.27113 -0.2628,-15.19556 1.2573,-1.13782 3.7714,-2.06874 5.587,-2.06874 2.9949,0 3.2851,-0.422 3.1299,-4.55133 -0.2181,-5.80162 2.562,-7.94867 10.2924,-7.94867 7.6055,0 10.6127,2.9763 9.4217,9.32501 -0.7994,4.26078 -0.6922,4.42499 2.8872,4.42499 2.0445,0 4.6013,0.88392 5.6816,1.96429 2.8295,2.8295 2.4918,10.778 -0.6264,14.74213 -3.4216,4.34982 -7.9877,4.20529 -14.1358,-0.44742 z m -16.361,-50.09512 c -0.4159,-1.07861 1.4891,-6.84424 4.2334,-12.8125 6.7408,-14.65981 8.4674,-14.65981 15.2082,0 5.6192,12.22051 5.6798,17.44956 0.1241,10.69985 -2.6206,-3.1837 -4.3091,-4.07377 -7.7282,-4.07377 -3.4191,0 -5.1076,0.89007 -7.7282,4.07377 -2.6704,3.24431 -3.5071,3.67447 -4.1093,2.11265 z m 14.1633,-10.32894 c 1.0265,-1.23694 0.9052,-2.28148 -0.472,-4.0625 -1.8274,-2.36326 -1.8802,-2.36326 -3.7076,0 -1.3772,1.78102 -1.4985,2.82556 -0.472,4.0625 0.7601,0.91578 1.8067,1.66506 2.3258,1.66506 0.5191,0 1.5657,-0.74928 2.3258,-1.66506 z m 65.4867,-111.77239 c 83.0156,-0.17742 218.8594,-0.17742 301.875,0 83.01562,0.17742 15.0937,0.32258 -150.9375,0.32258 -166.0313,0 -233.9531,-0.14516 -150.9375,-0.32258 z"
         id="path3488"
         inkscape:connector-curvature="0" />
      <path
         style="fill:#2d2d2d"
         d="m -1356.0269,1456.2462 c 82.6719,-0.1774 217.9531,-0.1774 300.625,0 82.67187,0.1774 15.0312,0.3226 -150.3125,0.3226 -165.3438,0 -232.9844,-0.1452 -150.3125,-0.3226 z m -161.5698,-435.3126 c 0,-233.4062 0.1439,-328.89058 0.3198,-212.18745 0.1758,116.70312 0.1758,307.67185 0,424.37505 -0.1759,116.7031 -0.3198,21.2187 -0.3198,-212.1876 z m 623.75005,0 c 0,-233.4062 0.14387,-328.89058 0.31972,-212.18745 0.17585,116.70312 0.17585,307.67185 0,424.37505 -0.17585,116.7031 -0.31972,21.2187 -0.31972,-212.1876 z m -583.90935,390.1025 c -2.1541,-1.3135 -4.826,-3.6866 -5.9375,-5.2735 -1.8505,-2.6419 -2.0209,-35.1003 -2.0209,-384.9385 l 0,-382.0533 2.6104,-3.31855 c 5.9351,-7.5453 -14.8813,-7.0186 277.3896,-7.0186 292.27085,0 271.4545,-0.5267 277.38962,7.0186 l 2.61038,3.31855 0,382.1628 0,382.1629 -2.61038,3.3186 c -5.93532,7.5455 14.90662,7.019 -277.64002,7.0139 -261.4915,-0.01 -267.9679,-0.062 -271.7912,-2.3929 z m 546.06944,-4.8246 2.84716,-2.8472 0.31855,-380.6407 c 0.28626,-342.05277 0.12175,-381.0212 -1.62238,-384.39403 -1.0675,-2.06432 -3.35683,-4.29166 -5.08742,-4.94962 -4.27991,-1.62722 -536.68755,-1.62722 -540.96755,0 -1.7305,0.65796 -4.0172,2.88003 -5.0813,4.93792 -1.7342,3.35345 -1.933,43.07405 -1.9165,382.86623 0.015,301.59 0.3393,379.7586 1.5872,382.2249 0.8628,1.7052 2.9638,3.8084 4.669,4.6738 2.4688,1.2528 58.0365,1.5125 272.7532,1.2746 l 269.65286,-0.2987 2.84718,-2.8472 z m -57.52392,-49.3469 c -1.96582,-2.3687 -9.00392,-18.3323 -9.00392,-20.4225 0,-2.8034 1.97097,-2.0388 3.52256,1.3666 1.24476,2.7319 2.21663,3.125 7.72744,3.125 5.51081,0 6.48267,-0.3931 7.72744,-3.125 1.64566,-3.6119 3.54873,-4.1267 3.46541,-0.9375 -0.0791,3.0295 -9.00511,20.7709 -10.69274,21.253 -0.7562,0.216 -1.99197,-0.3508 -2.74619,-1.2596 z m 4.79835,-7.2786 c 1.81907,-3.399 0.67684,-6.1523 -2.55227,-6.1523 -1.41815,0 -2.88538,0.7998 -3.26049,1.7773 -0.78226,2.0385 1.52499,6.9727 3.26049,6.9727 0.63912,0 1.78765,-1.169 2.55227,-2.5977 z m -9.91115,-36.2547 c -2.75568,-1.1026 -2.92613,-1.6814 -2.22887,-7.5687 l 0.75501,-6.3749 -3.73467,0.7469 c -7.23259,1.4466 -10.92809,-6.2327 -6.82129,-14.1744 3.1124,-6.0188 9.56001,-6.0924 14.89494,-0.17 2.40385,2.6686 8.24376,3.6784 8.24376,1.4256 0,-0.6699 1.76547,-2.1309 3.92326,-3.2467 7.23087,-3.7393 13.45585,2.429 11.73088,11.6239 -0.89151,4.7521 -3.68548,6.6203 -8.51921,5.6963 -3.41312,-0.6525 -3.45188,-0.5896 -2.66573,4.3268 0.68741,4.2988 0.39501,5.2709 -2.11386,7.0282 -3.20595,2.2455 -8.84933,2.5335 -13.46421,0.687 z m 5.24495,-34.7417 c -1.69568,-2.7178 -0.98926,-3.9059 2.32227,-3.9059 2.68417,0 2.8944,1.1985 0.72916,4.1572 -1.46078,1.996 -1.65944,1.9797 -3.05143,-0.2513 z m -227.06977,-212.4902 c -2.1398,-0.8421 -2.1567,-1.0346 -0.2301,-2.6336 3.1879,-2.6457 5.5845,-8.0441 7.3751,-16.6121 l 1.6289,-7.795 1.5454,7.1962 c 0.8535,3.9747 3.4033,9.9573 5.6955,13.3635 2.2826,3.392 3.8357,6.4818 3.4512,6.8662 -1.0048,1.0049 -16.724,0.6938 -19.466,-0.3852 z m 28.5587,-15.9928 c -5.2265,-2.7553 -9.1575,-6.4881 -12.7302,-12.0883 -2.0955,-3.2847 -3.6697,-4.5547 -5.0088,-4.0409 -1.0741,0.4122 -2.7898,0.055 -3.8127,-0.7941 -1.5284,-1.2685 -2.2703,-0.9938 -4.1629,1.5409 -6.6006,8.8399 -8.2812,10.4742 -12.9544,12.5968 -8.5681,3.8916 -13.9312,2.9612 -21.0149,-3.6455 -3.6423,-3.397 -8.4411,-14.5493 -8.4411,-19.6168 0,-5.5834 5.01,-16.7119 8.7095,-19.3462 4.4723,-3.1846 11.5092,-3.226 18.3763,-0.108 2.8659,1.3012 5.5135,2.0632 5.8834,1.6933 0.37,-0.37 -0.807,-2.6126 -2.6154,-4.9836 -2.3201,-3.04181 -3.453,-6.30008 -3.8484,-11.06818 -0.5274,-6.35927 -0.3077,-7.01006 3.7301,-11.04783 5.2884,-5.2884 12.8653,-7.49373 22.9857,-6.69022 19.2911,1.53163 25.0112,12.19653 16.0385,29.90333 -1.7478,3.449 -2.8881,6.5607 -2.534,6.9148 0.3541,0.3541 3.2431,-0.6145 6.4199,-2.1524 6.6246,-3.2069 14.2033,-2.8955 18.2305,0.7491 1.3376,1.2105 3.3388,5.3202 4.4471,9.1327 3.5352,12.1606 -1.1165,27.2942 -10.0672,32.7523 -4.6953,2.8631 -12.5155,2.9957 -17.631,0.2988 z m -239.375,-283.63013 c 0,-0.38895 0.6071,-1.84165 1.3492,-3.22822 1.295,-2.41975 1.4161,-2.42956 3.0142,-0.2441 0.9157,1.25231 1.4003,2.70501 1.077,3.22821 -0.6763,1.0943 -5.4404,1.30806 -5.4404,0.24411 z m 11.875,-6.72452 c -1.375,-0.56278 -3.5716,-2.21461 -4.8812,-3.67076 -2.4029,-2.67154 -8.2438,-3.68448 -8.2438,-1.42964 0,0.66985 -1.7655,2.13086 -3.9233,3.2467 -7.2308,3.73922 -13.4558,-2.429 -11.7308,-11.6239 0.8915,-4.75219 3.6854,-6.62035 8.5192,-5.69632 3.4131,0.65246 3.4518,0.58954 2.6657,-4.32678 -0.6874,-4.2988 -0.395,-5.27095 2.1139,-7.02823 3.3327,-2.33432 8.1797,-2.61457 13.069,-0.75563 3.2151,1.22237 3.3405,1.58796 2.6228,7.64797 l -0.7538,6.36424 3.7347,-0.74694 c 7.2039,-1.44076 10.9295,6.2301 6.8538,14.11159 -2.4827,4.801 -5.2416,5.87416 -10.0462,3.9077 z m -21.0084,-53.5058 c -0.2921,-0.51563 1.6157,-5.57813 4.2394,-11.25 6.3915,-13.8167 8.3963,-13.91115 14.4261,-0.67963 5.127,11.25058 5.273,11.76963 3.4958,12.43075 -0.7409,0.27561 -1.9945,-0.9197 -2.7857,-2.65625 -1.2616,-2.76891 -2.2142,-3.15737 -7.7422,-3.15737 -5.5108,0 -6.4827,0.39302 -7.7274,3.125 -1.4233,3.12368 -2.9056,3.95384 -3.906,2.1875 z m 15.3834,-10.07359 c 0,-1.2436 -0.8438,-3.35297 -1.875,-4.6875 -1.856,-2.40188 -1.894,-2.40188 -3.75,0 -3.1681,4.09979 -2.3994,6.94859 1.875,6.94859 2.7846,0 3.75,-0.5821 3.75,-2.26109 z m 64.6875,-111.17636 c 82.6719,-0.17745 217.9531,-0.17745 300.625,0 82.67187,0.17744 15.0312,0.32262 -150.3125,0.32262 -165.3438,0 -232.9844,-0.14518 -150.3125,-0.32262 z"
         id="path3486"
         inkscape:connector-curvature="0" />
      <path
         style="fill:#0d0d0d"
         d="m -1355.4019,1456.2462 c 82.3281,-0.1775 217.0469,-0.1775 299.375,0 82.32812,0.1775 14.9687,0.3227 -149.6875,0.3227 -164.6563,0 -232.0156,-0.1452 -149.6875,-0.3227 z m -162.1948,-435.3126 c 0,-232.7187 0.1439,-327.92183 0.3198,-211.56245 0.1758,116.35937 0.1758,306.76565 0,423.12505 -0.1759,116.3593 -0.3198,21.1562 -0.3198,-211.5626 z m 623.75002,0 c 0,-232.7187 0.14389,-327.92183 0.31975,-211.56245 0.17587,116.35937 0.17587,306.76565 0,423.12505 -0.17586,116.3593 -0.31975,21.1562 -0.31975,-211.5626 z m -583.97542,388.8123 c -2.1905,-1.3357 -4.5811,-3.5466 -5.3125,-4.9132 -0.9314,-1.7403 -1.3298,-116.8361 -1.3298,-384.1637 0,-343.84525 0.1934,-381.95517 1.9509,-384.46436 4.8725,-6.95645 -13.6115,-6.52099 276.7991,-6.52099 290.41064,0 271.92664,-0.43546 276.79912,6.52099 1.7575,2.5092 1.95088,40.64394 1.95088,384.72896 0,344.0851 -0.19338,382.2199 -1.95088,384.7291 -4.87267,6.9567 13.63555,6.5214 -277.04952,6.5163 -263.039,-0.01 -267.9465,-0.049 -271.8573,-2.4331 z m 546.53951,-3.1304 3.06819,-3.0682 0,-382.6137 0,-382.61359 -3.06819,-3.06818 -3.06817,-3.06818 -271.36364,0 -271.3636,0 -3.0682,3.06818 -3.0682,3.06818 0,382.61359 0,382.6137 3.0682,3.0682 3.0682,3.0682 271.3636,0 271.36364,0 3.06817,-3.0682 z m -57.79115,-50.9943 c -2.65147,-4.1147 -8.82126,-19.6875 -7.79995,-19.6875 0.63761,0 1.15929,0.8558 1.15929,1.9018 0,1.0459 1.40185,2.5405 3.11522,3.3211 2.41642,1.101 2.8029,1.7958 1.72289,3.0971 -1.93951,2.337 0.97653,9.18 3.91189,9.18 2.93536,0 5.8514,-6.843 3.91189,-9.18 -1.08002,-1.3013 -0.69353,-1.9961 1.72288,-3.0971 1.71338,-0.7806 3.11523,-2.2752 3.11523,-3.3211 0,-1.046 0.52168,-1.9018 1.15929,-1.9018 0.63761,0 -0.62999,4.0781 -2.81689,9.0625 -4.61107,10.5095 -5.58754,12.1875 -7.0924,12.1875 -0.60635,0 -1.55555,-0.7032 -2.10934,-1.5625 z m -6.01679,-44.2423 c -1.23276,-1.2327 -1.77242,-3.1078 -1.34905,-4.6875 0.3881,-1.448 1.07345,-3.9617 1.52299,-5.586 0.78718,-2.8441 0.62945,-2.9214 -4.27096,-2.0935 -4.32455,0.7306 -5.29015,0.4826 -6.43255,-1.6521 -3.3668,-6.2909 0.2118,-15.1761 6.1122,-15.1761 1.35109,0 4.37846,1.6875 6.72752,3.75 5.20183,4.5672 7.76819,4.7061 11.55045,0.625 5.63017,-6.0751 13.01553,-2.4215 13.01553,6.4388 0,5.6564 -2.93136,8.203 -8.28604,7.1985 l -4.29029,-0.8049 0.85334,5.3365 c 0.6991,4.3719 0.43689,5.641 -1.45075,7.0213 -3.20347,2.3424 -11.20607,2.1264 -13.70239,-0.37 z m 6.25113,-34.1952 c -0.4249,-0.6875 0.10437,-1.25 1.17622,-1.25 1.07183,0 1.94878,0.5625 1.94878,1.25 0,0.6875 -0.5293,1.25 -1.17623,1.25 -0.64692,0 -1.52387,-0.5625 -1.94877,-1.25 z m -226.875,-211.9946 c 0,-0.4095 1.1213,-2.3192 2.4917,-4.2438 1.3705,-1.9247 3.1508,-6.3544 3.9562,-9.8437 l 1.4645,-6.3444 2.8959,7.1252 c 1.5927,3.9189 4.048,8.6836 5.4562,10.5882 l 2.5603,3.4631 -9.4124,0 c -5.1768,0 -9.4124,-0.3351 -9.4124,-0.7446 z m 31.875,-14.3189 c -4.7142,-1.3998 -12.7121,-7.9471 -15.6905,-12.8447 -1.3464,-2.214 -4.2104,-4.4125 -7.0397,-5.4039 -5.2646,-1.8447 -4.2093,-2.5008 -11.8602,7.3738 -4.176,5.3898 -10.4531,8.4383 -17.3753,8.4383 -4.6641,0 -5.9929,-0.6837 -10.5277,-5.4165 -8.433,-8.8011 -10.2339,-20.2663 -4.9369,-31.429 2.3526,-4.9577 8.2351,-9.4003 12.4303,-9.3877 1.375,0 5.5477,1.4263 9.2726,3.1602 7.8014,3.6315 11.0882,2.5478 6.742,-2.223 -4.0613,-4.45811 -5.3896,-7.86628 -5.3896,-13.8283 0,-10.59304 7.4652,-15.87575 22.4345,-15.87575 20.8435,0 27.9743,10.71375 18.7731,28.20565 -4.6721,8.8818 -3.5419,11.0667 3.6374,7.0317 5.6439,-3.1721 13.4223,-3.5614 17.2727,-0.8644 4.3422,3.0413 7.0827,11.9891 6.3036,20.5811 -1.4593,16.093 -12.0902,26.0325 -24.0463,22.4825 z m -241.875,-286.18655 c 0,-0.6875 0.5293,-1.25 1.1762,-1.25 0.647,0 1.5239,0.5625 1.9488,1.25 0.4249,0.6875 -0.1044,1.25 -1.1762,1.25 -1.0719,0 -1.9488,-0.5625 -1.9488,-1.25 z m 7.066,-8.75 c -5.2019,-4.56726 -7.7682,-4.70614 -11.5505,-0.625 -5.6301,6.07505 -13.0155,2.42147 -13.0155,-6.43885 0,-5.6564 2.9314,-8.20301 8.286,-7.19846 l 4.2903,0.80486 -0.8533,-5.33649 c -1.0278,-6.42719 1.178,-8.70606 8.4266,-8.70606 5.5674,0 9.1157,2.97011 8.0627,6.74885 -2.5724,9.23081 -2.7962,8.61177 2.7731,7.67085 4.3114,-0.7284 5.2786,-0.47919 6.4203,1.65417 3.3668,6.29084 -0.2118,15.17613 -6.1122,15.17613 -1.3511,0 -4.3785,-1.6875 -6.7275,-3.75 z m -14.1206,-56.5889 c 5.5547,-12.56016 6.428,-14.0361 8.3046,-14.0361 1.8766,0 2.7499,1.47594 8.3046,14.0361 l 3.1531,7.12986 -3.5413,-3.70798 c -2.0973,-2.19591 -3.3746,-4.74983 -3.1324,-6.26286 0.2249,-1.40518 -0.7595,-3.93643 -2.1875,-5.625 l -2.5965,-3.07012 -2.5965,3.07012 c -1.428,1.68857 -2.4124,4.21982 -2.1875,5.625 0.2422,1.51303 -1.0351,4.06695 -3.1324,6.26286 l -3.5413,3.70798 3.1531,-7.12986 z m 77.3671,-114.34855 c 82.3281,-0.17747 217.0469,-0.17747 299.375,0 82.32812,0.17746 14.9687,0.32267 -149.6875,0.32267 -164.6563,0 -232.0156,-0.14521 -149.6875,-0.32267 z"
         id="path3484"
         inkscape:connector-curvature="0" />
    </g>
  </g>
</svg>
