<?xml version="1.0" encoding="UTF-8" standalone="no"?>
<!-- Created with Inkscape (http://www.inkscape.org/) -->

<svg
   xmlns:dc="http://purl.org/dc/elements/1.1/"
   xmlns:cc="http://creativecommons.org/ns#"
   xmlns:rdf="http://www.w3.org/1999/02/22-rdf-syntax-ns#"
   xmlns:svg="http://www.w3.org/2000/svg"
   xmlns="http://www.w3.org/2000/svg"
   xmlns:sodipodi="http://sodipodi.sourceforge.net/DTD/sodipodi-0.dtd"
   xmlns:inkscape="http://www.inkscape.org/namespaces/inkscape"
   width="176.45312mm"
   height="246.30455mm"
   viewBox="0 0 625.22761 872.73266"
   id="svg2"
   version="1.1"
   inkscape:version="0.91 r13725"
   sodipodi:docname="J.svg">
  <defs
     id="defs4" />
  <sodipodi:namedview
     id="base"
     pagecolor="#ffffff"
     bordercolor="#666666"
     borderopacity="1.0"
     inkscape:pageopacity="0.0"
     inkscape:pageshadow="2"
     inkscape:zoom="0.35"
     inkscape:cx="842.84279"
     inkscape:cy="220.52758"
     inkscape:document-units="px"
     inkscape:current-layer="layer1"
     showgrid="false"
     fit-margin-top="0"
     fit-margin-left="0"
     fit-margin-right="0"
     fit-margin-bottom="0"
     inkscape:window-width="784"
     inkscape:window-height="822"
     inkscape:window-x="800"
     inkscape:window-y="0"
     inkscape:window-maximized="0" />
  <metadata
     id="metadata7">
    <rdf:RDF>
      <cc:Work
         rdf:about="">
        <dc:format>image/svg+xml</dc:format>
        <dc:type
           rdf:resource="http://purl.org/dc/dcmitype/StillImage" />
        <dc:title></dc:title>
      </cc:Work>
    </rdf:RDF>
  </metadata>
  <g
     inkscape:label="Calque 1"
     inkscape:groupmode="layer"
     id="layer1"
     transform="translate(809.27138,119.84279)">
    <g
       style="display:inline"
       id="g3590"
       transform="translate(-676.65742,264.15605)">
      <path
         style="fill:#fdfdfd"
         d="m -132.50003,52.36218 0,-436.25 312.5,0 312.5,0 0,436.25 0,436.25 -312.5,0 -312.5,0 0,-436.25 z"
         id="path3606"
         inkscape:connector-curvature="0" />
      <path
         style="fill:#e6e6e6"
         d="m -126.3748,487.05392 c -1.89593,-0.75393 -3.84873,-2.94868 -4.6875,-5.26827 -2.06679,-5.71559 -2.07005,-853.12232 -0.003,-858.8378 0.96852,-2.67839 2.72286,-4.43273 5.40125,-5.40125 5.69847,-2.06059 605.63019,-2.06059 611.32866,0 2.67838,0.96852 4.43273,2.72286 5.40125,5.40125 2.06378,5.70731 2.06378,853.12135 0,858.82865 -0.96852,2.67839 -2.72287,4.43274 -5.40125,5.40125 -5.34155,1.93154 -607.17667,1.80977 -612.0391,-0.12387 z m 611.47092,-5.84559 3.65385,-3.65384 0,-425.19231 0,-425.19231 -3.65385,-3.65384 -3.65384,-3.65385 -301.44231,0 -301.44231,0 -3.65384,3.65385 -3.65385,3.65384 0,425.19231 0,425.19231 3.65385,3.65384 3.65384,3.65385 301.44231,0 301.44231,0 3.65384,-3.65385 z M -91.872244,446.64764 c -2.060967,-1.07721 -4.79043,-2.90266 -6.065474,-4.05656 -6.161702,-5.57626 -5.812312,17.88101 -5.812312,-390.2289 0,-336.43552 0.22078,-381.8011 1.87369,-384.99746 1.03052,-1.99282 3.939861,-5.19926 6.465193,-7.12542 l 4.591512,-3.50212 270.819605,0 270.8196,0 4.59151,3.50212 c 2.52534,1.92616 5.43468,5.1326 6.4652,7.12542 1.6529,3.19636 1.87369,48.56194 1.87369,384.99746 0,336.43552 -0.22079,381.8011 -1.87369,384.99746 -1.03052,1.99282 -3.93982,5.19927 -6.46512,7.12543 l -4.59143,3.50211 -269.47239,0.30951 c -242.601631,0.27867 -269.846028,0.11423 -273.219584,-1.64905 z M 451.24997,434.86218 c 2.48904,-2.48904 2.5,-4.16666 2.5,-382.5 0,-378.33333 -0.0113,-380.01096 -2.5,-382.5 -2.4845,-2.4845 -4.16666,-2.5 -271.25,-2.5 -267.083334,0 -268.765504,0.0155 -271.25,2.5 -2.489035,2.48904 -2.5,4.16667 -2.5,382.5 0,378.33334 0.011,380.01096 2.5,382.5 2.484496,2.4845 4.166666,2.5 271.25,2.5 267.08334,0 268.7655,-0.0155 271.25,-2.5 z m -61.60742,-43.27409 c -0.49092,-0.49092 -0.89258,-6.10175 -0.89258,-12.46852 0,-11.01683 0.15907,-11.70107 3.29357,-14.16667 3.74705,-2.94742 15.14745,-3.6497 17.70643,-1.09072 3.94779,3.94779 0.1372,8.5 -7.11524,8.5 l -3.7796,0 -0.36509,9.6875 -0.36507,9.6875 -3.79492,0.37174 c -2.08722,0.20446 -4.19659,-0.0299 -4.6875,-0.52083 z m 0.71348,-43.50589 c -3.77346,-1.70198 -4.59219,-3.16297 -5.62646,-10.04021 -0.21361,-1.42043 -1.67464,-2.7452 -3.48616,-3.16102 -1.89287,-0.43449 -3.99463,-2.42108 -5.34787,-5.0548 -5.31351,-10.34139 3.55345,-23.73784 13.26733,-20.04463 3.21147,1.221 3.3338,1.12773 2.56066,-1.95272 -0.5353,-2.13277 -0.22191,-3.60864 0.91975,-4.33167 2.60099,-1.64722 9.07863,-1.35451 11.65104,0.52649 1.85581,1.35699 2.01412,2.14364 0.86391,4.29282 -2.02215,3.77843 -1.79266,4.12999 1.80349,2.76273 9.39709,-3.57276 17.87275,7.29686 14.24975,18.27463 -1.05899,3.20877 -2.65364,4.98848 -5.55653,6.2014 -2.93607,1.22676 -4.28021,2.74567 -4.82053,5.4473 -1.38708,6.93534 -12.3758,10.73431 -20.47838,7.07969 z M 151.56247,139.03433 c -2.03398,-0.82073 -2.08478,-13.14987 -0.0625,-15.17215 0.99636,-0.99636 6.42869,-1.5 16.17912,-1.5 19.64932,0 18.57088,1.78681 18.57088,-30.7694 0,-28.069287 -0.44744,-26.7306 8.93441,-26.7306 10.1416,0 9.81559,-1.034775 9.81559,31.1555 0,32.05196 0.73008,29.32878 -10.38852,38.74935 l -6.01353,5.09515 -17.73648,-0.0987 c -9.75506,-0.0542 -18.4396,-0.3824 -19.29897,-0.72916 z M 130.33836,44.44803 C 126.371,39.407743 119.46872,30.419255 114.99997,24.473605 c -7.66047,-10.192212 -8.393,-10.811725 -12.8125,-10.835838 -6.0364,-0.033 -9.6875,-3.541724 -9.6875,-9.309862 0,-4.800675 4.566338,-9.465725 9.26544,-9.465725 3.43075,0 8.23456,3.3457 8.23456,5.7351125 0,1.0138375 0.70312,2.0999 1.5625,2.413475 2.024,0.7385125 28.77239,4.446925 29.12405,4.037775 0.14719,-0.17125 1.12435,-5.3738625 2.17149,-11.5613625 1.86005,-10.991075 1.84427,-11.3145 -0.68543,-14.052325 -5.5438,-5.999925 -1.47375,-15.739337 6.57739,-15.739337 5.39201,0 9.28113,4.158637 9.1225,9.754687 -0.11363,4.008012 0.91041,5.346537 11.59048,15.150125 l 11.7151,10.7536875 11.84234,-10.932725 c 10.66667,-9.8473495 11.7726,-11.2815125 11.13973,-14.4458375 -1.01393,-5.06965 5.64039,-11.72635 10.55881,-10.562587 7.30077,1.727462 10.30661,10.974837 5.29974,16.304412 -2.40632,2.561413 -2.42234,2.979088 -0.52981,13.8215875 1.07332,6.1492 2.05895,11.287825 2.19028,11.41915 0.13133,0.131325 6.13537,-0.5499375 13.3423,-1.513925 7.20694,-0.9639875 13.4875,-1.770525 13.95679,-1.7923125 0.4693,-0.02175 1.21229,-1.170775 1.65109,-2.5533125 1.08999,-3.434225 7.33545,-6.4809875 11.26402,-5.494975 10.35542,2.5990375 8.35372,18.0086875 -2.33932,18.0086875 -3.9523,0 -5.04994,1.130712 -18.90341,19.4731 -8.08912,10.710213 -15.393,19.736163 -16.23088,20.057688 -0.83788,0.321525 -5.94235,-0.898788 -11.34326,-2.711825 -20.87654,-7.008013 -44.44447,-6.982 -64.88068,0.07163 -4.95482,1.710174 -9.37671,3.109412 -9.82641,3.109412 -0.4497,0 -4.06366,-4.123875 -8.03102,-9.16415 z M -44.294382,-199.29928 c -1.855808,-1.35699 -2.014117,-2.14364 -0.863913,-4.29281 2.022159,-3.77844 1.792667,-4.13 -1.803482,-2.76274 -13.428941,5.10566 -21.802053,-18.9988 -8.526389,-24.54573 2.546656,-1.06406 4.238136,-2.65088 4.238136,-3.9759 0,-6.05836 8.868459,-11.22087 16.739307,-9.74428 6.012305,1.12791 8.491873,3.48403 9.373292,8.90663 0.622332,3.82867 1.440092,4.99429 3.899926,5.5589 1.886536,0.43303 3.990596,2.42345 5.341894,5.0534 5.313521,10.34139 -3.553442,23.73784 -13.26732,20.04463 -3.21148,-1.221 -3.3338,-1.12773 -2.560658,1.95272 0.53529,2.13277 0.221915,3.60864 -0.919757,4.33167 -2.600981,1.64722 -9.078617,1.35451 -11.651036,-0.52649 z m -5.502513,-59.43654 c -0.919526,-0.58285 -1.482026,-2.40236 -1.25,-4.04336 0.357004,-2.52491 1.286701,-3.07973 6.046865,-3.60864 l 5.625,-0.625 0.625,-9.00388 c 0.682866,-9.83752 1.926901,-12.04993 6.418331,-11.41445 2.846538,0.40275 2.969939,0.86763 3.312924,12.48069 0.347665,11.77145 0.275771,12.12566 -2.981073,14.6875 -3.502944,2.75542 -14.385966,3.68927 -17.797047,1.52714 z"
         id="path3604"
         inkscape:connector-curvature="0" />
      <path
         style="fill:#d9d9d9"
         d="m -126.11244,486.86779 c -6.71212,-3.72024 -6.29564,24.78369 -6.3433,-434.134297 -0.0341,-328.088243 0.3003,-427.259973 1.44907,-429.781243 3.33324,-7.31567 -18.2831,-6.84007 310.88575,-6.84007 231.87038,0 303.26855,0.34869 305.78081,1.49336 7.3554,3.35134 6.84008,-29.40324 6.84008,434.75664 0,464.15988 0.51532,431.4053 -6.84008,434.75664 -5.07455,2.31212 -607.59392,2.0649 -611.77233,-0.25103 z m 604.23741,-0.75561 c -0.4249,-0.6875 0.41123,-1.25 1.85805,-1.25 3.39411,0 8.76695,-5.37284 8.76695,-8.76695 0,-1.44682 0.5625,-2.28295 1.25,-1.85805 0.83239,0.51445 1.25,-140.42827 1.25,-421.875 0,-281.44672 -0.41761,-422.38945 -1.25,-421.875 -0.6875,0.4249 -1.25,-0.41122 -1.25,-1.85805 0,-3.39411 -5.37284,-8.76695 -8.76695,-8.76695 -1.44682,0 -2.28295,-0.5625 -1.85805,-1.25 0.5142,-0.832 -99.17828,-1.25 -298.125,-1.25 -198.946724,0 -298.63921,0.418 -298.125,1.25 0.4249,0.6875 -0.41122,1.25 -1.85805,1.25 -3.39411,0 -8.76695,5.37284 -8.76695,8.76695 0,1.44683 -0.5625,2.28295 -1.25,1.85805 -0.83239,-0.51445 -1.25,140.42828 -1.25,421.875 0,281.44673 0.41761,422.38945 1.25,421.875 0.6875,-0.4249 1.25,0.41123 1.25,1.85805 0,3.39411 5.37284,8.76695 8.76695,8.76695 1.44683,0 2.28295,0.5625 1.85805,1.25 -0.51421,0.832 99.178276,1.25 298.125,1.25 198.94672,0 298.6392,-0.418 298.125,-1.25 z m -571.99974,-41.4171 c -2.474858,-1.43533 -5.427983,-4.18108 -6.5625,-6.10166 -1.90492,-3.22477 -2.06276,-32.77894 -2.06276,-386.23124 0,-354.35788 0.15386,-382.99974 2.07491,-386.25181 1.141203,-1.9319 4.170915,-4.69057 6.732695,-6.13037 l 4.657781,-2.61782 269.034614,0 269.03461,0 4.65779,2.61782 c 2.56177,1.4398 5.59149,4.19847 6.73269,6.13037 1.92105,3.25207 2.07491,31.89393 2.07491,386.25181 0,354.35788 -0.15386,382.99974 -2.07491,386.25181 -1.1412,1.9319 -4.17092,4.69056 -6.73269,6.13036 l -4.65779,2.61783 -269.2048,-0.0287 -269.20481,-0.0287 -4.49974,-2.60968 z m 545.85056,-9.13431 c 2.67352,-3.65636 2.67345,-762.74093 -6e-5,-766.39718 -1.74682,-2.38892 -5.94846,-2.42641 -271.97576,-2.42641 -266.0273,0 -270.228938,0.0375 -271.975764,2.42641 -1.523121,2.08299 -1.774236,56.31862 -1.774236,383.19859 0,302.71322 0.320315,381.18391 1.5625,382.78064 0.859375,1.10465 2.6875,2.2745 4.0625,2.59965 1.375,0.32516 123.061,0.51323 270.41332,0.41795 263.6585,-0.17049 267.94149,-0.21178 269.6875,-2.59965 z m -61.89124,-45.54055 c -0.73402,-1.37153 -1.33458,-6.3923 -1.33458,-11.15729 0,-6.87199 0.53576,-9.34471 2.59072,-11.95717 2.32363,-2.95402 3.42762,-3.29358 10.70803,-3.29358 l 8.1173,0 -0.39553,3.4375 c -0.35383,3.0752 -0.95482,3.47798 -5.70217,3.82159 -6.03808,0.43702 -6.34234,1.02884 -6.8716,13.36591 -0.28478,6.63809 -0.63525,7.54463 -3.04967,7.88835 -1.722,0.24515 -3.22005,-0.53119 -4.0625,-2.10531 z M 387.93716,345.413 c -2.38064,-2.38063 -3.06113,-4.13965 -2.65966,-6.875 0.43311,-2.951 0.078,-3.67582 -1.80084,-3.67582 -4.11043,0 -8.47721,-5.60829 -8.47201,-10.88069 0.01,-9.83071 7.36483,-16.13212 15.32343,-13.12809 3.21499,1.21353 3.53605,1.12685 2.76569,-0.74666 -2.04677,-4.97782 -1.37962,-5.85925 4.73145,-6.25107 4.57495,-0.29333 6.13013,0.0873 6.72848,1.64652 0.42802,1.11541 0.14103,2.66523 -0.63775,3.44401 -0.77879,0.77879 -1.41598,2.16702 -1.41598,3.08495 0,1.26273 0.58854,1.35402 2.41783,0.375 4.3124,-2.30792 8.85631,-1.46215 12.67832,2.35988 4.93055,4.93054 5.21005,13.65359 0.58566,18.27796 -1.6875,1.6875 -4.21875,3.06819 -5.625,3.06819 -1.99348,0 -2.55681,0.80622 -2.55681,3.65927 0,8.50708 -15.28806,12.4163 -22.06281,5.64155 z M 150.75871,136.63494 c -1.2728,-3.31685 -0.84709,-9.93441 0.74126,-11.52276 0.9869,-0.9869 6.25714,-1.5 15.40711,-1.5 20.04634,0 19.33746,1.1013 19.36203,-30.080563 0.01,-13.361937 0.48459,-25.028275 1.05345,-25.925187 0.70894,-1.11775 3.35716,-1.510963 8.41836,-1.25 l 7.38405,0.38075 0.37292,29.375 0.37294,29.375 -7.24794,6.56024 -7.24792,6.56025 -18.92876,0.002 c -16.10882,0.002 -19.0418,-0.2923 -19.6875,-1.97498 z M 121.87497,32.433643 C 106.89159,12.590855 106.86961,12.569018 102.04371,12.736855 c -5.49209,0.191 -9.54374,-3.4761875 -9.54374,-8.63815 0,-7.744675 11.71137,-11.0995875 15.87981,-4.549025 1.20309,1.890625 2.63869,3.762075 3.19023,4.158775 0.55152,0.3967 7.23131,1.461975 14.84398,2.3672875 10.78758,1.282875 14.04704,1.3129625 14.7742,0.1364 0.51315,-0.8302875 1.64443,-6.2915125 2.51394,-12.13605 1.52048,-10.2199255 1.47991,-10.7339745 -1.0606,-13.4382245 -3.45511,-3.677801 -3.3541,-8.420513 0.2515,-11.807801 6.01164,-5.647624 14.60694,-1.264749 14.60694,7.448301 0,3.915237 1.18347,5.465362 11.15192,14.606937 6.13355,5.624775 11.74949,10.226875 12.47988,10.226875 0.73037,0 6.38709,-4.640625 12.57047,-10.3125 10.25365,-9.405438 11.24495,-10.720513 11.27013,-14.9513 0.0522,-8.79055 8.45976,-12.667675 14.45941,-6.668013 3.78621,3.7862 3.87795,6.815213 0.34258,11.309726 -2.62619,3.33865 -2.66907,3.857849 -1.17527,14.2310745 0.85269,5.9213125 2.04488,11.26605 2.6493,11.8772 0.6408,0.647925 6.8996,0.4213625 15.01259,-0.5434375 13.09949,-1.5578125 14.01554,-1.8516875 15.65508,-5.0222125 2.99903,-5.7994875 9.00977,-6.6083125 13.76572,-1.85235 1.6875,1.6875 3.06819,4.2443125 3.06819,5.6818125 0,4.05575 -5.47821,8.745325 -10.25569,8.779275 -3.83785,0.02725 -5.1036,1.329788 -18.52451,19.0625 -16.5611,21.881762 -14.0453,20.74145 -33.7198,15.283788 -10.77654,-2.989401 -13.43596,-3.246488 -28.75,-2.779325 -13.96977,0.42615 -18.59661,1.083512 -26.875,3.818312 -5.5,1.816938 -10.84375,3.296375 -11.875,3.287638 -1.03125,-0.0088 -8.625,-8.955076 -16.875,-19.880725 z M -44.553758,-200.77783 c -0.428026,-1.11541 -0.141038,-2.66523 0.637749,-3.44401 0.778789,-0.77879 1.415979,-2.16702 1.415979,-3.08495 0,-1.26273 -0.588535,-1.35402 -2.417824,-0.37501 -4.312406,2.30793 -8.856307,1.46216 -12.67833,-2.35987 -4.930541,-4.93054 -5.210045,-13.65359 -0.585665,-18.27796 1.6875,-1.6875 4.21875,-3.06819 5.625,-3.06819 1.993489,0 2.556819,-0.80622 2.556819,-3.65927 0,-8.50708 15.28806,-12.4163 22.062806,-5.64155 2.380639,2.38063 3.061136,4.13965 2.659674,6.875 -0.433116,2.951 -0.07801,3.67582 1.800829,3.67582 4.110434,0 8.477211,5.60829 8.472018,10.88069 -0.0096,9.83071 -7.364842,16.13212 -15.323437,13.12809 -3.214994,-1.21353 -3.536049,-1.12685 -2.765696,0.74666 2.046785,4.97782 1.379628,5.85925 -4.731444,6.25107 -4.574953,0.29333 -6.130123,-0.0872 -6.728478,-1.64652 z m -5.851682,-59.86349 c -1.142463,-2.97721 2.043982,-5.60116 7.28041,-5.99523 l 5,-0.37627 0.354204,-8.75 c 0.391395,-9.66871 2.400478,-12.83013 6.693471,-10.53259 1.98246,1.06098 2.327325,2.78117 2.327325,11.60868 0,9.21624 -0.320174,10.66391 -2.893064,13.08102 -2.315332,2.17514 -4.410392,2.71789 -10.491264,2.71789 -5.366853,0 -7.795803,-0.51495 -8.271082,-1.7535 z"
         id="path3602"
         inkscape:connector-curvature="0" />
      <path
         style="fill:#a7a7a7"
         d="m -125.29682,486.65544 c -7.80201,-4.23332 -7.20321,31.86901 -7.20321,-434.29326 0,-377.55168 0.21218,-425.53447 1.89616,-428.79092 4.16641,-8.05695 -20.72942,-7.45908 310.60384,-7.45908 331.33326,0 306.43743,-0.59787 310.60384,7.45908 1.68397,3.25645 1.89616,51.23924 1.89616,428.79092 0,377.55167 -0.21219,425.53448 -1.89616,428.79091 -4.16719,8.05847 20.77151,7.46407 -310.85427,7.40904 -264.35141,-0.0439 -302.04742,-0.27947 -305.04636,-1.90669 z m 608.22261,-1.32502 c 2.49494,-1.18975 5.10267,-3.79748 6.29242,-6.29242 1.86327,-3.90731 2.03176,-39.29136 2.03176,-426.67582 0,-387.38446 -0.16849,-422.76852 -2.03176,-426.67583 -4.31982,-9.05876 22.96789,-8.32417 -309.21824,-8.32417 -332.18613,0 -304.89842,-0.73459 -309.21824,8.32417 -1.86327,3.90731 -2.03176,39.29137 -2.03176,426.67583 0,387.60578 0.16764,422.76674 2.03436,426.68127 4.22763,8.86544 -22.58673,8.15018 308.86073,8.23879 273.5715,0.0731 299.3827,-0.093 303.28073,-1.95182 z M -92.547668,444.54968 c -3.62985,-1.83042 -6.340518,-4.34017 -7.762922,-7.1875 -2.06637,-4.13641 -2.18566,-25.13354 -2.1875,-385.0195 -0.002,-368.36615 0.0729,-380.78399 2.31723,-384.96885 1.36775,-2.55031 4.525215,-5.49092 7.696605,-7.16799 l 5.377434,-2.84366 267.106791,0 267.10679,0 5.37743,2.84366 c 3.17139,1.67707 6.32885,4.61768 7.6966,7.16799 2.24437,4.18486 2.31912,16.6027 2.31724,384.96885 -0.001,359.88596 -0.12112,380.88309 -2.1875,385.0195 -1.4224,2.84733 -4.13307,5.35708 -7.76292,7.1875 l -5.57737,2.8125 -266.97027,0 -266.970275,0 -5.577363,-2.8125 z m 544.654578,-8.65539 2.89306,-2.7179 0,-380.639035 0,-380.639045 -2.71789,-2.89307 -2.7179,-2.89306 -269.38903,0 -269.389053,0 -2.893063,2.71789 -2.893064,2.7179 0,380.639035 0,380.639055 2.717892,2.89306 2.717893,2.89306 269.389045,0 269.38904,0 2.89307,-2.71789 z m -61.22088,-45.56271 c -0.48734,-0.48734 -0.88606,-5.53274 -0.88606,-11.21201 0,-9.66644 0.21035,-10.4914 3.29357,-12.91667 4.08517,-3.21338 13.10447,-3.54966 15.56869,-0.58046 1.41751,1.708 1.31063,2.27185 -0.71086,3.75 -1.30857,0.95687 -4.2168,1.73974 -6.46274,1.73974 l -4.0835,0 -0.36509,9.6875 c -0.32626,8.65776 -0.63627,9.72633 -2.91651,10.05273 -1.40329,0.20087 -2.95016,-0.0335 -3.4375,-0.52083 z m 0.36394,-43.84709 c -3.82633,-1.96547 -4.4232,-2.91356 -4.75938,-7.55981 -0.33207,-4.58973 -0.7734,-5.3125 -3.24376,-5.3125 -6.42581,0 -9.81592,-9.00896 -6.1084,-16.23261 3.1416,-6.12101 7.11704,-7.86202 12.662,-5.54518 5.23995,2.18939 6.16971,1.55121 3.90503,-2.68038 -1.46957,-2.74589 -1.45493,-3.36892 0.10225,-4.35398 2.32247,-1.46917 6.30607,-1.47297 8.62116,-0.009 1.47109,0.93075 1.52875,1.74531 0.3125,4.41468 -2.67176,5.86388 -1.99205,6.89143 2.90655,4.39398 5.17995,-2.64088 8.07311,-2.13575 12.05724,2.10515 5.87807,6.25743 2.66339,19.15709 -4.77393,19.15709 -2.27551,0 -2.93126,0.6835 -2.93126,3.0553 0,7.98454 -10.52344,12.79278 -18.75,8.56701 z M 152.81247,137.78433 c -2.01034,-0.81119 -2.05899,-10.67566 -0.0625,-12.67215 0.9869,-0.9869 6.25714,-1.5 15.40711,-1.5 20.10936,0 19.34289,1.22381 19.34289,-30.884325 0,-21.733163 0.2651,-25.199925 1.97724,-25.856937 3.0594,-1.174001 9.17731,-0.897788 11.85493,0.535237 2.2788,1.219575 2.41783,2.887212 2.41783,29.001175 l 0,27.70719 -7.45404,7.24883 -7.45404,7.24883 -17.23346,-0.0987 c -9.4784,-0.0542 -17.93659,-0.3824 -18.79596,-0.72916 z M 136.22448,49.676392 C 134.81534,48.05983 127.62701,38.86218 120.25039,29.23718 108.07538,13.351243 106.51664,11.775093 103.35011,12.148192 98.216395,12.753067 93.74997,9.34988 93.74997,4.8333675 c 0,-4.2962125 3.8342,-8.7211875 7.55681,-8.7211875 2.4756,0 7.80811,4.3260375 8.82103,7.1561125 0.60701,1.6959875 29.83848,5.8855875 31.22135,4.4747875 0.54228,-0.55325 1.89647,-6.2802125 3.0093,-12.7265875 2.00256,-11.6005245 1.99627,-11.7458875 -0.61324,-14.1770245 -3.6567,-3.406725 -2.9245,-9.321475 1.56725,-12.660263 l 3.4375,-2.55515 3.4375,2.556175 c 2.49517,1.855463 3.60884,3.973138 4.0625,7.725075 0.56092,4.63895 1.82374,6.260175 12.31709,15.8128875 6.43065,5.8541875 11.97443,10.6439875 12.31955,10.6439875 0.95231,0 7.57845,-5.6769125 16.58247,-14.206962 5.83678,-5.529513 8.14631,-8.626713 8.28125,-11.105538 0.10288,-1.890625 0.25745,-4.2668 0.34339,-5.2804 0.19341,-2.281237 6.36129,-5.5344 8.90625,-4.697487 6.35511,2.089912 8.13026,8.752812 3.61302,13.561187 -2.61724,2.785938 -2.62136,2.898525 -0.54978,15.0516125 1.14795,6.7345625 2.26936,12.42685 2.49202,12.6495125 0.92459,0.9245875 30.10368,-3.5855875 30.48083,-4.7113875 0.2261,-0.6749 1.3851,-2.429925 2.57554,-3.9000625 4.35857,-5.3826125 13.88837,-1.856025 13.88837,5.139525 0,4.4479375 -3.57194,7.491025 -8.84842,7.538375 -4.03012,0.03613 -5.05789,1.075788 -17.83366,18.039475 -7.4564,9.900613 -14.53133,18.8828 -15.7221,19.960425 -1.97425,1.786675 -2.94691,1.693375 -11.03878,-1.05885 -19.91624,-6.773937 -41.98015,-7.361325 -60.93204,-1.622112 -5.5,1.665575 -10.97615,3.448575 -12.16921,3.962225 -1.5035,0.647287 -2.95549,0.03188 -4.73128,-2.005325 z M -42.42896,-200.06744 c -1.471081,-0.93075 -1.528741,-1.74532 -0.3125,-4.41468 2.671766,-5.86389 1.99206,-6.89144 -2.906549,-4.39399 -5.179944,2.64089 -8.073112,2.13575 -12.057232,-2.10515 -5.878049,-6.2569 -2.663364,-19.15656 4.773946,-19.15656 2.275516,0 2.931265,-0.6835 2.931265,-3.0553 0,-1.68041 1.357546,-4.63354 3.01677,-6.5625 2.45153,-2.85006 4.042734,-3.5072 8.492474,-3.5072 8.108547,0 12.240756,3.17453 12.240756,9.40381 0,4.38165 0.347621,4.97119 2.931265,4.97119 6.493662,0 9.908391,8.96885 6.180275,16.23261 -3.141609,6.12102 -7.117036,7.86202 -12.662001,5.54518 -5.239955,-2.18939 -6.169709,-1.55121 -3.905023,2.68039 1.469553,2.74588 1.454918,3.36891 -0.102287,4.35397 -2.322472,1.46918 -6.306076,1.47298 -8.621163,0.009 z m -7.151279,-60.7794 c -1.074662,-2.80053 0.733735,-4.06677 6.455209,-4.51995 l 5,-0.39603 0.625,-9.00388 c 0.649162,-9.35198 2.198467,-12.48397 5.540979,-11.20133 1.56245,0.59957 1.959021,2.86644 1.959021,11.19809 0,9.30322 -0.31658,10.74375 -2.893064,13.16423 -3.645935,3.42518 -15.457859,3.96234 -16.687145,0.75887 z"
         id="path3600"
         inkscape:connector-curvature="0" />
      <path
         style="fill:#5c5c5c"
         d="m -123.31817,487.65554 c -0.79372,-0.5051 135.69944,-0.91836 303.31814,-0.91836 167.6187,0 304.11186,0.41326 303.31814,0.91836 -0.79373,0.5051 -137.28689,0.91835 -303.31814,0.91835 -166.03125,0 -302.52441,-0.41325 -303.31814,-0.91835 z m -8.394,-9.35586 c -1.04719,-3.90756 -0.81151,-849.81015 0.2375,-852.45337 0.4673,-1.17748 0.84964,190.77565 0.84964,426.562495 0,235.786865 -0.075,428.703375 -0.16671,428.703375 -0.0917,0 -0.50589,-1.26562 -0.92043,-2.8125 z M 490.62497,52.36218 c 0,-235.7612 0.38234,-427.69335 0.84964,-426.51587 0.46731,1.17748 0.84965,193.10962 0.84965,426.51587 0,233.40625 -0.38234,425.33839 -0.84965,426.51588 -0.4673,1.17747 -0.84964,-190.75468 -0.84964,-426.51588 z m -583.24974,391.0829 c -2.474858,-1.43533 -5.427983,-4.18108 -6.5625,-6.10166 -1.90488,-3.2247 -2.06276,-32.69062 -2.06276,-384.98124 0,-359.24203 0.12597,-381.70253 2.160194,-385.14619 1.188107,-2.0113 4.459452,-4.76997 7.269656,-6.13036 5.042235,-2.44091 8.618604,-2.47345 271.82015,-2.47345 263.20155,0 266.77791,0.0325 271.82015,2.47345 2.8102,1.36039 6.08155,4.11906 7.26965,6.13036 2.03423,3.44366 2.1602,25.90416 2.1602,385.14619 0,353.19324 -0.1539,381.7498 -2.07491,385.00181 -1.1412,1.9319 -4.17092,4.69056 -6.73269,6.13036 l -4.65779,2.61783 -267.9548,-0.0287 -267.95481,-0.0287 -4.49974,-2.60968 z m 545.29876,-5.97244 2.95098,-2.38954 0.3433,-379.797957 c 0.18881,-208.888873 0.0339,-381.077893 -0.34429,-382.642263 -0.37819,-1.56436 -1.7983,-3.95498 -3.15581,-5.3125 -2.44236,-2.44237 -5.29424,-2.4682 -272.4682,-2.4682 -267.173965,0 -270.025834,0.0258 -272.468205,2.46821 -1.357513,1.35751 -2.777624,3.74813 -3.155801,5.3125 -0.378179,1.56436 -0.533112,173.75338 -0.344295,382.642253 l 0.343301,379.797957 2.95098,2.38954 c 2.88513,2.33622 8.969771,2.38954 272.67402,2.38954 263.70425,0 269.78889,-0.0534 272.67402,-2.38954 z m -61.42402,-58.07292 c 0,-9.58403 0.27707,-10.83985 2.77814,-12.59166 3.15287,-2.20837 12.90118,-2.63053 14.14826,-0.61272 1.22642,1.9844 -0.14595,2.80294 -6.01211,3.58589 l -5.28929,0.70595 -0.625,9.36323 c -0.50903,7.6258 -1.0309,9.4404 -2.8125,9.77915 -1.94466,0.36976 -2.1875,-0.76589 -2.1875,-10.22984 z m -0.3125,-33.93481 c -2.93723,-1.65132 -3.4375,-2.73388 -3.4375,-7.43845 0,-5.29549 -0.15491,-5.52085 -4.05381,-5.89758 -5.5706,-0.53826 -8.08673,-5.61514 -6.08843,-12.28487 0.77205,-2.57689 2.27488,-5.40824 3.33959,-6.29188 2.89014,-2.3986 8.95149,-1.94097 12.12532,0.91545 4.57251,4.11521 6.83123,4.30413 11.72823,0.98094 5.5204,-3.74625 6.69955,-3.80404 10.85905,-0.53218 7.05691,5.55098 5.18318,17.53422 -2.92334,18.69584 -3.99992,0.57318 -4.3301,0.94075 -3.98163,4.4327 0.25552,2.56046 -0.42923,4.54001 -2.09048,6.04343 -3.39917,3.07622 -11.21702,3.77157 -15.477,1.3766 z m 4.79911,-34.50455 c -2.2868,-4.58403 -1.69377,-6.09818 2.38839,-6.09818 3.96349,0 4.59065,1.35334 2.81151,6.06683 -1.8594,4.9261 -2.75537,4.9315 -5.1999,0.0314 z M 152.99767,135.60618 c -0.37061,-0.96581 -0.49359,-3.63769 -0.27328,-5.9375 l 0.40058,-4.1815 14.49,-0.35046 c 13.9686,-0.33785 14.60859,-0.47423 17.78517,-3.78986 l 3.29515,-3.43942 0.33984,-24.960122 0.33984,-24.960138 3.58854,-0.4101 c 1.9737,-0.225563 4.92682,-0.07425 6.5625,0.336313 l 2.97396,0.746412 0,27.740788 0,27.740777 -7.10294,6.61041 -7.10294,6.6104 -17.31128,0 c -13.71334,0 -17.45135,-0.36496 -17.98514,-1.756 z m -18.88741,-90.4315 c -2.67988,-3.265625 -9.58557,-12.125 -15.34595,-19.6875 -5.76039,-7.5625 -10.969,-14.086925 -11.5747,-14.498712 -0.60569,-0.411788 -2.4081,-0.498888 -4.00538,-0.19355 -4.56601,0.872837 -8.18426,-1.729988 -8.18426,-5.887438 0,-8.476725 9.12381,-10.2827375 13.10028,-2.5931125 1.6687,3.2269 2.56197,3.5064625 17.62094,5.5146625 8.72474,1.1635 16.17064,1.8079625 16.54645,1.4321375 0.37582,-0.3758125 1.69864,-6.3697375 2.93962,-13.319825 l 2.25631,-12.6365375 -3.1068,-3.692213 c -3.85451,-4.580825 -3.8578,-5.36305 -0.0386,-9.182225 3.83082,-3.830825 5.03057,-3.833075 8.84707,-0.01663 2.30852,2.308525 2.88027,3.908275 2.34798,6.569713 -0.63693,3.184675 0.49292,4.613237 11.92149,15.0733875 6.94381,6.3554125 13.12358,11.5552875 13.73281,11.5552875 0.60923,0 6.64264,-5.094525 13.40758,-11.321175 11.15522,-10.267588 12.29989,-11.73645 12.29989,-15.783413 0,-3.384625 0.81285,-5.073737 3.36595,-6.994462 3.19137,-2.4009 3.53174,-2.4236 6.5625,-0.437775 3.9493,2.587675 4.2318,7.648725 0.64033,11.471662 -2.51731,2.67955 -2.52473,2.90905 -0.48785,15.080563 1.1376,6.797775 2.48969,12.8145125 3.00463,13.3705125 0.51495,0.5560125 7.22257,0.1341375 14.90584,-0.9375 7.68325,-1.071625 14.49827,-1.9484125 15.14447,-1.9484125 0.64621,0 2.02695,-1.6476375 3.06831,-3.6614125 2.41645,-4.6729 6.14339,-5.8855 10.10702,-3.2884375 2.06733,1.354575 3.0638,3.167975 3.0638,5.5756125 0,4.4758125 -1.8999,6.0785375 -7.8162,6.5935995 -4.40746,0.383701 -5.45732,1.453663 -19.40887,19.780638 -10.88837,14.303125 -15.39079,19.31435 -17.19966,19.143325 -1.34765,-0.127425 -7.23152,-1.701675 -13.07527,-3.498338 -19.63443,-6.0366 -44.00099,-5.290487 -62.99533,1.92895 -3.50882,1.333638 -6.46792,2.425088 -6.57577,2.425438 -0.10788,3.37e-4 -2.38874,-2.67125 -5.06861,-5.936875 z M -41.76182,-201.20464 c -0.794259,-1.28514 1.940491,-8.93318 3.194285,-8.93318 1.348232,0 4.8713,7.65169 4.09867,8.90183 -0.870641,1.40872 -6.426928,1.43261 -7.292955,0.0314 z m 12.202199,-6.43647 c -1.476525,-0.58933 -3.07804,-1.70813 -3.558924,-2.48622 -0.480884,-0.77808 -2.223081,-1.92749 -3.871551,-2.55424 -2.354223,-0.89507 -3.974574,-0.47629 -7.553009,1.9521 -5.528589,3.75181 -6.706461,3.81006 -10.866871,0.53749 -7.056919,-5.55098 -5.183185,-17.53421 2.923336,-18.69584 3.999925,-0.57317 4.3301,-0.94075 3.981629,-4.4327 -0.721848,-7.23346 9.187583,-11.61411 17.061497,-7.54235 3.520423,1.82048 3.943484,2.63076 3.943484,7.55295 0,5.30431 0.153952,5.52858 4.053806,5.9054 5.570609,0.53826 8.086731,5.61514 6.088431,12.28488 -2.035211,6.79292 -6.722262,9.66563 -12.201828,7.47853 z m -18.357075,-53.33004 c -1.802808,-1.80281 -0.657565,-2.91667 2.998842,-2.91667 7.132264,0 8.667824,-1.76124 8.667824,-9.94174 0,-8.4879 0.812752,-11.30826 3.258736,-11.30826 1.349245,0 1.741264,2.34844 1.741264,10.43127 0,12.48952 -1.456086,14.56873 -10.202593,14.56873 -3.096907,0 -6.005741,-0.375 -6.464073,-0.83333 z M -122.7659,-382.86246 c 2.79892,-1.11081 602.73282,-1.11081 605.53174,0 1.17748,0.4673 -135.06717,0.84964 -302.76587,0.84964 -167.6987,0 -303.94335,-0.38234 -302.76587,-0.84964 z"
         id="path3598"
         inkscape:connector-curvature="0" />
      <path
         style="fill:#2d2d2d"
         d="m 29.68747,487.67473 c 82.67187,-0.17745 217.95312,-0.17745 300.625,0 82.67187,0.17744 15.03125,0.32263 -150.3125,0.32263 -165.34375,0 -232.984375,-0.14519 -150.3125,-0.32263 z M -131.88228,52.36218 c 0,-233.40625 0.14388,-328.89062 0.31973,-212.1875 0.17585,116.703125 0.17585,307.67188 0,424.375 -0.17585,116.70313 -0.31973,21.21875 -0.31973,-212.1875 z m 623.75,0 c 0,-233.40625 0.14387,-328.89062 0.31972,-212.1875 0.17585,116.703125 0.17585,307.67188 0,424.375 -0.17585,116.70313 -0.31972,21.21875 -0.31972,-212.1875 z M -92.041638,442.46461 c -2.154133,-1.31353 -4.826008,-3.68659 -5.9375,-5.27347 -1.850488,-2.64193 -2.020892,-35.10033 -2.020892,-384.938522 l 0,-382.053288 2.61037,-3.31855 c 5.935135,-7.5453 -14.88122,-7.0186 277.38963,-7.0186 292.27085,0 271.4545,-0.5267 277.38962,7.0186 l 2.61038,3.31855 0,382.16285 0,382.16285 -2.61038,3.31855 c -5.93532,7.54555 14.90662,7.01903 -277.64005,7.01392 -261.491429,-0.005 -267.967899,-0.0616 -271.791178,-2.39289 z m 542.525358,-2.54873 c 1.73059,-0.65796 4.0172,-2.88002 5.08137,-4.93793 1.73402,-3.35319 1.93488,-43.07317 1.93488,-382.61577 0,-339.5426 -0.20086,-379.26257 -1.93488,-382.61578 -1.06417,-2.05789 -3.35078,-4.27996 -5.08137,-4.93792 -4.27991,-1.62722 -536.687594,-1.62722 -540.967505,0 -1.730577,0.65796 -4.017196,2.88003 -5.081375,4.93792 -1.734008,3.35321 -1.93487,43.07318 -1.93487,382.61578 0,340.01184 0.199037,379.25905 1.94045,382.62656 1.067247,2.06384 3.176622,4.25025 4.6875,4.8587 3.836162,1.54488 537.2951,1.61232 541.3558,0.0685 z m -57.98375,-61.25973 c 0,-8.5639 0.33807,-10.13695 2.41782,-11.25 3.14228,-1.68168 12.99173,-1.71791 11.95718,-0.044 -0.4249,0.6875 -2.6883,1.25 -5.02979,1.25 -5.44541,3e-5 -6.84521,2.53939 -6.84521,12.41786 0,4.22145 -0.55405,7.58217 -1.25,7.58217 -0.72871,0 -1.25,-4.15201 -1.25,-9.95603 z m -1.10888,-33.89632 c -2.75568,-1.10258 -2.92613,-1.6814 -2.22887,-7.56874 l 0.75501,-6.37486 -3.73467,0.74694 c -7.2326,1.44651 -10.92814,-6.23273 -6.8213,-14.17448 3.11244,-6.01878 9.56002,-6.09236 14.89495,-0.16996 3.06441,3.40186 4.62319,3.32855 10.23769,-0.48155 5.74206,-3.89667 7.33992,-3.90479 11.18788,-0.0568 6.43138,6.43136 2.43315,17.7423 -5.69683,16.11631 l -3.81712,-0.76342 0.79954,5.00009 c 0.68941,4.31135 0.39849,5.28101 -2.11206,7.03946 -3.20595,2.24554 -8.84933,2.5335 -13.46421,0.68702 z m 5.24495,-34.74174 c -1.69568,-2.71775 -0.98926,-3.90591 2.32227,-3.90591 2.68417,0 2.8944,1.19856 0.72916,4.15724 -1.46078,1.99603 -1.65944,1.97967 -3.05143,-0.25133 z m -242.88607,-178.90591 0,-5 14.0625,-0.006 c 12.96059,-0.006 14.35635,-0.24113 17.8125,-3.00424 l 3.75,-2.99803 0.38459,-25.814118 0.38458,-25.8141 5.24042,0.380851 5.24041,0.38085 0.33595,27.640625 0.33596,27.640612 -6.78532,5.79689 -6.78532,5.79687 -16.98813,0 -16.98814,0 0,-5 z m -23.32736,-92.1436 c -4.7012,-6.092087 -11.6356,-15.13325 -15.40978,-20.091463 -6.20739,-8.154774 -7.28082,-9.016762 -11.25,-9.0340745 -7.096498,-0.031 -10.062297,-3.8193875 -6.722685,-8.5873625 2.819025,-4.024725 7.279085,-3.3787375 10.139025,1.4685 2.41691,4.0963625 2.48745,4.1199875 18.53986,6.2086125 9.71941,1.2646255 16.56663,1.6436995 17.25503,0.9553 0.62772,-0.627725 2.09801,-6.8039875 3.26731,-13.72505 l 2.12601,-12.5837245 -2.9337,-3.976426 c -3.56647,-4.834074 -3.59194,-5.332487 -0.43371,-8.490712 3.12797,-3.127975 4.3677,-3.1323 7.47396,-0.026 1.78011,1.780112 2.2738,3.474712 1.7603,6.042238 -0.65144,3.2572 0.43908,4.621612 12.50915,15.651037 7.27254,6.6455125 13.82225,12.0827625 14.55492,12.0827625 0.73266,0 5.66213,-4.0089125 10.9544,-8.9087125 15.57755,-14.42235 16.53167,-15.606812 15.74402,-19.54505 -1.00179,-5.00895 3.241,-8.772637 7.63332,-6.771362 3.87883,1.7673 4.20365,7.035425 0.666,10.801087 -2.38575,2.5395 -2.39821,2.958525 -0.4484,15.0805625 1.10304,6.8576625 2.62918,13.1382125 3.39143,13.956775 1.0706,1.1497005 4.7985,1.0590375 16.3859,-0.398475 12.58922,-1.5835375 15.3515,-2.324975 17.18706,-4.6133 1.20289,-1.4995875 2.77194,-3.42965 3.48679,-4.289025 1.87684,-2.2563 4.58961,-1.9240375 7.4228,0.90915 4.23842,4.238425 0.0533,10.4708255 -6.19256,9.2216625 -3.18044,-0.6360875 -4.45044,0.687513 -18.64995,19.437063 -8.38042,11.06575 -15.48223,20.119587 -15.78182,20.119587 -0.29957,0 -4.63466,-1.366287 -9.63351,-3.036187 -22.89659,-7.648788 -48.66655,-6.789713 -72.41617,2.414087 -1.55962,0.6044 -4.20774,-1.955625 -10.625,-10.2715 z M -41.25003,-202.09499 c 0,-0.38895 0.60715,-1.84165 1.349221,-3.22823 1.295013,-2.41975 1.416114,-2.42956 3.014155,-0.2441 0.915714,1.25231 1.400368,2.70501 1.077008,3.22821 -0.676316,1.0943 -5.440384,1.30807 -5.440384,0.24412 z m 11.875,-6.72453 c -1.375,-0.56277 -3.571555,-2.21461 -4.881235,-3.67076 -3.063589,-3.4062 -4.621879,-3.33353 -10.237688,0.47746 -5.742063,3.89668 -7.339928,3.90479 -11.187896,0.0567 -6.431369,-6.43136 -2.43314,-17.7423 5.696848,-16.11631 l 3.817112,0.76342 -0.799546,-5.00008 c -0.689412,-4.31135 -0.398481,-5.28102 2.112061,-7.03947 3.33271,-2.33432 8.179717,-2.61457 13.069087,-0.75563 3.21509,1.22237 3.340462,1.58796 2.622743,7.64797 l -0.75375,6.36424 3.734674,-0.74694 c 7.203846,-1.44076 10.929494,6.2301 6.853821,14.11159 -2.482693,4.801 -5.24168,5.87416 -10.046231,3.9077 z m -17.5,-53.8183 c 0.424899,-0.6875 2.595595,-1.25 4.823771,-1.25 5.906576,0 7.051229,-1.88375 7.051229,-11.60417 0,-6.32513 0.413867,-8.46752 1.5625,-8.08828 2.479141,0.81851 2.744804,15.53072 0.346536,19.19094 -1.645266,2.51099 -2.995421,3.00151 -8.261624,3.00151 -3.878331,0 -5.998377,-0.47987 -5.522412,-1.25 z m 76.5625,-120.93745 c 82.67187,-0.17745 217.95312,-0.17745 300.625,0 82.67187,0.17744 15.03125,0.32262 -150.3125,0.32262 -165.34375,0 -232.984375,-0.14518 -150.3125,-0.32262 z"
         id="path3596"
         inkscape:connector-curvature="0" />
      <path
         style="fill:#171717"
         d="m 30.31247,487.67473 c 82.32812,-0.17747 217.04687,-0.17747 299.375,0 82.32812,0.17746 14.96875,0.32266 -149.6875,0.32266 -164.65625,0 -232.015625,-0.1452 -149.6875,-0.32266 z M -131.88228,52.36218 c 0,-233.40625 0.14388,-328.89062 0.31973,-212.1875 0.17585,116.703125 0.17585,307.67188 0,424.375 -0.17585,116.70313 -0.31973,21.21875 -0.31973,-212.1875 z m 623.75,0 c 0,-233.40625 0.14387,-328.89062 0.31972,-212.1875 0.17585,116.703125 0.17585,307.67188 0,424.375 -0.17585,116.70313 -0.31972,21.21875 -0.31972,-212.1875 z M -92.729189,441.46497 c -1.844787,-1.14439 -4.094787,-3.46458 -5,-5.15598 -2.456761,-4.5905 -2.442321,-763.3301 0.01461,-767.92093 0.91325,-1.70642 3.25004,-4.04158 5.192865,-5.18923 3.269691,-1.93146 23.538277,-2.08665 272.521684,-2.08665 248.9834,0 269.25199,0.15519 272.52167,2.08665 1.94283,1.14765 4.27963,3.48281 5.19288,5.18923 2.46986,4.61499 2.46986,763.33324 0,767.94824 -0.91325,1.70642 -3.25005,4.04158 -5.19288,5.18923 -3.27018,1.93175 -23.51477,2.08418 -272.71453,2.05339 -248.888008,-0.0307 -269.435019,-0.19013 -272.536302,-2.11395 z m 547.160969,-3.42098 3.06819,-3.06817 0,-382.61364 0,-382.61364 -3.06819,-3.06818 -3.06817,-3.06818 -271.36364,0 -271.363636,0 -3.068183,3.06818 -3.068181,3.06818 0,382.61364 0,382.61364 3.068181,3.06817 3.068183,3.06819 271.363636,0 271.36364,0 3.06817,-3.06819 z m -61.93181,-59.36093 c 0,-7.51269 0.36785,-8.93677 2.73709,-10.59625 1.50538,-1.05442 3.04758,-1.60663 3.42708,-1.22713 0.3795,0.3795 -0.28968,1.23826 -1.48708,1.90836 -1.74377,0.97587 -2.17709,2.94759 -2.17709,9.90625 0,4.95859 -0.53656,8.68789 -1.25,8.68789 -0.71331,0 -1.25,-3.72638 -1.25,-8.67913 z m -1.81916,-35.50048 c -1.73755,-1.27053 -2.0906,-2.56441 -1.44958,-5.3125 1.70314,-7.30153 1.66093,-7.4089 -2.7446,-6.98029 -5.45727,0.53095 -7.73666,-1.57633 -7.73666,-7.15254 0,-9.94822 6.68987,-12.95502 14.18402,-6.37507 5.18767,4.55483 6.29887,4.61771 11.04394,0.625 2.04261,-1.71875 5.04505,-3.125 6.67206,-3.125 5.5739,0 8.81294,8.99654 5.4807,15.22286 -1.15113,2.15091 -2.14962,2.43373 -6.26758,1.77524 l -4.8983,-0.78326 0.80125,5.0108 c 0.52085,3.25716 0.2547,5.66939 -0.76046,6.89258 -1.96292,2.36517 -11.18867,2.49538 -14.32479,0.20218 z m 6.19416,-34.5704 c -0.4249,-0.6875 0.10437,-1.25 1.17622,-1.25 1.07183,0 1.94878,0.5625 1.94878,1.25 0,0.6875 -0.5293,1.25 -1.17623,1.25 -0.64692,0 -1.52387,-0.5625 -1.94877,-1.25 z m -243.125,-177.5 0,-3.75 13.7065,0 c 13.54867,0 13.75739,-0.0446 18.125,-3.87949 l 4.4185,-3.87948 0,-24.870517 0,-24.870513 5,0 5,0 0,27.393763 0,27.393777 -5.80099,5.10622 -5.80099,5.10624 -17.32401,0 -17.32401,0 0,-3.75 z M 134.09153,42.596792 C 131.49742,39.28833 124.59372,30.24708 118.74997,22.50513 108.48436,8.90498 107.98787,8.4503925 104.07167,9.0654425 96.461133,10.260693 93.081907,2.15803 100.11332,-0.425845 c 2.5383,-0.9327625 4.72906,0.434175 6.5622,4.094525 1.76269,3.519675 4.48786,4.2968625 22.13015,6.311275 8.67709,0.990762 14.19381,1.132712 14.94204,0.384487 0.65238,-0.652387 2.15467,-7.207187 3.33842,-14.5661995 l 2.15225,-13.3800505 -2.85734,-3.041487 c -3.18536,-3.390663 -3.11732,-6.67175 0.18143,-8.74915 3.13517,-1.974388 6.51479,0.527087 6.76014,5.003625 0.10875,1.9833 0.24932,4.21985 0.3125,4.9701 0.0631,0.750262 6.07276,6.789275 13.35465,13.42005 10.91305,9.93725 13.63568,11.8440625 15.49258,10.8502875 1.23904,-0.663125 7.51552,-6.048375 13.94772,-11.967225 10.37973,-9.5513505 11.7652,-11.3323755 12.31991,-15.8374125 0.72417,-5.881275 3.75789,-8.599238 7.1875,-6.439425 3.29636,2.075887 3.36745,5.357787 0.18932,8.740737 -2.80813,2.989125 -2.82577,3.200263 -1.2171,14.5662005 0.89778,6.3432 2.1152,12.8031375 2.70537,14.3554 1.23422,3.2462625 4.04505,3.4909375 18.00991,1.56775 16.41367,-2.2604375 16.74782,-2.3736875 18.81836,-6.37765 1.52603,-2.951025 2.65346,-3.68565 5.18953,-3.38145 1.78197,0.21375 3.85631,1.3730125 4.60963,2.5761375 2.1601,3.44985 -0.57025,6.4650125 -6.50856,7.1875 -4.95719,0.603112 -5.64767,1.296625 -19.71715,19.803275 -12.34935,16.244062 -14.98641,19.070662 -17.23594,18.474875 -1.46073,-0.386875 -7.99962,-2.168338 -14.53087,-3.9588 -10.77364,-2.953463 -13.44009,-3.204013 -28.75,-2.7014 -13.81176,0.453412 -18.69025,1.148125 -26.875,3.827062 -5.5,1.800188 -10.4088,3.28025 -10.90844,3.289025 -0.49964,0.0087 -3.03089,-2.690962 -5.625,-5.999425 z M -40.00003,-203.88782 c 0,-0.6875 0.529302,-1.25 1.176229,-1.25 0.646926,0 1.523872,0.5625 1.948771,1.25 0.424899,0.6875 -0.1044,1.25 -1.176229,1.25 -1.071824,0 -1.948771,-0.5625 -1.948771,-1.25 z m 7.065976,-8.75 c -5.187665,-4.55482 -6.298865,-4.61771 -11.043937,-0.625 -2.042619,1.71875 -5.045048,3.125 -6.672065,3.125 -5.573903,0 -8.812932,-8.99654 -5.4807,-15.22286 1.151135,-2.15091 2.14962,-2.43373 6.267583,-1.77524 l 4.898311,0.78326 -0.801262,-5.0108 c -1.053256,-6.58671 0.83044,-8.77436 7.555238,-8.77436 7.12776,0 10.07522,2.29509 8.979598,6.9921 -1.703146,7.30153 -1.660931,7.4089 2.744593,6.98029 5.457282,-0.53095 7.736665,1.57634 7.736665,7.15254 0,9.94822 -6.689874,12.95502 -14.184024,6.37507 z m -2.95184,-52.21175 c 1.26948,-1.40276 2.16667,-5.17475 2.452885,-10.3125 l 0.45128,-8.10075 0.240849,8.8125 c 0.150109,5.49233 -0.324285,9.37764 -1.25915,10.3125 -2.38514,2.38514 -4.102081,1.73715 -1.885864,-0.71175 z m 66.198364,-118.7257 c 82.32812,-0.17747 217.04687,-0.17747 299.375,0 82.32812,0.17746 14.96875,0.32267 -149.6875,0.32267 -164.65625,0 -232.015625,-0.14521 -149.6875,-0.32267 z"
         id="path3594"
         inkscape:connector-curvature="0" />
      <path
         style="fill:#010101"
         d="m 45.93747,442.67474 c 73.73437,-0.1781 194.39062,-0.1781 268.125,0 73.73437,0.1781 13.40625,0.32382 -134.0625,0.32382 -147.46875,0 -207.796875,-0.14572 -134.0625,-0.32382 z m 346.7394,-99.15167 c -3.05481,-1.22339 -3.02064,-0.89214 -1.21604,-11.78589 0.36703,-2.21558 -0.1807,-2.45592 -4.81427,-2.11256 -4.27549,0.31682 -5.48674,-0.0953 -6.64572,-2.26082 -2.96547,-5.54103 2.25045,-14.66442 7.33013,-12.82143 1.1242,0.40788 3.8917,2.3342 6.15,4.2807 5.00915,4.31758 6.52721,4.39706 10.1584,0.53185 4.17055,-4.43935 7.38094,-4.83604 10.8734,-1.34357 3.33415,3.33414 3.84316,7.7024 1.30241,11.17709 -1.36879,1.87193 -2.65829,2.14843 -6.875,1.47414 -5.77671,-0.92373 -6.41411,0.14581 -3.67266,6.16263 1.3484,2.95939 1.19362,3.59295 -1.38848,5.68381 -3.15216,2.55246 -6.58481,2.8632 -11.20217,1.01405 z m -237.6769,-212.41089 0,-3.75 14.24551,0 14.24552,0 3.87948,-4.4185 3.87949,-4.41849 0,-24.33151 0,-24.3315 4.375,0 4.375,0 0,26.70395 0,26.70395 -6.19645,5.79605 -6.19645,5.79605 -16.30355,0 -16.30355,0 0,-3.75 z M 137.10026,44.948543 C 131.36233,38.668455 109.81506,9.63043 110.43381,9.01168 c 0.34611,-0.346125 7.79951,0.33625 16.5631,1.516375 14.672,1.975763 16.05097,1.985413 17.41367,0.121875 0.81394,-1.113125 2.42069,-8.07385 3.57056,-15.468275 2.06383,-13.271862 2.05812,-13.47105 -0.44526,-15.519775 -2.96401,-2.425725 -3.37049,-7.961912 -0.66091,-9.001675 3.75722,-1.441775 5.625,0.545163 5.625,5.983863 0,5.102225 0.41132,5.637062 13.35559,17.366262 7.34557,6.65605 14.23725,12.1019125 15.31482,12.1019125 1.07759,0 7.86445,-5.4288375 15.08192,-12.064075 12.3163,-11.3227625 13.12528,-12.3641245 13.16515,-16.9468495 0.0475,-5.455163 2.31717,-7.736638 5.82767,-5.857875 3.00664,1.6091 2.8475,4.701825 -0.42096,8.18095 l -2.67581,2.848275 2.21698,13.779637 c 1.21934,7.5788 2.98045,14.413275 3.91358,15.1877 1.26784,1.052213 5.8785,0.819113 18.24409,-0.92235 15.05144,-2.119725 16.68097,-2.59995 18.02417,-5.311775 0.81219,-1.63975 2.2004,-3.428625 3.0849,-3.975275 2.54766,-1.5745375 6.32116,1.138675 5.88125,4.2287125 -0.31642,2.222725 -1.33979,2.797525 -5.52585,3.10375 -4.95478,0.36245 -5.51052,0.871125 -15.625,14.3018745 -5.76813,7.659338 -12.58078,16.593926 -15.13923,19.85465 l -4.65172,5.928588 -7.22328,-2.558425 C 193.89181,38.29008 170.06492,38.09333 148.45468,45.337367 l -8.4203,2.8226 -2.93412,-3.211362 z M 97.98002,6.8101925 c -1.144075,-2.981425 0.03187,-6.2670125 2.40685,-6.724375 2.84055,-0.5470375 5.8631,1.9252375 5.8631,4.7956875 0,3.6292 -6.991687,5.259788 -8.26995,1.9286875 z M -27.50003,-209.83828 c -1.03125,-0.367 -3.722698,-2.27204 -5.980995,-4.23341 -5.003395,-4.34554 -6.522494,-4.4291 -10.158401,-0.55887 -4.17055,4.43935 -7.380937,4.83604 -10.87341,1.34357 -3.334148,-3.33414 -3.843157,-7.7024 -1.302404,-11.17709 1.380809,-1.88838 2.648892,-2.14993 7.02823,-1.44964 5.809369,0.92895 5.798662,0.95468 3.144867,-7.55545 -1.309839,-4.20036 4.357259,-7.4275 10.414874,-5.93077 4.263354,1.05338 4.588921,1.45927 4.421374,5.51212 -0.09948,2.40625 -0.380725,5.5 -0.625,6.875 -0.39516,2.22433 0.14046,2.45638 4.857295,2.10439 4.614175,-0.34433 5.483699,0.005 6.707427,2.69021 2.587334,5.67859 -2.640691,14.15695 -7.633857,12.37994 z m 73.4375,-128.73698 c 73.73437,-0.1781 194.39062,-0.1781 268.125,0 73.73437,0.1781 13.40625,0.32382 -134.0625,0.32382 -147.46875,0 -207.796875,-0.14572 -134.0625,-0.32382 z"
         id="path3592"
         inkscape:connector-curvature="0" />
    </g>
  </g>
</svg>
