<?xml version="1.0" encoding="UTF-8" standalone="no"?>
<!-- Created with Inkscape (http://www.inkscape.org/) -->

<svg
   xmlns:dc="http://purl.org/dc/elements/1.1/"
   xmlns:cc="http://creativecommons.org/ns#"
   xmlns:rdf="http://www.w3.org/1999/02/22-rdf-syntax-ns#"
   xmlns:svg="http://www.w3.org/2000/svg"
   xmlns="http://www.w3.org/2000/svg"
   xmlns:sodipodi="http://sodipodi.sourceforge.net/DTD/sodipodi-0.dtd"
   xmlns:inkscape="http://www.inkscape.org/namespaces/inkscape"
   width="176.45389mm"
   height="246.30457mm"
   viewBox="0 0 625.23031 872.73271"
   id="svg2"
   version="1.1"
   inkscape:version="0.91 r13725"
   sodipodi:docname="K.svg">
  <defs
     id="defs4" />
  <sodipodi:namedview
     id="base"
     pagecolor="#ffffff"
     bordercolor="#666666"
     borderopacity="1.0"
     inkscape:pageopacity="0.0"
     inkscape:pageshadow="2"
     inkscape:zoom="0.35"
     inkscape:cx="243.32943"
     inkscape:cy="124.93777"
     inkscape:document-units="px"
     inkscape:current-layer="layer1"
     showgrid="false"
     fit-margin-top="0"
     fit-margin-left="0"
     fit-margin-right="0"
     fit-margin-bottom="0"
     inkscape:window-width="784"
     inkscape:window-height="822"
     inkscape:window-x="800"
     inkscape:window-y="0"
     inkscape:window-maximized="0" />
  <metadata
     id="metadata7">
    <rdf:RDF>
      <cc:Work
         rdf:about="">
        <dc:format>image/svg+xml</dc:format>
        <dc:type
           rdf:resource="http://purl.org/dc/dcmitype/StillImage" />
        <dc:title></dc:title>
      </cc:Work>
    </rdf:RDF>
  </metadata>
  <g
     inkscape:label="Calque 1"
     inkscape:groupmode="layer"
     id="layer1"
     transform="translate(209.758,215.43271)">
    <g
       style="display:inline"
       id="g3464"
       transform="translate(1328.5698,168.56613)">
      <path
         style="fill:#fdfdfd"
         d="m -1538.2142,52.36218 0,-436.25 312.5,0 312.5,0 0,436.25 0,436.25 -312.5,0 -312.5,0 0,-436.25 z"
         id="path3480"
         inkscape:connector-curvature="0" />
      <path
         style="fill:#e6e6e6"
         d="m -1532.089,487.05392 c -1.8959,-0.75393 -3.8487,-2.94868 -4.6875,-5.26827 -2.0668,-5.71559 -2.07,-853.12232 0,-858.8378 0.9685,-2.67839 2.7229,-4.43273 5.4013,-5.40125 5.6984,-2.06059 605.63016,-2.06059 611.32863,0 2.67838,0.96852 4.43273,2.72286 5.40125,5.40125 2.06378,5.70731 2.06378,853.12135 0,858.82865 -0.96852,2.67839 -2.72287,4.43274 -5.40125,5.40125 -5.34155,1.93154 -607.17663,1.80977 -612.03913,-0.12387 z m 611.47095,-5.84559 3.65385,-3.65384 0,-425.19231 0,-425.19231 -3.65385,-3.65384 -3.65384,-3.65385 -301.44231,0 -301.4423,0 -3.6539,3.65385 -3.6538,3.65384 0,425.19231 0,425.19231 3.6538,3.65384 3.6539,3.65385 301.4423,0 301.44231,0 3.65384,-3.65385 z m -576.96835,-34.56069 c -2.061,-1.07721 -4.7904,-2.90266 -6.0655,-4.05656 -6.1617,-5.57626 -5.8123,17.88101 -5.8123,-390.2289 0,-336.43552 0.2208,-381.8011 1.8737,-384.99746 1.0305,-1.99282 3.9399,-5.19926 6.4652,-7.12542 l 4.5915,-3.50212 270.8196,0 270.8196,0 4.59151,3.50212 c 2.52534,1.92616 5.43468,5.1326 6.4652,7.12542 1.6529,3.19636 1.87369,48.56194 1.87369,384.99746 0,336.43552 -0.22079,381.8011 -1.87369,384.99746 -1.03052,1.99282 -3.93982,5.19927 -6.46512,7.12543 l -4.59143,3.50211 -269.47236,0.30951 c -242.6017,0.27867 -269.8461,0.11423 -273.2196,-1.64905 z m 543.1222,-11.78546 c 2.48904,-2.48904 2.5,-4.16666 2.5,-382.5 0,-378.33333 -0.0113,-380.01096 -2.5,-382.5 -2.4845,-2.4845 -4.16666,-2.5 -271.25,-2.5 -267.0833,0 -268.7655,0.0155 -271.25,2.5 -2.489,2.48904 -2.5,4.16667 -2.5,382.5 0,378.33334 0.011,380.01096 2.5,382.5 2.4845,2.4845 4.1667,2.5 271.25,2.5 267.08334,0 268.7655,-0.0155 271.25,-2.5 z m -66.25,-44.70984 c 0,-1.2154 1.4063,-4.27931 3.125,-6.80867 1.7188,-2.52938 3.125,-4.95862 3.125,-5.39833 0,-0.43971 -1.7599,-3.25012 -3.911,-6.24537 -4.5352,-6.31517 -4.1247,-9.33779 1.2681,-9.33779 2.8039,0 4.7511,1.27083 8.1398,5.3125 l 4.4542,5.3125 0.024,-3.90945 c 0.03,-4.8602 2.7061,-7.2547 6.92383,-6.19613 l 3.18185,0.7986 -0.35312,14.02849 -0.35316,14.02849 -4.375,0 c -4.0285,0 -4.4245,-0.33969 -5,-4.28882 l -0.625,-4.28882 -3.5011,4.60132 c -2.8425,3.73567 -4.3122,4.60132 -7.8125,4.60132 -3.2894,0 -4.3114,-0.52385 -4.3114,-2.20984 z m 5.3561,-42.07014 c -3.7735,-1.70198 -4.5922,-3.16297 -5.6265,-10.04021 -0.2136,-1.42043 -1.6746,-2.7452 -3.4862,-3.16102 -1.8928,-0.43449 -3.9946,-2.42108 -5.3478,-5.0548 -5.3135,-10.34139 3.5534,-23.73784 13.2673,-20.04463 3.2115,1.221 3.3338,1.12773 2.5607,-1.95272 -0.5353,-2.13277 -0.2219,-3.60864 0.9197,-4.33167 2.601,-1.64722 9.0786,-1.35451 11.6511,0.52649 1.85576,1.35699 2.01408,2.14364 0.8639,4.29282 -2.0222,3.77843 -1.7927,4.12999 1.80345,2.76273 9.39709,-3.57276 17.87275,7.29686 14.24975,18.27463 -1.05899,3.20877 -2.65364,4.98848 -5.55652,6.2014 -2.93608,1.22676 -4.28022,2.74567 -4.82054,5.4473 -1.38708,6.93534 -12.37584,10.73431 -20.47834,7.07969 z m -239.6418,-196.43431 c -1.6895,-1.68952 -1.9643,-6.72511 -1.9643,-36 0,-24.805547 0.4068,-34.442497 1.5,-35.53571 0.825,-0.825 4.7764,-1.5 8.7809,-1.5 6.6655,0 7.384,0.27105 8.5,3.206375 0.6705,1.7635 1.2191,8.23225 1.2191,14.375 l 0,11.168625 3.6777,0 c 3.2381,0 4.96,-1.72439 14.4062,-14.427012 l 10.7286,-14.427025 9.6427,0.364525 c 7.5159,0.284112 9.7241,0.79125 10.0117,2.299287 0.203,1.064125 -5.0085,9.085038 -11.581,17.824238 l -11.9501,15.889477 12.5918,16.44651 c 14.8765,19.43071 15.3397,21.45683 5.0392,22.04135 -3.7445,0.21249 -8.0611,0.0719 -9.5926,-0.31249 -1.6441,-0.41265 -7.0463,-6.32855 -13.1918,-14.44612 -9.9117,-13.0925 -10.6252,-13.7474 -14.9811,-13.75001 l -4.5737,-0.002 -0.4263,13.17248 c -0.3238,10.00578 -0.877,13.45697 -2.3013,14.35585 -3.0783,1.94282 -13.3409,1.45225 -15.5357,-0.74262 z m -18.1043,-83.371372 c -1.2806,-3.368288 0.2835,-14.576738 2.5379,-18.1866 2.5219,-4.0383 5.9734,-4.964388 24.7692,-6.646038 19.9785,-1.787475 51.1177,-0.05 57.4088,3.203275 4.1166,2.12875 6.3538,6.627113 7.3096,14.69695 1.2137,10.248288 3.5093,9.768075 -46.6945,9.768075 l -44.2529,0 -1.0781,-2.835662 z m 8.9372,-28.726838 c -0.6924,-0.859375 -4.5538,-10.768837 -8.5808,-22.021025 -5.6781,-15.8658625 -7.9185,-20.6853875 -9.9799,-21.46915 -4.2142,-1.6022125 -7.9865,-7.325012 -7.9865,-12.1159 0,-6.199112 6.7422,-12.831425 13.044,-12.831425 8.5557,0 14.2422,6.880538 12.838,15.533688 -0.5791,3.5686245 0.01,5.054262 3.6872,9.3543495 2.4066,2.811575 4.8226,5.1119625 5.3688,5.1119625 0.5463,0 1.9985,-4.790075 3.2271,-10.6446 2.2102,-10.532088 2.207,-10.674125 -0.3094,-13.4375 -3.4974,-3.8407 -5.3566,-7.713988 -5.351,-11.148225 0.01,-4.547213 4.2678,-10.389625 9.3274,-12.790525 3.8774,-1.839975 5.2219,-1.9494 8.2979,-0.675325 8.7377,3.619312 12.3657,13.460525 7.8071,21.1776 -1.9697,3.334437 -1.9034,3.950025 1.4664,13.630362 1.9411,5.576013 3.8537,10.129263 4.2503,10.1183255 0.3967,-0.01125 2.1811,-4.728925 3.9654,-10.4844005 2.8052,-9.048437 3.0227,-10.864112 1.6068,-13.417612 -4.1881,-7.553225 -0.3295,-17.514425 8.144,-21.024275 3.0759,-1.274075 4.4205,-1.16465 8.2979,0.675325 9.4964,4.506338 11.9739,15.696875 5.0704,22.902562 l -3.2121,3.35275 1.8355,10.439675 c 1.0095,5.741813 2.0798,10.6840255 2.3785,10.9827005 0.2986,0.2986625 2.5456,-1.611325 4.9932,-4.2444125 4.1462,-4.4603625 4.3991,-5.1908875 3.7016,-10.693112 -0.701,-5.529588 -0.468,-6.186313 3.6582,-10.3125 8.9841,-8.984113 22.1568,-3.33245 22.1568,9.50625 0,3.143462 -1.1971,5.163462 -5.4075,9.1245745 -4.7752,4.4925 -6.2415,7.352875 -12.5402,24.4623625 -3.923,10.65625 -7.602,20.13035 -8.1755,21.053563 -0.855,1.376287 -4.5055,1.452175 -20.2723,0.421412 -11.6275,-0.76015 -24.1711,-0.830025 -31.7295,-0.17675 -17.2143,1.487838 -20.1276,1.439138 -21.5778,-0.360725 z m -185.8416,-238.84896 c -1.8558,-1.35699 -2.0141,-2.14364 -0.8639,-4.29281 2.0222,-3.77844 1.7927,-4.13 -1.8034,-2.76274 -13.429,5.10566 -21.8021,-18.9988 -8.5264,-24.54573 2.5466,-1.06406 4.2381,-2.65088 4.2381,-3.9759 0,-6.05836 8.8685,-11.22087 16.7393,-9.74428 6.0123,1.12791 8.4919,3.48403 9.3733,8.90663 0.6223,3.82867 1.4401,4.99429 3.8999,5.5589 1.8866,0.43303 3.9906,2.42345 5.3419,5.0534 5.3135,10.34139 -3.5534,23.73784 -13.2673,20.04463 -3.2115,-1.221 -3.3338,-1.12773 -2.5607,1.95272 0.5353,2.13277 0.222,3.60864 -0.9197,4.33167 -2.601,1.64722 -9.0786,1.35451 -11.6511,-0.52649 z m -6.4161,-59.98554 c -0.3476,-0.90586 -0.4706,-7.51523 -0.2732,-14.6875 0.3511,-12.76337 0.4236,-13.04966 3.4137,-13.47171 3.5943,-0.50734 6.32,2.58338 6.32,7.16638 0,2.88653 0.3028,2.72064 3.8581,-2.11392 3.2237,-4.38355 4.5598,-5.24625 8.125,-5.24625 3.5362,0 4.2669,0.46141 4.2669,2.69451 0,1.48198 -1.4062,4.5382 -3.125,6.7916 -1.7187,2.2534 -3.125,4.46454 -3.125,4.91364 0,0.44911 1.7599,3.26722 3.911,6.26247 4.5352,6.31515 4.1247,9.33778 -1.2681,9.33778 -2.8039,0 -4.7511,-1.27082 -8.1398,-5.3125 -3.9733,-4.739 -4.4568,-5.00001 -4.4786,-2.41782 -0.039,4.64455 -2.3276,7.73032 -5.7327,7.73032 -1.7161,0 -3.4047,-0.74115 -3.7523,-1.647 z"
         id="path3478"
         inkscape:connector-curvature="0" />
      <path
         style="fill:#d8d8d8"
         d="m -1531.8266,486.86779 c -6.7121,-3.72024 -6.2956,24.78369 -6.3433,-434.134297 -0.034,-328.088243 0.3003,-427.259973 1.4491,-429.781243 3.3332,-7.31567 -18.2831,-6.84007 310.8857,-6.84007 231.87039,0 303.26856,0.34869 305.78083,1.49336 7.3554,3.35134 6.84007,-29.40324 6.84007,434.75664 0,464.15988 0.51533,431.4053 -6.84007,434.75664 -5.07455,2.31212 -607.59393,2.0649 -611.77233,-0.25103 z m 604.2374,-0.75561 c -0.4249,-0.6875 0.41123,-1.25 1.85805,-1.25 3.39411,0 8.76695,-5.37284 8.76695,-8.76695 0,-1.44682 0.5625,-2.28295 1.25,-1.85805 0.83239,0.51445 1.25,-140.42827 1.25,-421.875 0,-281.44672 -0.41761,-422.38945 -1.25,-421.875 -0.6875,0.4249 -1.25,-0.41122 -1.25,-1.85805 0,-3.39411 -5.37284,-8.76695 -8.76695,-8.76695 -1.44682,0 -2.28295,-0.5625 -1.85805,-1.25 0.5142,-0.832 -99.1783,-1.25 -298.125,-1.25 -198.9467,0 -298.6392,0.418 -298.125,1.25 0.4249,0.6875 -0.4112,1.25 -1.858,1.25 -3.3942,0 -8.767,5.37284 -8.767,8.76695 0,1.44683 -0.5625,2.28295 -1.25,1.85805 -0.8324,-0.51445 -1.25,140.42828 -1.25,421.875 0,281.44673 0.4176,422.38945 1.25,421.875 0.6875,-0.4249 1.25,0.41123 1.25,1.85805 0,3.39411 5.3728,8.76695 8.767,8.76695 1.4468,0 2.2829,0.5625 1.858,1.25 -0.5142,0.832 99.1783,1.25 298.125,1.25 198.9467,0 298.6392,-0.418 298.125,-1.25 z m -571.9997,-41.4171 c -2.4749,-1.43533 -5.428,-4.18108 -6.5625,-6.10166 -1.905,-3.22477 -2.0628,-32.77894 -2.0628,-386.23124 0,-354.35788 0.1539,-382.99974 2.0749,-386.25181 1.1412,-1.9319 4.1709,-4.69057 6.7327,-6.13037 l 4.6578,-2.61782 269.0346,0 269.03461,0 4.65779,2.61782 c 2.56178,1.4398 5.59149,4.19847 6.73269,6.13037 1.92105,3.25207 2.07491,31.89393 2.07491,386.25181 0,354.35788 -0.15386,382.99974 -2.07491,386.25181 -1.1412,1.9319 -4.17091,4.69056 -6.73269,6.13036 l -4.65779,2.61783 -269.20481,-0.0287 -269.2048,-0.0287 -4.4997,-2.60968 z m 545.85053,-9.13431 c 2.67351,-3.65636 2.67345,-762.74093 -7e-5,-766.39718 -1.74682,-2.38892 -5.94846,-2.42641 -271.97576,-2.42641 -266.0273,0 -270.2289,0.0375 -271.9758,2.42641 -1.5231,2.08299 -1.7742,56.31862 -1.7742,383.19859 0,302.71322 0.3203,381.18391 1.5625,382.78064 0.8594,1.10465 2.6875,2.2745 4.0625,2.59965 1.375,0.32516 123.061,0.51323 270.4133,0.41795 263.65853,-0.17049 267.94151,-0.21178 269.68753,-2.59965 z m -64.89253,-44.03193 c -1.6005,-1.60057 -0.8097,-4.58661 2.2917,-8.65277 1.7188,-2.2534 3.125,-4.47554 3.125,-4.9381 0,-0.46257 -1.6875,-2.97168 -3.75,-5.57579 -4.8699,-6.14879 -4.8874,-8.75 -0.059,-8.75 2.7987,0 4.6554,1.19994 7.6794,4.9629 4.5501,5.66201 6.1295,5.49152 6.1295,-0.66168 0,-3.91046 0.3286,-4.30122 3.61629,-4.30122 4.59237,0 5.13374,1.50145 5.13374,14.23832 0,11.10189 -1.59513,15.10527 -5.70763,14.3247 -1.7856,-0.33891 -2.5188,-1.68112 -2.8053,-5.13592 -0.2134,-2.5724 -0.8224,-4.6771 -1.3533,-4.6771 -0.531,0 -2.7735,2.25 -4.9835,5 -3.7089,4.61523 -7.274,6.2096 -9.317,4.16666 z m 0.8539,-46.11583 c -2.3806,-2.38064 -3.0611,-4.13966 -2.6597,-6.875 0.4331,-2.95101 0.078,-3.67583 -1.8008,-3.67583 -4.1104,0 -8.4772,-5.60829 -8.472,-10.88069 0.01,-9.83071 7.3648,-16.13212 15.3234,-13.12809 3.215,1.21353 3.5361,1.12685 2.7657,-0.74666 -2.0468,-4.97782 -1.3796,-5.85925 4.7315,-6.25107 4.5749,-0.29333 6.1301,0.0873 6.7284,1.64652 0.4281,1.11541 0.1411,2.66523 -0.6377,3.44401 -0.7788,0.77879 -1.416,2.16702 -1.416,3.08495 0,1.26273 0.5885,1.35402 2.4178,0.375 4.31243,-2.30792 8.85634,-1.46215 12.67835,2.35988 4.93055,4.93054 5.21005,13.65359 0.58566,18.27796 -1.6875,1.6875 -4.21875,3.06819 -5.625,3.06819 -1.99348,0 -2.55681,0.80622 -2.55681,3.65927 0,8.50708 -15.2881,12.4163 -22.0628,5.64155 z m -237.349,-194.571 c -0.3462,-0.90217 -0.4795,-17.10108 -0.2963,-35.99757 l 0.3331,-34.35726 8.125,0 8.125,0 0.3548,13.4375 0.3548,13.4375 4.6656,0 c 4.4803,0 5.075,-0.54626 14.9695,-13.75 l 10.3037,-13.75 9.3633,0 c 7.5998,0 9.3633,0.36275 9.3633,1.925988 0,1.059287 -5.0625,8.6301 -11.25,16.824012 -6.1875,8.19391 -11.25,15.47998 -11.25,16.19123 0,0.71126 5.644,8.69291 12.5422,17.73698 6.8982,9.04409 12.3357,17.06322 12.0833,17.82029 -0.279,0.83703 -4.0922,1.3765 -9.7297,1.3765 l -9.2708,0 -10.625,-14.05935 c -10.586,-14.00771 -10.6444,-14.05936 -15.8966,-14.0625 l -5.2715,-0.003 -0.3535,14.0625 -0.3534,14.0625 -7.8287,0.37256 c -5.5858,0.26584 -8.009,-0.0974 -8.4581,-1.26773 z m -16.1704,-81.418967 c -1.9224,-1.405688 -2.1835,-2.7579 -1.5558,-8.0578 0.4149,-3.502763 1.6319,-8.065725 2.7045,-10.139925 3.1547,-6.100425 8.3941,-6.934963 43.1835,-6.878238 35.2287,0.0575 39.2074,0.802337 42.8106,8.0151 3.0658,6.1372 2.9399,15.760363 -0.2284,17.456025 -3.9229,2.099437 -84.0007,1.735362 -86.9144,-0.395162 z m 7.8369,-30.534376 c -0.9997,-1.183312 -5.0762,-11.292112 -9.0588,-22.463987 -3.9827,-11.171875 -7.9133,-20.3125 -8.7347,-20.3125 -2.0551,0 -7.7464,-6.265912 -8.7697,-9.655187 -1.7871,-5.918988 5.8504,-15.344813 12.4335,-15.344813 7.2166,0 13.7945,8.2852 12.4152,15.637663 -0.7152,3.8122495 -0.1901,5.058512 4.4831,10.640212 2.9113,3.4772125 5.4965,6.1189625 5.7449,5.87055 0.2485,-0.2484 1.5355,-5.735675 2.8601,-12.193925 l 2.4085,-11.742287 -3.6434,-4.1496 c -5.4332,-6.1881 -5.1333,-12.987263 0.8206,-18.602513 2.6396,-2.489487 5.7537,-4.2101 7.6196,-4.2101 6.6952,0 14.1722,7.361425 14.1617,13.942863 0,1.612675 -1.0341,4.6202 -2.2923,6.683375 -2.2651,3.714212 -2.2488,3.86785 1.6515,15.5623 2.1666,6.496087 4.2476,11.2767745 4.6245,10.623762 0.377,-0.6530125 2.2372,-5.899525 4.1338,-11.658912 3.3071,-10.042363 3.3652,-10.646163 1.4178,-14.7299 -1.1168,-2.342075 -2.0306,-5.138588 -2.0306,-6.214488 0,-3.737087 3.811,-9.956037 7.4006,-12.076425 5.452,-3.2206 9.3673,-2.65515 14.3854,2.077525 5.778,5.449325 6.214,12.268325 1.168,18.265225 l -3.2961,3.917125 1.6083,11.22075 c 0.8846,6.1714125 2.0423,11.488925 2.5726,11.8167 0.5304,0.3277625 3.0899,-1.8475625 5.6878,-4.834075 4.2559,-4.8924125 4.6914,-6.0384375 4.399,-11.575412 -0.2565,-4.855888 0.2408,-6.751638 2.3699,-9.034488 4.0217,-4.311975 8.3061,-5.561287 13.3563,-3.894575 4.1523,1.370388 9.0834,7.318875 9.0935,10.969738 0.01,3.45395 -3.9005,9.7415745 -7.3108,11.756062 -2.9612,1.749225 -4.6962,5.3139125 -10.8465,22.285075 -4.0269,11.111538 -8.0824,20.9636 -9.0123,21.893488 -1.2281,1.228125 -3.2994,1.4429 -7.5707,0.785 -7.5949,-1.169863 -44.8637,-1.172725 -54.7814,-0.0038 -6.4258,0.757112 -7.9424,0.5569 -9.4689,-1.25 z m -186.8084,-239.666497 c -0.4281,-1.11541 -0.1411,-2.66523 0.6377,-3.44401 0.7788,-0.77879 1.416,-2.16702 1.416,-3.08495 0,-1.26273 -0.5885,-1.35402 -2.4178,-0.37501 -4.3124,2.30793 -8.8563,1.46216 -12.6784,-2.35987 -4.9305,-4.93054 -5.21,-13.65359 -0.5856,-18.27796 1.6875,-1.6875 4.2187,-3.06819 5.625,-3.06819 1.9935,0 2.5568,-0.80622 2.5568,-3.65927 0,-8.50708 15.2881,-12.4163 22.0628,-5.64155 2.3806,2.38063 3.0611,4.13965 2.6597,6.875 -0.4331,2.951 -0.078,3.67582 1.8008,3.67582 4.1104,0 8.4772,5.60829 8.472,10.88069 -0.01,9.83071 -7.3648,16.13212 -15.3234,13.12809 -3.215,-1.21353 -3.5361,-1.12685 -2.7657,0.74666 2.0468,4.97782 1.3796,5.85925 -4.7315,6.25107 -4.5749,0.29333 -6.1301,-0.0872 -6.7284,-1.64652 z m -5.8056,-58.88594 c -0.4899,-0.48989 -0.8907,-6.39402 -0.8907,-13.12027 0,-10.27773 0.344,-12.42205 2.1552,-13.43568 3.3324,-1.86488 6.5948,0.54721 6.5948,4.87588 0,4.85927 1.6289,4.68123 5.6724,-0.61997 3.9999,-5.24416 7.6329,-6.65445 10.2921,-3.99527 1.7475,1.74757 1.6343,2.33705 -1.1655,6.06597 -4.9314,6.56794 -4.9412,6.68385 -1.0263,12.08831 4.8048,6.63279 4.8141,8.91698 0.036,8.91698 -2.806,0 -4.6589,-1.20434 -7.7274,-5.02262 -4.3341,-5.39327 -5.6543,-5.25752 -6.2978,0.64762 -0.3216,2.95082 -1.0847,3.82883 -3.5805,4.11989 -1.7445,0.20344 -3.5726,-0.0309 -4.0625,-0.52084 z"
         id="path3476"
         inkscape:connector-curvature="0" />
      <path
         style="fill:#a6a6a6"
         d="m -1531.011,486.65544 c -7.802,-4.23332 -7.2032,31.86901 -7.2032,-434.29326 0,-377.55168 0.2122,-425.53447 1.8962,-428.79092 4.1664,-8.05695 -20.7295,-7.45908 310.6038,-7.45908 331.33326,0 306.43743,-0.59787 310.60384,7.45908 1.68397,3.25645 1.89616,51.23924 1.89616,428.79092 0,377.55167 -0.21219,425.53448 -1.89616,428.79091 -4.16719,8.05847 20.77151,7.46407 -310.85424,7.40904 -264.3514,-0.0439 -302.0474,-0.27947 -305.0464,-1.90669 z m 608.22263,-1.32502 c 2.49493,-1.18975 5.10266,-3.79748 6.29241,-6.29242 1.86327,-3.90731 2.03176,-39.29136 2.03176,-426.67582 0,-387.38446 -0.16849,-422.76852 -2.03176,-426.67583 -4.31981,-9.05876 22.96789,-8.32417 -309.21824,-8.32417 -332.1861,0 -304.8984,-0.73459 -309.2182,8.32417 -1.8633,3.90731 -2.0318,39.29137 -2.0318,426.67583 0,387.60578 0.1676,422.76674 2.0344,426.68127 4.2276,8.86544 -22.5868,8.15018 308.8607,8.23879 273.57149,0.0731 299.38269,-0.093 303.28073,-1.95182 z m -575.41003,-40.81189 c -3.1714,-1.67707 -6.3289,-4.61769 -7.6966,-7.168 -2.2444,-4.18484 -2.3192,-16.60522 -2.3192,-384.98835 0,-368.38312 0.075,-380.80351 2.3192,-384.98835 1.3677,-2.55031 4.5252,-5.49092 7.6966,-7.16799 l 5.3774,-2.84366 267.1068,0 267.10679,0 5.37744,2.84366 c 3.17138,1.67707 6.32885,4.61768 7.6966,7.16799 2.24435,4.18484 2.31917,16.60523 2.31917,384.98835 0,368.38313 -0.0749,380.80351 -2.31917,384.98835 -1.36775,2.55031 -4.52522,5.49093 -7.6966,7.168 l -5.37744,2.84365 -267.10679,0 -267.1068,0 -5.3774,-2.84365 z m 544.9355,-8.64205 2.5487,-2.7357 0,-380.621237 0,-380.621233 -2.71789,-2.89307 -2.7179,-2.89306 -269.38901,0 -269.3891,0 -2.893,2.71789 -2.8931,2.7179 0,380.796398 0,380.796412 2.5487,2.7357 2.5487,2.7357 269.9026,0 269.90261,0 2.54869,-2.7357 z m -65.6097,-46.06833 c -0.4432,-0.71721 0.6486,-3.21092 2.4262,-5.54158 4.0528,-5.31341 4.0479,-7.25172 -0.031,-12.60004 -3.3126,-4.34309 -3.3079,-8.05435 0.01,-8.05435 2.0375,0 4.9523,2.61511 7.8584,7.05039 2.6917,4.10797 5.3952,3.7836 5.3952,-0.64734 0,-4.18579 2.5386,-6.78944 5.50859,-5.64974 1.77896,0.68265 2.02485,2.60568 1.72094,13.45908 -0.35208,12.5789 -0.37509,12.66261 -3.47943,12.66261 -2.7088,0 -3.1767,-0.62429 -3.513,-4.6875 -0.4759,-5.75099 -1.7232,-5.89524 -5.4042,-0.625 -1.5605,2.23438 -3.4269,4.47576 -4.1476,4.98086 -1.92,1.34576 -5.4155,1.15435 -6.3436,-0.34739 z m 4.4084,-43.32366 c -3.8263,-1.96547 -4.4232,-2.91356 -4.7594,-7.55981 -0.332,-4.58973 -0.7734,-5.3125 -3.2437,-5.3125 -6.9381,0 -10.0613,-11.53494 -4.9755,-18.37634 3.1202,-4.19737 9.2337,-5.22685 13.6921,-2.30563 2.7014,1.77005 3.0365,1.77763 3.0365,0.0689 0,-1.05642 -0.7031,-3.0553 -1.5625,-4.44195 -1.2879,-2.07806 -1.2329,-2.73081 0.3125,-3.7139 2.3707,-1.50802 6.3395,-1.53151 8.6789,-0.0514 1.4711,0.93075 1.5288,1.74531 0.3125,4.41467 -0.8203,1.80034 -1.4914,4.12251 -1.4914,5.1604 0,1.6651 0.3268,1.65819 2.7781,-0.0589 10.04459,-7.03548 21.51926,5.75072 14.80004,16.49162 -1.77199,2.83259 -3.49304,4.0625 -5.68476,4.0625 -2.50048,0 -3.14338,0.62489 -3.14338,3.0553 0,7.98454 -10.5234,12.79278 -18.75,8.56701 z m -239.2857,-196.0866 c -1.684,-1.68395 -1.9643,-6.55566 -1.9643,-34.13608 0,-24.207417 0.3971,-32.714817 1.6039,-34.36528 1.2366,-1.691175 3.0256,-2.103687 7.8125,-1.801412 l 6.2086,0.392062 0.625,13.75 0.625,13.75 5.1932,0 c 5.1438,0 5.2923,-0.13071 15.627,-13.75 l 10.4338,-13.75 7.8267,-0.372562 c 6.1779,-0.294088 7.9845,0.03862 8.5757,1.579387 0.4823,1.2568 -3.1783,7.176663 -10.2787,16.622575 -6.0652,8.06883 -11.015,15.51435 -10.9995,16.5456 0.015,1.03125 5.4773,9.00784 12.1375,17.72575 6.6601,8.71791 12.1093,16.39211 12.1093,17.05376 0,2.7874 -11.8395,3.8309 -16.3114,1.43764 -1.3183,-0.70556 -6.6345,-6.87829 -11.8136,-13.71715 -9.7614,-12.88964 -12.1768,-15 -17.1678,-15 -5.1437,0 -5.9572,2.14946 -5.9572,15.74126 0,14.01004 -0.1419,14.25874 -8.138,14.25874 -2.3009,0 -5.0674,-0.88392 -6.1477,-1.96429 z m -17.381,-81.369048 c -1.4953,-1.495375 -0.8765,-11.643624 0.9812,-16.089762 0.998,-2.388537 3.1158,-4.837537 4.7062,-5.442212 5.6445,-2.146 35.066,-4.159988 48.3786,-3.311638 29.1696,1.858838 32.8018,3.506287 34.4699,15.634563 1.4524,10.5605 3.7709,10.042387 -44.9389,10.042387 -23.52,0 -43.1386,-0.375 -43.597,-0.833338 z m 7.5468,-31.909224 c -0.973,-1.585338 -4.7642,-11.258088 -8.4249,-21.494988 -5.8978,-16.4933375 -7.113,-18.8823875 -10.6724,-20.9824875 -7.4872,-4.41755 -8.5753,-13.1010625 -2.4138,-19.2626125 4.4454,-4.445362 10.973,-4.117713 15.8882,0.797512 3.4654,3.465438 3.7438,4.332938 3.0396,9.470913 -0.7382,5.385225 -0.497,5.97835 5.036,12.3871625 3.1961,3.7021125 6.1857,6.49965 6.6434,6.21675 0.4578,-0.2829 1.8713,-6.1772625 3.1413,-13.098575 l 2.3089,-12.5842245 -3.6223,-3.780863 c -5.2839,-5.515238 -5.1097,-12.602875 0.4315,-17.55395 11.0391,-9.863375 25.8558,3.401625 18.2263,16.317412 -1.9447,3.292125 -1.8541,4.002625 1.9781,15.505363 2.2089,6.6303375 4.4127,12.05515 4.8973,12.05515 0.4846,0 2.7233,-5.6204 4.9749,-12.489763 3.799,-11.589987 3.9532,-12.69065 2.1409,-15.278137 -1.0742,-1.5336 -1.9531,-4.869938 -1.9531,-7.414075 0,-6.285138 5.8533,-12.318025 11.9514,-12.318025 5.7166,0 11.6428,5.347425 12.5991,11.368575 0.6062,3.817112 0.1097,5.1814 -3.2981,9.062725 l -4.0118,4.56915 2.1957,12.499775 c 1.2076,6.874875 2.6284,12.499775 3.1574,12.499775 0.529,0 3.2745,-2.671875 6.1012,-5.9375 4.4717,-5.166175 5.0415,-6.4857625 4.386,-10.157875 -2.1615,-12.108587 11.0951,-19.920975 19.5152,-11.500775 6.1593,6.159237 4.3315,14.46645 -4.2841,19.47115 -1.2481,0.7250125 -5.4419,10.17485 -9.9854,22.5 l -7.8335,21.25 -13.0591,-0.625 c -18.5015,-0.885475 -31.2221,-0.777775 -45.1719,0.382437 -11.8162,0.982775 -12.1561,0.936863 -13.882,-1.875 z m -184.559,-237.187058 c -1.4711,-0.93075 -1.5288,-1.74532 -0.3125,-4.41468 0.8203,-1.80034 1.4914,-4.12251 1.4914,-5.1604 0,-1.6651 -0.3268,-1.65819 -2.7781,0.0589 -10.0446,7.03542 -21.5193,-5.75078 -14.8,-16.49168 1.772,-2.83259 3.493,-4.0625 5.6847,-4.0625 2.5005,0 3.1434,-0.62489 3.1434,-3.0553 0,-1.68041 1.3575,-4.63354 3.0168,-6.5625 2.4515,-2.85006 4.0427,-3.5072 8.4924,-3.5072 8.1086,0 12.2408,3.17453 12.2408,9.40381 0,4.38165 0.3476,4.97119 2.9313,4.97119 7.0043,0 10.1619,11.49609 5.0473,18.37634 -3.1202,4.19737 -9.2337,5.22685 -13.6921,2.30564 -2.7014,-1.77005 -3.0365,-1.77764 -3.0365,-0.0688 0,1.05643 0.7031,3.0553 1.5625,4.44195 1.2879,2.07806 1.233,2.73081 -0.3125,3.7139 -2.3707,1.50803 -6.3395,1.53151 -8.6789,0.0514 z m -6.7378,-59.65371 c -0.4583,-0.45834 -0.8333,-6.38224 -0.8333,-13.16423 0,-10.28957 0.3403,-12.4615 2.0558,-13.11977 2.5095,-0.96302 5.4442,2.66537 5.4442,6.73124 0,4.16307 1.7464,3.57241 6.25,-2.11391 6.4724,-8.17208 12.8091,-6.06284 6.9941,2.32809 -4.0329,5.81951 -4.0313,6.80664 0.02,12.11756 3.3127,4.34309 3.308,8.05435 -0.01,8.05435 -2.0374,0 -4.9523,-2.61511 -7.8584,-7.05039 -2.384,-3.6385 -5.3951,-3.84357 -5.3951,-0.36743 0,5.28855 -4.006,9.24516 -6.6667,6.58449 z"
         id="path3474"
         inkscape:connector-curvature="0" />
      <path
         style="fill:#5c5c5c"
         d="m -1529.0323,487.65554 c -0.7938,-0.5051 135.6994,-0.91836 303.3181,-0.91836 167.6187,0 304.11186,0.41326 303.31814,0.91836 -0.79373,0.5051 -137.28684,0.91835 -303.31814,0.91835 -166.0312,0 -302.5244,-0.41325 -303.3181,-0.91835 z m -8.394,-9.35586 c -1.0472,-3.90756 -0.8116,-849.81015 0.2375,-852.45337 0.4673,-1.17748 0.8496,190.77565 0.8496,426.562495 0,235.786865 -0.075,428.703375 -0.1667,428.703375 -0.092,0 -0.5059,-1.26562 -0.9204,-2.8125 z m 622.3371,-425.9375 c 0,-235.7612 0.38234,-427.69335 0.84964,-426.51587 0.46731,1.17748 0.84965,193.10962 0.84965,426.51587 0,233.40625 -0.38234,425.33839 -0.84965,426.51588 -0.4673,1.17747 -0.84964,-190.75468 -0.84964,-426.51588 z m -583.2497,391.0829 c -2.4749,-1.43533 -5.428,-4.18108 -6.5625,-6.10166 -1.9049,-3.2247 -2.0628,-32.69062 -2.0628,-384.98124 0,-359.24203 0.126,-381.70253 2.1602,-385.14619 1.1881,-2.0113 4.4594,-4.76997 7.2696,-6.13036 5.0423,-2.44091 8.6187,-2.47345 271.8202,-2.47345 263.20155,0 266.77791,0.0325 271.82015,2.47345 2.8102,1.36039 6.08155,4.11906 7.26965,6.13036 2.03423,3.44366 2.1602,25.90416 2.1602,385.14619 0,353.19324 -0.1539,381.7498 -2.07491,385.00181 -1.1412,1.9319 -4.17091,4.69056 -6.73269,6.13036 l -4.65779,2.61783 -267.95481,-0.0287 -267.9548,-0.0287 -4.4997,-2.60968 z m 545.29873,-5.97244 2.95097,-2.38954 0.3433,-379.797957 c 0.18881,-208.888873 0.0339,-381.077893 -0.34429,-382.642263 -0.37818,-1.56436 -1.7983,-3.95498 -3.15581,-5.3125 -2.44236,-2.44237 -5.29424,-2.4682 -272.4682,-2.4682 -267.174,0 -270.0258,0.0258 -272.4682,2.46821 -1.3575,1.35751 -2.7776,3.74813 -3.1558,5.3125 -0.3782,1.56436 -0.5331,173.75338 -0.3443,382.642253 l 0.3433,379.797957 2.951,2.38954 c 2.8851,2.33622 8.9698,2.38954 272.674,2.38954 263.70425,0 269.78889,-0.0534 272.67403,-2.38954 z m -63.92403,-49.31688 c 0,-0.93854 1.125,-3.13664 2.5,-4.88467 3.2795,-4.16918 3.1537,-6.46872 -0.625,-11.4228 -6.2136,-8.14646 -1.9007,-9.98244 4.5611,-1.94162 4.8345,6.01592 7.6961,5.99631 8.5639,-0.0586 0.3963,-2.76516 1.3111,-4.36081 2.5,-4.36081 1.51516,0 1.94389,2.35822 2.23398,12.2881 0.32811,11.23154 0.1669,12.25137 -1.875,11.86081 -1.46008,-0.27926 -2.45048,-1.90357 -2.85898,-4.68874 -0.8744,-5.96228 -2.8164,-5.99872 -7.4567,-0.13988 -3.9809,5.02627 -7.5433,6.60753 -7.5433,3.34824 z m 2.1875,-42.69086 c -2.9372,-1.65131 -3.4375,-2.73387 -3.4375,-7.43844 0,-5.29549 -0.1549,-5.52086 -4.0538,-5.89758 -5.5706,-0.53826 -8.0867,-5.61514 -6.0884,-12.28488 0.772,-2.57688 2.2748,-5.40823 3.3395,-6.29187 2.8902,-2.3986 8.9515,-1.94098 12.1254,0.91545 4.5725,4.11521 6.8312,4.30413 11.7282,0.98094 5.5204,-3.74625 6.69955,-3.80404 10.85905,-0.53218 7.05691,5.55098 5.18318,17.53422 -2.92334,18.69584 -3.99992,0.57318 -4.3301,0.94075 -3.98163,4.4327 0.25552,2.56046 -0.42923,4.54001 -2.09048,6.04343 -3.3992,3.07622 -11.217,3.77157 -15.477,1.37659 z m 4.7991,-34.50455 c -2.2868,-4.58402 -1.6938,-6.09817 2.3884,-6.09817 3.9635,0 4.5907,1.35334 2.8115,6.06683 -1.8594,4.9261 -2.7554,4.9315 -5.1999,0.0314 z m -243.1046,-161.56413 c -1.0055,-1.21149 -1.3261,-11.40908 -1.0906,-34.6875 l 0.3336,-32.97154 6.5226,-0.376437 c 7.7413,-0.446775 7.6883,-0.554813 8.1652,16.626437 l 0.3122,11.25 5.1129,0.37463 5.113,0.37461 10.844,-14.437115 10.844,-14.437125 7.4805,0 c 4.8522,0 7.4806,0.510738 7.4806,1.453575 0,0.799463 -4.8082,7.854963 -10.6849,15.678875 -5.8767,7.82391 -10.955,14.92911 -11.2851,15.78934 -0.3301,0.86022 5.108,9.03732 12.0847,18.17132 8.258,10.8115 12.2587,17.03352 11.4636,17.8286 -0.6717,0.67173 -4.2548,1.04852 -7.9623,0.8373 l -6.741,-0.38401 -10.625,-14.05935 -10.625,-14.05935 -6.5625,-0.004 -6.5625,-0.003 0,11.95718 c 0,14.64525 -0.9452,16.79282 -7.3909,16.79282 -2.6416,0 -5.4438,-0.77219 -6.2271,-1.71596 z m -17.7531,-82.33034 c -0.6695,-8.72615 1.9321,-17.442137 5.6296,-18.861012 1.018,-0.390638 9.9474,-1.398188 19.8432,-2.239 20.8072,-1.767888 51.7655,0.03887 56.762,3.3128 3.0493,1.99795 5.7582,10.084337 5.1476,15.366287 l -0.3863,3.342225 -43.4375,0.3287 c -34.2776,0.259375 -43.463,-0.0038 -43.5586,-1.25 z m 8.3307,-29.566825 c -0.3784,-0.612225 -4.0479,-10.308725 -8.1546,-21.547787 -4.1067,-11.2390505 -8.1842,-20.673838 -9.0613,-20.966188 -3.6638,-1.22125 -8.4937,-7.53685 -8.4937,-11.106287 0,-8.983888 11.8421,-13.538125 18.3306,-7.0496 2.8306,2.830587 3.1277,3.919175 2.4729,9.0625 -0.7253,5.6967995 -0.5731,6.0362495 5.9803,13.345487 3.6984,4.125 7.098,7.133975 7.5545,6.6866125 0.4566,-0.44735 2.0362,-6.7063625 3.5103,-13.9088875 l 2.6801,-13.095512 -4.0143,-4.5721 c -4.6802,-5.330375 -5.1772,-10.169663 -1.5219,-14.816638 5.045,-6.41375 13.3971,-6.392925 18.2869,0.04562 2.2917,3.017562 2.1145,9.772725 -0.3552,13.541975 -1.9407,2.9618 -1.931,3.6305 0.1487,10.268525 3.8146,12.176125 7.0636,20.2254125 8.1636,20.2254125 0.5812,0 3.1139,-6.1733625 5.628,-13.7185875 4.2657,-12.801588 4.4397,-13.906388 2.6034,-16.528138 -3.189,-4.552887 -2.5295,-11.266737 1.4696,-14.961175 4.7753,-4.411512 7.3954,-5.071974 11.5658,-2.915387 8.214,4.2476 9.7101,11.765325 3.7031,18.606925 l -3.7935,4.320625 2.0665,12.2853625 c 2.7914,16.594525 2.924,16.7569 8.639,10.5800375 7.5273,-8.1355 8.3341,-9.6942375 7.4518,-14.397013 -1.3745,-7.326712 3.2233,-13.163399 10.4241,-13.2329 5.5543,-0.05362 10.2696,4.661663 10.216,10.215938 -0.044,4.588275 -1.5163,6.9011375 -6.3635,9.9984625 -2.5911,1.6557 -4.7917,6.237225 -10.4988,21.8578125 -3.9713,10.869675 -7.8914,20.49765 -8.7114,21.3955 -1.2008,1.31485 -4.8732,1.379275 -18.8762,0.331112 -11.4302,-0.855587 -21.8813,-0.893962 -30.5104,-0.112 -16.6619,1.509775 -19.6918,1.533425 -20.5404,0.16035 z M -1447.476,-201.20464 c -0.7942,-1.28514 1.9405,-8.93318 3.1943,-8.93318 1.3482,0 4.8713,7.65169 4.0987,8.90183 -0.8707,1.40872 -6.427,1.43261 -7.293,0.0314 z m 12.2022,-6.43647 c -1.4765,-0.58933 -3.078,-1.70813 -3.5589,-2.48622 -0.4809,-0.77808 -2.2231,-1.92749 -3.8716,-2.55424 -2.3542,-0.89507 -3.9745,-0.47629 -7.553,1.9521 -5.5286,3.75181 -6.7064,3.81006 -10.8668,0.53749 -7.057,-5.55098 -5.1832,-17.53421 2.9233,-18.69584 3.9999,-0.57317 4.3301,-0.94075 3.9816,-4.4327 -0.7218,-7.23346 9.1876,-11.61411 17.0615,-7.54235 3.5204,1.82048 3.9435,2.63076 3.9435,7.55295 0,5.30431 0.154,5.52858 4.0538,5.9054 5.5706,0.53826 8.0867,5.61514 6.0884,12.28488 -2.0352,6.79292 -6.7222,9.66563 -12.2018,7.47853 z m -18.3571,-53.33004 c -0.4583,-0.45834 -0.8333,-6.08334 -0.8333,-12.5 0,-9.1388 0.3773,-11.66667 1.7413,-11.66667 2.0154,0 3.2587,2.66211 3.2587,6.97723 0,4.51386 3.072,3.71991 7.6503,-1.97723 2.21,-2.75 5.049,-5 6.3089,-5 3.0513,0 2.891,1.20074 -0.8342,6.25 -1.7187,2.32964 -3.125,5.0077 -3.125,5.95125 0,0.94356 1.4063,3.55924 3.125,5.81264 6.1898,8.11526 1.9098,9.99372 -4.5253,1.98611 -4.6122,-5.73928 -8.5997,-6.65608 -8.5997,-1.97723 0,5.48065 -1.9518,8.35872 -4.1667,6.1439 z m -74.8492,-121.89131 c 2.799,-1.11081 602.73285,-1.11081 605.53178,0 1.17747,0.4673 -135.06718,0.84964 -302.76588,0.84964 -167.6987,0 -303.9433,-0.38234 -302.7659,-0.84964 z"
         id="path3472"
         inkscape:connector-curvature="0" />
      <path
         style="fill:#2d2d2d"
         d="m -1376.0267,487.67473 c 82.6719,-0.17745 217.9531,-0.17745 300.625,0 82.67188,0.17744 15.0313,0.32263 -150.3125,0.32263 -165.3437,0 -232.9844,-0.14519 -150.3125,-0.32263 z M -1537.5965,52.36218 c 0,-233.40625 0.1439,-328.89062 0.3198,-212.1875 0.1758,116.703125 0.1758,307.67188 0,424.375 -0.1759,116.70313 -0.3198,21.21875 -0.3198,-212.1875 z m 623.75005,0 c 0,-233.40625 0.14388,-328.89062 0.31973,-212.1875 0.17585,116.703125 0.17585,307.67188 0,424.375 -0.17585,116.70313 -0.31973,21.21875 -0.31973,-212.1875 z m -583.90935,390.10243 c -2.1541,-1.31353 -4.826,-3.68659 -5.9375,-5.27347 -1.8505,-2.64193 -2.0209,-35.10033 -2.0209,-384.938522 l 0,-382.053288 2.6104,-3.31855 c 5.9351,-7.5453 -14.8813,-7.0186 277.3896,-7.0186 292.27085,0 271.4545,-0.5267 277.38963,7.0186 l 2.61037,3.31855 0,382.16285 0,382.16285 -2.61037,3.31855 c -5.93533,7.54555 14.90661,7.01903 -277.64003,7.01392 -261.4915,-0.005 -267.9679,-0.0616 -271.7912,-2.39289 z m 542.52535,-2.54873 c 1.73059,-0.65796 4.0172,-2.88002 5.08138,-4.93793 1.73401,-3.35319 1.93487,-43.07317 1.93487,-382.61577 0,-339.5426 -0.20086,-379.26257 -1.93487,-382.61578 -1.06418,-2.05789 -3.35079,-4.27996 -5.08138,-4.93792 -4.27991,-1.62722 -536.68755,-1.62722 -540.96755,0 -1.7305,0.65796 -4.0172,2.88003 -5.0813,4.93792 -1.734,3.35321 -1.9349,43.07318 -1.9349,382.61578 0,340.01184 0.199,379.25905 1.9405,382.62656 1.0672,2.06384 3.1766,4.25025 4.6875,4.8587 3.8361,1.54488 537.29505,1.61232 541.35575,0.0685 z m -60.48375,-52.38512 c 0,-0.59479 1.125,-2.51164 2.5,-4.25967 3.3097,-4.20756 3.1546,-6.46744 -0.7993,-11.65133 -4.8509,-6.3598 -2.2676,-7.0282 3.0897,-0.7994 6.4051,7.44721 10.2096,6.81917 10.2096,-1.68542 0,-1.66251 0.5625,-3.02276 1.25,-3.02276 0.74074,0 1.25,4.58334 1.25,11.25 0,6.66666 -0.50926,11.25 -1.25,11.25 -0.6875,0 -1.25,-1.61862 -1.25,-3.59695 0,-1.97831 -0.9181,-4.35892 -2.0403,-5.29024 -1.784,-1.48058 -2.6126,-1.02876 -6.5966,3.59695 -4.4303,5.14395 -6.3631,6.4224 -6.3631,4.20882 z m 1.3911,-42.77093 c -2.7557,-1.10257 -2.9261,-1.6814 -2.2288,-7.56874 l 0.755,-6.37486 -3.7347,0.74694 c -7.2326,1.44651 -10.9281,-6.23273 -6.8213,-14.17448 3.1124,-6.01878 9.56,-6.09236 14.8949,-0.16996 3.0645,3.40186 4.6232,3.32855 10.2377,-0.48155 5.74209,-3.89667 7.33995,-3.90479 11.18791,-0.0568 6.43138,6.43136 2.43315,17.7423 -5.69683,16.11631 l -3.81712,-0.76342 0.79954,5.00009 c 0.68941,4.31135 0.39849,5.28101 -2.1121,7.03946 -3.2059,2.24554 -8.8493,2.5335 -13.4642,0.68702 z m 5.245,-34.74174 c -1.6957,-2.71775 -0.9893,-3.90591 2.3222,-3.90591 2.6842,0 2.8944,1.19856 0.7292,4.15724 -1.4608,1.99603 -1.6594,1.97967 -3.0514,-0.25133 z M -1252.322,149.08767 c -0.4907,-0.49069 -0.8922,-15.73548 -0.8922,-33.87731 l 0,-32.985155 5.9375,0.380988 5.9375,0.380987 0.3592,13.080075 c 0.3814,13.891265 0.8743,14.992205 6.7261,15.025785 5.6515,0.0324 6.8861,-1.04022 17.3771,-15.097997 l 10.174,-13.632863 6.7443,0 c 3.7094,0 6.7443,0.372863 6.7443,0.828575 0,0.455713 -4.8082,7.229963 -10.6849,15.053875 -5.8767,7.82391 -10.955,14.92911 -11.2851,15.78934 -0.3301,0.86022 5.0187,8.92038 11.8862,17.91147 6.8676,8.99109 12.1334,16.70053 11.7018,17.13209 -0.4316,0.43155 -3.4947,0.78465 -6.8069,0.78465 l -6.0222,0 -10.8399,-14.43155 -10.8398,-14.43155 -6.9921,0.36905 -6.9921,0.36905 -0.625,13.75 -0.625,13.75 -5.0453,0.37131 c -2.775,0.20423 -5.4469,-0.0301 -5.9375,-0.52082 z m -17.786,-83.00599 c -1.8222,-2.948262 2.3649,-15.805712 5.4657,-16.784238 4.1258,-1.301949 26.1147,-3.142237 37.6781,-3.15335 11.5303,-0.01125 32.0126,1.801788 36.6766,3.246201 2.8816,0.892412 5.8234,7.740837 5.8234,13.556737 l 0,4.41515 -42.4262,0 c -27.6095,0 -42.7026,-0.4472 -43.2177,-1.2805 z m 6.9373,-32.4695 c -0.6879,-1.71875 -4.0686,-11 -7.5127,-20.625 -3.5218,-9.8421 -7.1912,-18.0469875 -8.3854,-18.75 -4.7797,-2.8136875 -7.8954,-6.89815 -7.8954,-10.350288 0,-7.806799 10.7732,-12.001499 16.3922,-6.382537 2.2164,2.216425 2.5178,3.57955 1.8705,8.459313 -0.7606,5.733912 -0.666,5.933062 6.616,13.9203245 5.3362,5.8530875 7.7748,7.7310375 8.7822,6.762975 0.767,-0.7371125 2.6155,-7.5819875 4.1078,-15.210825 l 2.7134,-13.8706125 -3.9911,-3.728188 c -6.1296,-5.725975 -5.1466,-13.270562 2.2258,-17.083 4.0947,-2.11745 8.083,-1.193562 11.4478,2.651888 3.4842,3.981775 3.7213,7.1144 0.9324,12.318 l -2.6417,4.92875 4.8349,14.1304 c 3.3545,9.8039875 5.3751,14.0268125 6.5995,13.7920875 1.0294,-0.1973125 3.6978,-6.1133625 6.4034,-14.1964125 4.1207,-12.310875 4.452,-14.19495 2.9671,-16.875 -2.6781,-4.833337 -2.1887,-11.570375 1.0523,-14.487712 4.1967,-3.7776 6.9466,-4.342963 10.9796,-2.257376 7.1679,3.706651 8.1887,10.760213 2.4957,17.244238 l -3.7123,4.228013 2.454,14.2529745 c 1.3496,7.83915 2.4576,14.3936125 2.4622,14.5654875 0.01,0.171875 0.7361,0.3125 1.6257,0.3125 0.8895,0 4.5575,-3.515625 8.151,-7.8125 6.2252,-7.44365 6.4958,-8.0666125 5.7303,-13.194725 -0.6785,-4.544712 -0.3568,-5.85765 2.0668,-8.4375 6.0132,-6.400763 16.1845,-2.494212 16.1845,6.21605 0,3.438437 -0.9633,5.083725 -4.9399,8.4375 -4.3839,3.6971625 -5.7627,6.4066 -12.2477,24.067625 l -7.3076,19.901463 -34.6053,0.0985 -34.6052,0.0985 -1.2508,-3.125 z m -183.7935,-235.70717 c 0,-0.38895 0.6072,-1.84165 1.3492,-3.22823 1.295,-2.41975 1.4161,-2.42956 3.0142,-0.2441 0.9157,1.25231 1.4003,2.70501 1.077,3.22821 -0.6763,1.0943 -5.4404,1.30807 -5.4404,0.24412 z m 11.875,-6.72453 c -1.375,-0.56277 -3.5716,-2.21461 -4.8812,-3.67076 -3.0636,-3.4062 -4.6219,-3.33353 -10.2377,0.47746 -5.7421,3.89668 -7.34,3.90479 -11.1879,0.0567 -6.4314,-6.43136 -2.4332,-17.7423 5.6968,-16.11631 l 3.8171,0.76342 -0.7995,-5.00008 c -0.6894,-4.31135 -0.3985,-5.28102 2.1121,-7.03947 3.3327,-2.33432 8.1797,-2.61457 13.069,-0.75563 3.2151,1.22237 3.3405,1.58796 2.6228,7.64797 l -0.7538,6.36424 3.7347,-0.74694 c 7.2039,-1.44076 10.9295,6.2301 6.8538,14.11159 -2.4827,4.801 -5.2416,5.87416 -10.0462,3.9077 z m -18.7677,-54.03876 c -1.2959,-3.37709 -0.078,-20.17279 1.5001,-20.69453 0.9291,-0.30707 1.629,1.28483 1.875,4.26462 0.6441,7.80034 4.4393,6.9392 11.3888,-2.58413 0.947,-1.29772 2.3944,-2.13529 3.2165,-1.86125 0.986,0.32866 0.4171,1.95895 -1.6715,4.78985 -3.9686,5.37913 -3.9541,6.68974 0.1331,12.04833 4.9017,6.42646 2.2372,7.00036 -3.153,0.67912 -5.4856,-6.4331 -9.28,-6.73339 -9.93,-0.78586 -0.4946,4.52582 -2.3392,6.8014 -3.359,4.14385 z m 77.8302,-120.71699 c 82.6719,-0.17745 217.9531,-0.17745 300.625,0 82.67188,0.17744 15.0313,0.32262 -150.3125,0.32262 -165.3437,0 -232.9844,-0.14518 -150.3125,-0.32262 z"
         id="path3470"
         inkscape:connector-curvature="0" />
      <path
         style="fill:#171717"
         d="m -1375.4017,487.67473 c 82.3281,-0.17747 217.0469,-0.17747 299.375,0 82.32813,0.17746 14.9688,0.32266 -149.6875,0.32266 -164.6562,0 -232.0156,-0.1452 -149.6875,-0.32266 z M -1537.5965,52.36218 c 0,-233.40625 0.1439,-328.89062 0.3198,-212.1875 0.1758,116.703125 0.1758,307.67188 0,424.375 -0.1759,116.70313 -0.3198,21.21875 -0.3198,-212.1875 z m 623.75005,0 c 0,-233.40625 0.14388,-328.89062 0.31973,-212.1875 0.17585,116.703125 0.17585,307.67188 0,424.375 -0.17585,116.70313 -0.31973,21.21875 -0.31973,-212.1875 z m -584.59695,389.10279 c -1.8447,-1.14439 -4.0947,-3.46458 -5,-5.15598 -2.4567,-4.5905 -2.4423,-763.3301 0.015,-767.92093 0.9132,-1.70642 3.25,-4.04158 5.1928,-5.18923 3.2697,-1.93146 23.5383,-2.08665 272.5217,-2.08665 248.9834,0 269.25199,0.15519 272.52168,2.08665 1.94282,1.14765 4.27962,3.48281 5.19287,5.18923 2.46986,4.61499 2.46986,763.33324 0,767.94824 -0.91325,1.70642 -3.25005,4.04158 -5.19287,5.18923 -3.27019,1.93175 -23.51478,2.08418 -272.71458,2.05339 -248.888,-0.0307 -269.435,-0.19013 -272.5363,-2.11395 z m 547.16101,-3.42098 3.06819,-3.06817 0,-382.61364 0,-382.61364 -3.06819,-3.06818 -3.06817,-3.06818 -271.36364,0 -271.3636,0 -3.0682,3.06818 -3.0682,3.06818 0,382.61364 0,382.61364 3.0682,3.06817 3.0682,3.06819 271.3636,0 271.36364,0 3.06817,-3.06819 z m -60.66351,-54.83624 c 2.9685,-5.0684 2.8154,-6.05253 -2.0761,-13.34557 -1.1528,-1.71875 0.2375,-0.67136 3.0895,2.32752 3.458,3.63604 5.8497,5.19767 7.1791,4.6875 1.0965,-0.42076 2.2289,-0.76502 2.5164,-0.76502 0.2876,0 0.5228,-1.96875 0.5228,-4.375 0,-2.40625 0.5625,-4.375 1.25,-4.375 0.72916,0 1.25,4.16666 1.25,10 0,9.7617 -1.9537,14.013 -2.7333,5.94774 -0.5858,-6.06015 -4.3064,-6.12002 -9.551,-0.15368 l -4.2466,4.83094 2.7992,-4.77942 z m -3.0875,-40.02517 c -1.7375,-1.27053 -2.0906,-2.56441 -1.4495,-5.3125 1.7031,-7.30153 1.6609,-7.4089 -2.7446,-6.98029 -5.4573,0.53095 -7.7367,-1.57633 -7.7367,-7.15254 0,-9.94822 6.6899,-12.95502 14.184,-6.37507 5.1877,4.55483 6.2989,4.61771 11.044,0.625 2.04258,-1.71875 5.04501,-3.125 6.67203,-3.125 5.5739,0 8.81293,8.99654 5.4807,15.22286 -1.15114,2.15091 -2.14963,2.43373 -6.26759,1.77524 l -4.89834,-0.78326 0.80129,5.0108 c 0.52085,3.25716 0.2547,5.66939 -0.76049,6.89258 -1.9629,2.36517 -11.1886,2.49538 -14.3248,0.20218 z m 6.1942,-34.5704 c -0.4249,-0.6875 0.1044,-1.25 1.1762,-1.25 1.0719,0 1.9488,0.5625 1.9488,1.25 0,0.6875 -0.5293,1.25 -1.1762,1.25 -0.6469,0 -1.5239,-0.5625 -1.9488,-1.25 z m -242.8333,-192.8125 0.3333,-32.8125 4.375,0 4.375,0 0.625,13.75 0.625,13.75 6.9921,0.36905 6.9921,0.36905 10.8398,-14.43155 10.8399,-14.43155 5.6055,0 c 3.0831,0 5.6056,0.465813 5.6056,1.035137 0,0.569326 -4.7812,7.416013 -10.625,15.214863 -5.8437,7.79885 -10.625,15.08171 -10.625,16.18413 0,1.10241 4.2764,7.6151 9.5032,14.47263 5.2267,6.85753 10.6088,14.01512 11.9601,15.90574 l 2.4569,3.4375 -6.2894,0 -6.2895,0 -9.5949,-12.8125 c -5.2772,-7.04687 -10.4677,-13.51563 -11.5346,-14.375 -2.4731,-1.99226 -12.9881,-2.03619 -14.9618,-0.0625 -0.9725,0.97249 -1.5,6.02777 -1.5,14.375 l 0,12.875 -5.0208,0 -5.0207,0 0.3332,-32.8125 z m -16.9584,-49.270838 c -1.4032,-1.403187 -0.9288,-7.768324 0.9062,-12.160187 2.2493,-5.38345 3.6279,-5.6664 32.0105,-6.570412 25.048,-0.797788 44.2395,0.76775 47.3329,3.861175 1.0043,1.004212 2.0848,4.94815 2.4013,8.7643 l 0.5754,6.938462 -41.1965,0 c -22.658,0 -41.5714,-0.375 -42.0298,-0.833338 z m 7.4128,-30.220674 c -0.4383,-0.7092 -3.2593,-8.215288 -6.2689,-16.680213 -8.2583,-23.2273 -9.3424,-25.553075 -12.6039,-27.0391 -1.6451,-0.7495625 -3.9521,-2.829575 -5.1267,-4.622263 -1.9851,-3.029625 -1.9923,-3.560137 -0.102,-7.524112 1.2728,-2.669188 3.2507,-4.570113 5.2867,-5.081125 7.2168,-1.8113 13.6526,5.106475 10.7262,11.529362 -1.7725,3.8902005 -1.0621,5.191438 8.4462,15.471463 5.8479,6.3226 6.4969,6.699325 8.0771,4.6886125 0.945,-1.2025125 2.9639,-8.4391375 4.4866,-16.0813875 l 2.7684,-13.895013 -3.9394,-3.293612 c -3.3839,-2.8292 -3.8817,-3.9811 -3.5304,-8.169425 0.7656,-9.127913 9.7435,-12.213238 15.9994,-5.498338 3.2309,3.46795 3.235,8.521538 0.01,12.621013 l -2.5242,3.209 5.172,15.084575 c 6.8197,19.890237 7.8019,19.894912 14.2568,0.067875 4.7663,-14.640263 4.8354,-15.107262 2.7543,-18.630363 -2.4952,-4.22385 -2.6467,-6.361562 -0.7469,-10.531312 1.3703,-3.007438 5.8303,-5.82165 9.2263,-5.82165 0.9606,0 3.2178,1.265625 5.016,2.8125 4.515,3.8839 4.5922,9.888887 0.1864,14.487637 -3.8549,4.023625 -4.0035,6.2186 -1.3789,20.3742755 3.2249,17.3939995 3.2728,17.4424625 10.0193,10.1380875 8.1189,-8.7901375 10.7224,-13.359975 9.4977,-16.670688 -2.6273,-7.1023 4.3405,-13.928637 11.4559,-11.223362 7.0295,2.672625 7.1507,12.94375 0.1901,16.1152125 -3.7143,1.6923375 -5.0151,4.2920125 -12.4563,24.8934875 -3.2882,9.103675 -6.6065,17.366325 -7.3739,18.361437 -1.1718,1.5194 -3.198,1.598838 -12.6454,0.495813 -10.665,-1.245175 -43.4984,-0.610138 -50.791,0.982362 -1.81,0.395263 -3.6496,0.138413 -4.0879,-0.570775 z m -184.4961,-240.195988 c 0,-0.6875 0.5293,-1.25 1.1762,-1.25 0.647,0 1.5239,0.5625 1.9488,1.25 0.4249,0.6875 -0.1044,1.25 -1.1762,1.25 -1.0719,0 -1.9488,-0.5625 -1.9488,-1.25 z m 7.066,-8.75 c -5.1877,-4.55482 -6.2989,-4.61771 -11.044,-0.625 -2.0426,1.71875 -5.045,3.125 -6.672,3.125 -5.5739,0 -8.813,-8.99654 -5.4807,-15.22286 1.1511,-2.15091 2.1496,-2.43373 6.2676,-1.77524 l 4.8983,0.78326 -0.8013,-5.0108 c -1.0532,-6.58671 0.8304,-8.77436 7.5552,-8.77436 7.1278,0 10.0753,2.29509 8.9796,6.9921 -1.7031,7.30153 -1.6609,7.4089 2.7446,6.98029 5.4573,-0.53095 7.7367,1.57634 7.7367,7.15254 0,9.94822 -6.6899,12.95502 -14.184,6.37507 z m -14.1914,-60 c 0,-5.84375 0.2467,-8.9375 0.5483,-6.875 0.3016,2.0625 1.1299,4.45313 1.8408,5.3125 0.8899,1.07588 0.8899,2.04912 0,3.125 -0.7109,0.85938 -1.5392,3.25 -1.8408,5.3125 -0.3016,2.0625 -0.5483,-1.03125 -0.5483,-6.875 z m 11.8154,4.85595 -4.5893,-5.14405 4.0122,-4.83342 c 5.0272,-6.05636 7.2016,-6.43502 2.6446,-0.46057 -3.5896,4.70624 -3.4399,5.97954 1.5009,12.76959 3.2452,4.45974 1.4355,3.27738 -3.5684,-2.33155 z m 65.6225,-115.7934 c 82.3281,-0.17747 217.0469,-0.17747 299.375,0 82.32813,0.17746 14.9688,0.32267 -149.6875,0.32267 -164.6562,0 -232.0156,-0.14521 -149.6875,-0.32267 z"
         id="path3468"
         inkscape:connector-curvature="0" />
      <path
         style="fill:#020202"
         d="m -1359.7767,442.67474 c 73.7344,-0.1781 194.3906,-0.1781 268.125,0 73.7344,0.1781 13.4063,0.32382 -134.0625,0.32382 -147.4687,0 -207.7969,-0.14572 -134.0625,-0.32382 z m 359.2599,-65.31256 c 0,-1.71875 0.2837,-2.42187 0.63045,-1.5625 0.34676,0.85938 0.34676,2.26563 0,3.125 -0.34675,0.85938 -0.63045,0.15625 -0.63045,-1.5625 z m -12.5205,-33.83911 c -3.0548,-1.22339 -3.0206,-0.89214 -1.216,-11.78589 0.367,-2.21558 -0.1807,-2.45592 -4.8143,-2.11256 -4.2755,0.31682 -5.4867,-0.0953 -6.6457,-2.26082 -2.9655,-5.54103 2.2504,-14.66442 7.3301,-12.82143 1.1242,0.40788 3.8917,2.3342 6.15,4.2807 5.0092,4.31758 6.5272,4.39706 10.1584,0.53185 4.17055,-4.43935 7.38094,-4.83604 10.8734,-1.34357 3.33415,3.33414 3.84316,7.7024 1.30241,11.17709 -1.36878,1.87193 -2.65828,2.14843 -6.875,1.47414 -5.77671,-0.92373 -6.41411,0.14581 -3.67261,6.16263 1.34835,2.95939 1.19358,3.59295 -1.3885,5.68381 -3.1522,2.55246 -6.5848,2.8632 -11.2022,1.01405 z m -238.0936,-195.74423 c -0.4583,-0.45832 -0.8333,-15.08332 -0.8333,-32.5 l 0,-31.66666 4.375,0 4.375,0 0,11.168625 c 0,6.142755 0.5486,12.611505 1.2191,14.375005 1.0765,2.83146 1.9255,3.20637 7.261,3.20637 3.3232,0 6.9149,-0.70312 7.9817,-1.5625 1.0669,-0.85937 6.2574,-7.32812 11.5346,-14.375 9.3467,-12.481 9.7231,-12.8125 14.5493,-12.8125 2.7248,0 4.9543,0.2929 4.9543,0.650875 0,0.357987 -4.7812,7.016375 -10.625,14.796425 -5.8437,7.78005 -10.625,14.88955 -10.625,15.79887 0,0.90933 5.4037,8.73532 12.0082,17.39108 l 12.0082,15.73775 -4.0022,0.40058 c -2.2012,0.22031 -4.7564,0.11112 -5.6783,-0.24261 -0.9218,-0.35373 -6.2466,-6.7215 -11.8329,-14.15057 -10.0377,-13.34902 -10.2255,-13.51472 -16.0174,-14.1324 -12.1443,-1.29512 -12.7356,-0.44641 -12.7356,18.28125 l 0,10.46875 -3.5417,0 c -1.9479,0 -3.9166,-0.375 -4.375,-0.83334 z m -17.0833,-85.960285 c 0,-5.436663 1.7723,-10.159675 4.1557,-11.074238 1.0159,-0.389862 9.6811,-1.395187 19.2559,-2.23405 13.5712,-1.189012 21.2143,-1.19725 34.6728,-0.03737 9.4953,0.818325 18.2862,2.0348 19.5352,2.703275 2.18,1.1667 4.8589,8.174351 4.8734,12.748488 0.01,2.039287 -2.788,2.1875 -41.243,2.1875 l -41.25,0 0,-4.293625 z m 6.4326,-28.443288 c -0.5847,-1.58845 -4.0694,-11.252825 -7.7439,-21.476387 -5.9951,-16.680425 -7.0432,-18.714625 -10.2111,-19.8189875 -9.0824,-3.1661125 -7.015,-15.9677125 2.5787,-15.9677125 5.6435,0 8.0957,3.714975 7.1712,10.864175 l -0.7772,6.010825 8.1638,8.6914125 c 10.014,10.6612245 10.7365,10.2948875 14.3521,-7.2774125 3.3016,-16.045912 3.226,-17.4045 -1.2162,-21.846688 -4.5523,-4.552312 -4.7494,-8.056575 -0.6818,-12.124125 3.7162,-3.716262 8.5534,-3.946599 11.9318,-0.568187 3.068,3.06795 3.2,7.8043 0.3519,12.625625 -2.1007,3.556363 -2.0371,3.9731 2.8928,18.9428625 4.138,12.5651 5.5074,15.375075 7.6461,15.6893125 2.3033,0.3384375 3.2185,-1.4571625 7.8956,-15.4921375 5.0873,-15.2655245 5.2121,-16.0074125 3.252,-19.3256625 -2.7449,-4.64665 -2.5681,-9.410325 0.4616,-12.44 3.5969,-3.5969 9.2396,-3.23605 12.4093,0.793575 3.583,4.555125 3.2469,7.785363 -1.298,12.474562 l -3.8888,4.012151 2.5929,15.3202495 c 2.4969,14.75325 4.0125,18.2164875 7.1686,16.3811125 0.8102,-0.4711625 4.3881,-4.35785 7.951,-8.6370875 6.2173,-7.4676 6.4444,-8.00295 5.648,-13.3140875 -0.6943,-4.629525 -0.4012,-5.962263 1.7936,-8.15705 4.9176,-4.91765 13.8915,-1.915438 13.8543,4.63495 -0.024,4.26045 -1.232,6.1454 -5.6498,8.8175625 -2.9352,1.775425 -4.8091,5.5897125 -11.16,22.7163755 l -7.6325,20.582687 -12.4568,-0.625 c -17.507,-0.878388 -28.0794,-0.781037 -42.1465,0.388088 -12.0175,0.998762 -12.2047,0.972275 -13.2527,-1.875 z m -171.4326,-243.213547 c -1.0312,-0.367 -3.7227,-2.27204 -5.981,-4.23341 -5.0034,-4.34554 -6.5225,-4.4291 -10.1584,-0.55887 -4.1705,4.43935 -7.3809,4.83604 -10.8734,1.34357 -3.3342,-3.33414 -3.8432,-7.7024 -1.3024,-11.17709 1.3808,-1.88838 2.6489,-2.14993 7.0282,-1.44964 5.8094,0.92895 5.7987,0.95468 3.1449,-7.55545 -1.3099,-4.20036 4.3572,-7.4275 10.4149,-5.93077 4.2633,1.05338 4.5889,1.45927 4.4213,5.51212 -0.099,2.40625 -0.3807,5.5 -0.625,6.875 -0.3951,2.22433 0.1405,2.45638 4.8573,2.10439 4.6142,-0.34433 5.4837,0.005 6.7075,2.69021 2.5873,5.67859 -2.6407,14.15695 -7.6339,12.37994 z m 73.4375,-128.73698 c 73.7344,-0.1781 194.3906,-0.1781 268.125,0 73.7344,0.1781 13.4063,0.32382 -134.0625,0.32382 -147.4687,0 -207.7969,-0.14572 -134.0625,-0.32382 z"
         id="path3466"
         inkscape:connector-curvature="0" />
    </g>
  </g>
</svg>
