<?xml version="1.0" encoding="UTF-8" standalone="no"?>
<!-- Created with Inkscape (http://www.inkscape.org/) -->

<svg
   xmlns:dc="http://purl.org/dc/elements/1.1/"
   xmlns:cc="http://creativecommons.org/ns#"
   xmlns:rdf="http://www.w3.org/1999/02/22-rdf-syntax-ns#"
   xmlns:svg="http://www.w3.org/2000/svg"
   xmlns="http://www.w3.org/2000/svg"
   xmlns:sodipodi="http://sodipodi.sourceforge.net/DTD/sodipodi-0.dtd"
   xmlns:inkscape="http://www.inkscape.org/namespaces/inkscape"
   width="176.45314mm"
   height="246.30457mm"
   viewBox="0 0 625.22766 872.73271"
   id="svg2"
   version="1.1"
   inkscape:version="0.91 r13725"
   sodipodi:docname="Q.svg">
  <defs
     id="defs4" />
  <sodipodi:namedview
     id="base"
     pagecolor="#ffffff"
     bordercolor="#666666"
     borderopacity="1.0"
     inkscape:pageopacity="0.0"
     inkscape:pageshadow="2"
     inkscape:zoom="0.35"
     inkscape:cx="695.94327"
     inkscape:cy="141.30411"
     inkscape:document-units="px"
     inkscape:current-layer="layer1"
     showgrid="false"
     fit-margin-top="0"
     fit-margin-left="0"
     fit-margin-right="0"
     fit-margin-bottom="0"
     inkscape:window-width="784"
     inkscape:window-height="822"
     inkscape:window-x="800"
     inkscape:window-y="0"
     inkscape:window-maximized="0" />
  <metadata
     id="metadata7">
    <rdf:RDF>
      <cc:Work
         rdf:about="">
        <dc:format>image/svg+xml</dc:format>
        <dc:type
           rdf:resource="http://purl.org/dc/dcmitype/StillImage" />
        <dc:title></dc:title>
      </cc:Work>
    </rdf:RDF>
  </metadata>
  <g
     inkscape:label="Calque 1"
     inkscape:groupmode="layer"
     id="layer1"
     transform="translate(662.37184,199.06634)">
    <g
       style="display:inline"
       id="g3446"
       transform="translate(313.09924,-269.35322)">
      <path
         style="fill:#fdfdfd"
         d="m -975.35712,506.6479 0,-436.249997 312.5,0 312.5,0 0,436.249997 0,436.25 -312.5,0 -312.5,0 0,-436.25 z"
         id="path3462"
         inkscape:connector-curvature="0" />
      <path
         style="fill:#e6e6e6"
         d="m -969.23189,941.33964 c -1.89593,-0.75392 -3.84873,-2.94867 -4.6875,-5.26826 -2.06679,-5.7156 -2.07005,-853.122327 -0.003,-858.837807 0.96852,-2.678387 2.72286,-4.43273 5.40125,-5.401248 5.69847,-2.060592 605.63019,-2.060592 611.32866,0 2.67838,0.968518 4.43273,2.722861 5.40125,5.401248 2.06378,5.707309 2.06378,853.121357 0,858.828657 -0.96852,2.67839 -2.72287,4.43274 -5.40125,5.40125 -5.34155,1.93154 -607.17667,1.80976 -612.0391,-0.12388 z m 611.47092,-5.84559 3.65385,-3.65383 0,-425.19232 0,-425.192305 -3.65385,-3.653846 -3.65384,-3.653846 -301.44231,0 -301.44231,0 -3.65384,3.653846 -3.65385,3.653846 0,425.192305 0,425.19232 3.65385,3.65383 3.65384,3.65385 301.44231,0 301.44231,0 3.65384,-3.65385 z m -576.96836,-34.56068 c -2.06097,-1.07722 -4.79043,-2.90267 -6.06548,-4.05657 -6.1617,-5.57626 -5.81231,17.88102 -5.81231,-390.2289 0,-336.43552 0.22078,-381.80109 1.87369,-384.99746 1.03052,-1.99281 3.93986,-5.19926 6.46519,-7.12542 l 4.59151,-3.50212 270.81961,0 270.8196,0 4.59151,3.50212 c 2.52534,1.92616 5.43468,5.13261 6.4652,7.12542 1.6529,3.19637 1.87369,48.56194 1.87369,384.99746 0,336.43553 -0.22079,381.8011 -1.87369,384.99747 -1.03052,1.99281 -3.93982,5.19926 -6.46512,7.12542 l -4.59143,3.50211 -269.47239,0.30952 c -242.60163,0.27866 -269.84603,0.11422 -273.21958,-1.64905 z m 543.12221,-11.78547 c 2.48904,-2.48903 2.5,-4.16666 2.5,-382.5 0,-378.33333 -0.0113,-380.01096 -2.5,-382.5 -2.4845,-2.48449 -4.16666,-2.5 -271.25,-2.5 -267.08333,0 -268.7655,0.0155 -271.25,2.5 -2.48903,2.48904 -2.5,4.16667 -2.5,382.5 0,378.33334 0.011,380.01097 2.5,382.5 2.4845,2.4845 4.16667,2.5 271.25,2.5 267.08334,0 268.7655,-0.0155 271.25,-2.5 z m -61.22536,-42.78491 c -5.06828,-2.67991 -6.26641,-6.68947 -5.98543,-20.03 0.22295,-10.5846 0.5581,-12.28555 2.54498,-12.91615 1.25852,-0.39945 3.64713,0.16414 5.30804,1.2524 1.7264,1.13119 5.66799,1.97866 9.20267,1.97866 5.42021,0 6.59773,0.49303 9.54609,3.99697 3.0721,3.65098 3.3216,4.73353 2.88238,12.5065 -0.63112,11.16927 -3.01198,13.77456 -13.16232,14.40298 -4.40239,0.27257 -8.45016,-0.19397 -10.33641,-1.19136 z m 13.50391,-13.31154 c 0.47088,-4.92568 -1.47446,-7.70763 -3.77855,-5.40355 -0.825,0.825 -2.5125,1.5 -3.75,1.5 -1.63725,0 -2.25,0.9645 -2.25,3.54167 0,4.56766 0.94734,5.40888 5.58008,4.95507 3.30797,-0.32404 3.84671,-0.91341 4.19847,-4.59319 z m -13.17249,-30.68352 c -3.77346,-1.70199 -4.59218,-3.16298 -5.62646,-10.04021 -0.21361,-1.42044 -1.67464,-2.7452 -3.48616,-3.16103 -1.89286,-0.43449 -3.99463,-2.42107 -5.34786,-5.0548 -5.31352,-10.34139 3.55345,-23.73784 13.26732,-20.04462 3.21148,1.221 3.3338,1.12772 2.56066,-1.95273 -0.5353,-2.13276 -0.22191,-3.60864 0.91975,-4.33166 2.60099,-1.64723 9.07863,-1.35451 11.65104,0.52649 1.85581,1.35698 2.01413,2.14363 0.86391,4.29281 -2.02215,3.77844 -1.79266,4.13 1.80349,2.76274 9.39709,-3.57277 17.87275,7.29686 14.24975,18.27462 -1.05899,3.20878 -2.65364,4.98849 -5.55652,6.2014 -2.93608,1.22676 -4.28022,2.74568 -4.82054,5.4473 -1.38708,6.93534 -12.3758,10.73431 -20.47838,7.07969 z m -191.06202,-193.84503 -4.12617,-4.375 -17.5707,0 -17.57071,0 -7.20072,-6.47026 c -3.96042,-3.55864 -7.614,-7.07426 -8.1191,-7.8125 -0.5051,-0.73822 -0.92698,-11.69786 -0.9375,-24.35474 l -0.0191,-23.0125 7.3,-7.3 7.3,-7.3 21.87264,0 21.87264,0 7.38986,6.71298 7.38986,6.71299 0.38784,23.10157 0.38783,23.10159 -3.28322,3.90187 -3.28321,3.90189 4.45789,5.83831 c 7.13276,9.3415 5.95033,11.7288 -5.80927,11.7288 -5.59521,0 -6.78162,-0.49723 -10.43882,-4.375 z m -19.48073,-24.20941 c -0.80182,-1.28394 -1.08779,-3.29884 -0.63546,-4.47757 0.69096,-1.8006 2.22138,-2.07682 9.5751,-1.72809 l 8.75269,0.41507 -0.002,-15.24162 c -0.004,-19.07426 -0.0576,-19.13338 -17.38822,-19.13338 -10.42452,0 -12.17224,0.32267 -14.72186,2.71789 -2.73244,2.56699 -2.89306,3.60804 -2.89306,18.75 0,19.52091 0.854,21.03211 11.88559,21.03211 6.40989,0 6.78487,-0.16127 5.42772,-2.33441 z m -42.62581,-59.01571 c -4.75965,-2.77224 -1.7345,-18.93196 4.28213,-22.87421 6.61782,-4.33617 53.8081,-5.73144 72.11013,-2.13208 8.33739,1.63966 11.7576,5.83529 12.43929,15.25945 0.46875,6.48046 0.18484,8.03923 -1.71765,9.43035 -2.86014,2.09139 -83.5632,2.38459 -87.1139,0.31649 z m 5.9569,-30.68405 c -1.70739,-1.70739 -2.04165,-3.64221 -1.5771,-9.12871 l 0.58949,-6.96212 -7.11483,-7.62992 c -8.81236,-9.45038 -11.2056,-16.24941 -8.77521,-24.92991 3.682,-13.1508 13.64042,-20.99135 26.43112,-20.80999 6.83067,0.0969 16.02789,3.4218 17.91609,6.47696 0.43097,0.69733 1.20503,1.26786 1.72012,1.26786 0.51509,0 -0.41435,-4.11113 -2.06545,-9.13587 -2.83337,-8.62266 -2.89265,-9.39759 -1.0553,-13.79499 3.40093,-8.1396 13.74673,-10.29302 20.40933,-4.24811 4.13056,3.74762 4.59205,8.37835 1.6927,16.98495 -1.41095,4.18834 -2.56536,7.88722 -2.56536,8.21974 0,0.33252 2.73744,-0.81565 6.08321,-2.55149 7.76233,-4.02725 19.68335,-4.5141 26.87456,-1.09755 6.18119,2.93669 11.49467,10.28607 13.20608,18.26614 2.09859,9.78535 -0.0177,15.66846 -9.4617,26.3018 -5.63766,6.34771 -5.7328,6.59617 -4.97949,13.00566 0.61173,5.20481 0.31414,7.0948 -1.46261,9.28899 -2.21205,2.73176 -2.38895,2.74372 -21.28745,1.4381 -10.48128,-0.72412 -19.74104,-1.10424 -20.57724,-0.84473 -0.8362,0.25951 -8.34101,0.82688 -16.67737,1.2608 -13.3722,0.69608 -15.41213,0.53385 -17.32359,-1.37761 z M -887.15147,254.98644 c -1.85581,-1.35699 -2.01412,-2.14364 -0.86392,-4.29281 2.02216,-3.77844 1.79267,-4.13 -1.80348,-2.76274 -13.42894,5.10566 -21.80205,-18.9988 -8.52639,-24.54572 2.54666,-1.06407 4.23814,-2.65089 4.23814,-3.9759 0,-6.05837 8.86846,-11.22088 16.73931,-9.74429 6.0123,1.12791 8.49187,3.48404 9.37329,8.90664 0.62233,3.82866 1.44009,4.99428 3.89992,5.5589 1.88654,0.43302 3.9906,2.42345 5.3419,5.0534 5.31352,10.34138 -3.55344,23.73783 -13.26732,20.04462 -3.21148,-1.221 -3.3338,-1.12772 -2.56066,1.95273 0.53529,2.13276 0.22192,3.60863 -0.91976,4.33166 -2.60098,1.64722 -9.07861,1.35451 -11.65103,-0.52649 z m 11.79435,-56.46354 c -1.71875,-0.98252 -5.82244,-1.80635 -9.11932,-1.8307 -4.66102,-0.0345 -6.67676,-0.72675 -9.0625,-3.11248 -2.68065,-2.68065 -3.06818,-4.18771 -3.06818,-11.93182 0,-7.7441 0.38753,-9.25116 3.06818,-11.93182 2.68065,-2.68065 4.18771,-3.06818 11.93182,-3.06818 7.78312,0 9.24382,0.38019 11.98236,3.11872 2.96388,2.96388 3.10478,3.75516 2.83798,15.9375 -0.32931,15.03692 -1.53512,16.84048 -8.57034,12.81878 z m -7.5,-11.85118 c 0,-0.6744 1.43677,-1.58679 3.19282,-2.02753 2.69176,-0.67559 3.13314,-1.41496 2.8125,-4.71132 -0.34655,-3.56276 -0.76882,-3.90997 -4.75532,-3.90997 -4.04827,0 -4.40491,0.31228 -4.77557,4.1815 -0.22032,2.29982 -0.0974,4.9717 0.27327,5.9375 0.76434,1.99185 3.2523,2.39716 3.2523,0.52982 z"
         id="path3460"
         inkscape:connector-curvature="0" />
      <path
         style="fill:#d7d7d7"
         d="m -968.96953,941.15352 c -6.71212,-3.72024 -6.29564,24.78368 -6.3433,-434.1343 -0.0341,-328.08825 0.3003,-427.259979 1.44907,-429.781245 3.33324,-7.315672 -18.2831,-6.840072 310.88575,-6.840072 231.87038,0 303.26855,0.348691 305.78082,1.493357 7.35539,3.351345 6.84007,-29.403233 6.84007,434.75664 0,464.15988 0.51532,431.4053 -6.84007,434.75664 -5.07455,2.31213 -607.59393,2.0649 -611.77234,-0.25102 z m 604.86241,-0.75562 c 0,-0.6875 0.94813,-1.25 2.10694,-1.25 2.8688,0 7.89306,-4.91276 7.89306,-7.71788 0,-1.25517 0.5625,-2.28212 1.25,-2.28212 0.83086,0 1.25,-141.66666 1.25,-422.5 0,-280.83333 -0.41914,-422.499997 -1.25,-422.499997 -0.6875,0 -1.25,-1.084174 -1.25,-2.409275 0,-2.580706 -5.47391,-7.590725 -8.29358,-7.590725 -0.93853,0 -1.70642,-0.5625 -1.70642,-1.25 0,-0.829847 -100.41666,-1.25 -298.75,-1.25 -198.33333,0 -298.75,0.420153 -298.75,1.25 0,0.6875 -0.76789,1.25 -1.70643,1.25 -2.81966,0 -8.29357,5.010019 -8.29357,7.590725 0,1.325101 -0.5625,2.409275 -1.25,2.409275 -0.83087,0 -1.25,141.666667 -1.25,422.499997 0,280.83334 0.41913,422.5 1.25,422.5 0.6875,0 1.25,0.94813 1.25,2.10694 0,2.8688 4.91276,7.89306 7.71789,7.89306 1.25516,0 2.28211,0.5625 2.28211,1.25 0,0.82985 100.41667,1.25 298.75,1.25 198.33334,0 298.75,-0.42015 298.75,-1.25 z m -572.62474,-41.4171 c -2.47486,-1.43532 -5.42798,-4.18107 -6.5625,-6.10166 -1.90492,-3.22476 -2.06276,-32.77894 -2.06276,-386.23124 0,-354.35787 0.15386,-382.99973 2.07491,-386.25181 1.1412,-1.9319 4.17091,-4.69057 6.73269,-6.13037 l 4.65779,-2.61782 269.03461,0 269.03461,0 4.65779,2.61782 c 2.56178,1.4398 5.59149,4.19847 6.73269,6.13037 1.92105,3.25208 2.07491,31.89394 2.07491,386.25181 0,354.35788 -0.15386,382.99974 -2.07491,386.25182 -1.1412,1.9319 -4.17091,4.69056 -6.73269,6.13036 l -4.65779,2.61782 -269.2048,-0.0287 -269.20481,-0.0287 -4.49974,-2.60968 z m 545.55769,-8.42345 c 1.91448,-1.58892 2.06705,-29.87483 2.06705,-383.1986 0,-327.49389 -0.2511,-381.82642 -1.77424,-383.90943 -1.74682,-2.38893 -5.94846,-2.42642 -271.97576,-2.42642 -266.1326,0 -270.22828,0.0366 -271.97778,2.42917 -1.52746,2.08893 -1.7322,55.92166 -1.46174,384.3381 l 0.31452,381.90891 3.125,1.58569 c 4.81855,2.44503 538.72439,1.72805 541.68295,-0.72742 z m -63.99884,-46.83846 c -2.52337,-2.68602 -2.72976,-4.04311 -2.48774,-16.3581 l 0.26392,-13.42907 3.83236,0.78933 c 2.10779,0.43414 6.76989,1.21384 10.3602,1.73265 4.19196,0.60577 7.65848,2.00548 9.6875,3.91165 2.80828,2.63823 3.15965,3.96245 3.15965,11.90755 0,12.03367 -2.26807,14.375 -13.92517,14.375 -6.92022,0 -8.5511,-0.43862 -10.89072,-2.92901 z m 15.81872,-11.75849 c 0.2078,-3.60937 -0.12765,-6.5625 -0.74545,-6.5625 -0.6178,0 -2.89721,0.88495 -5.06533,1.96655 -3.21446,1.60359 -3.94205,2.7187 -3.94205,6.04168 0,5.119 0.84705,5.95215 5.58008,5.48851 3.64148,-0.35671 3.81019,-0.63707 4.17275,-6.93424 z m -13.10862,-30.32122 c -3.59801,-1.44968 -5.79172,-5.73731 -4.85169,-9.4827 0.61502,-2.45041 0.27634,-3.00858 -1.82552,-3.00858 -4.32436,0 -8.71764,-5.48668 -8.71232,-10.88068 0.01,-9.83072 7.36483,-16.13213 15.32343,-13.12809 3.21499,1.21352 3.53605,1.12685 2.76569,-0.74666 -2.01091,-4.89059 -1.35084,-5.8601 4.26353,-6.26224 6.82822,-0.48906 8.7011,1.07934 6.4072,5.36554 -1.85117,3.45892 -0.84035,5.72796 1.50631,3.3813 2.70475,-2.70475 8.46162,-1.689 12.32531,2.17468 4.93055,4.93054 5.21005,13.65359 0.58566,18.27797 -1.6875,1.6875 -4.21875,3.06818 -5.625,3.06818 -1.99348,0 -2.55681,0.80623 -2.55681,3.65928 0,7.0784 -10.6416,11.19375 -19.60579,7.582 z m -191.47367,-194.36628 -3.98116,-4.375 -17.78219,-0.0188 -17.78219,-0.0187 -7.1875,-6.67096 -7.1875,-6.67096 0,-23.74499 0,-23.745 7.4072,-7.06527 7.40721,-7.06528 20.64654,0 20.64655,0 7.57125,7.00964 7.57125,7.00965 0,23.42162 c 0,21.83413 -0.16945,23.57497 -2.5,25.68409 -3.38979,3.06773 -3.15502,5.0632 1.25,10.625 2.0625,2.60411 3.75,5.91944 3.75,7.36738 0,2.39997 -0.70027,2.63262 -7.92415,2.63262 -7.46452,0 -8.15507,-0.25376 -11.90531,-4.375 z m -16.42054,-20.55122 c 0,-0.64693 -0.5625,-1.52388 -1.25,-1.94878 -0.6875,-0.4249 -1.25,-1.90878 -1.25,-3.29752 0,-2.34549 0.66668,-2.49575 9.37791,-2.11373 l 9.37791,0.41125 -0.002,-15.03436 c -0.004,-20.78631 0.16462,-20.59064 -17.78827,-20.59064 -18.98095,0 -18.46505,-0.58813 -18.46505,21.05068 0,15.6448 0.20382,17.13016 2.71789,19.80626 2.23777,2.38199 4.00431,2.89306 10,2.89306 4.00516,0 7.28211,-0.5293 7.28211,-1.17622 z m -46.21933,-63.16181 c -2.49674,-3.0084 -0.36618,-13.99703 3.56747,-18.39954 2.92023,-3.26831 4.5475,-3.86639 13.30206,-4.88894 19.41068,-2.26721 54.36814,-1.4065 64.05904,1.57724 4.75306,1.46342 7.48181,5.9463 8.60424,14.13531 1.34497,9.81268 3.25884,9.41396 -45.18848,9.41396 -36.15361,0 -43.05634,-0.28611 -44.34433,-1.83803 z m 7.5117,-29.36959 c -2.37527,-2.37528 -2.59783,-3.53826 -1.83917,-9.61038 l 0.86311,-6.9081 -6.275,-6.44945 c -7.56463,-7.77496 -10.29536,-12.87555 -10.2791,-19.19987 0.0145,-5.6288 4.68731,-16.12856 8.90192,-20.00241 9.62938,-8.85084 24.8265,-8.64133 34.92435,0.48147 2.70133,2.4405 4.91152,4.018 4.91152,3.50555 0,-0.51245 -1.40625,-4.83017 -3.125,-9.59495 -4.13661,-11.46766 -4.03465,-15.2969 0.52885,-19.86039 3.95935,-3.95935 9.36824,-4.79482 14.24083,-2.19967 6.69881,3.56781 7.43557,9.29042 2.78633,21.64229 -1.68794,4.48445 -2.83791,8.15353 -2.55551,8.15353 0.28241,0 2.57386,-1.39821 5.09211,-3.10713 8.4661,-5.74527 19.36589,-7.20838 27.71429,-3.72019 6.43022,2.68671 8.97605,5.25196 12.35806,12.45232 5.13664,10.93604 3.49705,19.7361 -5.5172,29.61202 -6.91121,7.57185 -7.80421,9.75296 -6.9491,16.97298 0.6693,5.65115 0.44789,6.46534 -2.22775,8.19215 -2.51655,1.62413 -4.69146,1.71867 -14.22091,0.61818 -10.77072,-1.24383 -46.20971,-0.58626 -53.31516,0.98926 -2.4048,0.53323 -4.05724,-0.007 -6.01747,-1.96721 z m 57.45763,-34.62963 c 0,-2.92078 -2.14062,-0.75705 -3.6085,3.64745 l -1.35466,4.0648 2.48159,-2.95097 c 1.36486,-1.62305 2.48157,-3.76561 2.48157,-4.76128 z m -38.87838,0.59738 c -0.87328,-1.63176 -1.75561,-2.23318 -2.03713,-1.3886 -0.27314,0.81944 0.19661,2.78519 1.04389,4.36835 0.87328,1.63176 1.75561,2.23317 2.03713,1.3886 0.27314,-0.81944 -0.19661,-2.78519 -1.04389,-4.36835 z M -887.26631,254.09258 c -0.48713,-0.78819 -0.16224,-2.78483 0.72197,-4.43699 1.7898,-3.34426 0.71685,-5.53732 -1.58361,-3.23685 -2.70476,2.70475 -8.46164,1.689 -12.32532,-2.17469 -4.93055,-4.93053 -5.21005,-13.65358 -0.58567,-18.27796 1.6875,-1.6875 4.21875,-3.06819 5.625,-3.06819 1.99349,0 2.55682,-0.80622 2.55682,-3.65927 0,-5.92506 5.26752,-9.21834 13.64516,-8.53103 8.10875,0.66524 12.00773,4.23834 10.86418,9.95609 -0.57851,2.89256 -0.26798,3.48421 1.82873,3.48421 4.27528,0 8.66254,5.51404 8.65726,10.88069 -0.01,9.83071 -7.36484,16.13213 -15.32344,13.12809 -3.21499,-1.21353 -3.53605,-1.12685 -2.7657,0.74666 2.03824,4.95703 1.3727,5.85961 -4.60545,6.24593 -3.42277,0.22117 -6.18944,-0.21453 -6.70993,-1.05669 z m 11.90919,-56.19468 c -1.03125,-0.66645 -4.47102,-1.22033 -7.64393,-1.23086 -3.92146,-0.013 -6.82367,-0.8488 -9.0625,-2.60986 -3.05867,-2.40596 -3.29357,-3.29098 -3.29357,-12.40928 0,-9.11829 0.2349,-10.00332 3.29357,-12.40927 4.63727,-3.64768 16.28498,-3.64029 20.92972,0.0133 3.2361,2.54552 3.30753,2.91041 3.18094,16.25 -0.12446,13.11569 -0.23442,13.64526 -2.82936,13.62688 -1.48493,-0.0105 -3.54362,-0.56442 -4.57487,-1.23087 z m -6.875,-11.25 c 0.4249,-0.6875 1.86435,-1.25 3.19877,-1.25 1.99727,0 2.42623,-0.88401 2.42623,-5 0,-5 0,-5 -5,-5 l -5,0 0,6.25 c 0,4.60846 0.47309,6.25 1.80123,6.25 0.99068,0 2.14887,-0.5625 2.57377,-1.25 z"
         id="path3458"
         inkscape:connector-curvature="0" />
      <path
         style="fill:#a6a6a6"
         d="m -968.15391,940.94117 c -7.80201,-4.23333 -7.20321,31.86901 -7.20321,-434.29327 0,-377.55167 0.21218,-425.534467 1.89616,-428.790913 4.16641,-8.056952 -20.72942,-7.459084 310.60384,-7.459084 331.33326,0 306.43743,-0.597868 310.60384,7.459084 1.68397,3.256446 1.89616,51.239243 1.89616,428.790913 0,377.55168 -0.21219,425.53448 -1.89616,428.79092 -4.16719,8.05846 20.77151,7.46406 -310.85427,7.40903 -264.35141,-0.0439 -302.04742,-0.27947 -305.04636,-1.90668 z m 608.44879,-1.26485 c 8.84406,-4.19679 8.098,35.69751 8.098,-433.02842 0,-382.39071 -0.18821,-423.143803 -1.97159,-426.901994 -4.17032,-8.788298 22.19338,-8.098003 -309.27841,-8.098003 -331.47178,0 -305.10809,-0.690295 -309.27841,8.098003 -1.78338,3.758191 -1.97159,44.511284 -1.97159,426.901994 0,381.67552 0.19078,423.14923 1.96373,426.88544 4.15068,8.7469 -22.31391,8.05458 309.09736,8.0861 269.90611,0.0256 299.5927,-0.16449 303.34091,-1.94312 z m -575.63623,-40.87207 c -3.17139,-1.67707 -6.32885,-4.61768 -7.6966,-7.168 -2.24435,-4.18483 -2.31917,-16.60522 -2.31917,-384.98835 0,-368.38312 0.0748,-380.80351 2.31917,-384.98834 1.36775,-2.55032 4.52521,-5.49093 7.6966,-7.168 l 5.37744,-2.84366 267.10679,0 267.10679,0 5.37743,2.84366 c 3.17139,1.67707 6.32886,4.61768 7.69661,7.168 2.24434,4.18483 2.31917,16.60522 2.31917,384.98834 0,368.38313 -0.0749,380.80352 -2.31917,384.98835 -1.36775,2.55032 -4.52522,5.49093 -7.69661,7.168 l -5.37743,2.84365 -267.10679,0 -267.10679,0 -5.37744,-2.84365 z m 544.98423,-8.40635 c 2.48906,-2.48906 2.5,-4.16666 2.5,-383.5143 l 0,-381.01429 -2.5487,-2.73571 -2.54869,-2.7357 -269.90261,0 -269.90261,0 -2.5487,2.7357 -2.54869,2.73571 0,381.01429 c 0,379.34764 0.0109,381.02524 2.5,383.5143 2.48457,2.48457 4.16667,2.5 272.5,2.5 268.33334,0 270.01544,-0.0154 272.5,-2.5 z m -61.22536,-45.28431 c -5.89919,-3.12041 -6.90465,-8.09827 -4.866,-24.09069 0.0876,-0.6875 -0.0529,-2.0804 -0.31215,-3.09532 -0.57705,-2.25848 4.82388,-3.3593 6.79769,-1.3855 0.74569,0.7457 3.99351,1.35582 7.21735,1.35582 3.90875,0 6.84462,0.79608 8.8125,2.38957 2.59703,2.10296 2.95097,3.44808 2.95097,11.21527 0,7.38521 -0.44202,9.26774 -2.70819,11.53391 -3.32945,3.32944 -13.32971,4.49028 -17.89217,2.07694 z m 13.47306,-12.32517 c 0.45319,-6.973 -2.13061,-10.19924 -5.70865,-7.12803 -1.19022,1.02164 -3.14842,2.20661 -4.35155,2.63329 -1.49621,0.5306 -2.1875,2.10491 -2.1875,4.98166 0,5.44286 0.75716,6.06579 6.82965,5.61888 5.04444,-0.37125 5.04541,-0.37235 5.41805,-6.1058 z m -13.4977,-32.0182 c -3.82632,-1.96548 -4.4232,-2.91357 -4.75937,-7.55982 -0.33208,-4.58972 -0.77341,-5.3125 -3.24377,-5.3125 -6.91173,0 -9.96655,-11.66016 -4.85622,-18.53608 3.0002,-4.03678 9.19276,-5.01583 13.57282,-2.14589 2.70145,1.77005 3.03654,1.77764 3.03654,0.0689 0,-1.05642 -0.70312,-3.0553 -1.5625,-4.44195 -1.28787,-2.07806 -1.23295,-2.73081 0.3125,-3.7139 2.37066,-1.50802 6.33952,-1.53151 8.67892,-0.0514 1.47109,0.93075 1.52875,1.74531 0.3125,4.41467 -0.82028,1.80034 -1.49142,4.12252 -1.49142,5.1604 0,1.6651 0.32676,1.65819 2.77814,-0.0589 1.52796,-1.07023 4.58088,-1.94588 6.78427,-1.94588 4.56903,0 8.50185,4.03225 9.82979,10.07829 1.13157,5.15205 -2.74859,11.66306 -7.26583,12.19224 -2.61097,0.30586 -3.37637,1.06932 -3.37637,3.3678 0,7.90677 -10.56621,12.68777 -18.75,8.48399 z m -191.0854,-193.49732 -4.8426,-4.375 -16.92375,0 -16.92375,0 -6.24906,-4.9396 c -10.35859,-8.18798 -10.22544,-7.7673 -10.22544,-32.30632 l 0,-21.68966 7.06528,-7.40722 7.06527,-7.4072 21.13455,0 21.13455,0 6.80018,6.43133 6.80017,6.43131 0,23.80063 c 0,22.6415 -0.13103,23.94007 -2.69034,26.66433 l -2.69032,2.86373 3.62782,5.09376 c 6.39512,8.97924 6.2733,8.69335 4.25284,9.98135 -1.03125,0.65741 -4.264,1.2039 -7.1839,1.21443 -4.32621,0.0156 -6.20528,-0.79069 -10.1515,-4.35587 z m -17.71687,-21.97267 c -2.31679,-4.32895 -0.62148,-6.15233 5.72022,-6.15233 3.16052,0 6.83442,0.58229 8.16423,1.29398 2.33661,1.25052 2.41782,0.7095 2.41782,-16.10624 0,-21.67716 0.20955,-21.43774 -18.76284,-21.43774 -11.71196,0 -12.81722,0.21643 -15.66897,3.06819 -2.94839,2.94838 -3.06819,3.71394 -3.06819,19.60693 0,15.26035 0.21009,16.76238 2.71789,19.43182 2.32878,2.47888 3.94571,2.89306 11.29399,2.89306 8.29622,0 8.53071,-0.0848 7.18584,-2.59767 z m -45.34845,-61.96971 c -1.54744,-1.54744 -0.88024,-10.61454 1.08596,-14.758 1.06439,-2.24303 3.32877,-4.71315 5.03197,-5.48919 6.2346,-2.84068 36.84926,-4.50679 54.68455,-2.97604 9.15179,0.78546 18.17625,2.01235 20.05439,2.72641 4.29439,1.63273 7.30724,8.5005 6.79745,15.49477 l -0.3786,5.19443 -43.21323,0.32844 c -23.76727,0.18065 -43.5954,-0.0538 -44.0625,-0.52082 z m 6.63403,-29.82772 c -1.08455,-1.3068 -1.32205,-4.02853 -0.76506,-8.76757 l 0.80773,-6.87248 -7.43324,-7.99016 c -9.2295,-9.92102 -10.92134,-14.98072 -8.14043,-24.3451 2.33269,-7.855 9.02834,-15.68427 15.13761,-17.70051 2.43376,-0.80321 7.68953,-1.22425 11.67951,-0.93565 9.00083,0.65106 15.67603,4.76402 20.73993,12.779 3.43599,5.43839 5.42105,6.56134 6.40113,3.6211 0.24296,-0.72886 -0.56564,-1.59359 -1.79688,-1.9216 -2.80005,-0.74595 -9.22112,-16.73245 -10.07807,-25.09126 -0.80816,-7.88305 2.69847,-12.13067 10.01453,-12.13067 6.42952,0 9.14545,1.61099 10.82151,6.41893 1.19721,3.4343 0.79658,5.66659 -2.96089,16.49821 l -4.34544,12.52653 4.65487,-4.5358 c 2.56018,-2.49469 6.74619,-5.40702 9.30223,-6.47183 5.79669,-2.41484 18.739,-2.51502 23.22722,-0.1798 7.72308,4.01831 12.75043,12.94529 12.75043,22.64069 0,6.92056 -2.33578,11.74439 -9.6239,19.87526 -5.32913,5.94534 -5.49822,6.38574 -5.15,13.41228 0.56224,11.34463 0.15435,11.52711 -21.80628,9.7549 -13.60113,-1.0976 -21.80837,-1.11768 -32.44221,-0.0794 -18.24272,1.78131 -19.11412,1.76034 -20.9943,-0.50512 z m 21.22084,-28.56552 c -1.44857,-3.87165 -3.12266,-7.03938 -3.72019,-7.03938 -2.44263,0 -2.28782,2.44034 0.40691,6.41432 1.57041,2.31587 3.26313,5.27557 3.76162,6.5771 0.4985,1.30152 1.19415,2.07861 1.54588,1.72687 0.35175,-0.35175 -0.54566,-3.80725 -1.99422,-7.67891 z m 31.29585,5.44236 c 0,-0.61639 1.39824,-3.18112 3.10719,-5.69941 2.9464,-4.34176 3.1572,-6.78233 0.58581,-6.78233 -1.19341,0 -4.42161,6.86239 -5.78661,12.301 -0.53576,2.13464 -0.33399,2.8018 0.66131,2.18668 0.78776,-0.48688 1.4323,-1.38954 1.4323,-2.00594 z M -885.28605,254.21828 c -1.47108,-0.93075 -1.52874,-1.74531 -0.3125,-4.41468 0.82029,-1.80033 1.49143,-4.12251 1.49143,-5.1604 0,-1.6651 -0.32676,-1.65818 -2.77813,0.0589 -1.52798,1.07022 -4.5809,1.94587 -6.78428,1.94587 -4.56903,0 -8.50185,-4.03225 -9.82979,-10.07828 -1.13157,-5.15205 2.74859,-11.66307 7.26582,-12.19224 2.61098,-0.30591 3.37638,-1.06938 3.37638,-3.36785 0,-1.63475 1.35755,-4.55051 3.01677,-6.47948 2.45153,-2.85006 4.04273,-3.5072 8.49247,-3.5072 8.10855,0 12.24076,3.17453 12.24076,9.40382 0,4.38165 0.34762,4.97118 2.93127,4.97118 6.97803,0 10.06761,11.62089 4.9281,18.53609 -3.00021,4.03678 -9.19277,5.01583 -13.57284,2.14589 -2.70144,-1.77005 -3.03653,-1.77764 -3.03653,-0.0688 0,1.05643 0.70313,3.0553 1.5625,4.44195 1.28788,2.07807 1.23295,2.73082 -0.3125,3.7139 -2.37067,1.50803 -6.33952,1.53152 -8.67893,0.0514 z m 9.3482,-57.49874 c -0.44925,-0.7269 -3.83654,-1.32164 -7.52732,-1.32164 -8.97438,0 -11.89195,-3.37342 -11.89195,-13.75 0,-5.35372 0.65434,-7.99471 2.59073,-10.45642 2.34864,-2.98582 3.39137,-3.29358 11.15927,-3.29358 7.84859,0 8.79465,0.28744 11.25942,3.42089 2.41851,3.07464 2.63381,4.56123 2.12714,14.6875 -0.54797,10.95151 -0.65234,11.27735 -3.7321,11.65075 -1.7426,0.21128 -3.53594,-0.2106 -3.98519,-0.9375 z m -5.96481,-8.73039 c 1.1938,-0.63731 3.18751,-1.47592 4.43047,-1.86356 1.80338,-0.56243 2.18217,-1.78035 1.875,-6.02875 l -0.38493,-5.32394 -5.625,0 -5.625,0 -0.39136,5.45551 c -0.60932,8.49379 0.79054,10.3928 5.72082,7.76074 z"
         id="path3456"
         inkscape:connector-curvature="0" />
      <path
         style="fill:#5c5c5c"
         d="m -966.17526,941.94127 c -0.79372,-0.5051 135.69944,-0.91837 303.31814,-0.91837 167.6187,0 304.11186,0.41327 303.31814,0.91837 -0.79373,0.5051 -137.28689,0.91835 -303.31814,0.91835 -166.03125,0 -302.52441,-0.41325 -303.31814,-0.91835 z m -8.394,-9.35587 c -1.04719,-3.90756 -0.81151,-849.810144 0.2375,-852.453366 0.4673,-1.177478 0.84964,190.775646 0.84964,426.562496 0,235.78686 -0.075,428.70337 -0.16671,428.70337 -0.0917,0 -0.50589,-1.26562 -0.92043,-2.8125 z m 622.33714,-425.9375 c 0,-235.7612 0.38234,-427.693344 0.84964,-426.515866 0.46731,1.177478 0.84965,193.109616 0.84965,426.515866 0,233.40625 -0.38234,425.33839 -0.84965,426.51588 -0.4673,1.17747 -0.84964,-190.75468 -0.84964,-426.51588 z m -583.24974,391.0829 c -2.47486,-1.43532 -5.42798,-4.18107 -6.5625,-6.10166 -1.90488,-3.2247 -2.06276,-32.69061 -2.06276,-384.98124 0,-359.24203 0.12598,-381.70253 2.16019,-385.14618 1.18811,-2.01131 4.45946,-4.76997 7.26966,-6.13037 5.04223,-2.4409 8.6186,-2.47345 271.82015,-2.47345 263.20155,0 266.77791,0.0325 271.82015,2.47345 2.8102,1.3604 6.08155,4.11906 7.26965,6.13037 2.03423,3.44365 2.1602,25.90415 2.1602,385.14618 0,353.19324 -0.1539,381.7498 -2.07491,385.00182 -1.1412,1.9319 -4.17091,4.69056 -6.73269,6.13036 l -4.65779,2.61782 -267.9548,-0.0287 -267.95481,-0.0287 -4.49974,-2.60968 z m 545.29877,-5.97243 2.95097,-2.38954 0.3433,-379.79796 c 0.18881,-208.88888 0.0339,-381.0779 -0.34429,-382.64226 -0.37819,-1.56436 -1.7983,-3.95499 -3.15581,-5.3125 -2.44236,-2.44237 -5.29424,-2.46821 -272.4682,-2.46821 -267.17396,0 -270.02583,0.0258 -272.46821,2.46821 -1.35751,1.35751 -2.77762,3.74814 -3.1558,5.3125 -0.37817,1.56436 -0.53311,173.75338 -0.34429,382.64226 l 0.3433,379.79796 2.95098,2.38954 c 2.88513,2.33621 8.96977,2.38953 272.67402,2.38953 263.70425,0 269.78889,-0.0534 272.67403,-2.38953 z m -63.35584,-49.42865 c -3.28686,-3.28685 -3.8604,-8.30305 -2.27329,-19.88235 0.61184,-4.46378 1.31458,-5.79947 3.05124,-5.79947 1.24097,0 2.60396,0.5625 3.02886,1.25 0.4249,0.6875 3.52994,1.25 6.90008,1.25 8.59325,0 11.22492,2.9992 11.22492,12.79253 0,9.91839 -3.28729,13.45747 -12.5,13.45747 -5.08979,0 -6.97781,-0.61417 -9.43181,-3.06818 z m 15.63784,-4.34964 c 1.93321,-3.61224 1.56152,-10.88605 -0.67032,-13.11789 -2.43227,-2.43227 -3.56302,-2.46622 -5.47343,-0.16432 -0.8216,0.98997 -2.7186,1.97435 -4.21556,2.1875 -2.04622,0.29135 -2.81787,1.38146 -3.10911,4.39227 -0.61871,6.39611 1.5505,9.12026 7.26239,9.12026 3.57707,0 5.26371,-0.6571 6.20602,-2.41782 z m -14.01853,-38.22945 c -2.93723,-1.65131 -3.4375,-2.73388 -3.4375,-7.43845 0,-5.29549 -0.15491,-5.52085 -4.05381,-5.89758 -5.5706,-0.53826 -8.08673,-5.61513 -6.08843,-12.28487 0.77205,-2.57689 2.27488,-5.40824 3.33959,-6.29188 2.89014,-2.3986 8.95149,-1.94097 12.12533,0.91545 4.5725,4.11522 6.83122,4.30413 11.72822,0.98094 5.5204,-3.74625 6.69955,-3.80404 10.85905,-0.53217 7.05691,5.55097 5.18318,17.53421 -2.92334,18.69583 -3.99992,0.57318 -4.3301,0.94075 -3.98163,4.4327 0.25552,2.56047 -0.42923,4.54002 -2.09048,6.04343 -3.39917,3.07622 -11.21702,3.77157 -15.477,1.3766 z m 4.79911,-34.50455 c -2.2868,-4.58403 -1.69377,-6.09818 2.38839,-6.09818 3.96349,0 4.59065,1.35334 2.81151,6.06683 -1.8594,4.9261 -2.75537,4.9315 -5.1999,0.0314 z m -195.56607,-159.22318 -3.98116,-4.375 -17.30641,0 -17.3064,0 -6.43581,-5.12427 c -3.5397,-2.81835 -6.98817,-6.15636 -7.66328,-7.41783 -0.67512,-1.26145 -1.22748,-12.05286 -1.22748,-23.98092 l 0,-21.68738 6.60181,-6.5198 6.6018,-6.5198 21.08842,0 21.08841,0 6.68477,6.68479 6.68479,6.68478 0,20.8974 c 0,20.61292 -0.5466,23.95821 -4.57242,27.98402 -2.37296,2.37295 -2.20444,2.94949 2.76381,9.45621 2.44276,3.19919 4.09706,6.37383 3.67622,7.05475 -0.42083,0.68093 -3.45407,1.23805 -6.74054,1.23805 -5.23736,0 -6.46709,-0.54036 -9.95653,-4.375 z m -15.80361,-19.0625 c -2.77043,-6.72952 -2.68387,-6.85012 4.51682,-6.29335 3.70769,0.28669 7.72563,0.96609 8.92875,1.50979 2.02834,0.91661 2.1875,-0.33336 2.1875,-17.17947 0,-18.13835 -0.005,-18.17224 -3.29358,-20.75874 -2.85442,-2.24529 -5.03395,-2.59073 -16.34614,-2.59073 -12.75988,0 -13.13453,0.0819 -16.70643,3.65385 l -3.65385,3.65384 0,16.25025 c 0,15.6587 0.11775,16.39025 3.23611,20.09615 3.0852,3.66655 3.6744,3.84591 12.63374,3.84591 8.45985,0 9.30776,-0.21828 8.49707,-2.1875 z m -45.4762,-63.94907 c -1.25968,-0.79774 -1.56352,-2.87541 -1.1103,-7.59215 0.9682,-10.07628 3.70615,-11.99894 19.4561,-13.66266 15.96628,-1.68658 32.46151,-1.71819 47.13847,-0.0904 12.72294,1.41113 16.00225,2.69698 17.98693,7.05288 2.14085,4.69865 1.77685,13.76218 -0.58917,14.67011 -3.12519,1.19925 -80.95196,0.84445 -82.88204,-0.37784 z m 5.28045,-30.81883 c -0.41271,-1.07547 -0.41707,-4.76958 -0.01,-8.20913 0.74033,-6.25098 0.73743,-6.25719 -6.62247,-14.16853 -8.67652,-9.32662 -10.95311,-15.13006 -8.9107,-22.71502 3.85735,-14.32512 14.7345,-21.47583 28.80673,-18.93775 7.26708,1.3107 12.5282,5.03612 17.59231,12.4572 2.26265,3.31575 4.8582,6.02863 5.76788,6.02863 0.90968,0 2.73565,-2.10937 4.05772,-4.6875 4.85354,-9.46476 13.167,-14.17147 25.13214,-14.2287 10.35146,-0.0495 16.00629,3.30297 20.31065,12.0412 4.93631,10.02113 3.45365,18.80757 -4.71468,27.9398 -7.40704,8.2811 -8.48692,10.80359 -7.57335,17.69042 1.17813,8.88116 0.41364,9.17308 -20.12561,7.68541 -10.5646,-0.7652 -22.58951,-0.82684 -31.0071,-0.15893 -19.80737,1.57165 -21.84324,1.50555 -22.70382,-0.7371 z m 23.72686,-20.93246 c -0.35825,-5.1142 -5.04006,-14.61214 -7.20275,-14.61214 -2.75335,0 -2.47533,5.23903 0.47722,8.99258 1.33239,1.69385 2.80577,4.60671 3.27418,6.47302 1.05911,4.21984 3.75996,3.55197 3.45135,-0.85346 z m 28.91894,0.79901 c 0.4609,-1.83636 1.92812,-4.72472 3.26051,-6.41857 3.10181,-3.94333 3.28314,-9.34163 0.29444,-8.76605 -2.55529,0.4921 -8.52313,13.77351 -7.44794,16.57537 1.14182,2.97558 2.96015,2.32599 3.89299,-1.39075 z m -17.71769,-33.22365 c -2.5362,-3.28368 -8.14745,-19.26481 -8.28232,-23.58848 -0.24246,-7.77332 6.057,-12.32458 13.60893,-9.83222 5.5901,1.8449 7.48995,6.61648 5.53216,13.89432 -1.55047,5.76371 -8.16456,21.08888 -9.10161,21.08888 -0.30269,0 -1.09341,-0.70312 -1.75716,-1.5625 z M -884.61891,253.08108 c -0.79426,-1.28514 1.94049,-8.93318 3.19429,-8.93318 1.34823,0 4.8713,7.65169 4.09866,8.90183 -0.87064,1.40872 -6.42692,1.43261 -7.29295,0.0314 z m 12.2022,-6.43646 c -1.47653,-0.58934 -3.07804,-1.70814 -3.55892,-2.48623 -0.48089,-0.77807 -2.22309,-1.92749 -3.87156,-2.55424 -2.35422,-0.89507 -3.97457,-0.47628 -7.553,1.9521 -5.52859,3.75182 -6.70647,3.81007 -10.86688,0.53749 -7.05691,-5.55097 -5.18318,-17.53421 2.92334,-18.69584 3.99993,-0.57317 4.3301,-0.94075 3.98163,-4.4327 -0.72185,-7.23346 9.18758,-11.61411 17.0615,-7.54235 3.52042,1.82048 3.94348,2.63077 3.94348,7.55295 0,5.30432 0.15395,5.52858 4.05381,5.9054 5.57061,0.53827 8.08673,5.61514 6.08843,12.28488 -2.03521,6.79292 -6.72226,9.66564 -12.20183,7.47854 z m -4.19041,-51.24672 c -1.03125,-0.66644 -4.4597,-1.22033 -7.61877,-1.23086 -8.03237,-0.0268 -9.88123,-2.40983 -9.88123,-12.73633 0,-10.68969 1.64946,-12.28281 12.71719,-12.28281 11.55313,0 12.62563,1.43428 12.079,16.15351 -0.38528,10.37444 -0.63435,11.34004 -2.92119,11.32484 -1.375,-0.009 -3.34375,-0.5619 -4.375,-1.22835 z m -1.94645,-7.62347 c 3.82183,-2.25493 4.44645,-3.27338 4.44645,-7.25 0,-5.80478 -1.79152,-7.62653 -7.5,-7.62653 -5.93708,0 -7.5,1.82341 -7.5,8.75 0,8.95934 2.89949,10.64254 10.55355,6.12653 z M -965.62299,71.42326 c 2.79892,-1.110803 602.73282,-1.110803 605.53174,0 1.17748,0.467303 -135.06717,0.849643 -302.76587,0.849643 -167.6987,0 -303.94335,-0.38234 -302.76587,-0.849643 z"
         id="path3454"
         inkscape:connector-curvature="0" />
      <path
         style="fill:#2e2e2e"
         d="m -813.79462,941.96045 c 83.01563,-0.17742 218.85938,-0.17742 301.875,0 83.01563,0.17743 15.09375,0.32259 -150.9375,0.32259 -166.03125,0 -233.95312,-0.14516 -150.9375,-0.32259 z M -974.73937,506.6479 c 0,-233.40625 0.14388,-328.89062 0.31973,-212.1875 0.17585,116.70313 0.17585,307.67188 0,424.375 -0.17585,116.70313 -0.31973,21.21875 -0.31973,-212.1875 z m 623.75,0 c 0,-233.40625 0.14387,-328.89062 0.31972,-212.1875 0.17585,116.70313 0.17585,307.67188 0,424.375 -0.17585,116.70313 -0.31972,21.21875 -0.31972,-212.1875 z m -583.90936,390.10243 c -2.15413,-1.31353 -4.82601,-3.68659 -5.9375,-5.27346 -1.85049,-2.64194 -2.02089,-35.10034 -2.02089,-384.93853 l 0,-382.05329 2.61037,-3.31855 c 5.93514,-7.5453 -14.88122,-7.0186 277.38963,-7.0186 292.27085,0 271.4545,-0.5267 277.38963,7.0186 l 2.61037,3.31855 0,382.16285 0,382.16285 -2.61037,3.31855 c -5.93533,7.54555 14.90661,7.01903 -277.64006,7.01393 -261.49143,-0.005 -267.9679,-0.0616 -271.79118,-2.3929 z m 542.52536,-2.54873 c 1.73059,-0.65796 4.0172,-2.88002 5.08137,-4.93792 1.73402,-3.3532 1.93488,-43.07318 1.93488,-382.61578 0,-412.394278 0.5031,-383.91087 -6.84007,-387.25664 -2.50849,-1.14295 -66.04615,-1.49336 -270.78082,-1.49336 -291.02989,0 -272.56057,-0.45791 -275.88575,6.84008 -1.14731,2.51807 -1.49336,91.04332 -1.49336,382.03081 0,339.90258 0.19904,379.13816 1.94045,382.50568 1.06725,2.06383 3.17662,4.25025 4.6875,4.8587 3.83616,1.54487 537.2951,1.61231 541.3558,0.0685 z m -60.48375,-52.5537 c -2.64081,-2.64081 -3.25694,-9.62786 -1.68685,-19.12931 0.61824,-3.7413 1.21457,-4.57466 2.79875,-3.91115 1.1072,0.46374 4.8256,1.12534 8.2631,1.4702 8.83302,0.88618 10.625,2.87024 10.625,11.764 0,9.61371 -2.46145,12.30626 -11.25,12.30626 -4.58334,0 -6.91666,-0.66666 -8.75,-2.5 z m 14.91247,-1.76953 c 0.86617,-1.04367 1.31352,-4.76113 1.09055,-9.0625 -0.33941,-6.54807 -0.67464,-7.33499 -3.28215,-7.70442 -1.59727,-0.22628 -4.83164,0.50323 -7.1875,1.62115 -3.99194,1.8943 -4.28337,2.43682 -4.28337,7.97395 0,3.26774 0.675,6.61635 1.5,7.44135 2.07089,2.07089 10.37278,1.88692 12.16247,-0.26953 z M -451.466,799.04555 c -2.75568,-1.10257 -2.92613,-1.6814 -2.22887,-7.56873 l 0.75501,-6.37487 -3.73467,0.74694 c -7.20385,1.44076 -10.92949,-6.2301 -6.85383,-14.11159 3.21624,-6.21951 7.56007,-6.64715 13.60527,-1.3394 5.17647,4.54502 5.73865,4.5754 11.5599,0.625 5.74206,-3.89667 7.33992,-3.90478 11.18788,-0.0568 6.42642,6.4264 2.28688,18.05703 -5.79501,16.28195 l -3.70034,-0.81272 0.79025,4.94192 c 0.67902,4.24637 0.38044,5.22897 -2.12137,6.98129 -3.20595,2.24554 -8.84933,2.5335 -13.46421,0.68703 z m 5.17138,-34.85955 c -2.15131,-3.44785 -2.01096,-3.7881 1.5625,-3.7881 3.48929,0 3.86783,1.00715 1.5625,4.15724 -1.45569,1.9891 -1.66931,1.96388 -3.125,-0.36914 z m -196.22584,-159.4131 -3.87332,-4.375 -17.91918,-0.0219 -17.91916,-0.0219 -6.5625,-6.10588 -6.5625,-6.1059 0,-22.3567 0,-22.35672 6.29408,-6.20301 6.29407,-6.20301 17.60879,-0.40965 c 9.68482,-0.2253 18.99484,-0.0618 20.6889,0.36342 1.69407,0.42519 5.84404,3.35838 9.22215,6.5182 l 6.14201,5.74513 0,21.83601 c 0,21.46804 -0.0526,21.89858 -3.125,25.54985 -1.71875,2.04261 -3.125,4.1523 -3.125,4.68819 0,0.53589 1.94278,3.51871 4.31726,6.6285 2.3745,3.10977 3.96825,6.00317 3.54168,6.42975 -0.42659,0.42657 -3.1096,0.7756 -5.96228,0.7756 -4.35651,0 -5.80661,-0.70025 -9.06,-4.375 z m -14.8853,-16.875 c -0.0955,-1.03125 -0.60055,-2.91927 -1.12231,-4.1956 -0.86519,-2.11637 -0.40986,-2.26805 5.17364,-1.72331 3.36727,0.32851 7.38794,1.01651 8.93481,1.5289 l 2.8125,0.93159 0,-18.67789 c 0,-18.46239 -0.0372,-18.71287 -3.2257,-21.7083 -3.02238,-2.83936 -4.11917,-3.03039 -17.3993,-3.03039 -13.28012,0 -14.37693,0.19103 -17.3993,3.03039 -3.18038,2.98783 -3.2257,3.28541 -3.2257,21.18161 0,18.05542 0.018,18.16995 3.40443,21.70465 3.22897,3.37034 3.88923,3.5349 12.8125,3.1934 7.46454,-0.28567 9.3722,-0.74738 9.23443,-2.23505 z m -45.85123,-65.81653 c -0.46757,-0.46758 -0.85013,-3.25627 -0.85013,-6.19709 0,-8.89764 3.33285,-11.45815 16.875,-12.96449 14.24574,-1.5846 36.8837,-1.60621 50.625,-0.0484 9.12662,1.03471 11.03046,1.67045 13.50016,4.50807 2.28114,2.62096 2.79766,4.50078 2.5,9.09844 l -0.37516,5.79497 -40.71237,0.32929 c -22.39181,0.18111 -41.09493,-0.0532 -41.5625,-0.52082 z m 5.70758,-30.94678 c -0.38691,-0.62606 -0.59016,-4.28231 -0.45167,-8.125 0.24511,-6.80156 0.0975,-7.13574 -5.57338,-12.61169 -6.19616,-5.98326 -10.46796,-13.61656 -10.493,-18.75 -0.0227,-4.65708 5.41406,-15.4422 9.3419,-18.53183 7.40873,-5.82772 19.36646,-6.24748 27.2192,-0.95552 2.18012,1.46918 6.07953,5.47049 8.66535,8.8918 2.58583,3.4213 5.50108,6.22055 6.47833,6.22055 0.97725,0 3.65641,-2.80022 5.95369,-6.22273 12.89056,-19.20445 40.15052,-16.29992 44.86816,4.78068 1.97374,8.8196 0.41655,13.44788 -7.61108,22.62149 -6.86326,7.84303 -7.73991,10.0462 -7.20031,18.09556 l 0.3701,5.52085 -35.43191,0.10213 c -20.07833,0.0579 -35.73674,-0.39119 -36.13538,-1.03624 z m 24.02771,-16.86199 c 0.41729,-1.31476 -0.73246,-6.08815 -2.57513,-10.69105 -2.78304,-6.95192 -3.76415,-8.25367 -5.98215,-7.9372 -3.92738,0.56037 -4.04014,5.39462 -0.25329,10.85904 1.77384,2.55964 3.22515,5.51428 3.22515,6.56586 0,4.07177 4.37581,5.0145 5.58542,1.20335 z m 28.23902,-1.53741 c 0.48358,-1.80825 2.12006,-4.96604 3.63664,-7.0173 3.37756,-4.5684 3.01287,-9.53819 -0.73922,-10.07354 -2.218,-0.31647 -3.19911,0.98528 -5.98215,7.9372 -3.43634,8.58382 -3.35382,13.51253 0.21469,12.82494 1.09495,-0.21097 2.38646,-1.86306 2.87004,-3.6713 z m -19.48608,-38.11029 c -3.532,-8.2286 -6.83836,-18.25136 -6.83836,-20.7295 0,-3.33125 5.56271,-8.4975 9.14961,-8.4975 1.65728,0 4.55739,1.21463 6.44469,2.69918 2.89628,2.27821 3.33725,3.40145 2.82748,7.20211 -0.61942,4.61808 -6.68539,21.1002 -8.49263,23.07571 -0.55447,0.60609 -1.94532,-1.08141 -3.09079,-3.75 z M -884.10712,252.19073 c 0,-0.38895 0.60715,-1.84165 1.34922,-3.22823 1.29974,-2.42857 1.41289,-2.43702 3.08525,-0.23032 2.49685,3.29465 2.22303,4.16572 -1.30947,4.16572 -1.71875,0 -3.125,-0.31822 -3.125,-0.70717 z m 8.31598,-9.29283 c -5.17648,-4.54501 -5.73865,-4.5754 -11.5599,-0.625 -5.74207,3.89668 -7.33993,3.90479 -11.1879,0.0567 -6.4264,-6.4264 -2.28686,-18.05702 5.79502,-16.28195 l 3.70034,0.81273 -0.79025,-4.94193 c -0.67902,-4.24636 -0.38044,-5.22896 2.12137,-6.98128 3.33271,-2.33433 8.17971,-2.61458 13.06908,-0.75564 3.21509,1.22237 3.34047,1.58796 2.62275,7.64797 l -0.75375,6.36424 3.73467,-0.74694 c 7.20385,-1.44076 10.92949,6.2301 6.85382,14.11159 -3.21623,6.21951 -7.56006,6.64715 -13.60525,1.3394 z m 2.59762,-46.9955 c -0.52878,-0.53293 -4.33627,-1.3669 -8.46109,-1.85326 -10.2814,-1.21227 -11.20251,-2.23194 -11.20251,-12.40124 0,-10.42727 1.37153,-11.875 11.25,-11.875 9.90404,0 11.28523,1.45751 11.10211,11.71556 -0.17218,9.64488 -1.31914,15.79409 -2.68851,14.41394 z m -7.1636,-6.1295 c 0.85586,-1.03125 2.55205,-1.875 3.76932,-1.875 4.33945,0 5.21364,-9.76704 1.23068,-13.75 -5.9213,-5.92129 -15,-1.38194 -15,7.5 0,7.68325 6.19156,12.71389 10,8.125 z m 67.1875,-119.06245 c 82.67188,-0.177444 217.95313,-0.177444 300.625,0 82.67188,0.177445 15.03125,0.322626 -150.3125,0.322626 -165.34375,0 -232.98437,-0.145181 -150.3125,-0.322626 z"
         id="path3452"
         inkscape:connector-curvature="0" />
      <path
         style="fill:#171717"
         d="m -812.54462,941.96045 c 82.32813,-0.17747 217.04688,-0.17747 299.375,0 82.32813,0.17747 14.96875,0.32267 -149.6875,0.32267 -164.65625,0 -232.01562,-0.1452 -149.6875,-0.32267 z M -974.73937,506.6479 c 0,-233.40625 0.14388,-328.89062 0.31973,-212.1875 0.17585,116.70313 0.17585,307.67188 0,424.375 -0.17585,116.70313 -0.31973,21.21875 -0.31973,-212.1875 z m 623.75,0 c 0,-233.40625 0.14387,-328.89062 0.31972,-212.1875 0.17585,116.70313 0.17585,307.67188 0,424.375 -0.17585,116.70313 -0.31972,21.21875 -0.31972,-212.1875 z m -584.59691,389.10279 c -1.84479,-1.14439 -4.09479,-3.46457 -5,-5.15597 -2.45676,-4.5905 -2.44232,-763.33011 0.0146,-767.92094 0.91325,-1.70642 3.25004,-4.04158 5.19287,-5.18923 3.26969,-1.93145 23.53828,-2.08665 272.52168,-2.08665 248.9834,0 269.25199,0.1552 272.52167,2.08665 1.94283,1.14765 4.27963,3.48281 5.19288,5.18923 2.46986,4.61499 2.46986,763.33325 0,767.94825 -0.91325,1.70641 -3.25005,4.04157 -5.19288,5.18922 -3.27018,1.93175 -23.51477,2.08418 -272.71453,2.05339 -248.88801,-0.0308 -269.43502,-0.19012 -272.5363,-2.11395 z m 547.16097,-3.42097 3.06819,-3.06818 0,-382.61364 0,-382.61363 -3.06819,-3.06819 -3.06817,-3.06818 -271.36364,0 -271.36364,0 -3.06818,3.06818 -3.06818,3.06819 0,382.61363 0,382.61364 3.06818,3.06818 3.06818,3.06818 271.36364,0 271.36364,0 3.06817,-3.06818 z m -64.41632,-51.28815 c -1.46984,-1.77105 -1.46598,-19.61873 0.005,-21.07417 1.00876,-0.9984 7.47996,0.63779 7.47996,1.89125 0,0.64312 -1.6875,1.75757 -3.75,2.47655 -3.53595,1.23264 -3.75,1.68868 -3.75,7.9891 0,5.4878 0.49645,7.02957 2.77814,8.62773 2.08384,1.45957 2.27827,1.94587 0.77805,1.94587 -1.10004,0 -2.69335,-0.83535 -3.5407,-1.85633 z m 14.70637,-0.0895 c 3.99818,-2.80043 4.02527,-14.29487 0.0425,-18.00543 -1.5047,-1.40182 -2.15437,-2.54874 -1.4438,-2.54874 3.29458,0 5.42944,4.73254 5.42944,12.03593 0,7.52037 -1.37932,10.46407 -4.90314,10.46407 -1.32945,0 -1.06569,-0.58656 0.875,-1.94587 z m -14.04102,-43.48373 c -1.73755,-1.27052 -2.0906,-2.56441 -1.44958,-5.3125 1.70314,-7.30152 1.66093,-7.4089 -2.7446,-6.98029 -5.45727,0.53092 -7.73666,-1.57637 -7.73666,-7.15257 0,-9.94823 6.68988,-12.95503 14.18403,-6.37508 5.18766,4.55483 6.29886,4.61772 11.04393,0.625 2.04262,-1.71875 5.04505,-3.125 6.67207,-3.125 5.5739,0 8.81293,8.99654 5.48069,15.22287 -1.15113,2.15091 -2.14962,2.43372 -6.26758,1.77523 l -4.8983,-0.78326 0.80125,5.0108 c 0.52085,3.25716 0.2547,5.66939 -0.76046,6.89259 -1.96292,2.36516 -11.18867,2.49537 -14.32479,0.20217 z m 6.19416,-34.57044 c -0.4249,-0.6875 0.10438,-1.25 1.17623,-1.25 1.07182,0 1.94877,0.5625 1.94877,1.25 0,0.6875 -0.5293,1.25 -1.17623,1.25 -0.64692,0 -1.52387,-0.5625 -1.94877,-1.25 z m -196.12041,-159.0625 -3.17661,-4.0625 -18.73982,-0.625 -18.73981,-0.625 -5.67418,-4.74971 -5.67417,-4.74971 0,-22.79728 0,-22.79727 5.98044,-5.89051 5.98043,-5.89052 19.69812,0 19.69811,0 6.19645,5.79605 6.19645,5.79605 0,22.26455 c 0,21.95094 -0.0435,22.31153 -3.09095,25.59974 -3.4176,3.68765 -3.16034,4.85353 2.80917,12.73111 l 3.07851,4.0625 -5.68277,0 c -4.92638,0 -6.10557,-0.54072 -8.85937,-4.0625 z m -14.50459,-13.4185 c 1.56463,-0.99528 1.60935,-1.62127 0.27015,-3.7817 -0.88266,-1.42395 -1.27134,-3.12861 -0.86372,-3.78815 1.17557,-1.90212 6.74859,-1.3966 10.76607,0.97659 5.40215,3.19114 6.03616,1.21726 6.05836,-18.86172 l 0.0191,-17.31099 -3.8822,-3.62651 c -3.81067,-3.55972 -4.14278,-3.62652 -18.02909,-3.62652 -13.39586,0 -14.35107,0.1718 -17.9928,3.23612 l -3.84591,3.23612 0,18.50939 0,18.5094 4.4185,3.87949 c 4.011,3.5217 5.19263,3.87772 12.8125,3.86035 4.6167,-0.01 9.23775,-0.55587 10.269,-1.21187 z m -47.05439,-74.7065 c 0.86884,-6.56802 5.15019,-11.55453 9.93659,-11.57318 1.50854,-0.006 9.12661,-0.57575 16.92905,-1.26637 14.53546,-1.28657 44.76818,0.22853 50.87273,2.54948 2.92924,1.1137 5.5442,7.42407 5.55905,13.41507 l 0.007,2.8125 -42.0449,0 -42.04491,0 0.78542,-5.9375 z m 7.102,-24.63013 c -0.90322,-1.08832 -1.115,-3.9581 -0.58622,-7.94418 l 0.82781,-6.24037 -7.56624,-8.13315 c -5.19952,-5.58909 -7.82977,-9.53787 -8.40871,-12.6239 -2.52461,-13.45732 6.54045,-25.609 19.93259,-26.71958 9.97633,-0.82732 16.86366,2.81986 23.34316,12.36134 2.75174,4.05211 5.8521,7.36747 6.88971,7.36747 1.03762,0 2.84478,-1.81985 4.01593,-4.0441 5.9239,-11.25071 15.93214,-16.8094 28.1509,-15.63532 7.4862,0.71932 11.90097,3.83134 15.54096,10.95496 5.19251,10.16198 3.41899,17.8331 -6.74442,29.17215 -5.74859,6.41355 -5.82355,6.6197 -5.9729,16.42731 l -0.0951,6.25 -9.375,-0.625 c -13.5643,-0.90428 -40.53141,-0.767 -50.20667,0.25559 -6.3565,0.67183 -8.6669,0.47666 -9.74572,-0.82322 z m 23.50913,-16.87913 c 0.57424,-4.05159 -3.52714,-15.88897 -6.40867,-18.49672 -1.73145,-1.56695 -2.81318,-1.75129 -4.40874,-0.7513 -3.26477,2.04611 -3.15204,5.73775 0.33196,10.87172 1.74829,2.57625 3.17871,5.25859 3.17871,5.96075 0,2.811 2.79096,6.23984 4.77184,5.86245 1.15674,-0.22037 2.29745,-1.77147 2.5349,-3.4469 z m 28.07054,-0.55832 c 0.66519,-1.99654 2.53993,-5.59067 4.16608,-7.98693 4.38247,-6.45792 3.35657,-11.50799 -2.33778,-11.50799 -3.83453,0 -9.95539,16.78859 -7.98905,21.91278 1.18218,3.08071 4.80211,1.66004 6.16075,-2.41786 z m -19.12083,-39.48287 c -2.60471,-4.86695 -6.25645,-16.54863 -6.25645,-20.014 0,-4.3443 3.55274,-7.49805 8.44664,-7.49805 8.31984,0 9.74022,6.04715 4.6173,19.65754 -3.85684,10.24666 -4.88955,11.43821 -6.80749,7.85451 z M -882.85712,250.3979 c 0,-0.6875 0.5293,-1.25 1.17623,-1.25 0.64693,0 1.52387,0.5625 1.94877,1.25 0.4249,0.6875 -0.1044,1.25 -1.17623,1.25 -1.07182,0 -1.94877,-0.5625 -1.94877,-1.25 z m 7.06598,-8.75 c -5.18767,-4.55482 -6.29887,-4.61771 -11.04394,-0.625 -2.04262,1.71875 -5.04505,3.125 -6.67207,3.125 -5.5739,0 -8.81293,-8.99653 -5.4807,-15.22286 1.15114,-2.15091 2.14962,-2.43372 6.26759,-1.77524 l 4.89831,0.78327 -0.80126,-5.0108 c -1.05326,-6.58672 0.83044,-8.77437 7.55523,-8.77437 7.12776,0 10.07522,2.29509 8.9796,6.9921 -1.70314,7.30153 -1.66093,7.4089 2.74459,6.98029 5.45729,-0.53095 7.73667,1.57634 7.73667,7.15254 0,9.94822 -6.68987,12.95502 -14.18402,6.37507 z m -2.5739,-48.58539 c -2.95971,-0.64329 -3.30716,-1.05422 -1.875,-2.2176 0.96686,-0.78539 2.88292,-1.63461 4.25792,-1.88714 2.09507,-0.38479 2.56018,-1.60319 2.87153,-7.52229 0.32377,-6.15521 0.007,-7.31857 -2.46563,-9.05035 -1.56044,-1.09297 -2.14951,-1.98723 -1.30903,-1.98723 3.35711,0 6.52813,4.96616 6.52813,10.22376 0,5.14602 -2.34934,13.66692 -3.68861,13.37835 -0.37752,-0.0813 -2.3212,-0.50322 -4.31931,-0.9375 z m -11.99208,-2.66461 c -1.83333,-1.83333 -2.5,-4.16666 -2.5,-8.75 0,-6.29233 2.87683,-11.25 6.52813,-11.25 0.84048,0 0.27798,0.87565 -1.25,1.94588 -2.33584,1.63609 -2.77813,3.11735 -2.77813,9.30412 0,6.18678 0.44229,7.66804 2.77813,9.30412 1.52798,1.07024 2.09048,1.94588 1.25,1.94588 -0.84047,0 -2.65313,-1.125 -4.02813,-2.5 z m 77.8125,-119.687449 c 82.32813,-0.177467 217.04688,-0.177467 299.375,0 82.32813,0.177467 14.96875,0.322667 -149.6875,0.322667 -164.65625,0 -232.01562,-0.1452 -149.6875,-0.322667 z"
         id="path3450"
         inkscape:connector-curvature="0" />
      <path
         style="fill:#020202"
         d="m -796.91962,896.96047 c 73.73438,-0.1781 194.39063,-0.1781 268.125,0 73.73438,0.1781 13.40625,0.32381 -134.0625,0.32381 -147.46875,0 -207.79687,-0.14571 -134.0625,-0.32381 z m 344.30209,-74.15632 c 0.24635,-0.73906 0.85572,-1.30156 1.35416,-1.25 0.49844,0.0515 1.7832,0.0937 2.85502,0.0937 1.07183,0 1.60113,0.5625 1.17623,1.25 -1.04285,1.68737 -5.95064,1.60193 -5.38541,-0.0937 z m 2.43731,-24.99536 c -3.05481,-1.22339 -3.02064,-0.89214 -1.21604,-11.78589 0.36703,-2.21557 -0.1807,-2.45592 -4.81427,-2.11256 -4.27549,0.31683 -5.48674,-0.0952 -6.64572,-2.26081 -2.96547,-5.54104 2.25045,-14.66443 7.33013,-12.82144 1.1242,0.40789 3.8917,2.3342 6.15,4.2807 5.00915,4.31759 6.52721,4.39706 10.1584,0.53185 4.17055,-4.43935 7.38094,-4.83604 10.8734,-1.34356 3.33415,3.33414 3.84316,7.7024 1.30241,11.17709 -1.36879,1.87192 -2.65828,2.14842 -6.875,1.47413 -5.77671,-0.92372 -6.41411,0.14582 -3.67266,6.16263 1.3484,2.9594 1.19362,3.59295 -1.38848,5.68381 -3.15216,2.55246 -6.58481,2.8632 -11.20217,1.01405 z m -191.25636,-194.28589 -3.98116,-4.375 -17.95951,0 -17.95948,0 -6.3852,-5.74083 -6.38519,-5.74084 0,-21.65091 0,-21.65093 5.9375,-5.71844 5.9375,-5.71843 20.04699,-0.0147 20.04699,-0.0148 5.89051,5.98043 5.89051,5.98044 0,20.79865 c 0,20.36155 -0.0656,20.87671 -3.125,24.51251 -3.85623,4.58287 -3.8828,5.85662 -0.22393,10.73498 5.09167,6.78871 5.10623,6.99299 0.49854,6.99299 -3.26311,0 -5.17087,-1.01427 -8.22907,-4.375 z m -13.09033,-13.83402 c 0.41347,-1.07746 0.1145,-2.59621 -0.66423,-3.375 -0.77879,-0.77879 -1.41598,-1.86598 -1.41598,-2.41598 0,-1.82892 7.89279,-1.032 10.16751,1.0266 1.23166,1.11464 3.10408,1.69479 4.16093,1.28924 1.61496,-0.61972 1.92156,-3.84456 1.92156,-20.21129 l 0,-19.47392 -3.34007,-3.09548 c -4.46833,-4.1411 -6.87495,-4.59766 -21.5689,-4.09181 -11.75935,0.40481 -12.75459,0.647 -16.00262,3.89404 -3.41753,3.4165 -3.46873,3.7002 -3.86573,21.41669 l -0.40233,17.95433 3.96931,4.5208 3.96932,4.5208 11.15975,0 c 8.97937,0 11.30661,-0.38275 11.91148,-1.95902 z m -48.33021,-72.98216 c 0,-4.50754 2.23269,-9.68877 4.5599,-10.5818 8.44455,-3.24048 55.48778,-3.7857 68.40543,-0.79282 6.32053,1.46442 7.19181,2.48543 7.96353,9.3321 l 0.64626,5.7337 -40.78756,0 -40.78756,0 0,-3.69118 z m 6.56399,-33.0822 0.31101,-8.13765 -7.04639,-7.23198 c -8.97381,-9.21017 -10.7857,-14.33036 -8.01889,-22.66045 3.35913,-10.1134 10.36344,-15.19654 20.9401,-15.19654 9.04431,0 14.36179,3.07725 20.15628,11.66454 6.00649,8.90146 9.55505,9.51223 13.24485,2.27961 3.27602,-6.42152 10.27775,-12.37988 15.75526,-13.40747 2.45281,-0.46015 7.56602,-0.57904 11.36265,-0.26419 8.7492,0.72555 13.75298,5.22234 16.1671,14.52906 2.18693,8.43077 0.6657,13.5931 -6.32502,21.46429 -7.49859,8.44301 -8.38894,10.46065 -7.90475,17.91313 l 0.41881,6.44603 -13.125,-0.625 c -18.28863,-0.87088 -28.58666,-0.78325 -43.43601,0.36963 l -12.81102,0.99462 0.31102,-8.13763 z m 23.94327,-8.49237 c 0.93132,-2.6482 0.45554,-5.22297 -2.22993,-12.06781 -3.57887,-9.1219 -5.62253,-11.00622 -9.61788,-8.86797 -3.40183,1.8206 -3.08085,7.84611 0.71555,13.43302 1.71875,2.52936 3.125,5.48078 3.125,6.55868 0,2.63036 2.63414,5.11731 4.94815,4.67167 1.03135,-0.19861 2.40795,-1.87604 3.05911,-3.72759 z m 26.74274,2.51575 c 0.825,-0.825 1.5,-2.38192 1.5,-3.45983 0,-1.0779 1.40625,-4.02932 3.125,-6.55868 3.7964,-5.58691 4.11738,-11.61242 0.71555,-13.43302 -3.92371,-2.09992 -5.96864,-0.3134 -9.37175,8.18743 -3.56489,8.90493 -3.81986,10.80535 -1.92483,14.34628 1.47448,2.75506 3.7657,3.10815 5.95603,0.91782 z m -19.0288,-46.58757 c -3.79797,-9.08984 -5.41676,-16.22055 -4.34011,-19.1181 2.15124,-5.78956 12.39726,-6.11261 14.19527,-0.44758 0.7759,2.44464 -4.68312,20.94568 -6.82492,23.13025 -0.61482,0.62708 -1.92071,-0.9091 -3.03024,-3.56457 z m -205.7212,-186.61289 c -1.03125,-0.367 -3.7227,-2.27204 -5.981,-4.23341 -5.00339,-4.34554 -6.52249,-4.4291 -10.1584,-0.55886 -4.17055,4.43935 -7.38093,4.83603 -10.87341,1.34356 -3.33414,-3.33414 -3.84315,-7.7024 -1.3024,-11.17709 1.38081,-1.88837 2.64889,-2.14992 7.02823,-1.44964 5.80937,0.92895 5.79866,0.95468 3.14487,-7.55545 -1.30984,-4.20036 4.35726,-7.4275 10.41487,-5.93077 4.26335,1.05339 4.58892,1.45927 4.42137,5.51212 -0.0995,2.40625 -0.38072,5.5 -0.625,6.875 -0.39515,2.22433 0.14047,2.45638 4.8573,2.10439 4.61418,-0.34432 5.4837,0.005 6.70743,2.69021 2.58733,5.67859 -2.64069,14.15695 -7.63386,12.37994 z m -6.875,-52.79954 c -0.4249,-0.6875 0.38566,-1.25 1.80123,-1.25 1.41557,0 2.57377,0.5625 2.57377,1.25 0,0.6875 -0.81055,1.25 -1.80123,1.25 -0.99068,0 -2.14887,-0.5625 -2.57377,-1.25 z m 80.3125,-75.93744 c 73.73438,-0.1781 194.39063,-0.1781 268.125,0 73.73438,0.1781 13.40625,0.32382 -134.0625,0.32382 -147.46875,0 -207.79687,-0.14572 -134.0625,-0.32382 z"
         id="path3448"
         inkscape:connector-curvature="0" />
    </g>
  </g>
</svg>
