<?xml version="1.0" encoding="UTF-8" standalone="no"?>
<!-- Created with Inkscape (http://www.inkscape.org/) -->

<svg
   xmlns:dc="http://purl.org/dc/elements/1.1/"
   xmlns:cc="http://creativecommons.org/ns#"
   xmlns:rdf="http://www.w3.org/1999/02/22-rdf-syntax-ns#"
   xmlns:svg="http://www.w3.org/2000/svg"
   xmlns="http://www.w3.org/2000/svg"
   xmlns:sodipodi="http://sodipodi.sourceforge.net/DTD/sodipodi-0.dtd"
   xmlns:inkscape="http://www.inkscape.org/namespaces/inkscape"
   width="176.4539mm"
   height="246.27023mm"
   viewBox="0 0 625.23037 872.61106"
   id="svg2"
   version="1.1"
   inkscape:version="0.91 r13725"
   sodipodi:docname="2.svg">
  <defs
     id="defs4" />
  <sodipodi:namedview
     id="base"
     pagecolor="#ffffff"
     bordercolor="#666666"
     borderopacity="1.0"
     inkscape:pageopacity="0.0"
     inkscape:pageshadow="2"
     inkscape:zoom="0.35"
     inkscape:cx="546.95642"
     inkscape:cy="200.18521"
     inkscape:document-units="px"
     inkscape:current-layer="layer1"
     showgrid="false"
     fit-margin-top="0"
     fit-margin-left="0"
     fit-margin-right="0"
     fit-margin-bottom="0"
     inkscape:window-width="784"
     inkscape:window-height="822"
     inkscape:window-x="800"
     inkscape:window-y="0"
     inkscape:window-maximized="0" />
  <metadata
     id="metadata7">
    <rdf:RDF>
      <cc:Work
         rdf:about="">
        <dc:format>image/svg+xml</dc:format>
        <dc:type
           rdf:resource="http://purl.org/dc/dcmitype/StillImage" />
        <dc:title></dc:title>
      </cc:Work>
    </rdf:RDF>
  </metadata>
  <g
     inkscape:label="Calque 1"
     inkscape:groupmode="layer"
     id="layer1"
     transform="translate(492.1984,462.08325)">
    <g
       transform="translate(-4227.8848,-1591.9639)"
       id="g4108">
      <path
         style="fill:#fdfdfd"
         d="m 3735.8,1566.2417 0,-436.25 312.5,0 312.5,0 0,436.25 0,436.25 -312.5,0 -312.5,0 0,-436.25 z"
         id="path4124"
         inkscape:connector-curvature="0" />
      <path
         style="fill:#f8dce8"
         d="m 3741.9252,2000.9334 c -1.8959,-0.7539 -3.8487,-2.9486 -4.6875,-5.2682 -2.0668,-5.7156 -2.07,-853.1223 0,-858.8378 0.9685,-2.6784 2.7229,-4.4328 5.4013,-5.4013 5.6984,-2.0606 605.6302,-2.0606 611.3286,0 2.6784,0.9685 4.4328,2.7229 5.4013,5.4013 2.0638,5.7073 2.0638,853.1213 0,858.8286 -0.9685,2.6784 -2.7229,4.4328 -5.4013,5.4013 -5.3415,1.9315 -607.1766,1.8097 -612.0391,-0.1239 z m 609.3031,-3.5795 c 1.6753,-0.7633 3.6706,-2.7586 4.4339,-4.4338 1.0084,-2.2132 1.3878,-118.8691 1.3878,-426.6784 0,-307.8093 -0.3794,-424.4652 -1.3878,-426.6783 -0.7633,-1.6753 -2.7586,-3.6705 -4.4339,-4.4339 -4.3418,-1.9782 -601.5148,-1.9782 -605.8566,0 -1.6753,0.7634 -3.6705,2.7586 -4.4339,4.4339 -1.9852,4.357 -1.9804,849.01 0,853.3671 0.7659,1.681 2.5941,3.6382 4.0625,4.3492 3.9091,1.8928 602.0711,1.966 606.2232,0.074 z m -575.4028,-37.6747 c -3.0273,-1.5469 -6.6621,-4.4006 -8.0773,-6.3417 l -2.5732,-3.5291 0,-383.5667 0,-383.5667 2.5732,-3.5291 c 1.4152,-1.9411 5.05,-4.7948 8.0773,-6.3417 l 5.5042,-2.8125 266.9703,0 266.9703,0 5.5042,2.8125 c 3.0273,1.5469 6.6621,4.4006 8.0773,6.3417 l 2.5732,3.5291 0,383.5667 0,383.5667 -2.5732,3.5291 c -1.4152,1.9411 -5.05,4.7948 -8.0773,6.3417 l -5.5042,2.8125 -266.9703,0 -266.9703,0 -5.5042,-2.8125 z m 543.9386,-10.5062 c 2.205,-1.9956 2.2859,-15.5386 2.2859,-382.7141 0,-352.4404 -0.1533,-380.8147 -2.0687,-382.9313 -1.992,-2.2011 -12.0658,-2.2859 -271.4641,-2.2859 -248.9211,0 -269.5691,0.1572 -271.6813,2.0687 -2.205,1.9956 -2.2859,15.5386 -2.2859,382.7141 0,352.4404 0.1533,380.8147 2.0687,382.9313 1.992,2.2011 12.0658,2.2859 271.4641,2.2859 248.9211,0 269.5691,-0.1572 271.6813,-2.0687 z m -293.7648,-48.4575 c -11.1096,-14.0394 -20.1993,-26.4698 -20.1993,-27.6232 0,-3.4652 40.1308,-53.272 42.5783,-52.8445 2.9523,0.5156 42.6849,51.1025 42.0486,53.5356 -0.9426,3.6046 -40.229,52.3398 -42.2401,52.3994 -1.1309,0.034 -10.6984,-10.9482 -22.1875,-25.4673 z m 230.4944,3.1022 c -3.4566,-3.8196 -2.885,-11.2704 1.1296,-14.7236 l 3.3233,-2.8585 -3.1983,-1.216 c -3.4055,-1.2948 -4.2145,-4.7617 -1.6983,-7.2779 1.6513,-1.6513 19.3988,-2.0827 21.8384,-0.5308 2.5833,1.6432 3.1729,7.2357 1.2485,11.8414 -1.7861,4.2749 -4.0941,5.6526 -12.7119,7.588 -1.375,0.3087 0.3842,0.6267 3.9094,0.7064 7.0799,0.1602 9.9088,2.2417 8.6096,6.335 -0.7271,2.2909 -1.8344,2.56 -10.5345,2.56 -8.033,0 -10.1032,-0.4211 -11.9158,-2.424 z m 8.4808,-41.0636 c -2.74,-1.6935 -20.4148,-24.6474 -20.4148,-26.5124 0,-1.9708 17.8192,-24.9766 20.5427,-26.5219 0.8694,-0.4934 2.475,-0.2121 3.568,0.625 3.8858,2.9757 19.6296,23.7463 19.6296,25.8969 0,2.2704 -15.9903,23.2294 -19.7503,25.8874 -1.1767,0.8318 -2.7855,1.113 -3.5752,0.625 z m -436.2499,-540 c -2.7401,-1.6935 -20.4149,-24.6474 -20.4149,-26.5124 0,-1.9708 17.8192,-24.9766 20.5427,-26.5219 0.8694,-0.4934 2.475,-0.2121 3.568,0.625 3.8858,2.9757 19.6296,23.7463 19.6296,25.8969 0,2.2704 -15.9903,23.2294 -19.7503,25.8874 -1.1767,0.8318 -2.7855,1.113 -3.5751,0.625 z m 197.3879,-34.6767 c -11.1719,-14.1047 -20.3125,-26.3353 -20.3125,-27.1791 0,-1.8093 40.7578,-53.4155 42.1646,-53.3875 2.0242,0.04 4.2392,2.5672 23.2551,26.529 10.7692,13.5702 19.572,25.664 19.5618,26.875 -0.027,3.1964 -39.7498,52.8289 -42.2718,52.8173 -1.2124,0 -10.5838,-10.74 -22.3972,-25.6547 z M 3817.3,1254.7417 c -0.825,-0.825 -1.5,-3.6631 -1.5,-6.3068 0,-6.6872 4.3532,-10.9432 11.1932,-10.9432 7.7819,0 5.9897,-2.3265 -2.1186,-2.7501 -5.7376,-0.2998 -7.261,-0.8252 -7.6032,-2.6224 -0.8276,-4.3475 2.0979,-5.8775 11.2385,-5.8775 7.5213,0 9.0553,0.4015 11.7219,3.0682 4.1281,4.128 3.9234,8.7689 -0.5856,13.278 -2.6304,2.6303 -4.9938,3.7127 -8.4375,3.8639 -3.4971,0.1537 -2.7665,0.4058 2.7163,0.9375 6.7058,0.6504 7.5447,1.0434 7.9219,3.711 0.232,1.641 -0.3305,3.4606 -1.25,4.0434 -2.6128,1.6561 -21.5658,1.3291 -23.2969,-0.402 z"
         id="path4122"
         inkscape:connector-curvature="0" />
      <path
         style="fill:#f2a9c6"
         d="m 3743.0032,2000.535 c -7.802,-4.2334 -7.2032,31.869 -7.2032,-434.2933 0,-377.5517 0.2122,-425.5345 1.8962,-428.7909 4.1664,-8.057 -20.7295,-7.4591 310.6038,-7.4591 331.3333,0 306.4374,-0.5979 310.6038,7.4591 1.684,3.2564 1.8962,51.2392 1.8962,428.7909 0,377.5517 -0.2122,425.5345 -1.8962,428.7909 -4.1672,8.0585 20.7716,7.4641 -310.8542,7.4091 -264.3514,-0.044 -302.0474,-0.2795 -305.0464,-1.9067 z m 608.3564,-1.6376 c 2.0265,-1.1889 4.6572,-3.8196 5.8461,-5.8461 2.0367,-3.4718 2.1668,-28.0897 2.2529,-426.305 0.082,-377.4379 -0.1136,-423.0314 -1.8261,-426.4641 -1.0546,-2.114 -3.8992,-5.0129 -6.3214,-6.4421 l -4.404,-2.5984 -298.6071,0 -298.6071,0 -4.404,2.5984 c -2.4222,1.4292 -5.2668,4.3281 -6.3214,6.4421 -1.7125,3.4327 -1.9077,49.0262 -1.8261,426.4641 0.086,398.2153 0.2161,422.8332 2.2529,426.305 1.1889,2.0265 3.8196,4.6572 5.8461,5.8461 3.4646,2.0325 21.5618,2.1616 303.0596,2.1616 281.4978,0 299.595,-0.1291 303.0596,-2.1616 z m -575.6072,-40.4682 c -3.6299,-1.8304 -6.3406,-4.3402 -7.763,-7.1875 -2.0663,-4.1364 -2.1855,-25.1303 -2.1855,-385 0,-359.8696 0.1192,-380.8636 2.1855,-385 1.4224,-2.8473 4.1331,-5.3571 7.763,-7.1875 l 5.5773,-2.8125 266.9703,0 266.9703,0 5.5773,2.8125 c 3.6299,1.8304 6.3406,4.3402 7.763,7.1875 2.0663,4.1364 2.1855,25.1304 2.1855,385 0,359.8697 -0.1191,380.8636 -2.1855,385 -1.4224,2.8473 -4.1331,5.3571 -7.763,7.1875 l -5.5773,2.8125 -266.9703,0 -266.9703,0 -5.5773,-2.8125 z m 544.6545,-8.6554 2.8931,-2.7179 0,-380.639 0,-380.6391 -2.7179,-2.893 -2.7179,-2.8931 -269.389,0 -269.3891,0 -2.893,2.7179 -2.8931,2.7179 0,380.639 0,380.6391 2.7179,2.893 2.7179,2.8931 269.389,0 269.3891,0 2.893,-2.7179 z m -293.6694,-49.8155 c -10.8281,-13.7335 -19.6875,-25.8187 -19.6875,-26.856 0,-2.3013 38.4207,-51.0822 40.6528,-51.6149 1.5942,-0.3805 41.8365,49.2816 41.8365,51.6293 0,2.0474 -40.0114,51.8778 -41.6277,51.8432 -0.8176,-0.018 -10.346,-11.2682 -21.1741,-25.0016 z m 230.6593,3.52 c -5.5955,-6.986 -0.7418,-15.8666 8.7157,-15.9468 2.5781,-0.022 4.6875,-0.6023 4.6875,-1.2898 0,-0.6875 -2.7436,-1.25 -6.097,-1.25 -6.4517,0 -9.766,-2.1981 -8.4571,-5.6091 0.564,-1.4697 2.9519,-1.8909 10.7209,-1.8909 10.6992,0 12.5832,1.1251 12.5832,7.514 0,4.4053 -6.5827,9.986 -11.7788,9.986 -3.0727,0 -4.4712,0.567 -4.4712,1.8126 0,1.3299 1.9142,1.9125 7.1875,2.1875 6.2292,0.3249 7.1875,0.7082 7.1875,2.8749 0,2.2488 -0.9539,2.5363 -9.4937,2.8616 -6.6196,0.2521 -9.8845,-0.1263 -10.7845,-1.25 z m -2.182,-53.9419 c -5.1781,-6.438 -9.4148,-12.4206 -9.4148,-13.2947 0,-2.7662 18.6978,-25.0032 20.9773,-24.948 2.7168,0.066 19.6477,21.5641 19.6477,24.948 0,3.3839 -16.9309,24.8823 -19.6477,24.948 -1.2424,0.03 -6.1164,-4.8822 -11.5625,-11.6533 z m -436.25,-540 c -5.1781,-6.438 -9.4148,-12.4206 -9.4148,-13.2947 0,-2.7662 18.6978,-25.0032 20.9773,-24.948 2.7168,0.066 19.6477,21.5641 19.6477,24.948 0,3.3839 -16.9309,24.8823 -19.6477,24.948 -1.2424,0.03 -6.1164,-4.8822 -11.5625,-11.6533 z m 208.089,-22.1946 c -11.0538,-13.9226 -19.936,-26.0143 -19.7383,-26.8706 0.4783,-2.0715 39.7358,-51.7295 40.8951,-51.7295 1.4212,0 4.8809,4.0854 23.7163,28.0058 9.6927,12.3094 17.6231,23.1858 17.6231,24.1698 0,2.3499 -38.3866,50.8319 -40.6525,51.3438 -1.0224,0.2309 -10.0736,-10.0947 -21.8437,-24.9193 z m -208.458,-33.8043 c -0.8502,-0.8502 -1.5458,-3.304 -1.5458,-5.4529 0,-5.2292 4.2515,-9.0576 10.625,-9.5677 3.4333,-0.2748 5,-0.9877 5,-2.2752 0,-1.3636 -1.875,-2.0455 -6.875,-2.5 -5.8333,-0.5303 -6.875,-1.0038 -6.875,-3.125 0,-2.2349 0.9554,-2.5388 9.0088,-2.8662 7.7001,-0.313 9.3798,0 11.5625,2.1875 5.8724,5.8724 0.6032,15.0537 -8.6395,15.0537 -3.5843,0 -5.0568,0.5278 -5.0568,1.8126 0,1.3299 1.9142,1.9125 7.1875,2.1875 6.2292,0.3249 7.1875,0.7082 7.1875,2.8749 0,2.2622 -0.9528,2.5341 -10.0167,2.8583 -6.7194,0.2403 -10.5256,-0.1506 -11.5625,-1.1875 z"
         id="path4120"
         inkscape:connector-curvature="0" />
      <path
         style="fill:#ee8fb5"
         d="m 3744.9819,2001.5351 c -0.7938,-0.5051 135.6994,-0.9184 303.3181,-0.9184 167.6187,0 304.1119,0.4133 303.3181,0.9184 -0.7937,0.5051 -137.2869,0.9183 -303.3181,0.9183 -166.0312,0 -302.5244,-0.4132 -303.3181,-0.9183 z m -8.4232,-8.5206 c -1.0958,-2.8558 -0.899,-852.1172 0.1979,-853.8409 0.5051,-0.7938 0.9184,191.4406 0.9184,427.1875 0,235.7468 -0.08,428.6306 -0.1788,428.6306 -0.098,0 -0.5202,-0.8897 -0.9375,-1.9772 z m 622.3663,-426.7728 c 0,-235.6812 0.4133,-427.8619 0.9184,-427.0681 1.2008,1.8869 1.2008,852.2493 0,854.1362 -0.5051,0.7938 -0.9184,-191.3869 -0.9184,-427.0681 z m -583.9166,391.3524 c -2.1541,-1.3135 -4.826,-3.6866 -5.9375,-5.2734 -1.8505,-2.642 -2.0209,-35.1991 -2.0209,-386.1886 l 0,-383.3033 2.6104,-3.3185 c 5.9356,-7.5459 -14.9992,-7.0186 278.6396,-7.0186 293.6388,0 272.704,-0.5273 278.6396,7.0186 l 2.6104,3.3185 0,383.4129 0,383.4129 -2.6104,3.3185 c -5.9358,7.5462 15.0245,7.019 -278.89,7.0139 -262.722,-0.01 -269.2178,-0.062 -273.0412,-2.3929 z m 546.0694,-7.3246 2.8472,-2.8472 0,-381.1806 0,-381.1806 -2.8472,-2.8472 -2.8473,-2.8472 -269.9305,0 -269.9306,0 -2.8472,2.8472 -2.8472,2.8472 -0.2974,379.6528 c -0.2374,302.9488 0.02,380.2792 1.2746,382.7532 0.8646,1.7052 2.9672,3.8084 4.6724,4.6737 2.4687,1.2529 57.7891,1.5126 271.5032,1.2747 l 268.4029,-0.2988 2.8471,-2.8472 z m -289.6528,-45.5049 c -26.2506,-33.2037 -24.7455,-30.8962 -22.4432,-34.41 5.0302,-7.677 37.2156,-47.2799 38.7037,-47.6233 0.9257,-0.2137 10.4227,10.6084 21.3071,24.2799 17.1134,21.4955 19.4954,25.0312 18.5347,27.5118 -1.6594,4.2849 -37.7722,49.219 -39.5547,49.2167 -0.8512,0 -8.2976,-8.5399 -16.5476,-18.9751 z m 227.1531,-1.7188 c -3.2897,-2.3042 -3.6636,-7.4835 -0.8322,-11.526 1.4077,-2.0097 3.2227,-2.7834 6.5625,-2.7972 10.3869,-0.043 10.0641,-4.5702 -0.3722,-5.2184 -4.8199,-0.2994 -6.3355,-0.8968 -6.6642,-2.6272 -0.3857,-2.0306 0.5469,-2.2056 9.9888,-1.875 l 10.4142,0.3647 0.385,4.6377 c 0.4833,5.8222 -2.6609,8.8588 -10.0824,9.7373 -3.7246,0.4409 -5.4026,1.2695 -5.6956,2.8125 -0.3487,1.8364 0.5524,2.1906 5.6138,2.2066 6.9865,0.022 9.8365,1.3998 8.7506,4.2298 -1.0536,2.7455 -14.1701,2.7856 -18.0683,0.055 z m 1.2445,-49.0961 c -9.7984,-11.774 -12.7726,-15.9378 -12.7726,-17.881 0,-2.3038 17.7488,-24.202 19.6161,-24.202 1.2561,0 20.3742,22.8722 20.3742,24.375 0,1.003 -18.8397,24.3362 -19.9894,24.7572 -0.5741,0.2101 -3.8268,-2.962 -7.2283,-7.0492 z m -436.25,-540 c -9.7984,-11.774 -12.7726,-15.9378 -12.7726,-17.881 0,-2.3038 17.7488,-24.202 19.6161,-24.202 1.2561,0 20.3742,22.8722 20.3742,24.375 0,1.003 -18.8397,24.3362 -19.9894,24.7572 -0.5741,0.2101 -3.8268,-2.962 -7.2283,-7.0492 z m 203.6731,-27.2627 c -12.5115,-15.928 -18.9827,-25.1687 -18.6137,-26.58 0.668,-2.5544 38.1816,-50.1153 39.5284,-50.1153 1.5185,0 6.445,5.7728 24.4027,28.5947 9.3998,11.9458 16.9265,22.1673 16.7262,22.7144 -1.301,3.5524 -39.3554,49.9277 -40.9237,49.8718 -1.0673,-0.038 -10.5713,-11.0565 -21.1199,-24.4856 z M 3818.3,1248.7295 c 0,-6.2154 3.0034,-9.1215 10.3224,-9.9878 3.7246,-0.4409 5.4026,-1.2695 5.6956,-2.8125 0.3555,-1.8725 -0.5934,-2.1875 -6.5906,-2.1875 -5.2706,0 -7.1961,-0.4957 -7.7738,-2.0012 -1.07,-2.7885 1.7481,-4.2104 8.3464,-4.2112 8.0473,0 11.7859,2.2208 12.2754,7.2953 0.5228,5.4194 -2.6121,8.9171 -7.9919,8.9171 -5.321,0 -8.0335,1.1003 -8.0335,3.2587 0,1.2725 1.8097,1.7413 6.7219,1.7413 6.312,0 10.7341,2.1273 8.6839,4.1775 -0.4523,0.4524 -5.51,0.8225 -11.2391,0.8225 l -10.4167,0 0,-5.0122 z m -73.3181,-117.7812 c 1.8868,-1.2007 604.7494,-1.2007 606.6362,0 0.7938,0.5051 -135.6994,0.9184 -303.3181,0.9184 -167.6187,0 -304.1119,-0.4133 -303.3181,-0.9184 z"
         id="path4118"
         inkscape:connector-curvature="0" />
      <path
         style="fill:#e85c94"
         d="m 3744.9819,2001.5351 c -0.7938,-0.5051 135.6994,-0.9184 303.3181,-0.9184 167.6187,0 304.1119,0.4133 303.3181,0.9184 -0.7937,0.5051 -137.2869,0.9183 -303.3181,0.9183 -166.0312,0 -302.5244,-0.4132 -303.3181,-0.9183 z m -8.4232,-8.5206 c -1.0958,-2.8558 -0.899,-852.1172 0.1979,-853.8409 0.5051,-0.7938 0.9184,191.4406 0.9184,427.1875 0,235.7468 -0.08,428.6306 -0.1788,428.6306 -0.098,0 -0.5202,-0.8897 -0.9375,-1.9772 z m 622.3663,-426.7728 c 0,-235.6812 0.4133,-427.8619 0.9184,-427.0681 1.2008,1.8869 1.2008,852.2493 0,854.1362 -0.5051,0.7938 -0.9184,-191.3869 -0.9184,-427.0681 z m -581.25,391.9855 c -2.0625,-0.9167 -5.1562,-3.19 -6.875,-5.0518 l -3.125,-3.3851 0,-383.5672 0,-383.5672 3.6789,-3.84 c 2.0235,-2.112 5.6797,-4.3958 8.125,-5.0751 6.1027,-1.6954 531.5395,-1.6954 537.6422,0 2.4453,0.6793 6.1015,2.9631 8.125,5.0751 l 3.6789,3.84 0,383.5672 0,383.5672 -3.125,3.3868 c -6.7026,7.2641 11.5816,6.8188 -277.7723,6.7657 -219.3827,-0.04 -267.2669,-0.3442 -270.3527,-1.7156 z m 543.8068,-7.5537 3.0682,-3.0682 0,-381.3636 0,-381.3636 -3.0682,-3.0682 -3.0682,-3.0682 -270.1136,0 -270.1136,0 -3.0682,3.0682 -3.0682,3.0682 0,381.3636 0,381.3636 3.0682,3.0682 3.0682,3.0682 270.1136,0 270.1136,0 3.0682,-3.0682 z m -293.7962,-51.681 c -11.1023,-14.0342 -19.2708,-25.4574 -18.9919,-26.5594 0.9241,-3.6508 38.461,-49.8235 39.9807,-49.1787 2.1184,0.8988 39.0006,47.9923 39.0006,49.7984 0,1.8072 -36.8823,49.0132 -39.004,49.9216 -0.8687,0.3719 -9.7335,-9.7587 -20.9854,-23.9819 z m 230.6549,2.923 c -2.2601,-2.7232 -1.9902,-7.8288 0.5629,-10.6499 1.3086,-1.446 4.211,-2.5428 7.333,-2.7711 3.742,-0.2736 5.2815,-0.9811 5.582,-2.5653 0.3483,-1.8363 -0.553,-2.1906 -5.6142,-2.2066 -3.3161,-0.01 -6.8044,-0.5102 -7.7518,-1.1103 -3.5039,-2.2193 0.1302,-3.8706 8.5183,-3.8706 9.8034,0 12.018,1.5189 10.7345,7.3624 -1.0574,4.8143 -3.1651,6.4592 -9.3377,7.2871 -10.2391,1.3733 -8.9529,6.1519 1.8392,6.8331 9.0279,0.5697 7.6245,2.8301 -2.0225,3.2575 -6.2394,0.2765 -8.63,-0.104 -9.8437,-1.5663 z m -1.6547,-52.5952 c -4.669,-5.8539 -8.7696,-11.3742 -9.1123,-12.2673 -0.6747,-1.7584 16.2181,-23.7088 18.6931,-24.2896 1.5821,-0.3713 19.5334,21.2054 19.5334,23.4783 0,1.9369 -17.7327,23.7524 -19.2938,23.736 -0.7321,-0.01 -5.1513,-4.8035 -9.8204,-10.6574 z m -436.25,-540 c -4.669,-5.8539 -8.7696,-11.3742 -9.1123,-12.2673 -0.6747,-1.7584 16.2181,-23.7088 18.6931,-24.2896 1.5821,-0.3713 19.5334,21.2054 19.5334,23.4783 0,1.9369 -17.7327,23.7524 -19.2938,23.736 -0.7321,-0.01 -5.1513,-4.8035 -9.8204,-10.6574 z m 207.787,-22.4939 c -10.6138,-13.4567 -19.4627,-24.9317 -19.6642,-25.5 -0.6454,-1.82 37.8669,-49.4597 39.9837,-49.4597 2.075,0 39.7063,46.3298 39.7395,48.9253 0.022,1.715 -37.5941,49.4455 -39.457,50.0664 -0.7173,0.2392 -9.9883,-10.5752 -20.602,-24.032 z m -209.0415,-33.8701 c -1.5487,-1.5487 -0.946,-7.3159 1.0646,-10.1865 1.4229,-2.0315 3.2064,-2.7781 6.6361,-2.7781 11.5129,0 11.2879,-7.0825 -0.2463,-7.7507 -9.0973,-0.527 -8.0516,-2.7991 1.4958,-3.2502 6.1257,-0.2894 8.4987,0.1147 10.3125,1.7562 5.3289,4.8226 0.3708,12.9947 -7.884,12.9947 -5.1771,0 -8.9064,3.1925 -5.9296,5.0761 0.987,0.6246 4.7946,1.1442 8.4613,1.1548 4.7694,0.014 6.5195,0.4638 6.1496,1.5816 -0.5644,1.7058 -18.5025,2.9596 -20.06,1.4021 z m -74.1994,-122.008 c 1.8868,-1.2007 604.7494,-1.2007 606.6362,0 0.7938,0.5051 -135.6994,0.9184 -303.3181,0.9184 -167.6187,0 -304.1119,-0.4133 -303.3181,-0.9184 z"
         id="path4116"
         inkscape:connector-curvature="0" />
      <path
         style="fill:#e01b6a"
         d="m 3897.3625,2001.5543 c 83.0156,-0.1775 218.8594,-0.1775 301.875,0 83.0156,0.1774 15.0937,0.3225 -150.9375,0.3225 -166.0312,0 -233.9531,-0.1451 -150.9375,-0.3225 z m -160.9447,-435.3126 c 0,-234.0937 0.1438,-329.8594 0.3197,-212.8125 0.1758,117.0469 0.1758,308.5781 0,425.625 -0.1759,117.0469 -0.3197,21.2813 -0.3197,-212.8125 z m 623.75,0 c 0,-234.0937 0.1438,-329.8594 0.3197,-212.8125 0.1758,117.0469 0.1758,308.5781 0,425.625 -0.1759,117.0469 -0.3197,21.2813 -0.3197,-212.8125 z m -582.4928,390.7514 c -2.0625,-0.9129 -4.875,-2.9207 -6.25,-4.4618 -2.487,-2.7875 -2.5015,-4.7813 -2.7974,-384.8583 -0.2348,-301.6803 0.028,-382.6884 1.25,-385.0608 0.8511,-1.6525 3.1355,-4.1837 5.0766,-5.625 l 3.5291,-2.6205 269.8167,0 269.8167,0 3.5291,2.6205 c 1.9411,1.4413 4.224,3.9725 5.0733,5.625 2.2618,4.4012 2.2618,762.8579 0,767.259 -0.8493,1.6525 -3.1322,4.1837 -5.0732,5.625 l -3.5291,2.6205 -268.3459,0.2682 c -220.8,0.2206 -269.0103,-0.026 -272.0959,-1.3918 z m 543.9928,-5.0182 3.5072,-3.0167 0,-382.7165 0,-382.7165 -3.5072,-3.0167 -3.5072,-3.0168 -269.8606,0 -269.8606,0 -3.5072,3.0168 -3.5072,3.0167 0,382.7165 0,382.7165 3.5072,3.0167 3.5072,3.0168 269.8606,0 269.8606,0 3.5072,-3.0168 z m -293.2248,-53.5481 c -10.6526,-13.5027 -18.7702,-24.9018 -18.4998,-25.9783 0.2651,-1.055 8.8165,-12.4365 19.0032,-25.2922 14.5269,-18.3332 18.8776,-23.0784 20.1736,-22.0028 2.305,1.913 37.93,46.9615 37.93,47.9632 0,1.0075 -35.6319,46.0559 -37.9515,47.981 -1.3249,1.0996 -5.6307,-3.6263 -20.6555,-22.6709 z m 229.6529,0.9911 c -2.1294,-4.6736 1.4028,-9.4262 7.0057,-9.4262 6.1484,0 8.1984,-1.1274 8.1984,-4.5087 0,-2.7885 -0.461,-2.9913 -6.8012,-2.9913 -3.7407,0 -7.1647,-0.5881 -7.609,-1.307 -0.5413,-0.8759 2.2171,-1.1851 8.3637,-0.9375 8.7381,0.352 9.1888,0.5172 9.537,3.4956 0.59,5.0467 -2.4503,7.8907 -9.2726,8.6742 -5.4917,0.6307 -6.1315,1.0346 -6.4842,4.0936 -0.4196,3.6386 0.6339,4.192 9.7663,5.1311 2.4258,0.2495 0.8824,0.539 -3.4643,0.65 -7.206,0.1838 -7.9524,-0.048 -9.2398,-2.8738 z m -1.0459,-51.1553 c -4.4688,-5.7013 -8.125,-11.1107 -8.125,-12.0209 0,-2.096 15.8201,-22.3723 17.5,-22.4295 1.49,-0.051 18.125,20.535 18.125,22.4295 0,1.8945 -16.635,22.4802 -18.125,22.4295 -0.6875,-0.023 -4.9063,-4.7073 -9.375,-10.4086 z m -436.25,-540 c -4.4687,-5.7013 -8.125,-11.1107 -8.125,-12.0209 0,-2.096 15.8201,-22.3723 17.5,-22.4295 1.49,-0.051 18.125,20.535 18.125,22.4295 0,1.8945 -16.635,22.4802 -18.125,22.4295 -0.6875,-0.023 -4.9062,-4.7072 -9.375,-10.4086 z m 208.125,-22.1665 c -10.3125,-13.1304 -18.679,-24.6138 -18.5923,-25.5185 0.2377,-2.4793 36.6856,-48.0947 38.3758,-48.0281 2.1473,0.084 37.7291,45.9059 37.6457,48.4792 -0.069,2.1307 -36.3275,48.9739 -37.8908,48.952 -0.4336,-0.01 -9.2259,-10.7542 -19.5384,-23.8846 z m -209.375,-37.7294 c 0,-5.3619 1.9177,-7.125 7.75,-7.125 5.2845,0 10.1679,-3.7065 8.976,-6.8126 -0.6721,-1.7513 -3.2401,-2.5014 -12.351,-3.6075 -2.0625,-0.2504 -0.066,-0.5396 4.4375,-0.6426 8.7461,-0.2001 11.1875,0.9988 11.1875,5.494 0,3.888 -3.8991,6.8187 -9.0716,6.8187 -4.9622,0 -8.7157,2.7967 -7.6124,5.672 0.7687,2.0031 3.2929,2.7957 11.059,3.4722 2.75,0.2395 0.6406,0.5301 -4.6875,0.6457 l -9.6875,0.2101 0,-4.125 z m 77.8125,-118.0625 c 83.0156,-0.1774 218.8594,-0.1774 301.875,0 83.0156,0.1775 15.0937,0.3226 -150.9375,0.3226 -166.0312,0 -233.9531,-0.1451 -150.9375,-0.3226 z"
         id="path4114"
         inkscape:connector-curvature="0" />
      <path
         style="fill:#dd0158"
         d="m 3897.3625,2001.5543 c 83.0156,-0.1775 218.8594,-0.1775 301.875,0 83.0156,0.1774 15.0937,0.3225 -150.9375,0.3225 -166.0312,0 -233.9531,-0.1451 -150.9375,-0.3225 z m -160.9447,-435.3126 c 0,-234.0937 0.1438,-329.8594 0.3197,-212.8125 0.1758,117.0469 0.1758,308.5781 0,425.625 -0.1759,117.0469 -0.3197,21.2813 -0.3197,-212.8125 z m 623.75,0 c 0,-234.0937 0.1438,-329.8594 0.3197,-212.8125 0.1758,117.0469 0.1758,308.5781 0,425.625 -0.1759,117.0469 -0.3197,21.2813 -0.3197,-212.8125 z m -445.9303,390.3126 c 73.7344,-0.1781 194.3906,-0.1781 268.125,0 73.7344,0.1781 13.4062,0.3238 -134.0625,0.3238 -147.4687,0 -207.7969,-0.1457 -134.0625,-0.3238 z m 115.1195,-59.0621 c -9.8626,-12.4455 -18.0658,-23.3026 -18.2295,-24.1269 -0.3814,-1.9218 35.0307,-46.4986 36.9389,-46.4986 1.1057,0 37.7336,44.8832 37.7336,46.2381 0,0.8182 -36.5324,46.3112 -37.4524,46.6387 -0.5822,0.2073 -9.128,-9.8058 -18.9906,-22.2513 z m 229.5014,-49.063 c -3.9728,-4.9844 -7.761,-9.7653 -8.4183,-10.6243 -1.1586,-1.5141 2.3432,-6.7952 12.574,-18.9627 l 3.5941,-4.2745 8.3459,10.3369 c 4.5902,5.6854 8.3459,10.787 8.3459,11.3371 0,1.0134 -15.9835,21.25 -16.7839,21.25 -0.239,0 -3.685,-4.0781 -7.6577,-9.0625 z m -436.25,-540 c -3.9728,-4.9844 -7.761,-9.7653 -8.4183,-10.6243 -1.1586,-1.5141 2.3433,-6.7952 12.574,-18.9627 l 3.5941,-4.2745 8.3459,10.3369 c 4.5902,5.6854 8.3459,10.787 8.3459,11.3371 0,1.0134 -15.9835,21.25 -16.7839,21.25 -0.239,0 -3.6849,-4.0781 -7.6577,-9.0625 z m 206.4326,-24.1483 -18.4068,-23.2108 3.4892,-4.6017 c 9.4795,-12.502 33.306,-42.1447 34.1267,-42.4573 0.5134,-0.1956 9.2542,10.1554 19.4239,23.0022 16.8712,21.3123 18.3503,23.5822 16.8902,25.9202 -3.3826,5.4164 -35.0607,44.5582 -36.0616,44.5582 -0.5802,0 -9.3379,-10.4449 -19.4616,-23.2108 z m -114.8035,-108.9766 c 73.7344,-0.1781 194.3906,-0.1781 268.125,0 73.7344,0.1781 13.4062,0.3238 -134.0625,0.3238 -147.4687,0 -207.7969,-0.1457 -134.0625,-0.3238 z m -16.875,-45.0001 c 83.0156,-0.1774 218.8594,-0.1774 301.875,0 83.0156,0.1775 15.0937,0.3226 -150.9375,0.3226 -166.0312,0 -233.9531,-0.1451 -150.9375,-0.3226 z"
         id="path4112"
         inkscape:connector-curvature="0" />
      <path
         style="fill:#111111"
         d="m 3897.3625,2001.5543 c 83.0156,-0.1775 218.8594,-0.1775 301.875,0 83.0156,0.1774 15.0937,0.3225 -150.9375,0.3225 -166.0312,0 -233.9531,-0.1451 -150.9375,-0.3225 z m -160.9447,-435.3126 c 0,-234.0937 0.1438,-329.8594 0.3197,-212.8125 0.1758,117.0469 0.1758,308.5781 0,425.625 -0.1759,117.0469 -0.3197,21.2813 -0.3197,-212.8125 z m 623.75,0 c 0,-234.0937 0.1438,-329.8594 0.3197,-212.8125 0.1758,117.0469 0.1758,308.5781 0,425.625 -0.1759,117.0469 -0.3197,21.2813 -0.3197,-212.8125 z m -462.8053,-435.9375 c 83.0156,-0.1774 218.8594,-0.1774 301.875,0 83.0156,0.1775 15.0937,0.3226 -150.9375,0.3226 -166.0312,0 -233.9531,-0.1451 -150.9375,-0.3226 z"
         id="path4110"
         inkscape:connector-curvature="0" />
    </g>
  </g>
</svg>
