<?xml version="1.0" encoding="UTF-8" standalone="no"?>
<!-- Created with Inkscape (http://www.inkscape.org/) -->

<svg
   xmlns:dc="http://purl.org/dc/elements/1.1/"
   xmlns:cc="http://creativecommons.org/ns#"
   xmlns:rdf="http://www.w3.org/1999/02/22-rdf-syntax-ns#"
   xmlns:svg="http://www.w3.org/2000/svg"
   xmlns="http://www.w3.org/2000/svg"
   xmlns:sodipodi="http://sodipodi.sourceforge.net/DTD/sodipodi-0.dtd"
   xmlns:inkscape="http://www.inkscape.org/namespaces/inkscape"
   width="176.4539mm"
   height="246.27022mm"
   viewBox="0 0 625.23037 872.61101"
   id="svg2"
   version="1.1"
   inkscape:version="0.91 r13725"
   sodipodi:docname="3.svg">
  <defs
     id="defs4" />
  <sodipodi:namedview
     id="base"
     pagecolor="#ffffff"
     bordercolor="#666666"
     borderopacity="1.0"
     inkscape:pageopacity="0.0"
     inkscape:pageshadow="2"
     inkscape:zoom="0.35"
     inkscape:cx="540.05552"
     inkscape:cy="266.7368"
     inkscape:document-units="px"
     inkscape:current-layer="layer1"
     showgrid="false"
     fit-margin-top="0"
     fit-margin-left="0"
     fit-margin-right="0"
     fit-margin-bottom="0"
     inkscape:window-width="784"
     inkscape:window-height="822"
     inkscape:window-x="800"
     inkscape:window-y="0"
     inkscape:window-maximized="0" />
  <metadata
     id="metadata7">
    <rdf:RDF>
      <cc:Work
         rdf:about="">
        <dc:format>image/svg+xml</dc:format>
        <dc:type
           rdf:resource="http://purl.org/dc/dcmitype/StillImage" />
        <dc:title></dc:title>
      </cc:Work>
    </rdf:RDF>
  </metadata>
  <g
     inkscape:label="Calque 1"
     inkscape:groupmode="layer"
     id="layer1"
     transform="translate(485.2975,395.53161)">
    <g
       transform="translate(-4200.9839,-502.5551)"
       id="g4018">
      <path
         style="fill:#fdfdfd"
         d="m 3715.8,543.38451 0,-436.25 312.5,0 312.5,0 0,436.25 0,436.25 -312.5,0 -312.5,0 0,-436.25 z"
         id="path4034"
         inkscape:connector-curvature="0" />
      <path
         style="fill:#f8dce7"
         d="m 3721.9252,978.07625 c -1.8959,-0.75393 -3.8487,-2.94868 -4.6875,-5.26827 -2.0668,-5.71559 -2.07,-853.12232 0,-858.8378 0.9685,-2.67839 2.7229,-4.43273 5.4013,-5.40125 5.6984,-2.06059 605.6302,-2.06059 611.3286,0 2.6784,0.96852 4.4328,2.72286 5.4013,5.40125 2.0638,5.70731 2.0638,853.12135 0,858.82865 -0.9685,2.67839 -2.7229,4.43274 -5.4013,5.40125 -5.3415,1.93154 -607.1766,1.80977 -612.0391,-0.12387 z m 609.3031,-3.57958 c 1.6753,-0.76331 3.6706,-2.75854 4.4339,-4.43381 1.0084,-2.2132 1.3878,-118.86906 1.3878,-426.67835 0,-307.80929 -0.3794,-424.46515 -1.3878,-426.67834 -0.7633,-1.67529 -2.7586,-3.67051 -4.4339,-4.43382 -4.3418,-1.97828 -601.5148,-1.97828 -605.8566,0 -1.6753,0.76331 -3.6705,2.75853 -4.4339,4.43382 -1.9852,4.35702 -1.9804,849.01 0,853.36714 0.7659,1.68104 2.5941,3.63817 4.0625,4.34921 3.9091,1.89283 602.0711,1.96599 606.2232,0.0741 z m -575.4028,-37.67466 c -3.0273,-1.54688 -6.6621,-4.40063 -8.0773,-6.34166 l -2.5732,-3.52917 0,-383.56667 0,-383.56667 2.5732,-3.52917 c 1.4152,-1.94104 5.05,-4.79479 8.0773,-6.34166 l 5.5042,-2.8125 266.9703,0 266.9703,0 5.5042,2.8125 c 3.0273,1.54687 6.6621,4.40062 8.0773,6.34166 l 2.5732,3.52917 0,383.56667 0,383.56667 -2.5732,3.52917 c -1.4152,1.94103 -5.05,4.79478 -8.0773,6.34166 l -5.5042,2.8125 -266.9703,0 -266.9703,0 -5.5042,-2.8125 z m 543.9386,-10.50624 c 2.205,-1.99552 2.2859,-15.53855 2.2859,-382.71407 0,-352.44035 -0.1533,-380.81472 -2.0687,-382.93126 -1.992,-2.2011 -12.0658,-2.28593 -271.4641,-2.28593 -248.9211,0 -269.5691,0.15723 -271.6813,2.06873 -2.205,1.99553 -2.2859,15.53855 -2.2859,382.71408 0,352.44035 0.1533,380.81471 2.0687,382.93126 1.992,2.2011 12.0658,2.28593 271.4641,2.28593 248.9211,0 269.5691,-0.15722 271.6813,-2.06874 z m -293.7648,-48.45742 c -11.1096,-14.0394 -20.1993,-26.46988 -20.1993,-27.62329 0,-3.46512 40.1308,-53.27191 42.5783,-52.84445 2.9523,0.51563 42.6849,51.10245 42.0486,53.53557 -0.9426,3.60467 -40.229,52.33983 -42.2401,52.39942 -1.1309,0.0335 -10.6984,-10.94824 -22.1875,-25.46725 z m 231.4152,2.58068 c -1.8287,-2.32489 -2.4415,-5.28208 -2.5886,-12.49224 -0.1794,-8.7959 0.031,-9.62245 3.0593,-12.0043 2.5462,-2.00287 5.081,-2.55798 11.6803,-2.55798 9.1012,0 12.0603,1.67899 10.6714,6.05505 -0.8601,2.71 -3.9117,3.81748 -11.3119,4.10526 l -5,0.19445 5,0.76013 c 4.5533,0.6922 5,1.09514 5,4.51011 0,3.34419 -0.4735,3.81148 -4.375,4.31803 -3.8487,0.49968 -3.5479,0.65006 2.5,1.25 6.654,0.66005 6.875,0.80251 6.875,4.43197 l 0,3.75 -9.5573,0.36274 c -8.8547,0.33607 -9.7333,0.13884 -11.9532,-2.68321 z m 7.56,-40.54216 c -2.74,-1.69349 -20.4148,-24.64741 -20.4148,-26.51236 0,-1.97078 17.8192,-24.9766 20.5427,-26.52195 0.8694,-0.49331 2.475,-0.21206 3.568,0.625 3.8858,2.97579 19.6296,23.74632 19.6296,25.89695 0,2.2704 -15.9903,23.22942 -19.7503,25.88736 -1.1767,0.8318 -2.7855,1.11305 -3.5752,0.625 z M 4005.9993,570.35835 c -11.1096,-14.0394 -20.1993,-26.17763 -20.1993,-26.97384 0,-2.89456 40.3427,-52.5 42.6968,-52.5 2.7041,0 42.3032,49.16069 42.3032,52.51776 0,3.37523 -39.5671,52.48224 -42.2866,52.48224 -1.5182,0 -9.2666,-8.78505 -22.5141,-25.52616 z M 3808.7246,299.89687 c -2.7401,-1.69348 -20.4149,-24.64741 -20.4149,-26.51236 0,-1.97078 17.8192,-24.9766 20.5427,-26.52195 0.8694,-0.49331 2.475,-0.21206 3.568,0.625 3.8858,2.97579 19.6296,23.74632 19.6296,25.89695 0,2.2704 -15.9903,23.22942 -19.7503,25.88736 -1.1767,0.8318 -2.7855,1.11305 -3.5751,0.625 z m 197.3879,-34.67664 C 3994.9406,251.11548 3985.8,238.88486 3985.8,238.04107 c 0,-1.80925 40.7578,-53.41546 42.1646,-53.38742 2.0242,0.0403 4.2392,2.56718 23.2551,26.52898 10.7692,13.57021 19.572,25.66396 19.5618,26.87499 -0.027,3.19637 -39.7498,52.82891 -42.2718,52.81726 -1.2124,-0.005 -10.5838,-10.74001 -22.3972,-25.65465 z M 3797.0998,231.5695 c -0.8285,-0.99826 -1.1407,-2.96701 -0.6938,-4.375 0.6985,-2.20101 1.8524,-2.55999 8.2282,-2.55999 8.1296,0 10.2383,-2.11549 2.7283,-2.73704 -4.2888,-0.35496 -4.6875,-0.70693 -4.6875,-4.13796 0,-3.34419 0.4735,-3.81147 4.375,-4.31802 3.8487,-0.49969 3.5479,-0.65007 -2.5,-1.25 -6.654,-0.66006 -6.875,-0.80252 -6.875,-4.43198 l 0,-3.75 8.8303,-0.36257 c 7.4035,-0.304 9.366,0.0588 12.146,2.24558 3.4276,2.69616 3.4088,2.58613 3.4163,19.99199 0,5.34164 -4.1354,7.5 -14.378,7.5 -6.4159,0 -9.5259,-0.53304 -10.5898,-1.81501 z"
         id="path4032"
         inkscape:connector-curvature="0" />
      <path
         style="fill:#f2a9c6"
         d="m 3723.0032,977.67777 c -7.802,-4.23332 -7.2032,31.86903 -7.2032,-434.29326 0,-377.55168 0.2122,-425.53447 1.8962,-428.79092 4.1664,-8.05695 -20.7295,-7.45908 310.6038,-7.45908 331.3333,0 306.4374,-0.59787 310.6038,7.45908 1.684,3.25645 1.8962,51.23924 1.8962,428.79092 0,377.55167 -0.2122,425.53448 -1.8962,428.79091 -4.1672,8.05846 20.7716,7.46407 -310.8542,7.40904 -264.3514,-0.0439 -302.0474,-0.27947 -305.0464,-1.90669 z m 608.3564,-1.63756 c 2.0265,-1.18888 4.6572,-3.81964 5.8461,-5.84614 2.0367,-3.47179 2.1668,-28.08965 2.2529,-426.30501 0.082,-377.43781 -0.1136,-423.03138 -1.8261,-426.46408 -1.0546,-2.11399 -3.8992,-5.01292 -6.3214,-6.44205 l -4.404,-2.59842 -298.6071,0 -298.6071,0 -4.404,2.59842 c -2.4222,1.42913 -5.2668,4.32806 -6.3214,6.44205 -1.7125,3.4327 -1.9077,49.02627 -1.8261,426.46408 0.086,398.21536 0.2161,422.83322 2.2529,426.30501 1.1889,2.0265 3.8196,4.65727 5.8461,5.84614 3.4646,2.0325 21.5618,2.16158 303.0596,2.16158 281.4978,0 299.595,-0.12908 303.0596,-2.16158 z m -575.6072,-40.4682 c -3.6299,-1.83043 -6.3406,-4.34017 -7.763,-7.1875 -2.0663,-4.13644 -2.1855,-25.13035 -2.1855,-385 0,-359.86964 0.1192,-380.86357 2.1855,-385 1.4224,-2.84733 4.1331,-5.35707 7.763,-7.1875 l 5.5773,-2.8125 266.9703,0 266.9703,0 5.5773,2.8125 c 3.6299,1.83043 6.3406,4.34017 7.763,7.1875 2.0663,4.13643 2.1855,25.13036 2.1855,385 0,359.86965 -0.1191,380.86356 -2.1855,385 -1.4224,2.84733 -4.1331,5.35707 -7.763,7.1875 l -5.5773,2.8125 -266.9703,0 -266.9703,0 -5.5773,-2.8125 z m 544.6545,-8.65539 2.8931,-2.7179 0,-380.63904 0,-380.63904 -2.7179,-2.89307 -2.7179,-2.89306 -269.389,0 -269.3891,0 -2.893,2.71789 -2.8931,2.71789 0,380.63904 0,380.63906 2.7179,2.89306 2.7179,2.89306 269.389,0 269.3891,0 2.893,-2.71789 z m -293.6694,-49.81556 c -10.8281,-13.73348 -19.6875,-25.81865 -19.6875,-26.85595 0,-2.30129 38.4207,-51.08224 40.6528,-51.61494 1.5942,-0.38046 41.8365,49.28159 41.8365,51.62934 0,2.04736 -40.0114,51.87776 -41.6277,51.84324 -0.8176,-0.0175 -10.346,-11.26823 -21.1741,-25.00169 z m 231.4788,3.05762 c -0.9623,-1.15954 -1.7891,-6.04396 -2.0012,-11.82288 -0.3285,-8.94691 -0.11,-10.02323 2.3898,-11.77418 3.8526,-2.69845 17.5465,-2.64096 19.8074,0.0831 2.4947,3.00603 -1.67,5.48974 -9.2054,5.48974 -7.1602,0 -7.7492,2.73528 -0.8075,3.75 3.1996,0.46771 4.3733,1.31145 4.6639,3.35265 0.3216,2.2586 -0.3067,2.79597 -3.6537,3.125 -6.9296,0.6812 -5.784,3.34242 1.6215,3.7667 5.8006,0.33233 6.6946,0.73762 7.0433,3.19315 0.3836,2.70065 0.029,2.8125 -8.9094,2.8125 -6.9607,0 -9.7225,-0.4984 -10.9487,-1.97583 z m -3.0015,-53.47952 c -5.1781,-6.43794 -9.4148,-12.42054 -9.4148,-13.29465 0,-2.76619 18.6978,-25.00319 20.9773,-24.94801 2.7168,0.0658 19.6477,21.56407 19.6477,24.94801 0,3.38394 -16.9309,24.88225 -19.6477,24.94801 -1.2424,0.0301 -6.1164,-4.8822 -11.5625,-11.65336 z M 4007.05,570.03929 c -10.6562,-13.53408 -19.5497,-25.31204 -19.7632,-26.17327 -0.6408,-2.58457 38.5159,-51.10651 41.2424,-51.10651 2.6392,0 41.0068,47.36675 41.0068,50.625 0,2.84882 -38.2823,50.57883 -40.8598,50.94359 -1.6026,0.2268 -7.8336,-6.77135 -21.6262,-24.28881 z M 3798.9648,286.67916 c -5.1781,-6.43794 -9.4148,-12.42054 -9.4148,-13.29465 0,-2.76619 18.6978,-25.00319 20.9773,-24.94801 2.7168,0.0658 19.6477,21.56407 19.6477,24.94801 0,3.38394 -16.9309,24.88225 -19.6477,24.94801 -1.2424,0.0301 -6.1164,-4.8822 -11.5625,-11.65336 z m 208.089,-22.1946 C 3996,250.56205 3987.1178,238.47028 3987.3155,237.614 c 0.4783,-2.07146 39.7358,-51.72949 40.8951,-51.72949 1.4212,0 4.8809,4.08542 23.7163,28.00577 9.6927,12.30942 17.6231,23.18584 17.6231,24.16982 0,2.34993 -38.3866,50.83194 -40.6525,51.34377 -1.0224,0.23096 -10.0736,-10.09468 -21.8437,-24.91931 z M 3798.256,230.20653 c -2.3628,-2.84701 -0.2453,-4.12773 7.544,-4.56292 5.1071,-0.28533 6.875,-0.86626 6.875,-2.2591 0,-1.27002 -1.5371,-2.00165 -4.764,-2.26752 -4.0911,-0.33708 -4.709,-0.77841 -4.375,-3.125 0.2869,-2.01545 1.468,-2.89649 4.5007,-3.35748 6.4869,-0.98605 4.7312,-3.08769 -2.9258,-3.50222 -6.3706,-0.34489 -6.9343,-0.61274 -6.5769,-3.125 0.3521,-2.47425 1.2254,-2.78445 8.7727,-3.11612 10.3165,-0.45337 13.6961,1.94842 13.31,9.45897 -0.1317,2.56265 0.1686,6.08997 0.6675,7.83847 0.6642,2.32781 0.1945,4.0851 -1.7543,6.5625 -2.4272,3.08567 -3.4099,3.3834 -11.1676,3.3834 -6.14,0 -8.9513,-0.53631 -10.1063,-1.92798 z"
         id="path4030"
         inkscape:connector-curvature="0" />
      <path
         style="fill:#ee8fb5"
         d="m 3724.9819,978.67787 c -0.7938,-0.5051 135.6994,-0.91836 303.3181,-0.91836 167.6187,0 304.1119,0.41326 303.3181,0.91836 -0.7937,0.5051 -137.2869,0.91835 -303.3181,0.91835 -166.0312,0 -302.5244,-0.41325 -303.3181,-0.91835 z m -8.4232,-8.5206 c -1.0958,-2.85572 -0.899,-852.11718 0.1979,-853.8409 0.5051,-0.79372 0.9184,191.44065 0.9184,427.1875 0,235.74685 -0.08,428.63064 -0.1788,428.63064 -0.098,0 -0.5202,-0.88975 -0.9375,-1.97724 z M 4338.925,543.38451 c 0,-235.6812 0.4133,-427.86186 0.9184,-427.06814 1.2008,1.88698 1.2008,852.2493 0,854.13628 -0.5051,0.79372 -0.9184,-191.38694 -0.9184,-427.06814 z m -583.9166,391.35243 c -2.1541,-1.31353 -4.826,-3.68659 -5.9375,-5.27347 -1.8505,-2.64198 -2.0209,-35.19911 -2.0209,-386.18852 l 0,-383.30329 2.6104,-3.31855 c 5.9356,-7.54592 -14.9992,-7.0186 278.6396,-7.0186 293.6388,0 272.704,-0.52732 278.6396,7.0186 l 2.6104,3.31855 0,383.41285 0,383.41285 -2.6104,3.31855 c -5.9358,7.54617 15.0245,7.01903 -278.89,7.01392 -262.722,-0.005 -269.2178,-0.0615 -273.0412,-2.39289 z m 546.0694,-7.32466 2.8472,-2.84722 0,-381.18055 0,-381.18056 -2.8472,-2.84722 -2.8473,-2.84722 -269.9305,0 -269.9306,0 -2.8472,2.84719 -2.8472,2.8472 -0.2974,379.6528 c -0.2374,302.94882 0.02,380.2792 1.2746,382.75317 0.8646,1.7052 2.9672,3.8084 4.6724,4.67378 2.4687,1.25282 57.7891,1.51253 271.5032,1.27463 l 268.4029,-0.29877 2.8471,-2.84723 z M 4011.425,881.90742 c -26.2506,-33.20372 -24.7455,-30.89619 -22.4432,-34.40999 5.0302,-7.67701 37.2156,-47.27993 38.7037,-47.62336 0.9257,-0.21364 10.4227,10.6084 21.3071,24.27996 17.1134,21.49552 19.4954,25.03122 18.5347,27.51178 -1.6594,4.28489 -37.7722,49.219 -39.5547,49.21672 -0.8512,-10e-4 -8.2976,-8.53988 -16.5476,-18.97511 z m 228.3598,-1.7491 c -2.214,-1.55076 -2.7906,-3.09809 -2.6783,-7.1875 0.079,-2.86622 -0.2524,-6.7779 -0.7358,-8.69261 -1.545,-6.11996 1.933,-8.3937 12.8397,-8.3937 8.1562,0 9.2229,0.26345 8.8578,2.1875 -0.3236,1.70499 -2.0671,2.32536 -7.9042,2.8125 -8.5731,0.71547 -10.4755,3.6617 -3.3107,5.12706 8.2092,1.67896 8.1261,6.0579 -0.1157,6.1038 -2.2137,0.0125 -3.4375,0.68667 -3.4375,1.89414 0,1.37656 1.4317,1.875 5.3861,1.875 6.4029,0 11.3714,2.9447 8.3639,4.9571 -2.9605,1.98096 -14.0903,1.54049 -17.2652,-0.68329 z m 0.038,-49.06586 c -9.7984,-11.77399 -12.7726,-15.93771 -12.7726,-17.88091 0,-2.30384 17.7488,-24.20204 19.6161,-24.20204 1.2561,0 20.3742,22.87224 20.3742,24.375 0,1.00304 -18.8397,24.33624 -19.9894,24.75715 -0.5741,0.21019 -3.8268,-2.96195 -7.2283,-7.0492 z M 4008.2169,570.29931 c -10.6105,-13.41482 -19.4365,-25.3804 -19.6133,-26.59019 -0.3684,-2.52149 37.5766,-50.94961 39.9207,-50.94961 1.3703,0 41.0257,48.934 41.0257,50.625 0,1.27158 -39.3256,50.40996 -40.7081,50.86581 -0.7331,0.24176 -10.0144,-10.5362 -20.625,-23.95101 z M 3803.5726,291.09246 c -9.7984,-11.77399 -12.7726,-15.93771 -12.7726,-17.88091 0,-2.30384 17.7488,-24.20204 19.6161,-24.20204 1.2561,0 20.3742,22.87224 20.3742,24.375 0,1.00304 -18.8397,24.33624 -19.9894,24.75715 -0.5741,0.21019 -3.8268,-2.96195 -7.2283,-7.0492 z m 203.6731,-27.26269 c -12.5115,-15.928 -18.9827,-25.1687 -18.6137,-26.57992 0.668,-2.55445 38.1816,-50.11534 39.5284,-50.11534 1.5185,0 6.445,5.77277 24.4027,28.59469 9.3998,11.94583 16.9265,22.16729 16.7262,22.71436 -1.301,3.55244 -39.3554,49.9277 -40.9237,49.87189 -1.0673,-0.038 -10.5713,-11.05654 -21.1199,-24.48568 z m -208.7139,-35.13276 c 0.3236,-1.70499 2.0671,-2.32536 7.9042,-2.8125 5.5045,-0.45939 7.489,-1.11623 7.489,-2.4788 0,-1.17434 -1.7231,-2.13388 -4.7013,-2.61797 -2.5857,-0.42029 -5.1161,-1.17895 -5.623,-1.6859 -1.3384,-1.33837 3.4337,-4.46733 6.8132,-4.46733 1.7321,0 2.8861,-0.74972 2.8861,-1.875 0,-1.40082 -1.5016,-1.87984 -5.9375,-1.89414 -3.2656,-0.0105 -6.7812,-0.58372 -7.8125,-1.27376 -1.6191,-1.08338 -1.5338,-1.52079 0.625,-3.20499 3.0812,-2.4038 14.8537,-1.8091 17.5493,0.88652 1.0883,1.08827 2.032,5.34327 2.3918,10.78487 0.7835,11.84819 -0.1792,12.8265 -12.622,12.8265 -8.2557,0 -9.3278,-0.26167 -8.9623,-2.1875 z m -73.5499,-120.60586 c 1.8868,-1.20074 604.7494,-1.20074 606.6362,0 0.7938,0.5051 -135.6994,0.91836 -303.3181,0.91836 -167.6187,0 -304.1119,-0.41326 -303.3181,-0.91836 z"
         id="path4028"
         inkscape:connector-curvature="0" />
      <path
         style="fill:#e85c94"
         d="m 3724.9819,978.67787 c -0.7938,-0.5051 135.6994,-0.91836 303.3181,-0.91836 167.6187,0 304.1119,0.41326 303.3181,0.91836 -0.7937,0.5051 -137.2869,0.91835 -303.3181,0.91835 -166.0312,0 -302.5244,-0.41325 -303.3181,-0.91835 z m -8.4232,-8.5206 c -1.0958,-2.85572 -0.899,-852.11718 0.1979,-853.8409 0.5051,-0.79372 0.9184,191.44065 0.9184,427.1875 0,235.74685 -0.08,428.63064 -0.1788,428.63064 -0.098,0 -0.5202,-0.88975 -0.9375,-1.97724 z M 4338.925,543.38451 c 0,-235.6812 0.4133,-427.86186 0.9184,-427.06814 1.2008,1.88698 1.2008,852.2493 0,854.13628 -0.5051,0.79372 -0.9184,-191.38694 -0.9184,-427.06814 z m -581.25,391.98545 c -2.0625,-0.91669 -5.1562,-3.18999 -6.875,-5.05179 l -3.125,-3.38507 0,-383.56722 0,-383.56721 3.6789,-3.83999 c 2.0235,-2.112 5.6797,-4.3958 8.125,-5.07511 6.1027,-1.69531 531.5395,-1.69531 537.6422,0 2.4453,0.67931 6.1015,2.96311 8.125,5.07511 l 3.6789,3.83999 0,383.56721 0,383.56722 -3.125,3.3868 c -6.7026,7.26413 11.5816,6.81878 -277.7723,6.76568 -219.3827,-0.0403 -267.2669,-0.34413 -270.3527,-1.71562 z m 543.8068,-7.55364 3.0682,-3.06817 0,-381.36364 0,-381.36364 -3.0682,-3.06818 -3.0682,-3.06818 -270.1136,0 -270.1136,0 -3.0682,3.06818 -3.0682,3.06818 0,381.36364 0,381.36364 3.0682,3.06817 3.0682,3.06819 270.1136,0 270.1136,0 3.0682,-3.06819 z m -293.7962,-51.68099 c -11.1023,-14.03421 -19.2708,-25.45747 -18.9919,-26.55942 0.9241,-3.65085 38.461,-49.82353 39.9807,-49.17874 2.1184,0.89879 39.0006,47.99237 39.0006,49.79843 0,1.80717 -36.8823,49.0132 -39.004,49.92161 -0.8687,0.37193 -9.7335,-9.75875 -20.9854,-23.98188 z m 231.9445,3.57513 c -2.6787,-1.695 -3.1304,-19.34704 -0.5609,-21.91659 1.9448,-1.94482 16.6589,-2.81461 18.3866,-1.08687 2.0628,2.06278 -2.3771,4.17751 -8.7708,4.17751 -6.3461,0 -6.7817,0.19116 -6.4094,2.8125 0.3208,2.25916 1.3216,2.88882 5.0869,3.20046 5.6637,0.46875 6.7116,3.98704 1.1875,3.98704 -4.0481,0 -6.5964,2.04426 -5.6436,4.52732 0.4486,1.1689 2.8281,1.72268 7.4023,1.72268 5.1589,0 6.7413,0.44011 6.7413,1.875 0,1.46871 -1.6929,1.87085 -7.8125,1.85586 -4.2969,-0.01 -8.6202,-0.53024 -9.6074,-1.15491 z m -2.9443,-53.24739 c -4.669,-5.85389 -8.7696,-11.37417 -9.1123,-12.26729 -0.6747,-1.75833 16.2181,-23.70876 18.6931,-24.2896 1.5821,-0.3713 19.5334,21.2054 19.5334,23.47833 0,1.9369 -17.7327,23.75241 -19.2938,23.736 -0.7321,-0.007 -5.1513,-4.80354 -9.8204,-10.65744 z M 4008.1895,569.32201 c -10.5297,-13.23438 -19.1449,-24.90625 -19.1449,-25.9375 0,-1.95478 37.6326,-50 39.1637,-50 1.3922,0 6.0612,5.48205 23.6261,27.74024 9.0561,11.47588 16.4656,21.481 16.4656,22.2336 0,0.7526 -7.3951,10.76948 -16.4336,22.25976 -17.2858,21.97469 -22.2206,27.7664 -23.6581,27.7664 -0.4806,0 -9.4891,-10.82813 -20.0188,-24.0625 z M 3800.4358,286.46307 c -4.669,-5.85388 -8.7696,-11.37417 -9.1123,-12.26729 -0.6747,-1.75833 16.2181,-23.70876 18.6931,-24.28959 1.5821,-0.37131 19.5334,21.20539 19.5334,23.47832 0,1.9369 -17.7327,23.75241 -19.2938,23.736 -0.7321,-0.008 -5.1513,-4.80354 -9.8204,-10.65744 z m 207.787,-22.49382 c -10.6138,-13.45673 -19.4627,-24.93174 -19.6642,-25.50004 -0.6454,-1.82 37.8669,-49.4597 39.9837,-49.4597 2.075,0 39.7063,46.32984 39.7395,48.92531 0.022,1.715 -37.5941,49.44545 -39.457,50.06642 -0.7173,0.23912 -9.9883,-10.57528 -20.602,-24.03199 z m -209.3033,-34.34357 c -1.0218,-1.65341 1.153,-2.34154 8.7443,-2.76673 4.9547,-0.27752 6.3307,-0.83313 6.6854,-2.69966 0.5423,-2.85277 -1.7552,-4.47999 -6.3617,-4.50564 -2.2137,-0.0123 -3.4375,-0.68666 -3.4375,-1.89414 0,-1.20748 1.2238,-1.88181 3.4375,-1.89414 5.1955,-0.0289 7.4349,-1.79857 5.3916,-4.26059 -1.0797,-1.3009 -3.7066,-1.97027 -7.7322,-1.97027 -4.5861,0 -6.0969,-0.46461 -6.0969,-1.875 0,-1.46966 1.7146,-1.875 7.9313,-1.875 9.5412,0 12.0955,2.02261 11.9472,9.46043 -0.054,2.70301 0.022,6.5582 0.168,8.56709 0.1689,2.32004 -0.5622,4.25809 -2.0042,5.3125 -2.6676,1.95066 -17.5179,2.26969 -18.6728,0.40115 z m -73.9376,-121.53453 c 1.8868,-1.20074 604.7494,-1.20074 606.6362,0 0.7938,0.5051 -135.6994,0.91836 -303.3181,0.91836 -167.6187,0 -304.1119,-0.41326 -303.3181,-0.91836 z"
         id="path4026"
         inkscape:connector-curvature="0" />
      <path
         style="fill:#e01b6a"
         d="m 3877.3625,978.69706 c 83.0156,-0.17743 218.8594,-0.17743 301.875,0 83.0156,0.17742 15.0937,0.32259 -150.9375,0.32259 -166.0312,0 -233.9531,-0.14517 -150.9375,-0.32259 z M 3716.4178,543.38451 c 0,-234.09375 0.1438,-329.85937 0.3197,-212.8125 0.1758,117.04687 0.1758,308.57812 0,425.625 -0.1759,117.04687 -0.3197,21.28125 -0.3197,-212.8125 z m 623.75,0 c 0,-234.09375 0.1438,-329.85937 0.3197,-212.8125 0.1758,117.04687 0.1758,308.57812 0,425.625 -0.1759,117.04687 -0.3197,21.28125 -0.3197,-212.8125 z M 3757.675,934.13595 c -2.0625,-0.91293 -4.875,-2.92076 -6.25,-4.46187 -2.487,-2.78746 -2.5015,-4.78128 -2.7974,-384.85827 -0.2348,-301.68031 0.028,-382.68838 1.25,-385.0608 0.8511,-1.65248 3.1355,-4.18373 5.0766,-5.625 l 3.5291,-2.6205 269.8167,0 269.8167,0 3.5291,2.6205 c 1.9411,1.44127 4.224,3.97252 5.0733,5.625 2.2618,4.40115 2.2618,762.85785 0,767.259 -0.8493,1.65248 -3.1322,4.18372 -5.0732,5.625 l -3.5291,2.6205 -268.3459,0.26815 c -220.8,0.22065 -269.0103,-0.0259 -272.0959,-1.39171 z m 543.9928,-5.01821 3.5072,-3.01677 0,-382.71646 0,-382.71646 -3.5072,-3.01677 -3.5072,-3.01677 -269.8606,0 -269.8606,0 -3.5072,3.01677 -3.5072,3.01677 0,382.71646 0,382.71646 3.5072,3.01677 3.5072,3.01677 269.8606,0 269.8606,0 3.5072,-3.01677 z M 4008.443,875.5696 c -10.6526,-13.5027 -18.7702,-24.90178 -18.4998,-25.97827 0.2651,-1.055 8.8165,-12.43651 19.0032,-25.29226 14.5269,-18.3332 18.8776,-23.07834 20.1736,-22.00276 2.305,1.91299 37.93,46.96146 37.93,47.9632 0,1.00754 -35.6319,46.05587 -37.9515,47.98103 -1.3249,1.09957 -5.6307,-3.62635 -20.6555,-22.67094 z m 231.5063,2.50241 c -1.507,-2.35895 -1.6144,-17.58969 -0.1366,-19.375 0.7951,-0.96054 4.4609,-1.5625 9.5153,-1.5625 9.9298,0 9.1239,2.1734 -1.0163,2.7409 -5.6232,0.3147 -6.9464,0.8209 -7.3234,2.80147 -0.5543,2.91209 2.853,5.6597 7.2381,5.83682 2.6397,0.10662 2.396,0.34283 -1.3942,1.35178 -8.7386,2.32619 -6.9924,7.40964 2.9591,8.61412 l 6.6337,0.80291 -7.7387,0.176 c -4.9965,0.11362 -8.0925,-0.37769 -8.737,-1.3865 z m -2.8993,-52.66658 c -4.4688,-5.70132 -8.125,-11.11074 -8.125,-12.02092 0,-2.09601 15.8201,-22.37235 17.5,-22.4295 1.49,-0.0506 18.125,20.535 18.125,22.4295 0,1.8945 -16.635,22.48017 -18.125,22.4295 -0.6875,-0.0234 -4.9063,-4.70725 -9.375,-10.40858 z M 4009.0494,568.85 c -10.1476,-12.80648 -18.7024,-23.94155 -19.0106,-24.7446 -0.5585,-1.45559 35.8853,-48.47058 38.1598,-49.22877 1.6841,-0.56133 38.2264,45.80956 38.2264,48.50788 0,2.29565 -36.1296,48.75 -37.915,48.75 -0.5557,0 -9.3129,-10.47803 -19.4606,-23.28451 z M 3800.8,285.40543 c -4.4687,-5.70132 -8.125,-11.11075 -8.125,-12.02092 0,-2.09601 15.8201,-22.37235 17.5,-22.4295 1.49,-0.0506 18.125,20.535 18.125,22.4295 0,1.8945 -16.635,22.48017 -18.125,22.4295 -0.6875,-0.0234 -4.9062,-4.70725 -9.375,-10.40858 z m 208.125,-22.16652 c -10.3125,-13.13044 -18.679,-24.61376 -18.5923,-25.51851 0.2377,-2.47932 36.6856,-48.0947 38.3758,-48.02813 2.1473,0.0846 37.7291,45.90598 37.6457,48.47919 -0.069,2.13076 -36.3275,48.9739 -37.8908,48.952 -0.4336,-0.006 -9.2259,-10.75413 -19.5384,-23.88455 z m -202.5,-34.74017 c 7.4618,-0.93573 9.375,-1.97943 9.375,-5.11423 0,-2.72876 -1.4207,-3.79368 -6.7659,-5.07152 -3.7439,-0.89504 -3.7592,-0.9264 -0.5109,-1.05053 3.9864,-0.15234 7.4479,-3.22757 6.478,-5.75512 -0.3809,-0.99266 -2.4664,-2.0903 -4.6344,-2.43922 -2.168,-0.34891 -5.348,-0.8501 -7.0668,-1.11377 -1.7187,-0.26366 0.3218,-0.55599 4.5344,-0.64961 8.9525,-0.19897 11.1999,1.47087 10.007,7.4352 -0.4234,2.11707 -0.1543,4.99933 0.598,6.40501 0.9834,1.8376 0.9879,3.3895 0.016,5.52268 -1.2422,2.7263 -2.0382,2.95261 -9.8161,2.79088 -8.3909,-0.17447 -8.4101,-0.18279 -2.2143,-0.95977 z m 70.9375,-121.05168 c 83.0156,-0.17742 218.8594,-0.17742 301.875,0 83.0156,0.17742 15.0937,0.32258 -150.9375,0.32258 -166.0312,0 -233.9531,-0.14516 -150.9375,-0.32258 z"
         id="path4024"
         inkscape:connector-curvature="0" />
      <path
         style="fill:#dd0158"
         d="m 3877.3625,978.69706 c 83.0156,-0.17743 218.8594,-0.17743 301.875,0 83.0156,0.17742 15.0937,0.32259 -150.9375,0.32259 -166.0312,0 -233.9531,-0.14517 -150.9375,-0.32259 z M 3716.4178,543.38451 c 0,-234.09375 0.1438,-329.85937 0.3197,-212.8125 0.1758,117.04687 0.1758,308.57812 0,425.625 -0.1759,117.04687 -0.3197,21.28125 -0.3197,-212.8125 z m 623.75,0 c 0,-234.09375 0.1438,-329.85937 0.3197,-212.8125 0.1758,117.04687 0.1758,308.57812 0,425.625 -0.1759,117.04687 -0.3197,21.28125 -0.3197,-212.8125 z m -445.9303,390.31256 c 73.7344,-0.1781 194.3906,-0.1781 268.125,0 73.7344,0.1781 13.4062,0.32382 -134.0625,0.32382 -147.4687,0 -207.7969,-0.14572 -134.0625,-0.32382 z m 115.1195,-59.06209 c -9.8626,-12.44551 -18.0658,-23.30258 -18.2295,-24.12683 -0.3814,-1.92188 35.0307,-46.49864 36.9389,-46.49864 1.1057,0 37.7336,44.88322 37.7336,46.23811 0,0.8182 -36.5324,46.31123 -37.4524,46.63873 -0.5822,0.20726 -9.128,-9.80585 -18.9906,-22.25137 z m 229.5014,-49.06297 c -3.9728,-4.98438 -7.761,-9.76534 -8.4183,-10.62435 -1.1586,-1.5141 2.3432,-6.79518 12.574,-18.96265 l 3.5941,-4.27451 8.3459,10.33695 c 4.5902,5.68532 8.3459,10.787 8.3459,11.33706 0,1.01339 -15.9835,21.25 -16.7839,21.25 -0.239,0 -3.685,-4.07813 -7.6577,-9.0625 z M 4013.7161,572.56236 c -8.1692,-10.20407 -16.7136,-20.94225 -18.9875,-23.86264 l -4.1344,-5.3098 15.2896,-19.38536 c 8.4092,-10.66195 17.0336,-21.37551 19.1654,-23.80792 l 3.8758,-4.42255 17.8771,22.62136 c 9.8324,12.44175 18.1473,23.32551 18.4776,24.18615 0.4494,1.1712 -29.2414,40.6448 -35.7136,47.48076 -0.5482,0.57906 -7.6807,-7.29594 -15.85,-17.5 z M 3802.6084,285.57201 c -3.9728,-4.98438 -7.761,-9.76534 -8.4183,-10.62435 -1.1586,-1.5141 2.3433,-6.79517 12.574,-18.96265 l 3.5941,-4.27451 8.3459,10.33695 c 4.5902,5.68532 8.3459,10.787 8.3459,11.33706 0,1.01339 -15.9835,21.25 -16.7839,21.25 -0.239,0 -3.6849,-4.07813 -7.6577,-9.0625 z m 206.4326,-24.14829 -18.4068,-23.2108 3.4892,-4.6017 c 9.4795,-12.50201 33.306,-42.14472 34.1267,-42.45732 0.5134,-0.19558 9.2542,10.1554 19.4239,23.00219 16.8712,21.31229 18.3503,23.58218 16.8902,25.9202 -3.3826,5.41638 -35.0607,44.55822 -36.0616,44.55822 -0.5802,0 -9.3379,-10.44486 -19.4616,-23.21079 z M 3894.2375,152.44707 c 73.7344,-0.1781 194.3906,-0.1781 268.125,0 73.7344,0.1781 13.4062,0.32382 -134.0625,0.32382 -147.4687,0 -207.7969,-0.14572 -134.0625,-0.32382 z m -16.875,-45.00001 c 83.0156,-0.17742 218.8594,-0.17742 301.875,0 83.0156,0.17742 15.0937,0.32258 -150.9375,0.32258 -166.0312,0 -233.9531,-0.14516 -150.9375,-0.32258 z"
         id="path4022"
         inkscape:connector-curvature="0" />
      <path
         style="fill:#111111"
         d="m 3877.3625,978.69706 c 83.0156,-0.17743 218.8594,-0.17743 301.875,0 83.0156,0.17742 15.0937,0.32259 -150.9375,0.32259 -166.0312,0 -233.9531,-0.14517 -150.9375,-0.32259 z M 3716.4178,543.38451 c 0,-234.09375 0.1438,-329.85937 0.3197,-212.8125 0.1758,117.04687 0.1758,308.57812 0,425.625 -0.1759,117.04687 -0.3197,21.28125 -0.3197,-212.8125 z m 623.75,0 c 0,-234.09375 0.1438,-329.85937 0.3197,-212.8125 0.1758,117.04687 0.1758,308.57812 0,425.625 -0.1759,117.04687 -0.3197,21.28125 -0.3197,-212.8125 z M 3877.3625,107.44706 c 83.0156,-0.17742 218.8594,-0.17742 301.875,0 83.0156,0.17742 15.0937,0.32258 -150.9375,0.32258 -166.0312,0 -233.9531,-0.14516 -150.9375,-0.32258 z"
         id="path4020"
         inkscape:connector-curvature="0" />
    </g>
  </g>
</svg>
