<?xml version="1.0" encoding="UTF-8" standalone="no"?>
<!-- Created with Inkscape (http://www.inkscape.org/) -->

<svg
   xmlns:dc="http://purl.org/dc/elements/1.1/"
   xmlns:cc="http://creativecommons.org/ns#"
   xmlns:rdf="http://www.w3.org/1999/02/22-rdf-syntax-ns#"
   xmlns:svg="http://www.w3.org/2000/svg"
   xmlns="http://www.w3.org/2000/svg"
   xmlns:sodipodi="http://sodipodi.sourceforge.net/DTD/sodipodi-0.dtd"
   xmlns:inkscape="http://www.inkscape.org/namespaces/inkscape"
   width="176.4539mm"
   height="246.27022mm"
   viewBox="0 0 625.23037 872.61101"
   id="svg2"
   version="1.1"
   inkscape:version="0.91 r13725"
   sodipodi:docname="4.svg">
  <defs
     id="defs4" />
  <sodipodi:namedview
     id="base"
     pagecolor="#ffffff"
     bordercolor="#666666"
     borderopacity="1.0"
     inkscape:pageopacity="0.0"
     inkscape:pageshadow="2"
     inkscape:zoom="0.35"
     inkscape:cx="493.15462"
     inkscape:cy="427.57415"
     inkscape:document-units="px"
     inkscape:current-layer="layer1"
     showgrid="false"
     fit-margin-top="0"
     fit-margin-left="0"
     fit-margin-right="0"
     fit-margin-bottom="0"
     inkscape:window-width="784"
     inkscape:window-height="822"
     inkscape:window-x="800"
     inkscape:window-y="0"
     inkscape:window-maximized="0" />
  <metadata
     id="metadata7">
    <rdf:RDF>
      <cc:Work
         rdf:about="">
        <dc:format>image/svg+xml</dc:format>
        <dc:type
           rdf:resource="http://purl.org/dc/dcmitype/StillImage" />
        <dc:title></dc:title>
      </cc:Work>
    </rdf:RDF>
  </metadata>
  <g
     inkscape:label="Calque 1"
     inkscape:groupmode="layer"
     id="layer1"
     transform="translate(438.3966,234.69425)">
    <g
       transform="translate(-3454.083,-1436.0035)"
       id="g4090"
       inkscape:transform-center-x="45.714286"
       inkscape:transform-center-y="197.14284">
      <path
         style="fill:#fdfdfd"
         d="m 3015.8,1637.6703 0,-436.25 312.5,0 312.5,0 0,436.25 0,436.25 -312.5,0 -312.5,0 0,-436.25 z"
         id="path4106"
         inkscape:connector-curvature="0" />
      <path
         style="fill:#f8dce7"
         d="m 3021.9252,2072.362 c -1.8959,-0.7539 -3.8487,-2.9486 -4.6875,-5.2682 -2.0668,-5.7156 -2.07,-853.1223 0,-858.8378 0.9685,-2.6784 2.7229,-4.4328 5.4013,-5.4013 5.6984,-2.0606 605.6302,-2.0606 611.3286,0 2.6784,0.9685 4.4328,2.7229 5.4013,5.4013 2.0638,5.7073 2.0638,853.1213 0,858.8286 -0.9685,2.6784 -2.7229,4.4328 -5.4013,5.4013 -5.3415,1.9315 -607.1766,1.8097 -612.0391,-0.1239 z m 609.3032,-3.5795 c 1.6752,-0.7633 3.6705,-2.7586 4.4338,-4.4338 1.0084,-2.2133 1.3878,-118.8691 1.3878,-426.6784 0,-307.8093 -0.3794,-424.4652 -1.3878,-426.6783 -0.7633,-1.6753 -2.7586,-3.6705 -4.4338,-4.4339 -4.3419,-1.9782 -601.5149,-1.9782 -605.8567,0 -1.6753,0.7634 -3.6705,2.7586 -4.4339,4.4339 -1.9852,4.357 -1.9804,849.01 0,853.3671 0.7659,1.681 2.5941,3.6382 4.0625,4.3492 3.9091,1.8928 602.0711,1.966 606.2233,0.074 z m -575.4029,-37.6747 c -3.0273,-1.5469 -6.6621,-4.4006 -8.0773,-6.3417 l -2.5732,-3.5291 0,-383.5667 0,-383.5667 2.5732,-3.5291 c 1.4152,-1.9411 5.05,-4.7948 8.0773,-6.3417 l 5.5042,-2.8125 266.9703,0 266.9703,0 5.5042,2.8125 c 3.0273,1.5469 6.6621,4.4006 8.0773,6.3417 l 2.5732,3.5291 0,383.5667 0,383.5667 -2.5732,3.5291 c -1.4152,1.9411 -5.05,4.7948 -8.0773,6.3417 l -5.5042,2.8125 -266.9703,0 -266.9703,0 -5.5042,-2.8125 z m 543.9386,-10.5062 c 2.205,-1.9956 2.2859,-15.5386 2.2859,-382.7141 0,-352.4404 -0.1533,-380.8147 -2.0687,-382.9313 -1.992,-2.2011 -12.0658,-2.2859 -271.4641,-2.2859 -248.9211,0 -269.5691,0.1572 -271.6813,2.0687 -2.205,1.9956 -2.2859,15.5386 -2.2859,382.7141 0,352.4404 0.1533,380.8147 2.0687,382.9313 1.992,2.2011 12.0658,2.2859 271.4641,2.2859 248.9211,0 269.5691,-0.1572 271.6813,-2.0687 z m -418.7648,-48.4575 c -11.1096,-14.0394 -20.1993,-26.4698 -20.1993,-27.6232 0,-3.4652 40.1308,-53.272 42.5783,-52.8445 2.9523,0.5156 42.6849,51.1025 42.0486,53.5356 -0.9426,3.6046 -40.229,52.3398 -42.2401,52.3994 -1.1309,0.034 -10.6984,-10.9483 -22.1875,-25.4673 z m 250.5489,0.217 c -10.9322,-13.8839 -20.1037,-26.1111 -20.381,-27.1717 -0.6293,-2.4065 39.1232,-53.0009 42.0447,-53.5117 2.4273,-0.4244 42.5881,49.43 42.5881,52.8676 0,3.0103 -40.0147,53.1313 -42.3867,53.0921 -1.0936,-0.018 -10.9328,-11.3924 -21.8651,-25.2763 z m 105.0851,4.4759 c -0.4583,-0.4584 -0.8333,-3.8002 -0.8333,-7.4263 0,-3.6261 -0.5625,-6.9405 -1.25,-7.3654 -1.4513,-0.8969 -1.7149,-8.125 -0.2964,-8.125 0.5245,0 1.5088,-1.2656 2.1875,-2.8125 1.6521,-3.7658 6.2808,-4.3293 8.3496,-1.0166 0.965,1.5452 2.9308,2.5791 4.9037,2.5791 13.6725,0 14.5593,4.2299 3.4727,16.5625 -6.4061,7.1261 -8.2158,8.4375 -11.6428,8.4375 -2.2317,0 -4.4326,-0.375 -4.891,-0.8333 z m 8.3413,-42.6543 c -2.7401,-1.6935 -20.4149,-24.6474 -20.4149,-26.5124 0,-1.9708 17.8192,-24.9766 20.5427,-26.5219 0.8694,-0.4934 2.475,-0.2121 3.568,0.625 3.8858,2.9757 19.6296,23.7463 19.6296,25.8969 0,2.2704 -15.9903,23.2294 -19.7503,25.8874 -1.1767,0.8318 -2.7855,1.113 -3.5751,0.625 z m -436.25,-540 c -2.7401,-1.6935 -20.4149,-24.6474 -20.4149,-26.5124 0,-1.9708 17.8192,-24.9766 20.5427,-26.5219 0.8694,-0.4934 2.475,-0.2121 3.568,0.625 3.8858,2.9757 19.6296,23.7463 19.6296,25.8969 0,2.2704 -15.9903,23.2294 -19.7503,25.8874 -1.1767,0.8318 -2.7855,1.113 -3.5751,0.625 z m 72.2494,-34.2583 c -11.0753,-13.9585 -20.1453,-26.3772 -20.1555,-27.5971 -0.01,-1.2199 8.5121,-13.0324 18.9384,-26.25 18.6144,-23.5978 21.7342,-27.157 23.8049,-27.157 1.4706,0 42.2382,51.552 42.2382,53.4116 0,2.5592 -40.0671,52.1846 -42.4627,52.5925 -1.5982,0.2721 -7.9069,-6.7805 -22.3633,-25 z m 250.1385,-0.4184 c -11.1719,-14.1047 -20.3125,-26.3353 -20.3125,-27.1791 0,-1.8093 40.7578,-53.4155 42.1646,-53.3875 2.0242,0.04 4.2392,2.5672 23.2551,26.529 10.7692,13.5702 19.572,25.664 19.5618,26.875 -0.027,3.1964 -39.7498,52.8289 -42.2718,52.8173 -1.2124,0 -10.5838,-10.74 -22.3972,-25.6547 z m -319.2543,-34.0808 c -1.1714,-1.6614 -3.719,-2.5813 -8.3789,-3.0254 -6.0216,-0.5739 -8.8541,-2.1936 -8.9102,-5.0951 -0.011,-0.5449 3.4965,-4.8623 7.7934,-9.5943 11.7875,-12.9812 17.4936,-13.3932 18.1959,-1.3137 0.2108,3.6267 1.1952,7.4058 2.1875,8.3981 2.2124,2.2124 2.265,3.4441 0.2416,5.6515 -0.8594,0.9375 -2.1824,2.8058 -2.9402,4.1518 -1.8726,3.3265 -6.1241,3.7559 -8.1891,0.8271 z"
         id="path4104"
         inkscape:connector-curvature="0" />
      <path
         style="fill:#f2a9c6"
         d="m 3023.0032,2071.9636 c -7.802,-4.2334 -7.2032,31.869 -7.2032,-434.2933 0,-377.5517 0.2122,-425.5345 1.8962,-428.7909 4.1664,-8.057 -20.7295,-7.4591 310.6038,-7.4591 331.3333,0 306.4374,-0.5979 310.6038,7.4591 1.684,3.2564 1.8962,51.2392 1.8962,428.7909 0,377.5517 -0.2122,425.5345 -1.8962,428.7909 -4.1671,8.0585 20.7716,7.4641 -310.8542,7.4091 -264.3514,-0.044 -302.0474,-0.2795 -305.0464,-1.9067 z m 608.3564,-1.6376 c 2.0265,-1.1889 4.6572,-3.8196 5.8461,-5.8461 2.0368,-3.4718 2.1669,-28.0897 2.2529,-426.3051 0.082,-377.4378 -0.1136,-423.0313 -1.826,-426.464 -1.0546,-2.114 -3.8993,-5.0129 -6.3215,-6.4421 l -4.404,-2.5984 -298.6071,0 -298.6071,0 -4.404,2.5984 c -2.4222,1.4292 -5.2668,4.3281 -6.3214,6.4421 -1.7125,3.4327 -1.9077,49.0262 -1.8261,426.464 0.086,398.2154 0.2161,422.8333 2.2529,426.3051 1.1889,2.0265 3.8196,4.6572 5.8461,5.8461 3.4646,2.0325 21.5618,2.1616 303.0596,2.1616 281.4978,0 299.595,-0.1291 303.0596,-2.1616 z m -575.6072,-40.4682 c -3.6299,-1.8304 -6.3406,-4.3402 -7.763,-7.1875 -2.0663,-4.1364 -2.1855,-25.1304 -2.1855,-385 0,-359.8696 0.1192,-380.8636 2.1855,-385 1.4224,-2.8473 4.1331,-5.3571 7.763,-7.1875 l 5.5773,-2.8125 266.9703,0 266.9703,0 5.5773,2.8125 c 3.6299,1.8304 6.3406,4.3402 7.763,7.1875 2.0663,4.1364 2.1855,25.1304 2.1855,385 0,359.8696 -0.1191,380.8636 -2.1855,385 -1.4224,2.8473 -4.1331,5.3571 -7.763,7.1875 l -5.5773,2.8125 -266.9703,0 -266.9703,0 -5.5773,-2.8125 z m 544.6545,-8.6554 2.8931,-2.7179 0,-380.639 0,-380.6391 -2.7179,-2.893 -2.7179,-2.8931 -269.389,0 -269.3891,0 -2.893,2.7179 -2.8931,2.7179 0,380.639 0,380.6391 2.7179,2.893 2.7179,2.8931 269.389,0 269.3891,0 2.893,-2.7179 z m -418.6694,-49.8155 c -10.8281,-13.7335 -19.6875,-25.8187 -19.6875,-26.856 0,-2.3013 38.4207,-51.0822 40.6528,-51.6149 1.5942,-0.3805 41.8365,49.2815 41.8365,51.6293 0,2.0474 -40.0114,51.8778 -41.6277,51.8432 -0.8176,-0.017 -10.346,-11.2682 -21.1741,-25.0017 z m 250.3937,-0.2791 c -11.0387,-13.9219 -20.0705,-25.875 -20.0705,-26.5625 0,-2.3478 40.2423,-52.0098 41.8365,-51.6293 2.2318,0.5326 40.6528,49.3135 40.6528,51.6144 0,2.4276 -38.892,51.7651 -40.8616,51.8362 -0.8177,0.029 -10.5184,-11.3369 -21.5572,-25.2588 z m 105.7521,4.4792 c -0.4583,-0.4584 -0.8333,-3.5597 -0.8333,-6.892 0,-3.3322 -0.6573,-7.1112 -1.4608,-8.3977 -1.1574,-1.8533 -1.0154,-3.2774 0.6837,-6.858 2.3967,-5.0506 4.9789,-5.7631 7.3172,-2.019 1.1565,1.8519 2.915,2.5 6.7834,2.5 11.7007,0 12.1181,3.7485 1.6355,14.6875 -7.0252,7.3311 -11.5421,9.5627 -14.1257,6.9792 z m 9.6187,-12.2917 c 0.4383,-1.1421 0,-1.875 -1.1162,-1.875 -1.0097,0 -1.8358,0.8438 -1.8358,1.875 0,1.0313 0.5023,1.875 1.1163,1.875 0.6139,0 1.44,-0.8437 1.8357,-1.875 z m -12.2872,-42.3303 c -5.1781,-6.438 -9.4148,-12.4206 -9.4148,-13.2947 0,-2.7662 18.6978,-25.0032 20.9773,-24.948 2.7168,0.066 19.6477,21.5641 19.6477,24.948 0,3.3839 -16.9309,24.8822 -19.6477,24.948 -1.2424,0.03 -6.1164,-4.8822 -11.5625,-11.6533 z m -436.25,-540 c -5.1781,-6.438 -9.4148,-12.4206 -9.4148,-13.2947 0,-2.7662 18.6978,-25.0032 20.9773,-24.948 2.7168,0.066 19.6477,21.5641 19.6477,24.948 0,3.3839 -16.9309,24.8822 -19.6477,24.948 -1.2424,0.03 -6.1164,-4.8822 -11.5625,-11.6533 z m 82.7724,-21.9252 c -10.8279,-13.6843 -19.6872,-25.7126 -19.6872,-26.7296 0,-1.017 7.9312,-11.8989 17.6248,-24.182 18.8863,-23.9314 22.3017,-27.9579 23.7147,-27.9579 1.1592,0 40.4167,49.658 40.895,51.7295 0.467,2.0222 -39.2113,52.0205 -41.2831,52.0205 -0.8673,0 -10.4362,-11.1962 -21.2642,-24.8805 z m 250.3166,-0.2694 c -11.0538,-13.9226 -19.936,-26.0143 -19.7383,-26.8706 0.4783,-2.0715 39.7358,-51.7295 40.8951,-51.7295 1.4212,0 4.8809,4.0854 23.7163,28.0058 9.6927,12.3094 17.6231,23.1858 17.6231,24.1698 0,2.3499 -38.3866,50.8319 -40.6525,51.3438 -1.0224,0.2309 -10.0736,-10.0947 -21.8437,-24.9193 z m -319.0439,-34.8501 c -1.1703,-1.874 -2.915,-2.5 -6.9678,-2.5 -5.7404,0 -10.2421,-1.721 -10.2421,-3.9155 0,-0.7302 3.7737,-5.2364 8.3859,-10.0139 6.6561,-6.8945 9.0412,-8.6099 11.5625,-8.3159 2.9154,0.3398 3.2085,0.9344 3.5647,7.2305 0.2288,4.043 1.2067,7.7645 2.3813,9.0625 1.777,1.9636 1.7894,2.4394 0.1143,4.3898 -1.0333,1.2031 -2.2278,3.1719 -2.6545,4.375 -1.0401,2.9328 -4.2185,2.7712 -6.1443,-0.3125 z m -0.9599,-12.0281 c 0,-1.6609 -0.3394,-1.7464 -1.875,-0.4719 -1.0312,0.8559 -1.875,1.7685 -1.875,2.0281 0,0.2595 0.8438,0.4719 1.875,0.4719 1.0313,0 1.875,-0.9126 1.875,-2.0281 z"
         id="path4102"
         inkscape:connector-curvature="0" />
      <path
         style="fill:#ef8fb5"
         d="m 3024.9819,2072.9637 c -0.7938,-0.5051 135.6994,-0.9184 303.3181,-0.9184 167.6187,0 304.1119,0.4133 303.3181,0.9184 -0.7937,0.5051 -137.2868,0.9183 -303.3181,0.9183 -166.0312,0 -302.5244,-0.4132 -303.3181,-0.9183 z m -8.4232,-8.5206 c -1.0958,-2.8558 -0.899,-852.1172 0.1979,-853.8409 0.5051,-0.7938 0.9184,191.4406 0.9184,427.1875 0,235.7468 -0.08,428.6306 -0.1788,428.6306 -0.098,0 -0.5202,-0.8897 -0.9375,-1.9772 z m 622.3663,-426.7728 c 0,-235.6812 0.4133,-427.8619 0.9184,-427.0681 1.2008,1.8869 1.2008,852.2493 0,854.1362 -0.5051,0.7938 -0.9184,-191.3869 -0.9184,-427.0681 z m -583.9166,391.3524 c -2.1541,-1.3135 -4.826,-3.6866 -5.9375,-5.2734 -1.8505,-2.642 -2.0209,-35.1991 -2.0209,-386.1886 l 0,-383.3033 2.6104,-3.3185 c 5.9356,-7.5459 -14.9992,-7.0186 278.6396,-7.0186 293.6388,0 272.704,-0.5273 278.6396,7.0186 l 2.6104,3.3185 0,383.4129 0,383.4129 -2.6104,3.3185 c -5.9358,7.5462 15.0246,7.019 -278.89,7.0139 -262.722,-0.01 -269.2178,-0.062 -273.0412,-2.3929 z m 546.0694,-7.3246 2.8472,-2.8472 0,-381.1806 0,-381.1806 -2.8472,-2.8472 -2.8472,-2.8472 -269.9306,0 -269.9306,0 -2.8472,2.8472 -2.8472,2.8472 -0.2974,379.6528 c -0.2374,302.9488 0.02,380.2792 1.2746,382.7532 0.8646,1.7052 2.9672,3.8084 4.6724,4.6737 2.4687,1.2529 57.7891,1.5126 271.5032,1.2747 l 268.4029,-0.2988 2.8471,-2.8472 z m -414.6528,-45.5049 c -26.2506,-33.2037 -24.7455,-30.8962 -22.4432,-34.41 5.0302,-7.677 37.2156,-47.2799 38.7037,-47.6233 0.9257,-0.2137 10.4227,10.6084 21.3071,24.2799 17.1134,21.4955 19.4954,25.0312 18.5347,27.5118 -1.6594,4.2849 -37.7722,49.219 -39.5547,49.2167 -0.8512,0 -8.2976,-8.5399 -16.5476,-18.9751 z m 246.2891,-5.4083 c -10.6777,-13.412 -19.4141,-25.2221 -19.4141,-26.2445 0,-2.856 38.6497,-50.832 40.5905,-50.3852 1.5071,0.347 33.654,39.8845 38.7388,47.6448 2.2262,3.3977 4.7571,-0.354 -27.4291,40.6598 -5.4861,6.9908 -10.6716,12.7105 -11.5234,12.7105 -0.8517,0 -10.2849,-10.9735 -20.9627,-24.3854 z m 105.6299,3.2176 c -0.7117,-1.3298 -1.294,-4.8736 -1.294,-7.875 0,-3.0015 -0.5869,-6.0441 -1.3042,-6.7614 -1.7755,-1.7755 2.4801,-9.1774 5.2825,-9.1879 1.1568,0 2.4517,1.0899 2.8775,2.4317 0.6278,1.9778 2.1201,2.5101 7.8846,2.8125 5.1302,0.269 7.2043,0.8951 7.4477,2.2479 0.4405,2.4484 -14.7765,18.75 -17.5025,18.75 -1.1537,0 -2.6799,-1.088 -3.3916,-2.4178 z m 9.9766,-13.0616 c -1.6706,-1.6706 -5.6877,2.1388 -4.4194,4.1909 0.6429,1.0403 1.5783,0.8347 3.3024,-0.7255 1.6515,-1.4946 2.0016,-2.5808 1.117,-3.4654 z m -8.498,-35.5626 c -9.7984,-11.774 -12.7726,-15.9378 -12.7726,-17.881 0,-2.3038 17.7488,-24.202 19.6161,-24.202 1.2561,0 20.3742,22.8722 20.3742,24.375 0,1.003 -18.8397,24.3362 -19.9894,24.7572 -0.5741,0.2101 -3.8268,-2.962 -7.2283,-7.0492 z m -436.25,-540 c -9.7984,-11.774 -12.7726,-15.9378 -12.7726,-17.881 0,-2.3038 17.7488,-24.202 19.6161,-24.202 1.2561,0 20.3742,22.8722 20.3742,24.375 0,1.003 -18.8397,24.3362 -19.9894,24.7572 -0.5741,0.2101 -3.8268,-2.962 -7.2283,-7.0492 z m 78.3799,-27.2157 c -10.6026,-13.4792 -19.2064,-25.2497 -19.1194,-26.1568 0.2298,-2.3972 38.3224,-50.4687 40.0425,-50.5321 1.6771,-0.062 39.2621,46.8869 40.0997,50.0898 0.6975,2.6675 -36.9187,50.9378 -39.7728,51.0377 -1.1182,0.039 -10.3225,-10.5462 -21.25,-24.4386 z m 250.2932,-0.047 c -12.5115,-15.928 -18.9827,-25.1687 -18.6137,-26.5799 0.668,-2.5544 38.1816,-50.1153 39.5284,-50.1153 1.5185,0 6.445,5.7728 24.4027,28.5947 9.3998,11.9458 16.9265,22.1673 16.7262,22.7144 -1.301,3.5524 -39.3554,49.9277 -40.9237,49.8718 -1.0673,-0.038 -10.5713,-11.0565 -21.1199,-24.4856 z m -319.5707,-35.4452 c -0.6659,-2.0982 -1.8913,-2.5 -7.6235,-2.5 -9.8771,0 -10.0671,-2.2032 -0.9868,-11.4424 4.0482,-4.1189 8.3056,-8.0096 9.461,-8.6458 3.4139,-1.88 6.0243,1.8801 6.0243,8.6775 0,3.2509 0.5869,6.4976 1.3042,7.2149 1.7755,1.7755 -2.4801,9.1774 -5.2825,9.1879 -1.1568,0 -2.4603,-1.1171 -2.8967,-2.4921 z m -0.1297,-9.4878 c 1.263,-3.2913 -0.5419,-4.6075 -3.1194,-2.2749 -1.3067,1.1826 -2.3759,2.6255 -2.3759,3.2064 0,1.904 4.7139,1.1049 5.4953,-0.9315 z m -87.5634,-110.8056 c 1.8868,-1.2007 604.7494,-1.2007 606.6362,0 0.7938,0.5051 -135.6994,0.9184 -303.3181,0.9184 -167.6187,0 -304.1119,-0.4133 -303.3181,-0.9184 z"
         id="path4100"
         inkscape:connector-curvature="0" />
      <path
         style="fill:#e85c94"
         d="m 3024.9819,2072.9637 c -0.7938,-0.5051 135.6994,-0.9184 303.3181,-0.9184 167.6187,0 304.1119,0.4133 303.3181,0.9184 -0.7937,0.5051 -137.2868,0.9183 -303.3181,0.9183 -166.0312,0 -302.5244,-0.4132 -303.3181,-0.9183 z m -8.4232,-8.5206 c -1.0958,-2.8558 -0.899,-852.1172 0.1979,-853.8409 0.5051,-0.7938 0.9184,191.4406 0.9184,427.1875 0,235.7468 -0.08,428.6306 -0.1788,428.6306 -0.098,0 -0.5202,-0.8897 -0.9375,-1.9772 z m 622.3663,-426.7728 c 0,-235.6812 0.4133,-427.8619 0.9184,-427.0681 1.2008,1.8869 1.2008,852.2493 0,854.1362 -0.5051,0.7938 -0.9184,-191.3869 -0.9184,-427.0681 z m -581.25,391.9854 c -2.0625,-0.9166 -5.1562,-3.1899 -6.875,-5.0517 l -3.125,-3.3851 0,-383.5672 0,-383.5672 3.6789,-3.84 c 2.0235,-2.112 5.6797,-4.3958 8.125,-5.0751 6.1027,-1.6954 531.5395,-1.6954 537.6422,0 2.4453,0.6793 6.1015,2.9631 8.125,5.0751 l 3.6789,3.84 0,383.5672 0,383.5672 -3.125,3.3868 c -6.7026,7.2641 11.5816,6.8188 -277.7723,6.7657 -219.3827,-0.04 -267.2669,-0.3442 -270.3527,-1.7157 z m 543.8068,-7.5536 3.0682,-3.0682 0,-381.3636 0,-381.3636 -3.0682,-3.0682 -3.0682,-3.0682 -270.1136,0 -270.1136,0 -3.0682,3.0682 -3.0682,3.0682 0,381.3636 0,381.3636 3.0682,3.0682 3.0682,3.0682 270.1136,0 270.1136,0 3.0682,-3.0682 z m -418.7962,-51.681 c -11.1023,-14.0342 -19.2708,-25.4574 -18.9919,-26.5594 0.9241,-3.6508 38.461,-49.8235 39.9807,-49.1787 2.1184,0.8988 39.0006,47.9923 39.0006,49.7984 0,1.8072 -36.8823,49.0132 -39.004,49.9216 -0.8687,0.3719 -9.7335,-9.7587 -20.9854,-23.9819 z m 269.9018,23.7665 c -2.6117,-1.7422 -39.48,-49.0623 -39.0746,-50.1518 0.837,-2.2499 37.9647,-48.7385 39.4162,-49.3542 1.5139,-0.6421 40.371,47.3538 40.371,49.8658 0,1.1174 -33.6515,44.6354 -37.9024,49.0152 -0.8099,0.8345 -2.0745,1.1158 -2.8102,0.625 z m 86.5459,-19.8506 c -0.4583,-0.4584 -0.8333,-3.2785 -0.8333,-6.267 0,-2.9885 -0.6317,-6.4451 -1.4038,-7.6814 -1.0835,-1.735 -0.9336,-3.1569 0.6571,-6.233 2.3536,-4.5512 4.4328,-5.1248 5.3845,-1.4853 0.526,2.0112 1.705,2.5 6.0308,2.5 11.5507,0 11.9835,2.4051 2.2661,12.5928 -6.5107,6.8258 -9.9701,8.7051 -12.1014,6.5739 z m 10.4167,-12.4854 c 0,-2.2992 -4.9042,-2.1353 -5.798,0.1937 -0.3957,1.0313 -0.3663,2.7953 0.065,3.9202 0.7152,1.8636 1.0043,1.8464 3.2587,-0.1938 1.3607,-1.2314 2.474,-2.9954 2.474,-3.9201 z m -12.8642,-41.1027 c -4.669,-5.8539 -8.7696,-11.3742 -9.1123,-12.2673 -0.6747,-1.7584 16.2182,-23.7088 18.6931,-24.2896 1.5821,-0.3713 19.5334,21.2054 19.5334,23.4783 0,1.9369 -17.7327,23.7524 -19.2938,23.736 -0.7321,-0.01 -5.1513,-4.8035 -9.8204,-10.6574 z m -436.25,-540 c -4.669,-5.8539 -8.7696,-11.3742 -9.1123,-12.2673 -0.6747,-1.7584 16.2181,-23.7088 18.6931,-24.2896 1.5821,-0.3713 19.5334,21.2054 19.5334,23.4783 0,1.9369 -17.7327,23.7524 -19.2938,23.736 -0.7321,-0.01 -5.1513,-4.8035 -9.8204,-10.6574 z m 95.0105,-6.5161 c -25.56,-32.1394 -32.1445,-40.7479 -32.1313,-42.0078 0.028,-2.6232 37.6164,-48.9297 39.7182,-48.9297 2.1232,0 40.6694,47.6213 40.0082,49.4276 -0.7643,2.0882 -39.0297,49.9474 -39.935,49.9474 -0.5225,0 -3.9695,-3.7969 -7.6601,-8.4375 z m 237.7765,-15.9778 c -10.6138,-13.4567 -19.4627,-24.9317 -19.6642,-25.5 -0.6454,-1.82 37.8669,-49.4597 39.9837,-49.4597 2.075,0 39.7063,46.3298 39.7395,48.9253 0.022,1.715 -37.5941,49.4455 -39.457,50.0664 -0.7173,0.2392 -9.9883,-10.5752 -20.602,-24.032 z m -319.5262,-35.453 c -0.5896,-2.2549 -1.6297,-2.6317 -7.2643,-2.6317 -4.3669,0 -7.1074,-0.6401 -8.1574,-1.9052 -1.3374,-1.6115 -0.3163,-3.1701 6.6241,-10.1105 9.8246,-9.8245 12.6022,-10.1895 13.1182,-1.7235 0.1882,3.0878 1.0029,6.9107 1.8104,8.4953 1.1853,2.3258 1.0782,3.5239 -0.5559,6.2171 -2.6275,4.3303 -4.7141,4.951 -5.5751,1.6585 z m -0.3966,-10.8484 c 0,-3.9655 -3.1878,-3.7486 -5.9406,0.4042 -1.7992,2.7142 -1.7279,2.8125 2.0381,2.8125 3.359,0 3.9025,-0.448 3.9025,-3.2167 z m -88.3181,-109.5767 c 1.8868,-1.2007 604.7494,-1.2007 606.6362,0 0.7938,0.5051 -135.6994,0.9184 -303.3181,0.9184 -167.6187,0 -304.1119,-0.4133 -303.3181,-0.9184 z"
         id="path4098"
         inkscape:connector-curvature="0" />
      <path
         style="fill:#e01b6a"
         d="m 3177.3625,2072.9828 c 83.0156,-0.1774 218.8594,-0.1774 301.875,0 83.0156,0.1775 15.0938,0.3226 -150.9375,0.3226 -166.0312,0 -233.9531,-0.1451 -150.9375,-0.3226 z m -160.9447,-435.3125 c 0,-234.0937 0.1438,-329.8594 0.3197,-212.8125 0.1758,117.0469 0.1758,308.5781 0,425.625 -0.1759,117.0469 -0.3197,21.2813 -0.3197,-212.8125 z m 623.75,0 c 0,-234.0937 0.1438,-329.8594 0.3197,-212.8125 0.1758,117.0469 0.1758,308.5781 0,425.625 -0.1759,117.0469 -0.3197,21.2813 -0.3197,-212.8125 z m -582.4928,390.7514 c -2.0625,-0.9129 -4.875,-2.9207 -6.25,-4.4618 -2.487,-2.7875 -2.5015,-4.7813 -2.7974,-384.8583 -0.2348,-301.6803 0.028,-382.6884 1.25,-385.0608 0.8511,-1.6525 3.1355,-4.1837 5.0766,-5.625 l 3.5291,-2.6205 269.8167,0 269.8167,0 3.5291,2.6205 c 1.9411,1.4413 4.224,3.9725 5.0733,5.625 2.2618,4.4012 2.2618,762.8579 0,767.259 -0.8493,1.6525 -3.1322,4.1837 -5.0732,5.625 l -3.5291,2.6205 -268.3459,0.2682 c -220.8,0.2206 -269.0103,-0.026 -272.0959,-1.3918 z m 543.9928,-5.0182 3.5072,-3.0167 0,-382.7165 0,-382.7165 -3.5072,-3.0167 -3.5072,-3.0168 -269.8606,0 -269.8606,0 -3.5072,3.0168 -3.5072,3.0167 0,382.7165 0,382.7165 3.5072,3.0167 3.5072,3.0168 269.8606,0 269.8606,0 3.5072,-3.0168 z m -418.2248,-53.5481 c -10.6526,-13.5027 -18.7702,-24.9018 -18.4998,-25.9783 0.2651,-1.055 8.8165,-12.4365 19.0032,-25.2922 14.5269,-18.3332 18.8776,-23.0784 20.1736,-22.0028 2.305,1.913 37.93,46.9615 37.93,47.9632 0,1.0075 -35.6319,46.0559 -37.9515,47.981 -1.3249,1.0996 -5.6307,-3.6263 -20.6555,-22.6709 z m 267.1692,20.6356 c -4.9982,-5.4306 -36.0622,-44.988 -36.0622,-45.9222 0,-1.0181 35.5919,-46.0462 37.9316,-47.988 1.2983,-1.0775 5.7289,3.7918 20.6111,22.6519 10.4265,13.2134 18.9573,24.6096 18.9573,25.325 0,1.0155 -33.4148,44.3389 -37.3561,48.4333 -0.5007,0.5202 -2.3375,-0.6048 -4.0817,-2.5 z m 88.9378,-22.5707 c 0,-3.3 -0.6437,-6.6437 -1.4305,-7.4305 -1.0739,-1.0739 -1.0361,-2.3824 0.1517,-5.25 1.8319,-4.4225 3.2143,-4.863 4.141,-1.3195 0.5555,2.1241 1.705,2.5 7.6458,2.5 4.9047,0 6.992,0.4852 6.992,1.6255 0,2.7139 -12.5185,15.8745 -15.1,15.8745 -2.0333,0 -2.4,-0.9167 -2.4,-6 z m 9.2777,-2.6484 c 3.799,-3.9653 3.4321,-6.3516 -0.9765,-6.3516 -3.5275,0 -5.8012,2.221 -5.8012,5.6667 0,5.3572 2.0982,5.5692 6.7777,0.6849 z m -11.7777,-45.5807 c -4.4687,-5.7013 -8.125,-11.1107 -8.125,-12.0209 0,-2.096 15.8201,-22.3723 17.5,-22.4295 1.49,-0.051 18.125,20.535 18.125,22.4295 0,1.8945 -16.635,22.4802 -18.125,22.4295 -0.6875,-0.023 -4.9062,-4.7072 -9.375,-10.4086 z m -436.25,-540 c -4.4687,-5.7013 -8.125,-11.1107 -8.125,-12.0209 0,-2.096 15.8201,-22.3723 17.5,-22.4295 1.49,-0.051 18.125,20.535 18.125,22.4295 0,1.8945 -16.635,22.4802 -18.125,22.4295 -0.6875,-0.023 -4.9062,-4.7072 -9.375,-10.4086 z m 82.6283,-22.1458 c -10.4486,-13.1768 -18.8301,-24.737 -18.6254,-25.6894 0.5915,-2.7521 36.4612,-47.8328 38.1026,-47.8869 1.4183,-0.047 39.1782,46.7663 39.1127,48.4902 -0.041,1.0866 -37.4937,48.225 -38.6852,48.69 -0.4989,0.1947 -9.456,-10.427 -19.9047,-23.6039 z m 250.4967,-0.021 c -10.3125,-13.1304 -18.679,-24.6138 -18.5923,-25.5185 0.2377,-2.4793 36.6856,-48.0947 38.3758,-48.0281 2.1473,0.084 37.7291,45.9059 37.6457,48.4792 -0.069,2.1307 -36.3275,48.9738 -37.8908,48.952 -0.4336,-0.01 -9.2259,-10.7542 -19.5384,-23.8846 z M 3114.1878,1321.42 c -0.5544,-2.1201 -1.705,-2.5 -7.572,-2.5 -3.805,0 -7.1778,-0.4219 -7.4951,-0.9375 -0.8599,-1.3977 13.811,-16.5625 16.023,-16.5625 1.43,0 1.9063,1.4259 1.9063,5.7072 0,3.1389 0.5651,6.763 1.2557,8.0535 0.8656,1.6173 0.8032,3.3397 -0.2006,5.5429 -1.7504,3.8417 -3.035,4.0701 -3.9173,0.6964 z m 0.1474,-9.2148 c 0.69,-6.0378 -1.9168,-7.0065 -6.1552,-2.2872 -4.3114,4.8005 -3.7373,6.7974 1.7998,6.2599 3.3053,-0.3208 4.0117,-0.9652 4.3554,-3.9727 z m 63.0273,-110.4727 c 83.0156,-0.1774 218.8594,-0.1774 301.875,0 83.0156,0.1775 15.0938,0.3226 -150.9375,0.3226 -166.0312,0 -233.9531,-0.1451 -150.9375,-0.3226 z"
         id="path4096"
         inkscape:connector-curvature="0" />
      <path
         style="fill:#dd0158"
         d="m 3177.3625,2072.9828 c 83.0156,-0.1774 218.8594,-0.1774 301.875,0 83.0156,0.1775 15.0938,0.3226 -150.9375,0.3226 -166.0312,0 -233.9531,-0.1451 -150.9375,-0.3226 z m -160.9447,-435.3125 c 0,-234.0937 0.1438,-329.8594 0.3197,-212.8125 0.1758,117.0469 0.1758,308.5781 0,425.625 -0.1759,117.0469 -0.3197,21.2813 -0.3197,-212.8125 z m 623.75,0 c 0,-234.0937 0.1438,-329.8594 0.3197,-212.8125 0.1758,117.0469 0.1758,308.5781 0,425.625 -0.1759,117.0469 -0.3197,21.2813 -0.3197,-212.8125 z m -445.9303,390.3126 c 73.7344,-0.1781 194.3906,-0.1781 268.125,0 73.7344,0.1781 13.4063,0.3238 -134.0625,0.3238 -147.4687,0 -207.7969,-0.1457 -134.0625,-0.3238 z m -9.8805,-59.0621 c -9.8626,-12.4455 -18.0658,-23.3026 -18.2295,-24.1269 -0.3814,-1.9218 35.0307,-46.4986 36.9389,-46.4986 1.1057,0 37.7336,44.8832 37.7336,46.2381 0,0.8182 -36.5324,46.3112 -37.4524,46.6387 -0.5822,0.2073 -9.128,-9.8058 -18.9906,-22.2513 z m 250.7586,0.4469 c -9.5923,-12.1289 -17.8564,-22.7555 -18.3646,-23.6148 -0.5834,-0.9865 5.7591,-10.0199 17.209,-24.5099 9.973,-12.6213 18.6319,-23.1173 19.2419,-23.3245 1.4156,-0.481 36.9731,44.3607 36.9731,46.6268 0,1.8816 -35.2177,46.875 -36.6904,46.875 -0.5106,0 -8.7766,-9.9236 -18.369,-22.0526 z m 105.6844,1.4668 c 0,-1.1182 0.7329,-1.5545 1.875,-1.1162 1.0313,0.3957 1.875,1.2218 1.875,1.8357 0,0.614 -0.8437,1.1163 -1.875,1.1163 -1.0312,0 -1.875,-0.8261 -1.875,-1.8358 z m -1.5449,-10.9448 c -0.7265,-1.9738 0.1551,-4.7194 1.5153,-4.7194 1.8737,0 2.3962,3.5546 0.7263,4.9405 -1.2203,1.0128 -1.8088,0.9547 -2.2416,-0.2211 z m 14.0449,-0.2706 c 0,-1.0718 0.5625,-1.9488 1.25,-1.9488 0.6875,0 1.25,0.5293 1.25,1.1762 0,0.647 -0.5625,1.5239 -1.25,1.9488 -0.6875,0.4249 -1.25,-0.1044 -1.25,-1.1762 z m -14.4416,-39.7613 c -3.9728,-4.9844 -7.761,-9.7653 -8.4183,-10.6243 -1.1586,-1.5141 2.3433,-6.7952 12.574,-18.9627 l 3.5941,-4.2745 8.3459,10.3369 c 4.5902,5.6854 8.3459,10.787 8.3459,11.3371 0,1.0134 -15.9835,21.25 -16.7839,21.25 -0.239,0 -3.6849,-4.0781 -7.6577,-9.0625 z m -436.25,-540 c -3.9728,-4.9844 -7.761,-9.7653 -8.4183,-10.6243 -1.1586,-1.5141 2.3433,-6.7952 12.574,-18.9627 l 3.5941,-4.2745 8.3459,10.3369 c 4.5902,5.6854 8.3459,10.787 8.3459,11.3371 0,1.0134 -15.9835,21.25 -16.7839,21.25 -0.239,0 -3.6849,-4.0781 -7.6577,-9.0625 z m 82.7309,-21.9354 c -9.1868,-11.5488 -17.4321,-22.165 -18.3229,-23.5914 -1.4858,-2.3792 -0.092,-4.5207 16.872,-25.9262 10.1704,-12.8331 18.9199,-23.1701 19.4434,-22.9712 0.8339,0.3169 24.5632,29.8266 34.1315,42.4459 l 3.4759,4.5843 -18.3997,23.2283 c -10.1199,12.7755 -18.8716,23.2282 -19.4483,23.2282 -0.5767,0 -8.5651,-9.4491 -17.7519,-20.9979 z m 248.7017,-2.2129 -18.4068,-23.2108 3.4892,-4.6017 c 9.4795,-12.502 33.306,-42.1447 34.1267,-42.4573 0.5134,-0.1956 9.2542,10.1554 19.4239,23.0022 16.8712,21.3123 18.3503,23.5822 16.8902,25.9202 -3.3826,5.4164 -35.0607,44.5582 -36.0616,44.5582 -0.5802,0 -9.3379,-10.4449 -19.4616,-23.2108 z m -319.491,-38.0392 c 0,-1.375 0.5625,-2.5 1.25,-2.5 0.6875,0 1.25,1.125 1.25,2.5 0,1.375 -0.5625,2.5 -1.25,2.5 -0.6875,0 -1.25,-1.125 -1.25,-2.5 z m -13.75,-1.1762 c 0,-0.647 0.5625,-1.5239 1.25,-1.9488 0.6875,-0.4249 1.25,0.1044 1.25,1.1762 0,1.0719 -0.5625,1.9488 -1.25,1.9488 -0.6875,0 -1.25,-0.5293 -1.25,-1.1762 z m 12.679,-11.2076 c -1.2574,-0.7813 -1.3167,-1.2881 -0.2293,-1.9601 1.7153,-1.0601 3.003,-0.1217 2.368,1.7257 -0.26,0.7566 -1.1425,0.8533 -2.1387,0.2344 z m 80.7585,-58.5536 c 73.7344,-0.1781 194.3906,-0.1781 268.125,0 73.7344,0.1781 13.4063,0.3238 -134.0625,0.3238 -147.4687,0 -207.7969,-0.1457 -134.0625,-0.3238 z m -16.875,-45.0001 c 83.0156,-0.1774 218.8594,-0.1774 301.875,0 83.0156,0.1775 15.0938,0.3226 -150.9375,0.3226 -166.0312,0 -233.9531,-0.1451 -150.9375,-0.3226 z"
         id="path4094"
         inkscape:connector-curvature="0" />
      <path
         style="fill:#111111"
         d="m 3177.3625,2072.9828 c 83.0156,-0.1774 218.8594,-0.1774 301.875,0 83.0156,0.1775 15.0938,0.3226 -150.9375,0.3226 -166.0312,0 -233.9531,-0.1451 -150.9375,-0.3226 z m -160.9447,-435.3125 c 0,-234.0937 0.1438,-329.8594 0.3197,-212.8125 0.1758,117.0469 0.1758,308.5781 0,425.625 -0.1759,117.0469 -0.3197,21.2813 -0.3197,-212.8125 z m 623.75,0 c 0,-234.0937 0.1438,-329.8594 0.3197,-212.8125 0.1758,117.0469 0.1758,308.5781 0,425.625 -0.1759,117.0469 -0.3197,21.2813 -0.3197,-212.8125 z m -462.8053,-435.9375 c 83.0156,-0.1774 218.8594,-0.1774 301.875,0 83.0156,0.1775 15.0938,0.3226 -150.9375,0.3226 -166.0312,0 -233.9531,-0.1451 -150.9375,-0.3226 z"
         id="path4092"
         inkscape:connector-curvature="0" />
    </g>
  </g>
</svg>
