<?xml version="1.0" encoding="UTF-8" standalone="no"?>
<!-- Created with Inkscape (http://www.inkscape.org/) -->

<svg
   xmlns:dc="http://purl.org/dc/elements/1.1/"
   xmlns:cc="http://creativecommons.org/ns#"
   xmlns:rdf="http://www.w3.org/1999/02/22-rdf-syntax-ns#"
   xmlns:svg="http://www.w3.org/2000/svg"
   xmlns="http://www.w3.org/2000/svg"
   xmlns:sodipodi="http://sodipodi.sourceforge.net/DTD/sodipodi-0.dtd"
   xmlns:inkscape="http://www.inkscape.org/namespaces/inkscape"
   width="176.4539mm"
   height="246.27023mm"
   viewBox="0 0 625.23037 872.61106"
   id="svg2"
   version="1.1"
   inkscape:version="0.91 r13725"
   sodipodi:docname="5.svg">
  <defs
     id="defs4" />
  <sodipodi:namedview
     id="base"
     pagecolor="#ffffff"
     bordercolor="#666666"
     borderopacity="1.0"
     inkscape:pageopacity="0.0"
     inkscape:pageshadow="2"
     inkscape:zoom="0.35"
     inkscape:cx="450.78141"
     inkscape:cy="-216.46535"
     inkscape:document-units="px"
     inkscape:current-layer="layer1"
     showgrid="false"
     fit-margin-top="0"
     fit-margin-left="0"
     fit-margin-right="0"
     fit-margin-bottom="0"
     inkscape:window-width="784"
     inkscape:window-height="822"
     inkscape:window-x="800"
     inkscape:window-y="0"
     inkscape:window-maximized="0" />
  <metadata
     id="metadata7">
    <rdf:RDF>
      <cc:Work
         rdf:about="">
        <dc:format>image/svg+xml</dc:format>
        <dc:type
           rdf:resource="http://purl.org/dc/dcmitype/StillImage" />
        <dc:title></dc:title>
      </cc:Work>
    </rdf:RDF>
  </metadata>
  <g
     inkscape:label="Calque 1"
     inkscape:groupmode="layer"
     id="layer1"
     transform="translate(417.21,556.71405)">
    <g
       transform="translate(-2655.7534,-1612.3089)"
       id="g4072">
      <path
         style="fill:#fdfdfd"
         d="m 2238.657,1491.9559 0,-436.25 312.5,0 312.5,0 0,436.25 0,436.25 -312.5,0 -312.5,0 0,-436.25 z"
         id="path4088"
         inkscape:connector-curvature="0" />
      <path
         style="fill:#f8dce7"
         d="m 2244.7822,1926.6476 c -1.8959,-0.7539 -3.8487,-2.9486 -4.6875,-5.2682 -2.0668,-5.7156 -2.07,-853.1223 0,-858.8378 0.9685,-2.6784 2.7229,-4.4328 5.4013,-5.4013 5.6984,-2.0606 605.6302,-2.0606 611.3286,0 2.6784,0.9685 4.4328,2.7229 5.4013,5.4013 2.0638,5.7073 2.0638,853.1213 0,858.8286 -0.9685,2.6784 -2.7229,4.4328 -5.4013,5.4013 -5.3415,1.9315 -607.1766,1.8097 -612.0391,-0.1239 z m 609.3032,-3.5795 c 1.6752,-0.7633 3.6705,-2.7586 4.4338,-4.4339 1.0084,-2.2131 1.3878,-118.869 1.3878,-426.6783 0,-307.8093 -0.3794,-424.4652 -1.3878,-426.6783 -0.7633,-1.6753 -2.7586,-3.6705 -4.4338,-4.4339 -4.3419,-1.9782 -601.5149,-1.9782 -605.8567,0 -1.6753,0.7634 -3.6705,2.7586 -4.4339,4.4339 -1.9852,4.357 -1.9804,849.01 0,853.3671 0.7659,1.681 2.5941,3.6382 4.0625,4.3492 3.9091,1.8928 602.0711,1.966 606.2233,0.074 z m -575.4029,-37.6747 c -3.0273,-1.5469 -6.6621,-4.4006 -8.0773,-6.3417 l -2.5732,-3.5291 0,-383.5667 0,-383.5667 2.5732,-3.5291 c 1.4152,-1.9411 5.05,-4.7948 8.0773,-6.3417 l 5.5042,-2.8125 266.9703,0 266.9703,0 5.5042,2.8125 c 3.0273,1.5469 6.6621,4.4006 8.0773,6.3417 l 2.5732,3.5291 0,383.5667 0,383.5667 -2.5732,3.5291 c -1.4152,1.9411 -5.05,4.7948 -8.0773,6.3417 l -5.5042,2.8125 -266.9703,0 -266.9703,0 -5.5042,-2.8125 z m 543.9386,-10.5062 c 2.205,-1.9956 2.2859,-15.5386 2.2859,-382.7141 0,-352.4404 -0.1533,-380.8147 -2.0687,-382.9313 -1.992,-2.2011 -12.0658,-2.2859 -271.4641,-2.2859 -248.9211,0 -269.5691,0.1572 -271.6813,2.0687 -2.205,1.9956 -2.2859,15.5386 -2.2859,382.7141 0,352.4404 0.1533,380.8147 2.0687,382.9313 1.992,2.2011 12.0658,2.2859 271.4641,2.2859 248.9211,0 269.5691,-0.1572 271.6813,-2.0687 z m -418.7648,-48.4575 c -11.1096,-14.0394 -20.1993,-26.4698 -20.1993,-27.6232 0,-3.4652 40.1308,-53.272 42.5783,-52.8445 2.9523,0.5156 42.6849,51.1024 42.0486,53.5356 -0.9426,3.6046 -40.229,52.3398 -42.2401,52.3994 -1.1309,0.034 -10.6984,-10.9483 -22.1875,-25.4673 z m 250.5489,0.217 c -10.9322,-13.8839 -20.1037,-26.1111 -20.381,-27.1717 -0.6293,-2.4065 39.1232,-53.0009 42.0447,-53.5117 2.4273,-0.4244 42.5881,49.43 42.5881,52.8676 0,3.0103 -40.0147,53.1314 -42.3867,53.0921 -1.0936,-0.018 -10.9328,-11.3924 -21.8651,-25.2763 z m 105.0851,4.4759 c -1.5615,-1.5616 -0.8392,-6.7429 1.0406,-7.4643 1.5346,-0.5888 1.3082,-1.3914 -1.25,-4.4316 -4.1318,-4.9104 -3.968,-9.119 0.53,-13.6169 3.2836,-3.2837 4.4712,-3.6539 11.7219,-3.6539 8.7291,0 11.6824,1.7343 10.3111,6.055 -0.8637,2.7211 -3.9558,3.8345 -11.3119,4.0729 -5.4245,0.1759 -4.4444,0.5437 4.6209,1.7343 5.7747,0.7584 5.8837,0.8569 6.6542,6.0169 0.4308,2.8852 0.1934,6.7928 -0.5275,8.6834 -1.2763,3.3472 -1.5688,3.4375 -11.1333,3.4375 -5.4025,0 -10.1976,-0.375 -10.656,-0.8333 z m 8.3413,-42.6543 c -2.7401,-1.6935 -20.4149,-24.6475 -20.4149,-26.5124 0,-1.9708 17.8192,-24.9766 20.5427,-26.522 0.8694,-0.4933 2.475,-0.212 3.568,0.625 3.8858,2.9758 19.6296,23.7464 19.6296,25.897 0,2.2704 -15.9903,23.2294 -19.7503,25.8874 -1.1767,0.8318 -2.7855,1.113 -3.5751,0.625 z m -238.9753,-269.5386 c -11.1096,-14.0394 -20.1993,-26.1776 -20.1993,-26.9738 0,-2.8946 40.3427,-52.5 42.6968,-52.5 2.7041,0 42.3032,49.1607 42.3032,52.5178 0,3.3752 -39.5671,52.4822 -42.2866,52.4822 -1.5182,0 -9.2666,-8.785 -22.5141,-25.5262 z m -197.2747,-270.4614 c -2.7401,-1.6935 -20.4149,-24.6474 -20.4149,-26.5124 0,-1.9708 17.8192,-24.9766 20.5427,-26.522 0.8694,-0.4933 2.475,-0.212 3.568,0.625 3.8858,2.9758 19.6296,23.7464 19.6296,25.897 0,2.2704 -15.9903,23.2294 -19.7503,25.8874 -1.1767,0.8318 -2.7855,1.113 -3.5751,0.625 z m 72.2494,-34.2583 c -11.0753,-13.9585 -20.1453,-26.3772 -20.1555,-27.5971 -0.01,-1.2199 8.5121,-13.0324 18.9384,-26.25 18.6144,-23.5978 21.7342,-27.157 23.8049,-27.157 1.4706,0 42.2382,51.552 42.2382,53.4116 0,2.5592 -40.0671,52.1846 -42.4627,52.5925 -1.5982,0.2721 -7.9069,-6.7805 -22.3633,-25 z m 250.1385,-0.4184 c -11.1719,-14.1047 -20.3125,-26.3353 -20.3125,-27.1791 0,-1.8093 40.7578,-53.4155 42.1646,-53.3875 2.0242,0.04 4.2392,2.5672 23.2551,26.529 10.7692,13.5702 19.572,25.664 19.5618,26.875 -0.027,3.1964 -39.7498,52.8289 -42.2718,52.8173 -1.2124,-0.01 -10.5838,-10.74 -22.3972,-25.6547 z m -332.7627,-33.6507 c -3.2571,-3.9246 -1.065,-6.2869 6.2119,-6.6941 9.3453,-0.523 11.2577,-2.7409 2.3633,-2.7409 -3.7812,0 -7.55,-0.675 -8.375,-1.5 -2.1221,-2.1221 -1.9291,-14.0878 0.2565,-15.9017 1.1023,-0.9148 5.4087,-1.321 11.5625,-1.0905 9.3289,0.3493 9.827,0.5158 10.2372,3.4222 0.2482,1.7584 -0.4039,3.6656 -1.5366,4.4939 -1.7416,1.2734 -1.6115,1.7737 1.1313,4.3504 4.172,3.9194 4.1856,10.2528 0.031,14.4075 -2.6666,2.6667 -4.2006,3.0682 -11.7219,3.0682 -6.0401,0 -9.1087,-0.5482 -10.1601,-1.815 z"
         id="path4086"
         inkscape:connector-curvature="0" />
      <path
         style="fill:#f2a9c6"
         d="m 2245.8602,1926.2492 c -7.802,-4.2334 -7.2032,31.869 -7.2032,-434.2933 0,-377.5517 0.2122,-425.5345 1.8962,-428.7909 4.1664,-8.057 -20.7295,-7.4591 310.6038,-7.4591 331.3333,0 306.4374,-0.5979 310.6038,7.4591 1.684,3.2564 1.8962,51.2392 1.8962,428.7909 0,377.5517 -0.2122,425.5345 -1.8962,428.7909 -4.1671,8.0585 20.7716,7.4641 -310.8542,7.4091 -264.3514,-0.044 -302.0474,-0.2795 -305.0464,-1.9067 z m 608.3564,-1.6376 c 2.0265,-1.1889 4.6572,-3.8196 5.8461,-5.8461 2.0368,-3.4718 2.1669,-28.0897 2.2529,-426.3051 0.082,-377.4378 -0.1136,-423.0313 -1.826,-426.464 -1.0546,-2.114 -3.8993,-5.0129 -6.3215,-6.4421 l -4.404,-2.5984 -298.6071,0 -298.6071,0 -4.404,2.5984 c -2.4222,1.4292 -5.2668,4.3281 -6.3214,6.4421 -1.7125,3.4327 -1.9077,49.0262 -1.8261,426.4641 0.086,398.2153 0.2161,422.8332 2.2529,426.305 1.1889,2.0265 3.8196,4.6572 5.8461,5.8461 3.4646,2.0325 21.5618,2.1616 303.0596,2.1616 281.4978,0 299.595,-0.1291 303.0596,-2.1616 z m -575.6072,-40.4682 c -3.6299,-1.8304 -6.3406,-4.3402 -7.763,-7.1875 -2.0663,-4.1364 -2.1855,-25.1303 -2.1855,-385 0,-359.8696 0.1192,-380.8636 2.1855,-385 1.4224,-2.8473 4.1331,-5.3571 7.763,-7.1875 l 5.5773,-2.8125 266.9703,0 266.9703,0 5.5773,2.8125 c 3.6299,1.8304 6.3406,4.3402 7.763,7.1875 2.0663,4.1364 2.1855,25.1304 2.1855,385 0,359.8697 -0.1191,380.8636 -2.1855,385 -1.4224,2.8473 -4.1331,5.3571 -7.763,7.1875 l -5.5773,2.8125 -266.9703,0 -266.9703,0 -5.5773,-2.8125 z m 544.6545,-8.6554 2.8931,-2.7179 0,-380.639 0,-380.6391 -2.7179,-2.893 -2.7179,-2.8931 -269.389,0 -269.3891,0 -2.893,2.7179 -2.8931,2.7179 0,380.639 0,380.6391 2.7179,2.893 2.7179,2.8931 269.389,0 269.3891,0 2.893,-2.7179 z m -418.6694,-49.8155 c -10.8281,-13.7335 -19.6875,-25.8187 -19.6875,-26.856 0,-2.3013 38.4207,-51.0822 40.6528,-51.6149 1.5942,-0.3805 41.8365,49.2815 41.8365,51.6293 0,2.0474 -40.0114,51.8778 -41.6277,51.8432 -0.8176,-0.017 -10.346,-11.2682 -21.1741,-25.0017 z m 250.3937,-0.2791 c -11.0387,-13.9219 -20.0705,-25.875 -20.0705,-26.5625 0,-2.3477 40.2423,-52.0098 41.8365,-51.6293 2.2318,0.5326 40.6528,49.3135 40.6528,51.6144 0,2.4276 -38.892,51.7651 -40.8616,51.8362 -0.8177,0.03 -10.5184,-11.3369 -21.5572,-25.2588 z m 105.3938,3.4974 c -1.1972,-3.1198 0.7225,-4.4349 6.4738,-4.4349 3.0532,0 5.5512,-0.5625 5.5512,-1.25 0,-0.6875 -1.9943,-1.25 -4.4318,-1.25 -5.3791,0 -10.5682,-4.6033 -10.5682,-9.375 0,-1.7812 1.3807,-4.6193 3.0682,-6.3068 2.5669,-2.5669 4.2778,-3.0682 10.4719,-3.0682 5.1466,0 7.8916,0.5878 9.0039,1.928 2.3874,2.8766 -0.203,4.7624 -7.6105,5.5402 -8.0918,0.8497 -8.0353,2.9702 0.1019,3.8232 7.0127,0.7352 8.6665,2.3126 8.6955,8.2939 0.036,7.4293 -0.6252,7.9147 -10.7789,7.9147 -6.9602,0 -9.4546,-0.4538 -9.977,-1.8151 z m -2.3102,-53.6402 c -5.1781,-6.438 -9.4148,-12.4206 -9.4148,-13.2947 0,-2.7662 18.6978,-25.0032 20.9773,-24.948 2.7168,0.066 19.6477,21.5641 19.6477,24.948 0,3.3839 -16.9309,24.8823 -19.6477,24.948 -1.2424,0.03 -6.1164,-4.8822 -11.5625,-11.6533 z M 2529.907,1518.6107 c -10.6562,-13.5341 -19.5497,-25.3121 -19.7632,-26.1733 -0.6408,-2.5846 38.5159,-51.1065 41.2424,-51.1065 2.6392,0 41.0068,47.3667 41.0068,50.625 0,2.8488 -38.2823,50.5788 -40.8598,50.9436 -1.6026,0.2268 -7.8336,-6.7714 -21.6262,-24.2888 z m -208.0852,-283.3601 c -5.1781,-6.438 -9.4148,-12.4206 -9.4148,-13.2947 0,-2.7662 18.6978,-25.0032 20.9773,-24.948 2.7168,0.066 19.6477,21.5641 19.6477,24.948 0,3.3839 -16.9309,24.8823 -19.6477,24.948 -1.2424,0.03 -6.1164,-4.8822 -11.5625,-11.6533 z m 82.7724,-21.9252 c -10.8279,-13.6843 -19.6872,-25.7126 -19.6872,-26.7296 0,-1.017 7.9312,-11.8989 17.6248,-24.182 18.8863,-23.9314 22.3017,-27.9579 23.7147,-27.9579 1.1592,0 40.4167,49.658 40.895,51.7295 0.467,2.0222 -39.2113,52.0205 -41.2831,52.0205 -0.8673,0 -10.4362,-11.1962 -21.2642,-24.8805 z m 250.3166,-0.2694 c -11.0538,-13.9226 -19.936,-26.0143 -19.7383,-26.8706 0.4783,-2.0715 39.7358,-51.7295 40.8951,-51.7295 1.4212,0 4.8809,4.0854 23.7163,28.0058 9.6927,12.3094 17.6231,23.1858 17.6231,24.1698 0,2.3499 -38.3866,50.8319 -40.6525,51.3438 -1.0224,0.2309 -10.0736,-10.0947 -21.8437,-24.9193 z m -333.2788,-34.1652 c -1.2101,-3.1536 0.7411,-4.4343 6.7863,-4.454 3.225,-0.01 6.6389,-0.5102 7.5863,-1.1103 3.0972,-1.9617 0.1291,-3.8706 -6.0183,-3.8706 -7.5168,0 -9.089,-1.7555 -8.5893,-9.5904 l 0.385,-6.0346 10,0 c 9.4187,0 10.0232,0.1635 10.3994,2.8125 0.3692,2.5993 -0.081,2.8125 -5.9375,2.8125 -7.5897,0 -8.4118,1.8925 -1.2399,2.8545 6.5423,0.8775 9.903,3.9305 9.903,8.9963 0,6.6193 -4.1946,9.3992 -14.1823,9.3992 -6.1871,0 -8.5794,-0.4776 -9.0927,-1.8151 z"
         id="path4084"
         inkscape:connector-curvature="0" />
      <path
         style="fill:#ef8fb5"
         d="m 2247.8389,1927.2493 c -0.7938,-0.5051 135.6994,-0.9184 303.3181,-0.9184 167.6187,0 304.1119,0.4133 303.3181,0.9184 -0.7937,0.5051 -137.2868,0.9183 -303.3181,0.9183 -166.0312,0 -302.5244,-0.4132 -303.3181,-0.9183 z m -8.4232,-8.5206 c -1.0958,-2.8558 -0.899,-852.1172 0.1979,-853.8409 0.5051,-0.7938 0.9184,191.4406 0.9184,427.1875 0,235.7468 -0.08,428.6306 -0.1788,428.6306 -0.098,0 -0.5202,-0.8898 -0.9375,-1.9772 z m 622.3663,-426.7728 c 0,-235.6812 0.4133,-427.8619 0.9184,-427.0681 1.2008,1.8869 1.2008,852.2493 0,854.1362 -0.5051,0.7938 -0.9184,-191.3869 -0.9184,-427.0681 z m -583.9166,391.3524 c -2.1541,-1.3135 -4.826,-3.6866 -5.9375,-5.2734 -1.8505,-2.642 -2.0209,-35.1991 -2.0209,-386.1886 l 0,-383.3033 2.6104,-3.3185 c 5.9356,-7.5459 -14.9992,-7.0186 278.6396,-7.0186 293.6388,0 272.704,-0.5273 278.6396,7.0186 l 2.6104,3.3185 0,383.4129 0,383.4128 -2.6104,3.3186 c -5.9358,7.5462 15.0246,7.019 -278.89,7.0139 -262.722,0 -269.2178,-0.062 -273.0412,-2.3929 z m 546.0694,-7.3246 2.8472,-2.8472 0,-381.1806 0,-381.1806 -2.8472,-2.8472 -2.8472,-2.8472 -269.9306,0 -269.9306,0 -2.8472,2.8472 -2.8472,2.8472 -0.2974,379.6528 c -0.2374,302.9488 0.02,380.2792 1.2746,382.7532 0.8646,1.7052 2.9672,3.8084 4.6724,4.6737 2.4687,1.2529 57.7891,1.5126 271.5032,1.2747 l 268.4029,-0.2988 2.8471,-2.8472 z m -414.6528,-45.5049 c -26.2506,-33.2037 -24.7455,-30.8962 -22.4432,-34.41 5.0302,-7.677 37.2156,-47.2799 38.7037,-47.6233 0.9257,-0.2137 10.4227,10.6084 21.3071,24.2799 17.1134,21.4955 19.4954,25.0312 18.5347,27.5118 -1.6594,4.2849 -37.7722,49.219 -39.5547,49.2167 -0.8512,0 -8.2976,-8.5399 -16.5476,-18.9751 z m 246.2891,-5.4083 c -10.6777,-13.412 -19.4141,-25.2221 -19.4141,-26.2445 0,-2.856 38.6497,-50.832 40.5905,-50.3852 1.5071,0.347 33.654,39.8844 38.7388,47.6448 2.2262,3.3977 4.7571,-0.354 -27.4291,40.6598 -5.4861,6.9908 -10.6716,12.7105 -11.5234,12.7105 -0.8517,0 -10.2849,-10.9734 -20.9627,-24.3854 z m 105.6583,3.8476 c -1.9731,-2.3774 1.7996,-4.4622 8.0746,-4.4622 6.2521,0 5.0902,-2.9966 -1.3686,-3.5298 -6.2206,-0.5135 -9.2784,-3.2638 -9.2784,-8.3452 0,-6.1618 3.1418,-8.125 13.0026,-8.125 7.354,0 8.3777,0.2794 8.0157,2.1875 -0.3168,1.67 -2.0389,2.3354 -7.2791,2.8125 -5.8225,0.5302 -6.8642,1.0044 -6.8642,3.125 0,2.1212 1.0417,2.5947 6.875,3.125 l 6.875,0.625 0.3888,6.1291 c 0.2574,4.0569 -0.1652,6.4804 -1.25,7.1683 -2.8214,1.7893 -15.5536,1.2633 -17.1914,-0.7102 z m 1.4502,-49.2542 c -9.7984,-11.774 -12.7726,-15.9378 -12.7726,-17.881 0,-2.3038 17.7488,-24.202 19.6161,-24.202 1.2561,0 20.3742,22.8722 20.3742,24.375 0,1.003 -18.8397,24.3362 -19.9894,24.7571 -0.5741,0.2102 -3.8268,-2.9619 -7.2283,-7.0491 z m -231.6057,-260.7932 c -10.6105,-13.4148 -19.4365,-25.3804 -19.6133,-26.5902 -0.3684,-2.5215 37.5766,-50.9496 39.9207,-50.9496 1.3703,0 41.0257,48.934 41.0257,50.625 0,1.2716 -39.3256,50.41 -40.7081,50.8658 -0.7331,0.2418 -10.0144,-10.5362 -20.625,-23.951 z m -204.6443,-279.2068 c -9.7984,-11.774 -12.7726,-15.9378 -12.7726,-17.881 0,-2.3038 17.7488,-24.202 19.6161,-24.202 1.2561,0 20.3742,22.8722 20.3742,24.375 0,1.003 -18.8397,24.3362 -19.9894,24.7571 -0.5741,0.2102 -3.8268,-2.9619 -7.2283,-7.0491 z m 78.3799,-27.2157 c -10.6026,-13.4792 -19.2064,-25.2498 -19.1194,-26.1568 0.2298,-2.3973 38.3224,-50.4687 40.0425,-50.5321 1.6771,-0.062 39.2621,46.8869 40.0997,50.0898 0.6975,2.6675 -36.9187,50.9378 -39.7728,51.0377 -1.1182,0.039 -10.3225,-10.5462 -21.25,-24.4386 z m 250.2932,-0.047 c -12.5115,-15.928 -18.9827,-25.1687 -18.6137,-26.5799 0.668,-2.5544 38.1816,-50.1153 39.5284,-50.1153 1.5185,0 6.445,5.7728 24.4027,28.5947 9.3998,11.9458 16.9265,22.1673 16.7262,22.7144 -1.301,3.5524 -39.3554,49.9277 -40.9237,49.8718 -1.0673,-0.038 -10.5713,-11.0565 -21.1199,-24.4856 z M 2322.64,1177.2684 c 0.3284,-1.7256 1.9316,-2.2667 7.5916,-2.5624 6.0029,-0.3136 7.1754,-0.7513 7.1754,-2.6787 0,-2.8611 -2.3815,-3.8214 -9.4772,-3.8214 l -5.5228,0 0,-6.7413 c 0,-7.7829 0.6092,-8.2587 10.5742,-8.2587 4.5015,0 7.1429,0.6305 8.2549,1.9703 2.2551,2.7172 -0.3345,4.2356 -7.2666,4.2606 -3.8804,0.014 -5.3125,0.5246 -5.3125,1.8941 0,1.3843 1.4483,1.875 5.5343,1.875 4.5271,0 6.0186,0.6157 8.1956,3.3834 2.9678,3.7729 2.575,8.6403 -0.9122,11.3041 -1.1789,0.9005 -5.6903,1.5625 -10.6483,1.5625 -7.5183,0 -8.5502,-0.2757 -8.1864,-2.1875 z m -74.8011,-120.6059 c 1.8868,-1.2007 604.7494,-1.2007 606.6362,0 0.7938,0.5051 -135.6994,0.9184 -303.3181,0.9184 -167.6187,0 -304.1119,-0.4133 -303.3181,-0.9184 z"
         id="path4082"
         inkscape:connector-curvature="0" />
      <path
         style="fill:#e85c94"
         d="m 2247.8389,1927.2493 c -0.7938,-0.5051 135.6994,-0.9184 303.3181,-0.9184 167.6187,0 304.1119,0.4133 303.3181,0.9184 -0.7937,0.5051 -137.2868,0.9183 -303.3181,0.9183 -166.0312,0 -302.5244,-0.4132 -303.3181,-0.9183 z m -8.4232,-8.5206 c -1.0958,-2.8558 -0.899,-852.1172 0.1979,-853.8409 0.5051,-0.7938 0.9184,191.4406 0.9184,427.1875 0,235.7468 -0.08,428.6306 -0.1788,428.6306 -0.098,0 -0.5202,-0.8898 -0.9375,-1.9772 z m 622.3663,-426.7728 c 0,-235.6812 0.4133,-427.8619 0.9184,-427.0681 1.2008,1.8869 1.2008,852.2493 0,854.1362 -0.5051,0.7938 -0.9184,-191.3869 -0.9184,-427.0681 z m -581.25,391.9854 c -2.0625,-0.9166 -5.1562,-3.1899 -6.875,-5.0517 l -3.125,-3.3851 0,-383.5672 0,-383.5672 3.6789,-3.84 c 2.0235,-2.112 5.6797,-4.3958 8.125,-5.0751 6.1027,-1.6954 531.5395,-1.6954 537.6422,0 2.4453,0.6793 6.1015,2.9631 8.125,5.0751 l 3.6789,3.84 0,383.5672 0,383.5672 -3.125,3.3868 c -6.7026,7.2641 11.5816,6.8188 -277.7723,6.7657 -219.3827,-0.04 -267.2669,-0.3442 -270.3527,-1.7157 z m 543.8068,-7.5536 3.0682,-3.0682 0,-381.3636 0,-381.3636 -3.0682,-3.0682 -3.0682,-3.0682 -270.1136,0 -270.1136,0 -3.0682,3.0682 -3.0682,3.0682 0,381.3636 0,381.3636 3.0682,3.0682 3.0682,3.0682 270.1136,0 270.1136,0 3.0682,-3.0682 z m -418.7962,-51.681 c -11.1023,-14.0342 -19.2708,-25.4575 -18.9919,-26.5594 0.9241,-3.6508 38.461,-49.8235 39.9807,-49.1787 2.1184,0.8988 39.0006,47.9923 39.0006,49.7984 0,1.8072 -36.8823,49.0132 -39.004,49.9216 -0.8687,0.3719 -9.7335,-9.7587 -20.9854,-23.9819 z m 269.9018,23.7665 c -2.6117,-1.7422 -39.48,-49.0623 -39.0746,-50.1518 0.837,-2.2499 37.9647,-48.7384 39.4162,-49.3542 1.5139,-0.6421 40.371,47.3538 40.371,49.8658 0,1.1174 -33.6515,44.6354 -37.9024,49.0152 -0.8099,0.8345 -2.0745,1.1158 -2.8102,0.625 z m 86.0179,-20.5798 c 0.2825,-0.8594 3.2825,-1.8437 6.6666,-2.1875 4.3583,-0.4427 6.1531,-1.1719 6.1531,-2.5 0,-1.3145 -1.8213,-2.0842 -6.0929,-2.5747 -6.5799,-0.7556 -9.5321,-3.3229 -9.5321,-8.2892 0,-5.2493 4.1548,-7.8861 12.4262,-7.8861 11.7112,0 11.2112,4.4882 -0.5829,5.2326 -5.2541,0.3316 -6.2183,0.78 -6.2183,2.8924 0,2.1022 1.0555,2.606 6.6337,3.1664 6.8958,0.6928 8.9386,2.2966 8.9722,7.0439 0.042,5.9811 -1.0059,6.6647 -10.2188,6.6647 -6.4169,0 -8.5848,-0.4127 -8.2068,-1.5625 z m -1.9195,-52.8589 c -4.669,-5.8539 -8.7696,-11.3742 -9.1123,-12.2673 -0.6747,-1.7584 16.2182,-23.7088 18.6931,-24.2896 1.5821,-0.3713 19.5334,21.2054 19.5334,23.4783 0,1.9369 -17.7327,23.7524 -19.2938,23.736 -0.7321,-0.01 -5.1513,-4.8035 -9.8204,-10.6574 z m -228.4963,-257.1411 c -10.5297,-13.2344 -19.1449,-24.9062 -19.1449,-25.9375 0,-1.9548 37.6326,-50 39.1637,-50 1.3922,0 6.0612,5.4821 23.6261,27.7402 9.0561,11.4759 16.4656,21.481 16.4656,22.2336 0,0.7526 -7.3951,10.7695 -16.4336,22.2598 -17.2858,21.9747 -22.2206,27.7664 -23.6581,27.7664 -0.4806,0 -9.4891,-10.8281 -20.0188,-24.0625 z m -207.7537,-282.8589 c -4.669,-5.8539 -8.7696,-11.3742 -9.1123,-12.2673 -0.6747,-1.7584 16.2181,-23.7088 18.6931,-24.2896 1.5821,-0.3713 19.5334,21.2054 19.5334,23.4783 0,1.9369 -17.7327,23.7524 -19.2938,23.736 -0.7321,-0.01 -5.1513,-4.8035 -9.8204,-10.6574 z m 95.0105,-6.5161 c -25.56,-32.1394 -32.1445,-40.7479 -32.1313,-42.0078 0.028,-2.6232 37.6164,-48.9297 39.7182,-48.9297 2.1232,0 40.6694,47.6213 40.0082,49.4276 -0.7643,2.0882 -39.0297,49.9474 -39.935,49.9474 -0.5225,0 -3.9695,-3.7969 -7.6601,-8.4375 z m 237.7765,-15.9778 c -10.6138,-13.4567 -19.4627,-24.9317 -19.6642,-25.5 -0.6454,-1.82 37.8669,-49.4597 39.9837,-49.4597 2.075,0 39.7063,46.3298 39.7395,48.9253 0.022,1.715 -37.5941,49.4455 -39.457,50.0664 -0.7173,0.2391 -9.9883,-10.5753 -20.602,-24.032 z m -332.8055,-33.884 c -1.7707,-1.7707 0.8501,-2.9507 6.5534,-2.9507 6.3354,0 9.6875,-2.2106 8.408,-5.5448 -0.4776,-1.2447 -3.0112,-1.9467 -7.9523,-2.2034 l -7.2514,-0.3768 0,-6.25 0,-6.25 9.0625,-0.3673 c 7.4951,-0.3037 9.0625,-0.034 9.0625,1.5625 0,1.434 -1.3649,1.9347 -5.3125,1.9489 -9.7949,0.035 -11.4064,4.0859 -2.121,5.3313 6.3307,0.8491 9.9335,3.9402 9.9335,8.5225 0,4.9818 -4.0812,7.3771 -12.5698,7.3771 -3.8574,0 -7.3732,-0.3597 -7.8129,-0.7993 z m -75.4354,-121.9941 c 1.8868,-1.2007 604.7494,-1.2007 606.6362,0 0.7938,0.5051 -135.6994,0.9184 -303.3181,0.9184 -167.6187,0 -304.1119,-0.4133 -303.3181,-0.9184 z"
         id="path4080"
         inkscape:connector-curvature="0" />
      <path
         style="fill:#e01b6a"
         d="m 2400.2195,1927.2685 c 83.0156,-0.1775 218.8594,-0.1775 301.875,0 83.0156,0.1774 15.0938,0.3225 -150.9375,0.3225 -166.0312,0 -233.9531,-0.1451 -150.9375,-0.3225 z m -160.9447,-435.3126 c 0,-234.0937 0.1438,-329.8594 0.3197,-212.8125 0.1758,117.0469 0.1758,308.5781 0,425.625 -0.1759,117.0469 -0.3197,21.2813 -0.3197,-212.8125 z m 623.75,0 c 0,-234.0937 0.1438,-329.8594 0.3197,-212.8125 0.1758,117.0469 0.1758,308.5781 0,425.625 -0.1759,117.0469 -0.3197,21.2813 -0.3197,-212.8125 z m -582.4928,390.7514 c -2.0625,-0.9129 -4.875,-2.9207 -6.25,-4.4618 -2.487,-2.7875 -2.5015,-4.7813 -2.7974,-384.8583 -0.2348,-301.6803 0.028,-382.6884 1.25,-385.0608 0.8511,-1.6525 3.1355,-4.1837 5.0766,-5.625 l 3.5291,-2.6205 269.8167,0 269.8167,0 3.5291,2.6205 c 1.9411,1.4413 4.224,3.9725 5.0733,5.625 2.2618,4.4012 2.2618,762.8579 0,767.259 -0.8493,1.6525 -3.1322,4.1837 -5.0732,5.625 l -3.5291,2.6205 -268.3459,0.2681 c -220.8,0.2207 -269.0103,-0.026 -272.0959,-1.3917 z m 543.9928,-5.0182 3.5072,-3.0167 0,-382.7165 0,-382.7165 -3.5072,-3.0167 -3.5072,-3.0168 -269.8606,0 -269.8606,0 -3.5072,3.0168 -3.5072,3.0167 0,382.7165 0,382.7165 3.5072,3.0167 3.5072,3.0168 269.8606,0 269.8606,0 3.5072,-3.0168 z M 2406.3,1824.141 c -10.6526,-13.5027 -18.7702,-24.9018 -18.4998,-25.9783 0.2651,-1.055 8.8165,-12.4365 19.0032,-25.2922 14.5269,-18.3332 18.8776,-23.0784 20.1736,-22.0028 2.305,1.913 37.93,46.9615 37.93,47.9632 0,1.0075 -35.6319,46.0559 -37.9515,47.981 -1.3249,1.0996 -5.6307,-3.6263 -20.6555,-22.6709 z m 267.1692,20.6356 c -4.9982,-5.4306 -36.0622,-44.988 -36.0622,-45.9222 0,-1.0182 35.5919,-46.0462 37.9316,-47.988 1.2983,-1.0775 5.7289,3.7918 20.6111,22.6518 10.4265,13.2135 18.9573,24.6097 18.9573,25.3251 0,1.0155 -33.4148,44.3388 -37.3561,48.4333 -0.5007,0.5202 -2.3375,-0.6048 -4.0817,-2.5 z m 94.1507,-17.4516 c 10.244,-0.8738 11.2021,-7.8691 1.0778,-7.8691 -7.6913,0 -11.6188,-7.0531 -6.5048,-11.6813 2.5615,-2.318 17.2345,-3.0765 15.8391,-0.8187 -0.4249,0.6875 -3.483,1.25 -6.7957,1.25 -11.9659,0 -11.9241,7.6411 0.048,8.75 l 6.7478,0.625 0,5 0,5 -8.125,0.121 c -5.4316,0.081 -6.1897,-0.044 -2.287,-0.3769 z m -7.7129,-53.3482 c -4.4687,-5.7013 -8.125,-11.1107 -8.125,-12.0209 0,-2.096 15.8201,-22.3724 17.5,-22.4295 1.49,-0.051 18.125,20.535 18.125,22.4295 0,1.8945 -16.635,22.4802 -18.125,22.4295 -0.6875,-0.023 -4.9062,-4.7073 -9.375,-10.4086 z m -228.0006,-256.5554 c -10.1476,-12.8065 -18.7024,-23.9416 -19.0106,-24.7446 -0.5585,-1.4556 35.8853,-48.4706 38.1598,-49.2288 1.6841,-0.5613 38.2264,45.8096 38.2264,48.5079 0,2.2957 -36.1296,48.75 -37.915,48.75 -0.5557,0 -9.3129,-10.478 -19.4606,-23.2845 z M 2323.657,1233.9768 c -4.4687,-5.7013 -8.125,-11.1107 -8.125,-12.0209 0,-2.096 15.8201,-22.3724 17.5,-22.4295 1.49,-0.051 18.125,20.535 18.125,22.4295 0,1.8945 -16.635,22.4802 -18.125,22.4295 -0.6875,-0.023 -4.9062,-4.7072 -9.375,-10.4086 z m 82.6283,-22.1458 c -10.4486,-13.1768 -18.8301,-24.737 -18.6254,-25.6894 0.5915,-2.7521 36.4612,-47.8328 38.1026,-47.8869 1.4183,-0.047 39.1782,46.7663 39.1127,48.4901 -0.041,1.0867 -37.4937,48.2251 -38.6852,48.6901 -0.4989,0.1947 -9.456,-10.427 -19.9047,-23.6039 z m 250.4967,-0.021 c -10.3125,-13.1304 -18.679,-24.6138 -18.5923,-25.5185 0.2377,-2.4793 36.6856,-48.0947 38.3758,-48.0281 2.1473,0.084 37.7291,45.9059 37.6457,48.4791 -0.069,2.1308 -36.3275,48.974 -37.8908,48.952 -0.4336,-0.01 -9.2259,-10.7541 -19.5384,-23.8845 z m -329.375,-34.4242 c 10.2924,-1.5789 11.147,-1.8863 11.9078,-4.2836 1.3252,-4.1754 -1.5405,-6.1466 -8.9359,-6.1466 l -6.7219,0 0,-5.625 0,-5.625 8.4375,0.167 c 8.1627,0.1616 8.2443,0.194 2.5057,0.9943 -6.7201,0.9373 -8.8859,2.4805 -7.7254,5.5047 0.5455,1.4216 2.2581,2.084 5.3878,2.084 6.0557,0 10.1444,2.9507 10.1444,7.3209 0,5.1804 -2.14,6.4485 -10.5625,6.2589 -4.1594,-0.094 -6.1562,-0.386 -4.4375,-0.6496 z m 72.8125,-121.3677 c 83.0156,-0.1774 218.8594,-0.1774 301.875,0 83.0156,0.1775 15.0938,0.3226 -150.9375,0.3226 -166.0312,0 -233.9531,-0.1451 -150.9375,-0.3226 z"
         id="path4078"
         inkscape:connector-curvature="0" />
      <path
         style="fill:#dd0058"
         d="m 2400.2195,1927.2685 c 83.0156,-0.1775 218.8594,-0.1775 301.875,0 83.0156,0.1774 15.0938,0.3225 -150.9375,0.3225 -166.0312,0 -233.9531,-0.1451 -150.9375,-0.3225 z m -160.9447,-435.3126 c 0,-234.0937 0.1438,-329.8594 0.3197,-212.8125 0.1758,117.0469 0.1758,308.5781 0,425.625 -0.1759,117.0469 -0.3197,21.2813 -0.3197,-212.8125 z m 623.75,0 c 0,-234.0937 0.1438,-329.8594 0.3197,-212.8125 0.1758,117.0469 0.1758,308.5781 0,425.625 -0.1759,117.0469 -0.3197,21.2813 -0.3197,-212.8125 z m -445.9303,390.3126 c 73.7344,-0.1781 194.3906,-0.1781 268.125,0 73.7344,0.1781 13.4063,0.3238 -134.0625,0.3238 -147.4687,0 -207.7969,-0.1457 -134.0625,-0.3238 z m -10.2863,-59.6334 c -10.0951,-12.7566 -18.1683,-23.7206 -17.9404,-24.3646 0.9631,-2.7221 36.372,-46.4099 37.3368,-46.0664 2.4766,0.8816 37.3525,46.403 36.5518,47.7088 -2.1239,3.4636 -35.6349,45.2068 -36.5606,45.542 -0.5681,0.2057 -9.2925,-10.0632 -19.3876,-22.8198 z m 251.2185,1.0051 c -9.6221,-12.1361 -17.9087,-22.7596 -18.4147,-23.6078 -0.5755,-0.9645 5.8892,-10.1401 17.2593,-24.4968 9.9987,-12.6251 18.6521,-23.123 19.2297,-23.3287 1.0417,-0.371 37.556,44.9597 37.556,46.624 0,1.2765 -36.2571,46.875 -37.272,46.875 -0.475,0 -8.7362,-9.9295 -18.3583,-22.0657 z m 104.3195,-48.6611 c -11.3504,-14.2868 -10.8259,-12.2721 -5.1137,-19.6408 2.7745,-3.5791 6.632,-8.3951 8.5722,-10.7024 l 3.5277,-4.195 7.5324,9.195 c 4.1427,5.0573 7.9771,9.9235 8.5208,10.8138 0.9368,1.5341 -2.9261,7.2908 -12.6619,18.8688 l -3.5633,4.2376 -6.8142,-8.577 z m -220.7671,-247.6065 c -5.4282,-6.7604 -13.9778,-17.4906 -18.9991,-23.8449 l -9.1296,-11.5532 18.2692,-23.0858 c 10.048,-12.6972 18.6959,-23.3495 19.2174,-23.6718 0.9002,-0.5564 36.0098,42.8352 37.2278,46.0094 0.4273,1.1135 -28.0976,38.9052 -35.7744,47.3963 -0.518,0.5729 -5.3831,-4.4896 -10.8113,-11.25 z m -215.4829,-292.3935 c -11.3504,-14.2868 -10.8259,-12.2721 -5.1137,-19.6408 2.7745,-3.5791 6.6319,-8.3951 8.5722,-10.7024 l 3.5277,-4.195 7.5323,9.195 c 4.1428,5.0573 7.9772,9.9235 8.5209,10.8138 0.9368,1.5341 -2.9261,7.2908 -12.6619,18.8688 l -3.5633,4.2376 -6.8142,-8.577 z m 82.0163,-22.922 c -9.2444,-11.6318 -17.4822,-22.2286 -18.3065,-23.5484 -1.3256,-2.1227 0.6387,-5.0946 17.0239,-25.7561 10.1873,-12.8462 18.9149,-23.2025 19.3946,-23.0142 0.651,0.2556 26.9294,33.098 36.4103,45.505 0.6997,0.9157 -5.3738,9.5987 -17.2681,24.6875 -10.0911,12.8012 -18.8197,23.275 -19.3969,23.275 -0.5772,0 -8.613,-9.5169 -17.8573,-21.1488 z m 248.8081,-2.1178 c -11.9633,-15.1813 -17.9572,-23.7603 -17.2484,-24.6875 9.5916,-12.5454 35.7661,-45.2577 36.4173,-45.5134 0.4797,-0.1883 9.2073,10.168 19.3946,23.0142 16.3852,20.6615 18.3495,23.6334 17.0239,25.7561 -3.3481,5.3611 -35.1916,44.6972 -36.1834,44.6972 -0.588,0 -9.3198,-10.4699 -19.404,-23.2666 z m -239.8261,-108.9208 c 73.7344,-0.1781 194.3906,-0.1781 268.125,0 73.7344,0.1781 13.4063,0.3238 -134.0625,0.3238 -147.4687,0 -207.7969,-0.1457 -134.0625,-0.3238 z m -16.875,-45.0001 c 83.0156,-0.1774 218.8594,-0.1774 301.875,0 83.0156,0.1775 15.0938,0.3226 -150.9375,0.3226 -166.0312,0 -233.9531,-0.1451 -150.9375,-0.3226 z"
         id="path4076"
         inkscape:connector-curvature="0" />
      <path
         style="fill:#111111"
         d="m 2400.2195,1927.2685 c 83.0156,-0.1775 218.8594,-0.1775 301.875,0 83.0156,0.1774 15.0938,0.3225 -150.9375,0.3225 -166.0312,0 -233.9531,-0.1451 -150.9375,-0.3225 z m -160.9447,-435.3126 c 0,-234.0937 0.1438,-329.8594 0.3197,-212.8125 0.1758,117.0469 0.1758,308.5781 0,425.625 -0.1759,117.0469 -0.3197,21.2813 -0.3197,-212.8125 z m 623.75,0 c 0,-234.0937 0.1438,-329.8594 0.3197,-212.8125 0.1758,117.0469 0.1758,308.5781 0,425.625 -0.1759,117.0469 -0.3197,21.2813 -0.3197,-212.8125 z m -462.8053,-435.9375 c 83.0156,-0.1774 218.8594,-0.1774 301.875,0 83.0156,0.1775 15.0938,0.3226 -150.9375,0.3226 -166.0312,0 -233.9531,-0.1451 -150.9375,-0.3226 z"
         id="path4074"
         inkscape:connector-curvature="0" />
    </g>
  </g>
</svg>
