<?xml version="1.0" encoding="UTF-8" standalone="no"?>
<!-- Created with Inkscape (http://www.inkscape.org/) -->

<svg
   xmlns:dc="http://purl.org/dc/elements/1.1/"
   xmlns:cc="http://creativecommons.org/ns#"
   xmlns:rdf="http://www.w3.org/1999/02/22-rdf-syntax-ns#"
   xmlns:svg="http://www.w3.org/2000/svg"
   xmlns="http://www.w3.org/2000/svg"
   xmlns:sodipodi="http://sodipodi.sourceforge.net/DTD/sodipodi-0.dtd"
   xmlns:inkscape="http://www.inkscape.org/namespaces/inkscape"
   width="176.4539mm"
   height="246.27023mm"
   viewBox="0 0 625.23037 872.61105"
   id="svg2"
   version="1.1"
   inkscape:version="0.91 r13725"
   sodipodi:docname="6.svg">
  <defs
     id="defs4" />
  <sodipodi:namedview
     id="base"
     pagecolor="#ffffff"
     bordercolor="#666666"
     borderopacity="1.0"
     inkscape:pageopacity="0.0"
     inkscape:pageshadow="2"
     inkscape:zoom="0.35"
     inkscape:cx="484.47571"
     inkscape:cy="308.8953"
     inkscape:document-units="px"
     inkscape:current-layer="layer1"
     showgrid="false"
     fit-margin-top="0"
     fit-margin-left="0"
     fit-margin-right="0"
     fit-margin-bottom="0"
     inkscape:window-width="784"
     inkscape:window-height="822"
     inkscape:window-x="800"
     inkscape:window-y="0"
     inkscape:window-maximized="0" />
  <metadata
     id="metadata7">
    <rdf:RDF>
      <cc:Work
         rdf:about="">
        <dc:format>image/svg+xml</dc:format>
        <dc:type
           rdf:resource="http://purl.org/dc/dcmitype/StillImage" />
        <dc:title></dc:title>
      </cc:Work>
    </rdf:RDF>
  </metadata>
  <g
     inkscape:label="Calque 1"
     inkscape:groupmode="layer"
     id="layer1"
     transform="translate(450.9043,31.353419)">
    <g
       transform="translate(-1929.4477,-1093.7341)"
       id="g4054">
      <path
         style="fill:#fdfdfd"
         d="m 1478.657,1498.7417 0,-436.25 312.5,0 312.5,0 0,436.25 0,436.25 -312.5,0 -312.5,0 0,-436.25 z"
         id="path4070"
         inkscape:connector-curvature="0" />
      <path
         style="fill:#f8dbe7"
         d="m 1484.7822,1933.4334 c -1.8959,-0.7539 -3.8487,-2.9486 -4.6875,-5.2682 -2.0668,-5.7156 -2.07,-853.1223 0,-858.8378 0.9685,-2.6784 2.7229,-4.4328 5.4013,-5.4013 5.6984,-2.0606 605.6302,-2.0606 611.3286,0 2.6784,0.9685 4.4328,2.7229 5.4013,5.4013 2.0638,5.7073 2.0638,853.1213 0,858.8286 -0.9685,2.6784 -2.7229,4.4328 -5.4013,5.4013 -5.3415,1.9315 -607.1766,1.8097 -612.0391,-0.1239 z m 609.3031,-3.5795 c 1.6753,-0.7633 3.6706,-2.7586 4.4339,-4.4338 1.0084,-2.2132 1.3878,-118.8691 1.3878,-426.6784 0,-307.8093 -0.3794,-424.4652 -1.3878,-426.6783 -0.7633,-1.6753 -2.7586,-3.6705 -4.4339,-4.4339 -4.3418,-1.9782 -601.5148,-1.9782 -605.8566,0 -1.6753,0.7634 -3.6705,2.7586 -4.4339,4.4339 -1.9852,4.357 -1.9804,849.01 0,853.3671 0.7659,1.681 2.5941,3.6382 4.0625,4.3492 3.9091,1.8928 602.0711,1.966 606.2232,0.074 z m -573.3593,-36.6795 c -6.3455,-2.2704 -10.5692,-6.3948 -12.1431,-11.8578 -0.867,-3.0097 -1.1637,-127.7124 -0.9164,-385.2958 l 0.3655,-380.8459 2.6307,-3.5291 c 1.4468,-1.941 4.5406,-4.6541 6.875,-6.0291 4.2089,-2.4791 6.4924,-2.5 273.6193,-2.5 267.1269,0 269.4104,0.021 273.6193,2.5 2.3344,1.375 5.4282,4.0881 6.875,6.0292 l 2.6307,3.5291 0,383.5667 0,383.5667 -2.6307,3.5291 c -1.4468,1.9411 -4.5406,4.6542 -6.875,6.0292 -4.2048,2.4767 -6.7336,2.5025 -271.7443,2.7636 -224.3587,0.2211 -268.2751,-0.014 -272.306,-1.4559 z m 541.8951,-11.5014 c 2.205,-1.9956 2.2859,-15.5386 2.2859,-382.7141 0,-352.4404 -0.1533,-380.8147 -2.0687,-382.9313 -1.992,-2.2011 -12.0658,-2.2859 -271.4641,-2.2859 -248.9211,0 -269.5691,0.1572 -271.6813,2.0687 -2.205,1.9956 -2.2859,15.5386 -2.2859,382.7141 0,352.4404 0.1533,380.8147 2.0687,382.9313 1.992,2.2011 12.0658,2.2859 271.4641,2.2859 248.9211,0 269.5691,-0.1572 271.6813,-2.0687 z m -418.743,-48.4682 c -11.1216,-14.0453 -20.2211,-26.4648 -20.2211,-27.5988 0,-3.0227 40.0237,-53.1245 42.3867,-53.0599 2.4709,0.067 41.9883,50.0102 41.9883,53.0655 0,3.0319 -39.5056,52.9866 -41.9664,53.0664 -1.1055,0.036 -10.8192,-11.1164 -22.1875,-25.4732 z m 250.4039,0.034 c -11,-13.967 -20,-26.3968 -20,-27.6216 0,-3.0416 39.5075,-53.0027 41.9664,-53.0706 2.3375,-0.065 42.4086,50.0808 42.4086,53.0706 0,2.9898 -40.0711,53.1353 -42.4086,53.0707 -1.0815,-0.03 -10.9664,-11.482 -21.9664,-25.4491 z m 105.2083,4.6701 c -1.5725,-1.5726 -0.833,-6.7453 1.0687,-7.475 1.5473,-0.5938 1.3142,-1.2747 -1.25,-3.6511 -4.2749,-3.9619 -4.3129,-10.7434 -0.084,-14.9724 2.5608,-2.5608 4.2818,-3.0682 10.4071,-3.0682 10.5754,0 12.7747,2.6126 12.7747,15.1752 0,8.198 -0.367,9.7338 -2.8931,12.1069 -2.3595,2.2167 -4.3956,2.7179 -11.0416,2.7179 -4.4818,0 -8.5236,-0.375 -8.982,-0.8333 z m 12.9167,-18.5417 c 0,-1.1667 -1.1806,-1.875 -3.125,-1.875 -3.0348,0 -3.9912,1.2172 -2.2917,2.9167 1.5725,1.5724 5.4167,0.8332 5.4167,-1.0417 z m -4.5758,-24.1433 c -2.7462,-1.7599 -20.4182,-24.6799 -20.4182,-26.4817 0,-1.9251 17.8519,-24.9114 20.5978,-26.5219 0.8411,-0.4934 2.4031,-0.2121 3.471,0.625 3.8649,3.0293 19.6752,23.7598 19.6752,25.7982 0,2.0905 -17.6201,24.964 -20.4757,26.5804 -0.8323,0.4711 -2.1149,0.4711 -2.8501,0 z m -363.94,-268.3282 c -11.1288,-14.0781 -20.2342,-26.4963 -20.2342,-27.596 0,-1.0996 9.0835,-13.5156 20.1855,-27.591 14.1834,-17.9821 20.8277,-25.4802 22.3453,-25.2166 2.2409,0.3892 42.4709,50.3808 42.467,52.7713 0,1.2405 -33.0793,43.9033 -39.0886,50.4163 -1.4272,1.5469 -3.2353,2.8125 -4.0179,2.8125 -0.7826,0 -10.5283,-11.5184 -21.6571,-25.5965 z m 268.8566,22.784 c -6.0964,-6.6073 -39.0865,-49.185 -39.0885,-50.4484 0,-2.3816 40.182,-52.344 42.4144,-52.733 2.407,-0.4194 42.5833,49.3412 42.5833,52.7419 0,2.4537 -39.9947,53.252 -41.9265,53.252 -0.7632,0 -2.5555,-1.2656 -3.9827,-2.8125 z m -341.1666,-294.4558 c -2.7462,-1.7599 -20.4182,-24.6799 -20.4182,-26.4817 0,-1.9251 17.8519,-24.9114 20.5978,-26.5219 0.8411,-0.4934 2.4031,-0.2121 3.471,0.625 3.8649,3.0293 19.6752,23.7598 19.6752,25.7982 0,2.0905 -17.6201,24.964 -20.4757,26.5804 -0.8323,0.4711 -2.1149,0.4711 -2.8501,0 z m 72.5411,-33.9612 c -10.9122,-13.8123 -20.0152,-26.1807 -20.2291,-27.4854 -0.251,-1.532 6.5722,-11.1434 19.2679,-27.1411 19.0749,-24.036 21.3074,-26.5844 23.3246,-26.6249 1.3356,-0.027 42.1524,51.5391 42.1628,53.2663 0.015,2.479 -40.1187,52.3243 -42.4475,52.719 -1.6147,0.2737 -7.7671,-6.6185 -22.0787,-24.7339 z m 250.3313,-0.1246 c -10.9057,-13.7933 -20.0597,-26.022 -20.3424,-27.1748 -0.5022,-2.0482 39.663,-53.9932 41.7171,-53.952 2.0012,0.04 4.1939,2.5461 23.3115,26.6419 12.6101,15.8938 19.5266,25.631 19.2787,27.1412 -0.6123,3.7307 -39.681,52.4495 -42.049,52.4351 -1.2138,-0.01 -10.3859,-10.5084 -21.9159,-25.0914 z m -331.8287,-35.289 c -2.2992,-2.4473 -2.7179,-4.3591 -2.7179,-12.4092 0,-8.7917 0.2508,-9.7135 3.2936,-12.107 4.087,-3.2148 17.9451,-3.7416 20.4066,-0.7757 1.9504,2.35 0.4898,6.935 -2.2092,6.935 -1.6038,0 -1.2932,0.7392 1.3343,3.1756 4.5104,4.1823 4.7598,11.3844 0.5316,15.3565 -4.287,4.0275 -16.7905,3.9214 -20.639,-0.1752 z m 13.5321,-7.1069 c 0,-0.6875 -1.7207,-1.25 -3.8238,-1.25 -2.2308,0 -3.5019,0.5207 -3.0512,1.25 0.4249,0.6875 2.1456,1.25 3.8238,1.25 1.6781,0 3.0512,-0.5625 3.0512,-1.25 z"
         id="path4068"
         inkscape:connector-curvature="0" />
      <path
         style="fill:#f2a9c6"
         d="m 1485.8602,1933.035 c -7.802,-4.2334 -7.2032,31.869 -7.2032,-434.2933 0,-377.5517 0.2122,-425.5345 1.8962,-428.7909 4.1664,-8.057 -20.7295,-7.4591 310.6038,-7.4591 331.3333,0 306.4374,-0.5979 310.6038,7.4591 1.684,3.2564 1.8962,51.2392 1.8962,428.7909 0,377.5517 -0.2122,425.5345 -1.8962,428.7909 -4.1672,8.0585 20.7716,7.4641 -310.8542,7.4091 -264.3514,-0.044 -302.0474,-0.2795 -305.0464,-1.9067 z m 608.3564,-1.6376 c 2.0265,-1.1889 4.6572,-3.8196 5.8461,-5.8461 2.0367,-3.4718 2.1669,-28.0897 2.2529,-426.305 0.082,-377.4379 -0.1136,-423.0314 -1.826,-426.4641 -1.0547,-2.114 -3.8993,-5.0129 -6.3215,-6.4421 l -4.404,-2.5984 -298.6071,0 -298.6071,0 -4.404,2.5984 c -2.4222,1.4292 -5.2668,4.3281 -6.3214,6.4421 -1.7125,3.4327 -1.9077,49.0262 -1.8261,426.4641 0.086,398.2153 0.2161,422.8332 2.2529,426.305 1.1889,2.0265 3.8196,4.6572 5.8461,5.8461 3.4646,2.0325 21.5618,2.1616 303.0596,2.1616 281.4978,0 299.595,-0.1291 303.0596,-2.1616 z m -575.6072,-40.4682 c -3.6299,-1.8304 -6.3406,-4.3402 -7.763,-7.1875 -2.0663,-4.1364 -2.1855,-25.1303 -2.1855,-385 0,-359.8696 0.1192,-380.8636 2.1855,-385 1.4224,-2.8473 4.1331,-5.3571 7.763,-7.1875 l 5.5773,-2.8125 266.9703,0 266.9703,0 5.5773,2.8125 c 3.6299,1.8304 6.3406,4.3402 7.763,7.1875 2.0663,4.1364 2.1855,25.1304 2.1855,385 0,359.8697 -0.1191,380.8636 -2.1855,385 -1.4224,2.8473 -4.1331,5.3571 -7.763,7.1875 l -5.5773,2.8125 -266.9703,0 -266.9703,0 -5.5773,-2.8125 z m 544.6545,-8.6554 2.8931,-2.7179 0,-380.639 0,-380.6391 -2.7179,-2.893 -2.7179,-2.8931 -269.389,0 -269.3891,0 -2.893,2.7179 -2.8931,2.7179 0,380.639 0,380.6391 2.7179,2.893 2.7179,2.8931 269.389,0 269.3891,0 2.893,-2.7179 z m -418.6694,-49.838 c -10.8281,-13.7217 -19.6875,-25.797 -19.6875,-26.834 0,-2.3009 38.421,-51.0818 40.6528,-51.6144 1.5988,-0.3816 41.844,49.2944 41.8278,51.6293 -0.014,2.0657 -40.0285,51.8793 -41.6268,51.8213 -0.8134,-0.03 -10.3382,-11.2805 -21.1663,-25.0022 z m 250.3937,-0.2566 c -11.0388,-13.9219 -20.0705,-25.875 -20.0705,-26.5625 0,-2.0612 40.0186,-51.8794 41.6277,-51.8213 1.962,0.071 40.8616,49.4038 40.8616,51.8213 0,2.4175 -38.8996,51.7505 -40.8616,51.8213 -0.8177,0.029 -10.5184,-11.3369 -21.5572,-25.2588 z m 105.1444,2.5 c 0.3364,-2.3692 1.286,-2.8742 6.0244,-3.2039 7.7161,-0.5369 9.5988,-2.7336 2.3429,-2.7336 -6.909,0 -11.0929,-3.6842 -11.0929,-9.7681 0,-6.122 3.6925,-8.9819 11.5969,-8.9819 10.4729,0 12.1531,1.884 12.1531,13.6271 0,12.5269 -1.2611,13.8729 -12.9979,13.8729 -8.0231,0 -8.4069,-0.1345 -8.0265,-2.8125 z m 13.2864,-15.625 c -0.2885,-1.4983 -1.592,-2.1875 -4.137,-2.1875 -2.545,0 -3.8485,0.6892 -4.137,2.1875 -0.3391,1.7604 0.4686,2.1875 4.137,2.1875 3.6684,0 4.4761,-0.4271 4.137,-2.1875 z m -15.3472,-37.0178 c -5.1781,-6.438 -9.4148,-12.4206 -9.4148,-13.2947 0,-2.7662 18.6978,-25.0032 20.9773,-24.948 2.7168,0.066 19.6477,21.5641 19.6477,24.948 0,3.3839 -16.9309,24.8823 -19.6477,24.948 -1.2424,0.03 -6.1164,-4.8822 -11.5625,-11.6533 z m -335.8697,-234.2322 c -7.5989,-8.2334 -37.2951,-46.902 -37.2951,-48.5634 0,-2.7876 38.7452,-51.1241 40.9796,-51.1241 2.318,0 41.7101,49.284 41.2275,51.5804 -0.427,2.0319 -39.6649,51.5446 -40.8481,51.5446 -0.4902,0 -2.3189,-1.5469 -4.0639,-3.4375 z m 233.1574,-21.4863 c -10.9051,-13.7714 -19.9828,-25.753 -20.1726,-26.6259 -0.502,-2.3086 38.8678,-51.5753 41.2145,-51.5753 1.089,0 10.8105,11.1539 21.6034,24.7864 15.6341,19.7473 19.4698,25.3381 18.867,27.5 -0.8697,3.1195 -38.1141,49.8455 -40.2623,50.5121 -0.7823,0.2428 -10.3448,-10.826 -21.25,-24.5973 z m -333.5377,-284.2815 c -5.1781,-6.438 -9.4148,-12.4206 -9.4148,-13.2947 0,-2.7662 18.6978,-25.0032 20.9773,-24.948 2.7168,0.066 19.6477,21.5641 19.6477,24.948 0,3.3839 -16.9309,24.8823 -19.6477,24.948 -1.2424,0.03 -6.1164,-4.8822 -11.5625,-11.6533 z m 82.7727,-21.9531 c -10.8281,-13.695 -19.6875,-25.7214 -19.6875,-26.7254 0,-1.004 7.9312,-11.8752 17.6248,-24.1583 18.8863,-23.9314 22.3017,-27.9579 23.7146,-27.9579 1.6605,0 40.5366,50.2847 40.4689,52.3449 -0.087,2.6565 -38.8611,51.4064 -40.8822,51.4009 -0.8531,0 -10.4105,-11.2092 -21.2386,-24.9042 z m 250.3163,-0.2415 c -11.0538,-13.9226 -19.9361,-26.0143 -19.7383,-26.8706 0.5398,-2.3379 39.8134,-51.7295 41.1325,-51.7295 1.694,0 41.102,49.9747 41.102,52.1229 0,2.3858 -38.355,50.8775 -40.6525,51.3965 -1.0224,0.2309 -10.0736,-10.0947 -21.8437,-24.9193 z m -332.534,-35.7876 c -2.298,-2.913 -2.6349,-4.6549 -2.2084,-11.417 0.6817,-10.8078 3.1465,-12.8945 14.6294,-12.3855 7.2792,0.3227 8.2342,0.6549 8.2342,2.865 0,2.115 -0.9625,2.5597 -6.25,2.8875 -7.7995,0.4836 -10.7171,2.7375 -3.5436,2.7375 7.2425,0 11.6686,3.7541 11.6686,9.897 0,6.7904 -2.8413,8.853 -12.1952,8.853 -6.8257,0 -7.9071,-0.3597 -10.335,-3.4375 z m 14.7987,-5.625 c 0.3293,-1.7364 -0.4633,-2.1875 -3.8435,-2.1875 -5.0751,0 -6.4206,1.0217 -4.4587,3.3857 1.9744,2.3789 7.7828,1.5406 8.3022,-1.1982 z"
         id="path4066"
         inkscape:connector-curvature="0" />
      <path
         style="fill:#ef8fb5"
         d="m 1487.8389,1934.0351 c -0.7938,-0.5051 135.6994,-0.9184 303.3181,-0.9184 167.6187,0 304.1119,0.4133 303.3181,0.9184 -0.7937,0.5051 -137.2869,0.9183 -303.3181,0.9183 -166.0312,0 -302.5244,-0.4132 -303.3181,-0.9183 z m -8.4232,-8.5206 c -1.0958,-2.8558 -0.899,-852.1172 0.1979,-853.8409 0.5051,-0.7938 0.9184,191.4406 0.9184,427.1875 0,235.7468 -0.08,428.6306 -0.1788,428.6306 -0.098,0 -0.5202,-0.8897 -0.9375,-1.9772 z m 622.3663,-426.7728 c 0,-235.6812 0.4133,-427.8619 0.9184,-427.0681 1.2008,1.8869 1.2008,852.2493 0,854.1362 -0.5051,0.7938 -0.9184,-191.3869 -0.9184,-427.0681 z m -583.9166,391.3524 c -2.1541,-1.3135 -4.826,-3.6866 -5.9375,-5.2734 -1.8505,-2.642 -2.0209,-35.1991 -2.0209,-386.1886 l 0,-383.3033 2.6104,-3.3185 c 5.9356,-7.5459 -14.9992,-7.0186 278.6396,-7.0186 293.6388,0 272.704,-0.5273 278.6396,7.0186 l 2.6104,3.3185 0,383.4129 0,383.4129 -2.6104,3.3185 c -5.9358,7.5462 15.0245,7.019 -278.89,7.0139 -262.722,-0.01 -269.2178,-0.062 -273.0412,-2.3929 z m 546.0694,-7.3246 2.8472,-2.8472 0,-381.1806 0,-381.1806 -2.8472,-2.8472 -2.8472,-2.8472 -269.9306,0 -269.9306,0 -2.8472,2.8472 -2.8472,2.8472 -0.2974,379.6528 c -0.2374,302.9488 0.02,380.2792 1.2746,382.7532 0.8646,1.7052 2.9672,3.8084 4.6724,4.6737 2.4687,1.2529 57.7891,1.5126 271.5032,1.2747 l 268.4029,-0.2988 2.8471,-2.8472 z m -414.6528,-45.5049 c -26.2506,-33.2037 -24.7456,-30.8962 -22.4432,-34.41 5.0302,-7.677 37.2156,-47.2799 38.7037,-47.6233 0.9257,-0.2137 10.4227,10.6084 21.3071,24.2799 17.1134,21.4955 19.4954,25.0312 18.5347,27.5118 -1.6594,4.2849 -37.7722,49.219 -39.5547,49.2167 -0.8512,0 -8.2976,-8.5399 -16.5476,-18.9751 z m 246.2891,-5.4083 c -10.6778,-13.412 -19.4141,-25.2221 -19.4141,-26.2445 0,-2.856 38.6497,-50.832 40.5904,-50.3852 1.5072,0.347 33.654,39.8845 38.7389,47.6448 2.2262,3.3977 4.7571,-0.354 -27.4291,40.6598 -5.4861,6.9908 -10.6716,12.7105 -11.5234,12.7105 -0.8517,0 -10.2849,-10.9734 -20.9627,-24.3854 z m 105.6663,4.4615 c -3.315,-2.0976 0.8228,-5.0761 7.0518,-5.0761 6.3567,0 7.1026,-2.8855 0.8964,-3.4678 -7.1704,-0.6726 -8.9816,-1.5475 -10.4268,-5.0365 -3.2039,-7.7349 3.0118,-13.614 13.0104,-12.3057 7.0408,0.9212 9.3878,4.2976 9.3878,13.5053 0,9.89 -3.2925,13.5638 -12.1307,13.5356 -3.2969,-0.01 -6.8019,-0.5302 -7.7889,-1.1548 z m 13.0446,-16.9511 c 0,-1.9295 -0.9684,-2.5925 -4.2439,-2.9052 -4.669,-0.4458 -7.0906,1.7942 -4.8536,4.4896 0.7623,0.9184 3.1179,1.4991 5.241,1.2919 2.8977,-0.2827 3.8565,-0.9978 3.8565,-2.8763 z m -11.6024,-32.917 c -9.7984,-11.774 -12.7726,-15.9378 -12.7726,-17.881 0,-2.3038 17.7488,-24.202 19.6161,-24.202 1.2561,0 20.3742,22.8722 20.3742,24.375 0,1.003 -18.8397,24.3362 -19.9894,24.7572 -0.5741,0.2101 -3.8268,-2.962 -7.2283,-7.0492 z M 1645.532,1526.108 c -10.3125,-13.11 -19.2059,-24.6414 -19.763,-25.6253 -0.7173,-1.2667 4.7571,-9.0813 18.7497,-26.765 10.8695,-13.7368 20.468,-24.976 21.3299,-24.976 1.9257,0 40.3084,48.0405 40.3084,50.4508 0,2.3632 -38.5346,50.8051 -40.391,50.7756 -0.8162,-0.013 -9.9215,-10.75 -20.234,-23.8601 z m 262.7713,15.4462 c -26.0718,-32.7829 -32.1463,-40.7893 -32.1463,-42.3695 0,-2.8752 38.6461,-50.6532 40.6144,-50.2114 1.6126,0.362 36.9281,43.9419 39.5107,48.7569 0.8904,1.6599 -2.0018,6.0861 -13.4768,20.625 -8.0357,10.1813 -16.897,21.4625 -19.6918,25.0692 -2.7948,3.6068 -5.7607,6.5599 -6.5908,6.5625 -0.83,0 -4.5288,-3.7921 -8.2194,-8.4327 z m -341.8737,-295.1045 c -9.7984,-11.774 -12.7726,-15.9378 -12.7726,-17.881 0,-2.3038 17.7488,-24.202 19.6161,-24.202 1.2561,0 20.3742,22.8722 20.3742,24.375 0,1.003 -18.8397,24.3362 -19.9894,24.7572 -0.5741,0.2101 -3.8268,-2.962 -7.2283,-7.0492 z m 78.3799,-27.2157 c -10.6026,-13.4792 -19.2064,-25.2497 -19.1194,-26.1568 0.2298,-2.3972 38.3224,-50.4687 40.0425,-50.5321 1.677,-0.062 39.2621,46.8869 40.0997,50.0898 0.6975,2.6675 -36.9187,50.9378 -39.7728,51.0377 -1.1182,0.039 -10.3225,-10.5462 -21.25,-24.4386 z m 250.2931,-0.047 c -12.5114,-15.928 -18.9826,-25.1687 -18.6136,-26.5799 0.668,-2.5544 38.1816,-50.1153 39.5284,-50.1153 1.5185,0 6.445,5.7728 24.4027,28.5947 9.3997,11.9458 16.9265,22.1673 16.7262,22.7144 -1.301,3.5524 -39.3554,49.9277 -40.9237,49.8718 -1.0673,-0.038 -10.5713,-11.0565 -21.1199,-24.4856 z m -330.652,-34.2859 c -2.9789,-2.3432 -3.2936,-3.3997 -3.2936,-11.0563 0,-9.9072 1.8274,-12.4154 9.8275,-13.4884 6.8996,-0.9254 11.6954,0.4116 11.1822,3.1176 -0.3066,1.617 -2.0908,2.2962 -7.2705,2.7678 -8.2815,0.7541 -9.0616,2.9704 -1.2392,3.5207 10.1974,0.7172 14.4698,8.3731 8.1818,14.6611 -4.0235,4.0236 -12.5814,4.2586 -17.3882,0.4775 z m 13.6152,-4.9641 c 1.3164,-2.1298 -1.9504,-4.9452 -5.7381,-4.9452 -3.8756,0 -5.5186,1.639 -4.4457,4.4349 0.8097,2.1099 8.9433,2.5176 10.1838,0.5103 z m -90.2269,-116.4886 c 1.8868,-1.2007 604.7494,-1.2007 606.6362,0 0.7938,0.5051 -135.6994,0.9184 -303.3181,0.9184 -167.6187,0 -304.1119,-0.4133 -303.3181,-0.9184 z"
         id="path4064"
         inkscape:connector-curvature="0" />
      <path
         style="fill:#e85c94"
         d="m 1487.8389,1934.0351 c -0.7938,-0.5051 135.6994,-0.9184 303.3181,-0.9184 167.6187,0 304.1119,0.4133 303.3181,0.9184 -0.7937,0.5051 -137.2869,0.9183 -303.3181,0.9183 -166.0312,0 -302.5244,-0.4132 -303.3181,-0.9183 z m -8.4232,-8.5206 c -1.0958,-2.8558 -0.899,-852.1172 0.1979,-853.8409 0.5051,-0.7938 0.9184,191.4406 0.9184,427.1875 0,235.7468 -0.08,428.6306 -0.1788,428.6306 -0.098,0 -0.5202,-0.8897 -0.9375,-1.9772 z m 622.3663,-426.7728 c 0,-235.6812 0.4133,-427.8619 0.9184,-427.0681 1.2008,1.8869 1.2008,852.2493 0,854.1362 -0.5051,0.7938 -0.9184,-191.3869 -0.9184,-427.0681 z m -581.25,391.9855 c -2.0625,-0.9167 -5.1562,-3.19 -6.875,-5.0518 l -3.125,-3.3851 0,-383.5672 0,-383.5672 3.6789,-3.84 c 2.0235,-2.112 5.6797,-4.3958 8.125,-5.0751 6.1027,-1.6954 531.5395,-1.6954 537.6422,0 2.4453,0.6793 6.1015,2.9631 8.125,5.0751 l 3.6789,3.84 0,383.5672 0,383.5672 -3.125,3.3868 c -6.7026,7.2641 11.5816,6.8188 -277.7723,6.7657 -219.3827,-0.04 -267.2669,-0.3442 -270.3527,-1.7156 z m 543.8068,-7.5537 3.0682,-3.0682 0,-381.3636 0,-381.3636 -3.0682,-3.0682 -3.0682,-3.0682 -270.1136,0 -270.1136,0 -3.0682,3.0682 -3.0682,3.0682 0,381.3636 0,381.3636 3.0682,3.0682 3.0682,3.0682 270.1136,0 270.1136,0 3.0682,-3.0682 z m -418.7962,-51.681 c -11.1024,-14.0342 -19.2708,-25.4574 -18.9919,-26.5594 0.9241,-3.6508 38.461,-49.8235 39.9807,-49.1787 2.1184,0.8988 39.0006,47.9923 39.0006,49.7984 0,1.8072 -36.8823,49.0132 -39.004,49.9216 -0.8687,0.3719 -9.7335,-9.7587 -20.9854,-23.9819 z m 269.9018,23.7665 c -2.6117,-1.7422 -39.48,-49.0623 -39.0747,-50.1518 0.8371,-2.2499 37.9648,-48.7384 39.4163,-49.3542 1.5139,-0.6421 40.371,47.3538 40.371,49.8658 0,1.1174 -33.6515,44.6354 -37.9024,49.0152 -0.8099,0.8345 -2.0745,1.1158 -2.8102,0.625 z m 85.7126,-20.827 c 0,-1.3013 1.8403,-1.9158 6.5508,-2.1875 5.0629,-0.292 6.6452,-0.8746 6.9667,-2.5653 0.3444,-1.8119 -0.5181,-2.1875 -5.0227,-2.1875 -7.2578,0 -10.9948,-2.7198 -10.9948,-8.0021 0,-5.8047 3.2116,-8.2479 10.8422,-8.2479 8.6123,0 10.4078,2.1939 10.4078,12.7172 0,10.4272 -1.7617,12.2828 -11.6609,12.2828 -5.3544,0 -7.0891,-0.4428 -7.0891,-1.8097 z m 13.75,-14.9316 c 0,-4.4851 -6.9362,-6.3254 -9.9868,-2.6496 -2.6749,3.2231 -0.5543,5.6409 4.9476,5.6409 4.4817,0 5.0392,-0.3309 5.0392,-2.9913 z m -15.3642,-37.6801 c -4.669,-5.8539 -8.7696,-11.3742 -9.1123,-12.2673 -0.6747,-1.7584 16.2182,-23.7088 18.6931,-24.2896 1.5821,-0.3713 19.5334,21.2054 19.5334,23.4783 0,1.9369 -17.7327,23.7524 -19.2938,23.736 -0.7321,-0.01 -5.1513,-4.8035 -9.8204,-10.6574 z m -353.5393,-256.242 c -10.5718,-13.4004 -19.1916,-25.3425 -19.155,-26.538 0.078,-2.5591 37.8582,-50.5865 39.3659,-50.0436 0.5652,0.2035 9.8362,11.4976 20.6023,25.0981 18.6652,23.5793 19.49,24.8569 17.7534,27.5 -3.0441,4.6331 -36.7925,46.7703 -38.1126,47.5862 -0.6779,0.4189 -9.8822,-10.2022 -20.454,-23.6027 z m 269.4752,23.4239 c -1.719,-1.187 -39.3217,-48.7376 -39.3217,-49.7245 0,-1.1991 39.2636,-50.536 40.2179,-50.536 1.2475,0 38.8028,47.6192 39.3648,49.9135 0.2759,1.1263 -7.5479,12.0746 -18.3738,25.7115 -21.998,27.7101 -20.2628,25.757 -21.8872,24.6355 z m -352.1859,-307.1819 c -4.669,-5.8539 -8.7696,-11.3742 -9.1123,-12.2673 -0.6747,-1.7584 16.2181,-23.7088 18.6931,-24.2896 1.5821,-0.3713 19.5334,21.2054 19.5334,23.4783 0,1.9369 -17.7327,23.7524 -19.2938,23.736 -0.7321,-0.01 -5.1513,-4.8035 -9.8204,-10.6574 z m 95.0105,-6.5161 c -25.56,-32.1394 -32.1445,-40.7479 -32.1313,-42.0078 0.027,-2.6232 37.6164,-48.9297 39.7182,-48.9297 2.1232,0 40.6694,47.6213 40.0082,49.4276 -0.7643,2.0882 -39.0298,49.9474 -39.935,49.9474 -0.5225,0 -3.9695,-3.7969 -7.6601,-8.4375 z m 237.7764,-15.9778 c -10.6137,-13.4567 -19.4626,-24.9317 -19.6641,-25.5 -0.6455,-1.82 37.8669,-49.4597 39.9837,-49.4597 2.0749,0 39.7063,46.3298 39.7395,48.9253 0.022,1.715 -37.5941,49.4455 -39.457,50.0664 -0.7173,0.2392 -9.9883,-10.5752 -20.6021,-24.032 z m -331.8713,-34.8589 c -1.9694,-1.4401 -2.4264,-3.2988 -2.4264,-9.8688 0,-11.3146 2.1631,-13.594 12.4295,-13.0979 8.1431,0.3936 10.3923,2.6483 3.1955,3.2033 -7.1535,0.5518 -10,1.4846 -10,3.2774 0,1.1156 2.1151,1.8954 6.2085,2.2887 3.4147,0.3281 7.071,1.3123 8.125,2.1871 2.6492,2.1986 2.429,9.1831 -0.3694,11.7157 -2.8703,2.5975 -13.7576,2.7843 -17.1627,0.2945 z m 13.8236,-5.7258 c 0,-2.7839 -0.5811,-3.167 -5.3239,-3.5099 -3.9369,-0.2847 -5.5203,0.1266 -6.0774,1.5784 -1.265,3.2967 1.9822,5.8461 6.9193,5.4322 3.8473,-0.3225 4.482,-0.8182 4.482,-3.5007 z m -90.1931,-115.2934 c 1.8868,-1.2007 604.7494,-1.2007 606.6362,0 0.7938,0.5051 -135.6994,0.9184 -303.3181,0.9184 -167.6187,0 -304.1119,-0.4133 -303.3181,-0.9184 z"
         id="path4062"
         inkscape:connector-curvature="0" />
      <path
         style="fill:#e01b6a"
         d="m 1640.2195,1934.0543 c 83.0156,-0.1775 218.8594,-0.1775 301.875,0 83.0156,0.1774 15.0938,0.3225 -150.9375,0.3225 -166.0312,0 -233.9531,-0.1451 -150.9375,-0.3225 z m -160.9447,-435.3126 c 0,-234.0937 0.1438,-329.8594 0.3197,-212.8125 0.1758,117.0469 0.1758,308.5781 0,425.625 -0.1759,117.0469 -0.3197,21.2813 -0.3197,-212.8125 z m 623.75,0 c 0,-234.0937 0.1438,-329.8594 0.3197,-212.8125 0.1758,117.0469 0.1758,308.5781 0,425.625 -0.1759,117.0469 -0.3197,21.2813 -0.3197,-212.8125 z m -582.4928,390.7514 c -2.0625,-0.9129 -4.875,-2.9207 -6.25,-4.4618 -2.487,-2.7875 -2.5015,-4.7813 -2.7974,-384.8583 -0.2348,-301.6803 0.028,-382.6884 1.25,-385.0608 0.8511,-1.6525 3.1355,-4.1837 5.0766,-5.625 l 3.5291,-2.6205 269.8167,0 269.8167,0 3.5291,2.6205 c 1.9411,1.4413 4.224,3.9725 5.0733,5.625 2.2618,4.4012 2.2618,762.8579 0,767.259 -0.8493,1.6525 -3.1322,4.1837 -5.0732,5.625 l -3.5291,2.6205 -268.3459,0.2682 c -220.8,0.2206 -269.0103,-0.026 -272.0959,-1.3918 z m 543.9928,-5.0182 3.5072,-3.0167 0,-382.7165 0,-382.7165 -3.5072,-3.0167 -3.5072,-3.0168 -269.8606,0 -269.8606,0 -3.5072,3.0168 -3.5072,3.0167 0,382.7165 0,382.7165 3.5072,3.0167 3.5072,3.0168 269.8606,0 269.8606,0 3.5072,-3.0168 z M 1646.3,1830.9268 c -10.6526,-13.5027 -18.7702,-24.9018 -18.4998,-25.9783 0.265,-1.055 8.8165,-12.4365 19.0032,-25.2922 14.5269,-18.3332 18.8776,-23.0784 20.1736,-22.0028 2.305,1.913 37.93,46.9615 37.93,47.9632 0,1.0075 -35.6319,46.0559 -37.9515,47.981 -1.3249,1.0996 -5.6307,-3.6263 -20.6555,-22.6709 z m 267.1692,20.6356 c -4.9982,-5.4306 -36.0622,-44.988 -36.0622,-45.9221 0,-1.0182 35.5919,-46.0463 37.9316,-47.9881 1.2983,-1.0775 5.7289,3.7918 20.6111,22.6519 10.4265,13.2134 18.9573,24.6096 18.9573,25.325 0,1.0155 -33.4148,44.3389 -37.3561,48.4333 -0.5007,0.5202 -2.3375,-0.6048 -4.0817,-2.5 z m 94.2446,-17.732 c 6.6145,-0.9226 9.1476,-2.6999 8.0234,-5.6297 -0.539,-1.4046 -2.4608,-1.959 -6.791,-1.959 -7.0335,0 -9.0392,-1.5255 -9.0392,-6.875 0,-5.4014 2.0095,-6.875 9.375,-6.875 3.5063,0 7.05,0.675 7.875,1.5 0.8636,0.8636 1.5,5 1.5,9.75 0,4.75 -0.6364,8.8864 -1.5,9.75 -0.854,0.854 -4.4879,1.4281 -8.4375,1.333 l -6.9375,-0.167 5.9318,-0.8273 z m 8.2056,-14.0671 c 0.2758,-2.3874 -0.3754,-3.7617 -2.2608,-4.7707 -3.5947,-1.9239 -9.7035,-0.4094 -10.6732,2.646 -1.2621,3.9764 1.6607,6.276 7.4385,5.8525 4.4992,-0.3298 5.1543,-0.7741 5.4955,-3.7278 z m -16.0124,-39.0007 c -4.4687,-5.7013 -8.125,-11.1107 -8.125,-12.0209 0,-2.096 15.8201,-22.3723 17.5,-22.4295 1.49,-0.051 18.125,20.535 18.125,22.4295 0,1.8945 -16.635,22.4802 -18.125,22.4295 -0.6875,-0.023 -4.9062,-4.7073 -9.375,-10.4086 z m -353.75,-256.4254 c -9.9687,-12.7097 -18.0943,-24.1003 -18.0568,-25.3126 0.037,-1.2123 8.4212,-12.7374 18.6306,-25.6113 15.4092,-19.4308 18.8689,-23.1528 20.3663,-21.9101 2.3467,1.9476 37.8099,46.7553 37.8099,47.7727 0,1.7099 -37.7801,48.2142 -39.1517,48.1927 -0.8103,-0.013 -9.6295,-10.4218 -19.5983,-23.1314 z m 250.0087,-0.6664 c -10.4059,-13.1015 -18.7429,-24.3058 -18.5267,-24.8985 0.6447,-1.7677 37.83,-48.6858 38.6254,-48.7352 1.4857,-0.092 37.8799,46.9051 37.9475,49.0032 0.083,2.5787 -35.5136,48.3417 -37.6532,48.4066 -0.8102,0.025 -9.9871,-10.6746 -20.393,-23.7761 z M 1563.657,1240.7626 c -4.4687,-5.7013 -8.125,-11.1107 -8.125,-12.0209 0,-2.096 15.8201,-22.3723 17.5,-22.4295 1.49,-0.051 18.125,20.535 18.125,22.4295 0,1.8945 -16.635,22.4802 -18.125,22.4295 -0.6875,-0.023 -4.9062,-4.7072 -9.375,-10.4086 z m 82.6283,-22.1458 c -10.4486,-13.1768 -18.8301,-24.737 -18.6254,-25.6894 0.5915,-2.7521 36.4612,-47.8328 38.1026,-47.8869 1.4183,-0.047 39.1782,46.7663 39.1127,48.4902 -0.041,1.0866 -37.4937,48.225 -38.6852,48.69 -0.4989,0.1947 -9.456,-10.427 -19.9047,-23.6039 z m 250.4967,-0.021 c -10.3125,-13.1304 -18.679,-24.6138 -18.5923,-25.5185 0.2377,-2.4793 36.6856,-48.0947 38.3758,-48.0281 2.1473,0.084 37.7291,45.9059 37.6457,48.4792 -0.069,2.1307 -36.3275,48.9739 -37.8908,48.952 -0.4336,-0.01 -9.2259,-10.7542 -19.5384,-23.8846 z m -332.4107,-35.5687 c -2.6205,-2.6205 -2.6323,-14.0257 -0.018,-17.7576 1.6491,-2.3544 3.0313,-2.7557 9.0625,-2.6311 l 7.1166,0.147 -5.8747,0.9904 c -7.2524,1.2227 -8.5003,1.9624 -8.5003,5.0394 0,2.0473 0.8912,2.4262 5.7072,2.4262 7.9027,0 10.5428,1.67 10.5428,6.669 0,2.2445 -0.675,4.756 -1.5,5.581 -2.2418,2.2418 -14.1643,1.9071 -16.5357,-0.4643 z m 13.1179,-0.5797 c 2.7249,-1.4583 3.1701,-4.9537 0.9178,-7.206 -2.4304,-2.4304 -10.7084,-1.8806 -12.1466,0.8067 -2.8383,5.3035 4.9659,9.7511 11.2288,6.3993 z m 62.7303,-119.6435 c 83.0156,-0.1774 218.8594,-0.1774 301.875,0 83.0156,0.1775 15.0938,0.3226 -150.9375,0.3226 -166.0312,0 -233.9531,-0.1451 -150.9375,-0.3226 z"
         id="path4060"
         inkscape:connector-curvature="0" />
      <path
         style="fill:#dd0058"
         d="m 1640.2195,1934.0543 c 83.0156,-0.1775 218.8594,-0.1775 301.875,0 83.0156,0.1774 15.0938,0.3225 -150.9375,0.3225 -166.0312,0 -233.9531,-0.1451 -150.9375,-0.3225 z m -160.9447,-435.3126 c 0,-234.0937 0.1438,-329.8594 0.3197,-212.8125 0.1758,117.0469 0.1758,308.5781 0,425.625 -0.1759,117.0469 -0.3197,21.2813 -0.3197,-212.8125 z m 623.75,0 c 0,-234.0937 0.1438,-329.8594 0.3197,-212.8125 0.1758,117.0469 0.1758,308.5781 0,425.625 -0.1759,117.0469 -0.3197,21.2813 -0.3197,-212.8125 z m -445.9303,390.3126 c 73.7344,-0.1781 194.3906,-0.1781 268.125,0 73.7344,0.1781 13.4063,0.3238 -134.0625,0.3238 -147.4687,0 -207.7969,-0.1457 -134.0625,-0.3238 z m -10.2863,-59.6334 c -10.0951,-12.7566 -18.1683,-23.7206 -17.9404,-24.3646 0.963,-2.7221 36.372,-46.4099 37.3368,-46.0664 2.4766,0.8816 37.3525,46.403 36.5518,47.7088 -2.1239,3.4636 -35.6349,45.2068 -36.5606,45.542 -0.5681,0.2057 -9.2925,-10.0632 -19.3876,-22.8198 z m 251.2185,1.0051 c -9.6221,-12.1361 -17.9087,-22.7596 -18.4147,-23.6078 -0.5755,-0.9645 5.8892,-10.1401 17.2593,-24.4968 9.9987,-12.6251 18.6521,-23.123 19.2297,-23.3287 1.0417,-0.371 37.556,44.9597 37.556,46.624 0,1.2765 -36.2571,46.875 -37.2721,46.875 -0.4749,0 -8.7361,-9.9295 -18.3582,-22.0657 z m 104.3195,-48.6611 c -11.3504,-14.2868 -10.8259,-12.2721 -5.1137,-19.6408 2.7745,-3.5791 6.632,-8.3951 8.5722,-10.7024 l 3.5277,-4.195 7.5324,9.195 c 4.1427,5.0573 7.9771,9.9235 8.5208,10.8138 0.9368,1.5341 -2.9262,7.2908 -12.6619,18.8688 l -3.5633,4.2376 -6.8142,-8.577 z M 1646.947,1523.2616 c -10.0595,-12.6931 -18.2749,-23.5434 -18.2565,-24.1117 0.061,-1.8826 35.7712,-46.0332 37.2329,-46.0332 0.7886,0 9.6086,10.3435 19.6001,22.9855 l 18.1663,22.9856 -3.4227,4.5144 c -9.5138,12.5486 -33.2465,42.0601 -34.0783,42.3762 -0.5235,0.1989 -9.1823,-10.0237 -19.2418,-22.7168 z m 251.085,0.8724 c -9.625,-12.1508 -17.9227,-22.7864 -18.4393,-23.6346 -1.0616,-1.7429 34.353,-47.3827 36.7671,-47.3827 1.4824,0 37.2018,44.1256 37.2637,46.0332 0.043,1.3232 -36.1976,47.0944 -37.28,47.0842 -0.4463,0 -8.6865,-9.9493 -18.3115,-22.1001 z m -331.9358,-282.3691 c -11.3504,-14.2868 -10.8259,-12.2721 -5.1137,-19.6408 2.7745,-3.5791 6.6319,-8.3951 8.5722,-10.7024 l 3.5277,-4.195 7.5323,9.195 c 4.1428,5.0573 7.9772,9.9235 8.5209,10.8138 0.9368,1.5341 -2.9261,7.2908 -12.6619,18.8688 l -3.5633,4.2376 -6.8142,-8.577 z m 82.0162,-22.922 c -9.2443,-11.6318 -17.4821,-22.2286 -18.3064,-23.5484 -1.3256,-2.1227 0.6387,-5.0946 17.0239,-25.7561 10.1873,-12.8462 18.9149,-23.2025 19.3946,-23.0142 0.651,0.2556 26.9294,33.098 36.4103,45.505 0.6997,0.9157 -5.3739,9.5987 -17.2681,24.6875 -10.0911,12.8012 -18.8197,23.275 -19.3969,23.275 -0.5772,0 -8.613,-9.5169 -17.8573,-21.1488 z m 248.8082,-2.1178 c -11.9633,-15.1813 -17.9572,-23.7603 -17.2484,-24.6875 9.5916,-12.5454 35.7661,-45.2577 36.4173,-45.5134 0.4797,-0.1883 9.2073,10.168 19.3946,23.0142 16.3852,20.6615 18.3495,23.6334 17.0239,25.7561 -3.3481,5.3611 -35.1916,44.6972 -36.1834,44.6972 -0.5881,0 -9.3198,-10.4699 -19.404,-23.2666 z m -333.2636,-44.2334 c 0,-0.6875 0.5625,-1.25 1.25,-1.25 0.6875,0 1.25,0.5625 1.25,1.25 0,0.6875 -0.5625,1.25 -1.25,1.25 -0.6875,0 -1.25,-0.5625 -1.25,-1.25 z m 93.4375,-64.6874 c 73.7344,-0.1781 194.3906,-0.1781 268.125,0 73.7344,0.1781 13.4063,0.3238 -134.0625,0.3238 -147.4687,0 -207.7969,-0.1457 -134.0625,-0.3238 z m -16.875,-45.0001 c 83.0156,-0.1774 218.8594,-0.1774 301.875,0 83.0156,0.1775 15.0938,0.3226 -150.9375,0.3226 -166.0312,0 -233.9531,-0.1451 -150.9375,-0.3226 z"
         id="path4058"
         inkscape:connector-curvature="0" />
      <path
         style="fill:#111111"
         d="m 1640.2195,1934.0543 c 83.0156,-0.1775 218.8594,-0.1775 301.875,0 83.0156,0.1774 15.0938,0.3225 -150.9375,0.3225 -166.0312,0 -233.9531,-0.1451 -150.9375,-0.3225 z m -160.9447,-435.3126 c 0,-234.0937 0.1438,-329.8594 0.3197,-212.8125 0.1758,117.0469 0.1758,308.5781 0,425.625 -0.1759,117.0469 -0.3197,21.2813 -0.3197,-212.8125 z m 623.75,0 c 0,-234.0937 0.1438,-329.8594 0.3197,-212.8125 0.1758,117.0469 0.1758,308.5781 0,425.625 -0.1759,117.0469 -0.3197,21.2813 -0.3197,-212.8125 z m -462.8053,-435.9375 c 83.0156,-0.1774 218.8594,-0.1774 301.875,0 83.0156,0.1775 15.0938,0.3226 -150.9375,0.3226 -166.0312,0 -233.9531,-0.1451 -150.9375,-0.3226 z"
         id="path4056"
         inkscape:connector-curvature="0" />
    </g>
  </g>
</svg>
