<?xml version="1.0" encoding="UTF-8" standalone="no"?>
<!-- Created with Inkscape (http://www.inkscape.org/) -->

<svg
   xmlns:dc="http://purl.org/dc/elements/1.1/"
   xmlns:cc="http://creativecommons.org/ns#"
   xmlns:rdf="http://www.w3.org/1999/02/22-rdf-syntax-ns#"
   xmlns:svg="http://www.w3.org/2000/svg"
   xmlns="http://www.w3.org/2000/svg"
   xmlns:sodipodi="http://sodipodi.sourceforge.net/DTD/sodipodi-0.dtd"
   xmlns:inkscape="http://www.inkscape.org/namespaces/inkscape"
   width="176.45316mm"
   height="246.27023mm"
   viewBox="0 0 625.22772 872.61105"
   id="svg2"
   version="1.1"
   inkscape:version="0.91 r13725"
   sodipodi:docname="7.svg">
  <defs
     id="defs4" />
  <sodipodi:namedview
     id="base"
     pagecolor="#ffffff"
     bordercolor="#666666"
     borderopacity="1.0"
     inkscape:pageopacity="0.0"
     inkscape:pageshadow="2"
     inkscape:zoom="0.35"
     inkscape:cx="726.14625"
     inkscape:cy="29.732679"
     inkscape:document-units="px"
     inkscape:current-layer="layer1"
     showgrid="false"
     fit-margin-top="0"
     fit-margin-left="0"
     fit-margin-right="0"
     fit-margin-bottom="0"
     inkscape:window-width="784"
     inkscape:window-height="822"
     inkscape:window-x="800"
     inkscape:window-y="0"
     inkscape:window-maximized="0" />
  <metadata
     id="metadata7">
    <rdf:RDF>
      <cc:Work
         rdf:about="">
        <dc:format>image/svg+xml</dc:format>
        <dc:type
           rdf:resource="http://purl.org/dc/dcmitype/StillImage" />
        <dc:title></dc:title>
      </cc:Work>
    </rdf:RDF>
  </metadata>
  <g
     inkscape:label="Calque 1"
     inkscape:groupmode="layer"
     id="layer1"
     transform="translate(692.57484,310.51605)">
    <g
       transform="translate(-1413.9751,-1371.8253)"
       id="g4036">
      <path
         style="fill:#fdfdfd"
         d="m 721.51422,1497.6703 0,-436.25 312.49998,0 312.5,0 0,436.25 0,436.25 -312.5,0 -312.49998,0 0,-436.25 z"
         id="path4052"
         inkscape:connector-curvature="0" />
      <path
         style="fill:#f8dbe7"
         d="m 727.63945,1932.362 c -1.89593,-0.7539 -3.84873,-2.9486 -4.6875,-5.2682 -2.06679,-5.7156 -2.07005,-853.1223 -0.003,-858.8378 0.96852,-2.6784 2.72286,-4.4328 5.40125,-5.4013 5.69847,-2.0606 605.6302,-2.0606 611.3286,0 2.6784,0.9685 4.4328,2.7229 5.4013,5.4013 2.0638,5.7073 2.0638,853.1213 0,858.8286 -0.9685,2.6784 -2.7229,4.4328 -5.4013,5.4013 -5.3415,1.9315 -607.17661,1.8097 -612.03904,-0.1239 z m 609.30315,-3.5795 c 1.6752,-0.7633 3.6705,-2.7586 4.4338,-4.4338 1.0084,-2.2132 1.3878,-118.8691 1.3878,-426.6784 0,-307.8093 -0.3794,-424.4652 -1.3878,-426.6783 -0.7633,-1.6753 -2.7586,-3.6705 -4.4338,-4.4339 -4.3419,-1.9782 -601.51488,-1.9782 -605.85672,0 -1.67529,0.7634 -3.67051,2.7586 -4.43382,4.4339 -1.98519,4.357 -1.98048,849.01 0.005,853.3671 0.76593,1.681 2.59406,3.6382 4.0625,4.3492 3.90912,1.8928 602.07104,1.966 606.22324,0.074 z M 763.58321,1892.103 c -6.34546,-2.2704 -10.56915,-6.3948 -12.14305,-11.8578 -0.86709,-3.0097 -1.16371,-127.7124 -0.91648,-385.2958 l 0.36554,-380.8459 2.63066,-3.5291 c 1.44687,-1.941 4.54062,-4.6541 6.875,-6.0291 4.20892,-2.4791 6.49245,-2.5 273.61932,-2.5 267.1269,0 269.4104,0.021 273.6194,2.5 2.3343,1.375 5.4281,4.0881 6.875,6.0292 l 2.6306,3.5291 0,383.5667 0,383.5667 -2.6306,3.5291 c -1.4469,1.9411 -4.5407,4.6542 -6.875,6.0292 -4.2049,2.4767 -6.7337,2.5025 -271.7444,2.7636 -224.35865,0.2211 -268.27507,-0.014 -272.30599,-1.4559 z m 541.89509,-11.5014 c 2.205,-1.9956 2.2859,-15.5386 2.2859,-382.7141 0,-352.4404 -0.1533,-380.8147 -2.0687,-382.9313 -1.992,-2.2011 -12.0658,-2.2859 -271.4641,-2.2859 -248.92104,0 -269.56906,0.1572 -271.68125,2.0687 -2.20504,1.9956 -2.28593,15.5386 -2.28593,382.7141 0,352.4404 0.15329,380.8147 2.06874,382.9313 1.99196,2.2011 12.06573,2.2859 271.46404,2.2859 248.9211,0 269.5691,-0.1572 271.6813,-2.0687 z m -418.74298,-48.4682 c -11.12161,-14.0453 -20.2211,-26.4648 -20.2211,-27.5988 0,-3.0227 40.0237,-53.1245 42.38675,-53.06 2.4709,0.067 41.98825,50.0103 41.98825,53.0656 0,3.0319 -39.50558,52.9866 -41.9664,53.0664 -1.10552,0.036 -10.8192,-11.1164 -22.1875,-25.4732 z m 250.40388,0.034 c -11,-13.967 -20,-26.3968 -20,-27.6216 0,-3.0416 39.5075,-53.0027 41.9664,-53.0706 2.3376,-0.065 42.4086,50.0808 42.4086,53.0706 0,2.9898 -40.071,53.1353 -42.4086,53.0706 -1.0815,-0.03 -10.9664,-11.4819 -21.9664,-25.449 z m 104.0019,4.7136 c -1.9691,-1.9691 -0.5783,-6.7773 4.951,-17.1167 4.1069,-7.6796 6.6699,-11.109 8.679,-11.6133 6.5074,-1.6333 7.102,2.4516 1.7658,12.1326 -2.0501,3.7192 -3.7376,7.1533 -3.75,7.6312 -0.013,0.478 2.6492,1.0405 5.9148,1.25 5.6792,0.3644 5.9375,0.5441 5.9375,4.131 l 0,3.75 -11.3106,0.3561 c -6.2208,0.1958 -11.7052,-0.038 -12.1875,-0.5209 z m 9.5473,-42.7285 c -2.7462,-1.7599 -20.4182,-24.6799 -20.4182,-26.4817 0,-1.9251 17.8519,-24.9114 20.5979,-26.5219 0.841,-0.4934 2.403,-0.2121 3.4709,0.625 3.8649,3.0293 19.6752,23.7598 19.6752,25.7982 0,2.0905 -17.6201,24.964 -20.4756,26.5804 -0.8324,0.4711 -2.115,0.4711 -2.8502,0 z M 886.74843,1525.8238 c -11.12881,-14.0781 -20.23421,-26.4963 -20.23421,-27.596 0,-1.0996 9.08348,-13.5156 20.18549,-27.591 14.18337,-17.9821 20.8277,-25.4802 22.34526,-25.2166 2.24093,0.3892 42.47098,50.3808 42.467,52.7713 -0.003,1.2405 -33.07924,43.9033 -39.08854,50.4163 -1.42725,1.5469 -3.2353,2.8125 -4.01788,2.8125 -0.7826,0 -10.52829,-11.5184 -21.65712,-25.5965 z m 268.85657,22.784 c -6.0964,-6.6073 -39.0865,-49.185 -39.0885,-50.4484 0,-2.3816 40.182,-52.3441 42.4144,-52.733 2.4071,-0.4194 42.5833,49.3412 42.5833,52.7419 0,2.4537 -39.9946,53.252 -41.9264,53.252 -0.7633,0 -2.5555,-1.2656 -3.9828,-2.8125 z m -125,-175 c -6.0964,-6.6073 -39.08647,-49.185 -39.08853,-50.4484 -0.004,-2.3816 40.18203,-52.344 42.41443,-52.733 2.4071,-0.4194 42.5833,49.3412 42.5833,52.7419 0,2.4537 -39.9946,53.252 -41.9264,53.252 -0.7633,0 -2.5555,-1.2656 -3.9828,-2.8125 z M 814.43838,1254.152 c -2.74616,-1.7599 -20.41819,-24.6799 -20.41819,-26.4817 0,-1.9251 17.85194,-24.9114 20.59786,-26.5219 0.8411,-0.4934 2.40304,-0.2121 3.47099,0.625 3.86489,3.0293 19.67518,23.7598 19.67518,25.7982 0,2.0905 -17.62015,24.964 -20.47565,26.5804 -0.83239,0.4711 -2.11498,0.4711 -2.85019,0 z m 72.5411,-33.9612 c -10.91215,-13.8123 -20.0152,-26.1807 -20.22902,-27.4854 -0.25109,-1.532 6.57215,-11.1434 19.26783,-27.1411 19.07493,-24.036 21.30739,-26.5844 23.32464,-26.6249 1.33554,-0.027 42.15243,51.5391 42.16281,53.2663 0.0149,2.479 -40.11877,52.3243 -42.44751,52.719 -1.61472,0.2737 -7.76709,-6.6185 -22.07875,-24.7339 z m 250.33132,-0.1246 c -10.9056,-13.7933 -20.0597,-26.022 -20.3424,-27.1748 -0.5022,-2.0482 39.663,-53.9932 41.7171,-53.952 2.0012,0.04 4.1939,2.5461 23.3115,26.6419 12.6101,15.8938 19.5266,25.631 19.2787,27.1412 -0.6123,3.7307 -39.681,52.4495 -42.0489,52.4351 -1.2139,-0.01 -10.386,-10.5084 -21.916,-25.0914 z M 808.59755,1186.837 c -1.68568,-1.6857 -0.7415,-5.4624 2.91667,-11.6667 2.0625,-3.498 3.75,-6.8669 3.75,-7.4865 0,-0.6196 -2.67187,-1.298 -5.9375,-1.5075 -5.67922,-0.3644 -5.9375,-0.5441 -5.9375,-4.131 l 0,-3.75 11.875,0 11.875,0 0.3962,3.4445 c 0.39335,3.4196 -7.74232,19.973 -11.82091,24.0516 -1.94908,1.9491 -5.66719,2.4953 -7.11696,1.0456 z"
         id="path4050"
         inkscape:connector-curvature="0" />
      <path
         style="fill:#f2a9c6"
         d="m 728.71743,1931.9636 c -7.80201,-4.2334 -7.20321,31.869 -7.20321,-434.2933 0,-377.5517 0.21218,-425.5345 1.89616,-428.7909 4.16641,-8.057 -20.72942,-7.4591 310.60382,-7.4591 331.3333,0 306.4374,-0.5979 310.6039,7.4591 1.6839,3.2564 1.8961,51.2392 1.8961,428.7909 0,377.5517 -0.2122,425.5345 -1.8961,428.7909 -4.1672,8.0585 20.7715,7.4641 -310.8543,7.4091 -264.35142,-0.044 -302.04743,-0.2795 -305.04637,-1.9067 z m 608.35637,-1.6376 c 2.0265,-1.1889 4.6572,-3.8196 5.8461,-5.8461 2.0368,-3.4718 2.1669,-28.0897 2.253,-426.3051 0.082,-377.4378 -0.1137,-423.0313 -1.8261,-426.464 -1.0546,-2.114 -3.8993,-5.0129 -6.3215,-6.4421 l -4.404,-2.5984 -298.6071,0 -298.60708,0 -4.404,2.5984 c -2.4222,1.4292 -5.26685,4.3281 -6.32145,6.4421 -1.71245,3.4327 -1.90768,49.0262 -1.82609,426.464 0.0861,398.2154 0.21619,422.8333 2.25294,426.3051 1.18887,2.0265 3.81964,4.6572 5.84614,5.8461 3.46454,2.0325 21.56176,2.1616 303.05954,2.1616 281.4978,0 299.595,-0.1291 303.0596,-2.1616 z m -575.60722,-40.4682 c -3.62985,-1.8304 -6.34052,-4.3402 -7.76292,-7.1875 -2.06638,-4.1364 -2.18556,-25.1304 -2.18556,-385 0,-359.8696 0.11918,-380.8636 2.18556,-385 1.4224,-2.8473 4.13307,-5.3571 7.76292,-7.1875 l 5.57736,-2.8125 266.97026,0 266.9703,0 5.5774,2.8125 c 3.6298,1.8304 6.3405,4.3402 7.7629,7.1875 2.0664,4.1364 2.1855,25.1304 2.1855,385 0,359.8696 -0.1191,380.8636 -2.1855,385 -1.4224,2.8473 -4.1331,5.3571 -7.7629,7.1875 l -5.5774,2.8125 -266.9703,0 -266.97026,0 -5.57736,-2.8125 z m 544.65462,-8.6554 2.893,-2.7179 0,-380.639 0,-380.6391 -2.7179,-2.893 -2.7179,-2.8931 -269.389,0 -269.38905,0 -2.89307,2.7179 -2.89306,2.7179 0,380.639 0,380.6391 2.71789,2.893 2.7179,2.8931 269.38899,0 269.3891,0 2.8931,-2.7179 z m -418.66948,-49.838 c -10.82812,-13.7217 -19.6875,-25.797 -19.6875,-26.834 0,-2.3009 38.42104,-51.0818 40.65284,-51.6144 1.59879,-0.3816 41.844,49.2944 41.82771,51.6293 -0.0144,2.0657 -40.02842,51.8793 -41.62676,51.8213 -0.81334,-0.03 -10.33816,-11.2805 -21.16629,-25.0022 z m 250.39368,-0.2566 c -11.0387,-13.9219 -20.0705,-25.875 -20.0705,-26.5625 0,-2.0612 40.0186,-51.8794 41.6277,-51.8213 1.9621,0.071 40.8616,49.4038 40.8616,51.8213 0,2.4175 -38.8995,51.7505 -40.8616,51.8213 -0.8177,0.029 -10.5184,-11.3369 -21.5572,-25.2588 z m 104.5486,4.5256 c -1.717,-1.717 -0.8236,-5.0273 3.6784,-13.629 5.2189,-9.9714 7.6097,-13.0841 10.0498,-13.0841 3.3827,0 3.132,3.9532 -0.7073,11.1566 -2.1454,4.0251 -3.9007,7.9119 -3.9007,8.6374 0,0.7255 2.6719,1.4905 5.9375,1.7 4.9772,0.3194 5.9375,0.7854 5.9375,2.881 0,2.2631 -0.953,2.534 -10.0577,2.8589 -5.5318,0.1975 -10.4536,-0.037 -10.9375,-0.5208 z m -1.465,-54.6684 c -5.1781,-6.438 -9.4148,-12.4206 -9.4148,-13.2947 0,-2.7662 18.6978,-25.0032 20.9773,-24.948 2.7168,0.066 19.6477,21.5641 19.6477,24.948 0,3.3839 -16.9309,24.8822 -19.6477,24.948 -1.2424,0.03 -6.1163,-4.8822 -11.5625,-11.6533 z M 905.05936,1546.7328 c -7.59894,-8.2334 -37.29514,-46.902 -37.29514,-48.5634 0,-2.7876 38.74519,-51.1241 40.97958,-51.1241 2.31803,0 41.71008,49.284 41.22752,51.5804 -0.42696,2.0319 -39.66489,51.5446 -40.84811,51.5446 -0.49019,0 -2.31893,-1.5469 -4.06385,-3.4375 z m 233.15734,-21.4863 c -10.9051,-13.7714 -19.9828,-25.753 -20.1726,-26.6259 -0.502,-2.3086 38.8678,-51.5753 41.2146,-51.5753 1.0889,0 10.8104,11.1539 21.6033,24.7864 15.6341,19.7473 19.4698,25.3381 18.867,27.5 -0.8697,3.1195 -38.1141,49.8455 -40.2623,50.5121 -0.7823,0.2428 -10.3448,-10.826 -21.25,-24.5973 z m -125,-175 c -10.9051,-13.7714 -19.98278,-25.753 -20.17259,-26.6259 -0.50199,-2.3086 38.86779,-51.5753 41.21459,-51.5753 1.0889,0 10.8104,11.1539 21.6033,24.7864 15.6341,19.7473 19.4698,25.3381 18.867,27.5 -0.8697,3.1195 -38.1141,49.8455 -40.2623,50.5121 -0.7823,0.2428 -10.3448,-10.826 -21.25,-24.5973 z M 804.67901,1240.965 c -5.17813,-6.438 -9.41479,-12.4206 -9.41479,-13.2947 0,-2.7662 18.69776,-25.0032 20.97729,-24.948 2.7168,0.066 19.64771,21.5641 19.64771,24.948 0,3.3839 -16.93091,24.8822 -19.64771,24.948 -1.24238,0.03 -6.11635,-4.8822 -11.5625,-11.6533 z m 82.77271,-21.9531 c -10.82812,-13.695 -19.6875,-25.7214 -19.6875,-26.7254 0,-1.004 7.93115,-11.8752 17.62479,-24.1583 18.88631,-23.9314 22.30168,-27.9579 23.71466,-27.9579 1.66044,0 40.53654,50.2847 40.46884,52.3449 -0.0872,2.6565 -38.86105,51.4064 -40.88223,51.4009 -0.85308,0 -10.41043,-11.2092 -21.23856,-24.9042 z m 250.31628,-0.2415 c -11.0538,-13.9226 -19.936,-26.0143 -19.7383,-26.8706 0.5399,-2.3379 39.8134,-51.7295 41.1325,-51.7295 1.6941,0 41.102,49.9747 41.102,52.1229 0,2.3858 -38.355,50.8775 -40.6525,51.3965 -1.0224,0.2309 -10.0736,-10.0947 -21.8437,-24.9193 z M 809.84755,1185.587 c -1.54527,-1.5453 -0.85,-4.0284 2.91667,-10.4167 5.29854,-8.9863 5.03632,-10 -2.58694,-10 -5.85666,0 -6.30666,-0.2132 -5.9375,-2.8125 0.37846,-2.6647 0.95761,-2.8125 11.02444,-2.8125 10.10005,0 10.64493,0.1404 11.02836,2.8424 0.38553,2.7168 -6.76526,17.2189 -10.77147,21.8451 -1.95915,2.2623 -4.22467,2.8031 -5.67356,1.3542 z"
         id="path4048"
         inkscape:connector-curvature="0" />
      <path
         style="fill:#ef8fb5"
         d="m 730.69608,1932.9637 c -0.79372,-0.5051 135.69944,-0.9184 303.31812,-0.9184 167.6187,0 304.1119,0.4133 303.3182,0.9184 -0.7938,0.5051 -137.2869,0.9183 -303.3182,0.9183 -166.03123,0 -302.52439,-0.4132 -303.31812,-0.9183 z m -8.42312,-8.5206 c -1.09585,-2.8558 -0.89901,-852.1172 0.1979,-853.8409 0.5051,-0.7938 0.91836,191.4406 0.91836,427.1875 0,235.7468 -0.0804,428.6306 -0.17876,428.6306 -0.0983,0 -0.5202,-0.8897 -0.9375,-1.9772 z m 622.36624,-426.7728 c 0,-235.6812 0.4133,-427.8619 0.9184,-427.0681 1.2008,1.8869 1.2008,852.2493 0,854.1362 -0.5051,0.7938 -0.9184,-191.3869 -0.9184,-427.0681 z m -583.91659,391.3524 c -2.15413,-1.3135 -4.82601,-3.6866 -5.9375,-5.2734 -1.85052,-2.642 -2.02089,-35.1991 -2.02089,-386.1886 l 0,-383.3033 2.61037,-3.3185 c 5.93562,-7.5459 -14.99914,-7.0186 278.63961,-7.0186 293.6388,0 272.704,-0.5273 278.6396,7.0186 l 2.6104,3.3185 0,383.4129 0,383.4129 -2.6104,3.3185 c -5.9358,7.5462 15.0246,7.019 -278.89,7.0139 -262.72194,-0.01 -269.21776,-0.062 -273.04119,-2.3929 z m 546.06949,-7.3246 2.8471,-2.8472 0,-381.1806 0,-381.1806 -2.8472,-2.8472 -2.8472,-2.8472 -269.9306,0 -269.93054,0 -2.84722,2.8472 -2.84722,2.8472 -0.29743,379.6528 c -0.23733,302.9488 0.0202,380.2792 1.27464,382.7532 0.86463,1.7052 2.96722,3.8084 4.67242,4.6737 2.46865,1.2529 57.78912,1.5126 271.50325,1.2747 l 268.4028,-0.2988 2.8472,-2.8472 z m -414.65288,-45.5049 c -26.2506,-33.2037 -24.74555,-30.8962 -22.44322,-34.41 5.03017,-7.677 37.21563,-47.2799 38.7037,-47.6233 0.92572,-0.2137 10.42273,10.6084 21.30715,24.2799 17.11336,21.4955 19.49536,25.0312 18.5347,27.5118 -1.65943,4.2849 -37.77227,49.219 -39.55472,49.2167 -0.85119,0 -8.29761,-8.5399 -16.54761,-18.9751 z m 246.28908,-5.4083 c -10.6777,-13.412 -19.4141,-25.2221 -19.4141,-26.2445 0,-2.856 38.6497,-50.832 40.5905,-50.3852 1.5071,0.347 33.654,39.8845 38.7388,47.6448 2.2262,3.3977 4.7572,-0.354 -27.4291,40.6598 -5.4861,6.9908 -10.6716,12.7105 -11.5233,12.7105 -0.8518,0 -10.285,-10.9735 -20.9628,-24.3854 z m 104.4214,3.8634 c -1.1627,-1.401 -0.5701,-3.5601 2.8306,-10.3125 5.6158,-11.1507 8.6122,-14.8058 11.2939,-13.7768 1.8525,0.7109 1.5813,1.8345 -2.3053,9.5523 -2.4226,4.8106 -4.4047,9.0419 -4.4047,9.4028 0,0.3609 2.0057,0.6562 4.4572,0.6562 6.1821,0 9.9316,2.0991 7.9705,4.4622 -2.0517,2.4721 -17.7933,2.4846 -19.8422,0.016 z m 2.6872,-49.27 c -9.7985,-11.774 -12.7727,-15.9378 -12.7727,-17.881 0,-2.3038 17.7489,-24.202 19.6162,-24.202 1.2561,0 20.3741,22.8722 20.3741,24.375 0,1.003 -18.8396,24.3362 -19.9894,24.7572 -0.5741,0.2101 -3.8268,-2.962 -7.2282,-7.0492 z M 888.38922,1525.0366 c -10.3125,-13.11 -19.20587,-24.6414 -19.76305,-25.6253 -0.71726,-1.2667 4.7571,-9.0813 18.74974,-26.765 10.86952,-13.7368 20.46797,-24.976 21.3299,-24.976 1.92575,0 40.30841,48.0405 40.30841,50.4508 0,2.3632 -38.53462,50.8051 -40.39098,50.7756 -0.81621,-0.013 -9.92152,-10.75 -20.23402,-23.8601 z m 262.77128,15.4462 c -26.0717,-32.7829 -32.1463,-40.7893 -32.1463,-42.3695 0,-2.8752 38.6461,-50.6532 40.6144,-50.2114 1.6126,0.3621 36.9281,43.9419 39.5107,48.7569 0.8904,1.6599 -2.0017,6.0861 -13.4767,20.625 -8.0358,10.1813 -16.8971,21.4625 -19.6919,25.0692 -2.7948,3.6068 -5.7606,6.5599 -6.5907,6.5625 -0.8301,0 -4.5289,-3.7921 -8.2195,-8.4327 z m -125,-175 c -26.0717,-32.7829 -32.14628,-40.7893 -32.14628,-42.3695 0,-2.8752 38.64608,-50.6532 40.61438,-50.2114 1.6126,0.3621 36.9281,43.9419 39.5107,48.7569 0.8904,1.6599 -2.0017,6.0861 -13.4767,20.625 -8.0358,10.1813 -16.8971,21.4625 -19.6919,25.0692 -2.7948,3.6068 -5.7606,6.5599 -6.5907,6.5625 -0.8301,0 -4.5289,-3.7921 -8.2195,-8.4327 z M 809.28686,1245.3783 c -9.79842,-11.774 -12.77264,-15.9378 -12.77264,-17.881 0,-2.3038 17.74883,-24.202 19.61613,-24.202 1.25611,0 20.37416,22.8722 20.37416,24.375 0,1.003 -18.83965,24.3362 -19.98938,24.7572 -0.57411,0.2101 -3.82683,-2.962 -7.22827,-7.0492 z m 78.37982,-27.2157 c -10.60261,-13.4792 -19.20632,-25.2497 -19.11937,-26.1568 0.22979,-2.3972 38.32245,-50.4687 40.04249,-50.5321 1.67707,-0.062 39.26211,46.8869 40.09968,50.0898 0.69757,2.6675 -36.91867,50.9378 -39.7728,51.0377 -1.11815,0.039 -10.32245,-10.5462 -21.25,-24.4386 z m 250.29322,-0.047 c -12.5115,-15.928 -18.9827,-25.1687 -18.6137,-26.5799 0.668,-2.5544 38.1816,-50.1153 39.5284,-50.1153 1.5186,0 6.445,5.7728 24.4027,28.5947 9.3998,11.9458 16.9265,22.1673 16.7262,22.7144 -1.301,3.5524 -39.3554,49.9277 -40.9237,49.8718 -1.0673,-0.038 -10.5713,-11.0565 -21.1199,-24.4856 z m -328.26267,-34.1013 c -0.39299,-0.6359 1.26131,-4.5274 3.67623,-8.6479 2.41492,-4.1204 4.39076,-8.1001 4.39076,-8.8438 0,-0.7545 -2.34836,-1.3607 -5.3125,-1.3713 -6.99181,-0.025 -9.52632,-1.5378 -7.22439,-4.3115 1.31273,-1.5817 3.57647,-1.9421 10.41366,-1.6577 12.31199,0.512 12.70242,1.6529 5.18551,15.1523 -5.71149,10.2572 -9.00309,13.1201 -11.12927,9.6799 z M 730.69608,1062.377 c 1.88688,-1.2007 604.74942,-1.2007 606.63632,0 0.7937,0.5051 -135.6995,0.9184 -303.3182,0.9184 -167.61868,0 -304.11184,-0.4133 -303.31812,-0.9184 z"
         id="path4046"
         inkscape:connector-curvature="0" />
      <path
         style="fill:#e85c94"
         d="m 730.69608,1932.9637 c -0.79372,-0.5051 135.69944,-0.9184 303.31812,-0.9184 167.6187,0 304.1119,0.4133 303.3182,0.9184 -0.7938,0.5051 -137.2869,0.9183 -303.3182,0.9183 -166.03123,0 -302.52439,-0.4132 -303.31812,-0.9183 z m -8.42312,-8.5206 c -1.09585,-2.8558 -0.89901,-852.1172 0.1979,-853.8409 0.5051,-0.7938 0.91836,191.4406 0.91836,427.1875 0,235.7468 -0.0804,428.6306 -0.17876,428.6306 -0.0983,0 -0.5202,-0.8897 -0.9375,-1.9772 z m 622.36624,-426.7728 c 0,-235.6812 0.4133,-427.8619 0.9184,-427.0681 1.2008,1.8869 1.2008,852.2493 0,854.1362 -0.5051,0.7938 -0.9184,-191.3869 -0.9184,-427.0681 z m -581.24998,391.9854 c -2.0625,-0.9166 -5.15625,-3.1899 -6.875,-5.0517 l -3.125,-3.3851 0,-383.5672 0,-383.5672 3.67894,-3.84 c 2.02342,-2.112 5.67967,-4.3958 8.125,-5.0751 6.10263,-1.6954 531.53944,-1.6954 537.64214,0 2.4453,0.6793 6.1016,2.9631 8.125,5.0751 l 3.6789,3.84 0,383.5672 0,383.5672 -3.125,3.3868 c -6.7026,7.2641 11.5816,6.8188 -277.7723,6.7657 -219.38265,-0.04 -267.26687,-0.3442 -270.35268,-1.7157 z m 543.80678,-7.5536 3.0682,-3.0682 0,-381.3636 0,-381.3636 -3.0682,-3.0682 -3.0681,-3.0682 -270.1137,0 -270.11362,0 -3.06818,3.0682 -3.06818,3.0682 0,381.3636 0,381.3636 3.06818,3.0682 3.06818,3.0682 270.11362,0 270.1137,0 3.0681,-3.0682 z m -418.79614,-51.681 c -11.10239,-14.0342 -19.27084,-25.4574 -18.99191,-26.5594 0.92409,-3.6508 38.46099,-49.8235 39.98071,-49.1787 2.11836,0.8988 39.00056,47.9923 39.00056,49.7984 0,1.8072 -36.88231,49.0132 -39.00401,49.9216 -0.86868,0.3719 -9.73353,-9.7587 -20.98535,-23.9819 z m 269.90174,23.7665 c -2.6117,-1.7422 -39.48,-49.0623 -39.0746,-50.1518 0.837,-2.2499 37.9647,-48.7385 39.4162,-49.3542 1.5139,-0.6421 40.371,47.3538 40.371,49.8658 0,1.1174 -33.6515,44.6354 -37.9024,49.0152 -0.8099,0.8345 -2.0745,1.1158 -2.8102,0.625 z m 84.4784,-21.2048 c 0.025,-3.495 10.7202,-22.1469 12.9541,-22.5916 3.0447,-0.6062 2.4934,1.8537 -2.4183,10.7894 -2.4466,4.4511 -3.9935,8.5404 -3.4375,9.0874 0.556,0.547 3.4985,1.1706 6.5388,1.3859 3.0403,0.2153 5.759,1.0945 6.0416,1.9539 0.3826,1.1635 -2.0663,1.5625 -9.5903,1.5625 -8.7957,0 -10.1021,-0.2833 -10.0884,-2.1875 z m -0.38,-52.2339 c -4.669,-5.8539 -8.7695,-11.3742 -9.1123,-12.2673 -0.6747,-1.7584 16.2182,-23.7088 18.6931,-24.2896 1.5821,-0.3713 19.5334,21.2054 19.5334,23.4783 0,1.9369 -17.7327,23.7524 -19.2937,23.736 -0.7322,-0.01 -5.1514,-4.8035 -9.8205,-10.6574 z m -353.5393,-256.242 c -10.57182,-13.4004 -19.19157,-25.3425 -19.155,-26.538 0.0783,-2.5591 37.85822,-50.5866 39.36594,-50.0436 0.56518,0.2035 9.83619,11.4976 20.60226,25.0981 18.66527,23.5793 19.49004,24.8569 17.75342,27.5 -3.04408,4.6331 -36.79251,46.7703 -38.11257,47.5862 -0.67793,0.4189 -9.88225,-10.2022 -20.45405,-23.6027 z m 269.4753,23.4239 c -1.7191,-1.187 -39.3218,-48.7376 -39.3218,-49.7245 0,-1.1991 39.2636,-50.536 40.218,-50.536 1.2474,0 38.8027,47.6192 39.3647,49.9135 0.2759,1.1263 -7.5479,12.0746 -18.3738,25.7115 -21.998,27.7101 -20.2628,25.757 -21.8871,24.6355 z m -125,-175 c -1.7191,-1.187 -39.32178,-48.7376 -39.32178,-49.7245 0,-1.1991 39.26358,-50.536 40.21798,-50.536 1.2474,0 38.8027,47.6192 39.3647,49.9135 0.2759,1.1263 -7.5479,12.0746 -18.3738,25.7115 -21.998,27.7101 -20.2628,25.757 -21.8871,24.6355 z M 806.15004,1240.7489 c -4.66905,-5.8539 -8.76959,-11.3742 -9.11231,-12.2673 -0.67473,-1.7584 16.21814,-23.7088 18.69308,-24.2896 1.5821,-0.3713 19.53341,21.2054 19.53341,23.4783 0,1.9369 -17.73269,23.7524 -19.29376,23.736 -0.73218,-0.01 -5.15137,-4.8035 -9.82042,-10.6574 z m 95.01046,-6.5161 c -25.56,-32.1394 -32.14451,-40.7479 -32.13128,-42.0078 0.0275,-2.6232 37.6164,-48.9297 39.71822,-48.9297 2.1232,0 40.66933,47.6213 40.0082,49.4276 -0.76429,2.0882 -39.02977,49.9474 -39.93507,49.9474 -0.52243,0 -3.96946,-3.7969 -7.66007,-8.4375 z m 237.7765,-15.9778 c -10.6138,-13.4567 -19.4627,-24.9317 -19.6642,-25.5 -0.6454,-1.82 37.867,-49.4597 39.9837,-49.4597 2.075,0 39.7063,46.3298 39.7395,48.9253 0.022,1.715 -37.5941,49.4455 -39.457,50.0664 -0.7173,0.2392 -9.9883,-10.5752 -20.602,-24.032 z m -328.67278,-34.4354 c 0,-0.8437 1.99897,-5.1085 4.44216,-9.4774 2.44319,-4.3688 4.09749,-8.501 3.67623,-9.1826 -0.42126,-0.6816 -3.54523,-1.2393 -6.94216,-1.2393 -4.65665,0 -6.17623,-0.4613 -6.17623,-1.875 0,-1.5104 1.94444,-1.875 10,-1.875 9.5557,0 9.9972,0.125 9.937,2.8125 -0.087,3.8828 -10.42495,21.4702 -12.91214,21.9667 -1.11367,0.2222 -2.02486,-0.2862 -2.02486,-1.1299 z m -79.56814,-121.4427 c 1.88688,-1.2007 604.74942,-1.2007 606.63632,0 0.7937,0.5051 -135.6995,0.9184 -303.3182,0.9184 -167.61868,0 -304.11184,-0.4133 -303.31812,-0.9184 z"
         id="path4044"
         inkscape:connector-curvature="0" />
      <path
         style="fill:#e01b6a"
         d="m 883.07672,1932.9828 c 83.01563,-0.1774 218.85938,-0.1774 301.87498,0 83.0156,0.1775 15.0938,0.3226 -150.9375,0.3226 -166.03123,0 -233.9531,-0.1451 -150.93748,-0.3226 z M 722.13199,1497.6703 c 0,-234.0937 0.14387,-329.8594 0.31971,-212.8125 0.17584,117.0469 0.17584,308.5781 0,425.625 -0.17584,117.0469 -0.31971,21.2813 -0.31971,-212.8125 z m 623.75001,0 c 0,-234.0937 0.1439,-329.8594 0.3197,-212.8125 0.1758,117.0469 0.1758,308.5781 0,425.625 -0.1758,117.0469 -0.3197,21.2813 -0.3197,-212.8125 z m -582.49278,390.7514 c -2.0625,-0.9129 -4.875,-2.9207 -6.25,-4.4618 -2.48705,-2.7875 -2.50154,-4.7813 -2.79741,-384.8583 -0.23484,-301.6803 0.0281,-382.6884 1.25,-385.0608 0.85108,-1.6525 3.13553,-4.1837 5.07657,-5.625 l 3.52917,-2.6205 269.81665,0 269.8167,0 3.5292,2.6205 c 1.941,1.4413 4.224,3.9725 5.0732,5.625 2.2618,4.4012 2.2618,762.8579 0,767.259 -0.8492,1.6525 -3.1322,4.1837 -5.0732,5.625 l -3.529,2.6205 -268.346,0.2682 c -220.80002,0.2206 -269.01031,-0.026 -272.09588,-1.3918 z m 543.99278,-5.0182 3.5072,-3.0167 0,-382.7165 0,-382.7165 -3.5072,-3.0167 -3.5072,-3.0168 -269.8606,0 -269.86057,0 -3.5072,3.0168 -3.50721,3.0167 0,382.7165 0,382.7165 3.50721,3.0167 3.5072,3.0168 269.86057,0 269.8606,0 3.5072,-3.0168 z m -418.22477,-53.5481 c -10.65264,-13.5027 -18.77021,-24.9018 -18.49978,-25.9783 0.26502,-1.055 8.81643,-12.4365 19.00312,-25.2922 14.52695,-18.3332 18.87761,-23.0784 20.17361,-22.0028 2.305,1.913 37.93004,46.9615 37.93004,47.9632 0,1.0075 -35.63186,46.0559 -37.95152,47.981 -1.32491,1.0996 -5.63069,-3.6263 -20.65547,-22.6709 z m 267.16917,20.6356 c -4.9982,-5.4306 -36.0622,-44.988 -36.0622,-45.9222 0,-1.0181 35.5919,-46.0462 37.9316,-47.988 1.2983,-1.0775 5.7289,3.7918 20.6111,22.6519 10.4265,13.2134 18.9573,24.6096 18.9573,25.325 0,1.0155 -33.4148,44.3389 -37.3561,48.4333 -0.5007,0.5202 -2.3375,-0.6048 -4.0817,-2.5 z m 87.6878,-17.9423 c 0,-2.24 10.1818,-21.1284 11.3893,-21.1284 1.6695,0 1.4766,0.586 -3.3445,10.1593 -2.4504,4.8658 -4.1034,9.1988 -3.6733,9.6288 0.43,0.4301 3.7005,1.137 7.2677,1.5709 6.3391,0.7712 6.2808,0.793 -2.5767,0.965 -5.851,0.1136 -9.0625,-0.3101 -9.0625,-1.1956 z m -1.25,-52.8575 c -4.4687,-5.7013 -8.125,-11.1107 -8.125,-12.0209 0,-2.096 15.8201,-22.3723 17.5,-22.4295 1.49,-0.051 18.125,20.535 18.125,22.4295 0,1.8945 -16.635,22.4802 -18.125,22.4295 -0.6875,-0.023 -4.9062,-4.7073 -9.375,-10.4086 z M 889.01422,1523.2658 c -9.96875,-12.7097 -18.09433,-24.1003 -18.05684,-25.3127 0.0375,-1.2122 8.42128,-12.7373 18.63064,-25.6112 15.40916,-19.4308 18.8689,-23.1528 20.3663,-21.9101 2.34675,1.9476 37.8099,46.7553 37.8099,47.7727 0,1.7099 -37.78011,48.2142 -39.15174,48.1927 -0.8103,-0.013 -9.62951,-10.4218 -19.59826,-23.1314 z m 250.00868,-0.6664 c -10.4059,-13.1015 -18.7429,-24.3058 -18.5267,-24.8985 0.6447,-1.7677 37.83,-48.6858 38.6254,-48.7352 1.4857,-0.092 37.8799,46.9051 37.9475,49.0032 0.083,2.5787 -35.5136,48.3417 -37.6531,48.4066 -0.8103,0.025 -9.9872,-10.6746 -20.3931,-23.7761 z m -125,-175 c -10.4059,-13.1015 -18.74289,-24.3058 -18.52672,-24.8985 0.64476,-1.7677 37.83002,-48.6858 38.62542,-48.7352 1.4857,-0.092 37.8799,46.9051 37.9475,49.0032 0.083,2.5787 -35.5136,48.3417 -37.6531,48.4066 -0.8103,0.025 -9.9872,-10.6746 -20.3931,-23.7761 z M 806.51422,1239.6912 c -4.46875,-5.7013 -8.125,-11.1107 -8.125,-12.0209 0,-2.096 15.82006,-22.3723 17.5,-22.4295 1.48997,-0.051 18.125,20.535 18.125,22.4295 0,1.8945 -16.63503,22.4802 -18.125,22.4295 -0.6875,-0.023 -4.90625,-4.7072 -9.375,-10.4086 z m 82.62834,-22.1458 c -10.44865,-13.1768 -18.83011,-24.737 -18.62545,-25.6894 0.59146,-2.7521 36.46121,-47.8328 38.10261,-47.8869 1.41828,-0.047 39.17824,46.7663 39.11272,48.4901 -0.0412,1.0867 -37.49373,48.2251 -38.68521,48.6901 -0.49891,0.1947 -9.45601,-10.427 -19.90467,-23.6039 z m 250.49664,-0.021 c -10.3125,-13.1304 -18.679,-24.6138 -18.5923,-25.5185 0.2377,-2.4793 36.6856,-48.0947 38.3758,-48.0281 2.1473,0.084 37.7292,45.9059 37.6457,48.4792 -0.069,2.1307 -36.3275,48.9738 -37.8907,48.952 -0.4337,-0.01 -9.226,-10.7542 -19.5385,-23.8846 z m -328.12498,-34.4381 c 0,-0.4585 1.98979,-4.4537 4.42175,-8.8781 5.21012,-9.4786 4.60972,-11.1724 -4.20884,-11.8735 -4.37909,-0.3481 -3.59173,-0.5204 3.15082,-0.6894 4.9438,-0.1239 9.25539,0.2062 9.58131,0.7335 0.78253,1.2662 -10.32527,21.5412 -11.80147,21.5412 -0.62897,0 -1.14357,-0.3752 -1.14357,-0.8337 z m 71.5625,-121.3538 c 83.01563,-0.1774 218.85938,-0.1774 301.87498,0 83.0156,0.1775 15.0938,0.3226 -150.9375,0.3226 -166.03123,0 -233.9531,-0.1451 -150.93748,-0.3226 z"
         id="path4042"
         inkscape:connector-curvature="0" />
      <path
         style="fill:#dd0058"
         d="m 883.07672,1932.9828 c 83.01563,-0.1774 218.85938,-0.1774 301.87498,0 83.0156,0.1775 15.0938,0.3226 -150.9375,0.3226 -166.03123,0 -233.9531,-0.1451 -150.93748,-0.3226 z M 722.13199,1497.6703 c 0,-234.0937 0.14387,-329.8594 0.31971,-212.8125 0.17584,117.0469 0.17584,308.5781 0,425.625 -0.17584,117.0469 -0.31971,21.2813 -0.31971,-212.8125 z m 623.75001,0 c 0,-234.0937 0.1439,-329.8594 0.3197,-212.8125 0.1758,117.0469 0.1758,308.5781 0,425.625 -0.1758,117.0469 -0.3197,21.2813 -0.3197,-212.8125 z m -445.93028,390.3126 c 73.73438,-0.1781 194.39058,-0.1781 268.12498,0 73.7344,0.1781 13.4063,0.3238 -134.0625,0.3238 -147.46873,0 -207.79685,-0.1457 -134.06248,-0.3238 z m -10.28629,-59.6334 c -10.09507,-12.7566 -18.16827,-23.7206 -17.94045,-24.3646 0.96309,-2.7221 36.37201,-46.4099 37.33684,-46.0664 2.4766,0.8816 37.35251,46.403 36.55179,47.7088 -2.12385,3.4636 -35.63487,45.2068 -36.5606,45.542 -0.5681,0.2057 -9.2925,-10.0632 -19.38758,-22.8198 z m 251.21847,1.0051 c -9.6221,-12.1361 -17.9087,-22.7596 -18.4147,-23.6078 -0.5755,-0.9645 5.8893,-10.1401 17.2594,-24.4968 9.9987,-12.6251 18.652,-23.123 19.2296,-23.3287 1.0417,-0.371 37.556,44.9597 37.556,46.624 0,1.2765 -36.257,46.875 -37.272,46.875 -0.475,0 -8.7362,-9.9295 -18.3583,-22.0657 z m 104.3195,-48.6611 c -11.3504,-14.2868 -10.8258,-12.2721 -5.1137,-19.6408 2.7745,-3.5791 6.632,-8.3951 8.5722,-10.7024 l 3.5277,-4.195 7.5324,9.195 c 4.1427,5.0573 7.9771,9.9235 8.5208,10.8138 0.9368,1.5341 -2.9261,7.2908 -12.6619,18.8688 l -3.5633,4.2376 -6.8142,-8.577 z M 889.80422,1522.1902 c -10.0595,-12.6931 -18.27492,-23.5434 -18.25649,-24.1117 0.061,-1.8826 35.7712,-46.0332 37.2329,-46.0332 0.78859,0 9.60863,10.3435 19.60008,22.9855 l 18.16629,22.9855 -3.42268,4.5145 c -9.51376,12.5486 -33.24654,42.0601 -34.07834,42.3762 -0.52346,0.1989 -9.18226,-10.0237 -19.24176,-22.7168 z m 251.08498,0.8724 c -9.625,-12.1508 -17.9227,-22.7864 -18.4393,-23.6346 -1.0616,-1.7429 34.353,-47.3827 36.7671,-47.3827 1.4824,0 37.2018,44.1256 37.2637,46.0332 0.043,1.3232 -36.1976,47.0944 -37.28,47.0842 -0.4463,0 -8.6865,-9.9493 -18.3115,-22.1001 z m -125,-175 c -9.625,-12.1508 -17.92267,-22.7864 -18.43927,-23.6346 -1.06161,-1.7429 34.35297,-47.3827 36.76707,-47.3827 1.4824,0 37.2018,44.1256 37.2637,46.0332 0.043,1.3232 -36.1976,47.0944 -37.28,47.0842 -0.4463,0 -8.6865,-9.9493 -18.3115,-22.1001 z M 808.95343,1240.6935 c -11.35042,-14.2868 -10.82588,-12.2721 -5.11371,-19.6408 2.77445,-3.5791 6.63195,-8.3951 8.5722,-10.7024 l 3.52773,-4.195 7.53232,9.195 c 4.14277,5.0573 7.97716,9.9235 8.52085,10.8138 0.93683,1.5341 -2.92615,7.2908 -12.66187,18.8688 l -3.56331,4.2376 -6.81421,-8.577 z m 82.01624,-22.922 c -9.24431,-11.6318 -17.4822,-22.2286 -18.30641,-23.5484 -1.32567,-2.1227 0.63866,-5.0946 17.02382,-25.7561 10.18732,-12.8462 18.91491,-23.2025 19.39468,-23.0142 0.65096,0.2556 26.92938,33.098 36.41021,45.505 0.69971,0.9157 -5.3738,9.5987 -17.26807,24.6875 -10.09108,12.8012 -18.81969,23.275 -19.39691,23.275 -0.57722,0 -8.61302,-9.5169 -17.85732,-21.1488 z m 248.80823,-2.1178 c -11.9634,-15.1813 -17.9573,-23.7603 -17.2485,-24.6875 9.5916,-12.5454 35.7661,-45.2577 36.4173,-45.5134 0.4797,-0.1883 9.2073,10.168 19.3947,23.0142 16.3851,20.6615 18.3494,23.6334 17.0238,25.7561 -3.348,5.3611 -35.1915,44.6972 -36.1834,44.6972 -0.588,0 -9.3198,-10.4699 -19.4039,-23.2666 z M 899.95172,1106.7329 c 73.73438,-0.1781 194.39058,-0.1781 268.12498,0 73.7344,0.1781 13.4063,0.3238 -134.0625,0.3238 -147.46873,0 -207.79685,-0.1457 -134.06248,-0.3238 z m -16.875,-45.0001 c 83.01563,-0.1774 218.85938,-0.1774 301.87498,0 83.0156,0.1775 15.0938,0.3226 -150.9375,0.3226 -166.03123,0 -233.9531,-0.1451 -150.93748,-0.3226 z"
         id="path4040"
         inkscape:connector-curvature="0" />
      <path
         style="fill:#111111"
         d="m 883.07672,1932.9828 c 83.01563,-0.1774 218.85938,-0.1774 301.87498,0 83.0156,0.1775 15.0938,0.3226 -150.9375,0.3226 -166.03123,0 -233.9531,-0.1451 -150.93748,-0.3226 z M 722.13199,1497.6703 c 0,-234.0937 0.14387,-329.8594 0.31971,-212.8125 0.17584,117.0469 0.17584,308.5781 0,425.625 -0.17584,117.0469 -0.31971,21.2813 -0.31971,-212.8125 z m 623.75001,0 c 0,-234.0937 0.1439,-329.8594 0.3197,-212.8125 0.1758,117.0469 0.1758,308.5781 0,425.625 -0.1758,117.0469 -0.3197,21.2813 -0.3197,-212.8125 z M 883.07672,1061.7328 c 83.01563,-0.1774 218.85938,-0.1774 301.87498,0 83.0156,0.1775 15.0938,0.3226 -150.9375,0.3226 -166.03123,0 -233.9531,-0.1451 -150.93748,-0.3226 z"
         id="path4038"
         inkscape:connector-curvature="0" />
    </g>
  </g>
</svg>
