<?xml version="1.0" encoding="UTF-8" standalone="no"?>
<!-- Created with Inkscape (http://www.inkscape.org/) -->

<svg
   xmlns:dc="http://purl.org/dc/elements/1.1/"
   xmlns:cc="http://creativecommons.org/ns#"
   xmlns:rdf="http://www.w3.org/1999/02/22-rdf-syntax-ns#"
   xmlns:svg="http://www.w3.org/2000/svg"
   xmlns="http://www.w3.org/2000/svg"
   xmlns:sodipodi="http://sodipodi.sourceforge.net/DTD/sodipodi-0.dtd"
   xmlns:inkscape="http://www.inkscape.org/namespaces/inkscape"
   width="176.45316mm"
   height="246.2702mm"
   viewBox="0 0 625.22772 872.61095"
   id="svg2"
   version="1.1"
   inkscape:version="0.91 r13725"
   sodipodi:docname="As.svg">
  <defs
     id="defs4" />
  <sodipodi:namedview
     id="base"
     pagecolor="#ffffff"
     bordercolor="#666666"
     borderopacity="1.0"
     inkscape:pageopacity="0.0"
     inkscape:pageshadow="2"
     inkscape:zoom="0.35"
     inkscape:cx="155.20293"
     inkscape:cy="-45.735508"
     inkscape:document-units="px"
     inkscape:current-layer="layer1"
     showgrid="false"
     fit-margin-top="0"
     fit-margin-left="0"
     fit-margin-right="0"
     fit-margin-bottom="0"
     inkscape:window-width="784"
     inkscape:window-height="822"
     inkscape:window-x="800"
     inkscape:window-y="0"
     inkscape:window-maximized="0" />
  <metadata
     id="metadata7">
    <rdf:RDF>
      <cc:Work
         rdf:about="">
        <dc:format>image/svg+xml</dc:format>
        <dc:type
           rdf:resource="http://purl.org/dc/dcmitype/StillImage" />
        <dc:title></dc:title>
      </cc:Work>
    </rdf:RDF>
  </metadata>
  <g
     inkscape:label="Calque 1"
     inkscape:groupmode="layer"
     id="layer1"
     transform="translate(121.63152,385.98413)">
    <g
       transform="translate(-828.74608,-458.72191)"
       id="g3946">
      <path
         style="fill:#fdfdfd"
         d="m 707.22852,509.0988 0,-436.249999 312.49998,0 312.5,0 0,436.249999 0,436.25 -312.5,0 -312.49998,0 0,-436.25 z"
         id="path3962"
         inkscape:connector-curvature="0" />
      <path
         style="fill:#f8dce8"
         d="m 713.35375,943.79054 c -1.89593,-0.75393 -3.84873,-2.94868 -4.6875,-5.26826 -2.06679,-5.7156 -2.07005,-853.122329 -0.003,-858.837809 0.96852,-2.678387 2.72286,-4.43273 5.40125,-5.401248 5.69847,-2.060592 605.6302,-2.060592 611.3286,0 2.6784,0.968518 4.4328,2.722861 5.4013,5.401248 2.0638,5.707309 2.0638,853.121359 0,858.828659 -0.9685,2.67838 -2.7229,4.43273 -5.4013,5.40125 -5.3415,1.93153 -607.17661,1.80976 -612.03904,-0.12388 z m 609.30315,-3.57958 c 1.6752,-0.76331 3.6705,-2.75853 4.4338,-4.43381 1.0084,-2.2132 1.3878,-118.86906 1.3878,-426.67835 0,-307.80929 -0.3794,-424.465151 -1.3878,-426.678343 -0.7633,-1.675287 -2.7586,-3.670504 -4.4338,-4.433816 -4.3419,-1.978277 -601.51488,-1.978277 -605.85672,0 -1.67529,0.763312 -3.67051,2.758529 -4.43382,4.433816 -1.98519,4.357023 -1.98048,849.010003 0.005,853.367143 0.76593,1.68104 2.59406,3.63818 4.0625,4.34921 3.90912,1.89283 602.07104,1.96599 606.22324,0.0741 z M 747.25406,902.5363 c -3.0273,-1.54687 -6.66211,-4.40062 -8.07736,-6.34166 l -2.57318,-3.52916 0,-383.56668 0,-383.56667 2.57318,-3.52917 c 1.41525,-1.94104 5.05006,-4.79478 8.07736,-6.34166 l 5.50418,-2.8125 266.97026,0 266.9703,0 5.5042,2.8125 c 3.0273,1.54688 6.6621,4.40062 8.0773,6.34166 l 2.5732,3.52917 0,383.56667 0,383.56668 -2.5732,3.52916 c -1.4152,1.94104 -5.05,4.79479 -8.0773,6.34166 l -5.5042,2.8125 -266.9703,0 -266.97026,0 -5.50418,-2.8125 z m 543.93854,-10.50624 c 2.205,-1.99552 2.2859,-15.53855 2.2859,-382.71407 0,-352.44035 -0.1533,-380.81472 -2.0687,-382.93126 -1.992,-2.2011 -12.0658,-2.28593 -271.4641,-2.28593 -248.92104,0 -269.56906,0.15723 -271.68125,2.06874 -2.20504,1.99552 -2.28593,15.53854 -2.28593,382.71407 0,352.44035 0.15329,380.81472 2.06873,382.93127 1.99197,2.2011 12.06574,2.28592 271.46405,2.28592 248.9211,0 269.5691,-0.15722 271.6813,-2.06874 z m -58.1922,-45.6703 c -2.9815,-4.57183 -9.5219,-20.62338 -9.5219,-23.36867 0,-1.37211 0.5945,-2.86215 1.3211,-3.3112 2.2634,-1.3989 7.2241,0.5545 8.0548,3.17181 0.6122,1.92874 1.8923,2.4971 5.6241,2.4971 3.7319,0 5.0119,-0.56836 5.6241,-2.4971 0.9143,-2.88065 6.4328,-4.69602 8.3741,-2.75475 1.9452,1.94525 0.2558,8.37499 -4.9928,19.00185 -4.1807,8.4646 -5.0174,9.41248 -8.6159,9.76096 -3.0414,0.29453 -4.4314,-0.2977 -5.8676,-2.5 z m 3.4027,-40.7486 c -2.7401,-1.69348 -20.4149,-24.64741 -20.4149,-26.51236 0,-1.97077 17.8193,-24.9766 20.5427,-26.52195 0.8694,-0.49331 2.475,-0.21206 3.5681,0.625 3.8857,2.97579 19.6295,23.74633 19.6295,25.89695 0,2.2704 -15.9903,23.22943 -19.7503,25.88736 -1.1767,0.8318 -2.7855,1.11305 -3.5751,0.625 z M 997.42777,536.07264 c -11.10959,-14.0394 -20.19925,-26.17763 -20.19925,-26.97384 0,-2.89456 40.34268,-52.5 42.69678,-52.5 2.7042,0 42.3032,49.16069 42.3032,52.51776 0,3.37523 -39.567,52.48224 -42.2866,52.48224 -1.5182,0 -9.2666,-8.78505 -22.51413,-25.52616 z M 800.15307,265.61116 c -2.74004,-1.69348 -20.41484,-24.64741 -20.41484,-26.51236 0,-1.97077 17.81923,-24.9766 20.54266,-26.52195 0.8694,-0.49331 2.47503,-0.21206 3.56807,0.625 3.88576,2.97579 19.62956,23.74633 19.62956,25.89695 0,2.2704 -15.99031,23.22943 -19.75029,25.88736 -1.17669,0.8318 -2.78551,1.11305 -3.57516,0.625 z m -14.10611,-68.3049 c -1.18316,-1.42561 -0.55677,-3.92036 3.06007,-12.1875 6.31102,-14.42534 7.4927,-16.01996 11.87149,-16.01996 4.38231,0 5.55826,1.58969 11.90227,16.08996 4.08017,9.32589 4.37339,10.67009 2.69392,12.34956 -2.46548,2.46549 -7.91651,1.13347 -8.97211,-2.19242 -0.61525,-1.93846 -1.89228,-2.4971 -5.70832,-2.4971 -2.70367,0 -4.91576,0.52232 -4.91576,1.16071 0,1.9614 -3.80208,5.08929 -6.18623,5.08929 -1.24171,0 -2.92711,-0.80664 -3.74533,-1.79254 z"
         id="path3960"
         inkscape:connector-curvature="0" />
      <path
         style="fill:#f2a9c6"
         d="m 714.43173,943.39206 c -7.80201,-4.23332 -7.20321,31.86902 -7.20321,-434.29326 0,-377.55168 0.21218,-425.534469 1.89616,-428.790915 4.16641,-8.056952 -20.72942,-7.459084 310.60382,-7.459084 331.3333,0 306.4374,-0.597868 310.6039,7.459084 1.6839,3.256446 1.8961,51.239235 1.8961,428.790915 0,377.55168 -0.2122,425.53448 -1.8961,428.79091 -4.1672,8.05847 20.7715,7.46407 -310.8543,7.40904 -264.35142,-0.0439 -302.04743,-0.27947 -305.04637,-1.90669 z m 608.35637,-1.63756 c 2.0265,-1.18887 4.6572,-3.81964 5.8461,-5.84614 2.0368,-3.47178 2.1669,-28.08965 2.253,-426.30501 0.082,-377.4378 -0.1137,-423.031379 -1.8261,-426.46408 -1.0546,-2.113994 -3.8993,-5.012915 -6.3215,-6.442047 l -4.404,-2.598422 -298.6071,0 -298.60708,0 -4.404,2.598422 c -2.4222,1.429132 -5.26685,4.328053 -6.32145,6.442047 -1.71245,3.432701 -1.90768,49.02628 -1.82609,426.46408 0.0861,398.21536 0.21619,422.83323 2.25294,426.30501 1.18887,2.0265 3.81964,4.65727 5.84614,5.84614 3.46454,2.0325 21.56176,2.16158 303.05954,2.16158 281.4978,0 299.595,-0.12908 303.0596,-2.16158 z M 747.18088,901.2863 c -3.62985,-1.83042 -6.34052,-4.34017 -7.76292,-7.1875 -2.06638,-4.13644 -2.18556,-25.13035 -2.18556,-385 0,-359.86964 0.11918,-380.86357 2.18556,-385 1.4224,-2.84733 4.13307,-5.35707 7.76292,-7.1875 l 5.57736,-2.8125 266.97026,0 266.9703,0 5.5774,2.8125 c 3.6298,1.83043 6.3405,4.34017 7.7629,7.1875 2.0664,4.13643 2.1855,25.13036 2.1855,385 0,359.86965 -0.1191,380.86356 -2.1855,385 -1.4224,2.84733 -4.1331,5.35708 -7.7629,7.1875 l -5.5774,2.8125 -266.9703,0 -266.97026,0 -5.57736,-2.8125 z m 544.65462,-8.65539 2.893,-2.7179 0,-380.63903 0,-380.63905 -2.7179,-2.89307 -2.7179,-2.89306 -269.389,0 -269.38905,0 -2.89307,2.71789 -2.89306,2.7179 0,380.63904 0,380.63905 2.71789,2.89306 2.7179,2.89306 269.38899,0 269.3891,0 2.8931,-2.71789 z m -61.6335,-54.40273 c -5.6937,-12.49408 -6.4733,-16.32417 -3.551,-17.44557 1.5602,-0.59871 3.0238,0.14425 4.8868,2.48075 1.9512,2.44697 3.8,3.33544 6.9407,3.33544 3.1407,0 4.9896,-0.88847 6.9407,-3.33544 1.8631,-2.3365 3.3266,-3.07946 4.8868,-2.48075 2.9224,1.1214 2.1427,4.95149 -3.551,17.44557 -4.0995,8.9957 -4.6371,9.62062 -8.2765,9.62062 -3.6394,0 -4.177,-0.62492 -8.2765,-9.62062 z m 9.5265,-2.87938 c 0,-0.6875 -0.5625,-1.25 -1.25,-1.25 -0.6875,0 -1.25,0.5625 -1.25,1.25 0,0.6875 0.5625,1.25 1.25,1.25 0.6875,0 1.25,-0.5625 1.25,-1.25 z m -13.0852,-42.95535 c -5.1781,-6.43794 -9.4148,-12.42054 -9.4148,-13.29465 0,-2.76619 18.6978,-25.00319 20.9773,-24.94801 2.7168,0.0658 19.6477,21.56407 19.6477,24.94801 0,3.38394 -16.9309,24.88225 -19.6477,24.94801 -1.2424,0.0301 -6.1163,-4.8822 -11.5625,-11.65336 z M 998.47852,535.75358 c -10.65625,-13.53408 -19.54969,-25.31204 -19.7632,-26.17327 -0.64076,-2.58457 38.51598,-51.10651 41.24238,-51.10651 2.6393,0 41.0068,47.36675 41.0068,50.625 0,2.84883 -38.2823,50.57883 -40.8598,50.94359 -1.6026,0.2268 -7.8336,-6.77135 -21.62618,-24.28881 z M 790.39331,252.39345 c -5.17813,-6.43794 -9.41479,-12.42054 -9.41479,-13.29465 0,-2.76619 18.69776,-25.00319 20.97729,-24.94801 2.7168,0.0658 19.64771,21.56407 19.64771,24.94801 0,3.38394 -16.93091,24.88225 -19.64771,24.94801 -1.24238,0.0301 -6.11635,-4.8822 -11.5625,-11.65336 z m -3.54671,-56.23693 c -0.35716,-0.93076 1.72235,-6.97763 4.62113,-13.4375 5.1528,-11.48288 5.36523,-11.74522 9.51079,-11.74522 4.14556,0 4.35799,0.26234 9.51079,11.74522 2.89878,6.45987 4.97829,12.50674 4.62113,13.4375 -1.05141,2.73993 -5.16119,1.94121 -7.37187,-1.43272 -1.58475,-2.41864 -3.11276,-3.125 -6.76005,-3.125 -3.64729,0 -5.1753,0.70636 -6.76005,3.125 -2.21068,3.37393 -6.32046,4.17265 -7.37187,1.43272 z m 15.38192,-13.30772 c 0,-0.6875 -0.5625,-1.25 -1.25,-1.25 -0.6875,0 -1.25,0.5625 -1.25,1.25 0,0.6875 0.5625,1.25 1.25,1.25 0.6875,0 1.25,-0.5625 1.25,-1.25 z"
         id="path3958"
         inkscape:connector-curvature="0" />
      <path
         style="fill:#ef8fb5"
         d="m 716.41038,944.39216 c -0.79372,-0.5051 135.69944,-0.91836 303.31812,-0.91836 167.6187,0 304.1119,0.41326 303.3182,0.91836 -0.7938,0.5051 -137.2869,0.91835 -303.3182,0.91835 -166.03123,0 -302.52439,-0.41325 -303.31812,-0.91835 z m -8.42312,-8.5206 c -1.09585,-2.85572 -0.89901,-852.11718 0.1979,-853.840895 0.5051,-0.793724 0.91836,191.440645 0.91836,427.187495 0,235.74685 -0.0804,428.63064 -0.17876,428.63064 -0.0983,0 -0.5202,-0.88975 -0.9375,-1.97724 z M 1330.3535,509.0988 c 0,-235.6812 0.4133,-427.861859 0.9184,-427.068135 1.2008,1.886972 1.2008,852.249295 0,854.136275 -0.5051,0.79372 -0.9184,-191.38694 -0.9184,-427.06814 z M 746.43691,900.45123 c -2.15413,-1.31353 -4.82601,-3.68659 -5.9375,-5.27347 -1.85052,-2.64198 -2.02089,-35.19911 -2.02089,-386.18852 l 0,-383.30329 2.61037,-3.31855 c 5.93562,-7.54592 -14.99914,-7.0186 278.63961,-7.0186 293.6388,0 272.704,-0.52732 278.6396,7.0186 l 2.6104,3.31855 0,383.41285 0,383.41285 -2.6104,3.31855 c -5.9358,7.54618 15.0246,7.01903 -278.89,7.01393 -262.72194,-0.005 -269.21776,-0.0615 -273.04119,-2.3929 z m 546.06949,-7.32465 2.8471,-2.84723 0,-381.18055 0,-381.18055 -2.8472,-2.84723 -2.8472,-2.84722 -269.9306,0 -269.93054,0 -2.84722,2.84719 -2.84722,2.8472 -0.29743,379.6528 c -0.23734,302.94882 0.0202,380.2792 1.27464,382.75317 0.86463,1.7052 2.96722,3.8084 4.67242,4.67378 2.46865,1.25282 57.78912,1.51254 271.50325,1.27464 l 268.4028,-0.29878 2.8472,-2.84722 z m -57.5597,-46.88992 c -1.5494,-1.86683 -10.2182,-21.80247 -10.2182,-23.49862 0,-2.41788 5.0434,-0.98511 6.99,1.98576 1.5847,2.41864 3.1127,3.125 6.76,3.125 3.6473,0 5.1753,-0.70636 6.7601,-3.125 1.9466,-2.97087 6.9899,-4.40364 6.9899,-1.98576 0,1.69615 -8.6688,21.63179 -10.2181,23.49862 -0.7359,0.88668 -2.3252,1.61214 -3.5319,1.61214 -1.2066,0 -2.796,-0.72546 -3.5318,-1.61214 z m 5.7454,-10.65348 c 0.2763,-0.82917 -0.6547,-1.48438 -2.1094,-1.48438 -2.5967,0 -3.3749,1.31259 -1.7448,2.94271 1.1581,1.15809 3.2453,0.36834 3.8542,-1.45833 z m -9.4409,-38.77643 c -9.7985,-11.77399 -12.7727,-15.93771 -12.7727,-17.88091 0,-2.30384 17.7489,-24.20204 19.6162,-24.20204 1.2561,0 20.3741,22.87224 20.3741,24.375 0,1.00304 -18.8396,24.33624 -19.9894,24.75715 -0.5741,0.21019 -3.8268,-2.96195 -7.2282,-7.0492 z M 999.64546,536.0136 c -10.61057,-13.41482 -19.43658,-25.3804 -19.61335,-26.59019 -0.36844,-2.52148 37.57659,-50.94961 39.92069,-50.94961 1.3704,0 41.0257,48.934 41.0257,50.625 0,1.27158 -39.3256,50.40996 -40.708,50.86581 -0.7332,0.24177 -10.0145,-10.5362 -20.62504,-23.95101 z M 795.00116,256.80675 c -9.79842,-11.77399 -12.77264,-15.93771 -12.77264,-17.88091 0,-2.30384 17.74883,-24.20204 19.61613,-24.20204 1.25611,0 20.37416,22.87224 20.37416,24.375 0,1.00304 -18.83965,24.33624 -19.98938,24.75715 -0.57411,0.21019 -3.82683,-2.96195 -7.22827,-7.0492 z m -7.31732,-63.10191 c 0.39948,-1.59168 2.66001,-7.13713 5.0234,-12.32324 6.53465,-14.33935 10.00791,-14.33935 16.54256,0 5.95907,13.07631 6.40126,15.2172 3.14305,15.2172 -1.43369,0 -3.52811,-1.40625 -4.65428,-3.125 -1.58475,-2.41864 -3.11276,-3.125 -6.76005,-3.125 -3.64729,0 -5.1753,0.70636 -6.76005,3.125 -2.72686,4.1617 -7.56409,4.33273 -6.53463,0.23104 z m 15.01343,-9.35322 c 0.33896,-0.54845 0.0909,-1.81408 -0.55123,-2.8125 -1.02073,-1.58709 -1.31431,-1.58709 -2.33504,0 -1.23961,1.9274 -0.66277,3.80968 1.16752,3.80968 0.60635,0 1.37979,-0.44873 1.71875,-0.99718 z M 716.41038,73.805442 c 1.88688,-1.20074 604.74942,-1.20074 606.63632,0 0.7937,0.505097 -135.6995,0.918359 -303.3182,0.918359 -167.61868,0 -304.11184,-0.413262 -303.31812,-0.918359 z"
         id="path3956"
         inkscape:connector-curvature="0" />
      <path
         style="fill:#e85c94"
         d="m 716.41038,944.39216 c -0.79372,-0.5051 135.69944,-0.91836 303.31812,-0.91836 167.6187,0 304.1119,0.41326 303.3182,0.91836 -0.7938,0.5051 -137.2869,0.91835 -303.3182,0.91835 -166.03123,0 -302.52439,-0.41325 -303.31812,-0.91835 z m -8.42312,-8.5206 c -1.09585,-2.85572 -0.89901,-852.11718 0.1979,-853.840895 0.5051,-0.793724 0.91836,191.440645 0.91836,427.187495 0,235.74685 -0.0804,428.63064 -0.17876,428.63064 -0.0983,0 -0.5202,-0.88975 -0.9375,-1.97724 z M 1330.3535,509.0988 c 0,-235.6812 0.4133,-427.861859 0.9184,-427.068135 1.2008,1.886972 1.2008,852.249295 0,854.136275 -0.5051,0.79372 -0.9184,-191.38694 -0.9184,-427.06814 z M 749.10352,901.08425 c -2.0625,-0.91669 -5.15625,-3.18999 -6.875,-5.05179 l -3.125,-3.38507 0,-383.56721 0,-383.56722 3.67894,-3.83999 c 2.02342,-2.112 5.67967,-4.39579 8.125,-5.07511 6.10263,-1.69531 531.53944,-1.69531 537.64214,0 2.4453,0.67932 6.1016,2.96311 8.125,5.07511 l 3.6789,3.83999 0,383.56722 0,383.56721 -3.125,3.3868 c -6.7026,7.26414 11.5816,6.81879 -277.7723,6.76569 -219.38265,-0.0403 -267.26687,-0.34414 -270.35268,-1.71563 z m 543.80678,-7.55364 3.0682,-3.06817 0,-381.36364 0,-381.36364 -3.0682,-3.06818 -3.0681,-3.06818 -270.1137,0 -270.11362,0 -3.06818,3.06818 -3.06818,3.06818 0,381.36364 0,381.36364 3.06818,3.06817 3.06818,3.06819 270.11362,0 270.1137,0 3.0681,-3.06819 z m -57.8395,-48.43398 c -1.8335,-2.2645 -9.0923,-19.63145 -9.0923,-21.75372 0,-0.95926 0.5223,-1.74411 1.1607,-1.74411 1.5033,0 5.0893,3.58598 5.0893,5.08929 0,0.63839 2.7746,1.16071 6.1658,1.16071 4.9684,0 6.3127,-0.46306 6.9226,-2.38452 0.7611,-2.398 4.2101,-4.48367 5.4177,-3.27612 0.864,0.86407 -1.7456,8.44503 -5.8212,16.91064 -3.3993,7.06074 -7.1375,9.33873 -9.8426,5.99783 z m 5.6822,-9.53324 c 0.3002,-2.04034 -0.2431,-2.71459 -2.1875,-2.71459 -1.6753,0 -2.587,0.80766 -2.587,2.29166 0,4.75204 4.0842,5.11382 4.7745,0.42293 z m -12.6387,-43.38603 c -4.669,-5.85388 -8.7695,-11.37417 -9.1123,-12.26728 -0.6747,-1.75834 16.2182,-23.70877 18.6931,-24.2896 1.5821,-0.3713 19.5334,21.2054 19.5334,23.47832 0,1.9369 -17.7327,23.75241 -19.2937,23.736 -0.7322,-0.007 -5.1514,-4.80354 -9.8205,-10.65744 z M 999.61802,535.0363 c -10.52969,-13.23437 -19.14489,-24.90625 -19.14489,-25.9375 0,-1.95477 37.63257,-50 39.16377,-50 1.3921,0 6.0611,5.48205 23.626,27.74024 9.0561,11.47589 16.4656,21.481 16.4656,22.2336 0,0.7526 -7.3951,10.76949 -16.4336,22.25976 -17.2858,21.97469 -22.2206,27.7664 -23.658,27.7664 -0.4807,0 -9.4892,-10.82812 -20.01888,-24.0625 z M 791.86434,252.17736 c -4.66905,-5.85388 -8.76959,-11.37417 -9.11231,-12.26728 -0.67473,-1.75834 16.21814,-23.70877 18.69308,-24.2896 1.5821,-0.3713 19.53341,21.2054 19.53341,23.47832 0,1.9369 -17.73269,23.75241 -19.29376,23.736 -0.73218,-0.007 -5.15137,-4.80354 -9.82042,-10.65744 z m -2.99389,-59.10072 c 0.38744,-1.93718 2.56713,-7.42156 4.84375,-12.1875 3.48992,-7.30588 4.62959,-8.66534 7.26432,-8.66534 2.63473,0 3.7744,1.35946 7.26432,8.66534 4.6205,9.67267 6.24705,15.70966 4.23266,15.70966 -0.72354,0 -2.42169,-1.40625 -3.77365,-3.125 -1.92693,-2.44968 -3.59595,-3.125 -7.72333,-3.125 -4.12738,0 -5.7964,0.67532 -7.72333,3.125 -3.29032,4.18297 -5.26499,4.00411 -4.38474,-0.39716 z m 14.38251,-10.54034 c -0.21969,-1.54687 -1.24319,-2.8125 -2.27444,-2.8125 -1.03125,0 -2.05475,1.26563 -2.27444,2.8125 -0.30742,2.16462 0.21651,2.8125 2.27444,2.8125 2.05793,0 2.58186,-0.64788 2.27444,-2.8125 z M 716.41038,73.805442 c 1.88688,-1.20074 604.74942,-1.20074 606.63632,0 0.7937,0.505097 -135.6995,0.918359 -303.3182,0.918359 -167.61868,0 -304.11184,-0.413262 -303.31812,-0.918359 z"
         id="path3954"
         inkscape:connector-curvature="0" />
      <path
         style="fill:#e01b6a"
         d="m 868.79102,944.41135 c 83.01562,-0.17742 218.85938,-0.17742 301.87498,0 83.0156,0.17743 15.0938,0.32259 -150.9375,0.32259 -166.03123,0 -233.95311,-0.14516 -150.93748,-0.32259 z M 707.84629,509.0988 c 0,-234.09375 0.14387,-329.85937 0.31971,-212.8125 0.17584,117.04688 0.17584,308.57813 0,425.625 -0.17584,117.04688 -0.31971,21.28125 -0.31971,-212.8125 z m 623.75001,0 c 0,-234.09375 0.1439,-329.85937 0.3197,-212.8125 0.1758,117.04688 0.1758,308.57813 0,425.625 -0.1758,117.04688 -0.3197,21.28125 -0.3197,-212.8125 z M 749.10352,899.85024 c -2.0625,-0.91293 -4.875,-2.92076 -6.25,-4.46186 -2.48705,-2.78747 -2.50154,-4.78129 -2.79741,-384.85828 -0.23484,-301.68031 0.0281,-382.68838 1.25,-385.0608 0.85108,-1.65248 3.13553,-4.18373 5.07657,-5.625 l 3.52917,-2.6205 269.81665,0 269.8167,0 3.5292,2.6205 c 1.941,1.44127 4.224,3.97252 5.0732,5.625 2.2618,4.40115 2.2618,762.85785 0,767.259 -0.8492,1.65248 -3.1322,4.18373 -5.0732,5.625 l -3.529,2.6205 -268.346,0.26815 c -220.80002,0.22065 -269.01031,-0.0259 -272.09588,-1.39171 z m 543.99278,-5.01821 3.5072,-3.01677 0,-382.71646 0,-382.71646 -3.5072,-3.01677 -3.5072,-3.01677 -269.8606,0 -269.86057,0 -3.50721,3.01677 -3.5072,3.01677 0,382.71646 0,382.71646 3.5072,3.01677 3.50721,3.01677 269.86057,0 269.8606,0 3.5072,-3.01677 z m -60.9324,-57.75222 c -2.0405,-4.54795 -4.0231,-9.75107 -4.4057,-11.5625 l -0.6957,-3.29351 2.9425,3.4375 c 2.3871,2.78878 3.9863,3.4375 8.4735,3.4375 4.4873,0 6.0864,-0.64872 8.4736,-3.4375 l 2.9424,-3.4375 -0.6957,3.29351 c -0.3826,1.81143 -2.3652,7.01455 -4.4057,11.5625 -5.0532,11.26277 -7.5759,11.26277 -12.6292,0 z m 8.8669,0.67132 c 1.8191,-3.39895 0.6768,-6.15233 -2.5523,-6.15233 -1.4181,0 -2.8854,0.7998 -3.2605,1.77733 -0.7822,2.03853 1.525,6.97267 3.2605,6.97267 0.6391,0 1.7877,-1.16895 2.5523,-2.59767 z m -12.5523,-46.6314 c -4.4687,-5.70133 -8.125,-11.11075 -8.125,-12.02093 0,-2.09601 15.8201,-22.37235 17.5,-22.4295 1.49,-0.0506 18.125,20.535 18.125,22.4295 0,1.8945 -16.635,22.48018 -18.125,22.4295 -0.6875,-0.0234 -4.9062,-4.70725 -9.375,-10.40857 z M 1000.4779,534.56429 c -10.14763,-12.80648 -18.70239,-23.94155 -19.01055,-24.7446 -0.55857,-1.45559 35.88525,-48.47058 38.15975,-49.22876 1.6841,-0.56134 38.2264,45.80955 38.2264,48.50787 0,2.29565 -36.1296,48.75 -37.915,48.75 -0.5557,0 -9.3129,-10.47802 -19.4606,-23.28451 z M 792.22852,251.11973 c -4.46875,-5.70133 -8.125,-11.11075 -8.125,-12.02093 0,-2.09601 15.82006,-22.37235 17.5,-22.4295 1.48997,-0.0506 18.125,20.535 18.125,22.4295 0,1.8945 -16.63503,22.48018 -18.125,22.4295 -0.6875,-0.0234 -4.90625,-4.70725 -9.375,-10.40857 z m -2.45505,-57.17737 c -0.0247,-1.1173 1.9096,-6.32043 4.29849,-11.5625 3.35579,-7.3638 4.92627,-9.53106 6.90656,-9.53106 1.98029,0 3.55077,2.16726 6.90656,9.53106 5.09593,11.18229 5.68542,15.34278 1.43903,10.15644 -2.29913,-2.80805 -3.82731,-3.4375 -8.34559,-3.4375 -4.51828,0 -6.04646,0.62945 -8.34559,3.4375 -2.04893,2.50247 -2.82673,2.88493 -2.85946,1.40606 z m 14.95505,-9.60465 c 0,-1.2436 -0.84375,-3.35297 -1.875,-4.6875 -1.85605,-2.40188 -1.89396,-2.40188 -3.75,0 -3.1681,4.09979 -2.39938,6.94859 1.875,6.94859 2.78459,0 3.75,-0.5821 3.75,-2.26109 z m 64.0625,-111.176362 c 83.01562,-0.177422 218.85938,-0.177422 301.87498,0 83.0156,0.177422 15.0938,0.322585 -150.9375,0.322585 -166.03123,0 -233.95311,-0.145163 -150.93748,-0.322585 z"
         id="path3952"
         inkscape:connector-curvature="0" />
      <path
         style="fill:#dd0259"
         d="m 868.79102,944.41135 c 83.01562,-0.17742 218.85938,-0.17742 301.87498,0 83.0156,0.17743 15.0938,0.32259 -150.9375,0.32259 -166.03123,0 -233.95311,-0.14516 -150.93748,-0.32259 z M 707.84629,509.0988 c 0,-234.09375 0.14387,-329.85937 0.31971,-212.8125 0.17584,117.04688 0.17584,308.57813 0,425.625 -0.17584,117.04688 -0.31971,21.28125 -0.31971,-212.8125 z m 623.75001,0 c 0,-234.09375 0.1439,-329.85937 0.3197,-212.8125 0.1758,117.04688 0.1758,308.57813 0,425.625 -0.1758,117.04688 -0.3197,21.28125 -0.3197,-212.8125 z M 885.66602,899.41136 c 73.73437,-0.1781 194.39058,-0.1781 268.12498,0 73.7344,0.1781 13.4063,0.32382 -134.0625,0.32382 -147.46873,0 -207.79686,-0.14572 -134.06248,-0.32382 z m 350.31248,-56.2947 c 0,-0.54018 1.125,-0.98215 2.5,-0.98215 1.375,0 2.5,0.44197 2.5,0.98215 0,0.54018 -1.125,0.98214 -2.5,0.98214 -1.375,0 -2.5,-0.44196 -2.5,-0.98214 z m -4.2713,-10.1001 c -0.5385,-0.87125 -0.6414,-1.92166 -0.2289,-2.33426 1.1188,-1.1187 2.3385,0.52663 1.7343,2.33931 -0.4234,1.27022 -0.7179,1.26923 -1.5054,-0.005 z m 11.7713,-0.71898 c 0,-1.07183 0.5625,-1.94878 1.25,-1.94878 0.6875,0 1.25,0.5293 1.25,1.17623 0,0.64692 -0.5625,1.52387 -1.25,1.94877 -0.6875,0.4249 -1.25,-0.10437 -1.25,-1.17622 z m -13.1916,-41.01128 c -3.9728,-4.98437 -7.761,-9.76534 -8.4183,-10.62435 -1.1586,-1.5141 2.3433,-6.79517 12.574,-18.96265 l 3.5941,-4.27451 8.3459,10.33695 c 4.5903,5.68532 8.3459,10.787 8.3459,11.33706 0,1.01339 -15.9835,21.25 -16.7839,21.25 -0.239,0 -3.6849,-4.07812 -7.6577,-9.0625 z M 1005.1446,538.27665 c -8.16921,-10.20407 -16.71361,-20.94225 -18.9875,-23.86264 l -4.13437,-5.3098 15.28954,-19.38536 c 8.40923,-10.66195 17.03363,-21.37551 19.16543,-23.80792 l 3.8758,-4.42255 17.8771,22.62136 c 9.8324,12.44175 18.1474,23.32551 18.4776,24.18615 0.4494,1.1712 -29.2414,40.6448 -35.7136,47.48076 -0.5482,0.57906 -7.6807,-7.29594 -15.85,-17.5 z M 794.03691,251.2863 c -3.97276,-4.98437 -7.761,-9.76534 -8.41831,-10.62435 -1.15857,-1.5141 2.34327,-6.79517 12.574,-18.96265 l 3.59411,-4.27451 8.3459,10.33695 c 4.59025,5.68532 8.34591,10.787 8.34591,11.33706 0,1.01339 -15.98353,21.25 -16.78394,21.25 -0.23895,0 -3.68491,-4.07812 -7.65767,-9.0625 z m -0.55839,-64.61373 c 0,-0.64692 0.5625,-1.52387 1.25,-1.94877 0.6875,-0.4249 1.25,0.1044 1.25,1.17623 0,1.07182 -0.5625,1.94877 -1.25,1.94877 -0.6875,0 -1.25,-0.5293 -1.25,-1.17623 z m 12.5,-0.77254 c 0,-1.07182 0.5625,-1.60113 1.25,-1.17623 0.6875,0.4249 1.25,1.30185 1.25,1.94877 0,0.64693 -0.5625,1.17623 -1.25,1.17623 -0.6875,0 -1.25,-0.87695 -1.25,-1.94877 z m -7.5,-10.55123 c 0,-0.6875 1.125,-1.25 2.5,-1.25 1.375,0 2.5,0.5625 2.5,1.25 0,0.6875 -1.125,1.25 -2.5,1.25 -1.375,0 -2.5,-0.5625 -2.5,-1.25 z m 87.1875,-57.18744 c 73.73437,-0.1781 194.39058,-0.1781 268.12498,0 73.7344,0.1781 13.4063,0.32382 -134.0625,0.32382 -147.46873,0 -207.79686,-0.14572 -134.06248,-0.32382 z m -16.875,-45.000012 c 83.01562,-0.177422 218.85938,-0.177422 301.87498,0 83.0156,0.177422 15.0938,0.322585 -150.9375,0.322585 -166.03123,0 -233.95311,-0.145163 -150.93748,-0.322585 z"
         id="path3950"
         inkscape:connector-curvature="0" />
      <path
         style="fill:#111111"
         d="m 868.79102,944.41135 c 83.01562,-0.17742 218.85938,-0.17742 301.87498,0 83.0156,0.17743 15.0938,0.32259 -150.9375,0.32259 -166.03123,0 -233.95311,-0.14516 -150.93748,-0.32259 z M 707.84629,509.0988 c 0,-234.09375 0.14387,-329.85937 0.31971,-212.8125 0.17584,117.04688 0.17584,308.57813 0,425.625 -0.17584,117.04688 -0.31971,21.28125 -0.31971,-212.8125 z m 623.75001,0 c 0,-234.09375 0.1439,-329.85937 0.3197,-212.8125 0.1758,117.04688 0.1758,308.57813 0,425.625 -0.1758,117.04688 -0.3197,21.28125 -0.3197,-212.8125 z M 868.79102,73.161348 c 83.01562,-0.177422 218.85938,-0.177422 301.87498,0 83.0156,0.177422 15.0938,0.322585 -150.9375,0.322585 -166.03123,0 -233.95311,-0.145163 -150.93748,-0.322585 z"
         id="path3948"
         inkscape:connector-curvature="0" />
    </g>
  </g>
</svg>
