<?xml version="1.0" encoding="UTF-8" standalone="no"?>
<!-- Created with Inkscape (http://www.inkscape.org/) -->

<svg
   xmlns:dc="http://purl.org/dc/elements/1.1/"
   xmlns:cc="http://creativecommons.org/ns#"
   xmlns:rdf="http://www.w3.org/1999/02/22-rdf-syntax-ns#"
   xmlns:svg="http://www.w3.org/2000/svg"
   xmlns="http://www.w3.org/2000/svg"
   xmlns:sodipodi="http://sodipodi.sourceforge.net/DTD/sodipodi-0.dtd"
   xmlns:inkscape="http://www.inkscape.org/namespaces/inkscape"
   width="176.4539mm"
   height="246.27022mm"
   viewBox="0 0 625.23037 872.611"
   id="svg2"
   version="1.1"
   inkscape:version="0.91 r13725"
   sodipodi:docname="J.svg">
  <defs
     id="defs4" />
  <sodipodi:namedview
     id="base"
     pagecolor="#ffffff"
     bordercolor="#666666"
     borderopacity="1.0"
     inkscape:pageopacity="0.0"
     inkscape:pageshadow="2"
     inkscape:zoom="0.35"
     inkscape:cx="636.38951"
     inkscape:cy="159.14143"
     inkscape:document-units="px"
     inkscape:current-layer="layer1"
     showgrid="false"
     fit-margin-top="0"
     fit-margin-left="0"
     fit-margin-right="0"
     fit-margin-bottom="0"
     inkscape:window-width="784"
     inkscape:window-height="822"
     inkscape:window-x="800"
     inkscape:window-y="0"
     inkscape:window-maximized="0" />
  <metadata
     id="metadata7">
    <rdf:RDF>
      <cc:Work
         rdf:about="">
        <dc:format>image/svg+xml</dc:format>
        <dc:type
           rdf:resource="http://purl.org/dc/dcmitype/StillImage" />
        <dc:title></dc:title>
      </cc:Work>
    </rdf:RDF>
  </metadata>
  <g
     inkscape:label="Calque 1"
     inkscape:groupmode="layer"
     id="layer1"
     transform="translate(602.8181,181.10726)">
    <g
       transform="translate(-2095.6472,-270.98789)"
       id="g3964">
      <path
         style="fill:#fdfdfd"
         d="m 1492.9427,526.24165 0,-436.249997 312.5,0 312.5,0 0,436.249997 0,436.25 -312.5,0 -312.5,0 0,-436.25 z"
         id="path3980"
         inkscape:connector-curvature="0" />
      <path
         style="fill:#f8dce7"
         d="m 1499.0679,960.93339 c -1.8959,-0.75392 -3.8487,-2.94867 -4.6875,-5.26826 -2.0668,-5.7156 -2.07,-853.12233 0,-858.837807 0.9685,-2.678387 2.7229,-4.43273 5.4013,-5.401248 5.6984,-2.060592 605.6302,-2.060592 611.3286,0 2.6784,0.968518 4.4328,2.722861 5.4013,5.401248 2.0638,5.707307 2.0638,853.121357 0,858.828657 -0.9685,2.67839 -2.7229,4.43274 -5.4013,5.40125 -5.3415,1.93154 -607.1766,1.80976 -612.0391,-0.12388 z m 609.3031,-3.57957 c 1.6753,-0.76332 3.6706,-2.75854 4.4339,-4.43382 1.0084,-2.2132 1.3878,-118.86906 1.3878,-426.67835 0,-307.80928 -0.3794,-424.46515 -1.3878,-426.678341 -0.7633,-1.675287 -2.7586,-3.670504 -4.4339,-4.433816 -4.3418,-1.978277 -601.5148,-1.978277 -605.8566,0 -1.6753,0.763312 -3.6705,2.758529 -4.4339,4.433816 -1.9852,4.357021 -1.9804,849.010011 0,853.367141 0.7659,1.68104 2.5941,3.63818 4.0625,4.34922 3.9091,1.89282 602.0711,1.96598 606.2232,0.0741 z m -575.4028,-37.67467 c -3.0273,-1.54687 -6.6621,-4.40062 -8.0773,-6.34166 l -2.5732,-3.52916 0,-383.56668 0,-383.56667 2.5732,-3.52916 c 1.4152,-1.94104 5.05,-4.79479 8.0773,-6.34167 l 5.5042,-2.8125 266.9703,0 266.9703,0 5.5042,2.8125 c 3.0273,1.54688 6.6621,4.40063 8.0773,6.34167 l 2.5732,3.52916 0,383.56667 0,383.56668 -2.5732,3.52916 c -1.4152,1.94104 -5.05,4.79479 -8.0773,6.34166 l -5.5042,2.8125 -266.9703,0 -266.9703,0 -5.5042,-2.8125 z m 543.9386,-10.50623 c 2.205,-1.99553 2.2859,-15.53855 2.2859,-382.71408 0,-352.44035 -0.1533,-380.81472 -2.0687,-382.93126 -1.992,-2.2011 -12.0658,-2.28593 -271.4641,-2.28593 -248.9211,0 -269.5691,0.15723 -271.6813,2.06874 -2.205,1.99553 -2.2859,15.53855 -2.2859,382.71408 0,352.44035 0.1533,380.81471 2.0687,382.93126 1.992,2.2011 12.0658,2.28592 271.4641,2.28592 248.9211,0 269.5691,-0.15722 271.6813,-2.06873 z m -61.8808,-43.7646 c -0.4583,-0.45833 -0.8333,-5.75208 -0.8333,-11.76388 0,-10.6711 0.091,-11.00737 3.8459,-14.16667 2.9688,-2.49804 5.2146,-3.23612 9.847,-3.23612 6.6092,0 9.4934,2.11843 8.244,6.05505 -0.7853,2.4741 -4.0914,3.89734 -9.1244,3.92789 -2.6228,0.0159 -2.8125,0.55831 -2.8125,8.03983 0,4.41252 -0.3414,8.91252 -0.7587,10 -0.7538,1.96423 -6.7692,2.78263 -8.408,1.1439 z m 7.0913,-42.6543 c -2.7401,-1.69349 -20.4149,-24.64742 -20.4149,-26.51237 0,-1.97077 17.8192,-24.9766 20.5427,-26.52195 0.8694,-0.49331 2.475,-0.21206 3.568,0.625 3.8858,2.97579 19.6296,23.74633 19.6296,25.89695 0,2.2704 -15.9903,23.22943 -19.7503,25.88737 -1.1767,0.8318 -2.7855,1.11305 -3.5751,0.625 z M 1777.6302,612.44097 c -3.2626,-1.974 -3.0902,-13.12824 0.2303,-14.90534 1.3298,-0.71169 8.5552,-1.29398 16.0563,-1.29398 18.8157,0 17.7759,1.73973 17.7759,-29.74195 0,-24.46312 0.075,-25.21042 2.683,-26.606 3.3542,-1.79507 13.5049,-0.76025 14.9525,1.52433 0.5919,0.93425 1.0848,13.989 1.0954,29.01057 l 0.019,27.31194 -7.4273,7.68806 -7.4273,7.68805 -17.8852,0.32393 c -10.9648,0.19857 -18.7316,-0.1882 -20.0727,-0.99961 z m -30.2425,-105.36102 c -14.4226,-18.80911 -15.9245,-20.37162 -19.1292,-19.90128 -2.2818,0.3349 -4.6764,-0.43249 -6.9636,-2.23165 -4.6299,-3.64183 -4.3414,-10.38202 0.6015,-14.05652 4.9153,-3.65397 9.2548,-2.27596 13.9014,4.41452 1.1301,1.62703 5.1574,2.69205 15.7012,4.15206 7.7997,1.08004 14.3662,1.77874 14.5923,1.55267 0.226,-0.22607 1.2819,-5.40068 2.3464,-11.49915 1.8682,-10.70302 1.8498,-11.19695 -0.5298,-14.2221 -5.0893,-6.47005 -1.4628,-15.29685 6.2848,-15.29685 4.9736,0 8.75,3.92685 8.75,9.09862 0,4.07812 3.8194,8.48805 19.6449,22.68201 l 4.0199,3.60546 11.7937,-10.82581 c 10.6725,-9.7967 11.782,-11.23546 11.6715,-15.13519 -0.1619,-5.71197 3.2611,-9.42509 8.6887,-9.42509 8.1729,0 12.2692,9.41208 6.5747,15.1066 -2.5575,2.5575 -2.5702,2.81952 -0.6722,13.91113 1.0639,6.21747 2.1737,11.54381 2.4661,11.83627 0.2925,0.29247 6.6059,-0.31476 14.0297,-1.3494 12.556,-1.74988 13.7061,-2.14715 16.4811,-5.69287 5.4751,-6.99588 16.5519,-3.83691 16.5519,4.72039 0,4.66972 -4.6558,8.96788 -9.7141,8.96788 -3.6091,0 -5.1572,1.62318 -19.0744,20 -8.3306,11 -15.5268,19.99608 -15.9915,19.99129 -0.4648,-0.005 -4.9567,-1.40416 -9.982,-3.10971 -22.3376,-7.58109 -46.98,-7.3989 -67.738,0.5008 -3.7812,1.439 -7.2752,2.61665 -7.7643,2.617 -0.4891,3.4e-4 -7.9324,-9.18464 -16.5407,-20.41108 z M 1585.8673,282.75402 c -2.7401,-1.69349 -20.4149,-24.64742 -20.4149,-26.51237 0,-1.97077 17.8192,-24.9766 20.5427,-26.52195 0.8694,-0.49331 2.475,-0.21206 3.568,0.625 3.8858,2.97579 19.6296,23.74633 19.6296,25.89695 0,2.2704 -15.9903,23.22943 -19.7503,25.88737 -1.1767,0.8318 -2.7855,1.11305 -3.5751,0.625 z m -10.3748,-68.32732 c -2.9603,-3.56704 -1.0279,-6.26825 4.9614,-6.93505 l 5.6138,-0.625 0.7065,-9.08148 c 0.7751,-9.96401 1.8939,-11.96547 6.3368,-11.33685 2.8351,0.40113 2.9715,0.89416 3.3162,11.99061 0.3388,10.9042 0.1797,11.75213 -2.7556,14.6875 -2.5544,2.55437 -4.3357,3.11522 -9.894,3.11522 -4.401,0 -7.3072,-0.63663 -8.2851,-1.81495 z"
         id="path3978"
         inkscape:connector-curvature="0" />
      <path
         style="fill:#f2a9c6"
         d="m 1500.1459,960.53492 c -7.802,-4.23333 -7.2032,31.86901 -7.2032,-434.29327 0,-377.55167 0.2122,-425.53447 1.8962,-428.790913 4.1664,-8.056952 -20.7295,-7.459084 310.6038,-7.459084 331.3333,0 306.4374,-0.597868 310.6038,7.459084 1.684,3.256443 1.8962,51.239243 1.8962,428.790913 0,377.55168 -0.2122,425.53448 -1.8962,428.79092 -4.1671,8.05846 20.7715,7.46406 -310.8542,7.40903 -264.3514,-0.0439 -302.0474,-0.27947 -305.0464,-1.90668 z m 608.3564,-1.63757 c 2.0265,-1.18887 4.6572,-3.81963 5.8461,-5.84613 2.0368,-3.47179 2.1669,-28.08965 2.2529,-426.30502 0.082,-377.4378 -0.1136,-423.03138 -1.826,-426.46408 -1.0546,-2.113992 -3.8993,-5.012913 -6.3215,-6.442045 l -4.404,-2.598422 -298.6071,0 -298.6071,0 -4.404,2.598422 c -2.4222,1.429132 -5.2668,4.328053 -6.3214,6.442045 -1.7125,3.4327 -1.9077,49.02628 -1.8261,426.46408 0.086,398.21537 0.2161,422.83323 2.2529,426.30502 1.1889,2.0265 3.8196,4.65726 5.8461,5.84613 3.4646,2.0325 21.5618,2.16158 303.0596,2.16158 281.4978,0 299.595,-0.12908 303.0596,-2.16158 z m -575.6072,-40.4682 c -3.6299,-1.83042 -6.3406,-4.34017 -7.763,-7.1875 -2.0663,-4.13643 -2.1855,-25.13035 -2.1855,-385 0,-359.86964 0.1192,-380.86356 2.1855,-385 1.4224,-2.84733 4.1331,-5.35707 7.763,-7.1875 l 5.5773,-2.8125 266.9703,0 266.9703,0 5.5773,2.8125 c 3.6299,1.83043 6.3406,4.34017 7.763,7.1875 2.0663,4.13644 2.1855,25.13036 2.1855,385 0,359.86965 -0.1191,380.86357 -2.1855,385 -1.4224,2.84733 -4.1331,5.35708 -7.763,7.1875 l -5.5773,2.8125 -266.9703,0 -266.9703,0 -5.5773,-2.8125 z m 544.6545,-8.65538 2.8931,-2.7179 0,-380.63904 0,-380.63905 -2.7179,-2.89306 -2.7179,-2.89307 -269.389,0 -269.3891,0 -2.893,2.7179 -2.8931,2.71789 0,380.63904 0,380.63905 2.7179,2.89306 2.7179,2.89306 269.389,0 269.3891,0 2.893,-2.71788 z m -61.2208,-45.56272 c -0.4874,-0.48733 -0.8861,-5.53273 -0.8861,-11.21201 0,-9.66644 0.2103,-10.4914 3.2936,-12.91666 4.0851,-3.21339 13.1044,-3.54966 15.5687,-0.58046 1.4175,1.708 1.3106,2.27185 -0.7109,3.75 -1.3086,0.95686 -4.2168,1.73973 -6.4627,1.73973 l -4.0835,0 -0.3651,9.6875 c -0.3263,8.65777 -0.6363,9.72633 -2.9165,10.05273 -1.4033,0.20087 -2.9502,-0.0335 -3.4375,-0.52083 z m -3.9713,-54.67475 c -5.1781,-6.43793 -9.4148,-12.42053 -9.4148,-13.29465 0,-2.76618 18.6978,-25.00318 20.9773,-24.94801 2.7168,0.0658 19.6477,21.56408 19.6477,24.94801 0,3.38394 -16.9309,24.88225 -19.6477,24.94802 -1.2424,0.0301 -6.1164,-4.8822 -11.5625,-11.65337 z M 1778.2552,611.6638 c -2.4138,-0.974 -2.0586,-12.46432 0.4147,-13.41341 1.0875,-0.41731 8.0207,-0.75874 15.4071,-0.75874 19.5552,0 18.8657,1.12877 18.8657,-30.88432 0,-27.83586 -0.3944,-26.61568 8.6022,-26.61568 2.5563,0 5.3228,0.675 6.1478,1.5 1.0758,1.07577 1.5,9.27804 1.5,29.00118 l 0,27.50116 -7.454,7.24884 -7.4541,7.24882 -17.2334,-0.0987 c -9.4784,-0.0543 -17.9366,-0.3824 -18.796,-0.72916 z m -16.588,-88.10793 c -1.4091,-1.61657 -8.5975,-10.81422 -15.9741,-20.43922 -12.175,-15.88593 -13.7337,-17.46208 -16.9003,-17.08898 -5.1337,0.60487 -9.6001,-2.79832 -9.6001,-7.31483 0,-4.29621 3.8342,-8.72119 7.5568,-8.72119 2.5565,0 8.6932,5.1314 8.6932,7.26904 0,1.43799 30.1706,5.5653 31.4186,4.29804 0.5102,-0.51814 1.7815,-6.26686 2.8251,-12.77494 1.8329,-11.43105 1.8143,-11.91022 -0.5482,-14.11119 -2.4387,-2.27202 -3.2309,-7.82233 -1.4889,-10.43132 2.0431,-3.05974 6.4278,-4.39845 9.3559,-2.85648 3.8241,2.01387 4.646,3.508 4.6684,8.48747 0.017,3.70745 1.3327,5.47853 10.2174,13.75 15.0013,13.96592 14.0423,13.5341 19.5263,8.79186 15.8338,-13.69189 19.5182,-17.95456 19.7766,-22.88013 0.4185,-7.98046 6.4825,-11.4531 12.1774,-6.97352 4.0699,3.20144 4.3469,8.0535 0.6822,11.95432 -2.6019,2.76962 -2.6113,2.97227 -0.6636,14.35445 1.0866,6.34985 2.4544,12.02395 3.0395,12.60913 1.3237,1.32369 29.4849,-2.47543 30.0494,-4.05383 0.2261,-0.6322 1.3851,-2.35228 2.5755,-3.82242 4.3586,-5.38261 13.8884,-1.85603 13.8884,5.13952 0,4.33512 -3.2448,7.1984 -8.7428,7.71478 -4.0201,0.37757 -5.5123,1.91979 -18.75,19.3789 -7.9102,10.43276 -15.0634,19.26609 -15.896,19.62959 -0.8326,0.3635 -5.4873,-0.69057 -10.3438,-2.34237 -19.4027,-6.59926 -41.7571,-7.14038 -60.705,-1.46946 -5.4655,1.6358 -10.9135,3.39445 -12.1066,3.9081 -1.5035,0.64729 -2.9555,0.0319 -4.7313,-2.00532 z M 1576.1075,269.5363 c -5.1781,-6.43793 -9.4148,-12.42053 -9.4148,-13.29465 0,-2.76618 18.6978,-25.00318 20.9773,-24.94801 2.7168,0.0658 19.6477,21.56408 19.6477,24.94801 0,3.38394 -16.9309,24.88225 -19.6477,24.94802 -1.2424,0.0301 -6.1164,-4.8822 -11.5625,-11.65337 z m -0.1898,-56.35979 c -1.0769,-2.8063 0.5743,-4.43486 4.4965,-4.43486 6.9134,0 7.5285,-0.81544 7.5285,-9.98068 0,-8.84645 1.785,-12.29083 5.6091,-10.82339 1.4791,0.56761 1.8909,3.00034 1.8909,11.17195 0,9.30322 -0.3166,10.74375 -2.8931,13.16423 -3.5341,3.32013 -15.4559,3.96723 -16.6319,0.90275 z"
         id="path3976"
         inkscape:connector-curvature="0" />
      <path
         style="fill:#ef8fb5"
         d="m 1502.1246,961.53502 c -0.7938,-0.5051 135.6994,-0.91837 303.3181,-0.91837 167.6187,0 304.1119,0.41327 303.3181,0.91837 -0.7937,0.5051 -137.2868,0.91835 -303.3181,0.91835 -166.0312,0 -302.5244,-0.41325 -303.3181,-0.91835 z m -8.4232,-8.5206 c -1.0958,-2.85573 -0.899,-852.11719 0.1979,-853.840903 0.5051,-0.793724 0.9184,191.440653 0.9184,427.187503 0,235.74685 -0.08,428.63063 -0.1788,428.63063 -0.098,0 -0.5202,-0.88975 -0.9375,-1.97723 z m 622.3663,-426.77277 c 0,-235.6812 0.4133,-427.861857 0.9184,-427.068133 1.2008,1.886973 1.2008,852.249303 0,854.136273 -0.5051,0.79373 -0.9184,-191.38694 -0.9184,-427.06814 z m -583.9166,391.35243 c -2.1541,-1.31353 -4.826,-3.68659 -5.9375,-5.27346 -1.8505,-2.64199 -2.0209,-35.19912 -2.0209,-386.18853 l 0,-383.30329 2.6104,-3.31855 c 5.9356,-7.54592 -14.9992,-7.0186 278.6396,-7.0186 293.6388,0 272.704,-0.52732 278.6396,7.0186 l 2.6104,3.31855 0,383.41285 0,383.41285 -2.6104,3.31855 c -5.9358,7.54618 15.0246,7.01903 -278.89,7.01393 -262.722,-0.005 -269.2178,-0.0615 -273.0412,-2.3929 z m 546.0694,-7.32465 2.8472,-2.84723 0,-381.18055 0,-381.18055 -2.8472,-2.84722 -2.8472,-2.84723 -269.9306,0 -269.9306,0 -2.8472,2.8472 -2.8472,2.84719 -0.2974,379.6528 c -0.2374,302.94883 0.02,380.2792 1.2746,382.75318 0.8646,1.7052 2.9672,3.8084 4.6724,4.67377 2.4687,1.25283 57.7891,1.51254 271.5032,1.27464 l 268.4029,-0.29878 2.8471,-2.84722 z m -61.4432,-47.61964 c -0.734,-1.37159 -1.3346,-5.8299 -1.3346,-9.90739 0,-10.7148 2.8298,-14.00075 12.0574,-14.00075 5.8731,0 6.8155,0.31904 6.4614,2.1875 -0.2878,1.51847 -1.816,2.30443 -4.9965,2.56979 -2.5201,0.21025 -5.159,1.07745 -5.8641,1.92711 -0.7052,0.84965 -1.4511,5.41404 -1.6576,10.14309 -0.389,8.90586 -2.2101,11.66943 -4.666,7.08065 z m 0.188,-48.70019 c -9.7984,-11.77398 -12.7726,-15.93771 -12.7726,-17.88091 0,-2.30384 17.7488,-24.20204 19.6161,-24.20204 1.2561,0 20.3742,22.87224 20.3742,24.375 0,1.00304 -18.8397,24.33624 -19.9894,24.75715 -0.5741,0.21019 -3.8268,-2.96195 -7.2283,-7.0492 z M 1777.206,608.11665 c -0.4314,-1.71875 -0.4314,-4.53125 0,-6.25 0.779,-3.10363 0.8813,-3.125 14.9669,-3.125 12.4555,0 14.5838,-0.3155 17.4762,-2.59072 l 3.2936,-2.59073 0.019,-24.59677 c 0.01,-13.52823 0.4869,-25.33424 1.0585,-26.23559 0.6879,-1.08475 3.1114,-1.50736 7.1683,-1.25 l 6.1291,0.38881 0.3355,28.23448 0.3354,28.23447 -6.8231,6.45303 -6.8232,6.45302 -18.176,0 -18.176,0 -0.7843,-3.125 z m -29.1474,-103.125 c -15.1262,-19.85211 -15.2752,-20 -20.1486,-20 -3.9153,0 -5.3435,-0.66207 -7.0516,-3.26903 -1.9183,-2.92769 -1.9499,-3.61294 -0.3023,-6.5625 1.265,-2.26472 3.0597,-3.41308 5.7458,-3.67642 3.19,-0.31273 4.4925,0.38585 7.1045,3.81032 3.0515,4.00076 3.7598,4.26277 15.4298,5.70751 16.3795,2.02776 18.8052,1.94137 19.5818,-0.69738 0.3541,-1.20312 1.3239,-6.768 2.1551,-12.36638 1.444,-9.72573 1.3912,-10.33148 -1.1846,-13.60608 -3.3596,-4.27107 -3.4169,-7.36895 -0.1958,-10.59004 3.2217,-3.22171 6.8246,-3.1754 10.1302,0.13022 1.9169,1.91692 2.4387,3.58786 1.9239,6.16158 -0.6205,3.10287 0.3117,4.50848 7.6823,11.5835 4.6138,4.42867 10.5103,9.88133 13.1036,12.11703 l 4.715,4.0649 12.16,-11.22609 c 11.1751,-10.31685 12.2106,-11.66749 12.785,-16.676 0.4828,-4.20982 1.3626,-5.86214 3.8665,-7.26149 3.8791,-2.16792 6.5295,-1.35908 9.2745,2.83035 2.1042,3.21135 1.2981,6.51549 -2.5213,10.33488 -1.1473,1.14727 -1.0312,4.14119 0.5099,13.15079 1.0975,6.41593 2.3828,12.259 2.8563,12.98458 0.5966,0.9142 5.3116,0.7223 15.3563,-0.625 13.9028,-1.86478 14.6249,-2.1103 17.6672,-6.00675 3.8137,-4.88466 7.7047,-5.23356 11.6407,-1.04385 1.9745,2.10172 2.5814,3.82049 1.9981,5.65832 -1.0984,3.46076 -5.7697,6.44598 -9.435,6.02953 -2.4329,-0.27641 -5.3902,2.88799 -17.7971,19.0435 -8.1837,10.65625 -15.3594,19.551 -15.9461,19.76612 -0.5866,0.2151 -5.6166,-1.04623 -11.1776,-2.80295 -20.5493,-6.49154 -43.4191,-6.49518 -63.2856,-0.01 -5.1337,1.67581 -9.7993,3.04692 -10.368,3.04692 -0.5687,0 -7.8915,-9 -16.2729,-20 z M 1580.7153,273.9496 c -9.7984,-11.77398 -12.7726,-15.93771 -12.7726,-17.88091 0,-2.30384 17.7488,-24.20204 19.6161,-24.20204 1.2561,0 20.3742,22.87224 20.3742,24.375 0,1.00304 -18.8397,24.33624 -19.9894,24.75715 -0.5741,0.21019 -3.8268,-2.96195 -7.2283,-7.0492 z m -3.7906,-62.39545 c 0.2992,-1.57584 1.9851,-2.36226 6.0292,-2.8125 l 5.6138,-0.625 0.625,-9.375 c 0.5556,-8.33333 0.9028,-9.375 3.125,-9.375 2.2523,0 2.5361,0.95472 2.8642,9.63585 0.4699,12.43518 -1.3599,14.73915 -11.7059,14.73915 -5.9598,0 -6.9066,-0.31615 -6.5513,-2.1875 z M 1502.1246,90.948294 c 1.8868,-1.20074 604.7494,-1.20074 606.6362,0 0.7938,0.505097 -135.6994,0.918359 -303.3181,0.918359 -167.6187,0 -304.1119,-0.413262 -303.3181,-0.918359 z"
         id="path3974"
         inkscape:connector-curvature="0" />
      <path
         style="fill:#e85c94"
         d="m 1502.1246,961.53502 c -0.7938,-0.5051 135.6994,-0.91837 303.3181,-0.91837 167.6187,0 304.1119,0.41327 303.3181,0.91837 -0.7937,0.5051 -137.2868,0.91835 -303.3181,0.91835 -166.0312,0 -302.5244,-0.41325 -303.3181,-0.91835 z m -8.4232,-8.5206 c -1.0958,-2.85573 -0.899,-852.11719 0.1979,-853.840903 0.5051,-0.793724 0.9184,191.440653 0.9184,427.187503 0,235.74685 -0.08,428.63063 -0.1788,428.63063 -0.098,0 -0.5202,-0.88975 -0.9375,-1.97723 z m 622.3663,-426.77277 c 0,-235.6812 0.4133,-427.861857 0.9184,-427.068133 1.2008,1.886973 1.2008,852.249303 0,854.136273 -0.5051,0.79373 -0.9184,-191.38694 -0.9184,-427.06814 z m -581.25,391.98545 c -2.0625,-0.91668 -5.1562,-3.18998 -6.875,-5.05178 l -3.125,-3.38508 0,-383.56721 0,-383.56722 3.6789,-3.83999 c 2.0235,-2.11199 5.6797,-4.39579 8.125,-5.07511 6.1027,-1.69531 531.5395,-1.69531 537.6422,0 2.4453,0.67932 6.1015,2.96312 8.125,5.07511 l 3.6789,3.83999 0,383.56722 0,383.56721 -3.125,3.3868 c -6.7026,7.26414 11.5816,6.81879 -277.7723,6.76569 -219.3827,-0.0403 -267.2669,-0.34414 -270.3527,-1.71563 z m 543.8068,-7.55363 3.0682,-3.06818 0,-381.36364 0,-381.36363 -3.0682,-3.06819 -3.0682,-3.06818 -270.1136,0 -270.1136,0 -3.0682,3.06818 -3.0682,3.06819 0,381.36363 0,381.36364 3.0682,3.06818 3.0682,3.06818 270.1136,0 270.1136,0 3.0682,-3.06818 z m -61.0724,-47.7391 c -0.4727,-0.47267 -0.8594,-4.98438 -0.8594,-10.02605 0,-11.38558 2.0713,-14.16667 10.5512,-14.16667 8.9508,0 8.4861,4.35242 -0.5562,5.21038 l -4.37,0.41462 -0.625,9.27669 c -0.5727,8.49979 -1.9165,11.51516 -4.1406,9.29103 z m -3.7236,-53.61415 c -4.669,-5.85389 -8.7696,-11.37418 -9.1123,-12.26729 -0.6747,-1.75834 16.2182,-23.70876 18.6931,-24.2896 1.5821,-0.3713 19.5334,21.2054 19.5334,23.47832 0,1.9369 -17.7327,23.75242 -19.2938,23.736 -0.7321,-0.008 -5.1513,-4.80353 -9.8204,-10.65743 z M 1778.776,610.40832 c -1.7389,-1.73892 -0.8579,-10.13975 1.1439,-10.90793 1.0875,-0.41731 7.8631,-0.75874 15.0569,-0.75874 12.2203,0 13.2811,-0.20157 16.1477,-3.06818 3.0524,-3.05239 3.0682,-3.19638 3.0682,-27.99127 0,-27.1668 -0.2019,-26.44055 7.3522,-26.44055 6.1695,0 6.3978,1.0486 6.3978,29.38609 0,29.1555 0.4743,27.31338 -9.1385,35.49543 l -6.0135,5.11848 -16.5907,0 c -9.1248,0 -16.9656,-0.375 -17.424,-0.83333 z m -16.7658,-88.3367 c -1.3289,-1.48773 -8.5019,-10.74572 -15.9398,-20.5733 -12.9403,-17.09764 -13.6804,-17.8339 -17.1596,-17.06975 -7.0142,1.54058 -11.3016,-6.48518 -6.0185,-11.26633 3.3217,-3.0061 8.2381,-1.63374 10.6153,2.9631 1.7041,3.29549 2.7291,3.72074 12.2102,5.06593 5.6924,0.80766 13.1528,1.57127 16.5786,1.69692 l 6.2288,0.22846 2.2752,-12.97366 c 2.2661,-12.92119 2.2649,-12.9847 -0.2912,-15.70556 -4.8098,-5.11979 -2.705,-11.94578 3.6835,-11.94578 4.4641,0 6.25,2.17519 6.25,7.61252 0,4.23712 1.0051,5.53923 12.3509,16 6.793,6.26311 13.0265,11.38748 13.8522,11.38748 0.8257,0 7.1231,-5.20015 13.9942,-11.55588 10.9108,-10.09245 12.4102,-11.96903 11.8404,-14.81835 -1.3056,-6.52759 6.9366,-11.65147 11.4623,-7.12577 2.3253,2.32525 1.7745,7.4217 -1.137,10.5208 -2.6172,2.78594 -2.6213,2.89874 -0.5508,15.08057 1.1473,6.7505 2.5624,12.75518 3.1446,13.34375 0.5865,0.59297 7.6547,0.16325 15.8521,-0.96375 13.8405,-1.90282 14.9815,-2.27382 17.708,-5.75762 4.6566,-5.94998 12.7331,-4.64208 12.7331,2.06197 0,3.98923 -3.2762,6.71428 -8.0723,6.71428 -3.8861,0 -5.0932,1.24872 -19.4146,20.08429 -11.6506,15.32298 -15.7588,19.89565 -17.3294,19.28858 -25.9337,-10.02395 -50.6897,-10.70115 -75.3793,-2.06202 l -7.0707,2.47408 -2.4162,-2.70496 z m -184.4317,-252.7514 c -4.669,-5.85389 -8.7696,-11.37418 -9.1123,-12.26729 -0.6747,-1.75834 16.2181,-23.70876 18.6931,-24.2896 1.5821,-0.3713 19.5334,21.2054 19.5334,23.47832 0,1.9369 -17.7327,23.75242 -19.2938,23.736 -0.7321,-0.007 -5.1513,-4.80353 -9.8204,-10.65743 z m -0.019,-56.37792 c -1.5635,-1.56352 0.5903,-2.95065 4.5815,-2.95065 5.7449,0 7.0485,-1.94754 7.0703,-10.5625 0.02,-7.98835 1.2883,-11.57208 3.5911,-10.14887 0.8296,0.51268 1.3898,4.83169 1.3898,10.71426 0,8.76722 -0.3067,10.0702 -2.7781,11.80123 -2.7354,1.91596 -12.2941,2.70699 -13.8546,1.14653 z M 1502.1246,90.948294 c 1.8868,-1.20074 604.7494,-1.20074 606.6362,0 0.7938,0.505097 -135.6994,0.918359 -303.3181,0.918359 -167.6187,0 -304.1119,-0.413262 -303.3181,-0.918359 z"
         id="path3972"
         inkscape:connector-curvature="0" />
      <path
         style="fill:#e01b6a"
         d="m 1654.5052,961.5542 c 83.0156,-0.17742 218.8594,-0.17742 301.875,0 83.0156,0.17743 15.0938,0.32259 -150.9375,0.32259 -166.0312,0 -233.9531,-0.14516 -150.9375,-0.32259 z M 1493.5605,526.24165 c 0,-234.09375 0.1438,-329.85937 0.3197,-212.8125 0.1758,117.04688 0.1758,308.57813 0,425.625 -0.1759,117.04688 -0.3197,21.28125 -0.3197,-212.8125 z m 623.75,0 c 0,-234.09375 0.1438,-329.85937 0.3197,-212.8125 0.1758,117.04688 0.1758,308.57813 0,425.625 -0.1759,117.04688 -0.3197,21.28125 -0.3197,-212.8125 z m -582.4928,390.75144 c -2.0625,-0.91292 -4.875,-2.92076 -6.25,-4.46186 -2.487,-2.78746 -2.5015,-4.78129 -2.7974,-384.85828 -0.2348,-301.68031 0.028,-382.68838 1.25,-385.0608 0.8511,-1.65247 3.1355,-4.18372 5.0766,-5.625 l 3.5291,-2.6205 269.8167,0 269.8167,0 3.5291,2.6205 c 1.9411,1.44128 4.224,3.97253 5.0733,5.625 2.2618,4.40116 2.2618,762.85785 0,767.259 -0.8493,1.65248 -3.1322,4.18373 -5.0732,5.625 l -3.5291,2.6205 -268.3459,0.26815 c -220.8,0.22065 -269.0103,-0.0259 -272.0959,-1.39171 z m 543.9928,-5.01821 3.5072,-3.01676 0,-382.71647 0,-382.71646 -3.5072,-3.01677 -3.5072,-3.01677 -269.8606,0 -269.8606,0 -3.5072,3.01677 -3.5072,3.01677 0,382.71646 0,382.71647 3.5072,3.01676 3.5072,3.01677 269.8606,0 269.8606,0 3.5072,-3.01677 z m -60.8678,-58.76894 c 0,-11.23462 1.4289,-13.21429 9.5381,-13.21429 3.4213,0 5.3081,0.4876 4.8369,1.25 -0.4249,0.6875 -2.5956,1.25 -4.8238,1.25 -5.8924,0 -7.0512,1.88997 -7.0512,11.5 0,4.83334 -0.5392,8.5 -1.25,8.5 -0.7211,0 -1.25,-3.92857 -1.25,-9.28571 z m -3.75,-44.94336 c -4.4687,-5.70133 -8.125,-11.11075 -8.125,-12.02093 0,-2.09601 15.8201,-22.37235 17.5,-22.4295 1.49,-0.0506 18.125,20.535 18.125,22.4295 0,1.8945 -16.635,22.48018 -18.125,22.4295 -0.6875,-0.0234 -4.9062,-4.70725 -9.375,-10.40857 z m -234.763,-202.95843 0.388,-4.6875 14.6583,-0.625 c 21.1161,-0.90033 20.1728,0.52109 20.9667,-31.59387 l 0.625,-25.28113 5,0 5,0 0.3369,27.18223 0.3368,27.18222 -6.5868,6.23084 -6.5869,6.23084 -17.263,0.0245 -17.2629,0.0244 0.3879,-4.6875 z M 1748.6145,503.1534 c -15.1358,-19.81455 -15.8666,-20.56028 -19.4462,-19.84436 -4.4387,0.88773 -7.4756,-1.22166 -7.4756,-5.19239 0,-6.61386 7.8189,-7.21421 11.3816,-0.8739 1.9255,3.42682 2.6535,3.65727 18.0322,5.70809 13.0561,1.74111 16.2996,1.83866 17.5043,0.52646 0.8133,-0.88586 2.3753,-7.18608 3.4712,-14.0005 l 1.9924,-12.38985 -3.0658,-3.64355 c -3.7131,-4.41277 -3.7691,-5.24853 -0.5659,-8.45175 3.128,-3.12797 4.3677,-3.1323 7.474,-0.026 1.7817,1.78173 2.2739,3.47407 1.7591,6.04825 -0.6506,3.25283 0.4268,4.63234 11.9798,15.33854 6.9821,6.47034 13.5163,11.94869 14.5205,12.17411 1.0043,0.22543 7.7294,-5.05691 14.9449,-11.73855 12.5312,-11.60413 13.0845,-12.33173 12.3512,-16.24052 -0.6466,-3.44713 -0.2695,-4.41849 2.3926,-6.16279 2.4711,-1.6191 3.7237,-1.76911 5.7441,-0.68786 3.0327,1.62307 3.6106,8.47929 0.8055,9.55574 -0.9781,0.37533 -2.1061,1.53636 -2.5066,2.58006 -1.0373,2.70322 2.9906,25.71041 4.8437,27.66714 1.2719,1.34298 4.1906,1.26832 16.4314,-0.4203 14.2283,-1.96279 15.0576,-2.24157 18.8034,-6.32057 2.1552,-2.347 4.3016,-4.26725 4.7697,-4.26725 2.5809,0 5.6867,2.95955 5.6867,5.41898 0,3.93994 -2.2964,5.83102 -7.0808,5.83102 -3.803,0 -5.121,1.36474 -19.3577,20.04447 -11.211,14.70983 -15.7971,19.84271 -17.2316,19.28642 -24.5482,-9.51912 -53.3889,-10.1896 -75.5752,-1.75695 -3.5088,1.33364 -6.4869,2.42509 -6.6179,2.42544 -0.131,3.4e-4 -7.3153,-9.26409 -15.965,-20.58763 z M 1577.9427,268.26258 c -4.4687,-5.70133 -8.125,-11.11075 -8.125,-12.02093 0,-2.09601 15.8201,-22.37235 17.5,-22.4295 1.49,-0.0506 18.125,20.535 18.125,22.4295 0,1.8945 -16.635,22.48018 -18.125,22.4295 -0.6875,-0.0234 -4.9062,-4.70725 -9.375,-10.40857 z m 5.5725,-57.18099 c 2.7212,-0.63741 5.3845,-1.84653 5.9184,-2.68693 0.534,-0.84041 0.9794,-5.01043 0.99,-9.26674 0.01,-4.2563 0.5816,-8.08637 1.2691,-8.51127 1.8592,-1.14903 1.618,18.507 -0.25,20.375 -0.825,0.825 -4.0594,1.4435 -7.1875,1.37444 l -5.6875,-0.12556 4.9475,-1.15894 z m 70.99,-120.77739 c 83.0156,-0.177422 218.8594,-0.177422 301.875,0 83.0156,0.177422 15.0938,0.322585 -150.9375,0.322585 -166.0312,0 -233.9531,-0.145163 -150.9375,-0.322585 z"
         id="path3970"
         inkscape:connector-curvature="0" />
      <path
         style="fill:#dd0159"
         d="m 1654.5052,961.5542 c 83.0156,-0.17742 218.8594,-0.17742 301.875,0 83.0156,0.17743 15.0938,0.32259 -150.9375,0.32259 -166.0312,0 -233.9531,-0.14516 -150.9375,-0.32259 z M 1493.5605,526.24165 c 0,-234.09375 0.1438,-329.85937 0.3197,-212.8125 0.1758,117.04688 0.1758,308.57813 0,425.625 -0.1759,117.04688 -0.3197,21.28125 -0.3197,-212.8125 z m 623.75,0 c 0,-234.09375 0.1438,-329.85937 0.3197,-212.8125 0.1758,117.04688 0.1758,308.57813 0,425.625 -0.1759,117.04688 -0.3197,21.28125 -0.3197,-212.8125 z m -445.9303,390.31257 c 73.7344,-0.1781 194.3906,-0.1781 268.125,0 73.7344,0.1781 13.4063,0.32381 -134.0625,0.32381 -147.4687,0 -207.7969,-0.14571 -134.0625,-0.32381 z m 344.6209,-108.12507 c -3.9728,-4.98437 -7.761,-9.76533 -8.4183,-10.62435 -1.1586,-1.5141 2.3433,-6.79517 12.574,-18.96265 l 3.5941,-4.27451 8.3459,10.33695 c 4.5902,5.68533 8.3459,10.787 8.3459,11.33706 0,1.01339 -15.9835,21.25 -16.7839,21.25 -0.239,0 -3.6849,-4.07812 -7.6577,-9.0625 z m -235.5584,-203.4375 0,-3.75 14.2455,0 14.2455,0 3.8795,-4.4185 3.8795,-4.41848 0,-24.33152 0,-24.3315 4.375,0 4.375,0 0,26.70395 0,26.70395 -6.1964,5.79605 -6.1965,5.79605 -16.3035,0 -16.3036,0 0,-3.75 z m -30.4263,-101.97132 c -8.1407,-10.70728 -14.5011,-19.76789 -14.1344,-20.13469 0.3668,-0.36679 7.7891,0.29219 16.494,1.4644 10.8424,1.46008 16.2319,1.72646 17.1125,0.84585 0.707,-0.70701 2.0343,-5.68281 2.9496,-11.05735 0.9153,-5.37454 1.9825,-11.55304 2.3715,-13.73 0.5551,-3.10676 0.027,-4.69197 -2.4548,-7.37002 -3.7025,-3.99504 -3.8195,-4.71094 -1.1978,-7.33258 3.8395,-3.83946 7.3117,-1.27626 7.3682,5.43918 0.04,4.80117 0.6812,5.62706 13.1482,16.94683 7.2081,6.54484 13.8899,11.8997 14.8485,11.8997 1.8797,0 7.1561,-4.43251 20.5914,-17.29813 7.4541,-7.138 8.4572,-8.62532 7.8534,-11.64419 -0.4452,-2.22603 -0.01,-4.14724 1.2312,-5.38431 2.3161,-2.31612 3.2747,-2.39349 5.2448,-0.42337 2.2057,2.20568 1.8365,4.85568 -1.1139,7.99628 -2.6025,2.77025 -2.6045,2.8416 -0.455,16.33056 1.1874,7.45149 2.8327,14.27839 3.6563,15.17088 1.226,1.3287 4.4226,1.24823 17.6425,-0.44404 16.0815,-2.0586 19.2701,-3.09903 19.2701,-6.28775 0,-0.92289 1.161,-2.29929 2.5799,-3.05869 3.2804,-1.7556 6.4542,0.55503 5.9179,4.30838 -0.2916,2.04117 -1.5016,2.74548 -5.5564,3.23438 -4.9253,0.59385 -5.7285,1.34132 -16.119,15 -6.0144,7.90625 -12.8135,16.70873 -15.109,19.56107 l -4.1736,5.18606 -9.7074,-3.1024 c -14.7461,-4.7127 -29.2422,-6.19613 -43.2546,-4.42631 -9.9695,1.25916 -21.1881,4.03082 -28.3278,6.99863 -1.3497,0.56105 -6.0216,-4.6745 -16.6763,-18.68837 z m -26.5936,-22.33066 c -2.3659,-6.16524 4.9075,-9.15835 7.8607,-3.23483 1.1962,2.39934 1.2044,3.30124 0.037,4.04335 -2.498,1.58778 -7.1613,1.11036 -7.8977,-0.80852 z M 1579.7511,268.42915 c -3.9728,-4.98437 -7.761,-9.76533 -8.4183,-10.62435 -1.1586,-1.5141 2.3433,-6.79517 12.574,-18.96265 l 3.5941,-4.27451 8.3459,10.33695 c 4.5902,5.68533 8.3459,10.787 8.3459,11.33706 0,1.01339 -15.9835,21.25 -16.7839,21.25 -0.239,0 -3.6849,-4.07812 -7.6577,-9.0625 z m 91.6291,-133.12494 c 73.7344,-0.1781 194.3906,-0.1781 268.125,0 73.7344,0.1781 13.4063,0.32382 -134.0625,0.32382 -147.4687,0 -207.7969,-0.14572 -134.0625,-0.32382 z m -16.875,-45.00001 c 83.0156,-0.177422 218.8594,-0.177422 301.875,0 83.0156,0.177422 15.0938,0.322585 -150.9375,0.322585 -166.0312,0 -233.9531,-0.145163 -150.9375,-0.322585 z"
         id="path3968"
         inkscape:connector-curvature="0" />
      <path
         style="fill:#111111"
         d="m 1654.5052,961.5542 c 83.0156,-0.17742 218.8594,-0.17742 301.875,0 83.0156,0.17743 15.0938,0.32259 -150.9375,0.32259 -166.0312,0 -233.9531,-0.14516 -150.9375,-0.32259 z M 1493.5605,526.24165 c 0,-234.09375 0.1438,-329.85937 0.3197,-212.8125 0.1758,117.04688 0.1758,308.57813 0,425.625 -0.1759,117.04688 -0.3197,21.28125 -0.3197,-212.8125 z m 623.75,0 c 0,-234.09375 0.1438,-329.85937 0.3197,-212.8125 0.1758,117.04688 0.1758,308.57813 0,425.625 -0.1759,117.04688 -0.3197,21.28125 -0.3197,-212.8125 z M 1654.5052,90.3042 c 83.0156,-0.177422 218.8594,-0.177422 301.875,0 83.0156,0.177422 15.0938,0.322585 -150.9375,0.322585 -166.0312,0 -233.9531,-0.145163 -150.9375,-0.322585 z"
         id="path3966"
         inkscape:connector-curvature="0" />
    </g>
  </g>
</svg>
