<?xml version="1.0" encoding="UTF-8" standalone="no"?>
<!-- Created with Inkscape (http://www.inkscape.org/) -->

<svg
   xmlns:dc="http://purl.org/dc/elements/1.1/"
   xmlns:cc="http://creativecommons.org/ns#"
   xmlns:rdf="http://www.w3.org/1999/02/22-rdf-syntax-ns#"
   xmlns:svg="http://www.w3.org/2000/svg"
   xmlns="http://www.w3.org/2000/svg"
   xmlns:sodipodi="http://sodipodi.sourceforge.net/DTD/sodipodi-0.dtd"
   xmlns:inkscape="http://www.inkscape.org/namespaces/inkscape"
   width="176.4539mm"
   height="246.27022mm"
   viewBox="0 0 625.23037 872.611"
   id="svg2"
   version="1.1"
   inkscape:version="0.91 r13725"
   sodipodi:docname="k.svg">
  <defs
     id="defs4" />
  <sodipodi:namedview
     id="base"
     pagecolor="#ffffff"
     bordercolor="#666666"
     borderopacity="1.0"
     inkscape:pageopacity="0.0"
     inkscape:pageshadow="2"
     inkscape:zoom="0.35"
     inkscape:cx="357.09091"
     inkscape:cy="122.34366"
     inkscape:document-units="px"
     inkscape:current-layer="layer1"
     showgrid="false"
     fit-margin-top="0"
     fit-margin-left="0"
     fit-margin-right="0"
     fit-margin-bottom="0"
     inkscape:window-width="784"
     inkscape:window-height="822"
     inkscape:window-x="800"
     inkscape:window-y="0"
     inkscape:window-maximized="0" />
  <metadata
     id="metadata7">
    <rdf:RDF>
      <cc:Work
         rdf:about="">
        <dc:format>image/svg+xml</dc:format>
        <dc:type
           rdf:resource="http://purl.org/dc/dcmitype/StillImage" />
        <dc:title></dc:title>
      </cc:Work>
    </rdf:RDF>
  </metadata>
  <g
     inkscape:label="Calque 1"
     inkscape:groupmode="layer"
     id="layer1"
     transform="translate(323.5195,217.90501)">
    <g
       transform="translate(-2562.0629,-330.64279)"
       id="g3982">
      <path
         style="fill:#fdfdfd"
         d="m 2238.657,549.0988 0,-436.25 312.5,0 312.5,0 0,436.25 0,436.25 -312.5,0 -312.5,0 0,-436.25 z"
         id="path3998"
         inkscape:connector-curvature="0" />
      <path
         style="fill:#f8dce7"
         d="m 2244.7822,983.79054 c -1.8959,-0.75393 -3.8487,-2.94868 -4.6875,-5.26827 -2.0668,-5.71559 -2.07,-853.12232 0,-858.8378 0.9685,-2.67839 2.7229,-4.43273 5.4013,-5.40125 5.6984,-2.06059 605.6302,-2.06059 611.3286,0 2.6784,0.96852 4.4328,2.72286 5.4013,5.40125 2.0638,5.70731 2.0638,853.12135 0,858.82865 -0.9685,2.67839 -2.7229,4.43274 -5.4013,5.40125 -5.3415,1.93154 -607.1766,1.80977 -612.0391,-0.12387 z m 609.3032,-3.57958 c 1.6752,-0.76331 3.6705,-2.75854 4.4338,-4.43381 1.0084,-2.2132 1.3878,-118.86906 1.3878,-426.67835 0,-307.80929 -0.3794,-424.46515 -1.3878,-426.67834 -0.7633,-1.67529 -2.7586,-3.67051 -4.4338,-4.43382 -4.3419,-1.97828 -601.5149,-1.97828 -605.8567,0 -1.6753,0.76331 -3.6705,2.75853 -4.4339,4.43382 -1.9852,4.35702 -1.9804,849.01 0,853.36714 0.7659,1.68104 2.5941,3.63817 4.0625,4.34921 3.9091,1.89283 602.0711,1.96599 606.2233,0.0741 z M 2278.6825,942.5363 c -3.0273,-1.54688 -6.6621,-4.40063 -8.0773,-6.34166 l -2.5732,-3.52916 0,-383.56668 0,-383.56667 2.5732,-3.52917 c 1.4152,-1.94104 5.05,-4.79479 8.0773,-6.34166 l 5.5042,-2.8125 266.9703,0 266.9703,0 5.5042,2.8125 c 3.0273,1.54687 6.6621,4.40062 8.0773,6.34166 l 2.5732,3.52917 0,383.56667 0,383.56668 -2.5732,3.52916 c -1.4152,1.94103 -5.05,4.79478 -8.0773,6.34166 l -5.5042,2.8125 -266.9703,0 -266.9703,0 -5.5042,-2.8125 z m 543.9386,-10.50624 c 2.205,-1.99552 2.2859,-15.53855 2.2859,-382.71407 0,-352.44035 -0.1533,-380.81472 -2.0687,-382.93126 -1.992,-2.2011 -12.0658,-2.28593 -271.4641,-2.28593 -248.9211,0 -269.5691,0.15723 -271.6813,2.06873 -2.205,1.99553 -2.2859,15.53855 -2.2859,382.71408 0,352.44035 0.1533,380.81471 2.0687,382.93126 1.992,2.2011 12.0658,2.28593 271.4641,2.28593 248.9211,0 269.5691,-0.15722 271.6813,-2.06874 z M 2756.641,887.3072 c -0.3781,-0.98539 0.7646,-3.92846 2.5393,-6.54017 1.7747,-2.61172 3.2165,-5.32112 3.204,-6.02089 -0.013,-0.69979 -1.6994,-3.74669 -3.7487,-6.7709 -2.8583,-4.2183 -3.3995,-5.89181 -2.3242,-7.1875 2.4915,-3.00201 6.2767,-1.80674 11.1453,3.51937 l 4.7608,5.2083 0.4073,-4.14475 c 0.4892,-4.97905 3.7366,-7.54363 6.9697,-5.50423 1.865,1.17638 2.1875,3.3871 2.1875,14.99361 l 0,13.61376 -3.6144,0.4126 c -4.1559,0.47441 -5.714,-1.31566 -5.7415,-6.59635 l -0.019,-3.68376 -3.8581,5.24626 c -3.0156,4.1006 -4.662,5.24625 -7.5393,5.24625 -2.0428,0 -3.987,-0.79736 -4.3686,-1.7916 z m 11.1906,-41.69604 c -2.7401,-1.69349 -20.4149,-24.64741 -20.4149,-26.51236 0,-1.97078 17.8192,-24.9766 20.5427,-26.52195 0.8694,-0.49331 2.475,-0.21206 3.568,0.625 3.8858,2.97579 19.6296,23.74632 19.6296,25.89695 0,2.2704 -15.9903,23.22942 -19.7503,25.88736 -1.1767,0.8318 -2.7855,1.11305 -3.5751,0.625 z M 2523.3854,649.49502 c -3.2605,-0.85633 -3.6553,-5.74996 -3.2375,-40.13086 0.4285,-35.26046 0.072,-33.96215 9.3444,-33.99622 9.2067,-0.0339 9.1647,-0.103 9.1647,15.1146 l 0,13.61626 4.3293,0 c 4.0335,0 4.9851,-0.87561 13.9243,-12.8125 5.2772,-7.04688 10.4677,-13.51563 11.5346,-14.375 2.4412,-1.9665 16.7152,-2.0591 18.6533,-0.121 1.92,1.92001 0.9864,3.54356 -11.9147,20.71941 l -10.5709,14.07354 12.647,16.63679 c 6.9559,9.15023 12.6471,17.52562 12.6471,18.61198 0,3.05247 -9.9449,4.67163 -17.0239,2.7717 -1.4569,-0.39102 -7.5517,-7.16443 -13.5441,-15.05203 -10.7009,-14.08544 -10.9768,-14.33429 -15.4761,-13.95949 l -4.5809,0.3816 -0.3416,13.125 c -0.2738,10.52335 -0.7548,13.43472 -2.4264,14.6875 -2.0136,1.50915 -8.7055,1.8704 -13.1286,0.70872 z m -18.8951,-82.47956 c -1.4619,-1.46196 -0.8945,-12.85065 0.8481,-17.01931 2.7267,-6.52315 4.8236,-7.41491 21.8049,-9.27294 15.9651,-1.74684 35.9224,-1.40767 52.7637,0.89669 10.2679,1.40494 14.2054,5.16686 15.4822,14.79179 1.6158,12.1803 4.6011,11.43711 -45.9428,11.43711 -24.2675,0 -44.4977,-0.375 -44.9561,-0.83334 z m 7.5302,-32.60416 c -0.9354,-1.89063 -4.6892,-11.76293 -8.3418,-21.93844 -5.6918,-15.85621 -7.1478,-18.76294 -10.1853,-20.33366 -8.1424,-4.21062 -9.2805,-15.1305 -2.198,-21.09005 5.6614,-4.76376 11.4592,-4.35275 17.0184,1.20646 4.1479,4.14789 4.3605,4.75646 3.6175,10.35734 -0.7654,5.76969 -0.625,6.11189 4.6212,11.26058 l 5.4105,5.31006 2.097,-9.75845 c 2.6764,-12.45488 2.6354,-14.38876 -0.3452,-16.25014 -1.3432,-0.83884 -3.0955,-3.70573 -3.894,-6.37085 -2.6922,-8.98583 4.1528,-17.70535 13.8991,-17.70535 5.9512,0 12.4371,6.96041 12.4371,13.34686 0,2.66579 -0.9264,6.1695 -2.0587,7.78604 -1.9444,2.77601 -1.8617,3.55539 1.4888,14.0394 1.951,6.10512 3.9326,10.67327 4.4034,10.15146 0.4708,-0.52182 2.3737,-5.57555 4.2287,-11.23051 3.1252,-9.52736 3.2283,-10.48785 1.4052,-13.09064 -1.0821,-1.54489 -1.9674,-4.98996 -1.9674,-7.65575 0,-3.84545 0.8781,-5.72495 4.25,-9.09686 5.0094,-5.00939 10.4034,-5.59526 16.6194,-1.80511 7.5766,4.61975 8.3381,16.96627 1.3485,21.86203 -2.3014,1.61194 -2.351,2.25533 -0.8872,11.51272 2.4229,15.32263 2.4903,15.40407 7.5042,9.07152 3.6817,-4.65002 4.2901,-6.3705 4.2901,-12.13187 0,-6.00278 0.4321,-7.09959 4.0822,-10.36137 5.8372,-5.21618 11.6779,-5.01283 17.2928,0.60208 5.412,5.41199 5.7628,11.26037 1.0139,16.90409 -1.7799,2.11525 -3.9697,3.84591 -4.8663,3.84591 -0.8966,0 -2.0184,0.98437 -2.493,2.1875 -0.4745,1.20312 -3.946,10.625 -7.7144,20.9375 -3.7683,10.3125 -7.5567,19.47136 -8.4185,20.35304 -1.2609,1.28988 -5.0196,1.32192 -19.241,0.164 -13.1629,-1.07175 -21.6818,-1.0821 -33.376,-0.0405 -20.3232,1.8101 -19.0771,1.93085 -21.0412,-2.039 z M 2331.5816,305.61116 c -2.7401,-1.69349 -20.4149,-24.64741 -20.4149,-26.51236 0,-1.97078 17.8192,-24.9766 20.5427,-26.52195 0.8694,-0.49331 2.475,-0.21206 3.568,0.625 3.8858,2.97579 19.6296,23.74632 19.6296,25.89695 0,2.2704 -15.9903,23.22942 -19.7503,25.88736 -1.1767,0.8318 -2.7855,1.11305 -3.5751,0.625 z m -10.1565,-67.57023 c -1.1866,-0.75286 -1.5136,-4.59031 -1.25,-14.66836 l 0.3569,-13.64877 3.71,0 c 3.2378,0 3.8819,0.61319 5.0618,4.81821 l 1.3518,4.81822 3.0632,-4.53754 c 3.0953,-4.58505 7.1183,-6.59379 10.5604,-5.27293 2.7425,1.05239 2.3029,4.15849 -1.2472,8.81293 -1.7187,2.2534 -3.125,4.6363 -3.125,5.29534 0,0.65905 1.7457,3.57199 3.8792,6.47321 3.1646,4.30319 3.597,5.61508 2.347,7.12125 -2.6113,3.14636 -6.3211,2.05848 -11.2066,-3.28624 l -4.6916,-5.13256 -0.823,4.38687 c -0.9747,5.19543 -4.2655,7.18156 -7.9869,4.82037 z"
         id="path3996"
         inkscape:connector-curvature="0" />
      <path
         style="fill:#f2a9c6"
         d="m 2245.8602,983.39206 c -7.802,-4.23332 -7.2032,31.86904 -7.2032,-434.29326 0,-377.55168 0.2122,-425.53447 1.8962,-428.79092 4.1664,-8.05695 -20.7295,-7.45908 310.6038,-7.45908 331.3333,0 306.4374,-0.59787 310.6038,7.45908 1.684,3.25645 1.8962,51.23924 1.8962,428.79092 0,377.55167 -0.2122,425.53448 -1.8962,428.79091 -4.1671,8.05846 20.7716,7.46407 -310.8542,7.40904 -264.3514,-0.0439 -302.0474,-0.27947 -305.0464,-1.90669 z m 608.3564,-1.63756 c 2.0265,-1.18888 4.6572,-3.81964 5.8461,-5.84614 2.0368,-3.47179 2.1669,-28.08965 2.2529,-426.30501 0.082,-377.43781 -0.1136,-423.03138 -1.826,-426.46408 -1.0546,-2.11399 -3.8993,-5.01292 -6.3215,-6.44205 l -4.404,-2.59842 -298.6071,0 -298.6071,0 -4.404,2.59842 c -2.4222,1.42913 -5.2668,4.32806 -6.3214,6.44205 -1.7125,3.4327 -1.9077,49.02627 -1.8261,426.46408 0.086,398.21536 0.2161,422.83322 2.2529,426.30501 1.1889,2.0265 3.8196,4.65727 5.8461,5.84614 3.4646,2.0325 21.5618,2.16158 303.0596,2.16158 281.4978,0 299.595,-0.12908 303.0596,-2.16158 z m -575.6072,-40.4682 c -3.6299,-1.83043 -6.3406,-4.34017 -7.763,-7.1875 -2.0663,-4.13644 -2.1855,-25.13035 -2.1855,-385 0,-359.86964 0.1192,-380.86357 2.1855,-385 1.4224,-2.84733 4.1331,-5.35707 7.763,-7.1875 l 5.5773,-2.8125 266.9703,0 266.9703,0 5.5773,2.8125 c 3.6299,1.83043 6.3406,4.34017 7.763,7.1875 2.0663,4.13643 2.1855,25.13036 2.1855,385 0,359.86965 -0.1191,380.86356 -2.1855,385 -1.4224,2.84733 -4.1331,5.35707 -7.763,7.1875 l -5.5773,2.8125 -266.9703,0 -266.9703,0 -5.5773,-2.8125 z m 544.6545,-8.65539 2.8931,-2.7179 0,-380.63904 0,-380.63904 -2.7179,-2.89307 -2.7179,-2.89306 -269.389,0 -269.3891,0 -2.893,2.71789 -2.8931,2.71789 0,380.63905 0,380.63905 2.7179,2.89306 2.7179,2.89306 269.389,0 269.3891,0 2.893,-2.71789 z m -65.2653,-46.08614 c -0.4432,-0.71721 0.6486,-3.21092 2.4262,-5.54158 4.0035,-5.2488 4.0138,-6.42378 0.1072,-12.1729 -3.4034,-5.00854 -3.7969,-6.6687 -1.8638,-7.8634 2.334,-1.44255 6.0959,0.73069 8.7787,5.07145 3.2962,5.33348 6.2101,5.66827 6.2101,0.71351 0,-4.10129 2.7941,-7.03734 5.653,-5.94025 1.6062,0.61636 1.8744,2.92275 1.5784,13.57735 -0.3544,12.76211 -0.3741,12.83485 -3.4814,12.83485 -2.7088,0 -3.1767,-0.62429 -3.513,-4.6875 -0.2133,-2.57813 -0.84,-4.6875 -1.3924,-4.6875 -0.5525,0 -2.5638,2.25 -4.4696,5 -3.434,4.95527 -8.1756,6.70192 -10.0334,3.69597 z m 0.073,-54.15132 c -5.178,-6.43794 -9.4147,-12.42054 -9.4147,-13.29465 0,-2.76619 18.6978,-25.00319 20.9773,-24.94801 2.7168,0.0658 19.6477,21.56407 19.6477,24.94801 0,3.38394 -16.9309,24.88225 -19.6477,24.94801 -1.2424,0.0301 -6.1164,-4.8822 -11.5625,-11.65336 z M 2523.1213,647.13451 c -1.6862,-1.68615 -1.9643,-6.62029 -1.9643,-34.84694 0,-37.19613 -0.302,-36.07977 9.5904,-35.44872 l 6.0346,0.38495 0.3123,11.25 c 0.4593,16.5485 0.6713,17.09149 6.4959,16.63235 4.5719,-0.36039 5.4492,-1.17216 15.2737,-14.13235 l 10.4232,-13.75 8.435,-0.36961 c 7.2662,-0.3184 8.4349,-0.0738 8.4349,1.76607 0,1.17463 -4.8082,8.53708 -10.6849,16.36099 -5.8767,7.82391 -10.9523,14.92219 -11.2792,15.77394 -0.3268,0.85175 4.8251,8.56189 11.4487,17.13362 6.6235,8.57175 12.3436,16.34489 12.7113,17.27364 1.0108,2.5536 -2.1246,3.89596 -9.1495,3.91721 -7.2876,0.022 -7.8585,-0.45791 -20.3938,-17.14487 -8.0988,-10.78099 -10.5715,-12.83599 -15.4454,-12.83599 -5.1437,0 -5.9572,2.14946 -5.9572,15.74126 0,14.01004 -0.1419,14.25874 -8.1379,14.25874 -2.301,0 -5.0675,-0.88393 -6.1478,-1.96429 z m -17.381,-81.36905 c -0.4583,-0.45832 -0.8333,-3.58001 -0.8333,-6.93707 0,-6.62564 2.504,-12.74324 5.9504,-14.53773 4.1021,-2.13585 35.5002,-4.24212 49.6746,-3.33232 28.5068,1.82975 32.0776,3.48032 33.7442,15.59807 1.4524,10.5605 3.7709,10.04239 -44.9389,10.04239 -23.52,0 -43.1386,-0.375 -43.597,-0.83334 z m 4.5059,-38.7442 c -2.0425,-5.3886 -5.5918,-15.0822 -7.8874,-21.54132 -3.4557,-9.72374 -4.8517,-12.14389 -8.1153,-14.06945 -7.4816,-4.41427 -8.8678,-12.3728 -3.21,-18.42949 5.0147,-5.36823 11.3043,-5.3937 16.6307,-0.0674 3.4654,3.46544 3.7438,4.33294 3.0396,9.47092 -0.7387,5.38952 -0.4995,5.97551 5.0776,12.43535 3.8931,4.50943 6.1627,6.27782 6.7785,5.28156 0.5091,-0.82378 1.9115,-6.73194 3.1164,-13.12925 l 2.1907,-11.6315 -3.6391,-3.7984 c -6.7535,-7.04913 -3.8705,-17.67723 5.7002,-21.01359 3.9504,-1.37711 9.1342,0.64759 12.7914,4.99603 2.7462,3.26533 2.8169,10.2478 0.1494,14.76351 -1.9447,3.29212 -1.8541,4.00262 1.9781,15.50536 2.2089,6.63034 4.4127,12.05515 4.8973,12.05515 0.4846,0 2.7233,-5.6204 4.9749,-12.48976 3.799,-11.58999 3.9532,-12.69065 2.1409,-15.27814 -2.5733,-3.67377 -2.441,-10.91507 0.2622,-14.35709 5.7384,-7.30677 13.5812,-7.371 19.6481,-0.16088 4.2436,5.04331 4.0383,9.92187 -0.6419,15.25233 l -3.7785,4.30347 2.0951,12.61503 c 1.1523,6.93828 2.5276,12.61504 3.0562,12.61504 0.5287,0 3.2674,-2.67187 6.086,-5.9375 4.5498,-5.27119 5.0415,-6.45081 4.3816,-10.51164 -2.0017,-12.31815 10.9642,-19.71703 19.5343,-11.14701 6.2999,6.2999 4.5685,14.26639 -4.2316,19.47115 -1.1836,0.7 -5.5897,10.6001 -10.0139,22.5 l -7.9003,21.25 -13.6627,-0.625 c -19.1875,-0.87774 -29.1592,-0.78296 -44.4488,0.42246 l -13.2861,1.04748 -3.7136,-9.79748 z M 2321.8218,292.39345 c -5.1781,-6.43794 -9.4148,-12.42054 -9.4148,-13.29465 0,-2.76619 18.6978,-25.00319 20.9773,-24.94801 2.7168,0.0658 19.6477,21.56407 19.6477,24.94801 0,3.38394 -16.9309,24.88225 -19.6477,24.94801 -1.2424,0.0301 -6.1164,-4.8822 -11.5625,-11.65336 z m 0.1685,-55.37798 c -0.4583,-0.45834 -0.8333,-6.38224 -0.8333,-13.16423 0,-9.85383 0.3799,-12.47667 1.8909,-13.05652 2.8196,-1.08196 5.6091,1.88064 5.6091,5.95714 0,4.83893 1.3292,4.53319 6.0997,-1.40306 2.7181,-3.3823 5.0101,-5 7.0842,-5 3.9864,0 3.9663,2.73658 -0.059,8.01389 -1.7187,2.2534 -3.125,4.63783 -3.125,5.29875 0,0.66091 1.4063,3.10772 3.125,5.43736 3.8586,5.23009 4.0817,8.75 0.5545,8.75 -2.3921,0 -9.9295,-6.85349 -9.9295,-9.02858 0,-0.53428 -0.8437,-0.97142 -1.875,-0.97142 -1.0616,0 -1.875,1.12024 -1.875,2.58218 0,5.28855 -4.006,9.24516 -6.6667,6.58449 z"
         id="path3994"
         inkscape:connector-curvature="0" />
      <path
         style="fill:#ef91b6"
         d="m 2247.8389,984.39216 c -0.7938,-0.5051 135.6994,-0.91836 303.3181,-0.91836 167.6187,0 304.1119,0.41326 303.3181,0.91836 -0.7937,0.5051 -137.2868,0.91835 -303.3181,0.91835 -166.0312,0 -302.5244,-0.41325 -303.3181,-0.91835 z m -8.4232,-8.5206 c -1.0958,-2.85572 -0.899,-852.11718 0.1979,-853.8409 0.5051,-0.79372 0.9184,191.44065 0.9184,427.1875 0,235.74685 -0.08,428.63064 -0.1788,428.63064 -0.098,0 -0.5202,-0.88975 -0.9375,-1.97724 z M 2861.782,549.0988 c 0,-235.6812 0.4133,-427.86186 0.9184,-427.06814 1.2008,1.88698 1.2008,852.2493 0,854.13628 -0.5051,0.79372 -0.9184,-191.38694 -0.9184,-427.06814 z m -583.9166,391.35243 c -2.1541,-1.31353 -4.826,-3.68659 -5.9375,-5.27347 -1.8505,-2.64198 -2.0209,-35.19911 -2.0209,-386.18852 l 0,-383.30329 2.6104,-3.31855 c 5.9356,-7.54592 -14.9992,-7.0186 278.6396,-7.0186 293.6388,0 272.704,-0.52732 278.6396,7.0186 l 2.6104,3.31855 0,383.41285 0,383.41285 -2.6104,3.31855 c -5.9358,7.54617 15.0246,7.01903 -278.89,7.01392 -262.722,-0.005 -269.2178,-0.0615 -273.0412,-2.39289 z m 546.0694,-7.32464 2.8472,-2.84721 0,-381.18055 0,-381.18057 -2.8472,-2.84723 -2.8472,-2.84723 -269.9306,0 -269.9306,0 -2.8472,2.84719 -2.8472,2.8472 -0.2974,379.6528 c -0.2374,302.94882 0.02,380.2792 1.2746,382.75317 0.8646,1.7052 2.9672,3.8084 4.6724,4.67378 2.4687,1.25282 57.7891,1.51253 271.5032,1.27463 l 268.4029,-0.29877 2.8471,-2.84721 z m -64.6974,-46.59994 c -0.4494,-0.72717 0.6424,-3.52762 2.4262,-6.2232 1.7839,-2.69557 3.2277,-5.33499 3.2086,-5.86535 -0.019,-0.53036 -1.7066,-3.17387 -3.75,-5.87447 -4.4465,-5.87672 -4.5929,-6.96483 -0.9368,-6.96483 1.7009,0 4.5943,2.06028 7.4608,5.3125 3.8834,4.40601 4.8991,4.99256 5.9524,3.4375 0.6986,-1.03125 1.2787,-3.42188 1.2893,-5.3125 0.014,-2.53266 0.642,-3.4375 2.3854,-3.4375 3.1861,0 3.8837,2.33285 3.8837,12.98833 0,9.20713 -1.9942,14.49437 -4.8104,12.75387 -0.7918,-0.48936 -1.4396,-2.5617 -1.4396,-4.6052 0,-4.89951 -3.2453,-6.16386 -5.9413,-2.31473 -4.6821,6.68457 -8.0601,8.80469 -9.7283,6.10558 z m 3.4422,-49.7199 c -9.7984,-11.77399 -12.7726,-15.93771 -12.7726,-17.88091 0,-2.30384 17.7488,-24.20204 19.6161,-24.20204 1.2561,0 20.3742,22.87224 20.3742,24.375 0,1.00304 -18.8397,24.33624 -19.9894,24.75715 -0.5741,0.21019 -3.8268,-2.96195 -7.2283,-7.0492 z m -239.6829,-190.4742 c -0.3478,-0.90634 -0.4821,-16.54533 -0.2985,-34.75331 l 0.3338,-33.10544 6.875,0 6.875,0 0.3592,13.08008 c 0.1975,7.19404 0.9249,13.4297 1.6162,13.857 0.6914,0.42729 3.3423,0.44655 5.8909,0.0427 4.1564,-0.65849 5.6602,-2.11818 14.5985,-14.16948 l 9.9648,-13.43534 7.7739,0 c 4.2757,0 8.0424,0.43428 8.3704,0.96505 0.328,0.53079 -4.42,7.65791 -10.5512,15.83807 -6.1312,8.18017 -11.141,15.76152 -11.1329,16.84745 0.01,1.08594 5.3519,8.9397 11.875,17.45282 6.5231,8.51311 11.8602,16.24748 11.8602,17.1875 0,1.26337 -2.0397,1.70911 -7.8209,1.70911 l -7.821,0 -11.0399,-14.43896 -11.0399,-14.43897 -5.8267,0.37647 -5.8266,0.37646 -0.625,13.75 -0.625,13.75 -6.5765,0.37831 c -4.5737,0.2631 -6.769,-0.1235 -7.2088,-1.26956 z m -17.6436,-82.8741 c -1.3029,-3.39553 0.9019,-13.08616 3.6965,-16.24644 2.312,-2.61455 4.4633,-3.28247 13.9824,-4.34132 14.4988,-1.61275 38.1988,-1.59903 52.5,0.0304 14.4553,1.647 17.079,3.83241 17.879,14.89234 l 0.5465,7.55536 -43.9395,0 c -38.0628,0 -44.0365,-0.25282 -44.6649,-1.89035 z m 9.8561,-27.89044 c -0.8651,-0.55248 -4.3903,-8.84345 -7.8339,-18.42436 -8.7894,-24.45444 -8.6687,-24.20499 -12.7387,-26.30969 -10.3147,-5.33392 -6.7782,-20.98516 4.7417,-20.98516 7.7209,0 12.7067,7.44787 10.0996,15.08689 -0.7345,2.15215 0.2902,4.08715 4.9644,9.375 5.0425,5.70448 9.2147,8.8417 9.2147,6.92882 0,-0.29844 1.1666,-6.26262 2.5925,-13.25377 l 2.5924,-12.71117 -3.8424,-3.5894 c -5.1651,-4.82491 -5.3862,-11.95175 -0.5217,-16.81623 4.5844,-4.58447 8.3082,-5.25897 13.2144,-2.39358 7.1625,4.18311 8.9842,12.46524 3.9623,18.01434 -2.1814,2.41044 -2.1822,2.40621 3.5311,18.2966 2.0393,5.67187 4.1907,10.3125 4.7809,10.3125 1.2208,0 8.6905,-22.51198 8.6905,-26.19118 0,-1.3262 -0.5192,-2.73217 -1.1538,-3.12438 -0.6346,-0.39221 -1.5141,-2.3531 -1.9543,-4.35754 -1.0584,-4.81875 2.0575,-10.71941 7.0139,-13.28246 4.7132,-2.43732 8.3964,-1.65138 12.7734,2.7257 4.6993,4.69928 4.5968,11.66744 -0.2463,16.73522 l -3.567,3.7326 1.7096,10.31851 c 2.3558,14.21847 2.8026,15.94353 4.1296,15.94353 0.6367,0 3.6678,-3.0816 6.7359,-6.84801 4.9838,-6.11812 5.5091,-7.3646 4.9283,-11.6948 -0.8056,-6.00612 1.1859,-9.93063 6.0847,-11.9904 7.6467,-3.2152 15.296,1.83782 15.296,10.10437 0,4.41829 -0.4171,4.97078 -8.7343,11.56939 -0.7477,0.59315 -4.6212,10.00105 -8.6078,20.90645 -3.9867,10.9054 -7.9816,20.42763 -8.8776,21.16051 -1.1107,0.90849 -4.7358,0.97517 -11.3922,0.20957 -9.7967,-1.12682 -50.6248,-0.48993 -54.1381,0.84449 -1.0312,0.39169 -2.5828,0.26013 -3.4478,-0.29236 z M 2326.4296,296.80675 c -9.7984,-11.77399 -12.7726,-15.93771 -12.7726,-17.88091 0,-2.30384 17.7488,-24.20204 19.6161,-24.20204 1.2561,0 20.3742,22.87224 20.3742,24.375 0,1.00304 -18.8397,24.33624 -19.9894,24.75715 -0.5741,0.21019 -3.8268,-2.96195 -7.2283,-7.0492 z m -4.7053,-61.78255 c -0.3713,-0.96766 -0.5102,-6.49361 -0.3087,-12.27989 0.3331,-9.56504 0.5935,-10.52051 2.8664,-10.52051 1.8909,0 2.6523,1.04167 3.125,4.27564 0.8479,5.80068 2.7496,6.02197 6.7442,0.78477 1.8466,-2.42101 4.4679,-4.99615 5.8252,-5.72253 4.0464,-2.1656 4.4595,1.90496 0.6942,6.84147 -1.795,2.35337 -3.248,4.73825 -3.2288,5.29975 0.019,0.56149 1.7066,3.23048 3.75,5.93107 4.4787,5.91925 4.5987,6.96483 0.7994,6.96483 -1.9051,0 -4.3271,-1.75618 -6.9875,-5.06667 -4.7133,-5.86509 -6.7201,-5.82497 -7.5967,0.15184 -0.6543,4.46133 -4.4062,6.66667 -5.6827,3.34023 z m -73.8854,-121.21876 c 1.8868,-1.20074 604.7494,-1.20074 606.6362,0 0.7938,0.5051 -135.6994,0.91836 -303.3181,0.91836 -167.6187,0 -304.1119,-0.41326 -303.3181,-0.91836 z"
         id="path3992"
         inkscape:connector-curvature="0" />
      <path
         style="fill:#e85c94"
         d="m 2247.8389,984.39216 c -0.7938,-0.5051 135.6994,-0.91836 303.3181,-0.91836 167.6187,0 304.1119,0.41326 303.3181,0.91836 -0.7937,0.5051 -137.2868,0.91835 -303.3181,0.91835 -166.0312,0 -302.5244,-0.41325 -303.3181,-0.91835 z m -8.4232,-8.5206 c -1.0958,-2.85572 -0.899,-852.11718 0.1979,-853.8409 0.5051,-0.79372 0.9184,191.44065 0.9184,427.1875 0,235.74685 -0.08,428.63064 -0.1788,428.63064 -0.098,0 -0.5202,-0.88975 -0.9375,-1.97724 z M 2861.782,549.0988 c 0,-235.6812 0.4133,-427.86186 0.9184,-427.06814 1.2008,1.88698 1.2008,852.2493 0,854.13628 -0.5051,0.79372 -0.9184,-191.38694 -0.9184,-427.06814 z m -581.25,391.98545 c -2.0625,-0.91669 -5.1562,-3.18999 -6.875,-5.05179 l -3.125,-3.38507 0,-383.54859 0,-383.54859 3.125,-3.3868 c 6.7011,-7.26247 -11.5364,-6.81461 277.5,-6.81461 289.0364,0 270.7989,-0.44786 277.5,6.81461 l 3.125,3.3868 0,383.54859 0,383.54859 -3.125,3.3868 c -6.7026,7.26414 11.5816,6.81879 -277.7723,6.76569 -219.3827,-0.0403 -267.2669,-0.34414 -270.3527,-1.71563 z m 543.8068,-7.55364 3.0682,-3.06817 0,-381.36364 0,-381.36364 -3.0682,-3.06818 -3.0682,-3.06818 -270.1136,0 -270.1136,0 -3.0682,3.06818 -3.0682,3.06818 0,381.36364 0,381.36364 3.0682,3.06817 3.0682,3.06819 270.1136,0 270.1136,0 3.0682,-3.06819 z m -64.4318,-48.30135 c 0,-0.75325 1.0328,-2.86262 2.295,-4.6875 1.2623,-1.82487 2.6529,-3.94195 3.0901,-4.70461 0.4373,-0.76265 -0.8611,-3.57515 -2.8852,-6.25 -6.6531,-8.79168 -3.093,-11.62854 3.7501,-2.98835 5.1749,6.53383 8.4627,6.64815 8.987,0.3125 0.2617,-3.16091 0.9986,-4.6875 2.263,-4.6875 1.5351,0 1.875,2.15277 1.875,11.875 0,9.72222 -0.3399,11.875 -1.875,11.875 -1.1794,0 -2.1069,-1.58619 -2.5,-4.27564 -0.8736,-5.97656 -2.8134,-6.01665 -7.4567,-0.15407 -3.8102,4.81076 -7.5433,6.63452 -7.5433,3.68517 z m -0.3642,-53.0519 c -4.669,-5.85389 -8.7696,-11.37417 -9.1123,-12.26729 -0.6747,-1.75833 16.2182,-23.70876 18.6931,-24.2896 1.5821,-0.3713 19.5334,21.2054 19.5334,23.47833 0,1.9369 -17.7327,23.75241 -19.2938,23.736 -0.7321,-0.007 -5.1513,-4.80354 -9.8204,-10.65744 z M 2523.9639,646.40567 c -1.8127,-1.81267 -2.2562,-64.26866 -0.4764,-67.07546 0.6736,-1.06211 2.9885,-1.50435 6.5434,-1.25 l 5.5011,0.39359 0.3123,11.25 c 0.4622,16.65395 0.5564,16.875 7.1921,16.875 l 5.5817,0 10.7974,-14.375 10.7973,-14.375 7.3471,0 c 4.2567,0 7.3471,0.54724 7.3471,1.30099 0,0.71553 -5.0625,8.0051 -11.25,16.19901 -6.1875,8.19391 -11.25,15.39986 -11.25,16.01323 0,0.61336 5.6516,8.6023 12.5591,17.75319 9.2422,12.24388 12.1308,16.90968 10.9375,17.66666 -1.8893,1.19843 -9.9156,1.40328 -12.7261,0.32478 -1.0637,-0.40817 -6.4729,-6.82421 -12.0205,-14.25786 -5.5476,-7.43365 -10.9568,-13.84969 -12.0205,-14.25786 -3.4186,-1.31184 -10.1319,-0.79215 -11.5301,0.89255 -0.7461,0.89908 -1.5181,7.50846 -1.7155,14.6875 l -0.3589,13.05281 -5.0056,0.36937 c -2.811,0.20744 -5.6882,-0.31321 -6.5625,-1.1875 z m -16.9574,-81.87406 c -1.252,-1.252 -1.0326,-9.78847 0.3447,-13.41106 2.0839,-5.48106 5.8483,-6.75834 24.5651,-8.33514 18.5209,-1.56027 48.7292,-0.005 54.9491,2.82882 3.5417,1.61371 5.9427,7.13267 6.0702,13.95269 l 0.096,5.15688 -42.588,0.32865 c -23.4234,0.18075 -42.9703,-0.0536 -43.4375,-0.52084 z m 6.1351,-33.24531 c -0.9008,-2.23438 -4.3151,-11.65625 -7.5873,-20.9375 -3.2721,-9.28125 -6.844,-17.4375 -7.9374,-18.125 -4.8091,-3.02372 -8.9599,-8.14654 -8.9599,-11.05794 0,-1.71889 1.4563,-4.85591 3.2361,-6.97115 4.2415,-5.04076 10.4251,-5.29838 15.0946,-0.6289 2.8543,2.8543 3.1281,3.88675 2.429,9.15708 -0.7747,5.84026 -0.6745,6.06447 5.9682,13.34549 3.7159,4.07298 7.1423,7.03228 7.6142,6.57623 1.1017,-1.06475 5.6579,-21.84297 5.6579,-25.80258 0,-1.69474 -1.3227,-4.04885 -3.029,-5.39107 -4.0636,-3.19642 -5.1455,-8.6719 -2.6623,-13.47387 3.794,-7.33684 11.2352,-8.52675 17.0375,-2.72444 4.1078,4.10786 5.014,11.16119 1.7788,13.84615 -1.0312,0.85586 -1.875,2.49316 -1.875,3.63844 0,3.55845 8.2236,26.81109 9.6502,27.28664 0.753,0.25098 3.3952,-5.68359 5.9675,-13.40322 4.3514,-13.05883 4.502,-14.02805 2.6243,-16.89377 -3.1526,-4.81136 -2.5237,-10.28873 1.6619,-14.47424 6.7295,-6.72954 16.8629,-3.16835 18.3954,6.46473 0.6073,3.81723 0.1116,5.1806 -3.293,9.05823 l -4.0078,4.56467 2.3133,13.44176 c 1.4333,8.3288 2.8833,13.44176 3.8119,13.44176 0.8243,0 4.0822,-3.02654 7.2397,-6.72564 5.4223,-6.35238 5.6957,-7.02653 4.9278,-12.14768 -0.7346,-4.89879 -0.4474,-5.78782 2.9767,-9.21187 4.0278,-4.02777 7.4398,-4.69877 11.8768,-2.33563 7.6102,4.0532 7.892,10.79962 0.7274,17.41393 -4.4544,4.11225 -6.0914,7.31669 -12.463,24.39593 -4.0342,10.81401 -7.8193,20.14616 -8.4112,20.7381 -0.6017,0.60166 -8.8288,0.44504 -18.6572,-0.35521 -13.0366,-1.06147 -21.2666,-1.07159 -31.8395,-0.0392 -19.1884,1.87365 -18.3924,1.97852 -20.2666,-2.67023 z M 2323.2928,292.17736 c -4.669,-5.85389 -8.7696,-11.37417 -9.1123,-12.26729 -0.6747,-1.75833 16.2181,-23.70876 18.6931,-24.2896 1.5821,-0.3713 19.5334,21.2054 19.5334,23.47833 0,1.9369 -17.7327,23.75241 -19.2938,23.736 -0.7321,-0.007 -5.1513,-4.80354 -9.8204,-10.65744 z m -0.063,-56.42274 c -1.4389,-1.4389 -0.9284,-22.69282 0.5672,-23.61719 1.8422,-1.1385 3.5674,1.75544 3.5912,6.02387 0.028,5.08888 3.7113,4.34917 7.9127,-1.58919 3.3603,-4.74962 6.1971,-6.20593 7.6161,-3.90987 0.3615,0.58489 -0.7303,2.94417 -2.4262,5.24285 -3.8537,5.2233 -3.8487,6.60722 0.042,11.7076 6.1898,8.11526 1.9098,9.99372 -4.5253,1.98611 -4.8665,-6.05567 -8.5997,-6.66476 -8.5997,-1.40306 0,3.60259 -2.6318,7.10461 -4.1775,5.55888 z m -75.3906,-121.94918 c 1.8868,-1.20074 604.7494,-1.20074 606.6362,0 0.7938,0.5051 -135.6994,0.91836 -303.3181,0.91836 -167.6187,0 -304.1119,-0.41326 -303.3181,-0.91836 z"
         id="path3990"
         inkscape:connector-curvature="0" />
      <path
         style="fill:#e01b6a"
         d="m 2400.2195,984.41135 c 83.0156,-0.17743 218.8594,-0.17743 301.875,0 83.0156,0.17742 15.0938,0.32259 -150.9375,0.32259 -166.0312,0 -233.9531,-0.14517 -150.9375,-0.32259 z M 2239.2748,549.0988 c 0,-234.09375 0.1438,-329.85938 0.3197,-212.8125 0.1758,117.04687 0.1758,308.57812 0,425.625 -0.1759,117.04687 -0.3197,21.28125 -0.3197,-212.8125 z m 623.75,0 c 0,-234.09375 0.1438,-329.85938 0.3197,-212.8125 0.1758,117.04687 0.1758,308.57812 0,425.625 -0.1759,117.04687 -0.3197,21.28125 -0.3197,-212.8125 z M 2280.532,939.85024 c -2.0625,-0.91293 -4.875,-2.92076 -6.25,-4.46187 -2.487,-2.78746 -2.5015,-4.78128 -2.7974,-384.85827 -0.2348,-301.68031 0.028,-382.68838 1.25,-385.0608 0.8511,-1.65248 3.1355,-4.18373 5.0766,-5.625 l 3.5291,-2.6205 269.8167,0 269.8167,0 3.5291,2.6205 c 1.9411,1.44127 4.224,3.97252 5.0733,5.625 2.2618,4.40115 2.2618,762.85785 0,767.259 -0.8493,1.65248 -3.1322,4.18372 -5.0732,5.625 l -3.5291,2.6205 -268.3459,0.26815 c -220.8,0.22065 -269.0103,-0.0259 -272.0959,-1.39171 z m 543.9928,-5.01821 3.5072,-3.01677 0,-382.71646 0,-382.71646 -3.5072,-3.01677 -3.5072,-3.01677 -269.8606,0 -269.8606,0 -3.5072,3.01677 -3.5072,3.01677 0,382.71646 0,382.71646 3.5072,3.01677 3.5072,3.01677 269.8606,0 269.8606,0 3.5072,-3.01677 z m -63.34,-50.42073 c 0.015,-0.51563 1.1278,-2.34375 2.4722,-4.0625 3.2924,-4.20914 3.1158,-6.85946 -0.7993,-11.99242 -4.9017,-6.42647 -2.2372,-7.00037 3.153,-0.67913 5.8356,6.84354 9.3335,6.79011 9.9093,-0.15135 0.7633,-9.20304 2.737,-4.46335 2.737,6.5729 0,6.66666 -0.5093,11.25 -1.25,11.25 -0.6875,0 -1.25,-1.61862 -1.25,-3.59695 0,-1.97831 -0.9181,-4.35893 -2.0403,-5.29024 -1.784,-1.48058 -2.6126,-1.02876 -6.5966,3.59695 -4.3205,5.01646 -6.3973,6.44335 -6.3353,4.35274 z m -1.2778,-53.29157 c -4.4687,-5.70133 -8.125,-11.11075 -8.125,-12.02093 0,-2.09601 15.8201,-22.37235 17.5,-22.4295 1.49,-0.0506 18.125,20.535 18.125,22.4295 0,1.8945 -16.635,22.48018 -18.125,22.4295 -0.6875,-0.0234 -4.9062,-4.70725 -9.375,-10.40858 z M 2524.2207,645.01479 c -0.3343,-0.87122 -0.4573,-15.91809 -0.2733,-33.4375 l 0.3346,-31.85349 5.625,0 5.625,0 0.625,13.75 0.625,13.75 6.25,0 6.25,0 10.625,-14.05935 10.625,-14.05935 6.5625,-0.004 c 3.6094,-10e-4 6.5625,0.2746 6.5625,0.61408 0,0.33947 -5.0936,7.44652 -11.3191,15.79346 -6.5442,8.7742 -11.0316,15.92541 -10.6376,16.9522 0.3749,0.97679 5.7497,8.42581 11.9441,16.55338 6.1944,8.12818 11.2626,15.40943 11.2626,16.18117 0,0.8449 -2.4148,1.40316 -6.0696,1.40316 l -6.0695,0 -10.9055,-14.375 -10.9054,-14.375 -7.4,0 -7.4,0 0,12.39776 c 0,6.81878 -0.3414,13.28753 -0.7587,14.375 -0.9376,2.44315 -10.2651,2.77129 -11.1776,0.39323 z m -17.0081,-81.52701 c -1.4468,-1.44683 1.1763,-13.42143 3.4157,-15.59293 3.372,-3.26969 29.8141,-5.64456 49.8838,-4.48026 26.974,1.56485 30.1482,2.99554 31.4735,14.18592 l 0.7696,6.49829 -42.4657,0 c -23.3562,0 -42.7408,-0.27496 -43.0769,-0.61102 z m 0.7128,-49.57748 c -4.043,-11.21675 -8.281,-21.17069 -9.4177,-22.11985 -9.5785,-7.99848 -10.6471,-11.00297 -6.01,-16.89807 3.3057,-4.20248 9.9374,-4.51548 13.8015,-0.65141 2.2139,2.21389 2.5176,3.58159 1.8734,8.4375 -0.7433,5.60402 -0.552,6.05124 5.7953,13.54789 3.6103,4.26391 7.384,7.6358 8.3861,7.49309 2.1057,-0.29989 4.2272,-6.92649 6.4471,-20.13773 l 1.5631,-9.30277 -3.9786,-3.71659 c -6.141,-5.73661 -4.6407,-14.11987 3.0905,-17.26804 3.5356,-1.43972 4.3769,-1.3152 8.125,1.20253 3.4234,2.29974 4.2487,3.7266 4.5553,7.87584 0.2525,3.4171 -0.2564,5.59076 -1.5625,6.67475 -2.7698,2.29873 -2.3491,5.27545 2.8341,20.05136 2.9082,8.29074 5.2537,13.125 6.3679,13.125 1.1335,0 3.5069,-5.13721 6.6411,-14.375 4.6352,-13.66161 4.7803,-14.55063 2.9236,-17.9138 -3.072,-5.56476 -2.5277,-11.45314 1.34,-14.49548 4.4579,-3.50658 9.8427,-3.31807 13.6382,0.47747 4.4057,4.40567 4.1012,9.96385 -0.7965,14.539 l -3.8648,3.61021 2.082,12.8288 c 2.6105,16.08516 2.9355,17.2038 4.9986,17.2038 0.9254,0 4.5667,-3.45168 8.0918,-7.67039 6.0177,-7.20189 6.3619,-7.98565 5.6352,-12.83187 -0.6224,-4.15019 -0.2472,-5.83122 1.9147,-8.57962 5.307,-6.74681 16.2305,-2.69498 16.2766,6.03744 0.015,2.73834 -1.2558,4.77958 -5.0059,8.04444 -4.4443,3.86929 -5.8772,6.68682 -12.3958,24.375 l -7.3707,20 -6.061,-0.13328 c -3.3335,-0.0732 -13.3735,-0.3432 -22.311,-0.59977 -8.9375,-0.25658 -21.6512,-0.01 -28.2528,0.54859 l -12.0028,1.01507 -7.351,-20.39411 z M 2323.657,291.11972 c -4.4687,-5.70132 -8.125,-11.11075 -8.125,-12.02092 0,-2.09601 15.8201,-22.37235 17.5,-22.4295 1.49,-0.0506 18.125,20.535 18.125,22.4295 0,1.8945 -16.635,22.48018 -18.125,22.4295 -0.6875,-0.0234 -4.9062,-4.70725 -9.375,-10.40858 z m 0,-67.02092 c 0,-7.20466 0.4463,-11.29063 1.1538,-10.5625 0.6346,0.65312 1.3377,2.875 1.5625,4.9375 0.6433,5.90253 4.8145,5.64372 9.1176,-0.56572 1.9284,-2.78261 4.2734,-5.05928 5.2111,-5.05928 2.2386,0 2.2196,0.0668 -1.42,5 -3.9251,5.32021 -3.9059,6.64299 0.1743,11.99242 4.9017,6.42647 2.2372,7.00037 -3.153,0.67913 -5.4856,-6.4331 -9.28,-6.73339 -9.93,-0.78586 -0.2248,2.05662 -0.9279,4.27368 -1.5625,4.92681 -0.7075,0.72813 -1.1538,-3.35784 -1.1538,-10.5625 z m 76.5625,-110.93745 c 83.0156,-0.17742 218.8594,-0.17742 301.875,0 83.0156,0.17742 15.0938,0.32258 -150.9375,0.32258 -166.0312,0 -233.9531,-0.14516 -150.9375,-0.32258 z"
         id="path3988"
         inkscape:connector-curvature="0" />
      <path
         style="fill:#dd0159"
         d="m 2400.2195,984.41135 c 83.0156,-0.17743 218.8594,-0.17743 301.875,0 83.0156,0.17742 15.0938,0.32259 -150.9375,0.32259 -166.0312,0 -233.9531,-0.14517 -150.9375,-0.32259 z M 2239.2748,549.0988 c 0,-234.09375 0.1438,-329.85938 0.3197,-212.8125 0.1758,117.04687 0.1758,308.57812 0,425.625 -0.1759,117.04687 -0.3197,21.28125 -0.3197,-212.8125 z m 623.75,0 c 0,-234.09375 0.1438,-329.85938 0.3197,-212.8125 0.1758,117.04687 0.1758,308.57812 0,425.625 -0.1759,117.04687 -0.3197,21.28125 -0.3197,-212.8125 z m -445.9303,390.31256 c 73.7344,-0.1781 194.3906,-0.1781 268.125,0 73.7344,0.1781 13.4063,0.32382 -134.0625,0.32382 -147.4687,0 -207.7969,-0.14572 -134.0625,-0.32382 z m 358.5938,-63.80975 c -0.339,-0.54845 -0.1,-1.81407 0.532,-2.8125 0.8967,-1.41731 1.1526,-1.1987 1.1676,0.99719 0.02,2.89129 -0.6154,3.5696 -1.6996,1.81531 z m -13.9729,-44.31531 c -3.9728,-4.98438 -7.761,-9.76534 -8.4183,-10.62435 -1.1586,-1.5141 2.3433,-6.79518 12.574,-18.96265 l 3.5941,-4.27451 8.3459,10.33695 c 4.5902,5.68532 8.3459,10.787 8.3459,11.33706 0,1.01339 -15.9835,21.25 -16.7839,21.25 -0.239,0 -3.6849,-4.07813 -7.6577,-9.0625 z M 2525.7996,644.57471 c -0.4909,-0.49092 -0.8926,-15.17653 -0.8926,-32.6347 l 0,-31.74212 4.6875,0.38795 4.6875,0.38796 0.3592,13.08007 c 0.2343,8.53344 0.8861,13.41493 1.875,14.04337 2.4057,1.52881 11.4726,1.15492 13.6027,-0.56094 1.0668,-0.85938 6.2573,-7.32813 11.5345,-14.375 9.3467,-12.481 9.7231,-12.8125 14.5493,-12.8125 2.7249,0 4.9543,0.2929 4.9543,0.65087 0,0.35799 -4.7812,7.01638 -10.625,14.79643 -5.8437,7.78005 -10.625,14.8505 -10.625,15.7121 0,0.8616 5.3438,8.53934 11.875,17.06164 6.5313,8.5223 11.875,15.8163 11.875,16.2089 0,0.39258 -2.349,0.54083 -5.22,0.32943 -5.023,-0.36986 -5.6263,-0.9034 -15.9844,-14.13437 l -10.7644,-13.75 -8.0781,0 -8.0781,0 -0.625,13.75 -0.625,13.75 -3.7949,0.37174 c -2.0872,0.20446 -4.1966,-0.0299 -4.6875,-0.52083 z m -17.5027,-87.03841 c 1.1604,-9.45395 2.581,-10.5676 15.0003,-11.75885 13.762,-1.32004 42.0405,-1.31357 53.1543,0.0125 10.4957,1.25199 13.2248,3.38122 14.255,11.1217 l 0.7903,5.9375 -41.9259,0 -41.926,0 0.652,-5.3125 z m 6.7466,-27.45955 c -0.5953,-1.56913 -4.0107,-11.06829 -7.5899,-21.10926 -6.0564,-16.99045 -6.8014,-18.3964 -10.7443,-20.27663 -8.054,-3.84067 -6.7986,-14.78677 1.7911,-15.61747 6.5749,-0.63587 9.337,2.70853 8.3545,10.11557 -0.7842,5.91099 -0.7061,6.08326 6.3969,14.12375 10.0147,11.33646 11.4833,10.89925 14.9933,-4.46391 2.9658,-12.98079 3.6125,-21.25 1.6619,-21.25 -2.3332,0 -6.25,-4.98616 -6.25,-7.95642 0,-7.56443 8.5037,-11.95306 14.7219,-7.59771 3.3266,2.33005 3.8966,10.56973 0.9031,13.05413 -2.6629,2.21001 -2.4027,4.21121 2.3649,18.1919 5.7501,16.86176 5.7236,16.8081 8.2903,16.8081 1.7856,0 3.3637,-3.30357 7.4834,-15.6657 4.9339,-14.80539 5.1112,-15.83267 3.2285,-18.70602 -6.5186,-9.9487 4.8104,-21.22917 12.79,-12.73522 3.8887,4.13936 3.4708,8.77658 -1.183,13.12591 l -3.9008,3.64568 2.0511,12.35517 c 3.2528,19.59404 3.1385,19.23862 6.1624,19.15647 1.758,-0.0477 5.0538,-2.88629 9.3616,-8.06267 6.4068,-7.69857 6.6182,-8.19117 5.8141,-13.55286 -0.6992,-4.6628 -0.4095,-5.9888 1.7891,-8.18734 5.186,-5.18603 13.8734,-2.02466 13.8734,5.04859 0,3.54369 -1.7731,6.04265 -6.25,8.80866 -2.4456,1.51097 -4.7556,6.44635 -10.625,22.70025 l -7.5,20.76953 -14.375,-0.91273 c -18.0986,-1.14915 -22.4731,-1.14185 -39.0781,0.0652 -13.2726,0.96485 -13.4675,0.9397 -14.5354,-1.875 z M 2325.4654,291.2863 c -3.9728,-4.98438 -7.761,-9.76534 -8.4183,-10.62435 -1.1586,-1.5141 2.3433,-6.79517 12.574,-18.96265 l 3.5941,-4.27451 8.3459,10.33695 c 4.5902,5.68532 8.3459,10.787 8.3459,11.33706 0,1.01339 -15.9835,21.25 -16.7839,21.25 -0.239,0 -3.6849,-4.07813 -7.6577,-9.0625 z m 7.5666,-67.1875 c -0.4249,-0.6875 -0.1768,-1.25 0.5512,-1.25 0.7281,0 1.3238,0.5625 1.3238,1.25 0,0.6875 -0.2481,1.25 -0.5512,1.25 -0.3032,0 -0.8989,-0.5625 -1.3238,-1.25 z m 84.0625,-65.93744 c 73.7344,-0.1781 194.3906,-0.1781 268.125,0 73.7344,0.1781 13.4063,0.32382 -134.0625,0.32382 -147.4687,0 -207.7969,-0.14572 -134.0625,-0.32382 z m -16.875,-45.00001 c 83.0156,-0.17742 218.8594,-0.17742 301.875,0 83.0156,0.17742 15.0938,0.32258 -150.9375,0.32258 -166.0312,0 -233.9531,-0.14516 -150.9375,-0.32258 z"
         id="path3986"
         inkscape:connector-curvature="0" />
      <path
         style="fill:#111111"
         d="m 2400.2195,984.41135 c 83.0156,-0.17743 218.8594,-0.17743 301.875,0 83.0156,0.17742 15.0938,0.32259 -150.9375,0.32259 -166.0312,0 -233.9531,-0.14517 -150.9375,-0.32259 z M 2239.2748,549.0988 c 0,-234.09375 0.1438,-329.85938 0.3197,-212.8125 0.1758,117.04687 0.1758,308.57812 0,425.625 -0.1759,117.04687 -0.3197,21.28125 -0.3197,-212.8125 z m 623.75,0 c 0,-234.09375 0.1438,-329.85938 0.3197,-212.8125 0.1758,117.04687 0.1758,308.57812 0,425.625 -0.1759,117.04687 -0.3197,21.28125 -0.3197,-212.8125 z M 2400.2195,113.16135 c 83.0156,-0.17742 218.8594,-0.17742 301.875,0 83.0156,0.17742 15.0938,0.32258 -150.9375,0.32258 -166.0312,0 -233.9531,-0.14516 -150.9375,-0.32258 z"
         id="path3984"
         inkscape:connector-curvature="0" />
    </g>
  </g>
</svg>
