<?xml version="1.0" encoding="UTF-8" standalone="no"?>
<!-- Created with Inkscape (http://www.inkscape.org/) -->

<svg
   xmlns:dc="http://purl.org/dc/elements/1.1/"
   xmlns:cc="http://creativecommons.org/ns#"
   xmlns:rdf="http://www.w3.org/1999/02/22-rdf-syntax-ns#"
   xmlns:svg="http://www.w3.org/2000/svg"
   xmlns="http://www.w3.org/2000/svg"
   xmlns:sodipodi="http://sodipodi.sourceforge.net/DTD/sodipodi-0.dtd"
   xmlns:inkscape="http://www.inkscape.org/namespaces/inkscape"
   width="176.39108mm"
   height="246.27501mm"
   viewBox="0 0 625.00778 872.62798"
   id="svg2"
   version="1.1"
   inkscape:version="0.91 r13725"
   sodipodi:docname="Q.svg">
  <defs
     id="defs4" />
  <sodipodi:namedview
     id="base"
     pagecolor="#ffffff"
     bordercolor="#666666"
     borderopacity="1.0"
     inkscape:pageopacity="0.0"
     inkscape:pageshadow="2"
     inkscape:zoom="0.35"
     inkscape:cx="563.88051"
     inkscape:cy="-87.056636"
     inkscape:document-units="px"
     inkscape:current-layer="layer1"
     showgrid="false"
     fit-margin-top="0"
     fit-margin-left="0"
     fit-margin-right="0"
     fit-margin-bottom="0"
     inkscape:window-width="784"
     inkscape:window-height="822"
     inkscape:window-x="800"
     inkscape:window-y="0"
     inkscape:window-maximized="0" />
  <metadata
     id="metadata7">
    <rdf:RDF>
      <cc:Work
         rdf:about="">
        <dc:format>image/svg+xml</dc:format>
        <dc:type
           rdf:resource="http://purl.org/dc/dcmitype/StillImage" />
        <dc:title></dc:title>
      </cc:Work>
    </rdf:RDF>
  </metadata>
  <g
     inkscape:label="Calque 1"
     inkscape:groupmode="layer"
     id="layer1"
     transform="translate(530.3091,427.32227)">
    <g
       transform="translate(-3511.8233,-563.02192)"
       id="g4000">
      <path
         style="fill:#fdfdfd"
         d="m 2981.5142,571.95595 0,-436.25 312.5,0 312.5,0 0,436.25 0,436.25005 -312.5,0 -312.5,0 0,-436.25005 z"
         id="path4016"
         inkscape:connector-curvature="0" />
      <path
         style="fill:#f2a9c6"
         d="m 2987.9018,1006.4616 c -6.7121,-3.7203 -6.2956,24.7837 -6.3433,-434.13434 -0.034,-328.08824 0.3003,-427.25997 1.4491,-429.78124 3.3332,-7.31567 -18.2831,-6.84007 310.8857,-6.84007 231.8704,0 303.2686,0.34869 305.7808,1.49336 7.3554,3.35134 6.8401,-29.40324 6.8401,434.75664 0,464.15985 0.5153,431.40535 -6.8401,434.75665 -5.0745,2.3121 -607.5939,2.0649 -611.7723,-0.251 z m 606.4419,-1.0681 c 4.5175,-2.525 8.4205,-6.2472 8.4205,-8.03044 0,-0.91141 0.5625,-1.65711 1.25,-1.65711 0.8309,0 1.25,-142.08334 1.25,-423.75 0,-281.66666 -0.4191,-423.75 -1.25,-423.75 -0.6875,0 -1.25,-0.7457 -1.25,-1.65711 0,-1.78324 -3.903,-5.50545 -8.4205,-8.03039 -2.2146,-1.23779 -64.6266,-1.5625 -300.3295,-1.5625 -235.7028,0 -298.1149,0.32471 -300.3295,1.5625 -4.5175,2.52494 -8.4205,6.24715 -8.4205,8.03039 0,0.91141 -0.5625,1.65711 -1.25,1.65711 -0.8309,0 -1.25,142.08334 -1.25,423.75 0,281.66666 0.4191,423.75 1.25,423.75 0.6875,0 1.25,0.75658 1.25,1.68126 0,1.87679 3.5623,5.41699 7.8211,7.77269 4.1302,2.2846 597.1767,2.5149 601.2584,0.2336 z m -573.4545,-40.76325 c -2.0625,-1.274 -4.875,-3.58095 -6.25,-5.12656 -2.4885,-2.79728 -2.5,-4.58028 -2.5,-387.57826 l 0,-384.76807 3.125,-3.34447 c 6.8764,-7.3593 -13.5457,-6.85694 278.75,-6.85694 292.2957,0 271.8736,-0.50236 278.75,6.85694 l 3.125,3.34447 0,384.79859 0,384.79859 -3.125,3.34447 c -6.8766,7.35951 13.5699,6.85735 -279.0004,6.85226 -259.8255,-0.005 -269.2542,-0.0847 -272.8746,-2.32102 z m 545.0568,-9.49249 3.0682,-3.06817 0,-380.11364 0,-380.11364 -3.0682,-3.06818 -3.0682,-3.06818 -268.8636,0 -268.8636,0 -3.0682,3.06818 -3.0682,3.06818 0,380.11364 0,380.11364 3.0682,3.06817 3.0682,3.06819 268.8636,0 268.8636,0 3.0682,-3.06819 z m -63.9141,-46.30054 c -2.9632,-2.96313 -3.1034,-3.74947 -2.8116,-15.76268 0.3404,-14.01508 1.2562,-15.509 7.3136,-11.93079 1.9201,1.13421 5.9781,2.0622 9.0178,2.0622 8.3329,0 10.9625,3.40611 10.9625,14.19989 0,7.26645 -0.4184,8.83212 -3.0682,11.48192 -2.5859,2.58594 -4.2648,3.06819 -10.6818,3.06819 -6.4505,0 -8.0901,-0.47646 -10.7323,-3.11873 z m 15.4851,-11.56877 c 0.2968,-5.15549 -0.022,-6.5625 -1.4887,-6.5625 -1.0266,0 -2.2142,0.5625 -2.6391,1.25 -0.4249,0.6875 -1.8644,1.25 -3.1988,1.25 -1.9797,0 -2.4262,0.8819 -2.4262,4.79166 0,5.86182 0.7355,6.67965 5.5801,6.20508 3.6415,-0.35671 3.8102,-0.63708 4.1727,-6.93424 z m -16.4175,-41.11649 c -5.2719,-6.6297 -9.5853,-13.0179 -9.5853,-14.19601 0,-2.66017 18.6012,-26.25 20.6988,-26.25 1.4909,0 20.0018,22.11378 21.2638,25.40245 0.7469,1.94638 -18.9698,27.09755 -21.2425,27.09755 -0.8522,0 -5.8629,-5.4243 -11.1348,-12.05399 z m -187.5838,-183.5163 -3.3787,-4.42971 -18.1542,0 -18.1542,0 -7.4072,-7.06528 -7.4072,-7.06527 0,-23.30604 0,-23.30604 4.6875,-4.42133 c 10.7101,-10.10197 9.8721,-9.83604 30.9968,-9.83604 l 19.0971,0 7.4736,6.24476 c 4.1104,3.43461 7.8158,7.13687 8.2343,8.22723 0.4184,1.09036 0.7607,11.73706 0.7607,23.65933 0,21.44764 -0.034,21.71718 -3.2079,25.48922 l -3.2079,3.81235 4.5035,5.89796 c 6.1928,8.11051 5.5887,9.70601 -3.8477,10.16136 -7.4155,0.35784 -7.6961,0.2541 -10.9885,-4.0625 z m -17.6316,-21.61721 c -2.2552,-5.49615 -1.6741,-5.9375 7.8183,-5.9375 l 9.0631,0 -6e-4,-15.52658 c -9e-4,-20.4656 0.3263,-20.09842 -17.9085,-20.09842 -18.9341,0 -18.3422,-0.70989 -18.3422,21.99785 0,21.10406 0.3847,21.75215 12.9119,21.75215 6.5139,0 7.2529,-0.2503 6.458,-2.1875 z m -44.7902,-62.16135 c -1.3002,-1.30018 -1.6541,-3.43317 -1.1928,-7.1875 0.982,-7.99075 4.0799,-12.5739 9.802,-14.50126 6.8644,-2.31214 45.8158,-3.38078 59.8083,-1.64085 12.0008,1.49225 16.4408,3.53741 18.3008,8.42971 1.939,5.10007 1.8482,14.32339 -0.1536,15.59049 -0.9732,0.61598 -20.4323,1.1286 -43.2426,1.13912 -34.9557,0.0161 -41.7638,-0.27141 -43.3221,-1.82971 z m 6.0011,-31.09368 c -1.0837,-1.54712 -1.3946,-4.53358 -0.9353,-8.98378 0.6856,-6.64246 0.6675,-6.68495 -5.0708,-11.90721 -6.529,-5.94194 -10.8247,-13.78493 -10.8247,-19.76354 0,-2.23177 1.473,-7.17138 3.2733,-10.97692 3.5645,-7.53464 11.031,-13.46321 18.7886,-14.91856 6.8467,-1.28443 15.9708,1.67097 22.2659,7.21213 3.1197,2.74609 5.6722,4.65265 5.6722,4.23681 0,-0.41585 -1.3553,-4.09157 -3.0119,-8.1683 -4.2743,-10.5193 -4.9635,-14.62254 -3.1795,-18.92961 3.2426,-7.82825 14.6573,-9.41725 19.8872,-2.76844 3.3155,4.21496 3.2203,7.16448 -0.5708,17.67419 -1.7187,4.76477 -3.125,9.00545 -3.125,9.42374 0,0.41827 2.3906,-0.92387 5.3125,-2.98255 6.9065,-4.86613 18.1651,-7.08524 25.6339,-5.05254 9.3747,2.55141 17.8659,14.49674 17.7762,25.00728 -0.042,4.89573 -4.0454,12.47806 -10.5673,20.01356 -5.7301,6.62052 -5.8647,6.96453 -5.1348,13.125 1.2442,10.50143 3.154,9.9982 -38.1003,10.03965 -34.1155,0.0342 -36.5708,-0.11275 -38.0894,-2.28091 z m 58.1243,-32.36997 c 0.086,-4.20177 -2.2361,-2.14003 -4.2241,3.75 l -2.0041,5.9375 3.0916,-3.75 c 1.7004,-2.0625 3.1118,-4.73437 3.1366,-5.9375 z m -37.5915,2.28109 c -1.6651,-4.60495 -3.6136,-5.96169 -3.6136,-2.51623 0,1.97285 4.0121,8.15014 4.8023,7.3938 0.2349,-0.22495 -0.2999,-2.41986 -1.1887,-4.87757 z m 17.6364,-18.21859 c 0,-0.6875 -0.5957,-1.25 -1.3238,-1.25 -0.728,0 -0.9761,0.5625 -0.5512,1.25 0.4249,0.6875 1.0206,1.25 1.3238,1.25 0.3032,0 0.5512,-0.5625 0.5512,-1.25 z M 3064.8495,316.15196 c -5.2719,-6.6297 -9.5853,-13.0179 -9.5853,-14.19601 0,-2.66018 18.6012,-26.25 20.6988,-26.25 1.4909,0 20.0018,22.11377 21.2638,25.40245 0.7469,1.94637 -18.9698,27.09755 -21.2425,27.09755 -0.8522,0 -5.8629,-5.4243 -11.1348,-12.05399 z m 17.3339,-52.87452 c -0.4492,-0.72683 -3.4709,-1.32149 -6.7148,-1.32149 -5.5111,0 -10.6733,-2.20522 -12.9978,-5.55254 -1.1202,-1.61312 -1.2579,-15.95787 -0.1801,-18.76646 2.0064,-5.22854 14.7047,-7.43556 21.7675,-3.78326 4.5856,2.37132 5.1893,4.78403 4.6961,18.76943 -0.3653,10.35928 -0.5981,11.2369 -3.0747,11.59182 -1.4737,0.21119 -3.047,-0.21069 -3.4962,-0.9375 z m -0.6692,-17.4477 c 0,-4.24898 -2.0835,-6.37379 -6.25,-6.37379 -4.4408,0 -6.25,2.17108 -6.25,7.5 0,6.65798 1.8379,7.80498 7.6512,4.77494 3.8098,-1.98581 4.8488,-3.25028 4.8488,-5.90115 z"
         id="path4014"
         inkscape:connector-curvature="0" />
      <path
         style="fill:#ee8db3"
         d="m 2990.6961,1007.2493 c -0.7938,-0.5051 135.6994,-0.9183 303.3181,-0.9183 167.6187,0 304.1119,0.4132 303.3181,0.9183 -0.7937,0.5051 -137.2868,0.9184 -303.3181,0.9184 -166.0312,0 -302.5244,-0.4133 -303.3181,-0.9184 z m -8.4232,-8.52059 c -1.0958,-2.85572 -0.899,-852.11718 0.1979,-853.8409 0.5051,-0.79372 0.9184,191.44065 0.9184,427.1875 0,235.74685 -0.08,428.63069 -0.1788,428.63069 -0.098,0 -0.5202,-0.8898 -0.9375,-1.97729 z m 622.3663,-426.77276 c 0,-235.6812 0.4133,-427.86186 0.9184,-427.06814 1.2008,1.88698 1.2008,852.2493 0,854.13628 -0.5051,0.79372 -0.9184,-191.38694 -0.9184,-427.06814 z m -583.9166,391.35243 c -2.1541,-1.31353 -4.826,-3.68659 -5.9375,-5.27347 -1.8505,-2.64198 -2.0209,-35.19911 -2.0209,-386.18852 l 0,-383.30329 2.6104,-3.31855 c 5.9356,-7.54592 -14.9992,-7.0186 278.6396,-7.0186 293.6388,0 272.704,-0.52732 278.6396,7.0186 l 2.6104,3.31855 0,383.41285 0,383.41285 -2.6104,3.31855 c -5.9358,7.54617 15.0246,7.01903 -278.89,7.01392 -262.722,-0.005 -269.2178,-0.0615 -273.0412,-2.39289 z m 546.0694,-7.32465 2.8472,-2.84723 0,-381.18055 0,-381.18056 -2.8472,-2.84722 -2.8472,-2.84722 -269.9306,0 -269.9306,0 -2.8472,2.84719 -2.8472,2.8472 -0.2974,379.6528 c -0.2374,302.94882 0.02,380.2792 1.2746,382.75317 0.8646,1.7052 2.9672,3.8084 4.6724,4.67378 2.4687,1.25282 57.7891,1.51253 271.5032,1.27463 l 268.4029,-0.29877 2.8471,-2.84722 z m -63.8848,-48.25053 c -2.5409,-2.70472 -2.7596,-4.01448 -2.4257,-14.52634 0.3698,-11.64226 1.5749,-14.36522 5.1111,-11.54886 0.8506,0.67746 4.5054,1.50211 8.1218,1.83257 9.5865,0.876 11.5498,3.16078 11.5498,13.44122 0,10.98361 -2.5679,13.77416 -12.6752,13.77416 -5.638,0 -7.3962,-0.53984 -9.6818,-2.97275 z m 14.1298,-2.78599 c 1.4667,-0.56284 1.9772,-2.50941 1.9772,-7.53922 0,-8.00423 -1.6342,-9.24089 -8.1351,-6.15601 -4.0046,1.90029 -4.3649,2.52215 -4.3649,7.53345 0,3.20016 0.6471,5.72328 1.5625,6.09267 2.2621,0.91276 6.6731,0.94679 8.9603,0.0691 z m -11.5002,-45.28331 c -9.7984,-11.77399 -12.7726,-15.93771 -12.7726,-17.88091 0,-2.30384 17.7488,-24.20204 19.6161,-24.20204 1.2561,0 20.3742,22.87224 20.3742,24.375 0,1.00304 -18.8397,24.33624 -19.9894,24.75715 -0.5741,0.21019 -3.8268,-2.96195 -7.2283,-7.0492 z m -191.8884,-188.33299 -3.4908,-4.37496 -18.1465,0 -18.1465,0 -6.8002,-6.43132 -6.8002,-6.43132 0,-23.52311 0,-23.52311 7.5649,-6.29556 7.5649,-6.29558 19.2684,0 19.2684,0 6.6042,5.82541 c 3.6323,3.20398 7.0175,6.43835 7.5226,7.1875 0.5051,0.74915 0.9269,11.45631 0.9375,23.79369 l 0.019,22.4316 -3.2606,3.40333 -3.2606,3.40331 4.5106,5.90734 c 6.3009,8.25209 5.9999,9.29783 -2.6769,9.29778 -6.716,-4e-5 -7.4165,-0.28704 -10.6783,-4.375 z m -15.5117,-17.66416 c 0.4341,-0.43406 -0.035,-1.96548 -1.0416,-3.40314 -1.007,-1.43766 -1.8309,-3.05126 -1.8309,-3.5858 0,-1.4543 14.7281,-1.17315 15.6376,0.29853 2.1453,3.47121 3.1124,-1.67928 3.1124,-16.5761 0,-15.12626 -0.2123,-16.63419 -2.7179,-19.30123 -2.5218,-2.68437 -3.7107,-2.89306 -16.4819,-2.89306 -12.4115,0 -14.0484,0.26707 -16.6571,2.71789 -2.7617,2.59444 -2.8931,3.52724 -2.8931,20.53427 0,17.75849 0.011,17.82481 3.2936,20.40711 2.5274,1.98809 5.0959,2.59073 11.0416,2.59073 4.2615,0 8.1033,-0.35514 8.5373,-0.7892 z m -46.5439,-65.99105 c -1.6839,-2.02901 -0.7103,-9.43504 1.9255,-14.64672 2.5712,-5.08399 7.9224,-6.21117 32.9959,-6.95031 29.1773,-0.8601 44.4676,0.74752 48.2467,5.07265 3.11,3.55927 4.9222,14.11749 2.8514,16.61264 -2.1303,2.56686 -83.8855,2.48298 -86.0195,-0.0883 z m 7.3856,-29.50556 c -2.1103,-2.11028 -2.3633,-3.50885 -1.6824,-9.30148 l 0.8012,-6.81773 -6.4442,-6.2112 c -6.9927,-6.73979 -10.1543,-12.72964 -10.1113,-19.15613 0.067,-10.0894 10.2735,-22.46401 19.8636,-24.08424 11.4564,-1.93556 20.5744,2.77338 30.2101,15.60198 l 3.2262,4.2952 4.4605,-6.97288 c 4.9502,-7.73848 11.3939,-11.73938 21.0351,-13.06087 14.9057,-2.04304 27.389,9.27832 27.42,24.86774 0.01,4.71758 -2.8839,10.04483 -10.2827,18.93296 -6.0903,7.31625 -6.1745,7.53377 -5.3787,13.90317 1.0182,8.14922 -1.0721,10.92788 -7.1925,9.56087 -5.2585,-1.17452 -54.0722,-1.16228 -59.3526,0.0149 -3.2169,0.71714 -4.6181,0.38194 -6.5723,-1.57227 z m 20.2452,-29.43933 c -2.4397,-6.21095 -5.4311,-8.0661 -6.2393,-3.86936 -0.2416,1.25429 0.4324,3.24363 1.4977,4.42075 1.0653,1.17714 2.9238,4.36966 4.13,7.0945 2.0565,4.64546 2.2192,4.75324 2.6102,1.72911 0.2294,-1.77382 -0.67,-5.99257 -1.9986,-9.375 z m 32.201,6.66264 c 1.39,-2.92187 3.1934,-6.22041 4.0074,-7.3301 1.5796,-2.15325 0.7249,-6.1074 -1.3201,-6.1074 -2.276,0 -6.9379,12.34303 -6.4916,17.1875 0.2466,2.67778 1.1876,1.75028 3.8043,-3.75 z m -22.452,-39.35584 c -5.9106,-14.19771 -6.1592,-18.07315 -1.461,-22.77132 4.8216,-4.82168 10.3267,-5.0999 14.6844,-0.74215 1.6875,1.6875 3.0682,4.48033 3.0682,6.20631 0,6.33951 -8.1565,26.9755 -10.6623,26.9755 -0.8824,0 -3.4156,-4.35075 -5.6293,-9.66834 z M 3069.2868,319.6639 c -9.7984,-11.77399 -12.7726,-15.93771 -12.7726,-17.88091 0,-2.30384 17.7488,-24.20204 19.6161,-24.20204 1.2561,0 20.3742,22.87224 20.3742,24.375 0,1.00304 -18.8397,24.33624 -19.9894,24.75715 -0.5741,0.21019 -3.8268,-2.96195 -7.2283,-7.0492 z m 12.8524,-57.70795 c -0.4249,-0.6875 -3.476,-1.25 -6.7802,-1.25 -4.185,0 -7.0069,-0.78598 -9.3012,-2.59073 -2.9858,-2.34864 -3.2936,-3.39137 -3.2936,-11.15927 0,-7.7679 0.3078,-8.81063 3.2936,-11.15928 4.5301,-3.56336 13.9068,-3.54447 18.4601,0.0372 3.2621,2.56599 3.3338,2.91945 3.0403,15 -0.2624,10.80285 -0.5761,12.37209 -2.4735,12.37209 -1.1951,0 -2.5206,-0.5625 -2.9455,-1.25 z m -6.25,-8.75 c 0.4249,-0.6875 1.8952,-1.25 3.2673,-1.25 2.1963,0 2.4491,-0.71026 2.1137,-5.9375 l -0.381,-5.9375 -5.625,0 -5.625,0 -0.3914,5.45551 c -0.2152,3.00052 -0.092,6.2349 0.2733,7.1875 0.7664,1.99705 5.2233,2.33439 6.3681,0.48199 z m -85.1931,-116.54336 c 1.8868,-1.20074 604.7494,-1.20074 606.6362,0 0.7938,0.5051 -135.6994,0.91836 -303.3181,0.91836 -167.6187,0 -304.1119,-0.41326 -303.3181,-0.91836 z"
         id="path4012"
         inkscape:connector-curvature="0" />
      <path
         style="fill:#e85c94"
         d="m 2990.6961,1007.2493 c -0.7938,-0.5051 135.6994,-0.9183 303.3181,-0.9183 167.6187,0 304.1119,0.4132 303.3181,0.9183 -0.7937,0.5051 -137.2868,0.9184 -303.3181,0.9184 -166.0312,0 -302.5244,-0.4133 -303.3181,-0.9184 z m -8.4232,-8.52059 c -1.0958,-2.85572 -0.899,-852.11718 0.1979,-853.8409 0.5051,-0.79372 0.9184,191.44065 0.9184,427.1875 0,235.74685 -0.08,428.63069 -0.1788,428.63069 -0.098,0 -0.5202,-0.8898 -0.9375,-1.97729 z m 622.3663,-426.77276 c 0,-235.6812 0.4133,-427.86186 0.9184,-427.06814 1.2008,1.88698 1.2008,852.2493 0,854.13628 -0.5051,0.79372 -0.9184,-191.38694 -0.9184,-427.06814 z m -580.047,392.42034 c -2.0883,-0.60731 -5.4633,-2.84351 -7.5,-4.96935 l -3.703,-3.86515 0,-383.58584 0,-383.58584 3.6789,-3.83999 c 2.0235,-2.112 5.6797,-4.39579 8.125,-5.07511 6.1027,-1.69531 531.5395,-1.69531 537.6422,0 2.4453,0.67932 6.1015,2.96311 8.125,5.07511 l 3.6789,3.83999 0,383.58584 0,383.58584 -3.6789,3.84 c -2.0235,2.11199 -5.6797,4.39579 -8.125,5.0751 -5.6674,1.5744 -532.8235,1.49546 -538.2431,-0.0806 z m 542.6038,-7.98853 3.0682,-3.06817 0,-381.36364 0,-381.36364 -3.0682,-3.06818 -3.0682,-3.06818 -270.1136,0 -270.1136,0 -3.0682,3.06818 -3.0682,3.06818 0,381.36364 0,381.36364 3.0682,3.06817 3.0682,3.06819 270.1136,0 270.1136,0 3.0682,-3.06819 z m -61.6375,-46.90954 c -4.0409,-1.72043 -5.674,-6.94932 -4.6916,-15.02227 0.4601,-3.78125 0.7949,-8.206 0.7439,-9.83278 -0.079,-2.52438 0.3192,-2.82018 2.7179,-2.01883 1.5458,0.51641 5.7213,1.19388 9.279,1.50551 8.9632,0.78508 11.0315,3.32709 11.0315,13.55769 0,5.76896 -0.5743,8.52349 -2.0942,10.04328 -2.4521,2.45219 -12.8395,3.53297 -16.9865,1.7674 z m 13.2057,-5.27227 c 2.189,-2.18902 1.8745,-11.69691 -0.4643,-14.03571 -2.4386,-2.4386 -1.9751,-2.47697 -7.9972,0.66192 -4.5033,2.34723 -5.0385,3.11738 -5.0385,7.25 0,5.80205 1.7922,7.62379 7.5,7.62379 2.475,0 5.175,-0.675 6,-1.5 z M 3502.4,855.03451 c -4.669,-5.85389 -8.7696,-11.37417 -9.1123,-12.26729 -0.6747,-1.75833 16.2182,-23.70876 18.6931,-24.2896 1.5821,-0.3713 19.5334,21.20541 19.5334,23.47833 0,1.9369 -17.7327,23.75241 -19.2938,23.736 -0.7321,-0.008 -5.1513,-4.80354 -9.8204,-10.65744 z m -187.681,-183.70356 -4.0073,-4.375 -17.8165,0 -17.8166,0 -7.4072,-7.06528 -7.4072,-7.06527 0,-21.87494 0,-21.87495 6.6848,-6.68477 6.6848,-6.68479 20.5242,0 20.5241,0 6.5411,5.72194 6.541,5.72192 0,23.45934 c 0,21.87184 -0.1692,23.61244 -2.5,25.7218 -3.4078,3.08401 -3.1556,5.06246 1.3744,10.78202 4.9024,6.18978 4.1391,8.59298 -2.7291,8.59298 -4.3269,0 -5.8451,-0.72269 -9.1905,-4.375 z m -15.7048,-18.5 c 0,-0.89375 -0.626,-2.25099 -1.3911,-3.01609 -0.7651,-0.76509 -1.0131,-2.00259 -0.5512,-2.75 1.0545,-1.70616 11.5241,-1.7969 12.5673,-0.10887 0.4249,0.6875 1.5831,1.25 2.5738,1.25 1.4851,0 1.8012,-3.16542 1.8012,-18.03428 0,-17.99387 -0.01,-18.04007 -3.2936,-20.625 -2.8473,-2.23971 -5.0362,-2.59076 -16.1541,-2.59076 -12.0119,0 -13.1142,0.21353 -16.7064,3.23611 l -3.8459,3.23613 0,17.44856 c 0,17.26295 0.035,17.48119 3.3075,20.51389 2.8875,2.67602 4.475,3.06531 12.5,3.06531 6.7092,0 9.1925,-0.43898 9.1925,-1.625 z m -47.5,-69.04015 c 0,-5.72883 2.8786,-12.53053 6.0131,-14.20804 5.1709,-2.7674 36.2763,-4.39346 54.5956,-2.85402 22.4195,1.88399 25.6413,3.96456 25.6413,16.55858 l 0,4.91863 -43.125,0 -43.125,0 0,-4.41515 z m 7.6025,-26.08637 c -1.185,-1.42783 -1.4295,-3.84624 -0.8388,-8.29862 l 0.8335,-6.28354 -7.0146,-7.3541 c -9.0962,-9.53643 -11.2922,-15.96896 -8.5751,-25.11841 2.3683,-7.9749 9.74,-15.70485 16.118,-16.90137 12.5046,-2.34588 22.1191,1.78256 29.5848,12.70358 1.8344,2.68344 4.1736,4.87898 5.1981,4.87898 1.0246,0 3.7425,-2.8125 6.0397,-6.25 5.434,-8.131 12.5879,-11.875 22.6904,-11.875 13.9998,0 22.1202,7.43511 23.1132,21.16262 0.6139,8.4873 -0.956,12.13758 -9.2232,21.44604 -5.5141,6.2086 -5.6611,6.5885 -5.3076,13.72113 0.2028,4.09202 -0.2333,7.93262 -0.9863,8.68561 -0.9665,0.96649 -6.1084,0.9414 -18.1047,-0.0884 -15.3342,-1.31626 -26.0867,-1.11001 -44.93,0.86182 -5.471,0.57251 -7.2762,0.30157 -8.5974,-1.2904 z m 23.6475,-19.38725 c 0,-3.73422 -5.1021,-16.13296 -6.927,-16.83321 -3.1759,-1.21872 -4.697,2.52638 -2.5768,6.34467 1.0696,1.92627 2.9424,5.60596 4.1617,8.1771 2.3622,4.98067 5.3421,6.27005 5.3421,2.31144 z m 30.8555,-5.69277 c 3.4835,-6.92692 3.7671,-8.2039 2.2716,-10.22924 -2.1894,-2.96516 -3.4634,-1.68994 -6.7877,6.79455 -5.2167,13.31423 -1.7705,15.93524 4.5161,3.43469 z m -20.8773,-29.45926 c -3.2843,-6.1368 -7.4782,-19.09871 -7.4782,-23.11274 0,-5.89767 3.6185,-9.34646 9.8063,-9.34646 5.9537,0 9.4829,3.45654 9.3221,9.13011 -0.1216,4.29053 -7.3022,24.11623 -9.1476,25.25677 -0.608,0.37573 -1.7341,-0.49173 -2.5026,-1.92768 z M 3066.15,315.03451 c -4.669,-5.85389 -8.7696,-11.37417 -9.1123,-12.26728 -0.6747,-1.75834 16.2181,-23.70877 18.6931,-24.28961 1.5821,-0.3713 19.5334,21.2054 19.5334,23.47833 0,1.9369 -17.7327,23.75241 -19.2938,23.736 -0.7321,-0.007 -5.1513,-4.80354 -9.8204,-10.65744 z m 15.3642,-54.32856 c -1.0312,-0.66645 -4.5469,-1.22033 -7.8125,-1.23086 -8.502,-0.0274 -10.9375,-2.81514 -10.9375,-12.51914 0,-10.21763 2.2824,-12.5 12.5,-12.5 11.968,0 14.1301,4.00834 11.7051,21.70054 -0.7978,5.82055 -1.9724,6.80015 -5.4551,4.54946 z m -3.545,-7.11556 c 4.4384,-1.95823 4.795,-2.4974 4.795,-7.25 0,-6.31117 -1.6811,-8.13444 -7.5,-8.13444 -2.475,0 -5.175,0.675 -6,1.5 -1.9448,1.94476 -1.9448,12.55524 0,14.5 1.9729,1.9729 3.0032,1.90004 8.705,-0.61556 z m -87.2731,-116.9278 c 1.8868,-1.20074 604.7494,-1.20074 606.6362,0 0.7938,0.5051 -135.6994,0.91836 -303.3181,0.91836 -167.6187,0 -304.1119,-0.41326 -303.3181,-0.91836 z"
         id="path4010"
         inkscape:connector-curvature="0" />
      <path
         style="fill:#e22d75"
         d="m 3143.0767,1007.2685 c 83.0156,-0.1774 218.8594,-0.1774 301.875,0 83.0156,0.1774 15.0938,0.3226 -150.9375,0.3226 -166.0312,0 -233.9531,-0.1452 -150.9375,-0.3226 z M 2982.132,571.95595 c 0,-234.09375 0.1438,-329.85937 0.3197,-212.8125 0.1758,117.04688 0.1758,308.57813 0,425.625 -0.1759,117.04688 -0.3197,21.28125 -0.3197,-212.8125 z m 623.75,0 c 0,-234.09375 0.1438,-329.85937 0.3197,-212.8125 0.1758,117.04688 0.1758,308.57813 0,425.625 -0.1759,117.04688 -0.3197,21.28125 -0.3197,-212.8125 z m -583.9094,390.10243 c -2.1541,-1.31353 -4.826,-3.68659 -5.9375,-5.27347 -1.8505,-2.64193 -2.0209,-35.10033 -2.0209,-384.93852 l 0,-382.05329 2.6104,-3.31855 c 5.9351,-7.5453 -14.8812,-7.0186 277.3896,-7.0186 292.2709,0 271.4545,-0.5267 277.3896,7.0186 l 2.6104,3.31855 0,382.16285 0,382.16285 -2.6104,3.31855 c -5.9353,7.54555 14.9066,7.01903 -277.64,7.01392 -261.4915,-0.005 -267.9679,-0.0616 -271.7912,-2.39289 z m 542.5254,-2.54873 c 1.7305,-0.65796 4.0172,-2.88002 5.0813,-4.93792 1.734,-3.3532 1.9349,-43.07318 1.9349,-382.61578 0,-339.5426 -0.2009,-379.26257 -1.9349,-382.61578 -1.0641,-2.05789 -3.3508,-4.27996 -5.0813,-4.93792 -4.28,-1.62722 -536.6876,-1.62722 -540.9676,0 -1.7305,0.65796 -4.0172,2.88003 -5.0813,4.93792 -1.734,3.35321 -1.9349,43.07318 -1.9349,382.61578 0,340.01184 0.199,379.25905 1.9405,382.62656 1.0672,2.06384 3.1766,4.25025 4.6875,4.8587 3.8361,1.54488 537.2951,1.61232 541.3558,0.0685 z m -60.4838,-52.5537 c -2.6622,-2.66221 -3.1834,-8.41498 -1.7259,-19.04904 0.7731,-5.63984 0.7789,-5.64548 4.0625,-3.93216 1.8086,0.94369 5.5919,1.71926 8.4072,1.7235 7.1059,0.0113 9.2562,2.72146 9.2562,11.66862 0,9.37678 -2.524,12.08908 -11.25,12.08908 -4.5833,0 -6.9167,-0.66666 -8.75,-2.5 z m 14.9125,-1.76954 c 0.8661,-1.04366 1.3135,-4.76112 1.0905,-9.0625 -0.3394,-6.54806 -0.6746,-7.33498 -3.2821,-7.70441 -1.5973,-0.22629 -4.8317,0.50322 -7.1875,1.62115 -3.992,1.8943 -4.2834,2.43681 -4.2834,7.97395 0,3.26774 0.675,6.61635 1.5,7.44135 2.0709,2.07089 10.3728,1.88691 12.1625,-0.26954 z m -16.475,-51.33732 c -4.6406,-5.81838 -8.4375,-11.17029 -8.4375,-11.89314 0,-1.94309 16.6467,-22.46966 18.2357,-22.486 1.6574,-0.0171 18.0143,20.40016 18.0143,22.486 0,2.08584 -16.3569,22.50305 -18.0143,22.486 -0.7484,-0.008 -5.1576,-4.77448 -9.7982,-10.59286 z m -188.1008,-183.76814 -3.8734,-4.375 -17.9191,-0.0244 -17.9192,-0.0244 -6.5625,-6.20796 -6.5625,-6.20795 0,-22.2521 0,-22.25208 6.2941,-6.20302 6.2941,-6.20301 18.2189,-0.40697 c 20.9464,-0.46792 23.1173,0.10437 30.4115,8.01768 l 5.0314,5.45843 0,21.40999 c 0,21.01362 -0.058,21.47873 -3.125,25.12383 -1.7187,2.04262 -3.125,4.1523 -3.125,4.68819 0,0.53589 1.9428,3.51871 4.3173,6.6285 2.3745,3.10978 3.9682,6.00318 3.5416,6.42975 -0.4265,0.42658 -3.1096,0.7756 -5.9622,0.7756 -4.3565,0 -5.8066,-0.70025 -9.06,-4.375 z m -14.4241,-16.5625 c -0.3459,-1.20312 -1.0572,-3.23177 -1.5806,-4.5081 -0.868,-2.11667 -0.4136,-2.26812 5.1707,-1.72331 3.3673,0.32851 7.3879,1.01651 8.9348,1.5289 l 2.8125,0.93159 0,-18.67789 c 0,-18.46239 -0.037,-18.71288 -3.2257,-21.7083 -3.0224,-2.83937 -4.1192,-3.03039 -17.3993,-3.03039 -13.2801,0 -14.3769,0.19102 -17.3993,3.03039 -3.1804,2.98782 -3.2257,3.28541 -3.2257,21.18161 0,17.99515 0.029,18.18135 3.3589,21.6571 3.1271,3.26405 4.0426,3.5059 13.2708,3.5059 8.8462,0 9.8443,-0.2352 9.2829,-2.1875 z m -46.3125,-66.12904 c -0.4675,-0.46757 -0.8501,-3.25626 -0.8501,-6.19709 0,-8.89763 3.3329,-11.45814 16.875,-12.96448 14.2457,-1.5846 36.8837,-1.60622 50.625,-0.0484 9.1266,1.03471 11.0305,1.67045 13.5002,4.50808 2.2811,2.62096 2.7976,4.50077 2.5,9.09843 l -0.3752,5.79498 -40.7124,0.32929 c -22.3918,0.18111 -41.0949,-0.0533 -41.5625,-0.52083 z m 5.3206,-31.83161 c -0.5955,-1.11272 -0.8209,-2.28499 -0.5009,-2.60503 0.3201,-0.32004 0.6749,-2.95368 0.7885,-5.85254 0.1872,-4.77829 -0.3915,-5.87782 -6.1945,-11.76997 -6.4932,-6.59288 -10.2737,-13.4693 -10.2516,-18.64666 0.019,-4.46024 5.5638,-15.26602 9.3694,-18.25949 7.4087,-5.82771 19.3664,-6.24747 27.2192,-0.95551 2.1801,1.46917 6.0795,5.47049 8.6653,8.8918 2.5858,3.4213 5.5484,6.22055 6.5834,6.22055 1.035,0 3.7141,-2.79621 5.9537,-6.2138 12.601,-19.22971 40.0465,-16.30401 44.7631,4.77175 1.9737,8.8196 0.4165,13.44788 -7.6111,22.62149 -6.8632,7.84302 -7.7399,10.0462 -7.2003,18.09556 l 0.3701,5.52085 -35.4358,0.10213 c -31.4389,0.0906 -35.5579,-0.12613 -36.5185,-1.92108 z m 24.4147,-15.97715 c 0.4173,-1.31476 -0.7324,-6.08815 -2.5751,-10.69105 -2.783,-6.95192 -3.7642,-8.25367 -5.9822,-7.9372 -3.9273,0.56036 -4.0401,5.39461 -0.2532,10.85904 1.7738,2.55964 3.2251,5.51427 3.2251,6.56586 0,4.07176 4.3758,5.0145 5.5854,1.20335 z m 28.239,-1.53741 c 0.4836,-1.80825 2.1201,-4.96604 3.6367,-7.0173 1.5498,-2.09627 2.5727,-5.03024 2.3356,-6.69953 -0.4768,-3.35803 -4.5333,-4.78411 -6.2037,-2.18095 -2.6483,4.12728 -6.0976,15.32663 -5.3987,17.52875 1.0666,3.36063 4.5664,2.34679 5.6301,-1.63097 z m -19.486,-38.11029 c -4.748,-11.06152 -6.8794,-18.69476 -6.1488,-22.02109 0.8646,-3.93672 4.8548,-7.20591 8.795,-7.20591 4.0079,0 9.2654,4.68474 9.2654,8.25605 0,3.13188 -6.9884,22.71574 -8.8215,24.72095 -0.5541,0.60609 -1.9447,-1.08141 -3.0901,-3.75 z M 3066.2017,313.84909 c -4.6406,-5.81838 -8.4375,-11.17029 -8.4375,-11.89314 0,-1.94309 16.6467,-22.46966 18.2357,-22.486 1.6574,-0.017 18.0143,20.40016 18.0143,22.486 0,2.08584 -16.3569,22.50305 -18.0143,22.486 -0.7484,-0.007 -5.1576,-4.77448 -9.7982,-10.59286 z m 17.4761,-52.63864 c -0.5288,-0.53294 -4.3363,-1.3669 -8.4611,-1.85326 -10.2814,-1.21227 -11.2025,-2.23195 -11.2025,-12.40124 0,-10.42727 1.3715,-11.875 11.25,-11.875 9.904,0 11.2852,1.45751 11.1021,11.71556 -0.1722,9.64488 -1.3191,15.79409 -2.6885,14.41394 z m -7.1636,-6.1295 c 0.8559,-1.03125 2.5521,-1.875 3.7693,-1.875 4.3395,0 5.2137,-9.76705 1.2307,-13.75 -5.9213,-5.9213 -15,-1.38195 -15,7.5 0,7.68324 6.1916,12.71389 10,8.125 z m 66.5625,-119.06245 c 83.0156,-0.17742 218.8594,-0.17742 301.875,0 83.0156,0.17742 15.0938,0.32258 -150.9375,0.32258 -166.0312,0 -233.9531,-0.14516 -150.9375,-0.32258 z"
         id="path4008"
         inkscape:connector-curvature="0" />
      <path
         style="fill:#e01b6a"
         d="m 3143.0767,1007.2685 c 83.0156,-0.1774 218.8594,-0.1774 301.875,0 83.0156,0.1774 15.0938,0.3226 -150.9375,0.3226 -166.0312,0 -233.9531,-0.1452 -150.9375,-0.3226 z M 2982.132,571.95595 c 0,-234.09375 0.1438,-329.85937 0.3197,-212.8125 0.1758,117.04688 0.1758,308.57813 0,425.625 -0.1759,117.04688 -0.3197,21.28125 -0.3197,-212.8125 z m 623.75,0 c 0,-234.09375 0.1438,-329.85937 0.3197,-212.8125 0.1758,117.04688 0.1758,308.57813 0,425.625 -0.1759,117.04688 -0.3197,21.28125 -0.3197,-212.8125 z m -584.597,389.10279 c -1.8447,-1.14439 -4.0947,-3.46458 -5,-5.15598 -2.4567,-4.5905 -2.4423,-763.3301 0.015,-767.92093 0.9132,-1.70642 3.25,-4.04158 5.1928,-5.18923 3.2697,-1.93146 23.5383,-2.08665 272.5217,-2.08665 248.9834,0 269.252,0.15519 272.5217,2.08665 1.9428,1.14765 4.2796,3.48281 5.1929,5.18923 2.4698,4.61499 2.4698,763.33324 0,767.94824 -0.9133,1.70642 -3.2501,4.04158 -5.1929,5.18923 -3.2702,1.93175 -23.5148,2.08418 -272.7146,2.05339 -248.888,-0.0308 -269.435,-0.19013 -272.5363,-2.11395 z m 547.161,-3.42098 3.0682,-3.06817 0,-382.61364 0,-382.61364 -3.0682,-3.06818 -3.0682,-3.06818 -271.3636,0 -271.3636,0 -3.0682,3.06818 -3.0682,3.06818 0,382.61364 0,382.61364 3.0682,3.06817 3.0682,3.06819 271.3636,0 271.3636,0 3.0682,-3.06819 z m -64.4163,-51.28815 c -1.4748,-1.77699 -1.4638,-19.61206 0.013,-21.08885 0.3374,-0.33739 2.491,-0.22941 4.7859,0.23994 l 4.1725,0.85336 -2.7497,2.48845 c -1.5123,1.36864 -2.9719,2.34781 -3.2435,2.17594 -2.282,-1.44429 -3.0742,0.53196 -2.7436,6.84409 0.3244,6.19195 0.7961,7.36889 3.4999,8.73157 2.9039,1.46355 2.9368,1.57629 0.4655,1.59342 -1.4627,0.01 -3.3527,-0.81693 -4.2,-1.83792 z m 13.7345,0.2445 c 2.695,-1.35825 3.1762,-2.54552 3.4968,-8.62765 0.3147,-5.97052 -0.057,-7.45221 -2.4232,-9.65659 -1.5373,-1.43216 -2.1666,-2.60392 -1.3986,-2.60392 3.4887,0 5.325,4.03961 5.325,11.71429 0,8.23355 -1.3247,10.79776 -5.5625,10.76729 -2.292,-0.0165 -2.2326,-0.18469 0.5625,-1.59342 z m -14.1897,-52.36124 c -4.5631,-5.72106 -8.2965,-11.24567 -8.2964,-12.27692 0,-1.61213 10.6604,-16.05273 15.5389,-21.04903 1.3566,-1.38933 3.147,0.205 10.5279,9.375 4.8913,6.07697 8.8984,11.33028 8.9047,11.67403 0.011,0.62274 -13.7744,17.88555 -16.7918,21.02692 -1.3001,1.35352 -3.0855,-0.22718 -9.8833,-8.75 z m -189.8544,-185.43574 -4.6692,-4.34118 -17.2058,-0.008 -17.2059,-0.007 -5.9375,-5.08919 -5.9375,-5.08918 0,-22.76224 0,-22.76223 5.9804,-5.89051 5.9805,-5.89051 19.6981,0 19.6981,0 6.1965,5.79605 6.1964,5.79605 0,22.76021 c 0,21.17273 -0.1744,22.91803 -2.5,25.02269 -3.4281,3.1024 -3.1479,5.50146 1.3581,11.62875 l 3.8582,5.24625 -5.4207,-0.0339 c -4.4321,-0.0276 -6.2721,-0.8255 -10.0897,-4.375 z m -13.4559,-13.07218 c 1.5646,-0.99529 1.6094,-1.62127 0.2702,-3.7817 -0.8827,-1.42395 -1.2714,-3.12861 -0.8638,-3.78815 1.1756,-1.90213 6.7486,-1.3966 10.7661,0.97659 5.4022,3.19113 6.0362,1.21726 6.0584,-18.86173 l 0.019,-17.31099 -3.8822,-3.62651 c -3.817,-3.56563 -4.1229,-3.62651 -18.2211,-3.62651 -14.1817,0 -14.3791,0.0401 -17.9928,3.65385 l -3.6539,3.65384 0,17.9873 0,17.98729 3.4375,3.20291 c 1.8906,1.7616 4.2813,3.50994 5.3125,3.88517 3.1917,1.16139 16.772,0.9069 18.75,-0.35136 z m -47.0544,-74.7065 c 0.8692,-6.5709 5.1546,-11.55933 9.9366,-11.56677 1.5085,-0.003 9.07,-0.59698 16.8033,-1.32139 14.5783,-1.36563 44.5071,0.13005 50.8487,2.54112 3.0841,1.17258 5.6936,7.33073 5.7088,13.47204 l 0.01,2.8125 -42.0449,0 -42.0449,0 0.7854,-5.9375 z m 6.417,-24.0825 c -0.4329,-0.70045 -0.4046,-4.33434 0.063,-8.07531 l 0.8498,-6.80177 -6.843,-7.23896 c -8.2941,-8.77401 -9.6902,-11.30022 -9.6547,-17.46929 0.052,-9.03283 6.3207,-18.6077 14.1164,-21.56141 10.7449,-4.07115 22.2245,0.29678 29.6961,11.29926 2.7518,4.05212 5.8521,7.36748 6.8897,7.36748 1.0376,0 2.8448,-1.7706 4.016,-3.93466 6.3383,-11.7121 15.0852,-16.80358 27.1488,-15.80317 8.4321,0.69925 12.7052,3.54228 16.6247,11.061 2.2255,4.26898 2.7825,7.03049 2.4107,11.95105 -0.4944,6.54368 -1.166,7.75977 -10.3018,18.65448 -4.6295,5.52084 -4.9971,6.51907 -5,13.57762 l 0,7.61868 -9.375,-0.625 c -13.8591,-0.92394 -40.5952,-0.75875 -50.8626,0.31427 -5.7701,0.603 -9.2694,0.48334 -9.7748,-0.33427 z m 24.0659,-18.7404 c 0.3699,-5.31899 -5.576,-17.93405 -8.7272,-18.5161 -1.3315,-0.24594 -2.7106,0.7767 -3.5592,2.63922 -1.3795,3.02762 -1.1282,3.84299 3.7403,12.13728 0.6053,1.03125 1.7293,3.46192 2.4978,5.4015 2.0002,5.04817 5.6515,4.04492 6.0483,-1.6619 z m 28.1988,0.75531 c 0.6652,-1.99654 2.5399,-5.59066 4.1661,-7.98692 3.4015,-5.01243 3.5918,-6.41145 1.2989,-9.54727 -1.1135,-1.52272 -2.4972,-2.00068 -4.2143,-1.4557 -4.3437,1.37865 -9.9851,19.47125 -7.0014,22.45485 1.7642,1.76429 4.5721,0.0725 5.7507,-3.46496 z m -19.073,-39.18241 c -3.1023,-6.67755 -6.3043,-16.99554 -6.3043,-20.31445 0,-4.3443 3.5527,-7.49805 8.4466,-7.49805 4.8799,0 7.8034,2.8584 7.8034,7.62961 0,3.09059 -6.9665,23.62039 -8.0152,23.62039 -0.1834,0 -1.0522,-1.54687 -1.9305,-3.4375 z m -225.494,-185.53557 c -4.5631,-5.72107 -8.2965,-11.24568 -8.2964,-12.27693 0,-1.61213 10.6604,-16.05272 15.5389,-21.04903 1.3566,-1.38933 3.147,0.20501 10.5278,9.375 4.8914,6.07697 8.8985,11.33028 8.9049,11.67403 0.012,0.62274 -13.7745,17.88555 -16.7919,21.02693 -1.3001,1.35351 -3.0855,-0.22719 -9.8833,-8.75 z m 11.1818,-55.86232 c -2.9597,-0.64329 -3.3072,-1.05423 -1.875,-2.2176 0.9668,-0.78539 2.8829,-1.63461 4.2579,-1.88715 2.0951,-0.38478 2.5602,-1.60318 2.8715,-7.52228 0.3238,-6.15521 0.01,-7.31857 -2.4656,-9.05035 -1.5604,-1.09298 -2.2747,-1.98723 -1.5872,-1.98723 0.6875,0 2.5002,0.87565 4.0282,1.94588 2.2702,1.59016 2.7781,3.14415 2.7781,8.50079 0,5.91691 -2.1622,13.49662 -3.75,13.14568 -0.3437,-0.076 -2.2598,-0.49346 -4.2579,-0.92774 z m -11.714,-2.11049 c -2.3358,-1.63609 -2.7781,-3.11735 -2.7781,-9.30412 0,-6.18677 0.4423,-7.66803 2.7781,-9.30412 1.528,-1.07023 3.3407,-1.94588 4.0282,-1.94588 0.6875,0 -2e-4,0.87565 -1.5282,1.94588 -2.3358,1.63609 -2.7781,3.11735 -2.7781,9.30412 0,6.18677 0.4423,7.66803 2.7781,9.30412 1.528,1.07023 2.2157,1.94588 1.5282,1.94588 -0.6875,0 -2.5002,-0.87565 -4.0282,-1.94588 z m 76.2844,-120.24157 c 83.0156,-0.17742 218.8594,-0.17742 301.875,0 83.0156,0.17742 15.0938,0.32258 -150.9375,0.32258 -166.0312,0 -233.9531,-0.14516 -150.9375,-0.32258 z"
         id="path4006"
         inkscape:connector-curvature="0" />
      <path
         style="fill:#dd0159"
         d="m 3143.0767,1007.2685 c 83.0156,-0.1774 218.8594,-0.1774 301.875,0 83.0156,0.1774 15.0938,0.3226 -150.9375,0.3226 -166.0312,0 -233.9531,-0.1452 -150.9375,-0.3226 z M 2982.132,571.95595 c 0,-234.09375 0.1438,-329.85937 0.3197,-212.8125 0.1758,117.04688 0.1758,308.57813 0,425.625 -0.1759,117.04688 -0.3197,21.28125 -0.3197,-212.8125 z m 623.75,0 c 0,-234.09375 0.1438,-329.85937 0.3197,-212.8125 0.1758,117.04688 0.1758,308.57813 0,425.625 -0.1759,117.04688 -0.3197,21.28125 -0.3197,-212.8125 z m -445.9303,390.31256 c 73.7344,-0.1781 194.3906,-0.1781 268.125,0 73.7344,0.1781 13.4063,0.32382 -134.0625,0.32382 -147.4687,0 -207.7969,-0.14572 -134.0625,-0.32382 z m 344.0625,-73.98878 c 0,-0.64693 0.5117,-1.4925 1.1372,-1.87907 1.6153,-0.9983 5.237,0.59302 4.4069,1.93627 -0.92,1.48847 -5.5441,1.44075 -5.5441,-0.0572 z m 0.5584,-34.13628 c -3.9728,-4.98437 -7.761,-9.76534 -8.4183,-10.62435 -1.1586,-1.5141 2.3433,-6.79518 12.574,-18.96265 l 3.5941,-4.27451 8.3459,10.33695 c 4.5902,5.68532 8.3459,10.787 8.3459,11.33706 0,1.01339 -15.9835,21.25 -16.7839,21.25 -0.239,0 -3.6849,-4.07812 -7.6577,-9.0625 z m -189.3084,-185.3125 -4.2404,-4.375 -17.9334,0 -17.9333,0 -6.1964,-5.79605 -6.1965,-5.79605 0,-21.73808 0,-21.73807 5.9375,-5.5697 5.9375,-5.56969 20.047,-0.0212 20.047,-0.0211 5.8905,5.98043 5.8905,5.98044 0,20.79865 c 0,20.36155 -0.066,20.87671 -3.125,24.51251 -4.0062,4.76108 -3.9318,6.25348 0.5742,11.52518 4.7285,5.53204 4.693,6.20279 -0.329,6.20279 -3.0787,0 -5.209,-1.11348 -8.3702,-4.375 z m -13.3744,-13.55085 c 0.3537,-0.92172 0.1413,-2.4686 -0.4721,-3.4375 -0.6134,-0.96891 -1.1238,-2.18352 -1.1344,-2.69915 -0.035,-1.72625 7.8829,-0.96115 10.0142,0.96764 1.1578,1.04782 3.0303,1.55015 4.1609,1.11626 1.7837,-0.68445 2.0558,-3.3186 2.0558,-19.90065 l 0,-19.11178 -4.4185,-3.87948 c -4.3264,-3.79865 -4.6846,-3.87939 -17.1875,-3.87481 -10.5564,0.004 -13.4783,0.43715 -16.8627,2.50057 -5.8858,3.58857 -6.7637,7.18656 -6.3084,25.85394 0.3976,16.2993 0.4433,16.52712 4.0735,20.3125 3.5452,3.69679 4.0452,3.82831 14.5537,3.82831 7.9454,0 11.056,-0.45229 11.5255,-1.67585 z m -47.8756,-72.64034 c 0,-5.18061 2.1347,-10.27615 4.7207,-11.2685 3.387,-1.29972 24.4039,-3.12152 36.2661,-3.14365 15.7203,-0.0294 35.486,2.25257 37.6252,4.34371 0.9554,0.93388 2.0113,4.55246 2.3466,8.04129 l 0.6095,6.34334 -40.7841,0 -40.784,0 0,-4.31619 z m 6.529,-33.66836 0.346,-8.25527 -7.1055,-6.77392 c -9.0939,-8.66951 -10.9628,-13.99859 -8.0181,-22.86405 3.8424,-11.56851 13.4717,-17.42538 25.0828,-15.2562 7.5486,1.41023 11.9319,4.61728 16.9067,12.36986 5.1323,7.998 8.8221,8.46809 12.3748,1.57663 5.8431,-11.33395 13.426,-15.0131 29.3439,-14.23722 5.5069,0.26842 12.5677,8.09183 14.454,16.01521 1.3897,5.83752 1.2887,6.9909 -1.04,11.875 -1.4186,2.97524 -5.169,8.44321 -8.3342,12.15106 -5.553,6.50495 -5.7402,6.98752 -5.3347,13.75 l 0.4203,7.00845 -6.25,-0.15234 c -3.4375,-0.0838 -13.8437,-0.33084 -23.125,-0.54898 -9.2812,-0.21816 -22.0932,0.0519 -28.471,0.60019 l -11.5961,0.99684 0.3461,-8.25526 z m 24.1809,-8.78349 c 0.895,-3.566 -3.9892,-16.98361 -7.1988,-19.77632 -1.8889,-1.64349 -3.0711,-1.86009 -4.8772,-0.89351 -3.3756,1.8066 -3.0418,7.85235 0.7411,13.41936 1.7188,2.52936 3.125,5.56532 3.125,6.74656 0,2.49849 3.4801,4.79705 5.8728,3.8789 0.9068,-0.34799 1.9585,-1.86674 2.3371,-3.37499 z m 28.5917,-2.58885 c 1.144,-2.9954 2.8941,-6.12187 3.8892,-6.94771 2.8503,-2.36558 2.3103,-9.58927 -0.8431,-11.2769 -3.4079,-1.82384 -5.9145,0.69183 -9.6537,9.68823 -3.1886,7.67183 -3.371,10.78771 -0.7828,13.37587 2.791,2.79105 5.0383,1.31945 7.3904,-4.83949 z m -21.7915,-42.49452 c -4.5205,-10.546 -5.3802,-15.52258 -3.2444,-18.78218 2.425,-3.7011 5.7522,-4.773 9.9093,-3.19246 5.6535,2.14946 5.4057,7.55761 -1.0547,23.01955 -1.0471,2.50607 -2.1975,4.5565 -2.5565,4.5565 -0.3589,0 -1.7331,-2.52064 -3.0537,-5.60141 z M 3068.3226,314.14345 c -3.9728,-4.98437 -7.761,-9.76534 -8.4183,-10.62435 -1.1586,-1.5141 2.3433,-6.79518 12.574,-18.96265 l 3.5941,-4.27451 8.3459,10.33695 c 4.5902,5.68532 8.3459,10.787 8.3459,11.33706 0,1.01339 -15.9835,21.25 -16.7839,21.25 -0.239,0 -3.6849,-4.07812 -7.6577,-9.0625 z m 10.8836,-57.04237 c -1.2403,-0.78609 -0.7039,-1.40789 2.0401,-2.36442 3.3539,-1.16919 3.6612,-1.06156 3.0996,1.08572 -0.6681,2.55504 -2.4329,2.99411 -5.1397,1.2787 z m 80.7455,-76.08257 c 73.7344,-0.1781 194.3906,-0.1781 268.125,0 73.7344,0.1781 13.4063,0.32382 -134.0625,0.32382 -147.4687,0 -207.7969,-0.14572 -134.0625,-0.32382 z m -16.875,-45.00001 c 83.0156,-0.17742 218.8594,-0.17742 301.875,0 83.0156,0.17742 15.0938,0.32258 -150.9375,0.32258 -166.0312,0 -233.9531,-0.14516 -150.9375,-0.32258 z"
         id="path4004"
         inkscape:connector-curvature="0" />
      <path
         style="fill:#111111"
         d="m 3143.0767,1007.2685 c 83.0156,-0.1774 218.8594,-0.1774 301.875,0 83.0156,0.1774 15.0938,0.3226 -150.9375,0.3226 -166.0312,0 -233.9531,-0.1452 -150.9375,-0.3226 z M 2982.132,571.95595 c 0,-234.09375 0.1438,-329.85937 0.3197,-212.8125 0.1758,117.04688 0.1758,308.57813 0,425.625 -0.1759,117.04688 -0.3197,21.28125 -0.3197,-212.8125 z m 623.75,0 c 0,-234.09375 0.1438,-329.85937 0.3197,-212.8125 0.1758,117.04688 0.1758,308.57813 0,425.625 -0.1759,117.04688 -0.3197,21.28125 -0.3197,-212.8125 z M 3143.0767,136.0185 c 83.0156,-0.17742 218.8594,-0.17742 301.875,0 83.0156,0.17742 15.0938,0.32258 -150.9375,0.32258 -166.0312,0 -233.9531,-0.14516 -150.9375,-0.32258 z"
         id="path4002"
         inkscape:connector-curvature="0" />
    </g>
  </g>
</svg>
