<?xml version="1.0" encoding="UTF-8" standalone="no"?>
<!-- Created with Inkscape (http://www.inkscape.org/) -->

<svg
   xmlns:dc="http://purl.org/dc/elements/1.1/"
   xmlns:cc="http://creativecommons.org/ns#"
   xmlns:rdf="http://www.w3.org/1999/02/22-rdf-syntax-ns#"
   xmlns:svg="http://www.w3.org/2000/svg"
   xmlns="http://www.w3.org/2000/svg"
   xmlns:sodipodi="http://sodipodi.sourceforge.net/DTD/sodipodi-0.dtd"
   xmlns:inkscape="http://www.inkscape.org/namespaces/inkscape"
   width="210mm"
   height="297mm"
   viewBox="0 0 744.09448819 1052.3622047"
   id="svg2"
   version="1.1"
   inkscape:version="0.91 r13725"
   sodipodi:docname="DosCarte.svg">
  <defs
     id="defs4" />
  <sodipodi:namedview
     id="base"
     pagecolor="#ffffff"
     bordercolor="#666666"
     borderopacity="1.0"
     inkscape:pageopacity="0.0"
     inkscape:pageshadow="2"
     inkscape:zoom="0.35"
     inkscape:cx="375"
     inkscape:cy="520"
     inkscape:document-units="px"
     inkscape:current-layer="layer1"
     showgrid="false"
     inkscape:window-width="1600"
     inkscape:window-height="838"
     inkscape:window-x="-8"
     inkscape:window-y="-8"
     inkscape:window-maximized="1" />
  <metadata
     id="metadata7">
    <rdf:RDF>
      <cc:Work
         rdf:about="">
        <dc:format>image/svg+xml</dc:format>
        <dc:type
           rdf:resource="http://purl.org/dc/dcmitype/StillImage" />
        <dc:title></dc:title>
      </cc:Work>
    </rdf:RDF>
  </metadata>
  <g
     inkscape:label="Calque 1"
     inkscape:groupmode="layer"
     id="layer1">
    <g
       id="g3347"
       transform="matrix(1.1047734,0,0,1.1047734,-52.186678,-77.742326)">
      <path
         style="fill:#fdfcfd"
         d="m 61.785717,523.79079 0,-436.250003 312.500003,0 312.5,0 0,436.250003 0,436.25 -312.5,0 -312.500003,0 0,-436.25 z"
         id="path3363"
         inkscape:connector-curvature="0" />
      <path
         style="fill:#f3b0ca"
         d="m 68.173306,958.2964 c -6.712115,-3.72024 -6.295634,24.78369 -6.343295,-434.1343 -0.03407,-328.08825 0.300297,-427.259975 1.449063,-429.781241 3.333243,-7.315672 -18.283097,-6.840072 310.885756,-6.840072 231.87037,0 303.26855,0.348691 305.78081,1.493357 7.3554,3.351345 6.84008,-29.403233 6.84008,434.756646 0,464.15987 0.51532,431.4053 -6.84008,434.75663 -5.07455,2.31213 -607.593922,2.0649 -611.772334,-0.25102 z m 521.737414,-86.97925 0,-40.59864 -216.875,-151.50275 -216.875,-151.50274 -29.0625,-0.0861 -29.062503,-0.0861 0,189.15711 0,189.1571 2.812503,2.59311 c 1.54687,1.4262 3.9375,2.86598 5.3125,3.1995 1.375,0.33351 110.78125,0.5303 243.125,0.43729 l 240.625,-0.16911 0,-40.59864 z m 57.40205,37.56825 3.22295,-3.0304 0,-189.1571 0,-189.15711 -27.41863,0 c -15.08025,0 -28.72832,-0.49795 -30.32907,-1.10655 -2.75283,-1.04663 -432.94656,-300.7505 -437.54839,-304.82767 -1.96727,-1.74297 -2.20197,-5.86732 -2.5,-43.93217 l -0.32891,-42.00861 -23.9643,0 c -23.64273,0 -24.00755,0.0407 -27.1875,3.03039 l -3.223203,3.03039 0,189.7821 0,189.78212 29.687503,0.0441 29.6875,0.0441 217.5,151.84356 c 119.625,83.51396 218.48437,153.02517 219.6875,154.46935 1.98375,2.38122 2.1875,6.37744 2.1875,42.90399 0,22.153 0.41778,40.69596 0.92841,41.2066 0.51062,0.51062 11.15405,0.745 23.65205,0.52082 22.06051,-0.39567 22.81767,-0.49601 25.94659,-3.43796 z M 550.92799,616.353 c -4.65691,-2.83951 -6.64227,-6.06725 -6.64227,-10.79878 0,-3.27792 -0.087,-3.32213 -2.407,-1.2226 -2.80825,2.54143 -6.14349,2.21798 -8.03063,-0.77881 -1.05567,-1.67644 -0.37316,-3.5031 3.30353,-8.84149 2.54875,-3.70067 4.6341,-7.10921 4.6341,-7.57451 0,-0.46531 -1.34772,-0.84602 -2.99492,-0.84602 -2.02891,0 -4.58403,1.88266 -7.92161,5.83678 -3.52702,4.17858 -5.5252,5.60712 -7.03342,5.02835 -3.27982,-1.25857 -3.87612,-4.55242 -1.54007,-8.50703 1.17392,-1.98728 1.78745,-4.17458 1.36343,-4.86067 -1.41498,-2.28947 -2.95305,-1.28481 -3.35289,2.19007 -0.29592,2.57188 -1.17796,3.54781 -3.50271,3.87555 -7.24671,1.02166 -15.11073,-7.25195 -13.10103,-13.7834 l 0.89374,-2.90465 -3.17391,2.93048 c -3.84508,3.55017 -8.38661,2.75654 -8.38661,-1.46556 0,-3.50421 10.73067,-19.58992 13.0683,-19.58992 0.99693,0 1.93785,-1.49658 2.16117,-3.4375 0.33348,-2.89822 0.98384,-3.4375 4.14553,-3.4375 2.90247,0 3.83777,0.61653 4.13835,2.72792 0.24213,1.70078 -0.52394,3.21616 -2.03453,4.02461 -1.3326,0.71319 -2.70065,2.57937 -3.04011,4.14708 -0.33948,1.56771 -1.02478,3.81857 -1.5229,5.00191 -0.84234,2.00106 -0.63459,2.01629 2.97076,0.2177 7.4104,-3.6968 16.36343,2.26011 16.36343,10.88744 0,2.5906 0.13703,2.63179 2.28592,0.68707 1.25726,-1.13781 2.68629,-2.06873 3.17561,-2.06873 1.32847,0 8.76374,5.39097 9.91308,7.1875 1.76309,2.75588 4.62539,1.7647 4.62539,-1.60173 0,-3.60601 3.09603,-5.3605 6.1074,-3.46097 2.78888,1.75918 2.52776,5.66375 -0.4824,7.21328 -1.375,0.7078 -2.56459,2.41192 -2.64353,3.78692 -0.079,1.375 -0.5861,3.54981 -1.12704,4.83291 -0.86567,2.05341 -0.67112,2.16574 1.62385,0.9375 4.80673,-2.57248 11.08755,-1.71669 13.93099,1.89816 4.63121,5.88763 2.40016,16.70643 -3.4452,16.70643 -0.80524,0 -1.46407,1.10521 -1.46407,2.45602 0,2.2239 -3.28499,5.05108 -5.85533,5.0393 -0.56082,-0.003 -2.8119,-1.09746 -5.0024,-2.43311 z m 7.10773,-7.48844 c 0,-1.47482 -2.43794,-3.0525 -3.33334,-2.15711 -0.89539,0.8954 0.68229,3.33334 2.15711,3.33334 0.64693,0 1.17623,-0.5293 1.17623,-1.17623 z m -41.875,-28.82377 c -0.4249,-0.6875 -1.30185,-1.25 -1.94878,-1.25 -0.64692,0 -1.17622,0.5625 -1.17622,1.25 0,0.6875 0.87695,1.25 1.94877,1.25 1.07183,0 1.60113,-0.5625 1.17623,-1.25 z m -31.013,-8.94229 c -3.04753,-1.70549 -2.60842,-4.66986 1.638,-11.05771 4.3383,-6.52608 4.54142,-7.50082 1.5625,-7.49777 -1.2351,0.001 -3.75279,2.47982 -5.78269,5.69282 -2.97109,4.70273 -4.16453,5.62455 -6.875,5.31026 -3.86876,-0.4486 -5.14219,-5.00135 -2.32039,-8.2959 3.44224,-4.01893 3.66833,-5.20941 0.98935,-5.20941 -1.68449,0 -2.57377,0.81091 -2.57377,2.34695 0,6.09601 -6.86235,6.38181 -13.76539,0.57328 -3.37889,-2.84315 -3.87988,-3.98641 -3.42365,-7.81287 0.29394,-2.4653 0.99181,-5.53165 1.55082,-6.81411 0.88099,-2.0211 0.6165,-2.20858 -1.9852,-1.40722 -3.99651,1.23099 -3.92788,1.08505 -2.24607,4.77623 3.50079,7.6834 -6.49411,12.61555 -15.17433,7.48801 -4.99112,-2.94832 -8.19475,-9.1846 -6.4209,-12.49907 1.15705,-2.16198 0.89873,-2.7578 -1.71126,-3.94699 -4.05992,-1.84983 -3.87751,-4.35823 0.85306,-11.73019 2.76399,-4.30729 3.53503,-6.51191 2.60332,-7.44362 -0.93172,-0.93172 -2.69915,0.59062 -5.96753,5.13997 -3.82714,5.32709 -5.21915,6.397 -7.91581,6.08419 -5.22558,-0.60618 -4.73455,-4.68674 1.66565,-13.84231 3.13275,-4.48145 6.50182,-8.45735 7.48682,-8.83533 0.985,-0.37797 3.18115,0.40634 4.88035,1.74293 1.69919,1.33657 3.70384,2.43015 4.45478,2.43015 2.67401,0 6.36534,5.05627 6.36534,8.71906 0,3.4505 0.22566,3.63326 3.125,2.53094 1.98888,-0.75618 4.28512,-0.74705 6.31605,0.0251 4.47163,1.70011 13.05895,8.80796 13.05895,10.80909 0,2.44151 3.51526,2.0319 7.15891,-0.8342 3.57971,-2.8158 7.85191,-3.23918 10.09109,-1 2.41125,2.41125 1.74256,4.71966 -1.75208,6.04831 -2.2224,0.84495 -3.01395,1.85696 -2.5,3.1963 0.41365,1.07791 0.75208,3.68853 0.75208,5.80136 0,3.6424 0.1185,3.73428 2.28592,1.77277 2.8465,-2.57605 6.91398,-2.66395 8.96408,-0.19374 0.85586,1.03125 2.29016,1.875 3.18732,1.875 2.13576,0 6.81268,5.98957 6.81268,8.72477 0,2.74714 -9.13547,16.926 -11.4868,17.82829 -0.98407,0.37763 -2.7396,0.15471 -3.9012,-0.49535 z m -17.112,-23.42398 c 0,-0.61395 -0.84375,-1.44003 -1.875,-1.83577 -1.14214,-0.43828 -1.875,-0.003 -1.875,1.11626 0,1.00968 0.84375,1.83578 1.875,1.83578 1.03125,0 1.875,-0.50233 1.875,-1.11627 z m -142.12444,7.48295 c -6.42123,-1.6459 -16.43506,-8.76436 -20.36551,-14.47708 -7.55277,-10.97757 -8.00444,-24.11454 -1.25878,-36.61185 6.21028,-11.50545 22.41686,-34.02775 24.48569,-34.02775 3.3696,0 16.76304,9.92722 16.76304,12.42478 0,1.2824 -4.78125,9.42377 -10.625,18.09193 -11.61175,17.22397 -13.05448,22.05381 -8.07509,27.0332 4.69444,4.69444 8.43585,5.30101 14.52255,2.3545 3.28039,-1.58801 6.61254,-2.35604 8.27269,-1.90679 4.54478,1.22988 14.65485,9.34926 14.65485,11.76931 0,2.97923 -6.77849,9.28869 -13.71324,12.76439 -6.08654,3.05058 -17.98131,4.29756 -24.6612,2.58536 z m 79.63765,-38.22577 c -0.8486,-1.02249 -1.21208,-2.72118 -0.80775,-3.77486 1.73964,-4.53342 11.29536,-17.23107 13.37705,-17.77544 1.33044,-0.34793 2.43521,-1.97041 2.65924,-3.9054 0.48816,-4.21643 5.20706,-5.26789 7.1712,-1.59788 1.02378,1.91297 0.87803,2.9431 -0.62972,4.45085 -1.079,1.079 -2.48412,1.96182 -3.12252,1.96182 -0.63839,0 -1.16071,1.27162 -1.16071,2.82585 0,1.55421 -2.5431,6.61671 -5.65133,11.25 -5.76589,8.59491 -8.76855,10.26047 -11.83546,6.56506 z m -27.95504,-18.33148 c -7.18196,-5.09495 -7.30257,-5.27922 -6.54714,-10.00346 1.14754,-7.17634 -1.69313,-12.92715 -7.29945,-14.7774 -3.9575,-1.30609 -5.1631,-1.16534 -9.53446,1.11314 -2.75226,1.43456 -5.68992,2.60829 -6.52815,2.60829 -0.83822,0 -4.7584,-2.29448 -8.7115,-5.09885 -8.51032,-6.03728 -9.23825,-9.2033 -3.27056,-14.22478 14.86446,-12.50762 34.54711,-12.41485 48.625,0.2292 10.79814,9.69834 14.31264,27.55394 8.00247,40.65693 -2.94696,6.11933 -5.52515,6.03132 -14.73621,-0.50307 z m -141.12067,-4.92415 c -5.14825,-3.57281 -7.17289,-5.77142 -7.13602,-7.74916 0.0559,-2.99402 34.42445,-54.26385 37.80519,-56.39636 1.61778,-1.02046 3.59628,-0.21384 9.20753,3.75385 3.93083,2.77949 7.72426,5.96882 8.42985,7.0874 1.02471,1.62451 -2.3278,7.39271 -16.65964,28.66389 -17.61063,26.13751 -20.47915,29.81888 -23.13583,29.69176 -0.72797,-0.0349 -4.55796,-2.30795 -8.51108,-5.05138 z M 198.9082,469.48586 c -15.00175,-5.35101 -24.01109,-18.39074 -23.76003,-34.38924 0.22422,-14.28805 6.95779,-25.09535 19.47541,-31.25775 10.82851,-5.33086 20.00004,-5.55076 29.6753,-0.7115 3.77401,1.88764 8.37621,4.85198 10.22712,6.58742 2.39004,2.24095 4.19444,2.93851 6.22648,2.40712 2.05816,-0.53822 5.0315,0.6658 10.59402,4.28991 4.25305,2.77098 8.044,5.84904 8.42432,6.84014 0.9661,2.5176 -20.53144,34.31373 -26.86514,39.73514 -9.05848,7.75371 -23.00509,10.41967 -33.99748,6.49876 z m 21.12752,-24.94507 c 3.48412,-3.48413 4.25,-5.19608 4.25,-9.5 0,-4.34099 -0.76335,-6.01335 -4.40877,-9.65877 -4.08756,-4.08756 -4.83592,-4.36061 -10.27195,-3.74788 -10.69273,1.20522 -15.94445,11.23741 -10.94431,20.9066 2.46449,4.7658 5.09884,6.16597 11.68753,6.21203 4.54352,0.0317 6.13623,-0.66072 9.6875,-4.21198 z m 98.3125,14.07701 -7.8125,-5.15034 0,-7.16976 c 0,-9.74306 -3.05642,-13.77309 -10.40323,-13.71716 -2.87197,0.0219 -6.31366,0.86562 -7.64819,1.875 -3.67256,2.7778 -6.34542,2.26126 -13.75448,-2.65808 -10.11988,-6.71921 -10.26298,-9.10801 -0.97065,-16.20322 15.22176,-11.62268 32.70902,-10.42634 46.72486,3.19655 7.3501,7.14403 11.05169,15.30805 11.05169,24.375 0,8.11315 -5.18924,20.65823 -8.52679,20.61367 -0.46651,-0.006 -4.36384,-2.32897 -8.66071,-5.16166 z m -65.41152,-44.56494 -6.77598,-4.73794 -0.0474,-7.08681 c -0.0381,-5.70907 -0.62732,-7.70414 -3.03039,-10.26207 -3.61241,-3.84524 -10.44637,-4.26469 -16.14998,-0.99127 -3.64977,2.09468 -3.98828,2.08549 -8.27788,-0.22461 -2.45989,-1.32474 -6.4996,-4.16089 -8.97715,-6.30256 -3.97277,-3.43419 -4.33367,-4.2134 -3.05662,-6.59958 2.09596,-3.91636 9.06238,-8.87868 16.35397,-11.64926 9.31035,-3.53766 17.53613,-3.14386 26.81311,1.28364 17.06619,8.14494 24.80962,26.83285 18.28169,44.12089 -3.3433,8.85417 -5.47929,9.19992 -15.13336,2.44957 z m 397.59902,-82.54419 0,-189.7821 -3.22564,-3.03039 -3.22563,-3.03039 -242.08687,0 -242.08686,0 0,41.1064 0,41.1064 217.33293,151.7061 217.33294,151.7061 27.97956,0 27.97957,0 0,-189.78212 z"
         id="path3361"
         inkscape:connector-curvature="0" />
      <path
         style="fill:#a19fa0"
         d="m 68.98893,958.08405 c -7.802009,-4.23333 -7.203213,31.86901 -7.203213,-434.29326 0,-377.55168 0.212185,-425.534473 1.896159,-428.790919 4.166411,-8.056952 -20.729421,-7.459084 310.603844,-7.459084 331.33326,0 306.43742,-0.597868 310.60383,7.459084 1.68398,3.256446 1.89617,51.239239 1.89617,428.790919 0,377.55167 -0.21219,425.53447 -1.89617,428.79091 -4.16718,8.05846 20.77152,7.46406 -310.85426,7.40904 -264.35141,-0.0439 -302.047419,-0.27948 -305.04636,-1.90669 z m 521.54679,-86.6661 0,-41.12284 -217.81203,-152.02444 -217.81201,-152.02442 -28.75048,0.33476 -28.750483,0.33478 -0.316538,189.15461 -0.316537,189.15462 3.657888,3.65788 3.65788,3.65789 243.22116,0 243.22115,0 0,-41.12284 z m 57.60018,37.46495 3.65789,-3.65788 -0.31654,-189.15462 -0.31653,-189.15461 -30,-0.625 -30,-0.625 -216.25,-151.00349 C 255.97322,291.61039 157.39509,222.25089 155.84822,220.5301 c -2.79644,-3.11085 -2.8125,-3.36389 -2.8125,-44.30902 l 0,-41.18029 -24.47116,0 -24.47115,0 -3.65385,3.65384 -3.653843,3.65385 0,189.47116 0,189.47115 29.062503,0.005 c 26.17587,0.004 29.44292,0.23665 32.89261,2.3403 6.86353,4.18543 431.08769,300.40855 433.98239,303.037 2.80712,2.54892 2.8125,2.63183 2.8125,43.37758 0,22.45308 0.375,41.19878 0.83333,41.6571 0.45833,0.45802 11.47035,0.83302 24.47115,0.83302 l 23.63783,0 3.65787,-3.65789 z M 550.07929,613.70006 c -5.0608,-3.98082 -4.64645,-11.3064 0.95643,-16.90927 5.12441,-5.12442 9.60881,-5.50483 13.93181,-1.18182 3.46336,3.46335 3.93956,7.78935 1.25275,11.3804 -1.78643,2.38765 -1.89843,2.37964 -7.00999,-0.5011 -3.54681,-1.99888 -5.60089,-2.52117 -6.47554,-1.64652 -1.88783,1.88784 -0.21218,5.06581 3.39393,6.43686 1.73637,0.66016 3.15704,2.05798 3.15704,3.10624 0,2.77881 -5.3048,2.38424 -9.20643,-0.68479 z m 12.24389,-12.26764 c 0.96081,-1.55462 -2.63535,-4.2877 -4.2934,-3.26296 -0.97555,0.60291 -0.94748,1.34753 0.0983,2.60761 1.67597,2.01943 3.20449,2.2582 4.1951,0.65535 z m -25.92809,2.80108 c -1.72029,-1.7203 -0.75894,-4.36813 4.25043,-11.70685 3.24668,-4.75639 5.98131,-7.48586 7.5,-7.48586 3.74226,0 2.825,3.64348 -2.96524,11.77826 -5.27833,7.41557 -7.17951,9.02012 -8.78519,7.41445 z M 522.508,593.9482 c -0.87866,-1.4217 8.71593,-16.2703 11.10582,-17.18739 1.00823,-0.38689 3.56393,0.52898 5.67933,2.03526 3.07159,2.18718 3.55318,3.09177 2.39132,4.49172 -0.80018,0.96415 -2.74498,1.753 -4.32178,1.753 -1.85137,0 -4.26965,1.77112 -6.82697,5 -3.82348,4.82752 -6.6183,6.18788 -8.02772,3.90741 z m -11.34728,-6.60083 c -6.89632,-3.772 -7.6208,-11.19651 -1.74552,-17.88808 4.60047,-5.23965 10.75532,-6.0337 14.87052,-1.9185 5.16803,5.16803 1.81647,16.25197 -3.8515,12.7373 -1.31918,-0.81802 -3.50947,-2.17634 -4.8673,-3.0185 -1.95505,-1.21257 -2.7946,-1.2054 -4.0344,0.0344 -2.07393,2.07393 0.14933,5.72538 3.81836,6.27124 1.68131,0.25014 2.68484,1.30137 2.68484,2.8125 0,2.70812 -2.93877,3.1226 -6.875,0.96965 z m 10.3898,-14.47973 c -0.523,-2.71569 -4.7648,-3.7374 -4.7648,-1.14768 0,1.71749 1.62753,2.97986 4.15415,3.22214 0.56603,0.0543 0.84082,-0.87923 0.61065,-2.07446 z m 29.76645,7.42596 c -0.98832,-1.59911 1.30431,-4.40649 2.829,-3.46419 2.00676,1.24025 1.70967,4.46138 -0.41148,4.46138 -0.99067,0 -2.07856,-0.44874 -2.41752,-0.99719 z m -57.03125,-5.47816 c 0,-2.17303 9.88003,-16.96114 11.83238,-17.71033 1.98917,-0.76332 3.16762,0.19934 3.16762,2.5876 0,3.36941 -9.99962,16.59808 -12.54658,16.59808 -1.34939,0 -2.45342,-0.66392 -2.45342,-1.47535 z m -9.40274,-6.06953 c -0.44015,-0.71219 0.97816,-4.06634 3.15181,-7.45367 6.99674,-10.90348 1.76471,-15.25285 -6.01645,-5.00145 -4.46917,5.88798 -6.91026,7.34188 -8.36766,4.98376 -0.94701,-1.5323 9.91751,-18.73376 11.83234,-18.73376 0.64755,0 3.73682,1.72735 6.86503,3.83856 7.12898,4.81129 7.37243,8.06807 1.27945,17.11562 -4.24351,6.30127 -7.0528,7.98819 -8.74452,5.25094 z M 326.52613,553.34847 c -21.05138,-5.88242 -31.19639,-28.39298 -21.40621,-47.49781 4.85546,-9.47509 22.01343,-33.30987 23.97881,-33.30987 2.48015,0 15.18699,8.31538 15.18699,9.9384 0,0.6171 -4.26015,7.38253 -9.467,15.03433 -5.20685,7.65179 -10.24505,15.77448 -11.19602,18.05043 -2.4834,5.94361 -0.48458,12.31369 4.90997,15.6477 5.29968,3.27539 8.59083,3.25179 14.56238,-0.10438 l 4.77473,-2.68353 6.23689,4.0022 c 9.3946,6.02848 9.68071,6.6718 5.22448,11.74716 -7.40982,8.43931 -21.41793,12.35732 -32.80502,9.17541 z m 134.29739,-0.24678 c -1.52265,-1.06652 -3.36984,-3.06282 -4.10487,-4.43622 -3.20861,-5.99535 5.15829,-17.37468 12.7751,-17.37468 2.35473,0 4.58819,-1.01508 5.9594,-2.70845 1.44603,-1.78577 2.93367,-2.42429 4.36682,-1.87434 2.86177,1.09816 1.87005,3.85109 -1.56967,4.35722 -3.15716,0.46457 -3.1879,0.61414 -1.23581,6.01257 1.1267,3.11582 1.13309,4.84822 0.0267,7.27625 -1.76891,3.88233 -4.31139,4.0293 -9.22141,0.53305 -2.52541,-1.79824 -4.13646,-2.244 -4.9977,-1.38277 -2.1107,2.1107 -0.59793,5.75474 2.71354,6.53647 4.19032,0.9892 4.9883,5 0.99478,5 -1.61618,0 -4.18432,-0.8726 -5.70698,-1.9391 z m 12.2122,-12.90785 c 0,-1.84465 -3.55589,-4.17057 -5.00594,-3.27438 -0.97555,0.60291 -0.94748,1.34753 0.0983,2.60761 1.6158,1.94693 4.90764,2.39418 4.90764,0.66677 z m 37.5,11.09695 c 0,-2.8423 3.13485,-3.40604 4.15513,-0.74722 0.78448,2.0443 -0.13737,3.24722 -2.48847,3.24722 -0.91666,0 -1.66666,-1.125 -1.66666,-2.5 z m -70.72695,-2.46107 c -1.43108,-0.57893 -4.10093,-2.83403 -5.93302,-5.01133 -3.50213,-4.16205 -3.12542,-7.63315 1.00024,-9.21632 1.05035,-0.40305 1.90973,-1.45892 1.90973,-2.34637 0,-0.88745 1.125,-2.31613 2.5,-3.17483 1.375,-0.8587 2.5,-2.59432 2.5,-3.85695 0,-3.14885 3.92273,-6.43313 7.6837,-6.43313 1.71151,0 5.46046,1.80508 8.33101,4.0113 l 5.21917,4.01131 -4.05445,4.2285 c -3.79933,3.96246 -4.44138,4.18409 -10.20446,3.52242 l -6.15002,-0.70608 3.96252,4.08828 c 7.54095,7.78028 3.12556,14.88413 -6.76442,10.8832 z m 4.47695,-5.61996 c 0,-2.43111 -4.88012,-5.03886 -6.46457,-3.45441 -0.76153,0.76154 -0.45325,1.93905 0.84849,3.2408 2.5399,2.53989 5.61608,2.6569 5.61608,0.21361 z m 8.51552,-15.99961 c 0.51403,-2.66908 -3.37384,-4.42118 -4.77602,-2.15236 -1.44195,2.33311 -0.032,5.1745 2.34092,4.71751 1.10873,-0.21353 2.20453,-1.36784 2.4351,-2.56515 z m -25.41826,2.78576 c -0.44015,-0.71219 0.97816,-4.06634 3.15181,-7.45367 4.16369,-6.48857 4.50549,-10.32654 0.98009,-11.00547 -1.3672,-0.2633 -3.72821,1.83479 -6.6654,5.92315 -4.4427,6.1839 -7.07675,7.68915 -8.74158,4.99542 -1.07601,-1.74103 10.17613,-18.66455 12.40973,-18.66455 0.94159,0 2.36642,0.78856 3.1663,1.75236 0.79989,0.96379 2.74107,2.07531 4.31376,2.47002 3.63629,0.91265 5.79294,5.47434 4.38606,9.27727 -0.5849,1.58106 -2.78576,5.37793 -4.8908,8.4375 -3.73522,5.42896 -6.49487,6.88126 -8.10997,4.26797 z m -19.76393,-13.28846 c -1.70472,-1.70473 -0.70231,-4.49678 4.21324,-11.73525 4.85051,-7.1427 7.62149,-8.94329 9.38124,-6.09596 0.8733,1.41302 -9.96814,18.66455 -11.72944,18.66455 -0.56744,0 -1.40671,-0.375 -1.86504,-0.83334 z m -28.40036,-18.90934 c -6.6376,-4.66756 -6.79769,-4.92157 -6.39681,-10.15026 1.02634,-13.38651 -9.64938,-20.50821 -20.59863,-13.7412 l -4.23256,2.61586 -6.13141,-3.93451 c -9.01269,-5.78344 -9.73681,-6.97409 -6.71575,-11.04244 1.38035,-1.85887 5.74351,-5.0433 9.69589,-7.07649 16.94568,-8.71723 38.00727,-1.5805 45.95447,15.57172 3.6018,7.77367 3.7627,21.53992 0.32065,27.43355 -1.36221,2.33241 -3.06425,4.43658 -3.78231,4.67595 -0.71806,0.23935 -4.36915,-1.71913 -8.11354,-4.35218 z m -142.13716,-5.91554 c -3.6002,-2.42451 -6.52264,-5.09638 -6.49433,-5.9375 0.0895,-2.65912 35.75989,-54.01126 37.79695,-54.41362 2.54277,-0.50226 14.65157,8.21259 14.65157,10.5449 0,3.03935 -35.36925,54.21444 -37.46988,54.21444 -1.06617,0 -4.88411,-1.9837 -8.48431,-4.40822 z m 185.26187,0.5493 c -0.46192,-0.74741 -0.26287,-1.9359 0.44232,-2.64108 1.57703,-1.57704 4,-0.24515 4,2.19877 0,2.10453 -3.21705,2.42484 -4.44232,0.44231 z M 200.94094,468.24142 c -11.06695,-3.46042 -19.06914,-11.15168 -22.70697,-21.82466 -1.82452,-5.35295 -1.71472,-17.01235 0.20934,-22.23105 4.76495,-12.92406 18.44452,-22.90749 31.35456,-22.88271 7.33995,0.0141 17.51446,4.24615 24.09135,10.02074 3.11262,2.73292 5.04525,3.53911 7.19226,3.00023 2.11329,-0.5304 4.8999,0.56714 9.94509,3.91695 3.85503,2.5596 7.00915,5.25563 7.00915,5.99117 0,2.86921 -20.80877,32.55813 -26.05875,37.17936 -8.80653,7.75181 -20.12317,10.24222 -31.03603,6.82997 z m 15.05005,-18.67416 c 6.40846,-2.67762 9.54473,-7.54729 9.54473,-14.82005 0,-5.39162 -0.55797,-6.76439 -4.25,-10.45642 -3.54068,-3.54068 -5.15752,-4.24693 -9.6875,-4.23158 -6.47549,0.022 -10.56029,1.91269 -13.92495,6.44549 -5.07805,6.84101 -1.86892,19.64029 5.75583,22.95651 5.09084,2.21416 7.46844,2.23423 12.56189,0.106 z m 102.33943,7.09625 -6.58032,-4.50337 0.74858,-5.74718 c 0.61886,-4.75134 0.23562,-6.50525 -2.21174,-10.12217 -4.23012,-6.25165 -10.06724,-7.51612 -17.51824,-3.79492 l -5.62403,2.80878 -7.05448,-4.6839 c -4.15021,-2.75559 -7.05447,-5.59454 -7.05447,-6.89583 0,-2.73071 6.44688,-8.30571 13.125,-11.34996 7.57358,-3.45245 20.38656,-3.13835 27.85405,0.68283 7.22338,3.69626 14.49646,11.04188 17.08491,17.25535 4.0995,9.84065 1.27981,29.84108 -4.31396,30.59953 -1.03125,0.13983 -4.83614,-1.7723 -8.4553,-4.24916 z m -64.13043,-43.84736 -6.76271,-4.72464 -0.0132,-7.25279 c -0.0125,-6.60415 -0.37836,-7.579 -4.0955,-10.90036 -4.93004,-4.40512 -10.11185,-4.73582 -16.11091,-1.02821 l -4.23822,2.61936 -7.46088,-4.80686 c -4.167,-2.68469 -7.46573,-5.72356 -7.47183,-6.88325 -0.006,-1.142 1.81719,-3.6216 4.05156,-5.5102 6.54417,-5.53144 14.24623,-8.35091 22.8125,-8.35091 19.2114,0 33.46705,14.25098 33.41837,33.40743 -0.0204,8.0003 -3.28718,18.15507 -5.8406,18.15507 -0.83918,0 -4.569,-2.12609 -8.28849,-4.72464 z m 397.58573,-80.99651 0,-189.47116 -3.657,-3.65701 -3.65702,-3.657 -242.90548,0.31566 -242.9055,0.31566 0,41.10227 0,41.10226 217.35273,151.71024 217.35274,151.71023 29.20976,0 29.20977,0 0,-189.47115 z"
         id="path3359"
         inkscape:connector-curvature="0" />
      <path
         style="fill:#e85e93"
         d="m 68.98893,958.08405 c -7.802009,-4.23333 -7.203213,31.86901 -7.203213,-434.29326 0,-377.55168 0.212185,-425.534473 1.896159,-428.790919 4.166411,-8.056952 -20.729421,-7.459084 310.603844,-7.459084 331.33326,0 306.43742,-0.597868 310.60383,7.459084 1.68398,3.256446 1.89617,51.239239 1.89617,428.790919 0,377.55167 -0.21219,425.53447 -1.89617,428.79091 -4.16718,8.05846 20.77152,7.46406 -310.85426,7.40904 -264.35141,-0.0439 -302.047419,-0.27948 -305.04636,-1.90669 z M 591.49,871.65645 591.81929,830.14712 585.24,825.26296 C 578.23312,820.06137 168.43573,534.07216 159.81361,528.3666 l -5.09711,-3.37295 -29.27789,0.33607 -29.277893,0.33607 -0.316526,189.80847 -0.316527,189.80848 4.257179,4.25717 4.257177,4.25718 243.55935,-0.31565 243.55935,-0.31565 0.32928,-41.50934 z m 57.29974,37.88031 4.25403,-4.25402 -0.31653,-189.80848 -0.31652,-189.80847 -30,-0.625 c -16.5,-0.34375 -30.84375,-1.15232 -31.875,-1.79679 -5.10354,-3.18949 -432.13484,-301.29628 -433.75,-302.79705 -1.56997,-1.45879 -1.97668,-8.59842 -2.5,-43.88669 l -0.625,-42.14447 -24.78575,-0.33926 -24.78575,-0.33925 -4.280777,4.28078 -4.280779,4.28078 0.316527,189.80847 0.316526,189.80848 30.084073,0.625 30.08408,0.625 6.79092,4.69425 c 3.73501,2.58183 102.13468,71.24985 218.66593,152.5956 l 211.875,147.90133 0.3154,41.1544 c 0.17347,22.63493 0.5777,41.85754 0.89827,42.71692 0.43911,1.17715 6.6349,1.5625 25.1221,1.5625 l 24.53923,0 4.25402,-4.25403 z m -98.71045,-295.8367 c -5.0608,-3.98082 -4.64645,-11.3064 0.95643,-16.90927 5.12441,-5.12442 9.60881,-5.50483 13.93181,-1.18182 3.46336,3.46335 3.93956,7.78935 1.25275,11.3804 -1.78643,2.38765 -1.89843,2.37964 -7.00999,-0.5011 -3.54681,-1.99888 -5.60089,-2.52117 -6.47554,-1.64652 -1.88783,1.88784 -0.21218,5.06581 3.39393,6.43686 1.73637,0.66016 3.15704,2.05798 3.15704,3.10624 0,2.77881 -5.3048,2.38424 -9.20643,-0.68479 z m 12.24389,-12.26764 c 0.96081,-1.55462 -2.63535,-4.2877 -4.2934,-3.26296 -0.97555,0.60291 -0.94748,1.34753 0.0983,2.60761 1.67597,2.01943 3.20449,2.2582 4.1951,0.65535 z m -25.92809,2.80108 c -1.72029,-1.7203 -0.75894,-4.36813 4.25043,-11.70685 3.24668,-4.75639 5.98131,-7.48586 7.5,-7.48586 3.74226,0 2.825,3.64348 -2.96524,11.77826 -5.27833,7.41557 -7.17951,9.02012 -8.78519,7.41445 z M 522.508,593.9482 c -0.87866,-1.4217 8.71593,-16.2703 11.10582,-17.18739 1.00823,-0.38689 3.56393,0.52898 5.67933,2.03526 3.07159,2.18718 3.55318,3.09177 2.39132,4.49172 -0.80018,0.96415 -2.74498,1.753 -4.32178,1.753 -1.85137,0 -4.26965,1.77112 -6.82697,5 -3.82348,4.82752 -6.6183,6.18788 -8.02772,3.90741 z m -11.34728,-6.60083 c -6.89632,-3.772 -7.6208,-11.19651 -1.74552,-17.88808 4.60047,-5.23965 10.75532,-6.0337 14.87052,-1.9185 5.16803,5.16803 1.81647,16.25197 -3.8515,12.7373 -1.31918,-0.81802 -3.50947,-2.17634 -4.8673,-3.0185 -1.95505,-1.21257 -2.7946,-1.2054 -4.0344,0.0344 -2.07393,2.07393 0.14933,5.72538 3.81836,6.27124 1.68131,0.25014 2.68484,1.30137 2.68484,2.8125 0,2.70812 -2.93877,3.1226 -6.875,0.96965 z m 10.3898,-14.47973 c -0.523,-2.71569 -4.7648,-3.7374 -4.7648,-1.14768 0,1.71749 1.62753,2.97986 4.15415,3.22214 0.56603,0.0543 0.84082,-0.87923 0.61065,-2.07446 z m 29.76645,7.42596 c -0.98832,-1.59911 1.30431,-4.40649 2.829,-3.46419 2.00676,1.24025 1.70967,4.46138 -0.41148,4.46138 -0.99067,0 -2.07856,-0.44874 -2.41752,-0.99719 z m -57.03125,-5.47816 c 0,-2.17303 9.88003,-16.96114 11.83238,-17.71033 1.98917,-0.76332 3.16762,0.19934 3.16762,2.5876 0,3.36941 -9.99962,16.59808 -12.54658,16.59808 -1.34939,0 -2.45342,-0.66392 -2.45342,-1.47535 z m -9.40274,-6.06953 c -0.44015,-0.71219 0.97816,-4.06634 3.15181,-7.45367 6.99674,-10.90348 1.76471,-15.25285 -6.01645,-5.00145 -4.46917,5.88798 -6.91026,7.34188 -8.36766,4.98376 -0.94701,-1.5323 9.91751,-18.73376 11.83234,-18.73376 0.64755,0 3.73682,1.72735 6.86503,3.83856 7.12898,4.81129 7.37243,8.06807 1.27945,17.11562 -4.24351,6.30127 -7.0528,7.98819 -8.74452,5.25094 z M 326.52613,553.34847 c -21.05138,-5.88242 -31.19639,-28.39298 -21.40621,-47.49781 4.85546,-9.47509 22.01343,-33.30987 23.97881,-33.30987 2.48015,0 15.18699,8.31538 15.18699,9.9384 0,0.6171 -4.26015,7.38253 -9.467,15.03433 -5.20685,7.65179 -10.24505,15.77448 -11.19602,18.05043 -2.4834,5.94361 -0.48458,12.31369 4.90997,15.6477 5.29968,3.27539 8.59083,3.25179 14.56238,-0.10438 l 4.77473,-2.68353 6.23689,4.0022 c 9.3946,6.02848 9.68071,6.6718 5.22448,11.74716 -7.40982,8.43931 -21.41793,12.35732 -32.80502,9.17541 z m 134.29739,-0.24678 c -1.52265,-1.06652 -3.36984,-3.06282 -4.10487,-4.43622 -3.20861,-5.99535 5.15829,-17.37468 12.7751,-17.37468 2.35473,0 4.58819,-1.01508 5.9594,-2.70845 1.44603,-1.78577 2.93367,-2.42429 4.36682,-1.87434 2.86177,1.09816 1.87005,3.85109 -1.56967,4.35722 -3.15716,0.46457 -3.1879,0.61414 -1.23581,6.01257 1.1267,3.11582 1.13309,4.84822 0.0267,7.27625 -1.76891,3.88233 -4.31139,4.0293 -9.22141,0.53305 -2.52541,-1.79824 -4.13646,-2.244 -4.9977,-1.38277 -2.1107,2.1107 -0.59793,5.75474 2.71354,6.53647 4.19032,0.9892 4.9883,5 0.99478,5 -1.61618,0 -4.18432,-0.8726 -5.70698,-1.9391 z m 12.2122,-12.90785 c 0,-1.84465 -3.55589,-4.17057 -5.00594,-3.27438 -0.97555,0.60291 -0.94748,1.34753 0.0983,2.60761 1.6158,1.94693 4.90764,2.39418 4.90764,0.66677 z m 37.5,11.09695 c 0,-2.8423 3.13485,-3.40604 4.15513,-0.74722 0.78448,2.0443 -0.13737,3.24722 -2.48847,3.24722 -0.91666,0 -1.66666,-1.125 -1.66666,-2.5 z m -70.72695,-2.46107 c -1.43108,-0.57893 -4.10093,-2.83403 -5.93302,-5.01133 -3.50213,-4.16205 -3.12542,-7.63315 1.00024,-9.21632 1.05035,-0.40305 1.90973,-1.45892 1.90973,-2.34637 0,-0.88745 1.125,-2.31613 2.5,-3.17483 1.375,-0.8587 2.5,-2.59432 2.5,-3.85695 0,-3.14885 3.92273,-6.43313 7.6837,-6.43313 1.71151,0 5.46046,1.80508 8.33101,4.0113 l 5.21917,4.01131 -4.05445,4.2285 c -3.79933,3.96246 -4.44138,4.18409 -10.20446,3.52242 l -6.15002,-0.70608 3.96252,4.08828 c 7.54095,7.78028 3.12556,14.88413 -6.76442,10.8832 z m 4.47695,-5.61996 c 0,-2.43111 -4.88012,-5.03886 -6.46457,-3.45441 -0.76153,0.76154 -0.45325,1.93905 0.84849,3.2408 2.5399,2.53989 5.61608,2.6569 5.61608,0.21361 z m 8.51552,-15.99961 c 0.51403,-2.66908 -3.37384,-4.42118 -4.77602,-2.15236 -1.44195,2.33311 -0.032,5.1745 2.34092,4.71751 1.10873,-0.21353 2.20453,-1.36784 2.4351,-2.56515 z m -25.41826,2.78576 c -0.44015,-0.71219 0.97816,-4.06634 3.15181,-7.45367 4.16369,-6.48857 4.50549,-10.32654 0.98009,-11.00547 -1.3672,-0.2633 -3.72821,1.83479 -6.6654,5.92315 -4.4427,6.1839 -7.07675,7.68915 -8.74158,4.99542 -1.07601,-1.74103 10.17613,-18.66455 12.40973,-18.66455 0.94159,0 2.36642,0.78856 3.1663,1.75236 0.79989,0.96379 2.74107,2.07531 4.31376,2.47002 3.63629,0.91265 5.79294,5.47434 4.38606,9.27727 -0.5849,1.58106 -2.78576,5.37793 -4.8908,8.4375 -3.73522,5.42896 -6.49487,6.88126 -8.10997,4.26797 z m -19.76393,-13.28846 c -1.70472,-1.70473 -0.70231,-4.49678 4.21324,-11.73525 4.85051,-7.1427 7.62149,-8.94329 9.38124,-6.09596 0.8733,1.41302 -9.96814,18.66455 -11.72944,18.66455 -0.56744,0 -1.40671,-0.375 -1.86504,-0.83334 z m -28.40036,-18.90934 c -6.6376,-4.66756 -6.79769,-4.92157 -6.39681,-10.15026 1.02634,-13.38651 -9.64938,-20.50821 -20.59863,-13.7412 l -4.23256,2.61586 -6.13141,-3.93451 c -9.01269,-5.78344 -9.73681,-6.97409 -6.71575,-11.04244 1.38035,-1.85887 5.74351,-5.0433 9.69589,-7.07649 16.94568,-8.71723 38.00727,-1.5805 45.95447,15.57172 3.6018,7.77367 3.7627,21.53992 0.32065,27.43355 -1.36221,2.33241 -3.06425,4.43658 -3.78231,4.67595 -0.71806,0.23935 -4.36915,-1.71913 -8.11354,-4.35218 z m -142.13716,-5.91554 c -3.6002,-2.42451 -6.52264,-5.09638 -6.49433,-5.9375 0.0895,-2.65912 35.75989,-54.01126 37.79695,-54.41362 2.54277,-0.50226 14.65157,8.21259 14.65157,10.5449 0,3.03935 -35.36925,54.21444 -37.46988,54.21444 -1.06617,0 -4.88411,-1.9837 -8.48431,-4.40822 z m 185.26187,0.5493 c -0.46192,-0.74741 -0.26287,-1.9359 0.44232,-2.64108 1.57703,-1.57704 4,-0.24515 4,2.19877 0,2.10453 -3.21705,2.42484 -4.44232,0.44231 z M 200.94094,468.24142 c -11.06695,-3.46042 -19.06914,-11.15168 -22.70697,-21.82466 -1.82452,-5.35295 -1.71472,-17.01235 0.20934,-22.23105 4.76495,-12.92406 18.44452,-22.90749 31.35456,-22.88271 7.33995,0.0141 17.51446,4.24615 24.09135,10.02074 3.11262,2.73292 5.04525,3.53911 7.19226,3.00023 2.11329,-0.5304 4.8999,0.56714 9.94509,3.91695 3.85503,2.5596 7.00915,5.25563 7.00915,5.99117 0,2.86921 -20.80877,32.55813 -26.05875,37.17936 -8.80653,7.75181 -20.12317,10.24222 -31.03603,6.82997 z m 15.05005,-18.67416 c 6.40846,-2.67762 9.54473,-7.54729 9.54473,-14.82005 0,-5.39162 -0.55797,-6.76439 -4.25,-10.45642 -3.54068,-3.54068 -5.15752,-4.24693 -9.6875,-4.23158 -6.47549,0.022 -10.56029,1.91269 -13.92495,6.44549 -5.07805,6.84101 -1.86892,19.64029 5.75583,22.95651 5.09084,2.21416 7.46844,2.23423 12.56189,0.106 z m 102.33943,7.09625 -6.58032,-4.50337 0.74858,-5.74718 c 0.61886,-4.75134 0.23562,-6.50525 -2.21174,-10.12217 -4.23012,-6.25165 -10.06724,-7.51612 -17.51824,-3.79492 l -5.62403,2.80878 -7.05448,-4.6839 c -4.15021,-2.75559 -7.05447,-5.59454 -7.05447,-6.89583 0,-2.73071 6.44688,-8.30571 13.125,-11.34996 7.57358,-3.45245 20.38656,-3.13835 27.85405,0.68283 7.22338,3.69626 14.49646,11.04188 17.08491,17.25535 4.0995,9.84065 1.27981,29.84108 -4.31396,30.59953 -1.03125,0.13983 -4.83614,-1.7723 -8.4553,-4.24916 z m -64.13043,-43.84736 -6.76271,-4.72464 -0.0132,-7.25279 c -0.0125,-6.60415 -0.37836,-7.579 -4.0955,-10.90036 -4.93004,-4.40512 -10.11185,-4.73582 -16.11091,-1.02821 l -4.23822,2.61936 -7.46088,-4.80686 c -4.167,-2.68469 -7.46573,-5.72356 -7.47183,-6.88325 -0.006,-1.142 1.81719,-3.6216 4.05156,-5.5102 6.54417,-5.53144 14.24623,-8.35091 22.8125,-8.35091 19.2114,0 33.46705,14.25098 33.41837,33.40743 -0.0204,8.0003 -3.28718,18.15507 -5.8406,18.15507 -0.83918,0 -4.569,-2.12609 -8.28849,-4.72464 z m 398.52725,-80.70884 0.31653,-189.80847 -4.25718,-4.25718 -4.25717,-4.25718 -243.55935,0.31565 -243.55935,0.31566 -0.32927,41.49583 -0.32927,41.49583 4.07927,3.2022 c 2.2436,1.76121 100.26677,70.38282 217.82927,152.49247 l 213.75,149.29028 30,-0.2383 30,-0.23831 0.31652,-189.80848 z"
         id="path3357"
         inkscape:connector-curvature="0" />
      <path
         style="fill:#706167"
         d="m 66.932776,954.89372 -5.147059,-5.14705 0,-425.9112 0,-425.911181 4.6875,-4.879251 4.6875,-4.879251 303.125003,0 303.125,0 4.6875,4.879251 4.6875,4.879251 0,425.911181 0,425.9112 -5.14707,5.14705 -5.14705,5.14707 -302.20588,0 -302.205885,0 -5.147059,-5.14707 z M 591.49,871.65645 591.81929,830.14712 585.24,825.26296 C 578.23312,820.06137 168.43573,534.07216 159.81361,528.3666 l -5.09711,-3.37295 -29.27789,0.33607 -29.277893,0.33607 -0.316526,189.80847 -0.316527,189.80848 4.257179,4.25717 4.257177,4.25718 243.55935,-0.31565 243.55935,-0.31565 0.32928,-41.50934 z m 57.29974,37.88031 4.25403,-4.25402 -0.31653,-189.80848 -0.31652,-189.80847 -30,-0.625 c -16.5,-0.34375 -30.84375,-1.15232 -31.875,-1.79679 -5.10354,-3.18949 -432.13484,-301.29628 -433.75,-302.79705 -1.56997,-1.45879 -1.97668,-8.59842 -2.5,-43.88669 l -0.625,-42.14447 -24.78575,-0.33926 -24.78575,-0.33925 -4.280777,4.28078 -4.280779,4.28078 0.316527,189.80847 0.316526,189.80848 30.084073,0.625 30.08408,0.625 6.79092,4.69425 c 3.73501,2.58183 102.13468,71.24985 218.66593,152.5956 l 211.875,147.90133 0.3154,41.1544 c 0.17347,22.63493 0.5777,41.85754 0.89827,42.71692 0.43911,1.17715 6.6349,1.5625 25.1221,1.5625 l 24.53923,0 4.25402,-4.25403 z M 548.61059,609.95967 c -2.184,-3.53376 1.3443,-11.19507 6.49605,-14.10548 2.53051,-1.42958 0.30126,4.20077 -2.95085,7.45288 -2.05815,2.05815 -2.77377,3.81792 -2.23847,5.50453 0.84158,2.6516 0.0515,3.34576 -1.30673,1.14807 z m 13.92083,-3.4736 c -0.43257,-0.6999 -0.17738,-1.64898 0.56707,-2.10908 1.92185,-1.18777 3.16184,0.43918 1.55748,2.04355 -0.89773,0.89772 -1.5969,0.91928 -2.12455,0.0655 z m -24.4957,-5.28256 c 0,-0.73551 1.77865,-3.96989 3.95256,-7.1875 4.97921,-7.36976 4.66809,-7.02124 5.51324,-6.17609 0.65037,0.65038 -7.96845,14.70087 -9.01778,14.70087 -0.24641,0 -0.44802,-0.60178 -0.44802,-1.33728 z m -13.74193,-7.74445 c -0.0169,-2.0055 9.16908,-14.66827 10.64085,-14.66827 0.84973,0 2.24521,0.84375 3.10108,1.875 1.29691,1.56268 1.1304,1.875 -0.99969,1.875 -1.50141,0 -4.65531,2.44948 -7.64499,5.9375 -2.79905,3.26562 -5.09281,5.50697 -5.09725,4.98077 z m -16.68825,-11.92682 c -0.58035,-0.89844 -0.7332,-2.91643 -0.33966,-4.48439 0.81329,-3.24043 5.42312,-9.50706 6.99354,-9.50706 1.74498,0 -0.25122,5.5203 -2.60403,7.20115 -1.21344,0.86687 -2.38365,3.11687 -2.60046,5 -0.2756,2.39362 -0.71171,2.93232 -1.44939,1.7903 z m 12.93018,-3.2134 c 0,-0.25957 0.84375,-1.17219 1.875,-2.02805 1.53563,-1.27447 1.875,-1.18905 1.875,0.47195 0,1.11542 -0.84375,2.02805 -1.875,2.02805 -1.03125,0 -1.875,-0.21238 -1.875,-0.47195 z m -23.75,-4.67308 c 0,-1.92674 8.89215,-13.87949 9.71407,-13.05756 0.68018,0.68017 -7.99331,14.45259 -9.10184,14.45259 -0.33673,0 -0.61223,-0.62777 -0.61223,-1.39503 z m -10,-6.83812 c 0,-0.40324 1.76105,-3.18538 3.91343,-6.18253 2.53908,-3.53559 3.67764,-6.35104 3.24203,-8.01684 -0.7707,-2.94715 1.3039,-3.52932 2.39981,-0.67345 0.7399,1.92817 -6.7707,15.60597 -8.56939,15.60597 -0.54223,0 -0.98588,-0.32993 -0.98588,-0.73315 z m -11.25,-7.41108 c 0,-1.35119 9.15228,-14.35577 10.1032,-14.35577 2.1736,0 2.33996,2.44388 0.24431,3.58896 -1.22239,0.66791 -3.62093,3.50864 -5.3301,6.31271 -2.70441,4.43689 -5.01741,6.4902 -5.01741,4.4541 z m -151.71563,-8.69099 c -15.47889,-5.51756 -23.94659,-22.35101 -19.42844,-38.62293 1.07608,-3.87543 19.48004,-33.01282 23.70588,-37.53144 1.1421,-1.22124 13.68819,6.25492 13.68819,8.15674 0,0.63608 -4.56415,7.96911 -10.14254,16.29561 -11.21868,16.74534 -12.91928,21.95935 -9.21024,28.23824 4.5301,7.66887 14.25421,10.21373 21.85996,5.72091 4.02683,-2.3787 6.08337,-1.76551 13.22314,3.94266 l 3.64468,2.91389 -3.125,3.4012 c -7.53069,8.19627 -22.83073,11.54336 -34.21563,7.48512 z m 135.04896,-1.49812 c -2.92913,-2.92913 0.59703,-11.63911 5.79327,-14.31 2.26607,-1.16476 2.47418,-1.12259 1.1859,0.24032 -0.85938,0.90917 -1.5625,2.66552 -1.5625,3.90302 0,1.2375 -0.83304,2.25 -1.85119,2.25 -2.03063,0 -3.87004,5.32177 -2.56773,7.42895 0.91015,1.47266 0.29022,1.77568 -0.99775,0.48771 z m -12.3673,-4.9066 c 0.41524,-2.17223 0.93792,-2.7245 1.586,-1.67585 1.05943,1.71416 0.2372,4.91579 -1.26243,4.91579 -0.5186,0 -0.66422,-1.45798 -0.32357,-3.23994 z m 26.02967,0.93522 c -0.43257,-0.6999 -0.17738,-1.64898 0.56707,-2.10908 1.92185,-1.18777 3.16184,0.43918 1.55748,2.04355 -0.89773,0.89772 -1.5969,0.91928 -2.12455,0.0655 z m -39.4957,-6.44528 c 0,-0.6875 0.5957,-1.25 1.32377,-1.25 0.72808,0 0.97613,0.5625 0.55123,1.25 -0.4249,0.6875 -1.0206,1.25 -1.32378,1.25 -0.30317,0 -0.55122,-0.5625 -0.55122,-1.25 z m 5,-4.30123 c 0,-0.99067 0.5625,-2.14887 1.25,-2.57377 0.6875,-0.4249 1.25,0.38565 1.25,1.80122 0,1.41558 -0.5625,2.57378 -1.25,2.57378 -0.6875,0 -1.25,-0.81055 -1.25,-1.80123 z m 14.6875,-2.7918 c 1.54687,-1.07905 2.8125,-3.05149 2.8125,-4.38321 0,-1.33171 0.5625,-2.07366 1.25,-1.64876 0.6875,0.4249 1.25,1.30185 1.25,1.94877 0,1.75034 -4.76379,6.18614 -6.5625,6.11066 -0.85938,-0.036 -0.29688,-0.94842 1.25,-2.02746 z m -9.6875,-2.2006 c 0,-3.2326 2.4056,-8.20637 3.96906,-8.20637 1.19072,0 1.1976,0.33333 0.0309,1.5 -0.825,0.825 -1.5,3.075 -1.5,5 0,1.925 -0.5625,3.5 -1.25,3.5 -0.6875,0 -1.25,-0.80714 -1.25,-1.79363 z m -13.75,-1.41865 c 0,-0.39176 1.6875,-3.16499 3.75,-6.16272 2.0625,-2.99774 3.75,-6.64792 3.75,-8.11149 0,-1.46359 0.5625,-2.31341 1.25,-1.88851 2.14903,1.32817 1.39158,4.1875 -2.8125,10.61706 -3.59415,5.49674 -5.9375,7.68545 -5.9375,5.54566 z m -11.25,-7.43195 c 0,-1.91242 9.36298,-14.35577 10.80197,-14.35577 2.50136,0 2.04566,1.50426 -1.4644,4.83393 -1.71559,1.62742 -4.07715,4.58054 -5.24791,6.5625 -1.8779,3.17903 -4.08966,4.77949 -4.08966,2.95934 z m -10,-6.3758 c 0,-0.59051 5.20502,-8.24134 9.61011,-14.12581 0.21444,-0.28645 0.72401,-0.1867 1.1324,0.22169 0.83891,0.83891 -8.35455,14.55333 -9.80501,14.62672 -0.51563,0.0261 -0.9375,-0.29909 -0.9375,-0.7226 z m -28.57454,-18.19912 c -4.8674,-3.4456 -5.38149,-4.27697 -4.8126,-7.78263 0.81221,-5.00509 -1.98171,-13.23196 -5.45439,-16.06072 -3.47239,-2.82854 -12.74647,-2.86758 -17.47634,-0.0736 -3.96837,2.34419 -6.09473,1.69715 -13.16246,-4.0052 -4.53056,-3.65535 -3.53912,-5.84225 5.0785,-11.20209 7.92094,-4.92652 20.08109,-5.88736 28.29881,-2.23605 12.68024,5.63412 19.81849,16.22308 19.8408,29.43207 0.0132,7.86961 -2.65116,15.93021 -5.2365,15.84161 -0.89446,-0.0306 -4.07857,-1.79169 -7.07582,-3.91341 z m -140.62723,-5.055 c -4.2094,-2.73818 -5.81318,-4.53368 -5.4138,-6.06095 0.31214,-1.1936 8.26488,-13.48545 17.67277,-27.31523 l 17.10523,-25.14506 3.68798,2.17854 c 2.02837,1.1982 5.16472,3.35606 6.96966,4.79527 l 3.2817,2.61674 -17.00324,25.03481 c -9.35177,13.76915 -17.74928,25.65399 -18.66112,26.41074 -1.2549,1.04149 -3.11174,0.43021 -7.63918,-2.51486 z m -39.86327,-25.25929 c -7.21314,-2.57411 -12.51795,-7.26471 -16.54434,-14.62875 -3.07157,-5.61771 -3.67033,-8.14025 -3.67033,-15.46281 0,-15.4655 8.80234,-26.98608 23.99286,-31.40209 10.41058,-3.02644 20.44373,-0.0497 30.6228,9.0852 3.63051,3.25814 5.41688,4.05056 7.78903,3.4552 3.49248,-0.87656 14.36895,5.1844 14.37278,8.00929 0.004,2.71176 -19.74416,30.99576 -24.64638,35.29996 -2.49951,2.1946 -6.39553,4.76356 -8.65782,5.70881 -5.17646,2.16286 -17.10943,2.12961 -23.2586,-0.0649 z m 20.44269,-16.05398 c 11.22508,-7.49885 10.96482,-22.72212 -0.50807,-29.71758 -7.53926,-4.59698 -17.64515,-1.88652 -23.03217,6.17735 -3.30494,4.94718 -3.60923,10.47513 -0.92963,16.8883 3.77944,9.04548 15.93895,12.35095 24.46987,6.65193 z m 102.31708,7.13847 c -2.37585,-1.77109 -5.13096,-3.68685 -6.12246,-4.25724 -1.23371,-0.70973 -1.70945,-2.83889 -1.50722,-6.74563 0.32997,-6.37447 -2.07964,-12.116 -6.33604,-15.09731 -3.51504,-2.46202 -12.23894,-2.52741 -15.4276,-0.11562 -1.33453,1.00937 -3.39434,1.85312 -4.57736,1.875 -2.289,0.0423 -13.47405,-7.31244 -13.47405,-8.85988 0,-1.9404 9.4917,-8.61809 14.84016,-10.4405 8.07221,-2.75047 15.98277,-2.38427 23.28484,1.07793 15.07147,7.14597 22.8358,23.7409 17.96081,38.38817 -2.39364,7.19189 -3.72879,7.83698 -8.64108,4.17508 z m -67.19662,-45.51502 c -4.97871,-3.60656 -5.24811,-4.12828 -5.24811,-10.16351 0,-7.20875 -2.66937,-12.72886 -7.1404,-14.76601 -4.33728,-1.97619 -11.87084,-1.65945 -15.1494,0.63695 -3.57673,2.50524 -7.1056,1.64482 -12.7102,-3.09901 -5.28563,-4.47384 -4.60358,-6.41982 4.16108,-11.87215 8.21722,-5.11178 20.5246,-5.99128 28.40635,-2.02995 13.42425,6.74696 18.60234,13.8453 19.58354,26.84588 0.6398,8.47732 -1.68551,17.29264 -4.71536,17.87607 -1.06666,0.2054 -4.30104,-1.33733 -7.1875,-3.42827 z m 398.19341,-79.21951 0.31653,-189.80847 -4.25718,-4.25718 -4.25717,-4.25718 -243.55935,0.31565 -243.55935,0.31566 -0.32927,41.49583 -0.32927,41.49583 4.07927,3.2022 c 2.2436,1.76121 100.26677,70.38282 217.82927,152.49247 l 213.75,149.29028 30,-0.2383 30,-0.23831 0.31652,-189.80848 z"
         id="path3355"
         inkscape:connector-curvature="0" />
      <path
         style="fill:#db0158"
         d="m 72.086198,959.2129 c -0.865986,-0.35115 -3.397236,-2.4179 -5.625,-4.59279 l -4.050481,-3.95432 0,-426.875 0,-426.875003 4.375,-4.375 4.375,-4.375 303.125003,0 303.125,0 4.375,4.375 4.375,4.375 0,426.875003 0,426.875 -4.375,4.375 -4.375,4.375 -301.875,0.21778 C 209.50447,959.75336 72.952183,959.56406 72.086198,959.2129 Z M 646.99364,913.05826 c 7.7065,-3.98517 7.29208,7.29753 7.29208,-198.52855 0,-124.38409 -0.42453,-188.35375 -1.25338,-188.86601 -0.83785,-0.51781 -0.83785,-1.55108 0,-3.1166 0.82186,-1.53568 1.25338,-66.93581 1.25338,-189.96429 0,-205.51819 0.42535,-194.06866 -7.35925,-198.09424 -3.42945,-1.77343 -30.42257,-1.96481 -272.70802,-1.93347 -297.893584,0.0385 -274.478753,-0.64782 -278.156206,8.15356 -1.508594,3.61058 -1.776527,32.54868 -1.776527,191.87415 0,123.02848 0.431509,188.42861 1.25338,189.96429 0.837841,1.56552 0.837841,2.59879 0,3.1166 -1.874465,1.15849 -1.717288,375.17326 0.159928,380.55825 0.777318,2.22981 3.167943,5.1268 5.312495,6.43774 3.80421,2.32546 10.4563,2.38288 273.07115,2.35781 240.40698,-0.023 269.57152,-0.23234 272.91097,-1.95924 z M 548.61059,609.95967 c -2.184,-3.53376 1.3443,-11.19507 6.49605,-14.10548 2.53051,-1.42958 0.30126,4.20077 -2.95085,7.45288 -2.05815,2.05815 -2.77377,3.81792 -2.23847,5.50453 0.84158,2.6516 0.0515,3.34576 -1.30673,1.14807 z m 13.92083,-3.4736 c -0.43257,-0.6999 -0.17738,-1.64898 0.56707,-2.10908 1.92185,-1.18777 3.16184,0.43918 1.55748,2.04355 -0.89773,0.89772 -1.5969,0.91928 -2.12455,0.0655 z m -24.4957,-5.28256 c 0,-0.73551 1.77865,-3.96989 3.95256,-7.1875 4.97921,-7.36976 4.66809,-7.02124 5.51324,-6.17609 0.65037,0.65038 -7.96845,14.70087 -9.01778,14.70087 -0.24641,0 -0.44802,-0.60178 -0.44802,-1.33728 z m -13.74193,-7.74445 c -0.0169,-2.0055 9.16908,-14.66827 10.64085,-14.66827 0.84973,0 2.24521,0.84375 3.10108,1.875 1.29691,1.56268 1.1304,1.875 -0.99969,1.875 -1.50141,0 -4.65531,2.44948 -7.64499,5.9375 -2.79905,3.26562 -5.09281,5.50697 -5.09725,4.98077 z m -16.68825,-11.92682 c -0.58035,-0.89844 -0.7332,-2.91643 -0.33966,-4.48439 0.81329,-3.24043 5.42312,-9.50706 6.99354,-9.50706 1.74498,0 -0.25122,5.5203 -2.60403,7.20115 -1.21344,0.86687 -2.38365,3.11687 -2.60046,5 -0.2756,2.39362 -0.71171,2.93232 -1.44939,1.7903 z m 12.93018,-3.2134 c 0,-0.25957 0.84375,-1.17219 1.875,-2.02805 1.53563,-1.27447 1.875,-1.18905 1.875,0.47195 0,1.11542 -0.84375,2.02805 -1.875,2.02805 -1.03125,0 -1.875,-0.21238 -1.875,-0.47195 z m -23.75,-4.67308 c 0,-1.92674 8.89215,-13.87949 9.71407,-13.05756 0.68018,0.68017 -7.99331,14.45259 -9.10184,14.45259 -0.33673,0 -0.61223,-0.62777 -0.61223,-1.39503 z m -10,-6.83812 c 0,-0.40324 1.76105,-3.18538 3.91343,-6.18253 2.53908,-3.53559 3.67764,-6.35104 3.24203,-8.01684 -0.7707,-2.94715 1.3039,-3.52932 2.39981,-0.67345 0.7399,1.92817 -6.7707,15.60597 -8.56939,15.60597 -0.54223,0 -0.98588,-0.32993 -0.98588,-0.73315 z m -11.25,-7.41108 c 0,-1.35119 9.15228,-14.35577 10.1032,-14.35577 2.1736,0 2.33996,2.44388 0.24431,3.58896 -1.22239,0.66791 -3.62093,3.50864 -5.3301,6.31271 -2.70441,4.43689 -5.01741,6.4902 -5.01741,4.4541 z m -151.71563,-8.69099 c -15.47889,-5.51756 -23.94659,-22.35101 -19.42844,-38.62293 1.07608,-3.87543 19.48004,-33.01282 23.70588,-37.53144 1.1421,-1.22124 13.68819,6.25492 13.68819,8.15674 0,0.63608 -4.56415,7.96911 -10.14254,16.29561 -11.21868,16.74534 -12.91928,21.95935 -9.21024,28.23824 4.5301,7.66887 14.25421,10.21373 21.85996,5.72091 4.02683,-2.3787 6.08337,-1.76551 13.22314,3.94266 l 3.64468,2.91389 -3.125,3.4012 c -7.53069,8.19627 -22.83073,11.54336 -34.21563,7.48512 z m 135.04896,-1.49812 c -2.92913,-2.92913 0.59703,-11.63911 5.79327,-14.31 2.26607,-1.16476 2.47418,-1.12259 1.1859,0.24032 -0.85938,0.90917 -1.5625,2.66552 -1.5625,3.90302 0,1.2375 -0.83304,2.25 -1.85119,2.25 -2.03063,0 -3.87004,5.32177 -2.56773,7.42895 0.91015,1.47266 0.29022,1.77568 -0.99775,0.48771 z m -12.3673,-4.9066 c 0.41524,-2.17223 0.93792,-2.7245 1.586,-1.67585 1.05943,1.71416 0.2372,4.91579 -1.26243,4.91579 -0.5186,0 -0.66422,-1.45798 -0.32357,-3.23994 z m 26.02967,0.93522 c -0.43257,-0.6999 -0.17738,-1.64898 0.56707,-2.10908 1.92185,-1.18777 3.16184,0.43918 1.55748,2.04355 -0.89773,0.89772 -1.5969,0.91928 -2.12455,0.0655 z m -39.4957,-6.44528 c 0,-0.6875 0.5957,-1.25 1.32377,-1.25 0.72808,0 0.97613,0.5625 0.55123,1.25 -0.4249,0.6875 -1.0206,1.25 -1.32378,1.25 -0.30317,0 -0.55122,-0.5625 -0.55122,-1.25 z m 5,-4.30123 c 0,-0.99067 0.5625,-2.14887 1.25,-2.57377 0.6875,-0.4249 1.25,0.38565 1.25,1.80122 0,1.41558 -0.5625,2.57378 -1.25,2.57378 -0.6875,0 -1.25,-0.81055 -1.25,-1.80123 z m 14.6875,-2.7918 c 1.54687,-1.07905 2.8125,-3.05149 2.8125,-4.38321 0,-1.33171 0.5625,-2.07366 1.25,-1.64876 0.6875,0.4249 1.25,1.30185 1.25,1.94877 0,1.75034 -4.76379,6.18614 -6.5625,6.11066 -0.85938,-0.036 -0.29688,-0.94842 1.25,-2.02746 z m -9.6875,-2.2006 c 0,-3.2326 2.4056,-8.20637 3.96906,-8.20637 1.19072,0 1.1976,0.33333 0.0309,1.5 -0.825,0.825 -1.5,3.075 -1.5,5 0,1.925 -0.5625,3.5 -1.25,3.5 -0.6875,0 -1.25,-0.80714 -1.25,-1.79363 z m -13.75,-1.41865 c 0,-0.39176 1.6875,-3.16499 3.75,-6.16272 2.0625,-2.99774 3.75,-6.64792 3.75,-8.11149 0,-1.46359 0.5625,-2.31341 1.25,-1.88851 2.14903,1.32817 1.39158,4.1875 -2.8125,10.61706 -3.59415,5.49674 -5.9375,7.68545 -5.9375,5.54566 z m -11.25,-7.43195 c 0,-1.91242 9.36298,-14.35577 10.80197,-14.35577 2.50136,0 2.04566,1.50426 -1.4644,4.83393 -1.71559,1.62742 -4.07715,4.58054 -5.24791,6.5625 -1.8779,3.17903 -4.08966,4.77949 -4.08966,2.95934 z m -10,-6.3758 c 0,-0.59051 5.20502,-8.24134 9.61011,-14.12581 0.21444,-0.28645 0.72401,-0.1867 1.1324,0.22169 0.83891,0.83891 -8.35455,14.55333 -9.80501,14.62672 -0.51563,0.0261 -0.9375,-0.29909 -0.9375,-0.7226 z m -28.57454,-18.19912 c -4.8674,-3.4456 -5.38149,-4.27697 -4.8126,-7.78263 0.81221,-5.00509 -1.98171,-13.23196 -5.45439,-16.06072 -3.47239,-2.82854 -12.74647,-2.86758 -17.47634,-0.0736 -3.96837,2.34419 -6.09473,1.69715 -13.16246,-4.0052 -4.53056,-3.65535 -3.53912,-5.84225 5.0785,-11.20209 7.92094,-4.92652 20.08109,-5.88736 28.29881,-2.23605 12.68024,5.63412 19.81849,16.22308 19.8408,29.43207 0.0132,7.86961 -2.65116,15.93021 -5.2365,15.84161 -0.89446,-0.0306 -4.07857,-1.79169 -7.07582,-3.91341 z m -140.62723,-5.055 c -4.2094,-2.73818 -5.81318,-4.53368 -5.4138,-6.06095 0.31214,-1.1936 8.26488,-13.48545 17.67277,-27.31523 l 17.10523,-25.14506 3.68798,2.17854 c 2.02837,1.1982 5.16472,3.35606 6.96966,4.79527 l 3.2817,2.61674 -17.00324,25.03481 c -9.35177,13.76915 -17.74928,25.65399 -18.66112,26.41074 -1.2549,1.04149 -3.11174,0.43021 -7.63918,-2.51486 z m -39.86327,-25.25929 c -7.21314,-2.57411 -12.51795,-7.26471 -16.54434,-14.62875 -3.07157,-5.61771 -3.67033,-8.14025 -3.67033,-15.46281 0,-15.4655 8.80234,-26.98608 23.99286,-31.40209 10.41058,-3.02644 20.44373,-0.0497 30.6228,9.0852 3.63051,3.25814 5.41688,4.05056 7.78903,3.4552 3.49248,-0.87656 14.36895,5.1844 14.37278,8.00929 0.004,2.71176 -19.74416,30.99576 -24.64638,35.29996 -2.49951,2.1946 -6.39553,4.76356 -8.65782,5.70881 -5.17646,2.16286 -17.10943,2.12961 -23.2586,-0.0649 z m 20.44269,-16.05398 c 11.22508,-7.49885 10.96482,-22.72212 -0.50807,-29.71758 -7.53926,-4.59698 -17.64515,-1.88652 -23.03217,6.17735 -3.30494,4.94718 -3.60923,10.47513 -0.92963,16.8883 3.77944,9.04548 15.93895,12.35095 24.46987,6.65193 z m 102.31708,7.13847 c -2.37585,-1.77109 -5.13096,-3.68685 -6.12246,-4.25724 -1.23371,-0.70973 -1.70945,-2.83889 -1.50722,-6.74563 0.32997,-6.37447 -2.07964,-12.116 -6.33604,-15.09731 -3.51504,-2.46202 -12.23894,-2.52741 -15.4276,-0.11562 -1.33453,1.00937 -3.39434,1.85312 -4.57736,1.875 -2.289,0.0423 -13.47405,-7.31244 -13.47405,-8.85988 0,-1.9404 9.4917,-8.61809 14.84016,-10.4405 8.07221,-2.75047 15.98277,-2.38427 23.28484,1.07793 15.07147,7.14597 22.8358,23.7409 17.96081,38.38817 -2.39364,7.19189 -3.72879,7.83698 -8.64108,4.17508 z m -67.19662,-45.51502 c -4.97871,-3.60656 -5.24811,-4.12828 -5.24811,-10.16351 0,-7.20875 -2.66937,-12.72886 -7.1404,-14.76601 -4.33728,-1.97619 -11.87084,-1.65945 -15.1494,0.63695 -3.57673,2.50524 -7.1056,1.64482 -12.7102,-3.09901 -5.28563,-4.47384 -4.60358,-6.41982 4.16108,-11.87215 8.21722,-5.11178 20.5246,-5.99128 28.40635,-2.02995 13.42425,6.74696 18.60234,13.8453 19.58354,26.84588 0.6398,8.47732 -1.68551,17.29264 -4.71536,17.87607 -1.06666,0.2054 -4.30104,-1.33733 -7.1875,-3.42827 z"
         id="path3353"
         inkscape:connector-curvature="0" />
      <path
         style="fill:#91023b"
         d="m 346.73063,917.54079 c -234.06162,-0.59849 -244.57799,-0.72192 -247.916907,-2.90973 -7.543502,-4.94285 -7.028182,23.74293 -7.026064,-391.11262 0.0019,-359.62434 0.12105,-380.58876 2.1875,-384.68513 1.202057,-2.38286 3.936291,-5.34257 6.076071,-6.57712 3.71052,-2.14079 16.4,-2.24369 274.26992,-2.22394 256.89268,0.0197 270.57172,0.13163 274.23449,2.24464 2.12029,1.22317 4.83858,4.17356 6.04064,6.55642 2.06646,4.09641 2.18555,25.07162 2.18555,384.95748 0,359.88586 -0.11913,380.86106 -2.18555,384.95747 -4.02053,7.96998 -6.49389,8.58035 -36.56056,9.0224 -14.78125,0.21733 -136.86854,0.11388 -271.30509,-0.22987 z m 300.26301,-4.48253 c 7.7065,-3.98517 7.29208,7.29753 7.29208,-198.52855 0,-124.38409 -0.42453,-188.35375 -1.25338,-188.86601 -0.83785,-0.51781 -0.83785,-1.55108 0,-3.1166 0.82186,-1.53568 1.25338,-66.93581 1.25338,-189.96429 0,-205.51819 0.42535,-194.06866 -7.35925,-198.09424 -3.42945,-1.77343 -30.42257,-1.96481 -272.70802,-1.93347 -297.893584,0.0385 -274.478753,-0.64782 -278.156206,8.15356 -1.508594,3.61058 -1.776527,32.54868 -1.776527,191.87415 0,123.02848 0.431509,188.42861 1.25338,189.96429 0.837841,1.56552 0.837841,2.59879 0,3.1166 -1.874465,1.15849 -1.717288,375.17326 0.159928,380.55825 0.777318,2.22981 3.167943,5.1268 5.312495,6.43774 3.80421,2.32546 10.4563,2.38288 273.07115,2.35781 240.40698,-0.023 269.57152,-0.23234 272.91097,-1.95924 z"
         id="path3351"
         inkscape:connector-curvature="0" />
      <path
         style="fill:#691a39"
         d="m 100.42628,913.44076 c -2.326027,-1.5675 -4.932169,-4.23937 -5.791424,-5.9375 -2.294354,-4.53424 -2.294354,-762.89071 0,-767.42495 0.859255,-1.69812 3.465397,-4.36999 5.791424,-5.9375 l 4.22914,-2.85002 269.6303,0 269.63028,0 4.22915,2.85002 c 2.32603,1.56751 4.93217,4.23938 5.79143,5.9375 2.29435,4.53424 2.29435,762.89071 0,767.42495 -0.85926,1.69813 -3.4654,4.37 -5.79143,5.9375 l -4.22915,2.85003 -269.63028,0 -269.6303,0 -4.22914,-2.85003 z m 546.56736,-0.3825 c 7.7065,-3.98517 7.29208,7.29753 7.29208,-198.52855 0,-124.38409 -0.42453,-188.35375 -1.25338,-188.86601 -0.83785,-0.51781 -0.83785,-1.55108 0,-3.1166 0.82186,-1.53568 1.25338,-66.93581 1.25338,-189.96429 0,-205.51819 0.42535,-194.06866 -7.35925,-198.09424 -3.42945,-1.77343 -30.42257,-1.96481 -272.70802,-1.93347 -297.893584,0.0385 -274.478753,-0.64782 -278.156206,8.15356 -1.508594,3.61058 -1.776527,32.54868 -1.776527,191.87415 0,123.02848 0.431509,188.42861 1.25338,189.96429 0.837841,1.56552 0.837841,2.59879 0,3.1166 -1.874465,1.15849 -1.717288,375.17326 0.159928,380.55825 0.777318,2.22981 3.167943,5.1268 5.312495,6.43774 3.80421,2.32546 10.4563,2.38288 273.07115,2.35781 240.40698,-0.023 269.57152,-0.23234 272.91097,-1.95924 z"
         id="path3349"
         inkscape:connector-curvature="0" />
    </g>
  </g>
</svg>
