<?xml version="1.0" encoding="UTF-8" standalone="no"?>
<!-- Created with Inkscape (http://www.inkscape.org/) -->

<svg
   xmlns:dc="http://purl.org/dc/elements/1.1/"
   xmlns:cc="http://creativecommons.org/ns#"
   xmlns:rdf="http://www.w3.org/1999/02/22-rdf-syntax-ns#"
   xmlns:svg="http://www.w3.org/2000/svg"
   xmlns="http://www.w3.org/2000/svg"
   xmlns:sodipodi="http://sodipodi.sourceforge.net/DTD/sodipodi-0.dtd"
   xmlns:inkscape="http://www.inkscape.org/namespaces/inkscape"
   width="176.4539mm"
   height="246.27022mm"
   viewBox="0 0 625.23036 872.611"
   id="svg2"
   version="1.1"
   inkscape:version="0.91 r13725"
   sodipodi:docname="2.svg">
  <defs
     id="defs4">
    <pattern
       y="0"
       x="0"
       height="6"
       width="6"
       patternUnits="userSpaceOnUse"
       id="EMFhbasepattern" />
    <pattern
       y="0"
       x="0"
       height="6"
       width="6"
       patternUnits="userSpaceOnUse"
       id="EMFhbasepattern-1" />
    <pattern
       y="0"
       x="0"
       height="6"
       width="6"
       patternUnits="userSpaceOnUse"
       id="EMFhbasepattern-14" />
    <pattern
       y="0"
       x="0"
       height="6"
       width="6"
       patternUnits="userSpaceOnUse"
       id="EMFhbasepattern-4" />
    <pattern
       y="0"
       x="0"
       height="6"
       width="6"
       patternUnits="userSpaceOnUse"
       id="EMFhbasepattern-9" />
    <pattern
       y="0"
       x="0"
       height="6"
       width="6"
       patternUnits="userSpaceOnUse"
       id="EMFhbasepattern-8" />
    <pattern
       y="0"
       x="0"
       height="6"
       width="6"
       patternUnits="userSpaceOnUse"
       id="EMFhbasepattern-6" />
  </defs>
  <sodipodi:namedview
     id="base"
     pagecolor="#ffffff"
     bordercolor="#666666"
     borderopacity="1.0"
     inkscape:pageopacity="0.0"
     inkscape:pageshadow="2"
     inkscape:zoom="0.24748737"
     inkscape:cx="352.27584"
     inkscape:cy="-65.172691"
     inkscape:document-units="px"
     inkscape:current-layer="layer1"
     showgrid="false"
     fit-margin-top="0"
     fit-margin-left="0"
     fit-margin-right="0"
     fit-margin-bottom="0"
     inkscape:window-width="784"
     inkscape:window-height="822"
     inkscape:window-x="800"
     inkscape:window-y="0"
     inkscape:window-maximized="0" />
  <metadata
     id="metadata7">
    <rdf:RDF>
      <cc:Work
         rdf:about="">
        <dc:format>image/svg+xml</dc:format>
        <dc:type
           rdf:resource="http://purl.org/dc/dcmitype/StillImage" />
        <dc:title></dc:title>
      </cc:Work>
    </rdf:RDF>
  </metadata>
  <g
     inkscape:label="Calque 1"
     inkscape:groupmode="layer"
     id="layer1"
     transform="translate(304.5028,1248.3915)">
    <g
       transform="translate(-1567.1936,-1160.5551)"
       id="g4261">
      <path
         style="fill:#fdfdfd"
         d="m 1262.8044,348.5246 0,-436.249995 312.5,0 312.5,0 0,436.249995 0,436.25 -312.5,0 -312.5,0 0,-436.25 z"
         id="path4277"
         inkscape:connector-curvature="0" />
      <path
         style="fill:#f8dce8"
         d="m 1268.9296,783.21634 c -1.8959,-0.75392 -3.8487,-2.94867 -4.6875,-5.26826 -2.0668,-5.7156 -2.07,-853.122325 0,-858.837805 0.9685,-2.678387 2.7229,-4.43273 5.4013,-5.401248 5.6984,-2.060592 605.6302,-2.060592 611.3286,0 2.6784,0.968518 4.4328,2.722861 5.4013,5.401248 2.0638,5.707309 2.0638,853.121355 0,858.828655 -0.9685,2.67839 -2.7229,4.43274 -5.4013,5.40125 -5.3415,1.93154 -607.1766,1.80976 -612.0391,-0.12388 z m 609.3031,-3.57957 c 1.6753,-0.76331 3.6705,-2.75854 4.4339,-4.43382 1.0084,-2.2132 1.3878,-118.86906 1.3878,-426.67835 0,-307.809282 -0.3794,-424.465147 -1.3878,-426.678339 -0.7633,-1.675287 -2.7586,-3.670504 -4.4339,-4.433816 -4.3418,-1.978277 -601.5148,-1.978277 -605.8566,0 -1.6753,0.763312 -3.6705,2.758529 -4.4339,4.433816 -1.9852,4.357023 -1.9804,849.010009 0,853.367139 0.7659,1.68104 2.5941,3.63818 4.0625,4.34922 3.9091,1.89282 602.0711,1.96599 606.2232,0.0741 z M 1302.8299,741.9621 c -3.0273,-1.54687 -6.6621,-4.40062 -8.0773,-6.34166 l -2.5732,-3.52916 0,-383.56668 0,-383.566669 2.5732,-3.529164 c 1.4152,-1.941038 5.05,-4.794787 8.0773,-6.341662 l 5.5042,-2.8125 266.9703,0 266.9703,0 5.5042,2.8125 c 3.0273,1.546875 6.6621,4.400624 8.0773,6.341662 l 2.5732,3.529164 0,383.566669 0,383.56668 -2.5732,3.52916 c -1.4152,1.94104 -5.05,4.79479 -8.0773,6.34167 l -5.5042,2.81249 -266.9703,0 -266.9703,0 -5.5042,-2.8125 z m 543.9386,-10.50623 c 2.205,-1.99553 2.2859,-15.53855 2.2859,-382.71408 0,-352.4403488 -0.1533,-380.814715 -2.0687,-382.931259 -1.992,-2.201097 -12.0658,-2.285926 -271.4641,-2.285926 -248.9211,0 -269.5691,0.157226 -271.6813,2.068735 -2.205,1.995527 -2.2859,15.538547 -2.2859,382.71408 0,352.44035 0.1533,380.81471 2.0687,382.93126 1.992,2.2011 12.0658,2.28592 271.4641,2.28592 248.9211,0 269.5691,-0.15722 271.6813,-2.06873 z m -253.1695,-29.4997 c -4.7162,-1.218 -13.8714,-8.85114 -16.8595,-14.05657 -1.3208,-2.30087 -1.5367,-2.33102 -2.7103,-0.37845 -5.2989,8.81575 -14.2065,14.67365 -22.3926,14.726 -5.8395,0.0374 -14.4916,-4.36506 -18.2419,-9.28196 -4.1622,-5.45692 -8.1423,-17.41409 -8.3434,-25.06559 -0.3663,-13.94178 5.8316,-23.99378 22.7226,-36.85173 10.4275,-7.93782 18.693,-16.59904 22.9759,-24.07614 1.4738,-2.57283 3.3757,-4.6822 4.2264,-4.6875 0.8508,-0.005 2.9802,2.26092 4.732,5.03604 5.1822,8.20917 11.7782,14.81965 23.7212,23.77353 12.163,9.1188 15.5918,13.00444 19.5378,22.14083 6.6572,15.41368 -1.0342,40.81989 -14.1819,46.84577 -6.116,2.80308 -9.8229,3.26094 -15.1863,1.87577 z m 189.8991,-15.85561 c -3.4566,-3.81956 -2.885,-11.27034 1.1296,-14.72354 l 3.3233,-2.85856 -3.1983,-1.21599 c -3.4055,-1.29478 -4.2145,-4.76164 -1.6983,-7.27786 1.6513,-1.6513 19.3988,-2.0827 21.8384,-0.53084 2.5833,1.64322 3.1729,7.23575 1.2485,11.84144 -1.7861,4.27488 -4.0941,5.65256 -12.7119,7.58795 -1.375,0.30878 0.3843,0.6267 3.9095,0.70645 7.0798,0.16016 9.9087,2.2417 8.6095,6.33501 -0.7271,2.2909 -1.8344,2.55999 -10.5345,2.55999 -8.033,0 -10.1031,-0.42114 -11.9158,-2.42405 z m 16.832,-40.21993 c -1.7046,-0.68071 -4.0678,-2.11416 -5.2516,-3.18546 -1.9596,-1.77339 -2.4527,-1.71153 -5.5068,0.69081 -7.7274,6.07843 -17.5018,1.61809 -20.3915,-9.30531 -2.1985,-8.31029 -0.2143,-12.27908 11.9546,-23.91238 5.9798,-5.71652 11.3311,-10.39368 11.892,-10.39368 0.5608,0 3.7246,2.67187 7.0308,5.9375 3.3062,3.26562 8.0588,7.75112 10.5613,9.96778 5.7054,5.05345 7.62,11.26223 5.7559,18.66518 -1.2333,4.898 -6.2492,11.67954 -8.6386,11.67954 -0.5375,0 -1.7265,0.24607 -2.6421,0.54683 -0.9156,0.30076 -3.0594,-0.01 -4.764,-0.69081 z M 1352.3029,92.912655 c -1.1215,-1.711575 -4.983,-5.430913 -8.5813,-8.265175 -8.3446,-6.572938 -11.334,-11.273563 -11.3332,-17.820538 0,-11.306887 8.3127,-19.990612 16.2464,-16.97425 1.947,0.740263 4.498,2.2129 5.6689,3.272538 1.9287,1.745437 2.4444,1.678475 5.4834,-0.712 7.7274,-6.078425 17.5018,-1.618088 20.3915,9.305312 2.1985,8.310288 0.2143,12.279076 -11.9546,23.912375 -5.9798,5.716526 -11.5495,10.393688 -12.3772,10.393688 -0.8277,0 -2.4224,-1.400375 -3.5439,-3.11195 z m 218.5001,-3.45055 c -4.4983,-7.279513 -13.3754,-16.283562 -22.5213,-22.843413 -21.1746,-15.187275 -27.3149,-30.672178 -20.4009,-51.448593 5.1001,-15.3259215 16.8696,-23.573979 28.9839,-20.3119365 5.0928,1.3713537 15.6461,10.2988188 17.6329,14.9164425 0.6515,1.513991 0.955,1.550837 1.5763,0.1913687 1.7047,-3.7295837 8.6449,-10.47953245 13.1249,-12.7650112 13.8667,-7.0742925 28.9478,1.6042275 34.2862,19.7302525 3.1391,10.658671 2.7896,18.624387 -1.1992,27.337315 -4.075,8.900862 -6.1343,11.214625 -18.2314,20.48455 -10.5913,8.116063 -19.3823,17.112563 -24.2385,24.80525 -1.8111,2.86895 -3.8412,5.216275 -4.5115,5.216275 -0.6703,0 -2.6959,-2.390625 -4.5014,-5.3125 z m -226.4986,-52.4375 c -0.825,-0.825 -1.5,-3.663069 -1.5,-6.306819 0,-6.687169 4.3532,-10.943181 11.1932,-10.943181 7.7819,0 5.9897,-2.326501 -2.1186,-2.75012 -5.7376,-0.299766 -7.261,-0.825218 -7.6032,-2.622429 -0.8276,-4.347496 2.0979,-5.877451 11.2385,-5.877451 7.5213,0 9.0553,0.4015212 11.7219,3.068181 4.1281,4.128065 3.9234,8.768944 -0.5856,13.277973 -2.6304,2.630362 -4.9938,3.712707 -8.4375,3.863981 -3.4971,0.153616 -2.7665,0.405765 2.7163,0.9375 6.7058,0.650337 7.5447,1.04333 7.9219,3.711002 0.232,1.641 -0.3305,3.460513 -1.25,4.043363 -2.6128,1.656112 -21.5658,1.329075 -23.2969,-0.402 z"
         id="path4275"
         inkscape:connector-curvature="0" />
      <path
         style="fill:#f2a9c6"
         d="m 1270.0076,782.81787 c -7.802,-4.23333 -7.2032,31.86901 -7.2032,-434.29327 0,-377.551673 0.2122,-425.534465 1.8962,-428.790911 4.1664,-8.056952 -20.7295,-7.459084 310.6038,-7.459084 331.3333,0 306.4374,-0.597868 310.6038,7.459084 1.684,3.256446 1.8962,51.239238 1.8962,428.790911 0,377.55168 -0.2122,425.53448 -1.8962,428.79092 -4.1671,8.05846 20.7716,7.46406 -310.8542,7.40903 -264.3514,-0.0439 -302.0474,-0.27947 -305.0464,-1.90668 z m 608.3564,-1.63757 c 2.0265,-1.18887 4.6572,-3.81963 5.8461,-5.84613 2.0368,-3.47179 2.1668,-28.08965 2.2529,-426.30502 0.082,-377.4378 -0.1136,-423.031375 -1.826,-426.464076 -1.0546,-2.113994 -3.8993,-5.012915 -6.3215,-6.442047 l -4.404,-2.598422 -298.6071,0 -298.6071,0 -4.404,2.598422 c -2.4222,1.429132 -5.2668,4.328053 -6.3214,6.442047 -1.7125,3.432701 -1.9077,49.026276 -1.8261,426.464076 0.086,398.21537 0.2161,422.83323 2.2529,426.30502 1.1889,2.0265 3.8196,4.65726 5.8461,5.84614 3.4646,2.03249 21.5618,2.16157 303.0596,2.16157 281.4978,0 299.595,-0.12908 303.0596,-2.16157 z m -575.6072,-40.4682 c -3.6299,-1.83042 -6.3406,-4.34017 -7.763,-7.1875 -2.0663,-4.13643 -2.1855,-25.13035 -2.1855,-385 0,-359.869639 0.1192,-380.863563 2.1855,-384.999995 1.4224,-2.84733 4.1331,-5.357074 7.763,-7.1875 l 5.5773,-2.8125 266.9703,0 266.9703,0 5.5773,2.8125 c 3.6299,1.830426 6.3406,4.34017 7.763,7.1875 2.0663,4.136432 2.1855,25.130356 2.1855,384.999995 0,359.86965 -0.1191,380.86357 -2.1855,385 -1.4224,2.84733 -4.1331,5.35708 -7.763,7.1875 l -5.5773,2.8125 -266.9703,0 -266.9703,0 -5.5773,-2.8125 z m 544.6545,-8.65538 2.8931,-2.7179 0,-380.63904 0,-380.639048 -2.7179,-2.893063 -2.7179,-2.893064 -269.389,0 -269.3891,0 -2.893,2.717893 -2.8931,2.717892 0,380.63904 0,380.63905 2.7179,2.89306 2.7179,2.89306 269.389,0 269.3891,0 2.893,-2.71788 z m -253.9819,-31.25044 c -5.5355,-1.99381 -11.2773,-6.64443 -14.3585,-11.62991 -1.4962,-2.42098 -3.1287,-4.40177 -3.6278,-4.40177 -0.4991,0 -2.6319,2.44657 -4.7397,5.43682 -6.5419,9.2811 -19.2906,13.38978 -27.8356,8.97096 -8.094,-4.18558 -14.4294,-15.18984 -16.9308,-29.40777 -1.0451,-5.94086 3.2638,-19.38063 8.0797,-25.20132 2.0825,-2.51697 7.902,-7.67379 12.9321,-11.45959 9.7304,-7.32327 22.7124,-20.55968 24.9229,-25.41138 1.7537,-3.84878 5.1665,-3.72853 6.9774,0.24584 2.2315,4.89761 12.3447,15.16234 22.7761,23.11737 16.6018,12.66063 22.7835,22.10505 22.8818,34.95908 0.096,12.57398 -6.6538,27.46298 -14.6889,32.4005 -5.0606,3.10973 -11.6912,4.07312 -16.3887,2.38117 z m 190.9718,-15.04509 c -5.5955,-6.98596 -0.7417,-15.86662 8.7157,-15.94684 2.5781,-0.0219 4.6875,-0.60225 4.6875,-1.28975 0,-0.6875 -2.7436,-1.25 -6.097,-1.25 -6.4517,0 -9.766,-2.19812 -8.4571,-5.60908 0.564,-1.46974 2.9519,-1.89092 10.7209,-1.89092 10.6991,0 12.5832,1.12505 12.5832,7.51398 0,4.40527 -6.5827,9.98602 -11.7789,9.98602 -3.0726,0 -4.4711,0.56697 -4.4711,1.81263 0,1.32986 1.9142,1.91245 7.1875,2.1875 6.2292,0.32489 7.1875,0.7082 7.1875,2.87487 0,2.24882 -0.9539,2.53633 -9.4937,2.86159 -6.6196,0.25213 -9.8845,-0.1263 -10.7845,-1.25 z m -5.3468,-40.63187 c -3.8265,-1.37328 -7.2682,-5.68722 -8.7447,-10.9609 -2.363,-8.43974 -0.3805,-12.37592 11.8889,-23.60498 l 10.6172,-9.71699 10.5764,9.62782 c 12.2629,11.16306 14.2875,15.19177 11.9069,23.69415 -2.9053,10.37678 -10.2529,13.98905 -17.8995,8.79988 -4.6896,-3.18245 -4.7094,-3.18438 -8.0857,-0.79745 -4.0051,2.83155 -7.6691,3.88812 -10.2595,2.95847 z M 1345.1186,84.433342 c -11.916,-11.335074 -13.516,-14.732525 -10.9582,-23.269537 3.0011,-10.016788 10.2894,-13.42895 17.7988,-8.3329 l 4.7011,3.190237 3.6609,-2.706599 c 7.65,-5.655913 15.8334,-2.02205 18.7279,8.316249 2.3588,8.424838 0.3752,12.380763 -11.7915,23.515901 -5.786,5.295349 -10.7018,9.614975 -10.9241,9.599149 -0.2222,-0.01587 -5.269,-4.656437 -11.2149,-10.3125 z m 223.2393,-0.316949 c -3.8913,-5.300188 -10.2626,-11.43355 -18.1868,-17.507638 -15.2897,-11.719838 -19.2957,-16.546788 -22.5353,-27.153725 -2.4862,-8.140174 -2.5054,-8.776151 -0.5328,-17.64263 6.0745,-27.303735 28.2156,-35.42638 43.0352,-15.787795 2.3346,3.09375 4.6925,5.625 5.2399,5.625 0.5474,0 2.716,-2.3753463 4.819,-5.2785475 10.0626,-13.8909887 28.6524,-13.640615 37.6244,0.5067387 5.1445,8.1121048 8.1157,22.1334738 6.2093,29.3021228 -2.9845,11.222636 -7.4811,17.271448 -20.7172,27.868874 -12.619,10.103287 -22.105,19.873712 -24.5896,25.326737 -0.7265,1.594487 -2.0084,2.899075 -2.8487,2.899075 -0.8403,0 -4.2232,-3.6712 -7.5174,-8.158212 z M 1345.6002,35.820379 c -0.8502,-0.850175 -1.5458,-3.303973 -1.5458,-5.452882 0,-5.229145 4.2515,-9.057584 10.625,-9.567703 3.4333,-0.27479 5,-0.98772 5,-2.275189 0,-1.363636 -1.875,-2.045455 -6.875,-2.5 -5.8333,-0.530302 -6.875,-1.003787 -6.875,-3.125 0,-2.234872 0.9554,-2.538834 9.0088,-2.866179 7.7001,-0.3129797 9.3798,0.0049 11.5625,2.1875 5.8724,5.872416 0.6032,15.053679 -8.6395,15.053679 -3.5843,0 -5.0568,0.527835 -5.0568,1.81262 0,1.32987 1.9142,1.912461 7.1875,2.1875 6.2292,0.324897 7.1875,0.7082 7.1875,2.87488 0,2.262209 -0.9528,2.534077 -10.0167,2.858274 -6.7194,0.240337 -10.5256,-0.150564 -11.5625,-1.1875 z"
         id="path4273"
         inkscape:connector-curvature="0" />
      <path
         style="fill:#ee8db4"
         d="m 1271.9863,783.81797 c -0.7938,-0.5051 135.6994,-0.91837 303.3181,-0.91837 167.6187,0 304.1119,0.41327 303.3181,0.91837 -0.7937,0.5051 -137.2868,0.91835 -303.3181,0.91835 -166.0312,0 -302.5244,-0.41325 -303.3181,-0.91835 z m -8.4232,-8.5206 c -1.0958,-2.85573 -0.899,-852.117186 0.1979,-853.840901 0.5051,-0.793724 0.9184,191.440651 0.9184,427.187501 0,235.74685 -0.08,428.63063 -0.1788,428.63063 -0.098,0 -0.5202,-0.88975 -0.9375,-1.97723 z M 1885.9294,348.5246 c 0,-235.68119 0.4133,-427.861855 0.9184,-427.068131 1.2008,1.886972 1.2008,852.249301 0,854.136271 -0.5051,0.79373 -0.9184,-191.38694 -0.9184,-427.06814 z m -583.9166,391.35243 c -2.1541,-1.31353 -4.826,-3.68659 -5.9375,-5.27346 -1.8505,-2.64199 -2.0209,-35.19912 -2.0209,-386.18853 l 0,-383.303289 2.6104,-3.318547 c 5.9356,-7.54592 -14.9992,-7.018599 278.6396,-7.018599 293.6388,0 272.704,-0.527321 278.6396,7.018599 l 2.6104,3.318547 0,383.412849 0,383.41285 -2.6104,3.31855 c -5.9358,7.54618 15.0246,7.01903 -278.89,7.01393 -262.722,-0.005 -269.2178,-0.0615 -273.0412,-2.3929 z m 546.0694,-7.32465 2.8472,-2.84723 0,-381.18055 0,-381.18055 -2.8472,-2.847223 -2.8472,-2.847222 -269.9306,0 -269.9306,0 -2.8472,2.847194 -2.8472,2.847192 -0.2974,379.652799 c -0.2374,302.94883 0.02,380.2792 1.2746,382.75318 0.8646,1.7052 2.9672,3.8084 4.6724,4.67377 2.4687,1.25283 57.7891,1.51254 271.5032,1.27464 l 268.4029,-0.29878 2.8471,-2.84722 z m -301.6358,-32.68341 c -8.6518,-2.72634 -14.8176,-10.51904 -18.1107,-22.88938 -2.3981,-9.00859 -2.2253,-13.42452 0.8468,-21.63555 3.2424,-8.66594 7.6149,-13.73897 19.9066,-23.09587 10.092,-7.68237 20.179,-18.0937 23.2114,-23.95774 1,-1.93371 2.3127,-3.51583 2.9172,-3.51583 0.6045,0 2.514,2.39063 4.2432,5.3125 3.8623,6.52629 10.9409,13.44903 23.7419,23.21918 18.4124,14.05301 23.7499,26.13214 19.1524,43.34332 -2.0351,7.61879 -5.9819,15.54529 -9.1053,18.28677 -10.6437,9.34226 -23.2133,7.3564 -32.7167,-5.16893 -2.3443,-3.08981 -4.6744,-5.77645 -5.178,-5.97031 -0.5036,-0.19386 -2.4134,1.9107 -4.2439,4.67682 -5.8719,8.87309 -16.7377,13.89302 -24.6649,11.39502 z m 239.1361,-14.54024 c -3.2897,-2.30419 -3.6636,-7.48358 -0.8322,-11.52599 1.4077,-2.00975 3.2227,-2.78344 6.5625,-2.79727 10.3869,-0.0431 10.0641,-4.57017 -0.3722,-5.21837 -4.8199,-0.29937 -6.3355,-0.89683 -6.6642,-2.6272 -0.3857,-2.03057 0.5469,-2.20563 9.9888,-1.875 l 10.4142,0.3647 0.385,4.63768 c 0.4833,5.82226 -2.6609,8.85886 -10.0824,9.73732 -3.7246,0.44087 -5.4026,1.26947 -5.6956,2.8125 -0.3486,1.8364 0.5524,2.19058 5.6139,2.20664 6.9864,0.0221 9.8364,1.39978 8.7505,4.22972 -1.0536,2.74554 -14.1701,2.78567 -18.0683,0.0553 z m -8.882,-42.59249 c -3.3255,-2.3293 -6.3961,-8.86231 -6.3961,-13.60856 0,-5.2235 2.9848,-9.4574 13.0523,-18.51444 l 9.4887,-8.53635 10.5226,9.55311 c 11.1354,10.10945 12.8757,13.37079 11.3824,21.33053 -0.4375,2.33226 -2.2293,5.94454 -3.9818,8.02727 -4.0236,4.78174 -8.8655,4.9706 -14.1183,0.55069 l -3.8459,-3.23612 -3.8459,3.23612 c -4.433,3.73011 -8.1272,4.09109 -12.258,1.19775 z M 1345.6504,83.793168 c -6.2441,-5.858113 -10.5915,-10.996138 -11.0751,-13.089275 -2.0012,-8.662088 4.0139,-19.679288 10.7443,-19.679288 1.9879,0 5.231,1.420375 7.3889,3.236113 l 3.8459,3.236124 3.8459,-3.236124 c 5.0056,-4.211888 9.2212,-4.111326 13.6583,0.325812 3.8901,3.890038 5.7583,10.711962 4.414,16.117363 -0.7226,2.905312 -19.8781,22.783124 -21.9182,22.744637 -0.3437,-0.0063 -5.2506,-4.3514 -10.904,-9.655362 z m 224.8623,1.918937 c -4.3954,-6.3769 -14.9162,-16.44865 -22.8586,-21.882925 -14.1885,-9.707912 -22.2486,-23.87515 -20.6949,-36.375509 2.7158,-21.850116 13.9631,-33.7018873 29.2597,-30.8322223 4.5125,0.8465425 13.4932,8.5532863 17.5123,15.0281563 1.522,2.451868 1.5935,2.439835 3.716,-0.625 1.1903,-1.71875 4.1622,-5.1738287 6.6041,-7.6779512 13.0902,-13.4235358 31.354,-6.7197051 37.4489,13.7458372 3.1813,10.682328 3.2132,15.920859 0.1462,23.992564 -3.25,8.553275 -7.4036,13.7096 -16.6736,20.698487 -10.2245,7.708513 -18.8143,15.966363 -24.2404,23.303563 -2.415,3.265625 -4.8785,5.9375 -5.4744,5.9375 -0.5959,0 -2.7313,-2.390625 -4.7453,-5.3125 z M 1345.3044,31.012371 c 0,-6.215371 3.0034,-9.121445 10.3224,-9.987766 3.7246,-0.440869 5.4026,-1.26946 5.6956,-2.8125 0.3555,-1.872539 -0.5934,-2.1875 -6.5906,-2.1875 -5.2706,0 -7.1961,-0.495656 -7.7738,-2.001156 -1.07,-2.788524 1.7481,-4.210439 8.3464,-4.2112752 8.0473,-0.00102 11.7859,2.2208562 12.2754,7.2953612 0.5228,5.419324 -2.6121,8.91707 -7.9919,8.91707 -5.276,0 -8.0335,1.097156 -8.0335,3.196356 0,1.166659 2.1892,1.79326 7.1754,2.053764 5.66,0.295714 7.2632,0.836829 7.5916,2.56238 0.3703,1.945604 -0.7687,2.1875 -10.3003,2.1875 l -10.7167,0 0,-5.012234 z m -73.3181,-117.781125 c 1.8868,-1.20074 604.7494,-1.20074 606.6362,0 0.7938,0.505097 -135.6994,0.918359 -303.3181,0.918359 -167.6187,0 -304.1119,-0.413262 -303.3181,-0.918359 z"
         id="path4271"
         inkscape:connector-curvature="0" />
      <path
         style="fill:#e85c94"
         d="m 1271.9863,783.81797 c -0.7938,-0.5051 135.6994,-0.91837 303.3181,-0.91837 167.6187,0 304.1119,0.41327 303.3181,0.91837 -0.7937,0.5051 -137.2868,0.91835 -303.3181,0.91835 -166.0312,0 -302.5244,-0.41325 -303.3181,-0.91835 z m -8.4232,-8.5206 c -1.0958,-2.85573 -0.899,-852.117186 0.1979,-853.840901 0.5051,-0.793724 0.9184,191.440651 0.9184,427.187501 0,235.74685 -0.08,428.63063 -0.1788,428.63063 -0.098,0 -0.5202,-0.88975 -0.9375,-1.97723 z M 1885.9294,348.5246 c 0,-235.68119 0.4133,-427.861855 0.9184,-427.068131 1.2008,1.886972 1.2008,852.249301 0,854.136271 -0.5051,0.79373 -0.9184,-191.38694 -0.9184,-427.06814 z m -580.047,392.42034 c -2.0883,-0.60731 -5.4633,-2.84351 -7.5,-4.96935 l -3.703,-3.86515 0,-383.58584 0,-383.585839 3.6789,-3.839988 c 2.0235,-2.111994 5.6797,-4.395793 8.125,-5.075108 6.1027,-1.695314 531.5395,-1.695314 537.6422,0 2.4453,0.679315 6.1015,2.963114 8.125,5.075108 l 3.6789,3.839988 0,383.585839 0,383.58584 -3.6789,3.84 c -2.0235,2.11199 -5.6797,4.39579 -8.125,5.0751 -5.6674,1.5744 -532.8235,1.49546 -538.2431,-0.0806 z m 542.6038,-7.98852 3.0682,-3.06818 0,-381.36364 0,-381.363631 -3.0682,-3.068183 -3.0682,-3.068181 -270.1136,0 -270.1136,0 -3.0682,3.068181 -3.0682,3.068183 0,381.363631 0,381.36364 3.0682,3.06818 3.0682,3.06818 270.1136,0 270.1136,0 3.0682,-3.06818 z m -255.0568,-33.84003 c -4.7162,-1.64024 -11.0286,-7.31992 -15.9395,-14.34179 l -2.1855,-3.125 -2.1875,3.09545 c -8.0819,11.43642 -14.9005,15.6829 -23.6065,14.70162 -11.6871,-1.31732 -20.2401,-13.23911 -21.4301,-29.87103 -1.0946,-15.29877 3.0596,-22.13935 23.1654,-38.14576 6.6495,-5.29375 14.0972,-12.60665 17.3431,-17.02918 3.1289,-4.2631 6.1316,-7.91542 6.6727,-8.11625 0.5411,-0.20083 2.0853,1.50174 3.4316,3.78352 4.2335,7.17527 10.2314,13.15862 22.0754,22.02193 18.0192,13.48444 22.8779,21.86178 21.7579,37.51473 -1.4989,20.94902 -14.8325,34.47275 -29.097,29.51176 z m 191.9155,-14.91801 c -2.2601,-2.7232 -1.9902,-7.82875 0.5629,-10.6499 1.3086,-1.44602 4.211,-2.54282 7.333,-2.77109 3.742,-0.2736 5.2815,-0.98107 5.582,-2.56528 0.3483,-1.83634 -0.5529,-2.19058 -5.6142,-2.20664 -3.3161,-0.01 -6.8044,-0.51014 -7.7518,-1.11025 -3.5039,-2.21931 0.1302,-3.87061 8.5183,-3.87061 9.8034,0 12.018,1.51887 10.7345,7.36242 -1.0574,4.81428 -3.1651,6.45914 -9.3376,7.28705 -10.2392,1.37335 -8.953,6.15194 1.8391,6.83308 9.0279,0.56977 7.6245,2.83015 -2.0225,3.25757 -6.2394,0.27645 -8.63,-0.104 -9.8437,-1.56635 z m 16.2095,-40.30341 c -1.0312,-0.37524 -3.4219,-2.12358 -5.3125,-3.88518 l -3.4375,-3.20291 -3.5059,3.35886 c -6.8255,6.53921 -15.0019,3.54255 -17.7029,-6.48811 -1.9376,-7.19567 0.8804,-13.4356 8.7925,-19.46945 3.4314,-2.6168 7.6155,-6.51299 9.2979,-8.6582 l 3.0591,-3.90038 3.6651,4.4381 c 2.0158,2.44097 5.9399,6.01459 8.7203,7.94142 9.0101,6.24396 11.5772,13.8306 7.78,22.99193 -1.3542,3.26735 -7.1782,8.1629 -9.1065,7.65487 -0.206,-0.0543 -1.2183,-0.4057 -2.2496,-0.78095 z M 1353.5686,90.436693 c -1.1128,-1.698363 -5.0161,-5.347588 -8.6741,-8.109413 -3.658,-2.761813 -7.4248,-6.46735 -8.3705,-8.234525 -3.684,-6.88365 -0.9805,-18.084787 5.1273,-21.24325 4.0717,-2.10555 6.715,-1.421487 11.4656,2.9672 l 3.4375,3.175625 3.5059,-3.358862 c 6.8255,-6.539213 15.0019,-3.54255 17.7029,6.488112 1.9752,7.33525 -0.8224,13.28295 -9.3984,19.980863 -3.7892,2.959375 -7.7801,6.74 -8.8687,8.401412 -2.4869,3.795563 -3.4033,3.785188 -5.9275,-0.06713 z m 218.6823,-3.377663 c -3.9976,-6.767375 -10.5974,-13.267538 -23.8892,-23.528362 -11.0675,-8.543788 -13.3246,-10.931513 -16.6785,-17.643201 -2.9337,-5.870812 -3.8788,-9.444873 -3.8788,-14.668009 0,-21.9339705 13.5296,-38.0432955 28.5533,-33.9978105 5.2555,1.4151488 12.8497,8.0556925 15.8518,13.8612105 2.374,4.590795 3.779,4.649537 6.0812,0.254247 2.0563,-3.9259787 8.831,-10.59198 12.869,-12.6625075 4.2432,-2.1757325 13.06,-1.6709925 17.4374,0.99825625 8.5574,5.21801875 14.2189,17.68815225 14.1951,31.26612725 -0.022,12.716812 -6.0822,21.523999 -24.1183,35.052412 -8.0273,6.021037 -17.5611,16.094062 -20.3656,21.517387 -2.3178,4.482163 -3.1819,4.418 -6.0574,-0.44975 z M 1346.1857,35.239239 c -1.5487,-1.548739 -0.946,-7.315982 1.0646,-10.186502 1.4229,-2.031503 3.2064,-2.778132 6.6361,-2.778132 11.5129,0 11.2879,-7.082484 -0.2463,-7.750705 -9.0973,-0.527043 -8.0516,-2.799136 1.4958,-3.25018 6.1257,-0.289393 8.4987,0.114725 10.3125,1.756234 5.3289,4.822546 0.3708,12.994651 -7.884,12.994651 -5.1771,0 -8.9064,3.192526 -5.9296,5.076129 0.987,0.624573 4.7946,1.144202 8.4613,1.15473 4.7694,0.0137 6.5195,0.463806 6.1496,1.581641 -0.5644,1.705827 -18.5025,2.959645 -20.06,1.402134 z m -74.1994,-122.007993 c 1.8868,-1.20074 604.7494,-1.20074 606.6362,0 0.7938,0.505097 -135.6994,0.918359 -303.3181,0.918359 -167.6187,0 -304.1119,-0.413262 -303.3181,-0.918359 z"
         id="path4269"
         inkscape:connector-curvature="0" />
      <path
         style="fill:#e01b6a"
         d="m 1424.3669,783.83715 c 83.0156,-0.17742 218.8594,-0.17742 301.875,0 83.0156,0.17743 15.0938,0.32259 -150.9375,0.32259 -166.0312,0 -233.9531,-0.14516 -150.9375,-0.32259 z M 1263.4222,348.5246 c 0,-234.09375 0.1438,-329.85937 0.3197,-212.8125 0.1758,117.04688 0.1758,308.57813 0,425.625 -0.1759,117.04688 -0.3197,21.28125 -0.3197,-212.8125 z m 623.75,0 c 0,-234.09375 0.1438,-329.85937 0.3197,-212.8125 0.1758,117.04688 0.1758,308.57813 0,425.625 -0.1759,117.04688 -0.3197,21.28125 -0.3197,-212.8125 z m -582.4928,390.75144 c -2.0625,-0.91292 -4.875,-2.92076 -6.25,-4.46186 -2.487,-2.78746 -2.5015,-4.78129 -2.7974,-384.85828 -0.2348,-301.680307 0.028,-382.688374 1.25,-385.060796 0.8511,-1.652476 3.1355,-4.183726 5.0766,-5.625 l 3.5291,-2.620499 269.8167,0 269.8167,0 3.5291,2.620499 c 1.9411,1.441273 4.224,3.972523 5.0733,5.625 2.2618,4.401153 2.2618,762.857856 0,767.258996 -0.8493,1.65248 -3.1322,4.18373 -5.0732,5.625 l -3.5291,2.6205 -268.3459,0.26815 c -220.8,0.22065 -269.0103,-0.0259 -272.0959,-1.39171 z m 543.9928,-5.01821 3.5072,-3.01676 0,-382.71647 0,-382.716454 -3.5072,-3.016771 -3.5072,-3.01677 -269.8606,0 -269.8606,0 -3.5072,3.01677 -3.5072,3.016771 0,382.716454 0,382.71647 3.5072,3.01676 3.5072,3.01677 269.8606,0 269.8606,0 3.5072,-3.01677 z m -255.8678,-36.4761 c -5.6654,-2.45397 -10.8667,-7.4417 -13.8899,-13.31963 -1.326,-2.57812 -2.9475,-4.6875 -3.6034,-4.6875 -0.6559,0 -2.1149,1.82813 -3.2423,4.0625 -4.6966,9.30812 -12.2101,14.6875 -20.5144,14.6875 -11.7607,0 -19.2556,-8.70753 -22.5029,-26.14384 -1.0139,-5.44397 -0.8435,-8.25761 0.8704,-14.375 1.7869,-6.37798 3.3583,-8.81718 9.7319,-15.10616 4.1806,-4.125 11.3927,-10.46756 16.027,-14.09459 4.6343,-3.62703 10.8676,-9.91124 13.8518,-13.96492 l 5.4257,-7.37032 6.1292,7.69924 c 3.371,4.23457 11.9152,12.12127 18.9871,17.52597 7.0718,5.40471 14.2704,11.96125 15.9969,14.5701 4.9512,7.48184 6.9439,16.78021 5.4187,25.2849 -2.424,13.51623 -7.1206,21.0655 -15.4625,24.85421 -6.1368,2.78719 -7.566,2.828 -13.2233,0.37754 z m 192.2959,-16.08092 c -2.1294,-4.67359 1.4028,-9.42621 7.0057,-9.42621 6.1484,0 8.1984,-1.12738 8.1984,-4.50873 0,-2.78852 -0.461,-2.99127 -6.8012,-2.99127 -3.7407,0 -7.1647,-0.58813 -7.609,-1.30696 -0.5413,-0.87591 2.2171,-1.18511 8.3637,-0.9375 8.7381,0.352 9.1888,0.51718 9.537,3.49559 0.59,5.04662 -2.4503,7.8907 -9.2726,8.67417 -5.4917,0.63067 -6.1315,1.03455 -6.4842,4.0936 -0.4195,3.63858 0.6339,4.19204 9.7663,5.13113 2.4258,0.24945 0.8824,0.53901 -3.4643,0.64993 -7.206,0.18388 -7.9524,-0.0483 -9.2398,-2.87375 z m -6.9112,-39.68186 c -3.6607,-1.7526 -7.0287,-10.37716 -6.0629,-15.52533 0.5584,-2.97676 3.3495,-6.3623 10.7312,-13.01675 l 9.9764,-8.9936 5.9228,5.18371 c 12.3769,10.83239 13.9357,12.61371 14.7264,16.82879 1.1316,6.03187 -3.1123,15.40083 -7.4718,16.495 -3.4557,0.86732 -9.0455,-1.93989 -10.2827,-5.164 -1.0317,-2.68857 -3.9473,-2.18302 -7.0466,1.22182 -3.3763,3.70935 -6.8785,4.70076 -10.4928,2.97036 z M 1350.3044,85.945092 c -12.4969,-11.146162 -13.6464,-12.471887 -14.4286,-16.64165 -1.1316,-6.031875 3.1123,-15.400837 7.4718,-16.495 3.4557,-0.867325 9.0455,1.939888 10.2827,5.164 1.0054,2.61985 4.5703,2.206425 6.4126,-0.743687 4.2504,-6.80585 12.6242,-5.242925 15.9102,2.969525 3.3583,8.39335 1.8678,11.919775 -9.2901,21.978387 -5.3981,4.866363 -10.0215,8.833875 -10.2742,8.816688 -0.2527,-0.0172 -2.9906,-2.288913 -6.0844,-5.048263 z m 221.9527,-0.602312 c -4.2667,-6.51185 -11.4487,-13.49575 -23.15,-22.511538 -13.3407,-10.2789 -16.4394,-14.20685 -19.4215,-24.618987 -1.7338,-6.053569 -1.8261,-8.32117 -0.585,-14.374998 2.043,-9.965982 4.4259,-15.261337 8.9895,-19.9766058 4.7576,-4.9157087 10.8937,-7.1120175 16.783,-6.0071825 5.1623,0.9684488 14.4337,8.9948438 16.6943,14.4525403 1.7928,4.328246 5.6719,4.968257 6.8881,1.136463 1.1621,-3.6615845 7.8359,-10.9676545 11.9724,-13.10672075 4.5659,-2.36113625 12.786,-2.30997005 17.4632,0.1087 9.3084,4.81353625 16.7164,24.24176575 13.6234,35.72843975 -3.1964,11.870553 -6.3535,15.65449 -26.2101,31.414715 -3.7812,3.001175 -9.5662,8.799138 -12.8554,12.88435 -3.2892,4.0852 -6.4453,7.58905 -7.0135,7.786313 -0.5682,0.197262 -1.9985,-1.1147 -3.1784,-2.915488 z M 1346.5544,30.649605 c 0,-5.36195 1.9177,-7.125 7.75,-7.125 5.2845,0 10.1679,-3.706472 8.976,-6.812649 -0.6721,-1.751276 -3.2401,-2.501339 -12.351,-3.607487 -2.0625,-0.250407 -0.066,-0.539564 4.4375,-0.642574 8.7461,-0.200069 11.1875,0.998851 11.1875,5.493975 0,3.887994 -3.8991,6.818735 -9.0716,6.818735 -4.9622,0 -8.7157,2.796745 -7.6124,5.671964 0.7687,2.003182 3.2929,2.795726 11.059,3.472228 2.75,0.239553 0.6406,0.530108 -4.6875,0.645679 l -9.6875,0.210129 0,-4.125 z m 77.8125,-118.062453 c 83.0156,-0.177422 218.8594,-0.177422 301.875,0 83.0156,0.177422 15.0938,0.322585 -150.9375,0.322585 -166.0312,0 -233.9531,-0.145163 -150.9375,-0.322585 z"
         id="path4267"
         inkscape:connector-curvature="0" />
      <path
         style="fill:#dd0158"
         d="m 1424.3669,783.83715 c 83.0156,-0.17742 218.8594,-0.17742 301.875,0 83.0156,0.17743 15.0938,0.32259 -150.9375,0.32259 -166.0312,0 -233.9531,-0.14516 -150.9375,-0.32259 z M 1263.4222,348.5246 c 0,-234.09375 0.1438,-329.85937 0.3197,-212.8125 0.1758,117.04688 0.1758,308.57813 0,425.625 -0.1759,117.04688 -0.3197,21.28125 -0.3197,-212.8125 z m 623.75,0 c 0,-234.09375 0.1438,-329.85937 0.3197,-212.8125 0.1758,117.04688 0.1758,308.57813 0,425.625 -0.1759,117.04688 -0.3197,21.28125 -0.3197,-212.8125 z m -445.9303,390.31257 c 73.7344,-0.1781 194.3906,-0.1781 268.125,0 73.7344,0.1781 13.4063,0.32381 -134.0625,0.32381 -147.4687,0 -207.7969,-0.14571 -134.0625,-0.32381 z m 150.7021,-42.74438 c -5.0241,-2.28101 -11.9039,-9.99316 -13.5549,-15.19502 -1.3121,-4.13422 -4.8099,-2.66359 -8.0094,3.36752 -4.1322,7.78931 -9.9283,11.99206 -17.548,12.72423 -11.0871,1.06532 -18.6626,-6.75627 -22.0242,-22.73958 -2.9488,-14.0202 1.4528,-24.83857 14.1608,-34.80526 9.3464,-7.33026 25.0519,-22.40106 28.3144,-27.17007 2.0857,-3.04889 2.1712,-3.06412 3.5112,-0.625 2.0128,3.66365 16.6597,17.79538 25.9113,25 15.3965,11.98986 20.0685,21.81227 17.3647,36.50733 -2.1066,11.44937 -6.7002,19.14244 -13.4679,22.55517 -6.7318,3.39465 -7.9497,3.42628 -14.658,0.38068 z m 186.2302,-55.69985 c -3.3949,-2.37789 -5.8035,-9.54811 -4.7771,-14.2212 0.5124,-2.33294 4.0608,-6.53372 10.1119,-11.97091 l 9.3225,-8.37671 9.3279,8.34845 c 10.0957,9.03561 12.0077,13.10508 9.3909,19.98776 -3.5123,9.23811 -8.2322,10.34656 -14.5916,3.42677 l -4.3078,-4.6875 -3.3607,3.94719 c -4.1575,4.88294 -7.6272,5.9898 -11.116,3.54615 z M 1346.5544,81.10283 c -9.0196,-8.260525 -9.375,-8.8003 -9.375,-14.240438 0,-3.790962 0.8652,-6.817537 2.6254,-9.183625 3.9382,-5.2939 7.3507,-5.174175 12.5087,0.438876 l 4.3944,4.781962 3.3607,-3.901013 c 6.0793,-7.056487 11.4139,-6.443137 14.8178,1.7037 3.1584,7.559063 1.5048,11.4241 -8.8795,20.754963 -5.0911,4.57455 -9.4412,8.29805 -9.667,8.27445 -0.2258,-0.0236 -4.6292,-3.906588 -9.7855,-8.628875 z m 223.8498,-0.371313 c -2.8291,-3.620049 -10.8436,-11.081912 -17.8101,-16.581912 -15.4694,-12.213038 -19.1375,-16.64155 -21.5703,-26.042125 -1.623,-6.271733 -1.6523,-8.370695 -0.2092,-15 2.18,-10.014801 3.5369,-13.2586125 7.5328,-18.0073975 6.0199,-7.1542762 16.5886,-8.2998075 23.8533,-2.58543 1.8699,1.4708887 5.3192,5.674855 7.6652,9.3421475 2.3459,3.667293 4.7933,6.667805 5.4385,6.667805 0.6453,0 3.1564,-3.100327 5.5804,-6.889618 5.4302,-8.488812 10.6168,-11.84947075 18.2972,-11.8557095 10.751,-0.00875 18.246,8.5352412 20.9501,23.8821695 2.4231,13.751983 -2.4704,24.614708 -15.7457,34.952658 -10.7602,8.379275 -20.8935,17.968613 -25.3534,23.992413 l -3.485,4.706924 -5.1438,-6.581924 z M 1441.2419,-42.412835 c 73.7344,-0.1781 194.3906,-0.1781 268.125,0 73.7344,0.178099 13.4063,0.323817 -134.0625,0.323817 -147.4687,0 -207.7969,-0.145718 -134.0625,-0.323817 z m -16.875,-45.000013 c 83.0156,-0.177422 218.8594,-0.177422 301.875,0 83.0156,0.177422 15.0938,0.322585 -150.9375,0.322585 -166.0312,0 -233.9531,-0.145163 -150.9375,-0.322585 z"
         id="path4265"
         inkscape:connector-curvature="0" />
      <path
         style="fill:#111111"
         d="m 1424.3669,783.83715 c 83.0156,-0.17742 218.8594,-0.17742 301.875,0 83.0156,0.17743 15.0938,0.32259 -150.9375,0.32259 -166.0312,0 -233.9531,-0.14516 -150.9375,-0.32259 z M 1263.4222,348.5246 c 0,-234.09375 0.1438,-329.85937 0.3197,-212.8125 0.1758,117.04688 0.1758,308.57813 0,425.625 -0.1759,117.04688 -0.3197,21.28125 -0.3197,-212.8125 z m 623.75,0 c 0,-234.09375 0.1438,-329.85937 0.3197,-212.8125 0.1758,117.04688 0.1758,308.57813 0,425.625 -0.1759,117.04688 -0.3197,21.28125 -0.3197,-212.8125 z M 1424.3669,-87.412848 c 83.0156,-0.177422 218.8594,-0.177422 301.875,0 83.0156,0.177422 15.0938,0.322585 -150.9375,0.322585 -166.0312,0 -233.9531,-0.145163 -150.9375,-0.322585 z"
         id="path4263"
         inkscape:connector-curvature="0" />
    </g>
  </g>
</svg>
