<?xml version="1.0" encoding="UTF-8" standalone="no"?>
<!-- Created with Inkscape (http://www.inkscape.org/) -->

<svg
   xmlns:dc="http://purl.org/dc/elements/1.1/"
   xmlns:cc="http://creativecommons.org/ns#"
   xmlns:rdf="http://www.w3.org/1999/02/22-rdf-syntax-ns#"
   xmlns:svg="http://www.w3.org/2000/svg"
   xmlns="http://www.w3.org/2000/svg"
   xmlns:sodipodi="http://sodipodi.sourceforge.net/DTD/sodipodi-0.dtd"
   xmlns:inkscape="http://www.inkscape.org/namespaces/inkscape"
   width="176.45314mm"
   height="246.27023mm"
   viewBox="0 0 625.22766 872.61106"
   id="svg2"
   version="1.1"
   inkscape:version="0.91 r13725"
   sodipodi:docname="3.svg">
  <defs
     id="defs4">
    <pattern
       y="0"
       x="0"
       height="6"
       width="6"
       patternUnits="userSpaceOnUse"
       id="EMFhbasepattern" />
    <pattern
       y="0"
       x="0"
       height="6"
       width="6"
       patternUnits="userSpaceOnUse"
       id="EMFhbasepattern-1" />
    <pattern
       y="0"
       x="0"
       height="6"
       width="6"
       patternUnits="userSpaceOnUse"
       id="EMFhbasepattern-14" />
    <pattern
       y="0"
       x="0"
       height="6"
       width="6"
       patternUnits="userSpaceOnUse"
       id="EMFhbasepattern-4" />
    <pattern
       y="0"
       x="0"
       height="6"
       width="6"
       patternUnits="userSpaceOnUse"
       id="EMFhbasepattern-9" />
    <pattern
       y="0"
       x="0"
       height="6"
       width="6"
       patternUnits="userSpaceOnUse"
       id="EMFhbasepattern-8" />
    <pattern
       y="0"
       x="0"
       height="6"
       width="6"
       patternUnits="userSpaceOnUse"
       id="EMFhbasepattern-6" />
    <pattern
       y="0"
       x="0"
       height="6"
       width="6"
       patternUnits="userSpaceOnUse"
       id="EMFhbasepattern-13" />
    <pattern
       y="0"
       x="0"
       height="6"
       width="6"
       patternUnits="userSpaceOnUse"
       id="EMFhbasepattern-44" />
    <pattern
       y="0"
       x="0"
       height="6"
       width="6"
       patternUnits="userSpaceOnUse"
       id="EMFhbasepattern-5" />
  </defs>
  <sodipodi:namedview
     id="base"
     pagecolor="#ffffff"
     bordercolor="#666666"
     borderopacity="1.0"
     inkscape:pageopacity="0.0"
     inkscape:pageshadow="2"
     inkscape:zoom="0.24748737"
     inkscape:cx="701.4566"
     inkscape:cy="378.98981"
     inkscape:document-units="px"
     inkscape:current-layer="layer1"
     showgrid="false"
     fit-margin-top="0"
     fit-margin-left="0"
     fit-margin-right="0"
     fit-margin-bottom="0"
     inkscape:window-width="784"
     inkscape:window-height="822"
     inkscape:window-x="800"
     inkscape:window-y="0"
     inkscape:window-maximized="0" />
  <metadata
     id="metadata7">
    <rdf:RDF>
      <cc:Work
         rdf:about="">
        <dc:format>image/svg+xml</dc:format>
        <dc:type
           rdf:resource="http://purl.org/dc/dcmitype/StillImage" />
        <dc:title></dc:title>
      </cc:Work>
    </rdf:RDF>
  </metadata>
  <g
     inkscape:label="Calque 1"
     inkscape:groupmode="layer"
     id="layer1"
     transform="translate(653.68356,804.22905)">
    <g
       transform="translate(-1075.9272,-1605.0551)"
       id="g4416">
      <path
         style="fill:#fdfdfd"
         d="m 422.35757,1237.1871 0,-436.25003 312.5,0 312.50003,0 0,436.25003 0,436.25 -312.50003,0 -312.5,0 0,-436.25 z"
         id="path4432"
         inkscape:connector-curvature="0" />
      <path
         style="fill:#f8dce7"
         d="m 428.4828,1671.8788 c -1.89593,-0.7539 -3.84873,-2.9487 -4.6875,-5.2683 -2.06679,-5.7156 -2.07005,-853.12228 -0.003,-858.83776 0.96852,-2.67839 2.72286,-4.43273 5.40125,-5.40125 5.69847,-2.06059 605.63015,-2.06059 611.32865,0 2.6784,0.96852 4.4327,2.72286 5.4012,5.40125 2.0638,5.70731 2.0638,853.12136 0,858.82866 -0.9685,2.6784 -2.7228,4.4327 -5.4012,5.4012 -5.3416,1.9316 -607.17666,1.8098 -612.03909,-0.1238 z m 609.3031,-3.5796 c 1.6753,-0.7633 3.6705,-2.7585 4.4338,-4.4338 1.0084,-2.2132 1.3879,-118.869 1.3879,-426.6783 0,-307.80932 -0.3795,-424.46518 -1.3879,-426.67837 -0.7633,-1.67529 -2.7585,-3.67051 -4.4338,-4.43382 -4.3418,-1.97828 -601.51483,-1.97828 -605.85667,0 -1.67529,0.76331 -3.67051,2.75853 -4.43382,4.43382 -1.98519,4.35702 -1.98048,849.00997 0.005,853.36717 0.76593,1.681 2.59406,3.6381 4.0625,4.3492 3.90912,1.8928 602.07109,1.966 606.22319,0.074 z m -575.40279,-37.6746 c -3.0273,-1.5469 -6.66211,-4.4007 -8.07736,-6.3417 l -2.57318,-3.5292 0,-383.5666 0,-383.5667 2.57318,-3.52917 c 1.41525,-1.94104 5.05006,-4.79479 8.07736,-6.34166 l 5.50418,-2.8125 266.97028,0 266.97023,0 5.5042,2.8125 c 3.0273,1.54687 6.6621,4.40062 8.0774,6.34166 l 2.5732,3.52917 0,383.5667 0,383.5666 -2.5732,3.5292 c -1.4153,1.941 -5.0501,4.7948 -8.0774,6.3417 l -5.5042,2.8125 -266.97023,0 -266.97028,0 -5.50418,-2.8125 z m 543.93849,-10.5063 c 2.2051,-1.9955 2.286,-15.5385 2.286,-382.714 0,-352.44039 -0.1533,-380.81476 -2.0688,-382.9313 -1.9919,-2.2011 -12.0657,-2.28593 -271.46404,-2.28593 -248.92105,0 -269.56907,0.15723 -271.68126,2.06873 -2.20504,1.99553 -2.28593,15.53855 -2.28593,382.7141 0,352.4403 0.15329,380.8147 2.06874,382.9312 1.99196,2.2011 12.06573,2.286 271.46407,2.286 248.92105,0 269.56902,-0.1573 271.68122,-2.0688 z m -253.16945,-29.4997 c -4.71618,-1.218 -13.87138,-8.8511 -16.85949,-14.0565 -1.32079,-2.3009 -1.53665,-2.3311 -2.71029,-0.3785 -5.29891,8.8158 -14.20654,14.6737 -22.39265,14.726 -5.8395,0.037 -14.49157,-4.365 -18.24187,-9.2819 -4.1622,-5.457 -8.14227,-17.4141 -8.34334,-25.0656 -0.36639,-13.9418 5.8316,-23.9938 22.72251,-36.8518 10.42754,-7.9378 18.693,-16.599 22.97599,-24.0761 1.47376,-2.5728 3.37562,-4.6822 4.22639,-4.6875 0.85075,0 2.98015,2.2609 4.73199,5.036 5.18223,8.2092 11.77816,14.8197 23.72118,23.7736 12.163,9.1188 15.59182,13.0044 19.53784,22.1408 6.65717,15.4137 -1.03425,40.8199 -14.18199,46.8458 -6.11594,2.803 -9.82282,3.2609 -15.18627,1.8757 z m 190.81996,-16.377 c -1.82876,-2.3249 -2.44155,-5.2821 -2.5886,-12.4923 -0.17941,-8.7959 0.0312,-9.6224 3.05926,-12.0043 2.54624,-2.0028 5.08101,-2.5579 11.68031,-2.5579 9.10124,0 12.06028,1.679 10.67136,6.055 -0.86012,2.71 -3.91172,3.8175 -11.31187,4.1053 l -5,0.1944 5,0.7602 c 4.55331,0.6922 5,1.0951 5,4.5101 0,3.3442 -0.47345,3.8114 -4.375,4.318 -3.84869,0.4997 -3.54794,0.6501 2.5,1.25 6.654,0.66 6.875,0.8025 6.875,4.432 l 0,3.75 -9.55726,0.3627 c -8.85475,0.3361 -9.73338,0.1388 -11.9532,-2.6832 z m 15.91116,-39.6985 c -1.70461,-0.6807 -4.06784,-2.1142 -5.2516,-3.1855 -1.95957,-1.7734 -2.4527,-1.7115 -5.50677,0.6908 -7.72748,6.0785 -17.50182,1.6181 -20.39155,-9.3053 -2.19846,-8.3103 -0.21432,-12.279 11.95466,-23.9123 5.97974,-5.7166 11.3311,-10.3937 11.89191,-10.3937 0.56081,0 3.72469,2.6718 7.03084,5.9375 3.30616,3.2656 8.05876,7.7511 10.56135,9.9678 5.70531,5.0534 7.61994,11.2622 5.75585,18.6651 -1.23334,4.898 -6.2492,11.6796 -8.63861,11.6796 -0.53752,0 -1.72644,0.246 -2.64204,0.5468 -0.91561,0.3008 -3.05943,-0.01 -4.76404,-0.6908 z M 730.35614,1285.6246 c -4.53585,-7.3404 -13.41615,-16.3626 -22.63812,-23.0001 -20.22011,-14.5532 -26.87284,-29.8074 -21.24576,-48.7147 2.53696,-8.5244 4.9356,-12.9233 9.21121,-16.8925 11.33026,-10.5185 22.72495,-9.4155 33.90131,3.2815 l 5.03168,5.7163 6.68306,-6.6439 c 8.08938,-8.0419 14.94055,-10.6346 22.06983,-8.3519 10.88811,3.4864 17.83761,12.5044 20.87977,27.0946 3.40364,16.324 -2.01934,27.8685 -19.77716,42.102 -13.30599,10.6652 -20.49128,17.9356 -25.11139,25.4087 -1.8064,2.9218 -3.83275,5.3125 -4.503,5.3125 -0.67025,0 -2.69589,-2.3907 -4.50143,-5.3125 z M 511.85606,981.57512 c -1.12146,-1.71158 -4.98303,-5.43091 -8.58126,-8.26518 -8.34462,-6.57293 -11.33406,-11.27356 -11.33327,-17.82053 10e-4,-11.30689 8.31278,-19.99062 16.24644,-16.97425 1.94702,0.74026 4.49803,2.2129 5.66892,3.27253 1.92868,1.74544 2.44436,1.67848 5.48336,-0.712 7.72747,-6.07842 17.50181,-1.61808 20.39155,9.30532 2.19845,8.31028 0.2143,12.27907 -11.95466,23.91237 -5.97975,5.71653 -11.54947,10.39369 -12.37716,10.39369 -0.82768,0 -2.42245,-1.40038 -3.54392,-3.11195 z m 218.50008,-3.45055 c -4.49826,-7.27951 -13.37536,-16.28356 -22.52132,-22.84341 -21.1746,-15.18728 -27.31483,-30.67218 -20.40088,-51.4486 5.10014,-15.32592 16.86963,-23.57398 28.98394,-20.31193 5.09282,1.37135 15.64609,10.29882 17.63293,14.91644 0.65142,1.51399 0.95492,1.55084 1.5763,0.19137 1.7047,-3.72959 8.6449,-10.47953 13.12481,-12.76501 13.86676,-7.0743 28.94784,1.60422 34.28621,19.73025 3.13913,10.65867 2.78969,18.62439 -1.19921,27.33731 -4.07495,8.90087 -6.13421,11.21463 -18.23135,20.48455 -10.59135,8.11607 -19.38229,17.11257 -24.23847,24.80525 -1.81109,2.86895 -3.84128,5.21628 -4.51153,5.21628 -0.67025,0 -2.69589,-2.39063 -4.50143,-5.3125 z M 503.65735,925.37205 c -0.82848,-0.99825 -1.1407,-2.967 -0.69382,-4.375 0.69857,-2.201 1.85241,-2.55998 8.22827,-2.55998 8.12953,0 10.23823,-2.11549 2.72827,-2.73704 -4.28879,-0.35496 -4.6875,-0.70693 -4.6875,-4.13796 0,-3.34419 0.47345,-3.81147 4.375,-4.31802 3.84868,-0.4997 3.54793,-0.65007 -2.5,-1.25 -6.654,-0.66006 -6.875,-0.80252 -6.875,-4.43198 l 0,-3.75 8.83027,-0.36258 c 7.40355,-0.30399 9.36599,0.0588 12.14601,2.24559 3.4276,2.69616 3.4088,2.58613 3.41631,19.99199 0.002,5.34164 -4.13542,7.5 -14.37801,7.5 -6.41583,0 -9.52585,-0.53304 -10.5898,-1.81502 z"
         id="path4430"
         inkscape:connector-curvature="0" />
      <path
         style="fill:#f2a9c6"
         d="m 429.56078,1671.4803 c -7.80201,-4.2333 -7.20321,31.869 -7.20321,-434.2932 0,-377.55171 0.21218,-425.5345 1.89616,-428.79095 4.16641,-8.05695 -20.72942,-7.45908 310.60384,-7.45908 331.33323,0 306.43743,-0.59787 310.60383,7.45908 1.684,3.25645 1.8962,51.23924 1.8962,428.79095 0,377.5516 -0.2122,425.5344 -1.8962,428.7909 -4.1672,8.0584 20.7715,7.464 -310.85426,7.409 -264.35141,-0.044 -302.04742,-0.2795 -305.04636,-1.9067 z m 608.35632,-1.6375 c 2.0265,-1.1889 4.6573,-3.8197 5.8462,-5.8462 2.0367,-3.4718 2.1668,-28.0896 2.2529,-426.305 0.082,-377.43779 -0.1136,-423.03136 -1.8261,-426.46406 -1.0546,-2.11399 -3.8992,-5.01292 -6.3214,-6.44205 l -4.404,-2.59842 -298.60713,0 -298.6071,0 -4.404,2.59842 c -2.4222,1.42913 -5.26685,4.32806 -6.32145,6.44205 -1.71245,3.4327 -1.90768,49.02627 -1.82609,426.46406 0.0861,398.2154 0.21619,422.8332 2.25294,426.305 1.18887,2.0265 3.81964,4.6573 5.84614,5.8462 3.46454,2.0325 21.56176,2.1615 303.05956,2.1615 281.49783,0 299.59503,-0.129 303.05953,-2.1615 z m -575.60717,-40.4682 c -3.62985,-1.8305 -6.34052,-4.3402 -7.76292,-7.1875 -2.06638,-4.1365 -2.18556,-25.1304 -2.18556,-385 0,-359.86967 0.11918,-380.8636 2.18556,-385.00003 1.4224,-2.84733 4.13307,-5.35707 7.76292,-7.1875 l 5.57736,-2.8125 266.97028,0 266.97023,0 5.5774,2.8125 c 3.6299,1.83043 6.3405,4.34017 7.7629,7.1875 2.0664,4.13643 2.1856,25.13036 2.1856,385.00003 0,359.8696 -0.1191,380.8635 -2.1856,385 -1.4224,2.8473 -4.133,5.357 -7.7629,7.1875 l -5.5774,2.8125 -266.97023,0 -266.97028,0 -5.57736,-2.8125 z m 544.65457,-8.6554 2.8931,-2.7179 0,-380.6391 0,-380.639 -2.7179,-2.89307 -2.7179,-2.89306 -269.38906,0 -269.38904,0 -2.89307,2.71789 -2.89306,2.71789 0,380.63905 0,380.639 2.71789,2.8931 2.7179,2.8931 269.38904,0 269.389,0 2.8931,-2.7179 z m -253.98193,-31.2505 c -5.53555,-1.9938 -11.27726,-6.6444 -14.35846,-11.6299 -1.49624,-2.4209 -3.12878,-4.4017 -3.62786,-4.4017 -0.49909,0 -2.63193,2.4465 -4.73964,5.4368 -6.54193,9.2811 -19.2906,13.3898 -27.83565,8.9709 -8.09401,-4.1855 -14.42943,-15.1898 -16.93075,-29.4077 -1.04515,-5.9409 3.26371,-19.3807 8.07969,-25.2013 2.08251,-2.517 7.90196,-7.6738 12.93211,-11.4596 9.73033,-7.3233 22.71231,-20.5597 24.9229,-25.4114 1.75361,-3.8488 5.1665,-3.7285 6.97733,0.2458 2.23152,4.8976 12.34469,15.1624 22.77609,23.1174 16.60182,12.6606 22.78349,22.105 22.88183,34.9591 0.0963,12.574 -6.65378,27.463 -14.68886,32.4005 -5.06067,3.1097 -11.69128,4.0731 -16.38873,2.3811 z m 191.79133,-15.5075 c -0.96234,-1.1595 -1.78913,-6.0439 -2.00127,-11.8228 -0.32842,-8.947 -0.11,-10.0233 2.38987,-11.7742 3.85257,-2.6985 17.54652,-2.641 19.80733,0.083 2.49479,3.006 -1.66996,5.4897 -9.20533,5.4897 -7.1602,0 -7.74924,2.7353 -0.80757,3.75 3.19962,0.4678 4.37337,1.3115 4.66397,3.3527 0.32153,2.2586 -0.30675,2.796 -3.65374,3.125 -6.92956,0.6812 -5.78399,3.3424 1.62146,3.7667 5.80068,0.3323 6.69465,0.7376 7.04339,3.1931 0.38355,2.7007 0.0292,2.8125 -8.90944,2.8125 -6.96075,0 -9.72252,-0.4984 -10.94867,-1.9758 z m -6.16633,-40.1694 c -3.82649,-1.3733 -7.26819,-5.6872 -8.74474,-10.9609 -2.36297,-8.4398 -0.38049,-12.3759 11.88889,-23.605 l 10.61721,-9.717 10.57641,9.6278 c 12.26294,11.1631 14.28748,15.1918 11.90697,23.6942 -2.90533,10.3768 -10.25293,13.989 -17.89959,8.7999 -4.68959,-3.1825 -4.70934,-3.1844 -8.08561,-0.7975 -4.00515,2.8316 -7.66917,3.8881 -10.25954,2.9585 z M 731.49406,1284.9996 c -5.23929,-8.2952 -11.5128,-14.7046 -22.27829,-22.7608 -14.53032,-10.8736 -18.78913,-16.0207 -22.02681,-26.6213 -2.49545,-8.1704 -2.51168,-8.7481 -0.49957,-17.7921 4.65798,-20.9367 19.04478,-31.5936 33.02383,-24.462 4.39259,2.241 9.77545,7.5193 13.58185,13.3183 1.52931,2.3298 1.59569,2.3273 3.125,-0.1197 3.54188,-5.667 11.91324,-12.6471 16.99326,-14.1691 4.21067,-1.2615 6.3203,-1.2837 9.95602,-0.1047 10.60061,3.4374 16.35812,10.981 19.7102,25.8244 1.82435,8.0785 1.83051,9.502 0.0674,15.5461 -3.0539,10.4686 -7.92922,16.6268 -21.63887,27.3329 -8.35632,6.5255 -14.95936,12.9421 -19.23438,18.6911 -3.58039,4.8149 -6.982,8.7544 -7.55911,8.7544 -0.57713,0 -2.02634,-1.5469 -3.22046,-3.4375 z M 504.67176,973.09581 c -11.91602,-11.33508 -13.51596,-14.73253 -10.95821,-23.26954 3.0011,-10.01679 10.28941,-13.42895 17.79887,-8.3329 l 4.70107,3.19024 3.66087,-2.7066 c 7.65003,-5.65591 15.8334,-2.02205 18.72794,8.31625 2.35881,8.42483 0.3752,12.38076 -11.79156,23.5159 -5.78593,5.29535 -10.70174,9.61497 -10.92402,9.59915 -0.22228,-0.0159 -5.26901,-4.65644 -11.21496,-10.3125 z m 223.2393,-0.31695 c -3.89125,-5.30019 -10.26255,-11.43355 -18.18682,-17.50764 -15.28968,-11.71984 -19.29565,-16.54679 -22.53528,-27.15373 -2.48621,-8.14017 -2.50543,-8.77615 -0.53283,-17.64263 6.07452,-27.30373 28.21564,-35.42638 43.0352,-15.78779 2.33459,3.09375 4.69258,5.625 5.23996,5.625 0.54739,0 2.71594,-2.37535 4.81901,-5.27855 10.06258,-13.89099 28.65233,-13.64061 37.62432,0.50674 5.14454,8.11211 8.11579,22.13347 6.20936,29.30212 -2.98455,11.22264 -7.48112,17.27145 -20.71726,27.86888 -12.61893,10.10328 -22.10496,19.87371 -24.58952,25.32673 -0.7265,1.59449 -2.00844,2.89908 -2.84876,2.89908 -0.84031,0 -4.22313,-3.6712 -7.51738,-8.15821 z M 504.8136,924.00909 c -2.36281,-2.84701 -0.24536,-4.12773 7.54397,-4.56292 5.10707,-0.28533 6.875,-0.86626 6.875,-2.2591 0,-1.27002 -1.53711,-2.00165 -4.76395,-2.26752 -4.09116,-0.33708 -4.70903,-0.77841 -4.375,-3.125 0.28689,-2.01545 1.4679,-2.89649 4.50064,-3.35748 6.48694,-0.98605 4.73122,-3.08769 -2.92577,-3.50222 -6.3706,-0.34489 -6.93432,-0.61274 -6.57688,-3.125 0.35204,-2.47425 1.22532,-2.78445 8.77262,-3.11612 10.31654,-0.45337 13.69618,1.94842 13.31005,9.45897 -0.13175,2.56265 0.16864,6.08997 0.66753,7.83847 0.66418,2.32781 0.19442,4.0851 -1.75431,6.5625 -2.42719,3.08567 -3.4099,3.3834 -11.1676,3.3834 -6.14003,0 -8.95131,-0.53631 -10.1063,-1.92798 z"
         id="path4428"
         inkscape:connector-curvature="0" />
      <path
         style="fill:#ee8eb4"
         d="m 431.53943,1672.4804 c -0.79372,-0.5051 135.69944,-0.9183 303.31814,-0.9183 167.6187,0 304.11183,0.4132 303.31813,0.9183 -0.7937,0.5051 -137.28688,0.9184 -303.31813,0.9184 -166.03125,0 -302.52441,-0.4133 -303.31814,-0.9184 z m -8.42312,-8.5206 c -1.09585,-2.8557 -0.89901,-852.11715 0.1979,-853.84087 0.5051,-0.79372 0.91836,191.44067 0.91836,427.18747 0,235.7469 -0.0804,428.6307 -0.17876,428.6307 -0.0983,0 -0.5202,-0.8898 -0.9375,-1.9773 z m 622.36629,-426.7727 c 0,-235.6812 0.4132,-427.86189 0.9183,-427.06817 1.2008,1.88698 1.2008,852.24927 0,854.13627 -0.5051,0.7937 -0.9183,-191.3869 -0.9183,-427.0681 z m -583.91664,391.3524 c -2.15413,-1.3135 -4.82601,-3.6866 -5.9375,-5.2735 -1.85052,-2.642 -2.02089,-35.1991 -2.02089,-386.1885 l 0,-383.30328 2.61037,-3.31855 c 5.93562,-7.54592 -14.99914,-7.0186 278.63963,-7.0186 293.63873,0 272.70403,-0.52732 278.63963,7.0186 l 2.6104,3.31855 0,383.41288 0,383.4128 -2.6104,3.3186 c -5.9358,7.5461 15.0245,7.019 -278.89006,7.0139 -262.72193,0 -269.21775,-0.062 -273.04118,-2.3929 z m 546.06944,-7.3247 2.8472,-2.8472 0,-381.1805 0,-381.18059 -2.8473,-2.84722 -2.8472,-2.84722 -269.93053,0 -269.93056,0 -2.84722,2.84719 -2.84722,2.8472 -0.29743,379.65284 c -0.23733,302.9488 0.0202,380.2792 1.27464,382.7531 0.86463,1.7052 2.96722,3.8084 4.67242,4.6738 2.46865,1.2528 57.78912,1.5125 271.50321,1.2746 l 268.40279,-0.2987 2.8472,-2.8473 z m -301.63587,-32.6834 c -8.65181,-2.7263 -14.81758,-10.519 -18.11065,-22.8893 -2.39815,-9.0086 -2.22531,-13.4246 0.84683,-21.6356 3.24235,-8.6659 7.61486,-13.739 19.90658,-23.0959 10.09198,-7.6823 20.17897,-18.0937 23.21138,-23.9577 0.99995,-1.9337 2.3127,-3.5158 2.91722,-3.5158 0.60452,0 2.51393,2.3906 4.24313,5.3125 3.86235,6.5263 10.94094,13.449 23.74194,23.2191 18.41243,14.0531 23.74992,26.1322 19.15242,43.3434 -2.03516,7.6188 -5.9819,15.5453 -9.1053,18.2867 -10.64376,9.3423 -23.21331,7.3564 -32.71668,-5.1689 -2.34434,-3.0898 -4.67447,-5.7764 -5.17807,-5.9703 -0.5036,-0.1939 -2.41333,1.9107 -4.24387,4.6768 -5.87193,8.8731 -16.73774,13.893 -24.66493,11.395 z m 240.29207,-14.6061 c -2.24052,-1.5693 -2.80098,-3.0127 -2.54824,-6.5625 0.1782,-2.5029 -0.12275,-6.1017 -0.6687,-7.9973 -0.70199,-2.4374 -0.39484,-4.3591 1.04894,-6.5625 1.87773,-2.8658 2.79912,-3.1159 11.47945,-3.1159 8.31322,0 9.38836,0.2606 9.0227,2.1875 -0.32358,1.705 -2.06704,2.3253 -7.90417,2.8125 -8.57308,0.7154 -10.47556,3.6617 -3.3107,5.127 8.2092,1.679 8.12612,6.0579 -0.11575,6.1038 -2.21371,0.013 -3.4375,0.6867 -3.4375,1.8942 0,1.3765 1.43179,1.875 5.38609,1.875 6.40296,0 11.37143,2.9447 8.36391,4.9571 -2.98898,2 -14.09231,1.539 -17.31597,-0.7189 z m -10.47126,-42.9459 c -4.34828,-3.4203 -6.41959,-9.0906 -5.58736,-15.2955 0.61051,-4.5516 2.00541,-6.433 11.09893,-14.9697 5.72036,-5.3701 10.59952,-9.7668 10.84257,-9.7705 0.24305,0 5.14984,4.2675 10.90396,9.4915 7.9305,7.1999 10.65064,10.5034 11.24138,13.6523 1.07555,5.7332 -0.34941,11.2266 -4.05426,15.6295 -3.9656,4.7129 -8.83707,4.8805 -14.06208,0.484 l -3.84591,-3.2362 -3.84591,3.2362 c -4.59718,3.8682 -8.46191,4.1053 -12.69132,0.7784 z M 730.03759,1281.8746 c -5.0976,-7.3389 -10.46469,-12.5773 -21.50078,-20.9854 -12.18919,-9.2866 -16.56616,-14.3754 -19.8011,-23.0216 -3.27115,-8.7429 -3.30208,-13.7731 -0.14973,-24.358 3.07654,-10.3305 9.1683,-17.8125 16.90983,-20.769 5.277,-2.0153 5.94142,-2.0173 11.13814,-0.033 5.02262,1.9181 12.47907,8.7145 16.66112,15.1861 1.5341,2.374 1.5909,2.3747 3.125,0.037 6.26635,-9.5465 15.03455,-15.658 22.5498,-15.7171 5.32089,-0.042 13.01584,4.4808 17.01389,10 4.6174,6.3741 8.16216,19.3308 7.32372,26.7694 -1.11371,9.8809 -6.5262,18.9081 -15.66289,26.1234 -12.18376,9.6215 -23.85174,20.7809 -27.98718,26.7672 -2.01846,2.9219 -4.17839,5.3125 -4.79984,5.3125 -0.62145,0 -2.79044,-2.3906 -4.81998,-5.3125 z M 505.20355,972.45563 c -6.24413,-5.85811 -10.5915,-10.99614 -11.07507,-13.08927 -2.00117,-8.66209 4.01389,-19.67929 10.7443,-19.67929 1.98792,0 5.23099,1.42037 7.38888,3.23611 l 3.84591,3.23613 3.84591,-3.23613 c 4.59717,-3.86826 8.46191,-4.10532 12.69132,-0.77847 4.34828,3.42035 6.4196,9.09062 5.58735,15.29548 -0.61051,4.55167 -2.0054,6.43304 -11.09892,14.96974 -5.72036,5.37009 -10.68191,9.74703 -11.02566,9.72654 -0.34375,-0.0205 -5.25056,-4.37688 -10.90402,-9.68084 z m 224.86236,1.91894 c -4.39543,-6.3769 -14.91629,-16.44865 -22.85869,-21.88293 -14.18849,-9.70791 -22.24856,-23.87515 -20.69487,-36.3755 2.71581,-21.85012 13.96312,-33.70189 29.25975,-30.83223 4.51246,0.84655 13.49313,8.55329 17.51231,15.02816 1.52196,2.45187 1.5935,2.43983 3.716,-0.625 1.1903,-1.71875 4.16212,-5.17383 6.60406,-7.67795 13.09019,-13.42354 31.35396,-6.71971 37.44886,13.74584 3.18134,10.68232 3.21328,15.92085 0.14627,23.99256 -3.37745,8.88874 -7.47414,13.78591 -18.64807,22.2919 -10.13948,7.71852 -22.05326,19.87385 -24.28957,24.782 -1.9063,4.18389 -4.07113,3.5376 -8.19605,-2.44685 z m -224.97651,-51.875 c 0.32357,-1.70499 2.06704,-2.32536 7.90416,-2.8125 5.50454,-0.45939 7.48901,-1.11623 7.48901,-2.4788 0,-1.17434 -1.72312,-2.13388 -4.7013,-2.61797 -2.58572,-0.42029 -5.11609,-1.17895 -5.62304,-1.6859 -1.33837,-1.33837 3.43369,-4.46733 6.81325,-4.46733 1.73208,0 2.88609,-0.74972 2.88609,-1.875 0,-1.40082 -1.50156,-1.87984 -5.9375,-1.89414 -3.26563,-0.0105 -6.78125,-0.58372 -7.8125,-1.27376 -1.6191,-1.08338 -1.53381,-1.52079 0.625,-3.20499 3.08119,-2.4038 14.85372,-1.8091 17.54934,0.88651 1.08827,1.08828 2.03191,5.34328 2.39177,10.78488 0.78354,11.84819 -0.17918,12.8265 -12.62205,12.8265 -8.25564,0 -9.32771,-0.26167 -8.96223,-2.1875 z M 431.53943,801.89371 c 1.88688,-1.20074 604.74937,-1.20074 606.63627,0 0.7937,0.5051 -135.69943,0.91836 -303.31813,0.91836 -167.6187,0 -304.11186,-0.41326 -303.31814,-0.91836 z"
         id="path4426"
         inkscape:connector-curvature="0" />
      <path
         style="fill:#e85c94"
         d="m 431.53943,1672.4804 c -0.79372,-0.5051 135.69944,-0.9183 303.31814,-0.9183 167.6187,0 304.11183,0.4132 303.31813,0.9183 -0.7937,0.5051 -137.28688,0.9184 -303.31813,0.9184 -166.03125,0 -302.52441,-0.4133 -303.31814,-0.9184 z m -8.42312,-8.5206 c -1.09585,-2.8557 -0.89901,-852.11715 0.1979,-853.84087 0.5051,-0.79372 0.91836,191.44067 0.91836,427.18747 0,235.7469 -0.0804,428.6307 -0.17876,428.6307 -0.0983,0 -0.5202,-0.8898 -0.9375,-1.9773 z m 622.36629,-426.7727 c 0,-235.6812 0.4132,-427.86189 0.9183,-427.06817 1.2008,1.88698 1.2008,852.24927 0,854.13627 -0.5051,0.7937 -0.9183,-191.3869 -0.9183,-427.0681 z m -580.04698,392.4203 c -2.08833,-0.6073 -5.46333,-2.8435 -7.5,-4.9693 l -3.70305,-3.8652 0,-383.5858 0,-383.58587 3.67894,-3.83999 c 2.02342,-2.112 5.67967,-4.3958 8.125,-5.07511 6.10263,-1.69531 531.53949,-1.69531 537.64209,0 2.4454,0.67931 6.1016,2.96311 8.125,5.07511 l 3.679,3.83999 0,383.58587 0,383.5858 -3.679,3.84 c -2.0234,2.112 -5.6796,4.3958 -8.125,5.0751 -5.66734,1.5744 -532.82344,1.4955 -538.24298,-0.081 z m 542.60378,-7.9885 3.0682,-3.0682 0,-381.3636 0,-381.36367 -3.0682,-3.06818 -3.0682,-3.06818 -270.11363,0 -270.11364,0 -3.06818,3.06818 -3.06818,3.06818 0,381.36367 0,381.3636 3.06818,3.0682 3.06818,3.0682 270.11364,0 270.11363,0 3.0682,-3.0682 z m -255.05683,-33.84 c -4.71623,-1.6403 -11.02864,-7.32 -15.93949,-14.3418 l -2.18551,-3.125 -2.1875,3.0954 c -8.0819,11.4364 -14.90051,15.6829 -23.60649,14.7016 -11.68715,-1.3173 -20.2401,-13.2391 -21.43011,-29.871 -1.09461,-15.2988 3.05957,-22.1393 23.16539,-38.1458 6.64953,-5.2937 14.09725,-12.6066 17.3431,-17.0291 3.12886,-4.2631 6.13156,-7.9155 6.67269,-8.1163 0.54111,-0.2008 2.08534,1.5018 3.43162,3.7835 4.23351,7.1753 10.23139,13.1587 22.07537,22.022 18.01919,13.4844 22.87792,21.8617 21.75796,37.5147 -1.4989,20.949 -14.83258,34.4727 -29.09703,29.5118 z m 193.20509,-14.2659 c -2.67869,-1.695 -3.13043,-19.347 -0.56089,-21.9166 1.94484,-1.9448 16.65889,-2.8146 18.38663,-1.0868 2.06277,2.0627 -2.37717,4.1775 -8.77083,4.1775 -6.34608,0 -6.78173,0.1911 -6.40944,2.8125 0.32085,2.2591 1.32167,2.8888 5.08694,3.2004 5.66375,0.4688 6.71164,3.9871 1.1875,3.9871 -4.04813,0 -6.59642,2.0442 -5.64359,4.5273 0.44855,1.1689 2.82812,1.7227 7.40233,1.7227 5.1589,0 6.74126,0.4401 6.74126,1.875 0,1.4687 -1.69289,1.8708 -7.8125,1.8558 -4.29688,-0.01 -8.62021,-0.5302 -9.60741,-1.1549 z m 14.91991,-40.9556 c -1.03125,-0.3752 -3.42188,-2.1235 -5.3125,-3.8851 l -3.4375,-3.203 -3.5059,3.3589 c -6.82547,6.5392 -15.00191,3.5426 -17.70289,-6.4881 -1.9376,-7.1957 0.88038,-13.4356 8.79249,-19.4695 3.43138,-2.6168 7.61545,-6.5129 9.29792,-8.6582 l 3.05907,-3.9003 3.66508,4.4381 c 2.01581,2.4409 5.93996,6.0146 8.72036,7.9414 9.01005,6.2439 11.57721,13.8306 7.78,22.9919 -1.35425,3.2674 -7.17821,8.1629 -9.10655,7.6549 -0.20602,-0.054 -1.21833,-0.4057 -2.24958,-0.781 z M 730.02989,1280.6246 c -4.53823,-6.52 -12.29515,-13.9623 -21.51771,-20.6449 -10.03126,-7.2686 -14.88327,-12.5027 -18.20755,-19.6414 -9.58674,-20.587 5.66948,-51.2404 23.70689,-47.6329 6.11474,1.2229 12.88811,6.3801 16.52074,12.5787 1.82207,3.1091 3.74035,5.653 4.26282,5.653 0.52248,0 2.49324,-2.4416 4.37945,-5.4256 12.1311,-19.1919 34.49427,-14.9352 41.18769,7.8399 5.30146,18.0388 0.54032,31.0743 -15.94208,43.6475 -11.04167,8.423 -19.06551,16.0511 -24.105,22.9162 -2.43127,3.3121 -4.90806,6.022 -5.50398,6.022 -0.59592,0 -2.74749,-2.3907 -4.78127,-5.3125 z M 513.12181,979.09916 c -1.1128,-1.69836 -5.01619,-5.34759 -8.67419,-8.10942 -3.658,-2.76181 -7.42471,-6.46735 -8.37048,-8.23452 -3.68401,-6.88365 -0.98048,-18.08479 5.12732,-21.24325 4.07168,-2.10555 6.71501,-1.42149 11.46561,2.9672 l 3.4375,3.17563 3.5059,-3.35887 c 6.82547,-6.53921 15.00192,-3.54255 17.70289,6.48811 1.97518,7.33525 -0.82244,13.28296 -9.39841,19.98087 -3.78915,2.95937 -7.78004,6.74 -8.86864,8.40141 -2.48694,3.79556 -3.40334,3.78519 -5.9275,-0.0671 z m 218.68226,-3.37767 c -3.99759,-6.76737 -10.59744,-13.26753 -23.88916,-23.52836 -11.0675,-8.54379 -13.32467,-10.93151 -16.67854,-17.6432 -2.93367,-5.87081 -3.8788,-9.44487 -3.8788,-14.66801 0,-21.93397 13.52955,-38.04329 28.55332,-33.99781 5.25547,1.41515 12.84965,8.05569 15.8518,13.86121 2.37399,4.5908 3.77902,4.64954 6.08113,0.25425 2.0563,-3.92598 8.83105,-10.59198 12.86907,-12.66251 4.2432,-2.17573 13.05993,-1.67099 17.43739,0.99826 8.55735,5.21802 14.2189,17.68815 14.19508,31.26613 -0.0224,12.71681 -6.08222,21.52399 -24.1183,35.05241 -8.02725,6.02103 -17.56108,16.09406 -20.36559,21.51738 -2.31781,4.48217 -3.18195,4.418 -6.0574,-0.44975 z M 505.72489,923.88772 c -1.82104,-1.82103 0.92712,-2.95065 7.17839,-2.95065 7.74419,0 10.79865,-2.22707 7.53315,-5.49257 -1.10409,-1.10409 -3.65475,-2.00743 -5.66815,-2.00743 -2.42063,0 -3.66071,-0.63516 -3.66071,-1.875 0,-1.20748 1.22379,-1.88182 3.4375,-1.89414 5.19548,-0.0289 7.43487,-1.79857 5.39157,-4.26059 -1.07965,-1.3009 -3.70653,-1.97027 -7.73213,-1.97027 -4.58617,0 -6.09694,-0.46461 -6.09694,-1.875 0,-1.46966 1.71458,-1.875 7.93127,-1.875 9.54127,0 12.09554,2.02261 11.94718,9.46043 -0.0539,2.70301 0.0217,6.5582 0.16801,8.56709 0.16899,2.32004 -0.56214,4.25809 -2.00412,5.3125 -2.30203,1.68328 -16.91959,2.36606 -18.42502,0.86063 z M 431.53943,801.89371 c 1.88688,-1.20074 604.74937,-1.20074 606.63627,0 0.7937,0.5051 -135.69943,0.91836 -303.31813,0.91836 -167.6187,0 -304.11186,-0.41326 -303.31814,-0.91836 z"
         id="path4424"
         inkscape:connector-curvature="0" />
      <path
         style="fill:#e01b6a"
         d="m 583.92007,1672.4996 c 83.01562,-0.1774 218.85937,-0.1774 301.875,0 83.01562,0.1774 15.09375,0.3226 -150.9375,0.3226 -166.03125,0 -233.95313,-0.1452 -150.9375,-0.3226 z M 422.97534,1237.1871 c 0,-234.0938 0.14387,-329.85941 0.31971,-212.8125 0.17584,117.0468 0.17584,308.5781 0,425.625 -0.17584,117.0468 -0.31971,21.2812 -0.31971,-212.8125 z m 623.74996,0 c 0,-234.0938 0.1439,-329.85941 0.3197,-212.8125 0.1759,117.0468 0.1759,308.5781 0,425.625 -0.1758,117.0468 -0.3197,21.2812 -0.3197,-212.8125 z m -582.49273,390.7514 c -2.0625,-0.9129 -4.875,-2.9208 -6.25,-4.4619 -2.48705,-2.7874 -2.50154,-4.7812 -2.79741,-384.8582 -0.23484,-301.68034 0.0281,-382.68841 1.25,-385.06083 0.85108,-1.65248 3.13553,-4.18373 5.07657,-5.625 l 3.52917,-2.6205 269.81667,0 269.81663,0 3.5292,2.6205 c 1.941,1.44127 4.224,3.97252 5.0732,5.625 2.2619,4.40115 2.2619,762.85783 0,767.25903 -0.8492,1.6524 -3.1321,4.1837 -5.0731,5.625 l -3.5291,2.6205 -268.34592,0.2681 c -220.80005,0.2207 -269.01034,-0.026 -272.09591,-1.3917 z m 543.99283,-5.0182 3.5072,-3.0168 0,-382.7164 0,-382.71649 -3.5072,-3.01677 -3.5072,-3.01677 -269.86063,0 -269.86059,0 -3.50721,3.01677 -3.5072,3.01677 0,382.71649 0,382.7164 3.5072,3.0168 3.50721,3.0168 269.86059,0 269.86063,0 3.5072,-3.0168 z m -255.86783,-36.4761 c -5.66541,-2.454 -10.86669,-7.4417 -13.88989,-13.3196 -1.326,-2.5782 -2.94755,-4.6875 -3.60341,-4.6875 -0.65588,0 -2.11491,1.8281 -3.2423,4.0625 -4.69656,9.3081 -12.2101,14.6875 -20.5144,14.6875 -11.76069,0 -19.25556,-8.7076 -22.50291,-26.1439 -1.01389,-5.4439 -0.84354,-8.2576 0.87037,-14.375 1.78691,-6.378 3.35834,-8.8172 9.73198,-15.1061 4.18054,-4.125 11.39267,-10.4676 16.02699,-14.0946 4.63429,-3.6271 10.86757,-9.9113 13.85172,-13.9649 l 5.42573,-7.3704 6.12918,7.6993 c 3.37107,4.2345 11.91525,12.1212 18.9871,17.5259 7.07185,5.4048 14.27045,11.9613 15.9969,14.5701 4.95125,7.4819 6.94396,16.7803 5.41874,25.2849 -2.42399,13.5163 -7.12062,21.0655 -15.46255,24.8543 -6.1368,2.7871 -7.56592,2.828 -13.22325,0.3775 z m 194.14931,-14.5696 c -1.50705,-2.359 -1.61443,-17.5897 -0.1366,-19.375 0.79512,-0.9606 4.46094,-1.5625 9.51534,-1.5625 9.92978,0 9.12386,2.1734 -1.01634,2.7409 -5.62316,0.3147 -6.94643,0.8209 -7.32342,2.8014 -0.5543,2.9121 2.85296,5.6597 7.23812,5.8369 2.63965,0.1066 2.39602,0.3428 -1.39423,1.3517 -8.73863,2.3262 -6.99235,7.4097 2.95913,8.6142 l 6.63369,0.8029 -7.73873,0.176 c -4.99645,0.1136 -8.09246,-0.3777 -8.73696,-1.3865 z m -8.76462,-41.1932 c -3.66068,-1.7526 -7.0287,-10.3771 -6.0629,-15.5253 0.55845,-2.9768 3.34952,-6.3623 10.73116,-13.0168 l 9.97641,-8.9936 5.92282,5.1837 c 12.37688,10.8324 13.93568,12.6138 14.72643,16.8288 1.13159,6.0319 -3.11231,15.4009 -7.4718,16.495 -3.4557,0.8674 -9.04552,-1.9399 -10.28272,-5.164 -1.0317,-2.6885 -3.94734,-2.183 -7.04655,1.2219 -3.37639,3.7093 -6.87858,4.7007 -10.49285,2.9703 z m -206.461,-250.0568 c -3.21344,-5.1595 -13.88724,-15.4111 -22.30202,-21.4198 -16.36273,-11.6841 -23.24198,-24.9765 -20.31528,-39.2543 2.6961,-13.1528 7.27631,-20.6136 15.19403,-24.75 8.49372,-4.4374 20.48012,0.6997 26.02615,11.1541 1.70178,3.2078 3.79117,5.8325 4.6431,5.8325 0.85193,0 2.90999,-2.156 4.57348,-4.7912 6.4599,-10.2331 15.68822,-15.0834 24.2908,-12.767 14.19746,3.823 22.65315,28.2265 15.39045,44.4176 -3.45005,7.6914 -5.80955,10.2771 -17.6744,19.369 -9.54244,7.3123 -19.03021,16.7217 -23.0554,22.8649 -2.86135,4.367 -3.69276,4.2864 -6.77091,-0.6558 z M 509.85757,974.60756 c -12.49694,-11.14617 -13.64636,-12.47189 -14.42861,-16.64165 -1.13159,-6.03188 3.11231,-15.40084 7.4718,-16.495 3.45569,-0.86733 9.04552,1.93988 10.28273,5.164 1.00533,2.61985 4.57025,2.20642 6.41263,-0.74369 4.25032,-6.80585 12.62415,-5.24293 15.91012,2.96952 3.35836,8.39335 1.86778,11.91978 -9.29003,21.97839 -5.39816,4.86636 -10.02156,8.83388 -10.27424,8.81669 -0.25267,-0.0172 -2.99065,-2.28891 -6.0844,-5.04826 z m 221.95271,-0.60232 c -4.26672,-6.51185 -11.44871,-13.49575 -23.15002,-22.51153 -13.34065,-10.2789 -16.43935,-14.20685 -19.42148,-24.61899 -1.7338,-6.05357 -1.82609,-8.32117 -0.58503,-14.375 2.04303,-9.96598 4.42596,-15.26134 8.98956,-19.9766 4.75758,-4.91571 10.89367,-7.11202 16.78295,-6.00719 5.16227,0.96845 14.43366,8.99485 16.69432,14.45254 1.79282,4.32825 5.67189,4.96826 6.88805,1.13647 1.16215,-3.66159 7.83593,-10.96766 11.97241,-13.10672 4.56594,-2.36114 12.78605,-2.30997 17.46325,0.1087 9.30836,4.81353 16.71639,24.24176 13.62335,35.72844 -3.19641,11.87055 -6.35343,15.65449 -26.21007,31.41471 -3.78125,3.00118 -9.56618,8.79914 -12.85539,12.88435 -3.2892,4.0852 -6.44527,7.58905 -7.01349,7.78631 -0.56821,0.19727 -1.99848,-1.1147 -3.17841,-2.91548 z M 512.98257,922.3013 c 7.46177,-0.93573 9.375,-1.97943 9.375,-5.11423 0,-2.72876 -1.4207,-3.79368 -6.76589,-5.07152 -3.74393,-0.89504 -3.75918,-0.9264 -0.5109,-1.05053 3.98642,-0.15234 7.4479,-3.22757 6.47799,-5.75512 -0.38092,-0.99266 -2.46639,-2.0903 -4.63439,-2.43922 -2.16799,-0.34891 -5.34806,-0.8501 -7.06681,-1.11377 -1.71875,-0.26366 0.32175,-0.55599 4.53444,-0.64961 8.95242,-0.19897 11.19984,1.47087 10.00697,7.4352 -0.42341,2.11707 -0.15432,4.99933 0.59798,6.40501 0.98345,1.8376 0.98795,3.3895 0.016,5.52268 -1.24219,2.7263 -2.03817,2.95261 -9.8161,2.79088 -8.39093,-0.17447 -8.41013,-0.18279 -2.2143,-0.95977 z m 70.9375,-121.05168 c 83.01562,-0.17742 218.85937,-0.17742 301.875,0 83.01562,0.17742 15.09375,0.32258 -150.9375,0.32258 -166.03125,0 -233.95313,-0.14516 -150.9375,-0.32258 z"
         id="path4422"
         inkscape:connector-curvature="0" />
      <path
         style="fill:#dd0058"
         d="m 583.92007,1672.4996 c 83.01562,-0.1774 218.85937,-0.1774 301.875,0 83.01562,0.1774 15.09375,0.3226 -150.9375,0.3226 -166.03125,0 -233.95313,-0.1452 -150.9375,-0.3226 z M 422.97534,1237.1871 c 0,-234.0938 0.14387,-329.85941 0.31971,-212.8125 0.17584,117.0468 0.17584,308.5781 0,425.625 -0.17584,117.0468 -0.31971,21.2812 -0.31971,-212.8125 z m 623.74996,0 c 0,-234.0938 0.1439,-329.85941 0.3197,-212.8125 0.1759,117.0468 0.1759,308.5781 0,425.625 -0.1758,117.0468 -0.3197,21.2812 -0.3197,-212.8125 z m -445.93023,390.3125 c 73.73437,-0.1781 194.39062,-0.1781 268.125,0 73.73437,0.1781 13.40625,0.3238 -134.0625,0.3238 -147.46875,0 -207.79688,-0.1457 -134.0625,-0.3238 z m 150.70212,-42.7443 c -5.02417,-2.2811 -11.90387,-9.9932 -13.55488,-15.1951 -1.31214,-4.1342 -4.80997,-2.6636 -8.00945,3.3676 -4.68485,8.831 -10.17368,12.3843 -19.13019,12.3843 -7.03742,0 -7.5957,-0.2372 -12.21364,-5.1878 -5.50104,-5.8974 -9.01992,-15.9365 -9.01992,-25.7332 0,-9.5456 5.39473,-18.8999 15.32846,-26.579 8.88934,-6.8718 24.57872,-21.9641 27.93825,-26.875 2.08556,-3.0487 2.17127,-3.064 3.50879,-0.625 1.98047,3.6113 18.00308,19.054 26.5873,25.625 9.87125,7.5561 13.96146,12.9928 16.15605,21.4745 3.58338,13.8491 -3.19171,32.7218 -13.41288,37.3629 -6.46027,2.9333 -7.67824,2.9317 -14.17789,-0.019 z m 186.17117,-55.7412 c -1.50564,-1.0546 -3.39683,-4.118 -4.20263,-6.8075 -2.07336,-6.9203 -0.18652,-10.5968 10.22004,-19.914 l 8.68159,-7.7729 9.30405,8.3602 c 10.14456,9.1153 11.83111,12.6754 9.43887,19.924 -1.4604,4.425 -5.35847,8.1332 -8.54976,8.1332 -0.95743,0 -3.6793,-2.1094 -6.0486,-4.6875 l -4.30784,-4.6875 -3.36075,3.9472 c -4.17866,4.9078 -7.62759,5.9895 -11.17497,3.5048 z m -208.7331,-253.5675 c -2.8954,-3.7073 -9.63799,-9.9824 -14.98353,-13.9447 -17.22961,-12.7712 -21.37256,-17.8213 -23.9195,-29.1568 -2.25367,-10.0304 2.9477,-27.3041 10.01145,-33.2478 10.00051,-8.4149 23.15905,-3.5271 31.31825,11.6333 1.17115,2.176 2.70074,3.9565 3.39909,3.9565 0.69835,0 3.22945,-3.0636 5.62467,-6.8079 6.4619,-10.1016 14.09829,-14.1292 22.42824,-11.8292 8.94764,2.4706 13.58933,8.9485 16.57082,23.1262 1.32908,6.3201 1.30701,8.7293 -0.12988,14.1764 -2.53159,9.5967 -6.08486,14.0172 -20.0773,24.9771 -6.90526,5.4086 -14.98929,12.9892 -17.96451,16.8456 -2.97524,3.8565 -5.77039,7.0118 -6.21147,7.0118 -0.44107,0 -3.17092,-3.0332 -6.06633,-6.7405 z M 506.47367,969.94514 c -5.17781,-4.81812 -9.34801,-9.81666 -9.80635,-11.75418 -1.58016,-6.67993 3.80154,-16.00389 9.2373,-16.00389 0.95742,0 3.6793,2.10937 6.0486,4.6875 l 4.30784,4.6875 3.36075,-3.90101 c 1.84842,-2.14557 4.42439,-4.26769 5.72439,-4.71587 6.13075,-2.11352 12.67435,9.10578 9.61653,16.48799 -1.20647,2.91268 -17.56045,19.15554 -19.0791,18.94946 -0.22058,-0.0299 -4.45506,-3.8268 -9.40996,-8.4375 z m 223.2315,-0.9757 c -3.00994,-3.79538 -9.9726,-10.34011 -15.4726,-14.54383 -13.61396,-10.40533 -17.93198,-14.56414 -20.70329,-19.93999 -3.91681,-7.59791 -4.79086,-13.88671 -3.13608,-22.56412 3.05152,-16.00171 9.98481,-24.10943 20.61707,-24.10943 7.29719,0 12.63305,3.67828 18.38922,12.67663 2.35669,3.6841 4.81283,6.69837 5.45808,6.69837 0.64525,0 3.15644,-3.10033 5.58041,-6.88962 5.39946,-8.44071 10.62805,-11.85104 18.16959,-11.85104 10.81985,0 17.40894,7.34236 20.74418,23.11566 3.09678,14.6456 -2.01332,25.71412 -17.12123,37.08466 -10.41112,7.83564 -18.63329,15.67933 -23.65843,22.56939 l -3.39433,4.65404 -5.47259,-6.90072 z M 600.79507,846.24963 c 73.73437,-0.1781 194.39062,-0.1781 268.125,0 73.73437,0.1781 13.40625,0.32382 -134.0625,0.32382 -147.46875,0 -207.79688,-0.14572 -134.0625,-0.32382 z m -16.875,-45.00001 c 83.01562,-0.17742 218.85937,-0.17742 301.875,0 83.01562,0.17742 15.09375,0.32258 -150.9375,0.32258 -166.03125,0 -233.95313,-0.14516 -150.9375,-0.32258 z"
         id="path4420"
         inkscape:connector-curvature="0" />
      <path
         style="fill:#111111"
         d="m 583.92007,1672.4996 c 83.01562,-0.1774 218.85937,-0.1774 301.875,0 83.01562,0.1774 15.09375,0.3226 -150.9375,0.3226 -166.03125,0 -233.95313,-0.1452 -150.9375,-0.3226 z M 422.97534,1237.1871 c 0,-234.0938 0.14387,-329.85941 0.31971,-212.8125 0.17584,117.0468 0.17584,308.5781 0,425.625 -0.17584,117.0468 -0.31971,21.2812 -0.31971,-212.8125 z m 623.74996,0 c 0,-234.0938 0.1439,-329.85941 0.3197,-212.8125 0.1759,117.0468 0.1759,308.5781 0,425.625 -0.1758,117.0468 -0.3197,21.2812 -0.3197,-212.8125 z M 583.92007,801.24962 c 83.01562,-0.17742 218.85937,-0.17742 301.875,0 83.01562,0.17742 15.09375,0.32258 -150.9375,0.32258 -166.03125,0 -233.95313,-0.14516 -150.9375,-0.32258 z"
         id="path4418"
         inkscape:connector-curvature="0" />
    </g>
  </g>
</svg>
