<?xml version="1.0" encoding="UTF-8" standalone="no"?>
<!-- Created with Inkscape (http://www.inkscape.org/) -->

<svg
   xmlns:dc="http://purl.org/dc/elements/1.1/"
   xmlns:cc="http://creativecommons.org/ns#"
   xmlns:rdf="http://www.w3.org/1999/02/22-rdf-syntax-ns#"
   xmlns:svg="http://www.w3.org/2000/svg"
   xmlns="http://www.w3.org/2000/svg"
   xmlns:sodipodi="http://sodipodi.sourceforge.net/DTD/sodipodi-0.dtd"
   xmlns:inkscape="http://www.inkscape.org/namespaces/inkscape"
   width="176.45314mm"
   height="246.27022mm"
   viewBox="0 0 625.22766 872.611"
   id="svg2"
   version="1.1"
   inkscape:version="0.91 r13725"
   sodipodi:docname="4.svg">
  <defs
     id="defs4">
    <pattern
       y="0"
       x="0"
       height="6"
       width="6"
       patternUnits="userSpaceOnUse"
       id="EMFhbasepattern" />
    <pattern
       y="0"
       x="0"
       height="6"
       width="6"
       patternUnits="userSpaceOnUse"
       id="EMFhbasepattern-1" />
    <pattern
       y="0"
       x="0"
       height="6"
       width="6"
       patternUnits="userSpaceOnUse"
       id="EMFhbasepattern-14" />
    <pattern
       y="0"
       x="0"
       height="6"
       width="6"
       patternUnits="userSpaceOnUse"
       id="EMFhbasepattern-4" />
    <pattern
       y="0"
       x="0"
       height="6"
       width="6"
       patternUnits="userSpaceOnUse"
       id="EMFhbasepattern-9" />
    <pattern
       y="0"
       x="0"
       height="6"
       width="6"
       patternUnits="userSpaceOnUse"
       id="EMFhbasepattern-8" />
  </defs>
  <sodipodi:namedview
     id="base"
     pagecolor="#ffffff"
     bordercolor="#666666"
     borderopacity="1.0"
     inkscape:pageopacity="0.0"
     inkscape:pageshadow="2"
     inkscape:zoom="0.24748737"
     inkscape:cx="-138.12618"
     inkscape:cy="-360.05688"
     inkscape:document-units="px"
     inkscape:current-layer="layer1"
     showgrid="false"
     fit-margin-top="0"
     fit-margin-left="0"
     fit-margin-right="0"
     fit-margin-bottom="0"
     inkscape:window-width="784"
     inkscape:window-height="822"
     inkscape:window-x="800"
     inkscape:window-y="0"
     inkscape:window-maximized="0" />
  <metadata
     id="metadata7">
    <rdf:RDF>
      <cc:Work
         rdf:about="">
        <dc:format>image/svg+xml</dc:format>
        <dc:type
           rdf:resource="http://purl.org/dc/dcmitype/StillImage" />
        <dc:title></dc:title>
      </cc:Work>
    </rdf:RDF>
  </metadata>
  <g
     inkscape:label="Calque 1"
     inkscape:groupmode="layer"
     id="layer1"
     transform="translate(-185.89922,1543.2757)">
    <g
       transform="translate(-236.34439,-1471.6018)"
       id="g4050">
      <path
         style="fill:#fdfdfd"
         d="m 422.35757,364.6871 0,-436.250004 312.5,0 312.50003,0 0,436.250004 0,436.25 -312.50003,0 -312.5,0 0,-436.25 z"
         id="path4066"
         inkscape:connector-curvature="0" />
      <path
         style="fill:#f8dce7"
         d="m 428.4828,799.37883 c -1.89593,-0.75392 -3.84873,-2.94867 -4.6875,-5.26826 -2.06679,-5.7156 -2.07005,-853.122324 -0.003,-858.837804 0.96852,-2.678387 2.72286,-4.43273 5.40125,-5.401248 5.69847,-2.060592 605.63015,-2.060592 611.32865,0 2.6784,0.968518 4.4327,2.722861 5.4012,5.401248 2.0638,5.707309 2.0638,853.121354 0,858.828654 -0.9685,2.67839 -2.7228,4.43274 -5.4012,5.40125 -5.3416,1.93154 -607.17666,1.80976 -612.03909,-0.12387 z m 609.3031,-3.57957 c 1.6753,-0.76331 3.6705,-2.75854 4.4338,-4.43381 1.0084,-2.2132 1.3879,-118.86907 1.3879,-426.67835 0,-307.809291 -0.3795,-424.465156 -1.3879,-426.678348 -0.7633,-1.675287 -2.7585,-3.670504 -4.4338,-4.433816 -4.3418,-1.978277 -601.51483,-1.978277 -605.85667,0 -1.67529,0.763312 -3.67051,2.758529 -4.43382,4.433816 -1.98519,4.357023 -1.98048,849.010008 0.005,853.367148 0.76593,1.68103 2.59406,3.63817 4.0625,4.34921 3.90912,1.89282 602.07109,1.96599 606.22319,0.0741 z M 462.38311,758.1246 c -3.0273,-1.54688 -6.66211,-4.40063 -8.07736,-6.34167 l -2.57318,-3.52916 0,-383.56667 0,-383.566678 2.57318,-3.529164 c 1.41525,-1.941038 5.05006,-4.794787 8.07736,-6.341662 l 5.50418,-2.8125 266.97028,0 266.97023,0 5.5042,2.8125 c 3.0273,1.546875 6.6621,4.400624 8.0774,6.341662 l 2.5732,3.529164 0,383.566678 0,383.56667 -2.5732,3.52916 c -1.4153,1.94104 -5.0501,4.79479 -8.0774,6.34167 l -5.5042,2.8125 -266.97023,0 -266.97028,0 -5.50418,-2.8125 z m 543.93849,-10.50624 c 2.2051,-1.99553 2.286,-15.53855 2.286,-382.71408 0,-352.440348 -0.1533,-380.814714 -2.0688,-382.931258 -1.9919,-2.201097 -12.0657,-2.285926 -271.46404,-2.285926 -248.92105,0 -269.56907,0.157226 -271.68126,2.068735 -2.20504,1.995527 -2.28593,15.5385475 -2.28593,382.714079 0,352.44035 0.15329,380.81471 2.06874,382.93126 1.99196,2.2011 12.06573,2.28593 271.46407,2.28593 248.92105,0 269.56902,-0.15723 271.68122,-2.06874 z M 577.98257,716.75055 C 563.09801,709.863 555.17061,685.72 562.32398,669.0621 c 3.22524,-7.51054 8.6932,-13.41733 21.53576,-23.26409 9.26935,-7.10708 19.93645,-18.68648 22.61431,-24.54841 1.92073,-4.20457 4.91547,-3.39398 8.10669,2.19426 4.51071,7.8988 9.92687,13.38686 22.92944,23.23381 12.8882,9.76034 15.88418,13.1338 20.07193,22.6009 6.5986,14.91724 -0.92074,39.99898 -13.99034,46.66659 -10.16243,5.18447 -21.90176,1.82657 -29.31894,-8.38636 -2.08464,-2.87042 -4.07151,-5.24635 -4.41526,-5.27985 -0.34375,-0.0335 -1.89051,1.89283 -3.43726,4.28072 -5.98498,9.23974 -19.7968,14.18931 -28.43774,10.19088 z m 250,0 C 813.09801,709.863 805.17061,685.72 812.32398,669.0621 c 3.22524,-7.51054 8.6932,-13.41733 21.53576,-23.26409 9.26935,-7.10708 19.93646,-18.68648 22.61431,-24.54841 1.92073,-4.20457 4.91547,-3.39398 8.10669,2.19426 4.51071,7.8988 9.92687,13.38686 22.92944,23.23381 12.8882,9.76034 15.88418,13.1338 20.07193,22.6009 6.5986,14.91724 -0.92074,39.99898 -13.99034,46.66659 -10.16243,5.18447 -21.90176,1.82657 -29.31894,-8.38636 -2.08463,-2.87042 -4.07151,-5.24635 -4.41526,-5.27985 -0.34375,-0.0335 -1.89051,1.89283 -3.43726,4.28072 -5.98498,9.23974 -19.7968,14.18931 -28.43774,10.19088 z m 115.20834,-12.89679 c -0.45834,-0.45833 -0.83334,-3.80014 -0.83334,-7.42623 0,-3.62608 -0.5625,-6.94053 -1.25,-7.36543 -1.45126,-0.89693 -1.71495,-8.125 -0.29641,-8.125 0.52447,0 1.50885,-1.26563 2.1875,-2.8125 1.65215,-3.7658 6.28076,-4.32935 8.34961,-1.01658 0.965,1.54519 2.93076,2.57908 4.90374,2.57908 13.67241,0 14.5593,4.22993 3.47266,16.5625 -6.40615,7.12607 -8.21576,8.4375 -11.64276,8.4375 -2.23172,0 -4.43268,-0.375 -4.891,-0.83334 z m 16.69236,-41.81064 c -1.70461,-0.68071 -4.06784,-2.11416 -5.2516,-3.18546 -1.95957,-1.77339 -2.4527,-1.71153 -5.50677,0.69081 -7.72748,6.07843 -17.50182,1.61809 -20.39156,-9.30531 -2.19845,-8.31029 -0.21431,-12.27908 11.95467,-23.91238 5.97974,-5.71652 11.3311,-10.39368 11.89191,-10.39368 0.56081,0 3.72469,2.67187 7.03084,5.9375 3.30616,3.26562 8.05876,7.75112 10.56135,9.96778 5.70531,5.05345 7.61994,11.26223 5.75585,18.66518 -1.23334,4.898 -6.2492,11.67954 -8.63862,11.67954 -0.53751,0 -1.72643,0.24607 -2.64203,0.54683 -0.91562,0.30077 -3.05943,-0.01 -4.76404,-0.69081 z M 511.85606,109.07515 c -1.12146,-1.71158 -4.98303,-5.43092 -8.58126,-8.26518 -8.34462,-6.572937 -11.33406,-11.273562 -11.33327,-17.820537 10e-4,-11.306887 8.31278,-19.990612 16.24644,-16.97425 1.94702,0.740263 4.49803,2.2129 5.66892,3.272538 1.92868,1.745437 2.44436,1.678475 5.48336,-0.712 7.72747,-6.078425 17.50181,-1.618088 20.39155,9.305312 2.19845,8.310288 0.2143,12.279076 -11.95466,23.912377 -5.97975,5.71652 -11.54947,10.39369 -12.37716,10.39369 -0.82768,0 -2.42245,-1.40038 -3.54392,-3.11195 z m 93.50008,-3.45055 C 600.85788,98.345083 591.98078,89.341034 582.83482,82.781183 561.66022,67.593908 555.51999,52.109005 562.43394,31.33259 c 5.10014,-15.325922 16.86963,-23.573979 28.98394,-20.311937 5.09281,1.371354 15.64609,10.298819 17.63293,14.916443 0.65142,1.513991 0.95492,1.550837 1.5763,0.191369 1.7047,-3.729584 8.6449,-10.479533 13.12481,-12.765012 13.86676,-7.074292 28.94784,1.604228 34.28621,19.730253 3.13913,10.658671 2.78969,18.624387 -1.19921,27.337315 -4.07495,8.900863 -6.13421,11.214625 -18.23135,20.48455 -10.59135,8.116063 -19.38229,17.112563 -24.23847,24.805249 -1.81109,2.86895 -3.84128,5.21628 -4.51153,5.21628 -0.67025,0 -2.69589,-2.39063 -4.50143,-5.3125 z m 250,0 C 850.85788,98.345083 841.98078,89.341034 832.83482,82.781183 811.66022,67.593908 805.51999,52.109005 812.43394,31.33259 c 5.10014,-15.325922 16.86963,-23.573979 28.98394,-20.311937 5.09281,1.371354 15.64609,10.298819 17.63293,14.916443 0.65142,1.513991 0.95492,1.550837 1.5763,0.191369 1.7047,-3.729584 8.6449,-10.479533 13.12481,-12.765012 13.86676,-7.074292 28.94784,1.604228 34.28621,19.730253 3.13913,10.658671 2.78969,18.624387 -1.19921,27.337315 -4.07495,8.900863 -6.13421,11.214625 -18.23135,20.48455 -10.59135,8.116063 -19.38229,17.112563 -24.23848,24.805249 -1.81108,2.86895 -3.84127,5.21628 -4.51152,5.21628 -0.67025,0 -2.69589,-2.39063 -4.50143,-5.3125 z M 518.41577,52.442036 c -1.17144,-1.661473 -3.71896,-2.581321 -8.37894,-3.025434 -6.02155,-0.573877 -8.85406,-2.19361 -8.91012,-5.095146 -0.0105,-0.544851 3.49648,-4.862281 7.79336,-9.594289 11.78751,-12.981195 17.49356,-13.393147 18.19588,-1.313663 0.21086,3.626657 1.19523,7.405776 2.1875,8.398042 2.2124,2.212405 2.26506,3.444122 0.24162,5.651554 -0.85938,0.937516 -2.18245,2.80582 -2.94016,4.151786 -1.87265,3.326485 -6.12419,3.75591 -8.18914,0.82715 z"
         id="path4064"
         inkscape:connector-curvature="0" />
      <path
         style="fill:#f2a9c6"
         d="m 429.56078,798.98036 c -7.80201,-4.23333 -7.20321,31.86901 -7.20321,-434.29326 0,-377.551682 0.21218,-425.534474 1.89616,-428.79092 4.16641,-8.056952 -20.72942,-7.459084 310.60384,-7.459084 331.33323,0 306.43743,-0.597868 310.60383,7.459084 1.684,3.256446 1.8962,51.239238 1.8962,428.79092 0,377.55167 -0.2122,425.53447 -1.8962,428.79091 -4.1672,8.05846 20.7715,7.46406 -310.85426,7.40904 -264.35141,-0.0439 -302.04742,-0.27948 -305.04636,-1.90669 z m 608.35632,-1.63756 c 2.0265,-1.18888 4.6573,-3.81964 5.8462,-5.84614 2.0367,-3.47179 2.1668,-28.08965 2.2529,-426.30501 0.082,-377.437809 -0.1136,-423.031384 -1.8261,-426.464085 -1.0546,-2.113994 -3.8992,-5.012915 -6.3214,-6.442047 l -4.404,-2.598422 -298.60713,0 -298.6071,0 -4.404,2.598422 c -2.4222,1.429132 -5.26685,4.328054 -6.32145,6.442047 -1.71245,3.432701 -1.90768,49.026276 -1.82609,426.464085 0.0861,398.21536 0.21619,422.83322 2.25294,426.30501 1.18887,2.0265 3.81964,4.65726 5.84614,5.84614 3.46454,2.0325 21.56176,2.16157 303.05956,2.16157 281.49783,0 299.59503,-0.12907 303.05953,-2.16157 z M 462.30993,756.8746 c -3.62985,-1.83043 -6.34052,-4.34018 -7.76292,-7.1875 -2.06638,-4.13644 -2.18556,-25.13035 -2.18556,-385 0,-359.8696477 0.11918,-380.863572 2.18556,-385.000004 1.4224,-2.84733 4.13307,-5.357074 7.76292,-7.1875 l 5.57736,-2.8125 266.97028,0 266.97023,0 5.5774,2.8125 c 3.6299,1.830426 6.3405,4.34017 7.7629,7.1875 2.0664,4.136432 2.1856,25.1303563 2.1856,385.000004 0,359.86965 -0.1191,380.86356 -2.1856,385 -1.4224,2.84732 -4.133,5.35707 -7.7629,7.1875 l -5.5774,2.8125 -266.97023,0 -266.97028,0 -5.57736,-2.8125 z m 544.65457,-8.65539 2.8931,-2.7179 0,-380.63904 0,-380.639047 -2.7179,-2.893063 -2.7179,-2.893064 -269.38906,0 -269.38904,0 -2.89307,2.717893 -2.89306,2.717892 0,380.639039 0,380.63905 2.71789,2.89306 2.7179,2.89307 269.38904,0 269.389,0 2.8931,-2.71789 z M 628.46391,716.6828 c -6.60306,-2.31617 -11.3192,-6.07378 -14.85634,-11.83687 -3.50924,-5.71763 -4.49744,-6.21145 -5.58335,-2.79005 -0.4135,1.30283 -3.48094,4.92154 -6.81651,8.04158 -10.0103,9.36347 -20.53388,9.51279 -29.5619,0.41944 -10.04067,-10.11333 -13.82266,-28.54318 -8.38064,-40.83919 3.43336,-7.75751 7.84369,-12.67661 18.95753,-21.14441 10.35967,-7.8932 17.96931,-15.62742 23.29757,-23.67898 1.88074,-2.84197 3.89282,-5.16722 4.47131,-5.16722 0.57848,0 1.86994,1.58211 2.86989,3.51582 3.02606,5.85176 13.15646,16.31811 22.52226,23.26918 15.19061,11.27407 20.23858,17.71658 23.2489,29.67167 2.36194,9.3801 -2.46078,26.00223 -9.85526,33.96743 -6.14021,6.61411 -13.45031,8.979 -20.31346,6.5716 z m 250,0 c -6.60306,-2.31617 -11.3192,-6.07378 -14.85634,-11.83687 -3.50924,-5.71763 -4.49744,-6.21145 -5.58335,-2.79005 -0.4135,1.30283 -3.48094,4.92154 -6.81651,8.04158 -10.0103,9.36347 -20.53388,9.51279 -29.5619,0.41944 -10.04067,-10.11333 -13.82266,-28.54318 -8.38064,-40.83919 3.43336,-7.75751 7.84369,-12.67661 18.95753,-21.14441 10.35967,-7.8932 17.96931,-15.62742 23.29757,-23.67898 1.88074,-2.84197 3.89283,-5.16722 4.47131,-5.16722 0.57848,0 1.86994,1.58211 2.86989,3.51582 3.02606,5.85176 13.15646,16.31811 22.52226,23.26918 15.19061,11.27407 20.23858,17.71658 23.2489,29.67167 2.36194,9.3801 -2.46079,26.00223 -9.85526,33.96743 -6.14021,6.61411 -13.45031,8.979 -20.31346,6.5716 z m 65.977,-14.07904 c -0.45834,-0.45833 -0.83334,-3.55971 -0.83334,-6.89196 0,-3.33224 -0.65734,-7.11119 -1.46076,-8.39767 -1.15741,-1.85331 -1.01544,-3.27746 0.68365,-6.85803 2.39667,-5.05062 4.97895,-5.76314 7.3172,-2.019 1.15654,1.85191 2.91503,2.5 6.78336,2.5 11.70075,0 12.11815,3.74848 1.63551,14.6875 -7.02521,7.33105 -11.54206,9.56272 -14.12562,6.97916 z m 9.6187,-12.29166 c 0.43827,-1.14214 0.002,-1.875 -1.11626,-1.875 -1.00968,0 -1.83578,0.84375 -1.83578,1.875 0,1.03125 0.50233,1.875 1.11626,1.875 0.61395,0 1.44004,-0.84375 1.83578,-1.875 z m -15.45204,-29.02029 c -3.82649,-1.37328 -7.26819,-5.68721 -8.74474,-10.9609 -2.36297,-8.43974 -0.38049,-12.37591 11.88889,-23.60498 l 10.61721,-9.71698 10.57641,9.62781 c 12.26294,11.16306 14.28748,15.19177 11.90697,23.69415 -2.90533,10.37679 -10.25293,13.98905 -17.89959,8.79989 -4.68959,-3.18245 -4.70934,-3.18439 -8.08561,-0.79745 -4.00515,2.83155 -7.66917,3.88811 -10.25954,2.95846 z M 504.67176,100.59583 C 492.75574,89.260759 491.1558,85.863308 493.71355,77.326296 c 3.0011,-10.016788 10.28941,-13.42895 17.79887,-8.3329 l 4.70107,3.190237 3.66087,-2.706599 c 7.65003,-5.655913 15.8334,-2.02205 18.72794,8.316249 2.35881,8.424838 0.3752,12.380763 -11.79156,23.515897 -5.78593,5.29535 -10.70174,9.61498 -10.92402,9.59915 -0.22228,-0.0159 -5.26901,-4.65643 -11.21496,-10.3125 z m 98.2393,-0.31695 C 599.01981,94.978696 592.64851,88.845334 584.72424,82.771246 569.43456,71.051408 565.42859,66.224458 562.18896,55.617521 c -2.48621,-8.140174 -2.50543,-8.776151 -0.53283,-17.64263 6.07451,-27.303735 28.21564,-35.42638 43.0352,-15.787795 2.33459,3.09375 4.69258,5.625 5.23996,5.625 0.54739,0 2.71594,-2.375346 4.81901,-5.278548 10.06258,-13.8909882 28.65233,-13.6406145 37.62432,0.506739 5.14454,8.112105 8.11579,22.133474 6.20936,29.302123 -2.98455,11.222636 -7.48112,17.271448 -20.71726,27.868874 -12.61893,10.103287 -22.10496,19.873716 -24.58953,25.326736 -0.72649,1.59449 -2.00843,2.89908 -2.84875,2.89908 -0.84031,0 -4.22313,-3.6712 -7.51738,-8.15822 z m 250,0 C 849.01981,94.978696 842.64851,88.845334 834.72425,82.771246 819.43456,71.051408 815.4286,66.224458 812.18896,55.617521 c -2.48621,-8.140174 -2.50543,-8.776151 -0.53283,-17.64263 6.07451,-27.303735 28.21564,-35.42638 43.0352,-15.787795 2.33459,3.09375 4.69258,5.625 5.23997,5.625 0.54738,0 2.71593,-2.375346 4.819,-5.278548 10.06258,-13.8909882 28.65233,-13.6406145 37.62432,0.506739 5.14454,8.112105 8.11579,22.133474 6.20936,29.302123 -2.98455,11.222636 -7.48112,17.271448 -20.71726,27.868874 -12.61892,10.103287 -22.10496,19.873716 -24.58952,25.326736 -0.7265,1.59449 -2.00844,2.89908 -2.84875,2.89908 -0.84032,0 -4.22314,-3.6712 -7.51739,-8.15822 z M 519.56748,50.937096 c -1.17034,-1.874013 -2.91503,-2.5 -6.96777,-2.5 -5.7404,0 -10.24214,-1.720993 -10.24214,-3.915517 0,-0.730158 3.77367,-5.236399 8.38593,-10.01387 6.65605,-6.894472 9.0412,-8.609915 11.5625,-8.315963 2.91538,0.339898 3.20849,0.934425 3.56472,7.230514 0.22875,4.04303 1.20661,7.764556 2.38123,9.0625 1.77707,1.963637 1.78946,2.439427 0.11435,4.389836 -1.0333,1.203125 -2.22783,3.171875 -2.6545,4.375 -1.04008,2.932813 -4.21855,2.77115 -6.14432,-0.3125 z M 518.60757,38.90904 c 0,-1.660988 -0.33936,-1.746408 -1.875,-0.471944 -1.03125,0.855861 -1.875,1.768486 -1.875,2.028056 0,0.259569 0.84375,0.471944 1.875,0.471944 1.03125,0 1.875,-0.912625 1.875,-2.028056 z"
         id="path4062"
         inkscape:connector-curvature="0" />
      <path
         style="fill:#ef8eb4"
         d="m 431.53943,799.98046 c -0.79372,-0.5051 135.69944,-0.91836 303.31814,-0.91836 167.6187,0 304.11183,0.41326 303.31813,0.91836 -0.7937,0.5051 -137.28688,0.91835 -303.31813,0.91835 -166.03125,0 -302.52441,-0.41325 -303.31814,-0.91835 z m -8.42312,-8.5206 c -1.09585,-2.85573 -0.89901,-852.117185 0.1979,-853.8409 0.5051,-0.793724 0.91836,191.44065 0.91836,427.1875 0,235.74685 -0.0804,428.63064 -0.17876,428.63064 -0.0983,0 -0.5202,-0.88975 -0.9375,-1.97724 z M 1045.4826,364.6871 c 0,-235.6812 0.4132,-427.861864 0.9183,-427.06814 1.2008,1.886972 1.2008,852.2493 0,854.13627 -0.5051,0.79373 -0.9183,-191.38693 -0.9183,-427.06813 z M 461.56596,756.03952 c -2.15413,-1.31352 -4.82601,-3.68659 -5.9375,-5.27346 -1.85052,-2.64199 -2.02089,-35.19911 -2.02089,-386.18853 l 0,-383.303288 2.61037,-3.318547 c 5.93562,-7.54592 -14.99914,-7.018599 278.63963,-7.018599 293.63873,0 272.70403,-0.527321 278.63963,7.018599 l 2.6104,3.318547 0,383.412858 0,383.41285 -2.6104,3.31855 c -5.9358,7.54617 15.0245,7.01902 -278.89006,7.01392 -262.72193,-0.005 -269.21775,-0.0615 -273.04118,-2.3929 z m 546.06944,-7.32465 2.8472,-2.84722 0,-381.18055 0,-381.180559 -2.8473,-2.847223 -2.8472,-2.847222 -269.93053,0 -269.93056,0 -2.84722,2.847194 -2.84722,2.847192 -0.29743,379.652798 c -0.23733,302.94883 0.0202,380.2792 1.27464,382.75318 0.86463,1.7052 2.96722,3.8084 4.67242,4.67377 2.46865,1.25283 57.78912,1.51254 271.50321,1.27464 l 268.40279,-0.29877 2.8472,-2.84723 z M 626.73257,715.51633 c -5.56765,-2.5292 -11.0651,-7.55635 -13.78374,-12.60455 -1.32537,-2.46107 -2.70374,-4.45956 -3.06301,-4.44106 -0.35929,0.0185 -2.0595,2.35349 -3.77825,5.18889 -4.26141,7.03 -12.67356,12.27749 -19.6818,12.27749 -11.36435,0 -19.61163,-8.05815 -23.60873,-23.06734 -4.92591,-18.49683 0.84239,-29.33205 26.16696,-49.15226 4.63429,-3.62703 10.99567,-10.09578 14.13639,-14.375 3.14072,-4.27922 6.15313,-7.94473 6.69425,-8.14555 0.54112,-0.20084 2.08535,1.50173 3.43163,3.78351 4.26728,7.23249 10.54797,13.50665 22.83692,22.81317 20.17942,15.28204 25.59512,27.12184 20.74307,45.34845 -4.75213,17.85129 -18.13954,27.80465 -30.09369,22.37425 z m 250,0 c -5.56765,-2.5292 -11.0651,-7.55635 -13.78374,-12.60455 -1.32537,-2.46107 -2.70374,-4.45956 -3.06301,-4.44106 -0.35929,0.0185 -2.0595,2.35349 -3.77825,5.18889 -4.26141,7.03 -12.67356,12.27749 -19.6818,12.27749 -11.36435,0 -19.61162,-8.05815 -23.60873,-23.06734 -4.92591,-18.49683 0.84239,-29.33205 26.16696,-49.15226 4.6343,-3.62703 10.99567,-10.09578 14.1364,-14.375 3.14071,-4.27922 6.15312,-7.94473 6.69425,-8.14555 0.54111,-0.20084 2.08534,1.50173 3.43162,3.78351 4.26728,7.23249 10.54798,13.50665 22.83693,22.81317 20.17941,15.28204 25.59511,27.12184 20.74306,45.34845 -4.75213,17.85129 -18.13954,27.80465 -30.09369,22.37425 z m 68.16897,-14.49706 c -0.71168,-1.3298 -1.29397,-4.87355 -1.29397,-7.875 0,-3.00145 -0.5869,-6.04407 -1.30422,-6.7614 -1.7755,-1.7755 2.48012,-9.17734 5.28248,-9.18787 1.1568,-0.004 2.4517,1.0899 2.87755,2.43166 0.62774,1.97781 2.12009,2.51015 7.88459,2.8125 5.1302,0.26907 7.20425,0.8951 7.44766,2.24794 0.44054,2.44838 -14.77646,18.75 -17.50247,18.75 -1.1537,0 -2.67993,-1.08803 -3.39162,-2.41783 z m 9.97664,-13.06156 c -1.67057,-1.67058 -5.68767,2.13879 -4.41942,4.19086 0.64292,1.04028 1.57835,0.83478 3.30245,-0.72551 1.6515,-1.49459 2.00158,-2.58074 1.11697,-3.46535 z m -19.05784,-29.47825 c -4.34828,-3.42035 -6.41959,-9.09063 -5.58736,-15.29549 0.61051,-4.55166 2.00541,-6.43304 11.09893,-14.96974 5.72036,-5.37008 10.59952,-9.7668 10.84257,-9.77047 0.24305,-0.004 5.14984,4.26751 10.90396,9.49151 7.9305,7.19985 10.65064,10.50338 11.24138,13.65229 1.07555,5.73317 -0.34941,11.22652 -4.05426,15.62947 -3.9656,4.71285 -8.83707,4.8805 -14.06208,0.48395 l -3.84591,-3.23612 -3.84591,3.23612 c -4.59718,3.86827 -8.46191,4.10533 -12.69132,0.77848 z M 505.20355,99.955659 c -6.24413,-5.858113 -10.5915,-10.996138 -11.07507,-13.089275 -2.00117,-8.662088 4.01389,-19.679288 10.7443,-19.679288 1.98792,0 5.23099,1.420375 7.38888,3.236113 l 3.84591,3.236125 3.84591,-3.236125 c 4.59717,-3.868263 8.46191,-4.105326 12.69132,-0.778476 4.34828,3.42035 6.4196,9.090625 5.58735,15.295488 -0.61051,4.551662 -2.0054,6.433037 -11.09892,14.969738 -5.72036,5.370091 -10.68191,9.747021 -11.02566,9.726541 -0.34375,-0.0205 -5.25056,-4.37688 -10.90402,-9.680842 z m 99.86236,1.918941 C 600.67048,95.497696 590.14962,85.425946 582.20722,79.991671 568.01873,70.283759 559.95866,56.116521 561.51235,43.616162 564.22816,21.766046 575.47547,9.9142747 590.7721,12.78394 c 4.51246,0.846542 13.49313,8.553286 17.51231,15.028156 1.52196,2.451868 1.5935,2.439835 3.716,-0.625 1.1903,-1.71875 4.16212,-5.173829 6.60406,-7.677951 13.09019,-13.4235365 31.35396,-6.719705 37.44886,13.745837 3.18134,10.682328 3.21328,15.920859 0.14627,23.992564 -3.37745,8.888737 -7.47414,13.785912 -18.64807,22.2919 -10.13948,7.718525 -22.05326,19.87385 -24.28957,24.782004 -1.9063,4.18388 -4.07113,3.5376 -8.19605,-2.44685 z m 250,0 C 850.67048,95.497696 840.14962,85.425946 832.20722,79.991671 818.01873,70.283759 809.95866,56.116521 811.51235,43.616162 814.22816,21.766046 825.47547,9.9142747 840.7721,12.78394 c 4.51246,0.846542 13.49313,8.553286 17.51231,15.028156 1.52196,2.451868 1.5935,2.439835 3.716,-0.625 1.1903,-1.71875 4.16212,-5.173829 6.60406,-7.677951 13.09019,-13.4235365 31.35396,-6.719705 37.44886,13.745837 3.18134,10.682328 3.21328,15.920859 0.14627,23.992564 -3.37745,8.888737 -7.47414,13.785912 -18.64807,22.2919 -10.13948,7.718525 -22.05326,19.87385 -24.28957,24.782004 -1.9063,4.18388 -4.07113,3.5376 -8.19605,-2.44685 z M 519.23257,49.687096 c -0.66593,-2.098161 -1.89129,-2.5 -7.62347,-2.5 -9.87711,0 -10.06711,-2.203193 -0.98678,-11.442381 4.04814,-4.118964 8.30556,-8.009594 9.46094,-8.645844 3.41387,-1.879966 6.02431,1.880149 6.02431,8.677511 0,3.250893 0.5869,6.497614 1.30422,7.214937 1.7755,1.775498 -2.48012,9.177343 -5.28248,9.187873 -1.1568,0.0043 -2.46033,-1.117096 -2.89674,-2.492096 z m -0.12968,-9.487803 c 1.26298,-3.291276 -0.5419,-4.607516 -3.11942,-2.274891 -1.30674,1.182589 -2.3759,2.625483 -2.3759,3.206429 0,1.903966 4.71387,1.104896 5.49532,-0.931538 z M 431.53943,-70.606263 c 1.88688,-1.20074 604.74937,-1.20074 606.63627,0 0.7937,0.505097 -135.69943,0.918359 -303.31813,0.918359 -167.6187,0 -304.11186,-0.413262 -303.31814,-0.918359 z"
         id="path4060"
         inkscape:connector-curvature="0" />
      <path
         style="fill:#e85c94"
         d="m 431.53943,799.98046 c -0.79372,-0.5051 135.69944,-0.91836 303.31814,-0.91836 167.6187,0 304.11183,0.41326 303.31813,0.91836 -0.7937,0.5051 -137.28688,0.91835 -303.31813,0.91835 -166.03125,0 -302.52441,-0.41325 -303.31814,-0.91835 z m -8.42312,-8.5206 c -1.09585,-2.85573 -0.89901,-852.117185 0.1979,-853.8409 0.5051,-0.793724 0.91836,191.44065 0.91836,427.1875 0,235.74685 -0.0804,428.63064 -0.17876,428.63064 -0.0983,0 -0.5202,-0.88975 -0.9375,-1.97724 z M 1045.4826,364.6871 c 0,-235.6812 0.4132,-427.861864 0.9183,-427.06814 1.2008,1.886972 1.2008,852.2493 0,854.13627 -0.5051,0.79373 -0.9183,-191.38693 -0.9183,-427.06813 z M 465.43562,757.10743 c -2.08833,-0.60731 -5.46333,-2.84351 -7.5,-4.96935 l -3.70305,-3.86515 0,-383.58583 0,-383.585848 3.67894,-3.839988 c 2.02342,-2.111994 5.67967,-4.395793 8.125,-5.075108 6.10263,-1.695314 531.53949,-1.695314 537.64209,0 2.4454,0.679315 6.1016,2.963114 8.125,5.075108 l 3.679,3.839988 0,383.585848 0,383.58583 -3.679,3.84 c -2.0234,2.11199 -5.6796,4.39579 -8.125,5.0751 -5.66734,1.5744 -532.82344,1.49547 -538.24298,-0.0806 z m 542.60378,-7.98852 3.0682,-3.06818 0,-381.36363 0,-381.36364 -3.0682,-3.068183 -3.0682,-3.068181 -270.11363,0 -270.11364,0 -3.06818,3.068181 -3.06818,3.068183 0,381.36364 0,381.36363 3.06818,3.06818 3.06818,3.06819 270.11364,0 270.11363,0 3.0682,-3.06819 z M 577.75274,713.50777 c -8.873,-4.02847 -15.39517,-17.03786 -15.39517,-30.70781 0,-13.37525 4.72516,-20.91408 21.05933,-33.5994 11.3832,-8.84034 18.07016,-15.62795 23.27191,-23.62213 1.24672,-1.91601 2.70075,-3.32226 3.23116,-3.125 0.53041,0.19727 3.46921,3.77175 6.53066,7.94332 3.5488,4.83558 9.87419,10.8084 17.45181,16.47902 6.53703,4.89191 13.62923,11.00981 15.76044,13.59535 15.70293,19.05036 5.41019,55.46598 -15.67724,55.46598 -8.55859,0 -15.30948,-4.65868 -21.31095,-14.70632 l -2.43777,-4.0813 -4.87718,6.5813 c -5.12606,6.91715 -13.50093,12.22822 -19.20453,12.17887 -1.74495,-0.0151 -5.52607,-1.09594 -8.40247,-2.40188 z m 250,0 c -8.873,-4.02847 -15.39517,-17.03786 -15.39517,-30.70781 0,-13.37525 4.72516,-20.91408 21.05933,-33.5994 11.3832,-8.84034 18.07016,-15.62795 23.27191,-23.62213 1.24672,-1.91601 2.70075,-3.32226 3.23116,-3.125 0.53041,0.19727 3.46921,3.77175 6.53066,7.94332 3.5488,4.83558 9.87419,10.8084 17.45182,16.47902 6.53702,4.89191 13.62922,11.00981 15.76043,13.59535 15.70293,19.05036 5.41019,55.46598 -15.67724,55.46598 -8.55859,0 -15.30948,-4.65868 -21.31095,-14.70632 l -2.43777,-4.0813 -4.87718,6.5813 c -5.12606,6.91715 -13.50093,12.22822 -19.20453,12.17887 -1.74495,-0.0151 -5.52607,-1.09594 -8.40247,-2.40188 z m 117.93817,-12.15401 c -0.45834,-0.45833 -0.83334,-3.27846 -0.83334,-6.26696 0,-2.98849 -0.63169,-6.44513 -1.40376,-7.6814 -1.08354,-1.73502 -0.93364,-3.15688 0.6571,-6.23304 2.35351,-4.55119 4.43274,-5.12473 5.38447,-1.48526 0.52595,2.01122 1.70503,2.5 6.03074,2.5 11.55074,0 11.98356,2.40513 2.26617,12.5928 -6.51072,6.8258 -9.97016,8.70508 -12.10138,6.57386 z m 10.41666,-12.4854 c 0,-2.29919 -4.90422,-2.13531 -5.79796,0.19374 -0.39574,1.03125 -0.36635,2.79531 0.0652,3.92015 0.71516,1.86368 1.00431,1.84648 3.25874,-0.19374 1.36069,-1.23139 2.47397,-2.99545 2.47397,-3.92015 z m 5,-28.8109 c -1.03125,-0.37524 -3.42188,-2.12358 -5.3125,-3.88518 l -3.4375,-3.20291 -3.5059,3.35886 c -6.82547,6.53922 -15.00191,3.54255 -17.70289,-6.48811 -1.9376,-7.19567 0.88038,-13.4356 8.79249,-19.46945 3.43138,-2.6168 7.61545,-6.51299 9.29792,-8.6582 l 3.05907,-3.90037 3.66508,4.4381 c 2.01581,2.44096 5.93996,6.01458 8.72036,7.94141 9.01005,6.24396 11.57721,13.8306 7.78,22.99194 -1.35425,3.26735 -7.17821,8.1629 -9.10655,7.65486 -0.20602,-0.0542 -1.21833,-0.4057 -2.24958,-0.78095 z M 513.12181,106.59918 c -1.1128,-1.69836 -5.01619,-5.34758 -8.67419,-8.109409 -3.658,-2.761813 -7.42471,-6.46735 -8.37048,-8.234525 -3.68401,-6.88365 -0.98048,-18.084787 5.12732,-21.24325 4.07168,-2.10555 6.71501,-1.421487 11.46561,2.9672 l 3.4375,3.175625 3.5059,-3.358862 c 6.82547,-6.539213 15.00192,-3.54255 17.70289,6.488112 1.97518,7.33525 -0.82244,13.28295 -9.39841,19.980863 -3.78915,2.959376 -7.78004,6.739996 -8.86864,8.401416 -2.48694,3.79556 -3.40334,3.78518 -5.9275,-0.0671 z m 93.68226,-3.37766 c -3.99759,-6.767374 -10.59744,-13.267537 -23.88916,-23.528361 -11.0675,-8.543788 -13.32466,-10.931513 -16.67854,-17.6432 -2.93367,-5.870813 -3.8788,-9.444874 -3.8788,-14.66801 0,-21.93397 13.52955,-38.0432955 28.55332,-33.99781 5.25547,1.415148 12.84965,8.055692 15.8518,13.86121 2.37399,4.590795 3.77902,4.649537 6.08113,0.254247 2.0563,-3.925979 8.83105,-10.59198 12.86907,-12.662507 4.2432,-2.175733 13.05993,-1.670993 17.43739,0.998256 8.55735,5.218019 14.2189,17.688152 14.19508,31.266127 -0.0224,12.716812 -6.08222,21.523999 -24.1183,35.052412 -8.02725,6.021037 -17.56108,16.094062 -20.36559,21.517386 -2.31781,4.48216 -3.18195,4.418 -6.0574,-0.44975 z m 250,0 c -3.99759,-6.767374 -10.59744,-13.267537 -23.88916,-23.528361 -11.0675,-8.543788 -13.32467,-10.931513 -16.67854,-17.6432 -2.93367,-5.870813 -3.8788,-9.444874 -3.8788,-14.66801 0,-21.93397 13.52955,-38.0432955 28.55332,-33.99781 5.25547,1.415148 12.84966,8.055692 15.85181,13.86121 2.37398,4.590795 3.77901,4.649537 6.08112,0.254247 2.0563,-3.925979 8.83105,-10.59198 12.86907,-12.662507 4.2432,-2.175733 13.05993,-1.670993 17.43739,0.998256 8.55735,5.218019 14.2189,17.688152 14.19508,31.266127 -0.0224,12.716812 -6.08222,21.523999 -24.1183,35.052412 -8.02725,6.021037 -17.56108,16.094062 -20.36559,21.517386 -2.31781,4.48216 -3.18195,4.418 -6.0574,-0.44975 z M 520.25419,49.818791 c -0.58966,-2.254894 -1.62976,-2.631695 -7.26435,-2.631695 -4.36688,0 -7.10736,-0.640061 -8.15734,-1.905207 -1.33743,-1.611511 -0.31629,-3.170097 6.62411,-10.110497 9.82452,-9.824521 12.60213,-10.189453 13.11818,-1.723512 0.18822,3.087818 1.0029,6.910695 1.81042,8.49528 1.18527,2.325878 1.07814,3.523921 -0.55598,6.217087 -2.62748,4.330308 -4.71403,4.951045 -5.57504,1.658544 z m -0.39662,-10.84835 c 0,-3.96554 -3.18785,-3.748663 -5.94061,0.404155 -1.79915,2.714191 -1.72791,2.8125 2.03814,2.8125 3.35895,0 3.90247,-0.448 3.90247,-3.216655 z M 431.53943,-70.606263 c 1.88688,-1.20074 604.74937,-1.20074 606.63627,0 0.7937,0.505097 -135.69943,0.918359 -303.31813,0.918359 -167.6187,0 -304.11186,-0.413262 -303.31814,-0.918359 z"
         id="path4058"
         inkscape:connector-curvature="0" />
      <path
         style="fill:#e01b6a"
         d="m 583.92007,799.99965 c 83.01562,-0.17743 218.85937,-0.17743 301.875,0 83.01562,0.17742 15.09375,0.32258 -150.9375,0.32258 -166.03125,0 -233.95313,-0.14516 -150.9375,-0.32258 z M 422.97534,364.6871 c 0,-234.09375 0.14387,-329.859379 0.31971,-212.8125 0.17584,117.04687 0.17584,308.57812 0,425.625 -0.17584,117.04687 -0.31971,21.28125 -0.31971,-212.8125 z m 623.74996,0 c 0,-234.09375 0.1439,-329.859379 0.3197,-212.8125 0.1759,117.04687 0.1759,308.57812 0,425.625 -0.1758,117.04687 -0.3197,21.28125 -0.3197,-212.8125 z M 464.23257,755.43853 c -2.0625,-0.91292 -4.875,-2.92076 -6.25,-4.46186 -2.48705,-2.78746 -2.50154,-4.78129 -2.79741,-384.85827 -0.23484,-301.680316 0.0281,-382.688383 1.25,-385.060805 0.85108,-1.652476 3.13553,-4.183726 5.07657,-5.625 l 3.52917,-2.620499 269.81667,0 269.81663,0 3.5292,2.620499 c 1.941,1.441273 4.224,3.972523 5.0732,5.625 2.2619,4.401153 2.2619,762.857855 0,767.259005 -0.8492,1.65247 -3.1321,4.18372 -5.0731,5.625 l -3.5291,2.6205 -268.34592,0.26815 c -220.80005,0.22065 -269.01034,-0.0259 -272.09591,-1.39172 z m 543.99283,-5.01821 3.5072,-3.01676 0,-382.71646 0,-382.716463 -3.5072,-3.016771 -3.5072,-3.01677 -269.86063,0 -269.86059,0 -3.50721,3.01677 -3.5072,3.016771 0,382.716463 0,382.71646 3.5072,3.01676 3.50721,3.01678 269.86059,0 269.86063,0 3.5072,-3.01678 z M 628.17656,714.08401 c -5.88552,-2.06201 -10.07611,-5.85449 -14.18172,-12.83441 -1.71866,-2.92188 -3.58042,-5.3125 -4.13727,-5.3125 -0.55685,0 -2.48469,2.51218 -4.28409,5.58263 -4.35379,7.42918 -10.66096,12.07737 -17.42192,12.83943 -11.6298,1.31085 -20.11697,-7.08063 -23.87569,-23.60648 -1.74514,-7.67278 -1.76367,-9.45625 -0.16195,-15.58988 2.59836,-9.95024 6.0823,-14.36207 19.75024,-25.0104 10.50127,-8.18127 20.75346,-18.66712 24.8004,-25.36563 1.07944,-1.78669 1.31177,-1.77741 2.4406,0.0975 4.34291,7.21344 12.56687,15.58566 22.92026,23.33351 16.90555,12.65107 22.34626,20.72439 22.47115,33.34429 0.21269,21.4929 -13.81628,37.60336 -28.32001,32.52191 z m 250,0 c -5.88552,-2.06201 -10.07611,-5.85449 -14.18172,-12.83441 -1.71866,-2.92188 -3.58042,-5.3125 -4.13727,-5.3125 -0.55685,0 -2.48469,2.51218 -4.28409,5.58263 -4.35379,7.42918 -10.66096,12.07737 -17.42192,12.83943 -11.6298,1.31085 -20.11697,-7.08063 -23.87569,-23.60648 -1.74514,-7.67278 -1.76367,-9.45625 -0.16195,-15.58988 2.59836,-9.95024 6.0823,-14.36207 19.75024,-25.0104 10.50127,-8.18127 20.75346,-18.66712 24.8004,-25.36563 1.07943,-1.78669 1.31177,-1.77741 2.4406,0.0975 4.34291,7.21344 12.56687,15.58566 22.92026,23.33351 16.90555,12.65107 22.34626,20.72439 22.47115,33.34429 0.21269,21.4929 -13.81628,37.60336 -28.32001,32.52191 z m 67.93101,-19.14691 c 0,-3.3 -0.6437,-6.6437 -1.43046,-7.43047 -1.07394,-1.07393 -1.03614,-2.3824 0.15166,-5.25 1.83186,-4.4225 3.21434,-4.86303 4.14099,-1.31953 0.55547,2.12412 1.70501,2.5 7.64578,2.5 4.90477,0 6.99203,0.48523 6.99203,1.62547 0,2.71394 -12.51846,15.87453 -15.09999,15.87453 -2.03335,0 -2.40001,-0.91665 -2.40001,-6 z m 9.27769,-2.64843 c 3.799,-3.9653 3.43214,-6.35157 -0.97646,-6.35157 -3.52752,0 -5.80123,2.22097 -5.80123,5.66666 0,5.3572 2.09821,5.56924 6.77769,0.68491 z m -17.643,-34.10722 c -3.66068,-1.7526 -7.0287,-10.37717 -6.0629,-15.52534 0.55845,-2.97676 3.34952,-6.3623 10.73116,-13.01675 l 9.97641,-8.9936 5.92282,5.18371 c 12.37688,10.83239 13.93568,12.61371 14.72643,16.82879 1.13159,6.03187 -3.11231,15.40084 -7.4718,16.495 -3.4557,0.86732 -9.04552,-1.93989 -10.28272,-5.164 -1.0317,-2.68856 -3.94734,-2.18301 -7.04655,1.22182 -3.37639,3.70935 -6.87858,4.70077 -10.49285,2.97037 z M 509.85757,102.10758 C 497.36063,90.961421 496.21121,89.635696 495.42896,85.465933 c -1.13159,-6.031875 3.11231,-15.400837 7.4718,-16.495 3.45569,-0.867325 9.04552,1.939888 10.28273,5.164 1.00533,2.61985 4.57025,2.206425 6.41263,-0.743687 4.25032,-6.80585 12.62415,-5.242925 15.91012,2.969525 3.35836,8.39335 1.86778,11.919775 -9.29003,21.978387 -5.39816,4.866362 -10.02156,8.833872 -10.27424,8.816692 -0.25267,-0.0172 -2.99065,-2.28892 -6.0844,-5.04827 z m 96.95271,-0.60231 c -4.26672,-6.511849 -11.44871,-13.495749 -23.15002,-22.511537 -13.34065,-10.2789 -16.43935,-14.20685 -19.42148,-24.618987 -1.7338,-6.053569 -1.82609,-8.32117 -0.58504,-14.374998 2.04304,-9.965982 4.42597,-15.261337 8.98957,-19.976606 4.75758,-4.915709 10.89367,-7.112017 16.78295,-6.007182 5.16227,0.968448 14.43366,8.994843 16.69432,14.45254 1.79282,4.328246 5.67189,4.968257 6.88805,1.136463 1.16215,-3.661585 7.83593,-10.967655 11.97241,-13.106721 4.56594,-2.361136 12.78605,-2.30997 17.46325,0.1087 9.30835,4.813536 16.71639,24.241766 13.62335,35.72844 -3.19641,11.870553 -6.35343,15.65449 -26.21007,31.414715 -3.78125,3.001175 -9.56618,8.799138 -12.85539,12.88435 -3.2892,4.085203 -6.44527,7.589053 -7.01349,7.786313 -0.56821,0.19726 -1.99848,-1.1147 -3.17841,-2.91549 z m 250,0 c -4.26672,-6.511849 -11.44871,-13.495749 -23.15002,-22.511537 -13.34065,-10.2789 -16.43935,-14.20685 -19.42148,-24.618987 -1.7338,-6.053569 -1.82609,-8.32117 -0.58503,-14.374998 2.04303,-9.965982 4.42596,-15.261337 8.98956,-19.976606 4.75758,-4.915709 10.89367,-7.112017 16.78295,-6.007182 5.16227,0.968448 14.43366,8.994843 16.69432,14.45254 1.79282,4.328246 5.67189,4.968257 6.88805,1.136463 1.16215,-3.661585 7.83593,-10.967655 11.97241,-13.106721 4.56594,-2.361136 12.78605,-2.30997 17.46325,0.1087 9.30836,4.813536 16.71639,24.241766 13.62335,35.72844 -3.19641,11.870553 -6.35343,15.65449 -26.21007,31.414715 -3.78125,3.001175 -9.56618,8.799138 -12.85539,12.88435 -3.2892,4.085203 -6.44527,7.589053 -7.01349,7.786313 -0.56821,0.19726 -1.99848,-1.1147 -3.17841,-2.91549 z M 520.74538,48.437096 c -0.55442,-2.120115 -1.70502,-2.5 -7.57201,-2.5 -3.80504,0 -7.17782,-0.421875 -7.49506,-0.9375 -0.85992,-1.397671 13.81093,-16.5625 16.02299,-16.5625 1.43001,0 1.90627,1.42586 1.90627,5.707176 0,3.138948 0.56509,6.763053 1.25575,8.053567 0.86554,1.617273 0.80319,3.339646 -0.20064,5.542823 -1.75042,3.841743 -3.03506,4.070132 -3.9173,0.696434 z m 0.14741,-9.214778 c 0.68997,-6.037826 -1.91685,-7.006516 -6.1552,-2.28726 -4.31139,4.800582 -3.73728,6.797454 1.79979,6.259987 3.30527,-0.320834 4.01173,-0.965222 4.35541,-3.972727 z m 63.02728,-110.472675 c 83.01562,-0.177422 218.85937,-0.177422 301.875,0 83.01562,0.177422 15.09375,0.322585 -150.9375,0.322585 -166.03125,0 -233.95313,-0.145163 -150.9375,-0.322585 z"
         id="path4056"
         inkscape:connector-curvature="0" />
      <path
         style="fill:#dd0058"
         d="m 583.92007,799.99965 c 83.01562,-0.17743 218.85937,-0.17743 301.875,0 83.01562,0.17742 15.09375,0.32258 -150.9375,0.32258 -166.03125,0 -233.95313,-0.14516 -150.9375,-0.32258 z M 422.97534,364.6871 c 0,-234.09375 0.14387,-329.859379 0.31971,-212.8125 0.17584,117.04687 0.17584,308.57812 0,425.625 -0.17584,117.04687 -0.31971,21.28125 -0.31971,-212.8125 z m 623.74996,0 c 0,-234.09375 0.1439,-329.859379 0.3197,-212.8125 0.1759,117.04687 0.1759,308.57812 0,425.625 -0.1758,117.04687 -0.3197,21.28125 -0.3197,-212.8125 z M 600.79507,754.99966 c 73.73437,-0.1781 194.39062,-0.1781 268.125,0 73.73437,0.1781 13.40625,0.32381 -134.0625,0.32381 -147.46875,0 -207.79688,-0.14571 -134.0625,-0.32381 z m 28.133,-41.7103 c -4.93272,-1.42294 -11.5885,-7.8563 -14.52073,-14.03551 -2.76557,-5.82803 -6.22336,-6.02372 -8.90972,-0.50425 -5.94909,12.22315 -17.4039,17.71797 -26.80323,12.8574 -10.78675,-5.57805 -16.80768,-23.74035 -12.71317,-38.34955 2.10667,-7.51662 6.88099,-13.18604 18.68384,-22.18675 9.37177,-7.14679 18.75519,-16.41478 22.91551,-22.6336 l 2.09059,-3.125 2.23691,3.125 c 4.93122,6.88898 13.83474,15.40497 23.68312,22.65226 12.01359,8.84065 16.45455,14.59441 18.69134,24.21674 1.31685,5.66493 1.30379,8.3233 -0.0732,14.90502 -0.9218,4.40573 -2.53053,9.66291 -3.57498,11.68264 -2.23463,4.32121 -10.11344,11.54334 -12.59299,11.54334 -0.9511,0 -2.4784,0.22991 -3.394,0.51092 -0.91562,0.28101 -3.48927,-0.0154 -5.71924,-0.65866 z m 250,0 c -4.93273,-1.42294 -11.5885,-7.8563 -14.52073,-14.03551 -2.76557,-5.82803 -6.22336,-6.02372 -8.90972,-0.50425 -5.94909,12.22315 -17.4039,17.71797 -26.80323,12.8574 -10.78675,-5.57805 -16.80768,-23.74035 -12.71317,-38.34955 2.10667,-7.51662 6.88099,-13.18604 18.68384,-22.18675 9.37177,-7.14679 18.75519,-16.41478 22.91551,-22.6336 l 2.09059,-3.125 2.23691,3.125 c 4.93122,6.88898 13.83474,15.40497 23.68312,22.65226 12.01359,8.84065 16.45455,14.59441 18.69134,24.21674 1.31685,5.66493 1.30379,8.3233 -0.0732,14.90502 -0.9218,4.40573 -2.53054,9.66291 -3.57498,11.68264 -2.23463,4.32121 -10.11344,11.54334 -12.59299,11.54334 -0.9511,0 -2.4784,0.22991 -3.394,0.51092 -0.91561,0.28101 -3.48926,-0.0154 -5.71924,-0.65866 z m 68.4295,-15.43804 c 0,-1.11824 0.73286,-1.55454 1.875,-1.11626 1.03125,0.39574 1.875,1.22182 1.875,1.83577 0,0.61394 -0.84375,1.11627 -1.875,1.11627 -1.03125,0 -1.875,-0.8261 -1.875,-1.83578 z m 12.5,-11.21545 c 0,-1.07182 0.5625,-1.94877 1.25,-1.94877 0.6875,0 1.25,0.5293 1.25,1.17622 0,0.64693 -0.5625,1.52388 -1.25,1.94878 -0.6875,0.4249 -1.25,-0.10438 -1.25,-1.17623 z m -14.21875,-0.44596 c -0.33896,-0.54845 -0.0909,-1.81408 0.55123,-2.8125 1.02073,-1.58709 1.31431,-1.58709 2.33505,0 1.23961,1.92741 0.66276,3.80969 -1.16753,3.80969 -0.60635,0 -1.37979,-0.44874 -1.71875,-0.99719 z m -7.97046,-29.67583 c -1.50564,-1.05458 -3.39683,-4.11795 -4.20263,-6.80747 -2.07336,-6.92026 -0.18652,-10.59681 10.22004,-19.91403 l 8.68159,-7.77282 9.30405,8.36014 c 10.14456,9.11537 11.83111,12.67542 9.43887,19.924 -1.4604,4.42505 -5.35847,8.1332 -8.54976,8.1332 -0.95742,0 -3.6793,-2.10938 -6.0486,-4.6875 l -4.30784,-4.6875 -3.36075,3.94718 c -4.17866,4.90782 -7.62759,5.9895 -11.17497,3.5048 z M 506.47367,97.445171 c -5.17781,-4.818125 -9.34801,-9.816663 -9.80635,-11.754188 -1.58016,-6.679925 3.80154,-16.003887 9.2373,-16.003887 0.95742,0 3.6793,2.109375 6.0486,4.6875 l 4.30784,4.6875 3.36075,-3.901013 c 1.84842,-2.145562 4.42439,-4.267687 5.72439,-4.715862 6.13075,-2.113525 12.67435,9.105775 9.61653,16.487987 -1.20647,2.912675 -17.56045,19.155542 -19.0791,18.949462 -0.22058,-0.0299 -4.45506,-3.8268 -9.40996,-8.437499 z m 98.2315,-0.9757 c -3.00994,-3.795388 -9.9726,-10.340113 -15.4726,-14.543837 -13.61396,-10.405326 -17.93197,-14.564138 -20.70329,-19.939988 -3.91681,-7.597913 -4.79086,-13.886714 -3.13609,-22.564117 3.05153,-16.001715 9.98482,-24.109433 20.61708,-24.109433 7.29719,0 12.63305,3.678278 18.38922,12.676627 2.35669,3.684106 4.81283,6.698373 5.45808,6.698373 0.64525,0 3.15644,-3.100327 5.58041,-6.889618 5.39946,-8.440707 10.62805,-11.851037 18.16959,-11.851037 10.81985,0 17.40894,7.342357 20.74417,23.115655 3.09679,14.6456 -2.01331,25.714125 -17.12122,37.084663 -10.41113,7.835637 -18.63329,15.679325 -23.65843,22.569387 l -3.39433,4.654034 -5.47259,-6.900709 z m 250,0 c -3.00994,-3.795388 -9.9726,-10.340113 -15.4726,-14.543837 -13.61396,-10.405326 -17.93197,-14.564138 -20.70329,-19.939988 -3.91681,-7.597913 -4.79086,-13.886714 -3.13609,-22.564117 3.05153,-16.001715 9.98482,-24.109433 20.61708,-24.109433 7.29719,0 12.63305,3.678278 18.38923,12.676627 2.35668,3.684106 4.81282,6.698373 5.45807,6.698373 0.64525,0 3.15644,-3.100327 5.58041,-6.889618 5.39946,-8.440707 10.62805,-11.851037 18.16959,-11.851037 10.81985,0 17.40894,7.342357 20.74418,23.115655 3.09678,14.6456 -2.01332,25.714125 -17.12123,37.084663 -10.41112,7.835637 -18.63329,15.679325 -23.65843,22.569387 l -3.39433,4.654034 -5.47259,-6.900709 z M 521.10757,44.687096 c 0,-1.375 0.5625,-2.5 1.25,-2.5 0.6875,0 1.25,1.125 1.25,2.5 0,1.375 -0.5625,2.5 -1.25,2.5 -0.6875,0 -1.25,-1.125 -1.25,-2.5 z m -13.75,-1.102458 c 0,-0.6875 0.5625,-1.597643 1.25,-2.022542 0.6875,-0.424899 1.25,-0.210043 1.25,0.477458 0,0.687499 -0.5625,1.597643 -1.25,2.022542 -0.6875,0.424899 -1.25,0.210043 -1.25,-0.477458 z m 12.67905,-11.28135 c -1.25747,-0.781262 -1.31676,-1.288046 -0.22934,-1.960112 1.71525,-1.060083 3.00294,-0.12165 2.368,1.725737 -0.26004,0.756575 -1.14251,0.853284 -2.13866,0.234375 z m 80.75845,-58.553632 c 73.73437,-0.1781 194.39062,-0.1781 268.125,0 73.73437,0.178099 13.40625,0.323817 -134.0625,0.323817 -147.46875,0 -207.79688,-0.145718 -134.0625,-0.323817 z m -16.875,-45.000013 c 83.01562,-0.177422 218.85937,-0.177422 301.875,0 83.01562,0.177422 15.09375,0.322585 -150.9375,0.322585 -166.03125,0 -233.95313,-0.145163 -150.9375,-0.322585 z"
         id="path4054"
         inkscape:connector-curvature="0" />
      <path
         style="fill:#111111"
         d="m 583.92007,799.99965 c 83.01562,-0.17743 218.85937,-0.17743 301.875,0 83.01562,0.17742 15.09375,0.32258 -150.9375,0.32258 -166.03125,0 -233.95313,-0.14516 -150.9375,-0.32258 z M 422.97534,364.6871 c 0,-234.09375 0.14387,-329.859379 0.31971,-212.8125 0.17584,117.04687 0.17584,308.57812 0,425.625 -0.17584,117.04687 -0.31971,21.28125 -0.31971,-212.8125 z m 623.74996,0 c 0,-234.09375 0.1439,-329.859379 0.3197,-212.8125 0.1759,117.04687 0.1759,308.57812 0,425.625 -0.1758,117.04687 -0.3197,21.28125 -0.3197,-212.8125 z M 583.92007,-71.250357 c 83.01562,-0.177422 218.85937,-0.177422 301.875,0 83.01562,0.177422 15.09375,0.322585 -150.9375,0.322585 -166.03125,0 -233.95313,-0.145163 -150.9375,-0.322585 z"
         id="path4052"
         inkscape:connector-curvature="0" />
    </g>
  </g>
</svg>
