<?xml version="1.0" encoding="UTF-8" standalone="no"?>
<!-- Created with Inkscape (http://www.inkscape.org/) -->

<svg
   xmlns:dc="http://purl.org/dc/elements/1.1/"
   xmlns:cc="http://creativecommons.org/ns#"
   xmlns:rdf="http://www.w3.org/1999/02/22-rdf-syntax-ns#"
   xmlns:svg="http://www.w3.org/2000/svg"
   xmlns="http://www.w3.org/2000/svg"
   xmlns:sodipodi="http://sodipodi.sourceforge.net/DTD/sodipodi-0.dtd"
   xmlns:inkscape="http://www.inkscape.org/namespaces/inkscape"
   width="176.39108mm"
   height="246.27499mm"
   viewBox="0 0 625.00777 872.62793"
   id="svg2"
   version="1.1"
   inkscape:version="0.91 r13725"
   sodipodi:docname="5.svg">
  <defs
     id="defs4">
    <pattern
       y="0"
       x="0"
       height="6"
       width="6"
       patternUnits="userSpaceOnUse"
       id="EMFhbasepattern" />
    <pattern
       y="0"
       x="0"
       height="6"
       width="6"
       patternUnits="userSpaceOnUse"
       id="EMFhbasepattern-1" />
    <pattern
       y="0"
       x="0"
       height="6"
       width="6"
       patternUnits="userSpaceOnUse"
       id="EMFhbasepattern-14" />
    <pattern
       y="0"
       x="0"
       height="6"
       width="6"
       patternUnits="userSpaceOnUse"
       id="EMFhbasepattern-4" />
    <pattern
       y="0"
       x="0"
       height="6"
       width="6"
       patternUnits="userSpaceOnUse"
       id="EMFhbasepattern-9" />
    <pattern
       y="0"
       x="0"
       height="6"
       width="6"
       patternUnits="userSpaceOnUse"
       id="EMFhbasepattern-8" />
    <pattern
       y="0"
       x="0"
       height="6"
       width="6"
       patternUnits="userSpaceOnUse"
       id="EMFhbasepattern-6" />
    <pattern
       y="0"
       x="0"
       height="6"
       width="6"
       patternUnits="userSpaceOnUse"
       id="EMFhbasepattern-13" />
    <pattern
       y="0"
       x="0"
       height="6"
       width="6"
       patternUnits="userSpaceOnUse"
       id="EMFhbasepattern-44" />
    <pattern
       y="0"
       x="0"
       height="6"
       width="6"
       patternUnits="userSpaceOnUse"
       id="EMFhbasepattern-5" />
  </defs>
  <sodipodi:namedview
     id="base"
     pagecolor="#ffffff"
     bordercolor="#666666"
     borderopacity="1.0"
     inkscape:pageopacity="0.0"
     inkscape:pageshadow="2"
     inkscape:zoom="0.24748737"
     inkscape:cx="194.89346"
     inkscape:cy="-4.7877565"
     inkscape:document-units="px"
     inkscape:current-layer="layer1"
     showgrid="false"
     fit-margin-top="0"
     fit-margin-left="0"
     fit-margin-right="0"
     fit-margin-bottom="0"
     inkscape:window-width="784"
     inkscape:window-height="822"
     inkscape:window-x="800"
     inkscape:window-y="0"
     inkscape:window-maximized="0" />
  <metadata
     id="metadata7">
    <rdf:RDF>
      <cc:Work
         rdf:about="">
        <dc:format>image/svg+xml</dc:format>
        <dc:type
           rdf:resource="http://purl.org/dc/dcmitype/StillImage" />
        <dc:title></dc:title>
      </cc:Work>
    </rdf:RDF>
  </metadata>
  <g
     inkscape:label="Calque 1"
     inkscape:groupmode="layer"
     id="layer1"
     transform="translate(147.12042,1188.0235)">
    <g
       transform="translate(316.80811,-2029.8437)"
       id="g4122">
      <path
         style="fill:#fdfcfd"
         d="m -463.92853,1278.0765 0,-436.25002 312.5,0 312.5,0 0,436.25002 0,436.25 -312.5,0 -312.5,0 0,-436.25 z"
         id="path4138"
         inkscape:connector-curvature="0" />
      <path
         style="fill:#f2a9c6"
         d="m -457.54094,1712.5821 c -6.71212,-3.7202 -6.29564,24.7837 -6.3433,-434.1343 -0.0341,-328.08825 0.3003,-427.25998 1.44907,-429.78125 3.33324,-7.31567 -18.2831,-6.84007 310.88575,-6.84007 231.870377,0 303.26855,0.34869 305.78082,1.49336 7.35539,3.35134 6.84007,-29.40324 6.84007,434.75666 0,464.1599 0.51532,431.4053 -6.84007,434.7566 -5.07456,2.3121 -607.59393,2.0649 -611.77234,-0.251 z m 606.44187,-1.0681 c 4.51749,-2.525 8.42054,-6.2472 8.42054,-8.0304 0,-0.9114 0.5625,-1.6571 1.25,-1.6571 0.83087,0 1.25,-142.0834 1.25,-423.75 0,-281.66668 -0.41913,-423.75002 -1.25,-423.75002 -0.6875,0 -1.25,-0.7457 -1.25,-1.65711 0,-1.78324 -3.90305,-5.50545 -8.42054,-8.03039 -2.2146,-1.23779 -64.62661,-1.5625 -300.32946,-1.5625 -235.70285,0 -298.11487,0.32471 -300.32946,1.5625 -4.51749,2.52494 -8.42054,6.24715 -8.42054,8.03039 0,0.91141 -0.5625,1.65711 -1.25,1.65711 -0.83088,0 -1.25,142.08334 -1.25,423.75002 0,281.6666 0.41912,423.75 1.25,423.75 0.6875,0 1.25,0.7566 1.25,1.6812 0,1.8768 3.56227,5.4171 7.82111,7.7727 4.13022,2.2846 597.17668,2.5149 601.25835,0.2336 z m -573.45446,-40.7632 c -2.0625,-1.274 -4.875,-3.581 -6.25,-5.1266 -2.4885,-2.7973 -2.5,-4.5803 -2.5,-387.5782 l 0,-384.76811 3.125,-3.34447 c 6.87636,-7.3593 -13.54574,-6.85694 278.75,-6.85694 292.29574,0 271.87364,-0.50236 278.75,6.85694 l 3.125,3.34447 0,384.79861 0,384.7986 -3.125,3.3444 c -6.87656,7.3596 13.56991,6.8574 -279.00043,6.8523 -259.82543,0 -269.25414,-0.085 -272.87457,-2.321 z m 545.05681,-9.4925 3.06819,-3.0682 0,-380.1136 0,-380.11366 -3.06819,-3.06818 -3.06817,-3.06818 -268.86364,0 -268.86364,0 -3.06818,3.06818 -3.06818,3.06818 0,380.11366 0,380.1136 3.06818,3.0682 3.06818,3.0682 268.86364,0 268.86364,0 3.06817,-3.0682 z m -380.05681,-31.1679 c -5.24784,-2.2925 -11.62265,-7.9001 -13.827,-12.1628 -1.02421,-1.9806 -2.30197,-3.6011 -2.83948,-3.6011 -0.5375,0 -2.74237,2.5041 -4.89971,5.5648 -7.40212,10.5015 -19.55089,13.5646 -29.85326,7.527 -6.08006,-3.5632 -10.48491,-10.2671 -13.47373,-20.5062 -2.52833,-8.6616 -2.49411,-12.5895 0.18499,-21.2258 1.71605,-5.5317 3.86139,-8.684 10.3125,-15.1525 4.48013,-4.4922 11.57009,-10.7489 15.75547,-13.9037 4.18537,-3.1549 10.59083,-9.7451 14.23437,-14.6449 3.64352,-4.8998 7.09679,-8.9087 7.6739,-8.9087 0.57712,0 2.01246,1.5469 3.18962,3.4375 5.20192,8.3546 11.49729,14.789 22.97112,23.4782 13.73061,10.3983 17.76305,14.9963 21.28823,24.2738 3.05965,8.0524 3.04025,14.0001 -0.0786,24.0977 -3.21479,10.4083 -8.40039,17.4589 -15.29575,20.7969 -6.28348,3.0418 -9.99354,3.2666 -15.34268,0.9298 z m 250,0 c -5.247837,-2.2925 -11.62265,-7.9001 -13.827,-12.1628 -1.024212,-1.9806 -2.301975,-3.6011 -2.839475,-3.6011 -0.5375,0 -2.742375,2.5041 -4.899713,5.5648 -7.402125,10.5015 -19.550887,13.5646 -29.853262,7.527 -6.080063,-3.5632 -10.484913,-10.2671 -13.473725,-20.5062 -2.528338,-8.6616 -2.494113,-12.5895 0.184987,-21.2258 1.71605,-5.5317 3.861388,-8.684 10.3125,-15.1525 4.480125,-4.4922 11.570088,-10.7489 15.755463,-13.9037 4.185375,-3.1549 10.590837,-9.7451 14.234375,-14.6449 3.643525,-4.8998 7.096787,-8.9087 7.6739,-8.9087 0.577125,0 2.012462,1.5469 3.189625,3.4375 5.201912,8.3546 11.497287,14.789 22.9711125,23.4782 13.7306125,10.3983 17.7630495,14.9963 21.2882375,24.2738 3.05965,8.0524 3.04025,14.0001 -0.07863,24.0977 -3.214788,10.4083 -8.400388,17.4589 -15.29575,20.7969 -6.283475,3.0418 -9.9935375,3.2666 -15.342675,0.9298 z m 68.4375,-12.8418 c -0.859375,-0.3467 -1.5625,-1.9898 -1.5625,-3.6513 0,-2.7917 0.474137,-3.0208 6.25,-3.0208 3.4375,0 6.25,-0.5625 6.25,-1.25 0,-0.6875 -2.15195,-1.25 -4.782113,-1.25 -9.132324,0 -13.673987,-10.0674 -7.259975,-16.093 2.566813,-2.4114 4.0939,-2.7295 11.549576,-2.4054 7.249524,0.315 8.661712,0.7405 9.040075,2.7236 0.615199,3.2244 -1.859975,4.4831 -8.860063,4.5056 -4.435938,0.014 -5.9375,0.4934 -5.9375,1.8942 0,1.4062 1.5,1.875 6,1.875 3.3,0 6.675,0.675 7.5,1.5 0.825,0.825 1.5,4.1802 1.5,7.456 0,4.6092 -0.546725,6.2486 -2.417825,7.25 -2.443075,1.3075 -14.385688,1.6298 -17.269675,0.4661 z m -10.812875,-45.6725 c -4.616213,-4.6162 -6.6146,-11.1331 -5.174013,-16.8729 0.913488,-3.6396 21.119125,-24.1267 23.795275,-24.1267 0.875376,0 2.502063,1.3895 3.614876,3.0879 1.1128,1.6984 5.065087,5.3845 8.782862,8.1915 6.985575,5.2741 10.731375,11.1021 10.731375,16.6967 0,5.5879 -3.828325,13.2502 -7.592862,15.1969 -5.0583,2.6157 -7.930675,2.2769 -12.371188,-1.4596 l -3.905862,-3.2866 -2.812638,2.6424 c -1.54695,1.4533 -4.602,3.0002 -6.789,3.4376 -3.399487,0.6799 -4.600563,0.1711 -8.278825,-3.5072 z M -154.43243,1327.0607 c -3.02649,-5.8526 -13.11231,-16.27 -23.14985,-23.9109 -22.37963,-17.0362 -27.55989,-29.8789 -20.60118,-51.0736 2.8211,-8.5924 10.2051,-16.9511 17.40287,-19.6999 5.27441,-2.0143 5.92692,-2.0154 11.1564,-0.018 5.8152,2.2209 15.04116,10.4371 16.34987,14.5605 0.97648,3.0766 2.71163,3.0875 3.6842,0.023 1.25553,-3.9558 11.32699,-12.3397 16.78956,-13.9764 15.51793,-4.6492 30.72463,12.4536 30.7413,34.5745 0.009,10.9638 -4.98011,20.1898 -15.61927,28.8876 -15.4643,12.6425 -24.15035,21.0523 -28.49275,27.5866 -2.39866,3.6093 -4.82961,6.5625 -5.40213,6.5625 -0.57251,0 -1.85907,-1.5822 -2.85902,-3.5159 z m -219.98186,-305.8221 c -1.1128,-1.6984 -5.0651,-5.3845 -8.78287,-8.1915 -6.98558,-5.2742 -10.73137,-11.1022 -10.73137,-16.69673 0,-5.5879 3.82833,-13.25019 7.59286,-15.19692 5.0583,-2.61573 7.93068,-2.27685 12.37119,1.45959 l 3.90586,3.28658 2.81264,-2.64234 c 1.54695,-1.45329 4.602,-3.00021 6.789,-3.43761 7.73517,-1.54703 15.86503,10.76911 13.45284,20.38003 -0.9135,3.6397 -21.11913,24.1268 -23.79528,24.1268 -0.87537,0 -2.50206,-1.3896 -3.61487,-3.0879 z m 93.08057,-4.2644 c -4.40337,-6.862 -14.16877,-16.4746 -22.59481,-22.24122 -14.63109,-10.01321 -23.39863,-24.81201 -22.08738,-37.2815 1.15892,-11.02079 4.71788,-19.52024 10.81247,-25.82205 9.56811,-9.89345 20.33333,-9.89506 30.1183,-0.005 3.17037,3.2046 6.41508,6.95155 7.21046,8.32655 1.44615,2.5 1.44615,2.5 2.89789,0 3.32593,-5.72753 11.87608,-12.91496 17.00725,-14.29664 13.45651,-3.62347 24.86487,5.665 29.84182,24.29664 2.28985,8.5723 2.11964,13.15826 -0.77544,20.89061 -3.24217,8.65941 -8.16641,14.4555 -19.83286,23.34431 -10.60172,8.0776 -18.31135,15.9598 -23.22749,23.7475 -1.78551,2.8284 -3.74318,5.1426 -4.3504,5.1426 -0.6072,0 -2.86612,-2.746 -5.01981,-6.1023 z m 250.000002,0 c -4.403375,-6.862 -14.168775,-16.4746 -22.594812,-22.24122 -14.631088,-10.01321 -23.398625,-24.81201 -22.087375,-37.2815 1.158912,-11.02079 4.717875,-19.52024 10.812463,-25.82205 9.568112,-9.89345 20.333337,-9.89506 30.118299,-0.005 3.170375,3.2046 6.415088,6.95155 7.210463,8.32655 1.44615,2.5 1.44615,2.5 2.897887,0 3.325938,-5.72753 11.876088,-12.91496 17.0072505,-14.29664 13.4565125,-3.62347 24.8648745,5.665 29.8418245,24.29664 2.28985,8.5723 2.119638,13.15826 -0.775437,20.89061 -3.242175,8.65941 -8.166413,14.4555 -19.8328625,23.34431 -10.601725,8.0776 -18.3113505,15.9598 -23.2274875,23.7475 -1.785512,2.8284 -3.743188,5.1426 -4.3504,5.1426 -0.6072,0 -2.866125,-2.746 -5.019813,-6.1023 z M -380.5952,965.99315 c -0.45833,-0.45834 -0.83333,-1.85387 -0.83333,-3.10119 0,-2.43076 2.42416,-3.31083 10.625,-3.8573 7.35645,-0.4902 5.54552,-2.73585 -2.78874,-3.45818 l -7.21126,-0.625 0,-7.5 0,-7.5 10.33221,-0.36337 c 8.74759,-0.30764 10.45619,-0.0403 11.1406,1.74326 1.14005,2.97092 -2.78409,5.46299 -8.89922,5.65157 l -5.07359,0.15646 5.26752,0.8591 c 7.18728,1.1722 10.35748,4.29445 10.35748,10.20084 0,6.5948 -3.25559,8.62714 -13.8198,8.62714 -4.54494,0 -8.63853,-0.375 -9.09687,-0.83333 z"
         id="path4136"
         inkscape:connector-curvature="0" />
      <path
         style="fill:#ee8eb4"
         d="m -454.74667,1713.3698 c -0.79372,-0.5051 135.69944,-0.9183 303.31814,-0.9183 167.6187,0 304.11186,0.4132 303.31814,0.9183 -0.79373,0.5051 -137.28689,0.9184 -303.31814,0.9184 -166.03125,0 -302.52441,-0.4133 -303.31814,-0.9184 z m -8.42312,-8.5206 c -1.09585,-2.8557 -0.89901,-852.11714 0.1979,-853.84086 0.5051,-0.79372 0.91836,191.44066 0.91836,427.18746 0,235.7469 -0.0804,428.6307 -0.17876,428.6307 -0.0983,0 -0.5202,-0.8898 -0.9375,-1.9773 z m 622.36626,-426.7727 c 0,-235.6812 0.41326,-427.86188 0.91836,-427.06816 1.2008,1.88698 1.2008,852.24926 0,854.13626 -0.5051,0.7937 -0.91836,-191.3869 -0.91836,-427.0681 z m -583.91661,391.3524 c -2.15413,-1.3135 -4.82601,-3.6866 -5.9375,-5.2735 -1.85052,-2.6419 -2.02089,-35.1991 -2.02089,-386.1885 l 0,-383.30327 2.61037,-3.31855 c 5.93562,-7.54592 -14.99914,-7.0186 278.63963,-7.0186 293.63876,0 272.70401,-0.52732 278.63963,7.0186 l 2.61037,3.31855 0,383.41287 0,383.4128 -2.61037,3.3186 c -5.93582,7.5462 15.02452,7.019 -278.89006,7.0139 -262.72193,0 -269.21775,-0.062 -273.04118,-2.3929 z m 546.06945,-7.3246 2.84716,-2.8473 0,-381.1805 0,-381.18058 -2.84723,-2.84722 -2.84722,-2.84722 -269.93055,0 -269.93056,0 -2.84722,2.84719 -2.84722,2.8472 -0.29743,379.65283 c -0.23734,302.9488 0.0202,380.2792 1.27464,382.7531 0.86463,1.7052 2.96722,3.8084 4.67242,4.6738 2.46865,1.2528 57.78912,1.5126 271.50321,1.2747 l 268.40282,-0.2988 2.84718,-2.8472 z m -380.90284,-33.1986 c -5.56765,-2.5292 -11.0651,-7.5563 -13.78374,-12.6045 -1.32537,-2.4611 -2.70374,-4.4596 -3.06301,-4.4411 -0.35929,0.018 -2.0595,2.3535 -3.77825,5.1889 -4.26141,7.03 -12.67356,12.2775 -19.6818,12.2775 -11.36435,0 -19.61163,-8.0582 -23.60873,-23.0674 -4.92591,-18.4968 0.84239,-29.332 26.16695,-49.1522 4.6343,-3.627 10.99568,-10.0958 14.1364,-14.375 3.14072,-4.2792 6.15313,-7.9447 6.69425,-8.1456 0.54112,-0.2008 2.08535,1.5018 3.43163,3.7835 4.26727,7.2325 10.54797,13.5067 22.83692,22.8132 20.17942,15.2821 25.59512,27.1219 20.74307,45.3485 -4.75213,17.8513 -18.13954,27.8046 -30.09369,22.3742 z m 250,0 c -5.56765,-2.5292 -11.0651,-7.5563 -13.783738,-12.6045 -1.325375,-2.4611 -2.703737,-4.4596 -3.063012,-4.4411 -0.359288,0.018 -2.0595,2.3535 -3.77825,5.1889 -4.261413,7.03 -12.673563,12.2775 -19.6818,12.2775 -11.36435,0 -19.611625,-8.0582 -23.608725,-23.0674 -4.925912,-18.4968 0.842388,-29.332 26.16695,-49.1522 4.6343,-3.627 10.995675,-10.0958 14.1364,-14.375 3.140713,-4.2792 6.153125,-7.9447 6.69425,-8.1456 0.541112,-0.2008 2.08535,1.5018 3.431625,3.7835 4.267275,7.2325 10.547975,13.5067 22.836925,22.8132 20.179412,15.2821 25.595112,27.1219 20.743062,45.3485 -4.752125,17.8513 -18.139537,27.8046 -30.093687,22.3742 z m 68.19735,-13.867 c -1.973025,-2.3774 1.799625,-4.4622 8.074637,-4.4622 6.252088,0 5.090213,-2.9966 -1.368612,-3.5298 -6.220538,-0.5136 -9.278375,-3.2639 -9.278375,-8.3452 0,-6.1618 3.141788,-8.125 13.002575,-8.125 7.354025,0 8.377737,0.2794 8.01575,2.1875 -0.316812,1.67 -2.038963,2.3353 -7.279163,2.8125 -5.822499,0.5301 -6.864162,1.0044 -6.864162,3.125 0,2.1212 1.041663,2.5947 6.875,3.125 l 6.875,0.625 0.388813,6.129 c 0.257362,4.057 -0.16525,6.4805 -1.25,7.1684 -2.8214,1.7893 -15.553613,1.2632 -17.191463,-0.7102 z m -9.109575,-43.1699 c -4.348288,-3.4203 -6.4196,-9.0906 -5.587363,-15.2954 0.610513,-4.5517 2.005413,-6.4331 11.098925,-14.9698 5.720363,-5.3701 10.599525,-9.7668 10.842575,-9.7705 0.24305,0 5.149838,4.2676 10.903963,9.4916 7.9305,7.1998 10.650637,10.5033 11.241375,13.6522 1.07555,5.7332 -0.349413,11.2266 -4.054263,15.6295 -3.9656,4.7129 -8.837062,4.8805 -14.062075,0.484 l -3.845912,-3.2362 -3.845912,3.2362 c -4.597175,3.8682 -8.461913,4.1053 -12.691313,0.7784 z M -156.24851,1322.764 c -5.0976,-7.3389 -10.4647,-12.5773 -21.50078,-20.9854 -12.18919,-9.2866 -16.56616,-14.3754 -19.8011,-23.0216 -3.27115,-8.7429 -3.30208,-13.7731 -0.14973,-24.358 3.07654,-10.3305 9.1683,-17.8125 16.90983,-20.769 5.277,-2.0153 5.94142,-2.0173 11.13814,-0.033 5.02262,1.9181 12.47907,8.7145 16.66112,15.1861 1.5341,2.374 1.5909,2.3747 3.125,0.037 6.26635,-9.5465 15.03455,-15.6579 22.5498,-15.7171 5.32089,-0.042 13.01584,4.4809 17.01389,10 4.6174,6.3741 8.16216,19.3308 7.32372,26.7694 -1.11371,9.8809 -6.5262,18.9082 -15.66288,26.1234 -12.18377,9.6215 -23.85175,20.7809 -27.98719,26.7672 -2.01846,2.9219 -4.17839,5.3125 -4.79984,5.3125 -0.62145,0 -2.79044,-2.3906 -4.81997,-5.3125 z m -224.83404,-309.419 c -6.24413,-5.8581 -10.5915,-10.9961 -11.07507,-13.0892 -2.00117,-8.66212 4.01389,-19.67932 10.7443,-19.67932 1.98792,0 5.23099,1.42037 7.38888,3.23611 l 3.84591,3.23613 3.84591,-3.23613 c 4.59717,-3.86826 8.46191,-4.10532 12.69132,-0.77847 4.34828,3.42035 6.4196,9.09062 5.58735,15.29548 -0.61051,4.5517 -2.0054,6.433 -11.09892,14.9697 -5.72036,5.3701 -10.68191,9.7471 -11.02566,9.7266 -0.34375,-0.02 -5.25056,-4.3769 -10.90402,-9.6809 z m 99.86236,1.919 c -4.39543,-6.3769 -14.91629,-16.44867 -22.85869,-21.88295 -14.18849,-9.70791 -22.24856,-23.87515 -20.69487,-36.3755 2.71581,-21.85012 13.96312,-33.70189 29.25975,-30.83223 4.51246,0.84655 13.49313,8.55329 17.51231,15.02816 1.52196,2.45187 1.5935,2.43983 3.716,-0.625 1.1903,-1.71875 4.16212,-5.17383 6.60406,-7.67795 13.09019,-13.42354 31.35396,-6.71971 37.44886,13.74584 3.18134,10.68232 3.21328,15.92085 0.14627,23.99256 -3.37745,8.88874 -7.47414,13.78591 -18.64807,22.2919 -10.13948,7.71857 -22.05326,19.87387 -24.28957,24.78197 -1.9063,4.1839 -4.07113,3.5376 -8.19605,-2.4468 z m 249.999998,0 c -4.395426,-6.3769 -14.916288,-16.44867 -22.858688,-21.88295 -14.188488,-9.70791 -22.248563,-23.87515 -20.694875,-36.3755 2.715812,-21.85012 13.963125,-33.70189 29.25975,-30.83223 4.512462,0.84655 13.493137,8.55329 17.512313,15.02816 1.521962,2.45187 1.5935,2.43983 3.716,-0.625 1.1903,-1.71875 4.162125,-5.17383 6.604062,-7.67795 13.0901875,-13.42354 31.353963,-6.71971 37.448863,13.74584 3.181337,10.68232 3.213275,15.92085 0.146262,23.99256 -3.37745,8.88874 -7.474137,13.78591 -18.6480625,22.2919 -10.1394875,7.71857 -22.0532625,19.87387 -24.2895745,24.78197 -1.9063,4.1839 -4.071125,3.5376 -8.19605,-2.4468 z M -379.94554,963.38898 c 0.32907,-1.72911 1.93633,-2.26655 7.67011,-2.56472 6.66493,-0.3466 7.22208,-0.60029 6.86286,-3.125 -0.34343,-2.41372 -1.26477,-2.79336 -7.57846,-3.12266 l -7.1875,-0.37488 0,-6.67888 c 0,-7.62425 0.68846,-8.19636 9.86332,-8.19636 6.85029,0 12.00108,2.87318 8.88668,4.9571 -1.03125,0.69004 -4.26563,1.26323 -7.1875,1.27376 -3.79054,0.0137 -5.3125,0.53668 -5.3125,1.82565 0,1.26169 1.75275,1.92141 5.81172,2.1875 9.37447,0.61455 13.16176,8.10394 7.14211,14.12359 -1.31808,1.31808 -4.50626,1.8824 -10.63477,1.8824 -7.66085,0 -8.70045,-0.27281 -8.33607,-2.1875 z m -74.80113,-120.60586 c 1.88688,-1.20074 604.7494,-1.20074 606.63628,0 0.79372,0.5051 -135.69944,0.91836 -303.31814,0.91836 -167.6187,0 -304.11186,-0.41326 -303.31814,-0.91836 z"
         id="path4134"
         inkscape:connector-curvature="0" />
      <path
         style="fill:#e85c94"
         d="m -454.74667,1713.3698 c -0.79372,-0.5051 135.69944,-0.9183 303.31814,-0.9183 167.6187,0 304.11186,0.4132 303.31814,0.9183 -0.79373,0.5051 -137.28689,0.9184 -303.31814,0.9184 -166.03125,0 -302.52441,-0.4133 -303.31814,-0.9184 z m -8.42312,-8.5206 c -1.09585,-2.8557 -0.89901,-852.11714 0.1979,-853.84086 0.5051,-0.79372 0.91836,191.44066 0.91836,427.18746 0,235.7469 -0.0804,428.6307 -0.17876,428.6307 -0.0983,0 -0.5202,-0.8898 -0.9375,-1.9773 z m 622.36626,-426.7727 c 0,-235.6812 0.41326,-427.86188 0.91836,-427.06816 1.2008,1.88698 1.2008,852.24926 0,854.13626 -0.5051,0.7937 -0.91836,-191.3869 -0.91836,-427.0681 z m -580.04695,392.4203 c -2.08833,-0.6073 -5.46333,-2.8435 -7.5,-4.9693 l -3.70305,-3.8652 0,-383.5858 0,-383.58586 3.67894,-3.83999 c 2.02342,-2.112 5.67967,-4.3958 8.125,-5.07511 6.10263,-1.69531 531.53949,-1.69531 537.64212,0 2.44533,0.67931 6.10158,2.96311 8.125,5.07511 l 3.67894,3.83999 0,383.58586 0,383.5858 -3.67894,3.84 c -2.02342,2.112 -5.67967,4.3958 -8.125,5.0751 -5.66737,1.5744 -532.82347,1.4955 -538.24301,-0.081 z m 542.60376,-7.9885 3.06819,-3.0682 0,-381.3636 0,-381.36366 -3.06819,-3.06818 -3.06817,-3.06818 -270.11364,0 -270.11364,0 -3.06818,3.06818 -3.06818,3.06818 0,381.36366 0,381.3636 3.06818,3.0682 3.06818,3.0682 270.11364,0 270.11364,0 3.06817,-3.0682 z m -430.28664,-35.6111 c -8.873,-4.0285 -15.39517,-17.0379 -15.39517,-30.7079 0,-13.3752 4.72516,-20.914 21.05932,-33.5994 11.38321,-8.8403 18.07017,-15.6279 23.27192,-23.6221 1.24672,-1.916 2.70075,-3.3222 3.23116,-3.125 0.53041,0.1973 3.46921,3.7718 6.53066,7.9433 3.5488,4.8356 9.87419,10.8084 17.45181,16.4791 6.53703,4.8919 13.62923,11.0098 15.76044,13.5953 15.70293,19.0504 5.41019,55.466 -15.67724,55.466 -8.55859,0 -15.30948,-4.6587 -21.31095,-14.7063 l -2.43777,-4.0813 -4.87718,6.5813 c -5.12606,6.9171 -13.50093,12.2282 -19.20453,12.1788 -1.74495,-0.015 -5.52607,-1.0959 -8.40247,-2.4018 z m 250.000005,0 c -8.873,-4.0285 -15.395175,-17.0379 -15.395175,-30.7079 0,-13.3752 4.725162,-20.914 21.059325,-33.5994 11.3832,-8.8403 18.070162,-15.6279 23.271912,-23.6221 1.246725,-1.916 2.70075,-3.3222 3.231163,-3.125 0.530412,0.1973 3.469212,3.7718 6.530662,7.9433 3.5488,4.8356 9.874188,10.8084 17.451813,16.4791 6.537025,4.8919 13.629225,11.0098 15.760437,13.5953 15.702925,19.0504 5.410188,55.466 -15.677237,55.466 -8.5586,0 -15.309488,-4.6587 -21.31095,-14.7063 l -2.437775,-4.0813 -4.877175,6.5813 c -5.126063,6.9171 -13.500938,12.2282 -19.204538,12.1788 -1.74495,-0.015 -5.526062,-1.0959 -8.402462,-2.4018 z M 58.876733,1614.014 c 0.282487,-0.8594 3.282487,-1.8438 6.666675,-2.1875 4.358274,-0.4427 6.153062,-1.1719 6.153062,-2.5 0,-1.3145 -1.8213,-2.0842 -6.092887,-2.5747 -6.579926,-0.7557 -9.532113,-3.3229 -9.532113,-8.2892 0,-5.2494 4.1548,-7.8861 12.426225,-7.8861 11.711187,0 11.21115,4.4882 -0.582962,5.2325 -5.254113,0.3316 -6.218263,0.7801 -6.218263,2.8925 0,2.1022 1.055475,2.606 6.633688,3.1664 6.895787,0.6927 8.938649,2.2965 8.972175,7.0438 0.04225,5.9812 -1.0059,6.6648 -10.218763,6.6648 -6.416938,0 -8.584763,-0.4128 -8.206837,-1.5625 z m 15.944737,-40.5672 c -1.03125,-0.3752 -3.421875,-2.1235 -5.3125,-3.8851 l -3.4375,-3.2029 -3.5059,3.3588 c -6.825475,6.5392 -15.001913,3.5426 -17.702887,-6.4881 -1.9376,-7.1957 0.880375,-13.4356 8.792487,-19.4694 3.431375,-2.6168 7.61545,-6.513 9.297925,-8.6582 l 3.059063,-3.9004 3.665087,4.4381 c 2.0158,2.4409 5.93995,6.0146 8.72035,7.9414 9.01005,6.244 11.577212,13.8306 7.78,22.9919 -1.35425,3.2674 -7.1782,8.1629 -9.10655,7.6549 -0.206013,-0.054 -1.218325,-0.4057 -2.249575,-0.781 z M -156.25621,1321.514 c -4.53823,-6.52 -12.29515,-13.9622 -21.51771,-20.6449 -10.03126,-7.2686 -14.88327,-12.5027 -18.20755,-19.6414 -9.58674,-20.587 5.66948,-51.2404 23.70689,-47.6329 6.11474,1.2229 12.88811,6.3801 16.52074,12.5787 1.82207,3.1091 3.74035,5.653 4.26282,5.653 0.52248,0 2.49324,-2.4415 4.37945,-5.4256 12.1311,-19.1919 34.49426,-14.9352 41.18769,7.84 5.30146,18.0387 0.54032,31.0742 -15.94208,43.6475 -11.04167,8.4229 -19.06551,16.051 -24.105,22.9162 -2.43127,3.312 -4.90806,6.0219 -5.50398,6.0219 -0.59592,0 -2.74749,-2.3906 -4.78127,-5.3125 z m -216.90808,-301.5254 c -1.1128,-1.6984 -5.01619,-5.3476 -8.67419,-8.1094 -3.658,-2.7619 -7.42471,-6.4674 -8.37048,-8.2346 -3.68401,-6.88362 -0.98048,-18.08476 5.12732,-21.24322 4.07168,-2.10555 6.71501,-1.42149 11.46561,2.9672 l 3.4375,3.17563 3.5059,-3.35887 c 6.82547,-6.53921 15.00192,-3.54255 17.70289,6.48811 1.97518,7.33525 -0.82244,13.28295 -9.39841,19.98085 -3.78915,2.9594 -7.78004,6.74 -8.86864,8.4014 -2.48694,3.7956 -3.40334,3.7852 -5.9275,-0.067 z m 93.68226,-3.3777 c -3.99759,-6.7674 -10.59744,-13.2675 -23.88916,-23.52836 -11.0675,-8.54379 -13.32466,-10.93151 -16.67854,-17.6432 -2.93367,-5.87081 -3.8788,-9.44487 -3.8788,-14.66801 0,-21.93397 13.52955,-38.04329 28.55332,-33.99781 5.25547,1.41515 12.84965,8.05569 15.8518,13.86121 2.37399,4.5908 3.77902,4.64954 6.08113,0.25425 2.0563,-3.92598 8.83105,-10.59198 12.86907,-12.66251 4.24321,-2.17573 13.05993,-1.67099 17.43739,0.99826 8.55735,5.21802 14.2189,17.68815 14.19508,31.26613 -0.0224,12.71681 -6.08222,21.52399 -24.1183,35.05241 -8.02725,6.02103 -17.56108,16.09403 -20.36559,21.51743 -2.31781,4.4821 -3.18195,4.418 -6.0574,-0.4498 z m 250,0 c -3.997587,-6.7674 -10.597438,-13.2675 -23.889163,-23.52836 -11.0675,-8.54379 -13.324662,-10.93151 -16.678537,-17.6432 -2.933675,-5.87081 -3.8788,-9.44487 -3.8788,-14.66801 0,-21.93397 13.52955,-38.04329 28.553325,-33.99781 5.255462,1.41515 12.84965,8.05569 15.8518,13.86121 2.373987,4.5908 3.779012,4.64954 6.081125,0.25425 2.0563,-3.92598 8.83105,-10.59198 12.869075,-12.66251 4.2432,-2.17573 13.059925,-1.67099 17.4373875,0.99826 8.5573505,5.21802 14.2188995,17.68815 14.1950745,31.26613 -0.02238,12.71681 -6.082212,21.52399 -24.1182995,35.05241 -8.0272505,6.02103 -17.5610755,16.09403 -20.3655875,21.51743 -2.317812,4.4821 -3.18195,4.418 -6.0574,-0.4498 z m -349.82918,-51.83377 c -1.77068,-1.77068 0.85004,-2.95065 6.55339,-2.95065 6.33534,0 9.68748,-2.21062 8.40804,-5.5448 -0.47763,-1.24466 -3.01127,-1.94667 -7.95235,-2.20341 l -7.2514,-0.37679 0,-6.25 0,-6.25 9.0625,-0.36726 c 7.49512,-0.30374 9.0625,-0.0335 9.0625,1.5625 0,1.43397 -1.36487,1.93468 -5.3125,1.9489 -9.79495,0.0353 -11.40639,4.08582 -2.12095,5.33125 6.33064,0.84912 9.93345,3.94017 9.93345,8.52247 0,4.98188 -4.08125,7.37714 -12.5698,7.37714 -3.85744,0 -7.37324,-0.35971 -7.81288,-0.79935 z m -75.43546,-121.99401 c 1.88688,-1.20074 604.7494,-1.20074 606.63628,0 0.79372,0.5051 -135.69944,0.91836 -303.31814,0.91836 -167.6187,0 -304.11186,-0.41326 -303.31814,-0.91836 z"
         id="path4132"
         inkscape:connector-curvature="0" />
      <path
         style="fill:#e22d75"
         d="m -302.36603,1713.389 c 83.01562,-0.1774 218.859375,-0.1774 301.875,0 83.015625,0.1775 15.09375,0.3226 -150.9375,0.3226 -166.03125,0 -233.95313,-0.1451 -150.9375,-0.3226 z m -160.94473,-435.3125 c 0,-234.0938 0.14387,-329.8594 0.31971,-212.8125 0.17584,117.0469 0.17584,308.5781 0,425.625 -0.17584,117.0469 -0.31971,21.2812 -0.31971,-212.8125 z m 623.75,0 c 0,-234.0938 0.14387,-329.8594 0.3197,-212.8125 0.17584,117.0469 0.17584,308.5781 0,425.625 -0.17583,117.0469 -0.3197,21.2812 -0.3197,-212.8125 z m -583.90938,390.1024 c -2.15413,-1.3135 -4.82601,-3.6866 -5.9375,-5.2735 -1.85049,-2.6419 -2.02089,-35.1003 -2.02089,-384.9385 l 0,-382.05327 2.61037,-3.31855 c 5.93513,-7.5453 -14.88122,-7.0186 277.38963,-7.0186 292.27085,0 271.4545,-0.5267 277.38963,7.0186 l 2.61037,3.31855 0,382.16287 0,382.1628 -2.61037,3.3186 c -5.93533,7.5455 14.90661,7.019 -277.64006,7.0139 -261.49143,0 -267.9679,-0.062 -271.79118,-2.3929 z m 542.52536,-2.5487 c 1.73059,-0.658 4.0172,-2.88 5.08137,-4.9379 1.73402,-3.3532 1.93488,-43.0732 1.93488,-382.6158 0,-339.54262 -0.20086,-379.26259 -1.93488,-382.6158 -1.06417,-2.05789 -3.35078,-4.27996 -5.08137,-4.93792 -4.27991,-1.62722 -536.68759,-1.62722 -540.9675,0 -1.73058,0.65796 -4.0172,2.88003 -5.08138,4.93792 -1.73401,3.35321 -1.93487,43.07318 -1.93487,382.6158 0,340.0118 0.19904,379.259 1.94045,382.6265 1.06725,2.0639 3.17662,4.2503 4.6875,4.8587 3.83616,1.5449 537.2951,1.6124 541.3558,0.069 z m -377.98375,-38.2966 c -5.66541,-2.454 -10.86669,-7.4417 -13.88989,-13.3196 -1.326,-2.5781 -2.95056,-4.6875 -3.61011,-4.6875 -0.65955,0 -2.30249,2.1626 -3.65095,4.8058 -7.53005,14.7601 -23.83519,18.3718 -34.12197,7.5581 -9.30693,-9.7836 -11.72996,-27.5649 -5.49328,-40.3122 2.87487,-5.8761 5.65117,-8.9081 14.96058,-16.3388 11.08844,-8.8507 21.70799,-19.3146 26.09531,-25.7129 2.11635,-3.0864 2.16556,-3.0941 3.9841,-0.625 7.1894,9.7614 11.08852,13.8615 18.69216,19.6558 18.81891,14.3409 22.78035,19.1476 25.85998,31.3779 1.18386,4.7015 1.06991,7.4375 -0.62754,15.0672 -2.5298,11.3709 -7.49004,18.7562 -14.83801,22.0923 -6.28037,2.8513 -7.68442,2.8974 -13.36038,0.4389 z m 250,0 c -5.665413,-2.454 -10.866688,-7.4417 -13.889888,-13.3196 -1.326,-2.5781 -2.950562,-4.6875 -3.610112,-4.6875 -0.65955,0 -2.302488,2.1626 -3.65095,4.8058 -7.53005,14.7601 -23.835188,18.3718 -34.121975,7.5581 -9.306925,-9.7836 -11.72995,-27.5649 -5.493275,-40.3122 2.874875,-5.8761 5.651175,-8.9081 14.960575,-16.3388 11.08845,-8.8507 21.708,-19.3146 26.095312,-25.7129 2.116351,-3.0864 2.165563,-3.0941 3.984101,-0.625 7.1894,9.7614 11.088525,13.8615 18.692162,19.6558 18.818913,14.3409 22.78035,19.1476 25.859975,31.3779 1.183862,4.7015 1.069913,7.4375 -0.627538,15.0672 -2.5298,11.3709 -7.490037,18.7562 -14.838012,22.0923 -6.2803625,2.8513 -7.6844125,2.8974 -13.360375,0.4389 z m 69.375,-13.0071 c -0.462725,-0.7487 1.136925,-1.2577 3.988725,-1.2692 5.867838,-0.024 8.2697,-1.4316 7.685988,-4.5056 -0.342938,-1.806 -1.740613,-2.4425 -6.035975,-2.7487 -3.074325,-0.2191 -6.30385,-0.9911 -7.176713,-1.7155 -2.540325,-2.1083 -1.983325,-9.461 0.8308,-10.967 3.1582,-1.6903 16.748125,-1.7283 15.707175,-0.044 -0.4249,0.6875 -3.53205,1.25 -6.904787,1.25 -4.701275,0 -6.4229,0.543 -7.3778,2.3273 -2.0341,3.8007 0.9274,6.2639 8.032587,6.6809 l 6.25,0.3668 0.399,4.8727 c 0.250013,3.0533 -0.216737,5.2632 -1.25,5.9184 -2.318837,1.4703 -13.2167,1.3423 -14.149,-0.1661 z m -11.223975,-44.2354 c -1.641938,-1.6419 -3.359588,-4.9802 -3.817012,-7.4185 -1.375163,-7.3302 1.272074,-12.7045 9.301049,-18.8827 3.954413,-3.0428 8.041088,-6.8145 9.081513,-8.3815 l 1.891687,-2.849 4.967188,4.946 c 2.73195,2.7204 7.27475,6.9175 10.095113,9.327 2.820362,2.4096 5.516425,5.9289 5.99125,7.8207 1.992275,7.9379 -3.3073,18.4234 -9.3115,18.4234 -1.382325,0 -4.50165,-1.7458 -6.931813,-3.8795 l -4.4185,-3.8795 -4.4185,3.8795 c -5.302838,4.656 -8.4428,4.8818 -12.430475,0.8941 z M -154.47582,1322.3947 c -4.3559,-6.648 -11.62049,-13.6723 -22.7885,-22.0349 -18.62272,-13.9447 -24.0215,-25.3124 -19.88596,-41.872 3.25854,-13.0478 7.17579,-18.8208 15.29229,-22.5366 l 6.81574,-3.1204 7.11936,3.5604 c 5.33986,2.6704 8.13683,5.1225 11.19005,9.8103 2.23887,3.4375 4.55641,6.4131 5.15009,6.6125 0.59367,0.1994 2.88837,-2.4565 5.09935,-5.902 14.14423,-22.0419 37.54087,-12.9142 41.93054,16.3583 0.60998,4.0676 0.19494,7.846 -1.43628,13.0759 -2.5493,8.1733 -9.47609,16.0242 -24.14079,27.3614 -4.44203,3.4342 -10.78945,9.6189 -14.10539,13.7439 -3.31594,4.125 -6.49387,7.6614 -7.06209,7.8586 -0.56821,0.1973 -1.99848,-1.1147 -3.17841,-2.9154 z m -220.78337,-305.34 c -2.45062,-2.5318 -6.76465,-6.5746 -9.58675,-8.9842 -2.82209,-2.4095 -5.51958,-5.9288 -5.99441,-7.8207 -1.99227,-7.93781 3.30731,-18.42332 9.31151,-18.42332 1.38232,0 4.50164,1.74577 6.93181,3.87949 l 4.4185,3.87948 4.41849,-3.87948 c 2.43018,-2.13372 5.5495,-3.87949 6.93182,-3.87949 3.63577,0 8.35203,5.26719 9.31568,10.40386 1.38634,7.38988 -1.26368,12.69806 -9.50531,19.03986 -4.06675,3.1293 -7.98011,6.7846 -8.69636,8.123 -1.73115,3.2346 -2.3303,3.0489 -7.54498,-2.3385 z m 93.59587,-4.8479 c -5.17744,-6.8118 -7.93711,-9.2991 -26.0788,-23.50532 -14.27904,-11.18146 -18.60851,-24.89437 -13.31779,-42.18193 3.42693,-11.19754 12.23805,-19.69307 20.42465,-19.69307 6.45518,0 14.10176,4.88036 18.84899,12.03022 2.45393,3.69588 4.8698,6.71978 5.3686,6.71978 0.49882,0 2.36959,-2.21024 4.15729,-4.91164 7.05654,-10.66314 15.7458,-15.04117 24.85882,-12.52494 12.48388,3.44696 21.32797,25.33658 16.47743,40.78257 -2.54228,8.09558 -9.07383,15.43375 -24.92828,28.00676 -4.83937,3.83777 -11.40792,10.44857 -14.59675,14.69067 l -5.79787,7.7128 -5.41629,-7.1259 z m 250.000003,0 c -5.177438,-6.8118 -7.937113,-9.2991 -26.078801,-23.50532 -14.279037,-11.18146 -18.608512,-24.89437 -13.317787,-42.18193 3.426925,-11.19754 12.23805,-19.69307 20.42465,-19.69307 6.455175,0 14.10175,4.88036 18.848987,12.03022 2.453925,3.69588 4.8698,6.71978 5.368601,6.71978 0.498812,0 2.369587,-2.21024 4.157287,-4.91164 7.056537,-10.66314 15.7458,-15.04117 24.858825,-12.52494 12.483875,3.44696 21.327962,25.33658 16.477425,40.78257 -2.542275,8.09558 -9.073825,15.43375 -24.928275,28.00676 -4.839375,3.83777 -11.407925,10.44857 -14.59675,14.69067 l -5.797875,7.7128 -5.416287,-7.1259 z M -378.30353,963.07648 c 0.4249,-0.6875 3.43934,-1.25 6.69877,-1.25 5.39439,0 8.92623,-1.54735 8.92623,-3.91071 0,-2.72091 -4.41654,-4.83929 -10.08929,-4.83929 l -6.16071,0 0,-5.625 0,-5.625 8.19877,0 c 5.14754,0 7.91126,0.4652 7.42623,1.25 -0.4249,0.6875 -3.2706,1.25 -6.32377,1.25 -5.08798,0 -5.55123,0.26078 -5.55123,3.125 0,2.82092 0.49452,3.125 5.08218,3.125 7.28071,0 9.91782,1.77326 9.91782,6.66898 0,2.24456 -0.675,4.75602 -1.5,5.58102 -1.84415,1.84415 -17.75814,2.08346 -16.625,0.25 z m 75.9375,-120.93745 c 83.01562,-0.17742 218.859375,-0.17742 301.875,0 83.015625,0.17742 15.09375,0.32258 -150.9375,0.32258 -166.03125,0 -233.95313,-0.14516 -150.9375,-0.32258 z"
         id="path4130"
         inkscape:connector-curvature="0" />
      <path
         style="fill:#e01b6a"
         d="m -302.36603,1713.389 c 83.01562,-0.1774 218.859375,-0.1774 301.875,0 83.015625,0.1775 15.09375,0.3226 -150.9375,0.3226 -166.03125,0 -233.95313,-0.1451 -150.9375,-0.3226 z m -160.94473,-435.3125 c 0,-234.0938 0.14387,-329.8594 0.31971,-212.8125 0.17584,117.0469 0.17584,308.5781 0,425.625 -0.17584,117.0469 -0.31971,21.2812 -0.31971,-212.8125 z m 623.75,0 c 0,-234.0938 0.14387,-329.8594 0.3197,-212.8125 0.17584,117.0469 0.17584,308.5781 0,425.625 -0.17583,117.0469 -0.3197,21.2812 -0.3197,-212.8125 z m -584.59693,389.1028 c -1.84479,-1.1444 -4.09479,-3.4646 -5,-5.156 -2.45676,-4.5905 -2.44232,-763.33011 0.0146,-767.92094 0.91325,-1.70642 3.25004,-4.04158 5.19287,-5.18923 3.26969,-1.93146 23.53828,-2.08665 272.52168,-2.08665 248.9834,0 269.25199,0.15519 272.52167,2.08665 1.94283,1.14765 4.27963,3.48281 5.19288,5.18923 2.46986,4.61499 2.46986,763.33324 0,767.94824 -0.91325,1.7064 -3.25005,4.0416 -5.19288,5.1892 -3.27018,1.9318 -23.51477,2.0842 -272.71453,2.0534 -248.88801,-0.031 -269.43502,-0.1901 -272.5363,-2.1139 z m 547.16097,-3.421 3.06819,-3.0682 0,-382.6136 0,-382.61366 -3.06819,-3.06818 -3.06817,-3.06818 -271.36364,0 -271.36364,0 -3.06818,3.06818 -3.06818,3.06818 0,382.61366 0,382.6136 3.06818,3.0682 3.06818,3.0682 271.36364,0 271.36364,0 3.06817,-3.0682 z m -428.67641,-36.9799 c -8.51346,-2.5476 -15.32972,-14.0069 -16.53665,-27.8009 -1.22423,-13.9915 3.49792,-22.4377 19.26826,-34.4638 9.45219,-7.208 18.23836,-15.8651 23.65976,-23.3122 l 2.72996,-3.75 2.20533,3.125 c 4.33519,6.143 13.65685,15.4319 20.41794,20.3462 9.94318,7.2272 17.31646,14.5558 20.40246,20.2788 2.1372,3.9634 2.68618,7.0731 2.64805,15 -0.11425,23.7475 -15.63454,38.243 -30.99252,28.9462 -4.33652,-2.625 -12.05799,-12.0764 -12.05799,-14.7593 0,-2.7112 -4.82615,-0.7494 -6.17655,2.5108 -2.02544,4.8898 -9.79835,12.0461 -14.94747,13.7616 -4.82769,1.6085 -5.60971,1.6171 -10.62058,0.1176 z m 250,0 c -8.513462,-2.5476 -15.329725,-14.0069 -16.53665,-27.8009 -1.224225,-13.9915 3.497925,-22.4377 19.268263,-34.4638 9.452187,-7.208 18.238362,-15.8651 23.659762,-23.3122 l 2.72995,-3.75 2.205338,3.125 c 4.335187,6.143 13.65685,15.4319 20.417937,20.3462 9.943175,7.2272 17.316463,14.5558 20.402463,20.2788 2.1372,3.9634 2.686175,7.0731 2.64805,15 -0.11425,23.7475 -15.634538,38.243 -30.992525,28.9462 -4.336513,-2.625 -12.057988,-12.0764 -12.057988,-14.7593 0,-2.7112 -4.82615,-0.7494 -6.17655,2.5108 -2.025437,4.8898 -9.79835,12.0461 -14.947475,13.7616 -4.827688,1.6085 -5.6097,1.6171 -10.620575,0.1176 z m 127.0571,-13.802 c 1.203125,-0.7008 2.1875,-2.3432 2.1875,-3.6499 0,-1.3067 -0.984375,-2.9491 -2.1875,-3.6499 -1.953587,-1.1379 -1.88675,-1.2782 0.625,-1.3121 2.45425,-0.033 2.8125,0.5989 2.8125,4.962 0,4.3631 -0.35825,4.9951 -2.8125,4.962 -2.51175,-0.034 -2.578587,-0.1743 -0.625,-1.3121 z m -11.5625,-9.8999 c -1.375,-1.375 -2.5,-3.3438 -2.5,-4.375 0,-2.3046 4.427825,-6.899 6.5625,-6.8095 0.859375,0.036 0.296875,0.9485 -1.25,2.0275 -1.546875,1.0791 -2.8125,3.2309 -2.8125,4.782 0,1.551 1.265625,3.7029 2.8125,4.782 1.546875,1.079 2.109375,1.9914 1.25,2.0274 -0.859375,0.036 -2.6875,-1.0594 -4.0625,-2.4344 z m -10.642525,-33.7694 c -1.401713,-1.5489 -2.498138,-5.1497 -2.84625,-9.3475 -0.62595,-7.5482 -1.858225,-5.7381 13.860988,-20.36 l 5.753537,-5.3519 5.232337,4.7269 c 15.938038,14.3984 15.257726,13.4237 14.632376,20.9646 -1.001688,12.079 -8.7455,15.8681 -16.060926,7.8587 l -3.679537,-4.0286 -3.679537,4.0286 c -4.341201,4.753 -9.721263,5.3675 -13.212988,1.5092 z M -157.81251,1317.0829 c -3.16743,-3.9728 -11.30177,-11.4213 -18.07631,-16.5523 -6.77454,-5.131 -13.88942,-11.5791 -15.81086,-14.3291 -10.68637,-15.2946 -5.61921,-41.7685 9.42374,-49.2354 5.4733,-2.7167 6.482,-2.8452 11.2125,-1.4279 5.60717,1.6799 12.66256,8.1469 16.1988,14.8479 2.6928,5.1027 4.46632,4.6494 8.22471,-2.1024 8.51251,-15.2924 26.48019,-16.8986 35.20134,-3.1468 4.1886,6.6048 6.85918,18.5477 5.82869,26.066 -1.50252,10.962 -6.70892,17.6085 -24.88545,31.7691 -4.643,3.6171 -11.0541,9.9016 -14.24689,13.9655 -3.1928,4.064 -6.14398,7.3844 -6.55819,7.3787 -0.4142,-0.01 -3.34464,-3.2606 -6.51208,-7.2333 z m -216.11602,-299.8102 c -1.71875,-1.7759 -6.15136,-5.9346 -9.85025,-9.2416 l -6.72525,-6.0126 0.57649,-6.95165 c 1.01034,-12.18343 8.72325,-16.00488 16.06947,-7.9618 l 3.67954,4.02858 3.67954,-4.02858 c 7.30931,-8.00267 15.05926,-4.22003 16.05923,7.83829 0.53791,6.48646 0.34921,7.03276 -3.7706,10.91816 -10.7025,10.0933 -15.79358,14.7122 -16.17806,14.6776 -0.22831,-0.021 -1.82136,-1.4904 -3.54011,-3.2664 z m 91.66512,-6.6402 c -3.38922,-4.7549 -9.59017,-10.6265 -17.74437,-16.80171 -6.89398,-5.22086 -13.96038,-11.3619 -15.7031,-13.64674 -6.86249,-8.99717 -8.55973,-19.98344 -4.97346,-32.19319 3.99192,-13.59088 10.5557,-19.91832 20.65335,-19.90971 7.38268,0.006 12.66493,3.4812 18.02205,11.85571 2.42397,3.78929 4.93516,6.88962 5.58041,6.88962 0.64525,0 3.13799,-3.07149 5.53941,-6.82553 7.1043,-11.10581 17.81265,-14.8249 26.8397,-9.32164 6.30669,3.84481 8.56593,7.09728 11.5239,16.59022 5.67928,18.22623 1.03088,29.59994 -18.2501,44.65444 -11.61042,9.06533 -18.93632,16.41933 -23.25087,23.34003 -0.96438,1.5469 -2.03998,2.7822 -2.39023,2.7451 -0.35025,-0.037 -2.98125,-3.3565 -5.84668,-7.3766 z m 250.000005,0 c -3.389225,-4.7549 -9.590175,-10.6265 -17.744375,-16.80171 -6.893975,-5.22086 -13.960375,-11.3619 -15.7031,-13.64674 -6.862488,-8.99717 -8.559725,-19.98344 -4.973463,-32.19319 3.991925,-13.59088 10.5557,-19.91832 20.65335,-19.90971 7.382688,0.006 12.664938,3.4812 18.02205,11.85571 2.423975,3.78929 4.935163,6.88962 5.580413,6.88962 0.64525,0 3.137987,-3.07149 5.539413,-6.82553 7.1043,-11.10581 17.8126495,-14.8249 26.8396995,-9.32164 6.3066875,3.84481 8.5659245,7.09728 11.5238995,16.59022 5.679275,18.22623 1.030876,29.59994 -18.2500995,44.65444 -11.6104255,9.06533 -18.9363255,16.41933 -23.2508755,23.34003 -0.964375,1.5469 -2.039975,2.7822 -2.390225,2.7451 -0.350249,-0.037 -2.981249,-3.3565 -5.846687,-7.3766 z M -364.17853,961.57648 c 2.51733,-2.51733 1.78869,-7.21452 -1.3125,-8.46105 -2.01218,-0.80879 -2.21543,-1.15303 -0.71429,-1.20972 2.69302,-0.10169 6.02679,3.22283 6.02679,6.01006 0,2.37763 -2.29195,5.16071 -4.25,5.16071 -0.69444,0 -0.58333,-0.66667 0.25,-1.5 z m -14.25745,-10.26941 c -1.39627,-3.63863 0.0748,-8.82397 2.63245,-9.27873 2.02189,-0.35951 2.20118,-0.13446 0.9375,1.17681 -2.13625,2.21668 -1.95981,4.86046 0.50623,7.5854 1.94423,2.14835 1.90425,2.28593 -0.66423,2.28593 -1.50313,0 -3.03851,-0.79623 -3.41195,-1.76941 z m 76.06995,-109.16804 c 83.01562,-0.17742 218.859375,-0.17742 301.875,0 83.015625,0.17742 15.09375,0.32258 -150.9375,0.32258 -166.03125,0 -233.95313,-0.14516 -150.9375,-0.32258 z"
         id="path4128"
         inkscape:connector-curvature="0" />
      <path
         style="fill:#dd0058"
         d="m -302.36603,1713.389 c 83.01562,-0.1774 218.859375,-0.1774 301.875,0 83.015625,0.1775 15.09375,0.3226 -150.9375,0.3226 -166.03125,0 -233.95313,-0.1451 -150.9375,-0.3226 z m -160.94473,-435.3125 c 0,-234.0938 0.14387,-329.8594 0.31971,-212.8125 0.17584,117.0469 0.17584,308.5781 0,425.625 -0.17584,117.0469 -0.31971,21.2812 -0.31971,-212.8125 z m 623.75,0 c 0,-234.0938 0.14387,-329.8594 0.3197,-212.8125 0.17584,117.0469 0.17584,308.5781 0,425.625 -0.17583,117.0469 -0.3197,21.2812 -0.3197,-212.8125 z m -445.93027,390.3125 c 73.73437,-0.1781 194.390625,-0.1781 268.125,0 73.734375,0.1781 13.40625,0.3239 -134.0625,0.3239 -147.46875,0 -207.79688,-0.1458 -134.0625,-0.3239 z m 28.133,-41.7103 c -4.93273,-1.4229 -11.5885,-7.8563 -14.52073,-14.0355 -2.76557,-5.828 -6.22336,-6.0237 -8.90972,-0.5042 -5.94909,12.2231 -17.4039,17.718 -26.80323,12.8574 -10.78675,-5.5781 -16.80768,-23.7404 -12.71317,-38.3496 2.10667,-7.5166 6.88099,-13.186 18.68384,-22.1867 9.37177,-7.1468 18.75519,-16.4148 22.91551,-22.6336 l 2.09059,-3.125 2.23691,3.125 c 4.93122,6.889 13.83474,15.405 23.68313,22.6522 12.01358,8.8407 16.45454,14.5945 18.69133,24.2168 1.31685,5.6649 1.30379,8.3233 -0.0733,14.905 -0.9218,4.4057 -2.53053,9.6629 -3.57499,11.6826 -2.23462,4.3213 -10.11343,11.5434 -12.59298,11.5434 -0.9511,0 -2.4784,0.2299 -3.394,0.5109 -0.91562,0.281 -3.48927,-0.015 -5.71924,-0.6587 z m 250,0 c -4.932725,-1.4229 -11.5885,-7.8563 -14.520725,-14.0355 -2.765575,-5.828 -6.223363,-6.0237 -8.909725,-0.5042 -5.949088,12.2231 -17.4039,17.718 -26.803225,12.8574 -10.78675,-5.5781 -16.807688,-23.7404 -12.713175,-38.3496 2.106675,-7.5166 6.880987,-13.186 18.683837,-22.1867 9.371775,-7.1468 18.755188,-16.4148 22.915513,-22.6336 l 2.090587,-3.125 2.236913,3.125 c 4.931225,6.889 13.834737,15.405 23.683125,22.6522 12.013587,8.8407 16.45455,14.5945 18.691337,24.2168 1.31685,5.6649 1.303788,8.3233 -0.07325,14.905 -0.9218,4.4057 -2.530537,9.6629 -3.574987,11.6826 -2.234625,4.3213 -10.1134375,11.5434 -12.5929875,11.5434 -0.9511,0 -2.4784,0.2299 -3.394,0.5109 -0.9156125,0.281 -3.4892625,-0.015 -5.7192375,-0.6587 z m 58.740287,-56.7752 c -1.505637,-1.0546 -3.396825,-4.118 -4.202625,-6.8075 -2.073362,-6.9203 -0.186525,-10.5968 10.220038,-19.914 l 8.681587,-7.7729 9.30405,8.3602 c 10.144563,9.1154 11.831113,12.6754 9.438876,19.924 -1.4604,4.425 -5.358475,8.1332 -8.549763,8.1332 -0.957425,0 -3.6793,-2.1094 -6.0486,-4.6875 l -4.307838,-4.6875 -3.36075,3.9472 c -4.178662,4.9078 -7.627587,5.9895 -11.174975,3.5048 z M -157.35084,1316.336 c -2.8954,-3.7073 -9.63799,-9.9824 -14.98353,-13.9447 -17.22961,-12.7712 -21.37256,-17.8213 -23.9195,-29.1568 -2.25367,-10.0304 2.9477,-27.3041 10.01145,-33.2478 10.00051,-8.4149 23.15905,-3.5271 31.31825,11.6333 1.17115,2.1761 2.70074,3.9565 3.39909,3.9565 0.69835,0 3.22945,-3.0636 5.62467,-6.8079 6.4619,-10.1016 14.09829,-14.1292 22.42824,-11.8292 8.94764,2.4706 13.58933,8.9485 16.57081,23.1262 1.32909,6.3201 1.30702,8.7294 -0.12987,14.1764 -2.53159,9.5968 -6.08486,14.0172 -20.0773,24.9771 -6.90526,5.4086 -14.98929,12.9892 -17.96451,16.8457 -2.97524,3.8564 -5.77039,7.0117 -6.21147,7.0117 -0.44107,0 -3.17092,-3.0332 -6.06633,-6.7405 z m -222.46159,-305.5014 c -5.17781,-4.8182 -9.34801,-9.8167 -9.80635,-11.75423 -1.58016,-6.67993 3.80154,-16.00389 9.2373,-16.00389 0.95742,0 3.6793,2.10937 6.0486,4.6875 l 4.30783,4.6875 3.36076,-3.90101 c 1.84842,-2.14557 4.42439,-4.26769 5.72439,-4.71587 6.13075,-2.11352 12.67435,9.10578 9.61653,16.488 -1.20647,2.9127 -17.56045,19.1555 -19.0791,18.9495 -0.22058,-0.03 -4.45506,-3.8268 -9.40996,-8.4375 z m 98.2315,-0.9757 c -3.00994,-3.7954 -9.9726,-10.34016 -15.4726,-14.54388 -13.61396,-10.40533 -17.93197,-14.56414 -20.70329,-19.93999 -3.91681,-7.59791 -4.79086,-13.88671 -3.13609,-22.56412 3.05153,-16.00171 9.98482,-24.10943 20.61708,-24.10943 7.29719,0 12.63305,3.67828 18.38922,12.67663 2.35669,3.6841 4.81283,6.69837 5.45808,6.69837 0.64525,0 3.15644,-3.10033 5.58041,-6.88962 5.39946,-8.44071 10.62805,-11.85104 18.16959,-11.85104 10.81985,0 17.40894,7.34236 20.74417,23.11566 3.09679,14.6456 -2.01331,25.71412 -17.12122,37.08466 -10.41113,7.83564 -18.63329,15.67936 -23.65843,22.56936 l -3.39433,4.6541 -5.47259,-6.9007 z m 250,0 c -3.009938,-3.7954 -9.9726,-10.34016 -15.4726,-14.54388 -13.613962,-10.40533 -17.931975,-14.56414 -20.703288,-19.93999 -3.916812,-7.59791 -4.790862,-13.88671 -3.136087,-22.56412 3.051525,-16.00171 9.984812,-24.10943 20.617075,-24.10943 7.297187,0 12.63305,3.67828 18.389225,12.67663 2.356687,3.6841 4.812825,6.69837 5.458075,6.69837 0.64525,0 3.156437,-3.10033 5.580413,-6.88962 5.399462,-8.44071 10.628049,-11.85104 18.169587,-11.85104 10.81985,0 17.408937,7.34236 20.744175,23.11566 3.096788,14.6456 -2.013313,25.71412 -17.121225,37.08466 -10.411125,7.83564 -18.633288,15.67936 -23.658425,22.56936 l -3.394337,4.6541 -5.472588,-6.9007 z m -253.9101,-122.71986 c 73.73437,-0.1781 194.390625,-0.1781 268.125,0 73.734375,0.1781 13.40625,0.32382 -134.0625,0.32382 -147.46875,0 -207.79688,-0.14572 -134.0625,-0.32382 z m -16.875,-45.00001 c 83.01562,-0.17742 218.859375,-0.17742 301.875,0 83.015625,0.17742 15.09375,0.32258 -150.9375,0.32258 -166.03125,0 -233.95313,-0.14516 -150.9375,-0.32258 z"
         id="path4126"
         inkscape:connector-curvature="0" />
      <path
         style="fill:#111111"
         d="m -302.36603,1713.389 c 83.01562,-0.1774 218.859375,-0.1774 301.875,0 83.015625,0.1775 15.09375,0.3226 -150.9375,0.3226 -166.03125,0 -233.95313,-0.1451 -150.9375,-0.3226 z m -160.94473,-435.3125 c 0,-234.0938 0.14387,-329.8594 0.31971,-212.8125 0.17584,117.0469 0.17584,308.5781 0,425.625 -0.17584,117.0469 -0.31971,21.2812 -0.31971,-212.8125 z m 623.75,0 c 0,-234.0938 0.14387,-329.8594 0.3197,-212.8125 0.17584,117.0469 0.17584,308.5781 0,425.625 -0.17583,117.0469 -0.3197,21.2812 -0.3197,-212.8125 z M -302.36603,842.13903 c 83.01562,-0.17742 218.859375,-0.17742 301.875,0 83.015625,0.17742 15.09375,0.32258 -150.9375,0.32258 -166.03125,0 -233.95313,-0.14516 -150.9375,-0.32258 z"
         id="path4124"
         inkscape:connector-curvature="0" />
    </g>
  </g>
</svg>
