<?xml version="1.0" encoding="UTF-8" standalone="no"?>
<!-- Created with Inkscape (http://www.inkscape.org/) -->

<svg
   xmlns:dc="http://purl.org/dc/elements/1.1/"
   xmlns:cc="http://creativecommons.org/ns#"
   xmlns:rdf="http://www.w3.org/1999/02/22-rdf-syntax-ns#"
   xmlns:svg="http://www.w3.org/2000/svg"
   xmlns="http://www.w3.org/2000/svg"
   xmlns:sodipodi="http://sodipodi.sourceforge.net/DTD/sodipodi-0.dtd"
   xmlns:inkscape="http://www.inkscape.org/namespaces/inkscape"
   width="176.39108mm"
   height="246.27501mm"
   viewBox="0 0 625.00777 872.62798"
   id="svg2"
   version="1.1"
   inkscape:version="0.91 r13725"
   sodipodi:docname="6.svg">
  <defs
     id="defs4">
    <pattern
       y="0"
       x="0"
       height="6"
       width="6"
       patternUnits="userSpaceOnUse"
       id="EMFhbasepattern" />
    <pattern
       y="0"
       x="0"
       height="6"
       width="6"
       patternUnits="userSpaceOnUse"
       id="EMFhbasepattern-1" />
    <pattern
       y="0"
       x="0"
       height="6"
       width="6"
       patternUnits="userSpaceOnUse"
       id="EMFhbasepattern-14" />
    <pattern
       y="0"
       x="0"
       height="6"
       width="6"
       patternUnits="userSpaceOnUse"
       id="EMFhbasepattern-4" />
    <pattern
       y="0"
       x="0"
       height="6"
       width="6"
       patternUnits="userSpaceOnUse"
       id="EMFhbasepattern-9" />
    <pattern
       y="0"
       x="0"
       height="6"
       width="6"
       patternUnits="userSpaceOnUse"
       id="EMFhbasepattern-8" />
    <pattern
       y="0"
       x="0"
       height="6"
       width="6"
       patternUnits="userSpaceOnUse"
       id="EMFhbasepattern-6" />
    <pattern
       y="0"
       x="0"
       height="6"
       width="6"
       patternUnits="userSpaceOnUse"
       id="EMFhbasepattern-13" />
    <pattern
       y="0"
       x="0"
       height="6"
       width="6"
       patternUnits="userSpaceOnUse"
       id="EMFhbasepattern-44" />
  </defs>
  <sodipodi:namedview
     id="base"
     pagecolor="#ffffff"
     bordercolor="#666666"
     borderopacity="1.0"
     inkscape:pageopacity="0.0"
     inkscape:pageshadow="2"
     inkscape:zoom="0.24748737"
     inkscape:cx="682.43038"
     inkscape:cy="-477.46719"
     inkscape:document-units="px"
     inkscape:current-layer="layer1"
     showgrid="false"
     fit-margin-top="0"
     fit-margin-left="0"
     fit-margin-right="0"
     fit-margin-bottom="0"
     inkscape:window-width="784"
     inkscape:window-height="822"
     inkscape:window-x="800"
     inkscape:window-y="0"
     inkscape:window-maximized="0" />
  <metadata
     id="metadata7">
    <rdf:RDF>
      <cc:Work
         rdf:about="">
        <dc:format>image/svg+xml</dc:format>
        <dc:type
           rdf:resource="http://purl.org/dc/dcmitype/StillImage" />
        <dc:title></dc:title>
      </cc:Work>
    </rdf:RDF>
  </metadata>
  <g
     inkscape:label="Calque 1"
     inkscape:groupmode="layer"
     id="layer1"
     transform="translate(634.65734,1660.703)">
    <g
       transform="translate(549.27126,-2496.8089)"
       id="g4104">
      <path
         style="fill:#fdfcfd"
         d="m -1183.9286,1272.3622 0,-436.24996 312.5,0 312.5,0 0,436.24996 0,436.25 -312.5,0 -312.5,0 0,-436.25 z"
         id="path4120"
         inkscape:connector-curvature="0" />
      <path
         style="fill:#f2aac7"
         d="m -1177.541,1706.8679 c -6.7121,-3.7203 -6.2956,24.7836 -6.3433,-434.1343 -0.034,-328.08829 0.3003,-427.26002 1.4491,-429.78129 3.3332,-7.31567 -18.2831,-6.84007 310.88571,-6.84007 231.87038,0 303.26855,0.34869 305.78082,1.49336 7.3554,3.35134 6.84007,-29.40324 6.84007,434.7566 0,464.1599 0.51533,431.4053 -6.84007,434.7567 -5.07455,2.3121 -607.59393,2.0649 -611.77233,-0.251 z m 606.44186,-1.0682 c 4.51749,-2.5249 8.42054,-6.2471 8.42054,-8.0303 0,-0.9115 0.5625,-1.6572 1.25,-1.6572 0.83088,0 1.25,-142.0833 1.25,-423.75 0,-281.66662 -0.41912,-423.74996 -1.25,-423.74996 -0.6875,0 -1.25,-0.7457 -1.25,-1.65711 0,-1.78324 -3.90305,-5.50545 -8.42054,-8.03039 -2.2146,-1.23779 -64.62661,-1.5625 -300.32946,-1.5625 -235.7028,0 -298.1149,0.32471 -300.3295,1.5625 -4.5175,2.52494 -8.4205,6.24715 -8.4205,8.03039 0,0.91141 -0.5625,1.65711 -1.25,1.65711 -0.8309,0 -1.25,142.08334 -1.25,423.74996 0,281.6667 0.4191,423.75 1.25,423.75 0.6875,0 1.25,0.7566 1.25,1.6813 0,1.8768 3.5623,5.417 7.8211,7.7727 4.1302,2.2846 597.17669,2.5149 601.25836,0.2335 z m -573.45446,-40.7632 c -2.0625,-1.274 -4.875,-3.5809 -6.25,-5.1265 -2.4885,-2.7973 -2.5,-4.5803 -2.5,-387.5783 l 0,-384.76805 3.125,-3.34447 c 6.8764,-7.3593 -13.5457,-6.85694 278.75,-6.85694 292.29574,0 271.87364,-0.50236 278.75,6.85694 l 3.125,3.34447 0,384.79855 0,384.7986 -3.125,3.3445 c -6.87656,7.3595 13.56991,6.8574 -279.00042,6.8523 -259.82548,0 -269.25418,-0.085 -272.87458,-2.3211 z m 545.05681,-9.4924 3.06819,-3.0682 0,-380.1137 0,-380.1136 -3.06819,-3.06818 -3.06817,-3.06818 -268.86364,0 -268.8636,0 -3.0682,3.06818 -3.0682,3.06818 0,380.1136 0,380.1137 3.0682,3.0682 3.0682,3.0681 268.8636,0 268.86364,0 3.06817,-3.0681 z m -380.05681,-31.1679 c -5.24784,-2.2926 -11.62265,-7.9001 -13.827,-12.1629 -1.02421,-1.9806 -2.30197,-3.6011 -2.83947,-3.6011 -0.5375,0 -2.74238,2.5042 -4.89973,5.5649 -7.4021,10.5014 -19.5509,13.5645 -29.8533,7.5269 -6.08,-3.5631 -10.4849,-10.267 -13.4737,-20.5061 -2.5283,-8.6617 -2.4941,-12.5895 0.185,-21.2258 1.7161,-5.5318 3.8614,-8.684 10.3125,-15.1525 4.4801,-4.4922 11.5701,-10.7489 15.7555,-13.9038 4.1853,-3.1548 10.5908,-9.745 14.2344,-14.6448 3.6435,-4.8998 7.09674,-8.9088 7.67385,-8.9088 0.57712,0 2.01246,1.5469 3.18963,3.4375 5.20191,8.3547 11.49728,14.7891 22.97111,23.4783 13.73061,10.3983 17.76305,14.9963 21.28823,24.2738 3.05966,8.0523 3.04025,14.0001 -0.0786,24.0977 -3.21479,10.4083 -8.40039,17.4589 -15.29575,20.7969 -6.28348,3.0417 -9.99354,3.2666 -15.34267,0.9298 z m 250,0 c -5.24784,-2.2926 -11.62265,-7.9001 -13.827,-12.1629 -1.02421,-1.9806 -2.30198,-3.6011 -2.83947,-3.6011 -0.5375,0 -2.74238,2.5042 -4.89972,5.5649 -7.40212,10.5014 -19.55089,13.5645 -29.85326,7.5269 -6.08006,-3.5631 -10.48491,-10.267 -13.47372,-20.5061 -2.52834,-8.6617 -2.49412,-12.5895 0.18498,-21.2258 1.71605,-5.5318 3.86139,-8.684 10.3125,-15.1525 4.48013,-4.4922 11.57009,-10.7489 15.75546,-13.9038 4.18538,-3.1548 10.59084,-9.745 14.23438,-14.6448 3.64353,-4.8998 7.09679,-8.9088 7.6739,-8.9088 0.57712,0 2.01246,1.5469 3.18962,3.4375 5.20192,8.3547 11.49729,14.7891 22.97112,23.4783 13.73061,10.3983 17.76305,14.9963 21.28823,24.2738 3.05966,8.0523 3.04025,14.0001 -0.0786,24.0977 -3.21479,10.4083 -8.40039,17.4589 -15.29575,20.7969 -6.28348,3.0417 -9.99354,3.2666 -15.34267,0.9298 z m 67.53581,-13.7082 c -3.97342,-2.9054 -1.54997,-5.8058 4.85119,-5.8058 3.07475,0 5.9381,-0.5625 6.363,-1.25 0.46656,-0.7549 -1.23702,-1.25 -4.30122,-1.25 -6.66682,0 -10.07378,-3.3164 -10.07378,-9.8062 0,-6.8894 2.80115,-8.9438 12.1952,-8.9438 10.05544,0 12.8048,3.0092 12.8048,14.0148 0,6.5427 -0.43526,7.8628 -3.65385,11.0814 -3.04133,3.0413 -4.67764,3.6538 -9.76109,3.6538 -3.35897,0 -7.1499,-0.7624 -8.42425,-1.6942 z m 13.08919,-17.6808 c 0,-2.0418 -6.82859,-2.7226 -8.01725,-0.7993 -1.04084,1.6841 0.61633,2.6743 4.47559,2.6743 2.31481,0 3.54166,-0.6495 3.54166,-1.875 z m -23.00038,-27.1253 c -4.61621,-4.6162 -6.61459,-11.1331 -5.17401,-16.8729 0.91349,-3.6397 21.11913,-24.1268 23.79528,-24.1268 0.87537,0 2.50206,1.3896 3.61487,3.088 1.1128,1.6983 5.06509,5.3845 8.78287,8.1914 6.98557,5.2742 10.73137,11.1022 10.73137,16.6968 0,5.5879 -3.82832,13.2501 -7.59286,15.1969 -5.0583,2.6157 -7.93068,2.2768 -12.37119,-1.4596 l -3.90586,-3.2866 -2.81264,2.6423 c -1.54695,1.4533 -4.602,3.0003 -6.789,3.4377 -3.39949,0.6799 -4.60056,0.171 -8.27882,-3.5072 z M -999.4325,1321.3464 c -3.0265,-5.8526 -13.1123,-16.27 -23.1498,-23.9109 -22.3797,-17.0361 -27.5599,-29.8788 -20.6012,-51.0735 2.8211,-8.5925 10.2051,-16.9511 17.4028,-19.7 5.2745,-2.0143 5.927,-2.0153 11.1564,-0.018 5.8152,2.2208 15.0412,10.4371 16.34991,14.5605 0.97648,3.0765 2.71163,3.0875 3.6842,0.023 1.25553,-3.9558 11.32699,-12.3398 16.78957,-13.9764 15.51792,-4.6493 30.72462,12.4536 30.7413,34.5745 0.009,10.9638 -4.98012,20.1897 -15.61928,28.8876 -15.4643,12.6425 -24.15035,21.0523 -28.49275,27.5865 -2.39866,3.6094 -4.82961,6.5625 -5.40212,6.5625 -0.57252,0 -1.85908,-1.5821 -2.85903,-3.5158 z m 250,0 c -3.02649,-5.8526 -13.11231,-16.27 -23.14985,-23.9109 -22.37962,-17.0361 -27.55989,-29.8788 -20.60117,-51.0735 2.8211,-8.5925 10.2051,-16.9511 17.40286,-19.7 5.27441,-2.0143 5.92692,-2.0153 11.1564,-0.018 5.8152,2.2208 15.04116,10.4371 16.34987,14.5605 0.97648,3.0765 2.71163,3.0875 3.6842,0.023 1.25553,-3.9558 11.32699,-12.3398 16.78957,-13.9764 15.51792,-4.6493 30.72462,12.4536 30.7413,34.5745 0.009,10.9638 -4.98012,20.1897 -15.61928,28.8876 -15.4643,12.6425 -24.15035,21.0523 -28.49275,27.5865 -2.39866,3.6094 -4.82961,6.5625 -5.40213,6.5625 -0.57251,0 -1.85907,-1.5821 -2.85902,-3.5158 z m -344.9819,-305.8221 c -1.1128,-1.6983 -5.0651,-5.3845 -8.7828,-8.1914 -6.9856,-5.2742 -10.7314,-11.10221 -10.7314,-16.69677 0,-5.5879 3.8283,-13.25019 7.5929,-15.19691 5.0583,-2.61574 7.9306,-2.27685 12.3711,1.45958 l 3.9059,3.28658 2.8126,-2.64234 c 1.547,-1.45329 4.6021,-3.00021 6.7891,-3.43761 7.7351,-1.54703 15.865,10.76911 13.4528,20.38006 -0.9135,3.63965 -21.1191,24.12671 -23.7953,24.12671 -0.8754,0 -2.5021,-1.3895 -3.6149,-3.0879 z m 93.0806,-4.2643 c -4.4034,-6.8621 -14.1688,-16.47467 -22.5948,-22.24126 -14.6311,-10.01321 -23.3986,-24.81201 -22.0874,-37.2815 1.1589,-11.02079 4.7179,-19.52024 10.8125,-25.82205 9.5681,-9.89345 20.3333,-9.89506 30.1183,-0.005 3.1704,3.2046 6.41508,6.95155 7.21045,8.32655 1.44615,2.5 1.44615,2.5 2.89789,0 3.32594,-5.72753 11.87609,-12.91496 17.00725,-14.29664 13.45651,-3.62347 24.86487,5.665 29.84182,24.29664 2.28985,8.5723 2.11964,13.15826 -0.77544,20.89061 -3.24217,8.65941 -8.16641,14.4555 -19.83286,23.34431 -10.60172,8.07758 -18.31135,15.95984 -23.22748,23.74744 -1.78552,2.8285 -3.74319,5.1426 -4.35041,5.1426 -0.60719,0 -2.86612,-2.746 -5.01982,-6.1022 z m 250.00001,0 c -4.40337,-6.8621 -14.16877,-16.47467 -22.59481,-22.24126 -14.63109,-10.01321 -23.39862,-24.81201 -22.08737,-37.2815 1.15891,-11.02079 4.71787,-19.52024 10.81246,-25.82205 9.56811,-9.89345 20.33333,-9.89506 30.1183,-0.005 3.17037,3.2046 6.41509,6.95155 7.21046,8.32655 1.44615,2.5 1.44615,2.5 2.89789,0 3.32594,-5.72753 11.87609,-12.91496 17.00725,-14.29664 13.45651,-3.62347 24.86487,5.665 29.84182,24.29664 2.28985,8.5723 2.11964,13.15826 -0.77543,20.89061 -3.24218,8.65941 -8.16642,14.4555 -19.83287,23.34431 -10.60172,8.07758 -18.31135,15.95984 -23.22748,23.74744 -1.78552,2.8285 -3.74319,5.1426 -4.35041,5.1426 -0.60719,0 -2.86612,-2.746 -5.01981,-6.1022 z m -345.71981,-50.34117 c -4.5395,-2.4829 -5.625,-5.10316 -5.625,-13.57761 0,-11.38645 2.4199,-13.72898 14.1823,-13.72898 6.3416,0 8.5737,0.46272 9.1218,1.89092 1.2548,3.26996 -2.0301,5.59955 -8.1447,5.7761 l -5.7844,0.16701 5.9519,0.82955 c 6.8947,0.96094 9.3031,2.92407 10.4164,8.49058 0.6709,3.35453 0.1894,4.60544 -3.0009,7.79576 -3.0823,3.08226 -4.8218,3.79291 -9.2087,3.76207 -2.9748,-0.0209 -6.5337,-0.65334 -7.9087,-1.4054 z m 10.4726,-7.18598 c 2.5967,-1.64471 0.4854,-3.87061 -3.6714,-3.87061 -3.457,0 -4.8978,2.11171 -2.8429,4.16667 1.158,1.15795 4.4553,1.0081 6.5143,-0.29606 z"
         id="path4118"
         inkscape:connector-curvature="0" />
      <path
         style="fill:#ee8eb4"
         d="m -1174.7467,1707.6556 c -0.7938,-0.5051 135.6994,-0.9184 303.3181,-0.9184 167.6187,0 304.11186,0.4133 303.31814,0.9184 -0.79373,0.5051 -137.28689,0.9184 -303.31814,0.9184 -166.0313,0 -302.5244,-0.4133 -303.3181,-0.9184 z m -8.4232,-8.5206 c -1.0958,-2.8557 -0.899,-852.11718 0.1979,-853.8409 0.5051,-0.79372 0.9184,191.4407 0.9184,427.1875 0,235.7469 -0.08,428.6306 -0.1788,428.6306 -0.098,0 -0.5202,-0.8897 -0.9375,-1.9772 z m 622.3663,-426.7728 c 0,-235.6812 0.41326,-427.86182 0.91836,-427.0681 1.2008,1.88698 1.2008,852.2493 0,854.1363 -0.5051,0.7937 -0.91836,-191.387 -0.91836,-427.0682 z m -583.9166,391.3525 c -2.1541,-1.3136 -4.826,-3.6866 -5.9375,-5.2735 -1.8505,-2.642 -2.0209,-35.1991 -2.0209,-386.1885 l 0,-383.30331 2.6104,-3.31855 c 5.9356,-7.54592 -14.9992,-7.0186 278.6396,-7.0186 293.63876,0 272.70401,-0.52732 278.63963,7.0186 l 2.61037,3.31855 0,383.41281 0,383.4129 -2.61037,3.3185 c -5.93582,7.5462 15.02452,7.0191 -278.89005,7.014 -262.72198,-0.01 -269.21778,-0.062 -273.04118,-2.3929 z m 546.06944,-7.3247 2.84716,-2.8472 0,-381.1806 0,-381.18051 -2.84722,-2.84723 -2.84723,-2.84722 -269.93055,0 -269.9306,0 -2.8472,2.84719 -2.8472,2.8472 -0.2974,379.65277 c -0.2374,302.9489 0.02,380.2792 1.2746,382.7532 0.8646,1.7052 2.9672,3.8084 4.6724,4.6738 2.4687,1.2528 57.7891,1.5125 271.50324,1.2746 l 268.40282,-0.2988 2.84718,-2.8472 z m -380.90284,-33.1985 c -5.56765,-2.5292 -11.0651,-7.5564 -13.78374,-12.6046 -1.32537,-2.461 -2.70373,-4.4595 -3.06301,-4.441 -0.35929,0.018 -2.0595,2.3535 -3.77825,5.1889 -4.2614,7.03 -12.6736,12.2774 -19.6818,12.2774 -11.3644,0 -19.6116,-8.0581 -23.6087,-23.0673 -4.9259,-18.4968 0.8424,-29.332 26.1669,-49.1523 4.6343,-3.627 10.9957,-10.0957 14.1364,-14.375 3.1407,-4.2792 6.15315,-7.9447 6.69428,-8.1455 0.54111,-0.2008 2.08535,1.5017 3.43162,3.7835 4.26727,7.2325 10.54797,13.5067 22.83693,22.8132 20.17941,15.282 25.59511,27.1218 20.74306,45.3484 -4.75213,17.8513 -18.13954,27.8047 -30.09369,22.3743 z m 250,0 c -5.56765,-2.5292 -11.0651,-7.5564 -13.78374,-12.6046 -1.32537,-2.461 -2.70373,-4.4595 -3.06301,-4.441 -0.35929,0.018 -2.0595,2.3535 -3.77825,5.1889 -4.26141,7.03 -12.67356,12.2774 -19.6818,12.2774 -11.36435,0 -19.61162,-8.0581 -23.60872,-23.0673 -4.92592,-18.4968 0.84238,-29.332 26.16695,-49.1523 4.6343,-3.627 10.99567,-10.0957 14.1364,-14.375 3.14071,-4.2792 6.15312,-7.9447 6.69425,-8.1455 0.54111,-0.2008 2.08535,1.5017 3.43162,3.7835 4.26728,7.2325 10.54797,13.5067 22.83693,22.8132 20.17941,15.282 25.59511,27.1218 20.74306,45.3484 -4.75213,17.8513 -18.13954,27.8047 -30.09369,22.3743 z m 68.20538,-13.2531 c -3.31494,-2.0976 0.82286,-5.0762 7.05185,-5.0762 6.35666,0 7.10255,-2.8855 0.89637,-3.4677 -7.17041,-0.6727 -8.98165,-1.5476 -10.42681,-5.0365 -3.20393,-7.735 3.01179,-13.6141 13.01044,-12.3058 7.0408,0.9213 9.38777,4.2976 9.38777,13.5053 0,9.8901 -3.29245,13.5638 -12.13069,13.5356 -3.29687,-0.01 -6.80188,-0.5302 -7.78893,-1.1547 z m 13.04462,-16.9512 c 0,-1.9295 -0.96841,-2.5924 -4.24392,-2.9052 -4.66895,-0.4458 -7.09055,1.7942 -4.85354,4.4897 0.76222,0.9184 3.1179,1.4991 5.241,1.2919 2.89768,-0.2828 3.85646,-0.9979 3.85646,-2.8764 z m -22.16222,-26.8326 c -4.34829,-3.4203 -6.4196,-9.0906 -5.58737,-15.2955 0.61052,-4.5516 2.00542,-6.433 11.09893,-14.9697 5.72036,-5.3701 10.59952,-9.7668 10.84257,-9.7705 0.24305,0 5.14984,4.2675 10.90397,9.4915 7.93049,7.1999 10.65063,10.5034 11.24137,13.6523 1.07555,5.7332 -0.34941,11.2265 -4.05426,15.6295 -3.9656,4.7128 -8.83706,4.8805 -14.06208,0.4839 l -3.84591,-3.2361 -3.84591,3.2361 c -4.59718,3.8683 -8.46191,4.1054 -12.69131,0.7785 z m -330.79288,-249.1049 c -4.5063,-6.4698 -13.2298,-14.8699 -23.406,-22.5382 -10.29,-7.7542 -14.7635,-13.1238 -17.8858,-21.4687 -3.2711,-8.7429 -3.302,-13.7731 -0.1497,-24.3581 3.0765,-10.3304 9.1683,-17.8124 16.9098,-20.7689 5.277,-2.0154 5.9415,-2.0173 11.1382,-0.033 5.0226,1.9182 12.4791,8.7145 16.6611,15.1862 1.5341,2.374 1.5909,2.3747 3.125,0.037 6.26635,-9.5466 15.03455,-15.658 22.5498,-15.7171 5.32089,-0.042 13.01584,4.4808 17.01389,10 4.6174,6.3741 8.16216,19.3308 7.32372,26.7694 -1.11371,9.8809 -6.5262,18.9081 -15.66288,26.1234 -12.18377,9.6215 -23.85175,20.7809 -27.98719,26.7672 -2.01846,2.9219 -4.17839,5.3125 -4.79984,5.3125 -0.62145,0 -2.79499,-2.3906 -4.8301,-5.3125 z m 250.00001,0 c -4.50628,-6.4698 -13.22977,-14.8699 -23.40597,-22.5382 -10.29009,-7.7542 -14.76355,-13.1238 -17.8858,-21.4687 -3.27115,-8.7429 -3.30208,-13.7731 -0.14973,-24.3581 3.07654,-10.3304 9.1683,-17.8124 16.90983,-20.7689 5.277,-2.0154 5.94142,-2.0173 11.13813,-0.033 5.02263,1.9182 12.47908,8.7145 16.66113,15.1862 1.5341,2.374 1.5909,2.3747 3.125,0.037 6.26635,-9.5466 15.03455,-15.658 22.5498,-15.7171 5.32089,-0.042 13.01584,4.4808 17.01389,10 4.6174,6.3741 8.16216,19.3308 7.32372,26.7694 -1.11371,9.8809 -6.5262,18.9081 -15.66288,26.1234 -12.18377,9.6215 -23.85175,20.7809 -27.98719,26.7672 -2.01847,2.9219 -4.17839,5.3125 -4.79984,5.3125 -0.62145,0 -2.79499,-2.3906 -4.83009,-5.3125 z m -349.82391,-309.4189 c -6.2441,-5.8581 -10.5915,-10.99613 -11.0751,-13.08927 -2.0012,-8.66209 4.0139,-19.67929 10.7443,-19.67929 1.9879,0 5.231,1.42038 7.3889,3.23611 l 3.8459,3.23613 3.8459,-3.23613 c 4.5972,-3.86826 8.4619,-4.10532 12.6913,-0.77847 4.3483,3.42035 6.4196,9.09062 5.5874,15.29549 -0.6105,4.55166 -2.0054,6.43303 -11.0989,14.96973 -5.7204,5.3701 -10.682,9.747 -11.0257,9.7265 -0.3438,-0.02 -5.2506,-4.3768 -10.904,-9.6808 z m 99.8623,1.9189 c -4.3954,-6.3769 -14.9162,-16.44861 -22.8587,-21.88288 -14.1884,-9.70792 -22.2485,-23.87515 -20.6948,-36.37551 2.7158,-21.85012 13.9631,-33.70189 29.2597,-30.83223 4.5125,0.84655 13.4932,8.55329 17.51234,15.02816 1.52196,2.45187 1.5935,2.43984 3.716,-0.625 1.1903,-1.71875 4.16212,-5.17383 6.60406,-7.67795 13.09019,-13.42354 31.35396,-6.71971 37.44886,13.74584 3.18134,10.68232 3.21328,15.92086 0.14627,23.99256 -3.37745,8.88874 -7.47414,13.78591 -18.64807,22.2919 -10.13948,7.71853 -22.05326,19.87381 -24.28957,24.78201 -1.9063,4.1839 -4.07113,3.5376 -8.19609,-2.4469 z m 250.00004,0 c -4.39543,-6.3769 -14.91629,-16.44861 -22.85869,-21.88288 -14.18849,-9.70792 -22.24856,-23.87515 -20.69487,-36.37551 2.71581,-21.85012 13.96312,-33.70189 29.25975,-30.83223 4.51246,0.84655 13.49313,8.55329 17.51231,15.02816 1.52196,2.45187 1.5935,2.43984 3.716,-0.625 1.1903,-1.71875 4.16212,-5.17383 6.60406,-7.67795 13.09019,-13.42354 31.35396,-6.71971 37.44886,13.74584 3.18134,10.68232 3.21328,15.92086 0.14627,23.99256 -3.37745,8.88874 -7.47414,13.78591 -18.64807,22.2919 -10.13948,7.71853 -22.05326,19.87381 -24.28957,24.78201 -1.9063,4.1839 -4.07113,3.5376 -8.19605,-2.4469 z M -1098.135,958.52152 c -2.9789,-2.34317 -3.2936,-3.39965 -3.2936,-11.05627 0,-9.90717 1.8274,-12.41537 9.8275,-13.4884 6.8996,-0.92543 11.6954,0.41163 11.1822,3.11755 -0.3066,1.61701 -2.0908,2.29621 -7.2705,2.76784 -8.2815,0.75405 -9.0616,2.97043 -1.2392,3.52066 10.1974,0.71728 14.4698,8.37317 8.1818,14.66116 -4.0235,4.02354 -12.5814,4.25853 -17.3882,0.47746 z m 13.6152,-4.96404 c 1.3164,-2.12985 -1.9504,-4.94524 -5.7381,-4.94524 -3.8756,0 -5.5186,1.63899 -4.4457,4.43486 0.8097,2.10996 8.9433,2.51759 10.1838,0.51038 z m -90.2269,-116.4886 c 1.8868,-1.20074 604.74936,-1.20074 606.63624,0 0.79372,0.5051 -135.69944,0.91836 -303.31814,0.91836 -167.6187,0 -304.1119,-0.41326 -303.3181,-0.91836 z"
         id="path4116"
         inkscape:connector-curvature="0" />
      <path
         style="fill:#e85c94"
         d="m -1174.7467,1707.6556 c -0.7938,-0.5051 135.6994,-0.9184 303.3181,-0.9184 167.6187,0 304.11186,0.4133 303.31814,0.9184 -0.79373,0.5051 -137.28689,0.9184 -303.31814,0.9184 -166.0313,0 -302.5244,-0.4133 -303.3181,-0.9184 z m -8.4232,-8.5206 c -1.0958,-2.8557 -0.899,-852.11718 0.1979,-853.8409 0.5051,-0.79372 0.9184,191.4407 0.9184,427.1875 0,235.7469 -0.08,428.6306 -0.1788,428.6306 -0.098,0 -0.5202,-0.8897 -0.9375,-1.9772 z m 622.3663,-426.7728 c 0,-235.6812 0.41326,-427.86182 0.91836,-427.0681 1.2008,1.88698 1.2008,852.2493 0,854.1363 -0.5051,0.7937 -0.91836,-191.387 -0.91836,-427.0682 z m -580.047,392.4204 c -2.0883,-0.6073 -5.4633,-2.8435 -7.5,-4.9694 l -3.703,-3.8651 0,-383.5859 0,-383.5858 3.6789,-3.83999 c 2.0235,-2.112 5.6797,-4.39579 8.125,-5.07511 6.1027,-1.69531 531.53953,-1.69531 537.64216,0 2.44533,0.67932 6.10158,2.96311 8.125,5.07511 l 3.67894,3.83999 0,383.5858 0,383.5859 -3.67894,3.84 c -2.02342,2.112 -5.67967,4.3958 -8.125,5.0751 -5.66737,1.5744 -532.82346,1.4954 -538.24306,-0.081 z m 542.60381,-7.9885 3.06819,-3.0682 0,-381.3637 0,-381.3636 -3.06819,-3.06818 -3.06817,-3.06818 -270.11364,0 -270.1136,0 -3.0682,3.06818 -3.0682,3.06818 0,381.3636 0,381.3637 3.0682,3.0682 3.0682,3.0681 270.1136,0 270.11364,0 3.06817,-3.0681 z m -430.28661,-35.6112 c -8.873,-4.0285 -15.3952,-17.0378 -15.3952,-30.7078 0,-13.3752 4.7252,-20.9141 21.0593,-33.5994 11.3832,-8.8403 18.0702,-15.6279 23.27194,-23.6221 1.24672,-1.916 2.70075,-3.3223 3.23116,-3.125 0.53041,0.1972 3.46921,3.7717 6.53066,7.9433 3.5488,4.8356 9.87419,10.8084 17.45181,16.479 6.53703,4.8919 13.62923,11.0098 15.76044,13.5954 15.70293,19.0503 5.41019,55.4659 -15.67723,55.4659 -8.5586,0 -15.30949,-4.6586 -21.31095,-14.7063 l -2.43778,-4.0813 -4.87715,6.5813 c -5.1261,6.9172 -13.501,12.2282 -19.2046,12.1789 -1.7449,-0.015 -5.526,-1.0959 -8.4024,-2.4019 z m 249.99998,0 c -8.873,-4.0285 -15.39518,-17.0378 -15.39518,-30.7078 0,-13.3752 4.72516,-20.9141 21.05932,-33.5994 11.38321,-8.8403 18.07017,-15.6279 23.27192,-23.6221 1.24672,-1.916 2.70075,-3.3223 3.23116,-3.125 0.53041,0.1972 3.46921,3.7717 6.53066,7.9433 3.5488,4.8356 9.87419,10.8084 17.45182,16.479 6.53702,4.8919 13.62922,11.0098 15.76043,13.5954 15.70293,19.0503 5.41019,55.4659 -15.67723,55.4659 -8.5586,0 -15.30949,-4.6586 -21.31095,-14.7063 l -2.43778,-4.0813 -4.87717,6.5813 c -5.12607,6.9172 -13.50094,12.2282 -19.20454,12.1789 -1.74495,-0.015 -5.52606,-1.0959 -8.40247,-2.4019 z m 117.10482,-13.1303 c 0,-1.3013 1.84028,-1.9158 6.55079,-2.1875 5.06291,-0.292 6.64525,-0.8747 6.96666,-2.5654 0.34696,-1.825 -0.53127,-2.1875 -5.3008,-2.1875 -6.77544,0 -10.71665,-3.1467 -10.71665,-8.5562 0,-5.2332 3.46741,-7.6938 10.84219,-7.6938 8.6123,0 10.40781,2.194 10.40781,12.7172 0,10.4272 -1.7617,12.2828 -11.66092,12.2828 -5.35434,0 -7.08908,-0.4428 -7.08908,-1.8096 z m 13.75,-14.9316 c 0,-4.4852 -6.93616,-6.3255 -9.98679,-2.6497 -2.67495,3.2231 -0.55435,5.6409 4.94757,5.6409 4.48176,0 5.03922,-0.3309 5.03922,-2.9912 z m 2.5,-25.3884 c -1.03125,-0.3752 -3.42187,-2.1236 -5.3125,-3.8852 l -3.4375,-3.2029 -3.5059,3.3589 c -6.82547,6.5392 -15.00191,3.5425 -17.70289,-6.4881 -1.9376,-7.1957 0.88038,-13.4356 8.79249,-19.4695 3.43138,-2.6168 7.61545,-6.513 9.29793,-8.6582 l 3.05906,-3.9004 3.66509,4.4381 c 2.0158,2.441 5.93995,6.0146 8.72035,7.9415 9.01005,6.2439 11.57721,13.8306 7.78,22.9919 -1.35425,3.2673 -7.1782,8.1629 -9.10655,7.6549 -0.20602,-0.054 -1.21833,-0.4057 -2.24958,-0.781 z m -356.0777,-251.9329 c -4.5382,-6.5199 -12.2951,-13.9622 -21.5177,-20.6448 -10.0312,-7.2686 -14.8833,-12.5028 -18.2075,-19.6415 -9.5868,-20.5869 5.6694,-51.2403 23.7069,-47.6329 6.1147,1.223 12.8881,6.3802 16.5207,12.5788 1.82206,3.1091 3.74034,5.6529 4.26281,5.6529 0.52248,0 2.49324,-2.4415 4.37945,-5.4256 12.1311,-19.1919 34.49426,-14.9351 41.18769,7.84 5.30146,18.0388 0.54033,31.0742 -15.94208,43.6475 -11.04167,8.4229 -19.06551,16.0511 -24.10499,22.9162 -2.43128,3.3121 -4.90807,6.0219 -5.50399,6.0219 -0.59591,0 -2.74749,-2.3906 -4.78129,-5.3125 z m 250.00003,0 c -4.53824,-6.5199 -12.29515,-13.9622 -21.51772,-20.6448 -10.03126,-7.2686 -14.88327,-12.5028 -18.20755,-19.6415 -9.58674,-20.5869 5.66948,-51.2403 23.70689,-47.6329 6.11474,1.223 12.88811,6.3802 16.52074,12.5788 1.82207,3.1091 3.74035,5.6529 4.26282,5.6529 0.52248,0 2.49324,-2.4415 4.37945,-5.4256 12.1311,-19.1919 34.49426,-14.9351 41.18769,7.84 5.30146,18.0388 0.54032,31.0742 -15.94208,43.6475 -11.04167,8.4229 -19.06551,16.0511 -24.105,22.9162 -2.43127,3.3121 -4.90806,6.0219 -5.50398,6.0219 -0.59591,0 -2.74749,-2.3906 -4.78127,-5.3125 z m -341.90813,-301.5254 c -1.1128,-1.6983 -5.0161,-5.3476 -8.6741,-8.1094 -3.658,-2.7618 -7.4248,-6.46733 -8.3705,-8.23451 -3.684,-6.88365 -0.9805,-18.08479 5.1273,-21.24325 4.0717,-2.10555 6.715,-1.42149 11.4656,2.9672 l 3.4375,3.17563 3.5059,-3.35887 c 6.8255,-6.53921 15.0019,-3.54255 17.7029,6.48812 1.9752,7.33525 -0.8224,13.28295 -9.3984,19.98088 -3.7892,2.9594 -7.7801,6.74 -8.8687,8.4014 -2.4869,3.7956 -3.4033,3.7852 -5.9275,-0.067 z m 93.6823,-3.3776 c -3.9976,-6.7674 -10.5974,-13.26757 -23.8892,-23.5284 -11.0675,-8.54378 -13.3246,-10.93151 -16.6785,-17.6432 -2.9337,-5.87081 -3.8788,-9.44487 -3.8788,-14.66801 0,-21.93397 13.5295,-38.04329 28.5533,-33.99781 5.2555,1.41515 12.8497,8.0557 15.85183,13.86121 2.37398,4.5908 3.77901,4.64954 6.08112,0.25425 2.0563,-3.92598 8.83105,-10.59198 12.86908,-12.66251 4.2432,-2.17573 13.05992,-1.67099 17.43738,0.99826 8.55735,5.21802 14.2189,17.68815 14.19508,31.26613 -0.0224,12.71681 -6.08221,21.524 -24.1183,35.05241 -8.02725,6.02104 -17.56108,16.09407 -20.36559,21.51737 -2.31781,4.4822 -3.18195,4.418 -6.0574,-0.4497 z m 250,0 c -3.99759,-6.7674 -10.59744,-13.26757 -23.88916,-23.5284 -11.0675,-8.54378 -13.32466,-10.93151 -16.67854,-17.6432 -2.93367,-5.87081 -3.8788,-9.44487 -3.8788,-14.66801 0,-21.93397 13.52955,-38.04329 28.55333,-33.99781 5.25546,1.41515 12.84965,8.0557 15.8518,13.86121 2.37398,4.5908 3.77901,4.64954 6.08112,0.25425 2.0563,-3.92598 8.83105,-10.59198 12.86908,-12.66251 4.2432,-2.17573 13.05992,-1.67099 17.43738,0.99826 8.55735,5.21802 14.2189,17.68815 14.19508,31.26613 -0.0224,12.71681 -6.08221,21.524 -24.1183,35.05241 -8.02725,6.02104 -17.56108,16.09407 -20.36559,21.51737 -2.31781,4.4822 -3.18195,4.418 -6.0574,-0.4497 z m -348.8951,-52.8087 c -1.9694,-1.44008 -2.4264,-3.29874 -2.4264,-9.86876 0,-11.31457 2.1631,-13.59402 12.4295,-13.09786 8.1431,0.39353 10.3923,2.64822 3.1955,3.20329 -7.1535,0.55173 -10,1.48462 -10,3.27735 0,1.11566 2.1151,1.89538 6.2085,2.28871 3.4147,0.32811 7.071,1.3123 8.125,2.18709 2.6492,2.19866 2.429,9.18315 -0.3694,11.71569 -2.8703,2.59754 -13.7576,2.78436 -17.1627,0.29449 z m 13.8236,-5.72576 c 0,-2.78394 -0.5811,-3.16701 -5.3239,-3.50993 -3.9369,-0.28464 -5.5203,0.12659 -6.0774,1.57842 -1.265,3.29669 1.9822,5.84607 6.9193,5.43222 3.8473,-0.3225 4.482,-0.81826 4.482,-3.50071 z m -90.1931,-115.29336 c 1.8868,-1.20074 604.74936,-1.20074 606.63624,0 0.79372,0.5051 -135.69944,0.91836 -303.31814,0.91836 -167.6187,0 -304.1119,-0.41326 -303.3181,-0.91836 z"
         id="path4114"
         inkscape:connector-curvature="0" />
      <path
         style="fill:#e22c75"
         d="m -1022.3661,1707.6748 c 83.01563,-0.1774 218.85938,-0.1774 301.875,0 83.01563,0.1774 15.09375,0.3226 -150.9375,0.3226 -166.0313,0 -233.9531,-0.1452 -150.9375,-0.3226 z m -160.9447,-435.3126 c 0,-234.0937 0.1438,-329.85933 0.3197,-212.8125 0.1758,117.0469 0.1758,308.5782 0,425.625 -0.1759,117.0469 -0.3197,21.2813 -0.3197,-212.8125 z m 623.74997,0 c 0,-234.0937 0.14387,-329.85933 0.31971,-212.8125 0.17583,117.0469 0.17583,308.5782 0,425.625 -0.17584,117.0469 -0.31971,21.2813 -0.31971,-212.8125 z m -583.90937,390.1025 c -2.1541,-1.3136 -4.826,-3.6866 -5.9375,-5.2735 -1.8505,-2.6419 -2.0209,-35.1003 -2.0209,-384.9385 l 0,-382.05331 2.6104,-3.31855 c 5.9351,-7.5453 -14.8813,-7.0186 277.3896,-7.0186 292.27085,0 271.4545,-0.5267 277.38963,7.0186 l 2.61037,3.31855 0,382.16281 0,382.1629 -2.61037,3.3185 c -5.93533,7.5456 14.90661,7.0191 -277.64005,7.014 -261.49148,0 -267.96788,-0.062 -271.79118,-2.3929 z m 542.52535,-2.5488 c 1.73059,-0.6579 4.0172,-2.88 5.08138,-4.9379 1.73401,-3.3532 1.93487,-43.0732 1.93487,-382.6158 0,-339.54256 -0.20086,-379.26253 -1.93487,-382.61574 -1.06418,-2.05789 -3.35079,-4.27996 -5.08138,-4.93792 -4.27991,-1.62722 -536.68755,-1.62722 -540.96755,0 -1.7305,0.65796 -4.0172,2.88003 -5.0813,4.93792 -1.734,3.35321 -1.9349,43.07318 -1.9349,382.61574 0,340.0119 0.199,379.2591 1.9404,382.6266 1.0673,2.0638 3.1767,4.2503 4.6875,4.8587 3.8362,1.5449 537.29515,1.6123 541.35585,0.068 z m -377.98375,-38.2965 c -5.66541,-2.454 -10.86669,-7.4417 -13.88989,-13.3197 -1.326,-2.5781 -2.95056,-4.6875 -3.61011,-4.6875 -0.65955,0 -2.30249,2.1627 -3.6509,4.8059 -7.5301,14.7601 -23.8352,18.3717 -34.122,7.5581 -9.2337,-9.7066 -11.6891,-27.6484 -5.5119,-40.2743 2.8964,-5.9199 5.6494,-8.9298 14.9792,-16.3767 11.129,-8.8831 21.7775,-19.3841 26.07396,-25.713 1.77514,-2.6148 2.32405,-2.8238 3.36222,-1.2803 5.50091,8.1785 12.4056,15.2465 21.99442,22.5145 16.67918,12.6424 20.13033,16.98 23.19569,29.1537 1.19011,4.7264 1.07795,7.4457 -0.6223,15.088 -2.5298,11.371 -7.49004,18.7563 -14.83801,22.0923 -6.28037,2.8514 -7.68442,2.8975 -13.36038,0.439 z m 250,0 c -5.66541,-2.454 -10.86669,-7.4417 -13.88989,-13.3197 -1.326,-2.5781 -2.95056,-4.6875 -3.61011,-4.6875 -0.65955,0 -2.30249,2.1627 -3.65095,4.8059 -7.53005,14.7601 -23.83519,18.3717 -34.12197,7.5581 -9.23363,-9.7066 -11.68912,-27.6484 -5.51187,-40.2743 2.89635,-5.9199 5.64935,-8.9298 14.97917,-16.3767 11.12905,-8.8831 21.7775,-19.3841 26.07398,-25.713 1.77514,-2.6148 2.32405,-2.8238 3.36222,-1.2803 5.50091,8.1785 12.4056,15.2465 21.99442,22.5145 16.67918,12.6424 20.13033,16.98 23.19569,29.1537 1.19011,4.7264 1.07795,7.4457 -0.6223,15.088 -2.5298,11.371 -7.49004,18.7563 -14.83801,22.0923 -6.28037,2.8514 -7.68442,2.8975 -13.36038,0.439 z m 69.375,-13.0072 c -0.46075,-0.7455 1.05608,-1.25 3.7584,-1.25 5.28151,0 9.3666,-1.8689 9.3666,-4.2852 0,-2.18 -2.76875,-3.2148 -8.60224,-3.2148 -5.66311,0 -7.64776,-1.7841 -7.64776,-6.875 0,-5.3963 2.0126,-6.878 9.3125,-6.8558 8.74779,0.026 9.79667,1.0113 10.43199,9.7944 0.49014,6.776 0.22861,7.827 -2.66874,10.7243 -2.37514,2.3752 -4.51054,3.2121 -8.19516,3.2121 -2.74068,0 -5.33069,-0.5625 -5.75559,-1.25 z m 12.5,-15.625 c 0,-3.5973 -0.22347,-3.75 -5.48876,-3.75 -6.40093,0 -9.27099,2.7741 -6.42184,6.2071 1.17824,1.4197 3.25058,1.9277 6.80251,1.6673 4.75913,-0.3488 5.10809,-0.6305 5.10809,-4.1244 z m -23.72397,-28.6103 c -7.25042,-7.2504 -5.15787,-17.948 5.0515,-25.8245 3.75487,-2.8968 7.8716,-6.7009 9.1483,-8.4536 l 2.32125,-3.1865 4.93527,4.9125 c 2.7144,2.7018 7.24285,6.8839 10.06321,9.2934 2.82037,2.4095 5.51643,5.9288 5.99125,7.8207 1.99228,7.9378 -3.3073,18.4233 -9.3115,18.4233 -1.38232,0 -4.50165,-1.7457 -6.93181,-3.8794 l -4.4185,-3.8795 -4.4185,3.8795 c -5.30284,4.6559 -8.4428,4.8818 -12.43048,0.8941 z m -328.69832,-247.6965 c -4.35591,-6.6479 -11.62051,-13.6723 -22.78851,-22.0349 -18.6227,-13.9447 -24.0215,-25.3124 -19.8859,-41.8719 3.2047,-12.8326 6.932,-18.3465 15.1045,-22.3449 l 6.8862,-3.3691 7.178,3.5888 c 5.4013,2.7005 8.1856,5.1358 11.2487,9.8388 2.23886,3.4375 4.5564,6.4132 5.15008,6.6126 0.59367,0.1994 2.88837,-2.4565 5.09935,-5.902 14.14423,-22.0419 37.54087,-12.9142 41.93055,16.3583 0.60997,4.0675 0.19493,7.846 -1.43629,13.0758 -2.5493,8.1734 -9.47609,16.0243 -24.14079,27.3615 -4.44202,3.4341 -10.78945,9.6188 -14.10539,13.7438 -3.31593,4.125 -6.49387,7.6614 -7.06208,7.8587 -0.56822,0.1973 -1.99849,-1.1147 -3.17842,-2.9155 z m 250,0 c -4.3559,-6.6479 -11.62048,-13.6723 -22.7885,-22.0349 -18.62272,-13.9447 -24.0215,-25.3124 -19.88596,-41.8719 3.20478,-12.8326 6.93203,-18.3465 15.10456,-22.3449 l 6.88614,-3.3691 7.17803,3.5888 c 5.40132,2.7005 8.1856,5.1358 11.24871,9.8388 2.23887,3.4375 4.55641,6.4132 5.15009,6.6126 0.59367,0.1994 2.88837,-2.4565 5.09935,-5.902 14.14423,-22.0419 37.54087,-12.9142 41.93055,16.3583 0.60997,4.0675 0.19493,7.846 -1.43629,13.0758 -2.5493,8.1734 -9.47609,16.0243 -24.14079,27.3615 -4.44202,3.4341 -10.78945,9.6188 -14.10539,13.7438 -3.31594,4.125 -6.49387,7.6614 -7.06208,7.8587 -0.56822,0.1973 -1.99849,-1.1147 -3.17842,-2.9155 z m -345.78341,-305.3399 c -2.4506,-2.5318 -6.7646,-6.5747 -9.5867,-8.9842 -2.8221,-2.40953 -5.5196,-5.92885 -5.9944,-7.82072 -1.9923,-7.93783 3.3073,-18.42334 9.3115,-18.42334 1.3823,0 4.5016,1.74578 6.9318,3.87949 l 4.4185,3.87948 4.4185,-3.87948 c 2.4302,-2.13371 5.5495,-3.87949 6.9318,-3.87949 3.6358,0 8.352,5.26719 9.3157,10.40386 1.3674,7.28918 -1.1974,12.41277 -9.4654,18.9085 -4.0986,3.22 -8.034,6.9421 -8.7453,8.2711 -1.7214,3.2165 -2.3256,3.0277 -7.536,-2.3552 z m 93.5959,-4.848 c -5.1774,-6.81172 -7.9371,-9.29906 -26.0788,-23.50526 -14.279,-11.18146 -18.6085,-24.89437 -13.3178,-42.18193 3.4269,-11.19754 12.2381,-19.69307 20.4247,-19.69307 6.4552,0 14.1017,4.88036 18.849,12.03022 2.45389,3.69588 4.86976,6.71978 5.36856,6.71978 0.49882,0 2.36959,-2.21024 4.15729,-4.91164 7.05654,-10.66314 15.7458,-15.04117 24.85883,-12.52494 12.48387,3.44696 21.32796,25.33658 16.47742,40.78257 -2.54227,8.09559 -9.07382,15.43375 -24.92827,28.00676 -4.83938,3.83776 -11.40793,10.44851 -14.59675,14.69061 l -5.79788,7.7129 -5.4163,-7.126 z m 250.00001,0 c -5.17743,-6.81172 -7.93711,-9.29906 -26.0788,-23.50526 -14.27903,-11.18146 -18.60851,-24.89437 -13.31778,-42.18193 3.42692,-11.19754 12.23805,-19.69307 20.42465,-19.69307 6.45517,0 14.10175,4.88036 18.84898,12.03022 2.45393,3.69588 4.8698,6.71978 5.3686,6.71978 0.49882,0 2.36959,-2.21024 4.15729,-4.91164 7.05654,-10.66314 15.7458,-15.04117 24.85883,-12.52494 12.48387,3.44696 21.32796,25.33658 16.47742,40.78257 -2.54227,8.09559 -9.07382,15.43375 -24.92827,28.00676 -4.83938,3.83776 -11.40793,10.44851 -14.59675,14.69061 l -5.79788,7.7129 -5.41629,-7.126 z m -343.51521,-47.49774 c -3.5602,-1.27238 -5,-4.63507 -5,-11.6777 0,-9.30302 2.0216,-11.20482 11.9109,-11.20482 8.9033,0 7.8845,2.16895 -1.2859,2.73751 -5.2875,0.32782 -6.25,0.77249 -6.25,2.88749 0,2.10529 1.0575,2.60617 6.698,3.17247 9.9386,0.99783 12.9541,6.03905 7.1088,11.88435 -2.9828,2.98286 -8.4428,3.89439 -13.1818,2.2007 z m 10.0822,-2.9265 c 5.8062,-3.10742 0.9754,-9.21111 -6.7025,-8.46841 -3.1608,0.30576 -4.0956,1.03113 -4.4359,3.44236 -0.729,5.16476 5.569,8.00668 11.1384,5.02605 z m 62.7303,-119.64347 c 83.01563,-0.17742 218.85938,-0.17742 301.875,0 83.01563,0.17742 15.09375,0.32258 -150.9375,0.32258 -166.0313,0 -233.9531,-0.14516 -150.9375,-0.32258 z"
         id="path4112"
         inkscape:connector-curvature="0" />
      <path
         style="fill:#e01b6a"
         d="m -1022.3661,1707.6748 c 83.01563,-0.1774 218.85938,-0.1774 301.875,0 83.01563,0.1774 15.09375,0.3226 -150.9375,0.3226 -166.0313,0 -233.9531,-0.1452 -150.9375,-0.3226 z m -160.9447,-435.3126 c 0,-234.0937 0.1438,-329.85933 0.3197,-212.8125 0.1758,117.0469 0.1758,308.5782 0,425.625 -0.1759,117.0469 -0.3197,21.2813 -0.3197,-212.8125 z m 623.74997,0 c 0,-234.0937 0.14387,-329.85933 0.31971,-212.8125 0.17583,117.0469 0.17583,308.5782 0,425.625 -0.17584,117.0469 -0.31971,21.2813 -0.31971,-212.8125 z m -584.59697,389.1028 c -1.8447,-1.1444 -4.0947,-3.4645 -5,-5.1559 -2.4567,-4.5905 -2.4423,-763.33015 0.015,-767.92098 0.9132,-1.70642 3.25,-4.04158 5.1928,-5.18923 3.2697,-1.93146 23.5383,-2.08665 272.5217,-2.08665 248.9834,0 269.25199,0.15519 272.52168,2.08665 1.94282,1.14765 4.27962,3.48281 5.19287,5.18923 2.46986,4.61499 2.46986,763.33328 0,767.94828 -0.91325,1.7064 -3.25005,4.0415 -5.19287,5.1892 -3.27019,1.9317 -23.51478,2.0842 -272.71454,2.0534 -248.88804,-0.031 -269.43504,-0.1901 -272.53634,-2.114 z m 547.16101,-3.4209 3.06819,-3.0682 0,-382.6137 0,-382.6136 -3.06819,-3.06818 -3.06817,-3.06818 -271.36364,0 -271.3636,0 -3.0682,3.06818 -3.0682,3.06818 0,382.6136 0,382.6137 3.0682,3.0682 3.0682,3.0681 271.3636,0 271.36364,0 3.06817,-3.0681 z m -428.67641,-36.9799 c -8.5135,-2.5476 -15.3297,-14.0069 -16.5367,-27.8009 -1.224,-13.9898 3.4953,-22.4322 19.2683,-34.4692 9.4516,-7.2129 20.1146,-17.739 24.24324,-23.9319 l 2.08335,-3.125 2.22935,3.125 c 4.58569,6.428 14.93187,16.5478 22.27552,21.7881 16.62953,11.8666 22.97588,22.8776 21.47303,37.2561 -2.3043,22.0464 -17.06049,34.1066 -31.2335,25.5271 -4.33651,-2.625 -12.05799,-12.0764 -12.05799,-14.7594 0,-2.718 -4.82702,-0.7472 -6.182,2.524 -2.0034,4.8366 -8.4224,10.8618 -14.0903,13.2258 -5.1529,2.1492 -6.2293,2.2093 -11.4723,0.6403 z m 250,0 c -8.51346,-2.5476 -15.32972,-14.0069 -16.53665,-27.8009 -1.22406,-13.9898 3.4952,-22.4322 19.26826,-34.4692 9.45157,-7.2129 20.11459,-17.739 24.24323,-23.9319 l 2.08335,-3.125 2.22935,3.125 c 4.58569,6.428 14.93187,16.5478 22.27552,21.7881 16.62953,11.8666 22.97588,22.8776 21.47303,37.2561 -2.3043,22.0464 -17.06049,34.1066 -31.2335,25.5271 -4.33651,-2.625 -12.05799,-12.0764 -12.05799,-14.7594 0,-2.718 -4.82702,-0.7472 -6.18203,2.524 -2.00337,4.8366 -8.42239,10.8618 -14.09032,13.2258 -5.15286,2.1492 -6.22924,2.2093 -11.47225,0.6403 z m 127.0571,-13.8021 c 2.87975,-1.6773 2.93915,-7.3999 0.0767,-7.3999 -1.77659,0 -1.67765,-0.4034 0.625,-2.5487 3.45597,-3.2197 3.45597,-5.4328 0,-8.6526 -2.9661,-2.7633 -2.27879,-3.3133 1.56788,-1.2547 2.00338,1.0722 2.41782,2.6639 2.41782,9.2857 0,7.9505 -1.82935,11.9745 -5.40179,11.8823 -0.81026,-0.021 -0.48884,-0.6113 0.71429,-1.3121 z m -11.28436,-9.3457 c -1.52798,-1.0703 -2.77814,-3.2331 -2.77814,-4.8063 0,-2.8014 4.38504,-8.0295 5.66288,-6.7517 0.35615,0.3562 -0.2098,1.3591 -1.25767,2.2288 -2.78342,2.31 -2.32733,6.9257 0.90729,9.182 1.54688,1.0791 2.23454,1.9914 1.52814,2.0275 -0.70641,0.036 -2.53454,-0.8101 -4.0625,-1.8803 z m -10.92066,-34.3235 c -1.40172,-1.5489 -2.49814,-5.1497 -2.84625,-9.3475 -0.62595,-7.5482 -1.85823,-5.7381 13.86098,-20.3601 l 5.75354,-5.3519 5.23234,4.7269 c 15.93804,14.3985 15.25772,13.4238 14.63237,20.9647 -1.00168,12.079 -8.7455,15.868 -16.06092,7.8587 l -3.67954,-4.0286 -3.67954,4.0286 c -4.3412,4.753 -9.72126,5.3675 -13.21298,1.5092 z m -331.99148,-252.2243 c -3.1674,-3.9727 -11.3017,-11.4212 -18.0763,-16.5522 -6.7745,-5.1311 -13.8894,-11.5792 -15.8109,-14.3292 -10.6863,-15.2945 -5.6192,-41.7684 9.4238,-49.2353 5.4733,-2.7168 6.482,-2.8452 11.2125,-1.428 5.5779,1.6712 12.6648,8.1456 16.13926,14.7442 1.17115,2.2243 2.72323,4.0441 3.44905,4.0441 0.72584,0 3.04593,-2.8054 5.15575,-6.2343 4.76582,-7.7455 9.79879,-11.4215 16.70305,-12.1997 11.23359,-1.2662 19.98572,7.0952 23.1794,22.1445 3.80824,17.9452 -1.04173,27.0037 -24.05843,44.935 -4.643,3.6172 -11.0541,9.9017 -14.24689,13.9656 -3.1928,4.0639 -6.14398,7.3843 -6.55819,7.3787 -0.4142,-0.01 -3.34464,-3.2606 -6.5121,-7.2334 z m 250.00003,0 c -3.16744,-3.9727 -11.30178,-11.4212 -18.07632,-16.5522 -6.77453,-5.1311 -13.88942,-11.5792 -15.81086,-14.3292 -10.68637,-15.2945 -5.61921,-41.7684 9.42374,-49.2353 5.4733,-2.7168 6.482,-2.8452 11.2125,-1.428 5.57787,1.6712 12.66484,8.1456 16.13927,14.7442 1.17115,2.2243 2.72323,4.0441 3.44905,4.0441 0.72584,0 3.04593,-2.8054 5.15575,-6.2343 4.76582,-7.7455 9.79879,-11.4215 16.70305,-12.1997 11.23359,-1.2662 19.98572,7.0952 23.1794,22.1445 3.80824,17.9452 -1.04173,27.0037 -24.05843,44.935 -4.643,3.6172 -11.0541,9.9017 -14.24689,13.9656 -3.1928,4.0639 -6.14398,7.3843 -6.55819,7.3787 -0.4142,-0.01 -3.34464,-3.2606 -6.51207,-7.2334 z m -341.11603,-299.8101 c -1.7188,-1.7759 -6.1514,-5.9346 -9.8502,-9.2416 l -6.7253,-6.01266 0.5765,-6.95162 c 1.0103,-12.18344 8.7232,-16.00489 16.0695,-7.96181 l 3.6795,4.02858 3.6795,-4.02858 c 7.3094,-8.00267 15.0593,-4.22003 16.0593,7.83829 0.5379,6.48643 0.3492,7.0328 -3.7706,10.9181 -10.7025,10.0934 -15.7936,14.7123 -16.1781,14.6777 -0.2283,-0.021 -1.8214,-1.4905 -3.5401,-3.2664 z m 91.8896,-6.6773 c -3.3942,-4.411 -10.9667,-11.46186 -18.1623,-16.91117 -6.7876,-5.14028 -13.7669,-11.21538 -15.5097,-13.50021 -6.8624,-8.99718 -8.5597,-19.98344 -4.9734,-32.1932 3.9919,-13.59088 10.5557,-19.91832 20.6533,-19.90971 7.3827,0.006 12.665,3.4812 18.0221,11.85571 2.42396,3.78929 4.93515,6.88962 5.5804,6.88962 0.64525,0 3.13799,-3.07149 5.53941,-6.82553 7.1043,-11.10581 17.81265,-14.8249 26.8397,-9.32164 6.30669,3.84481 8.56593,7.09728 11.5239,16.59022 5.42811,17.4202 0.73263,30.00661 -15.92292,42.68195 -11.37108,8.6537 -18.67859,15.65974 -24.00978,23.01926 l -3.7595,5.1898 -5.82121,-7.5651 z m 249.99995,0 c -3.39419,-4.411 -10.96664,-11.46186 -18.16227,-16.91117 -6.78757,-5.14028 -13.7669,-11.21538 -15.50963,-13.50021 -6.86249,-8.99718 -8.55972,-19.98344 -4.97346,-32.1932 3.99192,-13.59088 10.5557,-19.91832 20.65335,-19.90971 7.38269,0.006 12.66494,3.4812 18.02205,11.85571 2.42397,3.78929 4.93516,6.88962 5.58041,6.88962 0.64525,0 3.13799,-3.07149 5.53941,-6.82553 7.1043,-11.10581 17.81265,-14.8249 26.8397,-9.32164 6.30669,3.84481 8.56593,7.09728 11.5239,16.59022 5.42811,17.4202 0.73263,30.00661 -15.92292,42.68195 -11.37108,8.6537 -18.67859,15.65974 -24.00978,23.01926 l -3.7595,5.1898 -5.82126,-7.5651 z m -344.70205,-47.61908 c -3.2083,-1.86864 -3.1346,-16.15533 0.098,-19.08115 1.2573,-1.1378 2.7696,-2.06873 3.3607,-2.06873 0.5912,0 -0.1563,1.14691 -1.6609,2.54869 -3.3919,3.16005 -3.4246,4.32703 -0.1847,6.59631 l 2.5509,1.78677 -2.5509,0.66709 c -3.5249,0.92176 -3.3853,6.42505 0.2271,8.95526 3.0681,2.14895 1.6269,2.61541 -1.8406,0.59576 z m 11.2643,0.5175 c 2.3645,-0.9526 4.1448,-4.96121 3.2448,-7.30643 -0.4369,-1.13858 -1.9817,-2.54993 -3.433,-3.13632 -2.6049,-1.05255 -2.6059,-1.06718 -0.076,-1.1454 3.5058,-0.1084 5.5625,2.2494 5.5625,6.37679 0,3.17093 -3.0041,6.22123 -5.8553,5.9453 -0.5608,-0.0543 -0.3101,-0.38455 0.5571,-0.73394 z m 63.1107,-121.35483 c 83.01563,-0.17742 218.85938,-0.17742 301.875,0 83.01563,0.17742 15.09375,0.32258 -150.9375,0.32258 -166.0313,0 -233.9531,-0.14516 -150.9375,-0.32258 z"
         id="path4110"
         inkscape:connector-curvature="0" />
      <path
         style="fill:#dd0058"
         d="m -1022.3661,1707.6748 c 83.01563,-0.1774 218.85938,-0.1774 301.875,0 83.01563,0.1774 15.09375,0.3226 -150.9375,0.3226 -166.0313,0 -233.9531,-0.1452 -150.9375,-0.3226 z m -160.9447,-435.3126 c 0,-234.0937 0.1438,-329.85933 0.3197,-212.8125 0.1758,117.0469 0.1758,308.5782 0,425.625 -0.1759,117.0469 -0.3197,21.2813 -0.3197,-212.8125 z m 623.74997,0 c 0,-234.0937 0.14387,-329.85933 0.31971,-212.8125 0.17583,117.0469 0.17583,308.5782 0,425.625 -0.17584,117.0469 -0.31971,21.2813 -0.31971,-212.8125 z m -445.93027,390.3126 c 73.73438,-0.1781 194.39063,-0.1781 268.125,0 73.73438,0.1781 13.40625,0.3238 -134.0625,0.3238 -147.4687,0 -207.7969,-0.1457 -134.0625,-0.3238 z m 28.133,-41.7103 c -4.93273,-1.4229 -11.5885,-7.8563 -14.52072,-14.0355 -2.76558,-5.828 -6.22337,-6.0237 -8.90968,-0.5043 -5.9491,12.2232 -17.4039,17.718 -26.8033,12.8574 -10.7867,-5.578 -16.8077,-23.7403 -12.7132,-38.3495 2.1067,-7.5166 6.881,-13.186 18.6839,-22.1868 9.3718,-7.1467 18.7552,-16.4147 22.9155,-22.6336 l 2.09059,-3.125 2.23691,3.125 c 4.93123,6.889 13.83474,15.405 23.68313,22.6523 12.01358,8.8407 16.45455,14.5944 18.69133,24.2167 1.31685,5.665 1.30379,8.3233 -0.0733,14.9051 -0.9218,4.4057 -2.53053,9.6629 -3.57499,11.6826 -2.23462,4.3212 -10.11343,11.5433 -12.59298,11.5433 -0.9511,0 -2.4784,0.23 -3.394,0.511 -0.91562,0.281 -3.48926,-0.015 -5.71924,-0.6587 z m 250,0 c -4.93273,-1.4229 -11.5885,-7.8563 -14.52072,-14.0355 -2.76558,-5.828 -6.22337,-6.0237 -8.90973,-0.5043 -5.94909,12.2232 -17.4039,17.718 -26.80322,12.8574 -10.78675,-5.578 -16.80769,-23.7403 -12.71318,-38.3495 2.10668,-7.5166 6.88099,-13.186 18.68384,-22.1868 9.37177,-7.1467 18.75518,-16.4147 22.91551,-22.6336 l 2.09059,-3.125 2.23691,3.125 c 4.93122,6.889 13.83474,15.405 23.68313,22.6523 12.01358,8.8407 16.45455,14.5944 18.69133,24.2167 1.31685,5.665 1.30379,8.3233 -0.0733,14.9051 -0.9218,4.4057 -2.53053,9.6629 -3.57499,11.6826 -2.23462,4.3212 -10.11343,11.5433 -12.59298,11.5433 -0.9511,0 -2.4784,0.23 -3.394,0.511 -0.91561,0.281 -3.48926,-0.015 -5.71924,-0.6587 z m 58.74029,-56.7753 c -1.50564,-1.0546 -3.39683,-4.1179 -4.20263,-6.8074 -2.07336,-6.9203 -0.18652,-10.5969 10.22004,-19.9141 l 8.68159,-7.7728 9.30405,8.3601 c 10.14456,9.1154 11.83111,12.6755 9.43887,19.924 -1.4604,4.4251 -5.35847,8.1332 -8.54976,8.1332 -0.95742,0 -3.6793,-2.1093 -6.0486,-4.6875 l -4.30784,-4.6875 -3.36075,3.9472 c -4.17866,4.9078 -7.62758,5.9895 -11.17497,3.5048 z m -333.73309,-253.5674 c -2.8954,-3.7073 -9.638,-9.9824 -14.9835,-13.9447 -17.2297,-12.7712 -21.3726,-17.8213 -23.9195,-29.1569 -2.2537,-10.0303 2.9477,-27.304 10.0114,-33.2477 10.0005,-8.4149 23.1591,-3.5271 31.31826,11.6332 1.17115,2.1761 2.70074,3.9565 3.39909,3.9565 0.69835,0 3.22945,-3.0635 5.62468,-6.8078 6.4619,-10.1016 14.09828,-14.1292 22.42823,-11.8292 8.94764,2.4706 13.58933,8.9485 16.57081,23.1262 1.32909,6.3201 1.30702,8.7293 -0.12987,14.1763 -2.53159,9.5968 -6.08486,14.0173 -20.0773,24.9771 -6.90526,5.4087 -14.98929,12.9893 -17.96451,16.8457 -2.97524,3.8565 -5.77039,7.0117 -6.21146,7.0117 -0.44108,0 -3.17093,-3.0332 -6.06633,-6.7404 z m 249.99999,0 c -2.8954,-3.7073 -9.63799,-9.9824 -14.98353,-13.9447 -17.22961,-12.7712 -21.37256,-17.8213 -23.9195,-29.1569 -2.25367,-10.0303 2.9477,-27.304 10.01145,-33.2477 10.00052,-8.4149 23.15905,-3.5271 31.31825,11.6332 1.17115,2.1761 2.70074,3.9565 3.39909,3.9565 0.69835,0 3.22945,-3.0635 5.62467,-6.8078 6.4619,-10.1016 14.09829,-14.1292 22.42824,-11.8292 8.94764,2.4706 13.58933,8.9485 16.57081,23.1262 1.32909,6.3201 1.30702,8.7293 -0.12987,14.1763 -2.53159,9.5968 -6.08486,14.0173 -20.0773,24.9771 -6.90526,5.4087 -14.98929,12.9893 -17.96451,16.8457 -2.97524,3.8565 -5.77039,7.0117 -6.21147,7.0117 -0.44107,0 -3.17092,-3.0332 -6.06633,-6.7404 z m -347.46159,-305.5015 c -5.1778,-4.8181 -9.348,-9.81665 -9.8063,-11.75417 -1.5802,-6.67993 3.8015,-16.00389 9.2372,-16.00389 0.9575,0 3.6793,2.10938 6.0487,4.6875 l 4.3078,4.6875 3.3607,-3.90101 c 1.8485,-2.14556 4.4244,-4.26769 5.7244,-4.71587 6.1308,-2.11352 12.6744,9.10578 9.6166,16.48799 -1.2065,2.91268 -17.5605,19.15555 -19.0791,18.94945 -0.2206,-0.03 -4.4551,-3.8268 -9.41,-8.4375 z m 98.2315,-0.9757 c -3.0099,-3.7954 -9.9726,-10.3401 -15.4726,-14.54382 -13.614,-10.40533 -17.932,-14.56414 -20.7033,-19.93999 -3.9168,-7.59791 -4.7909,-13.88671 -3.1361,-22.56412 3.0516,-16.00171 9.9848,-24.10943 20.6171,-24.10943 7.2972,0 12.6331,3.67828 18.3892,12.67663 2.35671,3.6841 4.81285,6.69837 5.4581,6.69837 0.64525,0 3.15644,-3.10033 5.58041,-6.88962 5.39947,-8.4407 10.62805,-11.85103 18.16959,-11.85103 10.81985,0 17.40894,7.34235 20.74418,23.11565 3.09678,14.6456 -2.01332,25.71413 -17.12123,37.08466 -10.41112,7.83564 -18.63329,15.67933 -23.65842,22.5694 l -3.39434,4.654 -5.47259,-6.9007 z m 250,0 c -3.00994,-3.7954 -9.9726,-10.3401 -15.4726,-14.54382 -13.61396,-10.40533 -17.93197,-14.56414 -20.70329,-19.93999 -3.91681,-7.59791 -4.79086,-13.88671 -3.13608,-22.56412 3.05152,-16.00171 9.98481,-24.10943 20.61707,-24.10943 7.29719,0 12.63305,3.67828 18.38923,12.67663 2.35668,3.6841 4.81282,6.69837 5.45807,6.69837 0.64525,0 3.15644,-3.10033 5.58041,-6.88962 5.39947,-8.4407 10.62805,-11.85103 18.16959,-11.85103 10.81985,0 17.40894,7.34235 20.74418,23.11565 3.09678,14.6456 -2.01332,25.71413 -17.12123,37.08466 -10.41112,7.83564 -18.63329,15.67933 -23.65842,22.5694 l -3.39434,4.654 -5.47259,-6.9007 z m -347.3476,-58.03236 c 0,-0.6875 0.5625,-1.25 1.25,-1.25 0.6875,0 1.25,0.5625 1.25,1.25 0,0.6875 -0.5625,1.25 -1.25,1.25 -0.6875,0 -1.25,-0.5625 -1.25,-1.25 z m 93.4375,-64.68744 c 73.73438,-0.1781 194.39063,-0.1781 268.125,0 73.73438,0.1781 13.40625,0.32382 -134.0625,0.32382 -147.4687,0 -207.7969,-0.14572 -134.0625,-0.32382 z m -16.875,-45.00001 c 83.01563,-0.17742 218.85938,-0.17742 301.875,0 83.01563,0.17742 15.09375,0.32258 -150.9375,0.32258 -166.0313,0 -233.9531,-0.14516 -150.9375,-0.32258 z"
         id="path4108"
         inkscape:connector-curvature="0" />
      <path
         style="fill:#111111"
         d="m -1022.3661,1707.6748 c 83.01563,-0.1774 218.85938,-0.1774 301.875,0 83.01563,0.1774 15.09375,0.3226 -150.9375,0.3226 -166.0313,0 -233.9531,-0.1452 -150.9375,-0.3226 z m -160.9447,-435.3126 c 0,-234.0937 0.1438,-329.85933 0.3197,-212.8125 0.1758,117.0469 0.1758,308.5782 0,425.625 -0.1759,117.0469 -0.3197,21.2813 -0.3197,-212.8125 z m 623.74997,0 c 0,-234.0937 0.14387,-329.85933 0.31971,-212.8125 0.17583,117.0469 0.17583,308.5782 0,425.625 -0.17584,117.0469 -0.31971,21.2813 -0.31971,-212.8125 z M -1022.3661,836.42479 c 83.01563,-0.17742 218.85938,-0.17742 301.875,0 83.01563,0.17742 15.09375,0.32258 -150.9375,0.32258 -166.0313,0 -233.9531,-0.14516 -150.9375,-0.32258 z"
         id="path4106"
         inkscape:connector-curvature="0" />
    </g>
  </g>
</svg>
