<?xml version="1.0" encoding="UTF-8" standalone="no"?>
<!-- Created with Inkscape (http://www.inkscape.org/) -->

<svg
   xmlns:dc="http://purl.org/dc/elements/1.1/"
   xmlns:cc="http://creativecommons.org/ns#"
   xmlns:rdf="http://www.w3.org/1999/02/22-rdf-syntax-ns#"
   xmlns:svg="http://www.w3.org/2000/svg"
   xmlns="http://www.w3.org/2000/svg"
   xmlns:sodipodi="http://sodipodi.sourceforge.net/DTD/sodipodi-0.dtd"
   xmlns:inkscape="http://www.inkscape.org/namespaces/inkscape"
   width="176.39108mm"
   height="246.27499mm"
   viewBox="0 0 625.00777 872.62792"
   id="svg2"
   version="1.1"
   inkscape:version="0.91 r13725"
   sodipodi:docname="7.svg">
  <defs
     id="defs4">
    <pattern
       y="0"
       x="0"
       height="6"
       width="6"
       patternUnits="userSpaceOnUse"
       id="EMFhbasepattern" />
    <pattern
       y="0"
       x="0"
       height="6"
       width="6"
       patternUnits="userSpaceOnUse"
       id="EMFhbasepattern-1" />
    <pattern
       y="0"
       x="0"
       height="6"
       width="6"
       patternUnits="userSpaceOnUse"
       id="EMFhbasepattern-14" />
    <pattern
       y="0"
       x="0"
       height="6"
       width="6"
       patternUnits="userSpaceOnUse"
       id="EMFhbasepattern-4" />
    <pattern
       y="0"
       x="0"
       height="6"
       width="6"
       patternUnits="userSpaceOnUse"
       id="EMFhbasepattern-9" />
    <pattern
       y="0"
       x="0"
       height="6"
       width="6"
       patternUnits="userSpaceOnUse"
       id="EMFhbasepattern-8" />
  </defs>
  <sodipodi:namedview
     id="base"
     pagecolor="#ffffff"
     bordercolor="#666666"
     borderopacity="1.0"
     inkscape:pageopacity="0.0"
     inkscape:pageshadow="2"
     inkscape:zoom="0.24748737"
     inkscape:cx="-99.206916"
     inkscape:cy="-456.95115"
     inkscape:document-units="px"
     inkscape:current-layer="layer1"
     showgrid="false"
     fit-margin-top="0"
     fit-margin-left="0"
     fit-margin-right="0"
     fit-margin-bottom="0"
     inkscape:window-width="784"
     inkscape:window-height="822"
     inkscape:window-x="800"
     inkscape:window-y="0"
     inkscape:window-maximized="0" />
  <metadata
     id="metadata7">
    <rdf:RDF>
      <cc:Work
         rdf:about="">
        <dc:format>image/svg+xml</dc:format>
        <dc:type
           rdf:resource="http://purl.org/dc/dcmitype/StillImage" />
        <dc:title></dc:title>
      </cc:Work>
    </rdf:RDF>
  </metadata>
  <g
     inkscape:label="Calque 1"
     inkscape:groupmode="layer"
     id="layer1"
     transform="translate(-146.97995,1640.1869)">
    <g
       transform="translate(590.90848,-1547.7214)"
       id="g4032">
      <path
         style="fill:#fdfcfd"
         d="m -443.92853,343.79079 0,-436.250003 312.5,0 312.5,0 0,436.250003 0,436.25 -312.5,0 -312.5,0 0,-436.25 z"
         id="path4048"
         inkscape:connector-curvature="0" />
      <path
         style="fill:#f2aac7"
         d="m -437.54094,778.2964 c -6.71212,-3.72024 -6.29564,24.78369 -6.3433,-434.1343 -0.0341,-328.088247 0.3003,-427.259975 1.44907,-429.781241 3.33324,-7.315672 -18.2831,-6.840072 310.88575,-6.840072 231.87038,0 303.26855,0.348691 305.78082,1.493357 7.35539,3.351345 6.84007,-29.403234 6.84007,434.756646 0,464.15987 0.51532,431.4053 -6.84007,434.75663 -5.07456,2.31213 -607.59393,2.0649 -611.77234,-0.25102 z m 606.44187,-1.06811 c 4.51749,-2.52495 8.42054,-6.24715 8.42054,-8.03039 0,-0.91141 0.5625,-1.65711 1.25,-1.65711 0.83087,0 1.25,-142.08334 1.25,-423.75 0,-281.666665 -0.41913,-423.750003 -1.25,-423.750003 -0.6875,0 -1.25,-0.745698 -1.25,-1.657107 0,-1.78324 -3.90305,-5.505448 -8.42054,-8.030393 -2.2146,-1.237794 -64.62661,-1.5625 -300.32946,-1.5625 -235.70285,0 -298.11487,0.324706 -300.32946,1.5625 -4.51749,2.524945 -8.42054,6.247153 -8.42054,8.030393 0,0.911409 -0.5625,1.657107 -1.25,1.657107 -0.83088,0 -1.25,142.083337 -1.25,423.750003 0,281.66666 0.41912,423.75 1.25,423.75 0.6875,0 1.25,0.75657 1.25,1.68126 0,1.87679 3.56227,5.41701 7.82111,7.7727 4.13022,2.28455 597.17668,2.51489 601.25835,0.23354 z m -573.45446,-40.7632 c -2.0625,-1.274 -4.875,-3.58095 -6.25,-5.12657 -2.4885,-2.79727 -2.5,-4.58027 -2.5,-387.57826 l 0,-384.768063 3.125,-3.344473 c 6.87636,-7.359298 -13.54574,-6.856937 278.75,-6.856937 292.29574,0 271.87364,-0.502361 278.75,6.856937 l 3.125,3.344473 0,384.798593 0,384.79858 -3.125,3.34448 c -6.87656,7.35951 13.56991,6.85735 -279.00043,6.85226 -259.82543,-0.005 -269.25414,-0.0847 -272.87457,-2.32102 z m 545.05681,-9.49249 3.06819,-3.06818 0,-380.11363 0,-380.113639 -3.06819,-3.068183 -3.06817,-3.068181 -268.86364,0 -268.86364,0 -3.06818,3.068181 -3.06818,3.068183 0,380.113639 0,380.11363 3.06818,3.06818 3.06818,3.06819 268.86364,0 268.86364,0 3.06817,-3.06819 z m -380.05681,-31.16788 c -5.24784,-2.29253 -11.62265,-7.9001 -13.827,-12.16283 -1.02421,-1.9806 -2.30198,-3.6011 -2.83948,-3.6011 -0.5375,0 -2.74237,2.50416 -4.89971,5.56481 -7.40212,10.50146 -19.55089,13.56456 -29.85326,7.52696 -6.08006,-3.56315 -10.48491,-10.26706 -13.47373,-20.50615 -2.52833,-8.66165 -2.49411,-12.5895 0.18499,-21.22576 1.71605,-5.53179 3.86139,-8.684 10.3125,-15.15253 4.48013,-4.49221 11.57009,-10.74891 15.75547,-13.90376 4.18537,-3.15486 10.59083,-9.74504 14.23437,-14.64484 3.64352,-4.89981 7.09679,-8.90873 7.6739,-8.90873 0.57712,0 2.01246,1.54687 3.18962,3.4375 5.20192,8.35466 11.49729,14.78901 22.97112,23.47823 13.73061,10.3983 17.76305,14.99628 21.28823,24.27382 3.05965,8.05232 3.04025,14.00006 -0.0786,24.0977 -3.21479,10.40827 -8.40039,17.45887 -15.29575,20.79686 -6.28348,3.04177 -9.99354,3.26662 -15.34268,0.92982 z m 250,0 c -5.2478375,-2.29253 -11.62265,-7.9001 -13.827,-12.16283 -1.0242125,-1.9806 -2.301975,-3.6011 -2.839475,-3.6011 -0.5375,0 -2.742375,2.50416 -4.899713,5.56481 -7.402125,10.50146 -19.550887,13.56456 -29.853262,7.52696 -6.080063,-3.56315 -10.484913,-10.26706 -13.473725,-20.50615 -2.528338,-8.66165 -2.494113,-12.5895 0.184987,-21.22576 1.71605,-5.53179 3.861388,-8.684 10.3125,-15.15253 4.480125,-4.49221 11.570088,-10.74891 15.755463,-13.90376 4.185375,-3.15486 10.590837,-9.74504 14.234375,-14.64484 3.643525,-4.89981 7.0967875,-8.90873 7.6739,-8.90873 0.577125,0 2.0124625,1.54687 3.189625,3.4375 5.2019125,8.35466 11.4972875,14.78901 22.971112,23.47823 13.730613,10.3983 17.76305,14.99628 21.288238,24.27382 3.05965,8.05232 3.04025,14.00006 -0.07862,24.0977 -3.214788,10.40827 -8.400388,17.45887 -15.29575,20.79686 -6.283475,3.04177 -9.993538,3.26662 -15.342675,0.92982 z m 66.3863,-13.93121 c -2.318013,-2.318 -1.571288,-4.66125 5.662762,-17.77022 4.025988,-7.29558 5.578888,-9.0625 7.964726,-9.0625 4.767787,0 4.788,2.01117 0.108749,10.82327 -2.425812,4.56839 -4.115699,8.78329 -3.755287,9.36644 0.360412,0.58316 3.093162,1.06029 6.072787,1.06029 6.020538,0 8.120163,2.38622 4.917563,5.58882 -2.671987,2.67199 -18.297763,2.66745 -20.9713,-0.006 z m -8.761675,-44.5831 c -4.616213,-4.61621 -6.6146,-11.13311 -5.174013,-16.87287 0.913488,-3.63965 21.119125,-24.12675 23.795275,-24.12675 0.875376,0 2.502063,1.38956 3.614876,3.08791 1.1128,1.69836 5.065087,5.38451 8.782862,8.19146 6.985575,5.27416 10.731375,11.10218 10.731375,16.69674 0,5.5879 -3.82832,13.25019 -7.59286,15.19691 -5.058302,2.61574 -7.930677,2.27685 -12.37119,-1.45959 l -3.905862,-3.28657 -2.812638,2.64234 c -1.54695,1.45328 -4.602,3.00021 -6.789,3.43761 -3.399487,0.6799 -4.600563,0.17107 -8.278825,-3.50719 z M -259.43243,392.77496 c -3.02649,-5.85259 -13.11231,-16.26997 -23.14985,-23.9109 -22.37962,-17.03616 -27.55989,-29.87884 -20.60118,-51.07354 2.8211,-8.59243 10.2051,-16.95108 17.40287,-19.69993 5.27441,-2.01432 5.92692,-2.01538 11.1564,-0.0183 5.8152,2.22085 15.04116,10.43707 16.34987,14.56046 0.97648,3.07659 2.71163,3.08754 3.6842,0.0233 1.25553,-3.95584 11.32699,-12.33979 16.78956,-13.97641 15.51793,-4.64928 30.72463,12.45357 30.7413,34.57451 0.009,10.9638 -4.98011,20.18972 -15.61927,28.88756 -15.4643,12.64253 -24.15035,21.05231 -28.49275,27.58655 -2.39866,3.60938 -4.82961,6.5625 -5.40212,6.5625 -0.57252,0 -1.85908,-1.58211 -2.85903,-3.51582 z m 250,0 c -3.026488,-5.85259 -13.112312,-16.26997 -23.14985,-23.9109 -22.379625,-17.03616 -27.559888,-29.87884 -20.601175,-51.07354 2.8211,-8.59243 10.2051,-16.95108 17.402862,-19.69993 5.274413,-2.01432 5.926925,-2.01538 11.1564,-0.0183 5.8152,2.22085 15.041163,10.43707 16.3498755,14.56046 0.976475,3.07659 2.711625,3.08754 3.6842,0.0233 1.255525,-3.95584 11.3269875,-12.33979 16.7895625,-13.97641 15.517925,-4.64928 30.724625,12.45357 30.7413,34.57451 0.0087,10.9638 -4.980113,20.18972 -15.619275,28.88756 -15.4643,12.64253 -24.15035,21.05231 -28.49275,27.58655 -2.3986625,3.60938 -4.8296125,6.5625 -5.402125,6.5625 -0.5725125,0 -1.859075,-1.58211 -2.859025,-3.51582 z M -136.3496,211.41377 c -4.51226,-7.03171 -11.8761,-14.11306 -24.69273,-23.7454 -19.09729,-14.35258 -24.11949,-29.21476 -16.63339,-49.22316 1.48028,-3.95639 4.12471,-8.89681 5.87654,-10.97874 3.87986,-4.61096 11.53962,-8.68538 16.25835,-8.64823 7.47466,0.0589 17.92471,7.35517 22.66439,15.8245 0.69322,1.23872 1.46597,1.97566 1.71722,1.63763 0.25125,-0.33802 2.02645,-2.7461 3.94489,-5.35127 8.5199,-11.56976 21.14733,-14.61826 31.230037,-7.53954 5.864688,4.1174 10.261163,11.25699 12.796926,20.78143 2.375112,8.92098 2.196162,13.35717 -0.869301,21.55036 -3.24725,8.67905 -7.258975,13.32164 -20.333262,23.53079 -11.15045,8.7069 -17.71193,15.44468 -22.63478,23.24298 -1.75185,2.77512 -3.68198,5.04567 -4.2892,5.04567 -0.6072,0 -2.87327,-2.75717 -5.0357,-6.12702 z M -354.41429,86.952875 c -1.1128,-1.698363 -5.0651,-5.384513 -8.78287,-8.191463 -6.98558,-5.274163 -10.73137,-11.102175 -10.73137,-16.696738 0,-5.587899 3.82833,-13.250187 7.59286,-15.196912 5.0583,-2.615737 7.93068,-2.27685 12.37119,1.459587 l 3.90586,3.286576 2.81264,-2.642338 c 1.54695,-1.453288 4.602,-3.000213 6.789,-3.437613 7.73517,-1.547024 15.86503,10.769113 13.45284,20.380063 -0.9135,3.63965 -21.11913,24.12675 -23.79528,24.12675 -0.87537,0 -2.50206,-1.389563 -3.61487,-3.087912 z m 93.08057,-4.264338 c -4.40337,-6.86205 -14.16877,-16.474662 -22.59481,-22.24125 -14.63109,-10.013213 -23.39863,-24.812013 -22.08738,-37.2815 1.15892,-11.020789 4.71788,-19.5202363 10.81247,-25.8220463 9.56811,-9.8934567 20.33333,-9.8950637 30.1183,-0.0045 3.17037,3.2045988 6.41508,6.9515425 7.21046,8.3265426 1.44615,2.5 1.44615,2.5 2.89789,0 3.32593,-5.72753005 11.87608,-12.9149588 17.00725,-14.2966375 13.45651,-3.6234648 24.86487,5.665 29.84182,24.2966372 2.28985,8.5723 2.11964,13.158268 -0.77544,20.890613 -3.24217,8.659412 -8.16641,14.4555 -19.83286,23.344312 -10.60172,8.077575 -18.31135,15.9598 -23.22749,23.747475 -1.78551,2.828425 -3.74318,5.1426 -4.3504,5.1426 -0.6072,0 -2.86612,-2.746012 -5.01981,-6.10225 z m 250.000002,0 c -4.403375,-6.86205 -14.168775,-16.474662 -22.594812,-22.24125 -14.631088,-10.013213 -23.398625,-24.812013 -22.087375,-37.2815 1.158912,-11.020789 4.717875,-19.5202363 10.812463,-25.8220463 9.568112,-9.8934567 20.333337,-9.8950637 30.118299,-0.0045 3.170375,3.2045988 6.415088,6.9515425 7.210463,8.3265426 1.44615,2.5 1.44615,2.5 2.8978875,0 C -1.650855,-0.06174675 6.899295,-7.2491755 12.030457,-8.6308542 c 13.456513,-3.6234648 24.864875,5.665 29.841825,24.2966372 2.28985,8.5723 2.119638,13.158268 -0.775437,20.890613 -3.242175,8.659412 -8.166413,14.4555 -19.832863,23.344312 -10.601724,8.077575 -18.3113495,15.9598 -23.227487,23.747475 -1.7855125,2.828425 -3.7431875,5.1426 -4.3504,5.1426 -0.6072,0 -2.866125,-2.746012 -5.019813,-6.10225 z M -357.07128,31.262067 c -0.43466,-0.703296 1.21964,-4.872819 3.67623,-9.265606 2.45659,-4.392788 4.46652,-8.317364 4.46652,-8.72128 0,-0.403917 -2.14249,-0.734394 -4.76109,-0.734394 -5.76212,0 -9.72342,-2.532933 -8.58813,-5.4914275 0.6903,-1.7988925 2.47972,-2.0509413 12.37631,-1.7432587 9.86177,0.3065987 11.63119,0.6829912 11.98836,2.5501737 0.23045,1.2047675 -2.47727,7.2516425 -6.01716,13.4374995 -5.25316,9.179745 -6.97974,11.247013 -9.39346,11.247013 -1.62651,0 -3.31292,-0.575424 -3.74758,-1.27872 z"
         id="path4046"
         inkscape:connector-curvature="0" />
      <path
         style="fill:#ef8eb4"
         d="m -434.74667,779.08415 c -0.79372,-0.5051 135.69944,-0.91836 303.31814,-0.91836 167.6187,0 304.11186,0.41326 303.31814,0.91836 -0.79373,0.5051 -137.28689,0.91835 -303.31814,0.91835 -166.03125,0 -302.52441,-0.41325 -303.31814,-0.91835 z m -8.42312,-8.5206 c -1.09585,-2.85573 -0.89901,-852.117184 0.1979,-853.840899 0.5051,-0.793724 0.91836,191.440649 0.91836,427.187499 0,235.74685 -0.0804,428.63064 -0.17876,428.63064 -0.0983,0 -0.5202,-0.88975 -0.9375,-1.97724 z M 179.19647,343.79079 c 0,-235.6812 0.41326,-427.861863 0.91836,-427.068139 1.2008,1.886972 1.2008,852.249299 0,854.136269 -0.5051,0.79373 -0.91836,-191.38693 -0.91836,-427.06813 z m -583.91661,391.35242 c -2.15413,-1.31352 -4.82601,-3.68659 -5.9375,-5.27346 -1.85052,-2.64199 -2.02089,-35.19911 -2.02089,-386.18853 l 0,-383.303287 2.61037,-3.318547 c 5.93562,-7.54592 -14.99914,-7.018599 278.63963,-7.018599 293.63876,0 272.70401,-0.527321 278.63962,7.018599 l 2.61038,3.318547 0,383.412857 0,383.41285 -2.61038,3.31855 c -5.93581,7.54617 15.02453,7.01902 -278.89005,7.01392 -262.72193,-0.005 -269.21775,-0.0615 -273.04118,-2.3929 z m 546.06945,-7.32465 2.84716,-2.84722 0,-381.18055 0,-381.180558 -2.84723,-2.847223 -2.84722,-2.847222 -269.93055,0 -269.93056,0 -2.84722,2.847194 -2.84722,2.847192 -0.29743,379.652797 c -0.23734,302.94883 0.0202,380.2792 1.27464,382.75318 0.86463,1.7052 2.96722,3.8084 4.67242,4.67377 2.46865,1.25283 57.78912,1.51254 271.50321,1.27464 l 268.40282,-0.29877 2.84718,-2.84723 z m -380.90284,-33.19854 c -5.56765,-2.5292 -11.0651,-7.55635 -13.78374,-12.60455 -1.32537,-2.46107 -2.70374,-4.45956 -3.06301,-4.44106 -0.35929,0.0185 -2.0595,2.35349 -3.77825,5.18889 -4.26141,7.03 -12.67356,12.27749 -19.6818,12.27749 -11.36435,0 -19.61163,-8.05815 -23.60873,-23.06734 -4.92591,-18.49683 0.84239,-29.33205 26.16695,-49.15226 4.6343,-3.62703 10.99568,-10.09578 14.1364,-14.375 3.14072,-4.27922 6.15313,-7.94473 6.69425,-8.14555 0.54112,-0.20084 2.08535,1.50173 3.43163,3.78351 4.26727,7.23249 10.54797,13.50665 22.83692,22.81317 20.17942,15.28204 25.59512,27.12184 20.74307,45.34845 -4.75213,17.85129 -18.13954,27.80465 -30.09369,22.37425 z m 250,0 c -5.56765,-2.5292 -11.0651,-7.55635 -13.7837375,-12.60455 -1.325375,-2.46107 -2.7037375,-4.45956 -3.0630125,-4.44106 -0.3592875,0.0185 -2.0595,2.35349 -3.77825,5.18889 -4.261413,7.03 -12.673563,12.27749 -19.6818,12.27749 -11.36435,0 -19.611625,-8.05815 -23.608725,-23.06734 -4.925912,-18.49683 0.842388,-29.33205 26.16695,-49.15226 4.6343,-3.62703 10.995675,-10.09578 14.1364,-14.375 3.140713,-4.27922 6.153125,-7.94473 6.69425,-8.14555 0.5411125,-0.20084 2.08535,1.50173 3.431625,3.78351 4.267275,7.23249 10.547975,13.50665 22.836925,22.81317 20.179412,15.28204 25.595112,27.12184 20.743062,45.34845 -4.752125,17.85129 -18.139537,27.80465 -30.093687,22.37425 z m 66.960475,-13.85125 c -1.162737,-1.40101 -0.570113,-3.56006 2.830612,-10.3125 5.615813,-11.15067 8.612238,-14.80582 11.293938,-13.77676 1.852462,0.71086 1.581287,1.83451 -2.3053,9.55225 -2.4226,4.81064 -4.404725,9.04191 -4.404725,9.40283 0,0.36091 2.005725,0.6562 4.457175,0.6562 6.182087,0 9.931625,2.09913 7.970475,4.46217 -2.051638,2.47208 -17.79325,2.48463 -19.842175,0.0159 z m -7.8727,-43.18562 c -4.348288,-3.42035 -6.4196,-9.09063 -5.587363,-15.29549 0.610513,-4.55166 2.005413,-6.43304 11.098925,-14.96974 5.720363,-5.37008 10.599525,-9.7668 10.842575,-9.77047 0.24305,-0.004 5.149838,4.26751 10.903963,9.49151 7.930495,7.19985 10.650635,10.50338 11.241375,13.65229 1.07555,5.73317 -0.34941,11.22652 -4.05426,15.62947 -3.9656,4.71285 -8.837065,4.8805 -14.062078,0.48395 l -3.845912,-3.23612 -3.845912,3.23612 c -4.597175,3.86827 -8.461913,4.10533 -12.691313,0.77848 z M -261.25862,388.47829 c -4.50628,-6.46984 -13.22977,-14.86994 -23.40597,-22.53827 -10.29009,-7.75413 -14.76355,-13.12373 -17.8858,-21.46867 -3.27115,-8.74295 -3.30208,-13.7731 -0.14973,-24.35808 3.07654,-10.33045 9.1683,-17.81246 16.90983,-20.76897 5.277,-2.01531 5.94142,-2.01726 11.13814,-0.0326 5.02262,1.91815 12.47907,8.71452 16.66112,15.18617 1.5341,2.37397 1.5909,2.37466 3.125,0.0375 6.26635,-9.54657 15.03455,-15.65798 22.5498,-15.71714 5.32089,-0.0419 13.01584,4.48086 17.01389,10 4.6174,6.37414 8.16216,19.33085 7.32372,26.76945 -1.11371,9.8809 -6.5262,18.90811 -15.66288,26.12335 -12.18377,9.62154 -23.85175,20.78094 -27.98719,26.76725 -2.01846,2.92187 -4.17839,5.3125 -4.79984,5.3125 -0.62145,0 -2.79499,-2.39063 -4.83009,-5.3125 z m 250.000002,0 c -4.506287,-6.46984 -13.229774,-14.86994 -23.405975,-22.53827 -10.290087,-7.75413 -14.763549,-13.12373 -17.8858,-21.46867 -3.27115,-8.74295 -3.302075,-13.7731 -0.149725,-24.35808 3.076538,-10.33045 9.1683,-17.81246 16.909825,-20.76897 5.277,-2.01531 5.941425,-2.01726 11.138138,-0.0326 5.022625,1.91815 12.479075,8.71452 16.661125,15.18617 1.5341,2.37397 1.5909,2.37466 3.125,0.0375 6.26635,-9.54657 15.03455,-15.65798 22.5498,-15.71714 5.320887,-0.0419 13.015837,4.48086 17.013887,10 4.6174,6.37414 8.162163,19.33085 7.323725,26.76945 -1.113712,9.8809 -6.5262,18.90811 -15.662887,26.12335 -12.183763,9.62154 -23.85175,20.78094 -27.9871875,26.76725 -2.0184625,2.92187 -4.1783875,5.3125 -4.7998375,5.3125 -0.62145,0 -2.7949875,-2.39063 -4.830088,-5.3125 z m -125.000002,-178.75 c -4.51561,-6.48324 -13.5851,-15.19487 -22.29823,-21.41842 -15.20793,-10.86257 -22.6232,-23.51662 -21.24399,-36.25252 2.30491,-21.28398 14.22128,-34.40926 28.62464,-31.5286 5.13272,1.02655 11.55263,6.01536 15.58797,12.11317 1.78305,2.69438 3.65491,4.89887 4.1597,4.89887 0.50479,0 2.40359,-2.2452 4.21956,-4.98933 7.6735,-11.59544 20.48554,-15.09689 30.643502,-8.37466 5.52565,3.6567 9.538088,10.31975 12.18775,20.23899 2.309513,8.64588 2.1185,13.1605 -0.897912,21.22261 -3.294725,8.80592 -6.68555,12.79241 -18.58704,21.85225 -10.0291,7.63451 -21.93519,19.79831 -24.16147,24.68449 -1.905,4.18101 -4.06522,3.53911 -8.23448,-2.44685 z M -361.08255,79.05935 c -6.24413,-5.858113 -10.5915,-10.996138 -11.07507,-13.089275 -2.00117,-8.662088 4.01389,-19.679288 10.7443,-19.679288 1.98792,0 5.23099,1.420375 7.38888,3.236113 l 3.84591,3.236124 3.84591,-3.236124 c 4.59717,-3.868263 8.46191,-4.105326 12.69132,-0.778476 4.34828,3.42035 6.4196,9.090625 5.58735,15.295488 -0.61051,4.551662 -2.0054,6.433037 -11.09892,14.969738 -5.72036,5.370087 -10.68191,9.747024 -11.02566,9.726537 -0.34375,-0.0205 -5.25056,-4.376875 -10.90402,-9.680838 z m 99.86236,1.918937 c -4.39543,-6.3769 -14.91629,-16.44865 -22.85869,-21.882925 -14.18849,-9.707912 -22.24856,-23.87515 -20.69487,-36.375509 2.71581,-21.850116 13.96312,-33.701887 29.25975,-30.8322223 4.51246,0.8465425 13.49313,8.5532863 17.51231,15.0281563 1.52196,2.4518675 1.5935,2.439835 3.716,-0.625 1.1903,-1.71875 4.16212,-5.1738287 6.60406,-7.6779512 13.09019,-13.4235358 31.35396,-6.7197051 37.44886,13.7458372 3.18134,10.682328 3.21328,15.920859 0.14627,23.992564 -3.37745,8.888737 -7.47414,13.785912 -18.64807,22.2919 -10.13948,7.718525 -22.05326,19.87385 -24.28957,24.782 -1.9063,4.183887 -4.07113,3.5376 -8.19605,-2.44685 z m 249.999998,0 c -4.395426,-6.3769 -14.916288,-16.44865 -22.858688,-21.882925 -14.188488,-9.707912 -22.248563,-23.87515 -20.694875,-36.375509 2.715812,-21.850116 13.963125,-33.701887 29.25975,-30.8322223 4.512462,0.8465425 13.493137,8.5532863 17.5123125,15.0281563 1.5219625,2.4518675 1.5935,2.439835 3.716,-0.625 1.1903,-1.71875 4.162125,-5.1738287 6.6040625,-7.6779512 13.090188,-13.4235358 31.353963,-6.7197051 37.448863,13.7458372 3.181337,10.682328 3.213275,15.920859 0.146262,23.992564 -3.37745,8.888737 -7.474137,13.785912 -18.648062,22.2919 -10.139488,7.718525 -22.053263,19.87385 -24.2895755,24.782 -1.9063,4.183887 -4.071125,3.5376 -8.1960495,-2.44685 z M -355.74552,30.134649 c -0.39299,-0.635875 1.26131,-4.527398 3.67623,-8.647829 2.41492,-4.120432 4.39076,-8.100171 4.39076,-8.843863 0,-0.754452 -2.34836,-1.360631 -5.3125,-1.371311 -6.99181,-0.02519 -9.52632,-1.5377515 -7.22439,-4.3114115 1.31273,-1.5817412 3.57647,-1.94211 10.41366,-1.6577688 12.31199,0.5120251 12.70242,1.6529063 5.18551,15.1523643 -5.71149,10.257126 -9.00309,13.120045 -11.12927,9.679819 z m -79.00115,-121.637221 c 1.88688,-1.20074 604.7494,-1.20074 606.63628,0 0.79372,0.505097 -135.69944,0.918359 -303.31814,0.918359 -167.6187,0 -304.11186,-0.413262 -303.31814,-0.918359 z"
         id="path4044"
         inkscape:connector-curvature="0" />
      <path
         style="fill:#e85c94"
         d="m -434.74667,779.08415 c -0.79372,-0.5051 135.69944,-0.91836 303.31814,-0.91836 167.6187,0 304.11186,0.41326 303.31814,0.91836 -0.79373,0.5051 -137.28689,0.91835 -303.31814,0.91835 -166.03125,0 -302.52441,-0.41325 -303.31814,-0.91835 z m -8.42312,-8.5206 c -1.09585,-2.85573 -0.89901,-852.117184 0.1979,-853.840899 0.5051,-0.793724 0.91836,191.440649 0.91836,427.187499 0,235.74685 -0.0804,428.63064 -0.17876,428.63064 -0.0983,0 -0.5202,-0.88975 -0.9375,-1.97724 z M 179.19647,343.79079 c 0,-235.6812 0.41326,-427.861863 0.91836,-427.068139 1.2008,1.886972 1.2008,852.249299 0,854.136269 -0.5051,0.79373 -0.91836,-191.38693 -0.91836,-427.06813 z m -580.04695,392.42033 c -2.08833,-0.60731 -5.46333,-2.84351 -7.5,-4.96935 l -3.70305,-3.86515 0,-383.58583 0,-383.585847 3.67894,-3.839988 c 2.02342,-2.111994 5.67967,-4.395793 8.125,-5.075108 6.10263,-1.695314 531.53948,-1.695314 537.64212,0 2.44533,0.679315 6.10158,2.963114 8.125,5.075108 l 3.67894,3.839988 0,383.585847 0,383.58583 -3.67894,3.84 c -2.02342,2.11199 -5.67967,4.39579 -8.125,5.0751 -5.66737,1.5744 -532.82347,1.49547 -538.24301,-0.0806 z m 542.60376,-7.98852 3.06819,-3.06818 0,-381.36363 0,-381.363639 -3.06819,-3.068183 -3.06817,-3.068181 -270.11364,0 -270.11364,0 -3.06818,3.068181 -3.06818,3.068183 0,381.363639 0,381.36363 3.06818,3.06818 3.06818,3.06819 270.11364,0 270.11364,0 3.06817,-3.06819 z m -430.28664,-35.61114 c -8.873,-4.02847 -15.39517,-17.03786 -15.39517,-30.70781 0,-13.37525 4.72516,-20.91408 21.05932,-33.5994 11.38321,-8.84034 18.07017,-15.62795 23.27192,-23.62213 1.24672,-1.91601 2.70075,-3.32226 3.23116,-3.125 0.53041,0.19727 3.46921,3.77175 6.53066,7.94332 3.5488,4.83558 9.87419,10.8084 17.45181,16.47902 6.53703,4.89191 13.62923,11.00981 15.76044,13.59535 15.70293,19.05036 5.41019,55.46598 -15.67724,55.46598 -8.55859,0 -15.30948,-4.65868 -21.31095,-14.70632 l -2.43777,-4.0813 -4.87718,6.5813 c -5.12606,6.91715 -13.50093,12.22822 -19.20453,12.17887 -1.74495,-0.0151 -5.52607,-1.09594 -8.40247,-2.40188 z m 250.000005,0 c -8.873,-4.02847 -15.395175,-17.03786 -15.395175,-30.70781 0,-13.37525 4.725162,-20.91408 21.059325,-33.5994 11.3832,-8.84034 18.070162,-15.62795 23.2719125,-23.62213 1.246725,-1.91601 2.70075,-3.32226 3.2311625,-3.125 0.5304125,0.19727 3.4692125,3.77175 6.5306625,7.94332 3.5488,4.83558 9.8741875,10.8084 17.4518125,16.47902 6.537025,4.89191 13.629225,11.00981 15.760437,13.59535 15.702925,19.05036 5.410188,55.46598 -15.677237,55.46598 -8.5586,0 -15.3094875,-4.65868 -21.31095,-14.70632 l -2.437775,-4.0813 -4.877175,6.5813 c -5.126063,6.91715 -13.500938,12.22822 -19.204538,12.17887 -1.74495,-0.0151 -5.526062,-1.09594 -8.402462,-2.40188 z M 77.337232,679.10329 c 0.02525,-3.49505 10.720225,-22.14694 12.9541,-22.59165 3.04475,-0.60615 2.493413,1.85371 -2.418275,10.78942 -2.446624,4.4511 -3.9935,8.54043 -3.4375,9.0874 0.556,0.54698 3.498451,1.17064 6.538763,1.38591 3.040312,0.21528 5.759062,1.09454 6.041662,1.95392 0.382613,1.16351 -2.066312,1.5625 -9.590349,1.5625 -8.795688,0 -10.102126,-0.28328 -10.088401,-2.1875 z M 94.82147,639.16115 c -1.03125,-0.37524 -3.421875,-2.12358 -5.3125,-3.88518 l -3.4375,-3.20291 -3.5059,3.35886 c -6.825475,6.53922 -15.001913,3.54255 -17.702887,-6.48811 -1.9376,-7.19567 0.880375,-13.4356 8.792487,-19.46945 3.431375,-2.6168 7.61545,-6.51299 9.297925,-8.6582 l 3.059063,-3.90037 3.665087,4.4381 c 2.0158,2.44096 5.93995,6.01458 8.72035,7.94141 9.010055,6.24396 11.577215,13.8306 7.779995,22.99194 -1.35424,3.26735 -7.178195,8.1629 -9.106545,7.65486 -0.206013,-0.0543 -1.218325,-0.4057 -2.249575,-0.78095 z M -261.25621,387.22829 c -4.53823,-6.51998 -12.29515,-13.96223 -21.51771,-20.64487 -10.03126,-7.26861 -14.88327,-12.50273 -18.20755,-19.64145 -9.58674,-20.58695 5.66948,-51.24037 23.70689,-47.6329 6.11474,1.22295 12.88811,6.38013 16.52074,12.57873 1.82207,3.10914 3.74035,5.65299 4.26282,5.65299 0.52248,0 2.49324,-2.44153 4.37945,-5.4256 12.1311,-19.19192 34.49426,-14.93514 41.18769,7.83997 5.30146,18.03879 0.54033,31.07421 -15.94208,43.6475 -11.04167,8.42293 -19.06551,16.05104 -24.10499,22.9162 -2.43128,3.31206 -4.90807,6.02193 -5.50399,6.02193 -0.59592,0 -2.74749,-2.39063 -4.78127,-5.3125 z m 250.000005,0 c -4.538238,-6.51998 -12.29515,-13.96223 -21.517713,-20.64487 -10.031262,-7.26861 -14.883275,-12.50273 -18.20755,-19.64145 -9.586737,-20.58695 5.669475,-51.24037 23.706888,-47.6329 6.114737,1.22295 12.888112,6.38013 16.520737,12.57873 1.8220755,3.10914 3.7403505,5.65299 4.2628255,5.65299 0.522475,0 2.4932375,-2.44153 4.37945,-5.4256 12.1310995,-19.19192 34.4942625,-14.93514 41.1876875,7.83997 5.301462,18.03879 0.540325,31.07421 -15.942075,43.6475 -11.041675,8.42293 -19.0655125,16.05104 -24.105,22.9162 -2.431275,3.31206 -4.9080625,6.02193 -5.5039875,6.02193 -0.5959125,0 -2.7474875,-2.39063 -4.7812625,-5.3125 z M -134.18011,211.61526 c -4.18861,-7.03179 -11.68302,-14.51455 -23.077,-23.04109 -17.41771,-13.03435 -22.49322,-21.8523 -21.38177,-37.14773 1.46291,-20.13234 14.25526,-33.71814 28.14785,-29.89374 4.44715,1.22422 13.8152,9.46407 17.48934,15.38309 1.52191,2.45178 1.59344,2.43972 3.70871,-0.625 5.04465,-7.30898 12.39304,-13.54828 16.96727,-14.40642 15.371205,-2.88365 26.736292,9.32493 28.117705,30.20454 1.018875,15.40009 -3.329062,21.91116 -27.220525,40.76296 -3.78125,2.98364 -9.61749,9.0561 -12.96941,13.49435 -3.35193,4.43827 -6.46184,8.21558 -6.91091,8.39404 -0.44909,0.17846 -1.74114,-1.22779 -2.87126,-3.125 z M -353.16429,85.702875 c -1.1128,-1.698363 -5.01619,-5.347588 -8.67419,-8.109413 -3.658,-2.761813 -7.42471,-6.46735 -8.37048,-8.234525 -3.68401,-6.88365 -0.98048,-18.084787 5.12732,-21.24325 4.07168,-2.10555 6.71501,-1.421487 11.46561,2.9672 l 3.4375,3.175625 3.5059,-3.358862 c 6.82547,-6.539213 15.00192,-3.54255 17.70289,6.488112 1.97518,7.33525 -0.82244,13.28295 -9.39841,19.980863 -3.78915,2.959375 -7.78004,6.74 -8.86864,8.401412 -2.48694,3.795563 -3.40334,3.785188 -5.9275,-0.06713 z m 93.68226,-3.377663 c -3.99759,-6.767375 -10.59744,-13.267538 -23.88916,-23.528362 -11.0675,-8.543788 -13.32466,-10.931513 -16.67854,-17.643201 -2.93367,-5.870812 -3.8788,-9.444873 -3.8788,-14.668009 0,-21.9339705 13.52955,-38.043295 28.55332,-33.9978105 5.25547,1.4151488 12.84965,8.0556925 15.8518,13.86121 2.37399,4.5907955 3.77902,4.6495375 6.08113,0.2542475 2.0563,-3.9259787 8.83105,-10.59198 12.86908,-12.6625075 4.2432,-2.1757325 13.05992,-1.6709925 17.43738,0.9982563 8.55735,5.2180187 14.2189,17.6881522 14.19508,31.2661272 -0.0224,12.716812 -6.08222,21.523999 -24.1183,35.052412 -8.02725,6.021037 -17.56108,16.094062 -20.36559,21.517387 -2.31781,4.482163 -3.18195,4.418 -6.0574,-0.44975 z m 250,0 C -13.479617,75.557837 -20.079468,69.057674 -33.371193,58.79685 -44.438693,50.253062 -46.695855,47.865337 -50.04973,41.153649 c -2.933675,-5.870812 -3.8788,-9.444873 -3.8788,-14.668009 0,-21.9339705 13.52955,-38.043295 28.553325,-33.9978105 5.255462,1.4151488 12.84965,8.0556925 15.8518,13.86121 2.3739875,4.5907955 3.7790125,4.6495375 6.081125,0.2542475 2.0563,-3.9259787 8.83105,-10.59198 12.869075,-12.6625075 4.2432,-2.1757325 13.059925,-1.6709925 17.437387,0.9982563 8.557351,5.2180187 14.2189,17.6881522 14.195075,31.2661272 -0.02238,12.716812 -6.082212,21.523999 -24.1183,35.052412 -8.0272495,6.021037 -17.5610745,16.094062 -20.365587,21.517387 -2.3178125,4.482163 -3.18195,4.418 -6.0574,-0.44975 z m -345.6965,-52.385145 c 0,-0.843716 1.99897,-5.108525 4.44216,-9.477354 2.44319,-4.368827 4.09749,-8.501009 3.67623,-9.182625 -0.42126,-0.681615 -3.54524,-1.239301 -6.94216,-1.239301 -4.65665,0 -6.17623,-0.46132 -6.17623,-1.875 0,-1.5104162 1.94444,-1.875 10,-1.875 9.5557,0 9.9972,0.1249625 9.937,2.8125 -0.087,3.882829 -10.42495,21.470221 -12.91214,21.966655 -1.11367,0.222285 -2.02486,-0.286159 -2.02486,-1.129875 z m -79.56814,-121.442639 c 1.88688,-1.20074 604.7494,-1.20074 606.63628,0 0.79372,0.505097 -135.69944,0.918359 -303.31814,0.918359 -167.6187,0 -304.11186,-0.413262 -303.31814,-0.918359 z"
         id="path4042"
         inkscape:connector-curvature="0" />
      <path
         style="fill:#e22c75"
         d="m -282.36603,779.10334 c 83.01562,-0.17743 218.859375,-0.17743 301.875,0 83.01562,0.17742 15.09375,0.32258 -150.9375,0.32258 -166.03125,0 -233.95313,-0.14516 -150.9375,-0.32258 z M -443.31076,343.79079 c 0,-234.09375 0.14387,-329.859378 0.31971,-212.8125 0.17584,117.04687 0.17584,308.57812 0,425.625 -0.17584,117.04687 -0.31971,21.28125 -0.31971,-212.8125 z m 623.75,0 c 0,-234.09375 0.14387,-329.859378 0.3197,-212.8125 0.17584,117.04687 0.17584,308.57812 0,425.625 -0.17583,117.04687 -0.3197,21.28125 -0.3197,-212.8125 z m -583.90938,390.10242 c -2.15413,-1.31352 -4.82601,-3.68659 -5.9375,-5.27346 -1.85049,-2.64194 -2.02089,-35.10034 -2.02089,-384.93853 l 0,-382.053287 2.61037,-3.318547 c 5.93513,-7.545302 -14.88122,-7.018599 277.38963,-7.018599 292.27085,0 271.4545,-0.526703 277.38962,7.018599 l 2.61038,3.318547 0,382.162857 0,382.16285 -2.61038,3.31855 c -5.93532,7.54555 14.90662,7.01902 -277.64005,7.01392 -261.49143,-0.005 -267.9679,-0.0616 -271.79118,-2.3929 z m 542.52536,-2.54872 c 1.73059,-0.65797 4.0172,-2.88003 5.08137,-4.93793 1.73402,-3.3532 1.93488,-43.07317 1.93488,-382.61577 0,-339.5425993 -0.20086,-379.262577 -1.93488,-382.615779 -1.06417,-2.057894 -3.35078,-4.27996 -5.08137,-4.937925 -4.27991,-1.62722 -536.68759,-1.62722 -540.9675,0 -1.73058,0.657965 -4.0172,2.880031 -5.08138,4.937925 -1.73401,3.353202 -1.93487,43.0731797 -1.93487,382.615779 0,340.01183 0.19904,379.25905 1.94045,382.62656 1.06725,2.06384 3.17662,4.25025 4.6875,4.8587 3.83616,1.54487 537.2951,1.61231 541.3558,0.0685 z m -377.98375,-38.29658 c -5.66541,-2.45397 -10.86669,-7.4417 -13.88989,-13.31962 -1.326,-2.57813 -2.95056,-4.6875 -3.61011,-4.6875 -0.65955,0 -2.30249,2.16263 -3.65095,4.80585 -7.53005,14.76011 -23.83519,18.37172 -34.12197,7.55807 -9.23363,-9.70656 -11.68912,-27.64839 -5.51187,-40.27422 2.89635,-5.91995 5.64935,-8.92982 14.97916,-16.37678 11.12905,-8.8831 21.77751,-19.3841 26.07399,-25.71292 1.77514,-2.61482 2.32405,-2.82385 3.36221,-1.28034 5.50092,8.17847 12.4056,15.24646 21.99443,22.51454 16.67918,12.6424 20.13033,16.98 23.19569,29.15366 1.19011,4.72636 1.07795,7.44572 -0.6223,15.08801 -2.5298,11.37098 -7.49004,18.75628 -14.83801,22.09231 -6.28037,2.85134 -7.68442,2.89748 -13.36038,0.43894 z m 250,0 c -5.6654125,-2.45397 -10.8666875,-7.4417 -13.8898875,-13.31962 -1.326,-2.57813 -2.9505625,-4.6875 -3.6101125,-4.6875 -0.65955,0 -2.3024875,2.16263 -3.65095,4.80585 -7.53005,14.76011 -23.835188,18.37172 -34.121975,7.55807 -9.233625,-9.70656 -11.689112,-27.64839 -5.511862,-40.27422 2.896349,-5.91995 5.64935,-8.92982 14.979162,-16.37678 11.12905,-8.8831 21.7775,-19.3841 26.0739875,-25.71292 1.7751375,-2.61482 2.32405,-2.82385 3.3622125,-1.28034 5.5009125,8.17847 12.4056,15.24646 21.994425,22.51454 16.679175,12.6424 20.130325,16.98 23.195688,29.15366 1.190112,4.72636 1.07795,7.44572 -0.6223,15.08801 -2.5298,11.37098 -7.490038,18.75628 -14.838013,22.09231 -6.280362,2.85134 -7.684412,2.89748 -13.360375,0.43894 z m 67.898325,-13.77209 c -0.44725,-1.16551 1.2263,-5.77646 3.9698,-10.9375 5.403225,-10.16455 6.483212,-11.61286 7.7299,-10.36617 0.489325,0.48932 -1.175062,4.71244 -3.69865,9.38467 -5.308825,9.82893 -4.775487,11.43397 3.7994,11.43397 3.3142,0 5.146125,0.48968 4.676225,1.25 -0.4249,0.6875 -4.132,1.25 -8.238,1.25 -5.713325,0 -7.646938,-0.47292 -8.238675,-2.01497 z m -9.7473,-43.47037 c -7.250412,-7.25041 -5.157862,-17.94801 5.0515,-25.82448 3.754875,-2.89686 7.8716,-6.70097 9.1483,-8.4536 l 2.32125,-3.18657 4.935275,4.9125 c 2.7144,2.70186 7.24285,6.88391 10.06321,9.29344 2.82037,2.40952 5.51643,5.92883 5.99125,7.82071 1.99228,7.93782 -3.3073,18.42334 -9.311497,18.42334 -1.382325,0 -4.50165,-1.74578 -6.931813,-3.87949 l -4.4185,-3.87949 -4.4185,3.87949 c -5.302838,4.65596 -8.4428,4.88182 -12.430475,0.89415 z M -259.47582,388.10896 c -4.3559,-6.64794 -11.62049,-13.6723 -22.7885,-22.0349 -18.62272,-13.9447 -24.0215,-25.31237 -19.88596,-41.87194 3.20477,-12.83255 6.93203,-18.34646 15.10456,-22.34491 l 6.88614,-3.36907 7.17803,3.58882 c 5.40132,2.70053 8.1856,5.13583 11.24871,9.83883 2.23887,3.4375 4.55641,6.41313 5.15009,6.61252 0.59367,0.1994 2.88837,-2.45651 5.09935,-5.902 14.14423,-22.0419 37.54087,-12.91421 41.93055,16.3583 0.60997,4.06755 0.19493,7.84599 -1.43629,13.07588 -2.5493,8.17332 -9.47609,16.02422 -24.14079,27.36146 -4.44202,3.43411 -10.78945,9.61884 -14.10539,13.74384 -3.31593,4.125 -6.49387,7.6614 -7.06208,7.85866 -0.56822,0.19726 -1.99849,-1.1147 -3.17842,-2.91549 z m 250.0000025,0 c -4.3558995,-6.64794 -11.6204875,-13.6723 -22.7884995,-22.0349 -18.622726,-13.9447 -24.0215,-25.31237 -19.885963,-41.87194 3.204775,-12.83255 6.932025,-18.34646 15.104562,-22.34491 l 6.886138,-3.36907 7.178025,3.58882 c 5.401325,2.70053 8.1856,5.13583 11.248712,9.83883 2.2388755,3.4375 4.556413,6.41313 5.150088,6.61252 0.593675,0.1994 2.888375,-2.45651 5.09935,-5.902 14.144237,-22.0419 37.540875,-12.91421 41.93055,16.3583 0.609975,4.06755 0.194938,7.84599 -1.436288,13.07588 -2.5493,8.17332 -9.476087,16.02422 -24.140787,27.36146 -4.442025,3.43411 -10.78945,9.61884 -14.1053875,13.74384 -3.3159375,4.125 -6.493875,7.6614 -7.0620875,7.85866 -0.5682125,0.19726 -1.9984875,-1.1147 -3.1784125,-2.91549 z M -137.67853,205.91849 c -3.59832,-4.92422 -10.12873,-11.1388 -18.125,-17.24844 -14.17871,-10.8334 -18.5888,-16.16505 -21.41644,-25.89179 -5.23116,-17.99457 7.35784,-41.48747 22.23164,-41.48747 5.93791,0 13.69567,5.16387 18.09902,12.04741 2.35818,3.68642 4.81986,6.70259 5.47038,6.70259 0.65052,0 2.14194,-1.54688 3.31426,-3.4375 5.9535,-9.60133 12.43348,-14.0625 20.42614,-14.0625 12.357425,0 20.20535,9.73992 23.29,28.9048 0.434237,2.69787 -0.1314,7.50031 -1.398625,11.875 -1.758575,6.07087 -3.462612,8.64637 -9.82205,14.8452 -4.231875,4.125 -11.313575,10.3125 -15.737105,13.75 -4.42352,3.4375 -10.61102,9.72633 -13.75,13.9752 -3.13897,4.24886 -5.98847,7.7252 -6.33222,7.72518 -0.34375,-1e-5 -3.15625,-3.46396 -6.25,-7.69768 z M -355.25919,82.769037 c -2.45062,-2.531788 -6.76465,-6.574675 -9.58675,-8.9842 -2.82209,-2.409525 -5.51958,-5.928838 -5.99441,-7.820713 -1.99227,-7.937825 3.30731,-18.423337 9.31151,-18.423337 1.38232,0 4.50164,1.745775 6.93181,3.879487 l 4.4185,3.879488 4.41849,-3.879488 c 2.43018,-2.133712 5.5495,-3.879487 6.93182,-3.879487 3.63577,0 8.35203,5.267187 9.31568,10.403862 1.36745,7.289175 -1.19736,12.412763 -9.46541,18.9085 -4.09859,3.220038 -8.03396,6.94205 -8.74526,8.271125 -1.72143,3.216513 -2.32565,3.027675 -7.53598,-2.355237 z m 93.59587,-4.847962 c -5.17744,-6.811751 -7.93711,-9.299088 -26.0788,-23.505288 -14.27904,-11.181463 -18.60851,-24.894373 -13.31779,-42.181931 3.42693,-11.1975428 12.23805,-19.693069 20.42465,-19.693069 6.45518,0 14.10176,4.8803625 18.84899,12.0302162 2.45393,3.6958813 4.8698,6.7197838 5.3686,6.7197838 0.49881,0 2.36959,-2.2102375 4.15729,-4.9116375 7.05654,-10.6631413 15.7458,-15.0411688 24.85882,-12.5249425 12.48388,3.4469637 21.32797,25.336584 16.47743,40.782568 -2.54228,8.095587 -9.07383,15.43375 -24.92828,28.006762 -4.83937,3.837763 -11.40792,10.44855 -14.59675,14.690637 l -5.79787,7.712875 -5.41629,-7.125975 z m 250.000003,0 C -16.840755,71.109324 -19.60043,68.621987 -37.742118,54.415787 -52.021155,43.234324 -56.35063,29.521414 -51.059905,12.233856 c 3.426925,-11.1975428 12.23805,-19.693069 20.42465,-19.693069 6.455175,0 14.10175,4.8803625 18.848987,12.0302162 2.4539255,3.6958813 4.8698005,6.7197838 5.3686005,6.7197838 0.4988125,0 2.3695875,-2.2102375 4.1572875,-4.9116375 C 4.7961575,-4.2839918 13.48542,-8.6620193 22.598445,-6.145793 35.08232,-2.6988293 43.926407,19.190791 39.07587,34.636775 36.533595,42.732362 30.002045,50.070525 14.147595,62.643537 9.30822,66.4813 2.73967,73.092087 -0.449155,77.334174 l -5.797875,7.712875 -5.416287,-7.125975 z M -353.92853,29.045254 c 0,-0.547543 1.92818,-4.604393 4.28485,-9.015223 2.35667,-4.41083 4.01098,-8.462842 3.67623,-9.004468 -0.33474,-0.541627 -3.07348,-0.984776 -6.08608,-0.984776 -3.0126,0 -5.8251,-0.5625 -6.25,-1.25 -0.48692,-0.7878613 2.46243,-1.25 7.97746,-1.25 4.8125,0 9.02656,0.4474875 9.36458,0.9944162 0.8081,1.30754 -10.26555,21.5055838 -11.79052,21.5055838 -0.64709,0 -1.17652,-0.44799 -1.17652,-0.995533 z m 71.5625,-121.19192 c 83.01562,-0.177422 218.859375,-0.177422 301.875,0 83.01562,0.177422 15.09375,0.322585 -150.9375,0.322585 -166.03125,0 -233.95313,-0.145163 -150.9375,-0.322585 z"
         id="path4040"
         inkscape:connector-curvature="0" />
      <path
         style="fill:#e01b6a"
         d="m -282.36603,779.10334 c 83.01562,-0.17743 218.859375,-0.17743 301.875,0 83.01562,0.17742 15.09375,0.32258 -150.9375,0.32258 -166.03125,0 -233.95313,-0.14516 -150.9375,-0.32258 z M -443.31076,343.79079 c 0,-234.09375 0.14387,-329.859378 0.31971,-212.8125 0.17584,117.04687 0.17584,308.57812 0,425.625 -0.17584,117.04687 -0.31971,21.28125 -0.31971,-212.8125 z m 623.75,0 c 0,-234.09375 0.14387,-329.859378 0.3197,-212.8125 0.17584,117.04687 0.17584,308.57812 0,425.625 -0.17583,117.04687 -0.3197,21.28125 -0.3197,-212.8125 z m -584.59693,389.10278 c -1.84479,-1.14438 -4.09479,-3.46457 -5,-5.15597 -2.45676,-4.5905 -2.44232,-763.330103 0.0146,-767.920933 0.91325,-1.706424 3.25004,-4.041579 5.19287,-5.189234 3.26969,-1.931454 23.53828,-2.086646 272.52168,-2.086646 248.9834,0 269.25199,0.155192 272.52167,2.086646 1.94283,1.147655 4.27963,3.48281 5.19288,5.189234 2.46986,4.61499 2.46986,763.333243 0,767.948243 -0.91325,1.70641 -3.25005,4.04158 -5.19288,5.18923 -3.27018,1.93175 -23.51477,2.08417 -272.71453,2.05338 -248.88801,-0.0308 -269.43502,-0.19012 -272.5363,-2.11395 z m 547.16097,-3.42097 3.06819,-3.06818 0,-382.61363 0,-382.613639 -3.06819,-3.068183 -3.06817,-3.068181 -271.36364,0 -271.36364,0 -3.06818,3.068181 -3.06818,3.068183 0,382.613639 0,382.61363 3.06818,3.06818 3.06818,3.06819 271.36364,0 271.36364,0 3.06817,-3.06819 z m -428.67641,-36.97985 c -8.51346,-2.54763 -15.32972,-14.00693 -16.53665,-27.80094 -1.22406,-13.98977 3.4952,-22.43212 19.26826,-34.4692 9.45157,-7.21289 20.11459,-17.73894 24.24323,-23.93182 l 2.08335,-3.125 2.22935,3.125 c 4.58569,6.42797 14.93187,16.54776 22.27552,21.78808 16.62953,11.86659 22.97588,22.87762 21.47303,37.25607 -2.3043,22.04637 -17.06049,34.10658 -31.2335,25.52711 -4.33652,-2.62505 -12.05799,-12.0764 -12.05799,-14.75936 0,-2.71804 -4.82703,-0.74727 -6.18202,2.52398 -2.00338,4.83659 -8.42241,10.86174 -14.09033,13.22577 -5.15286,2.14918 -6.22924,2.20927 -11.47225,0.64031 z m 250,0 c -8.513462,-2.54763 -15.329725,-14.00693 -16.53665,-27.80094 -1.224062,-13.98977 3.4952,-22.43212 19.268263,-34.4692 9.451562,-7.21289 20.114587,-17.73894 24.2432245,-23.93182 l 2.08335,-3.125 2.22935,3.125 c 4.5856875,6.42797 14.9318755,16.54776 22.2755255,21.78808 16.629525,11.86659 22.975875,22.87762 21.473025,37.25607 -2.3043,22.04637 -17.060488,34.10658 -31.2335005,25.52711 C 3.792945,688.237 -3.92853,678.78565 -3.92853,676.10269 c 0,-2.71804 -4.827025,-0.74727 -6.182025,2.52398 -2.003375,4.83659 -8.4224,10.86174 -14.090325,13.22577 -5.152863,2.14918 -6.229238,2.20927 -11.47225,0.64031 z m 114.2446,-13.19859 c 0,-1.50035 10.342325,-20.57771 10.869762,-20.05027 0.299163,0.29916 -1.245362,4.08848 -3.432275,8.42073 -3.199125,6.33744 -3.701624,8.31647 -2.57125,10.12649 1.212638,1.94174 0.975738,2.24968 -1.73065,2.24968 -1.724575,0 -3.135587,-0.33599 -3.135587,-0.74663 z m -9.392525,-44.27275 c -1.401713,-1.54886 -2.498138,-5.14969 -2.84625,-9.34749 -0.62595,-7.54818 -1.858225,-5.73812 13.860988,-20.36003 l 5.753537,-5.3519 5.232337,4.7269 c 15.938043,14.39845 15.257723,13.42372 14.632373,20.96466 -1.00168,12.07895 -8.745497,15.86802 -16.060923,7.85866 l -3.679537,-4.02857 -3.679537,4.02857 c -4.341201,4.75301 -9.721263,5.36753 -13.212988,1.5092 z M -262.8125,382.79716 c -3.16744,-3.97274 -11.30178,-11.42126 -18.07632,-16.55226 -6.77454,-5.13101 -13.88942,-11.57911 -15.81086,-14.32911 -10.68638,-15.29457 -5.61921,-41.76849 9.42374,-49.23535 5.4733,-2.71678 6.482,-2.84524 11.2125,-1.42795 5.57787,1.67117 12.66483,8.14553 16.13927,14.7442 1.17115,2.22425 2.72323,4.0441 3.44905,4.0441 0.72584,0 3.04593,-2.80548 5.15575,-6.23439 4.76581,-7.74544 9.79879,-11.42144 16.70305,-12.19965 11.23359,-1.26619 19.98571,7.09519 23.1794,22.14449 3.80824,17.94523 -1.04174,27.00375 -24.05844,44.93503 -4.643,3.61715 -11.0541,9.90167 -14.24688,13.96558 -3.1928,4.06391 -6.14398,7.38434 -6.55819,7.3787 -0.4142,-0.006 -3.34464,-3.26065 -6.51208,-7.23339 z m 249.999995,0 c -3.167437,-3.97274 -11.301775,-11.42126 -18.076312,-16.55226 -6.774538,-5.13101 -13.889426,-11.57911 -15.810863,-14.32911 -10.686375,-15.29457 -5.619213,-41.76849 9.423737,-49.23535 5.473301,-2.71678 6.482,-2.84524 11.2125,-1.42795 5.577876,1.67117 12.664838,8.14553 16.1392755,14.7442 1.17115,2.22425 2.723225,4.0441 3.44905,4.0441 0.7258375,0 3.045925,-2.80548 5.15575,-6.23439 4.7658125,-7.74544 9.7987875,-11.42144 16.7030495,-12.19965 11.233588,-1.26619 19.985713,7.09519 23.1794,22.14449 3.808238,17.94523 -1.041737,27.00375 -24.058437,44.93503 -4.643,3.61715 -11.0541,9.90167 -14.2468875,13.96558 -3.1928,4.06391 -6.143975,7.38434 -6.5581875,7.3787 -0.4142,-0.006 -3.3446375,-3.26065 -6.512075,-7.23339 z M -137.41532,205.03354 c -3.36571,-4.62364 -9.70472,-10.61572 -17.02769,-16.09577 -13.4328,-10.05228 -18.63621,-15.84408 -21.32565,-23.73715 -2.41567,-7.08962 -2.41263,-12.70437 0.0125,-22.01291 3.83692,-14.73094 11.0004,-21.40486 21.85544,-20.36184 7.61978,0.73217 13.41581,4.93492 17.54804,12.72423 1.67441,3.15737 3.89054,5.74069 4.92415,5.74069 1.03361,0 3.23691,-2.55914 4.89622,-5.68699 4.76768,-8.98713 13.74048,-14.066 22.08476,-12.5006 7.45952,1.39941 13.883083,8.40386 16.941732,18.4738 5.198651,17.11546 0.722975,30.0089 -14.513552,41.81031 -10.56676,8.18446 -22.02136,19.20341 -25.92904,24.94288 -1.57032,2.30643 -3.13637,4.16551 -3.48012,4.13128 -0.34375,-0.0342 -3.0378,-3.37678 -5.98679,-7.42793 z M -353.92853,82.987049 c -1.71875,-1.775924 -6.15136,-5.934649 -9.85025,-9.241612 l -6.72525,-6.01265 0.57649,-6.951625 c 1.01034,-12.183438 8.72325,-16.004888 16.06947,-7.9618 l 3.67954,4.028575 3.67954,-4.028575 c 7.30931,-8.002675 15.05926,-4.220038 16.05923,7.838287 0.53791,6.486425 0.34921,7.0328 -3.7706,10.918125 -10.7025,10.093351 -15.79358,14.712251 -16.17806,14.677625 -0.22831,-0.02056 -1.82136,-1.490425 -3.54011,-3.26635 z m 91.88955,-6.67735 c -3.39419,-4.411 -10.96664,-11.461812 -18.16228,-16.911125 -6.78756,-5.140274 -13.7669,-11.215375 -15.50962,-13.500212 -6.86249,-8.997175 -8.55973,-19.98344 -4.97346,-32.193199 3.99192,-13.59087225 10.5557,-19.9183172 20.65335,-19.9097035 7.38268,0.00625 12.66493,3.4811988 18.02205,11.85571 2.42397,3.78929 4.93516,6.8896175 5.58041,6.8896175 0.64525,0 3.13799,-3.0714887 5.53941,-6.82553 7.1043,-11.10581 17.81265,-14.8249037 26.8397,-9.3216425 6.30669,3.844815 8.56593,7.0972837 11.5239,16.5902215 5.42811,17.420197 0.73263,30.006613 -15.92292,42.681951 -11.37108,8.6537 -18.67859,15.659737 -24.00978,23.019237 l -3.7595,5.189838 -5.82126,-7.565163 z m 250,0 c -3.394188,-4.411 -10.966637,-11.461812 -18.162275,-16.911125 -6.787563,-5.140274 -13.7669,-11.215375 -15.509625,-13.500212 -6.862488,-8.997175 -8.559725,-19.98344 -4.973463,-32.193199 3.991925,-13.59087225 10.5557,-19.9183172 20.65335,-19.9097035 7.382688,0.00625 12.664938,3.4811988 18.02205,11.85571 2.4239755,3.78929 4.935163,6.8896175 5.580413,6.8896175 0.64525,0 3.1379875,-3.0714887 5.5394125,-6.82553 7.1043,-11.10581 17.8126495,-14.8249037 26.8396995,-9.3216425 6.306688,3.844815 8.565925,7.0972837 11.5239,16.5902215 5.428113,17.420197 0.732625,30.006613 -15.922925,42.681951 -11.371075,8.6537 -18.678587,15.659737 -24.0097745,23.019237 l -3.7595,5.189838 -5.8212625,-7.565163 z m -337.4753,-54.916742 c 4.68332,-7.990862 5.15266,-10.035261 2.83575,-12.35217 -1.16667,-1.1666663 -0.75,-1.5 1.875,-1.5 1.85625,0 3.375,0.5889963 3.375,1.30888 0,2.115755 -10.12228,19.94112 -11.32373,19.94112 -0.60378,0 0.85332,-3.329024 3.23798,-7.39783 z m 67.14825,-113.539623 c 83.01562,-0.177422 218.859375,-0.177422 301.875,0 83.01562,0.177422 15.09375,0.322585 -150.9375,0.322585 -166.03125,0 -233.95313,-0.145163 -150.9375,-0.322585 z"
         id="path4038"
         inkscape:connector-curvature="0" />
      <path
         style="fill:#dd0058"
         d="m -282.36603,779.10334 c 83.01562,-0.17743 218.859375,-0.17743 301.875,0 83.01562,0.17742 15.09375,0.32258 -150.9375,0.32258 -166.03125,0 -233.95313,-0.14516 -150.9375,-0.32258 z M -443.31076,343.79079 c 0,-234.09375 0.14387,-329.859378 0.31971,-212.8125 0.17584,117.04687 0.17584,308.57812 0,425.625 -0.17584,117.04687 -0.31971,21.28125 -0.31971,-212.8125 z m 623.75,0 c 0,-234.09375 0.14387,-329.859378 0.3197,-212.8125 0.17584,117.04687 0.17584,308.57812 0,425.625 -0.17583,117.04687 -0.3197,21.28125 -0.3197,-212.8125 z m -445.93027,390.31256 c 73.73437,-0.1781 194.390625,-0.1781 268.125,0 73.734375,0.1781 13.40625,0.32381 -134.0625,0.32381 -147.46875,0 -207.79688,-0.14571 -134.0625,-0.32381 z m 28.133,-41.7103 c -4.93273,-1.42294 -11.5885,-7.8563 -14.52073,-14.03551 -2.76557,-5.82803 -6.22336,-6.02372 -8.90972,-0.50425 -5.94909,12.22315 -17.4039,17.71797 -26.80323,12.8574 -10.78675,-5.57805 -16.80768,-23.74035 -12.71317,-38.34955 2.10667,-7.51662 6.88099,-13.18604 18.68384,-22.18675 9.37177,-7.14679 18.75519,-16.41478 22.91551,-22.6336 l 2.09059,-3.125 2.23691,3.125 c 4.93123,6.88898 13.83474,15.40497 23.68313,22.65226 12.01358,8.84065 16.45454,14.59441 18.69133,24.21674 1.31685,5.66493 1.30379,8.3233 -0.0733,14.90502 -0.9218,4.40573 -2.53053,9.66291 -3.57499,11.68264 -2.23462,4.32121 -10.11343,11.54334 -12.59298,11.54334 -0.9511,0 -2.4784,0.22991 -3.394,0.51092 -0.91562,0.28101 -3.48927,-0.0154 -5.71924,-0.65866 z m 250,0 c -4.932725,-1.42294 -11.5885,-7.8563 -14.520725,-14.03551 -2.765575,-5.82803 -6.2233625,-6.02372 -8.909725,-0.50425 -5.949088,12.22315 -17.4039,17.71797 -26.803225,12.8574 -10.78675,-5.57805 -16.807688,-23.74035 -12.713175,-38.34955 2.106675,-7.51662 6.880987,-13.18604 18.683837,-22.18675 9.371775,-7.14679 18.755188,-16.41478 22.915513,-22.6336 l 2.0905875,-3.125 2.2369125,3.125 c 4.931225,6.88898 13.8347375,15.40497 23.683125,22.65226 12.013587,8.84065 16.45455,14.59441 18.691337,24.21674 1.31685,5.66493 1.303788,8.3233 -0.07325,14.90502 -0.9218,4.40573 -2.530537,9.66291 -3.574987,11.68264 -2.234625,4.32121 -10.113438,11.54334 -12.592988,11.54334 -0.9511,0 -2.478399,0.22991 -3.394,0.51092 -0.915612,0.28101 -3.489262,-0.0154 -5.719237,-0.65866 z m 58.740287,-56.77528 c -1.505637,-1.05458 -3.396825,-4.11795 -4.202625,-6.80747 -2.073362,-6.92026 -0.186525,-10.59681 10.220038,-19.91403 l 8.681587,-7.77282 9.30405,8.36014 c 10.144563,9.11537 11.831113,12.67542 9.438873,19.924 -1.4604,4.42505 -5.358472,8.1332 -8.54976,8.1332 -0.957425,0 -3.6793,-2.10938 -6.0486,-4.6875 l -4.307838,-4.6875 -3.36075,3.94718 c -4.178662,4.90782 -7.627587,5.9895 -11.174975,3.5048 z M -262.35084,382.05031 c -2.8954,-3.70726 -9.63799,-9.98236 -14.98353,-13.94467 -17.22961,-12.77123 -21.37256,-17.82132 -23.9195,-29.15687 -2.25367,-10.03037 2.9477,-27.30402 10.01145,-33.24777 10.00051,-8.41488 23.15905,-3.52709 31.31825,11.63329 1.17115,2.17607 2.70074,3.9565 3.39909,3.9565 0.69835,0 3.22945,-3.06355 5.62467,-6.80788 6.4619,-10.10157 14.09829,-14.12919 22.42824,-11.82917 8.94764,2.47056 13.58933,8.94847 16.57081,23.12616 1.32909,6.3201 1.30702,8.72936 -0.12987,14.17637 -2.53159,9.59679 -6.08486,14.01724 -20.0773,24.9771 -6.90526,5.40868 -14.98929,12.98924 -17.96451,16.84569 -2.97524,3.85645 -5.77039,7.01173 -6.21147,7.01173 -0.44107,0 -3.17092,-3.03322 -6.06633,-6.74048 z m 249.999998,0 c -2.8954,-3.70726 -9.637988,-9.98236 -14.983526,-13.94467 -17.229612,-12.77123 -21.372562,-17.82132 -23.9195,-29.15687 -2.253674,-10.03037 2.9477,-27.30402 10.01145,-33.24777 10.000513,-8.41488 23.15905,-3.52709 31.3182505,11.63329 1.17115,2.17607 2.7007375,3.9565 3.3990875,3.9565 0.69835,0 3.22945,-3.06355 5.624675,-6.80788 6.4619,-10.10157 14.098287,-14.12919 22.428237,-11.82917 8.947638,2.47056 13.589325,8.94847 16.570813,23.12616 1.329087,6.3201 1.307012,8.72936 -0.129875,14.17637 -2.531588,9.59679 -6.084863,14.01724 -20.0773,24.9771 -6.905263,5.40868 -14.9892875,12.98924 -17.9645125,16.84569 -2.9752375,3.85645 -5.7703875,7.01173 -6.2114625,7.01173 -0.441075,0 -3.170925,-3.03322 -6.066338,-6.74048 z M -132.67853,210.08652 c 0,-2.26106 -15.49001,-17.76908 -23.35241,-23.37958 -18.8036,-13.41797 -24.07926,-26.05135 -18.61157,-44.56823 2.91519,-9.8726 6.29403,-14.44215 12.81016,-17.32454 4.95066,-2.18992 6.46152,-2.35221 10.53532,-1.13167 6.34749,1.90175 11.30926,6.26646 14.97157,13.16999 1.65971,3.12856 3.86332,5.6883 4.89693,5.6883 1.03361,0 3.26786,-2.61749 4.96501,-5.81663 4.2482,-8.00796 11.29833,-12.93337 18.51249,-12.93337 10.85845,0 18.129787,8.16448 21.033675,23.61723 2.828687,15.05255 -2.095925,25.32698 -17.909505,37.36543 -9.67925,7.36854 -25.35167,23.0171 -25.35167,25.31307 0,0.66234 -0.5625,1.20427 -1.25,1.20427 -0.6875,0 -1.25,-0.54193 -1.25,-1.20427 z M -359.81243,76.548862 c -5.17781,-4.818125 -9.34801,-9.816663 -9.80635,-11.754188 -1.58016,-6.679925 3.80154,-16.003887 9.2373,-16.003887 0.95742,0 3.6793,2.109375 6.0486,4.6875 l 4.30783,4.6875 3.36076,-3.901013 c 1.84842,-2.145562 4.42439,-4.267687 5.72439,-4.715862 6.13075,-2.113525 12.67435,9.105775 9.61653,16.487987 -1.20647,2.912675 -17.56045,19.155538 -19.0791,18.949463 -0.22058,-0.02988 -4.45506,-3.8268 -9.40996,-8.4375 z m 98.2315,-0.9757 c -3.00994,-3.795388 -9.9726,-10.340113 -15.4726,-14.543837 -13.61396,-10.405326 -17.93197,-14.564138 -20.70329,-19.939988 -3.91681,-7.597913 -4.79086,-13.886714 -3.13609,-22.564117 3.05153,-16.0017155 9.98482,-24.109433 20.61708,-24.109433 7.29719,0 12.63305,3.6782775 18.38922,12.6766275 2.35669,3.6841055 4.81283,6.6983725 5.45808,6.6983725 0.64525,0 3.15644,-3.100327 5.58041,-6.8896175 5.39946,-8.4407075 10.62805,-11.8510375 18.16959,-11.8510375 10.81985,0 17.40894,7.3423575 20.74417,23.115655 3.09679,14.6456 -2.01331,25.714125 -17.12122,37.084663 -10.41113,7.835637 -18.63329,15.679325 -23.65843,22.569387 l -3.39433,4.654037 -5.47259,-6.900712 z m 250,0 C -14.590868,71.777774 -21.55353,65.233049 -27.05353,61.029325 -40.667492,50.623999 -44.985505,46.465187 -47.756818,41.089337 -51.67363,33.491424 -52.54768,27.202623 -50.892905,18.52522 -47.84138,2.5235045 -40.908093,-5.584213 -30.27583,-5.584213 c 7.297187,0 12.63305,3.6782775 18.389225,12.6766275 2.3566875,3.6841055 4.812825,6.6983725 5.458075,6.6983725 0.64525,0 3.1564375,-3.100327 5.5804125,-6.8896175 C 4.551345,-1.539538 9.7799325,-4.949868 17.32147,-4.949868 c 10.81985,0 17.408937,7.3423575 20.744175,23.115655 C 41.162433,32.811387 36.052332,43.879912 20.94442,55.25045 10.533295,63.086087 2.3111325,70.929775 -2.714005,77.819837 l -3.3943375,4.654037 -5.4725875,-6.900712 z m -253.9101,-122.719815 c 73.73437,-0.1781 194.390625,-0.1781 268.125,0 73.734375,0.178099 13.40625,0.323817 -134.0625,0.323817 -147.46875,0 -207.79688,-0.145718 -134.0625,-0.323817 z m -16.875,-45.000013 c 83.01562,-0.177422 218.859375,-0.177422 301.875,0 83.01562,0.177422 15.09375,0.322585 -150.9375,0.322585 -166.03125,0 -233.95313,-0.145163 -150.9375,-0.322585 z"
         id="path4036"
         inkscape:connector-curvature="0" />
      <path
         style="fill:#111111"
         d="m -282.36603,779.10334 c 83.01562,-0.17743 218.859375,-0.17743 301.875,0 83.01562,0.17742 15.09375,0.32258 -150.9375,0.32258 -166.03125,0 -233.95313,-0.14516 -150.9375,-0.32258 z M -443.31076,343.79079 c 0,-234.09375 0.14387,-329.859378 0.31971,-212.8125 0.17584,117.04687 0.17584,308.57812 0,425.625 -0.17584,117.04687 -0.31971,21.28125 -0.31971,-212.8125 z m 623.75,0 c 0,-234.09375 0.14387,-329.859378 0.3197,-212.8125 0.17584,117.04687 0.17584,308.57812 0,425.625 -0.17583,117.04687 -0.3197,21.28125 -0.3197,-212.8125 z M -282.36603,-92.146666 c 83.01562,-0.177422 218.859375,-0.177422 301.875,0 83.01562,0.177422 15.09375,0.322585 -150.9375,0.322585 -166.03125,0 -233.95313,-0.145163 -150.9375,-0.322585 z"
         id="path4034"
         inkscape:connector-curvature="0" />
    </g>
  </g>
</svg>
