<?xml version="1.0" encoding="UTF-8" standalone="no"?>
<!-- Created with Inkscape (http://www.inkscape.org/) -->

<svg
   xmlns:dc="http://purl.org/dc/elements/1.1/"
   xmlns:cc="http://creativecommons.org/ns#"
   xmlns:rdf="http://www.w3.org/1999/02/22-rdf-syntax-ns#"
   xmlns:svg="http://www.w3.org/2000/svg"
   xmlns="http://www.w3.org/2000/svg"
   xmlns:sodipodi="http://sodipodi.sourceforge.net/DTD/sodipodi-0.dtd"
   xmlns:inkscape="http://www.inkscape.org/namespaces/inkscape"
   width="176.45389mm"
   height="246.27022mm"
   viewBox="0 0 625.23031 872.611"
   id="svg2"
   version="1.1"
   inkscape:version="0.91 r13725"
   sodipodi:docname="As.svg">
  <defs
     id="defs4">
    <pattern
       y="0"
       x="0"
       height="6"
       width="6"
       patternUnits="userSpaceOnUse"
       id="EMFhbasepattern" />
    <pattern
       y="0"
       x="0"
       height="6"
       width="6"
       patternUnits="userSpaceOnUse"
       id="EMFhbasepattern-1" />
    <pattern
       y="0"
       x="0"
       height="6"
       width="6"
       patternUnits="userSpaceOnUse"
       id="EMFhbasepattern-14" />
    <pattern
       y="0"
       x="0"
       height="6"
       width="6"
       patternUnits="userSpaceOnUse"
       id="EMFhbasepattern-4" />
    <pattern
       y="0"
       x="0"
       height="6"
       width="6"
       patternUnits="userSpaceOnUse"
       id="EMFhbasepattern-9" />
    <pattern
       y="0"
       x="0"
       height="6"
       width="6"
       patternUnits="userSpaceOnUse"
       id="EMFhbasepattern-8" />
  </defs>
  <sodipodi:namedview
     id="base"
     pagecolor="#ffffff"
     bordercolor="#666666"
     borderopacity="1.0"
     inkscape:pageopacity="0.0"
     inkscape:pageshadow="2"
     inkscape:zoom="0.24748737"
     inkscape:cx="-76.340166"
     inkscape:cy="-412.43249"
     inkscape:document-units="px"
     inkscape:current-layer="layer1"
     showgrid="false"
     fit-margin-top="0"
     fit-margin-left="0"
     fit-margin-right="0"
     fit-margin-bottom="0"
     inkscape:window-width="784"
     inkscape:window-height="822"
     inkscape:window-x="800"
     inkscape:window-y="0"
     inkscape:window-maximized="0" />
  <metadata
     id="metadata7">
    <rdf:RDF>
      <cc:Work
         rdf:about="">
        <dc:format>image/svg+xml</dc:format>
        <dc:type
           rdf:resource="http://purl.org/dc/dcmitype/StillImage" />
        <dc:title></dc:title>
      </cc:Work>
    </rdf:RDF>
  </metadata>
  <g
     inkscape:label="Calque 1"
     inkscape:groupmode="layer"
     id="layer1"
     transform="translate(-124.1132,1595.6513)">
    <g
       transform="translate(1308.1554,-1559.1525)"
       id="g4014">
      <path
         style="fill:#fdfdfd"
         d="m -1183.9286,399.86224 0,-436.249996 312.5,0 312.5,0 0,436.249996 0,436.25 -312.5,0 -312.5,0 0,-436.25 z"
         id="path4030"
         inkscape:connector-curvature="0" />
      <path
         style="fill:#f8dde8"
         d="m -1177.8034,834.55398 c -1.8959,-0.75392 -3.8487,-2.94867 -4.6875,-5.26826 -2.0668,-5.7156 -2.07,-853.122326 0,-858.837806 0.9685,-2.678387 2.7229,-4.43273 5.4013,-5.401248 5.6984,-2.060592 605.63016,-2.060592 611.32863,0 2.67838,0.968518 4.43273,2.722861 5.40125,5.401248 2.06378,5.707309 2.06378,853.121356 0,858.828656 -0.96852,2.67839 -2.72287,4.43274 -5.40125,5.40125 -5.34155,1.93154 -607.17663,1.80976 -612.03913,-0.12388 z m 611.47095,-5.84559 3.65385,-3.65383 0,-425.19232 0,-425.192304 -3.65385,-3.653846 -3.65384,-3.653846 -301.44231,0 -301.4423,0 -3.6539,3.653846 -3.6538,3.653846 0,425.192304 0,425.19232 3.6538,3.65383 3.6539,3.65385 301.4423,0 301.44231,0 3.65384,-3.65385 z m -577.57065,-35.40865 c -3.0273,-1.54687 -6.6621,-4.40062 -8.0773,-6.34166 l -2.5732,-3.52916 0,-383.56668 0,-383.56667 2.5732,-3.529164 c 1.4152,-1.941038 5.05,-4.794787 8.0773,-6.341662 l 5.5042,-2.8125 266.9703,0 266.97028,0 5.50418,2.8125 c 3.0273,1.546875 6.66212,4.400624 8.07737,6.341662 l 2.57317,3.529164 0,383.56667 0,383.56668 -2.57317,3.52916 c -1.41525,1.94104 -5.05007,4.79479 -8.07737,6.34166 l -5.50418,2.8125 -266.97028,0 -266.9703,0 -5.5042,-2.8125 z m 543.93858,-10.50623 c 2.20503,-1.99553 2.28592,-15.53855 2.28592,-382.71408 0,-352.44035 -0.15329,-380.814716 -2.06874,-382.93126 -1.99196,-2.201097 -12.06573,-2.285926 -271.46407,-2.285926 -248.92109,0 -269.56909,0.157226 -271.68129,2.068735 -2.205,1.995527 -2.2859,15.538547 -2.2859,382.714081 0,352.44035 0.1533,380.81471 2.0687,382.93126 1.992,2.2011 12.0658,2.28592 271.46411,2.28592 248.92105,0 269.56907,-0.15722 271.68127,-2.06873 z m -62.57798,-54.64238 c -5.23705,-11.9413 -6.16634,-16.25462 -3.81505,-17.7078 2.26346,-1.3989 7.22416,0.5545 8.05488,3.17181 0.61215,1.92874 1.89223,2.4971 5.62407,2.4971 3.73184,0 5.01193,-0.56836 5.62408,-2.4971 0.83071,-2.61731 5.79141,-4.57071 8.05487,-3.17181 2.35129,1.45318 1.422,5.7665 -3.81505,17.7078 l -5.13609,11.71111 -4.72781,0 -4.72781,0 -5.13609,-11.71111 z m 16.1396,-30.93286 c -1.70461,-0.68071 -4.06784,-2.11416 -5.2516,-3.18546 -1.95957,-1.77339 -2.4527,-1.71153 -5.50677,0.69081 -7.72748,6.07842 -17.50182,1.61809 -20.39155,-9.30531 -2.19845,-8.31029 -0.21432,-12.27908 11.95466,-23.91238 5.97974,-5.71652 11.3311,-10.39369 11.89191,-10.39369 0.56081,0 3.72469,2.67188 7.03084,5.9375 3.30616,3.26563 8.05876,7.75113 10.56135,9.96779 5.70531,5.05345 7.61994,11.26223 5.75585,18.66518 -1.23334,4.898 -6.2492,11.67953 -8.63862,11.67953 -0.53751,0 -1.72643,0.24608 -2.64203,0.54684 -0.91562,0.30076 -3.05943,-0.01 -4.76404,-0.69081 z M -875.93002,448.29974 c -4.53585,-7.34032 -13.41615,-16.3626 -22.63813,-23.00003 -20.22011,-14.55327 -26.87284,-29.8074 -21.24576,-48.71474 2.53696,-8.52438 4.9356,-12.92326 9.21121,-16.89253 11.33026,-10.51842 22.72495,-9.41543 33.90131,3.28158 l 5.03168,5.71629 6.68306,-6.67073 c 8.57308,-8.55727 15.20591,-10.75471 23.54034,-7.79887 10.36426,3.67573 16.33384,11.85912 19.42366,26.62693 3.05049,14.57979 -2.52657,28.35678 -15.65595,38.67483 -13.26734,10.42646 -23.52971,20.37414 -28.06042,27.19994 -2.51527,3.78941 -5.09859,6.88983 -5.74072,6.88983 -0.64212,0 -2.64475,-2.39062 -4.45028,-5.3125 z M -1094.4301,144.25029 c -1.1215,-1.71157 -4.983,-5.43091 -8.5813,-8.26517 -8.3446,-6.57294 -11.334,-11.27356 -11.3332,-17.82054 0,-11.30689 8.3127,-19.990611 16.2464,-16.97425 1.947,0.74026 4.498,2.2129 5.6689,3.27254 1.9287,1.74544 2.4444,1.67847 5.4834,-0.712 7.7274,-6.078426 17.5018,-1.61809 20.3915,9.30531 2.1985,8.31029 0.2143,12.27908 -11.9546,23.91238 -5.9798,5.71652 -11.5495,10.39368 -12.3772,10.39368 -0.8277,0 -2.4224,-1.40037 -3.5439,-3.11195 z m -10.6801,-56.180585 c -1.1831,-1.425611 -0.5567,-3.920357 3.0601,-12.1875 6.311,-14.425341 7.4927,-16.019961 11.8715,-16.019961 4.3823,0 5.5583,1.589686 11.9023,16.089961 4.0801,9.325884 4.3734,10.670093 2.6939,12.349563 -2.4655,2.465489 -7.9165,1.133464 -8.9721,-2.192429 -0.6153,-1.938457 -1.8923,-2.497095 -5.7083,-2.497095 -2.7037,0 -4.9158,0.522321 -4.9158,1.160714 0,1.961394 -3.8021,5.089286 -6.1862,5.089286 -1.2417,0 -2.9271,-0.806637 -3.7454,-1.792539 z"
         id="path4028"
         inkscape:connector-curvature="0" />
      <path
         style="fill:#f2a9c6"
         d="m -1176.7254,834.15551 c -7.802,-4.23333 -7.2032,31.86901 -7.2032,-434.29327 0,-377.551674 0.2122,-425.534466 1.8962,-428.790912 4.1664,-8.056952 -20.7295,-7.459084 310.6038,-7.459084 331.33326,0 306.43743,-0.597868 310.60384,7.459084 1.68397,3.256446 1.89616,51.239238 1.89616,428.790912 0,377.55168 -0.21219,425.53448 -1.89616,428.79092 -4.16719,8.05846 20.77151,7.46406 -310.85426,7.40903 -264.35138,-0.0439 -302.04738,-0.27947 -305.04638,-1.90668 z m 608.35636,-1.63757 c 2.0265,-1.18887 4.65727,-3.81963 5.84614,-5.84613 2.03675,-3.47179 2.16685,-28.08965 2.25294,-426.30502 0.0816,-377.437801 -0.11363,-423.031376 -1.82609,-426.464077 -1.0546,-2.113994 -3.89925,-5.012915 -6.32145,-6.442047 l -4.404,-2.598422 -298.6071,0 -298.6071,0 -4.404,2.598422 c -2.4222,1.429132 -5.2668,4.328054 -6.3214,6.442047 -1.7125,3.432701 -1.9077,49.026276 -1.8261,426.464077 0.086,398.21537 0.2161,422.83323 2.2529,426.30502 1.1889,2.0265 3.8196,4.65726 5.8461,5.84613 3.4646,2.0325 21.5618,2.16158 303.0596,2.16158 281.4978,0 299.59503,-0.12908 303.05956,-2.16158 z m -575.60716,-40.4682 c -3.6299,-1.83042 -6.3406,-4.34017 -7.763,-7.1875 -2.0663,-4.13643 -2.1855,-25.13035 -2.1855,-385 0,-359.86964 0.1192,-380.863564 2.1855,-384.999996 1.4224,-2.84733 4.1331,-5.3570738 7.763,-7.1875 l 5.5773,-2.8125 266.9703,0 266.97028,0 5.57736,2.8125 c 3.62985,1.8304262 6.34052,4.34017 7.76292,7.1875 2.06638,4.136432 2.18555,25.130356 2.18555,384.999996 0,359.86965 -0.11912,380.86357 -2.18555,385 -1.4224,2.84733 -4.13307,5.35708 -7.76292,7.1875 l -5.57736,2.8125 -266.97028,0 -266.9703,0 -5.5773,-2.8125 z m 544.65454,-8.65538 2.89306,-2.7179 0,-380.63904 0,-380.639049 -2.71789,-2.893063 -2.7179,-2.893064 -269.38903,0 -269.38908,0 -2.893,2.717893 -2.8931,2.717892 0,380.639041 0,380.63905 2.7179,2.89306 2.7179,2.89306 269.38903,0 269.38905,0 2.89306,-2.71788 z m -61.63343,-54.40274 c -5.69373,-12.49408 -6.47335,-16.32416 -3.55103,-17.44556 1.56022,-0.59872 3.02378,0.14425 4.88684,2.48075 1.95114,2.44696 3.79997,3.33543 6.94068,3.33543 3.14071,0 4.98954,-0.88847 6.94068,-3.33543 1.86306,-2.3365 3.32662,-3.07947 4.88685,-2.48075 2.92231,1.1214 2.1427,4.95148 -3.55104,17.44556 -4.09946,8.9957 -4.63709,9.62062 -8.27649,9.62062 -3.6394,0 -4.17702,-0.62492 -8.27649,-9.62062 z m 9.52649,-2.87938 c 0,-0.6875 -0.5625,-1.25 -1.25,-1.25 -0.6875,0 -1.25,0.5625 -1.25,1.25 0,0.6875 0.5625,1.25 1.25,1.25 0.6875,0 1.25,-0.5625 1.25,-1.25 z m -16.25,-29.64528 c -3.82649,-1.37328 -7.26819,-5.68722 -8.74474,-10.9609 -2.36297,-8.43974 -0.38048,-12.37592 11.88889,-23.60498 l 10.61721,-9.71699 10.57642,9.62782 c 12.26293,11.16306 14.28747,15.19177 11.90696,23.69415 -2.90533,10.37678 -10.25293,13.98905 -17.89959,8.79988 -4.68959,-3.18245 -4.70934,-3.18438 -8.08561,-0.79745 -4.00515,2.83155 -7.66916,3.88812 -10.25954,2.95847 z M -874.79211,447.67474 c -5.23929,-8.29518 -11.5128,-14.70456 -22.27829,-22.76078 -14.53032,-10.87362 -18.78912,-16.02073 -22.02681,-26.62129 -2.49545,-8.17043 -2.51168,-8.74805 -0.49956,-17.79209 4.65797,-20.93671 19.04477,-31.59356 33.02382,-24.46197 4.39259,2.24092 9.77545,7.51931 13.58185,13.31822 1.52931,2.32986 1.59569,2.32733 3.125,-0.11962 3.54187,-5.667 11.91324,-12.64712 16.99326,-14.16913 4.21067,-1.26154 6.3203,-1.28375 9.95601,-0.10475 10.60062,3.43748 16.35813,10.98101 19.71021,25.82446 1.82435,8.07845 1.83051,9.502 0.0674,15.54612 -3.0539,10.46861 -7.92923,16.62681 -21.63887,27.33285 -8.35632,6.52555 -14.95936,12.94208 -19.23438,18.69113 -3.58039,4.8149 -6.982,8.75437 -7.55911,8.75437 -0.57713,0 -2.02634,-1.54688 -3.22046,-3.4375 z M -1101.6144,135.77098 c -11.916,-11.33507 -13.516,-14.73252 -10.9582,-23.26954 3.0011,-10.01678 10.2894,-13.428946 17.7988,-8.3329 l 4.7011,3.19024 3.6609,-2.7066 c 7.65,-5.655911 15.8334,-2.02205 18.7279,8.31625 2.3588,8.42484 0.3752,12.38076 -11.7915,23.5159 -5.786,5.29535 -10.7018,9.61498 -10.9241,9.59915 -0.2222,-0.0159 -5.269,-4.65644 -11.2149,-10.3125 z m -2.6961,-48.851019 c -0.3572,-0.930755 1.7223,-6.97763 4.6211,-13.4375 5.1528,-11.482882 5.3652,-11.745217 9.5108,-11.745217 4.1456,0 4.358,0.262335 9.5108,11.745217 2.8988,6.45987 4.9783,12.506745 4.6211,13.4375 -1.0514,2.739933 -5.1612,1.941208 -7.3718,-1.432717 -1.5848,-2.418638 -3.1128,-3.125 -6.7601,-3.125 -3.6473,0 -5.1753,0.706362 -6.7601,3.125 -2.2106,3.373925 -6.3204,4.17265 -7.3718,1.432717 z m 15.3819,-13.307717 c 0,-0.6875 -0.5625,-1.25 -1.25,-1.25 -0.6875,0 -1.25,0.5625 -1.25,1.25 0,0.6875 0.5625,1.25 1.25,1.25 0.6875,0 1.25,-0.5625 1.25,-1.25 z"
         id="path4026"
         inkscape:connector-curvature="0" />
      <path
         style="fill:#ee8db4"
         d="m -1174.7467,835.15561 c -0.7938,-0.5051 135.6994,-0.91837 303.3181,-0.91837 167.6187,0 304.11186,0.41327 303.31814,0.91837 -0.79373,0.5051 -137.28689,0.91835 -303.31814,0.91835 -166.0313,0 -302.5244,-0.41325 -303.3181,-0.91835 z m -8.4232,-8.5206 c -1.0958,-2.85573 -0.899,-852.117187 0.1979,-853.840902 0.5051,-0.793724 0.9184,191.440652 0.9184,427.187502 0,235.74685 -0.08,428.63063 -0.1788,428.63063 -0.098,0 -0.5202,-0.88975 -0.9375,-1.97723 z m 622.3663,-426.77277 c 0,-235.6812 0.41326,-427.861856 0.91836,-427.068132 1.2008,1.886972 1.2008,852.249302 0,854.136272 -0.5051,0.79373 -0.91836,-191.38694 -0.91836,-427.06814 z m -583.9166,391.35243 c -2.1541,-1.31353 -4.826,-3.68659 -5.9375,-5.27346 -1.8505,-2.64199 -2.0209,-35.19912 -2.0209,-386.18853 l 0,-383.30329 2.6104,-3.318547 c 5.9356,-7.5459203 -14.9992,-7.018599 278.6396,-7.018599 293.63876,0 272.70401,-0.5273213 278.63963,7.018599 l 2.61037,3.318547 0,383.41285 0,383.41285 -2.61037,3.31855 c -5.93582,7.54618 15.02452,7.01903 -278.89005,7.01393 -262.72198,-0.005 -269.21778,-0.0615 -273.04118,-2.3929 z m 546.06944,-7.32465 2.84716,-2.84723 0,-381.18055 0,-381.180551 -2.84722,-2.847223 -2.84723,-2.847222 -269.93055,0 -269.9306,0 -2.8472,2.847194 -2.8472,2.847192 -0.2974,379.6528 c -0.2374,302.94883 0.02,380.2792 1.2746,382.75318 0.8646,1.7052 2.9672,3.8084 4.6724,4.67377 2.4687,1.25283 57.7891,1.51254 271.50324,1.27464 l 268.40282,-0.29878 2.84718,-2.84722 z m -57.55969,-46.88991 c -2.35314,-2.83537 -10.24914,-22.32645 -9.52155,-23.50372 1.29221,-2.09085 4.22728,-1.16237 6.29335,1.99085 1.58475,2.41864 3.11276,3.125 6.76005,3.125 3.64729,0 5.1753,-0.70636 6.76005,-3.125 2.06608,-3.15322 5.00114,-4.0817 6.29335,-1.99085 0.72759,1.17727 -7.16841,20.66835 -9.52155,23.50372 -0.73587,0.88667 -2.32521,1.61213 -3.53185,1.61213 -1.20664,0 -2.79597,-0.72546 -3.53185,-1.61213 z m 5.47416,-9.74678 c 1.28815,-2.08427 -1.60901,-4.47439 -3.3334,-2.75 -1.4424,1.4424 -0.53965,4.10891 1.39109,4.10891 0.60635,0 1.48039,-0.61151 1.94231,-1.35891 z m -19.29622,-33.17945 c -3.32554,-2.3293 -6.39609,-8.86231 -6.39609,-13.60856 0,-5.2235 2.98481,-9.4574 13.05231,-18.51444 l 9.48873,-8.53635 10.52257,9.55311 c 11.13537,10.10945 12.87569,13.37079 11.38243,21.33053 -0.43753,2.33226 -2.22939,5.94454 -3.98189,8.02727 -4.02357,4.78174 -8.86547,4.9706 -14.11824,0.55069 l -3.84591,-3.23612 -3.84591,3.23612 c -4.43299,3.73011 -8.12718,4.09109 -12.258,1.19775 z M -875.62952,445.17474 c -3.78864,-5.9549 -14.26663,-16.08986 -23.92408,-23.14085 -10.04627,-7.33487 -14.84386,-13.06395 -17.99686,-21.49108 -3.27115,-8.74295 -3.30208,-13.7731 -0.14973,-24.35808 3.07654,-10.33045 9.1683,-17.81246 16.90983,-20.76897 5.277,-2.01532 5.94142,-2.01727 11.13813,-0.0326 5.02263,1.91815 12.47908,8.71451 16.66113,15.18616 1.5341,2.37398 1.5909,2.37467 3.125,0.0375 6.26635,-9.54656 15.03455,-15.65797 22.5498,-15.71713 5.28701,-0.0416 13.0073,4.46906 16.9393,9.89703 4.5622,6.29794 8.20588,19.70772 7.37,27.12368 -1.01201,8.9785 -6.8144,18.90224 -14.67494,25.09834 -12.33341,9.72185 -24.11213,20.8599 -28.46427,26.916 -2.3468,3.26562 -4.76958,5.9375 -5.38396,5.9375 -0.61439,0 -2.45909,-2.10938 -4.09935,-4.6875 z M -1101.0826,135.13081 c -6.2441,-5.85812 -10.5915,-10.99614 -11.0751,-13.08928 -2.0012,-8.66209 4.0139,-19.67929 10.7443,-19.67929 1.9879,0 5.231,1.42038 7.3889,3.23612 l 3.8459,3.23612 3.8459,-3.23612 c 5.0056,-4.21189 9.2212,-4.11133 13.6583,0.32581 3.8901,3.89004 5.7583,10.71196 4.414,16.11736 -0.7226,2.90531 -19.8781,22.78313 -21.9182,22.74464 -0.3438,-0.006 -5.2506,-4.3514 -10.904,-9.65536 z m -2.3907,-50.662525 c 0.3995,-1.591677 2.66,-7.137136 5.0234,-12.323244 6.5347,-14.339346 10.0079,-14.339346 16.5426,0 5.959,13.076313 6.4012,15.217203 3.143,15.217203 -1.4337,0 -3.5281,-1.40625 -4.6542,-3.125 -1.5848,-2.418638 -3.1128,-3.125 -6.7601,-3.125 -3.6473,0 -5.1753,0.706362 -6.7601,3.125 -2.7268,4.161702 -7.564,4.33273 -6.5346,0.231041 z m 15.0134,-9.353224 c 0.339,-0.54845 0.091,-1.814075 -0.5512,-2.8125 -1.0207,-1.587089 -1.3143,-1.587089 -2.335,0 -1.2396,1.927407 -0.6628,3.809683 1.1675,3.809683 0.6064,0 1.3798,-0.448733 1.7187,-0.997183 z m -86.2868,-110.546176 c 1.8868,-1.20074 604.74936,-1.20074 606.63624,0 0.79372,0.505097 -135.69944,0.918359 -303.31814,0.918359 -167.6187,0 -304.1119,-0.413262 -303.3181,-0.918359 z"
         id="path4024"
         inkscape:connector-curvature="0" />
      <path
         style="fill:#e85c94"
         d="m -1174.7467,835.15561 c -0.7938,-0.5051 135.6994,-0.91837 303.3181,-0.91837 167.6187,0 304.11186,0.41327 303.31814,0.91837 -0.79373,0.5051 -137.28689,0.91835 -303.31814,0.91835 -166.0313,0 -302.5244,-0.41325 -303.3181,-0.91835 z m -8.4232,-8.5206 c -1.0958,-2.85573 -0.899,-852.117187 0.1979,-853.840902 0.5051,-0.793724 0.9184,191.440652 0.9184,427.187502 0,235.74685 -0.08,428.63063 -0.1788,428.63063 -0.098,0 -0.5202,-0.88975 -0.9375,-1.97723 z m 622.3663,-426.77277 c 0,-235.6812 0.41326,-427.861856 0.91836,-427.068132 1.2008,1.886972 1.2008,852.249302 0,854.136272 -0.5051,0.79373 -0.91836,-191.38694 -0.91836,-427.06814 z m -580.047,392.42034 c -2.0883,-0.60731 -5.4633,-2.84351 -7.5,-4.96935 l -3.703,-3.86515 0,-383.58584 0,-383.58584 3.6789,-3.839988 c 2.0235,-2.111994 5.6797,-4.395793 8.125,-5.075108 6.1027,-1.6953137 531.53953,-1.6953137 537.64216,0 2.44533,0.679315 6.10158,2.963114 8.125,5.075108 l 3.67894,3.839988 0,383.58584 0,383.58584 -3.67894,3.84 c -2.02342,2.11199 -5.67967,4.39579 -8.125,5.0751 -5.66737,1.5744 -532.82346,1.49546 -538.24306,-0.0806 z m 542.60381,-7.98852 3.06819,-3.06818 0,-381.36364 0,-381.363632 -3.06819,-3.068183 -3.06817,-3.068181 -270.11364,0 -270.1136,0 -3.0682,3.068181 -3.0682,3.068183 0,381.363632 0,381.36364 3.0682,3.06818 3.0682,3.06818 270.1136,0 270.11364,0 3.06817,-3.06818 z m -57.83953,-48.43399 c -1.83352,-2.2645 -9.09228,-19.63145 -9.09228,-21.75371 0,-0.95927 0.52233,-1.74412 1.16071,-1.74412 1.50332,0 5.08929,3.58598 5.08929,5.08929 0,0.63839 2.7746,1.16071 6.16576,1.16071 4.96842,0 6.31274,-0.46306 6.92259,-2.38452 0.7611,-2.398 4.21014,-4.48366 5.41769,-3.27611 0.86405,0.86406 -1.74556,8.44502 -5.82119,16.91063 -3.39926,7.06074 -7.13751,9.33873 -9.84257,5.99783 z m 5.68216,-9.53324 c 0.30022,-2.04034 -0.2431,-2.71459 -2.1875,-2.71459 -1.67522,0 -2.58694,0.80767 -2.58694,2.29167 0,4.75203 4.0842,5.11381 4.77444,0.42292 z m 5.22556,-31.09422 c -1.03125,-0.37524 -3.42187,-2.12358 -5.3125,-3.88518 l -3.4375,-3.20291 -3.5059,3.35886 c -6.82547,6.53921 -15.00191,3.54255 -17.70289,-6.48811 -1.9376,-7.19568 0.88038,-13.4356 8.79249,-19.46945 3.43138,-2.6168 7.61545,-6.51299 9.29793,-8.6582 l 3.05906,-3.90038 3.66509,4.4381 c 2.0158,2.44097 5.93995,6.01459 8.72035,7.94142 9.01005,6.24396 11.57721,13.8306 7.78,22.99193 -1.35425,3.26735 -7.1782,8.1629 -9.10655,7.65487 -0.20602,-0.0543 -1.21833,-0.4057 -2.24958,-0.78095 z M -876.25627,443.29974 c -4.53824,-6.51997 -12.29515,-13.96222 -21.51772,-20.64486 -10.03126,-7.26861 -14.88327,-12.50274 -18.20755,-19.64145 -9.58673,-20.58695 5.66948,-51.24037 23.70689,-47.6329 6.11474,1.22295 12.88811,6.38013 16.52074,12.57873 1.82207,3.10913 3.74035,5.65298 4.26282,5.65298 0.52248,0 2.49324,-2.44152 4.37945,-5.4256 12.1311,-19.19191 34.49426,-14.93513 41.18769,7.83998 5.30146,18.03879 0.54032,31.07421 -15.94208,43.6475 -11.04167,8.42292 -19.06551,16.05104 -24.105,22.9162 -2.43127,3.31206 -4.90806,6.02192 -5.50398,6.02192 -0.59591,0 -2.74749,-2.39062 -4.78126,-5.3125 z M -1093.1644,141.77433 c -1.1128,-1.69836 -5.0161,-5.34759 -8.6741,-8.10941 -3.658,-2.76181 -7.4248,-6.46735 -8.3705,-8.23453 -3.684,-6.88365 -0.9805,-18.08478 5.1273,-21.24325 4.0717,-2.10555 6.715,-1.42148 11.4656,2.9672 l 3.4375,3.17563 3.5059,-3.35886 c 6.8255,-6.53922 15.0019,-3.54255 17.7029,6.48811 1.9752,7.33525 -0.8224,13.28295 -9.3984,19.98086 -3.7892,2.95938 -7.7801,6.74 -8.8687,8.40141 -2.4869,3.79557 -3.4033,3.78519 -5.9275,-0.0671 z m -9.1223,-57.934242 c 0.3875,-1.937187 2.5672,-7.421561 4.8438,-12.1875 3.4899,-7.305881 4.6296,-8.665344 7.2643,-8.665344 2.6347,0 3.7744,1.359463 7.2643,8.665344 4.6205,9.672662 6.2471,15.709656 4.2327,15.709656 -0.7236,0 -2.4217,-1.40625 -3.7737,-3.125 -1.9269,-2.449681 -3.5959,-3.125 -7.7233,-3.125 -4.1274,0 -5.7964,0.675319 -7.7233,3.125 -3.2903,4.182965 -5.265,4.004105 -4.3848,-0.397156 z m 14.3825,-10.540344 c -0.2197,-1.546875 -1.2432,-2.8125 -2.2744,-2.8125 -1.0313,0 -2.0547,1.265625 -2.2744,2.8125 -0.3075,2.164619 0.2165,2.8125 2.2744,2.8125 2.0579,0 2.5819,-0.647881 2.2744,-2.8125 z m -86.8425,-108.730859 c 1.8868,-1.20074 604.74936,-1.20074 606.63624,0 0.79372,0.505097 -135.69944,0.918359 -303.31814,0.918359 -167.6187,0 -304.1119,-0.413262 -303.3181,-0.918359 z"
         id="path4022"
         inkscape:connector-curvature="0" />
      <path
         style="fill:#e01b6a"
         d="m -1022.3661,835.17479 c 83.01563,-0.17742 218.85938,-0.17742 301.875,0 83.01563,0.17743 15.09375,0.32259 -150.9375,0.32259 -166.0313,0 -233.9531,-0.14516 -150.9375,-0.32259 z m -160.9447,-435.31255 c 0,-234.09375 0.1438,-329.859371 0.3197,-212.8125 0.1758,117.04688 0.1758,308.57813 0,425.625 -0.1759,117.04688 -0.3197,21.28125 -0.3197,-212.8125 z m 623.74997,0 c 0,-234.09375 0.14387,-329.859371 0.31971,-212.8125 0.17583,117.04688 0.17583,308.57813 0,425.625 -0.17584,117.04688 -0.31971,21.28125 -0.31971,-212.8125 z m -582.49277,390.75144 c -2.0625,-0.91292 -4.875,-2.92076 -6.25,-4.46186 -2.487,-2.78746 -2.5015,-4.78129 -2.7974,-384.85828 -0.2348,-301.680308 0.028,-382.688375 1.25,-385.060797 0.8511,-1.652476 3.1355,-4.183726 5.0766,-5.625 l 3.5291,-2.620499 269.8167,0 269.81668,0 3.52916,2.620499 c 1.94104,1.441273 4.224,3.972523 5.07324,5.625 2.26183,4.401153 2.26183,762.857847 0,767.258997 -0.84924,1.65248 -3.13217,4.18373 -5.07317,5.625 l -3.52907,2.6205 -268.34593,0.26815 c -220.80001,0.22065 -269.01031,-0.0259 -272.09591,-1.39171 z m 543.9928,-5.01821 3.5072,-3.01676 0,-382.71647 0,-382.716455 -3.5072,-3.016771 -3.50721,-3.01677 -269.86059,0 -269.8606,0 -3.5072,3.01677 -3.5072,3.016771 0,382.716455 0,382.71647 3.5072,3.01676 3.5072,3.01677 269.8606,0 269.86059,0 3.50721,-3.01677 z m -60.9324,-57.75221 c -2.04052,-4.54795 -4.0231,-9.75108 -4.40572,-11.5625 l -0.69569,-3.29352 2.94246,3.4375 c 2.38716,2.78878 3.98629,3.4375 8.47355,3.4375 4.48726,0 6.08639,-0.64872 8.47355,-3.4375 l 2.94246,-3.4375 -0.69569,3.29352 c -0.38262,1.81142 -2.3652,7.01455 -4.40572,11.5625 -5.05325,11.26276 -7.57595,11.26276 -12.6292,0 z m 8.86688,0.67131 c 1.81906,-3.39895 0.67683,-6.15233 -2.55228,-6.15233 -1.41815,0 -2.88537,0.7998 -3.26049,1.77733 -0.78226,2.03854 1.52499,6.97267 3.26049,6.97267 0.63913,0 1.78765,-1.16895 2.55228,-2.59767 z m -18.41759,-35.15798 c -3.66068,-1.7526 -7.0287,-10.37716 -6.0629,-15.52533 0.55845,-2.97677 3.34952,-6.3623 10.73116,-13.01675 l 9.97641,-8.9936 5.92282,5.18371 c 12.37688,10.83239 13.93568,12.61371 14.72643,16.82879 1.13159,6.03187 -3.11231,15.40083 -7.4718,16.495 -3.4557,0.86732 -9.04552,-1.93989 -10.28272,-5.164 -1.0317,-2.68857 -3.94734,-2.18302 -7.04655,1.22182 -3.37639,3.70935 -6.87858,4.70076 -10.49285,2.97036 z m -206.461,-250.05685 c -3.21344,-5.1595 -13.88724,-15.41102 -22.30201,-21.41973 -16.36274,-11.68409 -23.24199,-24.97655 -20.31529,-39.25433 2.6961,-13.15276 7.27631,-20.61362 15.19404,-24.75004 8.49371,-4.43732 20.48011,0.69973 26.02615,11.1541 1.70177,3.20788 3.79116,5.8325 4.6431,5.8325 0.85192,0 2.90998,-2.15601 4.57347,-4.79112 6.4599,-10.23315 15.68823,-15.08349 24.2908,-12.76705 14.19746,3.82297 22.65315,28.2265 15.39045,44.4176 -3.45005,7.69137 -5.80955,10.27712 -17.6744,19.36905 -9.54244,7.31229 -19.03021,16.72165 -23.0554,22.86487 -2.86135,4.36697 -3.69276,4.28643 -6.77091,-0.65585 z M -1096.4286,137.28273 c -12.4969,-11.14616 -13.6464,-12.47189 -14.4286,-16.64165 -1.1316,-6.03187 3.1123,-15.40084 7.4718,-16.495 3.4557,-0.86732 9.0455,1.93989 10.2827,5.164 1.0053,2.61985 4.5703,2.20643 6.4126,-0.74369 4.2504,-6.80585 12.6242,-5.24292 15.9102,2.96953 3.3583,8.39335 1.8678,11.91977 -9.2901,21.97839 -5.3981,4.86636 -10.0215,8.83387 -10.2742,8.81668 -0.2527,-0.0172 -2.9907,-2.28891 -6.0844,-5.04826 z m -4.955,-52.576931 c -0.025,-1.117296 1.9095,-6.320421 4.2984,-11.5625 3.3558,-7.363796 4.9263,-9.531055 6.9066,-9.531055 1.9803,0 3.5508,2.167259 6.9066,9.531055 5.0959,11.18229 5.6854,15.342782 1.439,10.156445 -2.2991,-2.808051 -3.8273,-3.4375 -8.3456,-3.4375 -4.5183,0 -6.0465,0.629449 -8.3456,3.4375 -2.0489,2.502469 -2.8267,2.884929 -2.8594,1.406055 z m 14.955,-9.604642 c 0,-1.243599 -0.8438,-3.352974 -1.875,-4.6875 -1.856,-2.401884 -1.894,-2.401884 -3.75,0 -3.1681,4.099791 -2.3994,6.948587 1.875,6.948587 2.7846,0 3.75,-0.582101 3.75,-2.261087 z m 64.0625,-111.176366 c 83.01563,-0.177422 218.85938,-0.177422 301.875,0 83.01563,0.177422 15.09375,0.322585 -150.9375,0.322585 -166.0313,0 -233.9531,-0.145163 -150.9375,-0.322585 z"
         id="path4020"
         inkscape:connector-curvature="0" />
      <path
         style="fill:#dd0159"
         d="m -1022.3661,835.17479 c 83.01563,-0.17742 218.85938,-0.17742 301.875,0 83.01563,0.17743 15.09375,0.32259 -150.9375,0.32259 -166.0313,0 -233.9531,-0.14516 -150.9375,-0.32259 z m -160.9447,-435.31255 c 0,-234.09375 0.1438,-329.859371 0.3197,-212.8125 0.1758,117.04688 0.1758,308.57813 0,425.625 -0.1759,117.04688 -0.3197,21.28125 -0.3197,-212.8125 z m 623.74997,0 c 0,-234.09375 0.14387,-329.859371 0.31971,-212.8125 0.17583,117.04688 0.17583,308.57813 0,425.625 -0.17584,117.04688 -0.31971,21.28125 -0.31971,-212.8125 z m -445.93027,390.31257 c 73.73438,-0.1781 194.39063,-0.1781 268.125,0 73.73438,0.1781 13.40625,0.32381 -134.0625,0.32381 -147.4687,0 -207.7969,-0.14571 -134.0625,-0.32381 z m 350.3125,-56.2947 c 0,-0.54019 1.125,-0.98215 2.5,-0.98215 1.375,0 2.5,0.44196 2.5,0.98215 0,0.54017 -1.125,0.98213 -2.5,0.98213 -1.375,0 -2.5,-0.44196 -2.5,-0.98213 z m -4.27131,-10.1001 c -0.53847,-0.87125 -0.64145,-1.92167 -0.22886,-2.33427 1.11871,-1.1187 2.33846,0.52663 1.73423,2.33932 -0.4234,1.27021 -0.71783,1.26922 -1.50537,-0.005 z m 11.77131,-0.71899 c 0,-1.07183 0.5625,-1.94878 1.25,-1.94878 0.6875,0 1.25,0.5293 1.25,1.17623 0,0.64692 -0.5625,1.52387 -1.25,1.94877 -0.6875,0.4249 -1.25,-0.10437 -1.25,-1.17622 z m -20.88017,-31.33044 c -3.39493,-2.37789 -5.80353,-9.54811 -4.77714,-14.2212 0.5124,-2.33294 4.06084,-6.53372 10.11191,-11.97091 l 9.3225,-8.37671 9.32793,8.34845 c 10.09571,9.03561 12.00768,13.10508 9.3909,19.98776 -3.51233,9.23811 -8.23227,10.34656 -14.59158,3.42677 l -4.30784,-4.6875 -3.36075,3.94719 c -4.15747,4.88294 -7.62713,5.9898 -11.11593,3.54615 z M -876.90431,438.67312 c -3.1867,-4.05616 -10.99269,-11.28366 -17.34665,-16.06111 -14.04764,-10.56223 -16.2889,-12.92284 -19.79515,-20.84929 -6.96081,-15.73608 0.62886,-39.33176 13.93344,-43.31791 9.29343,-2.78438 18.61913,2.75472 25.18843,14.96093 2.69633,5.00997 4.31793,4.98965 6.99128,-0.0876 3.39052,-6.43929 10.54013,-13.07215 15.59505,-14.46789 10.42322,-2.87799 20.46904,4.18788 24.19981,17.02128 5.08266,17.48376 0.88405,29.8948 -13.93661,41.19635 -11.6225,8.8628 -20.55675,17.25996 -25.21555,23.69972 l -3.82005,5.28035 -5.794,-7.37484 z M -1100.1786,132.44047 c -9.0196,-8.26053 -9.375,-8.8003 -9.375,-14.24044 0,-3.79096 0.8652,-6.81754 2.6254,-9.18362 3.9382,-5.2939 7.3507,-5.17418 12.5087,0.43887 l 4.3944,4.78196 3.3607,-3.90101 c 6.0793,-7.05649 11.4139,-6.44314 14.8178,1.7037 3.1584,7.55906 1.5048,11.4241 -8.8795,20.75496 -5.0911,4.57455 -9.4412,8.29805 -9.667,8.27445 -0.2258,-0.0236 -4.6293,-3.90658 -9.7855,-8.62887 z m 2.5,-55.004455 c 0,-0.646926 0.5625,-1.523872 1.25,-1.948771 0.6875,-0.424899 1.25,0.1044 1.25,1.176229 0,1.071824 -0.5625,1.948771 -1.25,1.948771 -0.6875,0 -1.25,-0.529302 -1.25,-1.176229 z m 12.5,-0.772542 c 0,-1.071824 0.5625,-1.601128 1.25,-1.176229 0.6875,0.424899 1.25,1.301845 1.25,1.948771 0,0.646927 -0.5625,1.176229 -1.25,1.176229 -0.6875,0 -1.25,-0.876947 -1.25,-1.948771 z m -7.5,-10.551229 c 0,-0.6875 1.125,-1.25 2.5,-1.25 1.375,0 2.5,0.5625 2.5,1.25 0,0.6875 -1.125,1.25 -2.5,1.25 -1.375,0 -2.5,-0.5625 -2.5,-1.25 z m 87.1875,-57.18744 c 73.73438,-0.1781 194.39063,-0.1781 268.125,0 73.73438,0.1780987 13.40625,0.3238175 -134.0625,0.3238175 -147.4687,0 -207.7969,-0.1457188 -134.0625,-0.3238175 z m -16.875,-45.000013 c 83.01563,-0.177422 218.85938,-0.177422 301.875,0 83.01563,0.177422 15.09375,0.322585 -150.9375,0.322585 -166.0313,0 -233.9531,-0.145163 -150.9375,-0.322585 z"
         id="path4018"
         inkscape:connector-curvature="0" />
      <path
         style="fill:#111111"
         d="m -1022.3661,835.17479 c 83.01563,-0.17742 218.85938,-0.17742 301.875,0 83.01563,0.17743 15.09375,0.32259 -150.9375,0.32259 -166.0313,0 -233.9531,-0.14516 -150.9375,-0.32259 z m -160.9447,-435.31255 c 0,-234.09375 0.1438,-329.859371 0.3197,-212.8125 0.1758,117.04688 0.1758,308.57813 0,425.625 -0.1759,117.04688 -0.3197,21.28125 -0.3197,-212.8125 z m 623.74997,0 c 0,-234.09375 0.14387,-329.859371 0.31971,-212.8125 0.17583,117.04688 0.17583,308.57813 0,425.625 -0.17584,117.04688 -0.31971,21.28125 -0.31971,-212.8125 z M -1022.3661,-36.075209 c 83.01563,-0.177422 218.85938,-0.177422 301.875,0 83.01563,0.177422 15.09375,0.322585 -150.9375,0.322585 -166.0313,0 -233.9531,-0.145163 -150.9375,-0.322585 z"
         id="path4016"
         inkscape:connector-curvature="0" />
    </g>
  </g>
</svg>
