<?xml version="1.0" encoding="UTF-8" standalone="no"?>
<!-- Created with Inkscape (http://www.inkscape.org/) -->

<svg
   xmlns:dc="http://purl.org/dc/elements/1.1/"
   xmlns:cc="http://creativecommons.org/ns#"
   xmlns:rdf="http://www.w3.org/1999/02/22-rdf-syntax-ns#"
   xmlns:svg="http://www.w3.org/2000/svg"
   xmlns="http://www.w3.org/2000/svg"
   xmlns:sodipodi="http://sodipodi.sourceforge.net/DTD/sodipodi-0.dtd"
   xmlns:inkscape="http://www.inkscape.org/namespaces/inkscape"
   width="176.4539mm"
   height="246.27022mm"
   viewBox="0 0 625.23036 872.611"
   id="svg2"
   version="1.1"
   inkscape:version="0.91 r13725"
   sodipodi:docname="J.svg">
  <defs
     id="defs4">
    <pattern
       y="0"
       x="0"
       height="6"
       width="6"
       patternUnits="userSpaceOnUse"
       id="EMFhbasepattern" />
    <pattern
       y="0"
       x="0"
       height="6"
       width="6"
       patternUnits="userSpaceOnUse"
       id="EMFhbasepattern-1" />
    <pattern
       y="0"
       x="0"
       height="6"
       width="6"
       patternUnits="userSpaceOnUse"
       id="EMFhbasepattern-14" />
    <pattern
       y="0"
       x="0"
       height="6"
       width="6"
       patternUnits="userSpaceOnUse"
       id="EMFhbasepattern-4" />
    <pattern
       y="0"
       x="0"
       height="6"
       width="6"
       patternUnits="userSpaceOnUse"
       id="EMFhbasepattern-9" />
    <pattern
       y="0"
       x="0"
       height="6"
       width="6"
       patternUnits="userSpaceOnUse"
       id="EMFhbasepattern-8" />
    <pattern
       y="0"
       x="0"
       height="6"
       width="6"
       patternUnits="userSpaceOnUse"
       id="EMFhbasepattern-6" />
    <pattern
       y="0"
       x="0"
       height="6"
       width="6"
       patternUnits="userSpaceOnUse"
       id="EMFhbasepattern-13" />
  </defs>
  <sodipodi:namedview
     id="base"
     pagecolor="#ffffff"
     bordercolor="#666666"
     borderopacity="1.0"
     inkscape:pageopacity="0.0"
     inkscape:pageshadow="2"
     inkscape:zoom="0.24748737"
     inkscape:cx="588.11944"
     inkscape:cy="-230.9181"
     inkscape:document-units="px"
     inkscape:current-layer="layer1"
     showgrid="false"
     fit-margin-top="0"
     fit-margin-left="0"
     fit-margin-right="0"
     fit-margin-bottom="0"
     inkscape:window-width="784"
     inkscape:window-height="822"
     inkscape:window-x="800"
     inkscape:window-y="0"
     inkscape:window-maximized="0" />
  <metadata
     id="metadata7">
    <rdf:RDF>
      <cc:Work
         rdf:about="">
        <dc:format>image/svg+xml</dc:format>
        <dc:type
           rdf:resource="http://purl.org/dc/dcmitype/StillImage" />
        <dc:title></dc:title>
      </cc:Work>
    </rdf:RDF>
  </metadata>
  <g
     inkscape:label="Calque 1"
     inkscape:groupmode="layer"
     id="layer1"
     transform="translate(540.3464,1414.1369)">
    <g
       transform="translate(1486.0194,-2206.8818)"
       id="g4086">
      <path
         style="fill:#fdfdfd"
         d="m -2026.2522,1229.1059 0,-436.25 312.5,0 312.5,0 0,436.25 0,436.25 -312.5,0 -312.5,0 0,-436.25 z"
         id="path4102"
         inkscape:connector-curvature="0" />
      <path
         style="fill:#f8dce8"
         d="m -2020.127,1663.7976 c -1.8959,-0.7539 -3.8487,-2.9486 -4.6875,-5.2682 -2.0668,-5.7156 -2.07,-853.12235 0,-858.83783 0.9685,-2.67839 2.7229,-4.43273 5.4013,-5.40125 5.6984,-2.06059 605.6302,-2.06059 611.3286,0 2.6784,0.96852 4.4328,2.72286 5.4013,5.40125 2.0638,5.70731 2.0638,853.12133 0,858.82863 -0.9685,2.6784 -2.7229,4.4328 -5.4013,5.4013 -5.3415,1.9315 -607.1766,1.8097 -612.0391,-0.1239 z m 609.3031,-3.5795 c 1.6753,-0.7633 3.6705,-2.7586 4.4339,-4.4338 1.0084,-2.2132 1.3878,-118.8691 1.3878,-426.6784 0,-307.80929 -0.3794,-424.46515 -1.3878,-426.67834 -0.7633,-1.67529 -2.7586,-3.67051 -4.4339,-4.43382 -4.3418,-1.97828 -601.5148,-1.97828 -605.8566,0 -1.6753,0.76331 -3.6705,2.75853 -4.4339,4.43382 -1.9852,4.35702 -1.9804,849.01004 0,853.36714 0.7659,1.681 2.5941,3.6382 4.0625,4.3492 3.9091,1.8928 602.0711,1.966 606.2232,0.074 z m -575.4028,-37.6747 c -3.0273,-1.5469 -6.6621,-4.4006 -8.0773,-6.3417 l -2.5732,-3.5291 0,-383.5667 0,-383.56667 2.5732,-3.52917 c 1.4152,-1.94104 5.05,-4.79478 8.0773,-6.34166 l 5.5042,-2.8125 266.9703,0 266.9703,0 5.5042,2.8125 c 3.0273,1.54688 6.6621,4.40062 8.0773,6.34166 l 2.5732,3.52917 0,383.56667 0,383.5667 -2.5732,3.5291 c -1.4152,1.9411 -5.05,4.7948 -8.0773,6.3417 l -5.5042,2.8125 -266.9703,0 -266.9703,0 -5.5042,-2.8125 z m 543.9386,-10.5062 c 2.205,-1.9956 2.2859,-15.5386 2.2859,-382.7141 0,-352.44036 -0.1533,-380.81473 -2.0687,-382.93127 -1.992,-2.2011 -12.0658,-2.28593 -271.4641,-2.28593 -248.9211,0 -269.5691,0.15723 -271.6813,2.06874 -2.205,1.99552 -2.2859,15.53854 -2.2859,382.71406 0,352.4404 0.1533,380.8147 2.0687,382.9313 1.992,2.2011 12.0658,2.2859 271.4641,2.2859 248.9211,0 269.5691,-0.1572 271.6813,-2.0687 z m -61.8808,-43.7646 c -0.4583,-0.4584 -0.8333,-5.7521 -0.8333,-11.7639 0,-10.6711 0.091,-11.0074 3.8459,-14.1667 2.9688,-2.498 5.2146,-3.2361 9.8469,-3.2361 6.6093,0 9.4935,2.1184 8.2441,6.0551 -0.7853,2.474 -4.0914,3.8973 -9.1244,3.9278 -2.6228,0.016 -2.8125,0.5583 -2.8125,8.0399 0,4.4125 -0.3414,8.9125 -0.7587,10 -0.7538,1.9642 -6.7692,2.7826 -8.408,1.1439 z m 15.4424,-41.8107 c -1.7046,-0.6807 -4.0678,-2.1141 -5.2516,-3.1854 -1.9596,-1.7734 -2.4527,-1.7116 -5.5068,0.6908 -7.7274,6.0784 -17.5018,1.6181 -20.3915,-9.3053 -2.1985,-8.3103 -0.2143,-12.2791 11.9546,-23.9124 5.9798,-5.7165 11.3311,-10.3937 11.892,-10.3937 0.5608,0 3.7246,2.6719 7.0308,5.9375 3.3061,3.2656 8.0588,7.7511 10.5613,9.9678 5.7054,5.0534 7.62,11.2622 5.7559,18.6652 -1.2333,4.898 -6.2492,11.6795 -8.6386,11.6795 -0.5375,0 -1.7265,0.2461 -2.6421,0.5468 -0.9156,0.3008 -3.0594,-0.01 -4.764,-0.6908 z m -252.8382,-211.1567 c -3.2626,-1.974 -3.0902,-13.1282 0.2303,-14.9053 1.3298,-0.7117 8.5551,-1.294 16.0563,-1.294 18.8157,0 17.7759,1.7397 17.7759,-29.7419 0,-24.4632 0.075,-25.2105 2.683,-26.606 3.3542,-1.7951 13.5049,-0.7603 14.9525,1.5243 0.5919,0.9342 1.0848,13.989 1.0954,29.0106 l 0.019,27.3119 -7.4273,7.6881 -7.4273,7.688 -17.8852,0.3239 c -10.9648,0.1986 -18.7316,-0.1882 -20.0727,-0.9996 z m -30.2425,-105.361 c -14.4226,-18.8091 -15.9245,-20.3716 -19.1292,-19.9013 -2.2818,0.3349 -4.6764,-0.4325 -6.9636,-2.2316 -4.6299,-3.6419 -4.3414,-10.382 0.6015,-14.0565 4.9153,-3.654 9.2548,-2.276 13.9014,4.4145 1.13,1.627 5.1574,2.692 15.7012,4.152 7.7997,1.0801 14.3662,1.7788 14.5923,1.5527 0.226,-0.2261 1.2819,-5.4007 2.3464,-11.4991 1.8682,-10.7031 1.8498,-11.197 -0.5298,-14.2221 -5.0893,-6.4701 -1.4628,-15.2969 6.2848,-15.2969 4.9736,0 8.75,3.9269 8.75,9.0986 0,4.0781 3.8194,8.4881 19.6449,22.682 l 4.0199,3.6055 11.7937,-10.8258 c 10.6725,-9.7967 11.782,-11.2355 11.6715,-15.1352 -0.162,-5.712 3.2611,-9.4251 8.6887,-9.4251 8.1729,0 12.2692,9.4121 6.5747,15.1066 -2.5575,2.5575 -2.5702,2.8195 -0.6722,13.9111 1.0639,6.2175 2.1737,11.5438 2.4661,11.8363 0.2925,0.2925 6.6059,-0.3148 14.0297,-1.3494 12.556,-1.7499 13.7061,-2.1471 16.4811,-5.6929 5.4751,-6.9958 16.5519,-3.8369 16.5519,4.7204 0,4.6697 -4.6558,8.9679 -9.7141,8.9679 -3.6091,0 -5.1572,1.6232 -19.0744,20 -8.3306,11 -15.5268,19.9961 -15.9915,19.9913 -0.4648,0 -4.9567,-1.4042 -9.982,-3.1097 -22.3376,-7.5811 -46.98,-7.3989 -67.738,0.5008 -3.7813,1.439 -7.2752,2.6166 -7.7643,2.617 -0.4891,3e-4 -7.9324,-9.1847 -16.5407,-20.4111 z m -164.9465,-236.45025 c -1.1215,-1.71158 -4.983,-5.43091 -8.5813,-8.26517 -8.3446,-6.57294 -11.334,-11.27357 -11.3332,-17.82054 0,-11.30689 8.3127,-19.99061 16.2464,-16.97425 1.947,0.74026 4.498,2.2129 5.6689,3.27254 1.9287,1.74543 2.4444,1.67847 5.4834,-0.712 7.7274,-6.07843 17.5018,-1.61809 20.3915,9.30531 2.1985,8.31029 0.2143,12.27907 -11.9546,23.91237 -5.9798,5.71653 -11.5495,10.39369 -12.3772,10.39369 -0.8277,0 -2.4224,-1.40037 -3.5439,-3.11195 z m -6.9487,-56.203 c -2.9603,-3.56704 -1.0279,-6.26825 4.9614,-6.93505 l 5.6138,-0.625 0.7065,-9.08148 c 0.7751,-9.96401 1.8939,-11.96548 6.3368,-11.33685 2.8351,0.40113 2.9715,0.89416 3.3162,11.99061 0.3388,10.90419 0.1797,11.75213 -2.7556,14.6875 -2.5544,2.55437 -4.3357,3.11522 -9.894,3.11522 -4.401,0 -7.3072,-0.63664 -8.2851,-1.81495 z"
         id="path4100"
         inkscape:connector-curvature="0" />
      <path
         style="fill:#f2a9c6"
         d="m -2019.049,1663.3992 c -7.802,-4.2334 -7.2032,31.869 -7.2032,-434.2933 0,-377.55168 0.2122,-425.53447 1.8962,-428.79092 4.1664,-8.05695 -20.7295,-7.45908 310.6038,-7.45908 331.3333,0 306.4374,-0.59787 310.6038,7.45908 1.684,3.25645 1.8962,51.23924 1.8962,428.79092 0,377.5517 -0.2122,425.5345 -1.8962,428.7909 -4.1671,8.0585 20.7716,7.4641 -310.8542,7.4091 -264.3514,-0.044 -302.0474,-0.2795 -305.0464,-1.9067 z m 608.3564,-1.6376 c 2.0265,-1.1889 4.6572,-3.8196 5.8461,-5.8461 2.0368,-3.4718 2.1668,-28.0897 2.2529,-426.305 0.082,-377.43786 -0.1136,-423.03143 -1.826,-426.46413 -1.0546,-2.11399 -3.8993,-5.01292 -6.3215,-6.44205 l -4.404,-2.59842 -298.6071,0 -298.6071,0 -4.404,2.59842 c -2.4222,1.42913 -5.2668,4.32806 -6.3214,6.44205 -1.7125,3.4327 -1.9077,49.02627 -1.8261,426.46413 0.086,398.2153 0.2161,422.8332 2.2529,426.305 1.1889,2.0265 3.8196,4.6572 5.8461,5.8461 3.4646,2.0325 21.5618,2.1616 303.0596,2.1616 281.4978,0 299.595,-0.1291 303.0596,-2.1616 z m -575.6072,-40.4682 c -3.6299,-1.8304 -6.3406,-4.3402 -7.763,-7.1875 -2.0663,-4.1364 -2.1855,-25.1303 -2.1855,-385 0,-359.86964 0.1192,-380.86357 2.1855,-385 1.4224,-2.84733 4.1331,-5.35707 7.763,-7.1875 l 5.5773,-2.8125 266.9703,0 266.9703,0 5.5773,2.8125 c 3.6299,1.83043 6.3406,4.34017 7.763,7.1875 2.0663,4.13643 2.1855,25.13036 2.1855,385 0,359.8697 -0.1191,380.8636 -2.1855,385 -1.4224,2.8473 -4.1331,5.3571 -7.763,7.1875 l -5.5773,2.8125 -266.9703,0 -266.9703,0 -5.5773,-2.8125 z m 544.6545,-8.6554 2.8931,-2.7179 0,-380.639 0,-380.63907 -2.7179,-2.89307 -2.7179,-2.89306 -269.389,0 -269.3891,0 -2.893,2.71789 -2.8931,2.7179 0,380.63901 0,380.6391 2.7179,2.893 2.7179,2.8931 269.389,0 269.3891,0 2.893,-2.7179 z m -61.2208,-45.5627 c -0.4874,-0.4873 -0.8861,-5.5327 -0.8861,-11.212 0,-9.6665 0.2103,-10.4914 3.2936,-12.9167 4.0851,-3.2134 13.1044,-3.5496 15.5687,-0.5804 1.4175,1.708 1.3106,2.2718 -0.7109,3.75 -1.3086,0.9568 -4.2168,1.7397 -6.4627,1.7397 l -4.0835,0 -0.3651,9.6875 c -0.3263,8.6578 -0.6363,9.7263 -2.9165,10.0527 -1.4033,0.2009 -2.9502,-0.034 -3.4375,-0.5208 z m -7.1361,-41.3647 c -3.8265,-1.3733 -7.2682,-5.6872 -8.7447,-10.9609 -2.363,-8.4397 -0.3805,-12.3759 11.8889,-23.605 l 10.6172,-9.7169 10.5764,9.6278 c 12.2629,11.163 14.2875,15.1917 11.9069,23.6941 -2.9053,10.3768 -10.2529,13.9891 -17.8995,8.7999 -4.6896,-3.1824 -4.7094,-3.1844 -8.0857,-0.7974 -4.0051,2.8315 -7.6691,3.8881 -10.2595,2.9584 z m -230.9375,-211.1826 c -2.4138,-0.9739 -2.0586,-12.4643 0.4147,-13.4134 1.0875,-0.4173 8.0207,-0.7587 15.4071,-0.7587 19.5552,0 18.8657,1.1288 18.8657,-30.8843 0,-27.8359 -0.3944,-26.6157 8.6022,-26.6157 2.5563,0 5.3228,0.675 6.1478,1.5 1.0758,1.0758 1.5,9.278 1.5,29.0012 l 0,27.5011 -7.454,7.2489 -7.4541,7.2488 -17.2334,-0.099 c -9.4784,-0.054 -17.9366,-0.3824 -18.796,-0.7292 z m -16.588,-88.1079 c -1.4091,-1.6165 -8.5975,-10.8142 -15.9741,-20.4392 -12.175,-15.8859 -13.7337,-17.4621 -16.9003,-17.089 -5.1337,0.6049 -9.6001,-2.7983 -9.6001,-7.3148 0,-4.2962 3.8342,-8.7212 7.5568,-8.7212 2.5565,0 8.6932,5.1314 8.6932,7.269 0,1.438 30.1706,5.5653 31.4186,4.2981 0.5102,-0.5182 1.7815,-6.2669 2.825,-12.775 1.833,-11.431 1.8144,-11.9102 -0.5481,-14.1111 -2.4387,-2.2721 -3.2309,-7.8224 -1.4889,-10.4314 2.0431,-3.0597 6.4278,-4.3984 9.3559,-2.8565 3.8241,2.0139 4.646,3.5081 4.6684,8.4875 0.017,3.7075 1.3327,5.4786 10.2174,13.75 15.0013,13.9659 14.0422,13.5341 19.5263,8.7919 15.8338,-13.6919 19.5182,-17.9546 19.7766,-22.8801 0.4185,-7.9805 6.4825,-11.4531 12.1774,-6.9736 4.0699,3.2015 4.3468,8.0535 0.6822,11.9544 -2.6019,2.7696 -2.6113,2.9722 -0.6636,14.3544 1.0866,6.3498 2.4544,12.024 3.0395,12.6091 1.3237,1.3237 29.4849,-2.4754 30.0494,-4.0538 0.2261,-0.6322 1.3851,-2.3523 2.5755,-3.8224 4.3586,-5.3826 13.8884,-1.856 13.8884,5.1395 0,4.3351 -3.2448,7.1984 -8.7428,7.7148 -4.0201,0.3776 -5.5123,1.9198 -18.75,19.3789 -7.9102,10.4327 -15.0634,19.2661 -15.896,19.6296 -0.8326,0.3635 -5.4874,-0.6906 -10.3438,-2.3424 -19.4027,-6.5993 -41.7571,-7.1404 -60.705,-1.4695 -5.4656,1.6358 -10.9135,3.3945 -12.1066,3.9081 -1.5035,0.6473 -2.9555,0.032 -4.7313,-2.0053 z M -1943.938,965.01464 c -11.916,-11.33508 -13.516,-14.73253 -10.9582,-23.26954 3.0011,-10.01679 10.2894,-13.42895 17.7988,-8.3329 l 4.7011,3.19024 3.6609,-2.7066 c 7.65,-5.65591 15.8334,-2.02205 18.7279,8.31625 2.3588,8.42484 0.3752,12.38076 -11.7915,23.5159 -5.786,5.29535 -10.7018,9.61497 -10.9241,9.59915 -0.2222,-0.0159 -5.269,-4.65644 -11.2149,-10.3125 z m 0.6608,-48.97388 c -1.0769,-2.8063 0.5743,-4.43486 4.4965,-4.43486 6.9134,0 7.5285,-0.81545 7.5285,-9.98068 0,-8.84645 1.785,-12.29083 5.6091,-10.8234 1.4791,0.56761 1.8909,3.00035 1.8909,11.17196 0,9.30322 -0.3166,10.74375 -2.8931,13.16423 -3.5341,3.32013 -15.4559,3.96723 -16.6319,0.90275 z"
         id="path4098"
         inkscape:connector-curvature="0" />
      <path
         style="fill:#ee8eb4"
         d="m -2017.0703,1664.3993 c -0.7938,-0.5051 135.6994,-0.9184 303.3181,-0.9184 167.6187,0 304.1119,0.4133 303.3181,0.9184 -0.7937,0.5051 -137.2869,0.9183 -303.3181,0.9183 -166.0313,0 -302.5244,-0.4132 -303.3181,-0.9183 z m -8.4232,-8.5206 c -1.0958,-2.8558 -0.899,-852.11722 0.1979,-853.84094 0.5051,-0.79372 0.9184,191.44065 0.9184,427.18754 0,235.7468 -0.08,428.6306 -0.1788,428.6306 -0.098,0 -0.5202,-0.8897 -0.9375,-1.9772 z m 622.3663,-426.7728 c 0,-235.6812 0.4133,-427.86186 0.9184,-427.06814 1.2008,1.88698 1.2008,852.24934 0,854.13624 -0.5051,0.7938 -0.9184,-191.3869 -0.9184,-427.0681 z m -583.9166,391.3524 c -2.1541,-1.3135 -4.826,-3.6866 -5.9375,-5.2734 -1.8505,-2.642 -2.0209,-35.1991 -2.0209,-386.1886 l 0,-383.30325 2.6104,-3.31855 c 5.9356,-7.54592 -14.9992,-7.0186 278.6396,-7.0186 293.6388,0 272.704,-0.52732 278.6396,7.0186 l 2.6104,3.31855 0,383.41285 0,383.4129 -2.6104,3.3185 c -5.9358,7.5462 15.0246,7.019 -278.89,7.0139 -262.722,-0.01 -269.2178,-0.062 -273.0412,-2.3929 z m 546.0694,-7.3246 2.8472,-2.8472 0,-381.1806 0,-381.18056 -2.8472,-2.84722 -2.8472,-2.84722 -269.9306,0 -269.9306,0 -2.8472,2.84719 -2.8472,2.8472 -0.2974,379.65281 c -0.2374,302.9488 0.02,380.2792 1.2746,382.7532 0.8646,1.7052 2.9672,3.8084 4.6724,4.6737 2.4687,1.2529 57.7891,1.5126 271.5032,1.2747 l 268.4029,-0.2988 2.8471,-2.8472 z m -61.4432,-47.6197 c -0.734,-1.3716 -1.3346,-5.8299 -1.3346,-9.9073 0,-10.7148 2.8298,-14.0008 12.0574,-14.0008 5.8731,0 6.8154,0.319 6.4614,2.1875 -0.2878,1.5185 -1.816,2.3044 -4.9966,2.5698 -2.52,0.2102 -5.1589,1.0774 -5.864,1.9271 -0.7052,0.8497 -1.4511,5.414 -1.6577,10.1431 -0.3889,8.9059 -2.21,11.6694 -4.6659,7.0806 z m -10.3718,-42.6157 c -4.3483,-3.4204 -6.4196,-9.0907 -5.5874,-15.2955 0.6105,-4.5517 2.0054,-6.4331 11.0989,-14.9698 5.7204,-5.37 10.5996,-9.7668 10.8426,-9.7704 0.2431,0 5.1499,4.2675 10.904,9.4915 7.9305,7.1998 10.6506,10.5034 11.2414,13.6523 1.0755,5.7331 -0.3495,11.2265 -4.0543,15.6294 -3.9656,4.7129 -8.8371,4.8805 -14.0621,0.484 l -3.8459,-3.2361 -3.8459,3.2361 c -4.5972,3.8683 -8.4619,4.1053 -12.6913,0.7785 z m -229.1995,-211.9174 c -0.4314,-1.7187 -0.4314,-4.5312 0,-6.25 0.779,-3.1036 0.8813,-3.125 14.9669,-3.125 12.4555,0 14.5837,-0.3155 17.4762,-2.5907 l 3.2936,-2.5907 0.019,-24.5968 c 0.01,-13.5282 0.4868,-25.3343 1.0585,-26.2356 0.6879,-1.0848 3.1114,-1.5074 7.1683,-1.25 l 6.1291,0.3888 0.3355,28.2345 0.3354,28.2345 -6.8231,6.453 -6.8232,6.453 -18.176,0 -18.176,0 -0.7843,-3.125 z m -29.1474,-103.125 c -15.1263,-19.8521 -15.2752,-20 -20.1486,-20 -3.9153,0 -5.3435,-0.6621 -7.0516,-3.269 -1.9183,-2.9277 -1.9499,-3.613 -0.3023,-6.5625 1.265,-2.2647 3.0597,-3.4131 5.7457,-3.6764 3.1901,-0.3128 4.4926,0.3858 7.1046,3.8103 3.0515,4.0007 3.7598,4.2627 15.4298,5.7075 16.3795,2.0277 18.8052,1.9414 19.5818,-0.6974 0.3541,-1.2031 1.3239,-6.768 2.1551,-12.3664 1.444,-9.7257 1.3912,-10.3315 -1.1846,-13.6061 -3.3596,-4.271 -3.4169,-7.3689 -0.1958,-10.59 3.2217,-3.2217 6.8246,-3.1754 10.1302,0.1302 1.9169,1.9169 2.4387,3.5879 1.9239,6.1616 -0.6205,3.1029 0.3117,4.5085 7.6823,11.5835 4.6137,4.4287 10.5103,9.8813 13.1036,12.117 l 4.7149,4.0649 12.1601,-11.2261 c 11.1751,-10.3168 12.2106,-11.6674 12.785,-16.676 0.4828,-4.2098 1.3626,-5.8621 3.8665,-7.2614 3.8791,-2.168 6.5295,-1.3591 9.2745,2.8303 2.1042,3.2114 1.2981,6.5155 -2.5213,10.3349 -1.1473,1.1473 -1.0312,4.1412 0.5099,13.1508 1.0975,6.4159 2.3828,12.259 2.8563,12.9846 0.5966,0.9142 5.3116,0.7223 15.3563,-0.625 13.9028,-1.8648 14.6249,-2.1103 17.6672,-6.0068 3.8137,-4.8847 7.7047,-5.2336 11.6407,-1.0438 1.9744,2.1017 2.5814,3.8204 1.9981,5.6583 -1.0984,3.4607 -5.7697,6.446 -9.435,6.0295 -2.4329,-0.2764 -5.3902,2.888 -17.7971,19.0435 -8.1837,10.6563 -15.3594,19.551 -15.9461,19.7661 -0.5866,0.2151 -5.6166,-1.0462 -11.1776,-2.8029 -20.5324,-6.4862 -43.3055,-6.5323 -62.9267,-0.1273 -5.3311,1.7402 -10.1582,3.1641 -10.7269,3.1641 -0.5687,0 -7.8915,-9 -16.2729,-20 z m -172.2699,-243.48144 c -6.2441,-5.85811 -10.5915,-10.99613 -11.0751,-13.08927 -2.0012,-8.66209 4.0139,-19.67929 10.7443,-19.67929 1.9879,0 5.231,1.42038 7.3889,3.23611 l 3.8459,3.23613 3.8459,-3.23613 c 4.5972,-3.86826 8.4619,-4.10532 12.6913,-0.77847 4.3483,3.42035 6.4196,9.09062 5.5874,15.29548 -0.6105,4.55167 -2.0054,6.43304 -11.0989,14.96974 -5.7204,5.37009 -10.682,9.74703 -11.0257,9.72654 -0.3438,-0.0205 -5.2506,-4.37687 -10.904,-9.68084 z m 1.136,-49.95606 c 0.2992,-1.57584 1.9851,-2.36226 6.0292,-2.8125 l 5.6138,-0.625 0.625,-9.375 c 0.5556,-8.33333 0.9028,-9.375 3.125,-9.375 2.2523,0 2.5361,0.95472 2.8641,9.63585 0.47,12.43518 -1.3598,14.73915 -11.7058,14.73915 -5.9598,0 -6.9066,-0.31615 -6.5513,-2.1875 z m -74.8001,-120.60586 c 1.8868,-1.20074 604.7494,-1.20074 606.6362,0 0.7938,0.5051 -135.6994,0.91836 -303.3181,0.91836 -167.6187,0 -304.1119,-0.41326 -303.3181,-0.91836 z"
         id="path4096"
         inkscape:connector-curvature="0" />
      <path
         style="fill:#e85c94"
         d="m -2017.0703,1664.3993 c -0.7938,-0.5051 135.6994,-0.9184 303.3181,-0.9184 167.6187,0 304.1119,0.4133 303.3181,0.9184 -0.7937,0.5051 -137.2869,0.9183 -303.3181,0.9183 -166.0313,0 -302.5244,-0.4132 -303.3181,-0.9183 z m -8.4232,-8.5206 c -1.0958,-2.8558 -0.899,-852.11722 0.1979,-853.84094 0.5051,-0.79372 0.9184,191.44065 0.9184,427.18754 0,235.7468 -0.08,428.6306 -0.1788,428.6306 -0.098,0 -0.5202,-0.8897 -0.9375,-1.9772 z m 622.3663,-426.7728 c 0,-235.6812 0.4133,-427.86186 0.9184,-427.06814 1.2008,1.88698 1.2008,852.24934 0,854.13624 -0.5051,0.7938 -0.9184,-191.3869 -0.9184,-427.0681 z m -580.047,392.4203 c -2.0883,-0.6073 -5.4633,-2.8435 -7.5,-4.9693 l -3.703,-3.8652 0,-383.5858 0,-383.58584 3.6789,-3.83999 c 2.0235,-2.112 5.6797,-4.3958 8.125,-5.07511 6.1027,-1.69531 531.5395,-1.69531 537.6422,0 2.4453,0.67931 6.1015,2.96311 8.125,5.07511 l 3.6789,3.83999 0,383.58584 0,383.5858 -3.6789,3.84 c -2.0235,2.112 -5.6797,4.3958 -8.125,5.0751 -5.6674,1.5744 -532.8235,1.4955 -538.2431,-0.081 z m 542.6038,-7.9885 3.0682,-3.0682 0,-381.3636 0,-381.36364 -3.0682,-3.06818 -3.0682,-3.06818 -270.1136,0 -270.1136,0 -3.0682,3.06818 -3.0682,3.06818 0,381.36364 0,381.3636 3.0682,3.0682 3.0682,3.0682 270.1136,0 270.1136,0 3.0682,-3.0682 z m -61.0724,-47.7391 c -0.4727,-0.4726 -0.8594,-4.9844 -0.8594,-10.026 0,-11.3856 2.0713,-14.1667 10.5512,-14.1667 8.9508,0 8.4861,4.3524 -0.5562,5.2104 l -4.37,0.4146 -0.625,9.2767 c -0.5727,8.4998 -1.9165,11.5152 -4.1406,9.291 z m 14.1406,-41.3223 c -1.0313,-0.3753 -3.4219,-2.1236 -5.3125,-3.8852 l -3.4375,-3.2029 -3.5059,3.3588 c -6.8255,6.5393 -15.0019,3.5426 -17.7029,-6.4881 -1.9376,-7.1956 0.8804,-13.4356 8.7925,-19.4694 3.4314,-2.6168 7.6154,-6.513 9.2979,-8.6582 l 3.0591,-3.9004 3.6651,4.4381 c 2.0158,2.441 5.9399,6.0146 8.7203,7.9414 9.0101,6.244 11.5772,13.8306 7.78,22.992 -1.3542,3.2673 -7.1782,8.1629 -9.1065,7.6548 -0.206,-0.054 -1.2184,-0.4057 -2.2496,-0.7809 z m -252.9167,-211.2037 c -1.7389,-1.7389 -0.8579,-10.1398 1.1439,-10.908 1.0875,-0.4173 7.8631,-0.7587 15.0568,-0.7587 12.2203,0 13.2812,-0.2016 16.1478,-3.0682 3.0524,-3.0524 3.0682,-3.1964 3.0682,-27.9912 0,-27.1669 -0.202,-26.4406 7.3522,-26.4406 6.1695,0 6.3978,1.0486 6.3978,29.3861 0,29.1555 0.4743,27.3134 -9.1385,35.4954 l -6.0136,5.1185 -16.5906,0 c -9.1248,0 -16.9656,-0.375 -17.424,-0.8333 z m -16.7658,-88.3367 c -1.3289,-1.4878 -8.5019,-10.7457 -15.9398,-20.5733 -12.9403,-17.0977 -13.6805,-17.8339 -17.1596,-17.0698 -7.0142,1.5406 -11.3016,-6.4852 -6.0185,-11.2663 3.2866,-2.9743 8.1947,-1.6534 10.3092,2.7745 1.4273,2.9887 2.762,3.6193 10.3771,4.9023 4.8065,0.8099 12.3869,1.6536 16.8454,1.875 l 8.1063,0.4026 2.2727,-12.9737 c 2.2632,-12.9197 2.262,-12.985 -0.2938,-15.7055 -4.8098,-5.1198 -2.705,-11.9458 3.6835,-11.9458 4.4719,0 6.25,2.1766 6.25,7.6505 0,4.2758 0.9651,5.54 11.9756,15.6875 6.5865,6.0704 12.7752,11.2191 13.7525,11.4417 0.9774,0.2225 7.4437,-4.837 14.3696,-11.2434 11.0022,-10.1771 12.5101,-12.06 11.9399,-14.9105 -1.3055,-6.5276 6.9367,-11.6515 11.4624,-7.1258 2.3253,2.3253 1.7745,7.4217 -1.137,10.5208 -2.6172,2.7859 -2.6214,2.8987 -0.5508,15.0806 1.1473,6.7505 2.5624,12.7552 3.1446,13.3437 0.5865,0.593 7.6547,0.1633 15.8521,-0.9637 13.8405,-1.9028 14.9815,-2.2738 17.708,-5.7576 4.8347,-6.1776 12.7331,-4.3292 12.7331,2.9797 0,3.1363 -3.7047,5.7965 -8.0723,5.7965 -3.8861,0 -5.0932,1.2487 -19.4146,20.0843 -11.6506,15.323 -15.7589,19.8956 -17.3295,19.2886 -25.9336,-10.024 -50.6896,-10.7012 -75.3792,-2.062 l -7.0707,2.474 -2.4162,-2.7049 z M -1935.488,971.01799 c -1.1128,-1.69836 -5.0161,-5.34759 -8.6741,-8.10941 -3.658,-2.76182 -7.4248,-6.46735 -8.3705,-8.23453 -3.684,-6.88365 -0.9805,-18.08479 5.1273,-21.24325 4.0717,-2.10555 6.715,-1.42149 11.4656,2.9672 l 3.4375,3.17563 3.5059,-3.35887 c 6.8255,-6.53921 15.0019,-3.54255 17.7029,6.48812 1.9752,7.33525 -0.8224,13.28295 -9.3984,19.98086 -3.7892,2.95937 -7.7801,6.74 -8.8687,8.40141 -2.4869,3.79556 -3.4033,3.78519 -5.9275,-0.0671 z m -6.1469,-55.21144 c -1.5635,-1.56352 0.5903,-2.95065 4.5815,-2.95065 5.7449,0 7.0485,-1.94754 7.0703,-10.5625 0.02,-7.98836 1.2883,-11.57209 3.5911,-10.14887 0.8296,0.51268 1.3898,4.83169 1.3898,10.71426 0,8.76722 -0.3067,10.07019 -2.7781,11.80123 -2.7354,1.91596 -12.2941,2.70698 -13.8546,1.14653 z m -75.4354,-121.99401 c 1.8868,-1.20074 604.7494,-1.20074 606.6362,0 0.7938,0.5051 -135.6994,0.91836 -303.3181,0.91836 -167.6187,0 -304.1119,-0.41326 -303.3181,-0.91836 z"
         id="path4094"
         inkscape:connector-curvature="0" />
      <path
         style="fill:#e01b6a"
         d="m -1864.6897,1664.4185 c 83.0156,-0.1775 218.8594,-0.1775 301.875,0 83.0156,0.1774 15.0937,0.3225 -150.9375,0.3225 -166.0313,0 -233.9531,-0.1451 -150.9375,-0.3225 z m -160.9447,-435.3126 c 0,-234.09375 0.1438,-329.85937 0.3197,-212.8125 0.1758,117.0469 0.1758,308.5781 0,425.625 -0.1759,117.0469 -0.3197,21.2813 -0.3197,-212.8125 z m 623.75,0 c 0,-234.09375 0.1438,-329.85937 0.3197,-212.8125 0.1758,117.0469 0.1758,308.5781 0,425.625 -0.1759,117.0469 -0.3197,21.2813 -0.3197,-212.8125 z m -582.4928,390.7514 c -2.0625,-0.9129 -4.875,-2.9207 -6.25,-4.4618 -2.487,-2.7875 -2.5015,-4.7813 -2.7974,-384.8583 -0.2348,-301.68031 0.028,-382.68838 1.25,-385.0608 0.8511,-1.65248 3.1355,-4.18373 5.0766,-5.625 l 3.5291,-2.6205 269.8167,0 269.8167,0 3.5291,2.6205 c 1.9411,1.44127 4.224,3.97252 5.0733,5.625 2.2618,4.40115 2.2618,762.8579 0,767.259 -0.8493,1.6525 -3.1322,4.1837 -5.0732,5.625 l -3.5291,2.6205 -268.3459,0.2681 c -220.8,0.2207 -269.0103,-0.026 -272.0959,-1.3917 z m 543.9928,-5.0182 3.5072,-3.0167 0,-382.7165 0,-382.71646 -3.5072,-3.01677 -3.5072,-3.01677 -269.8606,0 -269.8606,0 -3.5072,3.01677 -3.5072,3.01677 0,382.71646 0,382.7165 3.5072,3.0167 3.5072,3.0168 269.8606,0 269.8606,0 3.5072,-3.0168 z m -60.8678,-58.7689 c 0,-11.2346 1.4289,-13.2143 9.5381,-13.2143 3.4213,0 5.3081,0.4876 4.8369,1.25 -0.4249,0.6875 -2.5956,1.25 -4.8238,1.25 -5.8924,0 -7.0512,1.89 -7.0512,11.5 0,4.8333 -0.5392,8.5 -1.25,8.5 -0.7211,0 -1.25,-3.9286 -1.25,-9.2857 z m -9.6153,-33.4699 c -3.6607,-1.7526 -7.0287,-10.3772 -6.0629,-15.5254 0.5584,-2.9767 3.3495,-6.3623 10.7312,-13.0167 l 9.9764,-8.9936 5.9228,5.1837 c 12.3769,10.8324 13.9357,12.6137 14.7264,16.8288 1.1316,6.0318 -3.1123,15.4008 -7.4718,16.495 -3.4557,0.8673 -9.0455,-1.9399 -10.2827,-5.164 -1.0317,-2.6886 -3.9473,-2.183 -7.0466,1.2218 -3.3763,3.7093 -6.8785,4.7007 -10.4928,2.9704 z m -228.8977,-214.4319 0.388,-4.6875 14.6583,-0.625 c 21.1161,-0.9003 20.1728,0.5211 20.9667,-31.5939 l 0.625,-25.2811 5,0 5,0 0.3369,27.1822 0.3368,27.1823 -6.5868,6.2308 -6.5869,6.2308 -17.263,0.024 -17.2629,0.024 0.3879,-4.6875 z m -30.8152,-102.1507 c -15.1358,-19.8146 -15.8666,-20.5603 -19.4462,-19.8444 -4.4387,0.8877 -7.4756,-1.2217 -7.4756,-5.1924 0,-6.6139 7.8189,-7.2142 11.3816,-0.8739 1.9255,3.4268 2.6535,3.6573 18.0322,5.7081 13.0561,1.7411 16.2996,1.8387 17.5043,0.5265 0.8133,-0.8859 2.3753,-7.1861 3.4711,-14.0005 l 1.9925,-12.3899 -3.0659,-3.6435 c -3.713,-4.4128 -3.769,-5.2486 -0.5658,-8.4518 3.128,-3.128 4.3677,-3.1323 7.474,-0.026 1.7817,1.7817 2.2739,3.4741 1.7591,6.0483 -0.6506,3.2528 0.4268,4.6323 11.9798,15.3385 6.9821,6.4703 13.5163,11.9487 14.5205,12.1741 1.0043,0.2254 7.7294,-5.0569 14.9449,-11.7386 12.5312,-11.6041 13.0845,-12.3317 12.3512,-16.2405 -0.6466,-3.4471 -0.2695,-4.4185 2.3926,-6.1628 2.4711,-1.6191 3.7237,-1.7691 5.7441,-0.6878 3.0327,1.6231 3.6106,8.4793 0.8054,9.5557 -0.978,0.3754 -2.106,1.5364 -2.5065,2.5801 -1.0373,2.7032 2.9906,25.7104 4.8437,27.6671 1.2719,1.343 4.1906,1.2683 16.4314,-0.4203 14.2283,-1.9628 15.0576,-2.2415 18.8034,-6.3206 2.1552,-2.3469 4.3016,-4.2672 4.7697,-4.2672 2.5809,0 5.6867,2.9596 5.6867,5.419 0,3.9399 -2.2964,5.831 -7.0808,5.831 -3.803,0 -5.121,1.3647 -19.3577,20.0445 -11.211,14.7098 -15.7971,19.8427 -17.2316,19.2864 -24.5483,-9.5191 -53.3889,-10.1896 -75.5752,-1.757 -3.5088,1.3337 -6.4869,2.4251 -6.6179,2.4255 -0.131,3e-4 -7.3153,-9.2641 -15.965,-20.5876 z m -168.1718,-239.49131 c -12.4969,-11.14617 -13.6464,-12.47189 -14.4286,-16.64165 -1.1316,-6.03188 3.1123,-15.40084 7.4718,-16.495 3.4557,-0.86733 9.0455,1.93989 10.2827,5.164 1.0053,2.61985 4.5703,2.20642 6.4126,-0.74369 4.2504,-6.80585 12.6242,-5.24292 15.9102,2.96953 3.3583,8.39335 1.8678,11.91977 -9.2901,21.97838 -5.3981,4.86636 -10.0215,8.83388 -10.2742,8.81669 -0.2527,-0.0172 -2.9907,-2.28891 -6.0844,-5.04826 z m 3.0725,-52.58055 c 2.7212,-0.63741 5.3845,-1.84654 5.9184,-2.68694 0.534,-0.8404 0.9794,-5.01043 0.99,-9.26673 0.011,-4.2563 0.5816,-8.08637 1.2691,-8.51127 1.8592,-1.14904 1.618,18.507 -0.25,20.375 -0.825,0.825 -4.0594,1.4435 -7.1875,1.37444 l -5.6875,-0.12557 4.9475,-1.15893 z m 70.99,-120.77739 c 83.0156,-0.17742 218.8594,-0.17742 301.875,0 83.0156,0.17742 15.0937,0.32258 -150.9375,0.32258 -166.0313,0 -233.9531,-0.14516 -150.9375,-0.32258 z"
         id="path4092"
         inkscape:connector-curvature="0" />
      <path
         style="fill:#dd0159"
         d="m -1864.6897,1664.4185 c 83.0156,-0.1775 218.8594,-0.1775 301.875,0 83.0156,0.1774 15.0937,0.3225 -150.9375,0.3225 -166.0313,0 -233.9531,-0.1451 -150.9375,-0.3225 z m -160.9447,-435.3126 c 0,-234.09375 0.1438,-329.85937 0.3197,-212.8125 0.1758,117.0469 0.1758,308.5781 0,425.625 -0.1759,117.0469 -0.3197,21.2813 -0.3197,-212.8125 z m 623.75,0 c 0,-234.09375 0.1438,-329.85937 0.3197,-212.8125 0.1758,117.0469 0.1758,308.5781 0,425.625 -0.1759,117.0469 -0.3197,21.2813 -0.3197,-212.8125 z m -445.9303,390.3126 c 73.7344,-0.1781 194.3906,-0.1781 268.125,0 73.7344,0.1781 13.4062,0.3238 -134.0625,0.3238 -147.4688,0 -207.7969,-0.1457 -134.0625,-0.3238 z m 336.9323,-98.4443 c -3.3949,-2.3778 -5.8035,-9.5481 -4.7771,-14.2212 0.5124,-2.3329 4.0608,-6.5337 10.1119,-11.9709 l 9.3225,-8.3767 9.3279,8.3485 c 10.0957,9.0356 12.0077,13.1051 9.3909,19.9877 -3.5123,9.2381 -8.2322,10.3466 -14.5915,3.4268 l -4.3079,-4.6875 -3.3607,3.9472 c -4.1575,4.8829 -7.6272,5.9898 -11.116,3.5461 z m -227.8698,-213.1183 0,-3.75 14.2455,0 14.2455,0 3.8795,-4.4185 3.8795,-4.4185 0,-24.3315 0,-24.3315 4.375,0 4.375,0 0,26.704 0,26.7039 -6.1964,5.7961 -6.1965,5.796 -16.3035,0 -16.3036,0 0,-3.75 z m -30.4263,-101.9713 c -8.1407,-10.7073 -14.5012,-19.7679 -14.1344,-20.1347 0.3668,-0.3668 7.7891,0.2922 16.494,1.4644 10.8424,1.4601 16.2319,1.7265 17.1125,0.8458 0.707,-0.707 2.0343,-5.6828 2.9496,-11.0573 0.9153,-5.3745 1.9824,-11.5531 2.3714,-13.73 0.5552,-3.1068 0.027,-4.692 -2.4547,-7.37 -3.7025,-3.9951 -3.8195,-4.711 -1.1978,-7.3326 3.8395,-3.8395 7.3117,-1.2763 7.3682,5.4392 0.04,4.8011 0.6812,5.627 13.1482,16.9468 7.2081,6.5448 13.8899,11.8997 14.8485,11.8997 1.8797,0 7.1561,-4.4325 20.5914,-17.2981 7.4541,-7.138 8.4572,-8.6254 7.8534,-11.6442 -0.4452,-2.2261 -0.01,-4.1473 1.2312,-5.3843 2.3161,-2.3161 3.2747,-2.3935 5.2448,-0.4234 2.2057,2.2057 1.8365,4.8557 -1.1139,7.9963 -2.6026,2.7702 -2.6045,2.8416 -0.455,16.3305 1.1874,7.4515 2.8327,14.2784 3.6563,15.1709 1.226,1.3287 4.4226,1.2483 17.6424,-0.444 16.0816,-2.0586 19.2702,-3.099 19.2702,-6.2878 0,-0.9229 1.161,-2.2993 2.5799,-3.0587 3.2804,-1.7556 6.4542,0.5551 5.9179,4.3084 -0.2916,2.0412 -1.5016,2.7455 -5.5564,3.2344 -4.9253,0.5939 -5.7286,1.3413 -16.119,15 -6.0145,7.9063 -12.8135,16.7087 -15.109,19.5611 l -4.1736,5.186 -9.7074,-3.1024 c -14.7461,-4.7127 -29.2422,-6.1961 -43.2546,-4.4263 -9.9695,1.2592 -21.1881,4.0308 -28.3278,6.9987 -1.3497,0.561 -6.0216,-4.6745 -16.6763,-18.6884 z m -26.5937,-22.3307 c -2.3658,-6.1652 4.9076,-9.1583 7.8608,-3.2348 1.1962,2.3993 1.2044,3.3012 0.037,4.0433 -2.498,1.5878 -7.1614,1.1104 -7.8977,-0.8085 z m -146.73,-221.86978 c -9.0196,-8.26052 -9.375,-8.8003 -9.375,-14.24043 0,-3.79096 0.8652,-6.81754 2.6254,-9.18363 3.9382,-5.2939 7.3507,-5.17417 12.5087,0.43888 l 4.3944,4.78196 3.3607,-3.90101 c 6.0793,-7.05649 11.4139,-6.44314 14.8178,1.7037 3.1584,7.55906 1.5048,11.4241 -8.8795,20.75496 -5.0911,4.57455 -9.4412,8.29805 -9.667,8.27445 -0.2258,-0.0236 -4.6293,-3.90659 -9.7855,-8.62888 z m 94.6875,-123.51566 c 73.7344,-0.1781 194.3906,-0.1781 268.125,0 73.7344,0.1781 13.4062,0.32382 -134.0625,0.32382 -147.4688,0 -207.7969,-0.14572 -134.0625,-0.32382 z m -16.875,-45.00001 c 83.0156,-0.17742 218.8594,-0.17742 301.875,0 83.0156,0.17742 15.0937,0.32258 -150.9375,0.32258 -166.0313,0 -233.9531,-0.14516 -150.9375,-0.32258 z"
         id="path4090"
         inkscape:connector-curvature="0" />
      <path
         style="fill:#111111"
         d="m -1864.6897,1664.4185 c 83.0156,-0.1775 218.8594,-0.1775 301.875,0 83.0156,0.1774 15.0937,0.3225 -150.9375,0.3225 -166.0313,0 -233.9531,-0.1451 -150.9375,-0.3225 z m -160.9447,-435.3126 c 0,-234.09375 0.1438,-329.85937 0.3197,-212.8125 0.1758,117.0469 0.1758,308.5781 0,425.625 -0.1759,117.0469 -0.3197,21.2813 -0.3197,-212.8125 z m 623.75,0 c 0,-234.09375 0.1438,-329.85937 0.3197,-212.8125 0.1758,117.0469 0.1758,308.5781 0,425.625 -0.1759,117.0469 -0.3197,21.2813 -0.3197,-212.8125 z m -462.8053,-435.93745 c 83.0156,-0.17742 218.8594,-0.17742 301.875,0 83.0156,0.17742 15.0937,0.32258 -150.9375,0.32258 -166.0313,0 -233.9531,-0.14516 -150.9375,-0.32258 z"
         id="path4088"
         inkscape:connector-curvature="0" />
    </g>
  </g>
</svg>
