<?xml version="1.0" encoding="UTF-8" standalone="no"?>
<!-- Created with Inkscape (http://www.inkscape.org/) -->

<svg
   xmlns:dc="http://purl.org/dc/elements/1.1/"
   xmlns:cc="http://creativecommons.org/ns#"
   xmlns:rdf="http://www.w3.org/1999/02/22-rdf-syntax-ns#"
   xmlns:svg="http://www.w3.org/2000/svg"
   xmlns="http://www.w3.org/2000/svg"
   xmlns:sodipodi="http://sodipodi.sourceforge.net/DTD/sodipodi-0.dtd"
   xmlns:inkscape="http://www.inkscape.org/namespaces/inkscape"
   width="176.4539mm"
   height="246.27022mm"
   viewBox="0 0 625.23036 872.611"
   id="svg2"
   version="1.1"
   inkscape:version="0.91 r13725"
   sodipodi:docname="K.svg">
  <defs
     id="defs4">
    <pattern
       y="0"
       x="0"
       height="6"
       width="6"
       patternUnits="userSpaceOnUse"
       id="EMFhbasepattern" />
    <pattern
       y="0"
       x="0"
       height="6"
       width="6"
       patternUnits="userSpaceOnUse"
       id="EMFhbasepattern-1" />
    <pattern
       y="0"
       x="0"
       height="6"
       width="6"
       patternUnits="userSpaceOnUse"
       id="EMFhbasepattern-14" />
    <pattern
       y="0"
       x="0"
       height="6"
       width="6"
       patternUnits="userSpaceOnUse"
       id="EMFhbasepattern-4" />
    <pattern
       y="0"
       x="0"
       height="6"
       width="6"
       patternUnits="userSpaceOnUse"
       id="EMFhbasepattern-9" />
    <pattern
       y="0"
       x="0"
       height="6"
       width="6"
       patternUnits="userSpaceOnUse"
       id="EMFhbasepattern-8" />
  </defs>
  <sodipodi:namedview
     id="base"
     pagecolor="#ffffff"
     bordercolor="#666666"
     borderopacity="1.0"
     inkscape:pageopacity="0.0"
     inkscape:pageshadow="2"
     inkscape:zoom="0.24748737"
     inkscape:cx="15.105734"
     inkscape:cy="-210.32162"
     inkscape:document-units="px"
     inkscape:current-layer="layer1"
     showgrid="false"
     fit-margin-top="0"
     fit-margin-left="0"
     fit-margin-right="0"
     fit-margin-bottom="0"
     inkscape:window-width="784"
     inkscape:window-height="822"
     inkscape:window-x="800"
     inkscape:window-y="0"
     inkscape:window-maximized="0" />
  <metadata
     id="metadata7">
    <rdf:RDF>
      <cc:Work
         rdf:about="">
        <dc:format>image/svg+xml</dc:format>
        <dc:type
           rdf:resource="http://purl.org/dc/dcmitype/StillImage" />
        <dc:title></dc:title>
      </cc:Work>
    </rdf:RDF>
  </metadata>
  <g
     inkscape:label="Calque 1"
     inkscape:groupmode="layer"
     id="layer1"
     transform="translate(-32.6673,1393.5404)">
    <g
       transform="translate(2059.0331,-1313.7853)"
       id="g3996">
      <path
         style="fill:#fdfdfd"
         d="m -2026.2522,356.60587 0,-436.249997 312.5,0 312.5,0 0,436.249997 0,436.25 -312.5,0 -312.5,0 0,-436.25 z"
         id="path4012"
         inkscape:connector-curvature="0" />
      <path
         style="fill:#f8dce7"
         d="m -2020.127,791.29761 c -1.8959,-0.75392 -3.8487,-2.94867 -4.6875,-5.26826 -2.0668,-5.7156 -2.07,-853.122327 0,-858.837807 0.9685,-2.678387 2.7229,-4.43273 5.4013,-5.401247 5.6984,-2.060593 605.6302,-2.060593 611.3286,0 2.6784,0.968517 4.4328,2.72286 5.4013,5.401247 2.0638,5.707309 2.0638,853.121357 0,858.828657 -0.9685,2.67839 -2.7229,4.43274 -5.4013,5.40125 -5.3415,1.93154 -607.1766,1.80976 -612.0391,-0.12388 z m 609.3031,-3.57957 c 1.6753,-0.76332 3.6705,-2.75854 4.4339,-4.43382 1.0084,-2.2132 1.3878,-118.86906 1.3878,-426.67835 0,-307.809284 -0.3794,-424.465149 -1.3878,-426.678341 -0.7633,-1.675287 -2.7586,-3.670504 -4.4339,-4.433816 -4.3418,-1.978277 -601.5148,-1.978277 -605.8566,0 -1.6753,0.763312 -3.6705,2.758529 -4.4339,4.433816 -1.9852,4.357023 -1.9804,849.010011 0,853.367141 0.7659,1.68104 2.5941,3.63818 4.0625,4.34922 3.9091,1.89282 602.0711,1.96598 606.2232,0.0741 z m -575.4028,-37.67467 c -3.0273,-1.54687 -6.6621,-4.40062 -8.0773,-6.34166 l -2.5732,-3.52916 0,-383.56668 0,-383.566671 2.5732,-3.529163 c 1.4152,-1.941039 5.05,-4.794788 8.0773,-6.341663 l 5.5042,-2.8125 266.9703,0 266.9703,0 5.5042,2.8125 c 3.0273,1.546875 6.6621,4.400624 8.0773,6.341663 l 2.5732,3.529163 0,383.566671 0,383.56668 -2.5732,3.52916 c -1.4152,1.94104 -5.05,4.79479 -8.0773,6.34166 l -5.5042,2.8125 -266.9703,0 -266.9703,0 -5.5042,-2.8125 z m 543.9386,-10.50623 c 2.205,-1.99553 2.2859,-15.53855 2.2859,-382.71408 0,-352.4403507 -0.1533,-380.814717 -2.0687,-382.931261 -1.992,-2.201097 -12.0658,-2.285926 -271.4641,-2.285926 -248.9211,0 -269.5691,0.157226 -271.6813,2.068735 -2.205,1.995528 -2.2859,15.538547 -2.2859,382.714082 0,352.44035 0.1533,380.81471 2.0687,382.93126 1.992,2.2011 12.0658,2.28592 271.4641,2.28592 248.9211,0 269.5691,-0.15722 271.6813,-2.06873 z m -65.9801,-44.72287 c -0.3781,-0.98538 0.7646,-3.92846 2.5393,-6.54017 1.7747,-2.61171 3.2165,-5.32111 3.204,-6.02089 -0.013,-0.69979 -1.6994,-3.74669 -3.7487,-6.7709 -2.8583,-4.2183 -3.3995,-5.89181 -2.3242,-7.1875 2.4915,-3.00201 6.2767,-1.80674 11.1453,3.51938 l 4.7608,5.2083 0.4073,-4.14475 c 0.4892,-4.97905 3.7366,-7.54364 6.9697,-5.50424 1.865,1.17639 2.1875,3.3871 2.1875,14.99361 l 0,13.61376 -3.6144,0.4126 c -4.1559,0.47442 -5.714,-1.31566 -5.7415,-6.59635 l -0.019,-3.68376 -3.8581,5.24626 c -3.0156,4.1006 -4.662,5.24625 -7.5393,5.24625 -2.0428,0 -3.987,-0.79736 -4.3686,-1.7916 z m 19.5417,-40.85237 c -1.7046,-0.68071 -4.0678,-2.11416 -5.2516,-3.18546 -1.9596,-1.77339 -2.4527,-1.71153 -5.5068,0.69081 -7.7274,6.07842 -17.5018,1.61809 -20.3915,-9.30531 -2.1985,-8.31029 -0.2143,-12.27908 11.9546,-23.91238 5.9798,-5.71652 11.3311,-10.39369 11.892,-10.39369 0.5608,0 3.7246,2.67188 7.0308,5.9375 3.3061,3.26563 8.0588,7.75113 10.5613,9.96779 5.7054,5.05345 7.62,11.26223 5.7559,18.66518 -1.2333,4.898 -6.2492,11.67953 -8.6386,11.67953 -0.5375,0 -1.7265,0.24608 -2.6421,0.54684 -0.9156,0.30076 -3.0594,-0.01 -4.764,-0.69081 z m -252.7973,-196.9598 c -3.2605,-0.85634 -3.6553,-5.74996 -3.2375,-40.13086 0.4285,-35.26047 0.072,-33.96215 9.3444,-33.99623 9.2067,-0.0339 9.1647,-0.103 9.1647,15.1146 l 0,13.61626 4.3293,0 c 4.0335,0 4.9851,-0.87561 13.9243,-12.8125 5.2772,-7.04687 10.4677,-13.51562 11.5345,-14.375 2.4413,-1.9665 16.7153,-2.0591 18.6534,-0.121 1.92,1.92002 0.9864,3.54357 -11.9147,20.71942 l -10.5709,14.07353 12.647,16.63679 c 6.9559,9.15024 12.6471,17.52563 12.6471,18.61199 0,3.05246 -9.9449,4.67162 -17.0239,2.7717 -1.4569,-0.39103 -7.5517,-7.16444 -13.5441,-15.05204 -10.7009,-14.08544 -10.9768,-14.33429 -15.4761,-13.95949 l -4.5809,0.3816 -0.3416,13.125 c -0.2738,10.52335 -0.7548,13.43473 -2.4264,14.6875 -2.0136,1.50915 -8.7055,1.8704 -13.1286,0.70873 z m -18.8951,-82.47956 c -1.4619,-1.46197 -0.8945,-12.85065 0.8481,-17.01932 2.7267,-6.52315 4.8236,-7.41491 21.8049,-9.27293 15.9651,-1.74684 35.9224,-1.40768 52.7637,0.89668 10.2679,1.40494 14.2054,5.16687 15.4822,14.79179 1.6158,12.1803 4.6011,11.43711 -45.9428,11.43711 -24.2675,0 -44.4977,-0.375 -44.9561,-0.83333 z m 7.5302,-32.60417 c -0.9354,-1.89062 -4.6892,-11.76292 -8.3418,-21.93843 -5.6918,-15.85622 -7.1478,-18.76294 -10.1853,-20.33367 -8.1425,-4.21062 -9.2805,-15.1305 -2.198,-21.09005 5.6614,-4.76376 11.4592,-4.35275 17.0184,1.20647 4.1479,4.14788 4.3604,4.75646 3.6175,10.35733 -0.7654,5.76969 -0.625,6.11189 4.6212,11.26058 l 5.4105,5.31006 2.097,-9.75845 c 2.6764,-12.45487 2.6354,-14.38876 -0.3452,-16.25014 -1.3432,-0.83883 -3.0955,-3.70572 -3.894,-6.37085 -2.6922,-8.98582 4.1528,-17.70535 13.8991,-17.70535 5.9511,0 12.4371,6.96042 12.4371,13.34687 0,2.66578 -0.9264,6.1695 -2.0587,7.78603 -1.9444,2.77602 -1.8617,3.55539 1.4888,14.0394 1.951,6.10513 3.9326,10.67328 4.4034,10.15147 0.4708,-0.52183 2.3737,-5.57555 4.2287,-11.23052 3.1252,-9.52736 3.2283,-10.48785 1.4052,-13.09063 -1.0821,-1.54489 -1.9674,-4.98997 -1.9674,-7.65575 0,-3.84545 0.8781,-5.72495 4.25,-9.09687 5.0094,-5.00938 10.4034,-5.59526 16.6194,-1.80511 7.5766,4.61975 8.3381,16.96628 1.3485,21.86204 -2.3014,1.61194 -2.351,2.25532 -0.8872,11.51271 2.4229,15.32264 2.4903,15.40408 7.5042,9.07153 3.6817,-4.65003 4.2901,-6.3705 4.2901,-12.13188 0,-6.00277 0.4321,-7.09959 4.0822,-10.36136 5.8372,-5.21619 11.6779,-5.01284 17.2928,0.60207 5.412,5.41199 5.7628,11.26038 1.0139,16.90409 -1.7799,2.11525 -3.9697,3.84591 -4.8663,3.84591 -0.8966,0 -2.0184,0.98438 -2.493,2.1875 -0.4745,1.20313 -3.946,10.625 -7.7144,20.9375 -3.7683,10.3125 -7.5567,19.47137 -8.4185,20.35304 -1.2609,1.28989 -5.0196,1.32193 -19.241,0.164 -13.1629,-1.07175 -21.6818,-1.0821 -33.376,-0.0405 -20.3232,1.8101 -19.0771,1.93085 -21.0412,-2.039 z m -183.865,-240.92445 c -1.1215,-1.711572 -4.983,-5.43091 -8.5813,-8.265172 -8.3446,-6.572938 -11.334,-11.273563 -11.3332,-17.820538 0,-11.306887 8.3127,-19.990612 16.2464,-16.97425 1.947,0.740263 4.498,2.2129 5.6689,3.272538 1.9287,1.745437 2.4444,1.678475 5.4834,-0.712 7.7274,-6.078425 17.5018,-1.618088 20.3915,9.305313 2.1985,8.310287 0.2143,12.279075 -11.9546,23.912375 -5.9798,5.716525 -11.5495,10.393684 -12.3772,10.393684 -0.8277,0 -2.4224,-1.40037 -3.5439,-3.11195 z m -6.7304,-55.445922 c -1.1866,-0.75285 -1.5136,-4.590304 -1.25,-14.668357 l 0.3569,-13.648768 3.71,0 c 3.2378,0 3.8819,0.61319 5.0618,4.818215 l 1.3518,4.818215 3.0632,-4.537542 c 3.0953,-4.585047 7.1183,-6.593789 10.5604,-5.272928 2.7425,1.05239 2.3029,4.158494 -1.2472,8.812931 -1.7188,2.253398 -3.125,4.636303 -3.125,5.295344 0,0.659043 1.7457,3.571985 3.8792,6.473208 3.1646,4.303183 3.597,5.615078 2.347,7.121252 -2.6113,3.146355 -6.3211,2.05848 -11.2066,-3.286247 l -4.6916,-5.132554 -0.823,4.386864 c -0.9747,5.19543 -4.2655,7.181567 -7.9869,4.820367 z"
         id="path4010"
         inkscape:connector-curvature="0" />
      <path
         style="fill:#f2a9c6"
         d="m -2019.049,790.89914 c -7.802,-4.23333 -7.2032,31.86901 -7.2032,-434.29327 0,-377.551674 0.2122,-425.534467 1.8962,-428.790913 4.1664,-8.056952 -20.7295,-7.459084 310.6038,-7.459084 331.3333,0 306.4374,-0.597868 310.6038,7.459084 1.684,3.256446 1.8962,51.239239 1.8962,428.790913 0,377.55168 -0.2122,425.53448 -1.8962,428.79092 -4.1671,8.05846 20.7716,7.46406 -310.8542,7.40903 -264.3514,-0.0439 -302.0474,-0.27947 -305.0464,-1.90668 z m 608.3564,-1.63757 c 2.0265,-1.18887 4.6572,-3.81963 5.8461,-5.84613 2.0368,-3.47179 2.1668,-28.08965 2.2529,-426.30502 0.082,-377.437802 -0.1136,-423.031377 -1.826,-426.464078 -1.0546,-2.113994 -3.8993,-5.012915 -6.3215,-6.442047 l -4.404,-2.598422 -298.6071,0 -298.6071,0 -4.404,2.598422 c -2.4222,1.429132 -5.2668,4.328053 -6.3214,6.442048 -1.7125,3.4327 -1.9077,49.026275 -1.8261,426.464077 0.086,398.21537 0.2161,422.83323 2.2529,426.30502 1.1889,2.0265 3.8196,4.65726 5.8461,5.84613 3.4646,2.0325 21.5618,2.16158 303.0596,2.16158 281.4978,0 299.595,-0.12908 303.0596,-2.16158 z m -575.6072,-40.4682 c -3.6299,-1.83042 -6.3406,-4.34017 -7.763,-7.1875 -2.0663,-4.13643 -2.1855,-25.13035 -2.1855,-385 0,-359.8696407 0.1192,-380.863564 2.1855,-384.999997 1.4224,-2.84733 4.1331,-5.357074 7.763,-7.1875 l 5.5773,-2.8125 266.9703,0 266.9703,0 5.5773,2.8125 c 3.6299,1.830426 6.3406,4.34017 7.763,7.1875 2.0663,4.136433 2.1855,25.1303563 2.1855,384.999997 0,359.86965 -0.1191,380.86357 -2.1855,385 -1.4224,2.84733 -4.1331,5.35708 -7.763,7.1875 l -5.5773,2.8125 -266.9703,0 -266.9703,0 -5.5773,-2.8125 z m 544.6545,-8.65538 2.8931,-2.7179 0,-380.63904 0,-380.63905 -2.7179,-2.893063 -2.7179,-2.893064 -269.389,0 -269.3891,0 -2.893,2.717893 -2.8931,2.717892 0,380.639042 0,380.63905 2.7179,2.89306 2.7179,2.89306 269.389,0 269.3891,0 2.893,-2.71788 z m -65.2653,-46.08614 c -0.4433,-0.71721 0.6486,-3.21093 2.4262,-5.54159 4.0035,-5.2488 4.0138,-6.42377 0.1072,-12.1729 -3.4034,-5.00854 -3.7969,-6.6687 -1.8638,-7.8634 2.334,-1.44255 6.0959,0.73069 8.7787,5.07145 3.2962,5.33349 6.2101,5.66828 6.2101,0.71351 0,-4.10128 2.7941,-7.03733 5.653,-5.94025 1.6062,0.61637 1.8744,2.92275 1.5784,13.57735 -0.3544,12.76212 -0.3741,12.83485 -3.4814,12.83485 -2.7088,0 -3.1767,-0.62428 -3.513,-4.6875 -0.2133,-2.57812 -0.84,-4.6875 -1.3924,-4.6875 -0.5525,0 -2.5639,2.25 -4.4696,5 -3.434,4.95528 -8.1756,6.70193 -10.0334,3.69598 z m -3.0916,-40.84126 c -3.8265,-1.37328 -7.2682,-5.68722 -8.7447,-10.9609 -2.363,-8.43974 -0.3805,-12.37592 11.8889,-23.60498 l 10.6172,-9.71699 10.5764,9.62782 c 12.2629,11.16306 14.2875,15.19177 11.9069,23.69415 -2.9053,10.37678 -10.2529,13.98905 -17.8995,8.79988 -4.6896,-3.18245 -4.7094,-3.18438 -8.0857,-0.79745 -4.0051,2.83155 -7.6691,3.88812 -10.2595,2.95847 z m -231.7857,-198.569 c -1.6862,-1.68615 -1.9643,-6.62029 -1.9643,-34.84694 0,-37.19614 -0.302,-36.07978 9.5904,-35.44873 l 6.0346,0.38495 0.3122,11.25 c 0.4594,16.5485 0.6714,17.09149 6.496,16.63235 4.5718,-0.36038 5.4492,-1.17216 15.2737,-14.13235 l 10.4232,-13.75 8.4349,-0.36961 c 7.2663,-0.3184 8.435,-0.0738 8.435,1.76608 0,1.17462 -4.8082,8.53707 -10.6849,16.36098 -5.8767,7.82392 -10.9523,14.92219 -11.2792,15.77394 -0.3268,0.85175 4.825,8.56189 11.4486,17.13363 6.6236,8.57175 12.3437,16.34488 12.7114,17.27363 1.0108,2.5536 -2.1246,3.89597 -9.1495,3.91722 -7.2876,0.022 -7.8585,-0.45792 -20.3938,-17.14488 -8.0988,-10.78099 -10.5715,-12.83599 -15.4454,-12.83599 -5.1437,0 -5.9572,2.14947 -5.9572,15.74127 0,14.01003 -0.1419,14.25873 -8.138,14.25873 -2.3009,0 -5.0674,-0.88392 -6.1477,-1.96428 z m -17.381,-81.36905 c -0.4583,-0.45833 -0.8333,-3.58002 -0.8333,-6.93708 0,-6.62564 2.504,-12.74324 5.9504,-14.53772 4.1021,-2.13585 35.5002,-4.24213 49.6746,-3.33233 28.5068,1.82975 32.0775,3.48033 33.7442,15.59808 1.4524,10.5605 3.7709,10.04238 -44.9389,10.04238 -23.52,0 -43.1386,-0.375 -43.597,-0.83333 z m 4.5059,-38.7442 c -2.0426,-5.3886 -5.5918,-15.0822 -7.8874,-21.54133 -3.4557,-9.72374 -4.8517,-12.14389 -8.1153,-14.06945 -7.4816,-4.41426 -8.8678,-12.3728 -3.21,-18.42949 5.0147,-5.36822 11.3043,-5.3937 16.6307,-0.0674 3.4654,3.46544 3.7438,4.33294 3.0396,9.47091 -0.7387,5.38953 -0.4995,5.97551 5.0776,12.43535 3.8931,4.50944 6.1627,6.27783 6.7784,5.28156 0.5092,-0.82377 1.9116,-6.73193 3.1165,-13.12925 l 2.1907,-11.6315 -3.6391,-3.7984 c -6.7535,-7.04912 -3.8705,-17.67722 5.7002,-21.01358 3.9504,-1.37712 9.1342,0.64758 12.7914,4.99602 2.7462,3.26534 2.8169,10.2478 0.1494,14.76351 -1.9447,3.29213 -1.8541,4.00263 1.9781,15.50537 2.2089,6.63033 4.4127,12.05515 4.8973,12.05515 0.4846,0 2.7233,-5.6204 4.9749,-12.48977 3.799,-11.58998 3.9532,-12.69065 2.1409,-15.27813 -2.5733,-3.67378 -2.441,-10.91508 0.2622,-14.35709 5.7384,-7.30678 13.5812,-7.371 19.6481,-0.16089 4.2436,5.04331 4.0383,9.92188 -0.6419,15.25234 l -3.7785,4.30346 2.0951,12.61504 c 1.1523,6.93827 2.5276,12.61504 3.0562,12.61504 0.5287,0 3.2674,-2.67188 6.086,-5.9375 4.5498,-5.27119 5.0415,-6.45082 4.3816,-10.51164 -2.0017,-12.31815 10.9642,-19.71704 19.5343,-11.14701 6.2999,6.2999 4.5685,14.26638 -4.2316,19.47115 -1.1836,0.7 -5.5897,10.6001 -10.0139,22.5 l -7.9003,21.25 -13.6627,-0.625 c -19.1876,-0.87774 -29.1592,-0.78297 -44.4488,0.42246 l -13.2861,1.04747 -3.7136,-9.79747 z M -1943.938,92.514611 c -11.916,-11.335075 -13.516,-14.732526 -10.9582,-23.269538 3.0011,-10.016788 10.2894,-13.42895 17.7988,-8.3329 l 4.7011,3.190237 3.6609,-2.706599 c 7.65,-5.655913 15.8334,-2.02205 18.7279,8.31625 2.3588,8.424837 0.3752,12.380762 -11.7915,23.5159 -5.786,5.29535 -10.7018,9.614979 -10.9241,9.599149 -0.2222,-0.0159 -5.269,-4.656437 -11.2149,-10.312499 z m 1.0191,-47.992072 c -0.4583,-0.458332 -0.8333,-6.382236 -0.8333,-13.16423 0,-9.853821 0.3799,-12.476662 1.8909,-13.056511 2.8196,-1.08197 5.6091,1.880635 5.6091,5.957131 0,4.838937 1.3292,4.533193 6.0997,-1.403056 2.7181,-3.382304 5.0101,-5 7.0842,-5 3.9864,0 3.9663,2.736577 -0.059,8.013891 -1.7187,2.253398 -3.125,4.637834 -3.125,5.298748 0,0.660913 1.4063,3.107726 3.125,5.437361 3.8586,5.230091 4.0817,8.75 0.5545,8.75 -2.3921,0 -9.9295,-6.85349 -9.9295,-9.028576 0,-0.534284 -0.8438,-0.971424 -1.875,-0.971424 -1.0616,0 -1.875,1.120241 -1.875,2.582176 0,5.288553 -4.006,9.245162 -6.6667,6.58449 z"
         id="path4008"
         inkscape:connector-curvature="0" />
      <path
         style="fill:#ef90b5"
         d="m -2017.0703,791.89924 c -0.7938,-0.5051 135.6994,-0.91837 303.3181,-0.91837 167.6187,0 304.1119,0.41327 303.3181,0.91837 -0.7937,0.5051 -137.2869,0.91835 -303.3181,0.91835 -166.0313,0 -302.5244,-0.41325 -303.3181,-0.91835 z m -8.4232,-8.5206 c -1.0958,-2.85573 -0.899,-852.117188 0.1979,-853.840903 0.5051,-0.793724 0.9184,191.440653 0.9184,427.187503 0,235.74685 -0.08,428.63063 -0.1788,428.63063 -0.098,0 -0.5202,-0.88975 -0.9375,-1.97723 z m 622.3663,-426.77277 c 0,-235.6812 0.4133,-427.861857 0.9184,-427.068133 1.2008,1.886972 1.2008,852.249303 0,854.136273 -0.5051,0.79373 -0.9184,-191.38694 -0.9184,-427.06814 z m -583.9166,391.35243 c -2.1541,-1.31353 -4.826,-3.68659 -5.9375,-5.27346 -1.8505,-2.64199 -2.0209,-35.19912 -2.0209,-386.18853 l 0,-383.303291 2.6104,-3.318547 c 5.9356,-7.54592 -14.9992,-7.018599 278.6396,-7.018599 293.6388,0 272.704,-0.527321 278.6396,7.018599 l 2.6104,3.318547 0,383.412851 0,383.41285 -2.6104,3.31855 c -5.9358,7.54618 15.0246,7.01903 -278.89,7.01393 -262.722,-0.005 -269.2178,-0.0615 -273.0412,-2.3929 z m 546.0694,-7.32464 2.8472,-2.84721 0,-381.18055 0,-381.180563 -2.8472,-2.847231 -2.8472,-2.847233 -269.9306,0 -269.9306,0 -2.8472,2.847194 -2.8472,2.847192 -0.2974,379.652801 c -0.2374,302.94883 0.02,380.2792 1.2746,382.75318 0.8646,1.7052 2.9672,3.8084 4.6724,4.67377 2.4687,1.25283 57.7891,1.51254 271.5032,1.27464 l 268.4029,-0.29878 2.8471,-2.84721 z m -64.6974,-46.59994 c -0.4494,-0.72717 0.6424,-3.52762 2.4262,-6.2232 1.7839,-2.69557 3.2277,-5.33498 3.2086,-5.86535 -0.019,-0.53036 -1.7066,-3.17387 -3.75,-5.87447 -4.4465,-5.87671 -4.5929,-6.96483 -0.9368,-6.96483 1.7009,0 4.5943,2.06028 7.4608,5.3125 3.8834,4.40602 4.8991,4.99257 5.9524,3.4375 0.6986,-1.03125 1.2787,-3.42187 1.2893,-5.3125 0.014,-2.53266 0.642,-3.4375 2.3854,-3.4375 3.1861,0 3.8837,2.33285 3.8837,12.98833 0,9.20714 -1.9942,14.49437 -4.8104,12.75387 -0.7918,-0.48936 -1.4396,-2.5617 -1.4396,-4.6052 0,-4.89951 -3.2453,-6.16386 -5.9413,-2.31472 -4.6821,6.68456 -8.0601,8.80469 -9.7283,6.10557 z m -7.1176,-43.63548 c -4.3483,-3.42035 -6.4196,-9.09063 -5.5874,-15.29549 0.6105,-4.55166 2.0054,-6.43304 11.0989,-14.96974 5.7204,-5.37009 10.6819,-9.74702 11.0257,-9.72654 0.3437,0.0205 5.2897,4.37688 10.991,9.68084 8.4671,7.87706 10.4986,10.48979 11.09,14.2632 0.9533,6.08234 -0.1272,9.97709 -4.0668,14.65903 -4.0753,4.84323 -8.8911,5.05065 -14.1683,0.61022 l -3.8459,-3.23612 -3.8459,3.23612 c -4.5972,3.86826 -8.4619,4.10533 -12.6913,0.77848 z m -229.1231,-196.55862 c -0.3478,-0.90633 -0.4821,-16.54532 -0.2985,-34.75331 l 0.3338,-33.10544 6.875,0 6.875,0 0.3592,13.08008 c 0.1975,7.19405 0.9248,13.4297 1.6162,13.857 0.6914,0.4273 3.3423,0.44655 5.8909,0.0427 4.1563,-0.6585 5.6602,-2.11819 14.5985,-14.16949 l 9.9648,-13.43534 7.7739,0 c 4.2757,0 8.0424,0.43428 8.3704,0.96505 0.328,0.53079 -4.42,7.65792 -10.5512,15.83808 -6.1312,8.18016 -11.141,15.76151 -11.1329,16.84745 0.01,1.08594 5.3519,8.9397 11.875,17.45281 6.5231,8.51311 11.8602,16.24749 11.8602,17.1875 0,1.26338 -2.0397,1.70911 -7.8209,1.70911 l -7.821,0 -11.0399,-14.43896 -11.04,-14.43896 -5.8266,0.37646 -5.8266,0.37646 -0.625,13.75 -0.625,13.75 -6.5765,0.37832 c -4.5737,0.2631 -6.769,-0.1235 -7.2088,-1.26957 z m -17.6436,-82.8741 c -1.3029,-3.39552 0.9019,-13.08616 3.6965,-16.24643 2.312,-2.61455 4.4633,-3.28248 13.9824,-4.34133 14.4988,-1.61275 38.1988,-1.59902 52.5,0.0304 14.4553,1.647 17.079,3.83241 17.879,14.89233 l 0.5465,7.55537 -43.9395,0 c -38.0628,0 -44.0365,-0.25283 -44.6649,-1.89035 z m 9.8561,-27.89043 c -0.8651,-0.55249 -4.3903,-8.84345 -7.8339,-18.42437 -8.7894,-24.45443 -8.6687,-24.20498 -12.7387,-26.30968 -10.3147,-5.33393 -6.7782,-20.98517 4.7417,-20.98517 7.7209,0 12.7067,7.44788 10.0996,15.08689 -0.7345,2.15215 0.2902,4.08715 4.9644,9.375 5.0425,5.70449 9.2147,8.8417 9.2147,6.92883 0,-0.29844 1.1666,-6.26263 2.5925,-13.25378 l 2.5924,-12.71116 -3.8424,-3.5894 c -5.1651,-4.82491 -5.3862,-11.95175 -0.5217,-16.81624 4.5844,-4.58446 8.3082,-5.25896 13.2144,-2.39357 7.1625,4.18311 8.9842,12.46523 3.9623,18.01433 -2.1814,2.41044 -2.1822,2.40622 3.5311,18.2966 2.0393,5.67188 4.1907,10.3125 4.7809,10.3125 1.2208,0 8.6905,-22.51197 8.6905,-26.19117 0,-1.3262 -0.5192,-2.73218 -1.1538,-3.12439 -0.6346,-0.39221 -1.5141,-2.3531 -1.9543,-4.35754 -1.0584,-4.81875 2.0575,-10.71941 7.0139,-13.28246 4.7132,-2.43731 8.3963,-1.65137 12.7734,2.7257 4.6993,4.69929 4.5968,11.66744 -0.2463,16.73523 l -3.567,3.7326 1.7096,10.31851 c 2.3558,14.21846 2.8026,15.94352 4.1296,15.94352 0.6367,0 3.6678,-3.0816 6.7359,-6.84801 4.9838,-6.11811 5.5091,-7.3646 4.9283,-11.6948 -0.8056,-6.00611 1.1859,-9.93062 6.0847,-11.9904 7.6467,-3.2152 15.296,1.83783 15.296,10.10438 0,4.41828 -0.4171,4.97077 -8.7343,11.56938 -0.7477,0.59315 -4.6212,10.00105 -8.6078,20.90645 -3.9867,10.9054 -7.9816,20.42763 -8.8776,21.16052 -1.1107,0.90848 -4.7358,0.97516 -11.3922,0.20956 -9.7967,-1.12681 -50.6248,-0.48993 -54.1381,0.8445 -1.0313,0.39169 -2.5828,0.26012 -3.4478,-0.29236 z M -1943.4932,91.874436 c -8.4671,-7.877063 -10.4986,-10.489788 -11.09,-14.2632 -0.9533,-6.082338 0.1272,-9.977088 4.0668,-14.659025 4.0753,-4.843238 8.8911,-5.05065 14.1683,-0.610225 l 3.8459,3.236125 3.8459,-3.236125 c 4.5972,-3.868263 8.4619,-4.105326 12.6913,-0.778475 4.3483,3.420349 6.4196,9.090624 5.5874,15.295487 -0.6105,4.551663 -2.0054,6.433037 -11.0989,14.969738 -5.7204,5.370087 -10.682,9.747024 -11.0257,9.726534 -0.3438,-0.0205 -5.2897,-4.376872 -10.991,-9.680835 z m 0.3083,-49.343167 c -0.3713,-0.967654 -0.5102,-6.493601 -0.3087,-12.279882 0.3331,-9.565043 0.5934,-10.520514 2.8664,-10.520514 1.8909,0 2.6523,1.041666 3.125,4.275636 0.8479,5.800689 2.7496,6.02197 6.7442,0.784773 1.8466,-2.421009 4.4679,-4.996146 5.8252,-5.722527 4.0464,-2.1656 4.4595,1.904956 0.6942,6.841472 -1.795,2.353362 -3.248,4.738247 -3.2288,5.299743 0.019,0.561497 1.7066,3.230482 3.75,5.931077 4.4787,5.91925 4.5987,6.964826 0.7994,6.964826 -1.9051,0 -4.3271,-1.756184 -6.9875,-5.066672 -4.7133,-5.865083 -6.7201,-5.82497 -7.5967,0.151843 -0.6543,4.461334 -4.4062,6.666666 -5.6827,3.340225 z m -73.8854,-121.218755 c 1.8868,-1.20074 604.7494,-1.20074 606.6362,0 0.7938,0.505097 -135.6994,0.918359 -303.3181,0.918359 -167.6187,0 -304.1119,-0.413262 -303.3181,-0.918359 z"
         id="path4006"
         inkscape:connector-curvature="0" />
      <path
         style="fill:#e85c94"
         d="m -2017.0703,791.89924 c -0.7938,-0.5051 135.6994,-0.91837 303.3181,-0.91837 167.6187,0 304.1119,0.41327 303.3181,0.91837 -0.7937,0.5051 -137.2869,0.91835 -303.3181,0.91835 -166.0313,0 -302.5244,-0.41325 -303.3181,-0.91835 z m -8.4232,-8.5206 c -1.0958,-2.85573 -0.899,-852.117188 0.1979,-853.840903 0.5051,-0.793724 0.9184,191.440653 0.9184,427.187503 0,235.74685 -0.08,428.63063 -0.1788,428.63063 -0.098,0 -0.5202,-0.88975 -0.9375,-1.97723 z m 622.3663,-426.77277 c 0,-235.6812 0.4133,-427.861857 0.9184,-427.068133 1.2008,1.886972 1.2008,852.249303 0,854.136273 -0.5051,0.79373 -0.9184,-191.38694 -0.9184,-427.06814 z m -581.25,391.98545 c -2.0625,-0.91668 -5.1563,-3.18998 -6.875,-5.05178 l -3.125,-3.38508 0,-383.56721 0,-383.567221 3.6789,-3.839989 c 2.0235,-2.111993 5.6797,-4.395792 8.125,-5.075107 6.1027,-1.695314 531.5395,-1.695314 537.6422,0 2.4453,0.679315 6.1015,2.963114 8.125,5.075107 l 3.6789,3.839989 0,383.567221 0,383.56721 -3.125,3.3868 c -6.7026,7.26414 11.5816,6.81879 -277.7723,6.76569 -219.3827,-0.0403 -267.2669,-0.34414 -270.3527,-1.71563 z m 543.8068,-7.55363 3.0682,-3.06818 0,-381.36364 0,-381.363633 -3.0682,-3.068183 -3.0682,-3.068181 -270.1136,0 -270.1136,0 -3.0682,3.068181 -3.0682,3.068183 0,381.363633 0,381.36364 3.0682,3.06818 3.0682,3.06818 270.1136,0 270.1136,0 3.0682,-3.06818 z m -64.4318,-48.30135 c 0,-0.75325 1.0328,-2.86263 2.295,-4.6875 1.2623,-1.82488 2.6529,-3.94195 3.0901,-4.70462 0.4373,-0.76265 -0.8611,-3.57515 -2.8852,-6.25 -6.6531,-8.79167 -3.093,-11.62853 3.7501,-2.98835 5.1749,6.53383 8.4627,6.64815 8.987,0.3125 0.2616,-3.16091 0.9986,-4.6875 2.263,-4.6875 1.5351,0 1.875,2.15278 1.875,11.875 0,9.72223 -0.3399,11.875 -1.875,11.875 -1.1794,0 -2.1069,-1.58618 -2.5,-4.27563 -0.8736,-5.97657 -2.8134,-6.01665 -7.4567,-0.15408 -3.8102,4.81076 -7.5433,6.63453 -7.5433,3.68518 z m 17.5,-40.7601 c -1.0313,-0.37524 -3.4219,-2.12358 -5.3125,-3.88518 l -3.4375,-3.20291 -3.5059,3.35886 c -6.8255,6.53921 -15.0019,3.54255 -17.7029,-6.48811 -1.9376,-7.19568 0.8804,-13.4356 8.7925,-19.46945 3.4314,-2.6168 7.6154,-6.51299 9.2979,-8.6582 l 3.0591,-3.90038 3.7939,4.59434 c 2.0866,2.52688 5.7461,5.80091 8.1322,7.27563 8.914,5.50915 12.0222,14.37475 8.2393,23.50148 -1.3542,3.26735 -7.1782,8.1629 -9.1065,7.65487 -0.206,-0.0543 -1.2184,-0.4057 -2.2496,-0.78095 z m -253.5,-198.12037 c -1.7605,-1.76052 -2.1519,-64.28663 -0.4195,-67.01858 0.6736,-1.06212 2.9885,-1.50435 6.5434,-1.25 l 5.5011,0.39358 0.3122,11.25 c 0.4623,16.65395 0.5565,16.875 7.1922,16.875 l 5.5817,0 10.7974,-14.375 10.7973,-14.375 7.3471,0 c 4.2567,0 7.3471,0.54724 7.3471,1.30099 0,0.71554 -5.0625,8.0051 -11.25,16.19901 -6.1875,8.19392 -11.25,15.43998 -11.25,16.10237 0,0.66238 5.6437,8.65622 12.5415,17.76408 9.1437,12.07337 12.1069,16.83549 10.9375,17.57752 -1.8747,1.18955 -9.9094,1.38801 -12.7085,0.3139 -1.0637,-0.40818 -6.4729,-6.82422 -12.0205,-14.25787 -5.5476,-7.43365 -10.9568,-13.84968 -12.0205,-14.25786 -3.2795,-1.25845 -9.9003,-0.82135 -11.4795,0.75786 -0.9705,0.97045 -1.5,5.99807 -1.5,14.24127 0,10.46525 -0.3532,12.8768 -1.9772,13.5 -3.2587,1.25045 -8.6717,0.85985 -10.2728,-0.74127 z m -16.9005,-81.81718 c -1.252,-1.252 -1.0326,-9.78848 0.3447,-13.41107 2.0624,-5.42436 5.8839,-6.74538 24.0227,-8.30415 18.1037,-1.55572 49.3764,0.0113 55.4503,2.77907 3.5797,1.63103 5.9835,7.12627 6.1114,13.97146 l 0.096,5.15687 -42.588,0.32865 c -23.4234,0.18075 -42.9703,-0.0536 -43.4375,-0.52083 z m 6.1351,-33.24532 c -0.9008,-2.23437 -4.3151,-11.65625 -7.5873,-20.9375 -3.2721,-9.28125 -6.844,-17.4375 -7.9374,-18.125 -4.8091,-3.02372 -8.9599,-8.14653 -8.9599,-11.05793 0,-1.71889 1.4562,-4.85592 3.2361,-6.97115 4.2415,-5.04077 10.4251,-5.29839 15.0945,-0.6289 2.8544,2.8543 3.1282,3.88675 2.4291,9.15707 -0.7747,5.84026 -0.6745,6.06448 5.9682,13.34549 3.7159,4.07299 7.1423,7.03229 7.6141,6.57624 1.1018,-1.06475 5.658,-21.84298 5.658,-25.80259 0,-1.69474 -1.3227,-4.04885 -3.029,-5.39106 -4.0636,-3.19643 -5.1455,-8.6719 -2.6623,-13.47388 3.794,-7.33684 11.2352,-8.52675 17.0375,-2.72444 4.1078,4.10787 5.014,11.16119 1.7788,13.84615 -1.0313,0.85587 -1.8556,2.75287 -1.832,4.21555 0.063,3.89189 8.1291,26.21683 9.6563,26.72588 0.7162,0.23874 3.3795,-5.80006 5.9184,-13.41956 4.3514,-13.05884 4.502,-14.02805 2.6243,-16.89378 -3.1526,-4.81136 -2.5237,-10.28872 1.6619,-14.47424 10.8098,-10.8099 25.2037,5.14372 14.6137,16.19732 l -3.5506,3.70602 2.329,13.43574 c 1.281,7.38965 2.9478,13.6393 3.7041,13.8881 0.7563,0.2488 4.0116,-2.75023 7.234,-6.6645 5.5142,-6.69801 5.8115,-7.4338 5.0515,-12.50189 -0.7281,-4.85542 -0.4348,-5.75774 2.9823,-9.17482 4.0278,-4.02778 7.4398,-4.69878 11.8768,-2.33564 7.7344,4.11937 7.8943,10.7722 0.4281,17.80712 -4.8002,4.52284 -6.1984,7.25215 -12.101,23.62128 -3.6705,10.17917 -7.2751,19.32235 -8.0102,20.31817 -1.1438,1.54937 -3.8235,1.60657 -18.5734,0.39653 -12.8008,-1.05014 -21.0548,-1.0516 -32.0716,-0.006 -19.6588,1.86639 -18.7102,1.98872 -20.582,-2.6541 z M -1935.5405,98.437836 c -1.1416,-1.742425 -4.8057,-5.129313 -8.1423,-7.526413 -3.3365,-2.397087 -7.0417,-5.846737 -8.2336,-7.665875 -4.4346,-6.767937 -1.9691,-18.963762 4.5111,-22.314775 4.0717,-2.10555 6.715,-1.421487 11.4656,2.9672 l 3.4375,3.175625 3.5059,-3.358862 c 6.8255,-6.539213 15.0019,-3.54255 17.7029,6.488112 1.9752,7.33525 -0.8224,13.28295 -9.3984,19.980863 -3.7892,2.959375 -7.7801,6.74 -8.8687,8.401412 -2.4964,3.810087 -3.4016,3.787787 -5.98,-0.147287 z m -6.1392,-55.176142 c -1.4389,-1.438901 -0.9284,-22.692821 0.5673,-23.617193 1.8421,-1.138499 3.5673,1.755441 3.5911,6.023872 0.028,5.088875 3.7113,4.349172 7.9127,-1.589189 3.3603,-4.749625 6.1971,-6.205932 7.6161,-3.909871 0.3615,0.584892 -0.7303,2.944174 -2.4262,5.24285 -3.8537,5.223297 -3.8487,6.607224 0.042,11.707601 6.1898,8.11526 1.9098,9.993722 -4.5253,1.986109 -4.8665,-6.055672 -8.5997,-6.664755 -8.5997,-1.403056 0,3.602587 -2.6318,7.10461 -4.1775,5.558877 z m -75.3906,-121.94918 c 1.8868,-1.20074 604.7494,-1.20074 606.6362,0 0.7938,0.505097 -135.6994,0.918359 -303.3181,0.918359 -167.6187,0 -304.1119,-0.413262 -303.3181,-0.918359 z"
         id="path4004"
         inkscape:connector-curvature="0" />
      <path
         style="fill:#e01b6a"
         d="m -1864.6897,791.91842 c 83.0156,-0.17742 218.8594,-0.17742 301.875,0 83.0156,0.17743 15.0937,0.32259 -150.9375,0.32259 -166.0313,0 -233.9531,-0.14516 -150.9375,-0.32259 z m -160.9447,-435.31255 c 0,-234.09375 0.1438,-329.859372 0.3197,-212.8125 0.1758,117.04688 0.1758,308.57813 0,425.625 -0.1759,117.04688 -0.3197,21.28125 -0.3197,-212.8125 z m 623.75,0 c 0,-234.09375 0.1438,-329.859372 0.3197,-212.8125 0.1758,117.04688 0.1758,308.57813 0,425.625 -0.1759,117.04688 -0.3197,21.28125 -0.3197,-212.8125 z m -582.4928,390.75144 c -2.0625,-0.91292 -4.875,-2.92076 -6.25,-4.46186 -2.487,-2.78746 -2.5015,-4.78129 -2.7974,-384.85828 -0.2348,-301.680309 0.028,-382.688376 1.25,-385.060798 0.8511,-1.652476 3.1355,-4.183726 5.0766,-5.625 l 3.5291,-2.620499 269.8167,0 269.8167,0 3.5291,2.620499 c 1.9411,1.441274 4.224,3.972524 5.0733,5.625 2.2618,4.401154 2.2618,762.857848 0,767.258998 -0.8493,1.65248 -3.1322,4.18373 -5.0732,5.625 l -3.5291,2.6205 -268.3459,0.26815 c -220.8,0.22065 -269.0103,-0.0259 -272.0959,-1.39171 z m 543.9928,-5.01821 3.5072,-3.01676 0,-382.71647 0,-382.716456 -3.5072,-3.016771 -3.5072,-3.01677 -269.8606,0 -269.8606,0 -3.5072,3.01677 -3.5072,3.016771 0,382.716456 0,382.71647 3.5072,3.01676 3.5072,3.01677 269.8606,0 269.8606,0 3.5072,-3.01677 z m -63.34,-50.42073 c 0.015,-0.51562 1.1278,-2.34375 2.4722,-4.0625 3.2924,-4.20913 3.1158,-6.85946 -0.7993,-11.99242 -4.9017,-6.42646 -2.2372,-7.00036 3.153,-0.67913 5.8356,6.84354 9.3335,6.79012 9.9093,-0.15135 0.7633,-9.20303 2.737,-4.46335 2.737,6.5729 0,6.66667 -0.5093,11.25 -1.25,11.25 -0.6875,0 -1.25,-1.61862 -1.25,-3.59695 0,-1.97831 -0.9181,-4.35892 -2.0403,-5.29023 -1.784,-1.48059 -2.6126,-1.02877 -6.5966,3.59695 -4.3205,5.01646 -6.3973,6.44335 -6.3353,4.35273 z m -7.1431,-41.81815 c -3.6607,-1.7526 -7.0287,-10.37716 -6.0629,-15.52533 0.5584,-2.97677 3.3495,-6.3623 10.7312,-13.01675 l 9.9764,-8.9936 5.9228,5.18371 c 12.3769,10.83239 13.9357,12.61371 14.7264,16.82879 1.1316,6.03187 -3.1123,15.40083 -7.4718,16.495 -3.4557,0.86732 -9.0455,-1.93989 -10.2827,-5.164 -1.0317,-2.68857 -3.9473,-2.18302 -7.0466,1.22182 -3.3763,3.70935 -6.8785,4.70076 -10.4928,2.97036 z m -229.821,-197.57836 c -0.3343,-0.87121 -0.4573,-15.91809 -0.2733,-33.4375 l 0.3346,-31.85349 5.625,0 5.625,0 0.625,13.75 0.625,13.75 6.25,0 6.25,0 10.625,-14.05935 10.625,-14.05935 6.5625,-0.004 c 3.6094,-10e-4 6.5625,0.2746 6.5625,0.61408 0,0.33947 -5.0936,7.44652 -11.3191,15.79346 -6.5442,8.7742 -11.0316,15.92541 -10.6376,16.9522 0.3748,0.97679 5.7497,8.42581 11.9441,16.55339 6.1944,8.12817 11.2626,15.40942 11.2626,16.18116 0,0.8449 -2.4149,1.40316 -6.0696,1.40316 l -6.0695,0 -10.9055,-14.375 -10.9054,-14.375 -7.4,0 -7.4,0 0,12.39777 c 0,6.81877 -0.3414,13.28752 -0.7587,14.375 -0.9376,2.44315 -10.2651,2.77128 -11.1776,0.39322 z m -17.0081,-81.52701 c -1.4468,-1.44683 1.1763,-13.42143 3.4157,-15.59293 3.372,-3.26968 29.8141,-5.64456 49.8838,-4.48026 26.974,1.56485 30.1482,2.99554 31.4735,14.18593 l 0.7696,6.49828 -42.4657,0 c -23.3562,0 -42.7408,-0.27496 -43.0769,-0.61102 z m 0.7128,-49.57748 c -4.0431,-11.21675 -8.281,-21.17068 -9.4177,-22.11985 -9.5785,-7.99847 -10.6471,-11.00297 -6.01,-16.89807 3.3057,-4.20248 9.9374,-4.51548 13.8015,-0.6514 2.2139,2.21389 2.5176,3.58159 1.8734,8.4375 -0.7434,5.60401 -0.552,6.05124 5.7953,13.54789 3.6103,4.26391 7.384,7.6358 8.3861,7.49308 2.1057,-0.29988 4.2272,-6.92648 6.4471,-20.13772 l 1.5631,-9.30278 -3.9786,-3.71658 c -6.141,-5.73662 -4.6407,-14.11988 3.0905,-17.26804 3.5356,-1.43973 4.3769,-1.3152 8.125,1.20252 3.4234,2.29974 4.2487,3.7266 4.5553,7.87584 0.2525,3.4171 -0.2564,5.59076 -1.5625,6.67475 -2.7698,2.29874 -2.3491,5.27545 2.8341,20.05136 2.9082,8.29074 5.2537,13.125 6.3679,13.125 1.1335,0 3.5069,-5.13721 6.6411,-14.375 4.6352,-13.66161 4.7803,-14.55062 2.9236,-17.9138 -3.072,-5.56476 -2.5277,-11.45313 1.34,-14.49547 4.4579,-3.50659 9.8427,-3.31808 13.6382,0.47746 4.4057,4.40568 4.1012,9.96385 -0.7965,14.539 l -3.8648,3.61021 2.082,12.8288 c 2.6105,16.08517 2.9355,17.2038 4.9986,17.2038 0.9254,0 4.5667,-3.45167 8.0917,-7.67038 6.0178,-7.20189 6.362,-7.98565 5.6353,-12.83188 -0.6224,-4.15019 -0.2472,-5.83121 1.9147,-8.57961 5.307,-6.74681 16.2305,-2.69499 16.2766,6.03744 0.014,2.73833 -1.2558,4.77957 -5.0059,8.04443 -4.4443,3.86929 -5.8772,6.68683 -12.3958,24.375 l -7.3707,20 -6.061,-0.13327 c -3.3335,-0.0732 -13.3735,-0.3432 -22.311,-0.59978 -8.9375,-0.25657 -21.6512,-0.01 -28.2528,0.54859 l -12.0028,1.01508 -7.351,-20.39412 z M -1938.7522,94.02636 c -12.4969,-11.146162 -13.6464,-12.471887 -14.4286,-16.64165 -1.1316,-6.031875 3.1123,-15.400837 7.4718,-16.495 3.4557,-0.867325 9.0455,1.939888 10.2827,5.164 1.0053,2.61985 4.5703,2.206425 6.4126,-0.743687 4.2504,-6.80585 12.6242,-5.242925 15.9102,2.969525 3.3583,8.39335 1.8678,11.919775 -9.2901,21.978388 -5.3981,4.866362 -10.0215,8.833875 -10.2742,8.816687 -0.2527,-0.0172 -2.9907,-2.288913 -6.0844,-5.048263 z m -2.5,-62.420487 c 0,-7.204661 0.4463,-11.290631 1.1538,-10.5625 0.6346,0.653125 1.3377,2.875 1.5625,4.9375 0.6433,5.902533 4.8145,5.643722 9.1176,-0.565723 1.9284,-2.782602 4.2734,-5.059277 5.2111,-5.059277 2.2386,0 2.2196,0.06685 -1.42,5 -3.9251,5.320208 -3.9059,6.642995 0.1743,11.992425 4.9017,6.426468 2.2372,7.000368 -3.153,0.679125 -5.4856,-6.433104 -9.28,-6.733386 -9.93,-0.785861 -0.2248,2.056621 -0.9279,4.273686 -1.5625,4.926811 -0.7075,0.728131 -1.1538,-3.357839 -1.1538,-10.5625 z m 76.5625,-110.937453 c 83.0156,-0.177422 218.8594,-0.177422 301.875,0 83.0156,0.177422 15.0937,0.322585 -150.9375,0.322585 -166.0313,0 -233.9531,-0.145163 -150.9375,-0.322585 z"
         id="path4002"
         inkscape:connector-curvature="0" />
      <path
         style="fill:#dd0159"
         d="m -1864.6897,791.91842 c 83.0156,-0.17742 218.8594,-0.17742 301.875,0 83.0156,0.17743 15.0937,0.32259 -150.9375,0.32259 -166.0313,0 -233.9531,-0.14516 -150.9375,-0.32259 z m -160.9447,-435.31255 c 0,-234.09375 0.1438,-329.859372 0.3197,-212.8125 0.1758,117.04688 0.1758,308.57813 0,425.625 -0.1759,117.04688 -0.3197,21.28125 -0.3197,-212.8125 z m 623.75,0 c 0,-234.09375 0.1438,-329.859372 0.3197,-212.8125 0.1758,117.04688 0.1758,308.57813 0,425.625 -0.1759,117.04688 -0.3197,21.28125 -0.3197,-212.8125 z m -445.9303,390.31257 c 73.7344,-0.1781 194.3906,-0.1781 268.125,0 73.7344,0.1781 13.4062,0.32381 -134.0625,0.32381 -147.4688,0 -207.7969,-0.14571 -134.0625,-0.32381 z m 358.5937,-63.80975 c -0.3389,-0.54845 -0.1,-1.81408 0.5321,-2.8125 0.8966,-1.41732 1.1526,-1.1987 1.1676,0.99718 0.02,2.89129 -0.6154,3.5696 -1.6997,1.81532 z m -21.6614,-34.63448 c -3.3949,-2.37789 -5.8035,-9.54811 -4.7771,-14.2212 0.5124,-2.33294 4.0608,-6.53372 10.1119,-11.97091 l 9.3225,-8.37671 9.3279,8.34845 c 10.0957,9.03561 12.0077,13.10508 9.3909,19.98776 -3.5123,9.23811 -8.2322,10.34656 -14.5915,3.42677 l -4.3079,-4.6875 -3.3607,3.94719 c -4.1575,4.88294 -7.6272,5.9898 -11.116,3.54615 z m -228.2272,-196.39242 c -0.4909,-0.49093 -0.8926,-15.17654 -0.8926,-32.6347 l 0,-31.74213 4.6875,0.38795 4.6875,0.38796 0.3592,13.08008 c 0.2343,8.53344 0.8861,13.41492 1.875,14.04336 2.4057,1.52881 11.4726,1.15493 13.6026,-0.56094 1.0669,-0.85937 6.2574,-7.32812 11.5346,-14.375 9.3467,-12.481 9.7231,-12.8125 14.5493,-12.8125 2.7248,0 4.9543,0.2929 4.9543,0.65088 0,0.35799 -4.7813,7.01637 -10.625,14.79642 -5.8438,7.78005 -10.625,14.8505 -10.625,15.7121 0,0.8616 5.3437,8.53934 11.875,17.06164 6.5312,8.5223 11.875,15.8163 11.875,16.2089 0,0.39259 -2.349,0.54084 -5.22,0.32944 -5.023,-0.36986 -5.6264,-0.9034 -15.9844,-14.13438 l -10.7644,-13.75 -8.0781,0 -8.0781,0 -0.625,13.75 -0.625,13.75 -3.7949,0.37174 c -2.0872,0.20446 -4.1966,-0.0299 -4.6875,-0.52082 z m -17.5027,-87.03842 c 1.1604,-9.45395 2.581,-10.5676 15.0003,-11.75885 13.762,-1.32003 42.0405,-1.31357 53.1543,0.0125 10.4957,1.25199 13.2248,3.38123 14.255,11.1217 l 0.7903,5.9375 -41.926,0 -41.9259,0 0.652,-5.3125 z m 6.7466,-27.45955 c -0.5953,-1.56912 -4.0108,-11.06828 -7.5899,-21.10926 -6.0564,-16.99045 -6.8014,-18.3964 -10.7443,-20.27662 -8.054,-3.84068 -6.7986,-14.78678 1.7911,-15.61748 6.5749,-0.63586 9.337,2.70854 8.3545,10.11558 -0.7842,5.91098 -0.7061,6.08326 6.3969,14.12375 10.0147,11.33646 11.4833,10.89925 14.9933,-4.46392 2.9658,-12.98078 3.6125,-21.25 1.6619,-21.25 -2.3332,0 -6.25,-4.98616 -6.25,-7.95642 0,-7.56443 8.5037,-11.95305 14.7219,-7.5977 3.3266,2.33005 3.8966,10.56972 0.9031,13.05412 -2.6629,2.21002 -2.4027,4.21122 2.3649,18.1919 5.7501,16.86177 5.7236,16.8081 8.2903,16.8081 1.7856,0 3.3637,-3.30357 7.4834,-15.6657 4.9339,-14.80538 5.1112,-15.83267 3.2285,-18.70602 -6.5187,-9.9487 4.8104,-21.22916 12.79,-12.73521 3.8887,4.13936 3.4708,8.77657 -1.183,13.12591 l -3.9009,3.64567 2.0512,12.35518 c 3.2528,19.59404 3.1385,19.23861 6.1624,19.15646 1.758,-0.0477 5.0538,-2.88629 9.3616,-8.06266 6.4068,-7.69858 6.6182,-8.19118 5.8141,-13.55286 -0.6992,-4.6628 -0.4095,-5.9888 1.7891,-8.18734 5.186,-5.18604 13.8734,-2.02466 13.8734,5.04859 0,3.54368 -1.7731,6.04265 -6.25,8.80866 -2.4456,1.51096 -4.7556,6.44635 -10.625,22.70025 l -7.5,20.76952 -14.375,-0.91272 c -18.0986,-1.14915 -22.4731,-1.14185 -39.0781,0.0652 -13.2726,0.96485 -13.4675,0.9397 -14.5354,-1.875 z M -1942.5022,89.184098 c -9.0196,-8.260525 -9.375,-8.8003 -9.375,-14.240438 0,-3.790962 0.8652,-6.817537 2.6254,-9.183625 3.9382,-5.293899 7.3507,-5.174175 12.5087,0.438876 l 4.3944,4.781962 3.3607,-3.901013 c 6.0793,-7.056487 11.4139,-6.443137 14.8178,1.7037 3.1584,7.559063 1.5048,11.424101 -8.8795,20.754963 -5.0911,4.57455 -9.4412,8.29805 -9.667,8.27445 -0.2258,-0.0236 -4.6293,-3.906588 -9.7855,-8.628875 z m 10.625,-57.578225 c -0.4249,-0.6875 -0.1768,-1.25 0.5512,-1.25 0.7281,0 1.3238,0.5625 1.3238,1.25 0,0.6875 -0.2481,1.25 -0.5512,1.25 -0.3032,0 -0.8989,-0.5625 -1.3238,-1.25 z m 84.0625,-65.93744 c 73.7344,-0.1781 194.3906,-0.1781 268.125,0 73.7344,0.178099 13.4062,0.323817 -134.0625,0.323817 -147.4688,0 -207.7969,-0.145718 -134.0625,-0.323817 z m -16.875,-45.000013 c 83.0156,-0.177422 218.8594,-0.177422 301.875,0 83.0156,0.177422 15.0937,0.322585 -150.9375,0.322585 -166.0313,0 -233.9531,-0.145163 -150.9375,-0.322585 z"
         id="path4000"
         inkscape:connector-curvature="0" />
      <path
         style="fill:#111111"
         d="m -1864.6897,791.91842 c 83.0156,-0.17742 218.8594,-0.17742 301.875,0 83.0156,0.17743 15.0937,0.32259 -150.9375,0.32259 -166.0313,0 -233.9531,-0.14516 -150.9375,-0.32259 z m -160.9447,-435.31255 c 0,-234.09375 0.1438,-329.859372 0.3197,-212.8125 0.1758,117.04688 0.1758,308.57813 0,425.625 -0.1759,117.04688 -0.3197,21.28125 -0.3197,-212.8125 z m 623.75,0 c 0,-234.09375 0.1438,-329.859372 0.3197,-212.8125 0.1758,117.04688 0.1758,308.57813 0,425.625 -0.1759,117.04688 -0.3197,21.28125 -0.3197,-212.8125 z m -462.8053,-435.93745 c 83.0156,-0.177422 218.8594,-0.177422 301.875,0 83.0156,0.177422 15.0937,0.322585 -150.9375,0.322585 -166.0313,0 -233.9531,-0.145163 -150.9375,-0.322585 z"
         id="path3998"
         inkscape:connector-curvature="0" />
    </g>
  </g>
</svg>
