<?xml version="1.0" encoding="UTF-8" standalone="no"?>
<!-- Created with Inkscape (http://www.inkscape.org/) -->

<svg
   xmlns:dc="http://purl.org/dc/elements/1.1/"
   xmlns:cc="http://creativecommons.org/ns#"
   xmlns:rdf="http://www.w3.org/1999/02/22-rdf-syntax-ns#"
   xmlns:svg="http://www.w3.org/2000/svg"
   xmlns="http://www.w3.org/2000/svg"
   xmlns:sodipodi="http://sodipodi.sourceforge.net/DTD/sodipodi-0.dtd"
   xmlns:inkscape="http://www.inkscape.org/namespaces/inkscape"
   width="176.39108mm"
   height="246.27499mm"
   viewBox="0 0 625.00777 872.62793"
   id="svg2"
   version="1.1"
   inkscape:version="0.91 r13725"
   sodipodi:docname="Q.svg">
  <defs
     id="defs4">
    <pattern
       y="0"
       x="0"
       height="6"
       width="6"
       patternUnits="userSpaceOnUse"
       id="EMFhbasepattern" />
    <pattern
       y="0"
       x="0"
       height="6"
       width="6"
       patternUnits="userSpaceOnUse"
       id="EMFhbasepattern-1" />
    <pattern
       y="0"
       x="0"
       height="6"
       width="6"
       patternUnits="userSpaceOnUse"
       id="EMFhbasepattern-14" />
    <pattern
       y="0"
       x="0"
       height="6"
       width="6"
       patternUnits="userSpaceOnUse"
       id="EMFhbasepattern-4" />
    <pattern
       y="0"
       x="0"
       height="6"
       width="6"
       patternUnits="userSpaceOnUse"
       id="EMFhbasepattern-9" />
    <pattern
       y="0"
       x="0"
       height="6"
       width="6"
       patternUnits="userSpaceOnUse"
       id="EMFhbasepattern-8" />
    <pattern
       y="0"
       x="0"
       height="6"
       width="6"
       patternUnits="userSpaceOnUse"
       id="EMFhbasepattern-6" />
    <pattern
       y="0"
       x="0"
       height="6"
       width="6"
       patternUnits="userSpaceOnUse"
       id="EMFhbasepattern-13" />
    <pattern
       y="0"
       x="0"
       height="6"
       width="6"
       patternUnits="userSpaceOnUse"
       id="EMFhbasepattern-44" />
    <pattern
       y="0"
       x="0"
       height="6"
       width="6"
       patternUnits="userSpaceOnUse"
       id="EMFhbasepattern-5" />
    <pattern
       y="0"
       x="0"
       height="6"
       width="6"
       patternUnits="userSpaceOnUse"
       id="EMFhbasepattern-0" />
  </defs>
  <sodipodi:namedview
     id="base"
     pagecolor="#ffffff"
     bordercolor="#666666"
     borderopacity="1.0"
     inkscape:pageopacity="0.0"
     inkscape:pageshadow="2"
     inkscape:zoom="0.24748737"
     inkscape:cx="-72.963664"
     inkscape:cy="-4.9400423"
     inkscape:document-units="px"
     inkscape:current-layer="layer1"
     showgrid="false"
     fit-margin-top="0"
     fit-margin-left="0"
     fit-margin-right="0"
     fit-margin-bottom="0"
     inkscape:window-width="784"
     inkscape:window-height="822"
     inkscape:window-x="800"
     inkscape:window-y="0"
     inkscape:window-maximized="0" />
  <metadata
     id="metadata7">
    <rdf:RDF>
      <cc:Work
         rdf:about="">
        <dc:format>image/svg+xml</dc:format>
        <dc:type
           rdf:resource="http://purl.org/dc/dcmitype/StillImage" />
        <dc:title></dc:title>
      </cc:Work>
    </rdf:RDF>
  </metadata>
  <g
     inkscape:label="Calque 1"
     inkscape:groupmode="layer"
     id="layer1"
     transform="translate(-120.7367,1188.1758)">
    <g
       id="g4158"
       transform="translate(-1198.6363,-2288.3835)">
      <path
         style="fill:#fdfdfd"
         d="m 1319.373,1536.464 0,-436.25 312.5,0 312.5,0 0,436.25 0,436.25 -312.5,0 -312.5,0 0,-436.25 z"
         id="path4174"
         inkscape:connector-curvature="0" />
      <path
         style="fill:#f2a9c6"
         d="m 1325.7606,1970.9696 c -6.7121,-3.7202 -6.2956,24.7837 -6.3433,-434.1343 -0.034,-328.0882 0.3003,-427.26 1.4491,-429.7812 3.3332,-7.3157 -18.2831,-6.8401 310.8857,-6.8401 231.8704,0 303.2686,0.3487 305.7808,1.4934 7.3554,3.3513 6.8401,-29.4033 6.8401,434.7566 0,464.1599 0.5153,431.4053 -6.8401,434.7566 -5.0745,2.3122 -607.5939,2.0649 -611.7723,-0.251 z m 606.4419,-1.0681 c 4.5175,-2.5249 8.4205,-6.2471 8.4205,-8.0304 0,-0.9114 0.5625,-1.6571 1.25,-1.6571 0.8309,0 1.25,-142.0833 1.25,-423.75 0,-281.6667 -0.4191,-423.75 -1.25,-423.75 -0.6875,0 -1.25,-0.7457 -1.25,-1.6571 0,-1.7832 -3.903,-5.5055 -8.4205,-8.0304 -2.2146,-1.2378 -64.6266,-1.5625 -300.3295,-1.5625 -235.7028,0 -298.1149,0.3247 -300.3295,1.5625 -4.5175,2.5249 -8.4205,6.2472 -8.4205,8.0304 0,0.9114 -0.5625,1.6571 -1.25,1.6571 -0.8309,0 -1.25,142.0833 -1.25,423.75 0,281.6667 0.4191,423.75 1.25,423.75 0.6875,0 1.25,0.7566 1.25,1.6813 0,1.8768 3.5623,5.417 7.8211,7.7727 4.1302,2.2845 597.1767,2.5149 601.2584,0.2335 z m -573.4545,-40.7632 c -2.0625,-1.274 -4.875,-3.5809 -6.25,-5.1266 -2.4885,-2.7972 -2.5,-4.5802 -2.5,-387.5782 l 0,-384.7681 3.125,-3.3445 c 6.8764,-7.3593 -13.5457,-6.8569 278.75,-6.8569 292.2957,0 271.8736,-0.5024 278.75,6.8569 l 3.125,3.3445 0,384.7986 0,384.7986 -3.125,3.3445 c -6.8766,7.3595 13.5699,6.8573 -279.0004,6.8522 -259.8255,0 -269.2542,-0.085 -272.8746,-2.321 z m 545.0568,-9.4925 3.0682,-3.0682 0,-380.1136 0,-380.1136 -3.0682,-3.0682 -3.0682,-3.0682 -268.8636,0 -268.8636,0 -3.0682,3.0682 -3.0682,3.0682 0,380.1136 0,380.1136 3.0682,3.0682 3.0682,3.0682 268.8636,0 268.8636,0 3.0682,-3.0682 z m -63.9141,-46.3005 c -2.9632,-2.9632 -3.1034,-3.7495 -2.8116,-15.7627 0.3404,-14.0151 1.2562,-15.509 7.3136,-11.9308 1.9201,1.1342 5.9781,2.0622 9.0178,2.0622 8.3329,0 10.9625,3.4061 10.9625,14.1999 0,7.2664 -0.4184,8.8321 -3.0682,11.4819 -2.5859,2.586 -4.2648,3.0682 -10.6818,3.0682 -6.4505,0 -8.0901,-0.4765 -10.7323,-3.1187 z m 15.4851,-11.5688 c 0.2968,-5.1555 -0.022,-6.5625 -1.4887,-6.5625 -1.0266,0 -2.2142,0.5625 -2.6391,1.25 -0.4249,0.6875 -1.8643,1.25 -3.1988,1.25 -1.9797,0 -2.4262,0.8819 -2.4262,4.7917 0,5.8618 0.7355,6.6796 5.5801,6.205 3.6415,-0.3567 3.8102,-0.637 4.1727,-6.9342 z m -24.0032,-31.8129 c -4.6162,-4.6162 -6.6146,-11.1331 -5.174,-16.8728 0.9135,-3.6397 21.1191,-24.1268 23.7953,-24.1268 0.8754,0 2.5021,1.3896 3.6149,3.0879 1.1128,1.6984 5.0651,5.3845 8.7828,8.1915 6.9856,5.2741 10.7314,11.1022 10.7314,16.6967 0,5.5879 -3.8283,13.2502 -7.5929,15.1969 -5.0583,2.6158 -7.9306,2.2769 -12.3711,-1.4596 l -3.9059,-3.2865 -2.8126,2.6423 c -1.547,1.4533 -4.602,3.0002 -6.789,3.4376 -3.3995,0.6799 -4.6006,0.1711 -8.2789,-3.5072 z m -179.9981,-192.8199 -3.3787,-4.4297 -18.1542,0 -18.1542,0 -7.4072,-7.0653 -7.4072,-7.0652 0,-23.3061 0,-23.306 4.6875,-4.4214 c 10.7101,-10.1019 9.8721,-9.836 30.9968,-9.836 l 19.0971,0 7.4736,6.2448 c 4.1104,3.4346 7.8158,7.1368 8.2343,8.2272 0.4184,1.0904 0.7607,11.737 0.7607,23.6593 0,21.4477 -0.034,21.7172 -3.2079,25.4892 l -3.2079,3.8124 4.5035,5.8979 c 6.1928,8.1106 5.5887,9.7061 -3.8477,10.1614 -7.4155,0.3579 -7.6961,0.2541 -10.9885,-4.0625 z m -17.6316,-21.6172 c -2.2552,-5.4961 -1.6741,-5.9375 7.8183,-5.9375 l 9.0631,0 -6e-4,-15.5266 c -9e-4,-20.4656 0.3263,-20.0984 -17.9085,-20.0984 -18.9341,0 -18.3422,-0.7099 -18.3422,21.9979 0,21.104 0.3847,21.7521 12.9119,21.7521 6.5139,0 7.2529,-0.2503 6.458,-2.1875 z m -44.7902,-62.1614 c -1.3001,-1.3001 -1.6541,-3.4331 -1.1928,-7.1875 0.982,-7.9907 4.0799,-12.5738 9.802,-14.5012 6.8644,-2.3121 45.8158,-3.3808 59.8083,-1.6409 12.0008,1.4923 16.4408,3.5375 18.3008,8.4298 1.939,5.1 1.8482,14.3233 -0.1536,15.5904 -0.9732,0.616 -20.4323,1.1286 -43.2426,1.1392 -34.9557,0.016 -41.7638,-0.2714 -43.3221,-1.8298 z m 6.0011,-31.0936 c -1.0837,-1.5471 -1.3946,-4.5336 -0.9353,-8.9838 0.6856,-6.6425 0.6675,-6.685 -5.0708,-11.9072 -6.529,-5.942 -10.8247,-13.7849 -10.8247,-19.7636 0,-2.2317 1.473,-7.1713 3.2733,-10.9769 3.5645,-7.5346 11.031,-13.4632 18.7886,-14.9185 6.8467,-1.2845 15.9708,1.6709 22.2659,7.2121 3.1197,2.7461 5.6722,4.6526 5.6722,4.2368 0,-0.4158 -1.3553,-4.0916 -3.0119,-8.1683 -4.2743,-10.5193 -4.9635,-14.6225 -3.1795,-18.9296 3.2426,-7.8283 14.6573,-9.4173 19.8872,-2.7684 3.3155,4.2149 3.2203,7.1644 -0.5708,17.6741 -1.7187,4.7648 -3.125,9.0055 -3.125,9.4238 0,0.4183 2.3906,-0.9239 5.3125,-2.9826 6.9065,-4.8661 18.1651,-7.0852 25.6339,-5.0525 9.3747,2.5514 17.8659,14.4967 17.7762,25.0073 -0.042,4.8957 -4.0454,12.478 -10.5673,20.0135 -5.7301,6.6205 -5.8647,6.9646 -5.1348,13.125 1.2442,10.5015 3.154,9.9982 -38.1003,10.0397 -34.1155,0.034 -36.5708,-0.1128 -38.0894,-2.2809 z m 58.1243,-32.37 c 0.086,-4.2018 -2.2361,-2.14 -4.2241,3.75 l -2.0041,5.9375 3.0916,-3.75 c 1.7004,-2.0625 3.1118,-4.7344 3.1366,-5.9375 z m -37.5915,2.2811 c -1.6651,-4.605 -3.6136,-5.9617 -3.6136,-2.5162 0,1.9728 4.0121,8.1501 4.8023,7.3938 0.2349,-0.225 -0.2999,-2.4199 -1.1887,-4.8776 z m 17.6364,-18.2186 c 0,-0.6875 -0.5957,-1.25 -1.3238,-1.25 -0.728,0 -0.9761,0.5625 -0.5512,1.25 0.4249,0.6875 1.0206,1.25 1.3238,1.25 0.3032,0 0.5512,-0.5625 0.5512,-1.25 z m -224.2358,-194.3379 c -1.1128,-1.6984 -5.0651,-5.3845 -8.7828,-8.1915 -6.9856,-5.2741 -10.7314,-11.1022 -10.7314,-16.6967 0,-5.5879 3.8283,-13.2502 7.5929,-15.1969 5.0583,-2.6158 7.9306,-2.2769 12.3712,1.4596 l 3.9058,3.2865 2.8126,-2.6423 c 1.547,-1.4533 4.6021,-3.0002 6.7891,-3.4376 7.7351,-1.547 15.865,10.7691 13.4528,20.3801 -0.9135,3.6396 -21.1191,24.1267 -23.7953,24.1267 -0.8754,0 -2.5021,-1.3896 -3.6149,-3.0879 z m 11.155,-51.8406 c -0.4492,-0.7268 -3.4709,-1.3215 -6.7148,-1.3215 -5.5111,0 -10.6733,-2.2052 -12.9978,-5.5525 -1.1202,-1.6132 -1.2579,-15.9579 -0.1801,-18.7665 2.0064,-5.2285 14.7047,-7.4356 21.7675,-3.7833 4.5856,2.3714 5.1893,4.7841 4.6961,18.7695 -0.3653,10.3593 -0.5981,11.2369 -3.0747,11.5918 -1.4737,0.2112 -3.047,-0.2107 -3.4962,-0.9375 z m -0.6692,-17.4477 c 0,-4.249 -2.0835,-6.3738 -6.25,-6.3738 -4.4408,0 -6.25,2.1711 -6.25,7.5 0,6.658 1.8379,7.805 7.6512,4.7749 3.8098,-1.9858 4.8488,-3.2502 4.8488,-5.9011 z"
         id="path4172"
         inkscape:connector-curvature="0" />
      <path
         style="fill:#ee8cb3"
         d="m 1328.5549,1971.7574 c -0.7938,-0.5051 135.6994,-0.9184 303.3181,-0.9184 167.6187,0 304.1119,0.4133 303.3181,0.9184 -0.7937,0.5051 -137.2868,0.9183 -303.3181,0.9183 -166.0312,0 -302.5244,-0.4132 -303.3181,-0.9183 z m -8.4232,-8.5206 c -1.0958,-2.8558 -0.899,-852.1172 0.1979,-853.8409 0.5051,-0.7938 0.9184,191.4406 0.9184,427.1875 0,235.7468 -0.08,428.6306 -0.1788,428.6306 -0.098,0 -0.5202,-0.8898 -0.9375,-1.9772 z M 1942.498,1536.464 c 0,-235.6812 0.4133,-427.8619 0.9184,-427.0681 1.2008,1.8869 1.2008,852.2493 0,854.1362 -0.5051,0.7938 -0.9184,-191.3869 -0.9184,-427.0681 z m -583.9166,391.3524 c -2.1541,-1.3135 -4.826,-3.6866 -5.9375,-5.2734 -1.8505,-2.642 -2.0209,-35.1991 -2.0209,-386.1886 l 0,-383.3033 2.6104,-3.3185 c 5.9356,-7.5459 -14.9992,-7.0186 278.6396,-7.0186 293.6388,0 272.704,-0.5273 278.6396,7.0186 l 2.6104,3.3185 0,383.4129 0,383.4128 -2.6104,3.3186 c -5.9358,7.5462 15.0246,7.019 -278.89,7.0139 -262.722,0 -269.2178,-0.062 -273.0412,-2.3929 z m 546.0694,-7.3246 2.8472,-2.8472 0,-381.1806 0,-381.1806 -2.8472,-2.8472 -2.8472,-2.8472 -269.9306,0 -269.9306,0 -2.8472,2.8472 -2.8472,2.8472 -0.2974,379.6528 c -0.2374,302.9488 0.02,380.2792 1.2746,382.7532 0.8646,1.7052 2.9672,3.8084 4.6724,4.6737 2.4687,1.2529 57.7891,1.5126 271.5032,1.2747 l 268.4029,-0.2988 2.8471,-2.8472 z m -63.8848,-48.2505 c -2.5409,-2.7048 -2.7596,-4.0145 -2.4257,-14.5264 0.3698,-11.6422 1.5749,-14.3652 5.1111,-11.5489 0.8506,0.6775 4.5054,1.5022 8.1218,1.8326 9.5865,0.876 11.5498,3.1608 11.5498,13.4412 0,10.9837 -2.5679,13.7742 -12.6752,13.7742 -5.638,0 -7.3962,-0.5398 -9.6818,-2.9727 z m 14.1298,-2.786 c 1.4667,-0.5629 1.9772,-2.5094 1.9772,-7.5393 0,-8.0042 -1.6342,-9.2408 -8.1351,-6.156 -4.0046,1.9003 -4.3649,2.5222 -4.3649,7.5335 0,3.2001 0.6471,5.7233 1.5625,6.0926 2.2621,0.9128 6.6731,0.9468 8.9603,0.069 z m -21.6267,-38.7797 c -3.3255,-2.3293 -6.3961,-8.8623 -6.3961,-13.6085 0,-5.2235 2.9848,-9.4574 13.0523,-18.5145 l 9.4887,-8.5363 10.5226,9.5531 c 11.1354,10.1094 12.8757,13.3708 11.3824,21.3305 -0.4375,2.3323 -2.2293,5.9446 -3.9818,8.0273 -4.0236,4.7817 -8.8655,4.9706 -14.1183,0.5507 l -3.8459,-3.2361 -3.8459,3.2361 c -4.433,3.7301 -8.1272,4.0911 -12.258,1.1977 z m -181.7619,-194.8366 -3.4908,-4.375 -18.1465,0 -18.1465,0 -6.8002,-6.4313 -6.8002,-6.4313 0,-23.5231 0,-23.5232 7.5649,-6.2955 7.5649,-6.2956 19.2684,0 19.2684,0 6.6042,5.8254 c 3.6323,3.204 7.0175,6.4384 7.5226,7.1875 0.5051,0.7492 0.9269,11.4563 0.9375,23.7937 l 0.019,22.4316 -3.2606,3.4033 -3.2606,3.4033 4.5106,5.9074 c 6.301,8.2521 5.9999,9.2978 -2.6769,9.2978 -6.716,-10e-5 -7.4165,-0.2871 -10.6783,-4.375 z m -15.5117,-17.6642 c 0.4341,-0.4341 -0.035,-1.9655 -1.0416,-3.4031 -1.007,-1.4377 -1.8309,-3.0513 -1.8309,-3.5858 0,-1.4543 14.7281,-1.1732 15.6376,0.2985 2.1453,3.4712 3.1124,-1.6793 3.1124,-16.5761 0,-15.1263 -0.2123,-16.6342 -2.7179,-19.3012 -2.5218,-2.6844 -3.7107,-2.8931 -16.4819,-2.8931 -12.4115,0 -14.0484,0.2671 -16.6571,2.7179 -2.7617,2.5944 -2.8931,3.5272 -2.8931,20.5343 0,17.7584 0.011,17.8248 3.2936,20.4071 2.5274,1.9881 5.0959,2.5907 11.0416,2.5907 4.2615,0 8.1033,-0.3551 8.5373,-0.7892 z m -46.5439,-65.991 c -1.6839,-2.0291 -0.7103,-9.4351 1.9255,-14.6468 2.5712,-5.084 7.9224,-6.2111 32.9959,-6.9503 29.1773,-0.8601 44.4676,0.7475 48.2468,5.0727 3.1099,3.5592 4.9221,14.1175 2.8513,16.6126 -2.1303,2.5669 -83.8855,2.483 -86.0195,-0.088 z m 7.3856,-29.5056 c -2.1103,-2.1103 -2.3633,-3.5089 -1.6824,-9.3015 l 0.8012,-6.8177 -6.4442,-6.2112 c -6.9927,-6.7398 -10.1543,-12.7297 -10.1113,-19.1561 0.068,-10.0894 10.2735,-22.4641 19.8636,-24.0843 11.4564,-1.9355 20.5744,2.7734 30.2101,15.602 l 3.2262,4.2952 4.4605,-6.9729 c 4.9502,-7.7385 11.3939,-11.7394 21.0351,-13.0609 14.9057,-2.043 27.389,9.2784 27.42,24.8678 0.01,4.7176 -2.8839,10.0448 -10.2827,18.9329 -6.0903,7.3163 -6.1745,7.5338 -5.3787,13.9032 1.0182,8.1492 -1.0721,10.9279 -7.1925,9.5609 -5.2585,-1.1745 -54.0722,-1.1623 -59.3526,0.015 -3.2169,0.7171 -4.6181,0.3819 -6.5723,-1.5723 z m 20.2452,-29.4393 c -2.4397,-6.211 -5.4311,-8.0661 -6.2393,-3.8694 -0.2416,1.2543 0.4324,3.2436 1.4977,4.4208 1.0653,1.1771 2.9238,4.3696 4.13,7.0945 2.0565,4.6454 2.2192,4.7532 2.6102,1.7291 0.2294,-1.7739 -0.67,-5.9926 -1.9986,-9.375 z m 32.201,6.6626 c 1.39,-2.9219 3.1934,-6.2204 4.0074,-7.3301 1.5796,-2.1532 0.7249,-6.1074 -1.3201,-6.1074 -2.276,0 -6.9379,12.343 -6.4916,17.1875 0.2466,2.6778 1.1876,1.7503 3.8043,-3.75 z m -22.452,-39.3558 c -5.9106,-14.1978 -6.1592,-18.0732 -1.461,-22.7714 4.8216,-4.8216 10.3267,-5.0999 14.6844,-0.7421 1.6875,1.6875 3.0682,4.4803 3.0682,6.2063 0,6.3395 -8.1565,26.9755 -10.6623,26.9755 -0.8824,0 -3.4156,-4.3508 -5.6293,-9.6683 z M 1402.219,1271.7326 c -6.2441,-5.8581 -10.5915,-10.9962 -11.0751,-13.0893 -2.0012,-8.6621 4.0139,-19.6793 10.7443,-19.6793 1.9879,0 5.231,1.4204 7.3889,3.2361 l 3.8459,3.2361 3.8459,-3.2361 c 5.0056,-4.2119 9.2212,-4.1113 13.6583,0.3258 3.8901,3.8901 5.7583,10.712 4.414,16.1174 -0.7226,2.9053 -19.8781,22.7831 -21.9182,22.7446 -0.3437,-0.01 -5.2506,-4.3514 -10.904,-9.6553 z m 17.779,-45.2686 c -0.4249,-0.6875 -3.476,-1.25 -6.7802,-1.25 -4.185,0 -7.0069,-0.786 -9.3012,-2.5907 -2.9858,-2.3487 -3.2936,-3.3914 -3.2936,-11.1593 0,-7.7679 0.3078,-8.8106 3.2936,-11.1593 4.5301,-3.5633 13.9068,-3.5444 18.4601,0.037 3.2621,2.566 3.3338,2.9195 3.0403,15 -0.2624,10.8029 -0.5761,12.3721 -2.4735,12.3721 -1.1951,0 -2.5206,-0.5625 -2.9455,-1.25 z m -6.25,-8.75 c 0.4249,-0.6875 1.8952,-1.25 3.2673,-1.25 2.1963,0 2.4491,-0.7103 2.1137,-5.9375 l -0.381,-5.9375 -5.625,0 -5.625,0 -0.3914,5.4555 c -0.2152,3.0005 -0.092,6.2349 0.2733,7.1875 0.7664,1.9971 5.2233,2.3344 6.3681,0.482 z m -85.1931,-116.5434 c 1.8868,-1.2007 604.7494,-1.2007 606.6362,0 0.7938,0.5051 -135.6994,0.9184 -303.3181,0.9184 -167.6187,0 -304.1119,-0.4133 -303.3181,-0.9184 z"
         id="path4170"
         inkscape:connector-curvature="0" />
      <path
         style="fill:#e85c94"
         d="m 1328.5549,1971.7574 c -0.7938,-0.5051 135.6994,-0.9184 303.3181,-0.9184 167.6187,0 304.1119,0.4133 303.3181,0.9184 -0.7937,0.5051 -137.2868,0.9183 -303.3181,0.9183 -166.0312,0 -302.5244,-0.4132 -303.3181,-0.9183 z m -8.4232,-8.5206 c -1.0958,-2.8558 -0.899,-852.1172 0.1979,-853.8409 0.5051,-0.7938 0.9184,191.4406 0.9184,427.1875 0,235.7468 -0.08,428.6306 -0.1788,428.6306 -0.098,0 -0.5202,-0.8898 -0.9375,-1.9772 z M 1942.498,1536.464 c 0,-235.6812 0.4133,-427.8619 0.9184,-427.0681 1.2008,1.8869 1.2008,852.2493 0,854.1362 -0.5051,0.7938 -0.9184,-191.3869 -0.9184,-427.0681 z m -580.047,392.4203 c -2.0883,-0.6073 -5.4633,-2.8435 -7.5,-4.9693 l -3.703,-3.8652 0,-383.5858 0,-383.5858 3.6789,-3.84 c 2.0235,-2.112 5.6797,-4.3958 8.125,-5.0751 6.1027,-1.6954 531.5395,-1.6954 537.6422,0 2.4453,0.6793 6.1015,2.9631 8.125,5.0751 l 3.6789,3.84 0,383.5858 0,383.5858 -3.6789,3.84 c -2.0235,2.112 -5.6797,4.3958 -8.125,5.0751 -5.6674,1.5744 -532.8235,1.4955 -538.2431,-0.081 z m 542.6038,-7.9885 3.0682,-3.0682 0,-381.3636 0,-381.3636 -3.0682,-3.0682 -3.0682,-3.0682 -270.1136,0 -270.1136,0 -3.0682,3.0682 -3.0682,3.0682 0,381.3636 0,381.3636 3.0682,3.0682 3.0682,3.0682 270.1136,0 270.1136,0 3.0682,-3.0682 z m -64.3179,-48.6695 c -0.9018,-1.0867 -1.3743,-6.2792 -1.2609,-13.8587 0.1764,-11.7897 0.2543,-12.0964 2.8517,-11.2264 1.4687,0.4919 5.4828,1.1586 8.9203,1.4816 9.1677,0.8613 10.625,2.7006 10.625,13.4099 0,5.2799 -0.6132,9.5445 -1.5,10.4313 -2.1624,2.1624 -17.8012,1.9731 -19.6361,-0.2377 z m 15.8861,-3.5123 c 2.189,-2.189 1.8745,-11.6969 -0.4643,-14.0357 -2.4386,-2.4386 -1.9751,-2.477 -7.9972,0.6619 -4.5033,2.3472 -5.0385,3.1174 -5.0385,7.25 0,5.8021 1.7922,7.6238 7.5,7.6238 2.475,0 5.175,-0.675 6,-1.5 z m 1.5,-36.8796 c -1.0312,-0.3753 -3.4219,-2.1236 -5.3125,-3.8852 l -3.4375,-3.2029 -3.5059,3.3588 c -6.8773,6.5889 -15.0025,3.5404 -17.749,-6.6592 -1.2046,-4.4738 -1.0345,-5.8776 1.2956,-10.691 1.4753,-3.0475 3.1306,-5.5409 3.6785,-5.5409 0.5478,0 4.5347,-3.4092 8.8597,-7.576 l 7.8637,-7.5761 2.9208,3.7322 c 1.6064,2.0526 5.6663,5.7475 9.0219,8.2107 6.5684,4.8217 10.7934,12.6037 9.4484,17.4032 -1.9255,6.8709 -3.7043,9.8128 -6.9477,11.49 -1.9315,0.9988 -3.6804,1.7716 -3.8864,1.7173 -0.206,-0.054 -1.2183,-0.4057 -2.2496,-0.7809 z m -205.5452,-195.9954 -4.0073,-4.375 -17.9237,0 -17.9238,0 -7.3,-7.3 -7.3,-7.3 0,-21.6402 0,-21.6402 6.6848,-6.6848 6.6848,-6.6848 20.5242,0 20.5241,0 6.5411,5.7219 6.541,5.722 0,23.4593 c 0,21.8718 -0.1692,23.6124 -2.5,25.7218 -3.4078,3.084 -3.1556,5.0625 1.3744,10.782 4.9024,6.1898 4.1391,8.593 -2.7291,8.593 -4.3269,0 -5.8451,-0.7227 -9.1905,-4.375 z m -15.7048,-18.5 c 0,-0.8937 -0.626,-2.251 -1.3911,-3.0161 -0.7651,-0.7651 -1.0131,-2.0026 -0.5512,-2.75 1.1472,-1.8562 10.147,-1.7179 13.2474,0.2036 4.1992,2.6024 5.0467,-0.7088 4.6673,-18.2362 -0.3431,-15.8499 -0.3909,-16.0861 -3.8546,-19.0625 -3.2185,-2.7657 -4.5739,-3.0138 -16.4666,-3.0138 -12.1183,0 -13.209,0.21 -16.8053,3.2361 l -3.8459,3.2361 0,17.4486 c 0,17.263 0.035,17.4812 3.3075,20.5139 2.8875,2.676 4.475,3.0653 12.5,3.0653 6.7092,0 9.1925,-0.439 9.1925,-1.625 z m -47.5,-69.0401 c 0,-5.7289 2.8786,-12.5306 6.0131,-14.2081 5.1709,-2.7674 36.2763,-4.3934 54.5956,-2.854 22.4195,1.884 25.6413,3.9646 25.6413,16.5586 l 0,4.9186 -43.125,0 -43.125,0 0,-4.4151 z m 7.6025,-26.0864 c -1.185,-1.4279 -1.4295,-3.8463 -0.8388,-8.2986 l 0.8335,-6.2836 -7.0146,-7.3541 c -9.0962,-9.5364 -11.2922,-15.9689 -8.5751,-25.1184 2.3683,-7.9749 9.7399,-15.7048 16.118,-16.9014 12.5824,-2.3604 21.8375,1.628 29.4489,12.6908 2.1412,3.112 4.6439,5.4858 5.5616,5.275 0.9176,-0.2107 3.5406,-3.1636 5.8288,-6.5619 5.5058,-8.1773 12.6378,-11.9463 22.6054,-11.9463 14.0725,0 22.1865,7.4073 23.1815,21.1626 0.6137,8.4852 -0.9564,12.138 -9.2134,21.435 -5.4798,6.1699 -5.6527,6.6127 -5.3931,13.8067 0.1475,4.0878 -0.3008,8.0013 -0.9961,8.6966 -0.8525,0.8525 -6.7228,0.7958 -18.0192,-0.1738 -15.3342,-1.3163 -26.0867,-1.1101 -44.93,0.8618 -5.471,0.5725 -7.2762,0.3015 -8.5974,-1.2904 z m 23.6475,-19.3873 c 0,-3.7342 -5.1021,-16.1329 -6.927,-16.8332 -3.1759,-1.2187 -4.697,2.5264 -2.5768,6.3447 1.0696,1.9263 2.9424,5.606 4.1617,8.1771 2.3622,4.9807 5.3421,6.27 5.3421,2.3114 z m 29.0803,-2.3114 c 1.213,-2.5711 3.0047,-6.0454 3.9816,-7.7206 1.8288,-3.1358 0.7147,-7.5792 -1.9003,-7.5792 -1.5337,0 -6.1347,10.385 -7.061,15.9375 -0.9569,5.7362 2.1612,5.3369 4.9797,-0.6377 z m -19.1021,-32.8406 c -3.2843,-6.1368 -7.4782,-19.0987 -7.4782,-23.1127 0,-5.8977 3.6185,-9.3465 9.8063,-9.3465 6.09,0 9.4101,3.3683 9.1864,9.3196 -0.1708,4.5442 -7.1312,23.9049 -9.0119,25.0673 -0.608,0.3757 -1.7341,-0.4917 -2.5026,-1.9277 z m -220.464,-189.2971 c -1.1128,-1.6984 -5.0662,-5.3854 -8.7853,-8.1934 -7.217,-5.4489 -11.4458,-12.9767 -10.0626,-17.9127 1.9238,-6.8651 3.7027,-9.8119 6.9306,-11.4811 4.0717,-2.1055 6.715,-1.4215 11.4656,2.9672 l 3.4375,3.1756 3.5059,-3.3588 c 6.8773,-6.5889 15.0025,-3.5403 17.749,6.6592 1.2046,4.4738 1.0345,5.8776 -1.2956,10.691 -1.4753,3.0475 -3.1306,5.5409 -3.6785,5.5409 -0.5478,0 -4.4992,3.375 -8.7808,7.5 -4.2816,4.125 -7.9372,7.5 -8.1236,7.5 -0.1864,0 -1.2494,-1.3896 -2.3622,-3.0879 z m 9.2358,-53.1621 c -1.0312,-0.6664 -4.5469,-1.2203 -7.8125,-1.2309 -8.502,-0.027 -10.9375,-2.8151 -10.9375,-12.5191 0,-10.2176 2.2824,-12.5 12.5,-12.5 11.968,0 14.1301,4.0083 11.7051,21.7005 -0.7978,5.8206 -1.9724,6.8002 -5.4551,4.5495 z m -3.545,-7.1156 c 4.4384,-1.9582 4.795,-2.4974 4.795,-7.25 0,-6.3111 -1.6811,-8.1344 -7.5,-8.1344 -2.475,0 -5.175,0.675 -6,1.5 -1.9448,1.9448 -1.9448,12.5552 0,14.5 1.9729,1.9729 3.0032,1.9 8.705,-0.6156 z m -87.2731,-116.9278 c 1.8868,-1.2007 604.7494,-1.2007 606.6362,0 0.7938,0.5051 -135.6994,0.9184 -303.3181,0.9184 -167.6187,0 -304.1119,-0.4133 -303.3181,-0.9184 z"
         id="path4168"
         inkscape:connector-curvature="0" />
      <path
         style="fill:#e22d75"
         d="m 1480.9355,1971.7766 c 83.0156,-0.1775 218.8594,-0.1775 301.875,0 83.0156,0.1774 15.0938,0.3225 -150.9375,0.3225 -166.0312,0 -233.9531,-0.1451 -150.9375,-0.3225 z M 1319.9908,1536.464 c 0,-234.0937 0.1438,-329.8594 0.3197,-212.8125 0.1758,117.0469 0.1758,308.5781 0,425.625 -0.1759,117.0469 -0.3197,21.2813 -0.3197,-212.8125 z m 623.75,0 c 0,-234.0937 0.1438,-329.8594 0.3197,-212.8125 0.1758,117.0469 0.1758,308.5781 0,425.625 -0.1759,117.0469 -0.3197,21.2813 -0.3197,-212.8125 z m -583.9094,390.1024 c -2.1541,-1.3135 -4.826,-3.6866 -5.9375,-5.2734 -1.8505,-2.642 -2.0209,-35.1004 -2.0209,-384.9386 l 0,-382.0533 2.6104,-3.3185 c 5.9351,-7.5453 -14.8812,-7.0186 277.3896,-7.0186 292.2709,0 271.4545,-0.5267 277.3896,7.0186 l 2.6104,3.3185 0,382.1629 0,382.1628 -2.6104,3.3186 c -5.9353,7.5455 14.9066,7.019 -277.64,7.0139 -261.4915,0 -267.9679,-0.062 -271.7912,-2.3929 z m 542.5254,-2.5487 c 1.7305,-0.658 4.0172,-2.88 5.0813,-4.9379 1.734,-3.3532 1.9349,-43.0732 1.9349,-382.6158 0,-339.5426 -0.2009,-379.2626 -1.9349,-382.6158 -1.0641,-2.0579 -3.3508,-4.2799 -5.0813,-4.9379 -4.28,-1.6272 -536.6876,-1.6272 -540.9676,0 -1.7305,0.658 -4.0172,2.88 -5.0813,4.9379 -1.734,3.3532 -1.9349,43.0732 -1.9349,382.6158 0,340.0118 0.199,379.2591 1.9405,382.6266 1.0672,2.0638 3.1766,4.2502 4.6875,4.8587 3.8361,1.5448 537.2951,1.6123 541.3558,0.069 z m -60.4838,-52.5537 c -2.6622,-2.6622 -3.1834,-8.415 -1.7259,-19.049 0.7731,-5.6399 0.7789,-5.6455 4.0625,-3.9322 1.8086,0.9437 5.5919,1.7193 8.4072,1.7235 7.1059,0.011 9.2562,2.7215 9.2562,11.6686 0,9.3768 -2.524,12.0891 -11.25,12.0891 -4.5833,0 -6.9167,-0.6667 -8.75,-2.5 z m 14.9125,-1.7695 c 0.8661,-1.0437 1.3135,-4.7612 1.0905,-9.0625 -0.3394,-6.5481 -0.6746,-7.335 -3.2821,-7.7045 -1.5973,-0.2262 -4.8317,0.5033 -7.1875,1.6212 -3.992,1.8943 -4.2834,2.4368 -4.2834,7.9739 0,3.2678 0.675,6.6164 1.5,7.4414 2.0709,2.0709 10.3728,1.8869 12.1625,-0.2695 z m -24.2615,-41.2158 c -1.6419,-1.642 -3.3596,-4.9803 -3.817,-7.4186 -1.3751,-7.3302 1.2721,-12.7045 9.3011,-18.8827 3.9544,-3.0428 8.0411,-6.8145 9.0815,-8.3814 l 1.8917,-2.8491 4.9672,4.9461 c 2.7319,2.7203 7.2747,6.9174 10.0951,9.327 2.8203,2.4095 5.5164,5.9288 5.9912,7.8207 1.9923,7.9378 -3.3073,18.4233 -9.3115,18.4233 -1.3823,0 -4.5016,-1.7458 -6.9318,-3.8795 l -4.4185,-3.8795 -4.4185,3.8795 c -5.3028,4.656 -8.4428,4.8818 -12.4305,0.8942 z m -180.3143,-193.8897 -3.8734,-4.375 -17.9191,-0.024 -17.9192,-0.024 -6.5625,-6.2079 -6.5625,-6.208 0,-22.2521 0,-22.2521 6.2941,-6.203 6.2941,-6.203 18.2189,-0.407 c 20.9464,-0.4679 23.1173,0.1044 30.4115,8.0177 l 5.0314,5.4584 0,21.41 c 0,21.0137 -0.058,21.4788 -3.125,25.1239 -1.7187,2.0426 -3.125,4.1523 -3.125,4.6882 0,0.5358 1.9428,3.5187 4.3173,6.6285 2.3745,3.1097 3.9682,6.0031 3.5416,6.4297 -0.4265,0.4266 -3.1096,0.7756 -5.9622,0.7756 -4.3565,0 -5.8066,-0.7002 -9.06,-4.375 z m -14.4241,-16.5625 c -0.3459,-1.2031 -1.0572,-3.2318 -1.5806,-4.5081 -0.868,-2.1167 -0.4136,-2.2681 5.1707,-1.7233 3.3673,0.3285 7.3879,1.0165 8.9348,1.5289 l 2.8125,0.9316 0,-18.6779 c 0,-18.4624 -0.037,-18.7129 -3.2257,-21.7083 -3.0224,-2.8394 -4.1192,-3.0304 -17.3993,-3.0304 -13.2801,0 -14.3769,0.191 -17.3993,3.0304 -3.1804,2.9878 -3.2257,3.2854 -3.2257,21.1816 0,17.9951 0.029,18.1813 3.3589,21.6571 3.1271,3.2641 4.0426,3.5059 13.2708,3.5059 8.8462,0 9.8443,-0.2352 9.2829,-2.1875 z m -46.3125,-66.129 c -0.4675,-0.4676 -0.8501,-3.2563 -0.8501,-6.1971 0,-8.8977 3.3329,-11.4582 16.875,-12.9645 14.2457,-1.5846 36.8837,-1.6062 50.625,-0.048 9.1266,1.0347 11.0305,1.6705 13.5002,4.5081 2.2811,2.621 2.7976,4.5008 2.5,9.0984 l -0.3752,5.795 -40.7124,0.3293 c -22.3918,0.1811 -41.0949,-0.053 -41.5625,-0.5208 z m 5.3206,-31.8316 c -0.5955,-1.1128 -0.8209,-2.285 -0.5008,-2.6051 0.32,-0.32 0.6748,-2.9537 0.7884,-5.8525 0.1872,-4.7783 -0.3915,-5.8778 -6.1945,-11.77 -6.4932,-6.5929 -10.2737,-13.4693 -10.2516,-18.6466 0.019,-4.4603 5.5638,-15.2661 9.3694,-18.2595 7.4087,-5.8278 19.3664,-6.2475 27.2192,-0.9555 2.1801,1.4691 6.0795,5.4704 8.6653,8.8918 2.5858,3.4213 5.5484,6.2205 6.5834,6.2205 1.035,0 3.7141,-2.7962 5.9537,-6.2138 12.601,-19.2297 40.0465,-16.304 44.7631,4.7718 1.9737,8.8196 0.4165,13.4478 -7.6111,22.6214 -6.8632,7.8431 -7.7399,10.0462 -7.2003,18.0956 l 0.3701,5.5209 -35.4358,0.1021 c -31.4389,0.091 -35.5579,-0.1261 -36.5185,-1.9211 z m 24.4147,-15.9772 c 0.4173,-1.3148 -0.7324,-6.0881 -2.5751,-10.6911 -2.783,-6.9519 -3.7642,-8.2536 -5.9822,-7.9371 -3.9273,0.5603 -4.0401,5.3946 -0.2532,10.859 1.7738,2.5596 3.2251,5.5143 3.2251,6.5659 0,4.0717 4.3758,5.0144 5.5854,1.2033 z m 28.239,-1.5374 c 0.4836,-1.8083 2.1201,-4.9661 3.6367,-7.0173 1.5498,-2.0963 2.5727,-5.0303 2.3356,-6.6995 -0.4768,-3.3581 -4.5333,-4.7841 -6.2037,-2.181 -2.6483,4.1273 -6.0976,15.3266 -5.3987,17.5288 1.0666,3.3606 4.5664,2.3468 5.6301,-1.631 z m -19.486,-38.1103 c -4.748,-11.0615 -6.8794,-18.6948 -6.1488,-22.0211 0.8646,-3.9367 4.8548,-7.2059 8.795,-7.2059 4.0079,0 9.2654,4.6847 9.2654,8.2561 0,3.1318 -6.9884,22.7157 -8.8215,24.7209 -0.5541,0.6061 -1.9447,-1.0814 -3.0901,-3.75 z m -221.9191,-188.9987 c -2.4506,-2.5318 -6.7646,-6.5747 -9.5867,-8.9842 -2.8221,-2.4096 -5.5196,-5.9289 -5.9944,-7.8208 -1.9923,-7.9378 3.3073,-18.4233 9.3115,-18.4233 1.3823,0 4.5016,1.7458 6.9318,3.8795 l 4.4185,3.8795 4.4185,-3.8795 c 2.4302,-2.1337 5.5495,-3.8795 6.9318,-3.8795 3.6358,0 8.352,5.2672 9.3157,10.4039 1.3863,7.3898 -1.2637,12.698 -9.5053,19.0398 -4.0668,3.1293 -7.9801,6.7847 -8.6964,8.123 -1.7311,3.2347 -2.3303,3.049 -7.545,-2.3385 z m 13.4943,-49.7238 c -0.5288,-0.5329 -4.3363,-1.3669 -8.4611,-1.8533 -10.2814,-1.2122 -11.2025,-2.2319 -11.2025,-12.4012 0,-10.4273 1.3715,-11.875 11.25,-11.875 9.904,0 11.2852,1.4575 11.1021,11.7156 -0.1722,9.6448 -1.3191,15.7941 -2.6885,14.4139 z m -7.1636,-6.1295 c 0.8559,-1.0312 2.5521,-1.875 3.7693,-1.875 4.3395,0 5.2137,-9.767 1.2307,-13.75 -5.9213,-5.9213 -15,-1.3819 -15,7.5 0,7.6832 6.1916,12.7139 10,8.125 z m 66.5625,-119.0625 c 83.0156,-0.1774 218.8594,-0.1774 301.875,0 83.0156,0.1775 15.0938,0.3226 -150.9375,0.3226 -166.0312,0 -233.9531,-0.1451 -150.9375,-0.3226 z"
         id="path4166"
         inkscape:connector-curvature="0" />
      <path
         style="fill:#e01b6a"
         d="m 1480.9355,1971.7766 c 83.0156,-0.1775 218.8594,-0.1775 301.875,0 83.0156,0.1774 15.0938,0.3225 -150.9375,0.3225 -166.0312,0 -233.9531,-0.1451 -150.9375,-0.3225 z M 1319.9908,1536.464 c 0,-234.0937 0.1438,-329.8594 0.3197,-212.8125 0.1758,117.0469 0.1758,308.5781 0,425.625 -0.1759,117.0469 -0.3197,21.2813 -0.3197,-212.8125 z m 623.75,0 c 0,-234.0937 0.1438,-329.8594 0.3197,-212.8125 0.1758,117.0469 0.1758,308.5781 0,425.625 -0.1759,117.0469 -0.3197,21.2813 -0.3197,-212.8125 z m -584.597,389.1028 c -1.8447,-1.1444 -4.0947,-3.4646 -5,-5.156 -2.4567,-4.5905 -2.4423,-763.3301 0.015,-767.9209 0.9132,-1.7064 3.25,-4.0416 5.1928,-5.1893 3.2697,-1.9314 23.5383,-2.0866 272.5217,-2.0866 248.9834,0 269.252,0.1552 272.5217,2.0866 1.9428,1.1477 4.2796,3.4829 5.1929,5.1893 2.4698,4.615 2.4698,763.3332 0,767.9482 -0.9133,1.7064 -3.2501,4.0416 -5.1929,5.1893 -3.2702,1.9317 -23.5148,2.0841 -272.7146,2.0533 -248.888,-0.031 -269.435,-0.1901 -272.5363,-2.1139 z m 547.161,-3.421 3.0682,-3.0682 0,-382.6136 0,-382.6136 -3.0682,-3.0682 -3.0682,-3.0682 -271.3636,0 -271.3636,0 -3.0682,3.0682 -3.0682,3.0682 0,382.6136 0,382.6136 3.0682,3.0682 3.0682,3.0682 271.3636,0 271.3636,0 3.0682,-3.0682 z m -64.4163,-51.2881 c -1.4748,-1.777 -1.4638,-19.6121 0.013,-21.0889 0.3374,-0.3374 2.491,-0.2294 4.7859,0.24 l 4.1725,0.8533 -2.7497,2.4885 c -1.5123,1.3686 -2.9719,2.3478 -3.2435,2.1759 -2.282,-1.4443 -3.0742,0.532 -2.7436,6.8441 0.3244,6.1919 0.7961,7.3689 3.4999,8.7316 2.9039,1.4635 2.9368,1.5762 0.4655,1.5934 -1.4627,0.01 -3.3527,-0.8169 -4.2,-1.8379 z m 13.7345,0.2445 c 2.695,-1.3583 3.1762,-2.5456 3.4968,-8.6277 0.3147,-5.9705 -0.057,-7.4522 -2.4232,-9.6566 -1.5373,-1.4321 -2.1666,-2.6039 -1.3986,-2.6039 3.4887,0 5.325,4.0396 5.325,11.7143 0,8.2335 -1.3247,10.7978 -5.5625,10.7673 -2.292,-0.016 -2.2326,-0.1847 0.5625,-1.5934 z m -23.1425,-43.4076 c -1.4017,-1.5488 -2.4982,-5.1497 -2.8463,-9.3475 -0.6259,-7.5482 -1.8582,-5.7381 13.861,-20.36 l 5.7536,-5.3519 5.2323,4.7269 c 15.938,14.3985 15.2577,13.4237 14.6324,20.9647 -1.0017,12.0789 -8.7455,15.868 -16.061,7.8586 l -3.6795,-4.0286 -3.6795,4.0286 c -4.3412,4.753 -9.7213,5.3675 -13.213,1.5092 z m -180.9016,-194.3894 -4.6692,-4.3412 -17.2058,-0.01 -17.2059,-0.01 -5.9375,-5.0892 -5.9375,-5.0892 0,-22.7622 0,-22.7622 5.9804,-5.8905 5.9805,-5.8906 19.6981,0 19.6981,0 6.1965,5.7961 6.1964,5.796 0,22.7603 c 0,21.1727 -0.1744,22.918 -2.5,25.0226 -3.4281,3.1024 -3.1479,5.5015 1.3581,11.6288 l 3.8582,5.2462 -5.4207,-0.034 c -4.4321,-0.028 -6.2721,-0.8255 -10.0897,-4.375 z m -13.4559,-13.0722 c 1.5646,-0.9953 1.6094,-1.6213 0.2702,-3.7817 -0.8827,-1.424 -1.2714,-3.1286 -0.8638,-3.7882 1.1756,-1.9021 6.7486,-1.3966 10.7661,0.9766 5.4022,3.1912 6.0362,1.2173 6.0584,-18.8617 l 0.019,-17.311 -3.8822,-3.6265 c -3.817,-3.5656 -4.1229,-3.6265 -18.2211,-3.6265 -14.1817,0 -14.3791,0.04 -17.9928,3.6539 l -3.6539,3.6538 0,17.9873 0,17.9873 3.4375,3.2029 c 1.8906,1.7616 4.2813,3.5099 5.3125,3.8852 3.1917,1.1614 16.772,0.9069 18.75,-0.3514 z m -47.0544,-74.7065 c 0.8692,-6.5709 5.1546,-11.5593 9.9366,-11.5668 1.5085,0 9.07,-0.5969 16.8033,-1.3214 14.5783,-1.3656 44.5071,0.1301 50.8487,2.5412 3.0841,1.1725 5.6936,7.3307 5.7088,13.472 l 0.01,2.8125 -42.0449,0 -42.0449,0 0.7854,-5.9375 z m 6.417,-24.0825 c -0.4329,-0.7004 -0.4046,-4.3343 0.063,-8.0753 l 0.8498,-6.8018 -6.843,-7.2389 c -8.2941,-8.774 -9.6902,-11.3003 -9.6547,-17.4693 0.052,-9.0329 6.3207,-18.6077 14.1164,-21.5614 10.7449,-4.0712 22.2245,0.2967 29.6961,11.2992 2.7518,4.0521 5.8521,7.3675 6.8897,7.3675 1.0376,0 2.8448,-1.7706 4.0159,-3.9347 6.3384,-11.7121 15.0852,-16.8035 27.1489,-15.8031 8.4321,0.6992 12.7052,3.5422 16.6247,11.061 2.2255,4.2689 2.7825,7.0305 2.4107,11.951 -0.4944,6.5437 -1.166,7.7598 -10.3018,18.6545 -4.6295,5.5208 -4.9971,6.5191 -5,13.5776 l 0,7.6187 -9.375,-0.625 c -13.8591,-0.9239 -40.5952,-0.7587 -50.8626,0.3143 -5.7701,0.603 -9.2694,0.4833 -9.7748,-0.3343 z m 24.0659,-18.7404 c 0.3699,-5.319 -5.576,-17.934 -8.7272,-18.5161 -1.3315,-0.2459 -2.7106,0.7767 -3.5592,2.6392 -1.3795,3.0276 -1.1282,3.843 3.7403,12.1373 0.6053,1.0313 1.7293,3.4619 2.4978,5.4015 2.0002,5.0482 5.6515,4.0449 6.0483,-1.6619 z m 28.1988,0.7553 c 0.6652,-1.9965 2.5399,-5.5906 4.1661,-7.9869 3.4015,-5.0124 3.5918,-6.4115 1.2989,-9.5473 -1.1135,-1.5227 -2.4972,-2.0007 -4.2143,-1.4557 -4.3437,1.3787 -9.9851,19.4713 -7.0014,22.4549 1.7642,1.7643 4.5721,0.072 5.7507,-3.465 z m -19.073,-39.1824 c -3.1023,-6.6775 -6.3043,-16.9955 -6.3043,-20.3144 0,-4.3444 3.5527,-7.4981 8.4466,-7.4981 4.8799,0 7.8034,2.8584 7.8034,7.6296 0,3.0906 -6.9665,23.6204 -8.0152,23.6204 -0.1834,0 -1.0522,-1.5469 -1.9305,-3.4375 z M 1409.373,1275.6603 c -1.7187,-1.776 -6.1514,-5.9347 -9.8502,-9.2417 l -6.7253,-6.0126 0.5765,-6.9516 c 1.0103,-12.1835 8.7232,-16.0049 16.0695,-7.9618 l 3.6795,4.0286 3.6795,-4.0286 c 7.3094,-8.0027 15.0593,-4.2201 16.0593,7.8383 0.5379,6.4864 0.3492,7.0328 -3.7706,10.9181 -10.7025,10.0933 -15.7936,14.7122 -16.1781,14.6776 -0.2283,-0.021 -1.8213,-1.4904 -3.5401,-3.2663 z m 6.9921,-52.7817 c -2.9597,-0.6433 -3.3072,-1.0542 -1.875,-2.2176 0.9668,-0.7854 2.8829,-1.6346 4.2579,-1.8871 2.0951,-0.3848 2.5602,-1.6032 2.8715,-7.5223 0.3238,-6.1552 0.01,-7.3186 -2.4656,-9.0504 -1.5604,-1.0929 -2.2747,-1.9872 -1.5872,-1.9872 0.6875,0 2.5002,0.8756 4.0282,1.9459 2.2702,1.5901 2.7781,3.1441 2.7781,8.5008 0,5.9169 -2.1622,13.4966 -3.75,13.1457 -0.3437,-0.076 -2.2598,-0.4935 -4.2579,-0.9278 z m -11.714,-2.1105 c -2.3358,-1.6361 -2.7781,-3.1173 -2.7781,-9.3041 0,-6.1868 0.4423,-7.668 2.7781,-9.3041 1.528,-1.0703 3.3407,-1.9459 4.0282,-1.9459 0.6875,0 -2e-4,0.8756 -1.5282,1.9459 -2.3358,1.6361 -2.7781,3.1173 -2.7781,9.3041 0,6.1868 0.4423,7.668 2.7781,9.3041 1.528,1.0703 2.2157,1.9459 1.5282,1.9459 -0.6875,0 -2.5002,-0.8756 -4.0282,-1.9459 z m 76.2844,-120.2416 c 83.0156,-0.1774 218.8594,-0.1774 301.875,0 83.0156,0.1775 15.0938,0.3226 -150.9375,0.3226 -166.0312,0 -233.9531,-0.1451 -150.9375,-0.3226 z"
         id="path4164"
         inkscape:connector-curvature="0" />
      <path
         style="fill:#dd0159"
         d="m 1480.9355,1971.7766 c 83.0156,-0.1775 218.8594,-0.1775 301.875,0 83.0156,0.1774 15.0938,0.3225 -150.9375,0.3225 -166.0312,0 -233.9531,-0.1451 -150.9375,-0.3225 z M 1319.9908,1536.464 c 0,-234.0937 0.1438,-329.8594 0.3197,-212.8125 0.1758,117.0469 0.1758,308.5781 0,425.625 -0.1759,117.0469 -0.3197,21.2813 -0.3197,-212.8125 z m 623.75,0 c 0,-234.0937 0.1438,-329.8594 0.3197,-212.8125 0.1758,117.0469 0.1758,308.5781 0,425.625 -0.1759,117.0469 -0.3197,21.2813 -0.3197,-212.8125 z m -445.9303,390.3126 c 73.7344,-0.1781 194.3906,-0.1781 268.125,0 73.7344,0.1781 13.4063,0.3238 -134.0625,0.3238 -147.4687,0 -207.7969,-0.1457 -134.0625,-0.3238 z m 344.0625,-73.9888 c 0,-0.647 0.5117,-1.4925 1.1372,-1.8791 1.6153,-0.9983 5.237,0.593 4.4069,1.9363 -0.92,1.4885 -5.5441,1.4407 -5.5441,-0.057 z m -7.1302,-24.4555 c -3.3949,-2.3778 -5.8035,-9.5481 -4.7771,-14.2212 0.5124,-2.3329 4.0608,-6.5337 10.1119,-11.9709 l 9.3225,-8.3767 9.3279,8.3485 c 10.0957,9.0356 12.0077,13.1051 9.3909,19.9877 -3.5123,9.2381 -8.2322,10.3466 -14.5915,3.4268 l -4.3079,-4.6875 -3.3607,3.9472 c -4.1575,4.8829 -7.6272,5.9898 -11.116,3.5461 z m -181.6198,-194.9933 -4.2404,-4.375 -17.9334,0 -17.9333,0 -6.1964,-5.796 -6.1965,-5.7961 0,-21.7381 0,-21.738 5.9375,-5.5698 5.9375,-5.5696 20.047,-0.021 20.047,-0.021 5.8905,5.9804 5.8905,5.9805 0,20.7986 c 0,20.3616 -0.066,20.8767 -3.125,24.5125 -4.0062,4.7611 -3.9318,6.2535 0.5742,11.5252 4.7285,5.532 4.693,6.2028 -0.329,6.2028 -3.0787,0 -5.209,-1.1135 -8.3702,-4.375 z m -13.3744,-13.5509 c 0.3537,-0.9217 0.1413,-2.4685 -0.4721,-3.4375 -0.6134,-0.9689 -1.1238,-2.1835 -1.1344,-2.6991 -0.035,-1.7262 7.8829,-0.9612 10.0142,0.9676 1.1578,1.0479 3.0303,1.5502 4.1609,1.1163 1.7837,-0.6845 2.0558,-3.3186 2.0558,-19.9006 l 0,-19.1118 -4.4185,-3.8795 c -4.3264,-3.7987 -4.6846,-3.8794 -17.1875,-3.8748 -10.5564,0 -13.4783,0.4371 -16.8627,2.5005 -5.8858,3.5886 -6.7637,7.1866 -6.3084,25.854 0.3976,16.2993 0.4433,16.5271 4.0735,20.3125 3.5452,3.6968 4.0452,3.8283 14.5537,3.8283 7.9454,0 11.056,-0.4523 11.5255,-1.6759 z m -47.8756,-72.6403 c 0,-5.1806 2.1347,-10.2761 4.7207,-11.2685 3.387,-1.2997 24.4039,-3.1215 36.2661,-3.1436 15.7203,-0.029 35.486,2.2525 37.6252,4.3437 0.9554,0.9339 2.0113,4.5524 2.3466,8.0413 l 0.6095,6.3433 -40.7841,0 -40.784,0 0,-4.3162 z m 6.529,-33.6683 0.346,-8.2553 -7.1055,-6.7739 c -9.0939,-8.6696 -10.9628,-13.9986 -8.0181,-22.8641 3.8424,-11.5685 13.4718,-17.4254 25.0828,-15.2562 7.5486,1.4102 11.9319,4.6173 16.9067,12.3699 5.1323,7.998 8.8221,8.4681 12.3748,1.5766 5.8431,-11.3339 13.426,-15.0131 29.3439,-14.2372 5.5069,0.2684 12.5677,8.0918 14.454,16.0152 1.3897,5.8375 1.2887,6.9909 -1.04,11.875 -1.4186,2.9752 -5.169,8.4432 -8.3342,12.1511 -5.553,6.5049 -5.7402,6.9875 -5.3347,13.75 l 0.4203,7.0084 -6.25,-0.1523 c -3.4375,-0.084 -13.8437,-0.3309 -23.125,-0.549 -9.2812,-0.2182 -22.0932,0.052 -28.471,0.6002 l -11.5961,0.9968 0.3461,-8.2553 z m 24.1809,-8.7835 c 0.895,-3.566 -3.9892,-16.9836 -7.1988,-19.7764 -1.8889,-1.6434 -3.0711,-1.86 -4.8772,-0.8935 -3.3756,1.8066 -3.0418,7.8524 0.7411,13.4194 1.7188,2.5294 3.125,5.5653 3.125,6.7466 0,2.4984 3.4801,4.797 5.8728,3.8789 0.9068,-0.348 1.9585,-1.8668 2.3371,-3.375 z m 28.5917,-2.5889 c 1.144,-2.9954 2.8941,-6.1219 3.8892,-6.9477 2.8503,-2.3656 2.3103,-9.5893 -0.8431,-11.2769 -3.4078,-1.8238 -5.9146,0.6918 -9.6537,9.6882 -3.1886,7.6719 -3.371,10.7877 -0.7828,13.3759 2.791,2.7911 5.0383,1.3195 7.3904,-4.8395 z m -21.7915,-42.4945 c -4.5205,-10.546 -5.3802,-15.5226 -3.2444,-18.7822 2.425,-3.7011 5.7522,-4.773 9.9093,-3.1925 5.6535,2.1495 5.4057,7.5577 -1.0547,23.0196 -1.0471,2.5061 -2.1975,4.5565 -2.5565,4.5565 -0.3589,0 -1.7331,-2.5206 -3.0537,-5.6014 z M 1403.123,1269.0422 c -9.0196,-8.2605 -9.375,-8.8003 -9.375,-14.2404 0,-3.791 0.8652,-6.8175 2.6254,-9.1836 3.9382,-5.2939 7.3507,-5.1742 12.5087,0.4388 l 4.3944,4.782 3.3607,-3.901 c 6.0793,-7.0565 11.4139,-6.4431 14.8178,1.7037 3.1584,7.5591 1.5048,11.4241 -8.8795,20.755 -5.0911,4.5745 -9.4412,8.298 -9.667,8.2744 -0.2258,-0.024 -4.6292,-3.9066 -9.7855,-8.6289 z m 13.942,-47.4331 c -1.2403,-0.7861 -0.7039,-1.4079 2.0401,-2.3644 3.3539,-1.1692 3.6612,-1.0615 3.0996,1.0857 -0.6681,2.5551 -2.4329,2.9941 -5.1397,1.2787 z m 80.7455,-76.0825 c 73.7344,-0.1781 194.3906,-0.1781 268.125,0 73.7344,0.1781 13.4063,0.3238 -134.0625,0.3238 -147.4687,0 -207.7969,-0.1457 -134.0625,-0.3238 z m -16.875,-45.0001 c 83.0156,-0.1774 218.8594,-0.1774 301.875,0 83.0156,0.1775 15.0938,0.3226 -150.9375,0.3226 -166.0312,0 -233.9531,-0.1451 -150.9375,-0.3226 z"
         id="path4162"
         inkscape:connector-curvature="0" />
      <path
         style="fill:#111111"
         d="m 1480.9355,1971.7766 c 83.0156,-0.1775 218.8594,-0.1775 301.875,0 83.0156,0.1774 15.0938,0.3225 -150.9375,0.3225 -166.0312,0 -233.9531,-0.1451 -150.9375,-0.3225 z M 1319.9908,1536.464 c 0,-234.0937 0.1438,-329.8594 0.3197,-212.8125 0.1758,117.0469 0.1758,308.5781 0,425.625 -0.1759,117.0469 -0.3197,21.2813 -0.3197,-212.8125 z m 623.75,0 c 0,-234.0937 0.1438,-329.8594 0.3197,-212.8125 0.1758,117.0469 0.1758,308.5781 0,425.625 -0.1759,117.0469 -0.3197,21.2813 -0.3197,-212.8125 z m -462.8053,-435.9375 c 83.0156,-0.1774 218.8594,-0.1774 301.875,0 83.0156,0.1775 15.0938,0.3226 -150.9375,0.3226 -166.0312,0 -233.9531,-0.1451 -150.9375,-0.3226 z"
         id="path4160"
         inkscape:connector-curvature="0" />
    </g>
  </g>
</svg>
