<?xml version="1.0" encoding="UTF-8" standalone="no"?>
<!-- Created with Inkscape (http://www.inkscape.org/) -->

<svg
   xmlns:dc="http://purl.org/dc/elements/1.1/"
   xmlns:cc="http://creativecommons.org/ns#"
   xmlns:rdf="http://www.w3.org/1999/02/22-rdf-syntax-ns#"
   xmlns:svg="http://www.w3.org/2000/svg"
   xmlns="http://www.w3.org/2000/svg"
   xmlns:sodipodi="http://sodipodi.sourceforge.net/DTD/sodipodi-0.dtd"
   xmlns:inkscape="http://www.inkscape.org/namespaces/inkscape"
   width="176.45387mm"
   height="246.30453mm"
   viewBox="0 0 625.23027 872.7326"
   id="svg2"
   version="1.1"
   inkscape:version="0.91 r13725"
   sodipodi:docname="2.svg">
  <defs
     id="defs4">
    <pattern
       y="0"
       x="0"
       height="6"
       width="6"
       patternUnits="userSpaceOnUse"
       id="EMFhbasepattern" />
  </defs>
  <sodipodi:namedview
     id="base"
     pagecolor="#ffffff"
     bordercolor="#666666"
     borderopacity="1.0"
     inkscape:pageopacity="0.0"
     inkscape:pageshadow="2"
     inkscape:zoom="0.35"
     inkscape:cx="255.94465"
     inkscape:cy="221.30407"
     inkscape:document-units="px"
     inkscape:current-layer="layer1"
     showgrid="false"
     fit-margin-top="0"
     fit-margin-left="0"
     fit-margin-right="0"
     fit-margin-bottom="0"
     inkscape:window-width="784"
     inkscape:window-height="822"
     inkscape:window-x="800"
     inkscape:window-y="0"
     inkscape:window-maximized="0" />
  <metadata
     id="metadata7">
    <rdf:RDF>
      <cc:Work
         rdf:about="">
        <dc:format>image/svg+xml</dc:format>
        <dc:type
           rdf:resource="http://purl.org/dc/dcmitype/StillImage" />
        <dc:title></dc:title>
      </cc:Work>
    </rdf:RDF>
  </metadata>
  <g
     inkscape:label="Calque 1"
     inkscape:groupmode="layer"
     id="layer1"
     transform="translate(222.37322,119.06625)">
    <g
       transform="translate(817.55018,-508.79333)"
       id="g4613">
      <path
         style="fill:#fdfdfd"
         d="m -1039.8098,826.08804 0,-436.25 312.5,0 312.5,0 0,436.25 0,436.24996 -312.5,0 -312.5,0 0,-436.24996 z"
         id="path4629"
         inkscape:connector-curvature="0" />
      <path
         style="fill:#e6e6e6"
         d="m -1033.6846,1260.7798 c -1.8959,-0.7539 -3.8487,-2.9487 -4.6875,-5.2683 -2.0668,-5.7156 -2.07,-853.12231 0,-858.83779 0.9685,-2.67839 2.7229,-4.43273 5.4013,-5.40125 5.6984,-2.06059 605.63016,-2.06059 611.32863,0 2.67838,0.96852 4.43273,2.72286 5.40125,5.40125 2.06378,5.70731 2.06378,853.12139 0,858.82869 -0.96852,2.6784 -2.72287,4.4327 -5.40125,5.4012 -5.34155,1.9316 -607.17663,1.8098 -612.03913,-0.1239 z m 611.47095,-5.8456 3.65385,-3.6538 0,-425.19236 0,-425.19231 -3.65385,-3.65384 -3.65384,-3.65385 -301.44231,0 -301.4423,0 -3.6539,3.65385 -3.6538,3.65384 0,425.19231 0,425.19236 3.6538,3.6538 3.6539,3.6538 301.4423,0 301.44231,0 3.65384,-3.6538 z m -576.96836,-34.5607 c -2.06099,-1.0772 -4.79039,-2.9027 -6.06549,-4.0566 -6.1617,-5.5762 -5.8123,17.8811 -5.8123,-390.22886 0,-336.43552 0.2208,-381.8011 1.8737,-384.99746 1.0305,-1.99282 3.9399,-5.19926 6.4652,-7.12542 l 4.59149,-3.50212 270.81961,0 270.8196,0 4.59151,3.50212 c 2.52534,1.92616 5.43468,5.1326 6.4652,7.12542 1.6529,3.19636 1.87369,48.56194 1.87369,384.99746 0,336.43556 -0.22079,381.80106 -1.87369,384.99746 -1.03052,1.9928 -3.93982,5.1993 -6.46512,7.1254 l -4.59143,3.5021 -269.47238,0.3096 c -242.60164,0.2786 -269.84604,0.1142 -273.21959,-1.6491 z m 543.12221,-11.7855 c 2.48904,-2.489 2.5,-4.1666 2.5,-382.49996 0,-378.33333 -0.0113,-380.01097 -2.5,-382.5 -2.4845,-2.4845 -4.16666,-2.5 -271.25,-2.5 -267.08333,0 -268.7655,0.0155 -271.25,2.5 -2.489,2.48903 -2.5,4.16667 -2.5,382.5 0,378.33336 0.011,380.01096 2.5,382.49996 2.4845,2.4845 4.16667,2.5 271.25,2.5 267.08334,0 268.7655,-0.015 271.25,-2.5 z m -275.47221,-22.2045 c -2.68246,-5.1873 -14.20291,-15.5598 -24.63499,-22.1802 -18.64913,-11.8351 -24.21925,-19.6479 -24.18766,-33.9263 0.0164,-7.424 0.64851,-10.1655 3.7355,-16.2016 5.17665,-10.1221 11.71852,-14.5789 22.39784,-15.2589 6.91563,-0.4404 8.85709,-0.053 13.91437,2.7731 3.23252,1.8067 6.13742,3.0248 6.45532,2.7069 1.08324,-1.0832 -4.94312,-11.9962 -7.32993,-13.2736 -2.71273,-1.4518 -3.13723,-5.2488 -0.80336,-7.1858 2.71998,-2.2574 16.06493,-2.9838 22.80012,-1.2412 4.81603,1.2461 6.33801,2.2347 6.63363,4.3089 0.223,1.5648 -0.61499,3.3966 -2.00137,4.375 -2.9747,2.0994 -6.50726,8.8077 -6.50726,12.3573 0,2.6261 0.0659,2.6178 3.73551,-0.4701 2.05454,-1.7287 6.7561,-3.8192 10.44792,-4.6453 5.73306,-1.2831 7.64641,-1.192 13.11431,0.6242 8.28541,2.7519 15.25397,10.4705 18.35547,20.331 2.9938,9.518 2.83099,15.8441 -0.61223,23.7882 -3.37289,7.7819 -8.70837,12.8536 -23.46255,22.3025 -11.98215,7.6737 -19.11484,13.938 -23.00909,20.2079 -3.09864,4.989 -6.6525,5.2279 -9.04155,0.608 z m 211.81294,-23.589 c -3.55957,-4.5253 -3.24842,-8.7411 0.95537,-12.9449 l 3.54611,-3.5461 -2.92111,-1.3309 c -3.40005,-1.5492 -4.02656,-6.9429 -0.94386,-8.1258 1.08747,-0.4173 6.44329,-0.7588 11.9018,-0.7588 9.2896,0 10.01286,0.1939 11.30482,3.0294 1.76216,3.8675 0.44094,11.0177 -2.53323,13.7093 -1.26527,1.1451 -4.76989,2.5669 -7.78805,3.1597 l -5.48758,1.0777 7.16369,0.137 c 6.50234,0.1242 7.23445,0.4189 7.93017,3.1909 1.23314,4.9132 -0.23765,5.696 -10.70191,5.696 -9.13661,0 -10.01959,-0.234 -12.42623,-3.2935 z m 3.52581,-44.5479 c -3.16715,-2.906 -8.06584,-7.124 -10.88598,-9.3734 -5.90326,-4.7086 -7.56386,-10.0902 -5.2639,-17.0591 1.8678,-5.6595 6.71605,-9.4761 12.03768,-9.4761 3.20621,0 3.99987,-0.436 3.44159,-1.8909 -1.11809,-2.9137 1.9301,-5.6091 6.34322,-5.6091 5.02556,0 8.88685,2.6854 7.82818,5.4443 -0.65131,1.6973 0.0861,2.0557 4.22872,2.0557 6.08695,0 10.27606,3.6549 12.43024,10.8449 2.09335,6.9869 -0.61764,12.8961 -8.34544,18.1904 -3.2832,2.2494 -7.9033,5.9179 -10.2669,8.1522 -2.3636,2.2344 -4.63304,4.0495 -5.0432,4.0336 -0.41016,-0.016 -3.33705,-2.4066 -6.50421,-5.3125 z M -951.64899,575.6438 c -1.41858,-1.0373 -2.01112,-2.49137 -1.52814,-3.75 0.6513,-1.69727 -0.0861,-2.05576 -4.22872,-2.05576 -6.08695,0 -10.27606,-3.65481 -12.43024,-10.84483 -2.09335,-6.98697 0.61765,-12.89609 8.34544,-18.19046 3.2832,-2.24934 7.9033,-5.91784 10.2669,-8.15221 2.3636,-2.23438 4.57471,-4.0625 4.91357,-4.0625 0.33887,0 3.27012,2.39062 6.5139,5.3125 3.24378,2.92187 8.20081,7.15292 11.01562,9.40234 5.89282,4.70914 7.5521,10.09643 5.2542,17.05913 -1.8678,5.6595 -6.71605,9.47603 -12.03768,9.47603 -3.20621,0 -3.99987,0.43606 -3.44158,1.89091 1.83254,4.77555 -7.51002,7.66838 -12.64327,3.91485 z m 217.13249,-4.55821 c -2.93244,-0.61806 -5.88556,-1.46605 -6.5625,-1.88441 -2.15082,-1.32929 -1.32706,-5.47366 1.37546,-6.92002 2.47394,-1.32401 7.30753,-10.07935 7.36629,-13.34295 0.0163,-0.90446 -1.8257,-0.26724 -4.52749,1.56623 -18.02828,12.23433 -38.19078,2.41306 -42.90235,-20.89798 -3.41077,-16.87527 2.81515,-27.14904 25.10003,-41.41906 10.99537,-7.04083 22.9175,-17.95691 24.27166,-22.22348 1.22845,-3.87051 5.00299,-2.72597 8.72568,2.64587 4.70787,6.79346 10.76038,12.08394 24.03936,21.01271 13.67355,9.19406 18.71591,14.1122 21.99337,21.45151 7.10966,15.92083 -2.45651,38.43023 -18.33648,43.14608 -7.49616,2.22611 -13.05291,1.51477 -20.68127,-2.64749 -3.00847,-1.64151 -5.6879,-2.98456 -5.95427,-2.98456 -1.30296,0 3.73682,9.54338 7.00617,13.26696 3.79102,4.31773 3.91268,7.18999 0.36225,8.55242 -3.69808,1.41908 -15.91318,1.80844 -21.27591,0.67817 z m -223.75027,-56.45452 c -2.44372,-2.44372 -1.85508,-10.30918 1.0477,-13.99946 2.00112,-2.54402 3.69119,-3.29357 7.42622,-3.29357 7.84161,0 7.06073,-2.3337 -0.91987,-2.74909 -7.10766,-0.36996 -7.22208,-0.43532 -7.22208,-4.12591 l 0,-3.75 9.86016,-0.36819 c 8.74939,-0.32671 10.19274,-0.0557 12.8125,2.40539 6.43185,6.04241 1.16259,17.09074 -8.36606,17.54155 -2.98335,0.14114 -2.19418,0.42919 2.5684,0.9375 6.6425,0.70894 6.875,0.86057 6.875,4.48375 l 0,3.75 -11.26947,0.35552 c -7.69631,0.24282 -11.75871,-0.13371 -12.8125,-1.18749 z"
         id="path4627"
         inkscape:connector-curvature="0" />
      <path
         style="fill:#d8d8d8"
         d="m -1033.4222,1260.5937 c -6.7121,-3.7203 -6.2956,24.7836 -6.3433,-434.13435 -0.034,-328.08824 0.3003,-427.25997 1.4491,-429.78124 3.3332,-7.31567 -18.2831,-6.84007 310.88571,-6.84007 231.87038,0 303.26855,0.34869 305.78082,1.49336 7.35539,3.35134 6.84007,-29.40324 6.84007,434.75664 0,464.15986 0.51532,431.40526 -6.84007,434.75666 -5.07455,2.3121 -607.59393,2.0649 -611.77233,-0.251 z m 604.2374,-0.7557 c -0.4249,-0.6875 0.41123,-1.25 1.85805,-1.25 3.39411,0 8.76695,-5.3728 8.76695,-8.7669 0,-1.4468 0.5625,-2.283 1.25,-1.8581 0.83239,0.5145 1.25,-140.4282 1.25,-421.87496 0,-281.44673 -0.41761,-422.38945 -1.25,-421.875 -0.6875,0.4249 -1.25,-0.41122 -1.25,-1.85805 0,-3.39411 -5.37284,-8.76695 -8.76695,-8.76695 -1.44682,0 -2.28295,-0.5625 -1.85805,-1.25 0.5142,-0.832 -99.17827,-1.25 -298.125,-1.25 -198.94672,0 -298.6392,0.418 -298.125,1.25 0.4249,0.6875 -0.4112,1.25 -1.858,1.25 -3.3942,0 -8.767,5.37284 -8.767,8.76695 0,1.44683 -0.5625,2.28295 -1.25,1.85805 -0.8324,-0.51445 -1.25,140.42827 -1.25,421.875 0,281.44676 0.4176,422.38946 1.25,421.87496 0.6875,-0.4249 1.25,0.4113 1.25,1.8581 0,3.3941 5.3728,8.7669 8.767,8.7669 1.4468,0 2.2829,0.5625 1.858,1.25 -0.5142,0.832 99.17828,1.25 298.125,1.25 198.94673,0 298.6392,-0.418 298.125,-1.25 z m -571.9997,-41.4171 c -2.4749,-1.4353 -5.428,-4.181 -6.5625,-6.1016 -1.905,-3.2248 -2.0628,-32.779 -2.0628,-386.23126 0,-354.35788 0.1539,-382.99974 2.0749,-386.25182 1.1412,-1.9319 4.1709,-4.69056 6.7327,-6.13036 l 4.65779,-2.61782 269.03461,0 269.03461,0 4.65779,2.61782 c 2.56178,1.4398 5.59149,4.19846 6.73269,6.13036 1.92105,3.25208 2.07491,31.89394 2.07491,386.25182 0,354.35786 -0.15386,382.99976 -2.07491,386.25186 -1.1412,1.9319 -4.17091,4.6905 -6.73269,6.1303 l -4.65779,2.6178 -269.2048,-0.029 -269.20481,-0.029 -4.4997,-2.6097 z m 545.85053,-9.1343 c 2.67351,-3.6563 2.67345,-762.7409 -7e-5,-766.39715 -1.74682,-2.38893 -5.94846,-2.42641 -271.97576,-2.42641 -266.0273,0 -270.22894,0.0375 -271.97576,2.42641 -1.52314,2.08299 -1.77424,56.31862 -1.77424,383.19859 0,302.71326 0.3203,381.18396 1.5625,382.78066 0.85938,1.1046 2.6875,2.2745 4.0625,2.5996 1.375,0.3252 123.061,0.5133 270.41333,0.418 263.6585,-0.1705 267.94148,-0.2118 269.6875,-2.5997 z m -277.31837,-25.6543 c -4.29372,-6.0703 -13.79543,-14.1506 -25.28246,-21.5002 -15.80109,-10.1099 -21.79544,-18.4795 -21.84755,-30.5047 -0.0444,-10.2334 3.14798,-18.7806 9.31938,-24.952 9.25622,-9.2562 20.52983,-10.3959 32.04245,-3.2393 3.3609,2.0893 6.11072,3.2413 6.11072,2.5602 0,-2.8147 -3.99434,-10.4815 -7.60077,-14.589 -3.44074,-3.9188 -3.65454,-4.5997 -1.97245,-6.2817 3.71848,-3.7185 22.66507,-3.5135 27.84193,0.3013 2.26033,1.6656 2.19766,1.9053 -1.53857,5.8862 -3.60614,3.8423 -6.73014,10.4547 -6.73014,14.2453 0,0.9816 2.7418,-0.054 7.11396,-2.6866 8.43089,-5.0768 16.45374,-5.7147 23.87334,-1.8982 13.30269,6.8425 20.59366,24.6961 15.88035,38.8866 -3.00789,9.0559 -8.85447,15.0178 -25.38965,25.8905 -10.00457,6.5784 -15.70141,11.3015 -19.38559,16.072 -2.86957,3.7157 -6.06116,6.746 -7.09241,6.7339 -1.03125,-0.012 -3.43539,-2.228 -5.34254,-4.9243 z m 214.35687,-20.3879 c -5.78571,-6.1586 -1.53888,-15.9064 6.92996,-15.9064 2.1495,0 4.25581,-0.5625 4.68071,-1.25 0.47587,-0.7699 -1.63902,-1.25 -5.50725,-1.25 -4.77289,0 -6.56936,-0.541 -7.48655,-2.2548 -2.33435,-4.3618 0.0615,-5.3696 11.84951,-4.9843 l 11.14429,0.3641 0.39159,5.4603 c 0.5191,7.2382 -3.10715,11.4147 -9.91072,11.4147 -2.58957,0 -5.05597,0.5625 -5.48087,1.25 -0.47357,0.7663 1.55376,1.2575 5.23873,1.2692 7.36167,0.024 9.48214,1.2393 8.93313,5.1222 -0.39321,2.7811 -1.01926,3.0082 -9.22003,3.3456 -7.87452,0.3239 -9.08838,0.053 -11.5625,-2.5806 z m 2.23567,-45.9598 c -17.28311,-15.3351 -16.25,-14.0423 -16.25,-20.3353 0,-4.6604 0.72443,-6.6326 3.63134,-9.886 3.01784,-3.3775 4.47929,-4.0419 8.65052,-3.9325 4.6659,0.1223 5.00421,-0.099 4.80618,-3.1431 -0.20033,-3.0793 0.1225,-3.2747 5.41196,-3.2747 5.33216,0 5.62226,0.1812 5.57245,3.4798 -0.047,3.1116 0.29364,3.4037 3.22034,2.7608 7.49972,-1.6472 14.94312,5.5305 14.95254,14.4188 0.006,5.6621 -2.26757,8.8031 -11.02248,15.2282 -3.90381,2.865 -7.83287,6.2279 -8.73122,7.4732 -2.34427,3.2497 -3.9189,2.8208 -10.24163,-2.7892 z M -951.82997,574.28546 c -0.41102,-1.07107 -0.40642,-2.83575 0.0103,-3.92147 0.61721,-1.60844 0.10341,-1.83039 -2.77411,-1.19838 -7.75212,1.70266 -15.20169,-5.33097 -15.21126,-14.36193 -0.006,-5.66208 2.26756,-8.80314 11.02248,-15.22824 3.90381,-2.86495 7.83287,-6.2279 8.73123,-7.4732 2.3318,-3.23236 3.46298,-2.9044 10.5139,3.0483 14.94702,12.61896 15.97768,13.91849 15.97768,20.14572 0,4.58372 -0.73772,6.57799 -3.63133,9.8165 -3.01785,3.37757 -4.47929,4.04194 -8.65054,3.93257 -4.6659,-0.12238 -5.0042,0.0989 -4.80616,3.14305 0.19515,2.99983 -0.23378,3.30696 -5.11091,3.65958 -3.92018,0.28344 -5.52097,-0.12853 -6.07123,-1.5625 z m 214.83267,-4.59589 c -5.03185,-1.45289 -5.17105,-3.93528 -0.48356,-8.62278 3.21606,-3.21606 7.15216,-13.41431 5.7273,-14.83917 -0.31135,-0.31136 -1.8295,0.58907 -3.37366,2.00094 -7.59354,6.94299 -19.47428,8.67967 -28.36147,4.14576 -15.0842,-7.69539 -21.06847,-30.91773 -11.82155,-45.87428 2.89686,-4.68558 6.92539,-8.1804 18.05224,-15.66067 8.1209,-5.45946 17.6489,-13.17389 22.00335,-17.81521 4.22409,-4.50237 8.19766,-8.18612 8.83019,-8.18612 0.63251,0 3.08136,2.57763 5.44189,5.72807 5.02576,6.70755 10.06646,10.9304 25.94525,21.73564 12.66417,8.61775 16.66101,12.94914 19.57799,21.21679 2.51599,7.13106 2.39542,11.98679 -0.50712,20.42316 -3.33584,9.69581 -7.01927,14.1816 -14.75125,17.9645 -8.7016,4.2573 -16.47795,3.68058 -25.433,-1.8862 -6.02529,-3.74551 -6.28651,-3.79914 -5.45824,-1.12037 1.56364,5.057 5.22988,11.51526 7.91613,13.94465 3.51397,3.17796 3.32085,5.54412 -0.57336,7.0247 -3.96126,1.50606 -17.25722,1.40112 -22.73113,-0.17941 z m -221.5625,-61.01081 c 0,-5.16512 0.53161,-6.57743 3.29357,-8.75 2.04174,-1.60603 5.12992,-2.59072 8.125,-2.59072 2.65729,0 4.83143,-0.5625 4.83143,-1.25 0,-0.6875 -3.07396,-1.25 -6.83102,-1.25 -5.46979,0 -7.08838,-0.48088 -8.12252,-2.41319 -2.15409,-4.02496 1.44831,-6.33681 9.87425,-6.33681 9.28441,0 13.82929,3.11083 13.82929,9.46572 0,5.50011 -3.68012,9.27806 -9.0625,9.30342 -2.23437,0.0105 -4.90625,0.56441 -5.9375,1.23086 -1.3335,0.86177 0.15655,1.21725 5.15944,1.23086 7.39312,0.0201 10.77028,2.04334 9.39464,5.62822 -0.57748,1.50488 -3.15796,1.89092 -12.63985,1.89092 l -11.91423,0 0,-6.15928 z"
         id="path4625"
         inkscape:connector-curvature="0" />
      <path
         style="fill:#a6a6a6"
         d="m -1032.6066,1260.3813 c -7.802,-4.2333 -7.2032,31.869 -7.2032,-434.29326 0,-377.55168 0.2122,-425.53447 1.8962,-428.79092 4.1664,-8.05695 -20.7295,-7.45908 310.6038,-7.45908 331.33326,0 306.43743,-0.59787 310.60384,7.45908 1.68397,3.25645 1.89616,51.23924 1.89616,428.79092 0,377.55166 -0.21219,425.53446 -1.89616,428.79096 -4.16719,8.0584 20.77151,7.464 -310.85426,7.409 -264.35142,-0.044 -302.04738,-0.2795 -305.04638,-1.9067 z m 608.22263,-1.325 c 2.49493,-1.1898 5.10266,-3.7975 6.29241,-6.2924 1.86327,-3.9073 2.03176,-39.2914 2.03176,-426.67586 0,-387.38446 -0.16849,-422.76852 -2.03176,-426.67583 -4.31982,-9.05876 22.96789,-8.32417 -309.21824,-8.32417 -332.1861,0 -304.8984,-0.73459 -309.2182,8.32417 -1.8633,3.90731 -2.0318,39.29137 -2.0318,426.67583 0,387.60576 0.1676,422.76676 2.0344,426.68126 4.2276,8.8655 -22.5868,8.1502 308.86069,8.2388 273.5715,0.073 299.3827,-0.093 303.28074,-1.9518 z m -575.41006,-40.8119 c -3.17137,-1.6771 -6.32887,-4.6177 -7.69657,-7.168 -2.2444,-4.1848 -2.3192,-16.6052 -2.3192,-384.98836 0,-368.38312 0.075,-380.80352 2.3192,-384.98835 1.3677,-2.55032 4.5252,-5.49092 7.69657,-7.16799 l 5.37744,-2.84366 267.10679,0 267.10679,0 5.37743,2.84366 c 3.17139,1.67707 6.32886,4.61767 7.69661,7.16799 2.24434,4.18483 2.31917,16.60523 2.31917,384.98835 0,368.38316 -0.0749,380.80356 -2.31917,384.98836 -1.36775,2.5503 -4.52522,5.4909 -7.69661,7.168 l -5.37743,2.8436 -267.10679,0 -267.10679,0 -5.37744,-2.8436 z m 544.93553,-8.6421 2.5487,-2.7357 0,-380.6212 0,-380.62123 -2.71789,-2.89307 -2.7179,-2.89306 -269.38903,0 -269.38905,0 -2.89307,2.71789 -2.89306,2.71789 0,380.79641 0,380.79637 2.54869,2.7357 2.5487,2.7357 269.90261,0 269.90261,0 2.54869,-2.7357 z m -277.45175,-26.6399 c -5.19867,-6.9383 -12.33809,-12.9322 -26.65791,-22.3807 -12.36649,-8.1596 -17.40644,-14.1347 -19.58604,-23.2203 -2.28831,-9.5388 1.11599,-22.3085 7.95311,-29.8325 8.13893,-8.9566 22.39714,-10.1956 32.81606,-2.8517 3.16242,2.2291 6.05052,3.7522 6.41801,3.3847 1.25542,-1.2554 -3.74317,-12.229 -7.54053,-16.5539 -3.37947,-3.8491 -3.58602,-4.5219 -1.90436,-6.2036 2.25917,-2.2591 18.45301,-2.6692 23.81461,-0.6029 4.22964,1.6299 4.34895,3.4348 0.4308,6.5168 -2.9667,2.3336 -6.9933,11.8072 -6.9933,16.4535 0,2.1605 0.37231,2.0752 3.89985,-0.893 6.33438,-5.3301 11.25826,-7.2979 18.26054,-7.2979 13.58735,0 24.49617,11.6848 26.18496,28.0477 1.52126,14.7396 -4.86511,24.0178 -25.84535,37.5484 -11.50635,7.4207 -16.283,11.552 -21.76366,18.8235 -1.94319,2.5782 -3.92425,4.6875 -4.40238,4.6875 -0.47814,0 -2.76611,-2.5315 -5.08441,-5.6256 z m 214.40603,-19.8224 c -3.30763,-2.4186 -3.00149,-8.8493 0.60398,-12.6871 2.12978,-2.2671 4.22779,-3.1149 7.70833,-3.1149 2.63016,0 4.78211,-0.5625 4.78211,-1.25 0,-0.6875 -2.28697,-1.25 -5.08217,-1.25 -5.77822,0 -9.91783,-1.7886 -9.91783,-4.2852 0,-2.4744 2.89225,-3.2148 12.55825,-3.2148 7.40618,0 8.79549,0.3582 9.98099,2.5734 1.74612,3.2626 0.51365,9.0388 -2.51307,11.778 -1.28267,1.1608 -4.6258,2.4182 -7.42914,2.7942 -7.93419,1.0642 -6.71625,4.1044 1.64423,4.1044 5.00915,0 6.93727,0.5108 7.50406,1.9878 0.41953,1.0933 0.44652,2.4996 0.06,3.125 -1.12374,1.8183 -17.26838,1.3633 -19.89972,-0.5608 z m 4.4673,-45.0462 c -1.5471,-1.6468 -5.58329,-4.8812 -8.96932,-7.1875 -10.72315,-7.3038 -12.61601,-17.5118 -4.5117,-24.3312 3.114,-2.6202 4.76878,-3.127 8.55302,-2.6195 4.60575,0.6178 4.67876,0.5631 3.97117,-2.9748 -0.86559,-4.328 1.8604,-5.9258 6.91771,-4.0549 3.33162,1.2325 3.52903,1.7963 2.00238,5.7188 -0.75243,1.9332 -0.2293,2.0972 4.59489,1.4407 6.63951,-0.9035 11.60891,2.3566 13.38227,8.7792 1.72611,6.2515 0.41355,10.2504 -4.84769,14.7693 -11.21222,9.6301 -16.086,13.4541 -17.14746,13.4541 -0.6228,0 -2.39817,-1.3473 -3.94527,-2.9942 z M -950.13056,574.76299 c -1.69228,-1.0084 -1.90725,-1.84752 -0.9375,-3.65951 1.91743,-3.58277 1.66074,-3.77238 -4.05424,-2.9948 -6.49945,0.88429 -11.49298,-2.4309 -13.2508,-8.79717 -1.80593,-6.54053 -0.3836,-10.39706 5.70123,-15.45841 3.06809,-2.55204 7.70723,-6.46819 10.30921,-8.70256 5.65791,-4.85858 6.30391,-4.92807 9.92999,-1.06829 1.5471,1.64681 5.58329,4.88119 8.9693,7.1875 3.38602,2.3063 7.02526,6.02005 8.08719,8.25276 4.32894,9.10153 -2.6645,19.96732 -12.04183,18.70954 -4.48675,-0.60179 -4.601,-0.51662 -4.43607,3.30664 0.14341,3.32467 -0.30825,3.97084 -2.95572,4.22854 -1.71875,0.1673 -4.11309,-0.28462 -5.32076,-1.00424 z m 217.86235,-5.12125 c -8.41351,-1.04295 -9.83104,-3.11319 -5.0941,-7.43971 3.3511,-3.06077 6.27942,-10.12 6.29554,-15.17649 0.01,-3.00116 -0.87352,-2.77091 -5.73134,1.49431 -3.873,3.40054 -11.01763,6.30425 -15.51169,6.30425 -16.84481,0 -30.58724,-21.28965 -25.7585,-39.90487 2.40054,-9.25435 7.04584,-14.28608 22.67941,-24.56607 8.50118,-5.59003 16.86659,-12.30094 20.92785,-16.78879 3.72114,-4.11198 7.14364,-7.47633 7.60558,-7.47633 0.46192,0 4.53189,3.91373 9.04435,8.69718 4.59306,4.86889 13.55024,12.22221 20.3491,16.70543 13.59675,8.9658 17.66667,13.15359 20.82786,21.43104 4.78704,12.53469 -0.83874,30.09647 -11.92565,37.2279 -5.0455,3.24541 -6.48932,3.57279 -14.01466,3.17765 -7.02,-0.3686 -9.3158,-1.09331 -14.0625,-4.4391 -5.19176,-3.65949 -5.67284,-3.78535 -5.67284,-1.48419 0,3.74213 2.92684,10.03215 6.81222,14.64005 1.8926,2.24453 3.14235,4.85945 2.77723,5.81094 -0.8024,2.09101 -10.1794,2.94814 -19.54786,1.7868 z m -224.74582,-56.25793 c -0.85017,-0.85017 -1.54577,-3.30397 -1.54577,-5.45288 0,-5.29417 4.43749,-9.34289 10.24001,-9.34289 4.73063,0 9.03904,-3.1904 5.83827,-4.32327 -0.9368,-0.33157 -4.51578,-0.7601 -7.95328,-0.95229 -5.30019,-0.29634 -6.25,-0.72937 -6.25,-2.84944 0,-2.22172 0.95781,-2.54157 8.60459,-2.87342 7.46894,-0.32414 8.99498,-0.007 11.5625,2.40539 6.23204,5.8547 2.12322,13.62615 -7.80712,14.76643 -8.18152,0.93947 -7.25458,3.05235 1.67877,3.8266 6.16959,0.53472 7.21126,0.98612 7.21126,3.125 0,2.26221 -0.95276,2.53408 -10.01673,2.85827 -6.71941,0.24034 -10.52556,-0.15056 -11.5625,-1.1875 z"
         id="path4623"
         inkscape:connector-curvature="0" />
      <path
         style="fill:#5c5c5c"
         d="m -1030.6279,1261.3814 c -0.7938,-0.5051 135.6994,-0.9184 303.3181,-0.9184 167.6187,0 304.11186,0.4133 303.31814,0.9184 -0.79373,0.5051 -137.28689,0.9184 -303.31814,0.9184 -166.03125,0 -302.5244,-0.4133 -303.3181,-0.9184 z m -8.394,-9.3559 c -1.0472,-3.9075 -0.8116,-849.81011 0.2375,-852.45333 0.4673,-1.17748 0.8496,190.77564 0.8496,426.5625 0,235.78683 -0.075,428.70333 -0.1667,428.70333 -0.092,0 -0.5059,-1.2656 -0.9204,-2.8125 z m 622.3371,-425.93746 c 0,-235.7612 0.38234,-427.69335 0.84964,-426.51587 0.46731,1.17748 0.84965,193.10962 0.84965,426.51587 0,233.40626 -0.38234,425.33836 -0.84965,426.51586 -0.4673,1.1775 -0.84964,-190.7547 -0.84964,-426.51586 z m -583.24974,391.08286 c -2.47486,-1.4353 -5.42796,-4.181 -6.56246,-6.1016 -1.9049,-3.2247 -2.0628,-32.6906 -2.0628,-384.98126 0,-359.24204 0.126,-381.70253 2.1602,-385.14619 1.1881,-2.0113 4.4594,-4.76997 7.26965,-6.13036 5.04224,-2.44091 8.6186,-2.47345 271.82015,-2.47345 263.20155,0 266.77791,0.0326 271.82015,2.47345 2.8102,1.36039 6.08155,4.11906 7.26965,6.13036 2.03423,3.44366 2.1602,25.90415 2.1602,385.14619 0,353.19326 -0.1539,381.74976 -2.07491,385.00186 -1.1412,1.9319 -4.17091,4.6905 -6.73269,6.1303 l -4.65779,2.6178 -267.9548,-0.029 -267.95481,-0.029 -4.49974,-2.6097 z m 545.29877,-5.9724 2.95097,-2.3895 0.3433,-379.798 c 0.18881,-208.88887 0.0339,-381.07789 -0.34429,-382.64226 -0.37819,-1.56436 -1.7983,-3.95498 -3.15581,-5.3125 -2.44236,-2.44237 -5.29424,-2.4682 -272.4682,-2.4682 -267.17396,0 -270.02583,0.0258 -272.4682,2.4682 -1.3575,1.35752 -2.7776,3.74814 -3.1558,5.3125 -0.3782,1.56437 -0.5331,173.75339 -0.3443,382.64226 l 0.3433,379.798 2.95098,2.3895 c 2.88513,2.3362 8.96977,2.3895 272.67402,2.3895 263.70425,0 269.78889,-0.053 272.67403,-2.3895 z m -281.42403,-33.7518 c -4.46875,-4.6771 -12.90625,-11.5766 -18.75,-15.3321 -16.3621,-10.5152 -21.56241,-16.598 -23.25858,-27.2052 -1.11856,-6.9951 2.42978,-19.7463 7.05712,-25.36 8.81214,-10.6907 24.27446,-11.4586 35.75691,-1.7758 5.197,4.3825 5.88763,4.1932 4.8515,-1.3299 -1.11152,-5.9249 -3.83094,-11.31 -7.91641,-15.6764 -2.53063,-2.7046 -2.89724,-3.7726 -1.70453,-4.9653 2.0202,-2.0202 18.72475,-1.9351 22.46332,0.1144 l 2.87432,1.5757 -3.70457,4.2193 c -2.26438,2.579 -4.29477,6.8565 -5.22269,11.0029 -1.94073,8.6721 -1.2444,11.1886 2.01961,7.2988 3.0941,-3.6873 11.29164,-8.4474 16.3669,-9.5039 14.38423,-2.9942 29.1671,12.5482 29.1671,30.6659 0,12.9993 -4.89008,19.2528 -25.97201,33.2138 -9.38915,6.2178 -15.65093,11.3761 -18.75,15.4461 -2.55914,3.3609 -5.21549,6.1118 -5.90299,6.1131 -0.6875,0 -4.90625,-3.8243 -9.375,-8.5014 z m 218.23414,-16.5822 c -2.58653,-3.6928 -2.50389,-5.0286 0.55142,-8.9127 1.87469,-2.3833 3.90812,-3.3232 7.80172,-3.6061 3.83428,-0.2786 5.37897,-0.9774 5.6811,-2.5702 0.34832,-1.8363 -0.55293,-2.1905 -5.61423,-2.2066 -3.31602,-0.01 -6.80434,-0.5101 -7.7518,-1.1102 -3.59839,-2.2792 0.1689,-3.8707 9.16269,-3.8707 7.20644,0 9.3298,0.423 9.92622,1.9773 2.45894,6.4078 -1.49297,11.8632 -9.35375,12.9121 -4.43397,0.5917 -5.51251,1.2248 -5.51251,3.2356 0,2.1213 1.04166,2.5947 6.875,3.125 9.52805,0.8662 8.61999,3.0481 -1.45336,3.4922 -7.45803,0.3287 -8.5357,0.071 -10.3125,-2.4657 z m 1.90207,-45.7725 c -14.48467,-12.2157 -15.52278,-13.576 -14.75101,-19.33 1.24651,-9.2934 8.44309,-12.9734 17.64431,-9.0224 2.03639,0.8744 2.24974,0.6643 1.39353,-1.372 -2.08292,-4.954 -1.47828,-7.4046 1.82696,-7.4046 2.84295,0 3.09191,0.4231 2.7584,4.6875 -0.34524,4.4144 1.15273,6.2107 2.8666,3.4375 1.18085,-1.9106 8.47966,-1.4875 11.56024,0.6703 3.69024,2.5847 5.90186,10.1737 4.23451,14.5303 -0.70001,1.8291 -3.35712,4.9228 -5.90467,6.875 -2.54755,1.9522 -6.72693,5.3776 -9.28749,7.6119 -2.56058,2.2344 -5.14991,4.0362 -5.75409,4.004 -0.60417,-0.032 -3.56845,-2.1415 -6.58729,-4.6875 z M -948.93852,574.04265 c -0.49547,-0.49546 -0.55035,-2.7692 -0.12195,-5.05272 0.74864,-3.99058 -0.85533,-5.76419 -2.62433,-2.90189 -1.18085,1.91066 -8.47966,1.4875 -11.56024,-0.67022 -3.69023,-2.58474 -5.90186,-10.17376 -4.23451,-14.53034 0.70002,-1.82907 3.35712,-4.92282 5.90467,-6.875 2.54755,-1.95219 6.72693,-5.37757 9.2875,-7.61194 2.56057,-2.23438 5.0544,-4.0625 5.54184,-4.0625 1.08159,0 10.50612,7.67719 17.28211,14.07795 4.64546,4.38821 4.93113,5.05734 4.26844,9.99805 -1.24652,9.29346 -8.44309,12.97345 -17.64432,9.02246 -2.03639,-0.87441 -2.24973,-0.66436 -1.39352,1.37203 1.89063,4.49663 1.42445,7.38641 -1.25341,7.76973 -1.40329,0.20088 -2.95682,-0.0401 -3.45228,-0.53561 z m 215.61955,-5.04816 c -5.04201,-0.70193 -6.50982,-3.65724 -3.02777,-6.09616 3.02614,-2.11959 6.53694,-11.73942 6.53694,-17.91165 l 0,-4.40602 -4.6875,4.56767 c -8.83429,8.60841 -18.22887,10.51088 -27.78768,5.62721 -7.47926,-3.82121 -12.03233,-9.99664 -14.50059,-19.66741 -1.71096,-6.7036 -1.81863,-9.189 -0.62278,-14.375 2.29014,-9.93154 6.69854,-14.94949 21.9356,-24.96857 7.97735,-5.24548 16.85064,-12.35037 20.9378,-16.76499 3.90127,-4.21384 7.54477,-7.64823 8.09669,-7.63198 0.5519,0.0163 2.69096,2.3223 4.75346,5.12457 4.05868,5.51441 13.46096,13.22137 27.89145,22.86233 10.57005,7.06182 14.1982,11.36016 17.07912,20.23399 1.91567,5.90062 1.91898,6.95755 0.0445,14.19154 -3.90929,15.08642 -12.70858,23.16552 -25.04748,22.99746 -6.74925,-0.092 -11.71691,-2.1415 -17.99551,-7.42459 -2.17395,-1.82926 -4.28203,-2.99654 -4.68462,-2.59396 -1.38459,1.38461 3.52879,13.96032 7.32477,18.74756 2.18415,2.75451 3.33369,5.26066 2.70251,5.89184 -1.36091,1.36091 -13.37141,2.37261 -18.94889,1.59616 z M -956.4285,512.80267 c -1.76151,-1.76151 -0.8466,-8.85856 1.40463,-10.8959 1.25726,-1.1378 4.31083,-2.06873 6.78571,-2.06873 2.54989,0 5.41104,-0.91126 6.6027,-2.10291 1.97054,-1.97054 1.96112,-2.20658 -0.14963,-3.75 -1.23889,-0.9059 -5.0044,-1.64709 -8.36779,-1.64709 -4.334,0 -5.96499,-0.45513 -5.59937,-1.5625 0.86371,-2.61602 15.73603,-2.76178 18.58648,-0.18215 5.51388,4.98999 0.89946,12.99465 -7.49097,12.99465 -5.45006,0 -8.51254,2.39051 -6.12332,4.77974 0.80864,0.80864 4.49839,1.47026 8.19943,1.47026 4.82572,0 6.58293,0.44197 6.21218,1.5625 -0.56441,1.70583 -18.50254,2.95964 -20.06005,1.40213 z m -73.6472,-121.93927 c 2.799,-1.11081 602.73285,-1.11081 605.53177,0 1.17748,0.4673 -135.06717,0.84964 -302.76587,0.84964 -167.6987,0 -303.9433,-0.38234 -302.7659,-0.84964 z"
         id="path4621"
         inkscape:connector-curvature="0" />
      <path
         style="fill:#2d2d2d"
         d="m -877.6223,1261.4006 c 82.67188,-0.1775 217.95313,-0.1775 300.625,0 82.67188,0.1774 15.03125,0.3226 -150.3125,0.3226 -165.34375,0 -232.98437,-0.1452 -150.3125,-0.3226 z m -161.5698,-435.31256 c 0,-233.40625 0.1439,-328.89063 0.3198,-212.1875 0.1758,116.70312 0.1758,307.67187 0,424.37496 -0.1759,116.7032 -0.3198,21.2188 -0.3198,-212.18746 z m 623.75005,0 c 0,-233.40625 0.14387,-328.89063 0.31972,-212.1875 0.17585,116.70312 0.17585,307.67187 0,424.37496 -0.17585,116.7032 -0.31972,21.2188 -0.31972,-212.18746 z m -583.90936,390.10246 c -2.15409,-1.3136 -4.82599,-3.6866 -5.93749,-5.2735 -1.8505,-2.6419 -2.0209,-35.1003 -2.0209,-384.93852 l 0,-382.05329 2.6104,-3.31855 c 5.93511,-7.5453 -14.8812,-7.0186 277.3896,-7.0186 292.27085,0 271.4545,-0.5267 277.38963,7.0186 l 2.61037,3.31855 0,382.16285 0,382.16286 -2.61037,3.3185 c -5.93533,7.5456 14.90661,7.0191 -277.64005,7.014 -261.49144,0 -267.96791,-0.062 -271.79119,-2.3929 z m 542.52536,-2.5488 c 1.73059,-0.6579 4.0172,-2.88 5.08137,-4.9379 1.73402,-3.3532 1.93488,-43.0732 1.93488,-382.61576 0,-339.5426 -0.20086,-379.26257 -1.93488,-382.61578 -1.06417,-2.05789 -3.35078,-4.27996 -5.08137,-4.93792 -4.27991,-1.62722 -536.68759,-1.62722 -540.9675,0 -1.73058,0.65796 -4.01725,2.88003 -5.08135,4.93792 -1.734,3.35321 -1.9349,43.07318 -1.9349,382.61578 0,340.01186 0.199,379.25906 1.9405,382.62656 1.0672,2.0638 3.17657,4.2503 4.68745,4.8587 3.83616,1.5449 537.2951,1.6123 541.3558,0.069 z m -279.23375,-37.4756 c -4.46875,-4.6509 -12.90625,-11.5596 -18.75,-15.3526 -20.95422,-13.601 -25.78811,-23.1994 -20.55613,-40.8175 3.70884,-12.489 15.70804,-20.3027 27.19764,-17.7108 5.38488,1.2147 14.37619,6.743 15.42893,9.4864 1.15466,3.009 4.17956,2.0959 4.17956,-1.2617 0,-4.5434 -4.67888,-16.2438 -7.5262,-18.8206 -1.36059,-1.2313 -2.4738,-2.9506 -2.4738,-3.8207 0,-2.2865 6.71156,-3.4171 14.50475,-2.4434 6.99278,0.8737 8.48964,2.659 4.79803,5.7228 -2.7125,2.2512 -5.33974,8.9832 -6.28415,16.1026 -0.99292,7.4849 0.85157,9.0143 4.65957,3.8638 3.2873,-4.4464 13.78209,-10.0264 18.85738,-10.0264 8.034,0 16.90345,5.8263 20.93206,13.75 4.09125,8.047 5.18945,16.5173 3.06779,23.6617 -2.61675,8.8116 -7.53186,13.8846 -23.84538,24.6115 -8.31125,5.4651 -16.20334,11.791 -19.31695,15.4835 -2.89544,3.4339 -5.59826,6.1948 -6.00628,6.1355 -0.408,-0.059 -4.39807,-3.9132 -8.86682,-8.5641 z m 220.27814,-14.5239 c -5.91007,-4.1396 -1.86503,-11.8042 6.22974,-11.8042 4.80994,0 7.95313,-2.5941 6.7962,-5.609 -0.52669,-1.3726 -2.62111,-1.891 -7.63985,-1.891 -3.96962,0 -6.91423,-0.5556 -6.91423,-1.3047 0,-0.8202 3.36603,-1.1684 9.0625,-0.9375 8.80091,0.3566 9.0737,0.4643 9.45073,3.729 0.52782,4.5707 -3.58835,8.5132 -8.88823,8.5132 -4.53701,0 -7.125,1.8584 -7.125,5.1163 0,2.6829 2.49919,3.6337 9.551,3.6337 3.41273,0 5.29509,0.4878 4.824,1.25 -1.21741,1.9699 -12.25562,1.4694 -15.34686,-0.6958 z m 0.34686,-47.4888 c -15.60494,-13.6147 -14.77444,-12.5415 -14.02571,-18.1236 1.267,-9.4462 7.1676,-12.2776 16.40579,-7.8722 4.03901,1.9261 4.55887,1.9261 7.49843,0 1.73719,-1.1383 5.1341,-2.0696 7.54869,-2.0696 5.45074,0 8.76599,4.3841 8.76599,11.5921 0,3.9158 -0.77214,5.586 -3.80164,8.2234 -3.41591,2.9738 -15.19799,11.6424 -16.76655,12.3359 -0.34375,0.152 -2.875,-1.6867 -5.625,-4.086 z m 4.61804,-30.8223 c -2.29405,-2.2941 -1.77413,-4.7431 1.00696,-4.7431 2.58134,0 3.19953,1.9632 1.47389,4.6806 -0.76574,1.2058 -1.32348,1.2199 -2.48085,0.062 z M -948.5598,572.44028 c 0,-0.63128 0.34694,-2.05188 0.77098,-3.15692 0.59674,-1.55507 1.16173,-1.68483 2.5,-0.57417 2.54209,2.10975 2.1045,4.87885 -0.77098,4.87885 -1.375,0 -2.5,-0.5165 -2.5,-1.14776 z m 214.6875,-4.6841 c -1.89062,-0.32132 -3.4375,-0.86561 -3.4375,-1.20957 0,-0.34396 1.4301,-2.50033 3.178,-4.79196 3.4632,-4.54047 7.22105,-19.27331 5.41533,-21.23097 -0.67144,-0.72794 -2.91489,0.58199 -5.78269,3.37646 -11.9568,11.65109 -27.36114,10.93906 -36.50775,-1.68745 -4.30536,-5.94339 -6.86819,-16.74786 -5.74664,-24.22691 1.38968,-9.26699 6.28003,-14.99614 21.52575,-25.21784 7.67635,-5.14671 17.14394,-12.69883 21.03909,-16.78249 l 7.08209,-7.42482 7.71091,7.91202 c 4.241,4.35161 13.80895,12.0409 21.2621,17.0873 14.22116,9.62891 18.38325,14.31703 20.75541,23.37867 2.39846,9.16215 -1.73444,22.3333 -9.01319,28.72412 -10.42867,9.1565 -23.87892,8.16827 -33.59386,-2.46822 -2.54751,-2.78917 -3.92905,-3.50198 -4.9019,-2.52913 -2.48045,2.48045 2.49629,16.65491 7.93682,22.60522 1.41188,1.54417 2.17799,3.19663 1.70248,3.67214 -1.05687,1.05689 -13.8931,1.6175 -18.62445,0.81343 z m -230.56777,-5.0073 c -1.20335,-1.83655 -2.18791,-5.55037 -2.18791,-8.25293 0,-5.35681 1.4601,-7.0238 14.22036,-16.23534 l 6.51402,-4.70242 5.71391,4.70242 c 13.45832,11.0759 14.5014,12.43725 13.76073,17.95935 -1.25702,9.37174 -7.18457,12.19112 -16.39592,7.79853 -4.039,-1.92608 -4.55887,-1.92608 -7.49843,0 -5.02791,3.29441 -11.51851,2.71109 -14.12676,-1.26961 z m 8.38027,-54.63278 c 0,-5.32071 2.46907,-7.38963 9.82935,-8.23634 5.1709,-0.59485 5.79565,-1.00358 5.79565,-3.79172 0,-2.865 -0.52,-3.15724 -6.25,-3.51249 -9.61945,-0.5964 -10.01052,-2.73751 -0.5,-2.73751 8.6384,0 11.125,1.26985 11.125,5.68126 0,3.84757 -3.88282,6.81874 -8.91093,6.81874 -4.79463,0 -7.33907,1.82016 -7.33907,5.25 0,1.89098 1.08523,2.25 6.80123,2.25 3.74068,0 7.14887,0.5625 7.57377,1.25 0.489,0.79122 -2.69535,1.25 -8.67623,1.25 l -9.44877,0 0,-4.22194 z m 78.4375,-117.96551 c 82.67188,-0.17745 217.95313,-0.17745 300.625,0 82.67188,0.17744 15.03125,0.32262 -150.3125,0.32262 -165.34375,0 -232.98437,-0.14518 -150.3125,-0.32262 z"
         id="path4619"
         inkscape:connector-curvature="0" />
      <path
         style="fill:#171717"
         d="m -876.9973,1261.4006 c 82.32813,-0.1775 217.04688,-0.1775 299.375,0 82.32813,0.1775 14.96875,0.3227 -149.6875,0.3227 -164.65625,0 -232.01562,-0.1452 -149.6875,-0.3227 z m -162.1948,-435.31256 c 0,-233.40625 0.1439,-328.89063 0.3198,-212.1875 0.1758,116.70312 0.1758,307.67187 0,424.37496 -0.1759,116.7032 -0.3198,21.2188 -0.3198,-212.18746 z m 623.75005,0 c 0,-233.40625 0.14387,-328.89063 0.31972,-212.1875 0.17585,116.70312 0.17585,307.67187 0,424.37496 -0.17585,116.7032 -0.31972,21.2188 -0.31972,-212.18746 z M -1000.039,1215.1908 c -1.8447,-1.1444 -4.0947,-3.4645 -5,-5.1559 -2.4567,-4.5905 -2.4423,-763.33015 0.015,-767.92098 0.9132,-1.70642 3.25,-4.04158 5.19282,-5.18923 3.26969,-1.93146 23.53828,-2.08665 272.52168,-2.08665 248.9834,0 269.25199,0.15519 272.52167,2.08665 1.94283,1.14765 4.27963,3.48281 5.19288,5.18923 2.46986,4.61499 2.46986,763.33328 0,767.94828 -0.91325,1.7064 -3.25005,4.0415 -5.19288,5.1892 -3.27018,1.9317 -23.51477,2.0842 -272.71453,2.0534 -248.88801,-0.031 -269.43502,-0.1901 -272.53634,-2.114 z m 547.16101,-3.4209 3.06819,-3.0682 0,-382.61366 0,-382.61364 -3.06819,-3.06818 -3.06817,-3.06818 -271.36364,0 -271.36364,0 -3.06816,3.06818 -3.0682,3.06818 0,382.61364 0,382.61366 3.0682,3.0682 3.06816,3.0681 271.36364,0 271.36364,0 3.06817,-3.0681 z m -282.55681,-36.1833 c -4.125,-4.2899 -13.2824,-11.5945 -20.34978,-16.2324 -15.81438,-10.3779 -19.32581,-15.0322 -20.06183,-26.5912 -0.55579,-8.7284 1.60877,-16.387 6.32667,-22.3848 3.2715,-4.159 11.43114,-7.9763 17.12779,-8.0127 5.45491,-0.035 14.17063,4.1534 17.92288,8.6127 1.59447,1.8949 4.6766,3.8008 6.84913,4.2353 3.3954,0.6791 4.32034,0.2701 6.58679,-2.9129 4.07173,-5.7182 12.289,-9.9626 19.28797,-9.9626 11.15631,0 19.39307,7.3563 22.75688,20.3241 2.14423,8.2662 2.11004,10.6385 -0.24966,17.3266 -2.61234,7.4042 -7.69033,12.3957 -22.32672,21.9466 -6.80892,4.4431 -15.31448,11.1326 -18.90123,14.8656 -3.58677,3.7329 -6.73457,6.7418 -6.99514,6.6864 -0.26056,-0.055 -3.84875,-3.6108 -7.97375,-7.9007 z m 219.4321,-15.0548 c -2.23572,-2.6938 -1.09089,-7.0257 2.4429,-9.2434 l 3.125,-1.9612 -2.8125,3.1485 c -3.36112,3.7626 -3.44275,4.5941 -0.74376,7.5764 1.1378,1.2573 1.48792,2.2859 0.77805,2.2859 -0.70988,0 -1.96523,-0.8127 -2.78969,-1.8062 z m 12.61693,-11.8623 c 2.61445,-2.1428 2.76291,-2.7269 1.30186,-5.1218 -1.75476,-2.8763 -1.26733,-4.5008 0.94095,-3.1361 1.80477,1.1155 1.69201,7.3176 -0.16684,9.1764 -0.825,0.825 -2.29356,1.5 -3.26347,1.5 -1.10883,0 -0.66798,-0.8978 1.1875,-2.4185 z m -10.97779,-34.8056 c -2.16083,-1.8705 -6.23895,-5.2607 -9.0625,-7.5339 -4.46292,-3.5931 -5.13374,-4.7847 -5.13374,-9.1194 0,-3.6273 0.83615,-5.8223 3.06819,-8.0544 3.77584,-3.7758 6.0105,-3.8415 11.67147,-0.3428 l 4.40975,2.7254 4.73544,-2.7254 c 6.05726,-3.4861 8.02524,-3.4289 11.79696,0.3428 4.65722,4.6572 4.21686,11.0973 -1.1022,16.1193 -5.93611,5.6047 -14.23191,12.069 -15.43303,12.0259 -0.56187,-0.02 -2.78952,-1.567 -4.95034,-3.4375 z m -215.10207,-10.6013 c -0.78338,-2.929 -2.86879,-7.4539 -4.63424,-10.0555 -1.76547,-2.6015 -3.20993,-5.2676 -3.20993,-5.9246 0,-1.4664 14.98528,-1.5618 17.2751,-0.1098 1.29795,0.8229 0.97831,2.0361 -1.49776,5.6849 -1.73133,2.5512 -3.52211,7.1343 -3.97953,10.1845 -0.45742,3.0503 -1.21364,5.546 -1.68049,5.546 -0.46684,0 -1.48976,-2.3964 -2.27315,-5.3254 z m 218.40583,-22.1746 c 0,-0.6875 0.5625,-1.25 1.25,-1.25 0.6875,0 1.25,0.5625 1.25,1.25 0,0.6875 -0.5625,1.25 -1.25,1.25 -0.6875,0 -1.25,-0.5625 -1.25,-1.25 z m -436.25,-509.99996 c 0,-0.6875 0.5625,-1.25 1.25,-1.25 0.6875,0 1.25,0.5625 1.25,1.25 0,0.6875 -0.5625,1.25 -1.25,1.25 -0.6875,0 -1.25,-0.5625 -1.25,-1.25 z m 212.75334,-4.81697 c -1.30141,-0.82556 -1.25269,-1.33493 0.24671,-2.57933 1.88558,-1.56489 4.85334,-8.81895 6.43489,-15.7287 0.84051,-3.67212 0.90682,-3.61018 3.19365,2.98335 1.28442,3.70335 3.74969,8.58769 5.47836,10.8541 1.72868,2.26641 3.14305,4.43952 3.14305,4.82915 0,1.11301 -16.68676,0.78953 -18.49666,-0.35857 z m -228.43516,-3.25122 c -3.28089,-3.28089 -4.05061,-9.01047 -1.78034,-13.25251 1.06308,-1.9864 6.70003,-6.739 16.83854,-14.19686 1.50785,-1.10918 3.86536,0.46902 16.37133,10.95955 5.47379,4.59163 5.98353,11.6904 1.18411,16.48982 -3.77174,3.77174 -5.73971,3.82893 -11.79697,0.34281 l -4.73544,-2.72537 -4.40975,2.72537 c -5.66097,3.49868 -7.89563,3.43304 -11.67148,-0.34281 z m 199.33392,-14.77406 c -8.5949,-5.7921 -13.0392,-16.25408 -12.14664,-28.59347 0.77843,-10.76161 4.69909,-15.64278 21.3692,-26.60436 7.73255,-5.0846 17.06388,-12.42176 20.73628,-16.30478 l 6.6771,-7.06005 7.93332,8.05123 c 4.36334,4.42817 13.43915,11.69541 20.16849,16.14941 14.1286,9.35142 15.5647,10.77307 19.2121,19.01862 3.3386,7.54745 2.69671,15.61994 -2.00639,25.23271 -7.18132,14.67813 -24.96832,17.33018 -36.8101,5.4884 -6.80782,-6.80782 -10.0775,-7.01252 -15.90182,-0.9955 -6.46265,6.67648 -10.31262,8.46004 -18.26172,8.46004 -4.95332,0 -7.87584,-0.75721 -10.96982,-2.84225 z m -191.56877,-36.74108 c -1.61946,-1.61947 -0.80402,-6.30573 1.4526,-8.34794 3.18954,-2.88649 4.82715,-2.59428 2.13465,0.3809 -1.50842,1.66679 -1.96219,3.4644 -1.41992,5.625 0.75313,3.00068 -0.33396,4.1754 -2.16733,2.34204 z m 14.47917,-11.76679 c 2.69458,-1.56945 2.8366,-5.30506 0.28229,-7.42495 -1.04786,-0.86965 -1.61381,-1.87258 -1.25766,-2.22873 0.94805,-0.94805 5.66287,3.61721 5.66287,5.48325 0,2.0187 -3.46213,5.53258 -5.40179,5.48254 -0.81026,-0.0209 -0.48883,-0.61136 0.71429,-1.31211 z m 63.75,-109.58733 c 82.32813,-0.17747 217.04688,-0.17747 299.375,0 82.32813,0.17746 14.96875,0.32267 -149.6875,0.32267 -164.65625,0 -232.01562,-0.14521 -149.6875,-0.32267 z"
         id="path4617"
         inkscape:connector-curvature="0" />
      <path
         style="fill:#010101"
         d="m -861.3723,1216.4006 c 73.73438,-0.1781 194.39063,-0.1781 268.125,0 73.73438,0.1781 13.40625,0.3238 -134.0625,0.3238 -147.46875,0 -207.79687,-0.1457 -134.0625,-0.3238 z m 126.33986,-41.5509 c -3.9037,-4.0499 -12.75794,-11.0839 -19.67608,-15.631 -6.91814,-4.5471 -13.94753,-10.0648 -15.62087,-12.2616 -9.12895,-11.9844 -5.81551,-32.1117 6.67169,-40.5268 8.19279,-5.5211 21.29778,-3.1254 28.6387,5.2355 1.95581,2.2275 5.07394,4.431 6.92917,4.8966 2.90239,0.7285 4.21473,-0.017 9.40298,-5.3439 16.01815,-16.4452 37.25211,-7.6248 39.74294,16.509 1.38836,13.4519 -3.53505,20.7079 -22.34693,32.9341 -6.65831,4.3274 -15.13941,10.9749 -18.84689,14.7722 -3.70747,3.7973 -6.97851,6.8761 -7.26897,6.8418 -0.29045,-0.034 -3.72204,-3.376 -7.62574,-7.4259 z m 222.77961,-60.568 c -0.82452,-0.9935 -4.17856,-3.5257 -7.45341,-5.6272 -8.86269,-5.6872 -11.03922,-11.9507 -6.26284,-18.0229 3.1299,-3.979 7.64139,-4.2757 12.06819,-0.7936 1.74803,1.375 3.87027,2.5 4.71609,2.5 0.84583,0 2.96806,-1.125 4.71609,-2.5 6.23265,-4.9026 12.23434,-2.3409 14.00271,5.9767 0.7817,3.6768 0.35409,4.5831 -4.12817,8.75 -7.09372,6.5945 -13.47603,11.5233 -14.92163,11.5233 -0.68084,0 -1.9125,-0.8128 -2.73702,-1.8063 z m -216.87255,-12.8812 c -0.46012,-1.8906 -2.25074,-5.5984 -3.97914,-8.2397 -1.72841,-2.6412 -2.79082,-5.1539 -2.36091,-5.5838 0.86798,-0.868 14.1601,-0.9012 15.02375,-0.037 0.30041,0.3004 -0.84078,3.2858 -2.53597,6.6342 -1.69519,3.3484 -3.08215,7.1177 -3.08215,8.3762 0,3.5118 -2.12509,2.715 -3.06558,-1.1494 z m -2.11939,-534.94547 -3.30998,-0.50844 2.874,-5.24177 c 1.5807,-2.88298 3.27001,-7.13598 3.75404,-9.45112 l 0.88005,-4.20934 2.89806,7.13054 c 1.59394,3.92179 3.80468,8.13233 4.91275,9.35673 1.88575,2.08372 1.76186,2.27675 -1.93589,3.0163 -2.17281,0.43456 -4.58337,0.70583 -5.35681,0.60282 -0.77344,-0.103 -2.89574,-0.41609 -4.71622,-0.69572 z m -231.35718,-3.80449 c -1.06129,-1.20313 -2.32203,-4.03324 -2.80165,-6.28914 -0.7817,-3.67679 -0.35409,-4.58313 4.12817,-8.75 9.65033,-8.97127 14.12888,-12.04175 15.77493,-10.81524 0.86131,0.64179 4.66664,3.30448 8.45629,5.91712 9.83518,6.78046 12.04359,12.60197 7.14368,18.83118 -3.1299,3.97903 -7.64139,4.27569 -12.06818,0.79358 -1.74803,-1.375 -3.87027,-2.5 -4.71609,-2.5 -0.84582,0 -2.96806,1.125 -4.71609,2.5 -3.91905,3.08272 -8.6412,3.21447 -11.20106,0.3125 z m 202.16715,-13.3342 c -16.1977,-7.22998 -20.0985,-34.37153 -6.68415,-46.50792 1.61379,-1.46004 8.58293,-6.33928 15.48698,-10.84276 6.90406,-4.50348 15.25938,-11.08166 18.56738,-14.61819 l 6.01457,-6.43004 8.93261,8.64116 c 4.91294,4.75264 13.72185,11.72408 19.57536,15.49208 16.66923,10.73024 20.88315,17.43124 19.63283,31.22011 -2.04602,22.56382 -23.87356,31.91009 -39.05907,16.72456 -8.07977,-8.07976 -10.47528,-8.16986 -17.58435,-0.66135 -7.91967,8.36467 -16.43306,10.75368 -24.88216,6.98235 z M -861.3723,435.1506 c 73.73438,-0.1781 194.39063,-0.1781 268.125,0 73.73438,0.1781 13.40625,0.32382 -134.0625,0.32382 -147.46875,0 -207.79687,-0.14572 -134.0625,-0.32382 z"
         id="path4615"
         inkscape:connector-curvature="0" />
    </g>
  </g>
</svg>
