<?xml version="1.0" encoding="UTF-8" standalone="no"?>
<!-- Created with Inkscape (http://www.inkscape.org/) -->

<svg
   xmlns:dc="http://purl.org/dc/elements/1.1/"
   xmlns:cc="http://creativecommons.org/ns#"
   xmlns:rdf="http://www.w3.org/1999/02/22-rdf-syntax-ns#"
   xmlns:svg="http://www.w3.org/2000/svg"
   xmlns="http://www.w3.org/2000/svg"
   xmlns:sodipodi="http://sodipodi.sourceforge.net/DTD/sodipodi-0.dtd"
   xmlns:inkscape="http://www.inkscape.org/namespaces/inkscape"
   width="176.4539mm"
   height="246.30457mm"
   viewBox="0 0 625.23037 872.73271"
   id="svg2"
   version="1.1"
   inkscape:version="0.91 r13725"
   sodipodi:docname="3.svg">
  <defs
     id="defs4">
    <pattern
       y="0"
       x="0"
       height="6"
       width="6"
       patternUnits="userSpaceOnUse"
       id="EMFhbasepattern" />
    <pattern
       y="0"
       x="0"
       height="6"
       width="6"
       patternUnits="userSpaceOnUse"
       id="EMFhbasepattern-7" />
  </defs>
  <sodipodi:namedview
     id="base"
     pagecolor="#ffffff"
     bordercolor="#666666"
     borderopacity="1.0"
     inkscape:pageopacity="0.0"
     inkscape:pageshadow="2"
     inkscape:zoom="0.35"
     inkscape:cx="68.297835"
     inkscape:cy="63.669909"
     inkscape:document-units="px"
     inkscape:current-layer="layer1"
     showgrid="false"
     fit-margin-top="0"
     fit-margin-left="0"
     fit-margin-right="0"
     fit-margin-bottom="0"
     inkscape:window-width="784"
     inkscape:window-height="822"
     inkscape:window-x="800"
     inkscape:window-y="0"
     inkscape:window-maximized="0" />
  <metadata
     id="metadata7">
    <rdf:RDF>
      <cc:Work
         rdf:about="">
        <dc:format>image/svg+xml</dc:format>
        <dc:type
           rdf:resource="http://purl.org/dc/dcmitype/StillImage" />
        <dc:title></dc:title>
      </cc:Work>
    </rdf:RDF>
  </metadata>
  <g
     inkscape:label="Calque 1"
     inkscape:groupmode="layer"
     id="layer1"
     transform="translate(34.7264,276.70045)">
    <g
       transform="translate(-1475.7377,-1749.311)"
       id="g4757">
      <path
         style="fill:#fdfdfd"
         d="m 1441.1249,1908.9716 0,-436.25 312.5,0 312.5,0 0,436.25 0,436.25 -312.5,0 -312.5,0 0,-436.25 z"
         id="path4773"
         inkscape:connector-curvature="0" />
      <path
         style="fill:#e6e6e6"
         d="m 1447.2501,2343.6633 c -1.8959,-0.7539 -3.8487,-2.9486 -4.6875,-5.2682 -2.0668,-5.7156 -2.07,-853.1223 0,-858.8378 0.9685,-2.6784 2.7229,-4.4328 5.4013,-5.4013 5.6984,-2.0606 605.6302,-2.0606 611.3286,0 2.6784,0.9685 4.4328,2.7229 5.4013,5.4013 2.0638,5.7073 2.0638,853.1213 0,858.8286 -0.9685,2.6784 -2.7229,4.4328 -5.4013,5.4013 -5.3415,1.9315 -607.1766,1.8097 -612.0391,-0.1239 z m 611.471,-5.8455 3.6538,-3.6539 0,-425.1923 0,-425.1923 -3.6538,-3.6539 -3.6539,-3.6538 -301.4423,0 -301.4423,0 -3.6539,3.6538 -3.6538,3.6539 0,425.1923 0,425.1923 3.6538,3.6539 3.6539,3.6538 301.4423,0 301.4423,0 3.6539,-3.6538 z m -576.9684,-34.5607 c -2.061,-1.0772 -4.7904,-2.9027 -6.0655,-4.0566 -6.1617,-5.5763 -5.8123,17.881 -5.8123,-390.2289 0,-336.4355 0.2208,-381.8011 1.8737,-384.9975 1.0305,-1.9928 3.9399,-5.1992 6.4652,-7.1254 l 4.5915,-3.5021 270.8196,0 270.8196,0 4.5915,3.5021 c 2.5254,1.9262 5.4347,5.1326 6.4652,7.1254 1.6529,3.1964 1.8737,48.562 1.8737,384.9975 0,336.4355 -0.2208,381.8011 -1.8737,384.9975 -1.0305,1.9928 -3.9398,5.1992 -6.4651,7.1254 l -4.5914,3.5021 -269.4724,0.3095 c -242.6017,0.2787 -269.8461,0.1142 -273.2196,-1.649 z m 543.1222,-11.7855 c 2.489,-2.489 2.5,-4.1667 2.5,-382.5 0,-378.3333 -0.011,-380.011 -2.5,-382.5 -2.4845,-2.4845 -4.1667,-2.5 -271.25,-2.5 -267.0833,0 -268.7655,0.015 -271.25,2.5 -2.489,2.489 -2.5,4.1667 -2.5,382.5 0,378.3333 0.011,380.011 2.5,382.5 2.4845,2.4845 4.1667,2.5 271.25,2.5 267.0833,0 268.7655,-0.015 271.25,-2.5 z m -275.4722,-22.2045 c -2.6825,-5.1874 -14.2029,-15.5598 -24.635,-22.1802 -18.6491,-11.8351 -24.2192,-19.648 -24.1877,-33.9264 0.016,-7.4239 0.6486,-10.1654 3.7355,-16.2015 5.1767,-10.1222 11.7186,-14.579 22.3979,-15.2589 6.9156,-0.4404 8.8571,-0.053 13.9144,2.7731 3.2325,1.8067 6.1374,3.0248 6.4553,2.7069 1.0832,-1.0832 -4.9431,-11.9963 -7.33,-13.2737 -2.7127,-1.4518 -3.1372,-5.2488 -0.8033,-7.1857 2.72,-2.2574 16.0649,-2.9839 22.8001,-1.2412 4.816,1.2461 6.338,2.2347 6.6336,4.3089 0.223,1.5647 -0.615,3.3966 -2.0013,4.375 -2.9747,2.0994 -6.5073,8.8077 -6.5073,12.3572 0,2.6261 0.066,2.6178 3.7355,-0.47 2.0546,-1.7288 6.7561,-3.8192 10.4479,-4.6454 5.7331,-1.283 7.6464,-1.1919 13.1143,0.6242 8.2855,2.752 15.254,10.4706 18.3555,20.331 2.9938,9.5181 2.831,15.8441 -0.6122,23.7883 -3.3729,7.7818 -8.7084,12.8535 -23.4626,22.3025 -11.9821,7.6737 -19.1148,13.938 -23.0091,20.2079 -3.0986,4.9889 -6.6525,5.2279 -9.0415,0.608 z m 213.1041,-22.6636 c -1.9235,-1.9235 -2.3806,-4.2825 -2.4349,-12.565 -0.089,-13.5978 1.2689,-15.0669 13.928,-15.0669 9.397,0 12.125,1.1713 12.125,5.206 0,3.0411 -3.7304,4.7573 -10.8553,4.9941 -4.9813,0.1655 -5.265,0.2854 -1.6447,0.6949 3.9373,0.4454 7.5,3.0602 7.5,5.5046 0,0.507 -0.8839,1.8058 -1.9643,2.8861 -1.7857,1.7857 -1.6761,1.9643 1.206,1.9643 3.5092,0 6.1974,3.6513 4.9951,6.7845 -1.1993,3.1253 -19.652,2.8003 -22.8549,-0.4026 z m 2.2346,-45.4734 c -3.1671,-2.9059 -8.0658,-7.1239 -10.8859,-9.3733 -5.9033,-4.7086 -7.5639,-10.0902 -5.2639,-17.0592 1.8678,-5.6595 6.716,-9.476 12.0376,-9.476 3.2063,0 3.9999,-0.4361 3.4416,-1.8909 -1.1181,-2.9137 1.9301,-5.6091 6.3433,-5.6091 5.0255,0 8.8868,2.6854 7.8281,5.4442 -0.6513,1.6973 0.086,2.0558 4.2288,2.0558 6.0869,0 10.276,3.6548 12.4302,10.8448 2.0933,6.987 -0.6176,12.8961 -8.3454,18.1905 -3.2832,2.2493 -7.9033,5.9178 -10.2669,8.1522 -2.3636,2.2344 -4.6331,4.0495 -5.0433,4.0335 -0.4101,-0.016 -3.337,-2.4065 -6.5042,-5.3125 z m -218.9895,-237.926 c -7.6621,-2.3549 -8.5088,-4.5956 -3.5634,-9.4306 3.5362,-3.4573 7.2092,-11.9458 5.7852,-13.3698 -0.3209,-0.3209 -1.5713,0.2828 -2.7786,1.3415 -6.7142,5.8876 -18.6982,7.7796 -26.9228,4.2505 -12.7353,-5.4646 -20.9538,-25.1465 -16.646,-39.8641 2.6794,-9.1542 8.0624,-15.0204 22.1389,-24.1258 13.9362,-9.0146 21.1688,-15.1872 24.9344,-21.28 1.446,-2.3398 3.4905,-4.2542 4.5431,-4.2542 1.0527,0 5.5231,3.8982 9.9342,8.6626 4.6154,4.9851 13.3094,12.1949 20.4796,16.9835 14.6675,9.7956 20.1229,15.7089 23.0355,24.969 1.83,5.8179 1.9171,7.7568 0.6108,13.594 -3.6267,16.2056 -12.5896,25.5022 -25.6722,26.6281 -6.4191,0.5524 -8.3171,0.1573 -14.5682,-3.0327 -3.9531,-2.0173 -7.1875,-3.4555 -7.1875,-3.196 0,2.112 4.1803,9.5446 7.4852,13.3087 4.7183,5.3738 3.9366,7.4727 -3.558,9.5544 -6.0509,1.6807 -10.8107,1.4858 -18.0502,-0.7391 z m -216.4662,-304.6767 c -1.4186,-1.0373 -2.0111,-2.4914 -1.5281,-3.75 0.6513,-1.6973 -0.086,-2.0558 -4.2287,-2.0558 -6.087,0 -10.2761,-3.6548 -12.4303,-10.8448 -2.0933,-6.987 0.6177,-12.8961 8.3454,-18.1905 3.2832,-2.2493 7.9034,-5.9178 10.267,-8.1522 2.3636,-2.2344 4.5747,-4.0625 4.9135,-4.0625 0.3389,0 3.2701,2.3906 6.5139,5.3125 3.2438,2.9219 8.2008,7.1529 11.0156,9.4023 5.8929,4.7092 7.5521,10.0965 5.2542,17.0592 -1.8678,5.6595 -6.716,9.476 -12.0376,9.476 -3.2063,0 -3.9999,0.4361 -3.4416,1.8909 1.8325,4.7756 -7.51,7.6684 -12.6433,3.9149 z m 217.1325,-4.5582 c -2.9324,-0.6181 -5.8856,-1.4661 -6.5625,-1.8845 -2.1508,-1.3292 -1.3271,-5.4736 1.3755,-6.92 2.4739,-1.324 7.3075,-10.0793 7.3663,-13.3429 0.016,-0.9045 -1.8257,-0.2673 -4.5275,1.5662 -18.0283,12.2343 -38.1908,2.4131 -42.9024,-20.898 -3.4108,-16.8752 2.8152,-27.149 25.1,-41.419 10.9954,-7.0409 22.9175,-17.9569 24.2717,-22.2235 1.2285,-3.8705 5.003,-2.726 8.7257,2.6459 4.7079,6.7934 10.7604,12.0839 24.0393,21.0127 13.6736,9.194 18.716,14.1122 21.9934,21.4515 7.1097,15.9208 -2.4565,38.4302 -18.3365,43.1461 -7.4961,2.2261 -13.0529,1.5147 -20.6812,-2.6475 -3.0085,-1.6415 -5.6879,-2.9846 -5.9543,-2.9846 -1.303,0 3.7368,9.5434 7.0062,13.267 3.791,4.3177 3.9126,7.19 0.3622,8.5524 -3.6981,1.4191 -15.9132,1.8084 -21.2759,0.6782 z m -223.9935,-56.8126 c -0.8284,-0.9982 -1.3135,-2.8263 -1.078,-4.0625 0.3485,-1.8285 1.8891,-2.317 8.2646,-2.6206 8.0375,-0.3827 9.9303,-2.7519 2.1986,-2.7519 -4.6535,0 -6.4339,-2.515 -4.4305,-6.2584 1.786,-3.3371 1.5973,-3.7416 -1.7458,-3.7416 -3.5288,0 -5.0236,-2.9523 -3.2102,-6.3406 1.0923,-2.041 2.6829,-2.4094 10.4026,-2.4094 7.9668,0 9.4626,0.372 11.8915,2.9575 1.937,2.0618 2.7512,4.4278 2.6885,7.8125 -0.049,2.6702 0.2635,6.6497 0.6955,8.8433 0.6357,3.2283 0.1757,4.598 -2.4138,7.1875 -2.8576,2.8576 -4.1899,3.1992 -12.4779,3.1992 -6.5864,0 -9.7159,-0.5266 -10.7851,-1.815 z"
         id="path4771"
         inkscape:connector-curvature="0" />
      <path
         style="fill:#d7d7d7"
         d="m 1447.5125,2343.4772 c -6.7121,-3.7202 -6.2956,24.7837 -6.3433,-434.1343 -0.034,-328.0882 0.3003,-427.26 1.4491,-429.7812 3.3332,-7.3157 -18.2831,-6.8401 310.8857,-6.8401 231.8704,0 303.2686,0.3487 305.7808,1.4934 7.3554,3.3513 6.8401,-29.4033 6.8401,434.7566 0,464.1599 0.5153,431.4053 -6.8401,434.7566 -5.0745,2.3122 -607.5939,2.0649 -611.7723,-0.251 z m 604.8624,-0.7556 c 0,-0.6875 0.9481,-1.25 2.1069,-1.25 2.8688,0 7.8931,-4.9128 7.8931,-7.7179 0,-1.2551 0.5625,-2.2821 1.25,-2.2821 0.8309,0 1.25,-141.6667 1.25,-422.5 0,-280.8333 -0.4191,-422.5 -1.25,-422.5 -0.6875,0 -1.25,-1.0842 -1.25,-2.4093 0,-2.5807 -5.4739,-7.5907 -8.2936,-7.5907 -0.9385,0 -1.7064,-0.5625 -1.7064,-1.25 0,-0.8298 -100.4167,-1.25 -298.75,-1.25 -198.3333,0 -298.75,0.4202 -298.75,1.25 0,0.6875 -0.7679,1.25 -1.7064,1.25 -2.8197,0 -8.2936,5.01 -8.2936,7.5907 0,1.3251 -0.5625,2.4093 -1.25,2.4093 -0.8309,0 -1.25,141.6667 -1.25,422.5 0,280.8333 0.4191,422.5 1.25,422.5 0.6875,0 1.25,0.9481 1.25,2.1069 0,2.8688 4.9128,7.8931 7.7179,7.8931 1.2552,0 2.2821,0.5625 2.2821,1.25 0,0.8299 100.4167,1.25 298.75,1.25 198.3333,0 298.75,-0.4201 298.75,-1.25 z m -572.6247,-41.4171 c -2.4749,-1.4353 -5.428,-4.1811 -6.5625,-6.1017 -1.905,-3.2247 -2.0628,-32.7789 -2.0628,-386.2312 0,-354.3579 0.1539,-382.9997 2.0749,-386.2518 1.1412,-1.9319 4.1709,-4.6906 6.7327,-6.1304 l 4.6578,-2.6178 269.0346,0 269.0346,0 4.6578,2.6178 c 2.5618,1.4398 5.5915,4.1985 6.7327,6.1304 1.921,3.2521 2.0749,31.8939 2.0749,386.2518 0,354.3579 -0.1539,382.9997 -2.0749,386.2518 -1.1412,1.9319 -4.1709,4.6906 -6.7327,6.1304 l -4.6578,2.6178 -269.2048,-0.029 -269.2048,-0.029 -4.4997,-2.6097 z m 545.5577,-8.4234 c 1.9144,-1.589 2.067,-29.8749 2.067,-383.1986 0,-327.4939 -0.2511,-381.8265 -1.7742,-383.9095 -1.7469,-2.3889 -5.9485,-2.4264 -271.9758,-2.4264 -266.1326,0 -270.2283,0.037 -271.9778,2.4292 -1.5274,2.0889 -1.7322,55.9216 -1.4617,384.3381 l 0.3145,381.9089 3.125,1.5857 c 4.8186,2.445 538.7244,1.728 541.683,-0.7274 z m -277.0255,-26.3652 c -4.2938,-6.0704 -13.7955,-14.1507 -25.2825,-21.5003 -15.8011,-10.1098 -21.7954,-18.4795 -21.8475,-30.5046 -0.044,-10.1283 3.1553,-18.788 9.159,-24.7917 9.2965,-9.2965 21.1278,-10.4516 32.5911,-3.1818 3.1473,1.996 5.7224,3.0609 5.7224,2.3664 0,-2.8364 -3.9812,-10.4905 -7.6008,-14.6131 -3.4407,-3.9187 -3.6545,-4.5996 -1.9724,-6.2817 3.7185,-3.7185 22.6651,-3.5134 27.8419,0.3014 2.2603,1.6656 2.1977,1.9053 -1.5386,5.8862 -3.6061,3.8423 -6.7301,10.4546 -6.7301,14.2452 0,0.9817 2.7418,-0.054 7.114,-2.6865 8.4309,-5.0768 16.4537,-5.7147 23.8733,-1.8983 13.3027,6.8426 20.5937,24.6962 15.8804,38.8866 -3.0014,9.0363 -8.6248,14.768 -25.2772,25.7642 -10.0517,6.6374 -15.8036,11.4146 -19.4881,16.1855 -2.8751,3.7228 -6.0711,6.7588 -7.1024,6.7468 -1.0312,-0.013 -3.4354,-2.228 -5.3425,-4.9243 z m 215.6778,-19.6793 c -2.0189,-1.7589 -2.7284,-4.2976 -3.3032,-11.8199 -1.0437,-13.6591 0.2459,-15.0387 13.5929,-14.5422 9.7341,0.3622 10,0.4552 10,3.4971 0,2.908 -0.4774,3.1517 -6.875,3.5091 -7.3587,0.4111 -12.0243,2.7409 -5.4889,2.7409 2.0686,0 4.853,0.8108 6.1875,1.8018 3.3527,2.4896 1.0408,6.0732 -4.578,7.0961 -4.0035,0.7289 -3.9206,0.7824 1.453,0.9375 7.1969,0.2079 11.1419,2.8012 9.1709,6.0289 -2.042,3.344 -16.5617,3.8847 -20.1592,0.7507 z m 0.9147,-46.6685 c -17.2831,-15.3351 -16.25,-14.0422 -16.25,-20.3352 0,-4.6604 0.7244,-6.6326 3.6313,-9.886 3.0179,-3.3776 4.4793,-4.042 8.6506,-3.9326 4.6659,0.1224 5.0042,-0.099 4.8061,-3.143 -0.2003,-3.0793 0.1225,-3.2747 5.412,-3.2747 5.3322,0 5.6223,0.1812 5.5725,3.4797 -0.047,3.1117 0.2936,3.4037 3.2203,2.7609 11.3401,-2.4907 19.6538,13.611 11.829,22.9102 -1.7205,2.0448 -5.7986,5.4379 -9.0625,7.5403 -3.2639,2.1024 -6.6422,4.9726 -7.5074,6.3782 -2.214,3.597 -3.8913,3.1903 -10.3019,-2.4978 z m -219.9245,-237.8755 c -5.5702,-2.0965 -6.0808,-4.0066 -2.1677,-8.1089 3.1709,-3.3242 4.7457,-6.5659 6.2873,-12.9422 l 0.8112,-3.355 -6.2029,4.1742 c -10.4191,7.0115 -18.8854,7.2194 -29.1408,0.7156 -10.041,-6.3678 -15.824,-23.8525 -12.1863,-36.8449 2.3013,-8.2197 8.649,-14.7552 24.3734,-25.0947 13.2891,-8.7382 17.7218,-12.6613 24.0127,-21.2519 l 2.7375,-3.7382 8.2799,9.0391 c 5.114,5.5828 12.9094,12.0827 20.3876,16.9992 19.5215,12.8345 26.3909,22.7471 24.8397,35.844 -0.8651,7.3047 -4.8274,16.8517 -8.7307,21.0363 -9.1575,9.8174 -26.0529,10.6249 -36.1966,1.73 -1.2073,-1.0587 -2.4226,-1.694 -2.7006,-1.4118 -1.1293,1.1467 3.0745,10.4756 6.8218,15.1387 3.6949,4.5978 3.8467,5.1375 1.972,7.0122 -2.6286,2.6287 -17.2528,3.2959 -23.1975,1.0583 z M 1529.1047,1657.169 c -0.411,-1.071 -0.4064,-2.8357 0.01,-3.9214 0.6172,-1.6085 0.1034,-1.8304 -2.7741,-1.1984 -11.5783,2.543 -20.023,-13.4229 -12.0878,-22.8534 1.7205,-2.0447 5.7987,-5.4378 9.0625,-7.5403 3.2639,-2.1024 6.6422,-4.9726 7.5074,-6.3782 2.2084,-3.5877 3.4393,-3.2668 10.5742,2.7568 14.947,12.619 15.9777,13.9185 15.9777,20.1457 0,4.5837 -0.7377,6.578 -3.6313,9.8165 -3.0179,3.3776 -4.4793,4.042 -8.6506,3.9326 -4.6659,-0.1224 -5.0042,0.099 -4.8061,3.143 0.1951,2.9999 -0.2338,3.307 -5.1109,3.6596 -3.9202,0.2835 -5.521,-0.1285 -6.0713,-1.5625 z m 214.8327,-4.5959 c -4.959,-1.4318 -5.4009,-4.937 -0.987,-7.8291 2.9002,-1.9003 7.8094,-14.0542 6.2903,-15.5732 -0.3441,-0.3442 -1.8891,0.5295 -3.4332,1.9413 -7.5936,6.943 -19.4743,8.6797 -28.3615,4.1458 -9.7975,-4.9983 -16.3211,-17.0622 -16.3211,-30.1818 0,-12.7852 5.2092,-19.9224 23.1511,-31.7201 8.6644,-5.6973 16.7569,-12.254 21.4631,-17.39 4.155,-4.5344 8.115,-8.2444 8.8002,-8.2444 0.6851,0 2.8241,2.2778 4.7534,5.0618 4.2179,6.0865 11.0691,11.8585 26.6047,22.414 12.6612,8.6026 16.6597,12.9333 19.578,21.2047 2.516,7.1311 2.3954,11.9868 -0.5072,20.4232 -3.3358,9.6958 -7.0192,14.1816 -14.7512,17.9645 -8.7016,4.2573 -16.4779,3.6805 -25.433,-1.8862 -6.0253,-3.7455 -6.2865,-3.7992 -5.4582,-1.1204 1.5636,5.057 5.2298,11.5153 7.9161,13.9446 3.514,3.178 3.3208,5.5442 -0.5734,7.0247 -3.9612,1.5061 -17.2572,1.4012 -22.7311,-0.1794 z m -221.1105,-56.7265 c -1.6112,-4.1988 0.4827,-5.625 8.2588,-5.625 8.1536,0 10.4411,-2.1022 2.9783,-2.737 -5.8475,-0.4974 -8.4477,-4.0676 -4.8877,-6.7112 1.3345,-0.991 3.8658,-1.8935 5.625,-2.0055 1.7592,-0.1121 0.1621,-0.534 -3.5493,-0.9375 -12.9316,-1.4062 -11.3188,-8.8588 1.9171,-8.8588 5.0681,0 7.3365,0.6624 9.9414,2.903 2.9989,2.5796 3.4228,3.9284 3.8046,12.1057 0.5885,12.6021 -0.5326,13.7413 -13.5232,13.7413 -7.5984,0 -10.0097,-0.4279 -10.565,-1.875 z"
         id="path4769"
         inkscape:connector-curvature="0" />
      <path
         style="fill:#a6a6a6"
         d="m 1448.3281,2343.2649 c -7.802,-4.2334 -7.2032,31.869 -7.2032,-434.2933 0,-377.5517 0.2122,-425.5345 1.8962,-428.7909 4.1664,-8.057 -20.7295,-7.4591 310.6038,-7.4591 331.3333,0 306.4374,-0.5979 310.6038,7.4591 1.684,3.2564 1.8962,51.2392 1.8962,428.7909 0,377.5517 -0.2122,425.5345 -1.8962,428.7909 -4.1672,8.0585 20.7716,7.4641 -310.8542,7.4091 -264.3514,-0.044 -302.0474,-0.2795 -305.0464,-1.9067 z M 2056.7769,2342 c 8.8441,-4.1968 8.098,35.6975 8.098,-433.0284 0,-382.3907 -0.1882,-423.1438 -1.9716,-426.902 -4.1703,-8.7883 22.1934,-8.098 -309.2784,-8.098 -331.4718,0 -305.1081,-0.6903 -309.2784,8.098 -1.7834,3.7582 -1.9716,44.5113 -1.9716,426.902 0,381.6755 0.1908,423.1492 1.9637,426.8854 4.1507,8.7469 -22.3139,8.0546 309.0974,8.0861 269.9061,0.026 299.5927,-0.1644 303.3409,-1.9431 z m -575.6362,-40.872 c -3.1714,-1.6771 -6.3289,-4.6177 -7.6966,-7.168 -2.2444,-4.1849 -2.3192,-16.6053 -2.3192,-384.9884 0,-368.3831 0.075,-380.8035 2.3192,-384.9883 1.3677,-2.5504 4.5252,-5.491 7.6966,-7.168 l 5.3774,-2.8437 267.1068,0 267.1068,0 5.3774,2.8437 c 3.1714,1.677 6.3289,4.6176 7.6966,7.168 2.2444,4.1848 2.3192,16.6052 2.3192,384.9883 0,368.3831 -0.075,380.8035 -2.3192,384.9884 -1.3677,2.5503 -4.5252,5.4909 -7.6966,7.168 l -5.3774,2.8436 -267.1068,0 -267.1068,0 -5.3774,-2.8436 z m 544.9842,-8.4064 c 2.4891,-2.4891 2.5,-4.1667 2.5,-383.5143 l 0,-381.0143 -2.5487,-2.7357 -2.5487,-2.7357 -269.9026,0 -269.9026,0 -2.5487,2.7357 -2.5487,2.7357 0,381.0143 c 0,379.3476 0.011,381.0252 2.5,383.5143 2.4846,2.4846 4.1667,2.5 272.5,2.5 268.3333,0 270.0154,-0.015 272.5,-2.5 z m -277.2732,-26.7462 c -4.8392,-6.7384 -12.437,-13.1166 -26.8836,-22.5683 -12.2574,-8.0194 -17.4114,-14.0673 -19.5122,-22.8961 -2.287,-9.6109 1.1325,-22.6757 7.8777,-30.0985 8.1389,-8.9566 22.3972,-10.1956 32.8161,-2.8517 3.1624,2.2291 6.0505,3.7522 6.418,3.3847 1.2475,-1.2475 -3.7322,-12.2165 -7.488,-16.4941 -3.1755,-3.6168 -3.4916,-4.5543 -2.1002,-6.2309 1.3278,-1.5998 3.828,-1.893 13.2062,-1.5487 13.9434,0.512 16.2221,1.9161 11.3545,6.9968 -3.387,3.5353 -7.1653,12.4052 -7.1653,16.8213 0,2.2618 0.3054,2.197 3.8999,-0.8276 6.2989,-5.3002 11.2487,-7.2978 18.0829,-7.2978 11.7156,0 20.9945,7.8231 24.9779,21.0592 4.9844,16.5616 -1.6746,30.4364 -19.8491,41.3585 -11.6451,6.9981 -20.1907,13.9833 -25.2941,20.6754 -2.5225,3.3077 -4.993,6.014 -5.49,6.014 -0.4971,0 -2.6799,-2.4733 -4.8507,-5.4962 z m 214.7317,-20.1788 c -1.0103,-1.2174 -1.8263,-5.9587 -2.0434,-11.8737 -0.3285,-8.9469 -0.11,-10.0232 2.3898,-11.7742 3.8526,-2.6984 17.5466,-2.6409 19.8074,0.083 2.4948,3.0061 -1.67,5.4898 -9.2054,5.4898 -7.1602,0 -7.7492,2.7353 -0.8075,3.75 3.2339,0.4727 4.2756,1.234 4.2756,3.125 0,1.8666 -1.0417,2.6583 -4.1117,3.125 -6.5174,0.9907 -5.2791,3.0667 2.2367,3.75 5.8333,0.5303 6.875,1.0038 6.875,3.125 0,2.2309 -0.9544,2.5391 -8.8673,2.8633 -6.9665,0.2854 -9.2278,-0.071 -10.5492,-1.6633 z m 3.9144,-44.8192 c -1.5471,-1.6468 -5.5833,-4.8812 -8.9693,-7.1875 -7.9725,-5.4303 -10.724,-10.9007 -8.7675,-17.4311 1.9879,-6.635 6.9457,-10.2977 12.8698,-9.5077 4.5254,0.6034 4.6147,0.5362 3.9183,-2.946 -0.6082,-3.0411 -0.2506,-3.6794 2.4401,-4.3548 1.7341,-0.4352 4.3374,-0.1573 5.7852,0.6175 2.1019,1.1249 2.3772,1.8854 1.3664,3.7741 -1.9259,3.5986 -1.6723,3.7872 4.0466,3.0091 6.6021,-0.8983 11.4981,2.4495 13.3405,9.1218 1.645,5.9579 -0.6796,11.4629 -6.8323,16.18 -2.5782,1.9766 -6.7825,5.4219 -9.3431,7.6563 -5.5678,4.8585 -6.2269,4.93 -9.8547,1.0683 z m -221.9979,-239.1603 c -5.2449,-1.2892 -5.9383,-3.0066 -2.6149,-6.4764 3.7169,-3.8805 6.9899,-11.286 6.9899,-15.8151 l 0,-3.2762 -4.0625,3.4255 c -8.637,7.2828 -18.6188,8.7473 -28.1552,4.1308 -9.88,-4.7828 -15.6499,-15.8678 -15.5819,-29.9358 0.061,-12.5353 6.1715,-20.4238 25.2996,-32.6589 11.0812,-7.088 17.1739,-12.3535 22.8404,-19.7394 l 3.3565,-4.375 7.6418,8.4549 c 4.5672,5.0533 12.4987,11.672 19.714,16.451 23.6291,15.6506 28.828,25.5395 23.2686,44.2598 -5.6921,19.1675 -26.9807,26.2731 -41.2305,13.7616 -4.3076,-3.7821 -4.3406,-3.7888 -4.3133,-0.8693 0.038,4.0204 4.04,12.4265 7.296,15.3232 5.7832,5.1452 1.8454,8.3174 -10.0538,8.0988 -4.3421,-0.08 -9.0197,-0.4215 -10.3947,-0.7595 z m -214.6958,-304.2002 c -1.6934,-0.9863 -1.9079,-1.8166 -0.9375,-3.6299 1.9175,-3.5827 1.6608,-3.7723 -4.0542,-2.9948 -6.6021,0.8983 -11.4981,-2.4495 -13.3405,-9.1218 -1.645,-5.9578 0.6796,-11.4629 6.8323,-16.18 2.5782,-1.9766 6.7825,-5.4219 9.3431,-7.6563 5.5678,-4.8585 6.2269,-4.93 9.8547,-1.0683 1.5471,1.6468 5.5833,4.8812 8.9693,7.1875 7.9725,5.4303 10.724,10.9007 8.7675,17.4311 -1.9955,6.6604 -6.9424,10.2981 -12.9202,9.501 -4.4816,-0.5976 -4.6476,-0.4904 -3.8933,2.5152 1.184,4.7172 -3.5948,6.9434 -8.6212,4.0163 z m 212.8208,-5.8064 c -3.6023,-1.3713 -3.6187,-3.4677 -0.053,-6.7249 3.3511,-3.0608 6.2794,-10.12 6.2955,-15.1765 0.01,-3.0012 -0.8735,-2.7709 -5.7313,1.4943 -3.873,3.4006 -11.0176,6.3043 -15.5117,6.3043 -16.8448,0 -30.5872,-21.2897 -25.7585,-39.9049 2.4006,-9.2544 7.0459,-14.2861 22.6794,-24.5661 8.5012,-5.59 16.8666,-12.3009 20.9279,-16.7888 3.7211,-4.1119 7.1436,-7.4763 7.6055,-7.4763 0.462,0 4.5319,3.9137 9.0444,8.6972 4.5931,4.8689 13.5502,12.2222 20.3491,16.7054 13.5967,8.9658 17.6667,13.1536 20.8279,21.4311 4.787,12.5346 -0.8388,30.0964 -11.9257,37.2279 -5.0455,3.2454 -6.4893,3.5727 -14.0147,3.1776 -7.02,-0.3686 -9.3158,-1.0933 -14.0625,-4.4391 -5.1917,-3.6595 -5.6728,-3.7853 -5.6728,-1.4842 0,3.7421 2.9268,10.0322 6.8122,14.6401 5.4436,6.4559 3.8661,7.8106 -8.9605,7.6953 -6.0372,-0.054 -11.8204,-0.4198 -12.8517,-0.8124 z m -220.044,-56.0169 c -2.3628,-2.847 -0.2453,-4.1277 7.544,-4.5629 5.1071,-0.2853 6.875,-0.8663 6.875,-2.2591 0,-1.1905 -1.5972,-2.1032 -4.375,-2.5 -3.3333,-0.4762 -4.375,-1.2202 -4.375,-3.125 0,-1.8666 1.0417,-2.6583 4.1117,-3.125 6.5174,-0.9907 5.2792,-3.0667 -2.2367,-3.75 -5.8333,-0.5303 -6.875,-1.0038 -6.875,-3.125 0,-2.2148 0.9561,-2.542 8.3817,-2.8683 10.9069,-0.4794 13.3999,1.6155 13.3987,11.2589 -4e-4,3.6352 0.046,7.7344 0.1036,9.1094 0.057,1.375 -1.1085,3.4844 -2.5908,4.6875 -3.5889,2.9129 -17.6088,3.0952 -19.9622,0.2595 z"
         id="path4767"
         inkscape:connector-curvature="0" />
      <path
         style="fill:#5c5c5c"
         d="m 1450.3068,2344.265 c -0.7938,-0.5051 135.6994,-0.9184 303.3181,-0.9184 167.6187,0 304.1119,0.4133 303.3181,0.9184 -0.7937,0.5051 -137.2869,0.9183 -303.3181,0.9183 -166.0312,0 -302.5244,-0.4132 -303.3181,-0.9183 z m -8.394,-9.3559 c -1.0472,-3.9076 -0.8116,-849.8101 0.2375,-852.4534 0.4673,-1.1774 0.8496,190.7757 0.8496,426.5625 0,235.7869 -0.075,428.7034 -0.1667,428.7034 -0.092,0 -0.5059,-1.2656 -0.9204,-2.8125 z m 622.3371,-425.9375 c 0,-235.7612 0.3823,-427.6933 0.8496,-426.5159 0.4674,1.1775 0.8497,193.1097 0.8497,426.5159 0,233.4062 -0.3823,425.3384 -0.8497,426.5159 -0.4673,1.1775 -0.8496,-190.7547 -0.8496,-426.5159 z m -583.2497,391.0829 c -2.4749,-1.4353 -5.428,-4.1811 -6.5625,-6.1017 -1.9049,-3.2247 -2.0628,-32.6906 -2.0628,-384.9812 0,-359.242 0.126,-381.7025 2.1602,-385.1462 1.1881,-2.0113 4.4594,-4.77 7.2697,-6.1304 5.0422,-2.4409 8.6186,-2.4734 271.8201,-2.4734 263.2016,0 266.7779,0.033 271.8202,2.4734 2.8102,1.3604 6.0815,4.1191 7.2696,6.1304 2.0342,3.4437 2.1602,25.9042 2.1602,385.1462 0,353.1932 -0.1539,381.7498 -2.0749,385.0018 -1.1412,1.9319 -4.1709,4.6906 -6.7327,6.1304 l -4.6578,2.6178 -267.9548,-0.029 -267.9548,-0.029 -4.4997,-2.6097 z m 545.2987,-5.9724 2.951,-2.3896 0.3433,-379.7979 c 0.1888,-208.8889 0.034,-381.0779 -0.3443,-382.6423 -0.3782,-1.5644 -1.7983,-3.955 -3.1558,-5.3125 -2.4424,-2.4424 -5.2942,-2.4682 -272.4682,-2.4682 -267.174,0 -270.0258,0.026 -272.4682,2.4682 -1.3575,1.3575 -2.7776,3.7481 -3.1558,5.3125 -0.3782,1.5644 -0.5331,173.7534 -0.3443,382.6423 l 0.3433,379.7979 2.951,2.3896 c 2.8851,2.3362 8.9698,2.3895 272.674,2.3895 263.7043,0 269.7889,-0.053 272.674,-2.3895 z m -281.424,-33.7519 c -4.4687,-4.6771 -12.9062,-11.5765 -18.75,-15.332 -16.3621,-10.5153 -21.5624,-16.598 -23.2586,-27.2052 -1.1185,-6.9952 2.4298,-19.7463 7.0571,-25.3601 8.8122,-10.6906 24.2745,-11.4585 35.757,-1.7757 5.197,4.3825 5.8876,4.1931 4.8515,-1.3299 -1.1116,-5.9249 -3.831,-11.3101 -7.9165,-15.6764 -2.5306,-2.7047 -2.8972,-3.7726 -1.7045,-4.9653 2.0202,-2.0202 18.7248,-1.9351 22.4633,0.1144 l 2.8744,1.5757 -3.7046,4.2193 c -2.2644,2.579 -4.2948,6.8565 -5.2227,11.0029 -1.9407,8.672 -1.2444,11.1885 2.0196,7.2988 3.0941,-3.6873 11.2916,-8.4474 16.3669,-9.5039 14.3842,-2.9943 29.1671,12.5482 29.1671,30.6658 0,12.9993 -4.8901,19.2529 -25.972,33.2139 -9.3892,6.2177 -15.6509,11.3761 -18.75,15.4461 -2.5591,3.3608 -5.2155,6.1117 -5.903,6.113 -0.6875,0 -4.9062,-3.8243 -9.375,-8.5014 z m 219.2057,-15.3826 c -0.518,-0.8381 -1.102,-5.8871 -1.2978,-11.2199 -0.3114,-8.4818 -0.056,-9.8562 2.0359,-10.976 3.2168,-1.7216 17.1876,-1.6377 18.2676,0.1096 1.3712,2.2187 -2.0726,3.5705 -9.1489,3.5911 -5.5988,0.016 -6.5625,0.3666 -6.5625,2.3854 0,2.5943 2.3166,3.8838 6.9772,3.8838 1.8536,0 3.0228,0.7252 3.0228,1.875 0,1.1054 -1.1543,1.8828 -2.8125,1.8941 -3.9926,0.027 -6.4313,1.8911 -5.5339,4.2297 0.5633,1.468 2.4436,2.0012 7.0572,2.0012 4.7571,0 6.2892,0.4567 6.2892,1.875 0,1.4865 -1.7974,1.875 -8.6762,1.875 -5.4756,0 -9.0237,-0.5622 -9.6181,-1.524 z m 0.9305,-46.972 c -14.4847,-12.2157 -15.5228,-13.5761 -14.751,-19.33 1.2465,-9.2935 8.4431,-12.9734 17.6443,-9.0225 2.0364,0.8745 2.2497,0.6644 1.3935,-1.372 -2.0829,-4.954 -1.4782,-7.4045 1.827,-7.4045 2.843,0 3.0919,0.4231 2.7584,4.6875 -0.3452,4.4143 1.1527,6.2106 2.8666,3.4375 1.1809,-1.9107 8.4797,-1.4875 11.5602,0.6702 3.6903,2.5848 5.9019,10.1738 4.2346,14.5304 -0.7001,1.829 -3.3572,4.9228 -5.9047,6.875 -2.5476,1.9522 -6.7269,5.3775 -9.2875,7.6119 -2.5606,2.2344 -5.1499,4.0362 -5.7541,4.004 -0.6042,-0.032 -3.5684,-2.1416 -6.5873,-4.6875 z m -216.6987,-236.7908 c -3.2656,-0.6785 -5.9375,-1.7947 -5.9375,-2.4805 0,-0.6857 1.3846,-2.8923 3.077,-4.9036 3.3081,-3.9315 5.6548,-10.7739 5.666,-16.5211 l 0.01,-3.567 -4.5966,4.0359 c -18.9658,16.6522 -43.0037,4.3103 -43.3403,-22.2523 -0.1805,-14.2444 4.309,-20.1343 26.2676,-34.4611 7.7161,-5.0343 15.0189,-10.9974 18.5961,-15.1844 l 5.8902,-6.8947 7.4858,8.1694 c 4.2892,4.6808 12.6641,11.5838 19.6125,16.1654 14.8753,9.8082 20.6098,15.9273 23.1656,24.7191 1.7277,5.9431 1.7329,7.4014 0.049,13.8649 -3.2516,12.4839 -7.1724,17.7573 -15.9197,21.4121 -9.0401,3.7773 -19.1704,1.6051 -26.7572,-5.7373 -2.1568,-2.0874 -4.2565,-3.2533 -4.6659,-2.5909 -1.2885,2.0848 2.7749,13.3788 6.8251,18.9699 4.2437,5.8583 3.6327,7.4868 -2.8228,7.5239 -1.8344,0.01 -4.0844,0.2322 -5,0.4926 -0.9156,0.2604 -4.3366,-0.082 -7.6023,-0.7603 z m -216.3162,-304.2586 c -0.4955,-0.4954 -0.5504,-2.7692 -0.122,-5.0527 0.7487,-3.9906 -0.8553,-5.7642 -2.6243,-2.9019 -1.1809,1.9107 -8.4797,1.4875 -11.5602,-0.6702 -3.6903,-2.5848 -5.9019,-10.1738 -4.2345,-14.5304 0.7,-1.829 3.3571,-4.9228 5.9046,-6.875 2.5476,-1.9521 6.7269,-5.3775 9.2875,-7.6119 2.5606,-2.2344 5.0544,-4.0625 5.5419,-4.0625 1.0816,0 10.5061,7.6772 17.2821,14.078 4.6454,4.3882 4.9311,5.0573 4.2684,9.998 -1.2465,9.2935 -8.4431,12.9735 -17.6443,9.0225 -2.0364,-0.8744 -2.2497,-0.6644 -1.3935,1.372 1.8906,4.4966 1.4244,7.3864 -1.2534,7.7697 -1.4033,0.2009 -2.9569,-0.04 -3.4523,-0.5356 z m 215.6195,-5.0481 c -5.042,-0.702 -6.5098,-3.6573 -3.0277,-6.0962 3.0261,-2.1196 6.5369,-11.7394 6.5369,-17.9117 l 0,-4.406 -4.6875,4.5677 c -8.8343,8.6084 -18.2289,10.5109 -27.7877,5.6272 -7.4792,-3.8212 -12.0323,-9.9966 -14.5006,-19.6674 -1.7109,-6.7036 -1.8186,-9.189 -0.6227,-14.375 2.2901,-9.9315 6.6985,-14.9495 21.9355,-24.9686 7.9774,-5.2455 16.8507,-12.3503 20.9379,-16.765 3.9012,-4.2138 7.5447,-7.6482 8.0966,-7.632 0.5519,0.016 2.691,2.3224 4.7535,5.1246 4.0587,5.5144 13.461,13.2214 27.8914,22.8624 10.5701,7.0618 14.1983,11.3601 17.0792,20.2339 1.9156,5.9007 1.919,6.9576 0.045,14.1916 -3.9093,15.0864 -12.7086,23.1655 -25.0475,22.9974 -6.7493,-0.092 -11.7169,-2.1415 -17.9955,-7.4245 -2.174,-1.8293 -4.282,-2.9966 -4.6846,-2.594 -1.3846,1.3846 3.5288,13.9603 7.3247,18.7476 2.1842,2.7545 3.3337,5.2606 2.7026,5.8918 -1.361,1.3609 -13.3715,2.3726 -18.9489,1.5962 z m -223.1235,-56.2058 c -1.7188,-1.7189 0.7773,-2.9507 5.9792,-2.9507 6.9796,0 9.4035,-0.9666 9.4035,-3.75 0,-2.4699 -2.3818,-3.75 -6.9772,-3.75 -1.8536,0 -3.0228,-0.7252 -3.0228,-1.875 0,-1.2323 1.233,-1.875 3.5969,-1.875 1.9784,0 4.215,-0.7446 4.9703,-1.6547 2.2369,-2.6954 -0.8917,-4.5953 -7.5672,-4.5953 -4.5,0 -6,-0.4687 -6,-1.875 0,-1.4697 1.7146,-1.875 7.9313,-1.875 9.5524,0 12.882,2.4959 11.6366,8.7229 -0.417,2.0849 -0.1293,5.1708 0.6393,6.8577 1.1178,2.4533 0.981,3.7025 -0.6837,6.2432 -1.8916,2.887 -2.8564,3.1762 -10.594,3.1762 -4.6821,0 -8.8725,-0.3597 -9.3122,-0.7993 z M 1450.859,1473.747 c 2.799,-1.1108 602.7328,-1.1108 605.5318,0 1.1775,0.4673 -135.0672,0.8496 -302.7659,0.8496 -167.6987,0 -303.9433,-0.3823 -302.7659,-0.8496 z"
         id="path4765"
         inkscape:connector-curvature="0" />
      <path
         style="fill:#2d2d2d"
         d="m 1603.3124,2344.2842 c 82.6719,-0.1775 217.9531,-0.1775 300.625,0 82.6719,0.1774 15.0313,0.3226 -150.3125,0.3226 -165.3437,0 -232.9844,-0.1452 -150.3125,-0.3226 z m -161.5698,-435.3126 c 0,-233.4062 0.1439,-328.8906 0.3198,-212.1875 0.1758,116.7031 0.1758,307.6719 0,424.375 -0.1759,116.7031 -0.3198,21.2187 -0.3198,-212.1875 z m 623.7501,0 c 0,-233.4062 0.1438,-328.8906 0.3197,-212.1875 0.1758,116.7031 0.1758,307.6719 0,424.375 -0.1759,116.7031 -0.3197,21.2187 -0.3197,-212.1875 z m -583.9094,390.1024 c -2.1541,-1.3135 -4.826,-3.6866 -5.9375,-5.2734 -1.8505,-2.642 -2.0209,-35.1004 -2.0209,-384.9386 l 0,-382.0533 2.6104,-3.3185 c 5.9351,-7.5453 -14.8812,-7.0186 277.3896,-7.0186 292.2709,0 271.4545,-0.5267 277.3896,7.0186 l 2.6104,3.3185 0,382.1629 0,382.1629 -2.6104,3.3185 c -5.9353,7.5456 14.9066,7.019 -277.64,7.0139 -261.4915,0 -267.9679,-0.061 -271.7912,-2.3929 z m 542.5254,-2.5487 c 1.7305,-0.658 4.0172,-2.88 5.0813,-4.9379 1.734,-3.3532 1.9349,-43.0732 1.9349,-382.6158 0,-339.5426 -0.2009,-379.2626 -1.9349,-382.6158 -1.0641,-2.0579 -3.3508,-4.2799 -5.0813,-4.9379 -4.28,-1.6272 -536.6876,-1.6272 -540.9676,0 -1.7305,0.658 -4.0172,2.88 -5.0813,4.9379 -1.734,3.3532 -1.9349,43.0732 -1.9349,382.6158 0,340.0118 0.199,379.2591 1.9405,382.6266 1.0672,2.0638 3.1766,4.2502 4.6875,4.8587 3.8361,1.5448 537.2951,1.6123 541.3558,0.068 z m -279.2338,-37.4756 c -4.4687,-4.6509 -12.9062,-11.5596 -18.75,-15.3527 -20.9542,-13.6009 -25.7881,-23.1994 -20.5561,-40.8174 3.7088,-12.489 15.708,-20.3028 27.1976,-17.7109 5.3849,1.2148 14.3762,6.7431 15.4289,9.4865 1.1547,3.009 4.1796,2.0958 4.1796,-1.2617 0,-4.5435 -4.6789,-16.2438 -7.5262,-18.8206 -1.3606,-1.2313 -2.4738,-2.9506 -2.4738,-3.8207 0,-2.2865 6.7116,-3.4172 14.5048,-2.4435 6.9927,0.8737 8.4896,2.6591 4.798,5.7228 -2.7125,2.2512 -5.3398,8.9833 -6.2842,16.1026 -0.9929,7.4849 0.8516,9.0144 4.6596,3.8638 3.2873,-4.4463 13.7821,-10.0263 18.8574,-10.0263 8.034,0 16.9034,5.8262 20.932,13.75 4.0913,8.047 5.1895,16.5173 3.0678,23.6617 -2.6167,8.8115 -7.5318,13.8846 -23.8453,24.6115 -8.3113,5.465 -16.2034,11.7909 -19.317,15.4835 -2.8954,3.4338 -5.5983,6.1948 -6.0063,6.1354 -0.408,-0.059 -4.398,-3.9131 -8.8668,-8.564 z m 222.1884,-13.4396 c -2.3712,-0.6197 -3.3156,-3.5547 -3.3429,-10.3885 -0.01,-2.4063 -0.09,-5.7141 -0.1785,-7.3508 -0.2232,-4.1222 1.9423,-5.1079 11.2705,-5.1301 9.813,-0.023 8.87,2.1596 -1.1758,2.7218 -5.6231,0.3147 -6.9464,0.8209 -7.3234,2.8015 -0.5598,2.9407 2.9189,5.7076 7.1756,5.7076 3.892,0 2.0554,2.1143 -2.3511,2.7067 -3.4892,0.469 -4.9995,4.4909 -2.3233,6.1869 0.927,0.5875 4.1093,1.0767 7.0718,1.0873 3.2684,0.011 5.0825,0.5106 4.6137,1.2691 -0.7665,1.2403 -9.2401,1.4853 -13.4366,0.3885 z m -1.5634,-48.5731 c -15.6049,-13.6147 -14.7744,-12.5415 -14.0257,-18.1237 1.267,-9.4462 7.1676,-12.2775 16.4058,-7.8721 4.039,1.926 4.5589,1.926 7.4984,0 1.7372,-1.1383 5.1341,-2.0696 7.5487,-2.0696 5.4507,0 8.766,4.3841 8.766,11.5921 0,3.9157 -0.7721,5.5859 -3.8016,8.2233 -3.416,2.9738 -15.198,11.6424 -16.7666,12.3359 -0.3437,0.152 -2.875,-1.6867 -5.625,-4.0859 z m 4.618,-30.8224 c -2.294,-2.294 -1.7741,-4.743 1.007,-4.743 2.5813,0 3.1995,1.9632 1.4739,4.6805 -0.7657,1.2059 -1.3235,1.2199 -2.4809,0.062 z M 1748.874,1960.2851 c -5.7857,-1.4355 -5.9781,-1.9612 -2.3125,-6.3175 1.7862,-2.1228 3.767,-5.9435 4.4018,-8.4903 3.5063,-14.0685 2.3686,-16.9 -4.0006,-9.9563 -12.2655,13.3719 -31.2396,11.2428 -38.8569,-4.3602 -6.2139,-12.7286 -5.4829,-24.8711 2.0475,-34.0067 2.0778,-2.5207 10.1493,-8.7727 17.9367,-13.8933 8.5904,-5.6486 16.4528,-11.9671 19.9914,-16.0659 l 5.8325,-6.7558 7.5365,8.0565 c 4.1451,4.4311 12.3769,11.2076 18.293,15.0589 18.2569,11.8851 24.2659,19.3963 24.3337,30.4171 0.1655,26.8839 -24.8705,39.4833 -43.1209,21.7007 -2.5503,-2.485 -4.885,-3.875 -5.3217,-3.1684 -1.5161,2.4531 2.0239,14.1377 6.1331,20.2441 2.2923,3.4062 3.7885,6.4265 3.325,6.7117 -2.0033,1.2326 -12.4373,1.7636 -16.2186,0.8254 z m -216.4991,-304.9613 c 0,-0.6312 0.3469,-2.0518 0.771,-3.1569 0.5967,-1.555 1.1617,-1.6848 2.5,-0.5741 2.5421,2.1097 2.1045,4.8788 -0.771,4.8788 -1.375,0 -2.5,-0.5165 -2.5,-1.1478 z m 214.6875,-4.6841 c -1.8906,-0.3213 -3.4375,-0.8656 -3.4375,-1.2095 0,-0.344 1.4301,-2.5004 3.178,-4.792 3.4632,-4.5405 7.2211,-19.2733 5.4153,-21.231 -0.6714,-0.7279 -2.9149,0.582 -5.7827,3.3765 -11.9568,11.6511 -27.3611,10.9391 -36.5077,-1.6874 -4.3054,-5.9434 -6.8682,-16.7479 -5.7467,-24.227 1.3897,-9.267 6.2801,-14.9961 21.5258,-25.2178 7.6763,-5.1467 17.1439,-12.6988 21.0391,-16.7825 l 7.0821,-7.4248 7.7109,7.912 c 4.241,4.3516 13.8089,12.0409 21.2621,17.0873 14.2212,9.6289 18.3832,14.317 20.7554,23.3787 2.3985,9.1621 -1.7344,22.3333 -9.0132,28.7241 -10.4287,9.1565 -23.8789,8.1683 -33.5938,-2.4682 -2.5476,-2.7892 -3.9291,-3.502 -4.9019,-2.5291 -2.4805,2.4804 2.4962,16.6549 7.9368,22.6052 1.4119,1.5441 2.178,3.1966 1.7025,3.6721 -1.0569,1.0569 -13.8931,1.6175 -18.6245,0.8134 z m -230.5678,-5.0073 c -1.2033,-1.8365 -2.1879,-5.5503 -2.1879,-8.2529 0,-5.3568 1.4601,-7.0238 14.2204,-16.2353 l 6.514,-4.7024 5.7139,4.7024 c 13.4583,11.0759 14.5014,12.4372 13.7607,17.9593 -1.257,9.3718 -7.1845,12.1911 -16.3959,7.7986 -4.039,-1.9261 -4.5589,-1.9261 -7.4984,0 -5.0279,3.2944 -11.5185,2.711 -14.1268,-1.2697 z m 9.0678,-51.5892 c 0.6531,-0.6481 4.2813,-1.3512 8.0625,-1.5625 6.3976,-0.3574 6.875,-0.6011 6.875,-3.5091 0,-2.5481 -0.6923,-3.2004 -3.75,-3.5337 -4.9323,-0.5375 -7.2097,-2.7163 -2.8393,-2.7163 3.9087,0 7.3927,-3.0806 6.4025,-5.6612 -0.4864,-1.2675 -2.583,-1.8388 -6.7482,-1.8388 -3.3233,0 -6.3901,-0.5625 -6.815,-1.25 -0.4819,-0.7797 2.0193,-1.25 6.6482,-1.25 8.6584,0 10.9372,1.7604 9.7785,7.5539 -0.4237,2.1186 -0.1088,4.8395 0.7122,6.1542 1.1268,1.8043 1.1282,3.1109 0.01,5.5743 -1.3781,3.0244 -2.0081,3.2176 -10.4929,3.2176 -5.6586,0 -8.5837,-0.4397 -7.8393,-1.1784 z m 77.75,-121.0091 c 82.6719,-0.1774 217.9531,-0.1774 300.625,0 82.6719,0.1775 15.0313,0.3227 -150.3125,0.3227 -165.3437,0 -232.9844,-0.1452 -150.3125,-0.3227 z"
         id="path4763"
         inkscape:connector-curvature="0" />
      <path
         style="fill:#171717"
         d="m 1603.9374,2344.2842 c 82.3281,-0.1775 217.0469,-0.1775 299.375,0 82.3281,0.1774 14.9688,0.3226 -149.6875,0.3226 -164.6562,0 -232.0156,-0.1452 -149.6875,-0.3226 z m -162.1948,-435.3126 c 0,-233.4062 0.1439,-328.8906 0.3198,-212.1875 0.1758,116.7031 0.1758,307.6719 0,424.375 -0.1759,116.7031 -0.3198,21.2187 -0.3198,-212.1875 z m 623.7501,0 c 0,-233.4062 0.1438,-328.8906 0.3197,-212.1875 0.1758,116.7031 0.1758,307.6719 0,424.375 -0.1759,116.7031 -0.3197,21.2187 -0.3197,-212.1875 z m -584.597,389.1028 c -1.8447,-1.1444 -4.0947,-3.4646 -5,-5.156 -2.4567,-4.5905 -2.4423,-763.3301 0.015,-767.9209 0.9132,-1.7064 3.25,-4.0416 5.1928,-5.1893 3.2697,-1.9314 23.5383,-2.0866 272.5217,-2.0866 248.9834,0 269.252,0.1552 272.5217,2.0866 1.9428,1.1477 4.2796,3.4829 5.1929,5.1893 2.4698,4.615 2.4698,763.3332 0,767.9482 -0.9133,1.7064 -3.2501,4.0416 -5.1929,5.1893 -3.2702,1.9317 -23.5148,2.0841 -272.7146,2.0533 -248.888,-0.031 -269.435,-0.1901 -272.5363,-2.1139 z m 547.161,-3.421 3.0682,-3.0682 0,-382.6136 0,-382.6136 -3.0682,-3.0682 -3.0682,-3.0682 -271.3636,0 -271.3636,0 -3.0682,3.0682 -3.0682,3.0682 0,382.6136 0,382.6136 3.0682,3.0682 3.0682,3.0682 271.3636,0 271.3636,0 3.0682,-3.0682 z m -282.5568,-36.1832 c -4.125,-4.29 -13.2824,-11.5945 -20.3498,-16.2324 -15.8144,-10.3779 -19.3258,-15.0322 -20.0618,-26.5912 -0.5558,-8.7284 1.6088,-16.387 6.3267,-22.3849 3.2715,-4.159 11.4311,-7.9762 17.1278,-8.0127 5.4549,-0.035 14.1706,4.1534 17.9228,8.6127 1.5945,1.8949 4.6766,3.8009 6.8492,4.2354 3.3954,0.679 4.3203,0.27 6.5868,-2.9129 4.0717,-5.7182 12.289,-9.9626 19.2879,-9.9626 11.1563,0 19.3931,7.3562 22.7569,20.324 2.1442,8.2662 2.11,10.6386 -0.2497,17.3267 -2.6123,7.4042 -7.6903,12.3957 -22.3267,21.9466 -6.8089,4.4431 -15.3145,11.1326 -18.9012,14.8655 -3.5868,3.733 -6.7346,6.7419 -6.9951,6.6864 -0.2606,-0.055 -3.8488,-3.6107 -7.9738,-7.9006 z m 220.0174,-15.2848 c -1.2166,-1.2166 -1.6829,-2.8518 -1.1586,-4.0625 1.0226,-2.3612 0.9898,-4.5315 -0.1363,-9.0165 -0.5598,-2.2299 -0.1488,-3.9049 1.3183,-5.372 1.1725,-1.1725 2.4131,-1.8506 2.7568,-1.5068 0.3438,0.3437 -0.2857,1.5357 -1.3988,2.6488 -2.3878,2.3878 -2.4077,2.5423 -0.7298,5.6774 0.7117,1.3298 2.2431,2.4178 3.4031,2.4178 1.6924,0 1.5602,0.3845 -0.669,1.9459 -3.3281,2.3311 -3.6149,6.1925 -0.5906,7.954 1.2031,0.7007 1.5246,1.2912 0.7143,1.3121 -0.8103,0.021 -2.3895,-0.8783 -3.5094,-1.9982 z m 1.0538,-46.4379 c -2.1608,-1.8705 -6.2389,-5.2608 -9.0625,-7.534 -4.4629,-3.593 -5.1337,-4.7846 -5.1337,-9.1193 0,-3.6274 0.8361,-5.8224 3.0682,-8.0544 3.7758,-3.7759 6.0105,-3.8415 11.6715,-0.3428 l 4.4097,2.7253 4.7355,-2.7253 c 6.0572,-3.4861 8.0252,-3.4289 11.7969,0.3428 4.6572,4.6572 4.2169,11.0973 -1.1022,16.1193 -5.9361,5.6046 -14.2319,12.0689 -15.433,12.0259 -0.5619,-0.02 -2.7895,-1.5671 -4.9504,-3.4375 z m -215.102,-10.6013 c -0.7834,-2.929 -2.8688,-7.454 -4.6343,-10.0555 -1.7654,-2.6016 -3.2099,-5.2676 -3.2099,-5.9246 0,-1.4665 14.9853,-1.5618 17.2751,-0.1099 1.298,0.823 0.9783,2.0362 -1.4978,5.6849 -1.7313,2.5513 -3.5221,7.1343 -3.9795,10.1846 -0.4574,3.0503 -1.2136,5.546 -1.6805,5.546 -0.4668,0 -1.4897,-2.3965 -2.2731,-5.3255 z m 218.4058,-22.1746 c 0,-0.6875 0.5625,-1.25 1.25,-1.25 0.6875,0 1.25,0.5625 1.25,1.25 0,0.6875 -0.5625,1.25 -1.25,1.25 -0.6875,0 -1.25,-0.5625 -1.25,-1.25 z m -222.1875,-204.6322 c -3.4636,-0.6671 -3.4676,-0.5415 0.1844,-5.9229 1.6483,-2.4289 3.704,-7.3638 4.5683,-10.9665 l 1.5714,-6.5503 2.1211,6.5064 c 1.1666,3.5786 3.5806,8.7121 5.3646,11.4078 l 3.2435,4.9012 -2.7454,0.7362 c -2.988,0.8012 -9.8456,0.7476 -14.3079,-0.1119 z m -28.5612,-17.7496 c -15.2378,-6.9202 -19.1759,-32.5809 -6.9975,-45.596 1.8542,-1.9816 8.9962,-7.2668 15.8712,-11.745 6.875,-4.4781 15.5498,-11.3626 19.2774,-15.2987 l 6.7775,-7.1567 6.8665,7.4167 c 3.7766,4.0792 12.2956,10.9964 18.9311,15.3717 22.093,14.5674 26.8715,23.5005 21.7665,40.691 -3.5835,12.067 -14.8729,19.9484 -25.6372,17.8979 -6.0333,-1.1493 -9.8629,-3.3419 -14.7895,-8.4674 -5.6773,-5.9066 -9.881,-5.9757 -14.2599,-0.2347 -3.8815,5.0889 -12.4684,9.5134 -18.3895,9.4756 -2.3611,-0.015 -6.5985,-1.0746 -9.4166,-2.3544 z m -185.5013,-287.6182 c 0,-0.6875 0.5625,-1.25 1.25,-1.25 0.6875,0 1.25,0.5625 1.25,1.25 0,0.6875 -0.5625,1.25 -1.25,1.25 -0.6875,0 -1.25,-0.5625 -1.25,-1.25 z m 212.7533,-4.817 c -1.3014,-0.8255 -1.2526,-1.3349 0.2468,-2.5793 1.8855,-1.5649 4.8533,-8.8189 6.4348,-15.7287 0.8406,-3.6721 0.9069,-3.6102 3.1937,2.9834 1.2844,3.7033 3.7497,8.5876 5.4784,10.8541 1.7286,2.2664 3.143,4.4395 3.143,4.8291 0,1.113 -16.6868,0.7895 -18.4967,-0.3586 z m -228.4351,-3.2512 c -3.2809,-3.2809 -4.0506,-9.0105 -1.7804,-13.2525 1.0631,-1.9864 6.7001,-6.739 16.8386,-14.1969 1.5078,-1.1091 3.8653,0.4691 16.3713,10.9596 5.4738,4.5916 5.9835,11.6904 1.1841,16.4898 -3.7717,3.7718 -5.7397,3.8289 -11.7969,0.3428 l -4.7355,-2.7253 -4.4097,2.7253 c -5.661,3.4987 -7.8957,3.4331 -11.6715,-0.3428 z m 199.3339,-14.774 c -8.5949,-5.7921 -13.0392,-16.2541 -12.1466,-28.5935 0.7784,-10.7616 4.6991,-15.6428 21.3692,-26.6044 7.7325,-5.0846 17.0638,-12.4217 20.7362,-16.3048 l 6.6771,-7.06 7.9334,8.0512 c 4.3633,4.4282 13.4391,11.6954 20.1685,16.1494 14.1286,9.3515 15.5647,10.7731 19.2121,19.0186 3.3386,7.5475 2.6967,15.62 -2.0064,25.2328 -7.1814,14.6781 -24.9684,17.3301 -36.8101,5.4884 -6.8079,-6.8079 -10.0775,-7.0126 -15.9019,-0.9955 -6.4626,6.6764 -10.3126,8.46 -18.2617,8.46 -4.9533,0 -7.8758,-0.7572 -10.9698,-2.8422 z m -176.4646,-38.5015 c 2.5419,-2.6944 1.7962,-5.954 -1.7923,-7.8342 -3.2941,-1.726 -3.3054,-1.7734 -0.625,-2.6242 3.2476,-1.0307 3.5217,-4.001 0.6611,-7.162 -2.3653,-2.6135 -0.237,-3.163 2.3256,-0.6004 2.4763,2.4763 2.2626,18.5333 -0.2569,19.3037 -1.5133,0.4627 -1.5735,0.2538 -0.3125,-1.0829 z m 63.125,-119.5938 c 82.3281,-0.1774 217.0469,-0.1774 299.375,0 82.3281,0.1775 14.9688,0.3227 -149.6875,0.3227 -164.6562,0 -232.0156,-0.1452 -149.6875,-0.3227 z"
         id="path4761"
         inkscape:connector-curvature="0" />
      <path
         style="fill:#010101"
         d="m 1619.5624,2299.2842 c 73.7344,-0.1781 194.3906,-0.1781 268.125,0 73.7344,0.1781 13.4063,0.3238 -134.0625,0.3238 -147.4687,0 -207.7969,-0.1457 -134.0625,-0.3238 z m 126.3399,-41.551 c -3.9037,-4.0499 -12.758,-11.0838 -19.6761,-15.631 -6.9182,-4.5471 -13.9475,-10.0648 -15.6209,-12.2615 -9.1289,-11.9844 -5.8155,-32.1117 6.6717,-40.5268 8.1928,-5.5212 21.2978,-3.1254 28.6387,5.2354 1.9558,2.2276 5.0739,4.4311 6.9292,4.8967 2.9024,0.7285 4.2147,-0.017 9.403,-5.344 16.0181,-16.4452 37.2521,-7.6247 39.7429,16.5091 1.3884,13.4519 -3.5351,20.7078 -22.3469,32.9341 -6.6584,4.3273 -15.1394,10.9748 -18.8469,14.7722 -3.7075,3.7973 -6.9785,6.8761 -7.269,6.8418 -0.2904,-0.034 -3.722,-3.376 -7.6257,-7.426 z m 222.7796,-60.5679 c -0.8245,-0.9935 -4.1786,-3.5258 -7.4534,-5.6272 -8.8627,-5.6872 -11.0393,-11.9507 -6.2629,-18.0229 3.1299,-3.979 7.6414,-4.2757 12.0682,-0.7936 1.748,1.375 3.8703,2.5 4.7161,2.5 0.8458,0 2.9681,-1.125 4.7161,-2.5 6.2326,-4.9026 12.2343,-2.3409 14.0027,5.9766 0.7817,3.6768 0.3541,4.5832 -4.1282,8.75 -7.0937,6.5946 -13.476,11.5234 -14.9216,11.5234 -0.6808,0 -1.9125,-0.8128 -2.737,-1.8063 z m -216.8726,-12.8812 c -0.4601,-1.8906 -2.2507,-5.5985 -3.9791,-8.2397 -1.7284,-2.6412 -2.7908,-5.1539 -2.3609,-5.5838 0.868,-0.868 14.1601,-0.9012 15.0237,-0.037 0.3004,0.3004 -0.8408,3.2858 -2.5359,6.6342 -1.6952,3.3484 -3.0822,7.1177 -3.0822,8.3762 0,3.5117 -2.1251,2.715 -3.0656,-1.1494 z m -4.1983,-226.1658 c -1.298,-0.5195 -1.2318,-1.1058 0.3179,-2.8182 1.0762,-1.1892 2.9908,-5.2044 4.2547,-8.9226 l 2.2979,-6.7604 1.6014,4.9897 c 0.8808,2.7444 2.9137,6.7485 4.5177,8.898 1.6039,2.1496 2.5655,4.2589 2.1369,4.6875 -0.9254,0.9255 -12.7742,0.8675 -15.1265,-0.074 z m -28.7616,-17.4989 c -5.7795,-2.848 -9.7796,-8.5828 -12.0821,-17.3215 -4.3464,-16.4961 0.2443,-24.4904 22.3454,-38.9125 6.7996,-4.437 15.1925,-11.0668 18.651,-14.7327 l 6.2882,-6.6654 6.0753,6.6473 c 3.3414,3.6561 11.8234,10.5751 18.849,15.3757 19.1696,13.0986 23.3987,18.3608 23.3987,29.1142 0,20.9955 -16.4318,34.3534 -32.2373,26.2066 -2.5507,-1.3147 -6.5762,-4.4085 -8.9454,-6.875 -5.8193,-6.0582 -9.7041,-5.9712 -14.7683,0.3305 -6.8634,8.5406 -18.3386,11.3841 -27.5745,6.8328 z m 30.8405,-291.2808 -3.3099,-0.5084 2.874,-5.2418 c 1.5807,-2.883 3.27,-7.136 3.754,-9.4511 l 0.88,-4.2094 2.8981,7.1306 c 1.5939,3.9218 3.8047,8.1323 4.9128,9.3567 1.8857,2.0837 1.7618,2.2767 -1.9359,3.0163 -2.1728,0.4346 -4.5834,0.7058 -5.3568,0.6028 -0.7735,-0.103 -2.8958,-0.4161 -4.7163,-0.6957 z m -231.3571,-3.8045 c -1.0613,-1.2031 -2.3221,-4.0332 -2.8017,-6.2891 -0.7817,-3.6768 -0.3541,-4.5832 4.1282,-8.75 9.6503,-8.9713 14.1288,-12.0418 15.7749,-10.8153 0.8613,0.6418 4.6666,3.3045 8.4563,5.9171 9.8352,6.7805 12.0436,12.602 7.1437,18.8312 -3.1299,3.9791 -7.6414,4.2757 -12.0682,0.7936 -1.748,-1.375 -3.8703,-2.5 -4.7161,-2.5 -0.8458,0 -2.9681,1.125 -4.7161,2.5 -3.919,3.0827 -8.6412,3.2145 -11.201,0.3125 z m 202.1671,-13.3342 c -16.1977,-7.23 -20.0985,-34.3715 -6.6841,-46.5079 1.6137,-1.4601 8.5829,-6.3393 15.4869,-10.8428 6.9041,-4.5035 15.2594,-11.0816 18.5674,-14.6182 l 6.0146,-6.43 8.9326,8.6412 c 4.9129,4.7526 13.7218,11.724 19.5754,15.492 16.6692,10.7303 20.8831,17.4313 19.6328,31.2201 -2.046,22.5639 -23.8736,31.9101 -39.0591,16.7246 -8.0798,-8.0798 -10.4753,-8.1699 -17.5843,-0.6613 -7.9197,8.3646 -16.4331,10.7536 -24.8822,6.9823 z m -100.9375,-114.1657 c 73.7344,-0.1781 194.3906,-0.1781 268.125,0 73.7344,0.1781 13.4063,0.3238 -134.0625,0.3238 -147.4687,0 -207.7969,-0.1457 -134.0625,-0.3238 z"
         id="path4759"
         inkscape:connector-curvature="0" />
    </g>
  </g>
</svg>
