<?xml version="1.0" encoding="UTF-8" standalone="no"?>
<!-- Created with Inkscape (http://www.inkscape.org/) -->

<svg
   xmlns:dc="http://purl.org/dc/elements/1.1/"
   xmlns:cc="http://creativecommons.org/ns#"
   xmlns:rdf="http://www.w3.org/1999/02/22-rdf-syntax-ns#"
   xmlns:svg="http://www.w3.org/2000/svg"
   xmlns="http://www.w3.org/2000/svg"
   xmlns:sodipodi="http://sodipodi.sourceforge.net/DTD/sodipodi-0.dtd"
   xmlns:inkscape="http://www.inkscape.org/namespaces/inkscape"
   width="176.45314mm"
   height="246.30457mm"
   viewBox="0 0 625.22767 872.73271"
   id="svg2"
   version="1.1"
   inkscape:version="0.91 r13725"
   sodipodi:docname="4.svg">
  <defs
     id="defs4">
    <pattern
       y="0"
       x="0"
       height="6"
       width="6"
       patternUnits="userSpaceOnUse"
       id="EMFhbasepattern" />
    <pattern
       y="0"
       x="0"
       height="6"
       width="6"
       patternUnits="userSpaceOnUse"
       id="EMFhbasepattern-7" />
  </defs>
  <sodipodi:namedview
     id="base"
     pagecolor="#ffffff"
     bordercolor="#666666"
     borderopacity="1.0"
     inkscape:pageopacity="0.0"
     inkscape:pageshadow="2"
     inkscape:zoom="0.35"
     inkscape:cx="238.53981"
     inkscape:cy="150.16071"
     inkscape:document-units="px"
     inkscape:current-layer="layer1"
     showgrid="false"
     fit-margin-top="0"
     fit-margin-left="0"
     fit-margin-right="0"
     fit-margin-bottom="0"
     inkscape:window-width="784"
     inkscape:window-height="822"
     inkscape:window-x="800"
     inkscape:window-y="0"
     inkscape:window-maximized="0" />
  <metadata
     id="metadata7">
    <rdf:RDF>
      <cc:Work
         rdf:about="">
        <dc:format>image/svg+xml</dc:format>
        <dc:type
           rdf:resource="http://purl.org/dc/dcmitype/StillImage" />
        <dc:title></dc:title>
      </cc:Work>
    </rdf:RDF>
  </metadata>
  <g
     inkscape:label="Calque 1"
     inkscape:groupmode="layer"
     id="layer1"
     transform="translate(204.96838,190.20965)">
    <g
       transform="translate(-845.93847,-1711.3075)"
       id="g4739">
      <path
         style="fill:#fdfdfd"
         d="m 641.08405,1957.4589 0,-436.25 312.5,0 312.50005,0 0,436.25 0,436.25 -312.50005,0 -312.5,0 0,-436.25 z"
         id="path4755"
         inkscape:connector-curvature="0" />
      <path
         style="fill:#e6e6e6"
         d="m 647.20928,2392.1506 c -1.89593,-0.7539 -3.84873,-2.9486 -4.6875,-5.2682 -2.06679,-5.7156 -2.07005,-853.1223 -0.003,-858.8378 0.96852,-2.6784 2.72286,-4.4328 5.40125,-5.4013 5.69847,-2.0606 605.63017,-2.0606 611.32867,0 2.6784,0.9685 4.4327,2.7229 5.4012,5.4013 2.0638,5.7073 2.0638,853.1213 0,858.8286 -0.9685,2.6784 -2.7228,4.4328 -5.4012,5.4013 -5.3416,1.9315 -607.17668,1.8097 -612.03911,-0.1239 z m 611.47092,-5.8455 3.6539,-3.6539 0,-425.1923 0,-425.1923 -3.6539,-3.6539 -3.6538,-3.6538 -301.44235,0 -301.44231,0 -3.65384,3.6538 -3.65385,3.6539 0,425.1923 0,425.1923 3.65385,3.6539 3.65384,3.6538 301.44231,0 301.44235,0 3.6538,-3.6538 z m -576.96836,-34.5607 c -2.06097,-1.0772 -4.79043,-2.9027 -6.06548,-4.0566 -6.1617,-5.5763 -5.81231,17.881 -5.81231,-390.2289 0,-336.4355 0.22078,-381.8011 1.87369,-384.9975 1.03052,-1.9928 3.93986,-5.1992 6.46519,-7.1254 l 4.59152,-3.5021 270.8196,0 270.81965,0 4.5915,3.5021 c 2.5253,1.9262 5.4346,5.1326 6.4652,7.1254 1.6529,3.1964 1.8737,48.562 1.8737,384.9975 0,336.4355 -0.2208,381.8011 -1.8737,384.9975 -1.0306,1.9928 -3.9399,5.1992 -6.4652,7.1254 l -4.5914,3.5021 -269.47238,0.3095 c -242.60163,0.2787 -269.84603,0.1142 -273.21958,-1.649 z m 543.12226,-11.7855 c 2.489,-2.489 2.5,-4.1667 2.5,-382.5 0,-378.3333 -0.011,-380.011 -2.5,-382.5 -2.4845,-2.4845 -4.1667,-2.5 -271.25005,-2.5 -267.08333,0 -268.7655,0.015 -271.25,2.5 -2.48903,2.489 -2.5,4.1667 -2.5,382.5 0,378.3333 0.011,380.011 2.5,382.5 2.4845,2.4845 4.16667,2.5 271.25,2.5 267.08335,0 268.76555,-0.015 271.25005,-2.5 z m -402.9205,-24.8923 c -5.58223,-7.3199 -11.44917,-12.2194 -26.23639,-21.9101 -11.9812,-7.8519 -17.06253,-13.6969 -20.25003,-23.2936 -4.26778,-12.849 3.44393,-31.1734 15.76431,-37.4588 8.33124,-4.2503 22.25291,-2.6028 28.90931,3.4212 1.22829,1.1116 2.23325,1.6346 2.23325,1.1622 0,-2.4342 -4.18789,-10.3223 -7.45696,-14.0456 -6.16411,-7.0205 -2.66493,-9.9172 11.83196,-9.7946 9.70784,0.082 16.875,2.4667 16.875,5.6146 0,1.2975 -1.17282,2.9867 -2.60626,3.7539 -2.46859,1.3211 -7.30719,10.0764 -7.36629,13.329 -0.0154,0.8497 2.78141,-0.2352 6.39118,-2.4792 16.4435,-10.2218 35.03995,-1.161 40.46971,19.7183 2.53806,9.7597 1.48537,17.396 -3.56464,25.8584 -3.28139,5.4986 -6.32851,8.2095 -17.70609,15.752 -14.14825,9.3793 -23.00843,17.0655 -26.60187,23.0771 -2.93098,4.9034 -5.35131,4.2908 -10.68619,-2.7048 z m 252.4482,2.6878 c -2.6824,-5.1873 -14.2029,-15.5598 -24.6349,-22.1802 -18.6492,-11.8351 -24.2193,-19.648 -24.1877,-33.9264 0.016,-7.4239 0.6485,-10.1654 3.7355,-16.2015 5.1766,-10.1222 11.7185,-14.5789 22.3978,-15.2589 6.9157,-0.4404 8.8571,-0.053 13.9144,2.7731 3.2325,1.8067 6.1374,3.0248 6.4553,2.7069 1.0833,-1.0832 -4.9431,-11.9963 -7.3299,-13.2737 -2.7127,-1.4518 -3.1372,-5.2488 -0.8034,-7.1857 2.72,-2.2574 16.065,-2.9839 22.8002,-1.2412 4.816,1.2461 6.338,2.2347 6.6336,4.3089 0.223,1.5647 -0.615,3.3966 -2.0014,4.375 -2.9747,2.0994 -6.5072,8.8077 -6.5072,12.3572 0,2.6261 0.066,2.6178 3.7355,-0.47 2.0545,-1.7288 6.7561,-3.8192 10.4479,-4.6454 5.733,-1.283 7.6464,-1.1919 13.1143,0.6242 8.2854,2.752 15.254,10.4706 18.3555,20.331 2.9938,9.5181 2.831,15.8441 -0.6123,23.7883 -3.3729,7.7818 -8.7083,12.8535 -23.4625,22.3025 -11.9822,7.6737 -19.1149,13.938 -23.0091,20.2079 -3.0986,4.9889 -6.6525,5.2279 -9.0416,0.608 z m 87.5556,-21.1288 c -0.4583,-0.4584 -0.8333,-3.5719 -0.8333,-6.919 0,-3.3724 -0.8576,-7.3944 -1.9235,-9.0212 -1.7485,-2.6686 -1.7201,-3.3478 0.3125,-7.4684 2.8422,-5.7618 7.3754,-7.2555 10.4597,-3.4465 1.6465,2.0333 3.5532,2.6884 7.8248,2.6884 4.9232,0 9.5765,2.2092 9.5765,4.5465 0,2.0178 -3.6594,6.9762 -9.7906,13.266 -5.5678,5.7119 -7.8055,7.1875 -10.8995,7.1875 -2.1413,0 -4.2683,-0.375 -4.7266,-0.8333 z m 2.7832,-47.0082 c -3.1672,-2.9059 -8.0658,-7.1239 -10.886,-9.3733 -5.9032,-4.7086 -7.5638,-10.0902 -5.2639,-17.0592 1.8678,-5.6595 6.7161,-9.476 12.0377,-9.476 3.2062,0 3.9999,-0.4361 3.4416,-1.8909 -1.1181,-2.9137 1.9301,-5.6091 6.3432,-5.6091 5.0256,0 8.8868,2.6854 7.8282,5.4442 -0.6513,1.6973 0.086,2.0558 4.2287,2.0558 6.087,0 10.2761,3.6548 12.4302,10.8448 2.0934,6.987 -0.6176,12.8961 -8.3454,18.1905 -3.2832,2.2493 -7.9033,5.9178 -10.2669,8.1522 -2.3636,2.2344 -4.633,4.0495 -5.0432,4.0335 -0.4102,-0.016 -3.3371,-2.4065 -6.5042,-5.3125 z M 729.24486,1707.0147 c -1.41858,-1.0373 -2.01112,-2.4914 -1.52814,-3.75 0.6513,-1.6973 -0.0861,-2.0558 -4.22872,-2.0558 -6.08695,0 -10.27606,-3.6548 -12.43024,-10.8448 -2.09335,-6.987 0.61765,-12.8961 8.34544,-18.1905 3.2832,-2.2493 7.90331,-5.9178 10.2669,-8.1522 2.3636,-2.2344 4.57471,-4.0625 4.91357,-4.0625 0.33887,0 3.27012,2.3906 6.5139,5.3125 3.24378,2.9219 8.20081,7.1529 11.01562,9.4023 5.89282,4.7092 7.5521,10.0965 5.2542,17.0592 -1.8678,5.6595 -6.71605,9.476 -12.03768,9.476 -3.20621,0 -3.99987,0.4361 -3.44158,1.8909 1.83255,4.7756 -7.51002,7.6684 -12.64327,3.9149 z m 90.58919,-4.8976 c -6.3525,-1.7315 -8.37612,-5.9324 -3.98879,-8.2804 2.58675,-1.3844 6.48879,-8.5596 6.48879,-11.9319 0,-1.7291 -0.8503,-1.553 -5.41371,1.1214 -10.94659,6.4151 -21.97158,5.4177 -31.0806,-2.8117 -6.03008,-5.4478 -7.98464,-9.1037 -10.37299,-19.4021 -1.63722,-7.0596 -1.6379,-8.7241 -0.006,-14.2199 3.0519,-10.2769 8.17679,-15.9236 23.49715,-25.8896 13.14974,-8.5537 22.4834,-16.9041 25.77987,-23.0636 1.41124,-2.637 6.34653,-3.8047 6.34653,-1.5016 0,2.8627 15.28863,17.2844 25.59011,24.1389 20.62895,13.7263 25.00567,19.7064 24.92588,34.0573 -0.10538,18.943 -11.29325,32.0875 -27.51074,32.3219 -4.62619,0.067 -8.18105,-0.8317 -12.8275,-3.2424 -4.22322,-2.191 -6.42775,-2.7962 -6.42775,-1.7644 0,2.291 7.22114,13.3099 8.72248,13.3099 2.02332,0 1.4837,5.9034 -0.61319,6.7081 -4.24718,1.6298 -17.81207,1.894 -23.10929,0.4501 z m 251.54335,0.3394 c -2.9325,-0.6181 -5.8856,-1.4661 -6.5625,-1.8845 -2.1509,-1.3292 -1.3271,-5.4736 1.3754,-6.92 2.474,-1.324 7.3075,-10.0793 7.3663,-13.3429 0.016,-0.9045 -1.8257,-0.2673 -4.5275,1.5662 -18.0283,12.2343 -38.1908,2.4131 -42.9023,-20.898 -3.4108,-16.8752 2.8151,-27.149 25.1,-41.419 10.9954,-7.0409 22.9175,-17.9569 24.2717,-22.2235 1.2284,-3.8705 5.0029,-2.726 8.7256,2.6459 4.7079,6.7934 10.7604,12.0839 24.0394,21.0127 13.6735,9.194 18.7159,14.1122 21.9934,21.4515 7.1096,15.9208 -2.4565,38.4302 -18.3365,43.1461 -7.4962,2.2261 -13.0529,1.5147 -20.6813,-2.6475 -3.0085,-1.6415 -5.6879,-2.9846 -5.9543,-2.9846 -1.3029,0 3.7369,9.5434 7.0062,13.267 3.791,4.3177 3.9127,7.19 0.3623,8.5524 -3.6981,1.4191 -15.9132,1.8084 -21.2759,0.6782 z m -334.33344,-57.4976 c -1.17034,-1.874 -2.91503,-2.5 -6.96777,-2.5 -12.75192,0 -13.27162,-4.6051 -1.85434,-16.4313 7.63069,-7.904 8.78719,-8.6547 12.8125,-8.316 l 4.4247,0.3723 0.37178,7.0836 c 0.22426,4.273 1.09224,7.6816 2.1875,8.5906 2.34905,1.9495 2.321,5.4753 -0.0593,7.4508 -1.03125,0.8559 -1.875,2.2708 -1.875,3.1443 0,3.6234 -6.86815,4.0835 -9.04009,0.6057 z"
         id="path4753"
         inkscape:connector-curvature="0" />
      <path
         style="fill:#d7d7d7"
         d="m 647.47164,2391.9645 c -6.71212,-3.7202 -6.29564,24.7837 -6.3433,-434.1343 -0.0341,-328.0882 0.3003,-427.26 1.44907,-429.7812 3.33324,-7.3157 -18.2831,-6.8401 310.88575,-6.8401 231.87034,0 303.26854,0.3487 305.78084,1.4934 7.3554,3.3513 6.8401,-29.4033 6.8401,434.7566 0,464.1599 0.5153,431.4053 -6.8401,434.7566 -5.0746,2.3122 -607.59395,2.0649 -611.77236,-0.251 z m 604.86246,-0.7556 c 0,-0.6875 0.9481,-1.25 2.1069,-1.25 2.8688,0 7.8931,-4.9128 7.8931,-7.7179 0,-1.2551 0.5625,-2.2821 1.25,-2.2821 0.8308,0 1.25,-141.6667 1.25,-422.5 0,-280.8333 -0.4192,-422.5 -1.25,-422.5 -0.6875,0 -1.25,-1.0842 -1.25,-2.4093 0,-2.5807 -5.474,-7.5907 -8.2936,-7.5907 -0.9386,0 -1.7064,-0.5625 -1.7064,-1.25 0,-0.8298 -100.4167,-1.25 -298.75005,-1.25 -198.33333,0 -298.75,0.4202 -298.75,1.25 0,0.6875 -0.76789,1.25 -1.70643,1.25 -2.81966,0 -8.29357,5.01 -8.29357,7.5907 0,1.3251 -0.5625,2.4093 -1.25,2.4093 -0.83087,0 -1.25,141.6667 -1.25,422.5 0,280.8333 0.41913,422.5 1.25,422.5 0.6875,0 1.25,0.9481 1.25,2.1069 0,2.8688 4.91276,7.8931 7.71789,7.8931 1.25516,0 2.28211,0.5625 2.28211,1.25 0,0.8299 100.41667,1.25 298.75,1.25 198.33335,0 298.75005,-0.4201 298.75005,-1.25 z m -572.62479,-41.4171 c -2.47486,-1.4353 -5.42798,-4.1811 -6.5625,-6.1017 -1.90492,-3.2247 -2.06276,-32.7789 -2.06276,-386.2312 0,-354.3579 0.15386,-382.9997 2.07491,-386.2518 1.1412,-1.9319 4.17092,-4.6906 6.7327,-6.1304 l 4.65778,-2.6178 269.03461,0 269.03465,0 4.6578,2.6178 c 2.5617,1.4398 5.5914,4.1985 6.7326,6.1304 1.9211,3.2521 2.075,31.8939 2.075,386.2518 0,354.3579 -0.1539,382.9997 -2.075,386.2518 -1.1412,1.9319 -4.1709,4.6906 -6.7326,6.1304 l -4.6578,2.6178 -269.20484,-0.029 -269.20481,-0.029 -4.49974,-2.6097 z m 545.55769,-8.4234 c 1.9145,-1.589 2.0671,-29.8749 2.0671,-383.1986 0,-327.4939 -0.2511,-381.8265 -1.7743,-383.9095 -1.7468,-2.3889 -5.9484,-2.4264 -271.97575,-2.4264 -266.1326,0 -270.22828,0.037 -271.97778,2.4292 -1.52746,2.0889 -1.7322,55.9216 -1.46173,384.3381 l 0.31451,381.9089 3.125,1.5857 c 4.81855,2.445 538.72435,1.728 541.68295,-0.7275 z m -400.16126,-23.3796 c -2.83349,-5.0632 -15.78301,-16.6058 -26.72854,-23.8246 -13.21607,-8.7163 -17.68195,-13.2389 -21.2175,-21.487 -7.74458,-18.0674 7.13958,-42.7044 25.79935,-42.7044 4.81112,0 11.83011,2.6097 15.63897,5.8147 2.11289,1.7778 4.13824,2.9359 4.50078,2.5733 1.15456,-1.1545 -4.59955,-13.0458 -7.74078,-15.9968 -3.88571,-3.6504 -3.83027,-5.9104 0.18241,-7.436 4.20434,-1.5985 16.19088,-1.5461 22.10612,0.097 3.40453,0.9455 4.6875,1.9807 4.6875,3.7823 0,1.3642 -0.86771,2.8134 -1.92825,3.2204 -2.87956,1.105 -9.8894,16.6816 -7.50711,16.6816 0.33675,0 3.11774,-1.766 6.17996,-3.9245 18.74269,-13.211 42.0054,2.2169 42.0054,27.8582 0,13.0458 -5.42214,20.399 -24.09656,32.6785 -12.47008,8.1998 -25.90344,20.3987 -25.90344,23.523 0,1.9091 -4.81691,1.22 -5.97831,-0.8553 z m 248.13576,-2.9856 c -4.2937,-6.0704 -13.7954,-14.1506 -25.2824,-21.5003 -15.8011,-10.1098 -21.7955,-18.4795 -21.8476,-30.5046 -0.044,-10.1283 3.1553,-18.788 9.159,-24.7917 9.2966,-9.2965 21.1279,-10.4516 32.5911,-3.1818 3.1474,1.996 5.7225,3.0609 5.7225,2.3664 0,-2.8364 -3.9812,-10.4905 -7.6008,-14.613 -3.4408,-3.9188 -3.6546,-4.5997 -1.9725,-6.2818 3.7185,-3.7185 22.6651,-3.5134 27.842,0.3014 2.2603,1.6656 2.1976,1.9053 -1.5386,5.8862 -3.6061,3.8423 -6.7301,10.4546 -6.7301,14.2452 0,0.9817 2.7418,-0.054 7.1139,-2.6865 8.4309,-5.0768 16.4538,-5.7147 23.8734,-1.8983 13.3026,6.8426 20.5936,24.6962 15.8803,38.8866 -3.0014,9.0363 -8.6248,14.768 -25.2772,25.7642 -10.0516,6.6374 -15.8036,11.4146 -19.4881,16.1855 -2.875,3.7228 -6.0711,6.7588 -7.1023,6.7468 -1.0313,-0.013 -3.4354,-2.228 -5.3426,-4.9243 z m 89.1365,-19.9621 c -0.7117,-1.3298 -1.2939,-4.7125 -1.2939,-7.517 0,-2.8045 -0.6728,-6.1763 -1.495,-7.4929 -1.2147,-1.945 -1.0442,-3.2306 0.9093,-6.858 2.7302,-5.0697 7.1576,-6.0341 9.3024,-2.0264 1.0177,1.9015 2.884,2.5204 8.4815,2.8125 6.4441,0.3364 7.2191,0.6733 7.5911,3.3008 0.3157,2.2293 -1.6424,4.9829 -8.222,11.5625 -9.0003,9.0003 -12.9286,10.5997 -15.2734,6.2185 z m 2.4561,-46.3857 c -17.2832,-15.3351 -16.25,-14.0422 -16.25,-20.3352 0,-4.6604 0.7244,-6.6326 3.6313,-9.886 3.0178,-3.3776 4.4793,-4.042 8.6505,-3.9326 4.6659,0.1224 5.0042,-0.099 4.8062,-3.143 -0.2003,-3.0793 0.1225,-3.2747 5.412,-3.2747 5.3321,0 5.6222,0.1812 5.5724,3.4797 -0.047,3.1117 0.2936,3.4037 3.2203,2.7609 11.3402,-2.4907 19.6538,13.611 11.8291,22.9102 -1.7205,2.0448 -5.7987,5.4379 -9.0625,7.5403 -3.2639,2.1024 -6.6422,4.9726 -7.5074,6.3782 -2.214,3.597 -3.8913,3.1903 -10.3019,-2.4978 z M 729.06388,1705.6563 c -0.41102,-1.071 -0.40642,-2.8357 0.0102,-3.9214 0.61721,-1.6085 0.10341,-1.8304 -2.77411,-1.1984 -11.57827,2.543 -20.02302,-13.4229 -12.08774,-22.8534 1.72051,-2.0447 5.79864,-5.4378 9.0625,-7.5403 3.26387,-2.1024 6.6422,-4.9726 7.5074,-6.3782 2.20833,-3.5877 3.43931,-3.2668 10.57419,2.7568 14.94702,12.619 15.97768,13.9185 15.97768,20.1457 0,4.5837 -0.73773,6.578 -3.63133,9.8165 -3.01785,3.3776 -4.47929,4.042 -8.65054,3.9326 -4.6659,-0.1224 -5.0042,0.099 -4.80616,3.143 0.19515,2.9999 -0.23378,3.307 -5.11091,3.6596 -3.92018,0.2835 -5.52097,-0.1285 -6.07123,-1.5625 z m 89.92345,-4.0677 c -1.49695,-0.2914 -3.41308,-1.3628 -4.25807,-2.381 -1.2619,-1.5205 -0.8278,-2.5822 2.4301,-5.9435 3.55909,-3.672 6.42469,-10.0095 6.42469,-14.2087 0,-0.8702 -2.43502,0.1714 -5.57521,2.3848 -6.38914,4.5035 -16.23558,6.0151 -23.52045,3.6109 -8.97415,-2.9617 -15.96823,-12.5581 -18.72232,-25.6883 -1.19197,-5.6828 -1.0832,-7.8703 0.66687,-13.4097 2.96019,-9.3698 8.36559,-15.234 22.4924,-24.4013 14.1048,-9.153 20.97933,-15.0145 24.73336,-21.0887 2.39902,-3.8817 7.42535,-5.9835 7.42535,-3.1049 0,2.8879 13.76106,15.7198 25.35128,23.6394 19.75035,13.4954 24.64872,19.943 24.64872,32.4443 0,26.8363 -23.73111,41.5357 -43.4375,26.9058 -2.60127,-1.9312 -4.05262,-2.4311 -4.03505,-1.3899 0.0495,2.9288 4.5566,11.6735 7.84626,15.2231 5.65009,6.0965 2.40519,8.3552 -11.62371,8.0907 -4.46875,-0.084 -9.34977,-0.3916 -10.84672,-0.683 z m 249.90927,-0.5282 c -4.9591,-1.4318 -5.401,-4.937 -0.987,-7.8291 2.9001,-1.9003 7.8093,-14.0542 6.2903,-15.5732 -0.3441,-0.3442 -1.8891,0.5295 -3.4333,1.9413 -7.5935,6.943 -19.4742,8.6797 -28.3614,4.1458 -9.7975,-4.9983 -16.3211,-17.0622 -16.3211,-30.1818 0,-12.7852 5.2091,-19.9224 23.151,-31.7201 8.6645,-5.6973 16.757,-12.254 21.4631,-17.39 4.155,-4.5344 8.1151,-8.2444 8.8002,-8.2444 0.6851,0 2.8242,2.2778 4.7535,5.0618 4.2179,6.0865 11.0691,11.8585 26.6046,22.414 12.6612,8.6026 16.6597,12.9333 19.578,21.2047 2.516,7.1311 2.3954,11.9868 -0.5071,20.4232 -3.3358,9.6958 -7.0193,14.1816 -14.7512,17.9645 -8.7016,4.2573 -16.478,3.6805 -25.433,-1.8862 -6.0253,-3.7455 -6.2866,-3.7992 -5.4583,-1.1204 1.5637,5.057 5.2299,11.5153 7.9161,13.9446 3.514,3.178 3.3209,5.5442 -0.5733,7.0247 -3.9613,1.5061 -17.2572,1.4012 -22.7311,-0.1794 z M 737.36726,1643.771 c -1.01765,-1.9015 -2.88392,-2.5204 -8.48148,-2.8125 -6.63968,-0.3466 -7.20444,-0.6123 -7.54708,-3.5512 -0.29395,-2.5213 1.42149,-4.9064 8.31596,-11.5625 4.77747,-4.6122 9.54458,-8.3859 10.59357,-8.3859 3.53554,0 5.83582,3.7372 5.83582,9.4812 0,3.054 0.67272,6.6299 1.49492,7.9465 1.2147,1.945 1.04425,3.2306 -0.90925,6.858 -2.73018,5.0697 -7.15759,6.0341 -9.30246,2.0264 z"
         id="path4751"
         inkscape:connector-curvature="0" />
      <path
         style="fill:#a6a6a6"
         d="m 648.28726,2391.7522 c -7.80201,-4.2334 -7.20321,31.869 -7.20321,-434.2933 0,-377.5517 0.21218,-425.5345 1.89616,-428.7909 4.16641,-8.057 -20.72942,-7.4591 310.60384,-7.4591 331.33325,0 306.43745,-0.5979 310.60385,7.4591 1.684,3.2564 1.8962,51.2392 1.8962,428.7909 0,377.5517 -0.2122,425.5345 -1.8962,428.7909 -4.1672,8.0585 20.7715,7.4641 -310.85428,7.4091 -264.35141,-0.044 -302.04742,-0.2795 -305.04636,-1.9067 z m 608.44884,-1.2649 c 8.844,-4.1968 8.098,35.6975 8.098,-433.0284 0,-382.3907 -0.1883,-423.1438 -1.9716,-426.902 -4.1704,-8.7883 22.1933,-8.098 -309.27845,-8.098 -331.47178,0 -305.10809,-0.6903 -309.27841,8.098 -1.78338,3.7582 -1.97159,44.5113 -1.97159,426.902 0,381.6755 0.19078,423.1492 1.96373,426.8854 4.15068,8.7469 -22.31391,8.0546 309.09736,8.0861 269.90616,0.026 299.59266,-0.1644 303.34096,-1.9431 z m -575.63628,-40.872 c -3.17138,-1.6771 -6.32885,-4.6177 -7.6966,-7.168 -2.24435,-4.1849 -2.31917,-16.6053 -2.31917,-384.9884 0,-368.3831 0.0748,-380.8035 2.31917,-384.9883 1.36775,-2.5504 4.52522,-5.491 7.6966,-7.168 l 5.37744,-2.8437 267.10679,0 267.10675,0 5.3775,2.8437 c 3.1714,1.677 6.3288,4.6176 7.6966,7.168 2.2443,4.1848 2.3192,16.6052 2.3192,384.9883 0,368.3831 -0.075,380.8035 -2.3192,384.9884 -1.3678,2.5503 -4.5252,5.4909 -7.6966,7.168 l -5.3775,2.8436 -267.10675,0 -267.10679,0 -5.37744,-2.8436 z m 544.98428,-8.4064 c 2.489,-2.4891 2.5,-4.1667 2.5,-383.5143 l 0,-381.0143 -2.5487,-2.7357 -2.5487,-2.7357 -269.90265,0 -269.90261,0 -2.5487,2.7357 -2.54869,2.7357 0,381.0143 c 0,379.3476 0.0109,381.0252 2.5,383.5143 2.48457,2.4846 4.16667,2.5 272.5,2.5 268.33335,0 270.01545,-0.015 272.50005,-2.5 z m -405.98834,-30.1 c -4.48666,-4.8668 -13.21666,-12.1163 -20.32992,-16.8821 -13.45764,-9.0165 -18.87419,-14.317 -21.80945,-21.3421 -5.68499,-13.6061 2.31122,-34.5378 15.27501,-39.9855 7.30709,-3.0706 15.317,-2.1767 23.23869,2.5935 6.3977,3.8525 7.11396,4.0399 7.11396,1.8614 0,-3.3629 -4.66169,-12.9516 -7.58109,-15.5936 -3.30211,-2.9884 -3.03567,-5.3492 0.70979,-6.2892 5.19059,-1.3028 21.33647,-0.013 23.62658,1.8882 1.93516,1.6061 1.79837,2.058 -1.72248,5.6906 -3.83289,3.9545 -6.2828,9.9734 -6.2828,15.4354 0,2.8236 0.16441,2.7775 5.07315,-1.4242 17.9481,-15.3629 42.41255,-1.2693 42.70469,24.6016 0.16087,14.2466 -4.39448,20.5202 -24.49903,33.7402 -12.15023,7.9895 -24.52881,19.1414 -24.52881,22.0981 0,3.4066 -4.2155,0.9543 -10.98829,-6.3923 z m 253.71504,3.3538 c -4.8391,-6.7384 -12.4369,-13.1166 -26.8836,-22.5683 -12.2573,-8.0194 -17.4114,-14.0673 -19.5122,-22.8961 -2.2869,-9.6109 1.1326,-22.6757 7.8778,-30.0985 8.1389,-8.9566 22.3971,-10.1956 32.816,-2.8517 3.1624,2.2291 6.0505,3.7522 6.418,3.3847 1.2475,-1.2475 -3.7321,-12.2165 -7.4879,-16.4941 -3.1756,-3.6168 -3.4916,-4.5544 -2.1002,-6.2309 1.3277,-1.5998 3.828,-1.893 13.2062,-1.5487 13.9434,0.512 16.222,1.9161 11.3545,6.9968 -3.3871,3.5353 -7.1653,12.4051 -7.1653,16.8213 0,2.2618 0.3054,2.1969 3.8998,-0.8276 6.299,-5.3002 11.2488,-7.2978 18.083,-7.2978 11.7155,0 20.9944,7.8231 24.9779,21.0592 4.9843,16.5616 -1.6746,30.4364 -19.8492,41.3585 -11.645,6.9981 -20.1906,13.9833 -25.2941,20.6754 -2.5225,3.3077 -4.993,6.014 -5.49,6.014 -0.497,0 -2.6798,-2.4733 -4.8507,-5.4962 z m 89.3566,-19.0871 c -0.4583,-0.4584 -0.8333,-3.5597 -0.8333,-6.892 0,-3.3322 -0.6463,-7.0934 -1.4361,-8.3581 -1.1036,-1.7671 -1.035,-3.2055 0.2963,-6.213 2.2354,-5.05 4.9383,-6.0415 7.5792,-2.7801 1.3457,1.6619 3.5681,2.5826 6.2609,2.5936 12.3633,0.05 12.8726,3.8845 1.9535,14.7065 -7.1795,7.1157 -11.4849,9.2787 -13.8205,6.9431 z m 10.1302,-12.6823 c 0.2721,-0.8164 -0.3958,-1.4844 -1.4844,-1.4844 -1.0885,0 -1.9791,0.8906 -1.9791,1.9792 0,2.2074 2.6909,1.823 3.4635,-0.4948 z m -5.8407,-33.2286 c -1.5471,-1.6468 -5.5833,-4.8812 -8.9693,-7.1875 -7.9725,-5.4303 -10.724,-10.9007 -8.7674,-17.4311 1.9879,-6.6351 6.9456,-10.2977 12.8698,-9.5077 4.5254,0.6034 4.6147,0.5362 3.9183,-2.946 -0.6083,-3.0411 -0.2506,-3.6794 2.4401,-4.3548 1.734,-0.4352 4.3373,-0.1573 5.7851,0.6175 2.1019,1.1249 2.3773,1.8854 1.3664,3.7741 -1.9259,3.5986 -1.6723,3.7872 4.0467,3.0091 6.6021,-0.8983 11.4981,2.4495 13.3404,9.1218 1.645,5.9579 -0.6795,11.4629 -6.8323,16.18 -2.5781,1.9766 -6.7825,5.4219 -9.3431,7.6563 -5.5678,4.8585 -6.2268,4.93 -9.8547,1.0683 z M 730.76329,1706.1042 c -1.69348,-0.9863 -1.90794,-1.8166 -0.9375,-3.6299 1.91743,-3.5827 1.66074,-3.7723 -4.05424,-2.9948 -6.60211,0.8983 -11.49812,-2.4495 -13.34045,-9.1218 -1.64504,-5.9578 0.67956,-11.4629 6.83228,-16.18 2.57813,-1.9766 6.78252,-5.4219 9.34309,-7.6563 5.56782,-4.8585 6.22685,-4.93 9.85471,-1.0683 1.5471,1.6468 5.58329,4.8812 8.9693,7.1875 7.97248,5.4303 10.724,10.9007 8.76747,17.4311 -1.9955,6.6604 -6.9424,10.2981 -12.92015,9.501 -4.48167,-0.5976 -4.64766,-0.4904 -3.89332,2.5152 1.18395,4.7172 -3.5948,6.9434 -8.62119,4.0163 z m 86.88326,-6.1842 c -3.60982,-1.451 -3.55191,-1.9139 0.86931,-6.9494 3.51475,-4.0031 6.29627,-11.0201 6.31122,-15.9216 0.006,-1.8749 -0.89969,-1.5088 -5.04535,2.0397 -13.54989,11.5982 -31.37659,7.8483 -39.25652,-8.2577 -6.71693,-13.7289 -5.44242,-26.8413 3.5575,-36.6 2.81949,-3.0573 11.29343,-9.6285 18.83099,-14.6029 9.17914,-6.0576 15.3707,-11.1805 18.75,-15.5137 4.47168,-5.7339 9.42035,-8.6445 9.42035,-5.5407 0,2.8763 12.53511,14.5176 24.13296,22.4121 19.93448,13.5692 25.00598,20.0388 25.16145,32.0981 0.16852,13.0695 -6.97766,26.24 -16.36588,30.1627 -8.78343,3.6699 -20.51747,1.5887 -27.6111,-4.8972 -1.54417,-1.4118 -3.13003,-2.2446 -3.52414,-1.8505 -1.49669,1.4967 2.53405,11.1845 6.65807,16.0025 6.0908,7.1157 4.42017,8.7323 -8.91691,8.6283 -5.5877,-0.044 -11.42507,-0.588 -12.97195,-1.2097 z m 250.93755,0.3778 c -3.6023,-1.3713 -3.6187,-3.4677 -0.053,-6.7249 3.3511,-3.0608 6.2794,-10.12 6.2955,-15.1765 0.01,-3.0012 -0.8735,-2.7709 -5.7313,1.4943 -3.873,3.4006 -11.0177,6.3043 -15.5117,6.3043 -16.8448,0 -30.5873,-21.2897 -25.7585,-39.9049 2.4005,-9.2544 7.0458,-14.2861 22.6794,-24.5661 8.5012,-5.59 16.8666,-12.3009 20.9278,-16.7888 3.7212,-4.1119 7.1437,-7.4763 7.6056,-7.4763 0.4619,0 4.5319,3.9137 9.0443,8.6972 4.5931,4.8689 13.5503,12.2222 20.3491,16.7054 13.5968,8.9658 17.6667,13.1536 20.8279,21.4311 4.787,12.5346 -0.8387,30.0964 -11.9256,37.2279 -5.0455,3.2454 -6.4894,3.5727 -14.0147,3.1776 -7.02,-0.3686 -9.3158,-1.0933 -14.0625,-4.4391 -5.1918,-3.6595 -5.6728,-3.7853 -5.6728,-1.4842 0,3.7421 2.9268,10.0322 6.8122,14.6401 5.4436,6.4559 3.8661,7.8106 -8.9605,7.6953 -6.0372,-0.054 -11.8205,-0.4198 -12.8517,-0.8124 z m -330.29014,-56.5889 c -1.17034,-1.874 -2.91503,-2.5 -6.96777,-2.5 -5.7404,0 -10.24214,-1.721 -10.24214,-3.9155 0,-0.7302 3.77367,-5.2364 8.38593,-10.0139 6.65605,-6.8945 9.0412,-8.6099 11.5625,-8.3159 2.91538,0.3398 3.20849,0.9344 3.56472,7.2305 0.22875,4.043 1.20661,7.7645 2.38123,9.0625 1.82556,2.0172 1.81921,2.3944 -0.0756,4.4882 -1.1378,1.2573 -2.06873,2.8846 -2.06873,3.6163 0,1.1214 -2.7078,2.8478 -4.46664,2.8478 -0.2817,0 -1.21475,-1.125 -2.07345,-2.5 z m -0.95991,-12.0281 c 0,-1.6609 -0.33936,-1.7464 -1.875,-0.4719 -1.03125,0.8559 -1.875,1.7685 -1.875,2.0281 0,0.2595 0.84375,0.4719 1.875,0.4719 1.03125,0 1.875,-0.9126 1.875,-2.0281 z"
         id="path4749"
         inkscape:connector-curvature="0" />
      <path
         style="fill:#6f6f6f"
         d="m 650.26591,2392.7523 c -0.79372,-0.5051 135.69944,-0.9184 303.31814,-0.9184 167.61875,0 304.11185,0.4133 303.31815,0.9184 -0.7937,0.5051 -137.2869,0.9183 -303.31815,0.9183 -166.03125,0 -302.52441,-0.4132 -303.31814,-0.9183 z m -8.42312,-8.5206 c -1.09585,-2.8558 -0.89901,-852.1172 0.1979,-853.8409 0.5051,-0.7938 0.91836,191.4406 0.91836,427.1875 0,235.7468 -0.0804,428.6306 -0.17876,428.6306 -0.0983,0 -0.5202,-0.8897 -0.9375,-1.9772 z m 622.36631,-426.7728 c 0,-235.6812 0.4132,-427.8619 0.9183,-427.0681 1.2008,1.8869 1.2008,852.2493 0,854.1362 -0.5051,0.7938 -0.9183,-191.3869 -0.9183,-427.0681 z m -583.41488,391.1765 c -2.56565,-1.3546 -5.51878,-4.1143 -6.5625,-6.1326 -1.68473,-3.258 -1.89767,-46.4643 -1.89767,-385.0439 0,-338.8514 0.21193,-381.784 1.90076,-385.0498 1.04542,-2.0216 4.11676,-4.8062 6.8252,-6.1879 4.88706,-2.4932 6.95581,-2.5123 272.52404,-2.5123 265.56825,0 267.63695,0.019 272.52405,2.5123 2.7084,1.3817 5.7798,4.1663 6.8252,6.1879 1.6888,3.2658 1.9008,46.1984 1.9008,385.0498 0,338.8514 -0.212,381.784 -1.9008,385.0498 -1.0454,2.0216 -4.1168,4.8062 -6.8252,6.1879 -4.8881,2.4938 -6.9002,2.5119 -272.78675,2.4571 -264.05375,-0.054 -267.92863,-0.09 -272.52713,-2.5183 z m 543.21818,-5.0643 c 1.6753,-0.7633 3.6705,-2.7586 4.4338,-4.4338 1.9802,-4.346 1.9802,-759.0108 0,-763.3567 -0.7633,-1.6753 -2.7585,-3.6705 -4.4338,-4.4339 -4.3394,-1.9771 -536.51726,-1.9771 -540.85669,0 -1.67529,0.7634 -3.67051,2.7586 -4.43382,4.4339 -1.98443,4.3553 -1.97972,759.0116 0.005,763.3671 0.76593,1.681 2.59406,3.6382 4.0625,4.3492 3.90711,1.8919 537.07351,1.9649 541.22331,0.074 z m -403.85526,-33.5783 c -4.64485,-5.0785 -12.73804,-11.7852 -20.00034,-16.5741 -14.5111,-9.5687 -19.44761,-14.8388 -22.26171,-23.7662 -1.95416,-6.1993 -1.956,-7.1928 -0.0272,-14.7331 1.13751,-4.447 3.43874,-10.0661 5.11382,-12.4867 8.19258,-11.8391 23.9189,-13.6792 36.27856,-4.2449 l 5.57383,4.2546 0,-3.1569 c 0,-4.1543 -3.0409,-11.2859 -7.05794,-16.5525 -2.45941,-3.2245 -2.88283,-4.5833 -1.77382,-5.6923 1.9827,-1.9827 18.7092,-1.8273 22.33108,0.2075 l 2.87433,1.6148 -3.74364,4.2638 c -3.8942,4.4353 -6.36108,11.1332 -6.37304,17.3038 l -0.007,3.5967 5.49413,-5.0643 c 8.36197,-7.7078 17.32666,-9.5408 26.43259,-5.4045 10.07812,4.5778 15.86155,14.7798 16.02921,28.2754 0.18134,14.5962 -3.53515,19.5811 -25.06572,33.6207 -7.40739,4.8301 -15.51263,11.3923 -19.375,15.6863 l -6.64021,7.3822 -7.80191,-8.5303 z m 250.92346,0.1508 c -4.4669,-4.6713 -14.2511,-12.6408 -21.7427,-17.7102 -19.482,-13.1827 -24.1539,-21.7213 -20.7794,-37.9765 4.5003,-21.678 27.1028,-29.4675 42.825,-14.7589 1.8835,1.762 3.8122,2.816 4.286,2.3421 1.5651,-1.5651 -3.4229,-14.5938 -7.2605,-18.9646 -2.0727,-2.3607 -3.4408,-4.8224 -3.0402,-5.4706 1.8435,-2.9827 19.7305,-3.0723 24.5031,-0.1226 1.4769,0.9128 1.2323,1.7252 -1.3865,4.605 -3.9915,4.3893 -5.704,8.4101 -6.8572,16.1 l -0.9079,6.0543 5.7943,-5.1004 c 13.602,-11.9729 30.5596,-9.4954 38.6906,5.6528 7.3729,13.736 6.4512,26.6017 -2.6292,36.6969 -2.5393,2.8231 -9.9607,8.6272 -16.4919,12.898 -12.2926,8.0382 -18.4954,13.3095 -23.7949,20.2214 l -3.0871,4.0264 -8.1215,-8.4931 z m 94.066,-14.8328 c -0.9506,-0.3408 -1.5625,-2.8737 -1.5625,-6.4672 0,-3.2488 -0.7756,-6.9675 -1.7235,-8.2638 -1.4785,-2.0219 -1.434,-2.9398 0.3125,-6.4582 2.3334,-4.7003 4.4864,-5.2587 6.411,-1.6627 1.0551,1.9716 2.6172,2.5 7.3909,2.5 10.0447,0 10.4121,2.3074 1.8041,11.332 -7.8469,8.2267 -10.1863,9.8971 -12.6325,9.0199 z m 8.1875,-10.6019 c 2.4946,-2.4947 1.7785,-4.9634 -1.3125,-4.5244 -1.8075,0.2567 -2.9553,1.4045 -3.212,3.2119 -0.439,3.091 2.0298,3.8072 4.5245,1.3125 z m -6.0225,-36.649 c -1.6271,-1.7319 -5.6028,-4.8458 -8.8349,-6.9199 -3.2581,-2.0907 -6.5566,-5.4126 -7.4026,-7.4552 -2.0237,-4.8855 -0.6823,-11.3898 3.0773,-14.9217 2.9144,-2.7379 6.38,-3.0512 13.1827,-1.1917 1.1831,0.3234 1.6966,-0.1793 1.3916,-1.3625 -1.8764,-7.2787 -1.8172,-7.5 2.0043,-7.5 4.8414,0 5.3493,0.6874 3.7121,5.0247 -1.5703,4.1601 -0.5161,6.035 2.1495,3.8228 0.9999,-0.8299 3.9107,-1.3319 6.4685,-1.1157 6.0256,0.5094 9.8421,5.3349 9.8421,12.4439 0,4.2711 -0.7142,5.6884 -4.5403,9.0089 -10.1705,8.8268 -15.8877,13.3154 -16.9597,13.3154 -0.6228,0 -2.4636,-1.417 -4.0906,-3.149 z M 730.8033,1705.5115 c -0.38358,-0.3836 -0.0809,-2.3309 0.6727,-4.3273 1.57028,-4.1601 0.51606,-6.035 -2.14951,-3.8228 -0.99988,0.8299 -3.91072,1.3319 -6.46853,1.1157 -6.02556,-0.5094 -9.84209,-5.3349 -9.84209,-12.4439 0,-4.2711 0.71425,-5.6883 4.54031,-9.0089 10.17057,-8.8267 15.88772,-13.3154 16.95972,-13.3154 0.6228,0 2.4636,1.417 4.09066,3.149 1.62706,1.7319 5.60274,4.8459 8.83485,6.9199 3.25808,2.0907 6.55655,5.4126 7.40263,7.4552 2.02364,4.8855 0.68226,11.3898 -3.07731,14.9217 -2.91439,2.7379 -6.38002,3.0512 -13.18268,1.1917 -1.18316,-0.3234 -1.69665,0.1793 -1.39164,1.3625 1.87639,7.2787 1.81724,7.5 -2.0043,7.5 -2.02807,0 -4.00123,-0.3138 -4.38481,-0.6974 z m 89.34325,-5.6263 c -2.23437,-0.6863 -4.0625,-1.5793 -4.0625,-1.9845 0,-0.4052 1.63924,-2.6037 3.64275,-4.8856 3.53796,-4.0295 7.69186,-17.1382 5.97486,-18.8552 -0.431,-0.4311 -2.871,1.049 -5.42222,3.289 -9.03208,7.9303 -18.03224,9.5063 -27.66306,4.8441 -7.33537,-3.551 -12.17143,-10.5292 -14.55271,-20.9989 -1.75704,-7.7251 -1.75388,-9.149 0.0339,-15.2407 2.34368,-7.9862 10.83026,-16.997 22.05865,-23.4212 9.547,-5.4622 19.70621,-13.8545 23.48221,-19.3981 1.68888,-2.4795 3.53496,-4.512 4.10243,-4.5167 0.56745,0 4.7862,3.8575 9.375,8.5826 4.58878,4.725 13.15255,11.687 19.03057,15.4709 16.95018,10.9116 21.938,16.9745 23.27891,28.2964 1.38103,11.6607 -5.40467,26.0536 -14.46428,30.6799 -9.27003,4.7337 -19.12843,3.3211 -27.63439,-3.9597 -2.81166,-2.4066 -5.46702,-4.0208 -5.90082,-3.587 -1.52289,1.5229 3.60553,14.6461 7.42234,18.9932 2.70906,3.0854 3.46442,4.7867 2.53707,5.7141 -1.82825,1.8282 -16.30025,2.4943 -21.23865,0.9774 z m 252.18755,0.4087 c -5.8474,-1.0751 -6.5162,-2.7611 -2.6349,-6.6424 3.3434,-3.3435 6.3849,-11.6181 6.3849,-17.3711 0,-3.4435 -1.4493,-3.2391 -5.0947,0.7184 -6.9083,7.5 -18.6938,9.9205 -27.1426,5.5746 -9.2196,-4.7423 -14.3557,-12.6763 -15.9406,-24.6239 -1.8937,-14.2752 3.7185,-22.8292 23.5207,-35.8504 8.6718,-5.7022 16.6861,-12.1331 20.4062,-16.3744 3.3693,-3.8413 6.5011,-6.9914 6.9596,-7 0.4584,-0.01 4.3959,3.7178 8.75,8.2811 4.354,4.5633 13.4084,11.9348 20.1208,16.381 14.0545,9.3095 18.905,14.5845 21.7808,23.6866 1.9206,6.0791 1.9098,7.0086 -0.1705,14.694 -6.0228,22.2501 -24.1047,29.3884 -41.2643,16.2902 l -5.6754,-4.3322 0.013,3.4293 c 0.015,4.1101 5.0063,15.2397 7.9138,17.6448 1.1407,0.9435 2.0739,2.4201 2.0739,3.2812 0,2.6427 -11.027,3.8629 -20,2.2132 z m -333.75005,-57.835 c -1.08882,-2.0345 -2.61728,-2.5 -8.20821,-2.5 -10.06778,0 -10.14777,-2.1829 -0.43895,-11.9788 5.14331,-5.1894 8.95561,-8.0212 10.79855,-8.0212 2.59758,0 2.84861,0.5696 2.84861,6.4641 0,4.2607 0.70515,7.2432 2.06873,8.75 1.92498,2.1271 1.92498,2.4447 0,4.5718 -1.1378,1.2573 -2.06873,2.9448 -2.06873,3.75 0,2.3979 -3.55665,1.661 -5,-1.0359 z m -0.22556,-10.9375 c 0.4746,-3.3418 -0.62585,-3.5607 -3.73851,-0.7438 -3.09537,2.8013 -2.87734,4.4392 0.52657,3.9557 1.80745,-0.2567 2.95524,-1.4045 3.21194,-3.2119 z m -87.54031,-109.2871 c 2.79892,-1.1108 602.73282,-1.1108 605.53172,0 1.1775,0.4673 -135.0671,0.8496 -302.76585,0.8496 -167.6987,0 -303.94335,-0.3823 -302.76587,-0.8496 z"
         id="path4747"
         inkscape:connector-curvature="0" />
      <path
         style="fill:#555555"
         d="m 802.64655,2392.7715 c 83.01563,-0.1775 218.85935,-0.1775 301.87505,0 83.0156,0.1774 15.0937,0.3225 -150.93755,0.3225 -166.03125,0 -233.95312,-0.1451 -150.9375,-0.3225 z M 641.70182,1957.4589 c 0,-234.0937 0.14387,-329.8594 0.31971,-212.8125 0.17584,117.0469 0.17584,308.5781 0,425.625 -0.17584,117.0469 -0.31971,21.2813 -0.31971,-212.8125 z m 623.74998,0 c 0,-234.0937 0.1439,-329.8594 0.3197,-212.8125 0.1759,117.0469 0.1759,308.5781 0,425.625 -0.1758,117.0469 -0.3197,21.2813 -0.3197,-212.8125 z m -585.7454,389.6442 c -2.42682,-1.6317 -4.88684,-4.7125 -5.7393,-7.1875 -2.16586,-6.2884 -2.16586,-758.625 0,-764.9134 0.85246,-2.475 3.31248,-5.5558 5.7393,-7.1875 l 4.24736,-2.8558 269.63029,0 269.63025,0 4.2474,2.8558 c 2.4268,1.6317 4.8868,4.7125 5.7393,7.1875 2.1659,6.2884 2.1659,758.625 0,764.9134 -0.8525,2.475 -3.3125,5.5558 -5.7393,7.1875 l -4.2474,2.8558 -269.63025,0 -269.63029,0 -4.24736,-2.8558 z m 547.2346,-4.8621 2.8931,-2.7179 0,-381.889 0,-381.8891 -2.7179,-2.893 -2.7179,-2.8931 -270.63907,0 -270.63905,0 -2.89307,2.7179 -2.89306,2.7179 0,381.889 0,381.8891 2.71789,2.893 2.7179,2.8931 270.63904,0 270.63902,0 2.8931,-2.7179 z m -405.48994,-32.1529 c -3.57938,-4.0219 -12.33512,-11.2791 -19.4572,-16.127 -15.19336,-10.3419 -21.47874,-16.8307 -23.4714,-24.2309 -3.02387,-11.2298 2.39348,-27.1429 11.23145,-32.9916 9.72553,-6.4361 20.78879,-5.3187 30.33607,3.0639 2.44701,2.1485 4.86862,3.9064 5.38135,3.9064 2.9725,0 -3.02894,-17.2131 -7.59257,-21.7767 -3.81377,-3.8138 -1.32495,-5.7233 7.45969,-5.7233 4.44556,0 9.57248,0.5664 11.39314,1.2586 l 3.31027,1.2585 -3.19808,3.8007 c -4.63984,5.5142 -9.19119,22.4322 -6.03479,22.4322 0.53622,0 2.90634,-2.0476 5.26691,-4.5503 5.27463,-5.5921 10.65874,-7.9497 18.15508,-7.9497 12.98377,0 22.77162,11.0344 24.06347,27.1282 1.17959,14.6952 -5.08837,23.6279 -24.79391,35.3348 -8.34613,4.9583 -23.66649,18.809 -23.66649,21.3961 0,2.3941 -2.09055,0.8406 -8.38299,-6.2299 z m 249.00804,-1.0366 c -4.1778,-4.5837 -12.4834,-11.5154 -18.75,-15.6485 -6.1875,-4.0808 -12.8678,-8.9158 -14.8452,-10.7444 -5.238,-4.844 -8.2205,-12.2006 -8.2524,-20.355 -0.085,-21.7345 17.0667,-35.4578 34.3476,-27.4821 2.75,1.2692 6.3636,3.7881 8.0303,5.5975 4.2633,4.6283 6.4718,4.32 5.5343,-0.7726 -1.0915,-5.9298 -5.1546,-14.8479 -8.2804,-18.1753 -2.3217,-2.4712 -2.4497,-3.0761 -0.8765,-4.1414 1.8894,-1.2795 20.6221,-0.8826 21.9702,0.4655 0.4122,0.4122 -0.6439,2.6146 -2.347,4.8941 -4.2743,5.721 -8.3283,20.1475 -6.0563,21.5517 0.5598,0.3459 2.6507,-1.09 4.6466,-3.191 11.2759,-11.8702 29.2115,-11.228 37.6874,1.3494 4.2994,6.3799 6.9956,16.9035 6.0687,23.6868 -1.389,10.1648 -6.186,15.9993 -21.4133,26.0449 -7.5427,4.9759 -17.2248,12.7102 -21.5157,17.1875 -4.291,4.4771 -7.9472,8.1001 -8.125,8.051 -0.1779,-0.049 -3.6983,-3.7923 -7.8233,-8.3181 z m 93.9583,-14.9259 c -0.4583,-0.4584 -0.8333,-3.7209 -0.8333,-7.25 0,-3.5292 -0.5627,-6.9793 -1.2503,-7.6669 -1.553,-1.553 1.1751,-7.9758 3.3938,-7.9901 0.8352,0 2.1206,1.1153 2.8565,2.4903 1.0873,2.0318 2.6172,2.5 8.1689,2.5 4.6388,0 6.8267,0.5015 6.8175,1.5625 -0.01,0.8594 -3.2782,5.0781 -7.2683,9.375 -6.7347,7.2525 -9.8072,9.0568 -11.8848,6.9792 z m 8.7736,-9.3846 c 3.8547,-3.6213 3.6467,-4.7821 -0.8569,-4.7821 -3.3334,0 -3.75,0.4167 -3.75,3.75 0,4.466 0.7684,4.6382 4.6069,1.0321 z m -8.3569,-39.2309 c -13.0181,-10.2066 -13.75,-11.1175 -13.75,-17.1108 0,-9.5633 6.7062,-14.0553 15.2391,-10.2076 4.2768,1.9286 5.5126,2.0153 8.925,0.6262 7.819,-3.1829 9.3057,-3.0814 13.2942,0.9071 2.7758,2.7757 3.7917,4.9622 3.7917,8.1605 0,6.4204 -0.9442,8.0027 -7.3379,12.298 -3.1829,2.1383 -7.4746,5.4243 -9.5371,7.3023 l -3.75,3.4145 -6.875,-5.3902 z m 4.5199,-30.2387 c -0.4243,-1.2031 -1.0993,-2.8906 -1.4999,-3.75 -0.4986,-1.0696 0.4873,-1.5625 3.1258,-1.5625 4.3733,0 4.3715,0 2.4035,4.3162 -1.6989,3.7286 -2.956,4.0394 -4.0294,0.9963 z M 731.08405,1704.3927 c 0,-1.4599 3.00374,-6.9338 3.80486,-6.9338 0.49696,0 1.25078,0.9844 1.67516,2.1875 0.42437,1.2031 1.09935,2.8906 1.49995,3.75 0.49862,1.0697 -0.48734,1.5625 -3.1258,1.5625 -2.11979,0 -3.85417,-0.2548 -3.85417,-0.5662 z m 88.4375,-5.2955 c -2.74136,-0.7163 -2.77939,-2.0913 -0.11887,-4.2977 3.67525,-3.048 8.96766,-19.6526 7.18385,-22.5388 -0.45513,-0.7364 -3.00168,0.8693 -5.96102,3.7587 -6.06665,5.9232 -10.15262,7.6895 -17.78798,7.6895 -10.48094,0 -16.98896,-4.5629 -21.7008,-15.2148 -8.40884,-19.0095 -2.50449,-31.6427 22.058,-47.196 5.62961,-3.5647 13.56401,-10.0394 17.63199,-14.3881 l 7.39633,-7.9067 8.02894,8.2903 c 4.41591,4.5597 13.89765,12.2355 21.07052,17.0573 8.32285,5.595 14.41562,10.7221 16.83908,14.1702 3.47862,4.9495 3.79746,6.26 3.79746,15.608 0,8.2114 -0.57899,11.3808 -2.96394,16.2248 -7.48411,15.2008 -26.65765,17.7675 -39.18018,5.245 -6.25994,-6.26 -7.18204,-1.4214 -2.01904,10.5944 1.32565,3.0852 3.56673,6.8405 4.98017,8.345 1.41345,1.5045 2.19653,3.3397 1.74018,4.0781 -0.80839,1.308 -16.45795,1.6664 -20.99469,0.4808 z m 249.94975,-0.5165 c -2.0712,-1.2053 -1.9641,-1.6139 1.4378,-5.4885 3.2607,-3.7137 6.425,-12.9824 6.425,-18.8198 0,-2.3904 -3.2807,-2.3396 -4.2034,0.065 -0.3965,1.0332 -3.3793,3.5644 -6.6285,5.625 -4.7532,3.0144 -7.2775,3.7465 -12.9181,3.7465 -14.0994,0 -23.7168,-10.5032 -24.7813,-27.0638 -0.9666,-15.0381 3.2469,-21.0889 24.347,-34.9632 8.5699,-5.6351 16.3582,-11.9079 19.9494,-16.0676 l 5.8911,-6.8236 7.4411,8.1206 c 4.2689,4.6588 12.6622,11.5633 19.6883,16.1961 21.5199,14.1895 26.9687,24.3907 21.9447,41.0842 -4.8378,16.0748 -19.785,23.6486 -33.8553,17.1548 -2.75,-1.2693 -6.3637,-3.7882 -8.0304,-5.5976 -1.6668,-1.8094 -3.4949,-3.2899 -4.0625,-3.2899 -3.5505,0 3.2227,19.5168 8.2041,23.6397 1.6816,1.3917 1.7894,1.982 0.5104,2.7933 -2.3241,1.4743 -18.7012,1.2356 -21.3594,-0.3112 z m -352.09564,-3.3879 c -2.77571,-2.7757 -3.79161,-4.9622 -3.79161,-8.1605 0,-6.5708 0.94061,-8.0189 8.5942,-13.2312 3.86694,-2.6335 8.06873,-5.9445 9.33732,-7.3576 l 2.30652,-2.5695 7.06848,5.4612 c 13.1032,10.1237 13.94348,11.1592 13.94348,17.1833 0,9.5633 -6.70626,14.0554 -15.2391,10.2076 -4.27686,-1.9286 -5.51261,-2.0153 -8.92505,-0.6262 -7.819,3.1829 -9.30573,3.0814 -13.29424,-0.9071 z m 21.20839,-53.9839 c -1.08739,-2.0318 -2.61728,-2.5 -8.16898,-2.5 -4.71378,0 -6.83102,-0.4955 -6.83102,-1.5986 0,-0.8792 3.60956,-5.1761 8.02124,-9.5486 9.73992,-9.6533 11.97876,-9.6098 11.97876,0.233 0,3.6653 0.56261,7.2268 1.25026,7.9145 1.55298,1.5529 -1.17511,7.9757 -3.39378,7.9899 -0.83519,0.01 -2.1206,-1.1152 -2.85648,-2.4902 z m -0.2333,-9.6875 c 0.46707,-4.8442 -0.82863,-5.1294 -4.67977,-1.03 -3.21277,3.4198 -2.4468,6.0522 1.59352,5.4765 2.02603,-0.2887 2.79173,-1.3919 3.08625,-4.4465 z m 64.2958,-110 c 83.01563,-0.1774 218.85935,-0.1774 301.87505,0 83.0156,0.1775 15.0937,0.3226 -150.93755,0.3226 -166.03125,0 -233.95312,-0.1451 -150.9375,-0.3226 z"
         id="path4745"
         inkscape:connector-curvature="0" />
      <path
         style="fill:#2e2e2e"
         d="m 803.27155,2392.7715 c 82.67188,-0.1775 217.95315,-0.1775 300.62505,0 82.6718,0.1774 15.0312,0.3226 -150.31255,0.3226 -165.34375,0 -232.98437,-0.1452 -150.3125,-0.3226 z M 641.7018,1957.4589 c 0,-233.4062 0.14388,-328.8906 0.31973,-212.1875 0.17585,116.7031 0.17585,307.6719 0,424.375 -0.17585,116.7031 -0.31973,21.2188 -0.31973,-212.1875 z m 623.75,0 c 0,-233.4062 0.1439,-328.8906 0.3197,-212.1875 0.1759,116.7031 0.1759,307.6719 0,424.375 -0.1758,116.7031 -0.3197,21.2188 -0.3197,-212.1875 z m -583.90936,390.1024 c -2.15413,-1.3135 -4.82601,-3.6866 -5.9375,-5.2734 -1.85049,-2.642 -2.02089,-35.1004 -2.02089,-384.9386 l 0,-382.0533 2.61037,-3.3185 c 5.93514,-7.5453 -14.88122,-7.0186 277.38963,-7.0186 292.27085,0 271.45455,-0.5267 277.38965,7.0186 l 2.6104,3.3185 0,382.1629 0,382.1629 -2.6104,3.3185 c -5.9353,7.5456 14.9066,7.019 -277.64008,7.0139 -261.49143,0 -267.9679,-0.062 -271.79118,-2.3929 z m 546.06946,-4.8246 2.8472,-2.8472 0,-382.4306 0,-382.4306 -2.8473,-2.8472 -2.8472,-2.8472 -271.18055,0 -271.18055,0 -2.84723,2.8472 -2.84722,2.8472 -0.29742,380.9028 c -0.23733,303.9515 0.0202,381.5292 1.27464,384.0032 0.86463,1.7052 2.96721,3.8084 4.67242,4.6737 2.46873,1.2529 58.03647,1.5126 272.7532,1.2747 l 269.65281,-0.2988 2.8472,-2.8472 z m -407.30609,-34.5729 c -4.20928,-4.381 -13.34477,-11.7064 -20.30107,-16.2786 -13.94958,-9.1688 -18.2351,-13.8372 -20.9365,-22.8074 -3.97064,-13.1849 5.25898,-32.3305 16.79965,-34.8487 1.83764,-0.4009 4.0223,-0.9372 4.85478,-1.1916 3.75428,-1.1474 14.49819,3.0417 18.95001,7.3888 2.55297,2.4929 5.38378,4.5326 6.29068,4.5326 3.52,0 -2.25565,-17.6711 -7.65363,-23.417 -1.45872,-1.5527 -2.23032,-3.245 -1.71467,-3.7607 1.21287,-1.2128 16.9249,-1.2297 19.87385,-0.021 2.0985,0.8599 2.03434,1.2217 -0.89853,5.0669 -3.41841,4.4817 -7.79334,20.575 -6.06354,22.3048 0.58369,0.5837 3.71631,-1.4468 6.9614,-4.5122 17.99263,-16.9964 41.38445,-4.6209 41.46566,21.9375 0.0389,12.7116 -3.87762,18.0764 -21.9481,30.0644 -7.91192,5.2487 -17.26365,12.6963 -20.79709,16.5625 -3.5313,3.8638 -6.60258,7.0071 -6.8251,6.9853 -0.22251,-0.022 -3.84852,-3.6243 -8.0578,-8.0053 z m 251.04329,0.5608 c -3.7821,-4.2491 -11.8038,-10.8409 -18.75,-15.4077 -20.7561,-13.6461 -25.6074,-21.4554 -23.004,-37.0301 2.4045,-14.3856 11.301,-22.8664 23.9873,-22.8664 6.7862,0 16.4032,4.6504 18.7726,9.0777 1.847,3.4512 4.9791,3.1322 4.9791,-0.507 0,-4.2498 -3.3261,-13.1176 -7.0173,-18.7094 -1.7435,-2.6412 -2.7998,-5.1724 -2.3472,-5.625 1.4581,-1.4581 17.9154,-0.8968 19.4765,0.6643 1.1495,1.1494 0.7632,2.3473 -1.7011,5.276 -4.0019,4.756 -8.0316,22.6119 -5.1031,22.6119 0.4444,0 3.4671,-2.4874 6.7173,-5.5276 3.2502,-3.0401 8.1761,-6.2067 10.9466,-7.0367 15.6226,-4.6807 30.4866,9.6348 30.4866,29.3616 0,11.8266 -6.6399,20.2632 -24.3125,30.8912 -4.9615,2.9837 -12.8371,9.2245 -17.5014,13.8682 -4.6644,4.6438 -8.6019,8.4302 -8.75,8.4142 -0.1482,-0.016 -3.2439,-3.3708 -6.8794,-7.4552 z m 93.485,-21.0157 c 0,-3.3 -0.6437,-6.6437 -1.4305,-7.4305 -1.0739,-1.0739 -1.0361,-2.3824 0.1517,-5.25 1.8326,-4.4244 3.2806,-4.8583 4.4038,-1.3195 0.6651,2.0958 1.8912,2.5 7.5842,2.5 8.945,0 8.9845,2.2939 0.1889,10.9802 -8.5442,8.4381 -10.8981,8.5504 -10.8981,0.5198 z m 8.6902,-2.0614 c 3.1818,-3.3869 2.7206,-6.9386 -0.901,-6.9386 -3.0542,0 -5.2892,2.3946 -5.2892,5.6667 0,5.1226 2.1564,5.5657 6.1902,1.2719 z m -8.0652,-40.1209 c -15.618,-13.6333 -14.7745,-12.5433 -14.0258,-18.1259 0.3789,-2.8247 1.6675,-6.2172 2.8636,-7.5388 2.6026,-2.8758 9.0468,-3.1689 12.4857,-0.5677 3.1539,2.3854 7.3398,2.4033 9.3015,0.04 1.7851,-2.1509 7.7971,-2.4729 11.2881,-0.6046 3.3023,1.7674 5.51,9.6754 3.8857,13.9193 -0.6977,1.823 -3.4129,4.8741 -6.0337,6.7802 -2.6208,1.9061 -6.8415,5.0551 -9.3793,6.9978 -2.5379,1.9428 -4.7879,3.5171 -5,3.4985 -0.2122,-0.019 -2.6358,-1.9979 -5.3858,-4.3985 z m 4.618,-30.8247 c -2.2941,-2.294 -1.7741,-4.743 1.007,-4.743 2.5813,0 3.1995,1.9632 1.4738,4.6805 -0.7657,1.2059 -1.3234,1.2199 -2.4808,0.062 z M 732.33405,1703.8111 c 0,-0.6312 0.34694,-2.0518 0.77098,-3.1569 0.59674,-1.555 1.16173,-1.6848 2.5,-0.5741 2.54209,2.1097 2.1045,4.8788 -0.77098,4.8788 -1.375,0 -2.5,-0.5165 -2.5,-1.1478 z m 89.6875,-4.6836 c -4.13,-0.7024 -4.15723,-0.8969 -0.78792,-5.6287 5.00731,-7.0321 8.06058,-22.2899 4.46049,-22.2899 -0.90196,0 -2.83916,1.6221 -4.30488,3.6046 -5.3126,7.1856 -17.69204,10.7658 -26.16131,7.5659 -11.49135,-4.3417 -19.44069,-21.8316 -16.02929,-35.2671 2.21884,-8.7387 7.01134,-13.8636 22.46947,-24.028 8.3833,-5.5125 16.72508,-12.1905 20.4552,-16.3757 l 6.29883,-7.0671 7.24304,7.8234 c 3.98367,4.3028 12.90517,11.6222 19.82557,16.2653 14.55583,9.7659 19.91879,15.3316 21.91449,22.7431 1.7662,6.5591 0.63805,16.1131 -2.73286,23.1439 -7.28574,15.1961 -24.61293,18.082 -37.97042,6.3243 -3.14959,-2.7723 -6.0511,-4.7161 -6.4478,-4.3194 -1.691,1.691 1.2673,12.3353 5.28054,18.9999 2.38816,3.966 4.05059,7.5023 3.69429,7.8586 -0.90026,0.9003 -13.03509,1.3564 -17.20744,0.6469 z m 251.56255,0.084 c -1.0313,-0.3856 -2.6624,-0.9525 -3.6248,-1.2597 -1.3655,-0.4359 -1.1778,-1.1691 0.8542,-3.3385 1.4322,-1.5289 3.2444,-4.4674 4.0271,-6.5299 2.0805,-5.4823 3.8486,-15.6935 2.965,-17.1233 -0.42,-0.6795 -3.0885,1.0405 -5.9301,3.8222 -9.3,9.1044 -18.488,11.0877 -28.3224,6.1136 -7.5287,-3.8079 -12.2767,-10.9566 -13.958,-21.0154 -2.5948,-15.5233 2.2996,-23.4626 22.739,-36.8854 11.9405,-7.8415 16.5841,-11.7413 22.855,-19.1938 l 3.3962,-4.0362 8.4369,8.5754 c 4.6402,4.7164 14.1145,12.3372 21.0539,16.935 13.393,8.8737 18.1187,14.1999 20.4364,23.0335 2.4162,9.2087 -1.7304,22.3325 -9.1008,28.8039 -10.0937,8.8623 -23.026,8.0525 -32.624,-2.0429 -5.1759,-5.444 -7.4685,-5.1467 -6.369,0.8259 1.1646,6.3262 5.1994,15.2804 8.4397,18.7295 1.4587,1.5528 2.3194,3.156 1.9127,3.5627 -1.0429,1.0428 -14.9245,1.8694 -17.187,1.0234 z m -356.12278,-4.1258 c -3.07286,-3.0729 -4.30432,-8.8413 -2.75653,-12.9123 0.67319,-1.7706 3.36829,-4.7788 5.98912,-6.6849 2.62083,-1.906 6.88213,-5.0877 9.46956,-7.0703 l 4.70441,-3.6048 5.7801,4.76 c 13.53957,11.1501 14.56818,12.4904 13.82691,18.017 -0.37344,2.7841 -1.65758,6.1434 -2.85364,7.4651 -2.6026,2.8758 -9.0468,3.1688 -12.48579,0.5677 -3.15386,-2.3855 -7.3398,-2.4034 -9.30141,-0.04 -2.20589,2.6579 -9.51093,2.3641 -12.37273,-0.4977 z m 21.74773,-53.8773 c -0.66378,-2.0914 -1.89129,-2.5 -7.51046,-2.5 -3.69435,0 -7.06725,-0.5667 -7.49534,-1.2594 -1.09184,-1.7666 13.00822,-16.2406 15.82108,-16.2406 1.90904,0 2.30972,0.9901 2.30972,5.7072 0,3.1389 0.56509,6.763 1.25575,8.0535 0.86554,1.6173 0.80319,3.3397 -0.20064,5.5429 -1.75054,3.842 -3.10986,4.0684 -4.18011,0.6964 z m 0.0939,-8.054 c 1.55544,-6.1973 -2.70817,-7.7037 -6.8611,-2.4241 -3.10645,3.9492 -2.42485,5.4781 2.4422,5.4781 2.83076,0 3.82484,-0.687 4.4189,-3.054 z m 63.96864,-111.6335 c 82.67188,-0.1774 217.95311,-0.1774 300.62501,0 82.6718,0.1775 15.0312,0.3227 -150.31251,0.3227 -165.34375,0 -232.98437,-0.1452 -150.3125,-0.3227 z"
         id="path4743"
         inkscape:connector-curvature="0" />
      <path
         style="fill:#070707"
         d="m 803.89655,2392.7715 c 82.32813,-0.1775 217.04685,-0.1775 299.37505,0 82.3281,0.1774 14.9687,0.3226 -149.68755,0.3226 -164.65625,0 -232.01562,-0.1452 -149.6875,-0.3226 z M 641.70178,1957.4589 c 0,-232.7187 0.14388,-327.9219 0.31975,-211.5625 0.17586,116.3594 0.17586,306.7656 0,423.125 -0.17587,116.3594 -0.31975,21.1563 -0.31975,-211.5625 z m 623.75002,0 c 0,-232.7187 0.1439,-327.9219 0.3197,-211.5625 0.1759,116.3594 0.1759,306.7656 0,423.125 -0.1758,116.3594 -0.3197,21.1563 -0.3197,-211.5625 z m -581.86775,390 c -1.21365,-0.7843 94.02009,-1.2117 270,-1.2117 175.97995,0 271.21365,0.4274 270.00005,1.2117 -1.1957,0.7727 -99.0201,1.2117 -270.00005,1.2117 -170.97991,0 -268.80434,-0.439 -270,-1.2117 z m -5.74377,-4.0625 -2.38123,-2.8125 2.8125,2.3812 c 2.64306,2.2378 3.38155,3.2438 2.38123,3.2438 -0.23719,0 -1.50282,-1.2656 -2.8125,-2.8125 z m 550.11882,0.3125 c 1.2443,-1.375 2.5437,-2.5 2.8874,-2.5 0.3438,0 -0.3931,1.125 -1.6374,2.5 -1.2444,1.375 -2.5438,2.5 -2.8875,2.5 -0.3438,0 0.3931,-1.125 1.6375,-2.5 z m -552.50807,-386.25 c 0,-210.7187 0.14422,-296.9219 0.32049,-191.5625 0.17627,105.3594 0.17627,277.7656 0,383.125 -0.17627,105.3594 -0.32049,19.1563 -0.32049,-191.5625 z m 556.24997,0 c 0,-210.7187 0.1443,-296.9219 0.3205,-191.5625 0.1763,105.3594 0.1763,277.7656 0,383.125 -0.1763,105.3594 -0.3205,19.1563 -0.3205,-191.5625 z m -411.24825,349.6149 c -4.12847,-4.2569 -13.33741,-11.625 -20.46431,-16.3734 -18.4016,-12.2603 -23.17313,-20.5753 -20.15359,-35.1203 1.64988,-7.9474 5.35966,-13.876 11.10614,-17.7485 9.31146,-6.275 19.29176,-4.8576 28.8679,4.0997 7.45316,6.9716 10.95384,7.1987 15.66918,1.0165 4.04259,-5.3001 11.80722,-9.1728 18.46828,-9.2114 19.51574,-0.1132 30.55134,27.9534 17.85979,45.4222 -1.4284,1.966 -8.78459,7.6581 -16.34709,12.649 -7.5625,4.991 -16.73497,12.2417 -20.38326,16.1129 -3.6483,3.8711 -6.74205,7.0057 -6.875,6.9658 -0.13296,-0.04 -3.61958,-3.5555 -7.74804,-7.8125 z m 251.55295,1.0515 c -3.2743,-3.6825 -11.7693,-10.6544 -18.8778,-15.4931 -19.9929,-13.609 -24.2317,-19.9098 -22.9444,-34.106 2.1007,-23.1669 23.8982,-32.0982 40.3685,-16.5405 3.1869,3.0102 6.9466,5.4732 8.3549,5.4732 1.4083,0 5.4925,-2.7728 9.0758,-6.1618 6.9792,-6.6007 12.2209,-8.4639 20.1784,-7.1725 9.0758,1.4728 15.5184,8.6256 18.5987,20.6493 2.1527,8.4028 1.7059,12.995 -1.9638,20.185 -3.0033,5.8843 -7.0261,9.3829 -22.1057,19.2253 -7.0265,4.5862 -15.1774,11.1311 -18.125,14.5538 -2.9459,3.4208 -5.6375,6.1888 -5.9812,6.1512 -0.3438,-0.038 -3.304,-3.0815 -6.5784,-6.7639 z m 93.5082,-15.9789 c -1.798,-5.7144 -1.5113,-19.7013 0.4034,-19.6778 1.5515,0.019 3.6967,6.1053 2.3143,6.5661 -2.104,0.7013 -1.5452,8.6091 0.7256,10.2696 1.5527,1.1354 1.692,1.8394 0.5834,2.9481 -1.8902,1.8902 -3.4112,1.8501 -4.0267,-0.106 z m 11.8202,-12.8125 c -1.3152,-1.5846 -1.0546,-1.875 1.6827,-1.875 2.3654,0 3.0448,0.5056 2.5193,1.875 -0.3957,1.0313 -1.153,1.875 -1.6827,1.875 -0.5298,0 -1.6635,-0.8437 -2.5193,-1.875 z m -11.3686,-34.7237 c -2.4714,-2.2144 -6.5496,-5.5971 -9.0625,-7.5171 -3.7335,-2.8525 -4.5689,-4.2961 -4.5689,-7.8947 0,-9.424 6.0162,-13.5994 13.3556,-9.2691 5.4081,3.1909 7.1274,3.1715 11.5944,-0.1311 4.6157,-3.4126 9.3191,-2.3785 11.9022,2.6167 2.8525,5.5161 2.3594,9.7909 -1.566,13.5777 -2.9103,2.8075 -14.4731,11.4555 -16.5362,12.3676 -0.3438,0.152 -2.6471,-1.5355 -5.1186,-3.75 z M 825.6531,2233.178 c -1.19715,-3.7979 -3.5582,-8.547 -5.24677,-10.5538 -2.61804,-3.1113 -2.77913,-3.7603 -1.09398,-4.407 2.53885,-0.9742 11.55721,-0.949 15.25918,0.043 2.73605,0.7329 2.76678,0.8725 0.69598,3.1607 -1.19156,1.3166 -3.35252,6.0543 -4.80212,10.5282 l -2.63565,8.1343 -2.17664,-6.9051 z m 250.5934,-10e-4 c -0.8984,-3.0425 -2.9913,-7.3724 -4.651,-9.622 -1.8556,-2.5151 -2.5708,-4.5367 -1.8575,-5.25 1.1893,-1.1893 15.7231,-0.6358 17.0065,0.6477 0.3922,0.3922 -0.7287,2.8377 -2.4908,5.4344 -1.7622,2.5967 -3.5494,6.8814 -3.9716,9.5215 -0.4221,2.6402 -1.1354,4.8003 -1.5849,4.8003 -0.4496,0 -1.5524,-2.4894 -2.4507,-5.5319 z m 93.5876,-20.7181 c 0,-0.6875 0.5625,-1.25 1.25,-1.25 0.6875,0 1.25,0.5625 1.25,1.25 0,0.6875 -0.5625,1.25 -1.25,1.25 -0.6875,0 -1.25,-0.5625 -1.25,-1.25 z m -436.25005,-510 c 0,-0.6875 0.5625,-1.25 1.25,-1.25 0.6875,0 1.25,0.5625 1.25,1.25 0,0.6875 -0.5625,1.25 -1.25,1.25 -0.6875,0 -1.25,-0.5625 -1.25,-1.25 z m 87.80365,-4.5808 c -1.15564,-0.4658 -0.89461,-1.5838 0.98669,-4.2258 1.40691,-1.9759 3.23151,-6.4277 4.05466,-9.8929 0.82314,-3.4653 1.86341,-6.3005 2.3117,-6.3005 0.44829,0 1.16578,1.8694 1.59443,4.1543 0.42863,2.2849 2.45999,6.8044 4.51411,10.0434 2.05412,3.239 3.73476,6.1508 3.73476,6.4707 0,0.7769 -15.19716,0.5567 -17.19635,-0.2492 z m 250.0019,6e-4 c -1.1466,-0.4623 -0.8879,-1.4992 0.9598,-3.8483 1.3912,-1.7685 3.4452,-6.3612 4.5646,-10.206 1.8995,-6.5239 2.116,-6.7819 3.2438,-3.8655 3.693,9.5497 5.2469,12.629 7.3199,14.505 1.2636,1.1435 1.9962,2.5664 1.6281,3.1621 -0.7031,1.1376 -15.0153,1.3418 -17.7162,0.2527 z m -352.77375,-2.888 c -5.65499,-5.655 -4.75223,-13.2919 2.16541,-18.3183 2.57278,-1.8694 6.80998,-5.0333 9.41599,-7.0309 l 4.7382,-3.6319 4.76588,4.1622 c 2.62124,2.2891 6.81717,5.733 9.3243,7.6529 3.72143,2.8498 4.55842,4.2994 4.55842,7.8947 0,9.424 -6.01626,13.5994 -13.3556,9.2691 -5.36603,-3.1661 -7.30948,-3.1711 -11.30331,-0.03 -4.01866,3.161 -7.17029,3.1708 -10.30929,0.032 z m 74.28993,-14.8604 c -12.6431,-7.7101 -17.5838,-26.6275 -10.23113,-39.1739 3.735,-6.3733 8.74001,-10.657 20.9094,-17.896 4.46875,-2.6583 11.9299,-8.6122 16.58033,-13.2309 l 8.45532,-8.3976 7.16968,7.5169 c 3.94332,4.1343 11.94791,10.6935 17.78798,14.576 5.84008,3.8825 12.53775,8.7418 14.88373,10.7984 13.74576,12.0502 11.05009,37.296 -4.83949,45.3232 -9.54749,4.8232 -19.18441,2.9676 -26.8614,-5.1724 -2.18797,-2.3199 -5.72351,-4.6014 -7.85677,-5.0699 -3.37653,-0.7417 -4.25509,-0.3405 -6.78652,3.0986 -6.75715,9.1801 -20.69657,12.8199 -29.21113,7.6276 z m 250.95662,0.2525 c -11.1723,-5.5067 -17.2914,-23.9308 -12.09,-36.4015 2.8169,-6.7537 8.3678,-12.0174 22.1753,-21.028 6.7312,-4.3927 15.14,-11.069 18.686,-14.8362 l 6.4475,-6.8495 5.9321,6.6557 c 3.2626,3.6606 12.5726,11.2242 20.6889,16.808 15.0756,10.3717 19.5213,15.1312 21.7823,23.3199 2.2554,8.1681 -1.1323,20.6924 -7.4043,27.3742 -9.0306,9.6207 -23.3994,8.973 -33.2343,-1.4981 -1.9873,-2.1158 -5.2624,-4.2091 -7.2781,-4.6519 -3.1799,-0.6984 -4.2263,-0.149 -7.908,4.1523 -2.3338,2.7264 -6.1749,5.8738 -8.5359,6.9942 -5.445,2.5838 -13.9751,2.5665 -19.2615,-0.039 z m -304.42562,-40.5581 c -0.37886,-1.4487 -0.1533,-4.0427 0.50125,-5.7643 0.8644,-2.2735 0.66606,-4.1806 -0.72474,-6.9686 -1.50998,-3.0268 -1.58292,-4.0435 -0.34499,-4.8086 0.86342,-0.5336 1.94717,-0.5717 2.40834,-0.085 0.7647,0.8076 1.56592,12.8079 1.20667,18.073 -0.20721,3.0368 -2.21247,2.7428 -3.04653,-0.4467 z m -14.29023,-3.9283 c 0.28646,-0.8594 1.27083,-1.5625 2.1875,-1.5625 0.91667,0 1.90104,0.7031 2.1875,1.5625 0.30983,0.9295 -0.57639,1.5625 -2.1875,1.5625 -1.61111,0 -2.49733,-0.633 -2.1875,-1.5625 z m -47.1875,-64.6875 c 1.24436,-1.375 2.54372,-2.5 2.88747,-2.5 0.34375,0 -0.39311,1.125 -1.63747,2.5 -1.24436,1.375 -2.54372,2.5 -2.88747,2.5 -0.34375,0 0.39311,-1.125 1.63747,-2.5 z m 549.88125,-0.3125 -2.3812,-2.8125 2.8125,2.3812 c 1.5468,1.3097 2.8125,2.5753 2.8125,2.8125 0,1.0004 -1.006,0.2619 -3.2438,-2.3812 z m -544.25625,-3.4375 c 2.56667,-1.6587 537.43335,-1.6587 540.00005,0 1.2136,0.7843 -94.0201,1.2117 -270.00005,1.2117 -175.97991,0 -271.21365,-0.4274 -270,-1.2117 z m 120.3125,-45.9375 c 82.32813,-0.1774 217.04685,-0.1774 299.37505,0 82.3281,0.1775 14.9687,0.3227 -149.68755,0.3227 -164.65625,0 -232.01562,-0.1452 -149.6875,-0.3227 z"
         id="path4741"
         inkscape:connector-curvature="0" />
    </g>
  </g>
</svg>
