<?xml version="1.0" encoding="UTF-8" standalone="no"?>
<!-- Created with Inkscape (http://www.inkscape.org/) -->

<svg
   xmlns:dc="http://purl.org/dc/elements/1.1/"
   xmlns:cc="http://creativecommons.org/ns#"
   xmlns:rdf="http://www.w3.org/1999/02/22-rdf-syntax-ns#"
   xmlns:svg="http://www.w3.org/2000/svg"
   xmlns="http://www.w3.org/2000/svg"
   xmlns:sodipodi="http://sodipodi.sourceforge.net/DTD/sodipodi-0.dtd"
   xmlns:inkscape="http://www.inkscape.org/namespaces/inkscape"
   width="176.45314mm"
   height="246.30455mm"
   viewBox="0 0 625.22767 872.73266"
   id="svg2"
   version="1.1"
   inkscape:version="0.91 r13725"
   sodipodi:docname="5.svg">
  <defs
     id="defs4">
    <pattern
       y="0"
       x="0"
       height="6"
       width="6"
       patternUnits="userSpaceOnUse"
       id="EMFhbasepattern" />
    <pattern
       y="0"
       x="0"
       height="6"
       width="6"
       patternUnits="userSpaceOnUse"
       id="EMFhbasepattern-7" />
  </defs>
  <sodipodi:namedview
     id="base"
     pagecolor="#ffffff"
     bordercolor="#666666"
     borderopacity="1.0"
     inkscape:pageopacity="0.0"
     inkscape:pageshadow="2"
     inkscape:zoom="0.35"
     inkscape:cx="380.21169"
     inkscape:cy="210.93726"
     inkscape:document-units="px"
     inkscape:current-layer="layer1"
     showgrid="false"
     fit-margin-top="0"
     fit-margin-left="0"
     fit-margin-right="0"
     fit-margin-bottom="0"
     inkscape:window-width="784"
     inkscape:window-height="822"
     inkscape:window-x="800"
     inkscape:window-y="0"
     inkscape:window-maximized="0" />
  <metadata
     id="metadata7">
    <rdf:RDF>
      <cc:Work
         rdf:about="">
        <dc:format>image/svg+xml</dc:format>
        <dc:type
           rdf:resource="http://purl.org/dc/dcmitype/StillImage" />
        <dc:title></dc:title>
      </cc:Work>
    </rdf:RDF>
  </metadata>
  <g
     inkscape:label="Calque 1"
     inkscape:groupmode="layer"
     id="layer1"
     transform="translate(346.64026,129.43305)">
    <g
       transform="translate(-98.676112,-1634.3685)"
       id="g4721">
      <path
         style="fill:#fdfdfd"
         d="m -247.85022,1941.2965 0,-436.25 312.5,0 312.5,0 0,436.25 0,436.25 -312.5,0 -312.5,0 0,-436.25 z"
         id="path4737"
         inkscape:connector-curvature="0" />
      <path
         style="fill:#e6e6e6"
         d="m -241.72499,2375.9882 c -1.89593,-0.7539 -3.84873,-2.9486 -4.6875,-5.2682 -2.06679,-5.7156 -2.07005,-853.1223 -0.003,-858.8378 0.96852,-2.6784 2.72286,-4.4328 5.40125,-5.4013 5.69847,-2.0606 605.63019,-2.0606 611.32866,0 2.67838,0.9685 4.43273,2.7229 5.40125,5.4013 2.06378,5.7073 2.06378,853.1213 0,858.8286 -0.96852,2.6784 -2.72287,4.4328 -5.40125,5.4013 -5.34155,1.9315 -607.17667,1.8097 -612.0391,-0.1239 z m 611.47092,-5.8456 3.65385,-3.6538 0,-425.1923 0,-425.1923 -3.65385,-3.6539 -3.65384,-3.6538 -301.44231,0 -301.44231,0 -3.65384,3.6538 -3.65385,3.6539 0,425.1923 0,425.1923 3.65385,3.6538 3.65384,3.6539 301.44231,0 301.44231,0 3.65384,-3.6539 z m -576.96836,-34.5606 c -2.06097,-1.0772 -4.79043,-2.9027 -6.06548,-4.0566 -6.1617,-5.5763 -5.81231,17.881 -5.81231,-390.2289 0,-336.4355 0.22078,-381.8011 1.87369,-384.9975 1.03052,-1.9928 3.93986,-5.1992 6.46519,-7.1254 l 4.59152,-3.5021 270.8196,0 270.8196,0 4.59151,3.5021 c 2.52534,1.9262 5.43468,5.1326 6.4652,7.1254 1.6529,3.1964 1.87369,48.562 1.87369,384.9975 0,336.4355 -0.22079,381.8011 -1.87369,384.9975 -1.03052,1.9928 -3.93982,5.1992 -6.46512,7.1254 l -4.59143,3.5021 -269.472385,0.3095 c -242.601635,0.2787 -269.846035,0.1142 -273.219585,-1.649 z m 543.12221,-11.7855 c 2.48904,-2.489 2.5,-4.1667 2.5,-382.5 0,-378.3333 -0.0113,-380.011 -2.5,-382.5 -2.4845,-2.4845 -4.16666,-2.5 -271.25,-2.5 -267.08333,0 -268.7655,0.015 -271.25,2.5 -2.48903,2.489 -2.5,4.1667 -2.5,382.5 0,378.3333 0.011,380.011 2.5,382.5 2.4845,2.4845 4.16667,2.5 271.25,2.5 267.08334,0 268.7655,-0.015 271.25,-2.5 z m -402.92045,-24.8923 c -5.582225,-7.3199 -11.449175,-12.2194 -26.236388,-21.9101 -11.981202,-7.8519 -17.062542,-13.6969 -20.250042,-23.2936 -4.26777,-12.849 3.44394,-31.1734 15.764317,-37.4588 8.331238,-4.2503 22.252913,-2.6028 28.909313,3.4212 1.228288,1.1116 2.23325,1.6346 2.23325,1.1622 0,-2.4342 -4.187888,-10.3223 -7.456963,-14.0456 -6.164112,-7.0205 -2.664925,-9.9172 11.831963,-9.7946 9.707837,0.082 16.875,2.4667 16.875,5.6146 0,1.2975 -1.172825,2.9867 -2.606263,3.7539 -2.468587,1.3211 -7.307187,10.0764 -7.366287,13.329 -0.01537,0.8497 2.781412,-0.2352 6.391175,-2.4792 16.4435,-10.2218 35.03995,-1.161 40.4697125,19.7183 2.5380625,9.7597 1.485375,17.396 -3.5646375,25.8584 -3.281387,5.4986 -6.328513,8.2094 -17.706087,15.752 -14.148251,9.3793 -23.008438,17.0655 -26.601876,23.0771 -2.930974,4.9034 -5.351312,4.2908 -10.686187,-2.7048 z m 252.44824,2.6878 c -2.68247,-5.1873 -14.20292,-15.5598 -24.63499,-22.1802 -18.64913,-11.8351 -24.21925,-19.648 -24.18766,-33.9264 0.0164,-7.4239 0.64851,-10.1654 3.7355,-16.2015 5.17665,-10.1222 11.71852,-14.579 22.39783,-15.2589 6.91564,-0.4404 8.8571,-0.053 13.91438,2.7731 3.23253,1.8067 6.13743,3.0248 6.45533,2.7069 1.08323,-1.0832 -4.94313,-11.9963 -7.32994,-13.2737 -2.71273,-1.4518 -3.13723,-5.2488 -0.80336,-7.1857 2.71998,-2.2574 16.06493,-2.9839 22.80012,-1.2412 4.81603,1.2461 6.33801,2.2347 6.63362,4.3089 0.223,1.5647 -0.61498,3.3966 -2.00136,4.375 -2.9747,2.0994 -6.50726,8.8077 -6.50726,12.3572 0,2.6261 0.0659,2.6178 3.73551,-0.47 2.05454,-1.7288 6.7561,-3.8192 10.44791,-4.6454 5.73307,-1.283 7.64642,-1.1919 13.11432,0.6242 8.28541,2.752 15.25397,10.4706 18.35547,20.331 2.9938,9.5181 2.83099,15.8441 -0.61224,23.7883 -3.37288,7.7818 -8.70836,12.8535 -23.46255,22.3025 -11.98215,7.6737 -19.11483,13.938 -23.00908,20.2079 -3.09864,4.9889 -6.6525,5.2279 -9.04155,0.608 z m 87.55555,-21.1288 c -1.50685,-1.5069 -0.86969,-6.7312 0.90395,-7.4118 1.32776,-0.5095 1.03308,-1.3709 -1.25,-3.654 -4.09262,-4.0926 -4.056,-10.8958 0.0809,-15.0327 2.65996,-2.66 4.20665,-3.0682 11.625,-3.0682 8.79861,0 11.55681,1.2354 11.55681,5.1762 0,3.0339 -2.0659,4.0544 -10,4.9394 l -6.875,0.7668 6.47322,0.1838 c 8.11498,0.2304 10.40181,2.3291 10.40181,9.5459 0,9.1895 -0.24935,9.3879 -11.8004,9.3879 -5.65561,0 -10.65794,-0.375 -11.11626,-0.8333 z m 2.7832,-47.0082 c -3.16715,-2.9059 -8.06584,-7.1239 -10.88598,-9.3733 -5.90326,-4.7086 -7.56386,-10.0902 -5.2639,-17.0592 1.8678,-5.6595 6.71605,-9.476 12.03768,-9.476 3.20621,0 3.99987,-0.4361 3.44158,-1.8909 -1.11808,-2.9137 1.9301,-5.6091 6.34323,-5.6091 5.02556,0 8.88685,2.6854 7.82817,5.4442 -0.6513,1.6973 0.0861,2.0558 4.22873,2.0558 6.08695,0 10.27606,3.6548 12.43024,10.8448 2.09335,6.987 -0.61764,12.8961 -8.34544,18.1905 -3.2832,2.2493 -7.9033,5.9178 -10.2669,8.1522 -2.3636,2.2344 -4.63304,4.0495 -5.0432,4.0335 -0.41016,-0.016 -3.33705,-2.4065 -6.50421,-5.3125 z M 56.776768,1995.529 c -7.662126,-2.3549 -8.508763,-4.5956 -3.563363,-9.4306 3.536163,-3.4573 7.209175,-11.9458 5.785163,-13.3698 -0.3209,-0.3209 -1.571288,0.2828 -2.778625,1.3415 -6.714125,5.8876 -18.698125,7.7796 -26.922813,4.2505 -12.735237,-5.4646 -20.953775,-25.1465 -16.646,-39.8641 2.6794,-9.1542 8.062463,-15.0204 22.138975,-24.1258 13.936137,-9.0146 21.1688,-15.1872 24.934325,-21.28 1.446087,-2.3398 3.490525,-4.2542 4.543187,-4.2542 1.052663,0 5.523013,3.8982 9.934125,8.6626 4.615475,4.9851 13.309451,12.1949 20.479613,16.9835 14.667495,9.7956 20.122875,15.7089 23.035535,24.969 1.82995,5.8179 1.91707,7.7568 0.61074,13.594 -3.62665,16.2056 -12.58953,25.5022 -25.672112,26.6281 -6.419138,0.5524 -8.317163,0.1573 -14.568238,-3.0327 -3.953125,-2.0173 -7.1875,-3.4555 -7.1875,-3.196 0,2.112 4.180313,9.5446 7.485237,13.3087 4.718213,5.3738 3.936575,7.4727 -3.558037,9.5544 -6.050888,1.6807 -10.810738,1.4858 -18.050213,-0.7391 z M -159.68941,1690.8523 c -1.41858,-1.0373 -2.01112,-2.4914 -1.52814,-3.75 0.6513,-1.6973 -0.0861,-2.0558 -4.22872,-2.0558 -6.08695,0 -10.27606,-3.6548 -12.43024,-10.8448 -2.09335,-6.987 0.61764,-12.8961 8.34544,-18.1905 3.2832,-2.2493 7.90331,-5.9178 10.2669,-8.1522 2.3636,-2.2344 4.5747,-4.0625 4.91357,-4.0625 0.33886,0 3.27012,2.3906 6.5139,5.3125 3.24378,2.9219 8.20081,7.1529 11.01562,9.4023 5.89282,4.7092 7.5521,10.0965 5.2542,17.0592 -1.8678,5.6595 -6.71605,9.476 -12.03768,9.476 -3.20622,0 -3.99987,0.4361 -3.44159,1.8909 1.83256,4.7756 -7.51001,7.6684 -12.64326,3.9149 z m 90.58919,-4.8976 c -6.3525,-1.7315 -8.376125,-5.9324 -3.988788,-8.2804 2.58675,-1.3844 6.488788,-8.5596 6.488788,-11.9319 0,-1.7291 -0.8503,-1.553 -5.413713,1.1214 -10.946587,6.4151 -21.971575,5.4177 -31.080597,-2.8117 -6.03008,-5.4478 -7.98464,-9.1037 -10.37299,-19.4021 -1.63723,-7.0596 -1.6379,-8.7241 -0.006,-14.2199 3.0519,-10.2769 8.17679,-15.9236 23.49715,-25.8896 13.149737,-8.5537 22.4834,-16.9041 25.779875,-23.0636 1.411238,-2.637 6.346525,-3.8047 6.346525,-1.5016 0,2.8627 15.288625,17.2844 25.590112,24.1389 20.62895,13.7263 25.005663,19.7064 24.9258755,34.0573 -0.105375,18.943 -11.2932505,32.0875 -27.5107375,32.3219 -4.626188,0.067 -8.18105,-0.8317 -12.8275,-3.2424 -4.223225,-2.1911 -6.42775,-2.7962 -6.42775,-1.7644 0,2.291 7.221137,13.3099 8.722475,13.3099 2.023325,0 1.4837,5.9034 -0.613188,6.7081 -4.247175,1.6298 -17.812062,1.894 -23.109287,0.4501 z m 251.5433,0.3394 c -2.93244,-0.6181 -5.88556,-1.4661 -6.5625,-1.8845 -2.15083,-1.3292 -1.32706,-5.4736 1.37546,-6.92 2.47394,-1.324 7.30753,-10.0793 7.36629,-13.3429 0.0162,-0.9045 -1.8257,-0.2673 -4.52749,1.5662 -18.02828,12.2343 -38.19079,2.4131 -42.90235,-20.898 -3.41077,-16.8752 2.81515,-27.149 25.10003,-41.419 10.99537,-7.0409 22.9175,-17.9569 24.27166,-22.2235 1.22845,-3.8705 5.00299,-2.726 8.72568,2.6459 4.70787,6.7934 10.76038,12.0839 24.03936,21.0127 13.67355,9.194 18.71591,14.1122 21.99337,21.4515 7.10966,15.9208 -2.45651,38.4302 -18.33649,43.146 -7.49614,2.2262 -13.05289,1.5148 -20.68126,-2.6474 -3.00847,-1.6416 -5.6879,-2.9846 -5.95427,-2.9846 -1.30297,0 3.73682,9.5434 7.00617,13.267 3.79101,4.3177 3.91268,7.19 0.36225,8.5524 -3.69808,1.4191 -15.91318,1.8084 -21.27591,0.6782 z m -347.59016,-56.0956 c -0.91953,-0.5828 -1.48203,-2.4024 -1.25,-4.0434 0.37825,-2.6752 1.13255,-3.0233 7.29686,-3.3677 9.35375,-0.5226 11.27592,-2.7409 2.375,-2.7409 -3.78125,0 -7.55,-0.675 -8.375,-1.5 -1.56201,-1.562 -2.0606,-11.8346 -0.74126,-15.2728 0.60812,-1.5847 2.83257,-1.9772 11.20602,-1.9772 9.0496,0 10.6204,0.3235 11.74126,2.4178 1.67864,3.1366 1.65882,3.2888 -0.74092,5.6885 -1.87987,1.8799 -1.83226,2.2237 0.625,4.513 1.83231,1.7071 2.6599,3.9904 2.6599,7.3387 0,7.2493 -4.14777,10.0477 -14.85607,10.0229 -4.54791,-0.01 -9.02127,-0.4961 -9.94079,-1.0789 z"
         id="path4735"
         inkscape:connector-curvature="0" />
      <path
         style="fill:#d6d6d6"
         d="m -241.46263,2375.8021 c -6.71212,-3.7202 -6.29564,24.7837 -6.3433,-434.1343 -0.0341,-328.0882 0.3003,-427.26 1.44907,-429.7812 3.33324,-7.3157 -18.2831,-6.8401 310.885753,-6.8401 231.870377,0 303.268547,0.3487 305.780807,1.4934 7.3554,3.3513 6.84008,-29.4033 6.84008,434.7566 0,464.1599 0.51532,431.4053 -6.84008,434.7566 -5.07455,2.3122 -607.59392,2.0649 -611.77233,-0.251 z m 604.86241,-0.7556 c 0,-0.6875 0.94812,-1.25 2.10694,-1.25 2.8688,0 7.89306,-4.9128 7.89306,-7.7179 0,-1.2552 0.5625,-2.2821 1.25,-2.2821 0.83086,0 1.25,-141.6667 1.25,-422.5 0,-280.8333 -0.41914,-422.5 -1.25,-422.5 -0.6875,0 -1.25,-1.0842 -1.25,-2.4093 0,-2.5807 -5.47391,-7.5907 -8.29358,-7.5907 -0.93853,0 -1.70642,-0.5625 -1.70642,-1.25 0,-0.8298 -100.41666,-1.25 -298.75,-1.25 -198.33333,0 -298.75,0.4202 -298.75,1.25 0,0.6875 -0.76789,1.25 -1.70643,1.25 -2.81966,0 -8.29357,5.01 -8.29357,7.5907 0,1.3251 -0.5625,2.4093 -1.25,2.4093 -0.83087,0 -1.25,141.6667 -1.25,422.5 0,280.8333 0.41913,422.5 1.25,422.5 0.6875,0 1.25,0.9481 1.25,2.1069 0,2.8688 4.91276,7.8931 7.71789,7.8931 1.25516,0 2.28211,0.5625 2.28211,1.25 0,0.8299 100.41667,1.25 298.75,1.25 198.33334,0 298.75,-0.4201 298.75,-1.25 z m -572.62474,-41.4171 c -2.47486,-1.4353 -5.42798,-4.1811 -6.5625,-6.1017 -1.90492,-3.2247 -2.06276,-32.7789 -2.06276,-386.2312 0,-354.3579 0.15386,-382.9997 2.07491,-386.2518 1.1412,-1.9319 4.17092,-4.6906 6.7327,-6.1304 l 4.65778,-2.6178 269.03461,0 269.03461,0 4.65779,2.6178 c 2.56177,1.4398 5.59149,4.1985 6.73269,6.1304 1.92105,3.2521 2.07491,31.8939 2.07491,386.2518 0,354.3579 -0.15386,382.9997 -2.07491,386.2518 -1.1412,1.9319 -4.17092,4.6906 -6.73269,6.1304 l -4.65779,2.6178 -269.204798,-0.029 -269.204812,-0.029 -4.49974,-2.6097 z m 545.55769,-8.4234 c 1.91447,-1.589 2.06705,-29.8749 2.06705,-383.1987 0,-327.4938 -0.2511,-381.8264 -1.77424,-383.9094 -1.74682,-2.3889 -5.94846,-2.4264 -271.97576,-2.4264 -266.1326,0 -270.22828,0.037 -271.97778,2.4292 -1.52746,2.0889 -1.7322,55.9216 -1.46173,384.3381 l 0.31451,381.9089 3.125,1.5857 c 4.81855,2.445 538.72439,1.728 541.68295,-0.7275 z m -400.161262,-23.3796 c -2.833488,-5.0632 -15.783013,-16.6058 -26.728538,-23.8246 -13.21608,-8.7163 -17.68195,-13.2389 -21.2175,-21.487 -7.74458,-18.0674 7.13957,-42.7044 25.79935,-42.7044 4.811125,0 11.830112,2.6097 15.638975,5.8147 2.112888,1.7778 4.138237,2.9359 4.500775,2.5733 1.154562,-1.1545 -4.59955,-13.0458 -7.740775,-15.9968 -3.885713,-3.6505 -3.830275,-5.9104 0.1824,-7.436 4.20435,-1.5985 16.190887,-1.5461 22.106125,0.097 3.404525,0.9455 4.6875,1.9807 4.6875,3.7822 0,1.3643 -0.867713,2.8135 -1.92825,3.2205 -2.879563,1.105 -9.8894,16.6816 -7.507113,16.6816 0.33675,0 3.117738,-1.766 6.179963,-3.9245 18.742687,-13.211 42.0054,2.2169 42.0054,27.8582 0,13.0458 -5.422137,20.399 -24.096563,32.6785 -12.470075,8.1998 -25.903437,20.3987 -25.903437,23.523 0,1.9091 -4.816913,1.22 -5.978312,-0.8553 z m 248.135772,-2.9856 c -4.29372,-6.0704 -13.79544,-14.1506 -25.28246,-21.5003 -15.80109,-10.1098 -21.79544,-18.4795 -21.84755,-30.5046 -0.0439,-10.1283 3.15532,-18.788 9.15902,-24.7917 9.29654,-9.2965 21.12785,-10.4516 32.59109,-3.1818 3.14734,1.996 5.72244,3.0609 5.72244,2.3664 0,-2.8364 -3.98116,-10.4905 -7.60078,-14.613 -3.44073,-3.9188 -3.65453,-4.5997 -1.97245,-6.2818 3.71849,-3.7185 22.66508,-3.5134 27.84194,0.3014 2.26033,1.6656 2.19766,1.9053 -1.53857,5.8862 -3.60614,3.8423 -6.73014,10.4546 -6.73014,14.2452 0,0.9817 2.7418,-0.054 7.11396,-2.6865 8.43089,-5.0768 16.45374,-5.7147 23.87334,-1.8983 13.30269,6.8426 20.59366,24.6962 15.88035,38.8866 -3.00136,9.0363 -8.62477,14.768 -25.27719,25.7642 -10.05162,6.6374 -15.8036,11.4146 -19.4881,16.1855 -2.87505,3.7228 -6.07111,6.7588 -7.10236,6.7468 -1.03125,-0.013 -3.43539,-2.228 -5.34254,-4.9243 z m 89.34254,-19.0443 c -2.54546,-2.5455 -1.67741,-4.7936 2.5625,-6.6364 3.1294,-1.3602 3.46101,-1.777 1.44374,-1.8147 -4.0058,-0.075 -6.75624,-3.9997 -6.75624,-9.6411 0,-7.6512 2.66281,-9.3553 13.91229,-8.9031 8.89481,0.3575 9.21271,0.4781 9.21271,3.4953 0,2.9275 -0.45414,3.1487 -7.1875,3.4999 -5.14936,0.2686 -7.1875,0.8712 -7.1875,2.1251 0,1.2539 2.03814,1.8565 7.1875,2.1251 l 7.1875,0.3749 0.38134,6.664 c 0.21968,3.8388 -0.24265,7.4158 -1.09055,8.4375 -1.86268,2.2444 -17.47775,2.4615 -19.66579,0.2735 z m 2.25,-47.3035 c -17.28311,-15.3351 -16.25,-14.0422 -16.25,-20.3353 0,-4.6604 0.72442,-6.6325 3.63134,-9.8859 3.01783,-3.3776 4.47928,-4.042 8.65052,-3.9326 4.6659,0.1224 5.00421,-0.099 4.80618,-3.143 -0.20033,-3.0794 0.1225,-3.2747 5.41196,-3.2747 5.33216,0 5.62226,0.1811 5.57245,3.4797 -0.047,3.1117 0.29364,3.4037 3.22034,2.7609 11.34012,-2.4907 19.65377,13.611 11.82901,22.9102 -1.7205,2.0447 -5.79862,5.4379 -9.0625,7.5403 -3.26386,2.1024 -6.64219,4.9726 -7.50739,6.3782 -2.21401,3.5969 -3.89127,3.1903 -10.30191,-2.4978 z M 55.975243,1994.6175 c -5.570126,-2.0965 -6.080725,-4.0066 -2.167626,-8.1089 3.170863,-3.3242 4.745675,-6.5659 6.287263,-12.9422 l 0.81115,-3.355 -6.202837,4.1742 c -10.419101,7.0115 -18.885388,7.2194 -29.140788,0.7156 -10.040988,-6.3678 -15.8240125,-23.8525 -12.18635,-36.8449 2.30135,-8.2197 8.649013,-14.7552 24.373375,-25.0947 13.289137,-8.7382 17.721887,-12.6613 24.0128,-21.2519 l 2.73745,-3.7382 8.2799,9.0391 c 5.113962,5.5828 12.909438,12.0827 20.38755,16.9992 19.52153,12.8345 26.39092,22.7471 24.83979,35.844 -0.86514,7.3047 -4.82744,16.8517 -8.7307,21.0363 -9.15751,9.8174 -26.052965,10.6249 -36.196602,1.73 -1.207338,-1.0587 -2.422613,-1.694 -2.7006,-1.4118 -1.129388,1.1467 3.074412,10.4756 6.82175,15.1387 3.694912,4.5978 3.8467,5.1375 1.972012,7.0122 -2.62865,2.6287 -17.252775,3.2958 -23.197537,1.0583 z M -159.87039,1689.4939 c -0.41102,-1.071 -0.40642,-2.8357 0.0102,-3.9215 0.61721,-1.6084 0.10341,-1.8303 -2.77411,-1.1983 -11.57827,2.543 -20.02302,-13.4229 -12.08774,-22.8534 1.72051,-2.0447 5.79864,-5.4378 9.0625,-7.5403 3.26387,-2.1024 6.6422,-4.9726 7.5074,-6.3782 2.20833,-3.5877 3.43931,-3.2668 10.57419,2.7568 14.94702,12.619 15.97768,13.9185 15.97768,20.1457 0,4.5837 -0.73773,6.578 -3.63133,9.8165 -3.01785,3.3776 -4.47929,4.042 -8.65054,3.9326 -4.6659,-0.1224 -5.0042,0.099 -4.80616,3.143 0.19515,2.9999 -0.23379,3.307 -5.11091,3.6596 -3.92018,0.2835 -5.52097,-0.1285 -6.07123,-1.5625 z m 89.923445,-4.0677 c -1.49695,-0.2914 -3.413075,-1.3628 -4.258063,-2.381 -1.2619,-1.5205 -0.8278,-2.5822 2.4301,-5.9435 3.559088,-3.672 6.424688,-10.0095 6.424688,-14.2087 0,-0.8702 -2.435025,0.1714 -5.575213,2.3848 -6.389137,4.5035 -16.235575,6.0151 -23.52045,3.6109 -8.974147,-2.9617 -15.968227,-12.5581 -18.722317,-25.6883 -1.19197,-5.6828 -1.0832,-7.8703 0.66687,-13.4097 2.96018,-9.3698 8.36558,-15.234 22.492397,-24.4013 14.1048,-9.153 20.979338,-15.0145 24.733363,-21.0887 2.399025,-3.8817 7.42535,-5.9835 7.42535,-3.1049 0,2.8879 13.761062,15.7198 25.351275,23.6394 19.75035,13.4954 24.648725,19.943 24.648725,32.4443 0,26.8363 -23.731113,41.5357 -43.4375,26.9058 -2.601275,-1.9312 -4.052625,-2.4311 -4.03505,-1.3899 0.0495,2.9288 4.5566,11.6735 7.846263,15.2231 5.650087,6.0965 2.405187,8.3552 -11.623713,8.0907 -4.46875,-0.084 -9.349775,-0.3916 -10.846725,-0.683 z m 249.909225,-0.5282 c -4.95904,-1.4318 -5.40093,-4.937 -0.987,-7.8291 2.9002,-1.9003 7.80939,-14.0542 6.29032,-15.5732 -0.34412,-0.3442 -1.88908,0.5295 -3.43325,1.9413 -7.59353,6.943 -19.47427,8.6797 -28.36146,4.1458 -9.79746,-4.9983 -16.32111,-17.0622 -16.32111,-30.1818 0,-12.7852 5.20916,-19.9224 23.15105,-31.7201 8.66445,-5.6973 16.75695,-12.254 21.46311,-17.39 4.15499,-4.5344 8.11508,-8.2444 8.80019,-8.2444 0.6851,0 2.82416,2.2778 4.75346,5.0618 4.21793,6.0865 11.06912,11.8585 26.60466,22.414 12.6612,8.6026 16.65968,12.9333 19.578,21.2047 2.51599,7.1311 2.39542,11.9868 -0.50712,20.4232 -3.33584,9.6958 -7.01928,14.1816 -14.75125,17.9645 -8.7016,4.2573 -16.47795,3.6805 -25.433,-1.8862 -6.02529,-3.7456 -6.28651,-3.7992 -5.45824,-1.1204 1.56364,5.057 5.22988,11.5152 7.91613,13.9446 3.51397,3.178 3.32085,5.5442 -0.57337,7.0247 -3.96125,1.5061 -17.25721,1.4012 -22.73112,-0.1794 z m -345.08303,-58.289 c 0.37505,-3.2595 0.77203,-3.457 7.66558,-3.8148 9.31212,-0.4834 8.98711,-3.1236 -0.49211,-3.9977 l -6.77794,-0.625 -0.38075,-7.3841 c -0.26096,-5.0611 0.13226,-7.7094 1.25,-8.4183 2.77462,-1.7598 16.55722,-1.2365 19.20434,0.7292 3.90669,2.901 0.91967,6.1723 -6.45049,7.0643 l -6.1231,0.7411 5.17402,0.1964 c 9.62785,0.3654 14.574,8.7068 9.20795,15.5286 -2.52849,3.2145 -3.28284,3.4178 -12.68072,3.4178 l -9.99231,0 0.39553,-3.4375 z"
         id="path4733"
         inkscape:connector-curvature="0" />
      <path
         style="fill:#a6a6a6"
         d="m -240.64701,2375.5898 c -7.80201,-4.2334 -7.20321,31.869 -7.20321,-434.2933 0,-377.5517 0.21218,-425.5345 1.89616,-428.7909 4.16641,-8.057 -20.72942,-7.4591 310.60384,-7.4591 331.33326,0 306.43743,-0.5979 310.60384,7.4591 1.68397,3.2564 1.89616,51.2392 1.89616,428.7909 0,377.5517 -0.21219,425.5345 -1.89616,428.7909 -4.16719,8.0585 20.77151,7.4641 -310.854265,7.4091 -264.351415,-0.044 -302.047425,-0.2795 -305.046365,-1.9067 z m 608.44879,-1.2649 c 8.84406,-4.1968 8.098,35.6975 8.098,-433.0284 0,-382.3907 -0.18821,-423.1438 -1.97159,-426.902 -4.17032,-8.7883 22.19338,-8.098 -309.27841,-8.098 -331.47178,0 -305.10809,-0.6903 -309.27841,8.098 -1.78338,3.7582 -1.97159,44.5113 -1.97159,426.902 0,381.6755 0.19078,423.1492 1.96373,426.8854 4.15068,8.7469 -22.31391,8.0546 309.097357,8.0861 269.906113,0.026 299.592703,-0.1645 303.340913,-1.9431 z m -575.63623,-40.872 c -3.17139,-1.6771 -6.32885,-4.6177 -7.6966,-7.168 -2.24435,-4.1849 -2.31917,-16.6053 -2.31917,-384.9884 0,-368.3831 0.0748,-380.8035 2.31917,-384.9883 1.36775,-2.5504 4.52522,-5.491 7.6966,-7.168 l 5.37744,-2.8437 267.10679,0 267.10679,0 5.37743,2.8437 c 3.17139,1.677 6.32885,4.6176 7.6966,7.168 2.24435,4.1848 2.31918,16.6052 2.31918,384.9883 0,368.3831 -0.0749,380.8035 -2.31918,384.9884 -1.36775,2.5503 -4.52521,5.4909 -7.6966,7.168 l -5.37743,2.8436 -267.10679,0 -267.10679,0 -5.37744,-2.8436 z m 544.98423,-8.4064 c 2.48906,-2.4891 2.5,-4.1667 2.5,-383.5143 l 0,-381.0143 -2.5487,-2.7357 -2.54869,-2.7357 -269.90261,0 -269.90261,0 -2.5487,2.7357 -2.54869,2.7357 0,381.0143 c 0,379.3476 0.0109,381.0252 2.5,383.5143 2.48457,2.4846 4.16667,2.5 272.5,2.5 268.33334,0 270.01544,-0.015 272.5,-2.5 z m -405.988287,-30.1 c -4.486663,-4.8668 -13.216663,-12.1163 -20.329925,-16.8821 -13.457638,-9.0165 -18.874188,-14.317 -21.809448,-21.3421 -5.68499,-13.6061 2.31122,-34.5378 15.27501,-39.9855 7.307088,-3.0706 15.317,-2.1767 23.238687,2.5935 6.3977,3.8525 7.113963,4.0399 7.113963,1.8614 0,-3.3629 -4.661688,-12.9516 -7.581088,-15.5936 -3.302112,-2.9884 -3.035675,-5.3492 0.709788,-6.2892 5.190587,-1.3028 21.336475,-0.012 23.626575,1.8882 1.935162,1.6061 1.798375,2.058 -1.722475,5.6906 -3.832888,3.9545 -6.2828,9.9734 -6.2828,15.4354 0,2.8236 0.164412,2.7775 5.07315,-1.4242 17.9481,-15.3629 42.41255,-1.2693 42.7046875,24.6016 0.160875,14.2466 -4.3944755,20.5202 -24.4990255,33.7402 -12.150237,7.9895 -24.528812,19.1414 -24.528812,22.098 0,3.4067 -4.2155,0.9543 -10.988287,-6.3922 z m 253.715037,3.3538 c -4.83915,-6.7384 -12.43694,-13.1166 -26.88359,-22.5683 -12.25732,-8.0194 -17.41141,-14.0673 -19.51221,-22.8961 -2.28691,-9.6109 1.13257,-22.6757 7.87776,-30.0986 8.13893,-8.9565 22.39714,-10.1956 32.81606,-2.8516 3.16242,2.2291 6.05052,3.7522 6.41801,3.3847 1.24751,-1.2475 -3.73217,-12.2165 -7.48795,-16.4941 -3.17557,-3.6168 -3.49159,-4.5544 -2.1002,-6.2309 1.32776,-1.5998 3.82797,-1.893 13.20618,-1.5487 13.94342,0.512 16.22206,1.9161 11.3545,6.9968 -3.38705,3.5353 -7.16531,12.4051 -7.16531,16.8213 0,2.2617 0.30541,2.1969 3.89985,-0.8276 6.29897,-5.3002 11.2488,-7.2978 18.08298,-7.2978 11.71556,0 20.99445,7.8231 24.97791,21.0592 4.98432,16.5616 -1.67461,30.4364 -19.84918,41.3585 -11.64502,6.9981 -20.19064,13.9833 -25.29411,20.6754 -2.5225,3.3077 -4.993,6.014 -5.49,6.014 -0.49701,0 -2.67983,-2.4733 -4.8507,-5.4962 z m 88.99825,-20.0689 c -1.19716,-3.1198 0.72251,-4.4349 6.47377,-4.4349 3.05318,0 5.55123,-0.5625 5.55123,-1.25 0,-0.6875 -1.99431,-1.25 -4.43181,-1.25 -5.37907,0 -10.56819,-4.6033 -10.56819,-9.375 0,-1.7812 1.38069,-4.6193 3.06819,-6.3068 2.56688,-2.5669 4.27782,-3.0682 10.47193,-3.0682 5.2776,0 7.88288,0.5773 9.07214,2.0103 2.49479,3.006 -1.66996,5.4897 -9.20534,5.4897 -4.33331,0 -5.96531,0.4553 -5.60068,1.5625 0.28302,0.8594 1.87677,1.7142 3.54167,1.8996 10.42694,1.1612 11.02534,1.4661 11.88645,6.0562 0.46428,2.4748 0.22179,5.7574 -0.5505,7.4524 -1.27075,2.7889 -2.07979,3.0293 -10.1963,3.0293 -6.55414,0 -8.99472,-0.4657 -9.51256,-1.8151 z m 4.64787,-44.9291 c -1.5471,-1.6468 -5.58328,-4.8812 -8.96931,-7.1875 -7.97247,-5.4303 -10.724,-10.9007 -8.76746,-17.4311 1.98793,-6.635 6.94569,-10.2977 12.86984,-9.5078 4.52537,0.6035 4.6147,0.5363 3.91826,-2.9459 -0.60823,-3.0411 -0.25056,-3.6794 2.44012,-4.3548 1.73405,-0.4352 4.33737,-0.1573 5.78514,0.6175 2.10193,1.1249 2.37725,1.8854 1.36643,3.7741 -1.92592,3.5986 -1.67233,3.7872 4.04661,3.0091 6.60211,-0.8983 11.49812,2.4495 13.34045,9.1218 1.64504,5.9579 -0.67955,11.4629 -6.83229,16.18 -2.57812,1.9766 -6.78251,5.4219 -9.34307,7.6563 -5.56783,4.8585 -6.22687,4.93 -9.85472,1.0683 z M 56.52478,1994.142 c -5.244888,-1.2892 -5.938313,-3.0066 -2.6149,-6.4764 3.71685,-3.8805 6.9899,-11.286 6.9899,-15.8151 l 0,-3.2762 -4.0625,3.4255 c -8.637038,7.2828 -18.618763,8.7473 -28.155175,4.1308 -9.880025,-4.7828 -15.649888,-15.8678 -15.581912,-29.9358 0.06062,-12.5353 6.171499,-20.4238 25.299587,-32.6589 11.081212,-7.088 17.173925,-12.3535 22.840388,-19.7394 l 3.356524,-4.375 7.64175,8.4549 c 4.56725,5.0533 12.498775,11.672 19.714038,16.451 23.62907,15.6506 28.82797,25.5395 23.26864,44.2598 -5.69213,19.1675 -26.980753,26.2731 -41.230502,13.7616 -4.307638,-3.7821 -4.340626,-3.7888 -4.313388,-0.8693 0.0375,4.0204 4.04,12.4265 7.296012,15.3232 5.783275,5.1452 1.845438,8.3174 -10.053787,8.0988 -4.342075,-0.08 -9.019675,-0.4215 -10.394675,-0.7595 z m -214.69576,-304.2002 c -1.69349,-0.9863 -1.90794,-1.8166 -0.9375,-3.6299 1.91743,-3.5827 1.66074,-3.7723 -4.05424,-2.9948 -6.60211,0.8983 -11.49812,-2.4495 -13.34045,-9.1218 -1.64504,-5.9579 0.67955,-11.4629 6.83228,-16.18 2.57813,-1.9766 6.78252,-5.4219 9.34309,-7.6563 5.56781,-4.8585 6.22685,-4.93 9.85471,-1.0683 1.5471,1.6468 5.58329,4.8812 8.9693,7.1875 7.97248,5.4303 10.724,10.9007 8.76747,17.4311 -1.9955,6.6604 -6.9424,10.2981 -12.92015,9.501 -4.48167,-0.5976 -4.64766,-0.4904 -3.89332,2.5152 1.18395,4.7172 -3.5948,6.9434 -8.62119,4.0163 z m 86.88326,-6.1843 c -3.609825,-1.4509 -3.551913,-1.9138 0.869312,-6.9493 3.51475,-4.0031 6.296263,-11.0201 6.311213,-15.9216 0.0063,-1.8749 -0.899688,-1.5088 -5.04535,2.0397 -13.549888,11.5982 -31.376585,7.8483 -39.256515,-8.2577 -6.71694,-13.7289 -5.44242,-26.8413 3.5575,-36.6 2.81949,-3.0573 11.293427,-9.6285 18.83099,-14.6029 9.179137,-6.0576 15.3707,-11.1805 18.75,-15.5137 4.471675,-5.7339 9.42035,-8.6445 9.42035,-5.5407 0,2.8763 12.535112,14.5176 24.132963,22.4121 19.934475,13.5692 25.0059745,20.0388 25.1614495,32.0981 0.1685125,13.0695 -6.9776625,26.24 -16.3658875,30.1627 -8.783425,3.6699 -20.517462,1.5887 -27.6111,-4.8972 -1.544162,-1.4118 -3.130025,-2.2446 -3.524137,-1.8505 -1.496688,1.4967 2.53405,11.1845 6.658075,16.0025 6.0908,7.1157 4.420162,8.7323 -8.916913,8.6283 -5.5877,-0.044 -11.425075,-0.588 -12.97195,-1.2097 z m 250.9375,0.3779 c -3.60229,-1.3713 -3.61866,-3.4677 -0.0525,-6.7249 3.3511,-3.0608 6.27943,-10.12 6.29554,-15.1765 0.01,-3.0012 -0.87351,-2.7709 -5.73134,1.4943 -3.873,3.4005 -11.01762,6.3043 -15.51169,6.3043 -16.84481,0 -30.58723,-21.2897 -25.7585,-39.9049 2.40054,-9.2544 7.04584,-14.2861 22.67941,-24.5661 8.50118,-5.59 16.86659,-12.3009 20.92785,-16.7888 3.72113,-4.1119 7.14363,-7.4763 7.60557,-7.4763 0.46192,0 4.53189,3.9137 9.04435,8.6972 4.59306,4.8689 13.55023,12.2222 20.3491,16.7054 13.59675,8.9658 17.66667,13.1536 20.82786,21.4311 4.78704,12.5346 -0.83874,30.0964 -11.92565,37.2278 -5.0455,3.2455 -6.48933,3.5728 -14.01466,3.1777 -7.02,-0.3686 -9.3158,-1.0933 -14.0625,-4.4391 -5.19176,-3.6595 -5.67284,-3.7853 -5.67284,-1.4842 0,3.7421 2.92684,10.0322 6.81222,14.6401 5.44362,6.4558 3.8661,7.8106 -8.9605,7.6953 -6.0372,-0.054 -11.82047,-0.4198 -12.85172,-0.8124 z m -343.61965,-55.2319 c -3.78474,-2.3965 -0.42431,-4.9698 6.99325,-5.3552 5.4449,-0.2829 7.2514,-0.8439 7.2514,-2.2518 0,-1.3628 -1.69868,-1.9822 -6.21826,-2.2675 -7.89792,-0.4984 -9.41126,-1.82 -9.3876,-8.1981 0.0293,-7.9003 0.80958,-8.4529 11.341,-8.0307 8.30774,0.3329 9.26486,0.6296 9.26486,2.8713 0,2.0716 -0.96381,2.5671 -5.625,2.8914 -8.02278,0.5583 -8.74203,2.2468 -1.37344,3.2242 6.98523,0.9267 10.12344,3.9326 10.12344,9.6968 0,5.3356 -5.14554,8.5665 -13.60607,8.5435 -3.86041,-0.01 -7.80402,-0.5163 -8.76358,-1.1239 z"
         id="path4731"
         inkscape:connector-curvature="0" />
      <path
         style="fill:#6f6f6f"
         d="m -238.66836,2376.5899 c -0.79372,-0.5051 135.69944,-0.9184 303.31814,-0.9184 167.6187,0 304.11186,0.4133 303.31814,0.9184 -0.79373,0.5051 -137.28689,0.9183 -303.31814,0.9183 -166.03125,0 -302.52441,-0.4132 -303.31814,-0.9183 z m -8.42312,-8.5206 c -1.09585,-2.8558 -0.89901,-852.1172 0.1979,-853.8409 0.5051,-0.7938 0.91836,191.4406 0.91836,427.1875 0,235.7468 -0.0804,428.6306 -0.17876,428.6306 -0.0983,0 -0.5202,-0.8897 -0.9375,-1.9772 z m 622.36626,-426.7728 c 0,-235.6812 0.41326,-427.8619 0.91836,-427.0681 1.2008,1.8869 1.2008,852.2493 0,854.1362 -0.5051,0.7938 -0.91836,-191.3869 -0.91836,-427.0681 z m -583.41483,391.1765 c -2.56565,-1.3546 -5.51878,-4.1143 -6.5625,-6.1326 -1.68473,-3.258 -1.89767,-46.4643 -1.89767,-385.0439 0,-338.8514 0.21193,-381.784 1.90076,-385.0498 1.04542,-2.0216 4.11676,-4.8062 6.8252,-6.1879 4.88706,-2.4932 6.95581,-2.5123 272.52404,-2.5123 265.56824,0 267.63697,0.019 272.52404,2.5123 2.70845,1.3817 5.77978,4.1663 6.8252,6.1879 1.68882,3.2658 1.90076,46.1984 1.90076,385.0498 0,338.8514 -0.21194,381.784 -1.90076,385.0498 -1.04541,2.0216 -4.11675,4.8062 -6.8252,6.1879 -4.88813,2.4938 -6.90015,2.5119 -272.78674,2.4571 -264.05375,-0.055 -267.92863,-0.09 -272.52713,-2.5183 z m 543.21818,-5.0643 c 1.67527,-0.7633 3.6705,-2.7586 4.43381,-4.4338 1.98015,-4.346 1.98015,-759.0108 0,-763.3567 -0.76331,-1.6753 -2.75854,-3.6705 -4.43381,-4.4339 -4.33945,-1.9771 -536.51726,-1.9771 -540.85669,0 -1.67529,0.7634 -3.67051,2.7586 -4.43382,4.4339 -1.98443,4.3553 -1.97972,759.0116 0.005,763.3671 0.76593,1.681 2.59406,3.6382 4.0625,4.3492 3.90711,1.8919 537.0735,1.9649 541.22325,0.074 z m -403.855263,-33.5783 c -4.64485,-5.0785 -12.738037,-11.7852 -20.000337,-16.5741 -14.5111,-9.5687 -19.44761,-14.8388 -22.26171,-23.7662 -1.95417,-6.1993 -1.956,-7.1928 -0.0272,-14.7331 1.13751,-4.447 3.43873,-10.0661 5.11382,-12.4867 8.192577,-11.8391 23.918902,-13.6792 36.278565,-4.2449 l 5.573825,4.2546 0,-3.1569 c 0,-4.1543 -3.0409,-11.286 -7.057938,-16.5525 -2.459412,-3.2245 -2.882837,-4.5833 -1.773825,-5.6923 1.9827,-1.9827 18.7092,-1.8273 22.331088,0.2075 l 2.874325,1.6148 -3.743638,4.2638 c -3.8942,4.4352 -6.361087,11.1332 -6.373037,17.3038 l -0.0075,3.5967 5.494125,-5.0643 c 8.361975,-7.7078 17.326662,-9.5408 26.432587,-5.4045 10.078125,4.5778 15.86155,14.7798 16.029213,28.2754 0.1813375,14.5962 -3.53515,19.5811 -25.065725,33.6207 -7.407388,4.8301 -15.512625,11.3923 -19.375,15.6863 l -6.6402,7.3822 -7.801913,-8.5303 z m 250.923453,0.1508 c -4.46685,-4.6713 -14.25108,-12.6408 -21.74274,-17.7102 -19.48192,-13.1828 -24.1539,-21.7213 -20.77933,-37.9765 4.50033,-21.678 27.10273,-29.4675 42.82499,-14.7589 1.88345,1.762 3.81215,2.816 4.286,2.3421 1.56509,-1.5651 -3.4229,-14.5938 -7.26051,-18.9646 -2.07269,-2.3607 -3.44077,-4.8224 -3.04019,-5.4706 1.84344,-2.9827 19.73045,-3.0723 24.50307,-0.1226 1.47688,0.9128 1.23227,1.7252 -1.38648,4.6049 -3.99151,4.3894 -5.70402,8.4102 -6.8572,16.1001 l -0.90789,6.0543 5.79432,-5.1004 c 13.60198,-11.9729 30.55957,-9.4954 38.69056,5.6528 7.37293,13.736 6.45116,26.6017 -2.62919,36.6969 -2.53932,2.8231 -9.9607,8.6272 -16.49195,12.898 -12.29257,8.0382 -18.49539,13.3095 -23.79485,20.2214 l -3.08709,4.0264 -8.12152,-8.4931 z m 94.06596,-14.7626 c -0.85938,-0.3467 -1.5625,-1.3965 -1.5625,-2.3328 0,-1.1435 1.94545,-1.8274 5.92626,-2.0833 4.46538,-0.2871 6.02865,-0.9202 6.34165,-2.5685 0.34484,-1.8159 -0.52269,-2.1875 -5.10752,-2.1875 -6.51938,0 -9.66039,-2.7124 -9.66039,-8.3422 0,-6.0547 3.37916,-8.0975 12.66846,-7.6587 6.07209,0.2869 7.95654,0.82 7.95654,2.2509 0,1.3913 -1.76651,1.975 -6.84771,2.2627 -6.89722,0.3905 -9.08763,1.7241 -7.9029,4.8114 0.41126,1.0718 2.75782,1.6759 6.50935,1.6759 7.09662,0 8.86626,1.5381 8.86626,7.706 0,3.3734 -0.68468,5.0725 -2.41783,6 -2.45796,1.3155 -11.9244,1.6142 -14.76967,0.4661 z m 2.165,-47.321 c -1.62706,-1.732 -5.60275,-4.846 -8.83486,-6.92 -3.25808,-2.0907 -6.55655,-5.4126 -7.40263,-7.4552 -2.02363,-4.8855 -0.68226,-11.3898 3.07732,-14.9217 2.91438,-2.7379 6.38001,-3.0512 13.18267,-1.1917 1.18316,0.3234 1.69665,-0.1793 1.39164,-1.3625 -1.87639,-7.2787 -1.81724,-7.5 2.00431,-7.5 4.84141,0 5.34925,0.6874 3.7121,5.0247 -1.57027,4.1601 -0.51606,6.035 2.14951,3.8228 0.99988,-0.8299 3.91072,-1.3319 6.46853,-1.1157 6.02556,0.5094 9.8421,5.3349 9.8421,12.4439 0,4.2711 -0.71427,5.6884 -4.54032,9.0089 -10.17057,8.8268 -15.88772,13.3154 -16.95972,13.3154 -0.6228,0 -2.4636,-1.417 -4.09065,-3.149 z M 60.096968,1993.9133 c -8.515588,-2.1593 -8.554138,-2.2205 -4.388001,-6.9654 3.967838,-4.5192 6.421951,-11.1787 6.433838,-17.4591 l 0.0075,-3.6827 -4.0625,3.8552 c -8.7474,8.3012 -19.792875,10.434 -29.192375,5.6368 -6.127162,-3.1271 -8.52395,-5.7774 -11.573062,-12.7973 -5.629938,-12.9615 -4.470876,-24.6925 3.341512,-33.8195 2.511913,-2.9346 10.022112,-8.8755 16.689313,-13.2021 12.30155,-7.9828 19.628274,-14.2787 24.505462,-21.0577 l 2.697962,-3.75 6.865838,7.6375 c 3.776212,4.2007 12.094175,11.1738 18.48435,15.496 23.153065,15.66 29.380495,25.1699 25.870435,39.5065 -2.85841,11.6749 -7.3053,17.9459 -15.75236,22.2138 -7.825937,3.954 -21.225563,1.3353 -27.130813,-5.3023 -3.9473,-4.4368 -5.655675,-3.4672 -4.325087,2.4548 1.440512,6.4112 3.808512,11.0556 7.20335,14.1279 2.702712,2.4459 3.398212,5.1172 1.618663,6.217 -2.048976,1.2664 -13.488401,1.8555 -17.2935,0.8906 z M -158.13097,1689.3491 c -0.38358,-0.3836 -0.0809,-2.3309 0.67271,-4.3273 1.57027,-4.1601 0.51605,-6.035 -2.14952,-3.8228 -0.99988,0.8299 -3.91072,1.3319 -6.46853,1.1157 -6.02556,-0.5094 -9.84209,-5.3349 -9.84209,-12.4439 0,-4.2711 0.71425,-5.6883 4.54031,-9.0089 10.17057,-8.8267 15.88772,-13.3154 16.95972,-13.3154 0.6228,0 2.4636,1.417 4.09066,3.149 1.62706,1.7319 5.60274,4.8459 8.83485,6.9199 3.25808,2.0907 6.55655,5.4126 7.40263,7.4552 2.02364,4.8855 0.68226,11.3898 -3.07731,14.9217 -2.91439,2.7379 -6.38002,3.0512 -13.18268,1.1917 -1.18316,-0.3234 -1.69665,0.1793 -1.39164,1.3625 1.87639,7.2787 1.81724,7.5 -2.0043,7.5 -2.02807,0 -4.00123,-0.3138 -4.38481,-0.6974 z m 89.34325,-5.6263 c -2.234375,-0.6863 -4.0625,-1.5793 -4.0625,-1.9845 0,-0.4052 1.639237,-2.6037 3.64275,-4.8856 3.537962,-4.0295 7.691862,-17.1382 5.974862,-18.8553 -0.431,-0.431 -2.871,1.0491 -5.422225,3.2891 -9.032075,7.9303 -18.032237,9.5063 -27.663062,4.8441 -7.335365,-3.551 -12.171425,-10.5292 -14.552705,-20.9989 -1.75705,-7.7251 -1.75388,-9.149 0.0339,-15.2407 2.34367,-7.9862 10.83026,-16.997 22.05865,-23.4212 9.547,-5.4622 19.706212,-13.8545 23.482212,-19.3981 1.688875,-2.4795 3.534963,-4.512 4.102425,-4.5167 0.56745,0 4.7862,3.8575 9.375,8.5826 4.588788,4.725 13.15255,11.687 19.030575,15.4709 16.950175,10.9116 21.938,16.9745 23.278913,28.2964 1.381025,11.6606 -5.404675,26.0536 -14.464288,30.6799 -9.270025,4.7337 -19.128425,3.3211 -27.634387,-3.9597 -2.811663,-2.4066 -5.467025,-4.0208 -5.900825,-3.587 -1.522888,1.5229 3.605537,14.6461 7.42235,18.9932 2.70905,3.0854 3.464412,4.7867 2.537062,5.7141 -1.82825,1.8282 -16.30025,2.4943 -21.23865,0.9774 z m 252.1875,0.4087 c -5.84739,-1.0751 -6.5162,-2.7611 -2.63487,-6.6424 3.34346,-3.3435 6.38487,-11.6181 6.38487,-17.3711 0,-3.4435 -1.44928,-3.2391 -5.09461,0.7184 -6.90837,7.5 -18.69383,9.9205 -27.14269,5.5746 -9.21956,-4.7423 -14.3557,-12.6763 -15.9406,-24.6239 -1.89368,-14.2752 3.7185,-22.8292 23.52075,-35.8504 8.6718,-5.7022 16.68614,-12.1331 20.40619,-16.3744 3.36927,-3.8413 6.50108,-6.9914 6.95957,-7 0.45848,-0.01 4.39598,3.7178 8.75,8.2811 4.35401,4.5633 13.4084,11.9348 20.12086,16.381 14.05447,9.3095 18.90502,14.5845 21.78077,23.6866 1.92062,6.079 1.90983,7.0086 -0.17053,14.694 -6.02281,22.2501 -24.10471,29.3884 -41.2643,16.2901 l -5.67541,-4.3321 0.0125,3.4293 c 0.0146,4.1101 5.00636,15.2397 7.91386,17.6447 1.14066,0.9436 2.07393,2.4202 2.07393,3.2813 0,2.6427 -11.02705,3.8629 -20,2.2132 z m -347.5,-57.0763 c 0,-2.3006 2.76472,-3.2587 9.40346,-3.2587 10.33589,0 8.23615,-5.8893 -2.31773,-6.5007 l -6.46073,-0.3743 -0.37782,-6.5625 -0.37783,-6.5625 9.44033,0 c 7.23581,0 9.44032,0.4066 9.44032,1.7413 0,2.1811 -2.72071,3.2587 -8.22723,3.2587 -2.96468,0 -4.27277,0.574 -4.27277,1.875 0,1.3358 1.35799,1.875 4.72187,1.875 6.57785,0 10.27813,2.8809 10.27813,8.0021 0,6.2784 -3.08297,8.2479 -12.91093,8.2479 -6.29452,0 -8.33907,-0.4269 -8.33907,-1.7413 z m -74.01587,-120.9833 c 2.79892,-1.1108 602.73282,-1.1108 605.53174,0 1.17748,0.4673 -135.06717,0.8496 -302.76587,0.8496 -167.6987,0 -303.94335,-0.3823 -302.76587,-0.8496 z"
         id="path4729"
         inkscape:connector-curvature="0" />
      <path
         style="fill:#555555"
         d="m -86.28772,2376.6091 c 83.015625,-0.1775 218.85937,-0.1775 301.875,0 83.01562,0.1774 15.09375,0.3225 -150.9375,0.3225 -166.03125,0 -233.95312,-0.1451 -150.9375,-0.3225 z m -160.94473,-435.3126 c 0,-234.0937 0.14387,-329.8594 0.31971,-212.8125 0.17584,117.0469 0.17584,308.5781 0,425.625 -0.17584,117.0469 -0.31971,21.2813 -0.31971,-212.8125 z m 623.75,0 c 0,-234.0937 0.14387,-329.8594 0.3197,-212.8125 0.17584,117.0469 0.17584,308.5781 0,425.625 -0.17583,117.0469 -0.3197,21.2813 -0.3197,-212.8125 z m -585.74542,389.6442 c -2.42682,-1.6317 -4.88684,-4.7125 -5.7393,-7.1875 -2.16586,-6.2884 -2.16586,-758.625 0,-764.9134 0.85246,-2.475 3.31248,-5.5558 5.7393,-7.1875 l 4.24736,-2.8558 269.63029,0 269.63029,0 4.24736,2.8558 c 2.42681,1.6317 4.88684,4.7125 5.7393,7.1875 2.16586,6.2884 2.16586,758.625 0,764.9134 -0.85246,2.475 -3.31249,5.5558 -5.7393,7.1875 l -4.24736,2.8558 -269.63029,0 -269.63029,0 -4.24736,-2.8558 z m 547.23459,-4.8621 2.89306,-2.7179 0,-381.889 0,-381.8891 -2.71789,-2.893 -2.7179,-2.8931 -270.639035,0 -270.639045,0 -2.89307,2.7179 -2.89306,2.7179 0,381.889 0,381.8891 2.71789,2.893 2.71789,2.8931 270.639045,0 270.639045,0 2.89307,-2.7179 z m -405.489928,-32.1529 c -3.579387,-4.0219 -12.335124,-11.2791 -19.4572,-16.127 -15.193362,-10.342 -21.478742,-16.8307 -23.471402,-24.2309 -3.02387,-11.2298 2.39348,-27.143 11.231452,-32.9916 9.725525,-6.4361 20.788788,-5.3187 30.336063,3.0639 2.447013,2.1485 4.868625,3.9064 5.38135,3.9064 2.9725,0 -3.028937,-17.2131 -7.592562,-21.7767 -3.813776,-3.8138 -1.324951,-5.7233 7.459687,-5.7233 4.445562,0 9.572475,0.5664 11.393137,1.2586 l 3.310275,1.2585 -3.198087,3.8007 c -4.639838,5.5142 -9.191188,22.4322 -6.034787,22.4322 0.536225,0 2.906337,-2.0476 5.266912,-4.5503 5.274625,-5.5921 10.658738,-7.9497 18.155075,-7.9497 12.983775,0 22.771625,11.0344 24.063475,27.1282 1.1795875,14.6952 -5.088375,23.6279 -24.793913,35.3348 -8.346124,4.9583 -23.666487,18.8089 -23.666487,21.3961 0,2.3941 -2.09055,0.8406 -8.382988,-6.2299 z m 249.007988,-1.0366 c -4.17776,-4.5837 -12.48335,-11.5154 -18.75,-15.6485 -6.1875,-4.0809 -12.8678,-8.9158 -14.84513,-10.7444 -5.23806,-4.8441 -8.22057,-12.2006 -8.25242,-20.355 -0.0849,-21.7345 17.06667,-35.4578 34.34755,-27.4822 2.75,1.2693 6.36367,3.7882 8.03039,5.5976 4.26324,4.6283 6.47173,4.32 5.53427,-0.7726 -1.09156,-5.9298 -5.15457,-14.8479 -8.28046,-18.1753 -2.32165,-2.4712 -2.44964,-3.0761 -0.87645,-4.1414 1.88944,-1.2795 20.6221,-0.8826 21.9702,0.4655 0.41224,0.4122 -0.64393,2.6146 -2.34701,4.8941 -4.27428,5.721 -8.3283,20.1475 -6.05628,21.5517 0.55978,0.3459 2.65073,-1.09 4.64656,-3.191 11.2759,-11.8702 29.21149,-11.228 37.68742,1.3494 4.29945,6.3799 6.99565,16.9035 6.06871,23.6868 -1.38903,10.1648 -6.186,15.9993 -21.41334,26.0448 -7.54271,4.976 -17.22477,12.7103 -21.5157,17.1875 -4.29094,4.4772 -7.94719,8.1002 -8.125,8.0511 -0.17782,-0.049 -3.69831,-3.7923 -7.82331,-8.3181 z m 93.77966,-15.2946 c -0.99797,-1.6148 0.95553,-2.3524 7.45994,-2.8168 3.58351,-0.2558 5.10643,-0.9726 5.40416,-2.5437 0.34043,-1.7964 -0.50602,-2.1875 -4.73392,-2.1875 -3.79962,0 -5.95232,-0.8038 -8.21665,-3.0682 -3.88439,-3.8844 -3.86932,-6.2443 0.065,-10.1787 2.6722,-2.6722 4.08315,-3.0776 9.58923,-2.7556 8.80715,0.515 9.48175,3.2469 0.92523,3.7469 -11.93658,0.6973 -11.63929,8.5056 0.32386,8.5056 l 6.16543,0 -0.38099,5.9375 -0.38099,5.9375 -7.70361,0.3693 c -4.45006,0.2134 -8.04703,-0.1863 -8.51673,-0.9463 z m 0.59534,-48.2468 c -13.01805,-10.2066 -13.75,-11.1175 -13.75,-17.1108 0,-9.5633 6.70626,-14.0553 15.2391,-10.2076 4.27686,1.9286 5.51261,2.0153 8.92505,0.6262 7.819,-3.1829 9.30574,-3.0814 13.29424,0.9071 2.77571,2.7757 3.79161,4.9622 3.79161,8.1605 0,6.4204 -0.94413,8.0027 -7.3379,12.298 -3.1829,2.1383 -7.4746,5.4243 -9.5371,7.3023 l -3.75,3.4145 -6.875,-5.3902 z m 4.51999,-30.2387 c -0.42438,-1.2031 -1.09936,-2.8906 -1.49997,-3.75 -0.49861,-1.0696 0.48735,-1.5625 3.12582,-1.5625 4.37328,0 4.37153,0 2.40351,4.3162 -1.69887,3.7286 -2.95596,4.0394 -4.02936,0.9963 z M 58.39978,1992.9738 c -1.03125,-0.344 -2.62715,-0.8632 -3.54645,-1.1539 -1.214175,-0.3839 -0.795138,-1.57 1.531675,-4.3353 4.682287,-5.5645 9.193288,-22.4381 5.998637,-22.4381 -0.558875,0 -2.66825,1.7584 -4.6875,3.9076 -7.367424,7.8416 -17.551637,10.3995 -26.506949,6.6577 -10.101838,-4.2208 -15.379813,-12.7736 -16.2673,-26.3609 -0.522125,-7.9937 -0.222426,-9.5824 2.884512,-15.2908 3.67245,-6.7475 8.603825,-11.046 23.132688,-20.1636 4.92985,-3.0937 12.315987,-9.198 16.413612,-13.5651 l 7.450238,-7.9401 7.735925,8.0063 c 4.25475,4.4035 13.917262,12.2242 21.472237,17.3795 20.150085,13.7497 24.815955,22.9101 20.038965,39.3424 -3.7834,13.0145 -16.339602,22.141 -27.31739,19.8558 -5.061287,-1.0536 -13.2398,-5.7965 -16.456212,-9.5434 l -2.498325,-2.9104 -0.404938,2.8417 c -0.632725,4.4401 3.422613,15.0779 7.532375,19.7587 l 3.7291,4.2472 -3.323825,1.2637 c -3.406338,1.2951 -13.556612,1.5598 -16.911075,0.441 z m -216.25,-304.7435 c 0,-1.4599 3.00374,-6.9338 3.80486,-6.9338 0.49696,0 1.25078,0.9844 1.67516,2.1875 0.42437,1.2031 1.09935,2.8906 1.49995,3.75 0.49862,1.0696 -0.48734,1.5625 -3.1258,1.5625 -2.11979,0 -3.85417,-0.2548 -3.85417,-0.5662 z m 88.4375,-5.2955 c -2.741363,-0.7164 -2.779388,-2.0913 -0.118875,-4.2978 3.67525,-3.0479 8.967662,-19.6525 7.18385,-22.5387 -0.455125,-0.7364 -3.001675,0.8693 -5.961012,3.7586 -6.06665,5.9233 -10.152625,7.6896 -17.787988,7.6896 -10.480938,0 -16.988955,-4.5629 -21.700805,-15.2148 -8.40883,-19.0095 -2.50448,-31.6427 22.058005,-47.196 5.629612,-3.5647 13.564012,-10.0394 17.632,-14.3881 l 7.396325,-7.9067 8.028937,8.2903 c 4.415913,4.5597 13.89765,12.2355 21.070525,17.0573 8.32285,5.595 14.415613,10.7221 16.839075,14.1702 3.478626,4.9495 3.797463,6.26 3.797463,15.608 0,8.2114 -0.578987,11.3808 -2.963937,16.2248 -7.484113,15.2008 -26.657651,17.7675 -39.180188,5.245 -6.259938,-6.26 -7.182038,-1.4214 -2.019038,10.5944 1.32565,3.0852 3.566738,6.8404 4.980175,8.345 1.41345,1.5045 2.196525,3.3397 1.740175,4.0781 -0.808387,1.308 -16.457949,1.6664 -20.994687,0.4808 z m 249.94974,-0.5165 c -2.07115,-1.2053 -1.9641,-1.614 1.43779,-5.4885 3.26069,-3.7137 6.42497,-12.9824 6.42497,-18.8198 0,-2.3904 -3.28063,-2.3396 -4.20338,0.065 -0.39647,1.0332 -3.37927,3.5644 -6.62846,5.625 -4.75326,3.0144 -7.27749,3.7465 -12.91816,3.7465 -14.09939,0 -23.71673,-10.5032 -24.78125,-27.0638 -0.96665,-15.0381 3.24688,-21.0889 24.347,-34.9632 8.56994,-5.6351 16.35816,-11.9079 19.94939,-16.0676 l 5.89109,-6.8236 7.44111,8.1206 c 4.26889,4.6588 12.66225,11.5633 19.68834,16.1961 21.51982,14.1895 26.9687,24.3907 21.9447,41.0842 -4.8378,16.0748 -19.785,23.6486 -33.85538,17.1547 -2.75,-1.2692 -6.36367,-3.7881 -8.03039,-5.5975 -1.66672,-1.8094 -3.49485,-3.2899 -4.0625,-3.2899 -3.55051,0 3.22278,19.5168 8.2041,23.6397 1.68159,1.3917 1.78945,1.982 0.51045,2.7933 -2.32407,1.4743 -18.70126,1.2356 -21.35942,-0.3112 z m -352.09563,-3.3879 c -2.77571,-2.7757 -3.79161,-4.9622 -3.79161,-8.1605 0,-6.5708 0.94061,-8.0189 8.5942,-13.2313 3.86694,-2.6334 8.06873,-5.9444 9.33732,-7.3575 l 2.30652,-2.5695 7.06848,5.4612 c 13.1032,10.1236 13.94348,11.1592 13.94348,17.1833 0,9.5633 -6.70626,14.0554 -15.2391,10.2076 -4.27686,-1.9286 -5.51261,-2.0153 -8.92505,-0.6262 -7.819,3.1829 -9.30573,3.0814 -13.29424,-0.9071 z m 9.54172,-51.0672 c -2.0081,-2.0081 -0.4262,-2.918 5.10417,-2.9358 6.99958,-0.023 9.4747,-1.281 8.86175,-4.5057 -0.35294,-1.8567 -1.75002,-2.4326 -6.65375,-2.7427 -7.54415,-0.477 -9.4013,-1.8531 -9.37636,-6.9481 0.0314,-6.4056 1.21986,-7.2047 10.09468,-6.7867 9.32189,0.439 10.22877,2.586 1.47936,3.5023 -4.92651,0.5159 -5.96818,1.0613 -5.96818,3.125 0,2.0703 0.96651,2.5687 5.62274,2.8995 6.41255,0.4557 10.00226,3.056 10.00226,7.2455 0,4.8894 -4.60977,7.98 -11.90237,7.98 -3.53703,0 -6.80596,-0.375 -7.2643,-0.8333 z m 75.72917,-122.6042 c 83.015625,-0.1774 218.85937,-0.1774 301.875,0 83.01562,0.1775 15.09375,0.3226 -150.9375,0.3226 -166.03125,0 -233.95312,-0.1451 -150.9375,-0.3226 z"
         id="path4727"
         inkscape:connector-curvature="0" />
      <path
         style="fill:#2e2e2e"
         d="m -85.66272,2376.6091 c 82.671875,-0.1775 217.95312,-0.1775 300.625,0 82.67187,0.1774 15.03125,0.3226 -150.3125,0.3226 -165.34375,0 -232.98437,-0.1452 -150.3125,-0.3226 z m -161.56975,-435.3126 c 0,-233.4062 0.14388,-328.8906 0.31973,-212.1875 0.17585,116.7031 0.17585,307.6719 0,424.375 -0.17585,116.7031 -0.31973,21.2188 -0.31973,-212.1875 z m 623.75,0 c 0,-233.4062 0.14387,-328.8906 0.31972,-212.1875 0.17585,116.7031 0.17585,307.6719 0,424.375 -0.17585,116.7031 -0.31972,21.2188 -0.31972,-212.1875 z m -583.90936,390.1024 c -2.15413,-1.3135 -4.82601,-3.6866 -5.9375,-5.2734 -1.85049,-2.642 -2.02089,-35.1004 -2.02089,-384.9386 l 0,-382.0533 2.61037,-3.3185 c 5.93514,-7.5453 -14.88122,-7.0186 277.38963,-7.0186 292.27085,0 271.4545,-0.5267 277.38962,7.0186 l 2.61038,3.3185 0,382.1629 0,382.1629 -2.61038,3.3185 c -5.93532,7.5455 14.90662,7.019 -277.640045,7.0139 -261.491435,0 -267.967905,-0.061 -271.791185,-2.3929 z m 546.06945,-4.8246 2.84716,-2.8472 0,-382.4306 0,-382.4306 -2.84723,-2.8472 -2.84722,-2.8472 -271.18055,0 -271.18055,0 -2.84723,2.8472 -2.84722,2.8472 -0.29742,380.9028 c -0.23733,303.9515 0.0202,381.5292 1.27464,384.0032 0.86463,1.7052 2.96721,3.8084 4.67242,4.6737 2.46873,1.2529 58.03647,1.5126 272.753198,1.2747 l 269.652822,-0.2988 2.84718,-2.8472 z m -407.306077,-34.5729 c -4.209288,-4.381 -13.344775,-11.7064 -20.301076,-16.2786 -13.949577,-9.1688 -18.235097,-13.8372 -20.936497,-22.8074 -3.97064,-13.1849 5.25898,-32.3305 16.799647,-34.8487 1.837638,-0.4009 4.0223,-0.9372 4.854788,-1.1916 3.754275,-1.1474 14.498187,3.0417 18.95,7.3888 2.552975,2.4929 5.383788,4.5326 6.290687,4.5326 3.520001,0 -2.25565,-17.6711 -7.653637,-23.417 -1.458713,-1.5527 -2.230312,-3.245 -1.714663,-3.7607 1.212863,-1.2128 16.9249,-1.2297 19.87385,-0.021 2.0985,0.8599 2.034338,1.2217 -0.898537,5.0669 -3.4184,4.4817 -7.793338,20.575 -6.063538,22.3048 0.583688,0.5837 3.716313,-1.4468 6.9614,-4.5122 17.992638,-16.9964 41.38445,-4.6209 41.465663,21.9375 0.03888,12.7116 -3.877625,18.0764 -21.9481,30.0644 -7.911925,5.2487 -17.26365,12.6963 -20.797088,16.5625 -3.5313,3.8637 -6.602587,7.0071 -6.8251,6.9853 -0.222512,-0.022 -3.848525,-3.6243 -8.057799,-8.0054 z m 251.043247,0.5607 c -3.78207,-4.2491 -11.80376,-10.8408 -18.75,-15.4076 -20.75606,-13.6461 -25.60736,-21.4554 -23.00401,-37.0301 2.40459,-14.3856 11.30109,-22.8664 23.98735,-22.8664 6.7862,0 16.40324,4.6504 18.77264,9.0777 1.847,3.4512 4.97901,3.1322 4.97901,-0.507 0,-4.2498 -3.32603,-13.1176 -7.01725,-18.7094 -1.74351,-2.6412 -2.79976,-5.1724 -2.34723,-5.625 1.45817,-1.4581 17.91543,-0.8968 19.47655,0.6643 1.14944,1.1494 0.76322,2.3473 -1.70108,5.276 -4.00191,4.756 -8.03168,22.6119 -5.10312,22.6119 0.44433,0 3.46711,-2.4874 6.71729,-5.5276 3.25018,-3.0401 8.17613,-6.2067 10.94655,-7.0367 15.62266,-4.6807 30.48663,9.6348 30.48663,29.3616 0,11.8266 -6.63989,20.2632 -24.31249,30.8912 -4.96146,2.9837 -12.83713,9.2244 -17.50145,13.8682 -4.66434,4.6438 -8.60184,8.4302 -8.75,8.4142 -0.14818,-0.016 -3.24389,-3.3708 -6.87939,-7.4552 z m 94.10999,-15.0156 c -0.4657,-0.7535 1.20726,-1.25 4.21194,-1.25 5.89606,0 9.83778,-3.0046 7.55315,-5.7574 -0.79542,-0.9585 -3.58715,-1.7426 -6.20387,-1.7426 -5.43709,0 -8.68622,-2.5716 -8.68622,-6.875 0,-4.9817 3.14305,-6.875 11.41306,-6.875 4.67135,0 7.19411,0.4698 6.71194,1.25 -0.4249,0.6875 -3.53205,1.25 -6.90479,1.25 -4.70127,0 -6.4229,0.5431 -7.3778,2.3273 -2.0341,3.8008 0.9274,6.2639 8.03259,6.6809 l 6.25,0.3668 0.399,4.8728 c 0.25001,3.0532 -0.21674,5.2632 -1.25,5.9183 -2.31884,1.4703 -13.2167,1.3424 -14.149,-0.1661 z m 0,-48.1823 c -15.61791,-13.6333 -14.7745,-12.5433 -14.02571,-18.126 0.37886,-2.8246 1.66745,-6.2171 2.86351,-7.5387 2.6026,-2.8759 9.0468,-3.1689 12.48579,-0.5677 3.15386,2.3854 7.3398,2.4033 9.30141,0.04 1.78511,-2.1509 7.7971,-2.4729 11.28811,-0.6046 3.30236,1.7674 5.51003,9.6754 3.88578,13.9193 -0.69774,1.823 -3.41293,4.8741 -6.03375,6.7802 -2.62083,1.9061 -6.84153,5.0551 -9.37934,6.9978 -2.53781,1.9428 -4.78781,3.5171 -5,3.4985 -0.21219,-0.019 -2.6358,-1.9979 -5.3858,-4.3985 z m 4.61804,-30.8247 c -2.29405,-2.294 -1.77413,-4.743 1.00696,-4.743 2.58134,0 3.19952,1.9632 1.47389,4.6805 -0.76574,1.2059 -1.32348,1.2199 -2.48085,0.062 z M 60.57348,1992.5938 c -6.429875,-1.2422 -6.723287,-1.8611 -2.987113,-6.3013 3.0703,-3.6489 4.631725,-7.9169 6.2687,-17.135 0.961475,-5.4143 -1.410262,-6.5806 -4.968837,-2.4436 -5.65445,6.5737 -11.572588,9.5826 -18.847963,9.5826 -7.929224,0 -12.340125,-1.9967 -17.570612,-7.9539 -10.334725,-11.7706 -9.498925,-31.8563 1.75515,-42.1792 1.953587,-1.7919 9.29515,-7.0066 16.314587,-11.5882 7.485563,-4.8857 15.168813,-11.1171 18.582026,-15.0706 l 5.819387,-6.7406 7.538438,8.0586 c 4.146124,4.4322 12.377975,11.2712 18.292975,15.1978 15.538862,10.3151 19.607952,14.3632 22.678152,22.5608 2.40321,6.4167 2.51007,7.7767 1.1248,14.3148 -4.97278,23.4702 -26.30894,30.9675 -42.693615,15.0021 -3.81435,-3.7168 -4.783912,-4.165 -5.420612,-2.5058 -1.208638,3.1497 2.7235,14.884 6.936462,20.6998 2.614138,3.6087 3.311463,5.4179 2.22025,5.7603 -3.94695,1.2387 -10.735787,1.5733 -15.042175,0.7414 z m -217.1737,-304.9451 c 0,-0.6312 0.34694,-2.0518 0.77098,-3.1569 0.59674,-1.5551 1.16173,-1.6848 2.5,-0.5742 2.54209,2.1098 2.1045,4.8789 -0.77098,4.8789 -1.375,0 -2.5,-0.5165 -2.5,-1.1478 z m 89.6875,-4.6836 c -4.13,-0.7024 -4.157225,-0.8969 -0.787925,-5.6287 5.007313,-7.0321 8.060587,-22.2899 4.4605,-22.2899 -0.901963,0 -2.839162,1.622 -4.304887,3.6046 -5.3126,7.1856 -17.692038,10.7658 -26.161313,7.5659 -11.491345,-4.3418 -19.440685,-21.8316 -16.029285,-35.2671 2.21883,-8.7387 7.01134,-13.8636 22.469473,-24.028 8.3833,-5.5125 16.725074,-12.1905 20.4552,-16.3757 l 6.298825,-7.0671 7.243037,7.8234 c 3.983675,4.3028 12.905175,11.6222 19.825575,16.2653 14.555825,9.7659 19.918788,15.3316 21.914487,22.7431 1.7662005,6.5591 0.63805,16.1131 -2.732862,23.1439 -7.285738,15.1961 -24.612925,18.082 -37.970413,6.3243 -3.149587,-2.7723 -6.0511,-4.7161 -6.4478,-4.3194 -1.691,1.691 1.2673,12.3353 5.280538,18.9999 2.388162,3.966 4.050587,7.5023 3.694287,7.8586 -0.900262,0.9003 -13.035087,1.3564 -17.207437,0.6468 z m 251.5625,0.085 c -1.03125,-0.3857 -2.66239,-0.9525 -3.62475,-1.2597 -1.36546,-0.4359 -1.17785,-1.1691 0.85424,-3.3385 1.43218,-1.5289 3.24437,-4.4674 4.02708,-6.5299 2.0805,-5.4823 3.8486,-15.6935 2.96495,-17.1233 -0.41998,-0.6796 -3.08851,1.0405 -5.93006,3.8222 -9.30004,9.1044 -18.48805,11.0877 -28.32239,6.1136 -7.52868,-3.8079 -12.27672,-10.9566 -13.95807,-21.0154 -2.59476,-15.5233 2.29964,-23.4626 22.739,-36.8854 11.94051,-7.8415 16.58415,-11.7413 22.855,-19.1938 l 3.39624,-4.0362 8.43688,8.5754 c 4.64028,4.7164 14.11457,12.3372 21.05397,16.935 13.39296,8.8737 18.11867,14.1999 20.43638,23.0335 2.41615,9.2087 -1.73045,22.3325 -9.10086,28.8039 -10.09362,8.8623 -23.02594,8.0525 -32.62397,-2.0429 -5.17588,-5.444 -7.46845,-5.1467 -6.36898,0.8259 1.16455,6.3262 5.19941,15.2804 8.43966,18.7295 1.45872,1.5528 2.31943,3.156 1.91269,3.5627 -1.04281,1.0428 -14.92446,1.8694 -17.18701,1.0234 z m -356.12273,-4.1258 c -3.07286,-3.0729 -4.30432,-8.8413 -2.75653,-12.9123 0.67319,-1.7706 3.36829,-4.7788 5.98912,-6.6849 2.62083,-1.9061 6.88213,-5.0877 9.46955,-7.0703 l 4.70442,-3.6048 5.78009,4.76 c 13.53958,11.1501 14.56819,12.4904 13.82692,18.0169 -0.37344,2.7842 -1.65758,6.1435 -2.85364,7.4652 -2.6026,2.8758 -9.0468,3.1688 -12.48579,0.5677 -3.15386,-2.3855 -7.3398,-2.4034 -9.30141,-0.04 -2.20589,2.6579 -9.51093,2.3641 -12.37273,-0.4977 z m 9.24773,-52.6273 c 0.4249,-0.6875 3.43935,-1.25 6.69877,-1.25 5.39439,0 8.92623,-1.5474 8.92623,-3.9107 0,-2.7209 -4.41655,-4.8393 -10.08929,-4.8393 l -6.16071,0 0,-5.625 0,-5.625 8.19877,0 c 5.14754,0 7.91126,0.4652 7.42623,1.25 -0.4249,0.6875 -3.21041,1.25 -6.19003,1.25 -5.33482,0 -7.16091,1.4215 -6.02167,4.6875 0.32102,0.9203 2.73447,1.5625 5.87213,1.5625 3.57332,0 6.00817,0.7526 7.39584,2.2859 2.41986,2.6739 2.71354,7.8193 0.56873,9.9641 -1.84415,1.8441 -17.75814,2.0835 -16.625,0.25 z m 76.5625,-120.9375 c 82.671875,-0.1774 217.95312,-0.1774 300.625,0 82.67187,0.1775 15.03125,0.3227 -150.3125,0.3227 -165.34375,0 -232.98437,-0.1452 -150.3125,-0.3227 z"
         id="path4725"
         inkscape:connector-curvature="0" />
      <path
         style="fill:#060606"
         d="m -85.03772,2376.6091 c 82.328125,-0.1775 217.04687,-0.1775 299.375,0 82.32812,0.1774 14.96875,0.3226 -149.6875,0.3226 -164.65625,0 -232.01563,-0.1452 -149.6875,-0.3226 z m -162.19477,-435.3126 c 0,-232.7187 0.14388,-327.9219 0.31975,-211.5625 0.17586,116.3594 0.17586,306.7656 0,423.125 -0.17587,116.3594 -0.31975,21.1563 -0.31975,-211.5625 z m 623.74999,0 c 0,-232.7187 0.14389,-327.9219 0.31975,-211.5625 0.17587,116.3594 0.17587,306.7656 0,423.125 -0.17586,116.3594 -0.31975,21.1563 -0.31975,-211.5625 z m -581.86772,390 c -1.21365,-0.7843 94.02009,-1.2117 270,-1.2117 175.97991,0 271.21365,0.4274 270,1.2117 -1.19566,0.7727 -99.02009,1.2117 -270,1.2117 -170.97991,0 -268.80434,-0.439 -270,-1.2117 z m -5.74376,-4.0625 -2.38124,-2.8125 2.8125,2.3812 c 2.64306,2.2378 3.38155,3.2438 2.38124,3.2438 -0.2372,0 -1.50283,-1.2656 -2.8125,-2.8125 z m 550.11876,0.3125 c 1.24436,-1.375 2.54372,-2.5 2.88747,-2.5 0.34375,0 -0.39311,1.125 -1.63747,2.5 -1.24436,1.375 -2.54373,2.5 -2.88748,2.5 -0.34375,0 0.39312,-1.125 1.63748,-2.5 z m -552.50802,-386.25 c 0,-210.7187 0.14422,-296.9219 0.32049,-191.5625 0.17627,105.3594 0.17627,277.7656 0,383.125 -0.17627,105.3594 -0.32049,19.1563 -0.32049,-191.5625 z m 556.24999,0 c 0,-210.7187 0.14423,-296.9219 0.3205,-191.5625 0.17627,105.3594 0.17627,277.7656 0,383.125 -0.17627,105.3594 -0.3205,19.1563 -0.3205,-191.5625 z m -411.24827,349.6149 c -4.128475,-4.2569 -13.337413,-11.625 -20.464313,-16.3734 -18.401597,-12.2603 -23.173127,-20.5753 -20.153587,-35.1203 1.64987,-7.9474 5.35966,-13.876 11.106138,-17.7485 9.311462,-6.275 19.291762,-4.8576 28.8679,4.0997 7.453162,6.9716 10.953837,7.1987 15.669187,1.0165 4.042587,-5.3001 11.807213,-9.1729 18.468275,-9.2114 19.515737,-0.1132 30.5513375,27.9533 17.859788,45.4222 -1.4284,1.966 -8.784588,7.6581 -16.347088,12.649 -7.5625,4.991 -16.734975,12.2417 -20.383263,16.1129 -3.6483,3.8711 -6.74205,7.0057 -6.875,6.9658 -0.132962,-0.04 -3.619575,-3.5555 -7.748037,-7.8125 z m 251.55299,1.0514 c -3.27432,-3.6824 -11.76934,-10.6543 -18.87782,-15.493 -19.99297,-13.609 -24.23172,-19.9098 -22.94445,-34.106 2.1007,-23.1669 23.89823,-32.0982 40.36853,-16.5405 3.18686,3.0102 6.94656,5.4732 8.3549,5.4732 1.40832,0 5.49245,-2.7728 9.07582,-6.1618 6.97922,-6.6007 12.2209,-8.4639 20.17839,-7.1726 9.07583,1.4728 15.51836,8.6257 18.59869,20.6494 2.15269,8.4028 1.70591,12.995 -1.96381,20.185 -3.00333,5.8843 -7.02605,9.3829 -22.10567,19.2253 -7.02657,4.5862 -15.17745,11.1311 -18.125,14.5538 -2.94595,3.4208 -5.63752,6.1888 -5.98127,6.1512 -0.34375,-0.038 -3.30399,-3.0815 -6.57831,-6.764 z m 105.32831,-15.5188 c 0,-0.6875 0.5625,-1.5976 1.25,-2.0225 0.6875,-0.4249 1.25,-0.21 1.25,0.4775 0,0.6875 -0.5625,1.5976 -1.25,2.0225 -0.6875,0.4249 -1.25,0.21 -1.25,-0.4775 z m 0.72869,-6.2297 c -0.53847,-0.8713 -0.64145,-1.9217 -0.22887,-2.3343 1.11872,-1.1187 2.33847,0.5266 1.73424,2.3393 -0.4234,1.2702 -0.71784,1.2692 -1.50537,-0.01 z m -14.235,-8.2928 c 0.0255,-2.0625 0.30562,-2.7549 0.62255,-1.5387 0.31692,1.2162 0.29608,2.9037 -0.0464,3.75 -0.34241,0.8463 -0.60171,-0.1488 -0.57623,-2.2113 z m 2.13776,-33.4737 c -2.47145,-2.2144 -6.54958,-5.5972 -9.0625,-7.5171 -3.73349,-2.8525 -4.56895,-4.2961 -4.56895,-7.8947 0,-9.424 6.01626,-13.5994 13.3556,-9.2691 5.40816,3.1909 7.12745,3.1715 11.59447,-0.1311 4.6157,-3.4126 9.31905,-2.3785 11.90219,2.6167 2.85247,5.5161 2.35943,9.7909 -1.56597,13.5776 -2.91036,2.8076 -14.47315,11.4555 -16.53629,12.3677 -0.34375,0.152 -2.6471,-1.5355 -5.11855,-3.75 z m -340.3124,-11.4322 c -1.19715,-3.7979 -3.5582,-8.547 -5.246775,-10.5538 -2.618037,-3.1113 -2.779125,-3.7603 -1.093975,-4.407 2.53885,-0.9742 11.557213,-0.949 15.259175,0.043 2.73605,0.7329 2.766788,0.8725 0.695988,3.1607 -1.191563,1.3166 -3.352525,6.0543 -4.802125,10.5282 l -2.63565,8.1343 -2.176638,-6.9051 z m 250.59336,0 c -0.89835,-3.0426 -2.99127,-7.3724 -4.65092,-9.622 -1.85564,-2.5151 -2.57089,-4.5367 -1.85755,-5.25 1.18929,-1.1893 15.72306,-0.6358 17.00654,0.6477 0.3922,0.3922 -0.72869,2.8377 -2.49087,5.4344 -1.76216,2.5967 -3.54936,6.8814 -3.97153,9.5215 -0.42218,2.6402 -1.1354,4.8003 -1.58494,4.8003 -0.44955,0 -1.55236,-2.4894 -2.45073,-5.5319 z m 93.58759,-20.7181 c 0,-0.6875 0.5625,-1.25 1.25,-1.25 0.6875,0 1.25,0.5625 1.25,1.25 0,0.6875 -0.5625,1.25 -1.25,1.25 -0.6875,0 -1.25,-0.5625 -1.25,-1.25 z M 59.96228,1991.6643 c -3.418325,-0.6584 -3.437575,-0.935 -0.4068,-5.8453 1.323138,-2.1436 3.10635,-6.6842 3.962675,-10.0903 l 1.556963,-6.1927 2.269287,6.6761 c 1.2481,3.6719 3.661962,8.502 5.364125,10.7336 l 3.094837,4.0576 -3.85805,0.7716 c -4.06725,0.8134 -7.342587,0.7832 -11.983037,-0.1105 z m -27.403125,-16.7412 c -2.1811,-0.6313 -6.208225,-3.6956 -8.949163,-6.8095 -5.7719,-6.5572 -8.32335,-14.9963 -7.409462,-24.5073 0.925412,-9.6309 5.62745,-15.1903 22.219775,-26.2712 7.894962,-5.2725 17.053487,-12.5131 20.352275,-16.0903 l 5.997812,-6.5039 9.002188,8.6879 c 4.951212,4.7783 13.648437,11.6548 19.327175,15.2811 12.200395,7.7909 18.151495,14.2878 20.380765,22.25 1.40361,5.0132 1.3348,6.9202 -0.50252,13.9253 -2.48607,9.4787 -6.46802,15.2437 -12.50907,18.1104 -9.3104,4.4181 -22.610375,1.2898 -28.5243,-6.7092 -3.866925,-5.2303 -9.874075,-5.2222 -13.748737,0.019 -3.22805,4.3661 -13.84595,10.0424 -18.479038,9.8788 -1.755637,-0.062 -4.976612,-0.6293 -7.1577,-1.2606 z M -155.35022,1686.2965 c 0,-0.6875 0.5625,-1.25 1.25,-1.25 0.6875,0 1.25,0.5625 1.25,1.25 0,0.6875 -0.5625,1.25 -1.25,1.25 -0.6875,0 -1.25,-0.5625 -1.25,-1.25 z m 87.80365,-4.5808 c -1.155638,-0.4658 -0.894612,-1.5838 0.986688,-4.2258 1.406912,-1.9759 3.231512,-6.4277 4.054662,-9.8929 0.823138,-3.4653 1.863413,-6.3005 2.3117,-6.3005 0.448287,0 1.165775,1.8694 1.594425,4.1543 0.428637,2.2849 2.46,6.8044 4.514113,10.0434 2.054125,3.239 3.734762,6.1508 3.734762,6.4707 0,0.7769 -15.197163,0.5567 -17.19635,-0.2492 z m 250.00189,6e-4 c -1.14658,-0.4623 -0.88794,-1.4992 0.95985,-3.8483 1.39111,-1.7685 3.44518,-6.3612 4.56458,-10.206 1.89944,-6.5239 2.11595,-6.7819 3.24377,-3.8655 3.69297,9.5497 5.2469,12.629 7.31992,14.505 1.26356,1.1435 1.9962,2.5664 1.62809,3.1621 -0.70306,1.1376 -15.01525,1.3417 -17.71621,0.2527 z m -352.77374,-2.888 c -5.65499,-5.655 -4.75223,-13.2919 2.16541,-18.3183 2.57278,-1.8695 6.80998,-5.0333 9.41599,-7.0309 l 4.7382,-3.6319 4.76588,4.1621 c 2.62124,2.2892 6.81717,5.7331 9.3243,7.653 3.72143,2.8498 4.55842,4.2994 4.55842,7.8947 0,9.424 -6.01626,13.5994 -13.3556,9.2691 -5.36603,-3.1661 -7.30948,-3.1712 -11.30331,-0.03 -4.01866,3.1611 -7.17029,3.1709 -10.30929,0.032 z m 74.289925,-14.8604 c -12.643095,-7.7101 -17.583805,-26.6275 -10.231125,-39.1739 3.735,-6.3733 8.740012,-10.657 20.9094,-17.896 4.46875,-2.6583 11.9299,-8.6122 16.580325,-13.2309 l 8.455325,-8.3976 7.169675,7.5169 c 3.943325,4.1343 11.947913,10.6935 17.787987,14.576 5.840075,3.8825 12.537751,8.7418 14.883726,10.7984 13.745762,12.0502 11.050087,37.296 -4.839488,45.3232 -9.547487,4.8232 -19.184413,2.9676 -26.8614,-5.1724 -2.187975,-2.3199 -5.723512,-4.6014 -7.856775,-5.0699 -3.376525,-0.7417 -4.255087,-0.3405 -6.786512,3.0986 -6.75715,9.18 -20.696575,12.8199 -29.211138,7.6276 z m 250.956585,0.2524 c -11.17224,-5.5066 -17.29137,-23.9307 -12.08996,-36.4014 2.81687,-6.7537 8.36775,-12.0174 22.17529,-21.028 6.73125,-4.3927 15.13997,-11.069 18.68605,-14.8362 l 6.44742,-6.8495 5.93209,6.6557 c 3.26265,3.6606 12.57268,11.2242 20.68895,16.808 15.0756,10.3717 19.52134,15.1312 21.78234,23.3199 2.25531,8.1681 -1.13234,20.6924 -7.4043,27.3741 -9.03068,9.6208 -23.39942,8.9731 -33.23437,-1.498 -1.98725,-2.1158 -5.26237,-4.2091 -7.27805,-4.6519 -3.17993,-0.6984 -4.22635,-0.149 -7.90805,4.1523 -2.33375,2.7264 -6.17488,5.8738 -8.53586,6.9942 -5.44499,2.5838 -13.97515,2.5665 -19.26155,-0.039 z m -301.72543,-43.2554 c -0.48907,-4.1449 -0.33565,-4.4869 1.28562,-2.8656 1.39831,1.3983 1.53184,2.53 0.55533,4.7066 -1.198,2.6703 -1.32346,2.5448 -1.84095,-1.841 z m -14.80288,-11.1267 c 0,-2.8646 0.36528,-4.8431 0.81174,-4.3966 1.1481,1.1481 1.25884,9.6066 0.12576,9.6056 -0.51562,-4e-4 -0.9375,-2.3444 -0.9375,-5.209 z m -49.375,-54.7917 c 1.24436,-1.375 2.54372,-2.5 2.88747,-2.5 0.34375,0 -0.39311,1.125 -1.63747,2.5 -1.24436,1.375 -2.54372,2.5 -2.88747,2.5 -0.34375,0 0.39311,-1.125 1.63747,-2.5 z m 549.88124,-0.3125 -2.38124,-2.8125 2.8125,2.3812 c 1.54687,1.3097 2.8125,2.5753 2.8125,2.8125 0,1.0004 -1.00599,0.2619 -3.24376,-2.3812 z m -544.25624,-3.4375 c 2.56667,-1.6587 537.43332,-1.6587 540,0 1.21365,0.7843 -94.02009,1.2117 -270,1.2117 -175.97991,0 -271.21365,-0.4274 -270,-1.2117 z m 120.3125,-45.9375 c 82.328125,-0.1774 217.04687,-0.1774 299.375,0 82.32812,0.1775 14.96875,0.3227 -149.6875,0.3227 -164.65625,0 -232.01563,-0.1452 -149.6875,-0.3227 z"
         id="path4723"
         inkscape:connector-curvature="0" />
    </g>
  </g>
</svg>
