<?xml version="1.0" encoding="UTF-8" standalone="no"?>
<!-- Created with Inkscape (http://www.inkscape.org/) -->

<svg
   xmlns:dc="http://purl.org/dc/elements/1.1/"
   xmlns:cc="http://creativecommons.org/ns#"
   xmlns:rdf="http://www.w3.org/1999/02/22-rdf-syntax-ns#"
   xmlns:svg="http://www.w3.org/2000/svg"
   xmlns="http://www.w3.org/2000/svg"
   xmlns:sodipodi="http://sodipodi.sourceforge.net/DTD/sodipodi-0.dtd"
   xmlns:inkscape="http://www.inkscape.org/namespaces/inkscape"
   width="176.4563mm"
   height="246.30643mm"
   viewBox="0 0 625.23886 872.73931"
   id="svg2"
   version="1.1"
   inkscape:version="0.91 r13725"
   sodipodi:docname="6.svg">
  <defs
     id="defs4">
    <pattern
       y="0"
       x="0"
       height="6"
       width="6"
       patternUnits="userSpaceOnUse"
       id="EMFhbasepattern" />
    <pattern
       y="0"
       x="0"
       height="6"
       width="6"
       patternUnits="userSpaceOnUse"
       id="EMFhbasepattern-7" />
  </defs>
  <sodipodi:namedview
     id="base"
     pagecolor="#ffffff"
     bordercolor="#666666"
     borderopacity="1.0"
     inkscape:pageopacity="0.0"
     inkscape:pageshadow="2"
     inkscape:zoom="0.35"
     inkscape:cx="133.31214"
     inkscape:cy="108.85664"
     inkscape:document-units="px"
     inkscape:current-layer="layer1"
     showgrid="false"
     fit-margin-top="0"
     fit-margin-left="0"
     fit-margin-right="0"
     fit-margin-bottom="0"
     inkscape:window-width="784"
     inkscape:window-height="822"
     inkscape:window-x="800"
     inkscape:window-y="0"
     inkscape:window-maximized="0" />
  <metadata
     id="metadata7">
    <rdf:RDF>
      <cc:Work
         rdf:about="">
        <dc:format>image/svg+xml</dc:format>
        <dc:type
           rdf:resource="http://purl.org/dc/dcmitype/StillImage" />
        <dc:title></dc:title>
      </cc:Work>
    </rdf:RDF>
  </metadata>
  <g
     inkscape:label="Calque 1"
     inkscape:groupmode="layer"
     id="layer1"
     transform="translate(99.740705,231.52033)">
    <g
       transform="translate(940.18852,-1776.8552)"
       id="g4703">
      <path
         style="fill:#fdfdfd"
         d="m -1039.8098,1981.7025 0,-436.25 312.5,0 312.5,0 0,436.25 0,436.25 -312.5,0 -312.5,0 0,-436.25 z"
         id="path4719"
         inkscape:connector-curvature="0" />
      <path
         style="fill:#e6e6e6"
         d="m -1033.6846,2416.3942 c -1.8959,-0.7539 -3.8487,-2.9486 -4.6875,-5.2682 -2.0668,-5.7156 -2.07,-853.1223 0,-858.8378 0.9685,-2.6784 2.7229,-4.4328 5.4013,-5.4013 5.6984,-2.0606 605.63016,-2.0606 611.32863,0 2.67838,0.9685 4.43273,2.7229 5.40125,5.4013 2.06378,5.7073 2.06378,853.1213 0,858.8286 -0.96852,2.6784 -2.72287,4.4328 -5.40125,5.4013 -5.34155,1.9315 -607.17663,1.8097 -612.03913,-0.1239 z m 611.47095,-5.8455 3.65385,-3.6539 0,-425.1923 0,-425.1923 -3.65385,-3.6539 -3.65384,-3.6538 -301.44231,0 -301.4423,0 -3.6539,3.6538 -3.6538,3.6539 0,425.1923 0,425.1923 3.6538,3.6539 3.6539,3.6538 301.4423,0 301.44231,0 3.65384,-3.6538 z m -576.96836,-34.5607 c -2.06099,-1.0772 -4.79039,-2.9027 -6.06549,-4.0566 -6.1617,-5.5763 -5.8123,17.881 -5.8123,-390.2289 0,-336.4355 0.2208,-381.8011 1.8737,-384.9975 1.0305,-1.9928 3.9399,-5.1992 6.4652,-7.1254 l 4.59149,-3.5021 270.81961,0 270.8196,0 4.59151,3.5021 c 2.52534,1.9262 5.43468,5.1326 6.4652,7.1254 1.6529,3.1964 1.87369,48.562 1.87369,384.9975 0,336.4355 -0.22079,381.8011 -1.87369,384.9975 -1.03052,1.9928 -3.93982,5.1992 -6.46512,7.1254 l -4.59143,3.5021 -269.47238,0.3095 c -242.60164,0.2787 -269.84604,0.1142 -273.21959,-1.649 z m 543.12221,-11.7855 c 2.48904,-2.489 2.5,-4.1667 2.5,-382.5 0,-378.3333 -0.0113,-380.011 -2.5,-382.5 -2.4845,-2.4845 -4.16666,-2.5 -271.25,-2.5 -267.08333,0 -268.7655,0.015 -271.25,2.5 -2.489,2.489 -2.5,4.1667 -2.5,382.5 0,378.3333 0.011,380.011 2.5,382.5 2.4845,2.4845 4.16667,2.5 271.25,2.5 267.08334,0 268.7655,-0.015 271.25,-2.5 z m -402.92045,-24.8923 c -5.58222,-7.3199 -11.44918,-12.2194 -26.23639,-21.9101 -11.9812,-7.8519 -17.06253,-13.6969 -20.25003,-23.2936 -4.26778,-12.849 3.44393,-31.1734 15.76431,-37.4588 8.33124,-4.2503 22.25291,-2.6028 28.90931,3.4212 1.22829,1.1116 2.23325,1.6346 2.23325,1.1622 0,-2.4342 -4.18789,-10.3223 -7.45696,-14.0456 -6.16412,-7.0205 -2.66493,-9.9172 11.83196,-9.7946 9.70784,0.082 16.875,2.4667 16.875,5.6146 0,1.2975 -1.17282,2.9867 -2.60626,3.7539 -2.46859,1.3211 -7.30719,10.0764 -7.36629,13.329 -0.0154,0.8497 2.78141,-0.2352 6.39118,-2.4792 16.4435,-10.2218 35.03995,-1.161 40.46971,19.7183 2.53806,9.7597 1.48537,17.396 -3.56464,25.8584 -3.28139,5.4986 -6.32851,8.2095 -17.70609,15.752 -14.14825,9.3793 -23.00843,17.0655 -26.60187,23.0771 -2.93098,4.9034 -5.35131,4.2908 -10.68619,-2.7048 z m 252.44824,2.6878 c -2.68246,-5.1873 -14.20291,-15.5598 -24.63499,-22.1802 -18.64913,-11.8351 -24.21925,-19.648 -24.18766,-33.9264 0.0164,-7.4239 0.64851,-10.1654 3.7355,-16.2015 5.17665,-10.1222 11.71852,-14.5789 22.39784,-15.2589 6.91563,-0.4404 8.85709,-0.053 13.91437,2.7731 3.23252,1.8067 6.13742,3.0248 6.45532,2.7069 1.08324,-1.0832 -4.94312,-11.9963 -7.32993,-13.2737 -2.71273,-1.4518 -3.13723,-5.2488 -0.80336,-7.1857 2.71998,-2.2574 16.06493,-2.9839 22.80012,-1.2412 4.81603,1.2461 6.33801,2.2347 6.63362,4.3089 0.22301,1.5647 -0.61498,3.3966 -2.00136,4.375 -2.9747,2.0994 -6.50726,8.8077 -6.50726,12.3572 0,2.6261 0.0659,2.6178 3.73551,-0.47 2.05454,-1.7288 6.7561,-3.8192 10.44791,-4.6454 5.73307,-1.283 7.64642,-1.1919 13.11432,0.6242 8.28541,2.752 15.25397,10.4706 18.35547,20.331 2.9938,9.5181 2.83099,15.8441 -0.61224,23.7883 -3.37288,7.7818 -8.70836,12.8535 -23.46255,22.3025 -11.98214,7.6737 -19.11483,13.938 -23.00908,20.2079 -3.09864,4.9889 -6.6525,5.2279 -9.04155,0.608 z m 86.20258,-22.3466 c -0.4329,-1.1281 0.0417,-3.3161 1.05468,-4.862 1.66648,-2.5434 1.60969,-3.0209 -0.59665,-5.0177 -3.58829,-3.2473 -3.33525,-11.7909 0.45466,-15.3513 2.30643,-2.1668 4.41312,-2.7179 10.3893,-2.7179 11.0407,0 12.96764,2.2038 12.96764,14.8308 0,8.558 -0.34936,10.0616 -2.89306,12.4513 -2.40788,2.2621 -4.37699,2.7179 -11.74126,2.7179 -7.04966,0 -9.00821,-0.4169 -9.63531,-2.0511 z m 13.64463,-17.9489 c -0.4249,-0.6875 -1.5499,-1.25 -2.5,-1.25 -0.9501,0 -2.0751,0.5625 -2.5,1.25 -0.43989,0.7117 0.63661,1.25 2.5,1.25 1.86339,0 2.93989,-0.5383 2.5,-1.25 z m -9.50846,-27.8415 c -3.16715,-2.9059 -8.06584,-7.1239 -10.88598,-9.3733 -5.90326,-4.7086 -7.56386,-10.0902 -5.2639,-17.0592 1.8678,-5.6595 6.71605,-9.476 12.03768,-9.476 3.20621,0 3.99987,-0.4361 3.44159,-1.8909 -1.11809,-2.9137 1.9301,-5.6091 6.34322,-5.6091 5.02556,0 8.88685,2.6854 7.82818,5.4442 -0.65131,1.6973 0.0861,2.0558 4.22872,2.0558 6.08695,0 10.27606,3.6548 12.43024,10.8448 2.09335,6.987 -0.61764,12.8961 -8.34544,18.1905 -3.2832,2.2493 -7.9033,5.9178 -10.2669,8.1522 -2.3636,2.2344 -4.63304,4.0495 -5.0432,4.0335 -0.41016,-0.016 -3.33705,-2.4065 -6.50421,-5.3125 z M -861.3723,2036.0274 c -4.73928,-1.517 -5.9375,-2.4629 -5.9375,-4.687 0,-1.5326 1.16652,-3.515 2.59229,-4.4054 2.61392,-1.6325 6.15771,-8.5556 6.15771,-12.0297 0,-1.4521 -1.01977,-1.1854 -4.50072,1.1768 -13.26677,9.0031 -30.96139,4.0925 -38.30243,-10.6296 -10.05764,-20.1701 -4.65256,-35.8538 17.12597,-49.6938 13.56858,-8.6227 20.97003,-14.6489 25.62884,-20.8667 2.34464,-3.1292 5.18808,-5.6895 6.31875,-5.6895 1.13069,0 3.83196,2.4733 6.00284,5.4962 4.74521,6.6076 12.20298,12.8706 26.61092,22.348 5.91755,3.8925 12.31795,9.1209 14.22312,11.6187 12.09001,15.8508 6.31122,41.2724 -11.23229,49.4123 -8.24474,3.8254 -20.76268,2.2814 -26.95775,-3.3251 -1.48701,-1.3457 -2.41725,-1.6128 -2.41725,-0.694 0,2.4756 4.55584,10.6078 7.36699,13.1501 3.29753,2.9823 3.37933,6.5064 0.19063,8.213 -4.3339,2.3194 -16.50892,2.6419 -22.87012,0.6057 z m 251.18949,-0.092 c -7.66213,-2.3548 -8.50876,-4.5955 -3.56336,-9.4306 3.53616,-3.4572 7.20917,-11.9457 5.78516,-13.3697 -0.3209,-0.3209 -1.57129,0.2827 -2.77863,1.3415 -6.71412,5.8876 -18.69812,7.7795 -26.92281,4.2504 -12.73524,-5.4645 -20.95377,-25.1464 -16.646,-39.864 2.6794,-9.1542 8.06246,-15.0204 22.13898,-24.1258 13.93613,-9.0146 21.1688,-15.1873 24.93432,-21.28 1.44609,-2.3399 3.49052,-4.2542 4.54319,-4.2542 1.05266,0 5.52301,3.8981 9.93412,8.6625 4.61548,4.9851 13.30945,12.195 20.47961,16.9835 14.66751,9.7957 20.12288,15.709 23.03554,24.969 1.82995,5.818 1.91707,7.7568 0.61074,13.5941 -3.62665,16.2056 -12.58953,25.5022 -25.67211,26.6281 -6.41914,0.5524 -8.31716,0.1573 -14.56824,-3.0327 -3.95312,-2.0174 -7.1875,-3.4556 -7.1875,-3.1961 0,2.1121 4.18031,9.5447 7.48524,13.3088 4.71821,5.3737 3.93657,7.4727 -3.55804,9.5544 -6.05089,1.6807 -10.81074,1.4858 -18.05021,-0.7392 z m -341.46618,-304.6767 c -1.41858,-1.0373 -2.01112,-2.4914 -1.52814,-3.75 0.6513,-1.6973 -0.0861,-2.0558 -4.22872,-2.0558 -6.08695,0 -10.27606,-3.6548 -12.43024,-10.8448 -2.09335,-6.987 0.61765,-12.8961 8.34544,-18.1905 3.2832,-2.2493 7.9033,-5.9178 10.2669,-8.1522 2.3636,-2.2344 4.57471,-4.0625 4.91357,-4.0625 0.33887,0 3.27012,2.3906 6.5139,5.3125 3.24378,2.9219 8.20081,7.1529 11.01562,9.4023 5.89282,4.7092 7.5521,10.0965 5.2542,17.0592 -1.8678,5.6595 -6.71605,9.476 -12.03768,9.476 -3.20621,0 -3.99987,0.4361 -3.44158,1.8909 1.83254,4.7756 -7.51002,7.6684 -12.64327,3.9149 z m 90.58919,-4.8976 c -6.3525,-1.7315 -8.37612,-5.9324 -3.98879,-8.2804 2.58675,-1.3844 6.48879,-8.5596 6.48879,-11.9319 0,-1.7291 -0.8503,-1.553 -5.41371,1.1214 -10.94659,6.4151 -21.97158,5.4177 -31.0806,-2.8117 -6.03008,-5.4478 -7.98464,-9.1037 -10.37299,-19.4021 -1.63723,-7.0596 -1.6379,-8.7241 -0.006,-14.2199 3.0519,-10.2769 8.17679,-15.9236 23.49715,-25.8896 13.14974,-8.5537 22.4834,-16.9041 25.77987,-23.0636 1.41124,-2.637 6.34653,-3.8047 6.34653,-1.5016 0,2.8627 15.28863,17.2844 25.59011,24.1389 20.62895,13.7263 25.00567,19.7064 24.92588,34.0573 -0.10538,18.943 -11.29325,32.0875 -27.51074,32.3219 -4.62619,0.067 -8.18105,-0.8317 -12.8275,-3.2424 -4.22322,-2.191 -6.42775,-2.7962 -6.42775,-1.7644 0,2.291 7.22114,13.3099 8.72248,13.3099 2.02332,0 1.4837,5.9034 -0.61319,6.7081 -4.24718,1.6298 -17.81206,1.894 -23.10929,0.4501 z m 251.5433,0.3394 c -2.93244,-0.6181 -5.88556,-1.4661 -6.5625,-1.8845 -2.15082,-1.3292 -1.32706,-5.4736 1.37546,-6.92 2.47394,-1.324 7.30753,-10.0793 7.36629,-13.3429 0.0163,-0.9045 -1.8257,-0.2673 -4.52749,1.5662 -18.02828,12.2343 -38.19078,2.4131 -42.90235,-20.898 -3.41077,-16.8752 2.81515,-27.149 25.10003,-41.419 10.99537,-7.0409 22.9175,-17.9569 24.27166,-22.2235 1.22845,-3.8705 5.00299,-2.726 8.72568,2.6459 4.70787,6.7934 10.76038,12.0839 24.03936,21.0127 13.67355,9.194 18.71591,14.1122 21.99337,21.4515 7.10966,15.9208 -2.45651,38.4302 -18.33648,43.1461 -7.49615,2.2261 -13.0529,1.5147 -20.68127,-2.6475 -3.00847,-1.6415 -5.6879,-2.9846 -5.95427,-2.9846 -1.30296,0 3.73682,9.5434 7.00617,13.267 3.79102,4.3177 3.91268,7.19 0.36225,8.5524 -3.69808,1.4191 -15.91318,1.8084 -21.27591,0.6782 z m -346.66796,-57.3472 c -2.41625,-1.9565 -2.98341,-3.7971 -3.39058,-11.003 -0.44828,-7.9333 -0.20908,-8.9861 2.87425,-12.6504 3.22455,-3.8322 3.74422,-3.997 12.60329,-3.997 8.95796,0 9.26551,0.1014 10.07321,3.3195 0.59033,2.3521 0.23636,3.7558 -1.21455,4.8168 -1.87268,1.3693 -1.83501,1.6898 0.44068,3.7492 3.63779,3.2922 3.41392,11.8092 -0.4047,15.3966 -3.91119,3.6744 -16.62322,3.8975 -20.9816,0.3683 z m 13.87466,-7.6504 c 0,-0.6875 -1.7207,-1.25 -3.82377,-1.25 -2.23088,0 -3.50195,0.5207 -3.05123,1.25 0.4249,0.6875 2.14559,1.25 3.82377,1.25 1.67818,0 3.05123,-0.5625 3.05123,-1.25 z"
         id="path4717"
         inkscape:connector-curvature="0" />
      <path
         style="fill:#d6d6d6"
         d="m -1033.4222,2416.2081 c -6.7121,-3.7202 -6.2956,24.7837 -6.3433,-434.1343 -0.034,-328.0882 0.3003,-427.26 1.4491,-429.7812 3.3332,-7.3157 -18.2831,-6.8401 310.88571,-6.8401 231.87038,0 303.26855,0.3487 305.78082,1.4934 7.35539,3.3513 6.84007,-29.4033 6.84007,434.7566 0,464.1599 0.51532,431.4053 -6.84007,434.7566 -5.07455,2.3122 -607.59393,2.0649 -611.77233,-0.251 z m 604.8624,-0.7556 c 0,-0.6875 0.94813,-1.25 2.10694,-1.25 2.8688,0 7.89306,-4.9128 7.89306,-7.7179 0,-1.2552 0.5625,-2.2821 1.25,-2.2821 0.83086,0 1.25,-141.6667 1.25,-422.5 0,-280.8333 -0.41914,-422.5 -1.25,-422.5 -0.6875,0 -1.25,-1.0842 -1.25,-2.4093 0,-2.5807 -5.47391,-7.5907 -8.29358,-7.5907 -0.93853,0 -1.70642,-0.5625 -1.70642,-1.25 0,-0.8298 -100.41666,-1.25 -298.75,-1.25 -198.33333,0 -298.75,0.4202 -298.75,1.25 0,0.6875 -0.7679,1.25 -1.7064,1.25 -2.8197,0 -8.2936,5.01 -8.2936,7.5907 0,1.3251 -0.5625,2.4093 -1.25,2.4093 -0.8309,0 -1.25,141.6667 -1.25,422.5 0,280.8333 0.4191,422.5 1.25,422.5 0.6875,0 1.25,0.9481 1.25,2.1069 0,2.8688 4.9128,7.8931 7.7179,7.8931 1.2552,0 2.2821,0.5625 2.2821,1.25 0,0.8299 100.41667,1.25 298.75,1.25 198.33334,0 298.75,-0.4201 298.75,-1.25 z m -572.6247,-41.4171 c -2.4749,-1.4353 -5.428,-4.1811 -6.5625,-6.1017 -1.905,-3.2247 -2.0628,-32.7789 -2.0628,-386.2312 0,-354.3579 0.1539,-382.9997 2.0749,-386.2518 1.1412,-1.9319 4.1709,-4.6906 6.7327,-6.1304 l 4.65779,-2.6178 269.03461,0 269.03461,0 4.65779,2.6178 c 2.56178,1.4398 5.59149,4.1985 6.73269,6.1304 1.92105,3.2521 2.07491,31.8939 2.07491,386.2518 0,354.3579 -0.15386,382.9997 -2.07491,386.2518 -1.1412,1.9319 -4.17091,4.6906 -6.73269,6.1304 l -4.65779,2.6178 -269.2048,-0.029 -269.20481,-0.029 -4.4997,-2.6097 z m 545.55765,-8.4234 c 1.91448,-1.589 2.06705,-29.8749 2.06705,-383.1986 0,-327.4939 -0.2511,-381.8265 -1.77424,-383.9095 -1.74682,-2.3889 -5.94846,-2.4264 -271.97576,-2.4264 -266.1326,0 -270.22828,0.037 -271.97778,2.4292 -1.52742,2.0889 -1.73222,55.9216 -1.46172,384.3381 l 0.3145,381.9089 3.125,1.5857 c 4.81855,2.445 538.72439,1.728 541.68295,-0.7274 z m -400.16126,-23.3796 c -2.83349,-5.0632 -15.78301,-16.6058 -26.72854,-23.8246 -13.21607,-8.7163 -17.68195,-13.2389 -21.2175,-21.487 -7.74457,-18.0674 7.13958,-42.7044 25.79935,-42.7044 4.81112,0 11.83011,2.6097 15.63897,5.8147 2.11289,1.7778 4.13824,2.9359 4.50078,2.5733 1.15456,-1.1545 -4.59955,-13.0458 -7.74078,-15.9968 -3.88571,-3.6504 -3.83027,-5.9104 0.1824,-7.436 4.20435,-1.5985 16.19089,-1.5461 22.10613,0.097 3.40452,0.9455 4.6875,1.9807 4.6875,3.7822 0,1.3643 -0.86771,2.8135 -1.92825,3.2205 -2.87956,1.105 -9.8894,16.6816 -7.50711,16.6816 0.33675,0 3.11773,-1.766 6.17996,-3.9245 18.74269,-13.211 42.0054,2.2169 42.0054,27.8582 0,13.0458 -5.42214,20.399 -24.09656,32.6785 -12.47008,8.1998 -25.90344,20.3987 -25.90344,23.523 0,1.9091 -4.81691,1.22 -5.97831,-0.8553 z m 248.13577,-2.9856 c -4.29372,-6.0704 -13.79543,-14.1506 -25.28246,-21.5003 -15.80109,-10.1098 -21.79544,-18.4795 -21.84755,-30.5046 -0.0439,-10.1283 3.15533,-18.788 9.15902,-24.7917 9.29654,-9.2965 21.12786,-10.4516 32.59109,-3.1818 3.14734,1.996 5.72244,3.0609 5.72244,2.3664 0,-2.8364 -3.98116,-10.4905 -7.60077,-14.6131 -3.44074,-3.9187 -3.65454,-4.5996 -1.97246,-6.2817 3.71849,-3.7185 22.66508,-3.5134 27.84194,0.3014 2.26033,1.6656 2.19766,1.9053 -1.53857,5.8862 -3.60614,3.8423 -6.73014,10.4546 -6.73014,14.2452 0,0.9817 2.7418,-0.054 7.11396,-2.6865 8.43089,-5.0768 16.45374,-5.7147 23.87334,-1.8983 13.30269,6.8426 20.59366,24.6962 15.88035,38.8866 -3.00136,9.0363 -8.62477,14.768 -25.27719,25.7642 -10.05162,6.6374 -15.8036,11.4146 -19.4881,16.1855 -2.87505,3.7228 -6.07111,6.7588 -7.10236,6.7468 -1.03125,-0.012 -3.43539,-2.228 -5.34254,-4.9243 z m 89.34254,-19.0443 c -2.39291,-2.3929 -1.75949,-4.5294 1.9375,-6.535 2.2988,-1.2472 2.74293,-1.8815 1.34073,-1.9149 -2.85932,-0.068 -7.27823,-5.9514 -7.27823,-9.6898 0,-1.7073 1.61034,-4.6629 3.65385,-6.7064 4.20174,-4.2018 11.44964,-4.9574 17.50675,-1.8251 4.43838,2.2951 5.0894,4.0243 5.0894,13.5175 0,6.5901 -0.4623,8.1244 -3.35886,11.1478 -2.89895,3.0259 -4.31958,3.5059 -10.375,3.5059 -3.85888,0 -7.69114,-0.675 -8.51614,-1.5 z m 12.32773,-17.875 c 0,-0.6875 -1.42374,-1.428 -3.16387,-1.6455 -2.25487,-0.2819 -3.16386,0.1908 -3.16386,1.6455 0,1.4547 0.90899,1.9274 3.16386,1.6455 1.74013,-0.2175 3.16387,-0.958 3.16387,-1.6455 z m -10.07773,-29.4285 c -17.28311,-15.3351 -16.25,-14.0422 -16.25,-20.3352 0,-4.6604 0.72443,-6.6326 3.63134,-9.886 3.01784,-3.3776 4.47929,-4.042 8.65052,-3.9326 4.6659,0.1224 5.00421,-0.099 4.80618,-3.143 -0.20033,-3.0793 0.1225,-3.2747 5.41196,-3.2747 5.33216,0 5.62226,0.1812 5.57245,3.4797 -0.047,3.1117 0.29364,3.4037 3.22034,2.7609 11.34012,-2.4907 19.65377,13.611 11.82901,22.9102 -1.7205,2.0448 -5.79862,5.4379 -9.0625,7.5403 -3.26386,2.1024 -6.64219,4.9726 -7.50739,6.3782 -2.21401,3.597 -3.89127,3.1903 -10.30191,-2.4978 z m -345.78744,-237.997 c -5.662,-2.464 -6.29046,-4.3088 -2.52109,-7.4005 3.4436,-2.8244 7.05853,-10.2507 7.05853,-14.5006 0,-2.2857 -0.54095,-2.119 -5.5631,1.7145 -15.82509,12.0796 -35.6363,3.3687 -41.3751,-18.1923 -2.46667,-9.2675 -2.24829,-13.2058 1.13526,-20.4718 3.84141,-8.2492 8.71408,-12.9444 23.19703,-22.3522 7.35316,-4.7764 15.04315,-11.1289 19.90883,-16.4463 l 7.92792,-8.6638 3.92605,4.9943 c 5.92461,7.5366 13.01766,13.8498 22.71811,20.2204 14.85835,9.758 19.49019,14.0983 22.82964,21.3926 8.1151,17.7257 -2.26783,40.8177 -19.79406,44.0226 -6.62487,1.2114 -14.44433,-0.614 -19.65512,-4.5885 -2.29331,-1.7492 -4.44133,-2.9087 -4.7734,-2.5766 -1.31455,1.3145 1.32048,7.6811 5.38055,13.0001 4.82856,6.3257 4.93483,9.2645 0.38083,10.5317 -5.30935,1.4773 -16.67444,1.1035 -20.78088,-0.6836 z m 250.8629,0.1215 c -5.57012,-2.0965 -6.08072,-4.0066 -2.16762,-8.109 3.17086,-3.3242 4.74567,-6.5659 6.28726,-12.9421 l 0.81115,-3.3551 -6.20284,4.1742 c -10.4191,7.0116 -18.88539,7.2195 -29.14079,0.7157 -10.04098,-6.3678 -15.82401,-23.8525 -12.18634,-36.845 2.30134,-8.2196 8.64901,-14.7551 24.37337,-25.0946 13.28914,-8.7383 17.72189,-12.6613 24.0128,-21.252 l 2.73745,-3.7381 8.2799,9.039 c 5.11396,5.5829 12.90944,12.0828 20.38755,16.9993 19.52152,12.8345 26.39093,22.7471 24.83979,35.844 -0.86514,7.3047 -4.82744,16.8517 -8.7307,21.0363 -9.15751,9.8174 -26.05297,10.6249 -36.1966,1.73 -1.20734,-1.0587 -2.42262,-1.694 -2.7006,-1.4118 -1.12939,1.1467 3.07441,10.4756 6.82175,15.1387 3.69491,4.5978 3.8467,5.1375 1.97201,7.0122 -2.62865,2.6286 -17.25278,3.2958 -23.19754,1.0583 z m -340.84563,-305.1236 c -0.41102,-1.071 -0.40642,-2.8357 0.0103,-3.9214 0.61721,-1.6085 0.10341,-1.8304 -2.77411,-1.1984 -11.57827,2.543 -20.02302,-13.4229 -12.08774,-22.8534 1.72051,-2.0447 5.79864,-5.4378 9.0625,-7.5403 3.26387,-2.1024 6.6422,-4.9726 7.5074,-6.3782 2.20833,-3.5877 3.43931,-3.2668 10.57419,2.7568 14.94702,12.619 15.97768,13.9185 15.97768,20.1457 0,4.5837 -0.73772,6.578 -3.63133,9.8165 -3.01785,3.3776 -4.47929,4.042 -8.65054,3.9326 -4.6659,-0.1224 -5.0042,0.099 -4.80616,3.143 0.19515,2.9999 -0.23378,3.307 -5.11091,3.6596 -3.92018,0.2835 -5.52097,-0.1285 -6.07123,-1.5625 z m 89.92345,-4.0677 c -1.49696,-0.2914 -3.41308,-1.3628 -4.25807,-2.381 -1.2619,-1.5205 -0.8278,-2.5822 2.4301,-5.9435 3.55909,-3.672 6.42469,-10.0095 6.42469,-14.2087 0,-0.8702 -2.43502,0.1714 -5.57521,2.3848 -6.38914,4.5035 -16.23558,6.0151 -23.52045,3.6109 -8.97415,-2.9617 -15.96823,-12.5581 -18.72232,-25.6883 -1.19197,-5.6828 -1.08319,-7.8703 0.66687,-13.4097 2.96019,-9.3698 8.36559,-15.234 22.4924,-24.4013 14.1048,-9.153 20.97934,-15.0145 24.73336,-21.0887 2.39902,-3.8817 7.42535,-5.9835 7.42535,-3.1049 0,2.8879 13.76106,15.7198 25.35128,23.6394 19.75035,13.4954 24.64872,19.943 24.64872,32.4443 0,26.8363 -23.73111,41.5357 -43.4375,26.9058 -2.60127,-1.9312 -4.05263,-2.4311 -4.03505,-1.3899 0.0495,2.9288 4.5566,11.6735 7.84626,15.2231 5.65009,6.0965 2.40519,8.3552 -11.62371,8.0907 -4.46875,-0.084 -9.34978,-0.3916 -10.84672,-0.683 z m 249.90922,-0.5282 c -4.95904,-1.4318 -5.40093,-4.937 -0.987,-7.8291 2.9002,-1.9003 7.80939,-14.0542 6.29032,-15.5732 -0.34412,-0.3442 -1.88908,0.5295 -3.43324,1.9413 -7.59354,6.943 -19.47428,8.6797 -28.36147,4.1458 -9.79746,-4.9983 -16.32111,-17.0622 -16.32111,-30.1818 0,-12.7852 5.20916,-19.9224 23.15105,-31.7201 8.66445,-5.6973 16.75695,-12.254 21.46311,-17.39 4.15499,-4.5344 8.11508,-8.2444 8.80019,-8.2444 0.6851,0 2.82416,2.2778 4.75346,5.0618 4.21793,6.0865 11.06912,11.8585 26.60467,22.414 12.6612,8.6026 16.65967,12.9333 19.57799,21.2047 2.51599,7.1311 2.39542,11.9868 -0.50712,20.4232 -3.33584,9.6958 -7.01927,14.1816 -14.75125,17.9645 -8.7016,4.2573 -16.47795,3.6805 -25.433,-1.8862 -6.02529,-3.7455 -6.28651,-3.7992 -5.45824,-1.1204 1.56364,5.057 5.22988,11.5153 7.91613,13.9446 3.51397,3.178 3.32085,5.5442 -0.57336,7.0247 -3.96126,1.5061 -17.25722,1.4012 -22.73113,-0.1794 z m -343.26893,-56.1922 c -3.02354,-2.3783 -3.29357,-3.3428 -3.29357,-11.7639 0,-8.7087 0.19473,-9.337 3.84591,-12.4093 3.06309,-2.5774 5.16214,-3.2322 10.3125,-3.217 7.81321,0.023 9.94498,1.1862 9.38846,5.1223 -0.37083,2.6226 -1.25363,3.0724 -7.29687,3.7174 -6.54568,0.6986 -6.61781,0.7435 -1.50568,0.9375 10.43471,0.3959 15.29659,10.5598 8.19815,17.1384 -4.4181,4.0946 -14.73021,4.3436 -19.6489,0.4746 z m 14.20643,-7.3855 c 0,-1.5499 -5.66673,-3.0318 -7.42896,-1.9427 -2.6687,1.6493 -1.20426,3.1689 3.05396,3.1689 2.40625,0 4.375,-0.5518 4.375,-1.2262 z"
         id="path4715"
         inkscape:connector-curvature="0" />
      <path
         style="fill:#a5a5a5"
         d="m -1031.6848,2416.433 c -3.2861,-1.8974 -4.9186,-3.575 -6.6776,-6.8616 -2.0891,-3.9037 -2.0891,-851.8341 0,-855.7378 1.8268,-3.4134 3.5203,-5.1069 6.9337,-6.9337 3.8991,-2.0867 604.33865,-2.0867 608.23779,0 3.41341,1.8268 5.10689,3.5203 6.93368,6.9337 2.08918,3.9037 2.08918,851.8341 0,855.7378 -1.82679,3.4134 -3.52027,5.1069 -6.93368,6.9337 -3.89216,2.083 -604.88479,2.0118 -608.49389,-0.072 z m 607.527,-1.7021 c 8.84406,-4.1968 8.098,35.6975 8.098,-433.0284 0,-382.3907 -0.18821,-423.1438 -1.97159,-426.902 -4.17032,-8.7883 22.19338,-8.098 -309.27841,-8.098 -331.4718,0 -305.1081,-0.6903 -309.2784,8.098 -1.7834,3.7582 -1.9716,44.5113 -1.9716,426.902 0,381.6755 0.1908,423.1492 1.9637,426.8854 4.1507,8.7469 -22.3139,8.0546 309.09739,8.0861 269.90611,0.026 299.5927,-0.1644 303.34091,-1.9431 z m -575.63623,-40.872 c -3.17137,-1.6771 -6.32887,-4.6177 -7.69657,-7.168 -2.2444,-4.1849 -2.3192,-16.6053 -2.3192,-384.9884 0,-368.3831 0.075,-380.8035 2.3192,-384.9883 1.3677,-2.5504 4.5252,-5.491 7.69657,-7.168 l 5.37744,-2.8437 267.10679,0 267.10679,0 5.37743,2.8437 c 3.17139,1.677 6.32886,4.6176 7.69661,7.168 2.24434,4.1848 2.31917,16.6052 2.31917,384.9883 0,368.3831 -0.0749,380.8035 -2.31917,384.9884 -1.36775,2.5503 -4.52522,5.4909 -7.69661,7.168 l -5.37743,2.8436 -267.10679,0 -267.10679,0 -5.37744,-2.8436 z m 544.98423,-8.4064 c 2.48907,-2.4891 2.5,-4.1667 2.5,-383.75 0,-379.5833 -0.0113,-381.2609 -2.5,-383.75 -2.48456,-2.4846 -4.16666,-2.5 -272.5,-2.5 -268.33333,0 -270.01543,0.015 -272.5,2.5 -2.4891,2.4891 -2.5,4.1667 -2.5,383.75 0,379.5833 0.011,381.2609 2.5,383.75 2.48457,2.4846 4.16667,2.5 272.5,2.5 268.33334,0 270.01544,-0.015 272.5,-2.5 z m -406.21397,-30.2351 c -4.98533,-5.4753 -12.75689,-11.962 -20.25479,-16.9062 -13.10718,-8.6429 -18.70821,-14.1209 -21.6589,-21.1829 -5.68499,-13.6061 2.31122,-34.5378 15.27501,-39.9855 7.37196,-3.0979 15.31001,-2.1809 23.42564,2.7061 4.0155,2.418 7.4448,4.2461 7.62067,4.0625 0.96285,-1.0054 -3.92867,-12.2417 -7.05157,-16.1981 -4.45349,-5.6422 -4.53986,-6.9878 -0.51339,-7.9984 5.17549,-1.299 21.33629,-0.012 23.61658,1.8799 1.92121,1.5945 1.78422,2.0373 -1.67722,5.4215 -3.75393,3.6702 -6.29782,10.0621 -6.31108,15.8576 l -0.008,3.0463 3.4375,-3.2061 c 18.37992,-17.1428 44.0364,-3.7231 44.34033,23.1924 0.16082,14.2411 -4.39647,20.5216 -24.46772,33.7196 -8.63799,5.68 -16.6077,12.1198 -20.8367,16.8367 l -6.84841,7.6386 -8.08898,-8.884 z m 253.94072,3.4889 c -4.81535,-6.7052 -12.4341,-13.1151 -26.61211,-22.3895 -5.9182,-3.8714 -12.3186,-9.0818 -14.2231,-11.5787 -7.1827,-9.417 -8.20073,-20.8432 -2.94197,-33.02 7.4571,-17.2671 26.29654,-21.646 40.73793,-9.4689 3.52623,2.9733 4.05887,3.1221 4.03505,1.1269 -0.0429,-3.5919 -4.78375,-13.1968 -8.3618,-16.9409 -2.79084,-2.9203 -3.0072,-3.6751 -1.55509,-5.4248 1.38678,-1.6709 3.7444,-1.9569 13.25515,-1.6077 13.94342,0.512 16.22207,1.9161 11.3545,6.9968 -3.38705,3.5353 -7.16531,12.4052 -7.16531,16.8213 0,2.2617 0.30541,2.1969 3.89985,-0.8276 9.57621,-8.0578 20.31355,-9.6504 29.65755,-4.3987 11.69652,6.5738 17.86943,23.694 13.67897,37.938 -1.91546,6.5109 -12.50383,17.2676 -23.21069,23.5797 -10.25267,6.0443 -17.99122,12.59 -22.79879,19.2844 -2.13523,2.9733 -4.31443,5.4059 -4.84266,5.4059 -0.52824,0 -2.7366,-2.4733 -4.90748,-5.4962 z m 88.99825,-20.0689 c -1.19364,-3.1106 0.71742,-4.4349 6.4,-4.4349 3.0126,0 5.8251,-0.5625 6.25,-1.25 0.4649,-0.7522 -1.18083,-1.25 -4.13265,-1.25 -6.79829,0 -11.49235,-3.8464 -11.49235,-9.417 0,-6.2587 3.89764,-9.333 11.83258,-9.333 10.1123,0 11.91742,1.9988 11.91742,13.1959 0,12.2255 -1.82215,14.3041 -12.53922,14.3041 -5.43794,0 -7.73338,-0.5059 -8.23578,-1.8151 z m 12.65,-16.327 c 0,-1.9229 -0.84191,-2.4829 -3.73288,-2.4829 -4.25167,0 -6.04986,3.7628 -2.27598,4.7627 3.96268,1.0498 6.00886,0.2735 6.00886,-2.2798 z m -8.00212,-28.6021 c -1.5471,-1.6468 -5.58329,-4.8812 -8.96932,-7.1875 -7.97247,-5.4303 -10.724,-10.9007 -8.76746,-17.4311 1.98793,-6.635 6.94569,-10.2977 12.86984,-9.5077 4.52537,0.6034 4.6147,0.5362 3.91826,-2.946 -0.60823,-3.0411 -0.25056,-3.6794 2.44013,-4.3548 1.73405,-0.4352 4.33736,-0.1573 5.78513,0.6175 2.10193,1.1249 2.37725,1.8854 1.36643,3.7741 -1.92592,3.5986 -1.67233,3.7872 4.04661,3.0091 13.85391,-1.885 19.02925,15.6478 7.2635,24.607 -2.1948,1.6712 -6.40705,5.148 -9.36056,7.7261 -2.95352,2.5781 -5.91219,4.6875 -6.57484,4.6875 -0.66265,0 -2.47062,-1.3474 -4.01772,-2.9942 z M -862.6223,2033.9997 c -4.349,-1.5884 -4.31811,-2.8589 0.17882,-7.3558 3.50638,-3.5064 7.59743,-15.3943 5.88651,-17.1052 -0.4284,-0.4284 -2.31992,0.6627 -4.20337,2.4247 -5.20563,4.87 -10.82215,7.2391 -17.16218,7.2391 -19.8431,0 -33.2532,-25.4844 -23.6017,-44.8524 3.53751,-7.0989 8.96891,-11.8977 24.21828,-21.3976 4.96613,-3.0937 12.62187,-9.4903 17.01274,-14.2147 l 7.9834,-8.5896 8.23766,8.8974 c 4.53072,4.8936 12.97845,12.0195 18.77275,15.8353 20.45248,13.469 24.72058,19.2384 24.64574,33.3143 -0.083,15.6201 -9.52975,28.5355 -22.26904,30.4458 -7.36211,1.104 -12.067,-0.1374 -19.5145,-5.1492 l -6.31212,-4.2478 0.8703,4.0418 c 1.1963,5.5556 3.98659,10.8795 7.89941,15.0721 3.21764,3.4476 3.23798,3.572 0.86839,5.3125 -2.83105,2.0793 -18.13268,2.2936 -23.51109,0.3293 z m 252.1875,0.5483 c -5.24489,-1.2892 -5.93831,-3.0066 -2.6149,-6.4764 3.71685,-3.8805 6.9899,-11.286 6.9899,-15.8151 l 0,-3.2762 -4.0625,3.4255 c -8.63704,7.2828 -18.61876,8.7473 -28.15517,4.1308 -9.88971,-4.7875 -15.53233,-15.6641 -15.53233,-29.9397 0,-12.4257 5.36623,-19.5019 24.02454,-31.68 12.10324,-7.8996 19.84304,-14.5948 24.66912,-21.3394 l 2.68329,-3.75 7.67673,8.4549 c 4.54383,5.0045 12.60346,11.7181 19.74902,16.451 19.07326,12.6331 25.1973,20.4899 25.1973,32.3271 0,26.2589 -25.3366,41.3428 -43.15916,25.6943 l -4.34084,-3.8113 0.015,3.567 c 0.0164,3.8966 5.37494,14.2184 8.21108,15.8166 2.51627,1.418 2.19678,4.3111 -0.64397,5.8314 -2.41735,1.2938 -15.98985,1.549 -20.70717,0.3895 z m -339.69576,-304.2002 c -1.69349,-0.9863 -1.90794,-1.8166 -0.9375,-3.6299 1.91743,-3.5827 1.66074,-3.7723 -4.05424,-2.9948 -13.85392,1.885 -19.02924,-15.6478 -7.2635,-24.6069 2.1948,-1.6713 6.40705,-5.1481 9.36056,-7.7262 2.95351,-2.5781 5.91218,-4.6875 6.57484,-4.6875 0.66265,0 2.47062,1.3474 4.01773,2.9942 1.5471,1.6468 5.58329,4.8812 8.9693,7.1875 7.97248,5.4303 10.724,10.9007 8.76747,17.4311 -1.9955,6.6604 -6.9424,10.2981 -12.92015,9.501 -4.48167,-0.5976 -4.64766,-0.4904 -3.89332,2.5152 1.18395,4.7172 -3.5948,6.9434 -8.62119,4.0163 z m 86.88326,-6.1842 c -3.60982,-1.451 -3.55191,-1.9139 0.86931,-6.9494 3.55229,-4.0458 6.29674,-11.0287 6.31122,-16.0581 0.006,-2.2014 -0.3053,-2.1292 -3.43053,0.7948 -8.53725,7.9876 -18.15749,10.0359 -27.75124,5.9088 -14.559,-6.2631 -21.70035,-26.7252 -14.58215,-41.7822 3.7337,-7.8978 7.02934,-10.9548 23.90671,-22.1758 9.03892,-6.0095 15.35245,-11.2592 18.69383,-15.5437 4.47168,-5.7339 9.42035,-8.6445 9.42035,-5.5407 0,2.8763 12.53511,14.5176 24.13296,22.4121 19.963,13.5886 24.89366,19.8932 25.05269,32.0339 0.17384,13.2719 -6.8257,26.2862 -16.25712,30.2269 -8.78343,3.6699 -20.51747,1.5887 -27.6111,-4.8972 -1.54417,-1.4118 -3.13003,-2.2446 -3.52414,-1.8505 -1.49669,1.4967 2.53405,11.1845 6.65807,16.0025 6.0908,7.1157 4.42017,8.7323 -8.91691,8.6283 -5.5877,-0.044 -11.42507,-0.588 -12.97195,-1.2097 z m 250.625,0.4272 c -2.90138,-0.7582 -2.79711,-4.9741 0.16219,-6.5578 2.8608,-1.5311 6.40031,-9.9653 6.40031,-15.2512 l 0,-3.8702 -4.91152,4.4373 c -4.46514,4.034 -11.50714,7.0897 -16.33848,7.0897 -14.07124,0 -26.41384,-14.7813 -26.45926,-31.6871 -0.0386,-14.3579 3.87407,-19.8514 23.1801,-32.5461 8.57969,-5.6415 16.82707,-12.274 21.00902,-16.8952 7.25553,-8.0176 8.93228,-8.8829 10.7878,-5.5673 2.48685,4.4438 15.07254,15.9485 23.35734,21.3512 14.77109,9.6325 19.48119,14.0382 22.83126,21.3558 2.6008,5.6809 3.00893,8.0858 2.48337,14.6333 -0.8466,10.5469 -5.90344,19.8334 -13.43963,24.6809 -5.0455,3.2454 -6.48932,3.5727 -14.01466,3.1776 -7.03274,-0.3693 -9.3131,-1.0914 -14.09905,-4.4649 -3.14016,-2.2133 -5.94728,-4.0243 -6.23805,-4.0243 -1.6057,0 3.54481,12.322 6.89099,16.4859 5.87287,7.308 4.62903,8.5417 -8.4375,8.3691 -6.0372,-0.08 -11.9611,-0.4022 -13.16423,-0.7167 z m -342.61876,-56.4242 c -1.51795,-1.6773 -2.06874,-4.6596 -2.06874,-11.2013 0,-11.7937 2.09468,-14.0128 13.22697,-14.0128 5.93632,0 7.93449,0.4663 8.51835,1.9878 1.25453,3.2693 -0.3169,4.2622 -6.74532,4.2622 -6.17329,0 -9.13221,1.6062 -5.51559,2.994 1.08353,0.4158 3.80562,0.756 6.04909,0.756 5.22955,0 8.2165,3.3045 8.2165,9.09 0,6.1027 -3.45258,8.41 -12.5844,8.41 -5.22125,0 -7.55999,-0.5877 -9.09686,-2.2859 z m 13.95018,-6.7766 c 0.32893,-1.7363 -0.46386,-2.1875 -3.84393,-2.1875 -4.89236,0 -6.03792,0.7512 -5.0543,3.3145 1.01166,2.6364 8.36166,1.7054 8.89823,-1.127 z"
         id="path4713"
         inkscape:connector-curvature="0" />
      <path
         style="fill:#6f6f6f"
         d="m -1030.6279,2416.9959 c -0.7938,-0.5051 135.6994,-0.9184 303.3181,-0.9184 167.6187,0 304.11186,0.4133 303.31814,0.9184 -0.79373,0.5051 -137.28689,0.9183 -303.31814,0.9183 -166.03125,0 -302.5244,-0.4132 -303.3181,-0.9183 z m -8.4232,-8.5206 c -1.0958,-2.8558 -0.899,-852.1172 0.1979,-853.8409 0.5051,-0.7938 0.9184,191.4406 0.9184,427.1875 0,235.7468 -0.08,428.6306 -0.1788,428.6306 -0.098,0 -0.5202,-0.8897 -0.9375,-1.9772 z m 622.3663,-426.7728 c 0,-235.6812 0.41326,-427.8619 0.91836,-427.0681 1.2008,1.8869 1.2008,852.2493 0,854.1362 -0.5051,0.7938 -0.91836,-191.3869 -0.91836,-427.0681 z m -583.4148,391.1765 c -2.5657,-1.3546 -5.5188,-4.1143 -6.5625,-6.1326 -1.6848,-3.258 -1.8977,-46.4643 -1.8977,-385.0439 0,-338.8514 0.2119,-381.784 1.9008,-385.0498 1.0454,-2.0216 4.1167,-4.8062 6.82516,-6.1879 4.88706,-2.4932 6.95581,-2.5123 272.52404,-2.5123 265.56824,0 267.63698,0.019 272.52404,2.5123 2.70845,1.3817 5.77978,4.1663 6.8252,6.1879 1.68882,3.2658 1.90076,46.1984 1.90076,385.0498 0,338.8514 -0.21194,381.784 -1.90076,385.0498 -1.04541,2.0216 -4.11675,4.8062 -6.8252,6.1879 -4.88813,2.4938 -6.90015,2.5119 -272.78674,2.4571 -264.05375,-0.055 -267.92863,-0.09 -272.5271,-2.5183 z m 543.21815,-5.0643 c 1.67527,-0.7633 3.6705,-2.7586 4.43381,-4.4338 1.98015,-4.346 1.98015,-759.0108 0,-763.3567 -0.76331,-1.6753 -2.75854,-3.6705 -4.43381,-4.4339 -4.33945,-1.9771 -536.51726,-1.9771 -540.85669,0 -1.67529,0.7634 -3.67046,2.7586 -4.43386,4.4339 -1.9844,4.3553 -1.9797,759.0116 0,763.3671 0.7659,1.681 2.59405,3.6382 4.06249,4.3492 3.90711,1.8919 537.0735,1.9649 541.22325,0.074 z m -403.85526,-33.5783 c -4.64485,-5.0785 -12.73804,-11.7853 -20.00034,-16.5741 -14.5111,-9.5687 -19.44761,-14.8388 -22.26171,-23.7661 -1.95417,-6.1994 -1.956,-7.1929 -0.0273,-14.7332 1.13751,-4.447 3.43874,-10.066 5.11382,-12.4867 8.19258,-11.8391 23.9189,-13.6792 36.27856,-4.2449 l 5.57383,4.2546 0,-3.1569 c 0,-4.1543 -3.0409,-11.2859 -7.05794,-16.5525 -2.45941,-3.2245 -2.88284,-4.5833 -1.77382,-5.6923 1.9827,-1.9827 18.7092,-1.8273 22.33109,0.2075 l 2.87432,1.6148 -3.74364,4.2638 c -3.8942,4.4353 -6.36109,11.1332 -6.37303,17.3038 l -0.008,3.5967 5.49413,-5.0643 c 8.36197,-7.7078 17.32666,-9.5408 26.43259,-5.4045 10.07812,4.5778 15.86155,14.7798 16.02921,28.2754 0.18134,14.5962 -3.53515,19.5811 -25.06573,33.6207 -7.40738,4.8302 -15.51262,11.3923 -19.375,15.6863 l -6.6402,7.3822 -7.80191,-8.5303 z m 250.92345,0.1508 c -4.46685,-4.6713 -14.25108,-12.6408 -21.74274,-17.7102 -19.48192,-13.1827 -24.1539,-21.7213 -20.77932,-37.9765 4.50032,-21.678 27.10272,-29.4675 42.82498,-14.7589 1.88345,1.762 3.81215,2.816 4.286,2.3421 1.56509,-1.5651 -3.4229,-14.5938 -7.26051,-18.9646 -2.07269,-2.3607 -3.44077,-4.8224 -3.04019,-5.4706 1.84344,-2.9827 19.73045,-3.0723 24.50307,-0.1226 1.47688,0.9127 1.23227,1.7252 -1.38648,4.605 -3.99151,4.3893 -5.70402,8.4101 -6.8572,16.1 l -0.90789,6.0543 5.79432,-5.1004 c 13.60198,-11.9729 30.55957,-9.4954 38.69056,5.6528 7.37294,13.7359 6.45116,26.6017 -2.62919,36.6969 -2.53932,2.8231 -9.9607,8.6272 -16.49195,12.898 -12.29257,8.0382 -18.49539,13.3095 -23.79485,20.2214 l -3.08709,4.0264 -8.12152,-8.4931 z m 94.06596,-14.6954 c -0.85937,-0.3837 -1.5625,-1.4945 -1.5625,-2.4685 0,-1.2581 1.58439,-1.7708 5.47195,-1.7708 5.14375,0 9.28448,-2.3269 7.43388,-4.1775 -0.45238,-0.4524 -3.17282,-0.8225 -6.04543,-0.8225 -6.23859,0 -9.3604,-2.8171 -9.3604,-8.4466 0,-5.8693 2.7726,-7.8034 11.18623,-7.8034 9.40573,0 10.68877,1.5182 10.68877,12.6475 0,10.3981 -1.65714,12.5257 -10.21916,13.1205 -3.31696,0.2304 -6.73396,0.105 -7.59334,-0.2787 z m 11.96194,-17.0518 c -0.30985,-2.1817 -1.3463,-2.903 -4.62089,-3.216 -4.74774,-0.4539 -7.10449,1.1489 -5.98376,4.0695 0.51345,1.338 2.37672,1.959 5.87792,1.959 4.60104,0 5.08525,-0.2881 4.72673,-2.8125 z m -9.79694,-30.3364 c -1.62706,-1.732 -5.60275,-4.8459 -8.83486,-6.92 -3.25808,-2.0907 -6.55655,-5.4126 -7.40263,-7.4552 -2.02364,-4.8855 -0.68226,-11.3898 3.07732,-14.9217 2.91438,-2.7379 6.38001,-3.0512 13.18267,-1.1917 1.18316,0.3234 1.69665,-0.1793 1.39164,-1.3625 -1.87639,-7.2787 -1.81724,-7.5 2.00431,-7.5 4.84141,0 5.34925,0.6874 3.7121,5.0247 -1.57027,4.1601 -0.51606,6.035 2.14951,3.8228 0.99988,-0.8299 3.91072,-1.3319 6.46853,-1.1157 6.02556,0.5094 9.8421,5.3349 9.8421,12.4439 0,4.2711 -0.71426,5.6884 -4.54031,9.0089 -10.17058,8.8268 -15.88773,13.3154 -16.95973,13.3154 -0.6228,0 -2.4636,-1.417 -4.09065,-3.1489 z m -344.9775,-238.3117 c -6.28151,-1.7733 -6.83676,-2.839 -3.31447,-6.3613 4.26083,-4.2608 9.13716,-20.9281 6.12291,-20.9281 -0.51785,0 -2.61007,1.7678 -4.64935,3.9284 -2.03929,2.1606 -5.66223,4.745 -8.05097,5.7431 -5.53403,2.3123 -15.18001,2.2571 -19.71812,-0.1127 -11.30711,-5.9048 -18.497,-22.9911 -14.81824,-35.2147 3.10085,-10.3034 7.18053,-14.8342 22.32147,-24.7901 8.75372,-5.756 16.88761,-12.3062 21.20246,-17.0743 l 7.00042,-7.7357 7.88944,8.4344 c 4.3392,4.6389 13.58665,12.2569 20.5499,16.9289 6.96325,4.672 14.36001,10.5564 16.43725,13.0765 13.37225,16.2229 3.81471,45.0707 -15.80414,47.7021 -7.60569,1.0202 -13.26947,-0.5366 -19.63784,-5.3977 -3.17701,-2.4251 -6.02768,-4.1579 -6.33483,-3.8507 -1.43174,1.4317 2.86748,12.9866 6.70008,18.0076 2.35127,3.0803 3.99987,5.8757 3.66357,6.212 -0.91427,0.9143 -9.82033,2.8453 -12.68454,2.7504 -1.375,-0.046 -4.46875,-0.6388 -6.875,-1.3181 z m 251.69719,0.3274 c -8.51559,-2.1593 -8.55414,-2.2205 -4.388,-6.9654 3.96783,-4.5192 6.42195,-11.1787 6.43384,-17.4591 l 0.007,-3.6827 -4.0625,3.8553 c -8.7474,8.3011 -19.79287,10.4339 -29.19237,5.6367 -6.12716,-3.1271 -8.52395,-5.7775 -11.57306,-12.7973 -5.62994,-12.9615 -4.47088,-24.6924 3.34151,-33.8195 2.51191,-2.9346 10.02211,-8.8755 16.68931,-13.2021 12.30155,-7.9828 19.62828,-14.2787 24.50547,-21.0577 l 2.69796,-3.75 6.86583,7.6375 c 3.77622,4.2007 12.09418,11.1738 18.48435,15.496 23.15307,15.66 29.3805,25.1699 25.87044,39.5065 -2.85841,11.675 -7.3053,17.9459 -15.75236,22.2138 -7.82594,3.954 -21.22556,1.3353 -27.13081,-5.3023 -3.9473,-4.4368 -5.65568,-3.4672 -4.32509,2.4548 1.44051,6.4113 3.80851,11.0556 7.20335,14.1279 2.70271,2.4459 3.39821,5.1172 1.61866,6.2171 -2.04897,1.2663 -13.4884,1.8554 -17.2935,0.8905 z m -343.22794,-304.5642 c -0.38358,-0.3836 -0.0809,-2.3309 0.67271,-4.3273 1.57027,-4.1601 0.51605,-6.035 -2.14952,-3.8228 -0.99988,0.8299 -3.91072,1.3319 -6.46853,1.1157 -6.02556,-0.5094 -9.84209,-5.3349 -9.84209,-12.4439 0,-4.2711 0.71425,-5.6883 4.54031,-9.0089 10.17057,-8.8267 15.88772,-13.3154 16.95972,-13.3154 0.6228,0 2.4636,1.417 4.09066,3.149 1.62706,1.7319 5.60274,4.8459 8.83485,6.9199 3.25808,2.0907 6.55655,5.4126 7.40263,7.4552 2.02364,4.8855 0.68226,11.3898 -3.07731,14.9217 -2.91439,2.7379 -6.38002,3.0512 -13.18268,1.1917 -1.18316,-0.3234 -1.69665,0.1793 -1.39164,1.3625 1.87638,7.2787 1.81724,7.5 -2.0043,7.5 -2.02807,0 -4.00123,-0.3138 -4.38481,-0.6974 z m 89.34325,-5.6263 c -2.23437,-0.6863 -4.0625,-1.5793 -4.0625,-1.9845 0,-0.4052 1.63924,-2.6037 3.64275,-4.8856 3.53796,-4.0295 7.69186,-17.1382 5.97486,-18.8552 -0.431,-0.4311 -2.871,1.049 -5.42222,3.289 -9.03208,7.9303 -18.03224,9.5063 -27.66306,4.8441 -7.33537,-3.551 -12.17143,-10.5292 -14.55271,-20.9989 -1.75704,-7.7251 -1.75388,-9.149 0.0339,-15.2407 2.34368,-7.9862 10.83026,-16.997 22.05865,-23.4212 9.547,-5.4622 19.70621,-13.8545 23.48221,-19.3981 1.68888,-2.4795 3.53496,-4.512 4.10243,-4.5167 0.56745,0 4.7862,3.8575 9.375,8.5826 4.58878,4.725 13.15255,11.687 19.03057,15.4709 16.95018,10.9116 21.938,16.9745 23.27892,28.2964 1.38102,11.6607 -5.40468,26.0536 -14.46429,30.6799 -9.27003,4.7337 -19.12843,3.3211 -27.63439,-3.9597 -2.81166,-2.4066 -5.46702,-4.0208 -5.90082,-3.587 -1.52289,1.5229 3.60553,14.6461 7.42234,18.9932 2.70905,3.0854 3.46442,4.7867 2.53707,5.7141 -1.82825,1.8282 -16.30025,2.4943 -21.23865,0.9774 z m 252.1875,0.4087 c -5.84739,-1.0751 -6.5162,-2.7611 -2.63487,-6.6424 3.34346,-3.3435 6.38487,-11.6181 6.38487,-17.3711 0,-3.4435 -1.44927,-3.2391 -5.09461,0.7184 -6.90836,7.5 -18.69383,9.9205 -27.14269,5.5746 -9.21956,-4.7423 -14.3557,-12.6763 -15.9406,-24.6239 -1.89368,-14.2752 3.7185,-22.8292 23.52075,-35.8504 8.6718,-5.7022 16.68614,-12.1331 20.40619,-16.3744 3.36927,-3.8413 6.50109,-6.9914 6.95957,-7 0.45848,-0.01 4.39598,3.7178 8.75,8.2811 4.35401,4.5633 13.4084,11.9348 20.12087,16.381 14.05446,9.3095 18.90501,14.5845 21.78076,23.6866 1.92062,6.0791 1.90983,7.0086 -0.17053,14.694 -6.02281,22.2501 -24.10471,29.3884 -41.2643,16.2902 l -5.67541,-4.3322 0.0125,3.4293 c 0.0146,4.1101 5.00636,15.2397 7.91386,17.6448 1.14067,0.9435 2.07393,2.4201 2.07393,3.2812 0,2.6427 -11.02705,3.8629 -20,2.2132 z m -343.35578,-55.2769 c -3.94497,-1.686 -5.39422,-5.2058 -5.39422,-13.1009 0,-9.7879 2.38114,-11.9572 13.125,-11.9572 6.34243,0 8.125,0.4061 8.125,1.8512 0,1.9328 -2.69476,2.8679 -9.90373,3.4364 -6.68551,0.5272 -6.44299,3.4624 0.28608,3.4624 7.19875,0 11.28432,3.119 11.28432,8.6147 0,2.2024 -0.87953,4.8839 -1.9545,5.9588 -2.33042,2.3305 -11.72462,3.3771 -15.56795,1.7346 z m 11.3547,-6.6562 c 1.78814,-2.8888 -0.905,-4.8061 -6.11368,-4.3525 -4.088,0.3559 -5.9277,4.181 -2.94573,6.1246 2.57748,1.68 7.52117,0.713 9.05941,-1.7721 z m -89.51482,-116.1265 c 2.799,-1.1108 602.73285,-1.1108 605.53177,0 1.17748,0.4673 -135.06717,0.8496 -302.76587,0.8496 -167.6987,0 -303.9433,-0.3823 -302.7659,-0.8496 z"
         id="path4711"
         inkscape:connector-curvature="0" />
      <path
         style="fill:#545454"
         d="m -878.2473,2417.0151 c 83.01563,-0.1775 218.85938,-0.1775 301.875,0 83.01563,0.1774 15.09375,0.3225 -150.9375,0.3225 -166.03125,0 -233.95312,-0.1451 -150.9375,-0.3225 z m -160.9447,-435.3126 c 0,-234.0937 0.1438,-329.8594 0.3197,-212.8125 0.1758,117.0469 0.1758,308.5781 0,425.625 -0.1759,117.0469 -0.3197,21.2813 -0.3197,-212.8125 z m 623.74997,0 c 0,-234.0937 0.14387,-329.8594 0.3197,-212.8125 0.17584,117.0469 0.17584,308.5781 0,425.625 -0.17583,117.0469 -0.3197,21.2813 -0.3197,-212.8125 z m -585.74537,389.6442 c -2.4269,-1.6317 -4.8869,-4.7125 -5.7393,-7.1875 -2.1659,-6.2884 -2.1659,-758.625 0,-764.9134 0.8524,-2.475 3.3124,-5.5558 5.7393,-7.1875 l 4.24731,-2.8558 269.63029,0 269.63029,0 4.24736,2.8558 c 2.42681,1.6317 4.88684,4.7125 5.7393,7.1875 2.16586,6.2884 2.16586,758.625 0,764.9134 -0.85246,2.475 -3.31249,5.5558 -5.7393,7.1875 l -4.24736,2.8558 -269.63029,0 -269.63029,0 -4.24731,-2.8558 z m 547.23454,-4.8621 2.89306,-2.7179 0,-381.889 0,-381.8891 -2.71789,-2.893 -2.7179,-2.8931 -270.63903,0 -270.63905,0 -2.89303,2.7179 -2.8931,2.7179 0,381.889 0,381.8891 2.7179,2.893 2.71789,2.8931 270.63903,0 270.63905,0 2.89307,-2.7179 z m -405.45347,-32.1123 c -3.55933,-3.9996 -11.71558,-10.8182 -18.125,-15.1525 -15.84122,-10.7123 -21.77931,-16.6193 -24.28229,-24.1552 -3.84672,-11.5813 1.24618,-27.8436 10.67368,-34.0824 9.72553,-6.4361 20.78879,-5.3187 30.33607,3.0639 2.44701,2.1485 4.86862,3.9064 5.38135,3.9064 2.9725,0 -3.02894,-17.2131 -7.59257,-21.7767 -3.81377,-3.8138 -1.32495,-5.7233 7.45969,-5.7233 4.44556,0 9.57247,0.5664 11.39314,1.2586 l 3.31027,1.2585 -3.19808,3.8007 c -4.6676,5.5472 -9.18762,22.4322 -6.00494,22.4322 0.55263,0 2.94326,-2.0358 5.3125,-4.524 16.10911,-16.9182 40.11654,-6.0948 42.13041,18.9939 1.14835,14.3061 -3.79212,21.9816 -21.34751,33.1654 -12.94034,8.2437 -20.89674,14.8214 -24.72181,20.4378 -1.65187,2.4254 -3.28463,4.4006 -3.62838,4.3893 -0.34375,-0.011 -3.53719,-3.2929 -7.09653,-7.2926 z m 248.97955,-1.0604 c -4.21289,-4.6178 -12.96648,-11.8994 -20,-16.6368 -6.87941,-4.6336 -13.7468,-9.7651 -15.26086,-11.4032 -9.98215,-10.8004 -8.63805,-31.6862 2.71248,-42.1487 9.30843,-8.5803 21.9832,-8.3701 31.83207,0.5278 2.61872,2.3658 5.44094,4.3015 6.27162,4.3015 3.19058,0 -2.69564,-16.8266 -7.77913,-22.2378 -2.32165,-2.4712 -2.44964,-3.0761 -0.87645,-4.1414 1.88944,-1.2795 20.6221,-0.8826 21.9702,0.4655 0.41224,0.4122 -0.6973,2.6464 -2.46562,4.9648 -3.43499,4.5035 -7.73942,18.8016 -6.34125,21.0639 0.52566,0.8505 2.54682,-0.2713 5.38521,-2.989 6.22232,-5.9578 11.5003,-8.376 18.28144,-8.376 6.03212,0 13.54291,3.1091 17.15203,7.1002 6.12803,6.7764 9.79095,21.8922 7.25305,29.9311 -2.97202,9.414 -6.99968,13.7742 -21.57921,23.3609 -8.21785,5.4036 -17.08525,12.4873 -21.21345,16.9463 -3.90127,4.2138 -7.26352,7.6213 -7.47169,7.5722 -0.20815,-0.049 -3.74985,-3.7847 -7.87043,-8.3013 z m 93.73652,-15.3682 c -0.96353,-1.559 1.0477,-2.2996 7.49506,-2.76 3.58351,-0.2558 5.10643,-0.9727 5.40416,-2.5437 0.33794,-1.7832 -0.49528,-2.1875 -4.50853,-2.1875 -9.49801,0 -14.7482,-8.012 -9.01023,-13.75 3.08109,-3.0811 11.92601,-3.3879 15.97186,-0.5541 2.40692,1.6858 2.77814,3.0797 2.77814,10.4313 0,10.6019 -1.75501,12.6228 -10.96215,12.6228 -3.51467,0 -6.74041,-0.5665 -7.16831,-1.2588 z m 13.21742,-13.221 c 2.66907,-3.216 -0.1185,-6.1452 -5.8482,-6.1452 -4.1754,0 -4.92346,0.4223 -5.28562,2.9836 -0.23203,1.641 0.33047,3.4605 1.25,4.0434 2.72517,1.7274 8.11769,1.2463 9.88382,-0.8818 z m -12.58696,-35.0831 c -13.92615,-11.1497 -13.75,-10.9328 -13.75,-16.9324 0,-9.6298 6.67913,-14.1319 15.2391,-10.2719 4.27686,1.9286 5.51261,2.0153 8.92505,0.6262 7.819,-3.1829 9.30574,-3.0814 13.29424,0.9071 2.91837,2.9184 3.78521,4.8933 3.76381,8.5753 -0.031,5.3431 -2.23692,8.607 -8.7222,12.9055 -2.40625,1.5949 -6.0625,4.4286 -8.125,6.2971 l -3.75,3.3974 -6.875,-5.5043 z m 4.51999,-30.1246 c -0.42438,-1.2031 -1.09936,-2.8906 -1.49996,-3.75 -0.49862,-1.0696 0.48735,-1.5625 3.12581,-1.5625 4.37329,0 4.37154,0 2.40351,4.3162 -1.69887,3.7286 -2.95596,4.0394 -4.02936,0.9963 z M -859.1848,2033.3748 c -4.46785,-1.1883 -4.81272,-2.6662 -1.532,-6.5651 4.44909,-5.2875 8.41213,-19.1839 5.91165,-20.7293 -0.6399,-0.3955 -3.40431,1.5218 -6.14312,4.2606 -14.90543,14.9054 -36.77961,6.5575 -41.42272,-15.8083 -1.58935,-7.6558 -0.8281,-13.7051 2.55107,-20.2721 3.08581,-5.9968 7.14377,-9.5382 22.11963,-19.3036 7.3048,-4.7633 15.42563,-11.3232 19.0461,-15.3853 l 6.3116,-7.0815 6.8421,7.5608 c 3.76315,4.1584 12.0674,11.096 18.45389,15.4168 21.53653,14.5708 25.39324,19.9777 24.45826,34.2892 -0.93875,14.3693 -7.60026,24.0182 -18.6329,26.989 -7.95848,2.143 -18.38853,-1.2376 -24.70776,-8.0083 -1.64681,-1.7645 -3.477,-2.9098 -4.06709,-2.5451 -2.21792,1.3708 2.44972,15.1521 7.29189,21.5295 1.73078,2.2795 2.78723,4.5043 2.34765,4.9438 -1.03089,1.0309 -15.56064,1.5779 -18.82825,0.7089 z m 250.625,0 c -1.03125,-0.344 -2.62715,-0.8632 -3.54645,-1.1539 -1.21417,-0.384 -0.79514,-1.57 1.53168,-4.3353 4.68228,-5.5645 9.19328,-22.4381 5.99863,-22.4381 -0.55887,0 -2.66825,1.7584 -4.6875,3.9076 -7.36742,7.8416 -17.55163,10.3995 -26.50695,6.6577 -10.0703,-4.2076 -15.39432,-12.798 -16.23181,-26.1903 -0.48897,-7.8192 -0.16212,-9.4813 3.07274,-15.625 3.19049,-6.0594 5.31784,-8.0183 17.9323,-16.5127 7.8718,-5.3008 17.58394,-13.0897 21.58254,-17.3088 l 7.27018,-7.671 7.72982,8 c 4.2514,4.3999 13.91117,12.2178 21.46614,17.3731 20.15009,13.7497 24.81596,22.9101 20.03897,39.3424 -3.78763,13.029 -16.39387,22.179 -27.31739,19.8278 -5.41511,-1.1655 -9.41718,-3.3705 -14.5829,-8.0344 -4.12841,-3.7274 -4.39773,-3.8024 -4.77826,-1.329 -0.64712,4.2058 3.48826,14.9301 7.53406,19.538 l 3.7291,4.2472 -3.32383,1.2637 c -3.40633,1.2951 -13.55661,1.5598 -16.91107,0.441 z m -341.25,-304.7435 c 0,-1.4599 3.00374,-6.9338 3.80485,-6.9338 0.49697,0 1.25079,0.9844 1.67516,2.1875 0.42438,1.2031 1.09936,2.8906 1.49996,3.75 0.49862,1.0697 -0.48734,1.5625 -3.1258,1.5625 -2.11979,0 -3.85417,-0.2548 -3.85417,-0.5662 z m 88.4375,-5.2955 c -2.70806,-0.7076 -2.78354,-2.0875 -0.23007,-4.2067 1.07657,-0.8935 2.69567,-3.0717 3.59797,-4.8406 2.15884,-4.232 4.6666,-16.2205 3.71508,-17.7601 -0.41138,-0.6656 -3.44504,1.3126 -6.74148,4.396 -6.54911,6.1259 -11.54116,7.7414 -20.72411,6.7063 -10.64529,-1.1999 -19.3666,-11.9148 -21.32448,-26.1991 -1.74236,-12.7118 6.7447,-25.0401 23.89459,-34.7092 4.125,-2.3257 11.80581,-8.5047 17.06848,-13.7312 l 9.56848,-9.5026 7.96365,8.2496 c 4.38001,4.5373 13.83099,12.15 21.00215,16.917 8.46966,5.6302 14.37159,10.5666 16.84286,14.0875 3.48589,4.9664 3.80438,6.2745 3.80438,15.625 0,8.2114 -0.57899,11.3808 -2.96394,16.2248 -7.43276,15.0965 -27.17954,17.819 -38.81645,5.3517 -4.3443,-4.6544 -6.76545,-4.3073 -5.69218,0.8158 1.25301,5.9812 5.35193,14.8899 8.28958,18.0169 1.41345,1.5045 2.19653,3.3397 1.74018,4.0781 -0.80839,1.308 -16.45795,1.6664 -20.99469,0.4808 z m 249.94974,-0.5165 c -2.07115,-1.2053 -1.9641,-1.6139 1.43779,-5.4885 3.26069,-3.7137 6.42497,-12.9824 6.42497,-18.8198 0,-2.3904 -3.28062,-2.3396 -4.20338,0.065 -0.39647,1.0332 -3.37927,3.5644 -6.62846,5.625 -10.64397,6.7502 -24.00792,4.4827 -31.7152,-5.3811 -5.8987,-7.5492 -7.96424,-22.9864 -4.26165,-31.8501 2.84615,-6.8135 7.0862,-10.7479 22.68321,-21.0481 8.44971,-5.5801 16.33492,-11.9503 19.89062,-16.0688 l 5.89108,-6.8237 7.36002,8.0322 c 4.07891,4.4514 12.94182,11.7719 19.88088,16.421 17.79681,11.9238 23.60288,19.6734 23.60288,31.5039 0,5.4155 -3.4323,15.0733 -7.07592,19.9102 -8.51837,11.3084 -26.66938,11.8496 -36.57947,1.0909 -1.66672,-1.8094 -3.49485,-3.2899 -4.0625,-3.2899 -3.55051,0 3.22278,19.5168 8.2041,23.6397 1.68159,1.3917 1.78945,1.982 0.51045,2.7933 -2.32407,1.4743 -18.70126,1.2356 -21.35942,-0.3112 z m -352.09563,-3.3879 c -2.91838,-2.9184 -3.78521,-4.8933 -3.76382,-8.5752 0.0324,-5.5817 2.21644,-8.6109 9.97221,-13.8314 3.09375,-2.0825 6.66293,-4.9396 7.93152,-6.3492 l 2.30652,-2.563 7.06848,5.5753 c 13.98145,11.0279 13.94348,10.9816 13.94348,17.0049 0,9.6299 -6.67913,14.1319 -15.2391,10.2719 -4.27686,-1.9286 -5.51261,-2.0153 -8.92505,-0.6262 -7.819,3.1829 -9.30573,3.0814 -13.29424,-0.9071 z m 9.52713,-52.5198 c -1.48609,-1.6421 -2.06874,-4.6147 -2.06874,-10.5541 0,-7.1271 0.38341,-8.5368 2.77813,-10.2141 3.77785,-2.6461 15.97187,-2.7002 15.97187,-0.071 0,1.4104 -1.51077,1.875 -6.09694,1.875 -3.53388,0 -6.67427,0.6956 -7.47026,1.6547 -2.14653,2.5864 0.80362,4.5953 6.74846,4.5953 8.32149,0 12.60951,7.8844 7.03281,12.9313 -3.26783,2.9573 -14.149,2.8174 -16.89533,-0.2172 z m 14.04977,-3.1807 c 2.7182,-3.2752 0.26072,-5.7834 -5.66648,-5.7834 -5.99088,0 -8.21012,2.3017 -5.43882,5.6409 1.93788,2.335 9.20827,2.4283 11.1053,0.1425 z M -878.2473,1545.76 c 83.01563,-0.1774 218.85938,-0.1774 301.875,0 83.01563,0.1775 15.09375,0.3226 -150.9375,0.3226 -166.03125,0 -233.95312,-0.1451 -150.9375,-0.3226 z"
         id="path4709"
         inkscape:connector-curvature="0" />
      <path
         style="fill:#2e2e2e"
         d="m -877.6223,2417.0151 c 82.67188,-0.1775 217.95313,-0.1775 300.625,0 82.67188,0.1774 15.03125,0.3226 -150.3125,0.3226 -165.34375,0 -232.98437,-0.1452 -150.3125,-0.3226 z m -161.5698,-435.3126 c 0,-233.4062 0.1439,-328.8906 0.3198,-212.1875 0.1758,116.7031 0.1758,307.6719 0,424.375 -0.1759,116.7031 -0.3198,21.2188 -0.3198,-212.1875 z m 623.75005,0 c 0,-233.4062 0.14387,-328.8906 0.31972,-212.1875 0.17585,116.7031 0.17585,307.6719 0,424.375 -0.17585,116.7031 -0.31972,21.2188 -0.31972,-212.1875 z m -583.90936,390.1024 c -2.15409,-1.3135 -4.82599,-3.6866 -5.93749,-5.2734 -1.8505,-2.642 -2.0209,-35.1004 -2.0209,-384.9386 l 0,-382.0533 2.6104,-3.3185 c 5.93511,-7.5453 -14.8812,-7.0186 277.3896,-7.0186 292.27085,0 271.4545,-0.5267 277.38963,7.0186 l 2.61037,3.3185 0,382.1629 0,382.1629 -2.61037,3.3185 c -5.93533,7.5455 14.90661,7.019 -277.64005,7.0139 -261.49144,0 -267.96791,-0.061 -271.79119,-2.3929 z m 546.06945,-4.8246 2.84716,-2.8472 0,-382.4306 0,-382.4306 -2.84722,-2.8472 -2.84723,-2.8472 -271.18055,0 -271.18056,0 -2.84724,2.8472 -2.8472,2.8472 -0.2974,380.9028 c -0.2374,303.9515 0.02,381.5291 1.2746,384.0032 0.8646,1.7052 2.9672,3.8084 4.67244,4.6737 2.46873,1.2529 58.03647,1.5126 272.7532,1.2747 l 269.65282,-0.2988 2.84718,-2.8472 z m -407.30608,-34.5729 c -4.20928,-4.381 -13.34477,-11.7064 -20.30107,-16.2786 -13.94958,-9.1687 -18.2351,-13.8372 -20.9365,-22.8074 -3.97064,-13.1849 5.25899,-32.3305 16.79965,-34.8487 1.83764,-0.4009 4.0223,-0.9372 4.85479,-1.1916 3.75427,-1.1474 14.49818,3.0417 18.94999,7.3888 2.55298,2.4929 5.38379,4.5326 6.29069,4.5326 3.52,0 -2.25565,-17.6711 -7.65363,-23.417 -1.45872,-1.5527 -2.23032,-3.245 -1.71467,-3.7607 1.21287,-1.2128 16.9249,-1.2297 19.87385,-0.021 2.0985,0.8599 2.03434,1.2217 -0.89854,5.0669 -3.4184,4.4817 -7.79333,20.575 -6.06353,22.3048 0.58368,0.5837 3.71631,-1.4468 6.9614,-4.5122 17.99264,-16.9964 41.38445,-4.6209 41.46566,21.9375 0.0389,12.7116 -3.87763,18.0764 -21.9481,30.0644 -7.91192,5.2487 -17.26365,12.6963 -20.79709,16.5625 -3.5313,3.8638 -6.60258,7.0071 -6.8251,6.9853 -0.22251,-0.022 -3.84852,-3.6243 -8.0578,-8.0053 z m 251.04325,0.5608 c -3.78207,-4.2491 -11.80376,-10.8409 -18.75,-15.4077 -20.75606,-13.6461 -25.60736,-21.4554 -23.00401,-37.0301 2.40459,-14.3856 11.30109,-22.8664 23.98735,-22.8664 6.7862,0 16.40324,4.6504 18.77264,9.0777 1.847,3.4512 4.97901,3.1322 4.97901,-0.507 0,-4.2498 -3.32603,-13.1176 -7.01725,-18.7094 -1.74351,-2.6412 -2.79976,-5.1724 -2.34723,-5.625 1.45817,-1.4581 17.91543,-0.8968 19.47655,0.6643 1.14944,1.1494 0.76322,2.3473 -1.70108,5.276 -4.00191,4.756 -8.03168,22.6119 -5.10312,22.6119 0.44433,0 3.46711,-2.4874 6.71729,-5.5276 3.25018,-3.0401 8.17613,-6.2067 10.94655,-7.0367 15.62267,-4.6807 30.48663,9.6348 30.48663,29.3616 0,11.8266 -6.63989,20.2632 -24.31249,30.8912 -4.96146,2.9837 -12.83713,9.2245 -17.50145,13.8682 -4.66434,4.6438 -8.60184,8.4302 -8.75,8.4142 -0.14818,-0.016 -3.24389,-3.3708 -6.87939,-7.4552 z m 94.19911,-14.8715 c -0.57332,-0.9277 0.65453,-1.3942 3.66928,-1.3942 5.28151,0 9.3666,-1.8689 9.3666,-4.2852 0,-2.1801 -2.76875,-3.2148 -8.60224,-3.2148 -5.66311,0 -7.64776,-1.7841 -7.64776,-6.875 0,-5.4337 2.01175,-6.875 9.59619,-6.875 5.66794,0 6.8862,0.4426 8.65707,3.1453 2.51355,3.8362 1.84889,14.7883 -1.07491,17.7121 -2.39986,2.3998 -12.76561,3.7262 -13.96423,1.7868 z m 12.41088,-15.7692 c 0,-3.5771 -0.26895,-3.7674 -5.83289,-4.1267 -5.00356,-0.3232 -5.9513,0 -6.66577,2.2475 -1.30997,4.1273 1.52863,6.4332 7.39057,6.0036 4.75913,-0.3488 5.10809,-0.6306 5.10809,-4.1244 z m -12.5,-32.5573 c -15.61791,-13.6333 -14.7745,-12.5433 -14.02571,-18.1259 0.37886,-2.8247 1.66745,-6.2172 2.86351,-7.5388 2.6026,-2.8758 9.0468,-3.1689 12.48579,-0.5677 3.15386,2.3854 7.3398,2.4033 9.30141,0.04 1.78511,-2.1509 7.7971,-2.4729 11.28811,-0.6046 3.30236,1.7674 5.51003,9.6754 3.88578,13.9193 -0.69774,1.823 -3.41293,4.8741 -6.03375,6.7802 -2.62083,1.9061 -6.84153,5.0551 -9.37934,6.9978 -2.53781,1.9428 -4.78781,3.5171 -5,3.4985 -0.21219,-0.019 -2.6358,-1.9979 -5.3858,-4.3985 z m 4.61804,-30.8247 c -2.29405,-2.294 -1.77413,-4.743 1.00696,-4.743 2.58134,0 3.19953,1.9632 1.47389,4.6805 -0.76574,1.2059 -1.32348,1.2199 -2.48085,0.062 z m -346.24398,-205.9317 c -5.65715,-1.4006 -5.92347,-1.9346 -2.88893,-5.7924 4.39254,-5.5842 8.47124,-23.0189 5.38508,-23.0189 -0.55263,0 -2.89192,1.947 -5.19842,4.3267 -2.3065,2.3797 -6.01749,5.1922 -8.24663,6.25 -5.29161,2.5111 -14.68429,2.4515 -20.11931,-0.1276 -11.37089,-5.3958 -17.70935,-24.5713 -12.36061,-37.3941 2.93984,-7.0477 8.34048,-12.2052 22.36271,-21.3556 6.76937,-4.4174 15.31078,-11.1819 18.98087,-15.0322 l 6.67292,-7.0004 7.97645,8.0951 c 4.38704,4.4523 13.82295,11.9804 20.96869,16.7291 14.48067,9.6231 19.79047,16.2084 20.88272,25.8988 1.33048,11.8039 -6.18342,26.511 -15.54243,30.4214 -9.10773,3.8055 -18.24128,1.5006 -26.89239,-6.7863 -4.13864,-3.9644 -4.74065,-4.201 -5.52021,-2.1695 -1.31126,3.417 1.63238,13.0739 5.82786,19.1187 4.32079,6.2253 4.59375,7.7759 1.36882,7.7759 -1.28906,0 -3.96094,0.2436 -5.9375,0.5414 -1.97656,0.2978 -5.45042,0.082 -7.71969,-0.4801 z m 250.67464,-0.014 c -6.42987,-1.2421 -6.72329,-1.8611 -2.98711,-6.3013 3.0703,-3.6489 4.63172,-7.9169 6.2687,-17.135 0.96147,-5.4143 -1.41026,-6.5806 -4.96884,-2.4435 -5.65445,6.5736 -11.57259,9.5825 -18.84796,9.5825 -7.92923,0 -12.34013,-1.9967 -17.57062,-7.9539 -10.33472,-11.7706 -9.49892,-31.8563 1.75515,-42.1792 1.95359,-1.7919 9.29516,-7.0066 16.31459,-11.5881 7.48556,-4.8858 15.16882,-11.1172 18.58203,-15.0707 l 5.81938,-6.7406 7.53844,8.0586 c 4.14613,4.4322 12.37798,11.2712 18.29298,15.1978 15.53886,10.3151 19.60795,14.3632 22.67815,22.5608 2.40321,6.4167 2.51007,7.7767 1.1248,14.3148 -4.97278,23.4702 -26.30894,30.9675 -42.69362,15.0021 -3.81435,-3.7168 -4.78391,-4.165 -5.42061,-2.5058 -1.20864,3.1497 2.7235,14.884 6.93646,20.6998 2.61414,3.6087 3.31147,5.4179 2.22025,5.7604 -3.94695,1.2386 -10.73578,1.5732 -15.04217,0.7413 z m -342.1737,-304.9451 c 0,-0.6312 0.34694,-2.0518 0.77098,-3.1569 0.59674,-1.555 1.16173,-1.6848 2.5,-0.5741 2.54209,2.1097 2.1045,4.8788 -0.77098,4.8788 -1.375,0 -2.5,-0.5165 -2.5,-1.1478 z m 89.6875,-4.6836 c -4.13,-0.7024 -4.15723,-0.8969 -0.78792,-5.6287 5.00731,-7.0321 8.06058,-22.2899 4.4605,-22.2899 -0.90197,0 -2.83917,1.6221 -4.30489,3.6046 -5.3126,7.1856 -17.69204,10.7658 -26.16132,7.5659 -11.49135,-4.3417 -19.44068,-21.8316 -16.02928,-35.2671 2.21884,-8.7387 7.01134,-13.8636 22.46947,-24.028 8.3833,-5.5125 16.72508,-12.1905 20.4552,-16.3757 l 6.29883,-7.0671 7.24304,7.8234 c 3.98367,4.3028 12.90517,11.6222 19.82557,16.2653 14.55583,9.7659 19.91879,15.3316 21.91449,22.7431 1.7662,6.5591 0.63805,16.1131 -2.73287,23.1439 -7.28573,15.1961 -24.61292,18.082 -37.97041,6.3243 -3.14958,-2.7723 -6.0511,-4.7161 -6.4478,-4.3194 -1.691,1.691 1.2673,12.3353 5.28054,18.9999 2.38816,3.966 4.05059,7.5023 3.69429,7.8586 -0.90026,0.9003 -13.03509,1.3564 -17.20744,0.6469 z m 251.5625,0.084 c -1.03125,-0.3856 -2.66239,-0.9525 -3.62475,-1.2597 -1.36546,-0.4359 -1.17785,-1.1691 0.85424,-3.3385 1.43218,-1.5289 3.24437,-4.4674 4.02708,-6.5299 2.0805,-5.4823 3.8486,-15.6935 2.96495,-17.1233 -0.41998,-0.6795 -3.08851,1.0405 -5.93006,3.8222 -9.30004,9.1044 -18.48805,11.0877 -28.32239,6.1136 -7.52868,-3.8079 -12.27672,-10.9566 -13.95807,-21.0154 -2.59476,-15.5233 2.29964,-23.4626 22.739,-36.8854 11.94051,-7.8415 16.58415,-11.7413 22.855,-19.1938 l 3.39624,-4.0362 8.43688,8.5754 c 4.64028,4.7164 14.11457,12.3372 21.05397,16.935 13.39296,8.8737 18.11867,14.1999 20.43638,23.0335 2.41615,9.2087 -1.73045,22.3325 -9.10086,28.8039 -10.09362,8.8623 -23.02594,8.0525 -32.62397,-2.0429 -5.17588,-5.444 -7.46845,-5.1467 -6.36898,0.8259 1.16455,6.3262 5.19941,15.2804 8.43966,18.7295 1.45872,1.5528 2.31943,3.156 1.91269,3.5627 -1.04281,1.0428 -14.92446,1.8694 -17.18701,1.0234 z m -356.12273,-4.1258 c -3.07286,-3.0729 -4.30432,-8.8413 -2.75653,-12.9123 0.67319,-1.7706 3.36829,-4.7788 5.98912,-6.6849 2.62083,-1.906 6.88213,-5.0877 9.46955,-7.0703 l 4.70442,-3.6048 5.78009,4.76 c 13.53959,11.1501 14.56819,12.4904 13.82692,18.017 -0.37344,2.7841 -1.65758,6.1434 -2.85364,7.4651 -2.6026,2.8758 -9.0468,3.1688 -12.48579,0.5677 -3.15386,-2.3855 -7.3398,-2.4034 -9.30141,-0.04 -2.20589,2.6579 -9.51093,2.3641 -12.37273,-0.4977 z m 12.37273,-50.9317 c -3.58865,-1.4033 -5,-4.7174 -5,-11.7408 0,-9.303 2.02164,-11.2048 11.91093,-11.2048 8.90329,0 7.88444,2.169 -1.28593,2.7375 -5.2875,0.3278 -6.25,0.7725 -6.25,2.8875 0,2.0973 1.05227,2.6058 6.53181,3.1568 6.94305,0.6982 8.34241,1.533 9.60664,5.7315 1.22288,4.0611 -2.7666,8.0523 -8.65123,8.6549 -2.74297,0.2808 -5.83097,0.1807 -6.86222,-0.2226 z m 10.08218,-2.9896 c 2.84454,-1.5223 3.16516,-5.2797 0.63005,-7.3836 -0.98327,-0.816 -3.93639,-1.3068 -6.5625,-1.0906 -3.97789,0.3276 -4.84669,0.903 -5.20594,3.4482 -0.72902,5.1647 5.56903,8.0066 11.13839,5.026 z m 63.35532,-119.6435 c 82.67188,-0.1774 217.95313,-0.1774 300.625,0 82.67188,0.1775 15.03125,0.3227 -150.3125,0.3227 -165.34375,0 -232.98437,-0.1452 -150.3125,-0.3227 z"
         id="path4707"
         inkscape:connector-curvature="0" />
      <path
         style="fill:#050505"
         d="m -876.9973,2417.0151 c 82.32813,-0.1775 217.04688,-0.1775 299.375,0 82.32813,0.1774 14.96875,0.3226 -149.6875,0.3226 -164.65625,0 -232.01562,-0.1452 -149.6875,-0.3226 z m -162.1948,-435.3126 c 0,-232.7187 0.1439,-327.9219 0.3198,-211.5625 0.1758,116.3594 0.1758,306.7656 0,423.125 -0.1759,116.3594 -0.3198,21.1563 -0.3198,-211.5625 z m 623.75002,0 c 0,-232.7187 0.14389,-327.9219 0.31975,-211.5625 0.17587,116.3594 0.17587,306.7656 0,423.125 -0.17586,116.3594 -0.31975,21.1563 -0.31975,-211.5625 z m -581.43585,390.2934 c -0.79373,-0.5051 120.51193,-0.9184 269.56813,-0.9184 149.0562,0 270.36186,0.4133 269.56814,0.9184 -0.79373,0.5051 -122.09939,0.9183 -269.56814,0.9183 -147.46875,0 -268.77441,-0.4132 -269.56813,-0.9183 z m -6.17567,-4.3559 -2.3812,-2.8125 2.8125,2.3812 c 2.64306,2.2378 3.38155,3.2438 2.3812,3.2438 -0.2372,0 -1.5028,-1.2656 -2.8125,-2.8125 z m 550.1188,0.3125 c 1.24436,-1.375 2.54373,-2.5 2.88748,-2.5 0.34375,0 -0.39312,1.125 -1.63748,2.5 -1.24436,1.375 -2.54372,2.5 -2.88747,2.5 -0.34375,0 0.39311,-1.125 1.63747,-2.5 z m -553.0263,-5.7292 c 0.06,-1.4561 0.3562,-1.7523 0.7552,-0.7552 0.3611,0.9024 0.3167,1.9805 -0.099,2.3959 -0.4154,0.4153 -0.7108,-0.323 -0.6565,-1.6407 z m 556.24999,0 c 0.06,-1.4561 0.35617,-1.7523 0.7552,-0.7552 0.36108,0.9024 0.31669,1.9805 -0.0986,2.3959 -0.41536,0.4153 -0.7108,-0.323 -0.65652,-1.6407 z m -410.75058,-30.9715 c -4.13978,-4.2931 -13.33042,-11.6322 -20.42363,-16.3092 -18.91408,-12.4714 -23.65394,-21.2511 -19.68272,-36.4586 2.17632,-8.334 4.86746,-12.4683 10.70037,-16.4386 9.06554,-6.1706 19.34459,-4.6987 28.77253,4.12 7.36742,6.8914 10.97625,7.1922 15.47799,1.2901 3.95307,-5.1828 12.47797,-9.503 18.7518,-9.503 18.34182,0 29.50259,25.1979 19.05614,43.0235 -2.60129,4.4387 -6.3696,7.6772 -17.34933,14.91 -7.71445,5.0818 -17.01124,12.4069 -20.65952,16.2781 -3.6483,3.8711 -6.74205,7.0057 -6.875,6.9658 -0.13297,-0.04 -3.62884,-3.5851 -7.76863,-7.8781 z m 251.35611,0.8781 c -3.39391,-3.814 -11.85711,-10.7496 -18.80711,-15.4126 -19.28527,-12.939 -23.99787,-19.7387 -22.89523,-33.0352 1.55483,-18.7493 16.61454,-29.9974 31.40365,-23.4555 3.158,1.397 7.75242,4.5505 10.20981,7.0079 2.4574,2.4574 5.66052,4.468 7.11805,4.468 1.46055,0 5.57448,-2.7658 9.16528,-6.1618 6.97922,-6.6007 12.2209,-8.4639 20.17839,-7.1725 9.07583,1.4727 15.51836,8.6256 18.59869,20.6493 2.15269,8.4028 1.70591,12.995 -1.96381,20.185 -2.99923,5.8763 -7.02746,9.3839 -21.99424,19.1518 -6.96151,4.5433 -15.2037,11.0928 -18.31595,14.5544 -3.11226,3.4616 -5.85397,6.2627 -6.0927,6.2247 -0.23873,-0.038 -3.2109,-3.1896 -6.60483,-7.0035 z m 106.98697,-21.8358 c -1.41172,-2.2605 -1.36318,-2.9553 0.32432,-4.6428 1.81265,-1.8127 1.98449,-1.5825 1.98449,2.6583 0,2.5536 -0.14594,4.6429 -0.32431,4.6429 -0.17838,0 -1.0714,-1.1963 -1.9845,-2.6584 z m -15.8012,-6.0444 c -0.62787,-1.9782 1.03202,-7.5472 2.24952,-7.5472 0.16585,0 0.087,2.25 -0.17527,5 -0.53487,5.6085 -0.9434,6.1102 -2.07425,2.5472 z m 15.7355,-5.4165 c -1.58115,-2.6329 -1.55452,-2.6596 0.59791,-0.598 1.23904,1.1868 1.98372,2.4268 1.65487,2.7557 -0.32885,0.3288 -1.3426,-0.6421 -2.25278,-2.1577 z m -12.74404,-29.9794 c -2.47145,-2.2144 -6.54958,-5.5971 -9.0625,-7.5171 -3.73349,-2.8525 -4.56895,-4.2961 -4.56895,-7.8947 0,-9.424 6.01626,-13.5994 13.3556,-9.2691 5.38276,3.1759 7.13125,3.1687 11.48169,-0.048 9.50918,-7.0305 19.1033,7.7624 10.449,16.111 -2.91037,2.8075 -14.47315,11.4555 -16.53629,12.3677 -0.34375,0.152 -2.6471,-1.5355 -5.11855,-3.75 z m -339.24155,-8.4036 c -1.18499,-5.4832 -4.82444,-12.7648 -7.48271,-14.971 -1.60801,-1.3345 -1.69125,-1.8931 -0.40385,-2.7097 1.90101,-1.2059 11.6126,-1.3701 15.73414,-0.2661 2.73605,0.733 2.76678,0.8725 0.69598,3.1608 -1.19156,1.3166 -3.3887,6.166 -4.88252,10.7763 l -2.71604,8.3824 -0.945,-4.3727 z m 250.10898,-1.652 c -0.42864,-2.2849 -2.41604,-6.7351 -4.41642,-9.8894 -2.00038,-3.1542 -3.30603,-6.0661 -2.90144,-6.4707 0.92599,-0.9259 11.33343,-0.9326 14.77072,-0.01 2.53007,0.6796 2.5131,0.8183 -0.9375,7.6591 -1.93284,3.8319 -3.51424,8.294 -3.51424,9.9159 0,4.4043 -2.10754,3.5578 -3.00112,-1.2055 z m 93.00112,-22.0957 c 0,-0.6875 0.5625,-1.25 1.25,-1.25 0.6875,0 1.25,0.5625 1.25,1.25 0,0.6875 -0.5625,1.25 -1.25,1.25 -0.6875,0 -1.25,-0.5625 -1.25,-1.25 z m -346.5625,-204.5838 c -1.89062,-0.3202 -3.4375,-0.8012 -3.4375,-1.0687 0,-0.2676 1.41397,-2.5701 3.14216,-5.1167 1.7282,-2.5466 3.48759,-6.7904 3.90976,-9.4305 0.97379,-6.0897 2.16782,-6.0838 3.99649,0.02 0.79427,2.6511 2.87985,6.9358 4.63464,9.5216 1.75479,2.5858 2.97764,4.9144 2.71745,5.1745 -0.85652,0.8566 -11.45572,1.4941 -14.963,0.9 z m 250.625,0.014 c -3.41782,-0.7346 -3.43611,-1.0002 -0.4068,-5.9081 1.32314,-2.1436 3.10635,-6.6843 3.96268,-10.0903 l 1.55696,-6.1927 2.21942,6.5294 c 1.22069,3.5912 3.43635,8.2385 4.9237,10.3272 1.48735,2.0888 2.38944,4.1127 2.00465,4.4974 -0.98266,0.9827 -10.87988,1.5636 -14.26061,0.8371 z m -278.20775,-17.1851 c -8.4519,-3.1145 -13.20682,-9.5549 -15.88836,-21.5205 -3.09163,-13.7954 3.03666,-23.4884 23.02491,-36.4178 6.86363,-4.4397 15.43751,-11.151 19.05309,-14.9139 l 6.57376,-6.8417 7.25343,7.3608 c 3.98938,4.0485 13.35146,11.495 20.80461,16.5478 8.44444,5.7249 14.75626,11.008 16.74893,14.0191 8.24307,12.4561 3.07314,33.8033 -9.79859,40.4596 -4.42827,2.2899 -13.74353,2.3317 -18.97918,0.085 -2.21229,-0.9493 -5.96083,-3.7618 -8.33006,-6.25 -5.83542,-6.1285 -10.62324,-6.1771 -15.4269,-0.1567 -6.2201,7.7955 -16.2709,10.8579 -25.03564,7.6282 z m 251.15065,0.4565 c -4.68635,-1.4024 -10.29422,-6.7783 -13.64132,-13.077 -2.0271,-3.8147 -2.66672,-7.2699 -2.69803,-14.575 -0.0569,-13.2601 2.94598,-17.3837 21.85448,-30.0114 7.89496,-5.2725 17.05348,-12.5131 20.35227,-16.0903 l 5.99781,-6.5038 9.00219,8.7086 c 4.95121,4.7897 13.81436,11.8063 19.6959,15.5924 20.8529,13.4235 25.223,24.5534 16.88089,42.9927 -3.79968,8.3987 -9.09505,12.1112 -18.21604,12.771 -8.32559,0.6022 -15.76624,-2.5376 -20.1887,-8.5193 -3.99885,-5.4088 -9.23046,-5.1315 -14.86214,0.7877 -7.39802,7.7758 -15.64316,10.4782 -24.17731,7.9244 z m -313.2554,-288.702 c 0,-0.6875 0.5625,-1.25 1.25,-1.25 0.6875,0 1.25,0.5625 1.25,1.25 0,0.6875 -0.5625,1.25 -1.25,1.25 -0.6875,0 -1.25,-0.5625 -1.25,-1.25 z m 87.80365,-4.5808 c -1.15564,-0.4658 -0.89461,-1.5838 0.98669,-4.2258 1.40691,-1.9759 3.23151,-6.4277 4.05466,-9.8929 0.82314,-3.4653 1.86341,-6.3005 2.3117,-6.3005 0.44829,0 1.16577,1.8694 1.59443,4.1543 0.42863,2.2849 2.41603,6.7351 4.41641,9.8894 2.00038,3.1543 3.30603,6.0661 2.90144,6.4707 -0.88199,0.882 -14.03218,0.805 -16.26533,-0.095 z m 250.72217,-0.014 c -1.85336,-0.4897 -1.73876,-1.0857 0.97873,-5.0901 1.69284,-2.4946 3.696,-6.9903 4.45146,-9.9905 l 1.37356,-5.4549 2.86486,7.0488 c 1.57566,3.8768 3.75151,8.0285 4.83521,9.226 3.59576,3.9733 2.39604,5.114 -5.21714,4.9604 -3.95312,-0.08 -8.13212,-0.3946 -9.28668,-0.6997 z m -351.35531,-1.2702 c -2.73335,-0.7129 -5.92051,-6.6582 -5.92051,-11.0442 0,-3.6677 3.50097,-7.4418 13.63015,-14.6933 l 6.60341,-4.7275 4.6998,4.1025 c 2.58489,2.2563 6.75109,5.6733 9.25822,7.5932 3.72143,2.8498 4.55842,4.2994 4.55842,7.8947 0,9.424 -6.01626,13.5994 -13.3556,9.2691 -5.36603,-3.1661 -7.30948,-3.1711 -11.30331,-0.03 -3.19357,2.512 -4.10697,2.6948 -8.17058,1.635 z m 72.20449,-16.4735 c -7.5853,-4.711 -10.60106,-9.5243 -13.1813,-21.0378 -0.85609,-3.8201 -0.81725,-7.1749 0.12475,-10.7732 2.47681,-9.4614 6.68415,-14.1114 21.70491,-23.9884 7.81432,-5.1384 17.04018,-12.4415 20.50194,-16.2293 l 6.2941,-6.8867 7.27782,7.6303 c 4.0028,4.1966 12.05607,10.8069 17.89614,14.6894 5.84008,3.8825 12.53775,8.7418 14.88373,10.7984 13.74576,12.0502 11.05009,37.296 -4.83949,45.3232 -9.54749,4.8232 -19.18441,2.9676 -26.8614,-5.1724 -2.18797,-2.3199 -5.72351,-4.6014 -7.85677,-5.0699 -3.37653,-0.7417 -4.25509,-0.3405 -6.78652,3.0986 -6.75773,9.1809 -20.75367,12.8375 -29.15786,7.6178 z m 250.90331,0.2623 c -5.74336,-2.8309 -9.89591,-8.2124 -12.12248,-15.71 -4.98731,-16.7941 0.55394,-28.457 18.71917,-39.3989 10.31695,-6.2145 20.55576,-14.3627 24.82067,-19.7526 l 3.57067,-4.5126 6.09637,6.84 c 3.353,3.7619 11.8712,10.7723 18.92933,15.5785 20.08557,13.6772 23.95504,18.5687 23.95466,30.2817 -5.4e-4,16.2834 -10.149,28.8103 -23.26905,28.7226 -5.48035,-0.037 -13.27885,-3.7803 -17.71583,-8.5042 -1.98725,-2.1158 -5.27987,-4.213 -7.31696,-4.6604 -3.20187,-0.7033 -4.21077,-0.1984 -7.44522,3.7255 -7.22624,8.7667 -19.11338,11.8796 -28.22133,7.3904 z m -317.20471,-40.5071 c -0.45316,-0.7332 -0.55585,-1.6012 -0.22819,-1.9289 0.32766,-0.3276 0.92883,0.2723 1.33594,1.3332 0.84523,2.2026 0.12481,2.5901 -1.10775,0.5957 z m 16.3014,-2.4168 c 0,-1.9312 0.42188,-3.2505 0.9375,-2.9319 0.51563,0.3187 0.9375,1.638 0.9375,2.9319 0,1.2939 -0.42187,2.6132 -0.9375,2.9319 -0.51562,0.3186 -0.9375,-1.0007 -0.9375,-2.9319 z m -16.875,-7.1939 c 0,-3.1374 0.77329,-5.6391 2.07582,-6.7155 1.90006,-1.5703 1.92752,-1.4775 0.32432,1.0969 -1.38568,2.2251 -1.43931,3.3124 -0.2568,5.2059 1.19635,1.9157 1.13161,2.6947 -0.32432,3.9031 -1.54047,1.2784 -1.81902,0.7439 -1.81902,-3.4904 z m -51.1513,-53.5353 c 0.06,-1.4561 0.3562,-1.7523 0.7552,-0.7552 0.3611,0.9024 0.3167,1.9805 -0.099,2.3959 -0.4154,0.4153 -0.7108,-0.323 -0.6565,-1.6407 z m 556.24999,0 c 0.06,-1.4561 0.35617,-1.7523 0.7552,-0.7552 0.36108,0.9024 0.31669,1.9805 -0.0986,2.3959 -0.41536,0.4153 -0.7108,-0.323 -0.65652,-1.6407 z m -553.22369,-5.5208 c 1.2444,-1.375 2.5437,-2.5 2.8875,-2.5 0.34372,0 -0.3931,1.125 -1.6375,2.5 -1.2444,1.375 -2.5437,2.5 -2.8875,2.5 -0.3437,0 0.3931,-1.125 1.6375,-2.5 z m 549.88124,-0.3125 -2.38124,-2.8125 2.8125,2.3812 c 1.54688,1.3097 2.8125,2.5753 2.8125,2.8125 0,1.0004 -1.00599,0.2619 -3.24376,-2.3812 z m -543.82437,-3.7309 c 0.79372,-0.5051 122.09938,-0.9183 269.56813,-0.9183 147.46875,0 268.77441,0.4132 269.56814,0.9183 0.79372,0.5051 -120.51194,0.9184 -269.56814,0.9184 -149.0562,0 -270.36186,-0.4133 -269.56813,-0.9184 z m 119.88063,-45.6441 c 82.32813,-0.1774 217.04688,-0.1774 299.375,0 82.32813,0.1775 14.96875,0.3227 -149.6875,0.3227 -164.65625,0 -232.01562,-0.1452 -149.6875,-0.3227 z"
         id="path4705"
         inkscape:connector-curvature="0" />
    </g>
  </g>
</svg>
