<?xml version="1.0" encoding="UTF-8" standalone="no"?>
<!-- Created with Inkscape (http://www.inkscape.org/) -->

<svg
   xmlns:dc="http://purl.org/dc/elements/1.1/"
   xmlns:cc="http://creativecommons.org/ns#"
   xmlns:rdf="http://www.w3.org/1999/02/22-rdf-syntax-ns#"
   xmlns:svg="http://www.w3.org/2000/svg"
   xmlns="http://www.w3.org/2000/svg"
   xmlns:sodipodi="http://sodipodi.sourceforge.net/DTD/sodipodi-0.dtd"
   xmlns:inkscape="http://www.inkscape.org/namespaces/inkscape"
   width="176.4563mm"
   height="246.30643mm"
   viewBox="0 0 625.23886 872.73931"
   id="svg2"
   version="1.1"
   inkscape:version="0.91 r13725"
   sodipodi:docname="7.svg">
  <defs
     id="defs4">
    <pattern
       y="0"
       x="0"
       height="6"
       width="6"
       patternUnits="userSpaceOnUse"
       id="EMFhbasepattern" />
    <pattern
       y="0"
       x="0"
       height="6"
       width="6"
       patternUnits="userSpaceOnUse"
       id="EMFhbasepattern-7" />
  </defs>
  <sodipodi:namedview
     id="base"
     pagecolor="#ffffff"
     bordercolor="#666666"
     borderopacity="1.0"
     inkscape:pageopacity="0.0"
     inkscape:pageshadow="2"
     inkscape:zoom="0.35"
     inkscape:cx="137.83555"
     inkscape:cy="152.48696"
     inkscape:document-units="px"
     inkscape:current-layer="layer1"
     showgrid="false"
     fit-margin-top="0"
     fit-margin-left="0"
     fit-margin-right="0"
     fit-margin-bottom="0"
     inkscape:window-width="784"
     inkscape:window-height="822"
     inkscape:window-x="800"
     inkscape:window-y="0"
     inkscape:window-maximized="0" />
  <metadata
     id="metadata7">
    <rdf:RDF>
      <cc:Work
         rdf:about="">
        <dc:format>image/svg+xml</dc:format>
        <dc:type
           rdf:resource="http://purl.org/dc/dcmitype/StillImage" />
        <dc:title></dc:title>
      </cc:Work>
    </rdf:RDF>
  </metadata>
  <g
     inkscape:label="Calque 1"
     inkscape:groupmode="layer"
     id="layer1"
     transform="translate(104.26412,187.89003)">
    <g
       transform="translate(1735.7059,-1636.2503)"
       id="g4685">
      <path
         style="fill:#fdfdfd"
         d="m -1839.8506,1884.7279 0,-436.25 312.5,0 312.5,0 0,436.25 0,436.25 -312.5,0 -312.5,0 0,-436.25 z"
         id="path4701"
         inkscape:connector-curvature="0" />
      <path
         style="fill:#e6e6e6"
         d="m -1833.7254,2319.4196 c -1.8959,-0.7539 -3.8487,-2.9486 -4.6875,-5.2682 -2.0668,-5.7156 -2.07,-853.1223 0,-858.8378 0.9685,-2.6784 2.7229,-4.4328 5.4013,-5.4013 5.6984,-2.0606 605.6302,-2.0606 611.3286,0 2.6784,0.9685 4.4328,2.7229 5.4013,5.4013 2.0638,5.7073 2.0638,853.1213 0,858.8286 -0.9685,2.6784 -2.7229,4.4328 -5.4013,5.4013 -5.3415,1.9315 -607.1766,1.8097 -612.0391,-0.1239 z m 611.4709,-5.8455 3.6539,-3.6539 0,-425.1923 0,-425.1923 -3.6539,-3.6539 -3.6538,-3.6538 -301.4423,0 -301.4423,0 -3.6539,3.6538 -3.6538,3.6539 0,425.1923 0,425.1923 3.6538,3.6539 3.6539,3.6538 301.4423,0 301.4423,0 3.6538,-3.6538 z m -576.9683,-34.5607 c -2.061,-1.0772 -4.7904,-2.9027 -6.0655,-4.0566 -6.1617,-5.5763 -5.8123,17.881 -5.8123,-390.2289 0,-336.4355 0.2208,-381.8011 1.8737,-384.9975 1.0305,-1.9928 3.9399,-5.1992 6.4652,-7.1254 l 4.5915,-3.5021 270.8196,0 270.8196,0 4.5915,3.5021 c 2.5253,1.9262 5.4347,5.1326 6.4652,7.1254 1.6529,3.1964 1.8737,48.562 1.8737,384.9975 0,336.4355 -0.2208,381.8011 -1.8737,384.9975 -1.0305,1.9928 -3.9398,5.1992 -6.4651,7.1254 l -4.5914,3.5021 -269.4724,0.3095 c -242.6017,0.2787 -269.8461,0.1142 -273.2196,-1.649 z m 543.1222,-11.7855 c 2.489,-2.489 2.5,-4.1667 2.5,-382.5 0,-378.3333 -0.011,-380.011 -2.5,-382.5 -2.4845,-2.4845 -4.1667,-2.5 -271.25,-2.5 -267.0833,0 -268.7655,0.015 -271.25,2.5 -2.489,2.489 -2.5,4.1667 -2.5,382.5 0,378.3333 0.011,380.011 2.5,382.5 2.4845,2.4845 4.1667,2.5 271.25,2.5 267.0833,0 268.7655,-0.015 271.25,-2.5 z m -402.9205,-24.8923 c -5.5822,-7.3199 -11.4491,-12.2194 -26.2363,-21.9101 -11.9812,-7.8519 -17.0626,-13.6969 -20.2501,-23.2936 -4.2678,-12.849 3.444,-31.1734 15.7643,-37.4588 8.3313,-4.2503 22.2529,-2.6028 28.9093,3.4212 1.2283,1.1116 2.2333,1.6346 2.2333,1.1622 0,-2.4342 -4.1879,-10.3223 -7.457,-14.0456 -6.1641,-7.0205 -2.6649,-9.9172 11.832,-9.7946 9.7078,0.082 16.875,2.4667 16.875,5.6146 0,1.2975 -1.1728,2.9867 -2.6063,3.7539 -2.4686,1.3211 -7.3072,10.0764 -7.3663,13.329 -0.015,0.8497 2.7815,-0.2352 6.3912,-2.4792 16.4435,-10.2218 35.04,-1.161 40.4697,19.7183 2.5381,9.7597 1.4854,17.396 -3.5646,25.8584 -3.2814,5.4986 -6.3285,8.2095 -17.7061,15.752 -14.1482,9.3793 -23.0084,17.0655 -26.6019,23.0771 -2.9309,4.9034 -5.3513,4.2908 -10.6862,-2.7048 z m 252.4483,2.6878 c -2.6825,-5.1874 -14.2029,-15.5598 -24.635,-22.1802 -18.6491,-11.8351 -24.2193,-19.648 -24.1877,-33.9264 0.016,-7.4239 0.6485,-10.1654 3.7355,-16.2015 5.1767,-10.1222 11.7186,-14.5789 22.3979,-15.2589 6.9156,-0.4404 8.8571,-0.053 13.9143,2.7731 3.2326,1.8067 6.1375,3.0248 6.4554,2.7069 1.0832,-1.0832 -4.9432,-11.9963 -7.33,-13.2737 -2.7127,-1.4518 -3.1372,-5.2488 -0.8033,-7.1857 2.72,-2.2574 16.0649,-2.9839 22.8001,-1.2412 4.816,1.2461 6.338,2.2347 6.6336,4.3089 0.223,1.5647 -0.615,3.3966 -2.0013,4.375 -2.9747,2.0994 -6.5073,8.8077 -6.5073,12.3572 0,2.6261 0.066,2.6178 3.7355,-0.47 2.0545,-1.7288 6.7561,-3.8192 10.4479,-4.6454 5.7331,-1.283 7.6464,-1.1919 13.1143,0.6242 8.2854,2.752 15.254,10.4706 18.3555,20.331 2.9938,9.5181 2.831,15.8441 -0.6122,23.7883 -3.3729,7.7818 -8.7084,12.8535 -23.4626,22.3025 -11.9821,7.6737 -19.1148,13.938 -23.0091,20.2079 -3.0986,4.9889 -6.6525,5.2279 -9.0415,0.608 z m 86.3491,-21.0853 c -2.1103,-2.1103 -0.4114,-8.0759 5.1149,-17.9602 4.785,-8.5585 6.5634,-10.6981 9.1438,-11.0007 1.7619,-0.2066 3.915,0.4818 4.7848,1.5298 1.3122,1.5811 0.8152,3.2755 -2.9195,9.9538 -2.4755,4.4266 -4.5009,8.348 -4.5009,8.7142 0,0.3663 2.6719,0.8374 5.9375,1.0469 5.6792,0.3644 5.9375,0.5441 5.9375,4.131 l 0,3.75 -11.3106,0.3561 c -6.2208,0.1958 -11.7052,-0.038 -12.1875,-0.5209 z m 3.9896,-47.0517 c -3.1671,-2.9059 -8.0658,-7.1239 -10.8859,-9.3733 -5.9033,-4.7086 -7.5639,-10.0902 -5.2639,-17.0592 1.8678,-5.6595 6.716,-9.476 12.0376,-9.476 3.2062,0 3.9999,-0.4361 3.4416,-1.8909 -1.1181,-2.9137 1.9301,-5.6091 6.3432,-5.6091 5.0256,0 8.8869,2.6854 7.8282,5.4442 -0.6513,1.6973 0.086,2.0558 4.2287,2.0558 6.087,0 10.2761,3.6548 12.4303,10.8448 2.0933,6.987 -0.6177,12.8961 -8.3455,18.1905 -3.2832,2.2493 -7.9033,5.9178 -10.2669,8.1522 -2.3636,2.2344 -4.633,4.0495 -5.0432,4.0335 -0.4101,-0.016 -3.337,-2.4065 -6.5042,-5.3125 z m -345.179,-237.8336 c -4.7393,-1.517 -5.9375,-2.4629 -5.9375,-4.687 0,-1.5326 1.1665,-3.515 2.5923,-4.4054 2.6139,-1.6325 6.1577,-8.5556 6.1577,-12.0297 0,-1.4521 -1.0198,-1.1854 -4.5007,1.1768 -13.2668,9.0031 -30.9614,4.0925 -38.3025,-10.6296 -10.0576,-20.1701 -4.6525,-35.8538 17.126,-49.6938 13.5686,-8.6227 20.97,-14.6489 25.6289,-20.8667 2.3446,-3.1292 5.188,-5.6895 6.3187,-5.6895 1.1307,0 3.832,2.4733 6.0028,5.4962 4.7453,6.6076 12.203,12.8706 26.611,22.348 5.9175,3.8925 12.3179,9.1209 14.2231,11.6187 12.09,15.8508 6.3112,41.2724 -11.2323,49.4123 -8.2447,3.8254 -20.7627,2.2814 -26.9578,-3.3251 -1.487,-1.3457 -2.4172,-1.6128 -2.4172,-0.694 0,2.4756 4.5558,10.6078 7.367,13.1501 3.2975,2.9823 3.3793,6.5064 0.1906,8.213 -4.3339,2.3194 -16.5089,2.6419 -22.8701,0.6057 z m 251.1895,-0.092 c -7.6621,-2.3548 -8.5088,-4.5955 -3.5634,-9.4306 3.5362,-3.4572 7.2092,-11.9457 5.7852,-13.3697 -0.3209,-0.3209 -1.5713,0.2827 -2.7786,1.3415 -6.7142,5.8876 -18.6982,7.7795 -26.9229,4.2504 -12.7352,-5.4645 -20.9537,-25.1464 -16.646,-39.864 2.6795,-9.1542 8.0625,-15.0204 22.139,-24.1258 13.9362,-9.0146 21.1688,-15.1873 24.9343,-21.28 1.4461,-2.3399 3.4906,-4.2542 4.5432,-4.2542 1.0527,0 5.523,3.8981 9.9342,8.6625 4.6154,4.9851 13.3094,12.195 20.4796,16.9835 14.6675,9.7957 20.1228,15.709 23.0355,24.969 1.83,5.818 1.9171,7.7568 0.6107,13.5941 -3.6266,16.2056 -12.5895,25.5022 -25.6721,26.6281 -6.4191,0.5524 -8.3171,0.1573 -14.5682,-3.0327 -3.9531,-2.0174 -7.1875,-3.4556 -7.1875,-3.1961 0,2.1121 4.1803,9.5447 7.4852,13.3088 4.7182,5.3737 3.9366,7.4727 -3.558,9.5544 -6.0509,1.6807 -10.8107,1.4858 -18.0502,-0.7392 z m -124.507,-178.3219 c -7.5897,-2.1172 -9.3063,-5.2203 -4.8718,-8.8072 3.1133,-2.5181 7.2518,-10.1645 7.2518,-13.3984 0,-0.7564 -1.7282,-0.1446 -3.8405,1.3595 -5.4121,3.8537 -14.5473,6.3558 -19.8353,5.4327 -6.639,-1.1588 -14.7349,-6.2881 -18.2075,-11.5355 -1.6925,-2.5575 -4.0153,-8.4511 -5.1617,-13.0969 -1.7485,-7.0855 -1.8444,-9.5194 -0.5951,-15.1021 2.2619,-10.1074 7.3731,-15.9114 23.1443,-26.2817 12.4883,-8.2116 26.9958,-21.4218 26.9958,-24.5817 0,-0.6321 1.0645,-1.1493 2.3655,-1.1493 1.372,0 4.3814,2.6433 7.165,6.2934 5.0336,6.6005 12.4319,12.7221 27.8322,23.0293 10.3105,6.9006 15.2487,12.8541 18.3119,22.0768 1.931,5.8136 1.925,6.793 -0.093,15.0267 -4.0767,16.6352 -14.3638,25.3788 -28.8736,24.5414 -5.7558,-0.3322 -8.9495,-1.2913 -12.8125,-3.8478 -2.8301,-1.8729 -5.1457,-3.098 -5.1457,-2.7224 0,2.2779 4.2977,10.2714 7.457,13.8696 3.791,4.3177 3.9126,7.19 0.3622,8.5524 -4.2143,1.6171 -16.1921,1.8077 -21.4492,0.3412 z m -216.9592,-126.3548 c -1.4186,-1.0373 -2.0111,-2.4914 -1.5281,-3.75 0.6513,-1.6973 -0.086,-2.0558 -4.2287,-2.0558 -6.087,0 -10.2761,-3.6548 -12.4303,-10.8448 -2.0933,-6.987 0.6177,-12.8961 8.3454,-18.1905 3.2832,-2.2493 7.9034,-5.9178 10.267,-8.1522 2.3635,-2.2344 4.5747,-4.0625 4.9135,-4.0625 0.3389,0 3.2701,2.3906 6.5139,5.3125 3.2438,2.9219 8.2008,7.1529 11.0156,9.4023 5.8929,4.7092 7.5521,10.0965 5.2542,17.0592 -1.8678,5.6595 -6.716,9.476 -12.0376,9.476 -3.2063,0 -3.9999,0.4361 -3.4416,1.8909 1.8325,4.7756 -7.51,7.6684 -12.6433,3.9149 z m 90.5892,-4.8976 c -6.3525,-1.7315 -8.3761,-5.9324 -3.9888,-8.2804 2.5868,-1.3844 6.4888,-8.5596 6.4888,-11.9319 0,-1.7291 -0.8503,-1.553 -5.4137,1.1214 -10.9466,6.4151 -21.9716,5.4177 -31.0806,-2.8117 -6.0301,-5.4478 -7.9847,-9.1037 -10.373,-19.4021 -1.6372,-7.0596 -1.6379,-8.7241 -0.01,-14.2199 3.0519,-10.2769 8.1768,-15.9236 23.4972,-25.8896 13.1497,-8.5537 22.4834,-16.9041 25.7799,-23.0636 1.4112,-2.637 6.3465,-3.8047 6.3465,-1.5016 0,2.8627 15.2886,17.2844 25.5901,24.1389 20.629,13.7263 25.0057,19.7064 24.9259,34.0573 -0.1054,18.943 -11.2933,32.0875 -27.5108,32.3219 -4.6261,0.067 -8.181,-0.8317 -12.8275,-3.2424 -4.2232,-2.191 -6.4277,-2.7962 -6.4277,-1.7644 0,2.291 7.2211,13.3099 8.7225,13.3099 2.0233,0 1.4837,5.9034 -0.6132,6.7081 -4.2472,1.6298 -17.8121,1.894 -23.1093,0.4501 z m 251.5433,0.3394 c -2.9324,-0.6181 -5.8856,-1.4661 -6.5625,-1.8845 -2.1508,-1.3292 -1.3271,-5.4736 1.3755,-6.92 2.4739,-1.324 7.3075,-10.0793 7.3662,-13.3429 0.016,-0.9045 -1.8257,-0.2673 -4.5274,1.5662 -18.0283,12.2343 -38.1908,2.4131 -42.9024,-20.898 -3.4108,-16.8752 2.8152,-27.149 25.1,-41.419 10.9954,-7.0409 22.9175,-17.9569 24.2717,-22.2235 1.2284,-3.8705 5.003,-2.726 8.7257,2.6459 4.7078,6.7934 10.7604,12.0839 24.0393,21.0127 13.6736,9.194 18.7159,14.1122 21.9934,21.4515 7.1097,15.9208 -2.4565,38.4302 -18.3365,43.1461 -7.4961,2.2261 -13.0529,1.5147 -20.6812,-2.6475 -3.0085,-1.6415 -5.6879,-2.9846 -5.9543,-2.9846 -1.303,0 3.7368,9.5434 7.0062,13.267 3.791,4.3177 3.9126,7.19 0.3622,8.5524 -3.6981,1.4191 -15.9132,1.8084 -21.2759,0.6782 z m -343.9637,-56.7767 c -1.3122,-1.5811 -0.8152,-3.2755 2.9195,-9.9538 2.4755,-4.4266 4.5009,-8.3788 4.5009,-8.7827 0,-0.4039 -2.7523,-0.7344 -6.1163,-0.7344 -6.6823,0 -8.666,-1.9854 -6.3352,-6.3406 1.1255,-2.1031 2.7086,-2.4094 12.4515,-2.4094 10.0012,0 11.3058,0.2685 12.544,2.5823 1.4575,2.7233 0.1122,6.0091 -8.4105,20.5427 -3.9346,6.7095 -8.5319,8.7372 -11.5539,5.0959 z"
         id="path4699"
         inkscape:connector-curvature="0" />
      <path
         style="fill:#d5d5d5"
         d="m -1833.463,2319.2335 c -6.7121,-3.7202 -6.2956,24.7837 -6.3433,-434.1343 -0.034,-328.0882 0.3003,-427.26 1.4491,-429.7812 3.3332,-7.3157 -18.2831,-6.8401 310.8857,-6.8401 231.8704,0 303.2686,0.3487 305.7808,1.4934 7.3554,3.3513 6.8401,-29.4033 6.8401,434.7566 0,464.1599 0.5153,431.4053 -6.8401,434.7566 -5.0745,2.3122 -607.5939,2.0649 -611.7723,-0.251 z m 604.8624,-0.7556 c 0,-0.6875 0.9481,-1.25 2.1069,-1.25 2.8688,0 7.8931,-4.9128 7.8931,-7.7179 0,-1.2551 0.5625,-2.2821 1.25,-2.2821 0.8309,0 1.25,-141.6667 1.25,-422.5 0,-280.8333 -0.4191,-422.5 -1.25,-422.5 -0.6875,0 -1.25,-0.9481 -1.25,-2.1069 0,-2.8688 -4.9128,-7.8931 -7.7179,-7.8931 -1.2552,0 -2.2821,-0.5625 -2.2821,-1.25 0,-0.8298 -100.4167,-1.25 -298.75,-1.25 -198.3333,0 -298.75,0.4202 -298.75,1.25 0,0.6875 -0.9481,1.25 -2.1069,1.25 -2.8688,0 -7.8931,4.9128 -7.8931,7.7179 0,1.2552 -0.5625,2.2821 -1.25,2.2821 -0.8309,0 -1.25,141.6667 -1.25,422.5 0,280.8333 0.4191,422.5 1.25,422.5 0.6875,0 1.25,0.9481 1.25,2.1069 0,2.8688 4.9128,7.8931 7.7179,7.8931 1.2552,0 2.2821,0.5625 2.2821,1.25 0,0.8299 100.4167,1.25 298.75,1.25 198.3333,0 298.75,-0.4201 298.75,-1.25 z m -572.6247,-41.4171 c -2.4749,-1.4353 -5.428,-4.1811 -6.5625,-6.1017 -1.905,-3.2247 -2.0628,-32.8078 -2.0628,-386.6407 l 0,-383.1487 3.2739,-3.8908 c 6.8769,-8.1728 -16.1158,-7.551 279.2261,-7.551 295.3419,0 272.3491,-0.6218 279.2261,7.551 l 3.2739,3.8908 0,383.1487 c 0,354.7394 -0.1539,383.4092 -2.0749,386.6613 -1.1412,1.9319 -4.1709,4.6906 -6.7327,6.1304 l -4.6578,2.6178 -269.2048,-0.029 -269.2048,-0.029 -4.4997,-2.6097 z m 546.0176,-8.94 c 2.133,-2.1331 2.2321,-19.1489 2.2321,-383.3929 0,-364.2476 -0.099,-381.2598 -2.2321,-383.3929 -2.1291,-2.129 -14.6953,-2.2321 -272.1429,-2.2321 -257.4459,0 -270.0138,0.1031 -272.1429,2.2321 -2.1316,2.1316 -2.2465,19.2672 -2.5527,380.4192 -0.1763,208.0028 0.1402,379.9671 0.7035,382.1429 0.5846,2.2583 2.3314,4.6204 4.0706,5.5046 2.4002,1.2202 59.9845,1.4854 271.4394,1.25 255.7654,-0.2847 268.4979,-0.4038 270.625,-2.5309 z m -401.2702,-23.8152 c -4.0072,-6.1158 -14.3066,-15.1616 -26.0549,-22.8833 -13.795,-9.0672 -18.8972,-14.5275 -21.8326,-23.3653 -6.028,-18.1485 8.6276,-40.8152 26.3898,-40.8152 4.8111,0 11.8301,2.6097 15.639,5.8147 2.1129,1.7779 4.1382,2.9359 4.5007,2.5733 1.1546,-1.1545 -4.5995,-13.0458 -7.7407,-15.9968 -3.8857,-3.6504 -3.8303,-5.9104 0.1824,-7.436 4.2043,-1.5985 16.1909,-1.5461 22.1061,0.097 3.4045,0.9455 4.6875,1.9807 4.6875,3.7823 0,1.3642 -0.8677,2.8134 -1.9283,3.2204 -2.8795,1.105 -9.8894,16.6816 -7.5071,16.6816 0.3368,0 3.1178,-1.766 6.18,-3.9245 9.4645,-6.6712 22.1728,-6.2305 30.8486,1.0697 5.5642,4.682 10.1352,14.614 10.8555,23.5871 1.2136,15.1189 -3.841,22.7588 -23.6942,35.8134 -12.5535,8.2547 -26.0045,20.4565 -26.0045,23.5895 0,2.3054 -4.788,0.9995 -6.6273,-1.8075 z m 251.6273,1.9218 c 0,-2.9157 -14.1864,-16.2128 -24.7655,-23.213 -19.3535,-12.8061 -25.2345,-20.5015 -25.2345,-33.0195 0,-9.9111 3.2483,-18.5811 9.1865,-24.5193 9.2965,-9.2965 21.1278,-10.4516 32.5911,-3.1818 3.3527,2.1262 5.711,2.9934 5.6949,2.0941 -0.051,-2.8433 -4.5974,-11.5154 -7.296,-13.9162 -3.6322,-3.2315 -3.4051,-6.7787 0.5299,-8.2747 6.5834,-2.5031 24.1686,-0.7051 26.264,2.6852 0.4458,0.7214 -0.9495,3.1277 -3.1007,5.3473 -3.5037,3.6149 -6.3697,9.9707 -6.3697,14.126 0,0.8753 2.6667,-0.1386 6.2923,-2.3924 15.1271,-9.4035 31.1533,-3.9875 38.6997,13.0785 8.3706,18.9298 1.7953,33.6203 -21.3554,47.7117 -10.5648,6.4306 -20.3158,14.7264 -23.6491,20.1199 -2.3891,3.8655 -7.4875,6.1495 -7.4875,3.3542 z m 85.0892,-23.2671 c -1.9291,-2.3244 -1.3382,-4.1798 5.2476,-16.4792 4.4281,-8.2698 5.8502,-9.9427 8.7334,-10.2744 5.256,-0.6047 5.3209,2.2688 0.2591,11.4776 l -4.5587,8.2936 4.8758,0 c 6.3823,0 10.2642,2.7273 8.3468,5.8643 -1.8899,3.0922 -20.5113,4.0013 -22.904,1.1181 z m 3.6608,-47.0359 c -17.2831,-15.3351 -16.25,-14.0422 -16.25,-20.3352 0,-4.6604 0.7244,-6.6326 3.6313,-9.886 3.0179,-3.3776 4.4793,-4.042 8.6506,-3.9326 4.6659,0.1224 5.0042,-0.099 4.8061,-3.143 -0.2003,-3.0793 0.1225,-3.2747 5.412,-3.2747 5.3322,0 5.6223,0.1812 5.5724,3.4797 -0.048,3.1441 0.2753,3.4078 3.3463,2.7333 7.379,-1.6208 14.8313,5.8555 14.8313,14.879 0,5.3429 -3.9088,10.27 -12.5424,15.8102 -3.4574,2.2186 -6.8507,5.0888 -7.5408,6.3783 -1.8121,3.3859 -3.5973,2.8982 -9.9168,-2.709 z m -344.5303,-237.5542 c -2.1479,-0.6228 -4.6397,-2.0172 -5.5372,-3.0987 -1.3855,-1.6694 -1.1298,-2.3779 1.6936,-4.6924 3.5215,-2.8868 7.1239,-10.2798 7.1239,-14.6199 0,-2.4413 -0.2846,-2.3761 -4.6875,1.0734 -16.9551,13.2837 -37.3818,3.9659 -42.8052,-19.526 -3.5422,-15.3434 4.8975,-29.2771 24.3677,-40.2303 4.1271,-2.3218 12.2381,-8.9805 18.0356,-14.8064 l 10.5356,-10.587 3.7949,4.86 c 6.348,8.1298 13.3047,14.1513 26.1614,22.6446 17.8149,11.7686 22.972,19.9604 21.7952,34.6205 -0.6808,8.4813 -4.332,16.817 -9.4911,21.6685 -9.2896,8.7356 -24.6762,8.9937 -34.2768,0.575 -1.2073,-1.0587 -2.529,-1.5911 -2.937,-1.183 -1.3634,1.3633 2.2281,9.824 5.988,14.1063 6.3291,7.2085 3.4588,10.291 -9.6058,10.3158 -3.4375,0.01 -8.0074,-0.4977 -10.1553,-1.1204 z m 249.6058,-0.3213 c -5.5702,-2.0965 -6.0808,-4.0066 -2.1677,-8.1089 3.1709,-3.3242 4.7457,-6.5659 6.2873,-12.9422 l 0.8112,-3.355 -6.2029,4.1742 c -10.4191,7.0115 -18.8854,7.2194 -29.1408,0.7156 -10.041,-6.3678 -15.824,-23.8525 -12.1863,-36.8449 2.3013,-8.2197 8.649,-14.7552 24.3733,-25.0947 13.2892,-8.7382 17.7219,-12.6613 24.0128,-21.2519 l 2.7375,-3.7382 8.2392,8.9945 c 4.9494,5.4031 13.2099,12.3248 20.6879,17.335 14.3835,9.6368 19.9777,15.3262 23.0944,23.4871 3.6247,9.4912 0.2052,25.1149 -7.245,33.102 -9.0871,9.7419 -26.1309,10.5565 -36.1966,1.73 -1.2073,-1.0587 -2.4226,-1.694 -2.7006,-1.4118 -1.1294,1.1467 3.0744,10.4756 6.8218,15.1387 3.6949,4.5978 3.8467,5.1375 1.972,7.0122 -2.6287,2.6287 -17.2528,3.2959 -23.1975,1.0583 z m -126.013,-178.9346 c -4.2807,-1.8606 -5.3871,-5.2066 -2.1343,-6.4548 2.1201,-0.8136 5.9982,-7.8559 7.2932,-13.2441 1.0093,-4.1991 0.4569,-4.255 -4.6173,-0.4672 -18.174,13.5664 -40.6257,1.3687 -42.9316,-23.3242 -1.4426,-15.4485 3.6299,-23.2375 23.7487,-36.4668 12.5512,-8.2531 18.5327,-13.5154 26.1915,-23.0417 l 2.2377,-2.7834 8.7299,9.348 c 5.2809,5.6546 13.5565,12.5306 20.9461,17.4033 13.3761,8.8203 18.0547,13.5783 21.7661,22.1351 6.4071,14.7719 -4.0657,37.2172 -19.2842,41.3296 -6.8583,1.8534 -16.0005,-0.064 -21.9529,-4.6042 -2.3208,-1.7702 -4.503,-2.935 -4.8495,-2.5886 -1.1316,1.1316 4.671,13.0561 7.7701,15.9675 1.6632,1.5625 3.024,3.5316 3.024,4.3757 0,4.0346 -18.2931,5.7384 -25.9375,2.4158 z m -214.8327,-126.189 c -0.411,-1.071 -0.4064,-2.8357 0.01,-3.9214 0.6213,-1.6193 0.1001,-1.8297 -2.9001,-1.1708 -7.6464,1.6795 -15.09,-5.632 -15.09,-14.8222 0,-5.3428 3.9088,-10.27 12.5424,-15.8102 3.4573,-2.2186 6.8507,-5.0888 7.5408,-6.3783 1.8037,-3.3702 3.1439,-2.9798 10.1891,2.968 14.947,12.619 15.9777,13.9185 15.9777,20.1457 0,4.5837 -0.7377,6.578 -3.6313,9.8165 -3.0179,3.3776 -4.4793,4.042 -8.6506,3.9326 -4.6659,-0.1224 -5.0042,0.099 -4.8061,3.143 0.1951,2.9999 -0.2338,3.307 -5.1109,3.6596 -3.9202,0.2835 -5.521,-0.1285 -6.0713,-1.5625 z m 88.5827,-5.061 c -4.9183,-2.1377 -5.0216,-3.0662 -0.7764,-6.981 3.591,-3.3116 6.7139,-9.6326 6.7139,-13.5895 0,-2.3076 -0.4585,-2.1912 -5.5752,1.4154 -6.3678,4.4884 -16.2308,6.0167 -23.4512,3.6338 -13.2147,-4.3613 -22.7416,-25.3837 -17.9884,-39.6942 3.022,-9.0985 8.2779,-14.5569 23.9216,-24.8434 12.286,-8.0786 25.5932,-20.2291 25.5932,-23.3685 0,-0.5275 1.125,-0.959 2.5,-0.959 1.375,0 2.5,0.5172 2.5,1.1493 0,2.9306 14.234,16.2127 25.5707,23.8606 19.4026,13.0893 24.4293,19.7197 24.4293,32.2231 0,26.9047 -23.7949,41.5023 -43.6248,26.7629 l -4.2499,-3.1589 0.8979,3.644 c 1.1521,4.6762 6.7183,14.269 8.2795,14.269 0.6585,0 1.1973,1.3407 1.1973,2.9792 0,2.0329 -0.8934,3.2186 -2.8125,3.7329 -5.103,1.3676 -18.9899,0.7216 -23.125,-1.0757 z m 251.25,0.4651 c -4.959,-1.4318 -5.4009,-4.937 -0.987,-7.8291 2.9002,-1.9003 7.8094,-14.0542 6.2903,-15.5732 -0.3441,-0.3442 -1.8967,0.5684 -3.4503,2.0279 -7.0216,6.5964 -19.7875,8.4246 -28.3444,4.0592 -9.7974,-4.9983 -16.3211,-17.0622 -16.3211,-30.1818 0,-12.7852 5.2092,-19.9224 23.1511,-31.7201 8.6644,-5.6973 16.7569,-12.254 21.4631,-17.39 4.1549,-4.5344 8.0962,-8.2444 8.7582,-8.2444 0.6621,0 3.0059,2.5093 5.2084,5.5763 4.7172,6.5686 10.4352,11.3669 25.9769,21.7986 12.28,8.2425 16.9793,13.3312 19.8657,21.5123 2.466,6.9894 2.2998,11.8459 -0.704,20.5766 -6.7571,19.64 -26.7077,26.4161 -42.1083,14.302 -1.7835,-1.403 -3.4773,-2.3163 -3.7639,-2.0297 -1.0469,1.047 4.9402,13.0981 7.8788,15.8588 3.8857,3.6505 3.8303,5.9104 -0.1824,7.436 -3.9612,1.5061 -17.2572,1.4012 -22.7311,-0.1794 z m -341.0491,-56.5666 c -0.3973,-1.0354 1.2934,-5.322 3.7571,-9.5257 2.4637,-4.2037 4.4795,-7.8634 4.4795,-8.1327 0,-0.2692 -2.6143,-0.661 -5.8095,-0.8705 -7.0656,-0.4634 -10.0923,-3.7686 -6.1391,-6.7042 2.8554,-2.1203 17.1166,-2.4688 20.7808,-0.5078 3.5791,1.9155 3.0223,4.4744 -3.5269,16.206 -4.9644,8.8927 -6.4929,10.6896 -9.3755,11.0212 -2.1956,0.2526 -3.7059,-0.2862 -4.1664,-1.4863 z"
         id="path4697"
         inkscape:connector-curvature="0" />
      <path
         style="fill:#a5a5a5"
         d="m -1831.7256,2319.4583 c -3.2861,-1.8973 -4.9186,-3.5749 -6.6776,-6.8615 -2.0891,-3.9037 -2.0891,-851.8341 0,-855.7378 1.8268,-3.4134 3.5203,-5.1069 6.9337,-6.9337 3.8991,-2.0867 604.3386,-2.0867 608.2378,0 3.4134,1.8268 5.1069,3.5203 6.9337,6.9337 2.0891,3.9037 2.0891,851.8341 0,855.7378 -1.8268,3.4134 -3.5203,5.1069 -6.9337,6.9337 -3.8922,2.083 -604.8848,2.0118 -608.4939,-0.072 z m 607.527,-1.702 c 8.8441,-4.1968 8.098,35.6975 8.098,-433.0284 0,-382.3907 -0.1882,-423.1438 -1.9716,-426.902 -4.1703,-8.7883 22.1934,-8.098 -309.2784,-8.098 -331.4718,0 -305.1081,-0.6903 -309.2784,8.098 -1.7834,3.7582 -1.9716,44.5113 -1.9716,426.902 0,381.6755 0.1908,423.1492 1.9637,426.8854 4.1507,8.7469 -22.3139,8.0546 309.0974,8.0861 269.9061,0.026 299.5927,-0.1644 303.3409,-1.9431 z m -575.6362,-40.872 c -3.1714,-1.6771 -6.3289,-4.6177 -7.6966,-7.168 -2.2444,-4.1849 -2.3192,-16.6053 -2.3192,-384.9884 0,-368.3831 0.075,-380.8035 2.3192,-384.9883 1.3677,-2.5504 4.5252,-5.491 7.6966,-7.168 l 5.3774,-2.8437 267.1068,0 267.1068,0 5.3774,2.8437 c 3.1714,1.677 6.3289,4.6176 7.6966,7.168 2.2444,4.1848 2.3192,16.6052 2.3192,384.9883 0,368.3831 -0.075,380.8035 -2.3192,384.9884 -1.3677,2.5503 -4.5252,5.4909 -7.6966,7.168 l -5.3774,2.8436 -267.1068,0 -267.1068,0 -5.3774,-2.8436 z m 544.9842,-8.4064 c 2.4891,-2.4891 2.5,-4.1667 2.5,-383.75 0,-379.5833 -0.011,-381.2609 -2.5,-383.75 -2.4846,-2.4846 -4.1667,-2.5 -272.5,-2.5 -268.3333,0 -270.0154,0.015 -272.5,2.5 -2.4891,2.4891 -2.5,4.1667 -2.5,383.75 0,379.5833 0.011,381.2609 2.5,383.75 2.4846,2.4846 4.1667,2.5 272.5,2.5 268.3333,0 270.0154,-0.015 272.5,-2.5 z m -406.214,-30.2351 c -4.9853,-5.4753 -12.7569,-11.962 -20.2548,-16.9062 -13.1071,-8.6429 -18.7082,-14.1209 -21.6589,-21.1829 -5.685,-13.6061 2.3113,-34.5378 15.275,-39.9855 7.372,-3.0979 15.3101,-2.1809 23.4257,2.7061 4.0155,2.418 7.4448,4.2461 7.6207,4.0625 0.9628,-1.0054 -3.9287,-12.2417 -7.0516,-16.1981 -4.4535,-5.6422 -4.5399,-6.9878 -0.5134,-7.9984 5.1755,-1.299 21.3363,-0.012 23.6166,1.8799 1.9212,1.5945 1.7842,2.0373 -1.6772,5.4215 -3.754,3.6702 -6.2979,10.0621 -6.3111,15.8576 l -0.01,3.0463 3.4375,-3.2061 c 18.3799,-17.1428 44.0364,-3.7231 44.3403,23.1924 0.1608,14.2411 -4.3965,20.5216 -24.4677,33.7196 -8.638,5.68 -16.6077,12.1198 -20.8367,16.8367 l -6.8484,7.6386 -8.089,-8.884 z m 253.9407,3.4889 c -4.8153,-6.7052 -12.434,-13.1151 -26.6121,-22.3895 -5.9182,-3.8714 -12.3186,-9.0818 -14.2231,-11.5787 -7.1827,-9.417 -8.2007,-20.8432 -2.9419,-33.02 7.4571,-17.2671 26.2965,-21.646 40.7379,-9.4689 3.5262,2.9733 4.0589,3.1221 4.035,1.1269 -0.043,-3.5919 -4.7837,-13.1968 -8.3618,-16.9409 -2.7908,-2.9203 -3.0072,-3.6751 -1.555,-5.4248 1.3867,-1.6709 3.7444,-1.9569 13.2551,-1.6077 13.9434,0.512 16.2221,1.9161 11.3545,6.9968 -3.387,3.5353 -7.1653,12.4051 -7.1653,16.8213 0,2.2618 0.3054,2.197 3.8998,-0.8276 9.5763,-8.0578 20.3136,-9.6504 29.6576,-4.3988 11.6965,6.5739 17.8694,23.6941 13.679,37.9381 -1.9155,6.5109 -12.5039,17.2676 -23.2107,23.5797 -10.2527,6.0443 -17.9912,12.59 -22.7988,19.2844 -2.1352,2.9733 -4.3144,5.4059 -4.8427,5.4059 -0.5282,0 -2.7366,-2.4733 -4.9075,-5.4962 z m 87.6469,-20.3331 c -0.5344,-1.3928 1.1669,-5.9991 4.7072,-12.7452 5.9601,-11.3567 8.8115,-14.2832 11.397,-11.6976 1.2289,1.2288 0.7223,3.2183 -2.4656,9.683 -2.2067,4.4751 -4.0122,8.6575 -4.0122,9.2943 0,0.6368 2.6719,1.3293 5.9375,1.5388 4.9772,0.3194 5.9375,0.7854 5.9375,2.881 0,2.2691 -0.9545,2.5336 -10.3322,2.8634 -8.8803,0.3123 -10.4498,0.057 -11.1692,-1.8177 z m 5.9993,-44.6649 c -1.5471,-1.6468 -5.5833,-4.8812 -8.9693,-7.1875 -7.9725,-5.4303 -10.724,-10.9007 -8.7675,-17.4311 1.9879,-6.635 6.9457,-10.2977 12.8698,-9.5077 4.5254,0.6034 4.6147,0.5362 3.9183,-2.946 -0.6082,-3.0411 -0.2506,-3.6794 2.4401,-4.3548 1.7341,-0.4352 4.3374,-0.1573 5.7852,0.6175 2.1019,1.1249 2.3772,1.8854 1.3664,3.7741 -1.9259,3.5986 -1.6723,3.7872 4.0466,3.0091 13.8539,-1.885 19.0292,15.6478 7.2635,24.607 -2.1948,1.6712 -6.4071,5.148 -9.3606,7.7261 -2.9535,2.5781 -5.9122,4.6875 -6.5748,4.6875 -0.6627,0 -2.4706,-1.3474 -4.0177,-2.9942 z m -349.1854,-239.7086 c -4.349,-1.5884 -4.3181,-2.8589 0.1788,-7.3558 3.5064,-3.5064 7.5975,-15.3943 5.8865,-17.1052 -0.4284,-0.4284 -2.3199,0.6627 -4.2033,2.4247 -5.2057,4.87 -10.8222,7.2391 -17.1622,7.2391 -19.8431,0 -33.2532,-25.4844 -23.6017,-44.8524 3.5375,-7.0989 8.9689,-11.8977 24.2183,-21.3976 4.9661,-3.0937 12.6218,-9.4903 17.0127,-14.2147 l 7.9834,-8.5896 8.2377,8.8974 c 4.5307,4.8936 12.9784,12.0195 18.7727,15.8353 20.4525,13.469 24.7206,19.2384 24.6457,33.3143 -0.083,15.6201 -9.5297,28.5355 -22.269,30.4458 -7.3621,1.104 -12.067,-0.1374 -19.5145,-5.1492 l -6.3121,-4.2478 0.8703,4.0418 c 1.1963,5.5556 3.9866,10.8795 7.8994,15.0721 3.2176,3.4476 3.238,3.572 0.8684,5.3125 -2.8311,2.0793 -18.1327,2.2936 -23.5111,0.3293 z m 252.1875,0.5483 c -5.2449,-1.2892 -5.9383,-3.0066 -2.6149,-6.4764 3.7168,-3.8805 6.9899,-11.286 6.9899,-15.8151 l 0,-3.2762 -4.0625,3.4255 c -8.637,7.2828 -18.6188,8.7473 -28.1552,4.1308 -9.8897,-4.7875 -15.5323,-15.6641 -15.5323,-29.9397 0,-12.4257 5.3662,-19.5019 24.0245,-31.68 12.1033,-7.8996 19.8431,-14.5948 24.6692,-21.3394 l 2.6832,-3.75 7.6768,8.4549 c 4.5438,5.0045 12.6034,11.7181 19.749,16.451 19.0733,12.6331 25.1973,20.4899 25.1973,32.3271 0,26.2589 -25.3366,41.3428 -43.1592,25.6943 l -4.3408,-3.8113 0.015,3.567 c 0.016,3.8966 5.3749,14.2184 8.2111,15.8166 2.5162,1.418 2.1968,4.3111 -0.644,5.8314 -2.4173,1.2938 -15.9898,1.549 -20.7072,0.3895 z m -125.625,-178.737 c -4.92,-1.8215 -5.1965,-3.159 -1.4713,-7.1186 3.8765,-4.1205 6.4713,-10.3497 6.4713,-15.5353 l 0,-3.1723 -3.4375,3.2161 c -6.1929,5.7942 -11.2019,7.5658 -19.8365,7.016 -6.4921,-0.4134 -8.7183,-1.1746 -12.617,-4.3145 -13.0764,-10.5312 -15.9815,-31.5749 -6.1518,-44.5617 2.3593,-3.1172 9.7857,-9.1341 18.2136,-14.7569 13.4528,-8.9751 20.5536,-15.2606 25.2843,-22.3813 l 2.0762,-3.125 8.3142,9.0391 c 5.1034,5.5483 13.0043,12.1217 20.4593,17.0217 18.12,11.9098 23.9452,19.7359 23.9452,32.17 0,16.5099 -12.3242,31.1442 -26.2281,31.1442 -5.6855,0 -12.273,-2.3895 -17.1385,-6.2167 -1.7713,-1.3933 -3.6679,-2.5333 -4.2147,-2.5333 -2.3468,0 4.4443,15.6279 8.1149,18.6742 2.5206,2.0919 2.5157,4.5975 -0.011,5.5671 -2.4211,0.929 -19.1807,0.8268 -21.7728,-0.1328 z m -214.0708,-125.4632 c -1.6934,-0.9863 -1.9079,-1.8166 -0.9375,-3.6299 1.9175,-3.5827 1.6608,-3.7723 -4.0542,-2.9948 -13.8539,1.885 -19.0292,-15.6478 -7.2635,-24.6069 2.1948,-1.6713 6.4071,-5.1481 9.3606,-7.7262 2.9535,-2.5781 5.9121,-4.6875 6.5748,-4.6875 0.6626,0 2.4706,1.3474 4.0177,2.9942 1.5471,1.6468 5.5833,4.8812 8.9693,7.1875 7.9725,5.4303 10.724,10.9007 8.7675,17.4311 -1.9955,6.6604 -6.9424,10.2981 -12.9202,9.501 -4.4816,-0.5976 -4.6476,-0.4904 -3.8933,2.5152 1.184,4.7172 -3.5948,6.9434 -8.6212,4.0163 z m 86.8833,-6.1842 c -3.6098,-1.451 -3.5519,-1.9139 0.8693,-6.9494 3.5523,-4.0458 6.2967,-11.0287 6.3112,-16.0581 0.01,-2.2014 -0.3053,-2.1292 -3.4305,0.7948 -8.5373,7.9876 -18.1575,10.0359 -27.7512,5.9088 -14.559,-6.2631 -21.7004,-26.7252 -14.5822,-41.7822 3.7337,-7.8978 7.0293,-10.9548 23.9067,-22.1758 9.0389,-6.0095 15.3525,-11.2592 18.6938,-15.5437 4.4717,-5.7339 9.4204,-8.6445 9.4204,-5.5407 0,2.8763 12.5351,14.5176 24.133,22.4121 19.963,13.5886 24.8936,19.8932 25.0527,32.0339 0.1738,13.2719 -6.8258,26.2862 -16.2572,30.2269 -8.7834,3.6699 -20.5174,1.5887 -27.6111,-4.8972 -1.5441,-1.4118 -3.13,-2.2446 -3.5241,-1.8505 -1.4967,1.4967 2.534,11.1845 6.6581,16.0025 6.0908,7.1157 4.4201,8.7323 -8.9169,8.6283 -5.5878,-0.044 -11.4251,-0.588 -12.972,-1.2097 z m 250.625,0.4272 c -2.9014,-0.7582 -2.7971,-4.9741 0.1622,-6.5578 2.8608,-1.5311 6.4003,-9.9653 6.4003,-15.2512 l 0,-3.8702 -4.9115,4.4373 c -4.4652,4.034 -11.5072,7.0897 -16.3385,7.0897 -14.0712,0 -26.4138,-14.7813 -26.4593,-31.6871 -0.039,-14.3579 3.8741,-19.8514 23.1801,-32.5461 8.5797,-5.6415 16.8271,-12.274 21.0091,-16.8952 7.2555,-8.0176 8.9322,-8.8829 10.7878,-5.5673 2.4868,4.4438 15.0725,15.9485 23.3573,21.3512 14.7711,9.6325 19.4812,14.0382 22.8313,21.3558 2.6008,5.6809 3.0089,8.0858 2.4833,14.6333 -0.8466,10.5469 -5.9034,19.8334 -13.4396,24.6809 -5.0455,3.2454 -6.4893,3.5727 -14.0147,3.1776 -7.0327,-0.3693 -9.3131,-1.0914 -14.099,-4.4649 -3.1402,-2.2133 -5.9473,-4.0243 -6.2381,-4.0243 -1.6057,0 3.5448,12.322 6.891,16.4859 5.8729,7.308 4.6291,8.5417 -8.4375,8.3691 -6.0372,-0.08 -11.9611,-0.4022 -13.1642,-0.7167 z m -339.2276,-55.9929 c -0.3915,-1.0201 1.3129,-5.538 3.7875,-10.0399 4.8819,-8.8817 4.8291,-9.0221 -3.6224,-9.6243 -4.0479,-0.2884 -5,-0.8322 -5,-2.8562 0,-2.3039 0.8333,-2.5 10.625,-2.5 10.0244,0 10.6473,0.1569 11.0195,2.7752 0.3757,2.6421 -6.8277,17.2714 -10.7896,21.9123 -2.2834,2.6749 -5.0624,2.8286 -6.02,0.3329 z"
         id="path4695"
         inkscape:connector-curvature="0" />
      <path
         style="fill:#6f6f6f"
         d="m -1830.6687,2320.0213 c -0.7938,-0.5051 135.6994,-0.9184 303.3181,-0.9184 167.6187,0 304.1119,0.4133 303.3181,0.9184 -0.7937,0.5051 -137.2869,0.9183 -303.3181,0.9183 -166.0313,0 -302.5244,-0.4132 -303.3181,-0.9183 z m -8.4232,-8.5206 c -1.0958,-2.8558 -0.899,-852.1172 0.1979,-853.8409 0.5051,-0.7938 0.9184,191.4406 0.9184,427.1875 0,235.7468 -0.08,428.6306 -0.1788,428.6306 -0.098,0 -0.5202,-0.8897 -0.9375,-1.9772 z m 622.3663,-426.7728 c 0,-235.6812 0.4133,-427.8619 0.9184,-427.0681 1.2008,1.8869 1.2008,852.2493 0,854.1362 -0.5051,0.7938 -0.9184,-191.3869 -0.9184,-427.0681 z m -583.4148,391.1765 c -2.5657,-1.3546 -5.5188,-4.1143 -6.5625,-6.1327 -1.6848,-3.2579 -1.8977,-46.4642 -1.8977,-385.0438 0,-338.8514 0.2119,-381.784 1.9008,-385.0498 1.0454,-2.0216 4.1167,-4.8062 6.8252,-6.1879 4.887,-2.4932 6.9558,-2.5123 272.524,-2.5123 265.5682,0 267.637,0.019 272.524,2.5123 2.7085,1.3817 5.7798,4.1663 6.8252,6.1879 1.6889,3.2658 1.9008,46.1984 1.9008,385.0498 0,338.8514 -0.2119,381.784 -1.9008,385.0498 -1.0454,2.0216 -4.1167,4.8062 -6.8252,6.1879 -4.8881,2.4938 -6.9001,2.5119 -272.7867,2.4571 -264.0537,-0.055 -267.9286,-0.09 -272.5271,-2.5183 z m 543.2181,-5.0643 c 1.6753,-0.7633 3.6705,-2.7586 4.4339,-4.4338 1.9801,-4.346 1.9801,-759.0108 0,-763.3567 -0.7634,-1.6753 -2.7586,-3.6705 -4.4339,-4.4339 -4.3394,-1.9771 -536.5172,-1.9771 -540.8566,0 -1.6753,0.7634 -3.6705,2.7586 -4.4339,4.4339 -1.9844,4.3553 -1.9797,759.0116 0,763.3671 0.7659,1.681 2.594,3.6382 4.0625,4.3492 3.9071,1.8919 537.0735,1.9649 541.2232,0.074 z m -403.8552,-33.5783 c -4.6449,-5.0785 -12.7381,-11.7852 -20.0004,-16.5741 -14.5111,-9.5687 -19.4476,-14.8388 -22.2617,-23.7661 -1.9541,-6.1994 -1.956,-7.1929 -0.027,-14.7332 1.1375,-4.447 3.4387,-10.066 5.1138,-12.4867 8.1926,-11.8391 23.9189,-13.6792 36.2786,-4.2449 l 5.5738,4.2546 0,-3.1569 c 0,-4.1543 -3.0409,-11.286 -7.0579,-16.5526 -2.4595,-3.2244 -2.8829,-4.5832 -1.7739,-5.6922 1.9827,-1.9827 18.7092,-1.8273 22.3311,0.2075 l 2.8743,1.6148 -3.7436,4.2638 c -3.8942,4.4353 -6.3611,11.1332 -6.373,17.3038 l -0.01,3.5967 5.4941,-5.0643 c 8.362,-7.7078 17.3267,-9.5408 26.4326,-5.4045 10.0781,4.5778 15.8615,14.7798 16.0292,28.2754 0.1813,14.5962 -3.5352,19.5811 -25.0657,33.6207 -7.4074,4.8302 -15.5127,11.3923 -19.375,15.6863 l -6.6402,7.3822 -7.8019,-8.5303 z m 250.9234,0.1508 c -4.4668,-4.6713 -14.251,-12.6409 -21.7427,-17.7102 -19.4819,-13.1827 -24.1539,-21.7213 -20.7793,-37.9765 4.5003,-21.678 27.1027,-29.4675 42.825,-14.7589 1.8834,1.762 3.8121,2.816 4.286,2.3421 1.565,-1.5651 -3.4229,-14.5938 -7.2606,-18.9646 -2.0726,-2.3607 -3.4407,-4.8224 -3.0401,-5.4706 1.8434,-2.9827 19.7304,-3.0723 24.503,-0.1226 1.4769,0.9128 1.2323,1.7252 -1.3864,4.6049 -3.9916,4.3894 -5.7041,8.4102 -6.8573,16.1001 l -0.9078,6.0543 5.7943,-5.1004 c 13.602,-11.9729 30.5595,-9.4954 38.6905,5.6528 7.373,13.736 6.4512,26.6017 -2.6291,36.6969 -2.5394,2.8231 -9.9608,8.6272 -16.492,12.898 -12.2926,8.0382 -18.4954,13.3095 -23.7949,20.2214 l -3.087,4.0264 -8.1216,-8.4931 z m 92.816,-14.7625 c -0.8594,-0.3468 -1.5252,-1.8493 -1.4795,-3.3389 0.1227,-4.0061 10.266,-21.3709 12.7644,-21.852 3.2077,-0.6178 2.6681,2.6431 -1.7253,10.4278 -4.8555,8.6035 -4.2524,10.5909 3.2137,10.5909 4.0082,0 5.6642,0.5091 5.6642,1.7413 0,0.9577 -0.8898,2.0827 -1.9772,2.5 -2.3257,0.8924 -14.2009,0.8426 -16.4603,-0.069 z m 3.415,-47.3211 c -1.6271,-1.732 -5.6027,-4.8459 -8.8349,-6.92 -3.258,-2.0907 -6.5565,-5.4126 -7.4026,-7.4552 -2.0236,-4.8855 -0.6822,-11.3898 3.0773,-14.9217 2.9144,-2.7379 6.38,-3.0512 13.1827,-1.1917 1.1832,0.3234 1.6967,-0.1793 1.3916,-1.3625 -1.8763,-7.2787 -1.8172,-7.5 2.0043,-7.5 4.8415,0 5.3493,0.6874 3.7121,5.0247 -1.5702,4.1601 -0.516,6.035 2.1496,3.8228 0.9998,-0.8299 3.9107,-1.3319 6.4685,-1.1157 6.0255,0.5094 9.8421,5.3349 9.8421,12.4439 0,4.2711 -0.7143,5.6884 -4.5403,9.0089 -10.1706,8.8268 -15.8878,13.3154 -16.9598,13.3154 -0.6228,0 -2.4636,-1.417 -4.0906,-3.1489 z m -344.9775,-238.3117 c -6.2815,-1.7733 -6.8368,-2.839 -3.3145,-6.3613 4.2609,-4.2608 9.1372,-20.9281 6.1229,-20.9281 -0.5178,0 -2.61,1.7678 -4.6493,3.9284 -2.0393,2.1606 -5.6622,4.745 -8.051,5.7431 -5.534,2.3123 -15.18,2.2571 -19.7181,-0.1127 -11.3071,-5.9048 -18.497,-22.9911 -14.8182,-35.2147 3.1008,-10.3034 7.1805,-14.8342 22.3214,-24.7901 8.7537,-5.756 16.8876,-12.3062 21.2025,-17.0743 l 7.0004,-7.7357 7.8895,8.4344 c 4.3391,4.6389 13.5866,12.2569 20.5498,16.9289 6.9633,4.672 14.3601,10.5564 16.4373,13.0765 13.3722,16.2229 3.8147,45.0707 -15.8041,47.7021 -7.6057,1.0202 -13.2695,-0.5366 -19.6379,-5.3977 -3.177,-2.4251 -6.0277,-4.1579 -6.3348,-3.8507 -1.4318,1.4317 2.8675,12.9866 6.7001,18.0076 2.3512,3.0803 3.9998,5.8757 3.6635,6.212 -0.9142,0.9143 -9.8203,2.8453 -12.6845,2.7504 -1.375,-0.046 -4.4688,-0.6388 -6.875,-1.3181 z m 251.6972,0.3274 c -8.5156,-2.1593 -8.5542,-2.2205 -4.388,-6.9654 3.9678,-4.5192 6.4219,-11.1787 6.4338,-17.4591 l 0.01,-3.6827 -4.0625,3.8553 c -8.7474,8.3011 -19.7929,10.4339 -29.1924,5.6367 -6.1271,-3.1271 -8.5239,-5.7775 -11.573,-12.7973 -5.6299,-12.9615 -4.4709,-24.6924 3.3415,-33.8195 2.5119,-2.9346 10.0221,-8.8755 16.6893,-13.2021 12.3016,-7.9828 19.6283,-14.2787 24.5055,-21.0577 l 2.6979,-3.75 6.8659,7.6375 c 3.7762,4.2007 12.0941,11.1738 18.4843,15.496 23.1531,15.66 29.3805,25.1699 25.8705,39.5065 -2.8584,11.675 -7.3053,17.9459 -15.7524,22.2138 -7.8259,3.954 -21.2256,1.3353 -27.1308,-5.3023 -3.9473,-4.4368 -5.6557,-3.4672 -4.3251,2.4548 1.4405,6.4113 3.8085,11.0556 7.2033,14.1279 2.7028,2.4459 3.3983,5.1172 1.6187,6.2171 -2.049,1.2663 -13.4884,1.8554 -17.2935,0.8905 z m -126.1813,-178.7236 c -6.8286,-1.7593 -7.1538,-2.4963 -3.126,-7.0837 3.8646,-4.4016 6.3411,-11.1173 6.3531,-17.2282 l 0.01,-3.5438 -5.551,4.8863 c -15.9751,14.0618 -35.1388,7.6088 -41.3567,-13.9261 -5.0223,-17.3943 1.4404,-28.9361 23.6656,-42.2646 4.8769,-2.9247 12.8176,-9.3319 17.6458,-14.2382 l 8.7788,-8.9205 7.1237,7.8177 c 3.918,4.2998 12.9626,11.7922 20.099,16.65 15.4065,10.487 19.9743,15.3516 22.7838,24.2643 1.953,6.1958 1.9552,7.1971 0.032,14.7331 -3.421,13.4036 -11.3638,21.2685 -22.4039,22.184 -8.3094,0.6891 -13.9915,-1.0651 -19.3741,-5.9813 -2.254,-2.0582 -4.3442,-3.7422 -4.6456,-3.7422 -0.3013,0 -0.5478,1.4243 -0.5478,3.1652 0,4.1618 3.0381,11.2905 7.0579,16.5608 2.0939,2.7452 2.8027,4.6634 2.0144,5.4517 -1.6488,1.6488 -13.7882,2.444 -18.5564,1.2155 z m -217.0467,-125.8406 c -0.3835,-0.3836 -0.081,-2.3309 0.6728,-4.3273 1.5702,-4.1601 0.516,-6.035 -2.1496,-3.8228 -0.9998,0.8299 -3.9107,1.3319 -6.4685,1.1157 -6.0255,-0.5094 -9.8421,-5.3349 -9.8421,-12.4439 0,-4.2711 0.7143,-5.6883 4.5403,-9.0089 10.1706,-8.8267 15.8877,-13.3154 16.9598,-13.3154 0.6228,0 2.4635,1.417 4.0906,3.149 1.6271,1.7319 5.6027,4.8459 8.8349,6.9199 3.258,2.0907 6.5565,5.4126 7.4026,7.4552 2.0236,4.8855 0.6823,11.3898 -3.0773,14.9217 -2.9144,2.7379 -6.38,3.0512 -13.1827,1.1917 -1.1832,-0.3234 -1.6966,0.1793 -1.3916,1.3625 1.8763,7.2787 1.8172,7.5 -2.0043,7.5 -2.0281,0 -4.0013,-0.3138 -4.3849,-0.6974 z m 89.3433,-5.6263 c -2.2344,-0.6863 -4.0625,-1.5793 -4.0625,-1.9845 0,-0.4052 1.6392,-2.6037 3.6427,-4.8856 3.538,-4.0295 7.6919,-17.1382 5.9749,-18.8552 -0.431,-0.4311 -2.871,1.049 -5.4222,3.289 -9.0321,7.9303 -18.0323,9.5063 -27.6631,4.8441 -7.3353,-3.551 -12.1714,-10.5292 -14.5527,-20.9989 -1.757,-7.7251 -1.7539,-9.149 0.034,-15.2407 2.3437,-7.9862 10.8303,-16.997 22.0586,-23.4212 9.547,-5.4622 19.7063,-13.8545 23.4823,-19.3981 1.6888,-2.4795 3.5349,-4.512 4.1024,-4.5167 0.5674,0 4.7862,3.8575 9.375,8.5826 4.5888,4.725 13.1525,11.687 19.0306,15.4709 16.9501,10.9116 21.938,16.9745 23.2789,28.2964 1.381,11.6607 -5.4047,26.0536 -14.4643,30.6799 -9.27,4.7337 -19.1284,3.3211 -27.6344,-3.9597 -2.8117,-2.4066 -5.467,-4.0208 -5.9008,-3.587 -1.5229,1.5229 3.6055,14.6461 7.4223,18.9932 2.7091,3.0854 3.4644,4.7867 2.5371,5.7141 -1.8283,1.8282 -16.3003,2.4943 -21.2387,0.9774 z m 252.1875,0.4087 c -5.8474,-1.0751 -6.5162,-2.7611 -2.6349,-6.6424 3.3435,-3.3435 6.3849,-11.6181 6.3849,-17.3711 0,-3.4435 -1.4493,-3.2391 -5.0946,0.7184 -6.9084,7.5 -18.6938,9.9205 -27.1427,5.5746 -9.2196,-4.7423 -14.3557,-12.6763 -15.9406,-24.6239 -1.8937,-14.2752 3.7185,-22.8292 23.5207,-35.8504 8.6718,-5.7022 16.6862,-12.1331 20.4062,-16.3744 3.3693,-3.8413 6.5011,-6.9914 6.9596,-7 0.4585,-0.01 4.396,3.7178 8.75,8.2811 4.354,4.5633 13.4084,11.9348 20.1209,16.381 14.0544,9.3095 18.905,14.5845 21.7807,23.6866 1.9207,6.0791 1.9099,7.0086 -0.1705,14.694 -6.0228,22.2501 -24.1047,29.3884 -41.2643,16.2902 l -5.6754,-4.3322 0.013,3.4293 c 0.015,4.1101 5.0064,15.2397 7.9139,17.6448 1.1406,0.9435 2.0739,2.4201 2.0739,3.2812 0,2.6427 -11.0271,3.8629 -20,2.2132 z m -342.5,-57.1373 c 0,-1.0921 1.6875,-4.9757 3.75,-8.6302 4.7824,-8.4739 4.7226,-9.5675 -0.5228,-9.5675 -5.5065,0 -8.2272,-1.0776 -8.2272,-3.2587 0,-1.3422 2.2751,-1.7413 9.9262,-1.7413 5.543,0 10.2821,0.5758 10.7322,1.304 1.1905,1.9264 -10.8918,22.97 -13.4709,23.462 -1.3404,0.2557 -2.1875,-0.3516 -2.1875,-1.5683 z m -79.0159,-120.9223 c 2.799,-1.1108 602.7328,-1.1108 605.5318,0 1.1774,0.4673 -135.0672,0.8496 -302.7659,0.8496 -167.6987,0 -303.9433,-0.3823 -302.7659,-0.8496 z"
         id="path4693"
         inkscape:connector-curvature="0" />
      <path
         style="fill:#545454"
         d="m -1678.2881,2320.0405 c 83.0156,-0.1775 218.8594,-0.1775 301.875,0 83.0156,0.1774 15.0937,0.3225 -150.9375,0.3225 -166.0313,0 -233.9531,-0.1451 -150.9375,-0.3225 z m -160.9447,-435.3126 c 0,-234.0937 0.1438,-329.8594 0.3197,-212.8125 0.1758,117.0469 0.1758,308.5781 0,425.625 -0.1759,117.0469 -0.3197,21.2812 -0.3197,-212.8125 z m 623.75,0 c 0,-234.0937 0.1438,-329.8594 0.3197,-212.8125 0.1758,117.0469 0.1758,308.5781 0,425.625 -0.1759,117.0469 -0.3197,21.2812 -0.3197,-212.8125 z m -585.7454,389.6442 c -2.4269,-1.6317 -4.8869,-4.7125 -5.7393,-7.1875 -2.1659,-6.2884 -2.1659,-758.625 0,-764.9134 0.8524,-2.475 3.3124,-5.5558 5.7393,-7.1875 l 4.2473,-2.8558 269.6303,0 269.6303,0 4.2474,2.8558 c 2.4268,1.6317 4.8868,4.7125 5.7392,7.1875 2.1659,6.2884 2.1659,758.625 0,764.9134 -0.8524,2.475 -3.3124,5.5558 -5.7392,7.1875 l -4.2474,2.8558 -269.6303,0 -269.6303,0 -4.2473,-2.8558 z m 547.2345,-4.8621 2.8931,-2.7179 0,-381.889 0,-381.8891 -2.7179,-2.893 -2.7179,-2.8931 -270.639,0 -270.6391,0 -2.893,2.7179 -2.8931,2.7179 0,381.889 0,381.8891 2.7179,2.893 2.7179,2.8931 270.639,0 270.6391,0 2.893,-2.7179 z m -405.4534,-32.1123 c -3.5594,-3.9996 -11.7156,-10.8182 -18.125,-15.1525 -15.8413,-10.7123 -21.7793,-16.6193 -24.2823,-24.1552 -3.8467,-11.5813 1.2462,-27.8436 10.6737,-34.0824 9.7255,-6.4361 20.7887,-5.3187 30.336,3.0639 2.447,2.1485 4.8686,3.9064 5.3814,3.9064 2.9725,0 -3.029,-17.2131 -7.5926,-21.7767 -3.8138,-3.8138 -1.3249,-5.7233 7.4597,-5.7233 4.4456,0 9.5725,0.5664 11.3931,1.2586 l 3.3103,1.2585 -3.1981,3.8007 c -4.6676,5.5472 -9.1876,22.4322 -6.0049,22.4322 0.5526,0 2.9432,-2.0358 5.3125,-4.5241 16.1091,-16.9181 40.1165,-6.0947 42.1304,18.994 1.1483,14.3061 -3.7921,21.9816 -21.3475,33.1654 -12.9404,8.2437 -20.8968,14.8214 -24.7218,20.4377 -1.6519,2.4255 -3.2847,4.4007 -3.6284,4.3894 -0.3438,-0.011 -3.5372,-3.2929 -7.0965,-7.2926 z m 248.9795,-1.0604 c -4.2129,-4.6178 -12.9665,-11.8994 -20,-16.6368 -6.8794,-4.6336 -13.7468,-9.7651 -15.2608,-11.4032 -9.9822,-10.8004 -8.6381,-31.6862 2.7124,-42.1487 9.3085,-8.5803 21.9832,-8.3701 31.8321,0.5278 2.6187,2.3658 5.441,4.3015 6.2716,4.3015 3.1906,0 -2.6956,-16.8266 -7.7791,-22.2378 -2.3217,-2.4712 -2.4496,-3.0761 -0.8765,-4.1414 1.8895,-1.2795 20.6222,-0.8826 21.9702,0.4655 0.4123,0.4122 -0.6973,2.6464 -2.4656,4.9648 -3.435,4.5035 -7.7394,18.8016 -6.3412,21.0639 0.5256,0.8505 2.5468,-0.2713 5.3852,-2.989 6.2223,-5.9578 11.5003,-8.376 18.2814,-8.376 6.0322,0 13.5429,3.1091 17.1521,7.1002 6.128,6.7764 9.7909,21.8922 7.253,29.9311 -2.972,9.414 -6.9997,13.7742 -21.5792,23.3609 -8.2178,5.4036 -17.0852,12.4873 -21.2135,16.9463 -3.9012,4.2138 -7.2635,7.6213 -7.4716,7.5722 -0.2082,-0.049 -3.7499,-3.7847 -7.8705,-8.3013 z m 92.4173,-15.7283 c -0.8165,-2.1278 9.1002,-20.8255 11.5422,-21.7625 3.3245,-1.2758 3.0206,0.5896 -1.4089,8.648 -2.4385,4.4363 -4.4336,8.693 -4.4336,9.4594 0,0.7996 2.7966,1.5544 6.5625,1.7712 9.7142,0.5593 7.9592,2.8213 -2.5181,3.2454 -6.8372,0.2768 -9.2445,-0.059 -9.7441,-1.3615 z m 1.9497,-47.944 c -13.9262,-11.1497 -13.75,-10.9328 -13.75,-16.9324 0,-9.6298 6.6791,-14.1319 15.2391,-10.2719 4.2769,1.9286 5.5126,2.0153 8.925,0.6262 7.819,-3.1829 9.3058,-3.0814 13.2943,0.9071 2.9184,2.9184 3.7852,4.8933 3.7638,8.5753 -0.031,5.3431 -2.2369,8.607 -8.7222,12.9055 -2.4063,1.5949 -6.0625,4.4286 -8.125,6.2971 l -3.75,3.3974 -6.875,-5.5043 z m 4.52,-30.1246 c -0.4244,-1.2031 -1.0994,-2.8906 -1.5,-3.75 -0.4986,-1.0696 0.4874,-1.5625 3.1258,-1.5625 4.3733,0 4.3716,0 2.4035,4.3162 -1.6988,3.7286 -2.9559,4.0394 -4.0293,0.9963 z m -347.645,-206.1402 c -4.4679,-1.1883 -4.8127,-2.6662 -1.532,-6.5651 4.4491,-5.2875 8.4121,-19.1839 5.9116,-20.7293 -0.6399,-0.3955 -3.4043,1.5218 -6.1431,4.2606 -14.9054,14.9054 -36.7796,6.5575 -41.4227,-15.8083 -1.5893,-7.6558 -0.8281,-13.7051 2.5511,-20.2721 3.0858,-5.9968 7.1437,-9.5382 22.1196,-19.3036 7.3048,-4.7633 15.4256,-11.3232 19.0461,-15.3853 l 6.3116,-7.0815 6.8421,7.5608 c 3.7632,4.1584 12.0674,11.096 18.4539,15.4168 21.5365,14.5708 25.3932,19.9777 24.4583,34.2892 -0.9388,14.3693 -7.6003,24.0182 -18.6329,26.989 -7.9585,2.143 -18.3886,-1.2376 -24.7078,-8.0083 -1.6468,-1.7645 -3.477,-2.9098 -4.0671,-2.5451 -2.2179,1.3708 2.4497,15.1521 7.2919,21.5295 1.7308,2.2795 2.7872,4.5043 2.3476,4.9438 -1.0308,1.0309 -15.5606,1.5779 -18.8282,0.7089 z m 250.625,0 c -1.0313,-0.344 -2.6272,-0.8632 -3.5465,-1.1539 -1.2141,-0.384 -0.7951,-1.57 1.5317,-4.3353 4.6823,-5.5645 9.1933,-22.4381 5.9987,-22.4381 -0.5589,0 -2.6683,1.7584 -4.6875,3.9076 -7.3675,7.8416 -17.5517,10.3995 -26.507,6.6577 -10.0703,-4.2076 -15.3943,-12.798 -16.2318,-26.1903 -0.489,-7.8192 -0.1621,-9.4813 3.0727,-15.625 3.1905,-6.0594 5.3179,-8.0183 17.9323,-16.5127 7.8718,-5.3008 17.584,-13.0897 21.5826,-17.3088 l 7.2702,-7.671 7.7298,8 c 4.2514,4.3999 13.9111,12.2178 21.4661,17.3731 20.1501,13.7497 24.816,22.9101 20.039,39.3424 -3.7876,13.029 -16.3939,22.179 -27.3174,19.8278 -5.4151,-1.1655 -9.4172,-3.3705 -14.5829,-8.0344 -4.1284,-3.7274 -4.3977,-3.8024 -4.7783,-1.329 -0.6471,4.2058 3.4883,14.9301 7.5341,19.538 l 3.7291,4.2472 -3.3238,1.2637 c -3.4064,1.2951 -13.5566,1.5598 -16.9111,0.441 z m -127.2981,-179.2572 -2.9231,-1.1714 3.2048,-3.8086 c 4.6836,-5.5662 9.1955,-22.4401 6.0003,-22.4401 -0.5589,0 -2.6683,1.739 -4.6875,3.8645 -16.5923,17.465 -40.7005,7.1242 -42.7441,-18.3344 -1.1747,-14.6344 3.865,-22.1286 23.4352,-34.8488 11.9838,-7.7892 18.3782,-13.2143 23.5713,-19.9982 l 2.8262,-3.6918 6.9231,7.772 c 4.0365,4.5315 11.9564,11.0984 18.995,15.75 20.6052,13.6173 26.3267,21.6379 24.7758,34.732 -2.4179,20.416 -18.1381,31.8733 -34.0741,24.8342 -3.3714,-1.4891 -8.0324,-4.5069 -10.3577,-6.706 l -4.2279,-3.9985 0.767,5.9415 c 0.8246,6.3868 4.4113,14.4634 7.5974,17.1077 2.5206,2.0919 2.5157,4.5975 -0.011,5.5671 -2.9795,1.1433 -15.7467,0.761 -19.0709,-0.5712 z m -213.9519,-125.4863 c 0,-1.4599 3.0037,-6.9338 3.8049,-6.9338 0.4969,0 1.2507,0.9844 1.6751,2.1875 0.4244,1.2031 1.0994,2.8906 1.5,3.75 0.4986,1.0697 -0.4874,1.5625 -3.1258,1.5625 -2.1198,0 -3.8542,-0.2548 -3.8542,-0.5662 z m 88.4375,-5.2955 c -2.7081,-0.7076 -2.7835,-2.0875 -0.2301,-4.2067 1.0766,-0.8935 2.6957,-3.0717 3.598,-4.8406 2.1588,-4.232 4.6666,-16.2205 3.7151,-17.7601 -0.4114,-0.6656 -3.4451,1.3126 -6.7415,4.396 -6.5491,6.1259 -11.5412,7.7414 -20.7241,6.7063 -10.6453,-1.1999 -19.3666,-11.9148 -21.3245,-26.1991 -1.7424,-12.7118 6.7447,-25.0401 23.8946,-34.7092 4.125,-2.3257 11.8058,-8.5047 17.0685,-13.7312 l 9.5685,-9.5026 7.9636,8.2496 c 4.38,4.5373 13.831,12.15 21.0022,16.917 8.4696,5.6302 14.3715,10.5666 16.8428,14.0875 3.4859,4.9664 3.8044,6.2745 3.8044,15.625 0,8.2114 -0.579,11.3808 -2.9639,16.2248 -7.4328,15.0965 -27.1796,17.819 -38.8165,5.3517 -4.3443,-4.6544 -6.7654,-4.3073 -5.6922,0.8158 1.253,5.9812 5.352,14.8899 8.2896,18.0169 1.4135,1.5045 2.1965,3.3397 1.7402,4.0781 -0.8084,1.308 -16.458,1.6664 -20.9947,0.4808 z m 249.9497,-0.5165 c -2.0711,-1.2053 -1.9641,-1.6139 1.4378,-5.4885 3.2607,-3.7137 6.425,-12.9824 6.425,-18.8198 0,-2.3904 -3.2806,-2.3396 -4.2034,0.065 -0.3965,1.0332 -3.3793,3.5644 -6.6284,5.625 -10.644,6.7502 -24.008,4.4827 -31.7152,-5.3811 -5.8987,-7.5492 -7.9643,-22.9864 -4.2617,-31.8501 2.8462,-6.8135 7.0862,-10.7479 22.6832,-21.0481 8.4497,-5.5801 16.3349,-11.9503 19.8906,-16.0688 l 5.8911,-6.8237 7.36,8.0322 c 4.0789,4.4514 12.9419,11.7719 19.8809,16.421 17.7968,11.9238 23.6029,19.6734 23.6029,31.5039 0,5.4155 -3.4323,15.0733 -7.0759,19.9102 -8.5184,11.3084 -26.6694,11.8496 -36.5795,1.0909 -1.6667,-1.8094 -3.4948,-3.2899 -4.0625,-3.2899 -3.5505,0 3.2228,19.5168 8.2041,23.6397 1.6816,1.3917 1.7895,1.982 0.5105,2.7933 -2.3241,1.4743 -18.7013,1.2356 -21.3595,-0.3112 z m -352.0956,-3.3879 c -2.9184,-2.9184 -3.7852,-4.8933 -3.7638,-8.5752 0.032,-5.5817 2.2164,-8.6109 9.9722,-13.8314 3.0937,-2.0825 6.6629,-4.9396 7.9315,-6.3492 l 2.3065,-2.563 7.0685,5.5753 c 13.9815,11.0279 13.9435,10.9816 13.9435,17.0049 0,9.6299 -6.6791,14.1319 -15.2391,10.2719 -4.2769,-1.9286 -5.5126,-2.0153 -8.925,-0.6262 -7.819,3.1829 -9.3058,3.0814 -13.2943,-0.9071 z m 12.4584,-51.8972 c 0,-0.3281 1.9687,-4.0796 4.375,-8.3367 2.4062,-4.2571 4.375,-8.5005 4.375,-9.4298 0,-1.1445 -2.0216,-1.8114 -6.2664,-2.0674 -9.6445,-0.5815 -8.1069,-2.8273 2.222,-3.2454 7.2513,-0.2936 9.2291,0.019 9.8179,1.554 0.989,2.5771 -9.5979,21.1733 -12.3565,21.7046 -1.1918,0.2295 -2.167,0.1489 -2.167,-0.1793 z m 72.8125,-121.7742 c 83.0156,-0.1774 218.8594,-0.1774 301.875,0 83.0156,0.1775 15.0937,0.3226 -150.9375,0.3226 -166.0313,0 -233.9531,-0.1451 -150.9375,-0.3226 z"
         id="path4691"
         inkscape:connector-curvature="0" />
      <path
         style="fill:#2e2e2e"
         d="m -1677.6631,2320.0405 c 82.6719,-0.1775 217.9531,-0.1775 300.625,0 82.6719,0.1774 15.0312,0.3226 -150.3125,0.3226 -165.3438,0 -232.9844,-0.1452 -150.3125,-0.3226 z m -161.5698,-435.3126 c 0,-233.4062 0.1439,-328.8906 0.3198,-212.1875 0.1758,116.7031 0.1758,307.6719 0,424.375 -0.1759,116.7031 -0.3198,21.2187 -0.3198,-212.1875 z m 623.7501,0 c 0,-233.4062 0.1438,-328.8906 0.3197,-212.1875 0.1758,116.7031 0.1758,307.6719 0,424.375 -0.1759,116.7031 -0.3197,21.2187 -0.3197,-212.1875 z m -583.9094,390.1024 c -2.1541,-1.3135 -4.826,-3.6866 -5.9375,-5.2734 -1.8505,-2.642 -2.0209,-35.1004 -2.0209,-384.9386 l 0,-382.0533 2.6104,-3.3185 c 5.9351,-7.5453 -14.8813,-7.0186 277.3896,-7.0186 292.2709,0 271.4545,-0.5267 277.3896,7.0186 l 2.6104,3.3185 0,382.1629 0,382.1629 -2.6104,3.3185 c -5.9353,7.5456 14.9066,7.019 -277.64,7.0139 -261.4915,0 -267.9679,-0.061 -271.7912,-2.3929 z m 546.0694,-4.8246 2.8472,-2.8472 0,-382.4306 0,-382.4306 -2.8472,-2.8472 -2.8473,-2.8472 -271.1805,0 -271.1806,0 -2.8472,2.8472 -2.8472,2.8472 -0.2974,380.9028 c -0.2374,303.9515 0.02,381.5292 1.2746,384.0032 0.8646,1.7052 2.9672,3.8084 4.6724,4.6737 2.4688,1.2529 58.0365,1.5125 272.7532,1.2747 l 269.6529,-0.2988 2.8471,-2.8472 z m -407.306,-34.5729 c -4.2093,-4.381 -13.3448,-11.7064 -20.3011,-16.2786 -13.9496,-9.1687 -18.2351,-13.8372 -20.9365,-22.8074 -3.9707,-13.1849 5.259,-32.3305 16.7996,-34.8487 1.8377,-0.4009 4.0223,-0.9372 4.8548,-1.1916 3.7543,-1.1474 14.4982,3.0417 18.95,7.3888 2.553,2.4929 5.3838,4.5326 6.2907,4.5326 3.52,0 -2.2556,-17.6711 -7.6536,-23.417 -1.4587,-1.5527 -2.2303,-3.245 -1.7147,-3.7607 1.2129,-1.2128 16.9249,-1.2297 19.8739,-0.021 2.0985,0.8599 2.0343,1.2217 -0.8986,5.0669 -3.4184,4.4817 -7.7933,20.575 -6.0635,22.3048 0.5837,0.5837 3.7163,-1.4468 6.9614,-4.5122 17.9926,-16.9964 41.3844,-4.6209 41.4656,21.9375 0.039,12.7116 -3.8776,18.0764 -21.9481,30.0644 -7.9119,5.2487 -17.2636,12.6963 -20.797,16.5625 -3.5313,3.8638 -6.6026,7.0071 -6.8251,6.9853 -0.2226,-0.022 -3.8486,-3.6243 -8.0578,-8.0053 z m 251.0432,0.5608 c -3.7821,-4.2491 -11.8038,-10.8409 -18.75,-15.4077 -20.7561,-13.6461 -25.6074,-21.4554 -23.004,-37.0301 2.4046,-14.3856 11.3011,-22.8664 23.9873,-22.8664 6.7862,0 16.4033,4.6504 18.7727,9.0777 1.847,3.4512 4.979,3.1322 4.979,-0.507 0,-4.2498 -3.326,-13.1176 -7.0173,-18.7094 -1.7435,-2.6412 -2.7997,-5.1724 -2.3472,-5.625 1.4582,-1.4581 17.9154,-0.8968 19.4766,0.6643 1.1494,1.1494 0.7632,2.3473 -1.7011,5.276 -4.0019,4.756 -8.0317,22.6119 -5.1031,22.6119 0.4443,0 3.4671,-2.4874 6.7173,-5.5276 3.2501,-3.0401 8.1761,-6.2067 10.9465,-7.0367 15.6227,-4.6807 30.4866,9.6348 30.4866,29.3616 0,11.8266 -6.6399,20.2632 -24.3124,30.8912 -4.9615,2.9837 -12.8372,9.2244 -17.5015,13.8682 -4.6643,4.6438 -8.6018,8.4302 -8.75,8.4142 -0.1482,-0.016 -3.2439,-3.3708 -6.8794,-7.4552 z m 92.6781,-15.6639 c -0.4006,-1.044 1.3793,-5.9659 3.9555,-10.9375 5.2147,-10.0638 6.4331,-11.7493 7.6288,-10.5535 0.4505,0.4505 -1.209,4.6785 -3.6877,9.3956 -5.2129,9.9201 -4.6846,11.4936 3.8591,11.4936 3.3142,0 5.1461,0.4897 4.6762,1.25 -0.4249,0.6875 -4.132,1.25 -8.238,1.25 -5.5234,0 -7.655,-0.4938 -8.1939,-1.8982 z m 1.4319,-47.5341 c -15.6179,-13.6333 -14.7745,-12.5433 -14.0257,-18.126 0.3788,-2.8246 1.6674,-6.2171 2.8635,-7.5387 2.6026,-2.8758 9.0468,-3.1689 12.4858,-0.5677 3.1539,2.3854 7.3398,2.4033 9.3014,0.04 1.7851,-2.1509 7.7971,-2.4729 11.2881,-0.6046 3.3024,1.7674 5.51,9.6754 3.8858,13.9193 -0.6978,1.823 -3.4129,4.8741 -6.0338,6.7802 -2.6208,1.9061 -6.8415,5.0551 -9.3793,6.9978 -2.5378,1.9428 -4.7878,3.5171 -5,3.4985 -0.2122,-0.019 -2.6358,-1.9979 -5.3858,-4.3985 z m 4.618,-30.8247 c -2.294,-2.294 -1.7741,-4.743 1.007,-4.743 2.5813,0 3.1995,1.9632 1.4739,4.6805 -0.7658,1.2059 -1.3235,1.2199 -2.4809,0.062 z m -346.2439,-205.9317 c -5.6572,-1.4006 -5.9235,-1.9346 -2.889,-5.7924 4.3926,-5.5842 8.4713,-23.0189 5.3851,-23.0189 -0.5526,0 -2.8919,1.947 -5.1984,4.3267 -2.3065,2.3797 -6.0175,5.1922 -8.2466,6.25 -5.2917,2.5111 -14.6843,2.4515 -20.1194,-0.1276 -11.3708,-5.3958 -17.7093,-24.5713 -12.3606,-37.3941 2.9399,-7.0477 8.3405,-12.2052 22.3628,-21.3556 6.7693,-4.4174 15.3107,-11.1819 18.9808,-15.0322 l 6.6729,-7.0004 7.9765,8.0951 c 4.387,4.4523 13.8229,11.9804 20.9687,16.7291 14.4806,9.6231 19.7904,16.2084 20.8827,25.8988 1.3305,11.8039 -6.1834,26.511 -15.5424,30.4214 -9.1078,3.8055 -18.2413,1.5006 -26.8924,-6.7863 -4.1387,-3.9644 -4.7407,-4.201 -5.5202,-2.1695 -1.3113,3.417 1.6323,13.0739 5.8278,19.1187 4.3208,6.2253 4.5938,7.7759 1.3688,7.7759 -1.289,0 -3.9609,0.2436 -5.9375,0.5414 -1.9765,0.2978 -5.4504,0.082 -7.7196,-0.4801 z m 250.6746,-0.014 c -6.4299,-1.2421 -6.7233,-1.8611 -2.9871,-6.3013 3.0703,-3.6489 4.6317,-7.9169 6.2687,-17.135 0.9615,-5.4143 -1.4103,-6.5806 -4.9688,-2.4435 -5.6545,6.5736 -11.5726,9.5825 -18.848,9.5825 -7.9292,0 -12.3401,-1.9967 -17.5706,-7.9539 -10.3348,-11.7706 -9.499,-31.8563 1.7551,-42.1792 1.9536,-1.7919 9.2952,-7.0066 16.3146,-11.5881 7.4856,-4.8858 15.1688,-11.1172 18.582,-15.0707 l 5.8194,-6.7406 7.5385,8.0586 c 4.1461,4.4322 12.3779,11.2712 18.2929,15.1978 15.5389,10.3151 19.608,14.3632 22.6782,22.5608 2.4032,6.4167 2.5101,7.7767 1.1248,14.3148 -4.9728,23.4702 -26.309,30.9675 -42.6936,15.0021 -3.8144,-3.7168 -4.7839,-4.165 -5.4206,-2.5058 -1.2087,3.1497 2.7235,14.884 6.9364,20.6998 2.6142,3.6087 3.3115,5.4179 2.2203,5.7604 -3.947,1.2386 -10.7358,1.5732 -15.0422,0.7413 z m -125.2987,-178.323 c -5.9301,-1.4722 -6.0935,-1.6302 -4.0709,-3.9379 3.0978,-3.5344 5.5515,-9.2344 7.0772,-16.4406 1.9771,-9.3383 0.345,-10.2563 -6.3436,-3.5678 -17.3826,17.3827 -41.3794,4.9717 -41.5949,-21.5126 -0.1038,-12.7562 3.7519,-18.0907 21.8562,-30.239 7.8793,-5.2871 17.3147,-12.8079 20.9676,-16.713 l 6.6417,-7.1 7.8928,8.0101 c 4.341,4.4055 13.5943,11.8301 20.5628,16.4989 13.8135,9.255 17.881,13.6325 20.9001,22.4932 1.6762,4.9192 1.7433,6.8125 0.438,12.3593 -3.8476,16.3503 -11.2567,23.4251 -24.532,23.4251 -6.7474,0 -12.5176,-2.5135 -17.3503,-7.5577 -5.0598,-5.2813 -7.3239,-4.92 -6.235,0.9952 1.1645,6.3261 5.1994,15.2804 8.4396,18.7295 1.4587,1.5527 2.3868,3.0886 2.0624,3.413 -0.9371,0.9371 -13.9555,1.8285 -16.7117,1.1443 z m -216.875,-126.6221 c 0,-0.6312 0.3469,-2.0518 0.771,-3.1569 0.5967,-1.555 1.1617,-1.6848 2.5,-0.5741 2.5421,2.1097 2.1045,4.8788 -0.771,4.8788 -1.375,0 -2.5,-0.5165 -2.5,-1.1478 z m 89.6875,-4.6836 c -4.13,-0.7024 -4.1572,-0.8969 -0.7879,-5.6287 5.0073,-7.0321 8.0606,-22.2899 4.4605,-22.2899 -0.902,0 -2.8392,1.6221 -4.3049,3.6046 -5.3126,7.1856 -17.6921,10.7658 -26.1613,7.5659 -11.4914,-4.3417 -19.4407,-21.8316 -16.0293,-35.2671 2.2188,-8.7387 7.0113,-13.8636 22.4695,-24.028 8.3833,-5.5125 16.725,-12.1905 20.4552,-16.3757 l 6.2988,-7.0671 7.243,7.8234 c 3.9837,4.3028 12.9052,11.6222 19.8256,16.2653 14.5558,9.7659 19.9188,15.3316 21.9145,22.7431 1.7662,6.5591 0.638,16.1131 -2.7329,23.1439 -7.2857,15.1961 -24.6129,18.082 -37.9704,6.3243 -3.1496,-2.7723 -6.0511,-4.7161 -6.4478,-4.3194 -1.691,1.691 1.2673,12.3353 5.2805,18.9999 2.3882,3.966 4.0506,7.5023 3.6943,7.8586 -0.9002,0.9003 -13.0351,1.3564 -17.2074,0.6469 z m 251.5625,0.084 c -1.0313,-0.3856 -2.6624,-0.9525 -3.6248,-1.2597 -1.3654,-0.4359 -1.1778,-1.1691 0.8543,-3.3385 1.4322,-1.5289 3.2444,-4.4674 4.0271,-6.5299 2.0805,-5.4823 3.8486,-15.6935 2.9649,-17.1233 -0.42,-0.6795 -3.0885,1.0405 -5.93,3.8222 -9.3001,9.1044 -18.4881,11.0877 -28.3224,6.1136 -7.5287,-3.8079 -12.2768,-10.9566 -13.9581,-21.0154 -2.5948,-15.5233 2.2996,-23.4626 22.739,-36.8854 11.9405,-7.8415 16.5841,-11.7413 22.855,-19.1938 l 3.3962,-4.0362 8.4369,8.5754 c 4.6403,4.7164 14.1146,12.3372 21.054,16.935 13.3929,8.8737 18.1187,14.1999 20.4364,23.0335 2.4161,9.2087 -1.7305,22.3325 -9.1009,28.8039 -10.0936,8.8623 -23.0259,8.0525 -32.624,-2.0429 -5.1758,-5.444 -7.4684,-5.1467 -6.3689,0.8259 1.1645,6.3262 5.1994,15.2804 8.4396,18.7295 1.4587,1.5528 2.3194,3.156 1.9127,3.5627 -1.0428,1.0428 -14.9245,1.8694 -17.187,1.0234 z m -356.1227,-4.1258 c -3.0729,-3.0729 -4.3043,-8.8413 -2.7566,-12.9123 0.6732,-1.7706 3.3683,-4.7788 5.9892,-6.6849 2.6208,-1.906 6.8821,-5.0877 9.4695,-7.0703 l 4.7044,-3.6048 5.7801,4.76 c 13.5396,11.1501 14.5682,12.4904 13.8269,18.017 -0.3734,2.7841 -1.6575,6.1434 -2.8536,7.4651 -2.6026,2.8758 -9.0468,3.1688 -12.4858,0.5677 -3.1538,-2.3855 -7.3398,-2.4034 -9.3014,-0.04 -2.2059,2.6579 -9.5109,2.3641 -12.3727,-0.4977 z m 13.6227,-52.5072 c 0,-0.6215 1.9687,-4.6128 4.3748,-8.8697 2.4061,-4.2569 4.0604,-8.2484 3.6762,-8.8701 -0.3842,-0.6217 -3.1634,-1.1303 -6.176,-1.1303 -3.0126,0 -5.8251,-0.5625 -6.25,-1.25 -0.4869,-0.7879 2.4624,-1.25 7.9775,-1.25 4.8125,0 9.0265,0.4475 9.3645,0.9944 0.8081,1.3076 -10.2655,21.5056 -11.7905,21.5056 -0.6471,0 -1.1765,-0.5085 -1.1765,-1.1299 z m 72.1875,-121.0576 c 82.6719,-0.1774 217.9531,-0.1774 300.625,0 82.6719,0.1775 15.0312,0.3227 -150.3125,0.3227 -165.3438,0 -232.9844,-0.1452 -150.3125,-0.3227 z"
         id="path4689"
         inkscape:connector-curvature="0" />
      <path
         style="fill:#050505"
         d="m -1677.0381,2320.0405 c 82.3281,-0.1775 217.0469,-0.1775 299.375,0 82.3281,0.1774 14.9687,0.3226 -149.6875,0.3226 -164.6563,0 -232.0156,-0.1452 -149.6875,-0.3226 z m -162.1948,-435.3126 c 0,-232.7187 0.1439,-327.9219 0.3198,-211.5625 0.1758,116.3594 0.1758,306.7656 0,423.125 -0.1759,116.3594 -0.3198,21.1562 -0.3198,-211.5625 z m 623.75,0 c 0,-232.7187 0.1439,-327.9219 0.3198,-211.5625 0.1758,116.3594 0.1758,306.7656 0,423.125 -0.1759,116.3594 -0.3198,21.1562 -0.3198,-211.5625 z m -581.4358,390.2934 c -0.7938,-0.5051 120.5119,-0.9184 269.5681,-0.9184 149.0562,0 270.3619,0.4133 269.5681,0.9184 -0.7937,0.5051 -122.0994,0.9183 -269.5681,0.9183 -147.4688,0 -268.7744,-0.4132 -269.5681,-0.9183 z m -6.1757,-4.3559 -2.3812,-2.8125 2.8125,2.3812 c 2.6431,2.2378 3.3816,3.2438 2.3812,3.2438 -0.2372,0 -1.5028,-1.2656 -2.8125,-2.8125 z m 550.1188,0.3125 c 1.2444,-1.375 2.5437,-2.5 2.8875,-2.5 0.3437,0 -0.3931,1.125 -1.6375,2.5 -1.2444,1.375 -2.5437,2.5 -2.8875,2.5 -0.3437,0 0.3931,-1.125 1.6375,-2.5 z m -553.0263,-5.7292 c 0.06,-1.4561 0.3562,-1.7523 0.7552,-0.7552 0.3611,0.9024 0.3167,1.9805 -0.099,2.3959 -0.4154,0.4153 -0.7108,-0.323 -0.6565,-1.6407 z m 556.25,0 c 0.06,-1.4561 0.3562,-1.7523 0.7552,-0.7552 0.3611,0.9024 0.3167,1.9805 -0.099,2.3959 -0.4154,0.4153 -0.7108,-0.323 -0.6566,-1.6407 z m -410.7506,-30.9715 c -4.1398,-4.293 -13.3304,-11.6322 -20.4236,-16.3092 -18.9141,-12.4714 -23.654,-21.2511 -19.6827,-36.4586 2.1763,-8.334 4.8674,-12.4683 10.7003,-16.4386 9.0656,-6.1706 19.3446,-4.6987 28.7726,4.12 7.3674,6.8914 10.9762,7.1922 15.4779,1.2901 3.9531,-5.1828 12.478,-9.503 18.7518,-9.503 18.3419,0 29.5026,25.1979 19.0562,43.0235 -2.6013,4.4387 -6.3696,7.6772 -17.3493,14.91 -7.7145,5.0818 -17.0113,12.4069 -20.6596,16.2781 -3.6483,3.8711 -6.742,7.0057 -6.875,6.9658 -0.1329,-0.04 -3.6288,-3.5851 -7.7686,-7.8781 z m 251.3561,0.878 c -3.3939,-3.8139 -11.8571,-10.7495 -18.8071,-15.4125 -19.2853,-12.939 -23.9979,-19.7387 -22.8952,-33.0352 1.5548,-18.7493 16.6145,-29.9974 31.4036,-23.4555 3.158,1.397 7.7524,4.5505 10.2098,7.0079 2.4574,2.4574 5.6606,4.468 7.1181,4.468 1.4605,0 5.5745,-2.7658 9.1653,-6.1618 6.9792,-6.6007 12.2209,-8.4639 20.1784,-7.1726 9.0758,1.4729 15.5183,8.6257 18.5987,20.6494 2.1526,8.4028 1.7059,12.995 -1.9639,20.185 -2.9992,5.8763 -7.0274,9.3839 -21.9942,19.1518 -6.9615,4.5434 -15.2037,11.0928 -18.316,14.5544 -3.1122,3.4616 -5.8539,6.2627 -6.0927,6.2247 -0.2387,-0.038 -3.2109,-3.1896 -6.6048,-7.0035 z m 92.7153,-14.9245 c -1.1268,-1.1268 0.4247,-4.3421 1.7115,-3.5469 0.6154,0.3804 1.119,1.5022 1.119,2.4929 0,1.8407 -1.4893,2.3953 -2.8305,1.054 z m 1.4619,-48.3515 c -2.4714,-2.2144 -6.5495,-5.5972 -9.0625,-7.5171 -3.7334,-2.8525 -4.5689,-4.2961 -4.5689,-7.8947 0,-9.424 6.0163,-13.5994 13.3556,-9.2691 5.3828,3.1759 7.1312,3.1687 11.4817,-0.048 9.5092,-7.0305 19.1033,7.7624 10.449,16.111 -2.9104,2.8075 -14.4732,11.4555 -16.5363,12.3677 -0.3438,0.152 -2.6471,-1.5355 -5.1186,-3.75 z m -339.2415,-8.4036 c -1.185,-5.4832 -4.8244,-12.7648 -7.4827,-14.971 -1.608,-1.3345 -1.6913,-1.8931 -0.4039,-2.7097 1.901,-1.2059 11.6126,-1.3701 15.7342,-0.2661 2.736,0.7329 2.7668,0.8725 0.696,3.1608 -1.1916,1.3166 -3.3887,6.166 -4.8826,10.7763 l -2.716,8.3824 -0.945,-4.3727 z m 250.109,-1.652 c -0.4287,-2.2849 -2.4161,-6.7351 -4.4164,-9.8894 -2.0004,-3.1542 -3.3061,-6.0661 -2.9015,-6.4707 0.926,-0.9259 11.3334,-0.9326 14.7707,-0.01 2.5301,0.6796 2.5131,0.8182 -0.9375,7.6591 -1.9328,3.8319 -3.5142,8.294 -3.5142,9.9159 0,4.4043 -2.1075,3.5578 -3.0011,-1.2055 z m 93.0011,-22.0957 c 0,-0.6875 0.5625,-1.25 1.25,-1.25 0.6875,0 1.25,0.5625 1.25,1.25 0,0.6875 -0.5625,1.25 -1.25,1.25 -0.6875,0 -1.25,-0.5625 -1.25,-1.25 z m -346.5625,-204.5838 c -1.8906,-0.3202 -3.4375,-0.8012 -3.4375,-1.0687 0,-0.2676 1.414,-2.5701 3.1422,-5.1167 1.7282,-2.5466 3.4875,-6.7904 3.9097,-9.4305 0.9738,-6.0897 2.1678,-6.0838 3.9965,0.02 0.7943,2.6511 2.8799,6.9358 4.6347,9.5216 1.7547,2.5858 2.9776,4.9144 2.7174,5.1745 -0.8565,0.8566 -11.4557,1.4941 -14.963,0.9 z m 250.625,0.014 c -3.4178,-0.7346 -3.4361,-1.0002 -0.4068,-5.9081 1.3231,-2.1436 3.1063,-6.6843 3.9627,-10.0903 l 1.5569,-6.1928 2.2195,6.5295 c 1.2206,3.5912 3.4363,8.2385 4.9237,10.3272 1.4873,2.0888 2.3894,4.1127 2.0046,4.4974 -0.9827,0.9827 -10.8799,1.5636 -14.2606,0.8371 z m -278.2078,-17.1851 c -8.4519,-3.1145 -13.2068,-9.5549 -15.8883,-21.5205 -3.0916,-13.7954 3.0366,-23.4884 23.0249,-36.4178 6.8636,-4.4397 15.4375,-11.151 19.0531,-14.9139 l 6.5737,-6.8417 7.2535,7.3608 c 3.9894,4.0485 13.3514,11.495 20.8046,16.5478 8.4444,5.7249 14.7562,11.008 16.7489,14.0191 8.2431,12.4561 3.0732,33.8033 -9.7986,40.4596 -4.4282,2.2899 -13.7435,2.3317 -18.9792,0.085 -2.2122,-0.9493 -5.9608,-3.7618 -8.33,-6.25 -5.8354,-6.1285 -10.6233,-6.1771 -15.4269,-0.1567 -6.2201,7.7955 -16.2709,10.8579 -25.0357,7.6282 z m 251.1507,0.4565 c -4.6864,-1.4024 -10.2942,-6.7783 -13.6413,-13.077 -2.0271,-3.8147 -2.6667,-7.2699 -2.6981,-14.575 -0.057,-13.2601 2.946,-17.3837 21.8545,-30.0114 7.895,-5.2725 17.0535,-12.5131 20.3523,-16.0903 l 5.9978,-6.5038 9.0022,8.7086 c 4.9512,4.7897 13.8144,11.8063 19.6959,15.5924 20.8529,13.4235 25.223,24.5534 16.8809,42.9927 -3.7997,8.3987 -9.0951,12.1112 -18.216,12.771 -8.3256,0.6022 -15.7663,-2.5376 -20.1888,-8.5193 -3.9988,-5.4088 -9.2304,-5.1315 -14.8621,0.7877 -7.398,7.7758 -15.6431,10.4782 -24.1773,7.9244 z m -98.5679,-162.0637 c -2.7042,-0.7066 -2.7084,-0.6053 0.2316,-5.6293 1.3305,-2.2737 3.1137,-6.9207 3.9627,-10.3268 l 1.5435,-6.1927 2.2693,6.6761 c 1.2481,3.6719 3.6703,8.5129 5.3826,10.7579 2.6376,3.458 2.8158,4.196 1.1659,4.8292 -2.1779,0.8357 -11.1911,0.7649 -14.5556,-0.1144 z m -29.3872,-18.0259 c -6.2349,-3.0863 -9.9286,-7.8145 -12.3249,-15.7766 -5.1295,-17.044 0.674,-28.3062 20.7746,-40.315 5.1562,-3.0805 13.2595,-9.3744 18.0073,-13.9865 l 8.6322,-8.3856 8.2428,8.097 c 4.5335,4.4534 13.8559,11.8731 20.7165,16.4882 13.0362,8.7695 17.2064,13.4601 19.5743,22.0174 2.765,9.992 -3.964,26.9018 -12.4252,31.2245 -9.7591,4.9857 -18.831,3.369 -27.7126,-4.9387 -7.3674,-6.8914 -10.9762,-7.1921 -15.478,-1.2901 -3.8686,5.0721 -12.4446,9.5034 -18.3895,9.502 -2.361,-5e-4 -6.6889,-1.187 -9.6175,-2.6366 z m -185.3003,-108.6124 c 0,-0.6875 0.5625,-1.25 1.25,-1.25 0.6875,0 1.25,0.5625 1.25,1.25 0,0.6875 -0.5625,1.25 -1.25,1.25 -0.6875,0 -1.25,-0.5625 -1.25,-1.25 z m 87.8036,-4.5808 c -1.1556,-0.4658 -0.8946,-1.5838 0.9867,-4.2258 1.4069,-1.9759 3.2315,-6.4277 4.0547,-9.8929 0.8231,-3.4653 1.8634,-6.3005 2.3117,-6.3005 0.4483,0 1.1658,1.8694 1.5944,4.1543 0.4287,2.2849 2.4161,6.7351 4.4164,9.8894 2.0004,3.1543 3.3061,6.0661 2.9015,6.4707 -0.882,0.882 -14.0322,0.805 -16.2654,-0.095 z m 250.7222,-0.014 c -1.8533,-0.4897 -1.7387,-1.0857 0.9787,-5.0901 1.6929,-2.4946 3.696,-6.9903 4.4515,-9.9905 l 1.3736,-5.4549 2.8648,7.0488 c 1.5757,3.8768 3.7515,8.0285 4.8352,9.226 3.5958,3.9733 2.3961,5.114 -5.2171,4.9604 -3.9531,-0.08 -8.1321,-0.3946 -9.2867,-0.6997 z m -351.3553,-1.2702 c -2.7333,-0.7129 -5.9205,-6.6582 -5.9205,-11.0442 0,-3.6677 3.501,-7.4418 13.6301,-14.6933 l 6.6035,-4.7275 4.6998,4.1025 c 2.5849,2.2563 6.7511,5.6733 9.2582,7.5932 3.7214,2.8498 4.5584,4.2994 4.5584,7.8947 0,9.424 -6.0163,13.5994 -13.3556,9.2691 -5.366,-3.1661 -7.3095,-3.1711 -11.3033,-0.03 -3.1936,2.512 -4.107,2.6948 -8.1706,1.635 z m 72.2045,-16.4735 c -7.5853,-4.711 -10.6011,-9.5243 -13.1813,-21.0378 -0.8561,-3.8201 -0.8173,-7.1749 0.1247,-10.7732 2.4769,-9.4614 6.6842,-14.1114 21.705,-23.9884 7.8143,-5.1384 17.0401,-12.4415 20.5019,-16.2293 l 6.2941,-6.8867 7.2778,7.6303 c 4.0028,4.1966 12.0561,10.8069 17.8962,14.6894 5.84,3.8825 12.5377,8.7418 14.8837,10.7984 13.7457,12.0502 11.0501,37.296 -4.8395,45.3232 -9.5475,4.8232 -19.1844,2.9676 -26.8614,-5.1724 -2.188,-2.3199 -5.7235,-4.6014 -7.8568,-5.0699 -3.3765,-0.7417 -4.2551,-0.3405 -6.7865,3.0986 -6.7577,9.1809 -20.7537,12.8375 -29.1578,7.6178 z m 250.9033,0.2623 c -5.7434,-2.8309 -9.8959,-8.2124 -12.1225,-15.71 -4.9873,-16.7941 0.554,-28.457 18.7192,-39.3989 10.317,-6.2145 20.5558,-14.3627 24.8207,-19.7526 l 3.5706,-4.5126 6.0964,6.84 c 3.353,3.7619 11.8712,10.7723 18.9293,15.5785 20.0856,13.6772 23.9551,18.5687 23.9547,30.2817 -5e-4,16.2834 -10.149,28.8103 -23.2691,28.7226 -5.4803,-0.037 -13.2788,-3.7803 -17.7158,-8.5042 -1.9872,-2.1158 -5.2799,-4.213 -7.3169,-4.6604 -3.2019,-0.7033 -4.2108,-0.1984 -7.4453,3.7255 -7.2262,8.7667 -19.1133,11.8796 -28.2213,7.3904 z m -311.5283,-39.1001 c 0,-0.647 0.5561,-1.5199 1.2357,-1.94 0.7086,-0.4379 0.9181,0.064 0.4912,1.1763 -0.8309,2.1655 -1.7269,2.5617 -1.7269,0.7637 z m 8.3535,-16.804 c -0.4094,-1.0668 -0.2453,-2.2482 0.3647,-2.6252 1.5946,-0.9855 2.5451,1.0614 1.3733,2.9574 -0.7761,1.2557 -1.1565,1.1831 -1.738,-0.3322 z m -65.7548,-47.749 c 0.06,-1.4561 0.3562,-1.7523 0.7552,-0.7552 0.3611,0.9024 0.3167,1.9805 -0.099,2.3959 -0.4154,0.4153 -0.7108,-0.323 -0.6565,-1.6407 z m 556.25,0 c 0.06,-1.4561 0.3562,-1.7523 0.7552,-0.7552 0.3611,0.9024 0.3167,1.9805 -0.099,2.3959 -0.4154,0.4153 -0.7108,-0.323 -0.6566,-1.6407 z m -553.2237,-5.5208 c 1.2444,-1.375 2.5437,-2.5 2.8875,-2.5 0.3437,0 -0.3931,1.125 -1.6375,2.5 -1.2444,1.375 -2.5437,2.5 -2.8875,2.5 -0.3437,0 0.3931,-1.125 1.6375,-2.5 z m 549.8812,-0.3125 -2.3812,-2.8125 2.8125,2.3812 c 1.5469,1.3097 2.8125,2.5753 2.8125,2.8125 0,1.0004 -1.006,0.2619 -3.2438,-2.3812 z m -543.8243,-3.7309 c 0.7937,-0.5051 122.0993,-0.9183 269.5681,-0.9183 147.4687,0 268.7744,0.4132 269.5681,0.9183 0.7938,0.5051 -120.5119,0.9184 -269.5681,0.9184 -149.0562,0 -270.3619,-0.4133 -269.5681,-0.9184 z m 119.8806,-45.6441 c 82.3281,-0.1774 217.0469,-0.1774 299.375,0 82.3281,0.1775 14.9687,0.3227 -149.6875,0.3227 -164.6563,0 -232.0156,-0.1452 -149.6875,-0.3227 z"
         id="path4687"
         inkscape:connector-curvature="0" />
    </g>
  </g>
</svg>
