<?xml version="1.0" encoding="UTF-8" standalone="no"?>
<!-- Created with Inkscape (http://www.inkscape.org/) -->

<svg
   xmlns:dc="http://purl.org/dc/elements/1.1/"
   xmlns:cc="http://creativecommons.org/ns#"
   xmlns:rdf="http://www.w3.org/1999/02/22-rdf-syntax-ns#"
   xmlns:svg="http://www.w3.org/2000/svg"
   xmlns="http://www.w3.org/2000/svg"
   xmlns:sodipodi="http://sodipodi.sourceforge.net/DTD/sodipodi-0.dtd"
   xmlns:inkscape="http://www.inkscape.org/namespaces/inkscape"
   width="176.4539mm"
   height="246.30457mm"
   viewBox="0 0 625.23037 872.73271"
   id="svg2"
   version="1.1"
   inkscape:version="0.91 r13725"
   sodipodi:docname="As.svg">
  <defs
     id="defs4">
    <pattern
       y="0"
       x="0"
       height="6"
       width="6"
       patternUnits="userSpaceOnUse"
       id="EMFhbasepattern" />
  </defs>
  <sodipodi:namedview
     id="base"
     pagecolor="#ffffff"
     bordercolor="#666666"
     borderopacity="1.0"
     inkscape:pageopacity="0.0"
     inkscape:pageshadow="2"
     inkscape:zoom="0.35"
     inkscape:cx="406.18663"
     inkscape:cy="70.652064"
     inkscape:document-units="px"
     inkscape:current-layer="layer1"
     showgrid="false"
     fit-margin-top="0"
     fit-margin-left="0"
     fit-margin-right="0"
     fit-margin-bottom="0"
     inkscape:window-width="784"
     inkscape:window-height="822"
     inkscape:window-x="800"
     inkscape:window-y="0"
     inkscape:window-maximized="0" />
  <metadata
     id="metadata7">
    <rdf:RDF>
      <cc:Work
         rdf:about="">
        <dc:format>image/svg+xml</dc:format>
        <dc:type
           rdf:resource="http://purl.org/dc/dcmitype/StillImage" />
        <dc:title></dc:title>
      </cc:Work>
    </rdf:RDF>
  </metadata>
  <g
     inkscape:label="Calque 1"
     inkscape:groupmode="layer"
     id="layer1"
     transform="translate(372.6152,269.71842)">
    <g
       id="g4595"
       transform="translate(1453.9326,-667.52665)">
      <path
         style="fill:#fdfdfd"
         d="m -1826.4342,834.16925 0,-436.25 312.5,0 312.5,0 0,436.25 0,436.25005 -312.5,0 -312.5,0 0,-436.25005 z"
         id="path4611"
         inkscape:connector-curvature="0" />
      <path
         style="fill:#e6e6e6"
         d="m -1820.309,1268.861 c -1.8959,-0.7539 -3.8487,-2.9487 -4.6875,-5.2683 -2.0668,-5.7156 -2.07,-853.1223 0,-858.83778 0.9685,-2.67839 2.7229,-4.43273 5.4013,-5.40125 5.6984,-2.06059 605.6302,-2.06059 611.3286,0 2.6784,0.96852 4.4328,2.72286 5.4013,5.40125 2.0638,5.70731 2.0638,853.12138 0,858.82868 -0.9685,2.6784 -2.7229,4.4327 -5.4013,5.4012 -5.3415,1.9316 -607.1766,1.8098 -612.0391,-0.1239 z m 611.471,-5.8456 3.6538,-3.6538 0,-425.19235 0,-425.19231 -3.6538,-3.65384 -3.6539,-3.65385 -301.4423,0 -301.4423,0 -3.6539,3.65385 -3.6538,3.65384 0,425.19231 0,425.19235 3.6538,3.6538 3.6539,3.6539 301.4423,0 301.4423,0 3.6539,-3.6539 z m -576.9684,-34.5607 c -2.061,-1.0772 -4.7904,-2.9026 -6.0655,-4.0565 -6.1617,-5.5763 -5.8123,17.881 -5.8123,-390.22895 0,-336.43552 0.2208,-381.8011 1.8737,-384.99746 1.0305,-1.99282 3.9399,-5.19926 6.4652,-7.12542 l 4.5915,-3.50212 270.8196,0 270.8196,0 4.5915,3.50212 c 2.5253,1.92616 5.4347,5.1326 6.4652,7.12542 1.6529,3.19636 1.8737,48.56194 1.8737,384.99746 0,336.43555 -0.2208,381.80115 -1.8737,384.99745 -1.0305,1.9928 -3.9398,5.1993 -6.4651,7.1254 l -4.5914,3.5022 -269.4724,0.3095 c -242.6017,0.2786 -269.8461,0.1142 -273.2196,-1.6491 z m 543.1222,-11.7854 c 2.489,-2.4891 2.5,-4.1667 2.5,-382.50005 0,-378.33333 -0.011,-380.01097 -2.5,-382.5 -2.4845,-2.4845 -4.1667,-2.5 -271.25,-2.5 -267.0833,0 -268.7655,0.0155 -271.25,2.5 -2.489,2.48903 -2.5,4.16667 -2.5,382.5 0,378.33335 0.011,380.01095 2.5,382.50005 2.4845,2.4845 4.1667,2.5 271.25,2.5 267.0833,0 268.7655,-0.015 271.25,-2.5 z m -57.8689,-43.3713 c -0.3291,-0.552 -2.9434,-6.5333 -5.8096,-13.2916 -4.217,-9.9435 -4.9201,-12.6384 -3.6858,-14.1256 2.2089,-2.6617 7.7535,-1.6241 9.2232,1.726 0.944,2.1515 2.2696,2.8125 5.6411,2.8125 3.3715,0 4.6971,-0.661 5.6411,-2.8125 1.4704,-3.3516 7.0146,-4.3873 9.2254,-1.7234 1.2381,1.4918 0.486,4.287 -3.969,14.7507 l -5.4966,12.9102 -5.0857,0.3787 c -2.7972,0.2083 -5.355,-0.073 -5.6841,-0.625 z m -2.2646,-46.9702 c -3.1671,-2.906 -8.0658,-7.124 -10.8859,-9.3734 -5.9033,-4.7086 -7.5639,-10.0902 -5.2639,-17.0591 1.8678,-5.6595 6.716,-9.476 12.0376,-9.476 3.2062,0 3.9999,-0.4361 3.4416,-1.891 -1.1181,-2.9136 1.9301,-5.609 6.3433,-5.609 5.0255,0 8.8868,2.6853 7.8281,5.4442 -0.6513,1.6973 0.086,2.0558 4.2287,2.0558 6.087,0 10.2761,3.6548 12.4303,10.8448 2.0933,6.9869 -0.6176,12.8961 -8.3455,18.1904 -3.2831,2.2494 -7.9033,5.9179 -10.2669,8.1522 -2.3636,2.2344 -4.633,4.0495 -5.0432,4.0336 -0.4101,-0.016 -3.337,-2.4066 -6.5042,-5.3125 z m -218.9895,-237.92609 c -7.6621,-2.35484 -8.5088,-4.59552 -3.5634,-9.43057 3.5362,-3.45725 7.2092,-11.94577 5.7852,-13.36978 -0.3209,-0.3209 -1.5713,0.28276 -2.7786,1.34149 -6.7142,5.8876 -18.6982,7.77957 -26.9229,4.25045 -12.7352,-5.46455 -20.9537,-25.14641 -16.646,-39.86403 2.6794,-9.15422 8.0625,-15.02038 22.139,-24.12578 13.9362,-9.01462 21.1688,-15.18728 24.9343,-21.28004 1.4461,-2.33981 3.4906,-4.2542 4.5432,-4.2542 1.0527,0 5.523,3.89815 9.9342,8.66255 4.6154,4.98514 13.3094,12.19496 20.4796,16.98354 14.6675,9.79565 20.1228,15.70891 23.0355,24.96898 1.83,5.81793 1.9171,7.75679 0.6108,13.59405 -3.6267,16.20558 -12.5896,25.50222 -25.6722,26.62808 -6.4191,0.55242 -8.3171,0.1573 -14.5682,-3.03269 -3.9531,-2.01732 -7.1875,-3.45553 -7.1875,-3.19604 0,2.11205 4.1803,9.54463 7.4852,13.30874 4.7182,5.37375 3.9366,7.4727 -3.558,9.55443 -6.0509,1.6807 -10.8107,1.48577 -18.0502,-0.73918 z m -216.4662,-304.6767 c -1.4186,-1.0373 -2.0111,-2.49137 -1.5281,-3.75 0.6513,-1.69727 -0.086,-2.05576 -4.2287,-2.05576 -6.087,0 -10.2761,-3.65481 -12.4303,-10.84482 -2.0933,-6.98698 0.6177,-12.89611 8.3454,-18.19047 3.2832,-2.24934 7.9034,-5.91784 10.267,-8.15221 2.3635,-2.23438 4.5747,-4.0625 4.9135,-4.0625 0.3389,0 3.2701,2.39062 6.5139,5.3125 3.2438,2.92187 8.2008,7.15293 11.0156,9.40234 5.8929,4.70913 7.5521,10.09643 5.2542,17.05913 -1.8678,5.6595 -6.716,9.47603 -12.0376,9.47603 -3.2063,0 -3.9999,0.43606 -3.4416,1.89091 1.8325,4.77555 -7.51,7.66838 -12.6433,3.91485 z m -9.0983,-60.38361 c -2.5684,-1.03638 -1.7275,-4.19246 4.4419,-16.67215 5.7445,-11.6199 5.9646,-11.875 10.2456,-11.875 4.281,0 4.5011,0.2551 10.2456,11.875 3.2288,6.53125 5.9006,12.82147 5.9375,13.97826 0.1437,4.51659 -9.1335,4.26033 -10.5784,-0.2922 -0.5937,-1.87071 -1.914,-2.43606 -5.6889,-2.43606 -2.7037,0 -4.9158,0.52232 -4.9158,1.16071 0,3.47638 -5.5656,5.92464 -9.6875,4.26144 z"
         id="path4609"
         inkscape:connector-curvature="0" />
      <path
         style="fill:#d9d9d9"
         d="m -1820.0466,1268.6749 c -6.7121,-3.7203 -6.2956,24.7836 -6.3433,-434.13434 -0.034,-328.08824 0.3003,-427.25997 1.4491,-429.78124 3.3332,-7.31567 -18.2831,-6.84007 310.8857,-6.84007 231.8704,0 303.2686,0.34869 305.7808,1.49336 7.3554,3.35134 6.8401,-29.40324 6.8401,434.75664 0,464.15985 0.5153,431.40535 -6.8401,434.75665 -5.0745,2.3121 -607.5939,2.0649 -611.7723,-0.251 z m 604.2374,-0.7556 c -0.4249,-0.6875 0.4112,-1.25 1.8581,-1.25 3.3941,0 8.7669,-5.3729 8.7669,-8.767 0,-1.4468 0.5625,-2.2829 1.25,-1.858 0.8324,0.5144 1.25,-140.4283 1.25,-421.87505 0,-281.44672 -0.4176,-422.38945 -1.25,-421.875 -0.6875,0.4249 -1.25,-0.41122 -1.25,-1.85805 0,-3.39411 -5.3728,-8.76695 -8.7669,-8.76695 -1.4469,0 -2.283,-0.5625 -1.8581,-1.25 0.5142,-0.832 -99.1783,-1.25 -298.125,-1.25 -198.9467,0 -298.6392,0.418 -298.125,1.25 0.4249,0.6875 -0.4112,1.25 -1.858,1.25 -3.3942,0 -8.767,5.37284 -8.767,8.76695 0,1.44683 -0.5625,2.28295 -1.25,1.85805 -0.8324,-0.51445 -1.25,140.42827 -1.25,421.875 0,281.44675 0.4176,422.38945 1.25,421.87505 0.6875,-0.4249 1.25,0.4112 1.25,1.858 0,3.3941 5.3728,8.767 8.767,8.767 1.4468,0 2.2829,0.5625 1.858,1.25 -0.5142,0.832 99.1783,1.25 298.125,1.25 198.9467,0 298.6392,-0.418 298.125,-1.25 z m -571.9997,-41.4171 c -2.4749,-1.4354 -5.428,-4.1811 -6.5625,-6.1017 -1.905,-3.2248 -2.0628,-32.7789 -2.0628,-386.23125 0,-354.35788 0.1539,-382.99974 2.0749,-386.25182 1.1412,-1.9319 4.1709,-4.69056 6.7327,-6.13036 l 4.6578,-2.61782 269.0346,0 269.0346,0 4.6578,2.61782 c 2.5618,1.4398 5.5915,4.19846 6.7327,6.13036 1.921,3.25208 2.0749,31.89394 2.0749,386.25182 0,354.35785 -0.1539,382.99975 -2.0749,386.25185 -1.1412,1.9319 -4.1709,4.6905 -6.7327,6.1303 l -4.6578,2.6179 -269.2048,-0.029 -269.2048,-0.029 -4.4997,-2.6096 z m 545.8505,-9.1344 c 2.6735,-3.6563 2.6735,-762.74089 0,-766.39714 -1.7469,-2.38893 -5.9485,-2.42641 -271.9758,-2.42641 -266.0273,0 -270.2289,0.0375 -271.9758,2.42641 -1.5231,2.08299 -1.7742,56.31862 -1.7742,383.19859 0,302.71325 0.3203,381.18395 1.5625,382.78065 0.8594,1.1046 2.6875,2.2745 4.0625,2.5996 1.375,0.3252 123.061,0.5133 270.4133,0.418 263.6585,-0.1705 267.9415,-0.2118 269.6875,-2.5997 z m -57.8628,-44.761 c -1.9199,-2.5143 -10.363,-23.0593 -10.363,-25.2168 0,-3.3571 6.8648,-2.5014 9.2601,1.1543 1.4191,2.1659 3.1807,3.125 5.7399,3.125 2.5592,0 4.3208,-0.9591 5.7399,-3.125 2.3953,-3.6557 9.2601,-4.5114 9.2601,-1.1543 0,2.1575 -8.4431,22.7025 -10.363,25.2168 -0.6562,0.8593 -2.7429,1.5625 -4.637,1.5625 -1.8941,0 -3.9808,-0.7032 -4.637,-1.5625 z m -2.863,-47.241 c -17.2831,-15.3351 -16.25,-14.0423 -16.25,-20.3353 0,-4.6604 0.7244,-6.6326 3.6313,-9.886 3.0179,-3.3775 4.4793,-4.0419 8.6506,-3.9325 4.6659,0.1223 5.0042,-0.099 4.8061,-3.1431 -0.2003,-3.0793 0.1225,-3.2746 5.412,-3.2746 5.3322,0 5.6223,0.1811 5.5724,3.4797 -0.047,3.1116 0.2937,3.4037 3.2204,2.7609 7.4997,-1.6473 14.9431,5.5304 14.9525,14.4187 0.01,5.6621 -2.2675,8.8032 -11.0224,15.2283 -3.9039,2.8649 -7.8329,6.2279 -8.7313,7.4732 -2.3442,3.2496 -3.9189,2.8207 -10.2416,-2.7893 z m -219.7463,-237.61026 c -5.5962,-1.61348 -6.285,-4.2481 -2.2198,-8.49119 2.7997,-2.92227 7.932,-15.0951 6.3644,-15.0951 -0.2652,0 -3.423,1.82812 -7.0174,4.0625 -17.7801,11.05271 -38.2871,-0.94696 -40.6758,-23.80146 -1.6944,-16.21092 3.5239,-24.17934 25.1445,-38.39593 13.2892,-8.73825 17.7219,-12.66134 24.0128,-21.25196 l 2.7375,-3.73815 8.2799,9.03905 c 5.114,5.58284 12.9094,12.08275 20.3876,16.99925 19.5215,12.83449 26.3909,22.7471 24.8397,35.84404 -0.8651,7.3047 -4.8274,16.8517 -8.7307,21.03623 -7.4417,7.97803 -20.867,10.31287 -30.6375,5.32832 -2.7881,-1.42239 -5.4219,-3.1567 -5.8529,-3.85403 -0.4309,-0.69732 -1.2787,-1.26786 -1.8839,-1.26786 -2,0 2.5615,10.87101 6.3351,15.09764 2.0378,2.28257 3.5106,4.74126 3.2728,5.46375 -1.3225,4.01769 -15.0149,5.71818 -24.3563,3.0249 z m -216.0239,-305.38887 c -0.411,-1.07107 -0.4064,-2.83574 0.01,-3.92147 0.6172,-1.60844 0.1034,-1.83039 -2.7741,-1.19838 -7.7522,1.70265 -15.2017,-5.33097 -15.2113,-14.36193 -0.01,-5.66208 2.2676,-8.80314 11.0225,-15.22824 3.9038,-2.86495 7.8329,-6.2279 8.7312,-7.4732 2.3318,-3.23236 3.463,-2.9044 10.5139,3.0483 14.947,12.61896 15.9777,13.91849 15.9777,20.14572 0,4.58372 -0.7377,6.57799 -3.6313,9.8165 -3.0179,3.37757 -4.4793,4.04194 -8.6506,3.93257 -4.6659,-0.12238 -5.0042,0.0989 -4.8061,3.14305 0.1951,2.99983 -0.2338,3.30696 -5.1109,3.65958 -3.9202,0.28344 -5.521,-0.12853 -6.0713,-1.5625 z m -9.2486,-61.63492 c -0.035,-4.11441 10.2691,-25.22346 12.6875,-25.99105 4.7832,-1.51813 6.9683,0.68322 12.1814,12.27173 6.2588,13.91328 6.4522,15.90682 1.5437,15.90682 -2.4673,0 -4.253,-0.98695 -5.6539,-3.125 -1.4191,-2.16593 -3.1807,-3.125 -5.7399,-3.125 -2.5592,0 -4.3208,0.95907 -5.7399,3.125 -2.4989,3.8137 -9.2483,4.49564 -9.2789,0.9375 z"
         id="path4607"
         inkscape:connector-curvature="0" />
      <path
         style="fill:#a7a7a7"
         d="m -1819.231,1268.4625 c -7.802,-4.2333 -7.2032,31.869 -7.2032,-434.29325 0,-377.55168 0.2122,-425.53447 1.8962,-428.79092 4.1664,-8.05695 -20.7295,-7.45908 310.6038,-7.45908 331.3333,0 306.4374,-0.59787 310.6038,7.45908 1.684,3.25645 1.8962,51.23924 1.8962,428.79092 0,377.55165 -0.2122,425.53445 -1.8962,428.79095 -4.1672,8.0584 20.7716,7.464 -310.8542,7.409 -264.3514,-0.044 -302.0474,-0.2795 -305.0464,-1.9067 z m 608.2226,-1.325 c 2.495,-1.1898 5.1027,-3.7975 6.2924,-6.2924 1.8633,-3.9073 2.0318,-39.2914 2.0318,-426.67585 0,-387.38446 -0.1685,-422.76852 -2.0318,-426.67583 -4.3198,-9.05876 22.9679,-8.32417 -309.2182,-8.32417 -332.1861,0 -304.8984,-0.73459 -309.2182,8.32417 -1.8633,3.90731 -2.0318,39.29137 -2.0318,426.67583 0,387.60575 0.1676,422.76675 2.0344,426.68125 4.2276,8.8655 -22.5868,8.1502 308.8607,8.2388 273.5715,0.073 299.3827,-0.093 303.2807,-1.9518 z m -575.4734,-40.7807 c -3.6299,-1.8305 -6.3406,-4.3402 -7.763,-7.1875 -2.0663,-4.1365 -2.1856,-25.1336 -2.1875,-385.01955 0,-368.36615 0.073,-380.78399 2.3173,-384.96885 1.3677,-2.55032 4.5252,-5.49092 7.6966,-7.16799 l 5.3774,-2.84366 267.1068,0 267.1068,0 5.3774,2.84366 c 3.1714,1.67707 6.3289,4.61767 7.6966,7.16799 2.2444,4.18486 2.3191,16.6027 2.3173,384.96885 0,359.88595 -0.1212,380.88305 -2.1875,385.01955 -1.4224,2.8473 -4.1331,5.357 -7.763,7.1875 l -5.5773,2.8125 -266.9703,0 -266.9703,0 -5.5773,-2.8125 z m 544.6545,-8.6554 2.8931,-2.7179 0,-380.63908 0,-380.63904 -2.7179,-2.89307 -2.7179,-2.89306 -269.389,0 -269.3891,0 -2.893,2.71789 -2.8931,2.71789 0,380.63905 0,380.63902 2.7179,2.8931 2.7179,2.8931 269.389,0 269.3891,0 2.893,-2.7179 z m -61.6334,-54.4028 c -5.6937,-12.4941 -6.4733,-16.3241 -3.551,-17.4455 1.5602,-0.5987 3.0238,0.1442 4.8868,2.4807 1.9512,2.447 3.8,3.3355 6.9407,3.3355 3.1407,0 4.9895,-0.8885 6.9407,-3.3355 1.863,-2.3365 3.3266,-3.0794 4.8868,-2.4807 2.9223,1.1214 2.1427,4.9514 -3.551,17.4455 -4.0995,8.9957 -4.6371,9.6207 -8.2765,9.6207 -3.6394,0 -4.177,-0.625 -8.2765,-9.6207 z m 9.5265,-2.8793 c 0,-0.6875 -0.5625,-1.25 -1.25,-1.25 -0.6875,0 -1.25,0.5625 -1.25,1.25 0,0.6875 0.5625,1.25 1.25,1.25 0.6875,0 1.25,-0.5625 1.25,-1.25 z m -6.2725,-34.399 c -1.6271,-1.7319 -5.6105,-4.8509 -8.852,-6.9309 -10.5817,-6.7903 -12.5706,-17.6284 -4.4836,-24.4331 3.114,-2.6202 4.7687,-3.127 8.553,-2.6195 4.6057,0.6178 4.6787,0.5631 3.9712,-2.9748 -0.8656,-4.328 1.8604,-5.9258 6.9177,-4.0549 3.3316,1.2325 3.529,1.7963 2.0023,5.7188 -0.7524,1.9332 -0.2293,2.0972 4.5949,1.4407 6.6395,-0.9035 11.6089,2.3566 13.3823,8.7792 1.7261,6.2515 0.4136,10.2504 -4.8477,14.7693 -11.2122,9.6301 -16.086,13.4542 -17.1474,13.4542 -0.6229,0 -2.4637,-1.4171 -4.0907,-3.149 z m -221.8525,-239.00556 c -5.2449,-1.28921 -5.9383,-3.00661 -2.6149,-6.47638 3.7168,-3.88052 6.9899,-11.28601 6.9899,-15.81508 l 0,-3.27627 -4.0625,3.42554 c -12.1998,10.28698 -28.35,8.79821 -37.208,-3.4299 -4.5305,-6.25422 -6.5641,-13.11808 -6.5991,-22.2734 -0.048,-12.41851 6.2198,-20.51165 25.3696,-32.76064 11.0365,-7.05939 17.0948,-12.28625 22.8795,-19.73936 l 3.3956,-4.375 7.6254,8.46993 c 4.5953,5.10421 12.4136,11.64136 19.675,16.45093 19.4328,12.87138 25.1745,20.42456 25.1745,33.1171 0,12.89571 -7.3482,25.05089 -17.7723,29.39869 -8.0944,3.37603 -17.9474,1.8268 -24.7417,-3.89023 -2.1129,-1.77787 -4.1892,-2.88488 -4.6141,-2.46002 -1.4575,1.45757 2.2418,10.83116 5.9345,15.03685 6.5698,7.48262 4.4553,9.57656 -9.4314,9.33967 -4.125,-0.0704 -8.625,-0.40446 -10,-0.74243 z M -1736.755,582.8442 c -1.6922,-1.0084 -1.9072,-1.84753 -0.9375,-3.65951 1.9175,-3.58276 1.6608,-3.77238 -4.0542,-2.9948 -6.4995,0.88428 -11.493,-2.4309 -13.2508,-8.79716 -1.8059,-6.54054 -0.3836,-10.39707 5.7012,-15.45842 3.0681,-2.55204 7.7073,-6.46818 10.3092,-8.70256 2.602,-2.23437 5.2678,-4.0625 5.924,-4.0625 0.6562,0 2.5243,1.41702 4.1514,3.14895 1.6271,1.73194 5.6105,4.85086 8.852,6.93095 10.5817,6.79027 12.5706,17.6283 4.4836,24.43301 -3.0896,2.59976 -4.781,3.12542 -8.4663,2.6311 -4.4868,-0.60178 -4.601,-0.51662 -4.4361,3.30664 0.1434,3.32467 -0.3082,3.97084 -2.9557,4.22854 -1.7188,0.1673 -4.1131,-0.28462 -5.3208,-1.00424 z m -9.4557,-61.53061 c -0.9806,-1.1816 0.068,-4.73052 3.9685,-13.4375 4.9769,-11.10818 5.5472,-11.85589 9.3247,-12.22504 3.9304,-0.38409 4.1377,-0.14501 8.9511,10.32307 5.9934,13.0344 6.2704,14.35632 3.3856,16.15433 -1.8888,1.17722 -2.7392,0.83656 -5.0469,-2.0217 -3.7848,-4.6877 -10.8452,-4.84739 -13.8166,-0.3125 -2.2524,3.43771 -4.7153,3.99073 -6.7664,1.51934 z m 14.7765,-13.39434 c 0,-0.6875 -0.5625,-1.25 -1.25,-1.25 -0.6875,0 -1.25,0.5625 -1.25,1.25 0,0.6875 0.5625,1.25 1.25,1.25 0.6875,0 1.25,-0.5625 1.25,-1.25 z"
         id="path4605"
         inkscape:connector-curvature="0" />
      <path
         style="fill:#5c5c5c"
         d="m -1817.2523,1269.4626 c -0.7938,-0.5051 135.6994,-0.9183 303.3181,-0.9183 167.6187,0 304.1119,0.4132 303.3181,0.9183 -0.7937,0.5051 -137.2869,0.9184 -303.3181,0.9184 -166.0313,0 -302.5244,-0.4133 -303.3181,-0.9184 z m -8.394,-9.3558 c -1.0472,-3.9076 -0.8116,-849.8102 0.2375,-852.45342 0.4673,-1.17748 0.8496,190.77564 0.8496,426.56249 0,235.78683 -0.075,428.70343 -0.1667,428.70343 -0.092,0 -0.5059,-1.2657 -0.9204,-2.8125 z m 622.3371,-425.93755 c 0,-235.7612 0.3823,-427.69335 0.8496,-426.51587 0.4674,1.17748 0.8497,193.10962 0.8497,426.51587 0,233.40625 -0.3824,425.33835 -0.8497,426.51585 -0.4673,1.1775 -0.8496,-190.7546 -0.8496,-426.51585 z m -583.2497,391.08295 c -2.4749,-1.4354 -5.428,-4.1811 -6.5625,-6.1017 -1.9049,-3.2247 -2.0628,-32.6906 -2.0628,-384.98125 0,-359.24204 0.126,-381.70253 2.1602,-385.14619 1.1881,-2.0113 4.4594,-4.76997 7.2696,-6.13036 5.0423,-2.44091 8.6187,-2.47345 271.8202,-2.47345 263.2015,0 266.7779,0.0326 271.8201,2.47345 2.8103,1.36039 6.0816,4.11906 7.2697,6.13036 2.0342,3.44366 2.1602,25.90415 2.1602,385.14619 0,353.19325 -0.1539,381.74985 -2.0749,385.00185 -1.1412,1.9319 -4.1709,4.6905 -6.7327,6.1303 l -4.6578,2.6179 -267.9548,-0.029 -267.9548,-0.029 -4.4997,-2.6096 z m 545.2987,-5.9725 2.951,-2.3895 0.3433,-379.79799 c 0.1888,-208.88887 0.034,-381.07789 -0.3443,-382.64226 -0.3782,-1.56436 -1.7983,-3.95498 -3.1558,-5.3125 -2.4424,-2.44237 -5.2942,-2.4682 -272.4682,-2.4682 -267.174,0 -270.0258,0.0258 -272.4682,2.4682 -1.3575,1.35752 -2.7776,3.74814 -3.1558,5.3125 -0.3782,1.56437 -0.5331,173.75339 -0.3443,382.64226 l 0.3433,379.79799 2.951,2.3895 c 2.8851,2.3362 8.9698,2.3896 272.674,2.3896 263.7042,0 269.7889,-0.053 272.674,-2.3896 z m -61.9007,-58.1397 c -2.4878,-5.7912 -4.5233,-11.4162 -4.5233,-12.5 0,-3.1053 3.6543,-2.2984 5.2274,1.1543 1.2235,2.6852 2.247,3.125 7.2726,3.125 5.0256,0 6.0491,-0.4398 7.2726,-3.125 1.5731,-3.4527 5.2274,-4.2596 5.2274,-1.1543 0,1.0838 -2.0355,6.7088 -4.5233,12.5 -4.1127,9.5733 -4.8369,10.5293 -7.9767,10.5293 -3.1398,0 -3.864,-0.956 -7.9767,-10.5293 z m 9.7589,0.9452 c 1.0253,-2.6718 -1.2632,-5.185 -3.0732,-3.375 -1.3591,1.3592 -0.3895,5.4591 1.291,5.4591 0.5404,0 1.3424,-0.9379 1.7822,-2.0841 z m -9.146,-38.912 c -14.4847,-12.2157 -15.5228,-13.576 -14.751,-19.33 1.2465,-9.2934 8.4431,-12.9734 17.6443,-9.0224 2.0364,0.8744 2.2497,0.6643 1.3935,-1.372 -2.0829,-4.954 -1.4782,-7.4045 1.827,-7.4045 2.8429,0 3.0919,0.423 2.7584,4.6875 -0.3452,4.4143 1.1527,6.2106 2.8666,3.4375 1.1808,-1.9107 8.4797,-1.4875 11.5602,0.6702 3.6903,2.5847 5.9019,10.1737 4.2346,14.5303 -0.7001,1.8291 -3.3572,4.9228 -5.9047,6.875 -2.5476,1.9522 -6.7269,5.3776 -9.2875,7.612 -2.5606,2.2343 -5.1499,4.0361 -5.7541,4.0039 -0.6042,-0.032 -3.5684,-2.1415 -6.5873,-4.6875 z m -216.6987,-236.79071 c -3.2656,-0.67853 -5.9375,-1.79476 -5.9375,-2.48052 0,-0.68576 1.3846,-2.89237 3.077,-4.9036 3.3081,-3.93155 5.6548,-10.77391 5.666,-16.52111 l 0.01,-3.56699 -4.5966,4.03585 c -18.9658,16.6522 -43.0037,4.31037 -43.3403,-22.25231 -0.1805,-14.24441 4.309,-20.13431 26.2676,-34.46109 7.7161,-5.03432 15.0189,-10.99733 18.596,-15.18441 l 5.8903,-6.89466 7.4858,8.16935 c 4.2892,4.68089 12.6641,11.5838 19.6125,16.1654 14.8753,9.80825 20.6098,15.92736 23.1656,24.71914 1.7277,5.94307 1.7329,7.40138 0.049,13.86486 -3.2517,12.48392 -7.1724,17.75732 -15.9197,21.41219 -9.0401,3.77721 -19.1704,1.60505 -26.7572,-5.73733 -2.1568,-2.0874 -4.2565,-3.25331 -4.6659,-2.5909 -1.2885,2.08483 2.7749,13.37879 6.8251,18.96989 4.2437,5.85829 3.6327,7.48681 -2.8228,7.52386 -1.8344,0.01 -4.0844,0.2322 -5,0.4926 -0.9156,0.26041 -4.3366,-0.0816 -7.6023,-0.76022 z m -216.3162,-304.25863 c -0.4955,-0.49546 -0.5504,-2.7692 -0.122,-5.05272 0.7487,-3.99058 -0.8553,-5.76419 -2.6243,-2.90189 -1.1809,1.91066 -8.4797,1.4875 -11.5602,-0.67023 -3.6903,-2.58473 -5.9019,-10.17375 -4.2345,-14.53033 0.7,-1.82906 3.3571,-4.92281 5.9046,-6.875 2.5476,-1.95219 6.7269,-5.37757 9.2875,-7.61194 2.5606,-2.23438 5.0544,-4.0625 5.5419,-4.0625 1.0816,0 10.5061,7.67719 17.2821,14.07795 4.6454,4.38821 4.9311,5.05734 4.2684,9.99805 -1.2465,9.29346 -8.4431,12.97345 -17.6443,9.02246 -2.0364,-0.87441 -2.2497,-0.66436 -1.3935,1.37203 1.8906,4.49664 1.4244,7.38641 -1.2534,7.76973 -1.4033,0.20088 -2.9569,-0.0401 -3.4523,-0.53561 z m -10.0816,-61.43816 c -0.3344,-0.54096 1.4838,-5.69745 4.0404,-11.45887 7.2108,-16.2502 10.3229,-16.59632 17.0233,-1.89326 5.2545,11.53037 5.6514,13.4906 2.8479,14.06687 -1.3798,0.28362 -2.7087,-0.72712 -3.6382,-2.76718 -1.2691,-2.78543 -2.2443,-3.21401 -7.3131,-3.21401 -5.0256,0 -6.0491,0.43979 -7.2726,3.125 -1.3743,3.01627 -4.4349,4.16859 -5.6877,2.14145 z m 15.2223,-12.45395 c -0.2317,-1.20313 -1.2496,-2.1875 -2.262,-2.1875 -1.0124,0 -2.0303,0.98437 -2.262,2.1875 -0.2956,1.53481 0.3793,2.1875 2.262,2.1875 1.8827,0 2.5576,-0.65269 2.262,-2.1875 z m -86.2779,-109.28714 c 2.799,-1.11081 602.7328,-1.11081 605.5318,0 1.1774,0.4673 -135.0672,0.84964 -302.7659,0.84964 -167.6987,0 -303.9433,-0.38234 -302.7659,-0.84964 z"
         id="path4603"
         inkscape:connector-curvature="0" />
      <path
         style="fill:#2d2d2d"
         d="m -1664.2467,1269.4818 c 82.6719,-0.1775 217.9531,-0.1775 300.625,0 82.6719,0.1774 15.0312,0.3226 -150.3125,0.3226 -165.3438,0 -232.9844,-0.1452 -150.3125,-0.3226 z m -161.5698,-435.31255 c 0,-233.40625 0.1439,-328.89063 0.3198,-212.1875 0.1758,116.70312 0.1758,307.67187 0,424.37505 -0.1759,116.7031 -0.3198,21.2187 -0.3198,-212.18755 z m 623.7501,0 c 0,-233.40625 0.1438,-328.89063 0.3197,-212.1875 0.1758,116.70312 0.1758,307.67187 0,424.37505 -0.1759,116.7031 -0.3197,21.2187 -0.3197,-212.18755 z m -583.9094,390.10245 c -2.1541,-1.3135 -4.826,-3.6866 -5.9375,-5.2735 -1.8505,-2.6419 -2.0209,-35.1003 -2.0209,-384.93851 l 0,-382.05329 2.6104,-3.31855 c 5.9351,-7.5453 -14.8813,-7.0186 277.3896,-7.0186 292.2709,0 271.4545,-0.5267 277.3896,7.0186 l 2.6104,3.31855 0,382.16285 0,382.16285 -2.6104,3.3186 c -5.9353,7.5455 14.9066,7.019 -277.64,7.0139 -261.4915,0 -267.9679,-0.062 -271.7912,-2.3929 z m 542.5254,-2.5488 c 1.7305,-0.6579 4.0171,-2.88 5.0813,-4.9379 1.734,-3.3532 1.9349,-43.0731 1.9349,-382.61575 0,-339.5426 -0.2009,-379.26257 -1.9349,-382.61578 -1.0642,-2.05789 -3.3508,-4.27996 -5.0813,-4.93792 -4.28,-1.62722 -536.6876,-1.62722 -540.9676,0 -1.7305,0.65796 -4.0172,2.88003 -5.0813,4.93792 -1.734,3.35321 -1.9349,43.07318 -1.9349,382.61578 0,340.01185 0.199,379.25905 1.9405,382.62655 1.0672,2.0638 3.1766,4.2503 4.6875,4.8587 3.8361,1.5449 537.2951,1.6123 541.3558,0.068 z m -53.9799,-51.6227 c -1.9658,-2.3687 -9.0039,-18.3323 -9.0039,-20.4225 0,-2.8034 1.971,-2.0388 3.5226,1.3666 1.2447,2.7319 2.2166,3.125 7.7274,3.125 5.5108,0 6.4827,-0.3931 7.7274,-3.125 1.6457,-3.6119 3.5488,-4.1267 3.4655,-0.9375 -0.079,3.0295 -9.0052,20.7709 -10.6928,21.253 -0.7562,0.216 -1.992,-0.3508 -2.7462,-1.2596 z m 4.7984,-7.2786 c 1.819,-3.399 0.6768,-6.1523 -2.5523,-6.1523 -1.4181,0 -2.8854,0.7998 -3.2605,1.7773 -0.7822,2.0385 1.525,6.9727 3.2605,6.9727 0.6391,0 1.7876,-1.169 2.5523,-2.5977 z m -9.4273,-40.587 c -15.6049,-13.6146 -14.7744,-12.5415 -14.0257,-18.1236 1.267,-9.4462 7.1676,-12.2776 16.4058,-7.8722 4.039,1.9261 4.5588,1.9261 7.4984,0 1.7372,-1.1383 5.1341,-2.0695 7.5487,-2.0695 5.4507,0 8.766,4.384 8.766,11.592 0,3.9158 -0.7721,5.586 -3.8016,8.2234 -3.416,2.9738 -15.198,11.6424 -16.7666,12.3359 -0.3438,0.152 -2.875,-1.6867 -5.625,-4.086 z m 4.618,-30.8223 c -2.294,-2.2941 -1.7741,-4.743 1.007,-4.743 2.5813,0 3.1995,1.9631 1.4739,4.6805 -0.7658,1.2058 -1.3235,1.2199 -2.4809,0.062 z m -221.2439,-205.92958 c -5.7857,-1.43547 -5.9781,-1.96115 -2.3125,-6.31751 1.7862,-2.1228 3.767,-5.94344 4.4018,-8.4903 3.5063,-14.06847 2.3685,-16.89992 -4.0006,-9.95622 -12.2655,13.3719 -31.2396,11.24275 -38.8569,-4.36028 -6.2139,-12.72856 -5.4829,-24.87104 2.0475,-34.00665 2.0778,-2.52074 10.1493,-8.77274 17.9367,-13.89334 8.5904,-5.64858 16.4528,-11.96711 19.9914,-16.06591 l 5.8325,-6.75575 7.5365,8.0565 c 4.1451,4.43108 12.3769,11.20759 18.293,15.05891 18.2569,11.88513 24.2659,19.3963 24.3337,30.41708 0.1655,26.88387 -24.8705,39.4833 -43.1209,21.70069 -2.5503,-2.48495 -4.885,-3.87499 -5.3217,-3.16844 -1.5161,2.4531 2.0239,14.13774 6.1331,20.2441 2.2923,3.40627 3.7885,6.42656 3.325,6.71172 -2.0033,1.23258 -12.4373,1.76358 -16.2186,0.8254 z m -216.4991,-304.96123 c 0,-0.63128 0.3469,-2.05188 0.771,-3.15691 0.5967,-1.55508 1.1617,-1.68484 2.5,-0.57418 2.5421,2.10975 2.1045,4.87885 -0.771,4.87885 -1.375,0 -2.5,-0.5165 -2.5,-1.14776 z m -15.8803,-9.6914 c -1.2033,-1.83655 -2.1879,-5.55037 -2.1879,-8.25293 0,-5.35681 1.4601,-7.0238 14.2204,-16.23534 l 6.514,-4.70242 5.7139,4.70242 c 13.4583,11.07591 14.5014,12.43726 13.7607,17.95936 -1.257,9.37173 -7.1845,12.19111 -16.3959,7.79852 -4.039,-1.92607 -4.5589,-1.92607 -7.4984,0 -5.0279,3.29441 -11.5185,2.71109 -14.1268,-1.26961 z m 5.8803,-50.91138 c 0,-0.2753 2.2242,-5.3378 4.9428,-11.25 3.9073,-8.49753 5.4905,-10.74946 7.5572,-10.74946 2.0667,0 3.6499,2.25193 7.5572,10.74946 5.6308,12.2457 5.4931,11.75054 3.2684,11.75054 -0.9209,0 -2.315,-1.40625 -3.0982,-3.125 -1.2447,-2.73198 -2.2166,-3.125 -7.7274,-3.125 -5.5108,0 -6.4827,0.39302 -7.7274,3.125 -0.7832,1.71875 -2.1773,3.125 -3.0982,3.125 -0.9209,0 -1.6744,-0.22524 -1.6744,-0.50054 z m 15.7605,-10.02678 c 0.7822,-2.03854 -1.525,-6.97268 -3.2605,-6.97268 -1.7355,0 -4.0427,4.93414 -3.2605,6.97268 0.3751,0.97752 1.8423,1.77732 3.2605,1.77732 1.4182,0 2.8854,-0.7998 3.2605,-1.77732 z m 65.177,-111.66013 c 82.6719,-0.17745 217.9531,-0.17745 300.625,0 82.6719,0.17744 15.0312,0.32262 -150.3125,0.32262 -165.3438,0 -232.9844,-0.14518 -150.3125,-0.32262 z"
         id="path4601"
         inkscape:connector-curvature="0" />
      <path
         style="fill:#171717"
         d="m -1663.6217,1269.4818 c 82.3281,-0.1775 217.0469,-0.1775 299.375,0 82.3281,0.1775 14.9687,0.3227 -149.6875,0.3227 -164.6563,0 -232.0156,-0.1452 -149.6875,-0.3227 z m -162.1948,-435.31255 c 0,-233.40625 0.1439,-328.89063 0.3198,-212.1875 0.1758,116.70312 0.1758,307.67187 0,424.37505 -0.1759,116.7031 -0.3198,21.2187 -0.3198,-212.18755 z m 623.7501,0 c 0,-233.40625 0.1438,-328.89063 0.3197,-212.1875 0.1758,116.70312 0.1758,307.67187 0,424.37505 -0.1759,116.7031 -0.3197,21.2187 -0.3197,-212.18755 z m -584.597,389.10275 c -1.8447,-1.1443 -4.0947,-3.4645 -5,-5.1559 -2.4567,-4.5905 -2.4423,-763.33014 0.015,-767.92097 0.9132,-1.70642 3.25,-4.04158 5.1928,-5.18923 3.2697,-1.93146 23.5383,-2.08665 272.5217,-2.08665 248.9834,0 269.252,0.15519 272.5217,2.08665 1.9428,1.14765 4.2796,3.48281 5.1928,5.18923 2.4699,4.61499 2.4699,763.33327 0,767.94827 -0.9132,1.7064 -3.25,4.0415 -5.1928,5.1892 -3.2702,1.9318 -23.5148,2.0842 -272.7146,2.0534 -248.888,-0.031 -269.435,-0.1901 -272.5363,-2.114 z m 547.161,-3.4209 3.0682,-3.0682 0,-382.61365 0,-382.61364 -3.0682,-3.06818 -3.0682,-3.06818 -271.3636,0 -271.3636,0 -3.0682,3.06818 -3.0682,3.06818 0,382.61364 0,382.61365 3.0682,3.0682 3.0682,3.0682 271.3636,0 271.3636,0 3.0682,-3.0682 z m -58.1818,-49.9461 c 0,-0.2828 -1.9474,-5.0641 -4.3276,-10.625 -2.3802,-5.5609 -3.8243,-10.1107 -3.2092,-10.1107 0.6151,0 1.475,1.1236 1.9109,2.4971 0.4359,1.3734 2.1792,2.8451 3.8741,3.2705 2.7661,0.6942 2.8684,0.9293 0.9993,2.296 -1.8446,1.3488 -1.8829,1.9384 -0.3355,5.167 0.9607,2.0044 2.5753,3.6444 3.588,3.6444 1.0127,0 2.6273,-1.64 3.588,-3.6444 1.5474,-3.2286 1.5091,-3.8182 -0.3355,-5.167 -1.8691,-1.3667 -1.7668,-1.6018 0.9993,-2.296 1.6949,-0.4254 3.4382,-1.8971 3.8741,-3.2705 0.4359,-1.3735 1.2958,-2.4971 1.9109,-2.4971 0.6151,0 -0.829,4.5498 -3.2092,10.1107 -2.3802,5.5609 -4.3276,10.3422 -4.3276,10.625 0,0.2829 -1.125,0.5143 -2.5,0.5143 -1.375,0 -2.5,-0.2314 -2.5,-0.5143 z m -3.3038,-47.9599 c -2.1608,-1.8705 -6.2389,-5.2607 -9.0625,-7.5339 -4.4629,-3.593 -5.1337,-4.7847 -5.1337,-9.1193 0,-3.6274 0.8361,-5.8224 3.0682,-8.0545 3.7758,-3.7758 6.0105,-3.8414 11.6715,-0.3428 l 4.4097,2.7254 4.7354,-2.7254 c 6.0573,-3.4861 8.0253,-3.4289 11.797,0.3428 4.6572,4.6573 4.2169,11.0973 -1.1022,16.1194 -5.9361,5.6046 -14.2319,12.0689 -15.433,12.0258 -0.5619,-0.02 -2.7895,-1.567 -4.9504,-3.4375 z m 3.3038,-32.7758 c 0,-0.6875 0.5625,-1.25 1.25,-1.25 0.6875,0 1.25,0.5625 1.25,1.25 0,0.6875 -0.5625,1.25 -1.25,1.25 -0.6875,0 -1.25,-0.5625 -1.25,-1.25 z m -222.1875,-204.63221 c -3.4636,-0.66714 -3.4676,-0.54153 0.1844,-5.92296 1.6483,-2.42888 3.704,-7.36381 4.5683,-10.96649 l 1.5714,-6.55034 2.1211,6.50649 c 1.1666,3.57856 3.5806,8.71205 5.3646,11.40773 l 3.2435,4.90125 -2.7454,0.73618 c -2.988,0.80122 -9.8456,0.74761 -14.3079,-0.11188 z m -28.5612,-17.74963 c -15.2378,-6.92019 -19.1759,-32.58089 -6.9975,-45.59602 1.8542,-1.98155 8.9962,-7.26678 15.8712,-11.74495 6.875,-4.47818 15.5498,-11.36263 19.2774,-15.29879 l 6.7775,-7.15665 6.8665,7.41669 c 3.7766,4.07918 12.2956,10.99645 18.9311,15.37171 22.093,14.56739 26.8715,23.50054 21.7665,40.69099 -3.5835,12.06705 -14.873,19.94842 -25.6372,17.89788 -6.0333,-1.14928 -9.8629,-3.34186 -14.7895,-8.46742 -5.6773,-5.90651 -9.881,-5.97568 -14.2599,-0.23461 -3.8815,5.08882 -12.4684,9.51337 -18.3895,9.47551 -2.3611,-0.0151 -6.5986,-1.07455 -9.4166,-2.35434 z m -185.5013,-287.61821 c 0,-0.6875 0.5625,-1.25 1.25,-1.25 0.6875,0 1.25,0.5625 1.25,1.25 0,0.6875 -0.5625,1.25 -1.25,1.25 -0.6875,0 -1.25,-0.5625 -1.25,-1.25 z m -15.6818,-8.06819 c -3.2809,-3.28089 -4.0506,-9.01047 -1.7804,-13.25251 1.0631,-1.9864 6.7001,-6.739 16.8386,-14.19686 1.5078,-1.10918 3.8653,0.46902 16.3713,10.95955 5.4738,4.59163 5.9835,11.6904 1.1841,16.48982 -3.7717,3.77174 -5.7397,3.82893 -11.7969,0.34281 l -4.7355,-2.72537 -4.4097,2.72537 c -5.661,3.49868 -7.8957,3.43304 -11.6715,-0.34281 z m 6.8523,-54.74431 c 3.3175,-8.41641 7.6235,-17.06717 8.8829,-17.84548 0.7901,-0.48831 2.1659,-0.11815 3.0574,0.82257 2.2223,2.34494 9.3799,19.02743 8.5039,19.82041 -0.3888,0.352 -0.9614,-0.0732 -1.2724,-0.94482 -0.3111,-0.87165 -1.4944,-2.51369 -2.6297,-3.64898 -1.1353,-1.13529 -2.1471,-3.71411 -2.2485,-5.73071 -0.1015,-2.0166 -1.0911,-4.57321 -2.1993,-5.68137 -1.8531,-1.85311 -2.1765,-1.85311 -4.0296,0 -1.1082,1.10816 -2.0978,3.66477 -2.1993,5.68137 -0.1014,2.0166 -1.1635,4.64564 -2.3601,5.84231 -1.1967,1.19668 -2.1758,2.69809 -2.1758,3.33649 0,0.63839 -0.5486,1.16071 -1.2191,1.16071 -0.7593,0 -0.801,-1.06059 -0.1104,-2.8125 z m 79.142,-118.12495 c 82.3281,-0.17747 217.0469,-0.17747 299.375,0 82.3281,0.17746 14.9687,0.32267 -149.6875,0.32267 -164.6563,0 -232.0156,-0.14521 -149.6875,-0.32267 z"
         id="path4599"
         inkscape:connector-curvature="0" />
      <path
         style="fill:#010101"
         d="m -1647.9967,1224.4818 c 73.7344,-0.1781 194.3906,-0.1781 268.125,0 73.7344,0.1781 13.4062,0.3238 -134.0625,0.3238 -147.4688,0 -207.7969,-0.1457 -134.0625,-0.3238 z m 351.25,-56.1404 c 0.8594,-0.3468 2.2656,-0.3468 3.125,0 0.8594,0.3468 0.1562,0.6305 -1.5625,0.6305 -1.7188,0 -2.4219,-0.2837 -1.5625,-0.6305 z m -5.2088,-10.2544 c -0.5385,-0.8712 -0.6415,-1.9216 -0.2289,-2.3343 1.1187,-1.1187 2.3385,0.5267 1.7343,2.3394 -0.4234,1.2702 -0.7179,1.2692 -1.5054,-0.01 z m 11.7713,-0.719 c 0,-1.0718 0.5625,-1.9487 1.25,-1.9487 0.6875,0 1.25,0.5293 1.25,1.1762 0,0.6469 -0.5625,1.5239 -1.25,1.9488 -0.6875,0.4249 -1.25,-0.1044 -1.25,-1.1763 z m -8.693,-35.0051 c -0.8246,-0.9935 -4.1786,-3.5257 -7.4534,-5.6272 -8.8627,-5.6872 -11.0393,-11.9507 -6.2629,-18.0229 3.1299,-3.979 7.6414,-4.2757 12.0682,-0.7935 1.748,1.375 3.8703,2.5 4.7161,2.5 0.8458,0 2.9681,-1.125 4.7161,-2.5 6.2326,-4.9027 12.2343,-2.341 14.0027,5.9766 0.7817,3.6768 0.3541,4.5831 -4.1282,8.75 -7.0937,6.5946 -13.476,11.5234 -14.9216,11.5234 -0.6808,0 -1.9125,-0.8129 -2.737,-1.8064 z m -221.0709,-239.04698 c -1.298,-0.51948 -1.2318,-1.10578 0.3179,-2.81817 1.0762,-1.18923 2.9908,-5.2044 4.2547,-8.92263 l 2.2979,-6.7604 1.6014,4.98977 c 0.8808,2.74436 2.9137,6.74846 4.5177,8.89798 1.6039,2.14953 2.5655,4.2589 2.1369,4.6875 -0.9254,0.92545 -12.7742,0.86744 -15.1265,-0.074 z m -28.7616,-17.49887 c -5.7795,-2.84805 -9.7796,-8.58281 -12.0821,-17.32155 -4.3464,-16.4961 0.2442,-24.49034 22.3454,-38.91244 6.7996,-4.43704 15.1925,-11.06677 18.651,-14.73274 l 6.2882,-6.66538 6.0752,6.64733 c 3.3415,3.65604 11.8235,10.57509 18.8491,15.37567 19.1696,13.09862 23.3987,18.36077 23.3987,29.11416 0,20.99554 -16.4318,34.35347 -32.2373,26.20669 -2.5507,-1.31477 -6.5762,-4.40852 -8.9454,-6.875 -5.8193,-6.05821 -9.7041,-5.97129 -14.7683,0.33042 -6.8634,8.54061 -18.3386,11.38411 -27.5745,6.83284 z m -200.5166,-295.0853 c -1.0613,-1.20313 -2.3221,-4.03324 -2.8017,-6.28914 -0.7817,-3.67679 -0.3541,-4.58314 4.1282,-8.75 9.6503,-8.97127 14.1288,-12.04175 15.7749,-10.81523 0.8613,0.64178 4.6666,3.30447 8.4563,5.91711 9.8352,6.78046 12.0436,12.60197 7.1437,18.83118 -3.1299,3.97903 -7.6414,4.27569 -12.0682,0.79358 -1.748,-1.375 -3.8703,-2.5 -4.7161,-2.5 -0.8458,0 -2.9681,1.125 -4.7161,2.5 -3.919,3.08273 -8.6412,3.21448 -11.201,0.3125 z m 9.0421,-59.0625 c 0,-0.6875 0.5625,-1.25 1.25,-1.25 0.6875,0 1.25,0.5625 1.25,1.25 0,0.6875 -0.5625,1.25 -1.25,1.25 -0.6875,0 -1.25,-0.5625 -1.25,-1.25 z m 12.5,0 c 0,-0.6875 0.5625,-1.25 1.25,-1.25 0.6875,0 1.25,0.5625 1.25,1.25 0,0.6875 -0.5625,1.25 -1.25,1.25 -0.6875,0 -1.25,-0.5625 -1.25,-1.25 z m -7.5,-11.51786 c 0,-0.54018 1.125,-0.98214 2.5,-0.98214 1.375,0 2.5,0.44196 2.5,0.98214 0,0.54018 -1.125,0.98215 -2.5,0.98215 -1.375,0 -2.5,-0.44197 -2.5,-0.98215 z m 87.1875,-56.91958 c 73.7344,-0.1781 194.3906,-0.1781 268.125,0 73.7344,0.1781 13.4062,0.32382 -134.0625,0.32382 -147.4688,0 -207.7969,-0.14572 -134.0625,-0.32382 z"
         id="path4597"
         inkscape:connector-curvature="0" />
    </g>
  </g>
</svg>
