<?xml version="1.0" encoding="UTF-8" standalone="no"?>
<!-- Created with Inkscape (http://www.inkscape.org/) -->

<svg
   xmlns:dc="http://purl.org/dc/elements/1.1/"
   xmlns:cc="http://creativecommons.org/ns#"
   xmlns:rdf="http://www.w3.org/1999/02/22-rdf-syntax-ns#"
   xmlns:svg="http://www.w3.org/2000/svg"
   xmlns="http://www.w3.org/2000/svg"
   xmlns:sodipodi="http://sodipodi.sourceforge.net/DTD/sodipodi-0.dtd"
   xmlns:inkscape="http://www.inkscape.org/namespaces/inkscape"
   width="176.4539mm"
   height="246.30455mm"
   viewBox="0 0 625.23037 872.73266"
   id="svg2"
   version="1.1"
   inkscape:version="0.91 r13725"
   sodipodi:docname="J.svg">
  <defs
     id="defs4">
    <pattern
       y="0"
       x="0"
       height="6"
       width="6"
       patternUnits="userSpaceOnUse"
       id="EMFhbasepattern" />
    <pattern
       y="0"
       x="0"
       height="6"
       width="6"
       patternUnits="userSpaceOnUse"
       id="EMFhbasepattern-7" />
  </defs>
  <sodipodi:namedview
     id="base"
     pagecolor="#ffffff"
     bordercolor="#666666"
     borderopacity="1.0"
     inkscape:pageopacity="0.0"
     inkscape:pageshadow="2"
     inkscape:zoom="0.35"
     inkscape:cx="359.50183"
     inkscape:cy="396.11736"
     inkscape:document-units="px"
     inkscape:current-layer="layer1"
     showgrid="false"
     fit-margin-top="0"
     fit-margin-left="0"
     fit-margin-right="0"
     fit-margin-bottom="0"
     inkscape:window-width="784"
     inkscape:window-height="822"
     inkscape:window-x="800"
     inkscape:window-y="0"
     inkscape:window-maximized="0" />
  <metadata
     id="metadata7">
    <rdf:RDF>
      <cc:Work
         rdf:about="">
        <dc:format>image/svg+xml</dc:format>
        <dc:type
           rdf:resource="http://purl.org/dc/dcmitype/StillImage" />
        <dc:title></dc:title>
      </cc:Work>
    </rdf:RDF>
  </metadata>
  <g
     inkscape:label="Calque 1"
     inkscape:groupmode="layer"
     id="layer1"
     transform="translate(325.9304,-55.746997)">
    <g
       transform="translate(-1793.9312,-301.65516)"
       id="g4667">
      <path
         style="fill:#fdfdfd"
         d="m 1468.1144,793.76318 0,-436.25 312.5,0 312.5,0 0,436.25 0,436.25002 -312.5,0 -312.5,0 0,-436.25002 z"
         id="path4683"
         inkscape:connector-curvature="0" />
      <path
         style="fill:#e6e6e6"
         d="m 1474.2396,1228.4549 c -1.8959,-0.7539 -3.8487,-2.9487 -4.6875,-5.2682 -2.0668,-5.7156 -2.07,-853.12237 0,-858.83785 0.9685,-2.67839 2.7229,-4.43273 5.4013,-5.40125 5.6984,-2.06059 605.6302,-2.06059 611.3286,0 2.6784,0.96852 4.4328,2.72286 5.4013,5.40125 2.0638,5.70731 2.0638,853.12135 0,858.82865 -0.9685,2.6784 -2.7229,4.4327 -5.4013,5.4013 -5.3415,1.9315 -607.1766,1.8097 -612.0391,-0.1239 z m 611.4709,-5.8456 3.6539,-3.6538 0,-425.19232 0,-425.19231 -3.6539,-3.65384 -3.6538,-3.65385 -301.4423,0 -301.4423,0 -3.6539,3.65385 -3.6538,3.65384 0,425.19231 0,425.19232 3.6538,3.6538 3.6539,3.6539 301.4423,0 301.4423,0 3.6538,-3.6539 z m -576.9683,-34.5607 c -2.061,-1.0772 -4.7904,-2.9026 -6.0655,-4.0565 -6.1617,-5.5763 -5.8123,17.881 -5.8123,-390.22892 0,-336.43552 0.2208,-381.8011 1.8737,-384.99746 1.0305,-1.99282 3.9399,-5.19926 6.4652,-7.12542 l 4.5915,-3.50212 270.8196,0 270.8196,0 4.5915,3.50212 c 2.5253,1.92616 5.4347,5.1326 6.4652,7.12542 1.6529,3.19636 1.8737,48.56194 1.8737,384.99746 0,336.43552 -0.2208,381.80112 -1.8737,384.99742 -1.0305,1.9929 -3.9398,5.1993 -6.4651,7.1255 l -4.5914,3.5021 -269.4724,0.3095 c -242.6017,0.2787 -269.8461,0.1142 -273.2196,-1.6491 z m 543.1222,-11.7854 c 2.489,-2.4891 2.5,-4.1667 2.5,-382.50002 0,-378.33333 -0.011,-380.01097 -2.5,-382.5 -2.4845,-2.4845 -4.1667,-2.5 -271.25,-2.5 -267.0833,0 -268.7655,0.0155 -271.25,2.5 -2.489,2.48903 -2.5,4.16667 -2.5,382.5 0,378.33332 0.011,380.01092 2.5,382.50002 2.4845,2.4845 4.1667,2.5 271.25,2.5 267.0833,0 268.7655,-0.016 271.25,-2.5 z m -61.6074,-43.2741 c -0.4909,-0.4909 -0.8926,-6.1018 -0.8926,-12.4685 0,-11.0169 0.1591,-11.7011 3.2936,-14.1667 3.747,-2.9474 15.1474,-3.6497 17.7064,-1.0907 3.9478,3.9478 0.1372,8.5 -7.1152,8.5 l -3.7796,0 -0.3651,9.6875 -0.3651,9.6875 -3.7949,0.3717 c -2.0872,0.2045 -4.1966,-0.03 -4.6875,-0.5208 z m 1.4739,-47.0674 c -3.1671,-2.9059 -8.0658,-7.1239 -10.8859,-9.3734 -5.9033,-4.7085 -7.5639,-10.0902 -5.2639,-17.0591 1.8678,-5.6595 6.716,-9.476 12.0376,-9.476 3.2063,0 3.9999,-0.4361 3.4416,-1.8909 -1.1181,-2.9137 1.9301,-5.6091 6.3433,-5.6091 5.0255,0 8.8868,2.6854 7.8281,5.4442 -0.6513,1.6973 0.086,2.0558 4.2288,2.0558 6.0869,0 10.276,3.6548 12.4302,10.8448 2.0933,6.987 -0.6176,12.8961 -8.3455,18.1905 -3.2832,2.2493 -7.9032,5.9178 -10.2668,8.1522 -2.3636,2.2344 -4.6331,4.0494 -5.0432,4.0335 -0.4102,-0.016 -3.3371,-2.4066 -6.5043,-5.3125 z m -239.554,-205.48637 c -2.034,-0.82073 -2.0848,-13.14988 -0.062,-15.17215 0.9964,-0.99636 6.4287,-1.5 16.1791,-1.5 19.6493,0 18.5709,1.78681 18.5709,-30.7694 0,-28.06929 -0.4474,-26.7306 8.9344,-26.7306 10.1416,0 9.8156,-1.03477 9.8156,31.1555 0,32.05196 0.7301,29.32877 -10.3885,38.74935 l -6.0136,5.09515 -17.7364,-0.0987 c -9.7551,-0.0543 -18.4396,-0.3824 -19.299,-0.72916 z m -21.2241,-94.5863 c -3.9674,-5.04029 -10.8696,-14.02878 -15.3384,-19.97443 -7.6605,-10.19221 -8.393,-10.81172 -12.8125,-10.83583 -6.0364,-0.033 -9.6875,-3.54173 -9.6875,-9.30987 0,-4.80067 4.5663,-9.46572 9.2654,-9.46572 3.4308,0 8.2346,3.3457 8.2346,5.73511 0,1.01384 0.7031,2.0999 1.5625,2.41348 2.024,0.73851 28.7724,4.44692 29.124,4.03777 0.1472,-0.17125 1.1244,-5.37386 2.1715,-11.56136 1.8601,-10.99108 1.8443,-11.3145 -0.6854,-14.05232 -5.5438,-5.99993 -1.4737,-15.73934 6.5774,-15.73934 5.392,0 9.2811,4.15864 9.1225,9.75468 -0.1136,4.00802 0.9104,5.34654 11.5905,15.15013 l 11.7151,10.75369 11.8423,-10.93273 c 10.6667,-9.84735 11.7726,-11.28151 11.1398,-14.44583 -1.014,-5.06966 5.6403,-11.72636 10.5588,-10.56259 7.3007,1.72746 10.3066,10.97484 5.2997,16.30441 -2.4063,2.56141 -2.4223,2.97909 -0.5298,13.82159 1.0733,6.1492 2.0589,11.28782 2.1903,11.41915 0.1313,0.13132 6.1353,-0.54994 13.3423,-1.51393 7.2069,-0.96399 13.4875,-1.77052 13.9568,-1.79231 0.4693,-0.0217 1.2123,-1.17078 1.6511,-2.55331 1.0899,-3.43423 7.3354,-6.48099 11.264,-5.49498 10.3554,2.59904 8.3537,18.00869 -2.3394,18.00869 -3.9522,0 -5.0499,1.13071 -18.9034,19.4731 -8.0891,10.71021 -15.393,19.73616 -16.2308,20.05769 -0.8379,0.32152 -5.9424,-0.89879 -11.3433,-2.71183 -20.8765,-7.00801 -44.4445,-6.982 -64.8807,0.0716 -4.9548,1.71017 -9.3767,3.10941 -9.8264,3.10941 -0.4497,0 -4.0636,-4.12388 -8.031,-9.16415 z M 1556.2752,543.31894 c -1.4186,-1.0373 -2.0111,-2.49137 -1.5281,-3.75 0.6513,-1.69727 -0.086,-2.05576 -4.2287,-2.05576 -6.087,0 -10.2761,-3.65481 -12.4303,-10.84482 -2.0933,-6.98698 0.6177,-12.89611 8.3454,-18.19047 3.2832,-2.24934 7.9034,-5.91784 10.267,-8.15221 2.3636,-2.23438 4.5747,-4.0625 4.9135,-4.0625 0.3389,0 3.2701,2.39062 6.5139,5.3125 3.2438,2.92187 8.2008,7.15293 11.0156,9.40234 5.8929,4.70913 7.5521,10.09643 5.2542,17.05913 -1.8678,5.6595 -6.716,9.47603 -12.0376,9.47603 -3.2063,0 -3.9999,0.43606 -3.4416,1.89091 1.8325,4.77555 -7.51,7.66838 -12.6433,3.91485 z m -5.4577,-60.65376 c -0.9195,-0.58285 -1.482,-2.40236 -1.25,-4.04336 0.357,-2.52491 1.2867,-3.07973 6.0469,-3.60864 l 5.625,-0.625 0.625,-9.00388 c 0.6829,-9.83752 1.9269,-12.04993 6.4183,-11.41445 2.8466,0.40275 2.97,0.86763 3.313,12.48069 0.3476,11.77145 0.2757,12.12566 -2.9811,14.6875 -3.503,2.75541 -14.386,3.68926 -17.7971,1.52714 z"
         id="path4681"
         inkscape:connector-curvature="0" />
      <path
         style="fill:#d9d9d9"
         d="m 1474.502,1228.2688 c -6.7121,-3.7202 -6.2956,24.7837 -6.3433,-434.13431 -0.034,-328.08824 0.3003,-427.25997 1.4491,-429.78124 3.3332,-7.31567 -18.2831,-6.84007 310.8857,-6.84007 231.8704,0 303.2686,0.34869 305.7808,1.49336 7.3554,3.35134 6.8401,-29.40324 6.8401,434.75664 0,464.15992 0.5153,431.40532 -6.8401,434.75662 -5.0745,2.3121 -607.5939,2.0649 -611.7723,-0.251 z m 604.2374,-0.7556 c -0.4249,-0.6875 0.4112,-1.25 1.8581,-1.25 3.3941,0 8.7669,-5.3729 8.7669,-8.767 0,-1.4468 0.5625,-2.2829 1.25,-1.858 0.8324,0.5144 1.25,-140.4283 1.25,-421.87502 0,-281.44672 -0.4176,-422.38945 -1.25,-421.875 -0.6875,0.4249 -1.25,-0.41122 -1.25,-1.85805 0,-3.39411 -5.3728,-8.76695 -8.7669,-8.76695 -1.4469,0 -2.283,-0.5625 -1.8581,-1.25 0.5142,-0.832 -99.1783,-1.25 -298.125,-1.25 -198.9467,0 -298.6392,0.418 -298.125,1.25 0.4249,0.6875 -0.4112,1.25 -1.858,1.25 -3.3942,0 -8.767,5.37284 -8.767,8.76695 0,1.44683 -0.5625,2.28295 -1.25,1.85805 -0.8324,-0.51445 -1.25,140.42827 -1.25,421.875 0,281.44672 0.4176,422.38942 1.25,421.87502 0.6875,-0.4249 1.25,0.4112 1.25,1.858 0,3.3941 5.3728,8.767 8.767,8.767 1.4468,0 2.2829,0.5625 1.858,1.25 -0.5142,0.832 99.1783,1.25 298.125,1.25 198.9467,0 298.6392,-0.418 298.125,-1.25 z m -571.9997,-41.4171 c -2.4749,-1.4353 -5.428,-4.1811 -6.5625,-6.1017 -1.905,-3.2247 -2.0628,-32.7789 -2.0628,-386.23122 0,-354.35788 0.1539,-382.99974 2.0749,-386.25182 1.1412,-1.9319 4.1709,-4.69056 6.7327,-6.13036 l 4.6578,-2.61782 269.0346,0 269.0346,0 4.6578,2.61782 c 2.5618,1.4398 5.5915,4.19846 6.7327,6.13036 1.921,3.25208 2.0749,31.89394 2.0749,386.25182 0,354.35792 -0.1539,382.99972 -2.0749,386.25182 -1.1412,1.9319 -4.1709,4.6906 -6.7327,6.1304 l -4.6578,2.6178 -269.2048,-0.029 -269.2048,-0.029 -4.4997,-2.6097 z m 545.8505,-9.1343 c 2.6735,-3.6564 2.6735,-762.74096 0,-766.39721 -1.7469,-2.38893 -5.9485,-2.42641 -271.9758,-2.42641 -266.0273,0 -270.2289,0.0375 -271.9758,2.42641 -1.5231,2.08299 -1.7742,56.31862 -1.7742,383.19859 0,302.71322 0.3203,381.18392 1.5625,382.78062 0.8594,1.1047 2.6875,2.2745 4.0625,2.5997 1.375,0.3251 123.061,0.5132 270.4133,0.4179 263.6585,-0.1705 267.9415,-0.2118 269.6875,-2.5996 z m -61.8912,-45.5406 c -0.734,-1.3715 -1.3346,-6.3923 -1.3346,-11.1573 0,-6.872 0.5358,-9.3447 2.5907,-11.9571 2.3237,-2.9541 3.4276,-3.2936 10.708,-3.2936 l 8.1174,0 -0.3956,3.4375 c -0.3538,3.0752 -0.9548,3.478 -5.7021,3.8216 -6.0381,0.437 -6.3424,1.0288 -6.8716,13.3659 -0.2848,6.6381 -0.6353,7.5446 -3.0497,7.8883 -1.722,0.2452 -3.2201,-0.5312 -4.0625,-2.1053 z m 1.1654,-46.4615 c -17.2831,-15.3351 -16.25,-14.0422 -16.25,-20.3353 0,-4.6604 0.7244,-6.6325 3.6313,-9.8859 3.0179,-3.3776 4.4793,-4.042 8.6506,-3.9326 4.6659,0.1224 5.0042,-0.099 4.8061,-3.1431 -0.2003,-3.0793 0.1225,-3.2746 5.412,-3.2746 5.3322,0 5.6223,0.1811 5.5725,3.4797 -0.047,3.1117 0.2936,3.4037 3.2203,2.7609 7.4997,-1.6472 14.9431,5.5304 14.9525,14.4187 0.01,5.6621 -2.2675,8.8032 -11.0224,15.2283 -3.9039,2.8649 -7.8329,6.2279 -8.7313,7.4732 -2.3442,3.2496 -3.9189,2.8208 -10.2416,-2.7893 z M 1751.3731,878.03594 c -1.2728,-3.31685 -0.847,-9.93441 0.7413,-11.52276 0.9869,-0.9869 6.2571,-1.5 15.4071,-1.5 20.0464,0 19.3375,1.1013 19.362,-30.08056 0.01,-13.36194 0.4846,-25.02828 1.0535,-25.92519 0.7089,-1.11775 3.3572,-1.51096 8.4183,-1.25 l 7.3841,0.38075 0.3729,29.375 0.373,29.375 -7.248,6.56024 -7.2479,6.56025 -18.9288,0.002 c -16.1088,0.003 -19.0418,-0.2923 -19.6875,-1.97498 z m -28.8837,-104.2013 c -14.9834,-19.84279 -15.0054,-19.86462 -19.8313,-19.69679 -5.4921,0.191 -9.5437,-3.47618 -9.5437,-8.63815 0,-7.74467 11.7114,-11.09958 15.8798,-4.54902 1.2031,1.89062 2.6387,3.76208 3.1902,4.15878 0.5516,0.3967 7.2313,1.46197 14.844,2.36728 10.7876,1.28288 14.0471,1.31296 14.7742,0.1364 0.5132,-0.83029 1.6444,-6.29151 2.514,-12.13605 1.5204,-10.21992 1.4799,-10.73397 -1.0606,-13.43822 -3.4552,-3.6778 -3.3541,-8.42051 0.2515,-11.8078 6.0116,-5.64763 14.6069,-1.26475 14.6069,7.4483 0,3.91523 1.1835,5.46536 11.1519,14.60693 6.1336,5.62478 11.7495,10.22688 12.4799,10.22688 0.7304,0 6.3871,-4.64063 12.5705,-10.3125 10.2536,-9.40544 11.2449,-10.72051 11.2701,-14.9513 0.052,-8.79055 8.4598,-12.66768 14.4594,-6.66801 3.7862,3.7862 3.878,6.81521 0.3426,11.30972 -2.6262,3.33865 -2.6691,3.85785 -1.1753,14.23108 0.8527,5.92131 2.0449,11.26605 2.6493,11.8772 0.6408,0.64792 6.8996,0.42136 15.0126,-0.54344 13.0995,-1.55781 14.0156,-1.85169 15.6551,-5.02221 2.999,-5.79949 9.0098,-6.60832 13.7657,-1.85235 1.6875,1.6875 3.0682,4.24431 3.0682,5.68181 0,4.05575 -5.4782,8.74533 -10.2557,8.77928 -3.8378,0.0272 -5.1036,1.32978 -18.5245,19.0625 -16.5611,21.88176 -14.0453,20.74144 -33.7198,15.28378 -10.7765,-2.9894 -13.436,-3.24649 -28.75,-2.77932 -13.9698,0.42615 -18.5966,1.08351 -26.875,3.81831 -5.5,1.81694 -10.8437,3.29637 -11.875,3.28764 -1.0312,-0.009 -8.625,-8.95508 -16.875,-19.88073 z M 1556.0942,541.9606 c -0.411,-1.07107 -0.4064,-2.83574 0.01,-3.92147 0.6172,-1.60844 0.1034,-1.83039 -2.7741,-1.19838 -7.7522,1.70265 -15.2017,-5.33097 -15.2113,-14.36193 -0.01,-5.66208 2.2676,-8.80314 11.0225,-15.22824 3.9038,-2.86495 7.8329,-6.2279 8.7312,-7.4732 2.3318,-3.23236 3.463,-2.9044 10.5139,3.0483 14.947,12.61896 15.9777,13.91849 15.9777,20.14572 0,4.58372 -0.7377,6.57799 -3.6313,9.8165 -3.0179,3.37757 -4.4793,4.04194 -8.6506,3.93257 -4.6659,-0.12238 -5.0042,0.0989 -4.8061,3.14305 0.1951,2.99983 -0.2338,3.30696 -5.1109,3.65958 -3.9202,0.28344 -5.521,-0.12853 -6.0713,-1.5625 z m -5.8852,-61.20092 c -1.1425,-2.97721 2.044,-5.60117 7.2804,-5.99523 l 5,-0.37627 0.3542,-8.75 c 0.3914,-9.66871 2.4005,-12.83013 6.6935,-10.53259 1.9824,1.06098 2.3273,2.78117 2.3273,11.60868 0,9.21624 -0.3202,10.66391 -2.8931,13.08102 -2.3153,2.17514 -4.4104,2.71789 -10.4912,2.71789 -5.3669,0 -7.7958,-0.51495 -8.2711,-1.7535 z"
         id="path4679"
         inkscape:connector-curvature="0" />
      <path
         style="fill:#a7a7a7"
         d="m 1475.3176,1228.0564 c -7.802,-4.2333 -7.2032,31.8691 -7.2032,-434.29322 0,-377.55168 0.2122,-425.53447 1.8962,-428.79092 4.1664,-8.05695 -20.7295,-7.45908 310.6038,-7.45908 331.3333,0 306.4374,-0.59787 310.6038,7.45908 1.684,3.25645 1.8962,51.23924 1.8962,428.79092 0,377.55172 -0.2122,425.53452 -1.8962,428.79092 -4.1671,8.0585 20.7715,7.4641 -310.8542,7.409 -264.3514,-0.044 -302.0474,-0.2794 -305.0464,-1.9067 z m 608.2226,-1.325 c 2.495,-1.1897 5.1027,-3.7975 6.2924,-6.2924 1.8633,-3.9073 2.0318,-39.2914 2.0318,-426.67582 0,-387.38446 -0.1685,-422.76852 -2.0318,-426.67583 -4.3198,-9.05876 22.9679,-8.32417 -309.2182,-8.32417 -332.1861,0 -304.8984,-0.73459 -309.2182,8.32417 -1.8633,3.90731 -2.0318,39.29137 -2.0318,426.67583 0,387.60582 0.1676,422.76672 2.0344,426.68132 4.2276,8.8654 -22.5868,8.1501 308.8607,8.2387 273.5715,0.073 299.3827,-0.093 303.2807,-1.9518 z m -575.4734,-40.7807 c -3.6299,-1.8304 -6.3406,-4.3402 -7.763,-7.1875 -2.0663,-4.1364 -2.1856,-25.1336 -2.1875,-385.01952 0,-368.36615 0.073,-380.78399 2.3173,-384.96885 1.3677,-2.55032 4.5252,-5.49092 7.6966,-7.16799 l 5.3774,-2.84366 267.1068,0 267.1068,0 5.3774,2.84366 c 3.1714,1.67707 6.3289,4.61767 7.6966,7.16799 2.2444,4.18486 2.3191,16.6027 2.3173,384.96885 0,359.88592 -0.1212,380.88312 -2.1875,385.01952 -1.4224,2.8473 -4.1331,5.3571 -7.763,7.1875 l -5.5773,2.8125 -266.9703,0 -266.9703,0 -5.5773,-2.8125 z m 544.6545,-8.6554 2.8931,-2.7179 0,-380.63905 0,-380.63904 -2.7179,-2.89307 -2.7179,-2.89306 -269.389,0 -269.3891,0 -2.893,2.71789 -2.8931,2.71789 0,380.63905 0,380.63909 2.7179,2.893 2.7179,2.8931 269.389,0 269.3891,0 2.893,-2.7179 z m -61.2208,-45.5627 c -0.4874,-0.4874 -0.8861,-5.5328 -0.8861,-11.212 0,-9.6665 0.2103,-10.4914 3.2936,-12.9167 4.0851,-3.2134 13.1044,-3.5497 15.5687,-0.5805 1.4175,1.708 1.3106,2.2719 -0.7109,3.75 -1.3086,0.9569 -4.2168,1.7398 -6.4627,1.7398 l -4.0835,0 -0.3651,9.6875 c -0.3263,8.6577 -0.6363,9.7263 -2.9165,10.0527 -1.4033,0.2009 -2.9502,-0.034 -3.4375,-0.5208 z m 2.8414,-46.1184 c -1.6271,-1.7319 -5.6105,-4.8508 -8.852,-6.9309 -10.5817,-6.7903 -12.5706,-17.6283 -4.4836,-24.433 3.114,-2.6203 4.7687,-3.1271 8.553,-2.6195 4.6057,0.6177 4.6787,0.5631 3.9711,-2.9749 -0.8655,-4.3279 1.8604,-5.9258 6.9178,-4.0549 3.3316,1.2325 3.529,1.7963 2.0023,5.7188 -0.7524,1.9332 -0.2293,2.0973 4.5949,1.4408 6.6395,-0.9035 11.6089,2.3565 13.3823,8.7791 1.7261,6.2515 0.4136,10.2504 -4.8477,14.7693 -11.2122,9.6301 -16.086,13.4542 -17.1474,13.4542 -0.6229,0 -2.4636,-1.417 -4.0907,-3.149 z m -240.915,-206.42887 c -2.0103,-0.81119 -2.059,-10.67566 -0.062,-12.67215 0.9869,-0.9869 6.2571,-1.5 15.4071,-1.5 20.1094,0 19.3429,1.22381 19.3429,-30.88433 0,-21.73316 0.2651,-25.19992 1.9772,-25.85693 3.0594,-1.174 9.1774,-0.89779 11.855,0.53523 2.2788,1.21958 2.4178,2.88722 2.4178,29.00118 l 0,27.70719 -7.454,7.24883 -7.4541,7.24883 -17.2334,-0.0987 c -9.4784,-0.0543 -17.9366,-0.3824 -18.796,-0.72916 z m -16.588,-88.10794 c -1.4091,-1.61656 -8.5975,-10.81421 -15.9741,-20.43921 -12.175,-15.88594 -13.7337,-17.46209 -16.9003,-17.08899 -5.1337,0.60488 -9.6001,-2.79831 -9.6001,-7.31482 0,-4.29621 3.8342,-8.72119 7.5568,-8.72119 2.4756,0 7.8081,4.32604 8.821,7.15611 0.6071,1.69599 29.8385,5.88559 31.2214,4.47479 0.5423,-0.55325 1.8965,-6.28021 3.0093,-12.72659 2.0026,-11.60052 1.9963,-11.74589 -0.6133,-14.17702 -3.6567,-3.40673 -2.9245,-9.32148 1.5673,-12.66027 l 3.4375,-2.55514 3.4375,2.55617 c 2.4952,1.85546 3.6088,3.97314 4.0625,7.72508 0.5609,4.63895 1.8237,6.26017 12.3171,15.81288 6.4306,5.85419 11.9744,10.64399 12.3195,10.64399 0.9524,0 7.5785,-5.67691 16.5825,-14.20696 5.8368,-5.52952 8.1463,-8.62671 8.2813,-11.10554 0.1028,-1.89062 0.2574,-4.2668 0.3434,-5.2804 0.1934,-2.28124 6.3612,-5.5344 8.9062,-4.69749 6.3551,2.08992 8.1303,8.75282 3.613,13.56119 -2.6172,2.78594 -2.6213,2.89853 -0.5498,15.05161 1.148,6.73457 2.2694,12.42685 2.4921,12.64952 0.9246,0.92458 30.1036,-3.58559 30.4808,-4.71139 0.2261,-0.6749 1.3851,-2.42993 2.5755,-3.90006 4.3586,-5.38262 13.8884,-1.85603 13.8884,5.13952 0,4.44794 -3.5719,7.49102 -8.8484,7.53837 -4.0301,0.0361 -5.0579,1.07579 -17.8337,18.03948 -7.4564,9.90061 -14.5313,18.8828 -15.7221,19.96043 -1.9742,1.78667 -2.9469,1.69337 -11.0388,-1.05885 -19.9162,-6.77394 -41.9801,-7.36133 -60.932,-1.62212 -5.5,1.66558 -10.9761,3.44858 -12.1692,3.96223 -1.5035,0.64729 -2.9555,0.0319 -4.7313,-2.00533 z M 1557.7936,542.43813 c -1.6922,-1.0084 -1.9072,-1.84753 -0.9375,-3.65951 1.9175,-3.58276 1.6608,-3.77238 -4.0542,-2.9948 -6.4994,0.88428 -11.493,-2.4309 -13.2508,-8.79716 -1.8059,-6.54054 -0.3836,-10.39707 5.7012,-15.45842 3.0681,-2.55204 7.7073,-6.46818 10.3092,-8.70256 2.602,-2.23437 5.2678,-4.0625 5.924,-4.0625 0.6562,0 2.5243,1.41702 4.1514,3.14895 1.6271,1.73194 5.6105,4.85086 8.852,6.93095 10.5817,6.79027 12.5706,17.6283 4.4836,24.43301 -3.0896,2.59976 -4.781,3.12542 -8.4663,2.6311 -4.4868,-0.60178 -4.601,-0.51662 -4.4361,3.30664 0.1434,3.32467 -0.3082,3.97084 -2.9557,4.22854 -1.7187,0.1673 -4.1131,-0.28462 -5.3208,-1.00424 z m -6.7594,-61.88397 c -1.0747,-2.80053 0.7337,-4.06677 6.4552,-4.51995 l 5,-0.39603 0.625,-9.00388 c 0.6492,-9.35198 2.1985,-12.48397 5.541,-11.20133 1.5624,0.59957 1.959,2.86644 1.959,11.19809 0,9.30322 -0.3166,10.74375 -2.8931,13.16423 -3.6459,3.42518 -15.4578,3.96234 -16.6871,0.75887 z"
         id="path4677"
         inkscape:connector-curvature="0" />
      <path
         style="fill:#5c5c5c"
         d="m 1477.2963,1229.0565 c -0.7938,-0.5051 135.6994,-0.9183 303.3181,-0.9183 167.6187,0 304.1119,0.4132 303.3181,0.9183 -0.7937,0.5051 -137.2868,0.9184 -303.3181,0.9184 -166.0312,0 -302.5244,-0.4133 -303.3181,-0.9184 z m -8.394,-9.3558 c -1.0472,-3.9076 -0.8116,-849.81017 0.2375,-852.45339 0.4673,-1.17748 0.8496,190.77564 0.8496,426.56249 0,235.7869 -0.075,428.7034 -0.1667,428.7034 -0.092,0 -0.5059,-1.2656 -0.9204,-2.8125 z m 622.3371,-425.93752 c 0,-235.7612 0.3823,-427.69335 0.8496,-426.51587 0.4673,1.17748 0.8497,193.10962 0.8497,426.51587 0,233.40622 -0.3824,425.33842 -0.8497,426.51592 -0.4673,1.1774 -0.8496,-190.7547 -0.8496,-426.51592 z m -583.2497,391.08292 c -2.4749,-1.4353 -5.428,-4.1811 -6.5625,-6.1017 -1.9049,-3.2247 -2.0628,-32.6906 -2.0628,-384.98122 0,-359.24204 0.126,-381.70253 2.1602,-385.14619 1.1881,-2.0113 4.4594,-4.76997 7.2697,-6.13036 5.0422,-2.44091 8.6186,-2.47345 271.8201,-2.47345 263.2016,0 266.7779,0.0326 271.8202,2.47345 2.8101,1.36039 6.0815,4.11906 7.2696,6.13036 2.0342,3.44366 2.1602,25.90415 2.1602,385.14619 0,353.19322 -0.1539,381.74982 -2.0749,385.00182 -1.1412,1.9319 -4.1709,4.6906 -6.7327,6.1304 l -4.6578,2.6178 -267.9548,-0.029 -267.9548,-0.029 -4.4997,-2.6097 z m 545.2987,-5.9725 2.951,-2.3895 0.3433,-379.79796 c 0.1888,-208.88887 0.034,-381.07789 -0.3443,-382.64226 -0.3782,-1.56436 -1.7983,-3.95498 -3.1558,-5.3125 -2.4424,-2.44237 -5.2942,-2.4682 -272.4682,-2.4682 -267.174,0 -270.0258,0.0258 -272.4682,2.4682 -1.3575,1.35752 -2.7776,3.74814 -3.1558,5.3125 -0.3782,1.56437 -0.5331,173.75339 -0.3443,382.64226 l 0.3433,379.79796 2.951,2.3895 c 2.8851,2.3363 8.9698,2.3896 272.674,2.3896 263.7043,0 269.7889,-0.053 272.674,-2.3896 z m -61.424,-58.0729 c 0,-9.584 0.2771,-10.8398 2.7781,-12.5916 3.1529,-2.2084 12.9012,-2.6306 14.1483,-0.6128 1.2264,1.9844 -0.1459,2.803 -6.0121,3.5859 l -5.2893,0.706 -0.625,9.3632 c -0.509,7.6258 -1.0309,9.4404 -2.8125,9.7792 -1.9447,0.3697 -2.1875,-0.7659 -2.1875,-10.2299 z m 0.1362,-38.0335 c -14.4847,-12.2157 -15.5228,-13.5761 -14.751,-19.33 1.2465,-9.2935 8.4431,-12.9735 17.6443,-9.0225 2.0364,0.8744 2.2498,0.6644 1.3935,-1.372 -2.0829,-4.954 -1.4782,-7.4045 1.827,-7.4045 2.843,0 3.0919,0.4231 2.7584,4.6875 -0.3452,4.4143 1.1527,6.2106 2.8666,3.4375 1.1808,-1.9107 8.4797,-1.4875 11.5602,0.6702 3.6903,2.5847 5.9019,10.1738 4.2346,14.5303 -0.7001,1.8291 -3.3572,4.9229 -5.9047,6.875 -2.5476,1.9522 -6.7269,5.3776 -9.2875,7.612 -2.5606,2.2344 -5.1499,4.0361 -5.7541,4.004 -0.6042,-0.032 -3.5684,-2.1416 -6.5873,-4.6875 z M 1753.6121,877.00718 c -0.3706,-0.96581 -0.4936,-3.63769 -0.2733,-5.9375 l 0.4006,-4.1815 14.49,-0.35046 c 13.9686,-0.33785 14.6086,-0.47423 17.7852,-3.78986 l 3.2951,-3.43942 0.3399,-24.96012 0.3398,-24.96014 3.5885,-0.4101 c 1.9737,-0.22556 4.9269,-0.0743 6.5625,0.33631 l 2.974,0.74641 0,27.74079 0,27.74078 -7.1029,6.61041 -7.103,6.6104 -17.3113,0 c -13.7133,0 -17.4513,-0.36496 -17.9851,-1.756 z m -18.8874,-90.4315 c -2.6799,-3.26563 -9.5856,-12.125 -15.346,-19.6875 -5.7603,-7.5625 -10.969,-14.08693 -11.5747,-14.49871 -0.6057,-0.41179 -2.4081,-0.49889 -4.0053,-0.19355 -4.566,0.87283 -8.1843,-1.72999 -8.1843,-5.88744 0,-8.47673 9.1238,-10.28274 13.1003,-2.59311 1.6687,3.2269 2.562,3.50646 17.6209,5.51466 8.7248,1.1635 16.1707,1.80796 16.5465,1.43214 0.3758,-0.37582 1.6986,-6.36974 2.9396,-13.31983 l 2.2563,-12.63654 -3.1068,-3.69221 c -3.8545,-4.58082 -3.8578,-5.36305 -0.039,-9.18222 3.8308,-3.83083 5.0305,-3.83308 8.847,-0.0166 2.3086,2.30853 2.8803,3.90828 2.348,6.56971 -0.6369,3.18468 0.4929,4.61324 11.9215,15.07339 6.9438,6.35541 13.1236,11.55529 13.7328,11.55529 0.6093,0 6.6427,-5.09453 13.4076,-11.32118 11.1552,-10.26758 12.2999,-11.73645 12.2999,-15.78341 0,-3.38462 0.8128,-5.07374 3.3659,-6.99446 3.1914,-2.4009 3.5318,-2.4236 6.5625,-0.43778 3.9493,2.58768 4.2318,7.64873 0.6404,11.47167 -2.5173,2.67955 -2.5248,2.90905 -0.4879,15.08056 1.1376,6.79777 2.4897,12.81451 3.0047,13.37051 0.5149,0.55601 7.2225,0.13414 14.9058,-0.9375 7.6832,-1.07162 14.4983,-1.94841 15.1445,-1.94841 0.6462,0 2.0269,-1.64764 3.0683,-3.66141 2.4164,-4.6729 6.1434,-5.8855 10.107,-3.28844 2.0673,1.35457 3.0638,3.16797 3.0638,5.57561 0,4.47581 -1.8999,6.07854 -7.8162,6.5936 -4.4075,0.3837 -5.4573,1.45366 -19.4089,19.78064 -10.8883,14.30312 -15.3908,19.31435 -17.1996,19.14332 -1.3477,-0.12742 -7.2316,-1.70167 -13.0753,-3.49833 -19.6344,-6.0366 -44.001,-5.29049 -62.9953,1.92895 -3.5089,1.33363 -6.468,2.42508 -6.5758,2.42543 -0.1079,3.4e-4 -2.3887,-2.67125 -5.0686,-5.93687 z m -175.739,-244.85789 c -0.4955,-0.49546 -0.5504,-2.7692 -0.122,-5.05272 0.7487,-3.99058 -0.8553,-5.76419 -2.6243,-2.90189 -1.1809,1.91066 -8.4797,1.4875 -11.5602,-0.67023 -3.6903,-2.58473 -5.9019,-10.17375 -4.2345,-14.53033 0.7,-1.82906 3.3571,-4.92281 5.9046,-6.875 2.5476,-1.95219 6.7269,-5.37757 9.2875,-7.61194 2.5606,-2.23438 5.0544,-4.0625 5.5419,-4.0625 1.0815,0 10.5061,7.67719 17.2821,14.07795 4.6454,4.38821 4.9311,5.05734 4.2684,9.99805 -1.2465,9.29346 -8.4431,12.97345 -17.6443,9.02246 -2.0364,-0.87441 -2.2497,-0.66436 -1.3935,1.37203 1.8906,4.49664 1.4244,7.38641 -1.2534,7.76973 -1.4033,0.20088 -2.9569,-0.0401 -3.4523,-0.53561 z m -6.288,-61.28794 c -1.8028,-1.80281 -0.6575,-2.91667 2.9989,-2.91667 7.1322,0 8.6678,-1.76124 8.6678,-9.94175 0,-8.48789 0.8128,-11.30825 3.2587,-11.30825 1.3493,0 1.7413,2.34843 1.7413,10.43126 0,12.48953 -1.4561,14.56874 -10.2026,14.56874 -3.0969,0 -6.0057,-0.375 -6.4641,-0.83333 z m -74.8492,-121.89131 c 2.799,-1.11081 602.7329,-1.11081 605.5318,0 1.1775,0.4673 -135.0672,0.84964 -302.7659,0.84964 -167.6987,0 -303.9433,-0.38234 -302.7659,-0.84964 z"
         id="path4675"
         inkscape:connector-curvature="0" />
      <path
         style="fill:#2d2d2d"
         d="m 1630.3019,1229.0757 c 82.6719,-0.1774 217.9531,-0.1774 300.625,0 82.6719,0.1775 15.0313,0.3227 -150.3125,0.3227 -165.3437,0 -232.9844,-0.1452 -150.3125,-0.3227 z M 1468.7321,793.76318 c 0,-233.40625 0.1439,-328.89063 0.3198,-212.1875 0.1758,116.70312 0.1758,307.67187 0,424.37502 -0.1759,116.7031 -0.3198,21.2187 -0.3198,-212.18752 z m 623.75,0 c 0,-233.40625 0.1439,-328.89063 0.3198,-212.1875 0.1758,116.70312 0.1758,307.67187 0,424.37502 -0.1759,116.7031 -0.3198,21.2187 -0.3198,-212.18752 z m -583.9093,390.10242 c -2.1541,-1.3135 -4.826,-3.6866 -5.9375,-5.2735 -1.8505,-2.6419 -2.0209,-35.1003 -2.0209,-384.93848 l 0,-382.05329 2.6104,-3.31855 c 5.9351,-7.5453 -14.8813,-7.0186 277.3896,-7.0186 292.2708,0 271.4545,-0.5267 277.3896,7.0186 l 2.6104,3.31855 0,382.16285 0,382.16282 -2.6104,3.3186 c -5.9353,7.5455 14.9066,7.019 -277.64,7.0139 -261.4915,0 -267.9679,-0.062 -271.7912,-2.3929 z m 542.5253,-2.5487 c 1.7306,-0.658 4.0173,-2.88 5.0814,-4.9379 1.734,-3.3532 1.9349,-43.0732 1.9349,-382.61582 0,-339.5426 -0.2009,-379.26257 -1.9349,-382.61578 -1.0641,-2.05789 -3.3508,-4.27996 -5.0814,-4.93792 -4.2799,-1.62722 -536.6875,-1.62722 -540.9675,0 -1.7305,0.65796 -4.0172,2.88003 -5.0813,4.93792 -1.734,3.35321 -1.9349,43.07318 -1.9349,382.61578 0,340.01182 0.199,379.25902 1.9405,382.62652 1.0672,2.0639 3.1766,4.2503 4.6875,4.8587 3.8361,1.5449 537.295,1.6124 541.3557,0.069 z m -57.9837,-61.2597 c 0,-8.5639 0.3381,-10.137 2.4178,-11.25 3.1423,-1.6817 12.9917,-1.718 11.9572,-0.044 -0.4249,0.6875 -2.6883,1.25 -5.0298,1.25 -5.4454,0 -6.8452,2.5393 -6.8452,12.4178 0,4.2215 -0.554,7.5822 -1.25,7.5822 -0.7287,0 -1.25,-4.152 -1.25,-9.956 z m -0.625,-38.2286 c -15.6049,-13.6147 -14.7744,-12.5416 -14.0257,-18.1237 1.267,-9.4462 7.1676,-12.2776 16.4058,-7.8722 4.039,1.9261 4.5589,1.9261 7.4984,0 1.7372,-1.1382 5.1341,-2.0695 7.5487,-2.0695 5.4507,0 8.766,4.384 8.766,11.5921 0,3.9157 -0.7722,5.5859 -3.8017,8.2233 -3.4159,2.9738 -15.1979,11.6424 -16.7665,12.3359 -0.3437,0.152 -2.875,-1.6867 -5.625,-4.0859 z m 4.618,-30.8224 c -2.294,-2.294 -1.7741,-4.743 1.007,-4.743 2.5813,0 3.1995,1.9631 1.4739,4.6805 -0.7658,1.2058 -1.3235,1.2199 -2.4809,0.062 z m -242.743,-178.49302 0,-5 14.0625,-0.006 c 12.9606,-0.006 14.3564,-0.24113 17.8125,-3.00424 l 3.75,-2.99804 0.3846,-25.81411 0.3846,-25.8141 5.2404,0.38085 5.2404,0.38085 0.3359,27.64063 0.336,27.64061 -6.7853,5.79689 -6.7853,5.79687 -16.9882,0 -16.9881,0 0,-5 z m -23.3274,-92.1436 c -4.7012,-6.09209 -11.6356,-15.13325 -15.4097,-20.09146 -6.2074,-8.15478 -7.2809,-9.01677 -11.25,-9.03408 -7.0965,-0.031 -10.0623,-3.81938 -6.7227,-8.58736 2.819,-4.02473 7.2791,-3.37874 10.139,1.4685 2.4169,4.09636 2.4875,4.11999 18.5399,6.20861 9.7194,1.26463 16.5666,1.6437 17.255,0.9553 0.6277,-0.62772 2.098,-6.80399 3.2673,-13.72505 l 2.126,-12.58372 -2.9337,-3.97643 c -3.5665,-4.83407 -3.5919,-5.33248 -0.4337,-8.49071 3.128,-3.12797 4.3677,-3.1323 7.474,-0.026 1.7801,1.78011 2.2738,3.47471 1.7603,6.04224 -0.6515,3.2572 0.439,4.62161 12.5091,15.65103 7.2726,6.64552 13.8223,12.08277 14.5549,12.08277 0.7327,0 5.6622,-4.00892 10.9544,-8.90871 15.5776,-14.42236 16.5317,-15.60682 15.7441,-19.54505 -1.0018,-5.00896 3.241,-8.77264 7.6333,-6.77137 3.8788,1.7673 4.2036,7.03543 0.666,10.80109 -2.3858,2.5395 -2.3982,2.95853 -0.4484,15.08056 1.103,6.85767 2.6292,13.13821 3.3914,13.95678 1.0706,1.1497 4.7985,1.05904 16.3859,-0.39848 12.5892,-1.58354 15.3515,-2.32497 17.1871,-4.6133 1.2029,-1.49958 2.7719,-3.42965 3.4867,-4.28902 1.8769,-2.2563 4.5897,-1.92404 7.4228,0.90915 4.2385,4.23842 0.053,10.47082 -6.1925,9.22166 -3.1805,-0.63609 -4.4505,0.68751 -18.65,19.43706 -8.3804,11.06575 -15.4822,20.11959 -15.7818,20.11959 -0.2996,0 -4.6346,-1.36629 -9.6335,-3.03619 -22.8966,-7.64878 -48.6665,-6.78971 -72.4162,2.41409 -1.5596,0.6044 -4.2077,-1.95562 -10.625,-10.2715 z M 1559.3644,540.11542 c 0,-0.63128 0.3469,-2.05188 0.771,-3.15691 0.5967,-1.55508 1.1617,-1.68484 2.5,-0.57418 2.5421,2.10975 2.1045,4.87885 -0.771,4.87885 -1.375,0 -2.5,-0.5165 -2.5,-1.14776 z m -15.8803,-9.6914 c -1.2033,-1.83655 -2.1879,-5.55037 -2.1879,-8.25293 0,-5.35681 1.4601,-7.0238 14.2204,-16.23534 l 6.514,-4.70242 5.7139,4.70242 c 13.4583,11.07591 14.5014,12.43726 13.7607,17.95936 -1.257,9.37173 -7.1845,12.19111 -16.3959,7.79852 -4.039,-1.92607 -4.5589,-1.92607 -7.4984,0 -5.0279,3.29441 -11.5185,2.71109 -14.1268,-1.26961 z m 10.2553,-51.66084 c 0.4249,-0.6875 2.5956,-1.25 4.8238,-1.25 5.9065,0 7.0512,-1.88375 7.0512,-11.60417 0,-6.32513 0.4139,-8.46752 1.5625,-8.08829 2.4791,0.81852 2.7448,15.53073 0.3465,19.19094 -1.6452,2.511 -2.9954,3.00152 -8.2616,3.00152 -3.8783,0 -5.9984,-0.47987 -5.5224,-1.25 z m 76.5625,-120.93745 c 82.6719,-0.17745 217.9531,-0.17745 300.625,0 82.6719,0.17744 15.0313,0.32262 -150.3125,0.32262 -165.3437,0 -232.9844,-0.14518 -150.3125,-0.32262 z"
         id="path4673"
         inkscape:connector-curvature="0" />
      <path
         style="fill:#171717"
         d="m 1630.9269,1229.0757 c 82.3281,-0.1774 217.0469,-0.1774 299.375,0 82.3281,0.1775 14.9688,0.3227 -149.6875,0.3227 -164.6562,0 -232.0156,-0.1452 -149.6875,-0.3227 z M 1468.7321,793.76318 c 0,-233.40625 0.1439,-328.89063 0.3198,-212.1875 0.1758,116.70312 0.1758,307.67187 0,424.37502 -0.1759,116.7031 -0.3198,21.2187 -0.3198,-212.18752 z m 623.75,0 c 0,-233.40625 0.1439,-328.89063 0.3198,-212.1875 0.1758,116.70312 0.1758,307.67187 0,424.37502 -0.1759,116.7031 -0.3198,21.2187 -0.3198,-212.18752 z M 1507.8852,1182.866 c -1.8447,-1.1444 -4.0947,-3.4646 -5,-5.156 -2.4567,-4.5905 -2.4423,-763.33011 0.015,-767.92094 0.9132,-1.70642 3.25,-4.04158 5.1928,-5.18923 3.2697,-1.93146 23.5383,-2.08665 272.5217,-2.08665 248.9834,0 269.252,0.15519 272.5217,2.08665 1.9428,1.14765 4.2796,3.48281 5.1929,5.18923 2.4698,4.61499 2.4698,763.33324 0,767.94824 -0.9133,1.7064 -3.2501,4.0416 -5.1929,5.1892 -3.2702,1.9318 -23.5148,2.0842 -272.7146,2.0534 -248.888,-0.031 -269.435,-0.1901 -272.5363,-2.1139 z m 547.161,-3.421 3.0682,-3.0682 0,-382.61362 0,-382.61364 -3.0682,-3.06818 -3.0682,-3.06818 -271.3636,0 -271.3636,0 -3.0682,3.06818 -3.0682,3.06818 0,382.61364 0,382.61362 3.0682,3.0682 3.0682,3.0682 271.3636,0 271.3636,0 3.0682,-3.0682 z m -61.9318,-59.3609 c 0,-7.5127 0.3679,-8.9368 2.7371,-10.5963 1.5054,-1.0544 3.0476,-1.6066 3.4271,-1.2271 0.3795,0.3795 -0.2897,1.2382 -1.4871,1.9083 -1.7438,0.9759 -2.1771,2.9476 -2.1771,9.9063 0,4.9586 -0.5366,8.6879 -1.25,8.6879 -0.7133,0 -1.25,-3.7264 -1.25,-8.6791 z m 0.4462,-38.5451 c -2.1608,-1.8704 -6.2389,-5.2607 -9.0625,-7.5339 -4.4629,-3.593 -5.1337,-4.7846 -5.1337,-9.1193 0,-3.6274 0.8362,-5.8224 3.0682,-8.0544 3.7758,-3.7759 6.0105,-3.8415 11.6715,-0.3428 l 4.4097,2.7253 4.7354,-2.7253 c 6.0573,-3.4862 8.0253,-3.429 11.797,0.3428 4.6572,4.6572 4.2169,11.0973 -1.1022,16.1193 -5.9361,5.6046 -14.2319,12.0689 -15.433,12.0258 -0.5619,-0.02 -2.7895,-1.567 -4.9504,-3.4375 z m 3.3038,-32.7758 c 0,-0.6875 0.5625,-1.25 1.25,-1.25 0.6875,0 1.25,0.5625 1.25,1.25 0,0.6875 -0.5625,1.25 -1.25,1.25 -0.6875,0 -1.25,-0.5625 -1.25,-1.25 z m -242.5,-176.25002 0,-3.75 13.7065,0 c 13.5487,0 13.7574,-0.0446 18.125,-3.87949 l 4.4185,-3.87949 0,-24.87051 0,-24.87051 5,0 5,0 0,27.39376 0,27.39378 -5.801,5.10622 -5.801,5.10624 -17.324,0 -17.324,0 0,-3.75 z m -19.6584,-88.51539 c -2.5941,-3.30846 -9.4978,-12.34971 -15.3416,-20.09166 -10.2656,-13.60015 -10.7621,-14.05474 -14.6783,-13.43969 -7.6105,1.19525 -10.9898,-6.90741 -3.9583,-9.49129 2.5383,-0.93276 4.729,0.43418 6.5621,4.09453 1.7627,3.51967 4.4879,4.29686 22.1302,6.31127 8.6771,0.99077 14.1938,1.13272 14.942,0.38449 0.6524,-0.65239 2.1547,-7.20719 3.3385,-14.5662 l 2.1522,-13.38005 -2.8573,-3.04149 c -3.1854,-3.39066 -3.1173,-6.67175 0.1814,-8.74915 3.1352,-1.97438 6.5148,0.52709 6.7601,5.00363 0.1088,1.9833 0.2494,4.21985 0.3125,4.9701 0.063,0.75026 6.0728,6.78927 13.3547,13.42005 10.913,9.93725 13.6357,11.84406 15.4926,10.85029 1.239,-0.66313 7.5155,-6.04838 13.9477,-11.96723 10.3797,-9.55135 11.7652,-11.33237 12.3199,-15.83741 0.7242,-5.88128 3.7579,-8.59924 7.1875,-6.43943 3.2964,2.07589 3.3674,5.35779 0.1893,8.74074 -2.8081,2.98913 -2.8257,3.20026 -1.2171,14.5662 0.8978,6.3432 2.1152,12.80314 2.7054,14.3554 1.2342,3.24626 4.045,3.49094 18.0099,1.56775 16.4137,-2.26044 16.7478,-2.37369 18.8184,-6.37765 1.526,-2.95102 2.6534,-3.68565 5.1895,-3.38145 1.782,0.21375 3.8563,1.37301 4.6096,2.57614 2.1601,3.44985 -0.5702,6.46501 -6.5085,7.1875 -4.9572,0.60311 -5.6477,1.29662 -19.7172,19.80327 -12.3493,16.24407 -14.9864,19.07067 -17.2359,18.47488 -1.4608,-0.38688 -7.9996,-2.16834 -14.5309,-3.9588 -10.7736,-2.95346 -13.4401,-3.20401 -28.75,-2.7014 -13.8118,0.45341 -18.6903,1.14812 -26.875,3.82706 -5.5,1.80019 -10.4088,3.28025 -10.9084,3.28903 -0.4997,0.009 -3.0309,-2.69097 -5.625,-5.99943 z M 1560.6144,538.76318 c 0,-0.6875 0.5625,-1.25 1.25,-1.25 0.6875,0 1.25,0.5625 1.25,1.25 0,0.6875 -0.5625,1.25 -1.25,1.25 -0.6875,0 -1.25,-0.5625 -1.25,-1.25 z m -15.6818,-8.06819 c -3.2809,-3.28089 -4.0506,-9.01047 -1.7804,-13.25251 1.0631,-1.9864 6.7001,-6.739 16.8386,-14.19686 1.5078,-1.10918 3.8653,0.46902 16.3713,10.95955 5.4738,4.59163 5.9835,11.6904 1.1841,16.48982 -3.7717,3.77174 -5.7397,3.82893 -11.7969,0.34281 l -4.7355,-2.72537 -4.4097,2.72537 c -5.661,3.49868 -7.8957,3.43304 -11.6715,-0.34281 z m 19.7959,-54.14356 c 1.2695,-1.40276 2.1667,-5.17476 2.4529,-10.3125 l 0.4513,-8.10075 0.2409,8.8125 c 0.1501,5.49233 -0.3243,9.37763 -1.2592,10.3125 -2.3851,2.38514 -4.1021,1.73714 -1.8859,-0.71175 z m 66.1984,-118.7257 c 82.3281,-0.17747 217.0469,-0.17747 299.375,0 82.3281,0.17746 14.9688,0.32267 -149.6875,0.32267 -164.6562,0 -232.0156,-0.14521 -149.6875,-0.32267 z"
         id="path4671"
         inkscape:connector-curvature="0" />
      <path
         style="fill:#010101"
         d="m 1646.5519,1184.0757 c 73.7344,-0.1781 194.3906,-0.1781 268.125,0 73.7344,0.1781 13.4063,0.3239 -134.0625,0.3239 -147.4687,0 -207.7969,-0.1458 -134.0625,-0.3239 z m 349.1195,-102.1189 c -0.8245,-0.9935 -4.1786,-3.5257 -7.4534,-5.6272 -8.8627,-5.6871 -11.0393,-11.9507 -6.2629,-18.0228 3.1299,-3.9791 7.6414,-4.2757 12.0682,-0.7936 1.748,1.375 3.8703,2.5 4.7161,2.5 0.8458,0 2.9681,-1.125 4.7161,-2.5 6.2326,-4.9026 12.2343,-2.341 14.0027,5.9766 0.7817,3.6768 0.3541,4.5832 -4.1282,8.75 -7.0937,6.5946 -13.476,11.5234 -14.9216,11.5234 -0.6808,0 -1.9125,-0.8129 -2.737,-1.8064 z m -240.057,-209.44362 0,-3.75 14.2455,0 14.2455,0 3.8795,-4.4185 3.8795,-4.41849 0,-24.33151 0,-24.3315 4.375,0 4.375,0 0,26.70395 0,26.70395 -6.1964,5.79605 -6.1965,5.79605 -16.3035,0 -16.3036,0 0,-3.75 z m -17.8997,-86.16364 c -5.7379,-6.28008 -27.2852,-35.31811 -26.6665,-35.93686 0.3462,-0.34613 7.7996,0.33625 16.5631,1.51638 14.672,1.97576 16.051,1.98541 17.4137,0.12187 0.8139,-1.11312 2.4207,-8.07385 3.5706,-15.46827 2.0638,-13.27187 2.0581,-13.47105 -0.4453,-15.51978 -2.964,-2.42572 -3.3705,-7.96191 -0.6609,-9.00168 3.7572,-1.44177 5.625,0.54517 5.625,5.98387 0,5.10222 0.4113,5.63706 13.3556,17.36626 7.3456,6.65605 14.2372,12.10191 15.3148,12.10191 1.0776,0 7.8645,-5.42883 15.0819,-12.06407 12.3163,-11.32276 13.1253,-12.36413 13.1652,-16.94685 0.048,-5.45516 2.3172,-7.73664 5.8277,-5.85788 3.0066,1.6091 2.8475,4.70183 -0.421,8.18095 l -2.6758,2.84828 2.217,13.77963 c 1.2193,7.5788 2.9804,14.41328 3.9135,15.1877 1.2679,1.05222 5.8785,0.81912 18.2441,-0.92235 15.0515,-2.11972 16.681,-2.59995 18.0242,-5.31177 0.8122,-1.63975 2.2004,-3.42863 3.0849,-3.97528 2.5477,-1.57453 6.3212,1.13868 5.8812,4.22872 -0.3164,2.22272 -1.3397,2.79752 -5.5258,3.10375 -4.9548,0.36245 -5.5105,0.87112 -15.625,14.30187 -5.7681,7.65934 -12.5808,16.59393 -15.1392,19.85465 l -4.6517,5.92859 -7.2233,-2.55843 c -21.4565,-7.59967 -45.2834,-7.79642 -66.8936,-0.55238 l -8.4203,2.8226 -2.9341,-3.21137 z m -39.1202,-38.13835 c -1.1441,-2.98142 0.032,-6.26701 2.4068,-6.72437 2.8405,-0.54704 5.8631,1.92523 5.8631,4.79569 0,3.62919 -6.9917,5.25978 -8.2699,1.92868 z M 1545.3223,530.32568 c -1.0613,-1.20313 -2.3221,-4.03324 -2.8017,-6.28914 -0.7817,-3.67679 -0.3541,-4.58314 4.1282,-8.75 9.6503,-8.97127 14.1288,-12.04175 15.7749,-10.81524 0.8613,0.64179 4.6666,3.30448 8.4563,5.91712 9.8352,6.78046 12.0436,12.60197 7.1437,18.83118 -3.1299,3.97903 -7.6414,4.27569 -12.0682,0.79358 -1.748,-1.375 -3.8703,-2.5 -4.7161,-2.5 -0.8458,0 -2.9681,1.125 -4.7161,2.5 -3.919,3.08273 -8.6412,3.21448 -11.201,0.3125 z m 101.2296,-127.49994 c 73.7344,-0.1781 194.3906,-0.1781 268.125,0 73.7344,0.1781 13.4063,0.32382 -134.0625,0.32382 -147.4687,0 -207.7969,-0.14572 -134.0625,-0.32382 z"
         id="path4669"
         inkscape:connector-curvature="0" />
    </g>
  </g>
</svg>
