<?xml version="1.0" encoding="UTF-8" standalone="no"?>
<!-- Created with Inkscape (http://www.inkscape.org/) -->

<svg
   xmlns:dc="http://purl.org/dc/elements/1.1/"
   xmlns:cc="http://creativecommons.org/ns#"
   xmlns:rdf="http://www.w3.org/1999/02/22-rdf-syntax-ns#"
   xmlns:svg="http://www.w3.org/2000/svg"
   xmlns="http://www.w3.org/2000/svg"
   xmlns:sodipodi="http://sodipodi.sourceforge.net/DTD/sodipodi-0.dtd"
   xmlns:inkscape="http://www.inkscape.org/namespaces/inkscape"
   width="176.45316mm"
   height="246.30455mm"
   viewBox="0 0 625.22772 872.73266"
   id="svg2"
   version="1.1"
   inkscape:version="0.91 r13725"
   sodipodi:docname="K.svg">
  <defs
     id="defs4">
    <pattern
       y="0"
       x="0"
       height="6"
       width="6"
       patternUnits="userSpaceOnUse"
       id="EMFhbasepattern" />
    <pattern
       y="0"
       x="0"
       height="6"
       width="6"
       patternUnits="userSpaceOnUse"
       id="EMFhbasepattern-7" />
  </defs>
  <sodipodi:namedview
     id="base"
     pagecolor="#ffffff"
     bordercolor="#666666"
     borderopacity="1.0"
     inkscape:pageopacity="0.0"
     inkscape:pageshadow="2"
     inkscape:zoom="0.35"
     inkscape:cx="261.17236"
     inkscape:cy="196.89389"
     inkscape:document-units="px"
     inkscape:current-layer="layer1"
     showgrid="false"
     fit-margin-top="0"
     fit-margin-left="0"
     fit-margin-right="0"
     fit-margin-bottom="0"
     inkscape:window-width="784"
     inkscape:window-height="822"
     inkscape:window-x="800"
     inkscape:window-y="0"
     inkscape:window-maximized="0" />
  <metadata
     id="metadata7">
    <rdf:RDF>
      <cc:Work
         rdf:about="">
        <dc:format>image/svg+xml</dc:format>
        <dc:type
           rdf:resource="http://purl.org/dc/dcmitype/StillImage" />
        <dc:title></dc:title>
      </cc:Work>
    </rdf:RDF>
  </metadata>
  <g
     inkscape:label="Calque 1"
     inkscape:groupmode="layer"
     id="layer1"
     transform="translate(227.60093,143.47647)">
    <g
       transform="translate(-787.75876,-581.69083)"
       id="g4649">
      <path
         style="fill:#fdfdfd"
         d="m 560.27179,874.57538 0,-436.25 312.5,0 312.50001,0 0,436.25 0,436.25002 -312.50001,0 -312.5,0 0,-436.25002 z"
         id="path4665"
         inkscape:connector-curvature="0" />
      <path
         style="fill:#e6e6e6"
         d="m 566.39702,1309.2671 c -1.89593,-0.7539 -3.84873,-2.9487 -4.6875,-5.2682 -2.06679,-5.7156 -2.07005,-853.12237 -0.003,-858.83785 0.96852,-2.67839 2.72286,-4.43273 5.40125,-5.40125 5.69847,-2.06059 605.63023,-2.06059 611.32863,0 2.6784,0.96852 4.4328,2.72286 5.4013,5.40125 2.0638,5.70731 2.0638,853.12135 0,858.82865 -0.9685,2.6784 -2.7229,4.4327 -5.4013,5.4013 -5.3415,1.9315 -607.17664,1.8097 -612.03907,-0.1239 z m 611.47088,-5.8456 3.6539,-3.6538 0,-425.19232 0,-425.19231 -3.6539,-3.65384 -3.6538,-3.65385 -301.44231,0 -301.44231,0 -3.65384,3.65385 -3.65385,3.65384 0,425.19231 0,425.19232 3.65385,3.6538 3.65384,3.6539 301.44231,0 301.44231,0 3.6538,-3.6539 z m -576.96832,-34.5607 c -2.06097,-1.0772 -4.79043,-2.9026 -6.06548,-4.0565 -6.1617,-5.5763 -5.81231,17.881 -5.81231,-390.22892 0,-336.43552 0.22078,-381.8011 1.87369,-384.99746 1.03052,-1.99282 3.93986,-5.19926 6.46519,-7.12542 l 4.59151,-3.50212 270.81961,0 270.81961,0 4.5915,3.50212 c 2.5253,1.92616 5.4347,5.1326 6.4652,7.12542 1.6529,3.19636 1.8737,48.56194 1.8737,384.99746 0,336.43552 -0.2208,381.80112 -1.8737,384.99742 -1.0305,1.9929 -3.9398,5.1993 -6.4651,7.1255 l -4.5914,3.5021 -269.47243,0.3095 c -242.60164,0.2787 -269.84604,0.1142 -273.21959,-1.6491 z m 543.12222,-11.7854 c 2.489,-2.4891 2.5,-4.1667 2.5,-382.50002 0,-378.33333 -0.011,-380.01097 -2.5,-382.5 -2.4845,-2.4845 -4.1667,-2.5 -271.25001,-2.5 -267.08333,0 -268.7655,0.0155 -271.25,2.5 -2.48904,2.48903 -2.5,4.16667 -2.5,382.5 0,378.33332 0.011,380.01092 2.5,382.50002 2.4845,2.4845 4.16667,2.5 271.25,2.5 267.08331,0 268.76551,-0.015 271.25001,-2.5 z m -66.25,-44.7099 c 0,-1.2154 1.4062,-4.2793 3.125,-6.8086 1.7187,-2.5294 3.125,-4.9586 3.125,-5.3984 0,-0.4397 -1.7599,-3.2501 -3.911,-6.2453 -4.5352,-6.3152 -4.1247,-9.3378 1.2681,-9.3378 2.8039,0 4.7511,1.2708 8.1398,5.3125 l 4.4542,5.3125 0.024,-3.9095 c 0.03,-4.8602 2.7061,-7.2547 6.9238,-6.1961 l 3.1819,0.7986 -0.3531,14.0285 -0.3532,14.0285 -4.375,0 c -4.0285,0 -4.4245,-0.3397 -5,-4.2888 l -0.625,-4.2889 -3.5011,4.6014 c -2.8425,3.7356 -4.3122,4.6013 -7.8125,4.6013 -3.2894,0 -4.3114,-0.5239 -4.3114,-2.2099 z m 6.1165,-45.6316 c -3.1671,-2.9059 -8.0658,-7.1239 -10.8859,-9.3734 -5.9033,-4.7085 -7.5639,-10.0902 -5.2639,-17.0591 1.8678,-5.6595 6.716,-9.476 12.0376,-9.476 3.2062,0 3.9999,-0.4361 3.4416,-1.8909 -1.1181,-2.9137 1.9301,-5.6091 6.3432,-5.6091 5.0256,0 8.8869,2.6854 7.8282,5.4442 -0.6513,1.6973 0.086,2.0558 4.2287,2.0558 6.087,0 10.2761,3.6548 12.4303,10.8448 2.0933,6.987 -0.6177,12.8961 -8.3455,18.1905 -3.2832,2.2493 -7.9033,5.9178 -10.2669,8.1522 -2.3636,2.2344 -4.633,4.0494 -5.0432,4.0335 -0.4101,-0.016 -3.337,-2.4066 -6.5042,-5.3125 z M 843.48608,973.86109 c -1.68953,-1.68952 -1.96429,-6.72511 -1.96429,-36 0,-24.80555 0.40679,-34.4425 1.5,-35.53571 0.825,-0.825 4.77643,-1.5 8.78094,-1.5 6.66545,0 7.38399,0.27105 8.5,3.20637 0.67048,1.7635 1.21906,8.23225 1.21906,14.375 l 0,11.16863 3.67769,0 c 3.2381,0 4.96001,-1.72439 14.40625,-14.42701 l 10.72859,-14.42703 9.64267,0.36453 c 7.51589,0.28411 9.72409,0.79125 10.01173,2.29929 0.20297,1.06412 -5.00849,9.08503 -11.58103,17.82423 l -11.95007,15.88948 12.59173,16.44651 c 14.87649,19.43071 15.33972,21.45683 5.03925,22.04135 -3.74451,0.21249 -8.06116,0.0719 -9.59256,-0.31249 -1.64414,-0.41265 -7.04637,-6.32855 -13.19181,-14.44612 -9.91174,-13.0925 -10.62528,-13.7474 -14.98116,-13.75001 l -4.57372,-0.003 -0.42628,13.17248 c -0.3238,10.00578 -0.87703,13.45697 -2.30128,14.35585 -3.07827,1.94282 -13.34085,1.45225 -15.53571,-0.74262 z m -18.10429,-83.37137 c -1.28061,-3.36829 0.28347,-14.57674 2.53786,-18.1866 2.52196,-4.0383 5.9734,-4.96439 24.76923,-6.64604 19.97855,-1.78748 51.11772,-0.05 57.40882,3.20328 4.11654,2.12874 6.35381,6.62711 7.30957,14.69695 1.21376,10.24828 3.50934,9.76807 -46.69448,9.76807 l -44.25287,0 -1.07813,-2.83566 z m 8.93719,-28.72684 c -0.69241,-0.85938 -4.55375,-10.76884 -8.58075,-22.02103 -5.67818,-15.86586 -7.91854,-20.68538 -9.97998,-21.46915 -4.21416,-1.60221 -7.98646,-7.32501 -7.98646,-12.1159 0,-6.19911 6.74219,-12.83142 13.04398,-12.83142 8.55571,0 14.24219,6.88054 12.83798,15.53369 -0.57911,3.56862 0.006,5.05426 3.6872,9.35435 2.4066,2.81157 4.8226,5.11196 5.36889,5.11196 0.54627,0 1.99846,-4.79008 3.22707,-10.6446 2.21022,-10.53209 2.20695,-10.67413 -0.30943,-13.4375 -3.49743,-3.8407 -5.35656,-7.71399 -5.35101,-11.14823 0.007,-4.54721 4.26787,-10.38962 9.3274,-12.79052 3.87746,-1.83997 5.22197,-1.9494 8.29787,-0.67533 8.73779,3.61932 12.36577,13.46053 7.80719,21.1776 -1.9697,3.33444 -1.90348,3.95003 1.46635,13.63037 1.94106,5.57601 3.85372,10.12926 4.25036,10.11832 0.39664,-0.0113 2.18105,-4.72892 3.96537,-10.4844 2.80523,-9.04844 3.02266,-10.86411 1.6068,-13.41761 -4.18811,-7.55323 -0.32951,-17.51443 8.14403,-21.02428 3.0759,-1.27407 4.42041,-1.16464 8.29787,0.67533 9.49642,4.50634 11.97389,15.69687 5.07042,22.90256 l -3.21215,3.35275 1.83547,10.43968 c 1.00951,5.74181 2.07984,10.68402 2.3785,10.9827 0.29868,0.29866 2.54564,-1.61133 4.99327,-4.24442 4.1462,-4.46036 4.39907,-5.19088 3.70158,-10.69311 -0.70097,-5.52959 -0.46801,-6.18631 3.65818,-10.3125 8.98411,-8.98411 22.15681,-3.33245 22.15681,9.50625 0,3.14346 -1.19711,5.16346 -5.40749,9.12458 -4.77518,4.4925 -6.24151,7.35287 -12.54022,24.46236 -3.92301,10.65625 -7.60199,20.13035 -8.17551,21.05356 -0.855,1.37629 -4.50553,1.45218 -20.27228,0.42141 -11.62749,-0.76014 -24.17114,-0.83002 -31.7295,-0.17675 -17.21427,1.48784 -20.12764,1.43914 -21.57781,-0.36072 z M 648.4326,624.13114 c -1.41858,-1.0373 -2.01112,-2.49137 -1.52814,-3.75 0.6513,-1.69727 -0.0861,-2.05576 -4.22872,-2.05576 -6.08695,0 -10.27606,-3.65481 -12.43024,-10.84483 -2.09335,-6.98697 0.61765,-12.8961 8.34544,-18.19046 3.2832,-2.24934 7.9033,-5.91784 10.2669,-8.15221 2.3636,-2.23438 4.5747,-4.0625 4.91357,-4.0625 0.33886,0 3.27012,2.39062 6.5139,5.3125 3.24378,2.92187 8.20081,7.15292 11.01561,9.40234 5.89283,4.70914 7.55211,10.09644 5.25421,17.05914 -1.8678,5.6595 -6.71605,9.47602 -12.03768,9.47602 -3.20622,0 -3.99987,0.43606 -3.44158,1.89091 1.83254,4.77555 -7.51002,7.66838 -12.64327,3.91485 z m -6.37129,-61.20277 c -0.34761,-0.90585 -0.47058,-7.51522 -0.27327,-14.6875 0.35113,-12.76336 0.42367,-13.04965 3.41372,-13.4717 3.59431,-0.50734 6.32003,2.58338 6.32003,7.16638 0,2.88653 0.30277,2.72064 3.85814,-2.11392 3.2237,-4.38355 4.55979,-5.24625 8.125,-5.24625 3.5362,0 4.26686,0.46141 4.26686,2.69451 0,1.48198 -1.40625,4.5382 -3.125,6.7916 -1.71875,2.2534 -3.125,4.46453 -3.125,4.91364 0,0.44911 1.75993,3.26722 3.91096,6.26247 4.5352,6.31515 4.12473,9.33778 -1.26806,9.33778 -2.80392,0 -4.75107,-1.27083 -8.13977,-5.3125 -3.97335,-4.739 -4.45684,-5.00001 -4.47867,-2.41782 -0.0393,4.64455 -2.3276,7.73032 -5.73267,7.73032 -1.71614,0 -3.40466,-0.74115 -3.75227,-1.64701 z"
         id="path4663"
         inkscape:connector-curvature="0" />
      <path
         style="fill:#d8d8d8"
         d="m 566.65938,1309.081 c -6.71212,-3.7202 -6.29564,24.7837 -6.3433,-434.13431 -0.0341,-328.08824 0.3003,-427.25997 1.44907,-429.78124 3.33324,-7.31567 -18.2831,-6.84007 310.88575,-6.84007 231.8704,0 303.2686,0.34869 305.7808,1.49336 7.3554,3.35134 6.8401,-29.40324 6.8401,434.75664 0,464.15992 0.5153,431.40532 -6.8401,434.75662 -5.0745,2.3121 -607.59391,2.0649 -611.77232,-0.251 z m 604.23742,-0.7556 c -0.4249,-0.6875 0.4112,-1.25 1.858,-1.25 3.3942,0 8.767,-5.3729 8.767,-8.767 0,-1.4468 0.5625,-2.2829 1.25,-1.858 0.8324,0.5144 1.25,-140.4283 1.25,-421.87502 0,-281.44673 -0.4176,-422.38945 -1.25,-421.875 -0.6875,0.4249 -1.25,-0.41122 -1.25,-1.85805 0,-3.39411 -5.3728,-8.76695 -8.767,-8.76695 -1.4468,0 -2.2829,-0.5625 -1.858,-1.25 0.5142,-0.832 -99.1783,-1.25 -298.12501,-1.25 -198.94672,0 -298.6392,0.418 -298.125,1.25 0.4249,0.6875 -0.41122,1.25 -1.85805,1.25 -3.39411,0 -8.76695,5.37284 -8.76695,8.76695 0,1.44683 -0.5625,2.28295 -1.25,1.85805 -0.83239,-0.51445 -1.25,140.42827 -1.25,421.875 0,281.44672 0.41761,422.38942 1.25,421.87502 0.6875,-0.4249 1.25,0.4112 1.25,1.858 0,3.3941 5.37284,8.767 8.76695,8.767 1.44683,0 2.28295,0.5625 1.85805,1.25 -0.5142,0.832 99.17828,1.25 298.125,1.25 198.94671,0 298.63921,-0.418 298.12501,-1.25 z m -571.99975,-41.4171 c -2.47486,-1.4353 -5.42798,-4.1811 -6.5625,-6.1017 -1.90492,-3.2247 -2.06276,-32.7789 -2.06276,-386.23122 0,-354.35788 0.15386,-382.99974 2.07491,-386.25182 1.1412,-1.9319 4.17091,-4.69056 6.73269,-6.13036 l 4.65779,-2.61782 269.03461,0 269.03461,0 4.6578,2.61782 c 2.5618,1.4398 5.5915,4.19846 6.7327,6.13036 1.921,3.25208 2.0749,31.89394 2.0749,386.25182 0,354.35792 -0.1539,382.99972 -2.0749,386.25182 -1.1412,1.9319 -4.1709,4.6906 -6.7327,6.1304 l -4.6578,2.6178 -269.2048,-0.029 -269.20481,-0.029 -4.49974,-2.6097 z m 545.85055,-9.1343 c 2.6735,-3.6564 2.6735,-762.74096 0,-766.39721 -1.7469,-2.38893 -5.9485,-2.42641 -271.97581,-2.42641 -266.0273,0 -270.22894,0.0375 -271.97576,2.42641 -1.52312,2.08299 -1.77424,56.31862 -1.77424,383.19859 0,302.71322 0.32032,381.18392 1.5625,382.78062 0.85937,1.1047 2.6875,2.2745 4.0625,2.5997 1.375,0.3251 123.061,0.5132 270.41332,0.4179 263.65849,-0.1705 267.94149,-0.2118 269.68749,-2.5996 z m -64.8925,-44.032 c -1.6006,-1.6005 -0.8097,-4.5866 2.2917,-8.6527 1.7187,-2.2534 3.125,-4.4756 3.125,-4.9381 0,-0.4626 -1.6875,-2.9717 -3.75,-5.5758 -4.8699,-6.1488 -4.8874,-8.75 -0.059,-8.75 2.7987,0 4.6554,1.1999 7.6794,4.9629 4.5501,5.662 6.1295,5.4915 6.1295,-0.6617 0,-3.9105 0.3286,-4.3012 3.6163,-4.3012 4.5924,0 5.1337,1.5014 5.1337,14.2383 0,11.1019 -1.5951,15.1053 -5.7076,14.3247 -1.7856,-0.3389 -2.5188,-1.6811 -2.8053,-5.1359 -0.2134,-2.5724 -0.8224,-4.6771 -1.3534,-4.6771 -0.5309,0 -2.7734,2.25 -4.9834,5 -3.7089,4.6152 -7.274,6.2096 -9.317,4.1666 z m 4.1667,-47.9701 c -17.2831,-15.3351 -16.25,-14.0422 -16.25,-20.3353 0,-4.6604 0.7244,-6.6325 3.6313,-9.8859 3.0179,-3.3776 4.4793,-4.042 8.6506,-3.9326 4.6659,0.1224 5.0042,-0.099 4.8061,-3.1431 -0.2003,-3.0793 0.1225,-3.2746 5.412,-3.2746 5.3322,0 5.6223,0.1811 5.5724,3.4797 -0.047,3.1117 0.2937,3.4037 3.2204,2.7609 7.4997,-1.6472 14.9431,5.5304 14.9525,14.4187 0.01,5.6621 -2.2675,8.8032 -11.0225,15.2283 -3.9038,2.8649 -7.8328,6.2279 -8.7312,7.4732 -2.3442,3.2496 -3.9189,2.8208 -10.2416,-2.7893 z M 843.35998,973.0552 c -0.34619,-0.90216 -0.47954,-17.10107 -0.29631,-35.99756 l 0.33312,-34.35726 8.125,0 8.125,0 0.35479,13.4375 0.35478,13.4375 4.66565,0 c 4.48029,0 5.07499,-0.54626 14.96943,-13.75 l 10.30379,-13.75 9.36327,0 c 7.59975,0 9.36329,0.36275 9.36329,1.92599 0,1.05928 -5.0625,8.6301 -11.25,16.82401 -6.1875,8.19391 -11.25,15.47997 -11.25,16.19123 0,0.71126 5.64397,8.69291 12.54216,17.73698 6.8982,9.04409 12.3357,17.06322 12.08334,17.82029 -0.27901,0.83703 -4.09222,1.3765 -9.72966,1.3765 l -9.27084,0 -10.625,-14.05935 c -10.58598,-14.00771 -10.64436,-14.05936 -15.89656,-14.0625 l -5.27157,-0.003 -0.35343,14.0625 -0.35344,14.0625 -7.82867,0.37256 c -5.58579,0.26584 -8.00903,-0.0974 -8.45814,-1.26774 z m -16.1704,-81.41896 c -1.92239,-1.40569 -2.18346,-2.7579 -1.55576,-8.0578 0.41485,-3.50276 1.63186,-8.06572 2.70447,-10.13992 3.15465,-6.10043 8.39408,-6.93497 43.1835,-6.87824 35.22874,0.0575 39.20737,0.80234 42.81056,8.0151 3.06588,6.1372 2.93998,15.76036 -0.22838,17.45602 -3.92286,2.09944 -84.00073,1.73537 -86.91439,-0.39516 z m 7.83689,-30.53437 c -0.99969,-1.18332 -5.07615,-11.29212 -9.05881,-22.46399 -3.98265,-11.17188 -7.91324,-20.3125 -8.73466,-20.3125 -2.05516,0 -7.74645,-6.26591 -8.76976,-9.65519 -1.78709,-5.91898 5.85044,-15.34481 12.43355,-15.34481 7.21664,0 13.79449,8.2852 12.41515,15.63766 -0.71518,3.81225 -0.19007,5.05852 4.48319,10.64021 2.91128,3.47722 5.49648,6.11897 5.7449,5.87056 0.24841,-0.2484 1.53546,-5.73568 2.8601,-12.19393 l 2.40846,-11.74229 -3.6434,-4.1496 c -5.43322,-6.1881 -5.1333,-12.98726 0.8206,-18.60251 2.63962,-2.48949 5.75366,-4.2101 7.61964,-4.2101 6.69521,0 14.17217,7.36143 14.16168,13.94286 -0.002,1.61268 -1.03412,4.6202 -2.29233,6.68338 -2.26509,3.71421 -2.24878,3.86785 1.65151,15.5623 2.16655,6.49609 4.2476,11.27677 4.62455,10.62376 0.37695,-0.65301 2.23716,-5.89953 4.1338,-11.65891 3.30708,-10.04236 3.3652,-10.64616 1.41779,-14.7299 -1.11685,-2.34208 -2.03064,-5.13859 -2.03064,-6.21449 0,-3.73709 3.81104,-9.95604 7.40056,-12.07642 5.45204,-3.22061 9.36734,-2.65515 14.38544,2.07752 5.77798,5.44933 6.21401,12.26832 1.16795,18.26523 l -3.29605,3.91712 1.60833,11.22075 c 0.88457,6.17141 2.04225,11.48893 2.5726,11.8167 0.53035,0.32776 3.08986,-1.84756 5.68781,-4.83407 4.25587,-4.89242 4.6914,-6.03844 4.39895,-11.57542 -0.25649,-4.85588 0.24081,-6.75164 2.36995,-9.03449 4.02162,-4.31197 8.30607,-5.56128 13.35626,-3.89457 4.15231,1.37039 9.08341,7.31887 9.09352,10.96974 0.01,3.45395 -3.90053,9.74157 -7.31078,11.75606 -2.96119,1.74923 -4.6962,5.31391 -10.84659,22.28508 -4.02684,11.11153 -8.08235,20.9636 -9.01224,21.89348 -1.22812,1.22813 -3.29945,1.4429 -7.5707,0.785 -7.59491,-1.16986 -44.86372,-1.17272 -54.78136,-0.004 -6.42589,0.75712 -7.94248,0.5569 -9.46897,-1.25 z M 648.25162,622.77281 c -0.41102,-1.07108 -0.40642,-2.83576 0.0103,-3.92148 0.61721,-1.60844 0.10341,-1.83039 -2.77411,-1.19837 -7.75212,1.70264 -15.20169,-5.33098 -15.21126,-14.36194 -0.006,-5.66208 2.26756,-8.80314 11.02248,-15.22824 3.90381,-2.86495 7.83287,-6.2279 8.73123,-7.4732 2.3318,-3.23236 3.46298,-2.9044 10.5139,3.0483 14.94702,12.61896 15.97768,13.91849 15.97768,20.14572 0,4.58372 -0.73772,6.57799 -3.63133,9.8165 -3.01785,3.37757 -4.47929,4.04194 -8.65054,3.93257 -4.6659,-0.12238 -5.0042,0.0989 -4.80616,3.14305 0.19515,2.99984 -0.23379,3.30696 -5.11091,3.65959 -3.92018,0.28343 -5.52097,-0.12854 -6.07123,-1.5625 z m -5.83911,-60.22338 c -0.4899,-0.48989 -0.89072,-6.39402 -0.89072,-13.12027 0,-10.27773 0.34397,-12.42205 2.15522,-13.43568 3.33236,-1.86488 6.59478,0.54721 6.59478,4.87588 0,4.85927 1.62894,4.68123 5.67236,-0.61997 3.99992,-5.24416 7.63292,-6.65445 10.29209,-3.99527 1.74758,1.74757 1.63432,2.33705 -1.16545,6.06597 -4.93139,6.56793 -4.94123,6.68385 -1.02626,12.08831 4.80477,6.63279 4.81403,8.91698 0.0362,8.91698 -2.80603,0 -4.65893,-1.20434 -7.72738,-5.02262 -4.33415,-5.39327 -5.65428,-5.25752 -6.29784,0.64762 -0.32158,2.95082 -1.08464,3.82883 -3.58046,4.11989 -1.74448,0.20344 -3.5726,-0.0309 -4.0625,-0.52084 z"
         id="path4661"
         inkscape:connector-curvature="0" />
      <path
         style="fill:#a6a6a6"
         d="m 567.475,1308.8686 c -7.80201,-4.2333 -7.20321,31.8691 -7.20321,-434.29322 0,-377.55168 0.21218,-425.53447 1.89616,-428.79092 4.16641,-8.05695 -20.72942,-7.45908 310.60384,-7.45908 331.33331,0 306.43741,-0.59787 310.60381,7.45908 1.684,3.25645 1.8962,51.23924 1.8962,428.79092 0,377.55172 -0.2122,425.53452 -1.8962,428.79092 -4.1672,8.0585 20.7715,7.4641 -310.85423,7.409 -264.35142,-0.044 -302.04743,-0.2794 -305.04637,-1.9067 z m 608.2226,-1.325 c 2.495,-1.1897 5.1027,-3.7975 6.2924,-6.2924 1.8633,-3.9073 2.0318,-39.2914 2.0318,-426.67582 0,-387.38446 -0.1685,-422.76852 -2.0318,-426.67583 -4.3198,-9.05876 22.9679,-8.32417 -309.21821,-8.32417 -332.18613,0 -304.89842,-0.73459 -309.21824,8.32417 -1.86327,3.90731 -2.03176,39.29137 -2.03176,426.67583 0,387.60582 0.16764,422.76672 2.03436,426.68132 4.22763,8.8654 -22.58673,8.1501 308.86073,8.2387 273.57152,0.073 299.38272,-0.093 303.28072,-1.9518 z m -575.41004,-40.8119 c -3.17139,-1.677 -6.32885,-4.6177 -7.6966,-7.168 -2.24435,-4.1848 -2.31917,-16.6052 -2.31917,-384.98832 0,-368.38312 0.0748,-380.80352 2.31917,-384.98835 1.36775,-2.55031 4.52521,-5.49092 7.6966,-7.16799 l 5.37744,-2.84366 267.10679,0 267.10681,0 5.3774,2.84366 c 3.1714,1.67707 6.3289,4.61768 7.6966,7.16799 2.2444,4.18483 2.3192,16.60523 2.3192,384.98835 0,368.38312 -0.075,380.80352 -2.3192,384.98832 -1.3677,2.5503 -4.5252,5.491 -7.6966,7.168 l -5.3774,2.8437 -267.10681,0 -267.10679,0 -5.37744,-2.8437 z m 544.93554,-8.642 2.5487,-2.7357 0,-380.62126 0,-380.62123 -2.7179,-2.89307 -2.7179,-2.89306 -269.38903,0 -269.38905,0 -2.89307,2.71789 -2.89306,2.71789 0,380.79641 0,380.79643 2.54869,2.7357 2.5487,2.7357 269.90261,0 269.90261,0 2.5487,-2.7357 z m -65.6097,-46.0683 c -0.4433,-0.7173 0.6485,-3.211 2.4262,-5.5416 4.0528,-5.3134 4.0479,-7.2517 -0.032,-12.6001 -3.3126,-4.3431 -3.308,-8.0543 0.01,-8.0543 2.0375,0 4.9523,2.6151 7.8584,7.0504 2.6917,4.1079 5.3951,3.7836 5.3951,-0.6474 0,-4.1858 2.5387,-6.7894 5.5087,-5.6497 1.7789,0.6826 2.0248,2.6057 1.7209,13.4591 -0.3521,12.5789 -0.3751,12.6626 -3.4794,12.6626 -2.7088,0 -3.1767,-0.6243 -3.513,-4.6875 -0.4759,-5.751 -1.7232,-5.8953 -5.4042,-0.625 -1.5605,2.2344 -3.427,4.4757 -4.1476,4.9808 -1.92,1.3458 -5.4155,1.1544 -6.3436,-0.3473 z m 7.0313,-45.4402 c -1.5471,-1.6468 -5.5833,-4.8812 -8.9693,-7.1875 -10.7232,-7.3039 -12.6161,-17.5119 -4.5117,-24.3312 3.114,-2.6203 4.7687,-3.1271 8.553,-2.6195 4.6057,0.6177 4.6787,0.5631 3.9711,-2.9749 -0.8655,-4.3279 1.8604,-5.9258 6.9178,-4.0549 3.3316,1.2325 3.529,1.7963 2.0023,5.7188 -0.7524,1.9332 -0.2293,2.0973 4.5949,1.4408 6.6395,-0.9035 11.6089,2.3565 13.3823,8.7791 1.7261,6.2515 0.4135,10.2504 -4.8477,14.7693 -11.2122,9.6301 -16.086,13.4542 -17.1475,13.4542 -0.6228,0 -2.3981,-1.3474 -3.9452,-2.9942 z M 844.73608,972.61109 c -1.68395,-1.68395 -1.96429,-6.55566 -1.96429,-34.13609 0,-24.20741 0.39706,-32.71481 1.60391,-34.36527 1.23662,-1.69117 3.02563,-2.10369 7.8125,-1.80141 l 6.20859,0.39206 0.625,13.75 0.625,13.75 5.19316,0 c 5.1438,0 5.29237,-0.13071 15.627,-13.75 l 10.43382,-13.75 7.8267,-0.37256 c 6.17792,-0.29409 7.98447,0.0386 8.57572,1.57938 0.48228,1.25681 -3.17831,7.17667 -10.2787,16.62258 -6.06525,8.06883 -11.01505,15.51435 -10.99955,16.5456 0.0155,1.03125 5.47739,9.00784 12.13751,17.72575 6.66014,8.71791 12.10934,16.39211 12.10934,17.05376 0,2.7874 -11.83954,3.8309 -16.31137,1.43764 -1.31837,-0.70556 -6.63449,-6.87829 -11.81363,-13.71715 -9.76143,-12.88964 -12.17679,-15 -17.16782,-15 -5.14373,0 -5.95718,2.14946 -5.95718,15.74126 0,14.01004 -0.14194,14.25874 -8.13795,14.25874 -2.30091,0 -5.06741,-0.88392 -6.14776,-1.96429 z m -17.38095,-81.36905 c -1.49539,-1.49537 -0.87652,-11.64362 0.9812,-16.08976 0.998,-2.38854 3.11579,-4.83754 4.70618,-5.44221 5.64444,-2.146 35.06596,-4.15999 48.37857,-3.31164 29.16964,1.85884 32.80182,3.50629 34.46989,15.63456 1.45243,10.5605 3.77096,10.04239 -44.93891,10.04239 -23.51998,0 -43.13861,-0.375 -43.59693,-0.83334 z m 7.54678,-31.90922 c -0.97302,-1.58534 -4.76422,-11.25809 -8.42487,-21.49499 -5.8979,-16.49334 -7.11306,-18.88239 -10.67246,-20.98249 -7.4872,-4.41755 -8.57533,-13.10106 -2.41378,-19.26261 4.44536,-4.44536 10.97294,-4.11771 15.88815,0.79751 3.46544,3.46544 3.74387,4.33294 3.03963,9.47091 -0.73814,5.38523 -0.497,5.97835 5.03596,12.38717 3.19618,3.70211 6.18574,6.49965 6.64349,6.21675 0.45773,-0.2829 1.87128,-6.17726 3.14122,-13.09858 l 2.30896,-12.58422 -3.6223,-3.78087 c -5.28393,-5.51523 -5.10971,-12.60287 0.43151,-17.55395 11.03904,-9.86337 25.85582,3.40163 18.22627,16.31742 -1.9447,3.29212 -1.85406,4.00262 1.97809,15.50536 2.20888,6.63034 4.41267,12.05515 4.89727,12.05515 0.48461,0 2.72335,-5.6204 4.97498,-12.48976 3.79892,-11.58999 3.95315,-12.69065 2.14081,-15.27814 -1.07418,-1.5336 -1.95305,-4.86994 -1.95305,-7.41407 0,-6.28514 5.85335,-12.31803 11.95144,-12.31803 5.71657,0 11.64277,5.34742 12.59906,11.36857 0.60623,3.81712 0.10975,5.18141 -3.2981,9.06273 l -4.01178,4.56915 2.19566,12.49977 c 1.20759,6.87488 2.62844,12.49978 3.15742,12.49978 0.52899,0 3.2745,-2.67188 6.10116,-5.9375 4.47173,-5.16618 5.0415,-6.48576 4.386,-10.15788 -2.1615,-12.10858 11.09509,-19.92097 19.51529,-11.50077 6.15925,6.15924 4.33145,14.46645 -4.28415,19.47115 -1.2481,0.72501 -5.4419,10.17485 -9.9854,22.5 l -7.83353,21.25 -13.05903,-0.625 c -18.50154,-0.88548 -31.22211,-0.77778 -45.1719,0.38244 -11.81627,0.98277 -12.15618,0.93686 -13.88202,-1.875 z M 649.95103,623.25033 c -1.69228,-1.0084 -1.90725,-1.84752 -0.9375,-3.65951 1.91743,-3.58276 1.66074,-3.77238 -4.05424,-2.9948 -6.49945,0.88429 -11.49298,-2.4309 -13.2508,-8.79717 -1.80593,-6.54053 -0.3836,-10.39706 5.70123,-15.45841 3.06809,-2.55204 7.70723,-6.46819 10.30921,-8.70256 5.65791,-4.85857 6.30391,-4.92808 9.92999,-1.06829 1.5471,1.64681 5.58329,4.88119 8.9693,7.1875 3.38602,2.3063 7.02526,6.02005 8.08719,8.25277 4.32894,9.10152 -2.6645,19.96731 -12.04183,18.70953 -4.48675,-0.60178 -4.601,-0.51662 -4.43607,3.30664 0.14341,3.32468 -0.30825,3.97084 -2.95572,4.22854 -1.71875,0.1673 -4.11309,-0.28461 -5.32076,-1.00424 z m -6.34591,-60.75828 c -0.45833,-0.45834 -0.83333,-6.38224 -0.83333,-13.16423 0,-10.28957 0.34032,-12.4615 2.05576,-13.11977 2.50959,-0.96302 5.44424,2.66537 5.44424,6.73124 0,4.16307 1.74635,3.57241 6.25,-2.11391 6.4724,-8.17208 12.80905,-6.06284 6.99414,2.32809 -4.03293,5.81951 -4.03134,6.80664 0.0195,12.11756 3.31263,4.34309 3.30797,8.05435 -0.0101,8.05435 -2.03747,0 -4.95228,-2.61511 -7.85839,-7.05039 -2.38404,-3.63851 -5.39513,-3.84357 -5.39513,-0.36743 0,5.28855 -4.00599,9.24516 -6.66667,6.58449 z"
         id="path4659"
         inkscape:connector-curvature="0" />
      <path
         style="fill:#5c5c5c"
         d="m 569.45365,1309.8687 c -0.79372,-0.5051 135.69944,-0.9183 303.31814,-0.9183 167.61871,0 304.11191,0.4132 303.31811,0.9183 -0.7937,0.5051 -137.2869,0.9184 -303.31811,0.9184 -166.03125,0 -302.52441,-0.4133 -303.31814,-0.9184 z m -8.394,-9.3558 c -1.04719,-3.9076 -0.81151,-849.81017 0.2375,-852.45339 0.4673,-1.17748 0.84964,190.77564 0.84964,426.56249 0,235.7869 -0.075,428.7034 -0.16671,428.7034 -0.0917,0 -0.50589,-1.2656 -0.92043,-2.8125 z M 1183.3968,874.57538 c 0,-235.7612 0.3823,-427.69335 0.8496,-426.51587 0.4673,1.17748 0.8497,193.10962 0.8497,426.51587 0,233.40622 -0.3824,425.33842 -0.8497,426.51592 -0.4673,1.1774 -0.8496,-190.7547 -0.8496,-426.51592 z M 600.14705,1265.6583 c -2.47486,-1.4353 -5.42798,-4.1811 -6.5625,-6.1017 -1.90488,-3.2247 -2.06276,-32.6906 -2.06276,-384.98122 0,-359.24204 0.12598,-381.70253 2.16019,-385.14619 1.18811,-2.0113 4.45946,-4.76997 7.26966,-6.13036 5.04223,-2.44091 8.6186,-2.47345 271.82015,-2.47345 263.20151,0 266.77791,0.0326 271.82011,2.47345 2.8102,1.36039 6.0816,4.11906 7.2697,6.13036 2.0342,3.44366 2.1602,25.90415 2.1602,385.14619 0,353.19322 -0.1539,381.74982 -2.0749,385.00182 -1.1412,1.9319 -4.1709,4.6906 -6.7327,6.1304 l -4.6578,2.6178 -267.9548,-0.029 -267.95481,-0.029 -4.49974,-2.6097 z m 545.29875,-5.9725 2.951,-2.3895 0.3433,-379.79796 c 0.1888,-208.88887 0.034,-381.07789 -0.3443,-382.64226 -0.3782,-1.56436 -1.7983,-3.95498 -3.1558,-5.3125 -2.4424,-2.44237 -5.2942,-2.4682 -272.46821,-2.4682 -267.17396,0 -270.02583,0.0258 -272.46821,2.4682 -1.35751,1.35752 -2.77762,3.74814 -3.1558,5.3125 -0.37818,1.56437 -0.53311,173.75339 -0.34429,382.64226 l 0.3433,379.79796 2.95098,2.3895 c 2.88513,2.3363 8.96977,2.3896 272.67402,2.3896 263.70421,0 269.78891,-0.053 272.67401,-2.3896 z m -63.924,-49.3168 c 0,-0.9386 1.125,-3.1367 2.5,-4.8847 3.2795,-4.1692 3.1537,-6.4687 -0.625,-11.4228 -6.2136,-8.1465 -1.9007,-9.9824 4.561,-1.9416 4.8346,6.0159 7.6962,5.9963 8.564,-0.059 0.3963,-2.7651 1.3111,-4.3608 2.5,-4.3608 1.5152,0 1.9439,2.3583 2.234,12.2881 0.3281,11.2316 0.1669,12.2514 -1.875,11.8608 -1.4601,-0.2792 -2.4505,-1.9035 -2.859,-4.6887 -0.8745,-5.9623 -2.8164,-5.9987 -7.4567,-0.1399 -3.9809,5.0263 -7.5433,6.6076 -7.5433,3.3483 z m 2.6362,-46.7896 c -14.4847,-12.2157 -15.5228,-13.5761 -14.751,-19.33 1.2465,-9.2935 8.4431,-12.9735 17.6443,-9.0225 2.0364,0.8744 2.2497,0.6644 1.3935,-1.372 -2.0829,-4.954 -1.4782,-7.4045 1.827,-7.4045 2.8429,0 3.0919,0.4231 2.7584,4.6875 -0.3452,4.4143 1.1527,6.2106 2.8666,3.4375 1.1808,-1.9107 8.4797,-1.4875 11.5602,0.6702 3.6903,2.5847 5.9019,10.1738 4.2345,14.5303 -0.7,1.8291 -3.3571,4.9229 -5.9046,6.875 -2.5476,1.9522 -6.727,5.3776 -9.2875,7.612 -2.5606,2.2344 -5.1499,4.0361 -5.7541,4.004 -0.6042,-0.032 -3.5685,-2.1416 -6.5873,-4.6875 z M 845.40378,971.60942 c -1.00545,-1.21149 -1.32605,-11.40908 -1.09055,-34.6875 l 0.33356,-32.97154 6.52264,-0.37644 c 7.74128,-0.44677 7.68823,-0.55481 8.16511,16.62644 l 0.31225,11.25 5.11294,0.37462 5.11292,0.37462 10.84402,-14.43712 10.844,-14.43712 7.48056,0 c 4.85215,0 7.48056,0.51074 7.48056,1.45357 0,0.79947 -4.80821,7.85497 -10.6849,15.67888 -5.8767,7.82391 -10.95499,14.92911 -11.28509,15.78934 -0.3301,0.86022 5.10801,9.03732 12.0847,18.17132 8.25799,10.8115 12.25867,17.03351 11.46358,17.8286 -0.67173,0.67173 -4.25476,1.04852 -7.9623,0.8373 l -6.74099,-0.38401 -10.625,-14.05935 -10.625,-14.05935 -6.5625,-0.004 -6.5625,-0.003 0,11.95717 c 0,14.64526 -0.9452,16.79283 -7.39093,16.79283 -2.64162,0 -5.44381,-0.77219 -6.22708,-1.71596 z m -17.7531,-82.33034 c -0.66946,-8.72615 1.93206,-17.44214 5.62956,-18.86101 1.018,-0.39064 9.94747,-1.39819 19.84327,-2.239 20.80718,-1.76789 51.76545,0.0389 56.76202,3.3128 3.04927,1.99795 5.75815,10.08434 5.1476,15.36628 l -0.38634,3.34223 -43.4375,0.3287 c -34.27765,0.25937 -43.46304,-0.004 -43.55861,-1.25 z m 8.3307,-29.56682 c -0.37838,-0.61223 -4.04794,-10.30873 -8.1546,-21.54779 -4.10665,-11.23905 -8.18424,-20.67384 -9.0613,-20.96619 -3.66374,-1.22125 -8.49369,-7.53685 -8.49369,-11.10629 0,-8.98388 11.84212,-13.53812 18.33065,-7.0496 2.83059,2.83059 3.12762,3.91918 2.47284,9.0625 -0.72525,5.6968 -0.57314,6.03625 5.98027,13.34549 3.69846,4.125 7.09802,7.13398 7.55456,6.68661 0.45657,-0.44735 2.03618,-6.70636 3.51025,-13.90888 l 2.68016,-13.09552 -4.01437,-4.5721 c -4.68013,-5.33037 -5.1772,-10.16966 -1.52188,-14.81664 5.04506,-6.41375 13.39715,-6.39292 18.28691,0.0456 2.29168,3.01756 2.1145,9.77272 -0.35522,13.54197 -1.94065,2.9618 -1.93096,3.6305 0.14868,10.26853 3.81469,12.17612 7.06363,20.22541 8.16361,20.22541 0.58126,0 3.1139,-6.17336 5.62808,-13.71859 4.26566,-12.80158 4.43969,-13.90638 2.60335,-16.52813 -3.18898,-4.55289 -2.52949,-11.26674 1.46961,-14.96118 4.77531,-4.41151 7.39544,-5.07197 11.5658,-2.91539 8.21397,4.2476 9.71015,11.76533 3.70314,18.60693 l -3.79355,4.32062 2.06652,12.28537 c 2.79139,16.59452 2.92397,16.7569 8.63903,10.58003 7.52723,-8.1355 8.33404,-9.69423 7.45179,-14.39701 -1.3745,-7.32671 3.2233,-13.1634 10.42408,-13.2329 5.55428,-0.0536 10.26954,4.66166 10.21594,10.21594 -0.0443,4.58827 -1.5163,6.90114 -6.36349,9.99846 -2.5911,1.6557 -4.7917,6.23723 -10.49875,21.85781 -3.97127,10.86968 -7.89138,20.49765 -8.71136,21.3955 -1.2008,1.31485 -4.87328,1.37928 -18.87625,0.33112 -11.43016,-0.85559 -21.88128,-0.89397 -30.5104,-0.112 -16.66188,1.50977 -19.6918,1.53342 -20.54041,0.16035 z M 651.14307,622.52999 c -0.49547,-0.49546 -0.55035,-2.7692 -0.12195,-5.05272 0.74864,-3.99058 -0.85533,-5.76419 -2.62433,-2.90189 -1.18085,1.91066 -8.47966,1.4875 -11.56024,-0.67023 -3.69023,-2.58473 -5.90186,-10.17375 -4.23451,-14.53033 0.70002,-1.82907 3.35712,-4.92282 5.90467,-6.875 2.54755,-1.95219 6.72693,-5.37757 9.2875,-7.61194 2.56057,-2.23438 5.0544,-4.0625 5.54184,-4.0625 1.08159,0 10.50612,7.67719 17.28211,14.07795 4.64546,4.38821 4.93113,5.05734 4.26844,9.99805 -1.24652,9.29346 -8.44309,12.97345 -17.64432,9.02246 -2.03639,-0.87441 -2.24973,-0.66436 -1.39352,1.37203 1.89063,4.49663 1.42445,7.38641 -1.25341,7.76973 -1.40329,0.20088 -2.95682,-0.0401 -3.45228,-0.53561 z m -6.28795,-61.28794 c -0.45833,-0.45834 -0.83333,-6.08334 -0.83333,-12.5 0,-9.1388 0.37729,-11.66667 1.74126,-11.66667 2.0154,0 3.25874,2.66211 3.25874,6.97723 0,4.51386 3.07196,3.71991 7.6503,-1.97723 2.20996,-2.75 5.04897,-5 6.30891,-5 3.05128,0 2.89101,1.20074 -0.83421,6.25 -1.71875,2.32964 -3.125,5.0077 -3.125,5.95125 0,0.94356 1.40625,3.55924 3.125,5.81264 6.18981,8.11526 1.90979,9.99372 -4.5253,1.98611 -4.61221,-5.73928 -8.5997,-6.65608 -8.5997,-1.97723 0,5.48065 -1.95184,8.35872 -4.16667,6.1439 z m -74.8492,-121.89131 c 2.79892,-1.11081 602.73278,-1.11081 605.53178,0 1.1774,0.4673 -135.0672,0.84964 -302.76591,0.84964 -167.6987,0 -303.94335,-0.38234 -302.76587,-0.84964 z"
         id="path4657"
         inkscape:connector-curvature="0" />
      <path
         style="fill:#2d2d2d"
         d="m 722.45929,1309.8879 c 82.67187,-0.1774 217.95312,-0.1774 300.62501,0 82.6719,0.1775 15.0312,0.3227 -150.31251,0.3227 -165.34375,0 -232.98438,-0.1452 -150.3125,-0.3227 z M 560.88954,874.57538 c 0,-233.40625 0.14388,-328.89063 0.31973,-212.1875 0.17585,116.70312 0.17585,307.67187 0,424.37502 -0.17585,116.7031 -0.31973,21.2187 -0.31973,-212.18752 z m 623.74996,0 c 0,-233.40625 0.1439,-328.89063 0.3198,-212.1875 0.1758,116.70312 0.1758,307.67187 0,424.37502 -0.1759,116.7031 -0.3198,21.2187 -0.3198,-212.18752 z M 600.73018,1264.6778 c -2.15413,-1.3135 -4.82601,-3.6866 -5.9375,-5.2735 -1.85049,-2.6419 -2.02089,-35.1003 -2.02089,-384.93848 l 0,-382.05329 2.61037,-3.31855 c 5.93514,-7.5453 -14.88122,-7.0186 277.38963,-7.0186 292.27081,0 271.45451,-0.5267 277.38961,7.0186 l 2.6104,3.31855 0,382.16285 0,382.16282 -2.6104,3.3186 c -5.9353,7.5455 14.9066,7.019 -277.64003,7.0139 -261.49144,0 -267.96791,-0.062 -271.79119,-2.3929 z m 542.52532,-2.5487 c 1.7306,-0.658 4.0172,-2.88 5.0814,-4.9379 1.734,-3.3532 1.9349,-43.0732 1.9349,-382.61582 0,-339.5426 -0.2009,-379.26257 -1.9349,-382.61578 -1.0642,-2.05789 -3.3508,-4.27996 -5.0814,-4.93792 -4.2799,-1.62722 -536.68755,-1.62722 -540.96746,0 -1.73058,0.65796 -4.0172,2.88003 -5.08138,4.93792 -1.73401,3.35321 -1.93487,43.07318 -1.93487,382.61578 0,340.01182 0.19904,379.25902 1.94045,382.62652 1.06725,2.0639 3.17662,4.2503 4.6875,4.8587 3.83616,1.5449 537.29506,1.6124 541.35576,0.069 z m -60.4837,-52.3851 c 0,-0.5948 1.125,-2.5117 2.5,-4.2597 3.3097,-4.2076 3.1546,-6.4674 -0.7993,-11.6513 -4.8509,-6.3598 -2.2676,-7.0282 3.0896,-0.7994 6.4052,7.4472 10.2097,6.8191 10.2097,-1.6855 0,-1.6625 0.5625,-3.0227 1.25,-3.0227 0.7407,0 1.25,4.5833 1.25,11.25 0,6.6666 -0.5093,11.25 -1.25,11.25 -0.6875,0 -1.25,-1.6186 -1.25,-3.597 0,-1.9783 -0.9181,-4.3589 -2.0403,-5.2902 -1.784,-1.4806 -2.6126,-1.0288 -6.5966,3.5969 -4.4303,5.144 -6.3631,6.4224 -6.3631,4.2089 z m 1.875,-47.1032 c -15.6049,-13.6147 -14.7744,-12.5416 -14.0257,-18.1237 1.267,-9.4462 7.1676,-12.2776 16.4058,-7.8722 4.039,1.9261 4.5588,1.9261 7.4984,0 1.7372,-1.1382 5.1341,-2.0695 7.5487,-2.0695 5.4507,0 8.766,4.384 8.766,11.5921 0,3.9157 -0.7722,5.5859 -3.8017,8.2233 -3.4159,2.9738 -15.1979,11.6424 -16.7665,12.3359 -0.3438,0.152 -2.875,-1.6867 -5.625,-4.0859 z m 4.618,-30.8224 c -2.294,-2.294 -1.7741,-4.743 1.007,-4.743 2.5813,0 3.1995,1.9631 1.4739,4.6805 -0.7658,1.2058 -1.3235,1.2199 -2.4809,0.062 z M 846.16394,971.30087 c -0.49069,-0.49069 -0.89215,-15.73548 -0.89215,-33.87731 l 0,-32.98516 5.9375,0.38099 5.9375,0.38099 0.35919,13.08008 c 0.38145,13.89126 0.87427,14.9922 6.72607,15.02578 5.65153,0.0324 6.88612,-1.04022 17.37715,-15.098 l 10.17395,-13.63286 6.74431,0 c 3.70938,0 6.74433,0.37286 6.74433,0.82857 0,0.45572 -4.80821,7.22997 -10.6849,15.05388 -5.8767,7.82391 -10.95499,14.92911 -11.28509,15.78934 -0.3301,0.86022 5.0187,8.92038 11.88623,17.91147 6.86752,8.99109 12.13331,16.70053 11.70175,17.13209 -0.43157,0.43155 -3.49466,0.78465 -6.80689,0.78465 l -6.02223,0 -10.83982,-14.43155 -10.83981,-14.43155 -6.99213,0.36905 -6.99211,0.36905 -0.625,13.75 -0.625,13.75 -5.04535,0.37131 c -2.77494,0.20423 -5.44681,-0.0301 -5.9375,-0.52082 z m -17.786,-83.00599 c -1.82213,-2.94826 2.3649,-15.80571 5.46579,-16.78424 4.12577,-1.30195 26.11463,-3.14224 37.67806,-3.15335 11.5303,-0.0113 32.01261,1.80179 36.67661,3.2462 2.8816,0.89241 5.82339,7.74084 5.82339,13.55674 l 0,4.41515 -42.42623,0 c -27.60946,0 -42.70261,-0.4472 -43.21762,-1.2805 z m 6.93736,-32.4695 c -0.6879,-1.71875 -4.06864,-11 -7.51275,-20.625 -3.52179,-9.8421 -7.19119,-18.04699 -8.3854,-18.75 -4.77966,-2.81369 -7.89536,-6.89815 -7.89536,-10.35029 0,-7.8068 10.77321,-12.0015 16.39217,-6.38254 2.21643,2.21643 2.51784,3.57955 1.87052,8.45932 -0.76064,5.73391 -0.66598,5.93306 6.61596,13.92032 5.33625,5.85309 7.77489,7.73104 8.78221,6.76298 0.767,-0.73712 2.61555,-7.58199 4.10788,-15.21083 l 2.71334,-13.87061 -3.99104,-3.72819 c -6.12968,-5.72597 -5.14668,-13.27056 2.22576,-17.083 4.0947,-2.11745 8.08297,-1.19356 11.44785,2.65189 3.48416,3.98177 3.72126,7.1144 0.9323,12.318 l -2.64166,4.92875 4.83486,14.1304 c 3.35454,9.80399 5.37517,14.02681 6.59959,13.79209 1.02932,-0.19731 3.69778,-6.11337 6.40336,-14.19641 4.12072,-12.31088 4.45199,-14.19496 2.96705,-16.875 -2.67801,-4.83334 -2.18865,-11.57038 1.05235,-14.48772 4.1967,-3.7776 6.94656,-4.34296 10.97962,-2.25737 7.16787,3.70665 8.18868,10.76021 2.49564,17.24423 l -3.71225,4.22802 2.45395,14.25297 c 1.34968,7.83915 2.45769,14.39361 2.46225,14.56549 0.005,0.17187 0.73612,0.3125 1.62567,0.3125 0.88956,0 4.55753,-3.51563 8.15104,-7.8125 6.22521,-7.44365 6.49574,-8.06661 5.73024,-13.19473 -0.67841,-4.54471 -0.3568,-5.85765 2.06685,-8.4375 6.01319,-6.40076 16.18449,-2.49421 16.18449,6.21605 0,3.43844 -0.96328,5.08373 -4.93995,8.4375 -4.38384,3.69717 -5.76263,6.4066 -12.24761,24.06763 l -7.30767,19.90146 -34.60524,0.0985 -34.60527,0.0985 -1.25075,-3.125 z M 651.52179,620.92762 c 0,-0.63128 0.34694,-2.05188 0.77098,-3.15691 0.59674,-1.55508 1.16173,-1.68484 2.5,-0.57418 2.54209,2.10975 2.1045,4.87885 -0.77098,4.87885 -1.375,0 -2.5,-0.5165 -2.5,-1.14776 z m -15.88027,-9.6914 c -1.20335,-1.83655 -2.18791,-5.55037 -2.18791,-8.25293 0,-5.35681 1.4601,-7.0238 14.22036,-16.23533 l 6.51402,-4.70243 5.71391,4.70243 c 13.45832,11.07589 14.5014,12.43724 13.76073,17.95935 -1.25702,9.37173 -7.18457,12.19111 -16.39592,7.79852 -4.039,-1.92608 -4.55887,-1.92608 -7.49843,0 -5.02791,3.29441 -11.51851,2.71109 -14.12676,-1.26961 z m 8.98754,-51.8813 c -1.29591,-3.37709 -0.0784,-20.17279 1.50016,-20.69453 0.92906,-0.30707 1.62896,1.28483 1.875,4.26462 0.64405,7.80034 4.43928,6.9392 11.38876,-2.58413 0.947,-1.29772 2.39444,-2.13529 3.21655,-1.86125 0.98599,0.32866 0.41708,1.95895 -1.6715,4.78985 -3.96859,5.37913 -3.95412,6.68974 0.13307,12.04833 4.90171,6.42646 2.23722,7.00036 -3.15303,0.67912 -5.48563,-6.4331 -9.27994,-6.73339 -9.92996,-0.78586 -0.49465,4.52582 -2.33925,6.8014 -3.35905,4.14385 z m 77.83023,-120.71699 c 82.67187,-0.17745 217.95312,-0.17745 300.62501,0 82.6719,0.17744 15.0312,0.32262 -150.31251,0.32262 -165.34375,0 -232.98438,-0.14518 -150.3125,-0.32262 z"
         id="path4655"
         inkscape:connector-curvature="0" />
      <path
         style="fill:#171717"
         d="m 723.08429,1309.8879 c 82.32812,-0.1774 217.04687,-0.1774 299.37501,0 82.3281,0.1775 14.9687,0.3227 -149.68751,0.3227 -164.65625,0 -232.01563,-0.1452 -149.6875,-0.3227 z M 560.88954,874.57538 c 0,-233.40625 0.14388,-328.89063 0.31973,-212.1875 0.17585,116.70312 0.17585,307.67187 0,424.37502 -0.17585,116.7031 -0.31973,21.2187 -0.31973,-212.18752 z m 623.74996,0 c 0,-233.40625 0.1439,-328.89063 0.3198,-212.1875 0.1758,116.70312 0.1758,307.67187 0,424.37502 -0.1759,116.7031 -0.3198,21.2187 -0.3198,-212.18752 z M 600.04263,1263.6782 c -1.84479,-1.1444 -4.09479,-3.4646 -5,-5.156 -2.45676,-4.5905 -2.44232,-763.33011 0.0146,-767.92094 0.91325,-1.70642 3.25004,-4.04158 5.19287,-5.18923 3.26969,-1.93146 23.53828,-2.08665 272.52168,-2.08665 248.98342,0 269.25202,0.15519 272.52172,2.08665 1.9428,1.14765 4.2796,3.48281 5.1928,5.18923 2.4699,4.61499 2.4699,763.33324 0,767.94824 -0.9132,1.7064 -3.25,4.0416 -5.1928,5.1892 -3.2702,1.9318 -23.5148,2.0842 -272.71458,2.0534 -248.88801,-0.031 -269.43502,-0.1901 -272.5363,-2.1139 z m 547.16097,-3.421 3.0682,-3.0682 0,-382.61362 0,-382.61364 -3.0682,-3.06818 -3.0682,-3.06818 -271.36361,0 -271.36364,0 -3.06818,3.06818 -3.06818,3.06818 0,382.61364 0,382.61362 3.06818,3.0682 3.06818,3.0682 271.36364,0 271.36361,0 3.0682,-3.0682 z m -60.6635,-54.8362 c 2.9685,-5.0684 2.8154,-6.0526 -2.0761,-13.3456 -1.1528,-1.7188 0.2375,-0.6714 3.0895,2.3275 3.458,3.636 5.8497,5.1977 7.1791,4.6875 1.0965,-0.4208 2.2289,-0.765 2.5164,-0.765 0.2875,0 0.5228,-1.9688 0.5228,-4.375 0,-2.4063 0.5625,-4.375 1.25,-4.375 0.7292,0 1.25,4.1666 1.25,10 0,9.7617 -1.9537,14.013 -2.7333,5.9477 -0.5858,-6.0601 -4.3064,-6.12 -9.551,-0.1537 l -4.2466,4.831 2.7992,-4.7794 z m -0.8221,-43.0698 c -2.1608,-1.8704 -6.2389,-5.2607 -9.0625,-7.5339 -4.4629,-3.593 -5.1337,-4.7846 -5.1337,-9.1193 0,-3.6274 0.8361,-5.8224 3.0682,-8.0544 3.7758,-3.7759 6.0105,-3.8415 11.6715,-0.3428 l 4.4097,2.7253 4.7354,-2.7253 c 6.0573,-3.4862 8.0253,-3.429 11.797,0.3428 4.6572,4.6572 4.2169,11.0973 -1.1022,16.1193 -5.9361,5.6046 -14.2319,12.0689 -15.433,12.0258 -0.5619,-0.02 -2.7895,-1.567 -4.9504,-3.4375 z m 3.3038,-32.7758 c 0,-0.6875 0.5625,-1.25 1.25,-1.25 0.6875,0 1.25,0.5625 1.25,1.25 0,0.6875 -0.5625,1.25 -1.25,1.25 -0.6875,0 -1.25,-0.5625 -1.25,-1.25 z m -242.20826,-191.56252 0.33325,-32.8125 4.375,0 4.375,0 0.625,13.75 0.625,13.75 6.99211,0.36905 6.99213,0.36905 10.83981,-14.43155 10.83982,-14.43155 5.60557,0 c 3.08306,0 5.60556,0.46581 5.60556,1.03514 0,0.56932 -4.78125,7.41601 -10.625,15.21486 -5.84375,7.79885 -10.625,15.08171 -10.625,16.18412 0,1.10242 4.27644,7.6151 9.5032,14.47264 5.22675,6.85753 10.6088,14.01511 11.96011,15.90574 l 2.45693,3.4375 -6.28944,0 -6.28945,0 -9.59491,-12.8125 c -5.27722,-7.04688 -10.46778,-13.51563 -11.53459,-14.375 -2.47318,-1.99226 -12.98816,-2.03619 -14.96185,-0.0625 -0.97249,0.97249 -1.5,6.02777 -1.5,14.375 l 0,12.875 -5.02075,0 -5.02076,0 0.33326,-32.8125 z m -16.95841,-49.27084 c -1.4032,-1.40319 -0.92886,-7.76832 0.90617,-12.16018 2.24934,-5.38345 3.6279,-5.6664 32.01049,-6.57042 25.04804,-0.79778 44.23952,0.76775 47.33295,3.86118 1.00421,1.00421 2.08478,4.94815 2.40124,8.7643 l 0.57538,6.93846 -41.19644,0 c -22.65805,0 -41.57147,-0.375 -42.02979,-0.83334 z m 7.41278,-30.22067 c -0.4383,-0.7092 -3.25933,-8.21529 -6.26896,-16.68022 -8.25825,-23.2273 -9.34237,-25.55307 -12.60385,-27.0391 -1.6451,-0.74956 -3.95214,-2.82957 -5.12675,-4.62226 -1.98508,-3.02962 -1.99227,-3.56014 -0.102,-7.52411 1.27285,-2.66919 3.25069,-4.57011 5.28673,-5.08113 7.21678,-1.8113 13.65265,5.10648 10.72618,11.52937 -1.7725,3.8902 -1.06212,5.19143 8.4462,15.47146 5.84797,6.3226 6.49697,6.69932 8.0771,4.68861 0.945,-1.20251 2.96398,-8.43914 4.48663,-16.08139 l 2.76842,-13.89501 -3.9394,-3.29361 c -3.38393,-2.8292 -3.88173,-3.9811 -3.53041,-8.16943 0.76564,-9.12791 9.7435,-12.21323 15.99938,-5.49833 3.23088,3.46795 3.23505,8.52153 0.01,12.62101 l -2.5242,3.209 5.172,15.08457 c 6.8197,19.89024 7.80187,19.89492 14.25682,0.0679 4.76634,-14.64026 4.83539,-15.10726 2.75424,-18.63036 -2.4951,-4.22385 -2.64669,-6.36157 -0.74683,-10.53132 1.37029,-3.00743 5.8303,-5.82165 9.22628,-5.82165 0.96056,0 3.21776,1.26563 5.01599,2.8125 4.51501,3.8839 4.59226,9.88889 0.18638,14.48764 -3.85487,4.02363 -4.00343,6.2186 -1.37888,20.37428 3.22493,17.394 3.27283,17.44246 10.01936,10.13808 8.11882,-8.79013 10.72236,-13.35997 9.49765,-16.67068 -2.62731,-7.1023 4.34046,-13.92864 11.45591,-11.22337 7.02954,2.67263 7.1507,12.94375 0.19011,16.11522 -3.71428,1.69233 -5.01511,4.29201 -12.4563,24.89348 -3.28822,9.10368 -6.6065,17.36633 -7.37396,18.36144 -1.17179,1.5194 -3.198,1.59884 -12.64537,0.49581 -10.66494,-1.24517 -43.49843,-0.61013 -50.79098,0.98237 -1.81004,0.39526 -3.6496,0.13841 -4.0879,-0.57078 z M 652.77179,619.57538 c 0,-0.6875 0.5625,-1.25 1.25,-1.25 0.6875,0 1.25,0.5625 1.25,1.25 0,0.6875 -0.5625,1.25 -1.25,1.25 -0.6875,0 -1.25,-0.5625 -1.25,-1.25 z m -15.68182,-8.06819 c -3.2809,-3.28088 -4.05061,-9.01047 -1.78034,-13.25251 1.06308,-1.9864 6.70003,-6.739 16.83854,-14.19686 1.50785,-1.10918 3.86536,0.46902 16.37133,10.95955 5.47379,4.59164 5.98353,11.6904 1.18411,16.48982 -3.77174,3.77174 -5.73971,3.82893 -11.79697,0.34281 l -4.73544,-2.72537 -4.40975,2.72537 c -5.66097,3.49868 -7.89563,3.43304 -11.67148,-0.34281 z m 8.5564,-61.93181 c 0,-5.84375 0.24674,-8.9375 0.54832,-6.875 0.30157,2.0625 1.12992,4.45312 1.84076,5.3125 0.88993,1.07588 0.88993,2.04912 0,3.125 -0.71084,0.85937 -1.53919,3.25 -1.84076,5.3125 -0.30158,2.0625 -0.54832,-1.03125 -0.54832,-6.875 z m 11.81538,4.85595 -4.58925,-5.14405 4.01214,-4.83342 c 5.0273,-6.05636 7.20161,-6.43502 2.64467,-0.46057 -3.58962,4.70624 -3.43996,5.97954 1.50087,12.76959 3.24517,4.45974 1.43556,3.27738 -3.56843,-2.33155 z m 65.62254,-115.7934 c 82.32812,-0.17747 217.04687,-0.17747 299.37501,0 82.3281,0.17746 14.9687,0.32267 -149.68751,0.32267 -164.65625,0 -232.01563,-0.14521 -149.6875,-0.32267 z"
         id="path4653"
         inkscape:connector-curvature="0" />
      <path
         style="fill:#020202"
         d="m 738.70929,1264.8879 c 73.73437,-0.1781 194.39062,-0.1781 268.12501,0 73.7344,0.1781 13.4062,0.3239 -134.06251,0.3239 -147.46875,0 -207.79688,-0.1458 -134.0625,-0.3239 z m 359.25991,-65.3125 c 0,-1.7188 0.2837,-2.4219 0.6304,-1.5625 0.3468,0.8594 0.3468,2.2656 0,3.125 -0.3467,0.8594 -0.6304,0.1562 -0.6304,-1.5625 z m -10.1404,-36.8064 c -0.8246,-0.9935 -4.1786,-3.5257 -7.4534,-5.6272 -8.8627,-5.6871 -11.0393,-11.9507 -6.2629,-18.0228 3.1299,-3.9791 7.6414,-4.2757 12.0682,-0.7936 1.748,1.375 3.8703,2.5 4.7161,2.5 0.8458,0 2.9681,-1.125 4.7161,-2.5 6.2326,-4.9026 12.2343,-2.341 14.0027,5.9766 0.7817,3.6768 0.3541,4.5832 -4.1282,8.75 -7.0937,6.5946 -13.476,11.5234 -14.9216,11.5234 -0.6808,0 -1.9125,-0.8129 -2.737,-1.8064 z M 847.35513,969.99204 c -0.45834,-0.45832 -0.83334,-15.08332 -0.83334,-32.5 l 0,-31.66666 4.375,0 4.375,0 0,11.16863 c 0,6.14274 0.54858,12.61149 1.21906,14.375 1.07653,2.83146 1.92554,3.20637 7.26109,3.20637 3.32311,0 6.91488,-0.70313 7.9817,-1.5625 1.06681,-0.85938 6.25738,-7.32813 11.53459,-14.375 9.34666,-12.481 9.7231,-12.8125 14.54924,-12.8125 2.72487,0 4.95432,0.2929 4.95432,0.65088 0,0.35798 -4.78125,7.01637 -10.625,14.79642 -5.84375,7.78005 -10.625,14.88955 -10.625,15.79887 0,0.90933 5.40369,8.73532 12.0082,17.39108 l 12.0082,15.73775 -4.0022,0.40057 c -2.2012,0.22032 -4.75642,0.11113 -5.67826,-0.2426 -0.92184,-0.35373 -6.24665,-6.7215 -11.8329,-14.15057 -10.03775,-13.34903 -10.22557,-13.51473 -16.01744,-14.1324 -12.14434,-1.29513 -12.7356,-0.44641 -12.7356,18.28125 l 0,10.46875 -3.54166,0 c -1.94793,0 -3.91668,-0.375 -4.375,-0.83334 z m -17.08334,-85.96029 c 0,-5.43666 1.77234,-10.15967 4.15566,-11.07423 1.01595,-0.38987 9.68111,-1.39519 19.25592,-2.23405 13.57126,-1.18902 21.21431,-1.19725 34.67286,-0.0374 9.49529,0.81833 18.28611,2.0348 19.53516,2.70328 2.18,1.1667 4.85885,8.17435 4.87342,12.74848 0.006,2.03929 -2.78798,2.1875 -41.24302,2.1875 l -41.25,0 0,-4.29362 z m 6.43259,-28.44328 c -0.58465,-1.58845 -4.06939,-11.25283 -7.74387,-21.47639 -5.99513,-16.68043 -7.04319,-18.71463 -10.21117,-19.81899 -9.08233,-3.16611 -7.01492,-15.96771 2.57871,-15.96771 5.6435,0 8.0957,3.71497 7.17127,10.86418 l -0.77724,6.01082 8.16381,8.69141 c 10.01404,10.66123 10.73651,10.29489 14.35215,-7.27741 3.30157,-16.04591 3.22595,-17.4045 -1.21625,-21.84669 -4.55231,-4.55231 -4.74938,-8.05657 -0.68181,-12.12412 3.71625,-3.71627 8.5534,-3.9466 11.93181,-0.56819 3.06795,3.06795 3.19997,7.8043 0.35195,12.62562 -2.10079,3.55637 -2.03715,3.97311 2.89274,18.94287 4.13796,12.5651 5.50738,15.37507 7.64608,15.68931 2.30335,0.33844 3.21849,-1.45716 7.89567,-15.49214 5.08726,-15.26552 5.2121,-16.00741 3.25195,-19.32566 -2.74484,-4.64665 -2.56807,-9.41033 0.46161,-12.44 3.5969,-3.5969 9.23957,-3.23605 12.40927,0.79358 3.58307,4.55512 3.24695,7.78536 -1.298,12.47456 l -3.88873,4.01215 2.59288,15.32025 c 2.49692,14.75325 4.01248,18.21649 7.1686,16.38111 0.8102,-0.47116 4.38813,-4.35785 7.95094,-8.63709 6.21736,-7.4676 6.44446,-8.00295 5.64801,-13.31408 -0.69423,-4.62953 -0.40118,-5.96227 1.7936,-8.15706 4.91765,-4.91765 13.89153,-1.91543 13.85429,4.63495 -0.0243,4.26045 -1.23199,6.1454 -5.64975,8.81757 -2.93522,1.77542 -4.8091,5.58971 -11.16001,22.71637 l -7.63249,20.58269 -12.45681,-0.625 c -17.50696,-0.87839 -28.07935,-0.78104 -42.1465,0.38809 -12.01751,0.99876 -12.20472,0.97227 -13.25271,-1.875 z M 637.47964,611.13788 c -1.06129,-1.20313 -2.32203,-4.03324 -2.80165,-6.28914 -0.7817,-3.67678 -0.35409,-4.58313 4.12817,-8.75 9.65033,-8.97127 14.12888,-12.04175 15.77493,-10.81524 0.86131,0.64179 4.66664,3.30448 8.45629,5.91712 9.83518,6.78046 12.04359,12.60197 7.14368,18.83118 -3.1299,3.97903 -7.64139,4.27569 -12.06818,0.79358 -1.74803,-1.375 -3.87027,-2.5 -4.71609,-2.5 -0.84582,0 -2.96806,1.125 -4.71609,2.5 -3.91905,3.08272 -8.6412,3.21447 -11.20106,0.3125 z M 738.70929,483.63794 c 73.73437,-0.1781 194.39062,-0.1781 268.12501,0 73.7344,0.1781 13.4062,0.32382 -134.06251,0.32382 -147.46875,0 -207.79688,-0.14572 -134.0625,-0.32382 z"
         id="path4651"
         inkscape:connector-curvature="0" />
    </g>
  </g>
</svg>
