<?xml version="1.0" encoding="UTF-8" standalone="no"?>
<!-- Created with Inkscape (http://www.inkscape.org/) -->

<svg
   xmlns:dc="http://purl.org/dc/elements/1.1/"
   xmlns:cc="http://creativecommons.org/ns#"
   xmlns:rdf="http://www.w3.org/1999/02/22-rdf-syntax-ns#"
   xmlns:svg="http://www.w3.org/2000/svg"
   xmlns="http://www.w3.org/2000/svg"
   xmlns:sodipodi="http://sodipodi.sourceforge.net/DTD/sodipodi-0.dtd"
   xmlns:inkscape="http://www.inkscape.org/namespaces/inkscape"
   width="176.45314mm"
   height="246.30457mm"
   viewBox="0 0 625.22767 872.73271"
   id="svg2"
   version="1.1"
   inkscape:version="0.91 r13725"
   sodipodi:docname="Q.svg">
  <defs
     id="defs4">
    <pattern
       y="0"
       x="0"
       height="6"
       width="6"
       patternUnits="userSpaceOnUse"
       id="EMFhbasepattern" />
  </defs>
  <sodipodi:namedview
     id="base"
     pagecolor="#ffffff"
     bordercolor="#666666"
     borderopacity="1.0"
     inkscape:pageopacity="0.0"
     inkscape:pageshadow="2"
     inkscape:zoom="0.35"
     inkscape:cx="162.84421"
     inkscape:cy="346.24184"
     inkscape:document-units="px"
     inkscape:current-layer="layer1"
     showgrid="false"
     fit-margin-top="0"
     fit-margin-left="0"
     fit-margin-right="0"
     fit-margin-bottom="0"
     inkscape:window-width="784"
     inkscape:window-height="822"
     inkscape:window-x="800"
     inkscape:window-y="0"
     inkscape:window-maximized="0" />
  <metadata
     id="metadata7">
    <rdf:RDF>
      <cc:Work
         rdf:about="">
        <dc:format>image/svg+xml</dc:format>
        <dc:type
           rdf:resource="http://purl.org/dc/dcmitype/StillImage" />
        <dc:title></dc:title>
      </cc:Work>
    </rdf:RDF>
  </metadata>
  <g
     inkscape:label="Calque 1"
     inkscape:groupmode="layer"
     id="layer1"
     transform="translate(129.27278,-5.8714275)">
    <g
       transform="translate(94.447734,-375.77439)"
       id="g4631">
      <path
         style="fill:#fdfdfd"
         d="m -223.60655,818.00684 0,-436.25 312.5,0 312.5,0 0,436.25 0,436.24996 -312.5,0 -312.5,0 0,-436.24996 z"
         id="path4647"
         inkscape:connector-curvature="0" />
      <path
         style="fill:#e6e6e6"
         d="m -217.48132,1252.6986 c -1.89593,-0.7539 -3.84873,-2.9487 -4.6875,-5.2683 -2.06679,-5.7156 -2.07005,-853.12231 -0.003,-858.83779 0.96852,-2.67839 2.72286,-4.43273 5.40125,-5.40125 5.69847,-2.06059 605.63019,-2.06059 611.32866,0 2.67838,0.96852 4.43273,2.72286 5.40125,5.40125 2.06378,5.70731 2.06378,853.12139 0,858.82869 -0.96852,2.6784 -2.72287,4.4327 -5.40125,5.4012 -5.34155,1.9316 -607.17667,1.8098 -612.0391,-0.1239 z m 611.47092,-5.8456 3.65385,-3.6538 0,-425.19236 0,-425.19231 -3.65385,-3.65384 -3.65384,-3.65385 -301.44231,0 -301.44231,0 -3.65384,3.65385 -3.65385,3.65384 0,425.19231 0,425.19236 3.65385,3.6538 3.65384,3.6538 301.44231,0 301.44231,0 3.65384,-3.6538 z m -576.96836,-34.5607 c -2.06097,-1.0772 -4.79043,-2.9027 -6.06548,-4.0566 -6.1617,-5.5762 -5.81231,17.8811 -5.81231,-390.22886 0,-336.43552 0.22078,-381.8011 1.87369,-384.99746 1.03052,-1.99282 3.93986,-5.19926 6.46519,-7.12542 l 4.59152,-3.50212 270.8196,0 270.8196,0 4.59151,3.50212 c 2.52534,1.92616 5.43468,5.1326 6.4652,7.12542 1.6529,3.19636 1.87369,48.56194 1.87369,384.99746 0,336.43556 -0.22079,381.80106 -1.87369,384.99746 -1.03052,1.9928 -3.93982,5.1993 -6.46512,7.1254 l -4.59143,3.5021 -269.472385,0.3096 c -242.601635,0.2786 -269.846035,0.1142 -273.219585,-1.6491 z m 543.12221,-11.7855 c 2.48904,-2.489 2.5,-4.1666 2.5,-382.49996 0,-378.33333 -0.0112,-380.01097 -2.5,-382.5 -2.4845,-2.4845 -4.16666,-2.5 -271.25,-2.5 -267.08333,0 -268.7655,0.0155 -271.25,2.5 -2.48903,2.48903 -2.5,4.16667 -2.5,382.5 0,378.33336 0.011,380.01096 2.5,382.49996 2.4845,2.4845 4.16667,2.5 271.25,2.5 267.08334,0 268.7655,-0.016 271.25,-2.5 z m -61.22536,-42.7849 c -5.06828,-2.6799 -6.26641,-6.6894 -5.98543,-20.03 0.22295,-10.5846 0.5581,-12.2855 2.54498,-12.9161 1.25852,-0.3995 3.64713,0.1641 5.30804,1.2524 1.7264,1.1312 5.66799,1.9786 9.20267,1.9786 5.42021,0 6.59773,0.4931 9.54609,3.997 3.0721,3.651 3.3216,4.7335 2.88239,12.5065 -0.63113,11.1693 -3.01199,13.7746 -13.16233,14.403 -4.40239,0.2726 -8.45016,-0.194 -10.33641,-1.1914 z m 13.50391,-13.3115 c 0.47088,-4.9257 -1.47446,-7.7076 -3.77855,-5.4036 -0.825,0.825 -2.5125,1.5 -3.75,1.5 -1.63725,0 -2.25,0.9645 -2.25,3.5417 0,4.5677 0.94734,5.4089 5.58008,4.9551 3.30797,-0.3241 3.84671,-0.9134 4.19847,-4.5932 z m -12.41201,-34.245 c -3.16715,-2.906 -8.06584,-7.124 -10.88598,-9.3734 -5.90326,-4.7086 -7.56386,-10.0902 -5.2639,-17.0591 1.8678,-5.6595 6.71605,-9.4761 12.03768,-9.4761 3.20621,0 3.99987,-0.436 3.44159,-1.8909 -1.11809,-2.9137 1.9301,-5.6091 6.34322,-5.6091 5.02556,0 8.88685,2.6854 7.82818,5.4443 -0.65131,1.6973 0.0861,2.0557 4.22872,2.0557 6.08695,0 10.27606,3.6549 12.43024,10.8449 2.09335,6.9869 -0.61764,12.8961 -8.34544,18.1904 -3.2832,2.2494 -7.9033,5.9179 -10.2669,8.1522 -2.3636,2.2344 -4.63304,4.0495 -5.0432,4.0336 -0.41016,-0.016 -3.33705,-2.4066 -6.50421,-5.3125 z m -191.8225,-190.28356 -4.12617,-4.375 -17.570695,0 -17.570712,0 -7.200725,-6.47026 c -3.960413,-3.55864 -7.614,-7.07427 -8.119101,-7.8125 -0.505099,-0.73823 -0.926975,-11.69787 -0.9375,-24.35474 l -0.01914,-23.0125 7.3,-7.3 7.3,-7.3 21.872638,0 21.872645,0 7.38986,6.71298 7.38986,6.71298 0.38784,23.10158 0.38783,23.10159 -3.28322,3.90187 -3.28321,3.90189 4.45789,5.83831 c 7.13276,9.3415 5.95033,11.7288 -5.80927,11.7288 -5.59521,0 -6.78162,-0.49724 -10.43882,-4.375 z M 88.706762,895.67243 c -0.801825,-1.28394 -1.087787,-3.29884 -0.635462,-4.47758 0.690962,-1.8006 2.221375,-2.07681 9.5751,-1.72809 l 8.75269,0.41508 -0.002,-15.24163 c -0.004,-19.07426 -0.0576,-19.13337 -17.388215,-19.13337 -10.424525,0 -12.17225,0.32266 -14.721863,2.71789 -2.732437,2.56698 -2.893062,3.60803 -2.893062,18.75 0,19.52091 0.854,21.03211 11.885587,21.03211 6.409888,0 6.784875,-0.16128 5.427725,-2.33441 z M 46.08095,836.65671 c -4.75965,-2.77223 -1.7345,-18.93196 4.282125,-22.87421 6.617825,-4.33616 53.808095,-5.73144 72.110135,-2.13207 8.33739,1.63966 11.7576,5.83528 12.43929,15.25945 0.46875,6.48046 0.18484,8.03922 -1.71765,9.43035 -2.86014,2.09138 -83.5632,2.38459 -87.1139,0.31648 z m 5.9569,-30.68405 c -1.707388,-1.70738 -2.04165,-3.64221 -1.5771,-9.12871 l 0.589488,-6.96211 -7.114825,-7.62992 C 35.12305,772.80154 32.729813,766.0025 35.1602,757.322 c 3.682,-13.1508 13.640425,-20.99135 26.431125,-20.80998 6.830662,0.0969 16.027887,3.42179 17.916088,6.47696 0.430962,0.69732 1.205025,1.26786 1.720112,1.26786 0.5151,0 -0.41435,-4.11114 -2.06545,-9.13587 -2.833362,-8.62267 -2.89265,-9.39759 -1.0553,-13.79499 3.400938,-8.1396 13.746737,-10.29303 20.409337,-4.24812 4.130558,3.74763 4.592048,8.37835 1.692698,16.98495 -1.410948,4.18834 -2.56536,7.88723 -2.56536,8.21974 0,0.33253 2.73744,-0.81565 6.08321,-2.55148 7.76233,-4.02725 19.68335,-4.5141 26.87456,-1.09756 6.18119,2.93669 11.49467,10.28608 13.20608,18.26614 2.09859,9.78535 -0.0178,15.66847 -9.4617,26.3018 -5.63766,6.34772 -5.7328,6.59618 -4.97949,13.00567 0.61173,5.20481 0.31414,7.0948 -1.46261,9.28898 -2.21205,2.73177 -2.38895,2.74373 -21.28745,1.4381 -10.481275,-0.72411 -19.741038,-1.10423 -20.577238,-0.84472 -0.8362,0.25951 -8.341012,0.82687 -16.677375,1.2608 -13.3722,0.69607 -15.412125,0.53385 -17.323587,-1.37761 z M -135.44574,567.5626 c -1.41858,-1.0373 -2.01112,-2.49137 -1.52814,-3.75 0.6513,-1.69727 -0.0861,-2.05576 -4.22872,-2.05576 -6.08695,0 -10.27606,-3.65481 -12.43024,-10.84483 -2.09335,-6.98697 0.61765,-12.8961 8.34544,-18.19046 3.2832,-2.24934 7.90331,-5.91784 10.2669,-8.15221 2.3636,-2.23438 4.57471,-4.0625 4.91357,-4.0625 0.33887,0 3.27012,2.39062 6.5139,5.3125 3.24378,2.92187 8.20081,7.15292 11.01561,9.40234 5.89283,4.70914 7.55211,10.09644 5.25421,17.05914 -1.8678,5.6595 -6.71605,9.47602 -12.03768,9.47602 -3.20622,0 -3.99987,0.43606 -3.44159,1.89091 1.83256,4.77555 -7.51001,7.66838 -12.64326,3.91485 z m 11.83919,-57.68076 c -1.71875,-0.98253 -5.82244,-1.80635 -9.11932,-1.8307 -4.66102,-0.0345 -6.67676,-0.72675 -9.0625,-3.11248 -2.68065,-2.68065 -3.06818,-4.18771 -3.06818,-11.93182 0,-7.74411 0.38753,-9.25117 3.06818,-11.93182 2.68066,-2.68065 4.18771,-3.06818 11.93182,-3.06818 7.78312,0 9.24382,0.38019 11.98236,3.11872 2.96388,2.96388 3.10478,3.75516 2.83798,15.9375 -0.32931,15.03692 -1.53512,16.84048 -8.57034,12.81878 z m -7.5,-11.85118 c 0,-0.67441 1.43677,-1.5868 3.19282,-2.02754 2.69176,-0.67559 3.13314,-1.41496 2.8125,-4.71131 -0.34655,-3.56276 -0.76882,-3.90997 -4.75532,-3.90997 -4.04827,0 -4.40491,0.31228 -4.77557,4.18149 -0.22032,2.29983 -0.0974,4.9717 0.27327,5.9375 0.76434,1.99186 3.2523,2.39717 3.2523,0.52983 z"
         id="path4645"
         inkscape:connector-curvature="0" />
      <path
         style="fill:#d7d7d7"
         d="m -217.21896,1252.5125 c -6.71212,-3.7203 -6.29564,24.7836 -6.3433,-434.13435 -0.0341,-328.08824 0.3003,-427.25997 1.44907,-429.78124 3.33324,-7.31567 -18.2831,-6.84007 310.885753,-6.84007 231.870377,0 303.268547,0.34869 305.780817,1.49336 7.35539,3.35134 6.84007,-29.40324 6.84007,434.75664 0,464.15986 0.51532,431.40526 -6.84007,434.75666 -5.07455,2.3121 -607.59393,2.0649 -611.77234,-0.251 z m 604.86241,-0.7557 c 0,-0.6875 0.94813,-1.25 2.10694,-1.25 2.8688,0 7.89306,-4.9127 7.89306,-7.7178 0,-1.2552 0.5625,-2.2822 1.25,-2.2822 0.83086,0 1.25,-141.6666 1.25,-422.49996 0,-280.83334 -0.41914,-422.5 -1.25,-422.5 -0.6875,0 -1.25,-1.08417 -1.25,-2.40927 0,-2.58071 -5.47391,-7.59073 -8.29358,-7.59073 -0.93853,0 -1.70642,-0.5625 -1.70642,-1.25 0,-0.82985 -100.41666,-1.25 -298.75,-1.25 -198.33333,0 -298.75,0.42015 -298.75,1.25 0,0.6875 -0.76789,1.25 -1.70643,1.25 -2.81966,0 -8.29357,5.01002 -8.29357,7.59073 0,1.3251 -0.5625,2.40927 -1.25,2.40927 -0.83087,0 -1.25,141.66666 -1.25,422.5 0,280.83336 0.41913,422.49996 1.25,422.49996 0.6875,0 1.25,0.9482 1.25,2.107 0,2.8688 4.91276,7.893 7.71789,7.893 1.25516,0 2.28211,0.5625 2.28211,1.25 0,0.8299 100.41667,1.25 298.75,1.25 198.33334,0 298.75,-0.4201 298.75,-1.25 z m -572.62474,-41.4171 c -2.47486,-1.4353 -5.42798,-4.181 -6.5625,-6.1016 -1.90492,-3.2248 -2.06276,-32.779 -2.06276,-386.23126 0,-354.35788 0.15386,-382.99974 2.07491,-386.25182 1.1412,-1.9319 4.17092,-4.69056 6.7327,-6.13036 l 4.65778,-2.61782 269.03461,0 269.03461,0 4.65779,2.61782 c 2.56178,1.4398 5.59149,4.19846 6.73269,6.13036 1.92105,3.25208 2.07491,31.89394 2.07491,386.25182 0,354.35786 -0.15386,382.99976 -2.07491,386.25186 -1.1412,1.9319 -4.17091,4.6905 -6.73269,6.1303 l -4.65779,2.6178 -269.204797,-0.029 -269.204813,-0.029 -4.49974,-2.6097 z m 545.55769,-8.4234 c 1.91448,-1.5889 2.06705,-29.8748 2.06705,-383.19861 0,-327.4939 -0.2511,-381.82642 -1.77424,-383.90944 -1.74682,-2.38892 -5.94846,-2.42641 -271.97576,-2.42641 -266.1326,0 -270.22828,0.0366 -271.97778,2.42917 -1.52746,2.08892 -1.7322,55.92165 -1.46173,384.33809 l 0.31451,381.9089 3.125,1.5857 c 4.81855,2.445 538.72439,1.7281 541.68295,-0.7274 z m -63.99884,-46.8385 c -2.52337,-2.686 -2.72976,-4.0431 -2.48773,-16.3581 l 0.26391,-13.429 3.83236,0.7893 c 2.10779,0.4341 6.76989,1.2138 10.3602,1.7326 4.19196,0.6058 7.65848,2.0055 9.6875,3.9117 2.80828,2.6382 3.15965,3.9624 3.15965,11.9075 0,12.0337 -2.26807,14.375 -13.92517,14.375 -6.92022,0 -8.5511,-0.4386 -10.89072,-2.929 z m 15.81872,-11.7585 c 0.2078,-3.6093 -0.12765,-6.5625 -0.74545,-6.5625 -0.6178,0 -2.89721,0.885 -5.06533,1.9666 -3.21446,1.6036 -3.94205,2.7187 -3.94205,6.0417 0,5.119 0.84705,5.9521 5.58008,5.4885 3.64148,-0.3567 3.81019,-0.6371 4.17275,-6.9343 z m -12.25283,-34.1159 c -17.28311,-15.3351 -16.25,-14.0423 -16.25,-20.3353 0,-4.6604 0.72443,-6.6326 3.63134,-9.886 3.01784,-3.3775 4.47929,-4.0419 8.65052,-3.9325 4.6659,0.1223 5.00421,-0.099 4.80618,-3.1431 -0.20033,-3.0793 0.1225,-3.2747 5.41196,-3.2747 5.33216,0 5.62226,0.1812 5.57245,3.4798 -0.047,3.1116 0.29364,3.4037 3.22034,2.7608 11.34012,-2.4907 19.65377,13.6111 11.82901,22.9103 -1.7205,2.0447 -5.79862,5.4378 -9.0625,7.5402 -3.26386,2.1024 -6.64219,4.9727 -7.50739,6.3783 -2.21401,3.5969 -3.89127,3.1902 -10.30191,-2.4978 z m -192.32946,-190.57156 -3.98116,-4.375 -17.782192,-0.0187 -17.782188,-0.0188 -7.1875,-6.67096 -7.1875,-6.67096 0,-23.74499 0,-23.745 7.4072,-7.06528 7.407213,-7.06527 20.646537,0 20.64655,0 7.57125,7.00964 7.57125,7.00964 0,23.42163 c 0,21.83413 -0.16945,23.57496 -2.5,25.68409 -3.38979,3.06772 -3.15502,5.0632 1.25,10.625 2.0625,2.60411 3.75,5.91944 3.75,7.36737 0,2.39998 -0.70027,2.63263 -7.92415,2.63263 -7.46452,0 -8.15507,-0.25376 -11.90531,-4.375 z M 91.39345,898.08061 c 0,-0.64692 -0.5625,-1.52387 -1.25,-1.94877 -0.6875,-0.4249 -1.25,-1.90879 -1.25,-3.29752 0,-2.34549 0.666675,-2.49575 9.377912,-2.11373 l 9.377908,0.41125 -0.002,-15.03436 c -0.004,-20.78631 0.16462,-20.59064 -17.78827,-20.59064 -18.98095,0 -18.46505,-0.58814 -18.46505,21.05067 0,15.6448 0.203825,17.13017 2.717887,19.80627 2.237776,2.38198 4.004313,2.89306 10,2.89306 4.005163,0 7.282113,-0.5293 7.282113,-1.17623 z M 45.174125,834.9188 c -2.49675,-3.0084 -0.366187,-13.99702 3.567463,-18.39953 2.920237,-3.26832 4.5475,-3.86639 13.302062,-4.88894 19.410675,-2.26722 54.36814,-1.4065 64.05904,1.57723 4.75306,1.46343 7.48181,5.9463 8.60423,14.13532 1.34498,9.81267 3.25885,9.41396 -45.18847,9.41396 -36.153613,0 -43.056337,-0.28611 -44.344325,-1.83804 z m 7.5117,-29.36959 c -2.375275,-2.37527 -2.597838,-3.53826 -1.839175,-9.61037 l 0.863112,-6.9081 -6.274999,-6.44945 c -7.564638,-7.77496 -10.295363,-12.87555 -10.2791,-19.19988 0.0145,-5.6288 4.687312,-16.12856 8.901912,-20.00241 9.629388,-8.85084 24.8265,-8.64132 34.92435,0.48148 2.701338,2.4405 4.911525,4.018 4.911525,3.50555 0,-0.51245 -1.40625,-4.83018 -3.125,-9.59495 -4.136613,-11.46767 -4.03465,-15.2969 0.52885,-19.86039 3.95935,-3.95935 9.368237,-4.79483 14.240825,-2.19968 6.698815,3.56782 7.435575,9.29043 2.786337,21.64229 -1.687937,4.48445 -2.837912,8.15354 -2.555512,8.15354 0.282413,0 2.573863,-1.39821 5.09211,-3.10714 8.4661,-5.74526 19.36589,-7.20837 27.71429,-3.72019 6.43022,2.68672 8.97605,5.25197 12.35806,12.45233 5.13664,10.93604 3.49705,19.7361 -5.5172,29.61201 -6.91121,7.57185 -7.80421,9.75296 -6.9491,16.97299 0.6693,5.65115 0.44789,6.46534 -2.22775,8.19215 -2.51655,1.62412 -4.69146,1.71866 -14.22091,0.61817 -10.77072,-1.24382 -46.209713,-0.58626 -53.315162,0.98927 -2.404801,0.53322 -4.057238,-0.008 -6.017463,-1.96722 z m 57.457625,-34.62962 c 0,-2.92079 -2.14062,-0.75705 -3.6085,3.64745 l -1.35466,4.0648 2.48159,-2.95097 c 1.36486,-1.62306 2.48157,-3.76562 2.48157,-4.76128 z m -38.878375,0.59738 c -0.873288,-1.63177 -1.755612,-2.23318 -2.037137,-1.3886 -0.273138,0.81943 0.196612,2.78518 1.043887,4.36834 0.873288,1.63177 1.755612,2.23318 2.037137,1.3886 0.273138,-0.81943 -0.196612,-2.78518 -1.043887,-4.36834 z M -135.62672,566.20427 c -0.41102,-1.07108 -0.40642,-2.83576 0.0103,-3.92148 0.61721,-1.60844 0.10341,-1.83039 -2.77411,-1.19837 -11.57827,2.54301 -20.02302,-13.42287 -12.08774,-22.85342 1.72051,-2.04471 5.79864,-5.43781 9.0625,-7.54023 3.26387,-2.10243 6.6422,-4.97264 7.5074,-6.37827 2.20833,-3.58767 3.43931,-3.26675 10.57419,2.75684 14.94702,12.61896 15.97768,13.91849 15.97768,20.14572 0,4.58372 -0.73773,6.57799 -3.63133,9.8165 -3.01785,3.37757 -4.47929,4.04194 -8.65054,3.93257 -4.6659,-0.12238 -5.0042,0.0989 -4.80616,3.14305 0.19515,2.99984 -0.23379,3.30696 -5.11091,3.65959 -3.92018,0.28343 -5.52097,-0.12854 -6.07123,-1.5625 z m 12.02017,-56.94743 c -1.03125,-0.66645 -4.47102,-1.22034 -7.64393,-1.23086 -3.92146,-0.013 -6.82367,-0.8488 -9.0625,-2.60987 -3.05867,-2.40595 -3.29357,-3.29097 -3.29357,-12.40927 0,-9.1183 0.2349,-10.00332 3.29357,-12.40927 4.63727,-3.64768 16.28498,-3.6403 20.92972,0.0133 3.2361,2.54552 3.30753,2.91041 3.18094,16.25 -0.12446,13.11568 -0.23442,13.64526 -2.82936,13.62687 -1.48493,-0.0105 -3.54362,-0.56441 -4.57487,-1.23086 z m -6.875,-11.25 c 0.4249,-0.6875 1.86435,-1.25 3.19877,-1.25 1.99727,0 2.42623,-0.88401 2.42623,-5 0,-5 0,-5 -5,-5 l -5,0 0,6.25 c 0,4.60845 0.47309,6.25 1.80123,6.25 0.99068,0 2.14887,-0.5625 2.57377,-1.25 z"
         id="path4643"
         inkscape:connector-curvature="0" />
      <path
         style="fill:#a6a6a6"
         d="m -216.40334,1252.3001 c -7.80201,-4.2333 -7.20321,31.869 -7.20321,-434.29326 0,-377.55168 0.21218,-425.53447 1.89616,-428.79092 4.16641,-8.05695 -20.72942,-7.45908 310.60384,-7.45908 331.33326,0 306.43743,-0.59787 310.60384,7.45908 1.68397,3.25645 1.89616,51.23924 1.89616,428.79092 0,377.55166 -0.21219,425.53446 -1.89616,428.79096 -4.16719,8.0584 20.77151,7.464 -310.854265,7.409 -264.351415,-0.044 -302.047425,-0.2795 -305.046365,-1.9067 z m 608.44879,-1.2648 c 8.84406,-4.1968 8.098,35.6975 8.098,-433.02846 0,-382.39072 -0.18821,-423.14381 -1.97159,-426.902 -4.17032,-8.78829 22.19338,-8.098 -309.27841,-8.098 -331.47178,0 -305.10809,-0.69029 -309.27841,8.098 -1.78338,3.75819 -1.97159,44.51128 -1.97159,426.902 0,381.67556 0.19078,423.14926 1.96373,426.88546 4.15068,8.7469 -22.31391,8.0546 309.097357,8.0861 269.906113,0.026 299.592703,-0.1645 303.340913,-1.9431 z m -575.63622,-40.8721 c -3.17139,-1.6771 -6.32886,-4.6177 -7.69661,-7.168 -2.24435,-4.1848 -2.31917,-16.6052 -2.31917,-384.98836 0,-368.38312 0.0748,-380.80352 2.31917,-384.98835 1.36775,-2.55031 4.52522,-5.49092 7.69661,-7.16799 l 5.37743,-2.84366 267.10679,0 267.10679,0 5.37743,2.84366 c 3.17139,1.67707 6.32886,4.61768 7.69661,7.16799 2.24434,4.18483 2.31917,16.60523 2.31917,384.98835 0,368.38316 -0.0749,380.80356 -2.31917,384.98836 -1.36775,2.5503 -4.52522,5.4909 -7.69661,7.168 l -5.37743,2.8436 -267.10679,0 -267.10679,0 -5.37743,-2.8436 z m 544.98422,-8.4064 c 2.48906,-2.489 2.5,-4.1666 2.5,-383.51426 l 0,-381.0143 -2.5487,-2.7357 -2.54869,-2.7357 -269.90261,0 -269.90261,0 -2.5487,2.7357 -2.54869,2.7357 0,381.0143 c 0,379.34766 0.0109,381.02526 2.5,383.51426 2.48457,2.4846 4.16667,2.5 272.5,2.5 268.33334,0 270.01544,-0.015 272.5,-2.5 z m -61.22536,-45.2843 c -5.89919,-3.1204 -6.90465,-8.0982 -4.866,-24.0907 0.0876,-0.6875 -0.0529,-2.0804 -0.31215,-3.0953 -0.57705,-2.2585 4.82388,-3.3593 6.79769,-1.3855 0.74569,0.7457 3.99351,1.3558 7.21735,1.3558 3.90875,0 6.84462,0.7961 8.8125,2.3896 2.59703,2.103 2.95097,3.4481 2.95097,11.2153 0,7.3852 -0.44202,9.2677 -2.70819,11.5339 -3.32945,3.3294 -13.32971,4.4903 -17.89217,2.0769 z m 13.47306,-12.3251 c 0.45319,-6.973 -2.13061,-10.1993 -5.70865,-7.1281 -1.19022,1.0217 -3.14842,2.2066 -4.35155,2.6333 -1.49621,0.5306 -2.1875,2.1049 -2.1875,4.9817 0,5.4428 0.75716,6.0658 6.82965,5.6189 5.04444,-0.3713 5.04541,-0.3724 5.41805,-6.1058 z m -10.87482,-34.1348 c -1.5471,-1.6468 -5.58329,-4.8812 -8.96932,-7.1875 -7.97247,-5.4302 -10.724,-10.9007 -8.76746,-17.431 1.98793,-6.6351 6.94569,-10.2977 12.86984,-9.5078 4.52537,0.6034 4.6147,0.5362 3.91826,-2.946 -0.60822,-3.0411 -0.25056,-3.6794 2.44013,-4.3547 1.73405,-0.4352 4.33736,-0.1574 5.78513,0.6174 2.10193,1.125 2.37725,1.8854 1.36643,3.7742 -1.92591,3.5986 -1.67233,3.7871 4.04661,3.009 6.60211,-0.8983 11.49813,2.4495 13.34045,9.1219 1.64504,5.9578 -0.67955,11.4628 -6.83229,16.18 -2.57812,1.9765 -6.78251,5.4219 -9.34307,7.6562 -5.56783,4.8586 -6.22686,4.93 -9.85471,1.0683 z m -193.70828,-191.38076 -4.8426,-4.375 -16.92375,0 -16.92375,0 -6.249062,-4.9396 C 53.7603,901.12925 53.89345,901.54994 53.89345,877.01092 l 0,-21.68967 7.065275,-7.40721 7.065275,-7.4072 21.13455,0 21.13455,0 6.80018,6.43133 6.80017,6.43131 0,23.80062 c 0,22.6415 -0.13103,23.94008 -2.69034,26.66434 l -2.69032,2.86373 3.62782,5.09376 c 6.39511,8.97924 6.2733,8.69335 4.25284,9.98135 -1.03125,0.65741 -4.264,1.2039 -7.1839,1.21442 -4.32621,0.0156 -6.20528,-0.79068 -10.1515,-4.35586 z M 91.341175,896.65917 c -2.316787,-4.32895 -0.621475,-6.15233 5.720225,-6.15233 3.16052,0 6.83442,0.58229 8.16423,1.29398 2.33661,1.25052 2.41782,0.70949 2.41782,-16.10624 0,-21.67716 0.20955,-21.43774 -18.762837,-21.43774 -11.711963,0 -12.817225,0.21642 -15.668975,3.06819 -2.948388,2.94837 -3.068188,3.71393 -3.068188,19.60692 0,15.26035 0.210087,16.76239 2.717887,19.43183 2.328788,2.47887 3.945713,2.89306 11.293988,2.89306 8.296225,0 8.530712,-0.0847 7.18585,-2.59767 z m -45.34845,-61.96972 c -1.547437,-1.54743 -0.880237,-10.61453 1.085963,-14.758 1.064387,-2.24302 3.328775,-4.71315 5.031975,-5.48918 6.2346,-2.84068 36.849262,-4.50679 54.684547,-2.97604 9.15179,0.78546 18.17625,2.01235 20.05439,2.72641 4.29439,1.63273 7.30724,8.5005 6.79745,15.49476 l -0.3786,5.19444 -43.213225,0.32844 c -23.767275,0.18065 -43.5954,-0.0538 -44.0625,-0.52083 z m 6.634038,-29.82771 c -1.08455,-1.3068 -1.32205,-4.02854 -0.765063,-8.76757 l 0.807725,-6.87248 -7.433238,-7.99016 c -9.229499,-9.92103 -10.921337,-14.98073 -8.140424,-24.3451 2.332687,-7.855 9.028337,-15.68428 15.137612,-17.70051 2.43375,-0.80322 7.689525,-1.22425 11.6795,-0.93565 9.000838,0.65106 15.676038,4.76402 20.739938,12.779 3.435987,5.43838 5.421049,6.56133 6.401125,3.6211 0.242962,-0.72887 -0.565638,-1.59359 -1.796875,-1.9216 -2.80005,-0.74595 -9.221125,-16.73245 -10.078075,-25.09127 -0.808163,-7.88305 2.698475,-12.13066 10.014537,-12.13066 6.429512,0 9.14545,1.61099 10.821505,6.41892 1.19721,3.4343 0.79658,5.66659 -2.960893,16.49822 l -4.345437,12.52652 4.654875,-4.5358 c 2.560175,-2.49469 6.746185,-5.40701 9.302225,-6.47182 5.79669,-2.41484 18.739,-2.51503 23.22722,-0.1798 7.72308,4.01831 12.75043,12.94528 12.75043,22.64068 0,6.92057 -2.33578,11.74439 -9.6239,19.87527 -5.32913,5.94533 -5.49823,6.38573 -5.15,13.41227 0.56224,11.34464 0.15435,11.52712 -21.80628,9.7549 -13.601133,-1.0976 -21.80837,-1.11767 -32.442208,-0.0794 -18.242725,1.78131 -19.114125,1.76034 -20.9943,-0.50513 z M 73.8476,776.29622 c -1.448575,-3.87165 -3.122663,-7.03938 -3.720188,-7.03938 -2.442637,0 -2.287825,2.44034 0.406913,6.41431 1.5704,2.31588 3.263125,5.27558 3.761612,6.5771 0.4985,1.30153 1.19415,2.07861 1.545888,1.72688 0.35175,-0.35175 -0.545663,-3.80725 -1.994225,-7.67891 z m 31.29585,5.44236 c 0,-0.61639 1.39824,-3.18113 3.10719,-5.69941 2.9464,-4.34177 3.1572,-6.78233 0.58581,-6.78233 -1.19341,0 -4.42161,6.86239 -5.78661,12.301 -0.53576,2.13464 -0.33399,2.8018 0.66131,2.18668 0.78776,-0.48688 1.4323,-1.38954 1.4323,-2.00594 z M -133.92731,566.65209 c -1.69349,-0.98621 -1.90794,-1.81654 -0.9375,-3.62981 1.91743,-3.58276 1.66074,-3.77238 -4.05424,-2.9948 -6.60211,0.89826 -11.49812,-2.4495 -13.34045,-9.12187 -1.64504,-5.95782 0.67956,-11.46285 6.83228,-16.17998 2.57813,-1.97659 6.78252,-5.42192 9.34309,-7.65629 5.56781,-4.85852 6.22685,-4.92996 9.85471,-1.06829 1.5471,1.64682 5.58329,4.88119 8.9693,7.1875 7.97248,5.43028 10.724,10.90073 8.76747,17.43107 -1.9955,6.66037 -6.9424,10.29814 -12.92015,9.50102 -4.48167,-0.59761 -4.64766,-0.49039 -3.89332,2.51515 1.18395,4.71724 -3.5948,6.94347 -8.62119,4.0163 z m 9.74003,-58.57361 c -0.44925,-0.7269 -3.83654,-1.32164 -7.52732,-1.32164 -8.97438,0 -11.89195,-3.37343 -11.89195,-13.75 0,-5.35372 0.65434,-7.99472 2.59073,-10.45643 2.34864,-2.98582 3.39137,-3.29357 11.15927,-3.29357 7.84859,0 8.79465,0.28744 11.25942,3.42089 2.41851,3.07464 2.63381,4.56123 2.12714,14.6875 -0.54797,10.95151 -0.65234,11.27735 -3.7321,11.65075 -1.7426,0.21127 -3.53594,-0.2106 -3.98519,-0.9375 z m -5.96481,-8.73039 c 1.1938,-0.63732 3.18751,-1.47592 4.43047,-1.86357 1.80338,-0.56242 2.18217,-1.78034 1.875,-6.02874 l -0.38493,-5.32394 -5.625,0 -5.625,0 -0.39136,5.45551 c -0.60932,8.49378 0.79054,10.39279 5.72082,7.76074 z"
         id="path4641"
         inkscape:connector-curvature="0" />
      <path
         style="fill:#5c5c5c"
         d="m -214.42469,1253.3002 c -0.79372,-0.5051 135.69944,-0.9184 303.31814,-0.9184 167.6187,0 304.11186,0.4133 303.31814,0.9184 -0.79373,0.5051 -137.28689,0.9184 -303.31814,0.9184 -166.03125,0 -302.52441,-0.4133 -303.31814,-0.9184 z m -8.394,-9.3559 c -1.04719,-3.9075 -0.81151,-849.81011 0.2375,-852.45333 0.4673,-1.17748 0.84964,190.77564 0.84964,426.56249 0,235.78684 -0.075,428.70334 -0.16671,428.70334 -0.0917,0 -0.50589,-1.2656 -0.92043,-2.8125 z M 399.51845,818.00684 c 0,-235.7612 0.38234,-427.69335 0.84964,-426.51587 0.46731,1.17748 0.84965,193.10962 0.84965,426.51587 0,233.40626 -0.38234,425.33836 -0.84965,426.51586 -0.4673,1.1775 -0.84964,-190.7547 -0.84964,-426.51586 z m -583.24974,391.08286 c -2.47486,-1.4353 -5.42798,-4.181 -6.5625,-6.1016 -1.90488,-3.2247 -2.06276,-32.6906 -2.06276,-384.98126 0,-359.24203 0.12598,-381.70253 2.16019,-385.14619 1.18811,-2.0113 4.45946,-4.76997 7.26966,-6.13036 5.04224,-2.44091 8.6186,-2.47345 271.82015,-2.47345 263.20155,0 266.77791,0.0326 271.82015,2.47345 2.8102,1.36039 6.08155,4.11906 7.26965,6.13036 2.03423,3.44366 2.1602,25.90416 2.1602,385.14619 0,353.19326 -0.1539,381.74976 -2.07491,385.00186 -1.1412,1.9319 -4.17091,4.6905 -6.73269,6.1303 l -4.65779,2.6178 -267.954797,-0.029 -267.954813,-0.029 -4.49974,-2.6097 z m 545.29877,-5.9724 2.95097,-2.3895 0.3433,-379.798 c 0.18881,-208.88887 0.0339,-381.07789 -0.34429,-382.64225 -0.37819,-1.56437 -1.7983,-3.95499 -3.15581,-5.3125 -2.44236,-2.44238 -5.29424,-2.46821 -272.4682,-2.46821 -267.17396,0 -270.02583,0.0258 -272.4682,2.46821 -1.35752,1.35751 -2.77763,3.74813 -3.15581,5.3125 -0.37817,1.56436 -0.53311,173.75338 -0.34429,382.64225 l 0.3433,379.798 2.95098,2.3895 c 2.88513,2.3362 8.96977,2.3895 272.67402,2.3895 263.70425,0 269.78889,-0.053 272.67403,-2.3895 z m -63.35584,-49.4286 c -3.28686,-3.2869 -3.8604,-8.3031 -2.27329,-19.8824 0.61184,-4.4638 1.31458,-5.7995 3.05124,-5.7995 1.24097,0 2.60396,0.5625 3.02886,1.25 0.4249,0.6875 3.52994,1.25 6.90008,1.25 8.59325,0 11.22492,2.9992 11.22492,12.7926 0,9.9184 -3.28729,13.4574 -12.5,13.4574 -5.08979,0 -6.97781,-0.6141 -9.43181,-3.0681 z m 15.63784,-4.3497 c 1.93321,-3.6122 1.56152,-10.886 -0.67032,-13.1179 -2.43227,-2.4322 -3.56302,-2.4662 -5.47343,-0.1643 -0.8216,0.99 -2.7186,1.9744 -4.21555,2.1875 -2.04623,0.2914 -2.81788,1.3815 -3.10912,4.3923 -0.61871,6.3961 1.5505,9.1202 7.26239,9.1202 3.57707,0 5.26371,-0.6571 6.20602,-2.4178 z m -13.56982,-42.3282 c -14.48467,-12.2157 -15.52278,-13.576 -14.75101,-19.33 1.24651,-9.2934 8.44309,-12.9734 17.64431,-9.0224 2.03639,0.8744 2.24974,0.6643 1.39353,-1.372 -2.08292,-4.954 -1.47828,-7.4046 1.82696,-7.4046 2.84295,0 3.09191,0.4231 2.7584,4.6875 -0.34524,4.4144 1.15273,6.2107 2.8666,3.4375 1.18085,-1.9106 8.47966,-1.4875 11.56024,0.6703 3.69024,2.5847 5.90186,10.1737 4.23451,14.5303 -0.70001,1.8291 -3.35712,4.9228 -5.90467,6.875 -2.54755,1.9522 -6.72693,5.3776 -9.28749,7.6119 -2.56058,2.2344 -5.14991,4.0362 -5.75409,4.004 -0.60417,-0.032 -3.56845,-2.1415 -6.58729,-4.6875 z m -191.21567,-189.62896 -3.98116,-4.375 -17.306405,0 -17.3064,0 -6.435813,-5.12428 c -3.539699,-2.81835 -6.988175,-6.15636 -7.663287,-7.41782 -0.675112,-1.26145 -1.227475,-12.05286 -1.227475,-23.98092 l 0,-21.68738 6.601812,-6.5198 6.601801,-6.5198 21.088412,0 21.088415,0 6.68477,6.68479 6.68479,6.68477 0,20.8974 c 0,20.61293 -0.5466,23.95821 -4.57243,27.98403 -2.37295,2.37295 -2.20443,2.94949 2.76382,9.45621 2.44276,3.19919 4.09706,6.37383 3.67622,7.05475 -0.42083,0.68092 -3.45407,1.23805 -6.74053,1.23805 -5.23737,0 -6.4671,-0.54036 -9.95654,-4.375 z m -15.803615,-19.0625 c -2.770425,-6.72952 -2.683862,-6.85012 4.516825,-6.29335 3.70769,0.28669 7.72563,0.96609 8.92875,1.50979 2.02834,0.91661 2.1875,-0.33336 2.1875,-17.17948 0,-18.13835 -0.005,-18.17223 -3.29358,-20.75873 -2.85442,-2.24529 -5.03394,-2.59073 -16.346145,-2.59073 -12.759875,0 -13.134525,0.0819 -16.706425,3.65385 l -3.65385,3.65384 0,16.25025 c 0,15.6587 0.11775,16.39025 3.236112,20.09615 3.0852,3.66655 3.6744,3.84591 12.633738,3.84591 8.45985,0 9.307763,-0.21829 8.497075,-2.1875 z m -45.4762,-63.94907 c -1.259675,-0.79774 -1.563512,-2.87542 -1.1103,-7.59215 0.9682,-10.07628 3.70615,-11.99894 19.4561,-13.66267 15.966288,-1.68657 32.461513,-1.71818 47.138475,-0.0904 12.72294,1.41112 16.00225,2.69697 17.98693,7.05287 2.14084,4.69865 1.77684,13.76219 -0.58917,14.67011 -3.12519,1.19925 -80.95196,0.84446 -82.882035,-0.37783 z m 5.28045,-30.81883 c -0.4127,-1.07548 -0.417062,-4.76959 -0.01,-8.20914 0.740338,-6.25097 0.737438,-6.25719 -6.622462,-14.16852 -8.676525,-9.32663 -10.953113,-15.13006 -8.9107,-22.71503 3.85735,-14.32511 14.7345,-21.47582 28.806725,-18.93775 7.267087,1.3107 12.5282,5.03613 17.592312,12.4572 2.26265,3.31575 4.8582,6.02864 5.767875,6.02864 0.909687,0 2.73565,-2.10938 4.057725,-4.6875 4.853537,-9.46476 13.167,-14.17147 25.13214,-14.2287 10.35146,-0.0495 16.00629,3.30296 20.31065,12.0412 4.93631,10.02112 3.45365,18.80756 -4.71468,27.9398 -7.40704,8.2811 -8.48692,10.80359 -7.57335,17.69041 1.17813,8.88117 0.41364,9.17309 -20.12561,7.68541 -10.5646,-0.7652 -22.589512,-0.82683 -31.0071,-0.15892 -19.807375,1.57165 -21.843237,1.50555 -22.703825,-0.7371 z m 23.726863,-20.93246 c -0.358251,-5.1142 -5.040063,-14.61214 -7.20275,-14.61214 -2.753351,0 -2.475325,5.23902 0.477224,8.99257 1.332388,1.69385 2.805763,4.60672 3.274175,6.47303 1.059113,4.21984 3.759963,3.55196 3.45135,-0.85346 z m 28.918942,0.79901 c 0.4609,-1.83636 1.92812,-4.72473 3.26051,-6.41858 3.10181,-3.94332 3.28314,-9.34162 0.29444,-8.76604 -2.55529,0.49209 -8.52313,13.77351 -7.44794,16.57537 1.14182,2.97557 2.96015,2.32599 3.89299,-1.39075 z M 87.992738,750.19434 c -2.536201,-3.28369 -8.14745,-19.26481 -8.282313,-23.58849 -0.242463,-7.77331 6.057,-12.32457 13.608925,-9.83221 5.5901,1.8449 7.48995,6.61648 5.532162,13.89431 -1.550475,5.76372 -8.164562,21.08889 -9.101612,21.08889 -0.302687,0 -1.093413,-0.70313 -1.757162,-1.5625 z M -132.73527,565.96145 c -0.49547,-0.49546 -0.55034,-2.7692 -0.12195,-5.05272 0.74864,-3.99058 -0.85533,-5.76419 -2.62433,-2.90189 -1.18085,1.91066 -8.47966,1.4875 -11.56024,-0.67023 -3.69023,-2.58473 -5.90186,-10.17375 -4.23451,-14.53033 0.70002,-1.82907 3.35712,-4.92282 5.90467,-6.875 2.54755,-1.95219 6.72693,-5.37757 9.2875,-7.61194 2.56057,-2.23438 5.0544,-4.0625 5.54184,-4.0625 1.08159,0 10.50612,7.67719 17.28211,14.07795 4.64546,4.38821 4.93112,5.05734 4.26844,9.99805 -1.24652,9.29346 -8.44309,12.97345 -17.64432,9.02246 -2.03639,-0.87441 -2.24973,-0.66436 -1.39352,1.37203 1.89063,4.49664 1.42445,7.38641 -1.25341,7.76974 -1.40329,0.20087 -2.95682,-0.0401 -3.45228,-0.53562 z m 7.87872,-59.20461 c -1.03125,-0.66645 -4.45969,-1.22033 -7.61876,-1.23086 -8.03238,-0.0268 -9.88124,-2.40983 -9.88124,-12.73633 0,-10.68969 1.64946,-12.28281 12.71719,-12.28281 11.55313,0 12.62563,1.43428 12.079,16.15351 -0.38528,10.37444 -0.63435,11.34004 -2.92119,11.32484 -1.375,-0.009 -3.34375,-0.5619 -4.375,-1.22835 z m -1.94645,-7.62347 c 3.82183,-2.25493 4.44645,-3.27339 4.44645,-7.25 0,-5.80478 -1.79153,-7.62653 -7.5,-7.62653 -5.93708,0 -7.5,1.82341 -7.5,8.75 0,8.95934 2.89949,10.64254 10.55355,6.12653 z M -213.87242,382.7822 c 2.79892,-1.11081 602.73282,-1.11081 605.53174,0 1.17748,0.4673 -135.06717,0.84964 -302.76587,0.84964 -167.6987,0 -303.94335,-0.38234 -302.76587,-0.84964 z"
         id="path4639"
         inkscape:connector-curvature="0" />
      <path
         style="fill:#2e2e2e"
         d="m -62.04405,1253.3194 c 83.015625,-0.1774 218.85937,-0.1774 301.875,0 83.01563,0.1774 15.09375,0.3226 -150.9375,0.3226 -166.03125,0 -233.95312,-0.1452 -150.9375,-0.3226 z M -222.9888,818.00684 c 0,-233.40625 0.14388,-328.89063 0.31973,-212.1875 0.17585,116.70312 0.17585,307.67187 0,424.37496 -0.17585,116.7032 -0.31973,21.2188 -0.31973,-212.18746 z m 623.75,0 c 0,-233.40625 0.14387,-328.89063 0.31972,-212.1875 0.17585,116.70312 0.17585,307.67187 0,424.37496 -0.17585,116.7032 -0.31972,21.2188 -0.31972,-212.18746 z m -583.90936,390.10246 c -2.15413,-1.3136 -4.82601,-3.6866 -5.9375,-5.2735 -1.85049,-2.6419 -2.02089,-35.1003 -2.02089,-384.93852 l 0,-382.05329 2.61037,-3.31855 c 5.93514,-7.5453 -14.88122,-7.0186 277.38963,-7.0186 292.27085,0 271.4545,-0.5267 277.38963,7.0186 l 2.61037,3.31855 0,382.16285 0,382.16286 -2.61037,3.3185 c -5.93533,7.5456 14.90661,7.0191 -277.640055,7.014 -261.491435,0 -267.967905,-0.062 -271.791185,-2.3929 z m 542.52536,-2.5488 c 1.73059,-0.6579 4.0172,-2.88 5.08137,-4.9379 1.73402,-3.3532 1.93488,-43.0732 1.93488,-382.61576 0,-412.39428 0.5031,-383.91087 -6.84007,-387.25664 -2.50849,-1.14295 -66.04615,-1.49336 -270.780817,-1.49336 -291.029893,0 -272.560573,-0.45791 -275.885753,6.84007 -1.14731,2.51808 -1.49336,91.04333 -1.49336,382.03082 0,339.90257 0.19904,379.13817 1.94045,382.50567 1.06725,2.0638 3.17662,4.2503 4.6875,4.8587 3.83616,1.5449 537.2951,1.6123 541.3558,0.069 z m -60.48375,-52.5537 c -2.64081,-2.6408 -3.25694,-9.6278 -1.68685,-19.1293 0.61824,-3.7413 1.21457,-4.5746 2.79875,-3.9111 1.1072,0.4637 4.8256,1.1253 8.2631,1.4702 8.83302,0.8862 10.625,2.8702 10.625,11.764 0,9.6137 -2.46145,12.3062 -11.25,12.3062 -4.58334,0 -6.91666,-0.6666 -8.75,-2.5 z m 14.91247,-1.7695 c 0.86617,-1.0437 1.31352,-4.7611 1.09055,-9.0625 -0.33941,-6.5481 -0.67464,-7.335 -3.28215,-7.7044 -1.59727,-0.2263 -4.83164,0.5032 -7.1875,1.6211 -3.99194,1.8943 -4.28337,2.4369 -4.28337,7.974 0,3.2677 0.675,6.6163 1.5,7.4413 2.07089,2.0709 10.37278,1.887 12.16247,-0.2695 z m -13.03747,-45.1651 c -15.60494,-13.6147 -14.77444,-12.5415 -14.02571,-18.1236 1.267,-9.4462 7.1676,-12.2776 16.40579,-7.8722 4.03901,1.9261 4.55887,1.9261 7.49843,0 1.73719,-1.1383 5.1341,-2.0696 7.54869,-2.0696 5.0707,0 7.86564,3.2346 9.0381,10.4597 0.63446,3.9096 0.19253,4.9906 -3.5035,8.5697 -3.4869,3.3765 -14.99417,12.0862 -17.3368,13.122 -0.34375,0.152 -2.875,-1.6867 -5.625,-4.086 z m 4.61804,-30.8223 c -2.29405,-2.2941 -1.77413,-4.7431 1.00696,-4.7431 2.58134,0 3.19953,1.9632 1.47389,4.6806 -0.76574,1.2058 -1.32348,1.2199 -2.48085,0.062 z m -196.15638,-159.11806 -3.87332,-4.375 -17.919177,-0.0219 -17.919163,-0.0219 -6.5625,-6.10589 -6.5625,-6.1059 0,-22.3567 0,-22.35671 6.294075,-6.20301 6.294075,-6.20301 17.608787,-0.40965 c 9.684826,-0.2253 18.994843,-0.0617 20.688903,0.36342 1.69407,0.42519 5.84404,3.35838 9.22215,6.5182 l 6.14201,5.74513 0,21.83601 c 0,21.46804 -0.0526,21.89857 -3.125,25.54985 -1.71875,2.04261 -3.125,4.1523 -3.125,4.68819 0,0.53588 1.94278,3.51871 4.31726,6.6285 2.3745,3.10977 3.96825,6.00317 3.54168,6.42975 -0.42659,0.42657 -3.1096,0.7756 -5.96228,0.7756 -4.35651,0 -5.80661,-0.70025 -9.06,-4.375 z m -14.885298,-16.875 c -0.0955,-1.03125 -0.600549,-2.91927 -1.122312,-4.1956 -0.865187,-2.11637 -0.409863,-2.26805 5.173637,-1.72331 3.367273,0.32851 7.387943,1.01651 8.934813,1.5289 l 2.8125,0.93159 0,-18.67789 c 0,-18.46239 -0.0373,-18.71288 -3.2257,-21.7083 -3.02238,-2.83936 -4.11917,-3.03039 -17.3993,-3.03039 -13.280125,0 -14.376925,0.19103 -17.3993,3.03039 -3.180375,2.98782 -3.2257,3.28541 -3.2257,21.18161 0,18.05541 0.018,18.16995 3.404425,21.70465 3.228975,3.37034 3.889238,3.5349 12.8125,3.1934 7.46455,-0.28568 9.3722,-0.74739 9.234438,-2.23505 z M 48.493575,833.4403 c -0.467562,-0.46757 -0.850125,-3.25626 -0.850125,-6.19709 0,-8.89763 3.33285,-11.45814 16.875,-12.96448 14.245738,-1.5846 36.8837,-1.60622 50.625,-0.0484 9.12663,1.03471 11.03046,1.67045 13.50016,4.50808 2.28114,2.62096 2.79767,4.50077 2.5,9.09843 l -0.37516,5.79498 -40.712375,0.32929 c -22.3918,0.18111 -41.094925,-0.0533 -41.5625,-0.52083 z m 5.707587,-30.94677 c -0.386912,-0.62607 -0.590162,-4.28232 -0.451674,-8.125 0.245112,-6.80157 0.0975,-7.13574 -5.573375,-12.61169 -6.196163,-5.98326 -10.467963,-13.61656 -10.493,-18.75 -0.02275,-4.65709 5.414062,-15.4422 9.3419,-18.53184 7.408724,-5.82771 19.366462,-6.24747 27.2192,-0.95551 2.180112,1.46917 6.079525,5.47049 8.66535,8.8918 2.585825,3.4213 5.501075,6.22055 6.478325,6.22055 0.97725,0 3.656412,-2.80022 5.953687,-6.22274 12.890565,-19.20445 40.150525,-16.29991 44.868165,4.78069 1.97374,8.8196 0.41655,13.44787 -7.61108,22.62149 -6.86326,7.84302 -7.73991,10.0462 -7.20031,18.09556 l 0.3701,5.52085 -35.431912,0.10213 c -20.078325,0.0579 -35.736738,-0.39119 -36.135375,-1.03624 z m 24.027713,-16.86199 c 0.417288,-1.31476 -0.732463,-6.08815 -2.575137,-10.69105 -2.783038,-6.95193 -3.764151,-8.25367 -5.98215,-7.9372 -3.927375,0.56036 -4.040138,5.39461 -0.253288,10.85904 1.773838,2.55963 3.22515,5.51427 3.22515,6.56586 0,4.07176 4.375812,5.0145 5.585425,1.20335 z m 28.239015,-1.53741 c 0.48358,-1.80825 2.12006,-4.96604 3.63663,-7.0173 3.37757,-4.5684 3.01288,-9.53819 -0.73921,-10.07354 -2.218,-0.31647 -3.19911,0.98527 -5.98215,7.9372 -3.436335,8.58381 -3.35382,13.51252 0.21469,12.82494 1.09495,-0.21098 2.38646,-1.86307 2.87004,-3.6713 z M 86.981813,745.98384 c -3.532,-8.2286 -6.838363,-18.25136 -6.838363,-20.7295 0,-3.33125 5.562713,-8.4975 9.149612,-8.4975 1.657276,0 4.557388,1.21463 6.444688,2.69917 2.896275,2.27822 3.33725,3.40146 2.827475,7.20212 -0.619412,4.61807 -6.685387,21.1002 -8.492625,23.07571 -0.554475,0.60609 -1.945325,-1.08141 -3.090787,-3.75 z M -132.35655,564.35908 c 0,-0.63128 0.34694,-2.05188 0.77098,-3.15691 0.59674,-1.55508 1.16173,-1.68484 2.5,-0.57418 2.54209,2.10975 2.1045,4.87885 -0.77098,4.87885 -1.375,0 -2.5,-0.5165 -2.5,-1.14776 z m -15.65332,-9.34503 c -1.07852,-1.64603 -2.28766,-5.0061 -2.68698,-7.46682 -0.63647,-3.92208 -0.19805,-4.97934 3.55365,-8.56971 2.35382,-2.25263 7.24365,-6.21177 10.86627,-8.7981 l 6.58658,-4.70243 5.71391,4.70243 c 13.45832,11.07589 14.5014,12.43724 13.76073,17.95935 -1.25702,9.37173 -7.18457,12.19111 -16.39592,7.79852 -4.039,-1.92608 -4.55887,-1.92608 -7.49843,0 -4.81121,3.15243 -11.52136,2.70674 -13.89981,-0.92324 z m 26.56692,-47.75271 c -0.52878,-0.53294 -4.33627,-1.3669 -8.46109,-1.85326 -10.2814,-1.21227 -11.20251,-2.23194 -11.20251,-12.40124 0,-10.42728 1.37153,-11.875 11.25,-11.875 9.90404,0 11.28523,1.45751 11.10211,11.71556 -0.17218,9.64488 -1.31914,15.79409 -2.68851,14.41394 z m -7.1636,-6.1295 c 0.85586,-1.03125 2.55206,-1.875 3.76932,-1.875 4.33945,0 5.21364,-9.76704 1.23068,-13.75 -5.9213,-5.9213 -15,-1.38194 -15,7.5 0,7.68324 6.19156,12.71389 10,8.125 z m 67.1875,-119.06245 c 82.671875,-0.17745 217.95312,-0.17745 300.625,0 82.67188,0.17744 15.03125,0.32262 -150.3125,0.32262 -165.34375,0 -232.98437,-0.14518 -150.3125,-0.32262 z"
         id="path4637"
         inkscape:connector-curvature="0" />
      <path
         style="fill:#171717"
         d="m -60.79405,1253.3194 c 82.328125,-0.1775 217.04687,-0.1775 299.375,0 82.32813,0.1775 14.96875,0.3227 -149.6875,0.3227 -164.65625,0 -232.01563,-0.1452 -149.6875,-0.3227 z M -222.9888,818.00684 c 0,-233.40625 0.14388,-328.89063 0.31973,-212.1875 0.17585,116.70312 0.17585,307.67187 0,424.37496 -0.17585,116.7032 -0.31973,21.2188 -0.31973,-212.18746 z m 623.75,0 c 0,-233.40625 0.14387,-328.89063 0.31972,-212.1875 0.17585,116.70312 0.17585,307.67187 0,424.37496 -0.17585,116.7032 -0.31972,21.2188 -0.31972,-212.18746 z m -584.59691,389.10276 c -1.84479,-1.1444 -4.09479,-3.4645 -5,-5.1559 -2.45676,-4.5905 -2.44232,-763.33015 0.0146,-767.92098 0.91325,-1.70642 3.25004,-4.04158 5.19287,-5.18923 3.26969,-1.93146 23.53828,-2.08665 272.52168,-2.08665 248.9834,0 269.25199,0.15519 272.52167,2.08665 1.94283,1.14765 4.27963,3.48281 5.19288,5.18923 2.46986,4.61499 2.46986,763.33328 0,767.94828 -0.91325,1.7064 -3.25005,4.0415 -5.19288,5.1892 -3.27018,1.9317 -23.51477,2.0842 -272.714532,2.0534 -248.887998,-0.031 -269.435018,-0.1901 -272.536298,-2.114 z m 547.16097,-3.4209 3.06819,-3.0682 0,-382.61366 0,-382.61364 -3.06819,-3.06818 -3.06817,-3.06818 -271.36364,0 -271.36364,0 -3.06818,3.06818 -3.06818,3.06818 0,382.61364 0,382.61366 3.06818,3.0682 3.06818,3.0681 271.36364,0 271.36364,0 3.06817,-3.0681 z m -64.41632,-51.2882 c -1.46984,-1.771 -1.46598,-19.6187 0.005,-21.0742 1.00876,-0.9984 7.47996,0.6378 7.47996,1.8913 0,0.6431 -1.6875,1.7576 -3.75,2.4765 -3.53595,1.2327 -3.75,1.6887 -3.75,7.9891 0,5.4878 0.49645,7.0296 2.77814,8.6278 2.08384,1.4595 2.27827,1.9458 0.77805,1.9458 -1.10004,0 -2.69335,-0.8353 -3.5407,-1.8563 z m 14.70637,-0.09 c 3.99818,-2.8004 4.02527,-14.2949 0.0425,-18.0054 -1.5047,-1.4018 -2.15437,-2.5488 -1.4438,-2.5488 3.29458,0 5.42944,4.7326 5.42944,12.036 0,7.5203 -1.37932,10.464 -4.90314,10.464 -1.32945,0 -1.06569,-0.5865 0.875,-1.9458 z m -11.77562,-46.5283 c -2.16083,-1.8704 -6.23895,-5.2607 -9.0625,-7.5339 -4.46292,-3.5931 -5.13374,-4.7847 -5.13374,-9.1194 0,-3.6273 0.83615,-5.8223 3.06819,-8.0544 3.77584,-3.7758 6.0105,-3.8415 11.67147,-0.3428 l 4.40975,2.7254 4.73544,-2.7254 c 6.05726,-3.4861 8.02524,-3.4289 11.79696,0.3428 4.65722,4.6572 4.21686,11.0973 -1.1022,16.1193 -5.93611,5.6047 -14.23191,12.069 -15.43303,12.0259 -0.56187,-0.02 -2.78952,-1.567 -4.95034,-3.4375 z m 3.30376,-32.7759 c 0,-0.6875 0.5625,-1.25 1.25,-1.25 0.6875,0 1.25,0.5625 1.25,1.25 0,0.6875 -0.5625,1.25 -1.25,1.25 -0.6875,0 -1.25,-0.5625 -1.25,-1.25 z m -195.49541,-157.81246 -3.17661,-4.0625 -18.739817,-0.625 -18.739813,-0.625 -5.674175,-4.74971 -5.674175,-4.74971 0,-22.79728 0,-22.79728 5.980437,-5.89051 5.980438,-5.89051 19.698112,0 19.698113,0 6.19645,5.79605 6.19645,5.79605 0,22.26455 c 0,21.95094 -0.0435,22.31153 -3.09095,25.59974 -3.4176,3.68765 -3.16034,4.85352 2.80917,12.73111 l 3.0785,4.0625 -5.68276,0 c -4.92638,0 -6.10557,-0.54072 -8.85937,-4.0625 z m -14.50459,-13.4185 c 1.564625,-0.99529 1.60935,-1.62127 0.27015,-3.7817 -0.882663,-1.42395 -1.271338,-3.12861 -0.863725,-3.78815 1.175575,-1.90213 6.748595,-1.3966 10.766075,0.97659 5.40215,3.19113 6.03616,1.21726 6.05836,-18.86173 l 0.0191,-17.31099 -3.8822,-3.62651 c -3.81067,-3.55971 -4.14278,-3.62651 -18.029088,-3.62651 -13.395862,0 -14.351074,0.1718 -17.9928,3.23611 l -3.845912,3.23613 0,18.50939 0,18.5094 4.4185,3.87948 c 4.011,3.5217 5.192625,3.87773 12.8125,3.86035 4.6167,-0.01 9.23775,-0.55586 10.269,-1.21186 z m -47.054387,-74.7065 c 0.868837,-6.56803 5.150187,-11.55454 9.936587,-11.57319 1.508538,-0.006 9.126613,-0.57575 16.92905,-1.26636 14.535463,-1.28658 44.76818,0.22853 50.87273,2.54947 2.92924,1.1137 5.5442,7.42408 5.55905,13.41508 l 0.007,2.8125 -42.0449,0 -42.044912,0 0.785425,-5.9375 z m 7.102,-24.63014 c -0.903226,-1.08831 -1.115,-3.9581 -0.586225,-7.94417 l 0.827812,-6.24038 -7.566237,-8.13315 c -5.199525,-5.58909 -7.829775,-9.53786 -8.408713,-12.6239 -2.524612,-13.45731 6.54045,-25.609 19.932588,-26.71957 9.976337,-0.82733 16.863662,2.81986 23.343162,12.36133 2.751738,4.05212 5.8521,7.36748 6.889713,7.36748 1.037612,0 2.844775,-1.81985 4.015925,-4.0441 5.9239,-11.25071 15.932142,-16.8094 28.150902,-15.63533 7.4862,0.71933 11.90097,3.83134 15.54096,10.95497 5.19251,10.16197 3.41899,17.8331 -6.74442,29.17215 -5.74859,6.41355 -5.82355,6.6197 -5.9729,16.42731 l -0.0951,6.25 -9.375,-0.625 c -13.5643,-0.90429 -40.531412,-0.767 -50.206675,0.25559 -6.3565,0.67182 -8.6669,0.47666 -9.745712,-0.82323 z m 23.509124,-16.87912 c 0.574238,-4.05159 -3.527137,-15.88898 -6.408662,-18.49673 -1.73145,-1.56695 -2.813187,-1.75128 -4.40875,-0.7513 -3.264762,2.04611 -3.152037,5.73775 0.331963,10.87173 1.748287,2.57625 3.178712,5.25858 3.178712,5.96075 0,2.811 2.790963,6.23983 4.771838,5.86245 1.156737,-0.22038 2.29745,-1.77148 2.534899,-3.4469 z m 28.070543,-0.55833 c 0.66519,-1.99654 2.53993,-5.59066 4.16608,-7.98692 4.38247,-6.45793 3.35657,-11.50799 -2.33778,-11.50799 -3.83453,0 -9.955392,16.78859 -7.98905,21.91277 1.18218,3.08072 4.80211,1.66004 6.16075,-2.41786 z M 87.6499,745.51889 c -2.604712,-4.86695 -6.25645,-16.54864 -6.25645,-20.014 0,-4.3443 3.552737,-7.49805 8.446638,-7.49805 8.319837,0 9.740224,6.04715 4.617299,19.65754 -3.856837,10.24666 -4.88955,11.43821 -6.807487,7.85451 z M -131.10655,563.00684 c 0,-0.6875 0.5625,-1.25 1.25,-1.25 0.6875,0 1.25,0.5625 1.25,1.25 0,0.6875 -0.5625,1.25 -1.25,1.25 -0.6875,0 -1.25,-0.5625 -1.25,-1.25 z m -15.68182,-8.06819 c -3.28089,-3.28088 -4.05061,-9.01047 -1.78034,-13.25251 1.06309,-1.9864 6.70003,-6.739 16.83854,-14.19686 1.50785,-1.10918 3.86536,0.46902 16.37133,10.95955 5.47379,4.59164 5.98353,11.6904 1.18411,16.48982 -3.77174,3.77174 -5.73971,3.82893 -11.79697,0.34282 l -4.73544,-2.72538 -4.40975,2.72538 c -5.66097,3.49867 -7.89563,3.43303 -11.67148,-0.34282 z m 20.1739,-50.5172 c -2.95971,-0.64329 -3.30716,-1.05423 -1.875,-2.2176 0.96686,-0.78539 2.88292,-1.63461 4.25792,-1.88715 2.09507,-0.38479 2.56018,-1.60318 2.87153,-7.52228 0.32377,-6.15521 0.007,-7.31857 -2.46563,-9.05035 -1.56044,-1.09298 -2.14951,-1.98723 -1.30903,-1.98723 3.35711,0 6.52813,4.96616 6.52813,10.22375 0,5.14603 -2.34934,13.66692 -3.68861,13.37836 -0.37752,-0.0813 -2.3212,-0.50322 -4.31931,-0.9375 z m -11.99208,-2.66461 c -1.83333,-1.83333 -2.5,-4.16667 -2.5,-8.75 0,-6.29233 2.87683,-11.25 6.52813,-11.25 0.84048,0 0.27798,0.87565 -1.25,1.94588 -2.33584,1.63609 -2.77813,3.11735 -2.77813,9.30412 0,6.18677 0.44229,7.66803 2.77813,9.30412 1.52798,1.07023 2.09048,1.94588 1.25,1.94588 -0.84047,0 -2.65313,-1.125 -4.02813,-2.5 z m 77.8125,-119.68745 c 82.328125,-0.17747 217.04687,-0.17747 299.375,0 82.32813,0.17746 14.96875,0.32267 -149.6875,0.32267 -164.65625,0 -232.01563,-0.14521 -149.6875,-0.32267 z"
         id="path4635"
         inkscape:connector-curvature="0" />
      <path
         style="fill:#020202"
         d="m -45.16905,1208.3194 c 73.734375,-0.1781 194.39062,-0.1781 268.125,0 73.73438,0.1781 13.40625,0.3238 -134.0625,0.3238 -147.46875,0 -207.79688,-0.1457 -134.0625,-0.3238 z m 344.30209,-74.1563 c 0.24635,-0.7391 0.85572,-1.3016 1.35416,-1.25 0.49844,0.052 1.7832,0.094 2.85502,0.094 1.07183,0 1.60113,0.5625 1.17623,1.25 -1.04285,1.6874 -5.95064,1.602 -5.38541,-0.094 z m 4.81738,-27.9626 c -0.82452,-0.9935 -4.17856,-3.5257 -7.45341,-5.6272 -8.86269,-5.6872 -11.03922,-11.9507 -6.26284,-18.0229 3.1299,-3.979 7.64139,-4.2757 12.06819,-0.7936 1.74803,1.375 3.87027,2.5 4.71609,2.5 0.84583,0 2.96806,-1.125 4.71609,-2.5 6.23265,-4.9026 12.23434,-2.3409 14.00271,5.9767 0.7817,3.6768 0.35409,4.5831 -4.12817,8.75 -7.09372,6.5945 -13.47603,11.5233 -14.92163,11.5233 -0.68084,0 -1.9125,-0.8128 -2.73702,-1.8063 z m -193.63643,-191.31866 -3.98116,-4.375 -17.959505,0 -17.959488,0 -6.3852,-5.74084 -6.385187,-5.74083 0,-21.65092 0,-21.65092 5.9375,-5.71844 5.9375,-5.71844 20.046988,-0.0147 20.046992,-0.0148 5.89051,5.98044 5.89051,5.98044 0,20.79865 c 0,20.36155 -0.0656,20.87671 -3.125,24.51251 -3.85623,4.58286 -3.8828,5.85661 -0.22393,10.73498 5.09167,6.78871 5.10623,6.99298 0.49854,6.99298 -3.26311,0 -5.17087,-1.01426 -8.22907,-4.375 z M 97.223663,901.04782 c 0.413462,-1.07747 0.1145,-2.59622 -0.664238,-3.375 -0.778788,-0.77879 -1.415975,-1.86598 -1.415975,-2.41598 0,-1.82893 7.89279,-1.032 10.16751,1.0266 1.23166,1.11464 3.10408,1.69479 4.16093,1.28924 1.61496,-0.61973 1.92156,-3.84457 1.92156,-20.21129 l 0,-19.47392 -3.34007,-3.09548 c -4.46833,-4.1411 -6.87495,-4.59766 -21.568905,-4.09181 -11.75935,0.40481 -12.754587,0.647 -16.002612,3.89403 -3.417538,3.4165 -3.468738,3.7002 -3.865738,21.41669 l -0.402325,17.95434 3.969313,4.5208 3.969312,4.5208 11.15975,0 c 8.979375,0 11.306613,-0.38275 11.911488,-1.95902 z M 48.89345,828.06565 c 0,-4.50753 2.232687,-9.68876 4.5599,-10.5818 8.44455,-3.24047 55.48778,-3.7857 68.40543,-0.79281 6.32053,1.46441 7.19181,2.48542 7.96353,9.3321 l 0.64627,5.7337 -40.787567,0 -40.787563,0 0,-3.69119 z m 6.563987,-33.0822 0.311013,-8.13765 -7.046388,-7.23197 c -8.973812,-9.21018 -10.785699,-14.33036 -8.018887,-22.66045 3.359125,-10.1134 10.363437,-15.19654 20.9401,-15.19654 9.0443,0 14.361787,3.07725 20.156275,11.66454 6.006488,8.90146 9.55505,9.51222 13.24485,2.27961 3.276025,-6.42152 10.27775,-12.37989 15.75526,-13.40747 2.45281,-0.46015 7.56602,-0.57904 11.36265,-0.26419 8.7492,0.72555 13.75298,5.22233 16.1671,14.52906 2.18693,8.43076 0.6657,13.5931 -6.32502,21.46429 -7.49859,8.44301 -8.38894,10.46065 -7.90475,17.91312 l 0.41881,6.44604 -13.125,-0.625 c -18.288625,-0.87089 -28.586662,-0.78325 -43.436013,0.36963 l -12.811012,0.99462 0.311012,-8.13764 z m 23.943276,-8.49236 c 0.931312,-2.6482 0.455537,-5.22297 -2.229938,-12.06781 -3.578862,-9.1219 -5.622525,-11.00623 -9.617875,-8.86798 -3.401825,1.8206 -3.08085,7.84612 0.71555,13.43303 1.71875,2.52936 3.125,5.48077 3.125,6.55867 0,2.63036 2.634138,5.11731 4.94815,4.67168 1.03135,-0.19861 2.40795,-1.87604 3.059113,-3.72759 z m 26.742737,2.51575 c 0.825,-0.825 1.5,-2.38192 1.5,-3.45984 0,-1.0779 1.40625,-4.02931 3.125,-6.55867 3.7964,-5.58691 4.11738,-11.61243 0.71555,-13.43303 -3.92371,-2.09991 -5.96864,-0.3134 -9.37175,8.18744 -3.564888,8.90493 -3.819863,10.80535 -1.92483,14.34628 1.47448,2.75506 3.7657,3.10815 5.95603,0.91782 z m -19.0288,-46.58758 c -3.797975,-9.08983 -5.416762,-16.22055 -4.340112,-19.1181 2.151237,-5.78956 12.397262,-6.11261 14.195275,-0.44757 0.7759,2.44464 -4.683126,20.94567 -6.824925,23.13025 -0.614813,0.62707 -1.920713,-0.9091 -3.030238,-3.56458 z M -146.3987,554.56934 c -1.06129,-1.20313 -2.32203,-4.03324 -2.80165,-6.28914 -0.7817,-3.67678 -0.35409,-4.58313 4.12817,-8.75 9.65033,-8.97127 14.12888,-12.04175 15.77493,-10.81524 0.86131,0.64179 4.66664,3.30448 8.45629,5.91712 9.83518,6.78046 12.04359,12.60197 7.14368,18.83118 -3.1299,3.97903 -7.64139,4.27569 -12.06818,0.79358 -1.74803,-1.375 -3.87027,-2.5 -4.71609,-2.5 -0.84582,0 -2.96806,1.125 -4.71609,2.5 -3.91905,3.08272 -8.6412,3.21447 -11.20106,0.3125 z m 20.91715,-51.5625 c -0.4249,-0.6875 0.38566,-1.25 1.80123,-1.25 1.41557,0 2.57377,0.5625 2.57377,1.25 0,0.6875 -0.81055,1.25 -1.80123,1.25 -0.99068,0 -2.14887,-0.5625 -2.57377,-1.25 z m 80.3125,-75.93744 c 73.734375,-0.1781 194.39062,-0.1781 268.125,0 73.73438,0.1781 13.40625,0.32382 -134.0625,0.32382 -147.46875,0 -207.79688,-0.14572 -134.0625,-0.32382 z"
         id="path4633"
         inkscape:connector-curvature="0" />
    </g>
  </g>
</svg>
